<?xml version="1.0" encoding="utf-8" standalone="no"?>
<!DOCTYPE svg PUBLIC "-//W3C//DTD SVG 1.1//EN"
  "http://www.w3.org/Graphics/SVG/1.1/DTD/svg11.dtd">
<svg xmlns:xlink="http://www.w3.org/1999/xlink" width="460.8pt" height="345.6pt" viewBox="0 0 460.8 345.6" xmlns="http://www.w3.org/2000/svg" version="1.1">
 <metadata>
  <rdf:RDF xmlns:dc="http://purl.org/dc/elements/1.1/" xmlns:cc="http://creativecommons.org/ns#" xmlns:rdf="http://www.w3.org/1999/02/22-rdf-syntax-ns#">
   <cc:Work>
    <dc:type rdf:resource="http://purl.org/dc/dcmitype/StillImage"/>
    <dc:date>2022-12-20T01:23:06.315123</dc:date>
    <dc:format>image/svg+xml</dc:format>
    <dc:creator>
     <cc:Agent>
      <dc:title>Matplotlib v3.6.2, https://matplotlib.org/</dc:title>
     </cc:Agent>
    </dc:creator>
   </cc:Work>
  </rdf:RDF>
 </metadata>
 <defs>
  <style type="text/css">*{stroke-linejoin: round; stroke-linecap: butt}</style>
 </defs>
 <g id="figure_1">
  <g id="patch_1">
   <path d="M 0 345.6 
L 460.8 345.6 
L 460.8 0 
L 0 0 
z
" style="fill: #ffffff"/>
  </g>
  <g id="axes_1">
   <g id="patch_2">
    <path d="M 57.6 307.584 
L 414.72 307.584 
L 414.72 41.472 
L 57.6 41.472 
z
" style="fill: #ffffff"/>
   </g>
   <g id="matplotlib.axis_1">
    <g id="xtick_1">
     <g id="line2d_1">
      <path d="M 73.832727 307.584 
L 73.832727 41.472 
" clip-path="url(#p8aef8426ba)" style="fill: none; stroke: #b0b0b0; stroke-width: 0.8; stroke-linecap: square"/>
     </g>
     <g id="line2d_2">
      <defs>
       <path id="md1c98294a3" d="M 0 0 
L 0 3.5 
" style="stroke: #000000; stroke-width: 0.8"/>
      </defs>
      <g>
       <use xlink:href="#md1c98294a3" x="73.832727" y="307.584" style="stroke: #000000; stroke-width: 0.8"/>
      </g>
     </g>
     <g id="text_1">
      <!-- 0 -->
      <g transform="translate(69.378977 325.221812) scale(0.14 -0.14)">
       <defs>
        <path id="DejaVuSans-30" d="M 2034 4250 
Q 1547 4250 1301 3770 
Q 1056 3291 1056 2328 
Q 1056 1369 1301 889 
Q 1547 409 2034 409 
Q 2525 409 2770 889 
Q 3016 1369 3016 2328 
Q 3016 3291 2770 3770 
Q 2525 4250 2034 4250 
z
M 2034 4750 
Q 2819 4750 3233 4129 
Q 3647 3509 3647 2328 
Q 3647 1150 3233 529 
Q 2819 -91 2034 -91 
Q 1250 -91 836 529 
Q 422 1150 422 2328 
Q 422 3509 836 4129 
Q 1250 4750 2034 4750 
z
" transform="scale(0.015625)"/>
       </defs>
       <use xlink:href="#DejaVuSans-30"/>
      </g>
     </g>
    </g>
    <g id="xtick_2">
     <g id="line2d_3">
      <path d="M 139.419504 307.584 
L 139.419504 41.472 
" clip-path="url(#p8aef8426ba)" style="fill: none; stroke: #b0b0b0; stroke-width: 0.8; stroke-linecap: square"/>
     </g>
     <g id="line2d_4">
      <g>
       <use xlink:href="#md1c98294a3" x="139.419504" y="307.584" style="stroke: #000000; stroke-width: 0.8"/>
      </g>
     </g>
     <g id="text_2">
      <!-- 20 -->
      <g transform="translate(130.512004 325.221812) scale(0.14 -0.14)">
       <defs>
        <path id="DejaVuSans-32" d="M 1228 531 
L 3431 531 
L 3431 0 
L 469 0 
L 469 531 
Q 828 903 1448 1529 
Q 2069 2156 2228 2338 
Q 2531 2678 2651 2914 
Q 2772 3150 2772 3378 
Q 2772 3750 2511 3984 
Q 2250 4219 1831 4219 
Q 1534 4219 1204 4116 
Q 875 4013 500 3803 
L 500 4441 
Q 881 4594 1212 4672 
Q 1544 4750 1819 4750 
Q 2544 4750 2975 4387 
Q 3406 4025 3406 3419 
Q 3406 3131 3298 2873 
Q 3191 2616 2906 2266 
Q 2828 2175 2409 1742 
Q 1991 1309 1228 531 
z
" transform="scale(0.015625)"/>
       </defs>
       <use xlink:href="#DejaVuSans-32"/>
       <use xlink:href="#DejaVuSans-30" x="63.623047"/>
      </g>
     </g>
    </g>
    <g id="xtick_3">
     <g id="line2d_5">
      <path d="M 205.006281 307.584 
L 205.006281 41.472 
" clip-path="url(#p8aef8426ba)" style="fill: none; stroke: #b0b0b0; stroke-width: 0.8; stroke-linecap: square"/>
     </g>
     <g id="line2d_6">
      <g>
       <use xlink:href="#md1c98294a3" x="205.006281" y="307.584" style="stroke: #000000; stroke-width: 0.8"/>
      </g>
     </g>
     <g id="text_3">
      <!-- 40 -->
      <g transform="translate(196.098781 325.221812) scale(0.14 -0.14)">
       <defs>
        <path id="DejaVuSans-34" d="M 2419 4116 
L 825 1625 
L 2419 1625 
L 2419 4116 
z
M 2253 4666 
L 3047 4666 
L 3047 1625 
L 3713 1625 
L 3713 1100 
L 3047 1100 
L 3047 0 
L 2419 0 
L 2419 1100 
L 313 1100 
L 313 1709 
L 2253 4666 
z
" transform="scale(0.015625)"/>
       </defs>
       <use xlink:href="#DejaVuSans-34"/>
       <use xlink:href="#DejaVuSans-30" x="63.623047"/>
      </g>
     </g>
    </g>
    <g id="xtick_4">
     <g id="line2d_7">
      <path d="M 270.593058 307.584 
L 270.593058 41.472 
" clip-path="url(#p8aef8426ba)" style="fill: none; stroke: #b0b0b0; stroke-width: 0.8; stroke-linecap: square"/>
     </g>
     <g id="line2d_8">
      <g>
       <use xlink:href="#md1c98294a3" x="270.593058" y="307.584" style="stroke: #000000; stroke-width: 0.8"/>
      </g>
     </g>
     <g id="text_4">
      <!-- 60 -->
      <g transform="translate(261.685558 325.221812) scale(0.14 -0.14)">
       <defs>
        <path id="DejaVuSans-36" d="M 2113 2584 
Q 1688 2584 1439 2293 
Q 1191 2003 1191 1497 
Q 1191 994 1439 701 
Q 1688 409 2113 409 
Q 2538 409 2786 701 
Q 3034 994 3034 1497 
Q 3034 2003 2786 2293 
Q 2538 2584 2113 2584 
z
M 3366 4563 
L 3366 3988 
Q 3128 4100 2886 4159 
Q 2644 4219 2406 4219 
Q 1781 4219 1451 3797 
Q 1122 3375 1075 2522 
Q 1259 2794 1537 2939 
Q 1816 3084 2150 3084 
Q 2853 3084 3261 2657 
Q 3669 2231 3669 1497 
Q 3669 778 3244 343 
Q 2819 -91 2113 -91 
Q 1303 -91 875 529 
Q 447 1150 447 2328 
Q 447 3434 972 4092 
Q 1497 4750 2381 4750 
Q 2619 4750 2861 4703 
Q 3103 4656 3366 4563 
z
" transform="scale(0.015625)"/>
       </defs>
       <use xlink:href="#DejaVuSans-36"/>
       <use xlink:href="#DejaVuSans-30" x="63.623047"/>
      </g>
     </g>
    </g>
    <g id="xtick_5">
     <g id="line2d_9">
      <path d="M 336.179835 307.584 
L 336.179835 41.472 
" clip-path="url(#p8aef8426ba)" style="fill: none; stroke: #b0b0b0; stroke-width: 0.8; stroke-linecap: square"/>
     </g>
     <g id="line2d_10">
      <g>
       <use xlink:href="#md1c98294a3" x="336.179835" y="307.584" style="stroke: #000000; stroke-width: 0.8"/>
      </g>
     </g>
     <g id="text_5">
      <!-- 80 -->
      <g transform="translate(327.272335 325.221812) scale(0.14 -0.14)">
       <defs>
        <path id="DejaVuSans-38" d="M 2034 2216 
Q 1584 2216 1326 1975 
Q 1069 1734 1069 1313 
Q 1069 891 1326 650 
Q 1584 409 2034 409 
Q 2484 409 2743 651 
Q 3003 894 3003 1313 
Q 3003 1734 2745 1975 
Q 2488 2216 2034 2216 
z
M 1403 2484 
Q 997 2584 770 2862 
Q 544 3141 544 3541 
Q 544 4100 942 4425 
Q 1341 4750 2034 4750 
Q 2731 4750 3128 4425 
Q 3525 4100 3525 3541 
Q 3525 3141 3298 2862 
Q 3072 2584 2669 2484 
Q 3125 2378 3379 2068 
Q 3634 1759 3634 1313 
Q 3634 634 3220 271 
Q 2806 -91 2034 -91 
Q 1263 -91 848 271 
Q 434 634 434 1313 
Q 434 1759 690 2068 
Q 947 2378 1403 2484 
z
M 1172 3481 
Q 1172 3119 1398 2916 
Q 1625 2713 2034 2713 
Q 2441 2713 2670 2916 
Q 2900 3119 2900 3481 
Q 2900 3844 2670 4047 
Q 2441 4250 2034 4250 
Q 1625 4250 1398 4047 
Q 1172 3844 1172 3481 
z
" transform="scale(0.015625)"/>
       </defs>
       <use xlink:href="#DejaVuSans-38"/>
       <use xlink:href="#DejaVuSans-30" x="63.623047"/>
      </g>
     </g>
    </g>
    <g id="xtick_6">
     <g id="line2d_11">
      <path d="M 401.766612 307.584 
L 401.766612 41.472 
" clip-path="url(#p8aef8426ba)" style="fill: none; stroke: #b0b0b0; stroke-width: 0.8; stroke-linecap: square"/>
     </g>
     <g id="line2d_12">
      <g>
       <use xlink:href="#md1c98294a3" x="401.766612" y="307.584" style="stroke: #000000; stroke-width: 0.8"/>
      </g>
     </g>
     <g id="text_6">
      <!-- 100 -->
      <g transform="translate(388.405362 325.221812) scale(0.14 -0.14)">
       <defs>
        <path id="DejaVuSans-31" d="M 794 531 
L 1825 531 
L 1825 4091 
L 703 3866 
L 703 4441 
L 1819 4666 
L 2450 4666 
L 2450 531 
L 3481 531 
L 3481 0 
L 794 0 
L 794 531 
z
" transform="scale(0.015625)"/>
       </defs>
       <use xlink:href="#DejaVuSans-31"/>
       <use xlink:href="#DejaVuSans-30" x="63.623047"/>
       <use xlink:href="#DejaVuSans-30" x="127.246094"/>
      </g>
     </g>
    </g>
    <g id="text_7">
     <!-- Timesteps -->
     <g transform="translate(200.244531 342.771187) scale(0.14 -0.14)">
      <defs>
       <path id="DejaVuSans-54" d="M -19 4666 
L 3928 4666 
L 3928 4134 
L 2272 4134 
L 2272 0 
L 1638 0 
L 1638 4134 
L -19 4134 
L -19 4666 
z
" transform="scale(0.015625)"/>
       <path id="DejaVuSans-69" d="M 603 3500 
L 1178 3500 
L 1178 0 
L 603 0 
L 603 3500 
z
M 603 4863 
L 1178 4863 
L 1178 4134 
L 603 4134 
L 603 4863 
z
" transform="scale(0.015625)"/>
       <path id="DejaVuSans-6d" d="M 3328 2828 
Q 3544 3216 3844 3400 
Q 4144 3584 4550 3584 
Q 5097 3584 5394 3201 
Q 5691 2819 5691 2113 
L 5691 0 
L 5113 0 
L 5113 2094 
Q 5113 2597 4934 2840 
Q 4756 3084 4391 3084 
Q 3944 3084 3684 2787 
Q 3425 2491 3425 1978 
L 3425 0 
L 2847 0 
L 2847 2094 
Q 2847 2600 2669 2842 
Q 2491 3084 2119 3084 
Q 1678 3084 1418 2786 
Q 1159 2488 1159 1978 
L 1159 0 
L 581 0 
L 581 3500 
L 1159 3500 
L 1159 2956 
Q 1356 3278 1631 3431 
Q 1906 3584 2284 3584 
Q 2666 3584 2933 3390 
Q 3200 3197 3328 2828 
z
" transform="scale(0.015625)"/>
       <path id="DejaVuSans-65" d="M 3597 1894 
L 3597 1613 
L 953 1613 
Q 991 1019 1311 708 
Q 1631 397 2203 397 
Q 2534 397 2845 478 
Q 3156 559 3463 722 
L 3463 178 
Q 3153 47 2828 -22 
Q 2503 -91 2169 -91 
Q 1331 -91 842 396 
Q 353 884 353 1716 
Q 353 2575 817 3079 
Q 1281 3584 2069 3584 
Q 2775 3584 3186 3129 
Q 3597 2675 3597 1894 
z
M 3022 2063 
Q 3016 2534 2758 2815 
Q 2500 3097 2075 3097 
Q 1594 3097 1305 2825 
Q 1016 2553 972 2059 
L 3022 2063 
z
" transform="scale(0.015625)"/>
       <path id="DejaVuSans-73" d="M 2834 3397 
L 2834 2853 
Q 2591 2978 2328 3040 
Q 2066 3103 1784 3103 
Q 1356 3103 1142 2972 
Q 928 2841 928 2578 
Q 928 2378 1081 2264 
Q 1234 2150 1697 2047 
L 1894 2003 
Q 2506 1872 2764 1633 
Q 3022 1394 3022 966 
Q 3022 478 2636 193 
Q 2250 -91 1575 -91 
Q 1294 -91 989 -36 
Q 684 19 347 128 
L 347 722 
Q 666 556 975 473 
Q 1284 391 1588 391 
Q 1994 391 2212 530 
Q 2431 669 2431 922 
Q 2431 1156 2273 1281 
Q 2116 1406 1581 1522 
L 1381 1569 
Q 847 1681 609 1914 
Q 372 2147 372 2553 
Q 372 3047 722 3315 
Q 1072 3584 1716 3584 
Q 2034 3584 2315 3537 
Q 2597 3491 2834 3397 
z
" transform="scale(0.015625)"/>
       <path id="DejaVuSans-74" d="M 1172 4494 
L 1172 3500 
L 2356 3500 
L 2356 3053 
L 1172 3053 
L 1172 1153 
Q 1172 725 1289 603 
Q 1406 481 1766 481 
L 2356 481 
L 2356 0 
L 1766 0 
Q 1100 0 847 248 
Q 594 497 594 1153 
L 594 3053 
L 172 3053 
L 172 3500 
L 594 3500 
L 594 4494 
L 1172 4494 
z
" transform="scale(0.015625)"/>
       <path id="DejaVuSans-70" d="M 1159 525 
L 1159 -1331 
L 581 -1331 
L 581 3500 
L 1159 3500 
L 1159 2969 
Q 1341 3281 1617 3432 
Q 1894 3584 2278 3584 
Q 2916 3584 3314 3078 
Q 3713 2572 3713 1747 
Q 3713 922 3314 415 
Q 2916 -91 2278 -91 
Q 1894 -91 1617 61 
Q 1341 213 1159 525 
z
M 3116 1747 
Q 3116 2381 2855 2742 
Q 2594 3103 2138 3103 
Q 1681 3103 1420 2742 
Q 1159 2381 1159 1747 
Q 1159 1113 1420 752 
Q 1681 391 2138 391 
Q 2594 391 2855 752 
Q 3116 1113 3116 1747 
z
" transform="scale(0.015625)"/>
      </defs>
      <use xlink:href="#DejaVuSans-54"/>
      <use xlink:href="#DejaVuSans-69" x="57.958984"/>
      <use xlink:href="#DejaVuSans-6d" x="85.742188"/>
      <use xlink:href="#DejaVuSans-65" x="183.154297"/>
      <use xlink:href="#DejaVuSans-73" x="244.677734"/>
      <use xlink:href="#DejaVuSans-74" x="296.777344"/>
      <use xlink:href="#DejaVuSans-65" x="335.986328"/>
      <use xlink:href="#DejaVuSans-70" x="397.509766"/>
      <use xlink:href="#DejaVuSans-73" x="460.986328"/>
     </g>
    </g>
   </g>
   <g id="matplotlib.axis_2">
    <g id="ytick_1">
     <g id="line2d_13">
      <path d="M 57.6 276.382746 
L 414.72 276.382746 
" clip-path="url(#p8aef8426ba)" style="fill: none; stroke: #b0b0b0; stroke-width: 0.8; stroke-linecap: square"/>
     </g>
     <g id="line2d_14">
      <defs>
       <path id="m8f512e984d" d="M 0 0 
L -3.5 0 
" style="stroke: #000000; stroke-width: 0.8"/>
      </defs>
      <g>
       <use xlink:href="#m8f512e984d" x="57.6" y="276.382746" style="stroke: #000000; stroke-width: 0.8"/>
      </g>
     </g>
     <g id="text_8">
      <!-- 0.00 -->
      <g transform="translate(19.428125 281.701652) scale(0.14 -0.14)">
       <defs>
        <path id="DejaVuSans-2e" d="M 684 794 
L 1344 794 
L 1344 0 
L 684 0 
L 684 794 
z
" transform="scale(0.015625)"/>
       </defs>
       <use xlink:href="#DejaVuSans-30"/>
       <use xlink:href="#DejaVuSans-2e" x="63.623047"/>
       <use xlink:href="#DejaVuSans-30" x="95.410156"/>
       <use xlink:href="#DejaVuSans-30" x="159.033203"/>
      </g>
     </g>
    </g>
    <g id="ytick_2">
     <g id="line2d_15">
      <path d="M 57.6 237.184582 
L 414.72 237.184582 
" clip-path="url(#p8aef8426ba)" style="fill: none; stroke: #b0b0b0; stroke-width: 0.8; stroke-linecap: square"/>
     </g>
     <g id="line2d_16">
      <g>
       <use xlink:href="#m8f512e984d" x="57.6" y="237.184582" style="stroke: #000000; stroke-width: 0.8"/>
      </g>
     </g>
     <g id="text_9">
      <!-- 0.02 -->
      <g transform="translate(19.428125 242.503488) scale(0.14 -0.14)">
       <use xlink:href="#DejaVuSans-30"/>
       <use xlink:href="#DejaVuSans-2e" x="63.623047"/>
       <use xlink:href="#DejaVuSans-30" x="95.410156"/>
       <use xlink:href="#DejaVuSans-32" x="159.033203"/>
      </g>
     </g>
    </g>
    <g id="ytick_3">
     <g id="line2d_17">
      <path d="M 57.6 197.986418 
L 414.72 197.986418 
" clip-path="url(#p8aef8426ba)" style="fill: none; stroke: #b0b0b0; stroke-width: 0.8; stroke-linecap: square"/>
     </g>
     <g id="line2d_18">
      <g>
       <use xlink:href="#m8f512e984d" x="57.6" y="197.986418" style="stroke: #000000; stroke-width: 0.8"/>
      </g>
     </g>
     <g id="text_10">
      <!-- 0.04 -->
      <g transform="translate(19.428125 203.305324) scale(0.14 -0.14)">
       <use xlink:href="#DejaVuSans-30"/>
       <use xlink:href="#DejaVuSans-2e" x="63.623047"/>
       <use xlink:href="#DejaVuSans-30" x="95.410156"/>
       <use xlink:href="#DejaVuSans-34" x="159.033203"/>
      </g>
     </g>
    </g>
    <g id="ytick_4">
     <g id="line2d_19">
      <path d="M 57.6 158.788254 
L 414.72 158.788254 
" clip-path="url(#p8aef8426ba)" style="fill: none; stroke: #b0b0b0; stroke-width: 0.8; stroke-linecap: square"/>
     </g>
     <g id="line2d_20">
      <g>
       <use xlink:href="#m8f512e984d" x="57.6" y="158.788254" style="stroke: #000000; stroke-width: 0.8"/>
      </g>
     </g>
     <g id="text_11">
      <!-- 0.06 -->
      <g transform="translate(19.428125 164.10716) scale(0.14 -0.14)">
       <use xlink:href="#DejaVuSans-30"/>
       <use xlink:href="#DejaVuSans-2e" x="63.623047"/>
       <use xlink:href="#DejaVuSans-30" x="95.410156"/>
       <use xlink:href="#DejaVuSans-36" x="159.033203"/>
      </g>
     </g>
    </g>
    <g id="ytick_5">
     <g id="line2d_21">
      <path d="M 57.6 119.59009 
L 414.72 119.59009 
" clip-path="url(#p8aef8426ba)" style="fill: none; stroke: #b0b0b0; stroke-width: 0.8; stroke-linecap: square"/>
     </g>
     <g id="line2d_22">
      <g>
       <use xlink:href="#m8f512e984d" x="57.6" y="119.59009" style="stroke: #000000; stroke-width: 0.8"/>
      </g>
     </g>
     <g id="text_12">
      <!-- 0.08 -->
      <g transform="translate(19.428125 124.908996) scale(0.14 -0.14)">
       <use xlink:href="#DejaVuSans-30"/>
       <use xlink:href="#DejaVuSans-2e" x="63.623047"/>
       <use xlink:href="#DejaVuSans-30" x="95.410156"/>
       <use xlink:href="#DejaVuSans-38" x="159.033203"/>
      </g>
     </g>
    </g>
    <g id="ytick_6">
     <g id="line2d_23">
      <path d="M 57.6 80.391925 
L 414.72 80.391925 
" clip-path="url(#p8aef8426ba)" style="fill: none; stroke: #b0b0b0; stroke-width: 0.8; stroke-linecap: square"/>
     </g>
     <g id="line2d_24">
      <g>
       <use xlink:href="#m8f512e984d" x="57.6" y="80.391925" style="stroke: #000000; stroke-width: 0.8"/>
      </g>
     </g>
     <g id="text_13">
      <!-- 0.10 -->
      <g transform="translate(19.428125 85.710832) scale(0.14 -0.14)">
       <use xlink:href="#DejaVuSans-30"/>
       <use xlink:href="#DejaVuSans-2e" x="63.623047"/>
       <use xlink:href="#DejaVuSans-31" x="95.410156"/>
       <use xlink:href="#DejaVuSans-30" x="159.033203"/>
      </g>
     </g>
    </g>
    <g id="text_14">
     <!-- Mean estimate error for the best arm -->
     <g transform="translate(12.516562 304.812219) rotate(-90) scale(0.14 -0.14)">
      <defs>
       <path id="DejaVuSans-4d" d="M 628 4666 
L 1569 4666 
L 2759 1491 
L 3956 4666 
L 4897 4666 
L 4897 0 
L 4281 0 
L 4281 4097 
L 3078 897 
L 2444 897 
L 1241 4097 
L 1241 0 
L 628 0 
L 628 4666 
z
" transform="scale(0.015625)"/>
       <path id="DejaVuSans-61" d="M 2194 1759 
Q 1497 1759 1228 1600 
Q 959 1441 959 1056 
Q 959 750 1161 570 
Q 1363 391 1709 391 
Q 2188 391 2477 730 
Q 2766 1069 2766 1631 
L 2766 1759 
L 2194 1759 
z
M 3341 1997 
L 3341 0 
L 2766 0 
L 2766 531 
Q 2569 213 2275 61 
Q 1981 -91 1556 -91 
Q 1019 -91 701 211 
Q 384 513 384 1019 
Q 384 1609 779 1909 
Q 1175 2209 1959 2209 
L 2766 2209 
L 2766 2266 
Q 2766 2663 2505 2880 
Q 2244 3097 1772 3097 
Q 1472 3097 1187 3025 
Q 903 2953 641 2809 
L 641 3341 
Q 956 3463 1253 3523 
Q 1550 3584 1831 3584 
Q 2591 3584 2966 3190 
Q 3341 2797 3341 1997 
z
" transform="scale(0.015625)"/>
       <path id="DejaVuSans-6e" d="M 3513 2113 
L 3513 0 
L 2938 0 
L 2938 2094 
Q 2938 2591 2744 2837 
Q 2550 3084 2163 3084 
Q 1697 3084 1428 2787 
Q 1159 2491 1159 1978 
L 1159 0 
L 581 0 
L 581 3500 
L 1159 3500 
L 1159 2956 
Q 1366 3272 1645 3428 
Q 1925 3584 2291 3584 
Q 2894 3584 3203 3211 
Q 3513 2838 3513 2113 
z
" transform="scale(0.015625)"/>
       <path id="DejaVuSans-20" transform="scale(0.015625)"/>
       <path id="DejaVuSans-72" d="M 2631 2963 
Q 2534 3019 2420 3045 
Q 2306 3072 2169 3072 
Q 1681 3072 1420 2755 
Q 1159 2438 1159 1844 
L 1159 0 
L 581 0 
L 581 3500 
L 1159 3500 
L 1159 2956 
Q 1341 3275 1631 3429 
Q 1922 3584 2338 3584 
Q 2397 3584 2469 3576 
Q 2541 3569 2628 3553 
L 2631 2963 
z
" transform="scale(0.015625)"/>
       <path id="DejaVuSans-6f" d="M 1959 3097 
Q 1497 3097 1228 2736 
Q 959 2375 959 1747 
Q 959 1119 1226 758 
Q 1494 397 1959 397 
Q 2419 397 2687 759 
Q 2956 1122 2956 1747 
Q 2956 2369 2687 2733 
Q 2419 3097 1959 3097 
z
M 1959 3584 
Q 2709 3584 3137 3096 
Q 3566 2609 3566 1747 
Q 3566 888 3137 398 
Q 2709 -91 1959 -91 
Q 1206 -91 779 398 
Q 353 888 353 1747 
Q 353 2609 779 3096 
Q 1206 3584 1959 3584 
z
" transform="scale(0.015625)"/>
       <path id="DejaVuSans-66" d="M 2375 4863 
L 2375 4384 
L 1825 4384 
Q 1516 4384 1395 4259 
Q 1275 4134 1275 3809 
L 1275 3500 
L 2222 3500 
L 2222 3053 
L 1275 3053 
L 1275 0 
L 697 0 
L 697 3053 
L 147 3053 
L 147 3500 
L 697 3500 
L 697 3744 
Q 697 4328 969 4595 
Q 1241 4863 1831 4863 
L 2375 4863 
z
" transform="scale(0.015625)"/>
       <path id="DejaVuSans-68" d="M 3513 2113 
L 3513 0 
L 2938 0 
L 2938 2094 
Q 2938 2591 2744 2837 
Q 2550 3084 2163 3084 
Q 1697 3084 1428 2787 
Q 1159 2491 1159 1978 
L 1159 0 
L 581 0 
L 581 4863 
L 1159 4863 
L 1159 2956 
Q 1366 3272 1645 3428 
Q 1925 3584 2291 3584 
Q 2894 3584 3203 3211 
Q 3513 2838 3513 2113 
z
" transform="scale(0.015625)"/>
       <path id="DejaVuSans-62" d="M 3116 1747 
Q 3116 2381 2855 2742 
Q 2594 3103 2138 3103 
Q 1681 3103 1420 2742 
Q 1159 2381 1159 1747 
Q 1159 1113 1420 752 
Q 1681 391 2138 391 
Q 2594 391 2855 752 
Q 3116 1113 3116 1747 
z
M 1159 2969 
Q 1341 3281 1617 3432 
Q 1894 3584 2278 3584 
Q 2916 3584 3314 3078 
Q 3713 2572 3713 1747 
Q 3713 922 3314 415 
Q 2916 -91 2278 -91 
Q 1894 -91 1617 61 
Q 1341 213 1159 525 
L 1159 0 
L 581 0 
L 581 4863 
L 1159 4863 
L 1159 2969 
z
" transform="scale(0.015625)"/>
      </defs>
      <use xlink:href="#DejaVuSans-4d"/>
      <use xlink:href="#DejaVuSans-65" x="86.279297"/>
      <use xlink:href="#DejaVuSans-61" x="147.802734"/>
      <use xlink:href="#DejaVuSans-6e" x="209.082031"/>
      <use xlink:href="#DejaVuSans-20" x="272.460938"/>
      <use xlink:href="#DejaVuSans-65" x="304.248047"/>
      <use xlink:href="#DejaVuSans-73" x="365.771484"/>
      <use xlink:href="#DejaVuSans-74" x="417.871094"/>
      <use xlink:href="#DejaVuSans-69" x="457.080078"/>
      <use xlink:href="#DejaVuSans-6d" x="484.863281"/>
      <use xlink:href="#DejaVuSans-61" x="582.275391"/>
      <use xlink:href="#DejaVuSans-74" x="643.554688"/>
      <use xlink:href="#DejaVuSans-65" x="682.763672"/>
      <use xlink:href="#DejaVuSans-20" x="744.287109"/>
      <use xlink:href="#DejaVuSans-65" x="776.074219"/>
      <use xlink:href="#DejaVuSans-72" x="837.597656"/>
      <use xlink:href="#DejaVuSans-72" x="876.960938"/>
      <use xlink:href="#DejaVuSans-6f" x="915.824219"/>
      <use xlink:href="#DejaVuSans-72" x="977.005859"/>
      <use xlink:href="#DejaVuSans-20" x="1018.119141"/>
      <use xlink:href="#DejaVuSans-66" x="1049.90625"/>
      <use xlink:href="#DejaVuSans-6f" x="1085.111328"/>
      <use xlink:href="#DejaVuSans-72" x="1146.292969"/>
      <use xlink:href="#DejaVuSans-20" x="1187.40625"/>
      <use xlink:href="#DejaVuSans-74" x="1219.193359"/>
      <use xlink:href="#DejaVuSans-68" x="1258.402344"/>
      <use xlink:href="#DejaVuSans-65" x="1321.78125"/>
      <use xlink:href="#DejaVuSans-20" x="1383.304688"/>
      <use xlink:href="#DejaVuSans-62" x="1415.091797"/>
      <use xlink:href="#DejaVuSans-65" x="1478.568359"/>
      <use xlink:href="#DejaVuSans-73" x="1540.091797"/>
      <use xlink:href="#DejaVuSans-74" x="1592.191406"/>
      <use xlink:href="#DejaVuSans-20" x="1631.400391"/>
      <use xlink:href="#DejaVuSans-61" x="1663.1875"/>
      <use xlink:href="#DejaVuSans-72" x="1724.466797"/>
      <use xlink:href="#DejaVuSans-6d" x="1763.830078"/>
     </g>
    </g>
   </g>
   <g id="line2d_25">
    <path d="M 73.832727 276.382746 
L 77.112066 276.382746 
L 80.391405 260.825225 
L 83.670744 83.283967 
L 86.950083 53.568 
L 90.229421 67.74626 
L 93.50876 83.565579 
L 96.788099 102.766142 
L 100.067438 125.085107 
L 103.346777 141.449349 
L 106.626116 157.633889 
L 109.905455 168.827344 
L 113.184793 180.737779 
L 116.464132 189.601062 
L 119.743471 196.779368 
L 123.02281 205.037244 
L 126.302149 212.22119 
L 129.581488 217.746915 
L 132.860826 221.002398 
L 136.140165 224.094199 
L 139.419504 227.81293 
L 142.698843 231.206104 
L 145.978182 235.255005 
L 149.257521 237.550324 
L 152.53686 239.803126 
L 155.816198 241.909058 
L 159.095537 243.955848 
L 162.374876 245.910672 
L 165.654215 246.736511 
L 168.933554 248.858552 
L 172.212893 250.302459 
L 175.492231 251.619216 
L 178.77157 252.68917 
L 182.050909 253.660002 
L 185.330248 254.347868 
L 188.609587 255.508043 
L 191.888926 256.508777 
L 195.168264 257.481972 
L 198.447603 258.164975 
L 201.726942 259.050806 
L 205.006281 259.794131 
L 208.28562 260.437947 
L 211.564959 260.945802 
L 214.844298 261.505435 
L 218.123636 261.904051 
L 221.402975 262.358524 
L 224.682314 263.042966 
L 227.961653 263.167461 
L 231.240992 263.479082 
L 234.520331 263.901577 
L 237.799669 264.284328 
L 241.079008 264.537821 
L 244.358347 264.875306 
L 247.637686 265.398554 
L 250.917025 265.844791 
L 254.196364 266.311855 
L 257.475702 266.579605 
L 260.755041 266.837589 
L 264.03438 267.240679 
L 267.313719 267.508184 
L 270.593058 267.947894 
L 273.872397 268.131149 
L 277.151736 268.592203 
L 280.431074 268.833534 
L 283.710413 268.794941 
L 286.989752 268.807292 
L 290.269091 269.028223 
L 293.54843 268.825752 
L 296.827769 269.268977 
L 300.107107 269.501087 
L 303.386446 269.761792 
L 306.665785 269.674438 
L 309.945124 269.872028 
L 313.224463 270.022721 
L 316.503802 269.763938 
L 319.78314 269.782772 
L 323.062479 269.820858 
L 326.341818 269.753882 
L 329.621157 269.983049 
L 332.900496 270.10748 
L 336.179835 270.347082 
L 339.459174 270.591307 
L 342.738512 270.744001 
L 346.017851 270.730041 
L 349.29719 270.926848 
L 352.576529 271.030216 
L 355.855868 271.148812 
L 359.135207 271.223936 
L 362.414545 271.191039 
L 365.693884 271.028082 
L 368.973223 270.929634 
L 372.252562 271.06074 
L 375.531901 271.219454 
L 378.81124 271.374031 
L 382.090579 271.414244 
L 385.369917 271.419234 
L 388.649256 271.523506 
L 391.928595 271.695687 
L 395.207934 271.630717 
L 398.487273 271.796046 
" clip-path="url(#p8aef8426ba)" style="fill: none; stroke: #1f77b4; stroke-width: 2; stroke-linecap: square"/>
    <defs>
     <path id="mcd6ae6e62f" d="M 0 3 
C 0.795609 3 1.55874 2.683901 2.12132 2.12132 
C 2.683901 1.55874 3 0.795609 3 0 
C 3 -0.795609 2.683901 -1.55874 2.12132 -2.12132 
C 1.55874 -2.683901 0.795609 -3 0 -3 
C -0.795609 -3 -1.55874 -2.683901 -2.12132 -2.12132 
C -2.683901 -1.55874 -3 -0.795609 -3 0 
C -3 0.795609 -2.683901 1.55874 -2.12132 2.12132 
C -1.55874 2.683901 -0.795609 3 0 3 
z
" style="stroke: #1f77b4"/>
    </defs>
    <g clip-path="url(#p8aef8426ba)">
     <use xlink:href="#mcd6ae6e62f" x="73.832727" y="276.382746" style="fill: #1f77b4; stroke: #1f77b4"/>
     <use xlink:href="#mcd6ae6e62f" x="90.229421" y="67.74626" style="fill: #1f77b4; stroke: #1f77b4"/>
     <use xlink:href="#mcd6ae6e62f" x="106.626116" y="157.633889" style="fill: #1f77b4; stroke: #1f77b4"/>
     <use xlink:href="#mcd6ae6e62f" x="123.02281" y="205.037244" style="fill: #1f77b4; stroke: #1f77b4"/>
     <use xlink:href="#mcd6ae6e62f" x="139.419504" y="227.81293" style="fill: #1f77b4; stroke: #1f77b4"/>
     <use xlink:href="#mcd6ae6e62f" x="155.816198" y="241.909058" style="fill: #1f77b4; stroke: #1f77b4"/>
     <use xlink:href="#mcd6ae6e62f" x="172.212893" y="250.302459" style="fill: #1f77b4; stroke: #1f77b4"/>
     <use xlink:href="#mcd6ae6e62f" x="188.609587" y="255.508043" style="fill: #1f77b4; stroke: #1f77b4"/>
     <use xlink:href="#mcd6ae6e62f" x="205.006281" y="259.794131" style="fill: #1f77b4; stroke: #1f77b4"/>
     <use xlink:href="#mcd6ae6e62f" x="221.402975" y="262.358524" style="fill: #1f77b4; stroke: #1f77b4"/>
     <use xlink:href="#mcd6ae6e62f" x="237.799669" y="264.284328" style="fill: #1f77b4; stroke: #1f77b4"/>
     <use xlink:href="#mcd6ae6e62f" x="254.196364" y="266.311855" style="fill: #1f77b4; stroke: #1f77b4"/>
     <use xlink:href="#mcd6ae6e62f" x="270.593058" y="267.947894" style="fill: #1f77b4; stroke: #1f77b4"/>
     <use xlink:href="#mcd6ae6e62f" x="286.989752" y="268.807292" style="fill: #1f77b4; stroke: #1f77b4"/>
     <use xlink:href="#mcd6ae6e62f" x="303.386446" y="269.761792" style="fill: #1f77b4; stroke: #1f77b4"/>
     <use xlink:href="#mcd6ae6e62f" x="319.78314" y="269.782772" style="fill: #1f77b4; stroke: #1f77b4"/>
     <use xlink:href="#mcd6ae6e62f" x="336.179835" y="270.347082" style="fill: #1f77b4; stroke: #1f77b4"/>
     <use xlink:href="#mcd6ae6e62f" x="352.576529" y="271.030216" style="fill: #1f77b4; stroke: #1f77b4"/>
     <use xlink:href="#mcd6ae6e62f" x="368.973223" y="270.929634" style="fill: #1f77b4; stroke: #1f77b4"/>
     <use xlink:href="#mcd6ae6e62f" x="385.369917" y="271.419234" style="fill: #1f77b4; stroke: #1f77b4"/>
    </g>
   </g>
   <g id="line2d_26">
    <path d="M 119.743471 307.584 
L 119.743471 41.472 
" clip-path="url(#p8aef8426ba)" style="fill: none; stroke-dasharray: 7.4,3.2; stroke-dashoffset: 0; stroke: #1f77b4; stroke-width: 2"/>
   </g>
   <g id="line2d_27">
    <path d="M 73.832727 276.382746 
L 77.112066 276.382746 
L 80.391405 295.488 
L 83.670744 235.414827 
L 86.950083 228.757549 
L 90.229421 234.925051 
L 93.50876 235.531684 
L 96.788099 242.710747 
L 100.067438 247.875752 
L 103.346777 249.914337 
L 106.626116 251.726012 
L 109.905455 254.275873 
L 113.184793 257.187945 
L 116.464132 257.391145 
L 119.743471 257.585451 
L 123.02281 257.53419 
L 126.302149 257.415168 
L 129.581488 258.39889 
L 132.860826 259.537556 
L 136.140165 260.959556 
L 139.419504 261.4476 
L 142.698843 261.500258 
L 145.978182 263.279584 
L 149.257521 263.690716 
L 152.53686 264.689739 
L 155.816198 265.472869 
L 159.095537 266.180842 
L 162.374876 266.826474 
L 165.654215 267.043762 
L 168.933554 266.794645 
L 172.212893 266.431448 
L 175.492231 266.821648 
L 178.77157 267.014542 
L 182.050909 267.276684 
L 185.330248 267.406252 
L 188.609587 267.62557 
L 191.888926 267.165359 
L 195.168264 267.282048 
L 198.447603 267.390797 
L 201.726942 267.790506 
L 205.006281 268.192509 
L 208.28562 268.320528 
L 211.564959 268.710806 
L 214.844298 268.944905 
L 218.123636 269.295457 
L 221.402975 269.735888 
L 224.682314 269.709957 
L 227.961653 270.386873 
L 231.240992 270.666014 
L 234.520331 270.901678 
L 237.799669 270.742592 
L 241.079008 270.716949 
L 244.358347 271.124041 
L 247.637686 271.576225 
L 250.917025 271.756473 
L 254.196364 271.804657 
L 257.475702 272.117264 
L 260.755041 271.975142 
L 264.03438 272.052093 
L 267.313719 272.126774 
L 270.593058 272.510196 
L 273.872397 272.901594 
L 277.151736 272.800004 
L 280.431074 272.850235 
L 283.710413 272.945375 
L 286.989752 272.769473 
L 290.269091 272.960106 
L 293.54843 272.865501 
L 296.827769 272.891349 
L 300.107107 273.127017 
L 303.386446 273.177063 
L 306.665785 273.135373 
L 309.945124 273.37498 
L 313.224463 273.564441 
L 316.503802 273.662009 
L 319.78314 273.754173 
L 323.062479 273.748852 
L 326.341818 273.641479 
L 329.621157 273.468645 
L 332.900496 273.537518 
L 336.179835 273.650612 
L 339.459174 273.750899 
L 342.738512 273.630797 
L 346.017851 273.814345 
L 349.29719 273.918547 
L 352.576529 273.827615 
L 355.855868 273.653341 
L 359.135207 273.768176 
L 362.414545 273.8813 
L 365.693884 273.868336 
L 368.973223 273.890023 
L 372.252562 273.930799 
L 375.531901 274.191766 
L 378.81124 274.173471 
L 382.090579 274.218944 
L 385.369917 274.23851 
L 388.649256 274.405307 
L 391.928595 274.453428 
L 395.207934 274.576616 
L 398.487273 274.589901 
" clip-path="url(#p8aef8426ba)" style="fill: none; stroke: #ff7f0e; stroke-width: 2; stroke-linecap: square"/>
    <defs>
     <path id="m28502983c8" d="M 0 -3 
L -3 3 
L 3 3 
z
" style="stroke: #ff7f0e; stroke-linejoin: miter"/>
    </defs>
    <g clip-path="url(#p8aef8426ba)">
     <use xlink:href="#m28502983c8" x="73.832727" y="276.382746" style="fill: #ff7f0e; stroke: #ff7f0e; stroke-linejoin: miter"/>
     <use xlink:href="#m28502983c8" x="90.229421" y="234.925051" style="fill: #ff7f0e; stroke: #ff7f0e; stroke-linejoin: miter"/>
     <use xlink:href="#m28502983c8" x="106.626116" y="251.726012" style="fill: #ff7f0e; stroke: #ff7f0e; stroke-linejoin: miter"/>
     <use xlink:href="#m28502983c8" x="123.02281" y="257.53419" style="fill: #ff7f0e; stroke: #ff7f0e; stroke-linejoin: miter"/>
     <use xlink:href="#m28502983c8" x="139.419504" y="261.4476" style="fill: #ff7f0e; stroke: #ff7f0e; stroke-linejoin: miter"/>
     <use xlink:href="#m28502983c8" x="155.816198" y="265.472869" style="fill: #ff7f0e; stroke: #ff7f0e; stroke-linejoin: miter"/>
     <use xlink:href="#m28502983c8" x="172.212893" y="266.431448" style="fill: #ff7f0e; stroke: #ff7f0e; stroke-linejoin: miter"/>
     <use xlink:href="#m28502983c8" x="188.609587" y="267.62557" style="fill: #ff7f0e; stroke: #ff7f0e; stroke-linejoin: miter"/>
     <use xlink:href="#m28502983c8" x="205.006281" y="268.192509" style="fill: #ff7f0e; stroke: #ff7f0e; stroke-linejoin: miter"/>
     <use xlink:href="#m28502983c8" x="221.402975" y="269.735888" style="fill: #ff7f0e; stroke: #ff7f0e; stroke-linejoin: miter"/>
     <use xlink:href="#m28502983c8" x="237.799669" y="270.742592" style="fill: #ff7f0e; stroke: #ff7f0e; stroke-linejoin: miter"/>
     <use xlink:href="#m28502983c8" x="254.196364" y="271.804657" style="fill: #ff7f0e; stroke: #ff7f0e; stroke-linejoin: miter"/>
     <use xlink:href="#m28502983c8" x="270.593058" y="272.510196" style="fill: #ff7f0e; stroke: #ff7f0e; stroke-linejoin: miter"/>
     <use xlink:href="#m28502983c8" x="286.989752" y="272.769473" style="fill: #ff7f0e; stroke: #ff7f0e; stroke-linejoin: miter"/>
     <use xlink:href="#m28502983c8" x="303.386446" y="273.177063" style="fill: #ff7f0e; stroke: #ff7f0e; stroke-linejoin: miter"/>
     <use xlink:href="#m28502983c8" x="319.78314" y="273.754173" style="fill: #ff7f0e; stroke: #ff7f0e; stroke-linejoin: miter"/>
     <use xlink:href="#m28502983c8" x="336.179835" y="273.650612" style="fill: #ff7f0e; stroke: #ff7f0e; stroke-linejoin: miter"/>
     <use xlink:href="#m28502983c8" x="352.576529" y="273.827615" style="fill: #ff7f0e; stroke: #ff7f0e; stroke-linejoin: miter"/>
     <use xlink:href="#m28502983c8" x="368.973223" y="273.890023" style="fill: #ff7f0e; stroke: #ff7f0e; stroke-linejoin: miter"/>
     <use xlink:href="#m28502983c8" x="385.369917" y="274.23851" style="fill: #ff7f0e; stroke: #ff7f0e; stroke-linejoin: miter"/>
    </g>
   </g>
   <g id="line2d_28">
    <path d="M 132.860826 307.584 
L 132.860826 41.472 
" clip-path="url(#p8aef8426ba)" style="fill: none; stroke-dasharray: 7.4,3.2; stroke-dashoffset: 0; stroke: #ff7f0e; stroke-width: 2"/>
   </g>
   <g id="line2d_29">
    <path d="M 73.832727 276.382746 
L 77.112066 276.382746 
L 80.391405 265.668396 
L 83.670744 219.948397 
L 86.950083 219.434642 
L 90.229421 225.289786 
L 93.50876 229.768564 
L 96.788099 236.904555 
L 100.067438 241.534835 
L 103.346777 244.72727 
L 106.626116 247.248683 
L 109.905455 249.751898 
L 113.184793 251.644691 
L 116.464132 253.874151 
L 119.743471 254.487927 
L 123.02281 256.24903 
L 126.302149 256.422598 
L 129.581488 257.332049 
L 132.860826 258.910526 
L 136.140165 258.925803 
L 139.419504 259.452856 
L 142.698843 259.405286 
L 145.978182 260.252006 
L 149.257521 261.333969 
L 152.53686 262.147434 
L 155.816198 263.322801 
L 159.095537 263.647356 
L 162.374876 264.577184 
L 165.654215 265.026681 
L 168.933554 265.565116 
L 172.212893 266.051758 
L 175.492231 265.929698 
L 178.77157 266.114252 
L 182.050909 266.44372 
L 185.330248 267.333084 
L 188.609587 267.90978 
L 191.888926 268.021317 
L 195.168264 268.076205 
L 198.447603 268.127938 
L 201.726942 268.244944 
L 205.006281 268.838759 
L 208.28562 269.131024 
L 211.564959 268.87596 
L 214.844298 268.867343 
L 218.123636 269.271411 
L 221.402975 269.672929 
L 224.682314 269.924134 
L 227.961653 270.041013 
L 231.240992 269.913065 
L 234.520331 269.908022 
L 237.799669 270.143452 
L 241.079008 270.172239 
L 244.358347 270.396548 
L 247.637686 270.727565 
L 250.917025 270.897128 
L 254.196364 270.712675 
L 257.475702 270.606813 
L 260.755041 270.809692 
L 264.03438 270.743981 
L 267.313719 271.056737 
L 270.593058 271.094623 
L 273.872397 271.371439 
L 277.151736 271.213829 
L 280.431074 271.213109 
L 283.710413 271.127586 
L 286.989752 271.317869 
L 290.269091 271.197009 
L 293.54843 271.38701 
L 296.827769 271.518348 
L 300.107107 271.704122 
L 303.386446 271.905103 
L 306.665785 271.74972 
L 309.945124 271.877174 
L 313.224463 272.004012 
L 316.503802 271.948344 
L 319.78314 272.183759 
L 323.062479 272.282421 
L 326.341818 272.296387 
L 329.621157 272.161824 
L 332.900496 272.229094 
L 336.179835 272.42205 
L 339.459174 272.280611 
L 342.738512 272.310959 
L 346.017851 272.270049 
L 349.29719 272.344378 
L 352.576529 272.43829 
L 355.855868 272.3539 
L 359.135207 272.540101 
L 362.414545 272.698283 
L 365.693884 272.737013 
L 368.973223 272.774035 
L 372.252562 273.066642 
L 375.531901 273.304121 
L 378.81124 273.378848 
L 382.090579 273.390551 
L 385.369917 273.431004 
L 388.649256 273.581835 
L 391.928595 273.376363 
L 395.207934 273.5067 
L 398.487273 273.501193 
" clip-path="url(#p8aef8426ba)" style="fill: none; stroke: #2ca02c; stroke-width: 2; stroke-linecap: square"/>
    <defs>
     <path id="m26dc75ab27" d="M -3 3 
L 3 3 
L 3 -3 
L -3 -3 
z
" style="stroke: #2ca02c; stroke-linejoin: miter"/>
    </defs>
    <g clip-path="url(#p8aef8426ba)">
     <use xlink:href="#m26dc75ab27" x="73.832727" y="276.382746" style="fill: #2ca02c; stroke: #2ca02c; stroke-linejoin: miter"/>
     <use xlink:href="#m26dc75ab27" x="90.229421" y="225.289786" style="fill: #2ca02c; stroke: #2ca02c; stroke-linejoin: miter"/>
     <use xlink:href="#m26dc75ab27" x="106.626116" y="247.248683" style="fill: #2ca02c; stroke: #2ca02c; stroke-linejoin: miter"/>
     <use xlink:href="#m26dc75ab27" x="123.02281" y="256.24903" style="fill: #2ca02c; stroke: #2ca02c; stroke-linejoin: miter"/>
     <use xlink:href="#m26dc75ab27" x="139.419504" y="259.452856" style="fill: #2ca02c; stroke: #2ca02c; stroke-linejoin: miter"/>
     <use xlink:href="#m26dc75ab27" x="155.816198" y="263.322801" style="fill: #2ca02c; stroke: #2ca02c; stroke-linejoin: miter"/>
     <use xlink:href="#m26dc75ab27" x="172.212893" y="266.051758" style="fill: #2ca02c; stroke: #2ca02c; stroke-linejoin: miter"/>
     <use xlink:href="#m26dc75ab27" x="188.609587" y="267.90978" style="fill: #2ca02c; stroke: #2ca02c; stroke-linejoin: miter"/>
     <use xlink:href="#m26dc75ab27" x="205.006281" y="268.838759" style="fill: #2ca02c; stroke: #2ca02c; stroke-linejoin: miter"/>
     <use xlink:href="#m26dc75ab27" x="221.402975" y="269.672929" style="fill: #2ca02c; stroke: #2ca02c; stroke-linejoin: miter"/>
     <use xlink:href="#m26dc75ab27" x="237.799669" y="270.143452" style="fill: #2ca02c; stroke: #2ca02c; stroke-linejoin: miter"/>
     <use xlink:href="#m26dc75ab27" x="254.196364" y="270.712675" style="fill: #2ca02c; stroke: #2ca02c; stroke-linejoin: miter"/>
     <use xlink:href="#m26dc75ab27" x="270.593058" y="271.094623" style="fill: #2ca02c; stroke: #2ca02c; stroke-linejoin: miter"/>
     <use xlink:href="#m26dc75ab27" x="286.989752" y="271.317869" style="fill: #2ca02c; stroke: #2ca02c; stroke-linejoin: miter"/>
     <use xlink:href="#m26dc75ab27" x="303.386446" y="271.905103" style="fill: #2ca02c; stroke: #2ca02c; stroke-linejoin: miter"/>
     <use xlink:href="#m26dc75ab27" x="319.78314" y="272.183759" style="fill: #2ca02c; stroke: #2ca02c; stroke-linejoin: miter"/>
     <use xlink:href="#m26dc75ab27" x="336.179835" y="272.42205" style="fill: #2ca02c; stroke: #2ca02c; stroke-linejoin: miter"/>
     <use xlink:href="#m26dc75ab27" x="352.576529" y="272.43829" style="fill: #2ca02c; stroke: #2ca02c; stroke-linejoin: miter"/>
     <use xlink:href="#m26dc75ab27" x="368.973223" y="272.774035" style="fill: #2ca02c; stroke: #2ca02c; stroke-linejoin: miter"/>
     <use xlink:href="#m26dc75ab27" x="385.369917" y="273.431004" style="fill: #2ca02c; stroke: #2ca02c; stroke-linejoin: miter"/>
    </g>
   </g>
   <g id="line2d_30">
    <path d="M 123.02281 307.584 
L 123.02281 41.472 
" clip-path="url(#p8aef8426ba)" style="fill: none; stroke-dasharray: 7.4,3.2; stroke-dashoffset: 0; stroke: #2ca02c; stroke-width: 2"/>
   </g>
   <g id="patch_3">
    <path d="M 57.6 307.584 
L 57.6 41.472 
" style="fill: none; stroke: #000000; stroke-width: 0.8; stroke-linejoin: miter; stroke-linecap: square"/>
   </g>
   <g id="patch_4">
    <path d="M 414.72 307.584 
L 414.72 41.472 
" style="fill: none; stroke: #000000; stroke-width: 0.8; stroke-linejoin: miter; stroke-linecap: square"/>
   </g>
   <g id="patch_5">
    <path d="M 57.6 307.584 
L 414.72 307.584 
" style="fill: none; stroke: #000000; stroke-width: 0.8; stroke-linejoin: miter; stroke-linecap: square"/>
   </g>
   <g id="patch_6">
    <path d="M 57.6 41.472 
L 414.72 41.472 
" style="fill: none; stroke: #000000; stroke-width: 0.8; stroke-linejoin: miter; stroke-linecap: square"/>
   </g>
   <g id="text_15">
    <!-- All-to-All network -->
    <g transform="translate(176.101094 35.472) scale(0.14 -0.14)">
     <defs>
      <path id="DejaVuSans-41" d="M 2188 4044 
L 1331 1722 
L 3047 1722 
L 2188 4044 
z
M 1831 4666 
L 2547 4666 
L 4325 0 
L 3669 0 
L 3244 1197 
L 1141 1197 
L 716 0 
L 50 0 
L 1831 4666 
z
" transform="scale(0.015625)"/>
      <path id="DejaVuSans-6c" d="M 603 4863 
L 1178 4863 
L 1178 0 
L 603 0 
L 603 4863 
z
" transform="scale(0.015625)"/>
      <path id="DejaVuSans-2d" d="M 313 2009 
L 1997 2009 
L 1997 1497 
L 313 1497 
L 313 2009 
z
" transform="scale(0.015625)"/>
      <path id="DejaVuSans-77" d="M 269 3500 
L 844 3500 
L 1563 769 
L 2278 3500 
L 2956 3500 
L 3675 769 
L 4391 3500 
L 4966 3500 
L 4050 0 
L 3372 0 
L 2619 2869 
L 1863 0 
L 1184 0 
L 269 3500 
z
" transform="scale(0.015625)"/>
      <path id="DejaVuSans-6b" d="M 581 4863 
L 1159 4863 
L 1159 1991 
L 2875 3500 
L 3609 3500 
L 1753 1863 
L 3688 0 
L 2938 0 
L 1159 1709 
L 1159 0 
L 581 0 
L 581 4863 
z
" transform="scale(0.015625)"/>
     </defs>
     <use xlink:href="#DejaVuSans-41"/>
     <use xlink:href="#DejaVuSans-6c" x="68.408203"/>
     <use xlink:href="#DejaVuSans-6c" x="96.191406"/>
     <use xlink:href="#DejaVuSans-2d" x="123.974609"/>
     <use xlink:href="#DejaVuSans-74" x="160.058594"/>
     <use xlink:href="#DejaVuSans-6f" x="199.267578"/>
     <use xlink:href="#DejaVuSans-2d" x="262.324219"/>
     <use xlink:href="#DejaVuSans-41" x="296.158203"/>
     <use xlink:href="#DejaVuSans-6c" x="364.566406"/>
     <use xlink:href="#DejaVuSans-6c" x="392.349609"/>
     <use xlink:href="#DejaVuSans-20" x="420.132812"/>
     <use xlink:href="#DejaVuSans-6e" x="451.919922"/>
     <use xlink:href="#DejaVuSans-65" x="515.298828"/>
     <use xlink:href="#DejaVuSans-74" x="576.822266"/>
     <use xlink:href="#DejaVuSans-77" x="616.03125"/>
     <use xlink:href="#DejaVuSans-6f" x="697.818359"/>
     <use xlink:href="#DejaVuSans-72" x="759"/>
     <use xlink:href="#DejaVuSans-6b" x="800.113281"/>
    </g>
   </g>
   <g id="legend_1">
    <g id="patch_7">
     <path d="M 332.824688 93.506375 
L 407.72 93.506375 
Q 409.72 93.506375 409.72 91.506375 
L 409.72 48.472 
Q 409.72 46.472 407.72 46.472 
L 332.824688 46.472 
Q 330.824688 46.472 330.824688 48.472 
L 330.824688 91.506375 
Q 330.824688 93.506375 332.824688 93.506375 
z
" style="fill: #ffffff; opacity: 0.8; stroke: #cccccc; stroke-linejoin: miter"/>
    </g>
    <g id="line2d_31">
     <path d="M 334.824688 54.570438 
L 344.824688 54.570438 
L 354.824688 54.570438 
" style="fill: none; stroke: #1f77b4; stroke-width: 2; stroke-linecap: square"/>
     <g>
      <use xlink:href="#mcd6ae6e62f" x="344.824688" y="54.570438" style="fill: #1f77b4; stroke: #1f77b4"/>
     </g>
    </g>
    <g id="text_16">
     <!-- κ = 0.02 -->
     <g transform="translate(362.824688 58.070438) scale(0.1 -0.1)">
      <defs>
       <path id="DejaVuSans-3ba" d="M 597 3500 
L 1191 3500 
L 1191 2047 
L 2700 3500 
L 3400 3500 
L 2022 2181 
L 3616 0 
L 2913 0 
L 1619 1806 
L 1191 1403 
L 1191 0 
L 597 0 
L 597 3500 
z
" transform="scale(0.015625)"/>
       <path id="DejaVuSans-3d" d="M 678 2906 
L 4684 2906 
L 4684 2381 
L 678 2381 
L 678 2906 
z
M 678 1631 
L 4684 1631 
L 4684 1100 
L 678 1100 
L 678 1631 
z
" transform="scale(0.015625)"/>
      </defs>
      <use xlink:href="#DejaVuSans-3ba"/>
      <use xlink:href="#DejaVuSans-20" x="58.935547"/>
      <use xlink:href="#DejaVuSans-3d" x="90.722656"/>
      <use xlink:href="#DejaVuSans-20" x="174.511719"/>
      <use xlink:href="#DejaVuSans-30" x="206.298828"/>
      <use xlink:href="#DejaVuSans-2e" x="269.921875"/>
      <use xlink:href="#DejaVuSans-30" x="301.708984"/>
      <use xlink:href="#DejaVuSans-32" x="365.332031"/>
     </g>
    </g>
    <g id="line2d_32">
     <path d="M 334.824688 69.248563 
L 344.824688 69.248563 
L 354.824688 69.248563 
" style="fill: none; stroke: #ff7f0e; stroke-width: 2; stroke-linecap: square"/>
     <g>
      <use xlink:href="#m28502983c8" x="344.824688" y="69.248563" style="fill: #ff7f0e; stroke: #ff7f0e; stroke-linejoin: miter"/>
     </g>
    </g>
    <g id="text_17">
     <!-- FDLA -->
     <g transform="translate(362.824688 72.748563) scale(0.1 -0.1)">
      <defs>
       <path id="DejaVuSans-46" d="M 628 4666 
L 3309 4666 
L 3309 4134 
L 1259 4134 
L 1259 2759 
L 3109 2759 
L 3109 2228 
L 1259 2228 
L 1259 0 
L 628 0 
L 628 4666 
z
" transform="scale(0.015625)"/>
       <path id="DejaVuSans-44" d="M 1259 4147 
L 1259 519 
L 2022 519 
Q 2988 519 3436 956 
Q 3884 1394 3884 2338 
Q 3884 3275 3436 3711 
Q 2988 4147 2022 4147 
L 1259 4147 
z
M 628 4666 
L 1925 4666 
Q 3281 4666 3915 4102 
Q 4550 3538 4550 2338 
Q 4550 1131 3912 565 
Q 3275 0 1925 0 
L 628 0 
L 628 4666 
z
" transform="scale(0.015625)"/>
       <path id="DejaVuSans-4c" d="M 628 4666 
L 1259 4666 
L 1259 531 
L 3531 531 
L 3531 0 
L 628 0 
L 628 4666 
z
" transform="scale(0.015625)"/>
      </defs>
      <use xlink:href="#DejaVuSans-46"/>
      <use xlink:href="#DejaVuSans-44" x="57.519531"/>
      <use xlink:href="#DejaVuSans-4c" x="134.521484"/>
      <use xlink:href="#DejaVuSans-41" x="192.484375"/>
     </g>
    </g>
    <g id="line2d_33">
     <path d="M 334.824688 83.926688 
L 344.824688 83.926688 
L 354.824688 83.926688 
" style="fill: none; stroke: #2ca02c; stroke-width: 2; stroke-linecap: square"/>
     <g>
      <use xlink:href="#m26dc75ab27" x="344.824688" y="83.926688" style="fill: #2ca02c; stroke: #2ca02c; stroke-linejoin: miter"/>
     </g>
    </g>
    <g id="text_18">
     <!-- FMMC -->
     <g transform="translate(362.824688 87.426688) scale(0.1 -0.1)">
      <defs>
       <path id="DejaVuSans-43" d="M 4122 4306 
L 4122 3641 
Q 3803 3938 3442 4084 
Q 3081 4231 2675 4231 
Q 1875 4231 1450 3742 
Q 1025 3253 1025 2328 
Q 1025 1406 1450 917 
Q 1875 428 2675 428 
Q 3081 428 3442 575 
Q 3803 722 4122 1019 
L 4122 359 
Q 3791 134 3420 21 
Q 3050 -91 2638 -91 
Q 1578 -91 968 557 
Q 359 1206 359 2328 
Q 359 3453 968 4101 
Q 1578 4750 2638 4750 
Q 3056 4750 3426 4639 
Q 3797 4528 4122 4306 
z
" transform="scale(0.015625)"/>
      </defs>
      <use xlink:href="#DejaVuSans-46"/>
      <use xlink:href="#DejaVuSans-4d" x="57.519531"/>
      <use xlink:href="#DejaVuSans-4d" x="143.798828"/>
      <use xlink:href="#DejaVuSans-43" x="230.078125"/>
     </g>
    </g>
   </g>
  </g>
 </g>
 <defs>
  <clipPath id="p8aef8426ba">
   <rect x="57.6" y="41.472" width="357.12" height="266.112"/>
  </clipPath>
 </defs>
</svg>
