<?xml version="1.0" encoding="utf-8" standalone="no"?>
<!DOCTYPE svg PUBLIC "-//W3C//DTD SVG 1.1//EN"
  "http://www.w3.org/Graphics/SVG/1.1/DTD/svg11.dtd">
<svg xmlns:xlink="http://www.w3.org/1999/xlink" width="460.8pt" height="345.6pt" viewBox="0 0 460.8 345.6" xmlns="http://www.w3.org/2000/svg" version="1.1">
 <metadata>
  <rdf:RDF xmlns:dc="http://purl.org/dc/elements/1.1/" xmlns:cc="http://creativecommons.org/ns#" xmlns:rdf="http://www.w3.org/1999/02/22-rdf-syntax-ns#">
   <cc:Work>
    <dc:type rdf:resource="http://purl.org/dc/dcmitype/StillImage"/>
    <dc:date>2022-12-13T04:40:39.515508</dc:date>
    <dc:format>image/svg+xml</dc:format>
    <dc:creator>
     <cc:Agent>
      <dc:title>Matplotlib v3.6.2, https://matplotlib.org/</dc:title>
     </cc:Agent>
    </dc:creator>
   </cc:Work>
  </rdf:RDF>
 </metadata>
 <defs>
  <style type="text/css">*{stroke-linejoin: round; stroke-linecap: butt}</style>
 </defs>
 <g id="figure_1">
  <g id="patch_1">
   <path d="M 0 345.6 
L 460.8 345.6 
L 460.8 0 
L 0 0 
z
" style="fill: #ffffff"/>
  </g>
  <g id="axes_1">
   <g id="patch_2">
    <path d="M 57.6 307.584 
L 414.72 307.584 
L 414.72 41.472 
L 57.6 41.472 
z
" style="fill: #ffffff"/>
   </g>
   <g id="matplotlib.axis_1">
    <g id="xtick_1">
     <g id="line2d_1">
      <path d="M 73.832727 307.584 
L 73.832727 41.472 
" clip-path="url(#pd2cea5bd02)" style="fill: none; stroke: #b0b0b0; stroke-width: 0.8; stroke-linecap: square"/>
     </g>
     <g id="line2d_2">
      <defs>
       <path id="m2914676890" d="M 0 0 
L 0 3.5 
" style="stroke: #000000; stroke-width: 0.8"/>
      </defs>
      <g>
       <use xlink:href="#m2914676890" x="73.832727" y="307.584" style="stroke: #000000; stroke-width: 0.8"/>
      </g>
     </g>
     <g id="text_1">
      <!-- 0 -->
      <g transform="translate(69.378977 325.221812) scale(0.14 -0.14)">
       <defs>
        <path id="DejaVuSans-30" d="M 2034 4250 
Q 1547 4250 1301 3770 
Q 1056 3291 1056 2328 
Q 1056 1369 1301 889 
Q 1547 409 2034 409 
Q 2525 409 2770 889 
Q 3016 1369 3016 2328 
Q 3016 3291 2770 3770 
Q 2525 4250 2034 4250 
z
M 2034 4750 
Q 2819 4750 3233 4129 
Q 3647 3509 3647 2328 
Q 3647 1150 3233 529 
Q 2819 -91 2034 -91 
Q 1250 -91 836 529 
Q 422 1150 422 2328 
Q 422 3509 836 4129 
Q 1250 4750 2034 4750 
z
" transform="scale(0.015625)"/>
       </defs>
       <use xlink:href="#DejaVuSans-30"/>
      </g>
     </g>
    </g>
    <g id="xtick_2">
     <g id="line2d_3">
      <path d="M 139.419504 307.584 
L 139.419504 41.472 
" clip-path="url(#pd2cea5bd02)" style="fill: none; stroke: #b0b0b0; stroke-width: 0.8; stroke-linecap: square"/>
     </g>
     <g id="line2d_4">
      <g>
       <use xlink:href="#m2914676890" x="139.419504" y="307.584" style="stroke: #000000; stroke-width: 0.8"/>
      </g>
     </g>
     <g id="text_2">
      <!-- 20 -->
      <g transform="translate(130.512004 325.221812) scale(0.14 -0.14)">
       <defs>
        <path id="DejaVuSans-32" d="M 1228 531 
L 3431 531 
L 3431 0 
L 469 0 
L 469 531 
Q 828 903 1448 1529 
Q 2069 2156 2228 2338 
Q 2531 2678 2651 2914 
Q 2772 3150 2772 3378 
Q 2772 3750 2511 3984 
Q 2250 4219 1831 4219 
Q 1534 4219 1204 4116 
Q 875 4013 500 3803 
L 500 4441 
Q 881 4594 1212 4672 
Q 1544 4750 1819 4750 
Q 2544 4750 2975 4387 
Q 3406 4025 3406 3419 
Q 3406 3131 3298 2873 
Q 3191 2616 2906 2266 
Q 2828 2175 2409 1742 
Q 1991 1309 1228 531 
z
" transform="scale(0.015625)"/>
       </defs>
       <use xlink:href="#DejaVuSans-32"/>
       <use xlink:href="#DejaVuSans-30" x="63.623047"/>
      </g>
     </g>
    </g>
    <g id="xtick_3">
     <g id="line2d_5">
      <path d="M 205.006281 307.584 
L 205.006281 41.472 
" clip-path="url(#pd2cea5bd02)" style="fill: none; stroke: #b0b0b0; stroke-width: 0.8; stroke-linecap: square"/>
     </g>
     <g id="line2d_6">
      <g>
       <use xlink:href="#m2914676890" x="205.006281" y="307.584" style="stroke: #000000; stroke-width: 0.8"/>
      </g>
     </g>
     <g id="text_3">
      <!-- 40 -->
      <g transform="translate(196.098781 325.221812) scale(0.14 -0.14)">
       <defs>
        <path id="DejaVuSans-34" d="M 2419 4116 
L 825 1625 
L 2419 1625 
L 2419 4116 
z
M 2253 4666 
L 3047 4666 
L 3047 1625 
L 3713 1625 
L 3713 1100 
L 3047 1100 
L 3047 0 
L 2419 0 
L 2419 1100 
L 313 1100 
L 313 1709 
L 2253 4666 
z
" transform="scale(0.015625)"/>
       </defs>
       <use xlink:href="#DejaVuSans-34"/>
       <use xlink:href="#DejaVuSans-30" x="63.623047"/>
      </g>
     </g>
    </g>
    <g id="xtick_4">
     <g id="line2d_7">
      <path d="M 270.593058 307.584 
L 270.593058 41.472 
" clip-path="url(#pd2cea5bd02)" style="fill: none; stroke: #b0b0b0; stroke-width: 0.8; stroke-linecap: square"/>
     </g>
     <g id="line2d_8">
      <g>
       <use xlink:href="#m2914676890" x="270.593058" y="307.584" style="stroke: #000000; stroke-width: 0.8"/>
      </g>
     </g>
     <g id="text_4">
      <!-- 60 -->
      <g transform="translate(261.685558 325.221812) scale(0.14 -0.14)">
       <defs>
        <path id="DejaVuSans-36" d="M 2113 2584 
Q 1688 2584 1439 2293 
Q 1191 2003 1191 1497 
Q 1191 994 1439 701 
Q 1688 409 2113 409 
Q 2538 409 2786 701 
Q 3034 994 3034 1497 
Q 3034 2003 2786 2293 
Q 2538 2584 2113 2584 
z
M 3366 4563 
L 3366 3988 
Q 3128 4100 2886 4159 
Q 2644 4219 2406 4219 
Q 1781 4219 1451 3797 
Q 1122 3375 1075 2522 
Q 1259 2794 1537 2939 
Q 1816 3084 2150 3084 
Q 2853 3084 3261 2657 
Q 3669 2231 3669 1497 
Q 3669 778 3244 343 
Q 2819 -91 2113 -91 
Q 1303 -91 875 529 
Q 447 1150 447 2328 
Q 447 3434 972 4092 
Q 1497 4750 2381 4750 
Q 2619 4750 2861 4703 
Q 3103 4656 3366 4563 
z
" transform="scale(0.015625)"/>
       </defs>
       <use xlink:href="#DejaVuSans-36"/>
       <use xlink:href="#DejaVuSans-30" x="63.623047"/>
      </g>
     </g>
    </g>
    <g id="xtick_5">
     <g id="line2d_9">
      <path d="M 336.179835 307.584 
L 336.179835 41.472 
" clip-path="url(#pd2cea5bd02)" style="fill: none; stroke: #b0b0b0; stroke-width: 0.8; stroke-linecap: square"/>
     </g>
     <g id="line2d_10">
      <g>
       <use xlink:href="#m2914676890" x="336.179835" y="307.584" style="stroke: #000000; stroke-width: 0.8"/>
      </g>
     </g>
     <g id="text_5">
      <!-- 80 -->
      <g transform="translate(327.272335 325.221812) scale(0.14 -0.14)">
       <defs>
        <path id="DejaVuSans-38" d="M 2034 2216 
Q 1584 2216 1326 1975 
Q 1069 1734 1069 1313 
Q 1069 891 1326 650 
Q 1584 409 2034 409 
Q 2484 409 2743 651 
Q 3003 894 3003 1313 
Q 3003 1734 2745 1975 
Q 2488 2216 2034 2216 
z
M 1403 2484 
Q 997 2584 770 2862 
Q 544 3141 544 3541 
Q 544 4100 942 4425 
Q 1341 4750 2034 4750 
Q 2731 4750 3128 4425 
Q 3525 4100 3525 3541 
Q 3525 3141 3298 2862 
Q 3072 2584 2669 2484 
Q 3125 2378 3379 2068 
Q 3634 1759 3634 1313 
Q 3634 634 3220 271 
Q 2806 -91 2034 -91 
Q 1263 -91 848 271 
Q 434 634 434 1313 
Q 434 1759 690 2068 
Q 947 2378 1403 2484 
z
M 1172 3481 
Q 1172 3119 1398 2916 
Q 1625 2713 2034 2713 
Q 2441 2713 2670 2916 
Q 2900 3119 2900 3481 
Q 2900 3844 2670 4047 
Q 2441 4250 2034 4250 
Q 1625 4250 1398 4047 
Q 1172 3844 1172 3481 
z
" transform="scale(0.015625)"/>
       </defs>
       <use xlink:href="#DejaVuSans-38"/>
       <use xlink:href="#DejaVuSans-30" x="63.623047"/>
      </g>
     </g>
    </g>
    <g id="xtick_6">
     <g id="line2d_11">
      <path d="M 401.766612 307.584 
L 401.766612 41.472 
" clip-path="url(#pd2cea5bd02)" style="fill: none; stroke: #b0b0b0; stroke-width: 0.8; stroke-linecap: square"/>
     </g>
     <g id="line2d_12">
      <g>
       <use xlink:href="#m2914676890" x="401.766612" y="307.584" style="stroke: #000000; stroke-width: 0.8"/>
      </g>
     </g>
     <g id="text_6">
      <!-- 100 -->
      <g transform="translate(388.405362 325.221812) scale(0.14 -0.14)">
       <defs>
        <path id="DejaVuSans-31" d="M 794 531 
L 1825 531 
L 1825 4091 
L 703 3866 
L 703 4441 
L 1819 4666 
L 2450 4666 
L 2450 531 
L 3481 531 
L 3481 0 
L 794 0 
L 794 531 
z
" transform="scale(0.015625)"/>
       </defs>
       <use xlink:href="#DejaVuSans-31"/>
       <use xlink:href="#DejaVuSans-30" x="63.623047"/>
       <use xlink:href="#DejaVuSans-30" x="127.246094"/>
      </g>
     </g>
    </g>
    <g id="text_7">
     <!-- Timesteps -->
     <g transform="translate(200.244531 342.771187) scale(0.14 -0.14)">
      <defs>
       <path id="DejaVuSans-54" d="M -19 4666 
L 3928 4666 
L 3928 4134 
L 2272 4134 
L 2272 0 
L 1638 0 
L 1638 4134 
L -19 4134 
L -19 4666 
z
" transform="scale(0.015625)"/>
       <path id="DejaVuSans-69" d="M 603 3500 
L 1178 3500 
L 1178 0 
L 603 0 
L 603 3500 
z
M 603 4863 
L 1178 4863 
L 1178 4134 
L 603 4134 
L 603 4863 
z
" transform="scale(0.015625)"/>
       <path id="DejaVuSans-6d" d="M 3328 2828 
Q 3544 3216 3844 3400 
Q 4144 3584 4550 3584 
Q 5097 3584 5394 3201 
Q 5691 2819 5691 2113 
L 5691 0 
L 5113 0 
L 5113 2094 
Q 5113 2597 4934 2840 
Q 4756 3084 4391 3084 
Q 3944 3084 3684 2787 
Q 3425 2491 3425 1978 
L 3425 0 
L 2847 0 
L 2847 2094 
Q 2847 2600 2669 2842 
Q 2491 3084 2119 3084 
Q 1678 3084 1418 2786 
Q 1159 2488 1159 1978 
L 1159 0 
L 581 0 
L 581 3500 
L 1159 3500 
L 1159 2956 
Q 1356 3278 1631 3431 
Q 1906 3584 2284 3584 
Q 2666 3584 2933 3390 
Q 3200 3197 3328 2828 
z
" transform="scale(0.015625)"/>
       <path id="DejaVuSans-65" d="M 3597 1894 
L 3597 1613 
L 953 1613 
Q 991 1019 1311 708 
Q 1631 397 2203 397 
Q 2534 397 2845 478 
Q 3156 559 3463 722 
L 3463 178 
Q 3153 47 2828 -22 
Q 2503 -91 2169 -91 
Q 1331 -91 842 396 
Q 353 884 353 1716 
Q 353 2575 817 3079 
Q 1281 3584 2069 3584 
Q 2775 3584 3186 3129 
Q 3597 2675 3597 1894 
z
M 3022 2063 
Q 3016 2534 2758 2815 
Q 2500 3097 2075 3097 
Q 1594 3097 1305 2825 
Q 1016 2553 972 2059 
L 3022 2063 
z
" transform="scale(0.015625)"/>
       <path id="DejaVuSans-73" d="M 2834 3397 
L 2834 2853 
Q 2591 2978 2328 3040 
Q 2066 3103 1784 3103 
Q 1356 3103 1142 2972 
Q 928 2841 928 2578 
Q 928 2378 1081 2264 
Q 1234 2150 1697 2047 
L 1894 2003 
Q 2506 1872 2764 1633 
Q 3022 1394 3022 966 
Q 3022 478 2636 193 
Q 2250 -91 1575 -91 
Q 1294 -91 989 -36 
Q 684 19 347 128 
L 347 722 
Q 666 556 975 473 
Q 1284 391 1588 391 
Q 1994 391 2212 530 
Q 2431 669 2431 922 
Q 2431 1156 2273 1281 
Q 2116 1406 1581 1522 
L 1381 1569 
Q 847 1681 609 1914 
Q 372 2147 372 2553 
Q 372 3047 722 3315 
Q 1072 3584 1716 3584 
Q 2034 3584 2315 3537 
Q 2597 3491 2834 3397 
z
" transform="scale(0.015625)"/>
       <path id="DejaVuSans-74" d="M 1172 4494 
L 1172 3500 
L 2356 3500 
L 2356 3053 
L 1172 3053 
L 1172 1153 
Q 1172 725 1289 603 
Q 1406 481 1766 481 
L 2356 481 
L 2356 0 
L 1766 0 
Q 1100 0 847 248 
Q 594 497 594 1153 
L 594 3053 
L 172 3053 
L 172 3500 
L 594 3500 
L 594 4494 
L 1172 4494 
z
" transform="scale(0.015625)"/>
       <path id="DejaVuSans-70" d="M 1159 525 
L 1159 -1331 
L 581 -1331 
L 581 3500 
L 1159 3500 
L 1159 2969 
Q 1341 3281 1617 3432 
Q 1894 3584 2278 3584 
Q 2916 3584 3314 3078 
Q 3713 2572 3713 1747 
Q 3713 922 3314 415 
Q 2916 -91 2278 -91 
Q 1894 -91 1617 61 
Q 1341 213 1159 525 
z
M 3116 1747 
Q 3116 2381 2855 2742 
Q 2594 3103 2138 3103 
Q 1681 3103 1420 2742 
Q 1159 2381 1159 1747 
Q 1159 1113 1420 752 
Q 1681 391 2138 391 
Q 2594 391 2855 752 
Q 3116 1113 3116 1747 
z
" transform="scale(0.015625)"/>
      </defs>
      <use xlink:href="#DejaVuSans-54"/>
      <use xlink:href="#DejaVuSans-69" x="57.958984"/>
      <use xlink:href="#DejaVuSans-6d" x="85.742188"/>
      <use xlink:href="#DejaVuSans-65" x="183.154297"/>
      <use xlink:href="#DejaVuSans-73" x="244.677734"/>
      <use xlink:href="#DejaVuSans-74" x="296.777344"/>
      <use xlink:href="#DejaVuSans-65" x="335.986328"/>
      <use xlink:href="#DejaVuSans-70" x="397.509766"/>
      <use xlink:href="#DejaVuSans-73" x="460.986328"/>
     </g>
    </g>
   </g>
   <g id="matplotlib.axis_2">
    <g id="ytick_1">
     <g id="line2d_13">
      <path d="M 57.6 285.989183 
L 414.72 285.989183 
" clip-path="url(#pd2cea5bd02)" style="fill: none; stroke: #b0b0b0; stroke-width: 0.8; stroke-linecap: square"/>
     </g>
     <g id="line2d_14">
      <defs>
       <path id="me295bbb0e4" d="M 0 0 
L -3.5 0 
" style="stroke: #000000; stroke-width: 0.8"/>
      </defs>
      <g>
       <use xlink:href="#me295bbb0e4" x="57.6" y="285.989183" style="stroke: #000000; stroke-width: 0.8"/>
      </g>
     </g>
     <g id="text_8">
      <!-- 0.00 -->
      <g transform="translate(19.428125 291.30809) scale(0.14 -0.14)">
       <defs>
        <path id="DejaVuSans-2e" d="M 684 794 
L 1344 794 
L 1344 0 
L 684 0 
L 684 794 
z
" transform="scale(0.015625)"/>
       </defs>
       <use xlink:href="#DejaVuSans-30"/>
       <use xlink:href="#DejaVuSans-2e" x="63.623047"/>
       <use xlink:href="#DejaVuSans-30" x="95.410156"/>
       <use xlink:href="#DejaVuSans-30" x="159.033203"/>
      </g>
     </g>
    </g>
    <g id="ytick_2">
     <g id="line2d_15">
      <path d="M 57.6 242.121741 
L 414.72 242.121741 
" clip-path="url(#pd2cea5bd02)" style="fill: none; stroke: #b0b0b0; stroke-width: 0.8; stroke-linecap: square"/>
     </g>
     <g id="line2d_16">
      <g>
       <use xlink:href="#me295bbb0e4" x="57.6" y="242.121741" style="stroke: #000000; stroke-width: 0.8"/>
      </g>
     </g>
     <g id="text_9">
      <!-- 0.02 -->
      <g transform="translate(19.428125 247.440647) scale(0.14 -0.14)">
       <use xlink:href="#DejaVuSans-30"/>
       <use xlink:href="#DejaVuSans-2e" x="63.623047"/>
       <use xlink:href="#DejaVuSans-30" x="95.410156"/>
       <use xlink:href="#DejaVuSans-32" x="159.033203"/>
      </g>
     </g>
    </g>
    <g id="ytick_3">
     <g id="line2d_17">
      <path d="M 57.6 198.254299 
L 414.72 198.254299 
" clip-path="url(#pd2cea5bd02)" style="fill: none; stroke: #b0b0b0; stroke-width: 0.8; stroke-linecap: square"/>
     </g>
     <g id="line2d_18">
      <g>
       <use xlink:href="#me295bbb0e4" x="57.6" y="198.254299" style="stroke: #000000; stroke-width: 0.8"/>
      </g>
     </g>
     <g id="text_10">
      <!-- 0.04 -->
      <g transform="translate(19.428125 203.573205) scale(0.14 -0.14)">
       <use xlink:href="#DejaVuSans-30"/>
       <use xlink:href="#DejaVuSans-2e" x="63.623047"/>
       <use xlink:href="#DejaVuSans-30" x="95.410156"/>
       <use xlink:href="#DejaVuSans-34" x="159.033203"/>
      </g>
     </g>
    </g>
    <g id="ytick_4">
     <g id="line2d_19">
      <path d="M 57.6 154.386856 
L 414.72 154.386856 
" clip-path="url(#pd2cea5bd02)" style="fill: none; stroke: #b0b0b0; stroke-width: 0.8; stroke-linecap: square"/>
     </g>
     <g id="line2d_20">
      <g>
       <use xlink:href="#me295bbb0e4" x="57.6" y="154.386856" style="stroke: #000000; stroke-width: 0.8"/>
      </g>
     </g>
     <g id="text_11">
      <!-- 0.06 -->
      <g transform="translate(19.428125 159.705762) scale(0.14 -0.14)">
       <use xlink:href="#DejaVuSans-30"/>
       <use xlink:href="#DejaVuSans-2e" x="63.623047"/>
       <use xlink:href="#DejaVuSans-30" x="95.410156"/>
       <use xlink:href="#DejaVuSans-36" x="159.033203"/>
      </g>
     </g>
    </g>
    <g id="ytick_5">
     <g id="line2d_21">
      <path d="M 57.6 110.519414 
L 414.72 110.519414 
" clip-path="url(#pd2cea5bd02)" style="fill: none; stroke: #b0b0b0; stroke-width: 0.8; stroke-linecap: square"/>
     </g>
     <g id="line2d_22">
      <g>
       <use xlink:href="#me295bbb0e4" x="57.6" y="110.519414" style="stroke: #000000; stroke-width: 0.8"/>
      </g>
     </g>
     <g id="text_12">
      <!-- 0.08 -->
      <g transform="translate(19.428125 115.83832) scale(0.14 -0.14)">
       <use xlink:href="#DejaVuSans-30"/>
       <use xlink:href="#DejaVuSans-2e" x="63.623047"/>
       <use xlink:href="#DejaVuSans-30" x="95.410156"/>
       <use xlink:href="#DejaVuSans-38" x="159.033203"/>
      </g>
     </g>
    </g>
    <g id="ytick_6">
     <g id="line2d_23">
      <path d="M 57.6 66.651971 
L 414.72 66.651971 
" clip-path="url(#pd2cea5bd02)" style="fill: none; stroke: #b0b0b0; stroke-width: 0.8; stroke-linecap: square"/>
     </g>
     <g id="line2d_24">
      <g>
       <use xlink:href="#me295bbb0e4" x="57.6" y="66.651971" style="stroke: #000000; stroke-width: 0.8"/>
      </g>
     </g>
     <g id="text_13">
      <!-- 0.10 -->
      <g transform="translate(19.428125 71.970878) scale(0.14 -0.14)">
       <use xlink:href="#DejaVuSans-30"/>
       <use xlink:href="#DejaVuSans-2e" x="63.623047"/>
       <use xlink:href="#DejaVuSans-31" x="95.410156"/>
       <use xlink:href="#DejaVuSans-30" x="159.033203"/>
      </g>
     </g>
    </g>
    <g id="text_14">
     <!-- Mean estimate error for the best arm -->
     <g transform="translate(12.516562 304.812219) rotate(-90) scale(0.14 -0.14)">
      <defs>
       <path id="DejaVuSans-4d" d="M 628 4666 
L 1569 4666 
L 2759 1491 
L 3956 4666 
L 4897 4666 
L 4897 0 
L 4281 0 
L 4281 4097 
L 3078 897 
L 2444 897 
L 1241 4097 
L 1241 0 
L 628 0 
L 628 4666 
z
" transform="scale(0.015625)"/>
       <path id="DejaVuSans-61" d="M 2194 1759 
Q 1497 1759 1228 1600 
Q 959 1441 959 1056 
Q 959 750 1161 570 
Q 1363 391 1709 391 
Q 2188 391 2477 730 
Q 2766 1069 2766 1631 
L 2766 1759 
L 2194 1759 
z
M 3341 1997 
L 3341 0 
L 2766 0 
L 2766 531 
Q 2569 213 2275 61 
Q 1981 -91 1556 -91 
Q 1019 -91 701 211 
Q 384 513 384 1019 
Q 384 1609 779 1909 
Q 1175 2209 1959 2209 
L 2766 2209 
L 2766 2266 
Q 2766 2663 2505 2880 
Q 2244 3097 1772 3097 
Q 1472 3097 1187 3025 
Q 903 2953 641 2809 
L 641 3341 
Q 956 3463 1253 3523 
Q 1550 3584 1831 3584 
Q 2591 3584 2966 3190 
Q 3341 2797 3341 1997 
z
" transform="scale(0.015625)"/>
       <path id="DejaVuSans-6e" d="M 3513 2113 
L 3513 0 
L 2938 0 
L 2938 2094 
Q 2938 2591 2744 2837 
Q 2550 3084 2163 3084 
Q 1697 3084 1428 2787 
Q 1159 2491 1159 1978 
L 1159 0 
L 581 0 
L 581 3500 
L 1159 3500 
L 1159 2956 
Q 1366 3272 1645 3428 
Q 1925 3584 2291 3584 
Q 2894 3584 3203 3211 
Q 3513 2838 3513 2113 
z
" transform="scale(0.015625)"/>
       <path id="DejaVuSans-20" transform="scale(0.015625)"/>
       <path id="DejaVuSans-72" d="M 2631 2963 
Q 2534 3019 2420 3045 
Q 2306 3072 2169 3072 
Q 1681 3072 1420 2755 
Q 1159 2438 1159 1844 
L 1159 0 
L 581 0 
L 581 3500 
L 1159 3500 
L 1159 2956 
Q 1341 3275 1631 3429 
Q 1922 3584 2338 3584 
Q 2397 3584 2469 3576 
Q 2541 3569 2628 3553 
L 2631 2963 
z
" transform="scale(0.015625)"/>
       <path id="DejaVuSans-6f" d="M 1959 3097 
Q 1497 3097 1228 2736 
Q 959 2375 959 1747 
Q 959 1119 1226 758 
Q 1494 397 1959 397 
Q 2419 397 2687 759 
Q 2956 1122 2956 1747 
Q 2956 2369 2687 2733 
Q 2419 3097 1959 3097 
z
M 1959 3584 
Q 2709 3584 3137 3096 
Q 3566 2609 3566 1747 
Q 3566 888 3137 398 
Q 2709 -91 1959 -91 
Q 1206 -91 779 398 
Q 353 888 353 1747 
Q 353 2609 779 3096 
Q 1206 3584 1959 3584 
z
" transform="scale(0.015625)"/>
       <path id="DejaVuSans-66" d="M 2375 4863 
L 2375 4384 
L 1825 4384 
Q 1516 4384 1395 4259 
Q 1275 4134 1275 3809 
L 1275 3500 
L 2222 3500 
L 2222 3053 
L 1275 3053 
L 1275 0 
L 697 0 
L 697 3053 
L 147 3053 
L 147 3500 
L 697 3500 
L 697 3744 
Q 697 4328 969 4595 
Q 1241 4863 1831 4863 
L 2375 4863 
z
" transform="scale(0.015625)"/>
       <path id="DejaVuSans-68" d="M 3513 2113 
L 3513 0 
L 2938 0 
L 2938 2094 
Q 2938 2591 2744 2837 
Q 2550 3084 2163 3084 
Q 1697 3084 1428 2787 
Q 1159 2491 1159 1978 
L 1159 0 
L 581 0 
L 581 4863 
L 1159 4863 
L 1159 2956 
Q 1366 3272 1645 3428 
Q 1925 3584 2291 3584 
Q 2894 3584 3203 3211 
Q 3513 2838 3513 2113 
z
" transform="scale(0.015625)"/>
       <path id="DejaVuSans-62" d="M 3116 1747 
Q 3116 2381 2855 2742 
Q 2594 3103 2138 3103 
Q 1681 3103 1420 2742 
Q 1159 2381 1159 1747 
Q 1159 1113 1420 752 
Q 1681 391 2138 391 
Q 2594 391 2855 752 
Q 3116 1113 3116 1747 
z
M 1159 2969 
Q 1341 3281 1617 3432 
Q 1894 3584 2278 3584 
Q 2916 3584 3314 3078 
Q 3713 2572 3713 1747 
Q 3713 922 3314 415 
Q 2916 -91 2278 -91 
Q 1894 -91 1617 61 
Q 1341 213 1159 525 
L 1159 0 
L 581 0 
L 581 4863 
L 1159 4863 
L 1159 2969 
z
" transform="scale(0.015625)"/>
      </defs>
      <use xlink:href="#DejaVuSans-4d"/>
      <use xlink:href="#DejaVuSans-65" x="86.279297"/>
      <use xlink:href="#DejaVuSans-61" x="147.802734"/>
      <use xlink:href="#DejaVuSans-6e" x="209.082031"/>
      <use xlink:href="#DejaVuSans-20" x="272.460938"/>
      <use xlink:href="#DejaVuSans-65" x="304.248047"/>
      <use xlink:href="#DejaVuSans-73" x="365.771484"/>
      <use xlink:href="#DejaVuSans-74" x="417.871094"/>
      <use xlink:href="#DejaVuSans-69" x="457.080078"/>
      <use xlink:href="#DejaVuSans-6d" x="484.863281"/>
      <use xlink:href="#DejaVuSans-61" x="582.275391"/>
      <use xlink:href="#DejaVuSans-74" x="643.554688"/>
      <use xlink:href="#DejaVuSans-65" x="682.763672"/>
      <use xlink:href="#DejaVuSans-20" x="744.287109"/>
      <use xlink:href="#DejaVuSans-65" x="776.074219"/>
      <use xlink:href="#DejaVuSans-72" x="837.597656"/>
      <use xlink:href="#DejaVuSans-72" x="876.960938"/>
      <use xlink:href="#DejaVuSans-6f" x="915.824219"/>
      <use xlink:href="#DejaVuSans-72" x="977.005859"/>
      <use xlink:href="#DejaVuSans-20" x="1018.119141"/>
      <use xlink:href="#DejaVuSans-66" x="1049.90625"/>
      <use xlink:href="#DejaVuSans-6f" x="1085.111328"/>
      <use xlink:href="#DejaVuSans-72" x="1146.292969"/>
      <use xlink:href="#DejaVuSans-20" x="1187.40625"/>
      <use xlink:href="#DejaVuSans-74" x="1219.193359"/>
      <use xlink:href="#DejaVuSans-68" x="1258.402344"/>
      <use xlink:href="#DejaVuSans-65" x="1321.78125"/>
      <use xlink:href="#DejaVuSans-20" x="1383.304688"/>
      <use xlink:href="#DejaVuSans-62" x="1415.091797"/>
      <use xlink:href="#DejaVuSans-65" x="1478.568359"/>
      <use xlink:href="#DejaVuSans-73" x="1540.091797"/>
      <use xlink:href="#DejaVuSans-74" x="1592.191406"/>
      <use xlink:href="#DejaVuSans-20" x="1631.400391"/>
      <use xlink:href="#DejaVuSans-61" x="1663.1875"/>
      <use xlink:href="#DejaVuSans-72" x="1724.466797"/>
      <use xlink:href="#DejaVuSans-6d" x="1763.830078"/>
     </g>
    </g>
   </g>
   <g id="line2d_25">
    <path d="M 73.832727 285.989183 
L 77.112066 285.989183 
L 80.391405 273.042705 
L 83.670744 83.383392 
L 86.950083 53.568 
L 90.229421 60.339278 
L 93.50876 77.997386 
L 96.788099 100.660205 
L 100.067438 117.52094 
L 103.346777 136.269986 
L 106.626116 151.953804 
L 109.905455 166.886131 
L 113.184793 179.955152 
L 116.464132 189.788605 
L 119.743471 198.37081 
L 123.02281 206.788051 
L 126.302149 212.097341 
L 129.581488 217.917972 
L 132.860826 222.89361 
L 136.140165 228.049515 
L 139.419504 231.909295 
L 142.698843 235.713909 
L 145.978182 239.757072 
L 149.257521 243.026085 
L 152.53686 246.020984 
L 155.816198 249.259486 
L 159.095537 251.58119 
L 162.374876 253.113019 
L 165.654215 254.90646 
L 168.933554 256.402698 
L 172.212893 257.95249 
L 175.492231 258.992471 
L 178.77157 260.208504 
L 182.050909 260.992625 
L 185.330248 262.481377 
L 188.609587 263.426563 
L 191.888926 264.526124 
L 195.168264 265.595161 
L 198.447603 266.780597 
L 201.726942 267.746905 
L 205.006281 268.54557 
L 208.28562 269.28398 
L 211.564959 270.133859 
L 214.844298 270.425698 
L 218.123636 271.459934 
L 221.402975 271.637816 
L 224.682314 272.120331 
L 227.961653 272.850413 
L 231.240992 273.055153 
L 234.520331 273.717414 
L 237.799669 274.154741 
L 241.079008 274.63203 
L 244.358347 275.182735 
L 247.637686 275.73268 
L 250.917025 276.013305 
L 254.196364 276.124586 
L 257.475702 276.397613 
L 260.755041 276.87587 
L 264.03438 276.728883 
L 267.313719 277.151227 
L 270.593058 277.283663 
L 273.872397 277.697936 
L 277.151736 277.827224 
L 280.431074 278.021664 
L 283.710413 278.185526 
L 286.989752 278.243961 
L 290.269091 277.942437 
L 293.54843 278.225533 
L 296.827769 278.612156 
L 300.107107 278.246592 
L 303.386446 278.531084 
L 306.665785 278.856814 
L 309.945124 278.786087 
L 313.224463 279.167569 
L 316.503802 279.57777 
L 319.78314 279.679118 
L 323.062479 279.875732 
L 326.341818 279.80916 
L 329.621157 280.062791 
L 332.900496 280.202368 
L 336.179835 280.448156 
L 339.459174 280.659848 
L 342.738512 280.630384 
L 346.017851 280.836458 
L 349.29719 280.98711 
L 352.576529 281.075711 
L 355.855868 281.234496 
L 359.135207 281.404136 
L 362.414545 281.564416 
L 365.693884 281.559946 
L 368.973223 281.713234 
L 372.252562 281.732032 
L 375.531901 281.849121 
L 378.81124 281.904926 
L 382.090579 282.169892 
L 385.369917 282.282991 
L 388.649256 282.412402 
L 391.928595 282.491984 
L 395.207934 282.437786 
L 398.487273 282.378427 
" clip-path="url(#pd2cea5bd02)" style="fill: none; stroke: #1f77b4; stroke-linecap: square"/>
   </g>
   <g id="line2d_26">
    <path d="M 149.257521 307.584 
L 149.257521 41.472 
" clip-path="url(#pd2cea5bd02)" style="fill: none; stroke-dasharray: 3.7,1.6; stroke-dashoffset: 0; stroke: #1f77b4"/>
   </g>
   <g id="line2d_27">
    <path d="M 73.832727 285.989183 
L 77.112066 285.989183 
L 80.391405 283.470174 
L 83.670744 223.732318 
L 86.950083 215.859356 
L 90.229421 226.852569 
L 93.50876 233.705752 
L 96.788099 240.539353 
L 100.067438 245.221141 
L 103.346777 250.704507 
L 106.626116 252.253762 
L 109.905455 256.177946 
L 113.184793 256.846131 
L 116.464132 257.617048 
L 119.743471 258.807907 
L 123.02281 260.954439 
L 126.302149 261.545159 
L 129.581488 263.17815 
L 132.860826 264.173604 
L 136.140165 265.694196 
L 139.419504 266.660349 
L 142.698843 267.531172 
L 145.978182 268.270503 
L 149.257521 269.027552 
L 152.53686 269.638783 
L 155.816198 270.30027 
L 159.095537 270.679074 
L 162.374876 270.970583 
L 165.654215 271.322145 
L 168.933554 271.425739 
L 172.212893 271.644887 
L 175.492231 272.232306 
L 178.77157 272.389533 
L 182.050909 273.089797 
L 185.330248 273.259267 
L 188.609587 273.383119 
L 191.888926 273.788229 
L 195.168264 274.593923 
L 198.447603 275.069915 
L 201.726942 275.428223 
L 205.006281 275.802436 
L 208.28562 276.161421 
L 211.564959 276.277997 
L 214.844298 276.259372 
L 218.123636 276.497948 
L 221.402975 276.40591 
L 224.682314 276.645888 
L 227.961653 276.912154 
L 231.240992 276.93514 
L 234.520331 277.262745 
L 237.799669 277.121545 
L 241.079008 277.069982 
L 244.358347 277.550396 
L 247.637686 277.65096 
L 250.917025 278.156682 
L 254.196364 278.469298 
L 257.475702 278.808434 
L 260.755041 279.035834 
L 264.03438 279.232884 
L 267.313719 279.310432 
L 270.593058 279.631513 
L 273.872397 279.953909 
L 277.151736 280.176796 
L 280.431074 280.130014 
L 283.710413 280.192177 
L 286.989752 280.395766 
L 290.269091 280.564844 
L 293.54843 280.741752 
L 296.827769 280.880566 
L 300.107107 281.032463 
L 303.386446 280.666038 
L 306.665785 280.706548 
L 309.945124 280.759601 
L 313.224463 280.86961 
L 316.503802 280.764094 
L 319.78314 280.712114 
L 323.062479 280.469103 
L 326.341818 280.265783 
L 329.621157 280.432956 
L 332.900496 280.662317 
L 336.179835 280.567626 
L 339.459174 280.731688 
L 342.738512 280.61747 
L 346.017851 280.671261 
L 349.29719 280.599198 
L 352.576529 280.669265 
L 355.855868 280.779056 
L 359.135207 280.888304 
L 362.414545 280.872122 
L 365.693884 280.943733 
L 368.973223 281.04612 
L 372.252562 280.921699 
L 375.531901 280.913687 
L 378.81124 280.922172 
L 382.090579 280.837317 
L 385.369917 280.843382 
L 388.649256 280.977251 
L 391.928595 281.001521 
L 395.207934 281.22839 
L 398.487273 281.39093 
" clip-path="url(#pd2cea5bd02)" style="fill: none; stroke: #ff7f0e; stroke-linecap: square"/>
   </g>
   <g id="line2d_28">
    <path d="M 100.067438 307.584 
L 100.067438 41.472 
" clip-path="url(#pd2cea5bd02)" style="fill: none; stroke-dasharray: 3.7,1.6; stroke-dashoffset: 0; stroke: #ff7f0e"/>
   </g>
   <g id="line2d_29">
    <path d="M 73.832727 285.989183 
L 77.112066 285.989183 
L 80.391405 295.488 
L 83.670744 229.049611 
L 86.950083 221.139847 
L 90.229421 225.668389 
L 93.50876 230.874921 
L 96.788099 234.519646 
L 100.067438 240.259083 
L 103.346777 242.897859 
L 106.626116 247.006015 
L 109.905455 251.737862 
L 113.184793 254.151962 
L 116.464132 254.817178 
L 119.743471 256.8599 
L 123.02281 258.372873 
L 126.302149 259.231362 
L 129.581488 260.529679 
L 132.860826 262.738899 
L 136.140165 265.105052 
L 139.419504 266.530082 
L 142.698843 267.694334 
L 145.978182 267.878906 
L 149.257521 268.125422 
L 152.53686 268.308666 
L 155.816198 269.194489 
L 159.095537 269.28382 
L 162.374876 270.18049 
L 165.654215 270.614856 
L 168.933554 271.86501 
L 172.212893 272.512251 
L 175.492231 273.051485 
L 178.77157 273.106344 
L 182.050909 273.84146 
L 185.330248 274.263201 
L 188.609587 274.800414 
L 191.888926 275.313625 
L 195.168264 275.44855 
L 198.447603 275.774505 
L 201.726942 275.73752 
L 205.006281 276.075667 
L 208.28562 276.203948 
L 211.564959 276.565603 
L 214.844298 276.420513 
L 218.123636 276.877674 
L 221.402975 277.307669 
L 224.682314 277.618796 
L 227.961653 278.090403 
L 231.240992 278.519337 
L 234.520331 278.374508 
L 237.799669 278.484694 
L 241.079008 278.677987 
L 244.358347 278.796049 
L 247.637686 279.193932 
L 250.917025 279.331701 
L 254.196364 279.430314 
L 257.475702 279.519115 
L 260.755041 279.43827 
L 264.03438 279.510106 
L 267.313719 279.528402 
L 270.593058 279.389496 
L 273.872397 279.578671 
L 277.151736 279.784708 
L 280.431074 280.101257 
L 283.710413 280.349096 
L 286.989752 280.621067 
L 290.269091 280.894836 
L 293.54843 280.967464 
L 296.827769 280.870677 
L 300.107107 280.909462 
L 303.386446 280.939096 
L 306.665785 280.975882 
L 309.945124 280.786344 
L 313.224463 281.024528 
L 316.503802 280.96459 
L 319.78314 281.18032 
L 323.062479 281.066559 
L 326.341818 281.315123 
L 329.621157 281.366882 
L 332.900496 281.497399 
L 336.179835 281.550737 
L 339.459174 281.517715 
L 342.738512 281.522424 
L 346.017851 281.671796 
L 349.29719 281.689627 
L 352.576529 281.57702 
L 355.855868 281.613002 
L 359.135207 281.70111 
L 362.414545 281.575073 
L 365.693884 281.599718 
L 368.973223 281.544896 
L 372.252562 281.547831 
L 375.531901 281.653581 
L 378.81124 281.588255 
L 382.090579 281.462327 
L 385.369917 281.53628 
L 388.649256 281.61634 
L 391.928595 281.606061 
L 395.207934 281.597564 
L 398.487273 281.514041 
" clip-path="url(#pd2cea5bd02)" style="fill: none; stroke: #2ca02c; stroke-linecap: square"/>
   </g>
   <g id="line2d_30">
    <path d="M 103.346777 307.584 
L 103.346777 41.472 
" clip-path="url(#pd2cea5bd02)" style="fill: none; stroke-dasharray: 3.7,1.6; stroke-dashoffset: 0; stroke: #2ca02c"/>
   </g>
   <g id="patch_3">
    <path d="M 57.6 307.584 
L 57.6 41.472 
" style="fill: none; stroke: #000000; stroke-width: 0.8; stroke-linejoin: miter; stroke-linecap: square"/>
   </g>
   <g id="patch_4">
    <path d="M 414.72 307.584 
L 414.72 41.472 
" style="fill: none; stroke: #000000; stroke-width: 0.8; stroke-linejoin: miter; stroke-linecap: square"/>
   </g>
   <g id="patch_5">
    <path d="M 57.6 307.584 
L 414.72 307.584 
" style="fill: none; stroke: #000000; stroke-width: 0.8; stroke-linejoin: miter; stroke-linecap: square"/>
   </g>
   <g id="patch_6">
    <path d="M 57.6 41.472 
L 414.72 41.472 
" style="fill: none; stroke: #000000; stroke-width: 0.8; stroke-linejoin: miter; stroke-linecap: square"/>
   </g>
   <g id="text_15">
    <!-- All-to-All network -->
    <g transform="translate(176.101094 35.472) scale(0.14 -0.14)">
     <defs>
      <path id="DejaVuSans-41" d="M 2188 4044 
L 1331 1722 
L 3047 1722 
L 2188 4044 
z
M 1831 4666 
L 2547 4666 
L 4325 0 
L 3669 0 
L 3244 1197 
L 1141 1197 
L 716 0 
L 50 0 
L 1831 4666 
z
" transform="scale(0.015625)"/>
      <path id="DejaVuSans-6c" d="M 603 4863 
L 1178 4863 
L 1178 0 
L 603 0 
L 603 4863 
z
" transform="scale(0.015625)"/>
      <path id="DejaVuSans-2d" d="M 313 2009 
L 1997 2009 
L 1997 1497 
L 313 1497 
L 313 2009 
z
" transform="scale(0.015625)"/>
      <path id="DejaVuSans-77" d="M 269 3500 
L 844 3500 
L 1563 769 
L 2278 3500 
L 2956 3500 
L 3675 769 
L 4391 3500 
L 4966 3500 
L 4050 0 
L 3372 0 
L 2619 2869 
L 1863 0 
L 1184 0 
L 269 3500 
z
" transform="scale(0.015625)"/>
      <path id="DejaVuSans-6b" d="M 581 4863 
L 1159 4863 
L 1159 1991 
L 2875 3500 
L 3609 3500 
L 1753 1863 
L 3688 0 
L 2938 0 
L 1159 1709 
L 1159 0 
L 581 0 
L 581 4863 
z
" transform="scale(0.015625)"/>
     </defs>
     <use xlink:href="#DejaVuSans-41"/>
     <use xlink:href="#DejaVuSans-6c" x="68.408203"/>
     <use xlink:href="#DejaVuSans-6c" x="96.191406"/>
     <use xlink:href="#DejaVuSans-2d" x="123.974609"/>
     <use xlink:href="#DejaVuSans-74" x="160.058594"/>
     <use xlink:href="#DejaVuSans-6f" x="199.267578"/>
     <use xlink:href="#DejaVuSans-2d" x="262.324219"/>
     <use xlink:href="#DejaVuSans-41" x="296.158203"/>
     <use xlink:href="#DejaVuSans-6c" x="364.566406"/>
     <use xlink:href="#DejaVuSans-6c" x="392.349609"/>
     <use xlink:href="#DejaVuSans-20" x="420.132812"/>
     <use xlink:href="#DejaVuSans-6e" x="451.919922"/>
     <use xlink:href="#DejaVuSans-65" x="515.298828"/>
     <use xlink:href="#DejaVuSans-74" x="576.822266"/>
     <use xlink:href="#DejaVuSans-77" x="616.03125"/>
     <use xlink:href="#DejaVuSans-6f" x="697.818359"/>
     <use xlink:href="#DejaVuSans-72" x="759"/>
     <use xlink:href="#DejaVuSans-6b" x="800.113281"/>
    </g>
   </g>
   <g id="legend_1">
    <g id="patch_7">
     <path d="M 332.824688 93.506375 
L 407.72 93.506375 
Q 409.72 93.506375 409.72 91.506375 
L 409.72 48.472 
Q 409.72 46.472 407.72 46.472 
L 332.824688 46.472 
Q 330.824688 46.472 330.824688 48.472 
L 330.824688 91.506375 
Q 330.824688 93.506375 332.824688 93.506375 
z
" style="fill: #ffffff; opacity: 0.8; stroke: #cccccc; stroke-linejoin: miter"/>
    </g>
    <g id="line2d_31">
     <path d="M 334.824688 54.570438 
L 344.824688 54.570438 
L 354.824688 54.570438 
" style="fill: none; stroke: #1f77b4; stroke-linecap: square"/>
    </g>
    <g id="text_16">
     <!-- κ = 0.02 -->
     <g transform="translate(362.824688 58.070438) scale(0.1 -0.1)">
      <defs>
       <path id="DejaVuSans-3ba" d="M 597 3500 
L 1191 3500 
L 1191 2047 
L 2700 3500 
L 3400 3500 
L 2022 2181 
L 3616 0 
L 2913 0 
L 1619 1806 
L 1191 1403 
L 1191 0 
L 597 0 
L 597 3500 
z
" transform="scale(0.015625)"/>
       <path id="DejaVuSans-3d" d="M 678 2906 
L 4684 2906 
L 4684 2381 
L 678 2381 
L 678 2906 
z
M 678 1631 
L 4684 1631 
L 4684 1100 
L 678 1100 
L 678 1631 
z
" transform="scale(0.015625)"/>
      </defs>
      <use xlink:href="#DejaVuSans-3ba"/>
      <use xlink:href="#DejaVuSans-20" x="58.935547"/>
      <use xlink:href="#DejaVuSans-3d" x="90.722656"/>
      <use xlink:href="#DejaVuSans-20" x="174.511719"/>
      <use xlink:href="#DejaVuSans-30" x="206.298828"/>
      <use xlink:href="#DejaVuSans-2e" x="269.921875"/>
      <use xlink:href="#DejaVuSans-30" x="301.708984"/>
      <use xlink:href="#DejaVuSans-32" x="365.332031"/>
     </g>
    </g>
    <g id="line2d_32">
     <path d="M 334.824688 69.248563 
L 344.824688 69.248563 
L 354.824688 69.248563 
" style="fill: none; stroke: #ff7f0e; stroke-linecap: square"/>
    </g>
    <g id="text_17">
     <!-- FDLA -->
     <g transform="translate(362.824688 72.748563) scale(0.1 -0.1)">
      <defs>
       <path id="DejaVuSans-46" d="M 628 4666 
L 3309 4666 
L 3309 4134 
L 1259 4134 
L 1259 2759 
L 3109 2759 
L 3109 2228 
L 1259 2228 
L 1259 0 
L 628 0 
L 628 4666 
z
" transform="scale(0.015625)"/>
       <path id="DejaVuSans-44" d="M 1259 4147 
L 1259 519 
L 2022 519 
Q 2988 519 3436 956 
Q 3884 1394 3884 2338 
Q 3884 3275 3436 3711 
Q 2988 4147 2022 4147 
L 1259 4147 
z
M 628 4666 
L 1925 4666 
Q 3281 4666 3915 4102 
Q 4550 3538 4550 2338 
Q 4550 1131 3912 565 
Q 3275 0 1925 0 
L 628 0 
L 628 4666 
z
" transform="scale(0.015625)"/>
       <path id="DejaVuSans-4c" d="M 628 4666 
L 1259 4666 
L 1259 531 
L 3531 531 
L 3531 0 
L 628 0 
L 628 4666 
z
" transform="scale(0.015625)"/>
      </defs>
      <use xlink:href="#DejaVuSans-46"/>
      <use xlink:href="#DejaVuSans-44" x="57.519531"/>
      <use xlink:href="#DejaVuSans-4c" x="134.521484"/>
      <use xlink:href="#DejaVuSans-41" x="192.484375"/>
     </g>
    </g>
    <g id="line2d_33">
     <path d="M 334.824688 83.926688 
L 344.824688 83.926688 
L 354.824688 83.926688 
" style="fill: none; stroke: #2ca02c; stroke-linecap: square"/>
    </g>
    <g id="text_18">
     <!-- FMMC -->
     <g transform="translate(362.824688 87.426688) scale(0.1 -0.1)">
      <defs>
       <path id="DejaVuSans-43" d="M 4122 4306 
L 4122 3641 
Q 3803 3938 3442 4084 
Q 3081 4231 2675 4231 
Q 1875 4231 1450 3742 
Q 1025 3253 1025 2328 
Q 1025 1406 1450 917 
Q 1875 428 2675 428 
Q 3081 428 3442 575 
Q 3803 722 4122 1019 
L 4122 359 
Q 3791 134 3420 21 
Q 3050 -91 2638 -91 
Q 1578 -91 968 557 
Q 359 1206 359 2328 
Q 359 3453 968 4101 
Q 1578 4750 2638 4750 
Q 3056 4750 3426 4639 
Q 3797 4528 4122 4306 
z
" transform="scale(0.015625)"/>
      </defs>
      <use xlink:href="#DejaVuSans-46"/>
      <use xlink:href="#DejaVuSans-4d" x="57.519531"/>
      <use xlink:href="#DejaVuSans-4d" x="143.798828"/>
      <use xlink:href="#DejaVuSans-43" x="230.078125"/>
     </g>
    </g>
   </g>
  </g>
 </g>
 <defs>
  <clipPath id="pd2cea5bd02">
   <rect x="57.6" y="41.472" width="357.12" height="266.112"/>
  </clipPath>
 </defs>
</svg>
