<?xml version="1.0" encoding="utf-8" standalone="no"?>
<!DOCTYPE svg PUBLIC "-//W3C//DTD SVG 1.1//EN"
  "http://www.w3.org/Graphics/SVG/1.1/DTD/svg11.dtd">
<svg xmlns:xlink="http://www.w3.org/1999/xlink" width="460.8pt" height="345.6pt" viewBox="0 0 460.8 345.6" xmlns="http://www.w3.org/2000/svg" version="1.1">
 <metadata>
  <rdf:RDF xmlns:dc="http://purl.org/dc/elements/1.1/" xmlns:cc="http://creativecommons.org/ns#" xmlns:rdf="http://www.w3.org/1999/02/22-rdf-syntax-ns#">
   <cc:Work>
    <dc:type rdf:resource="http://purl.org/dc/dcmitype/StillImage"/>
    <dc:date>2023-09-05T01:32:04.377486</dc:date>
    <dc:format>image/svg+xml</dc:format>
    <dc:creator>
     <cc:Agent>
      <dc:title>Matplotlib v3.7.2, https://matplotlib.org/</dc:title>
     </cc:Agent>
    </dc:creator>
   </cc:Work>
  </rdf:RDF>
 </metadata>
 <defs>
  <style type="text/css">*{stroke-linejoin: round; stroke-linecap: butt}</style>
 </defs>
 <g id="figure_1">
  <g id="patch_1">
   <path d="M 0 345.6 
L 460.8 345.6 
L 460.8 0 
L 0 0 
z
" style="fill: #ffffff"/>
  </g>
  <g id="axes_1">
   <g id="LineCollection_1">
    <path d="M 73.477871 315.609917 
L 92.486592 268.381787 
" clip-path="url(#pf6e2fe5671)" style="fill: none; stroke: #000000"/>
    <path d="M 73.477871 315.609917 
L 59.0133 266.97228 
" clip-path="url(#pf6e2fe5671)" style="fill: none; stroke: #000000"/>
    <path d="M 73.477871 315.609917 
L 56.88488 298.768143 
" clip-path="url(#pf6e2fe5671)" style="fill: none; stroke: #000000"/>
    <path d="M 98.821496 296.536199 
L 83.88262 245.832748 
" clip-path="url(#pf6e2fe5671)" style="fill: none; stroke: #000000"/>
    <path d="M 98.821496 296.536199 
L 92.486592 268.381787 
" clip-path="url(#pf6e2fe5671)" style="fill: none; stroke: #000000"/>
    <path d="M 98.821496 296.536199 
L 56.88488 298.768143 
" clip-path="url(#pf6e2fe5671)" style="fill: none; stroke: #000000"/>
    <path d="M 83.88262 245.832748 
L 39.986777 264.236875 
" clip-path="url(#pf6e2fe5671)" style="fill: none; stroke: #000000"/>
    <path d="M 83.88262 245.832748 
L 86.234378 225.072814 
" clip-path="url(#pf6e2fe5671)" style="fill: none; stroke: #000000"/>
    <path d="M 83.88262 245.832748 
L 59.0133 266.97228 
" clip-path="url(#pf6e2fe5671)" style="fill: none; stroke: #000000"/>
    <path d="M 83.88262 245.832748 
L 43.648106 230.544643 
" clip-path="url(#pf6e2fe5671)" style="fill: none; stroke: #000000"/>
    <path d="M 83.88262 245.832748 
L 139.105823 215.753221 
" clip-path="url(#pf6e2fe5671)" style="fill: none; stroke: #000000"/>
    <path d="M 92.486592 268.381787 
L 39.986777 264.236875 
" clip-path="url(#pf6e2fe5671)" style="fill: none; stroke: #000000"/>
    <path d="M 92.486592 268.381787 
L 86.234378 225.072814 
" clip-path="url(#pf6e2fe5671)" style="fill: none; stroke: #000000"/>
    <path d="M 92.486592 268.381787 
L 56.88488 298.768143 
" clip-path="url(#pf6e2fe5671)" style="fill: none; stroke: #000000"/>
    <path d="M 92.486592 268.381787 
L 139.105823 215.753221 
" clip-path="url(#pf6e2fe5671)" style="fill: none; stroke: #000000"/>
    <path d="M 39.986777 264.236875 
L 59.0133 266.97228 
" clip-path="url(#pf6e2fe5671)" style="fill: none; stroke: #000000"/>
    <path d="M 39.986777 264.236875 
L 43.648106 230.544643 
" clip-path="url(#pf6e2fe5671)" style="fill: none; stroke: #000000"/>
    <path d="M 39.986777 264.236875 
L 56.88488 298.768143 
" clip-path="url(#pf6e2fe5671)" style="fill: none; stroke: #000000"/>
    <path d="M 86.234378 225.072814 
L 59.0133 266.97228 
" clip-path="url(#pf6e2fe5671)" style="fill: none; stroke: #000000"/>
    <path d="M 86.234378 225.072814 
L 43.648106 230.544643 
" clip-path="url(#pf6e2fe5671)" style="fill: none; stroke: #000000"/>
    <path d="M 86.234378 225.072814 
L 139.105823 215.753221 
" clip-path="url(#pf6e2fe5671)" style="fill: none; stroke: #000000"/>
    <path d="M 59.0133 266.97228 
L 43.648106 230.544643 
" clip-path="url(#pf6e2fe5671)" style="fill: none; stroke: #000000"/>
    <path d="M 59.0133 266.97228 
L 56.88488 298.768143 
" clip-path="url(#pf6e2fe5671)" style="fill: none; stroke: #000000"/>
    <path d="M 139.105823 215.753221 
L 222.314188 165.817987 
" clip-path="url(#pf6e2fe5671)" style="fill: none; stroke: #000000"/>
    <path d="M 379.903181 29.990083 
L 390.972347 81.737665 
" clip-path="url(#pf6e2fe5671)" style="fill: none; stroke: #000000"/>
    <path d="M 379.903181 29.990083 
L 347.15398 70.042644 
" clip-path="url(#pf6e2fe5671)" style="fill: none; stroke: #000000"/>
    <path d="M 379.903181 29.990083 
L 386.81364 54.154151 
" clip-path="url(#pf6e2fe5671)" style="fill: none; stroke: #000000"/>
    <path d="M 420.813223 77.261629 
L 369.446412 103.683515 
" clip-path="url(#pf6e2fe5671)" style="fill: none; stroke: #000000"/>
    <path d="M 420.813223 77.261629 
L 390.972347 81.737665 
" clip-path="url(#pf6e2fe5671)" style="fill: none; stroke: #000000"/>
    <path d="M 420.813223 77.261629 
L 386.81364 54.154151 
" clip-path="url(#pf6e2fe5671)" style="fill: none; stroke: #000000"/>
    <path d="M 369.446412 103.683515 
L 348.45959 86.040181 
" clip-path="url(#pf6e2fe5671)" style="fill: none; stroke: #000000"/>
    <path d="M 369.446412 103.683515 
L 355.793707 117.284538 
" clip-path="url(#pf6e2fe5671)" style="fill: none; stroke: #000000"/>
    <path d="M 369.446412 103.683515 
L 347.15398 70.042644 
" clip-path="url(#pf6e2fe5671)" style="fill: none; stroke: #000000"/>
    <path d="M 369.446412 103.683515 
L 307.021831 117.951553 
" clip-path="url(#pf6e2fe5671)" style="fill: none; stroke: #000000"/>
    <path d="M 369.446412 103.683515 
L 399.010258 126.941193 
" clip-path="url(#pf6e2fe5671)" style="fill: none; stroke: #000000"/>
    <path d="M 390.972347 81.737665 
L 348.45959 86.040181 
" clip-path="url(#pf6e2fe5671)" style="fill: none; stroke: #000000"/>
    <path d="M 390.972347 81.737665 
L 355.793707 117.284538 
" clip-path="url(#pf6e2fe5671)" style="fill: none; stroke: #000000"/>
    <path d="M 390.972347 81.737665 
L 386.81364 54.154151 
" clip-path="url(#pf6e2fe5671)" style="fill: none; stroke: #000000"/>
    <path d="M 390.972347 81.737665 
L 399.010258 126.941193 
" clip-path="url(#pf6e2fe5671)" style="fill: none; stroke: #000000"/>
    <path d="M 348.45959 86.040181 
L 347.15398 70.042644 
" clip-path="url(#pf6e2fe5671)" style="fill: none; stroke: #000000"/>
    <path d="M 348.45959 86.040181 
L 307.021831 117.951553 
" clip-path="url(#pf6e2fe5671)" style="fill: none; stroke: #000000"/>
    <path d="M 348.45959 86.040181 
L 386.81364 54.154151 
" clip-path="url(#pf6e2fe5671)" style="fill: none; stroke: #000000"/>
    <path d="M 355.793707 117.284538 
L 347.15398 70.042644 
" clip-path="url(#pf6e2fe5671)" style="fill: none; stroke: #000000"/>
    <path d="M 355.793707 117.284538 
L 307.021831 117.951553 
" clip-path="url(#pf6e2fe5671)" style="fill: none; stroke: #000000"/>
    <path d="M 355.793707 117.284538 
L 399.010258 126.941193 
" clip-path="url(#pf6e2fe5671)" style="fill: none; stroke: #000000"/>
    <path d="M 347.15398 70.042644 
L 307.021831 117.951553 
" clip-path="url(#pf6e2fe5671)" style="fill: none; stroke: #000000"/>
    <path d="M 347.15398 70.042644 
L 386.81364 54.154151 
" clip-path="url(#pf6e2fe5671)" style="fill: none; stroke: #000000"/>
    <path d="M 307.021831 117.951553 
L 222.314188 165.817987 
" clip-path="url(#pf6e2fe5671)" style="fill: none; stroke: #000000"/>
   </g>
   <g id="PathCollection_1">
    <defs>
     <path id="m8f527bab4b" d="M 0 8.660254 
C 2.296726 8.660254 4.499694 7.747755 6.123724 6.123724 
C 7.747755 4.499694 8.660254 2.296726 8.660254 0 
C 8.660254 -2.296726 7.747755 -4.499694 6.123724 -6.123724 
C 4.499694 -7.747755 2.296726 -8.660254 0 -8.660254 
C -2.296726 -8.660254 -4.499694 -7.747755 -6.123724 -6.123724 
C -7.747755 -4.499694 -8.660254 -2.296726 -8.660254 0 
C -8.660254 2.296726 -7.747755 4.499694 -6.123724 6.123724 
C -4.499694 7.747755 -2.296726 8.660254 0 8.660254 
z
" style="stroke: #1f78b4"/>
    </defs>
    <g clip-path="url(#pf6e2fe5671)">
     <use xlink:href="#m8f527bab4b" x="73.477871" y="315.609917" style="fill: #1f78b4; stroke: #1f78b4"/>
     <use xlink:href="#m8f527bab4b" x="98.821496" y="296.536199" style="fill: #1f78b4; stroke: #1f78b4"/>
     <use xlink:href="#m8f527bab4b" x="83.88262" y="245.832748" style="fill: #1f78b4; stroke: #1f78b4"/>
     <use xlink:href="#m8f527bab4b" x="92.486592" y="268.381787" style="fill: #1f78b4; stroke: #1f78b4"/>
     <use xlink:href="#m8f527bab4b" x="39.986777" y="264.236875" style="fill: #1f78b4; stroke: #1f78b4"/>
     <use xlink:href="#m8f527bab4b" x="86.234378" y="225.072814" style="fill: #1f78b4; stroke: #1f78b4"/>
     <use xlink:href="#m8f527bab4b" x="59.0133" y="266.97228" style="fill: #1f78b4; stroke: #1f78b4"/>
     <use xlink:href="#m8f527bab4b" x="43.648106" y="230.544643" style="fill: #1f78b4; stroke: #1f78b4"/>
     <use xlink:href="#m8f527bab4b" x="56.88488" y="298.768143" style="fill: #1f78b4; stroke: #1f78b4"/>
     <use xlink:href="#m8f527bab4b" x="139.105823" y="215.753221" style="fill: #1f78b4; stroke: #1f78b4"/>
     <use xlink:href="#m8f527bab4b" x="379.903181" y="29.990083" style="fill: #1f78b4; stroke: #1f78b4"/>
     <use xlink:href="#m8f527bab4b" x="420.813223" y="77.261629" style="fill: #1f78b4; stroke: #1f78b4"/>
     <use xlink:href="#m8f527bab4b" x="369.446412" y="103.683515" style="fill: #1f78b4; stroke: #1f78b4"/>
     <use xlink:href="#m8f527bab4b" x="390.972347" y="81.737665" style="fill: #1f78b4; stroke: #1f78b4"/>
     <use xlink:href="#m8f527bab4b" x="348.45959" y="86.040181" style="fill: #1f78b4; stroke: #1f78b4"/>
     <use xlink:href="#m8f527bab4b" x="355.793707" y="117.284538" style="fill: #1f78b4; stroke: #1f78b4"/>
     <use xlink:href="#m8f527bab4b" x="347.15398" y="70.042644" style="fill: #1f78b4; stroke: #1f78b4"/>
     <use xlink:href="#m8f527bab4b" x="307.021831" y="117.951553" style="fill: #1f78b4; stroke: #1f78b4"/>
     <use xlink:href="#m8f527bab4b" x="386.81364" y="54.154151" style="fill: #1f78b4; stroke: #1f78b4"/>
     <use xlink:href="#m8f527bab4b" x="399.010258" y="126.941193" style="fill: #1f78b4; stroke: #1f78b4"/>
     <use xlink:href="#m8f527bab4b" x="222.314188" y="165.817987" style="fill: #1f78b4; stroke: #1f78b4"/>
    </g>
   </g>
  </g>
 </g>
 <defs>
  <clipPath id="pf6e2fe5671">
   <rect x="0" y="0" width="460.8" height="345.6"/>
  </clipPath>
 </defs>
</svg>
