<?xml version="1.0" encoding="utf-8" standalone="no"?>
<!DOCTYPE svg PUBLIC "-//W3C//DTD SVG 1.1//EN"
  "http://www.w3.org/Graphics/SVG/1.1/DTD/svg11.dtd">
<svg xmlns:xlink="http://www.w3.org/1999/xlink" width="460.8pt" height="345.6pt" viewBox="0 0 460.8 345.6" xmlns="http://www.w3.org/2000/svg" version="1.1">
 <metadata>
  <rdf:RDF xmlns:dc="http://purl.org/dc/elements/1.1/" xmlns:cc="http://creativecommons.org/ns#" xmlns:rdf="http://www.w3.org/1999/02/22-rdf-syntax-ns#">
   <cc:Work>
    <dc:type rdf:resource="http://purl.org/dc/dcmitype/StillImage"/>
    <dc:date>2023-09-05T01:32:04.688951</dc:date>
    <dc:format>image/svg+xml</dc:format>
    <dc:creator>
     <cc:Agent>
      <dc:title>Matplotlib v3.7.2, https://matplotlib.org/</dc:title>
     </cc:Agent>
    </dc:creator>
   </cc:Work>
  </rdf:RDF>
 </metadata>
 <defs>
  <style type="text/css">*{stroke-linejoin: round; stroke-linecap: butt}</style>
 </defs>
 <g id="figure_1">
  <g id="patch_1">
   <path d="M 0 345.6 
L 460.8 345.6 
L 460.8 0 
L 0 0 
z
" style="fill: #ffffff"/>
  </g>
  <g id="axes_1">
   <g id="LineCollection_1">
    <path d="M 249.306739 106.206568 
L 257.997097 62.24109 
" clip-path="url(#p13c6bccea9)" style="fill: none; stroke: #000000"/>
    <path d="M 249.306739 106.206568 
L 278.337319 65.149356 
" clip-path="url(#p13c6bccea9)" style="fill: none; stroke: #000000"/>
    <path d="M 249.306739 106.206568 
L 262.575316 73.604499 
" clip-path="url(#p13c6bccea9)" style="fill: none; stroke: #000000"/>
    <path d="M 249.306739 106.206568 
L 218.046084 174.941579 
" clip-path="url(#p13c6bccea9)" style="fill: none; stroke: #000000"/>
    <path d="M 254.777022 47.199533 
L 282.380534 36.571121 
" clip-path="url(#p13c6bccea9)" style="fill: none; stroke: #000000"/>
    <path d="M 254.777022 47.199533 
L 257.997097 62.24109 
" clip-path="url(#p13c6bccea9)" style="fill: none; stroke: #000000"/>
    <path d="M 254.777022 47.199533 
L 262.575316 73.604499 
" clip-path="url(#p13c6bccea9)" style="fill: none; stroke: #000000"/>
    <path d="M 282.380534 36.571121 
L 285.786447 54.204353 
" clip-path="url(#p13c6bccea9)" style="fill: none; stroke: #000000"/>
    <path d="M 282.380534 36.571121 
L 274.950016 42.624934 
" clip-path="url(#p13c6bccea9)" style="fill: none; stroke: #000000"/>
    <path d="M 282.380534 36.571121 
L 278.337319 65.149356 
" clip-path="url(#p13c6bccea9)" style="fill: none; stroke: #000000"/>
    <path d="M 282.380534 36.571121 
L 300.896462 41.777784 
" clip-path="url(#p13c6bccea9)" style="fill: none; stroke: #000000"/>
    <path d="M 282.380534 36.571121 
L 261.188105 29.990083 
" clip-path="url(#p13c6bccea9)" style="fill: none; stroke: #000000"/>
    <path d="M 257.997097 62.24109 
L 285.786447 54.204353 
" clip-path="url(#p13c6bccea9)" style="fill: none; stroke: #000000"/>
    <path d="M 257.997097 62.24109 
L 274.950016 42.624934 
" clip-path="url(#p13c6bccea9)" style="fill: none; stroke: #000000"/>
    <path d="M 257.997097 62.24109 
L 262.575316 73.604499 
" clip-path="url(#p13c6bccea9)" style="fill: none; stroke: #000000"/>
    <path d="M 257.997097 62.24109 
L 261.188105 29.990083 
" clip-path="url(#p13c6bccea9)" style="fill: none; stroke: #000000"/>
    <path d="M 285.786447 54.204353 
L 278.337319 65.149356 
" clip-path="url(#p13c6bccea9)" style="fill: none; stroke: #000000"/>
    <path d="M 285.786447 54.204353 
L 300.896462 41.777784 
" clip-path="url(#p13c6bccea9)" style="fill: none; stroke: #000000"/>
    <path d="M 285.786447 54.204353 
L 262.575316 73.604499 
" clip-path="url(#p13c6bccea9)" style="fill: none; stroke: #000000"/>
    <path d="M 274.950016 42.624934 
L 278.337319 65.149356 
" clip-path="url(#p13c6bccea9)" style="fill: none; stroke: #000000"/>
    <path d="M 274.950016 42.624934 
L 300.896462 41.777784 
" clip-path="url(#p13c6bccea9)" style="fill: none; stroke: #000000"/>
    <path d="M 274.950016 42.624934 
L 261.188105 29.990083 
" clip-path="url(#p13c6bccea9)" style="fill: none; stroke: #000000"/>
    <path d="M 278.337319 65.149356 
L 300.896462 41.777784 
" clip-path="url(#p13c6bccea9)" style="fill: none; stroke: #000000"/>
    <path d="M 278.337319 65.149356 
L 262.575316 73.604499 
" clip-path="url(#p13c6bccea9)" style="fill: none; stroke: #000000"/>
    <path d="M 116.091396 83.387981 
L 109.380987 108.307609 
" clip-path="url(#p13c6bccea9)" style="fill: none; stroke: #000000"/>
    <path d="M 116.091396 83.387981 
L 93.634649 84.560846 
" clip-path="url(#p13c6bccea9)" style="fill: none; stroke: #000000"/>
    <path d="M 116.091396 83.387981 
L 124.924597 101.523 
" clip-path="url(#p13c6bccea9)" style="fill: none; stroke: #000000"/>
    <path d="M 149.078254 131.047575 
L 96.52737 106.562277 
" clip-path="url(#p13c6bccea9)" style="fill: none; stroke: #000000"/>
    <path d="M 149.078254 131.047575 
L 109.380987 108.307609 
" clip-path="url(#p13c6bccea9)" style="fill: none; stroke: #000000"/>
    <path d="M 149.078254 131.047575 
L 124.924597 101.523 
" clip-path="url(#p13c6bccea9)" style="fill: none; stroke: #000000"/>
    <path d="M 149.078254 131.047575 
L 218.046084 174.941579 
" clip-path="url(#p13c6bccea9)" style="fill: none; stroke: #000000"/>
    <path d="M 96.52737 106.562277 
L 96.492781 92.981607 
" clip-path="url(#p13c6bccea9)" style="fill: none; stroke: #000000"/>
    <path d="M 96.52737 106.562277 
L 75.634774 97.651069 
" clip-path="url(#p13c6bccea9)" style="fill: none; stroke: #000000"/>
    <path d="M 96.52737 106.562277 
L 93.634649 84.560846 
" clip-path="url(#p13c6bccea9)" style="fill: none; stroke: #000000"/>
    <path d="M 96.52737 106.562277 
L 71.391678 84.708482 
" clip-path="url(#p13c6bccea9)" style="fill: none; stroke: #000000"/>
    <path d="M 96.52737 106.562277 
L 71.967301 111.113645 
" clip-path="url(#p13c6bccea9)" style="fill: none; stroke: #000000"/>
    <path d="M 109.380987 108.307609 
L 96.492781 92.981607 
" clip-path="url(#p13c6bccea9)" style="fill: none; stroke: #000000"/>
    <path d="M 109.380987 108.307609 
L 75.634774 97.651069 
" clip-path="url(#p13c6bccea9)" style="fill: none; stroke: #000000"/>
    <path d="M 109.380987 108.307609 
L 124.924597 101.523 
" clip-path="url(#p13c6bccea9)" style="fill: none; stroke: #000000"/>
    <path d="M 109.380987 108.307609 
L 71.967301 111.113645 
" clip-path="url(#p13c6bccea9)" style="fill: none; stroke: #000000"/>
    <path d="M 96.492781 92.981607 
L 93.634649 84.560846 
" clip-path="url(#p13c6bccea9)" style="fill: none; stroke: #000000"/>
    <path d="M 96.492781 92.981607 
L 71.391678 84.708482 
" clip-path="url(#p13c6bccea9)" style="fill: none; stroke: #000000"/>
    <path d="M 96.492781 92.981607 
L 124.924597 101.523 
" clip-path="url(#p13c6bccea9)" style="fill: none; stroke: #000000"/>
    <path d="M 75.634774 97.651069 
L 93.634649 84.560846 
" clip-path="url(#p13c6bccea9)" style="fill: none; stroke: #000000"/>
    <path d="M 75.634774 97.651069 
L 71.391678 84.708482 
" clip-path="url(#p13c6bccea9)" style="fill: none; stroke: #000000"/>
    <path d="M 75.634774 97.651069 
L 71.967301 111.113645 
" clip-path="url(#p13c6bccea9)" style="fill: none; stroke: #000000"/>
    <path d="M 93.634649 84.560846 
L 71.391678 84.708482 
" clip-path="url(#p13c6bccea9)" style="fill: none; stroke: #000000"/>
    <path d="M 93.634649 84.560846 
L 124.924597 101.523 
" clip-path="url(#p13c6bccea9)" style="fill: none; stroke: #000000"/>
    <path d="M 275.303988 290.466293 
L 241.201777 279.750039 
" clip-path="url(#p13c6bccea9)" style="fill: none; stroke: #000000"/>
    <path d="M 275.303988 290.466293 
L 261.512635 302.371629 
" clip-path="url(#p13c6bccea9)" style="fill: none; stroke: #000000"/>
    <path d="M 275.303988 290.466293 
L 257.97753 275.985615 
" clip-path="url(#p13c6bccea9)" style="fill: none; stroke: #000000"/>
    <path d="M 235.004965 242.029835 
L 236.517792 288.042524 
" clip-path="url(#p13c6bccea9)" style="fill: none; stroke: #000000"/>
    <path d="M 235.004965 242.029835 
L 241.201777 279.750039 
" clip-path="url(#p13c6bccea9)" style="fill: none; stroke: #000000"/>
    <path d="M 235.004965 242.029835 
L 257.97753 275.985615 
" clip-path="url(#p13c6bccea9)" style="fill: none; stroke: #000000"/>
    <path d="M 235.004965 242.029835 
L 218.046084 174.941579 
" clip-path="url(#p13c6bccea9)" style="fill: none; stroke: #000000"/>
    <path d="M 236.517792 288.042524 
L 251.940549 297.072209 
" clip-path="url(#p13c6bccea9)" style="fill: none; stroke: #000000"/>
    <path d="M 236.517792 288.042524 
L 236.201993 306.385319 
" clip-path="url(#p13c6bccea9)" style="fill: none; stroke: #000000"/>
    <path d="M 236.517792 288.042524 
L 261.512635 302.371629 
" clip-path="url(#p13c6bccea9)" style="fill: none; stroke: #000000"/>
    <path d="M 236.517792 288.042524 
L 249.26841 315.609917 
" clip-path="url(#p13c6bccea9)" style="fill: none; stroke: #000000"/>
    <path d="M 236.517792 288.042524 
L 218.360782 301.012653 
" clip-path="url(#p13c6bccea9)" style="fill: none; stroke: #000000"/>
    <path d="M 241.201777 279.750039 
L 251.940549 297.072209 
" clip-path="url(#p13c6bccea9)" style="fill: none; stroke: #000000"/>
    <path d="M 241.201777 279.750039 
L 236.201993 306.385319 
" clip-path="url(#p13c6bccea9)" style="fill: none; stroke: #000000"/>
    <path d="M 241.201777 279.750039 
L 257.97753 275.985615 
" clip-path="url(#p13c6bccea9)" style="fill: none; stroke: #000000"/>
    <path d="M 241.201777 279.750039 
L 218.360782 301.012653 
" clip-path="url(#p13c6bccea9)" style="fill: none; stroke: #000000"/>
    <path d="M 251.940549 297.072209 
L 261.512635 302.371629 
" clip-path="url(#p13c6bccea9)" style="fill: none; stroke: #000000"/>
    <path d="M 251.940549 297.072209 
L 249.26841 315.609917 
" clip-path="url(#p13c6bccea9)" style="fill: none; stroke: #000000"/>
    <path d="M 251.940549 297.072209 
L 257.97753 275.985615 
" clip-path="url(#p13c6bccea9)" style="fill: none; stroke: #000000"/>
    <path d="M 236.201993 306.385319 
L 261.512635 302.371629 
" clip-path="url(#p13c6bccea9)" style="fill: none; stroke: #000000"/>
    <path d="M 236.201993 306.385319 
L 249.26841 315.609917 
" clip-path="url(#p13c6bccea9)" style="fill: none; stroke: #000000"/>
    <path d="M 236.201993 306.385319 
L 218.360782 301.012653 
" clip-path="url(#p13c6bccea9)" style="fill: none; stroke: #000000"/>
    <path d="M 261.512635 302.371629 
L 249.26841 315.609917 
" clip-path="url(#p13c6bccea9)" style="fill: none; stroke: #000000"/>
    <path d="M 261.512635 302.371629 
L 257.97753 275.985615 
" clip-path="url(#p13c6bccea9)" style="fill: none; stroke: #000000"/>
    <path d="M 395.692491 173.490245 
L 371.112869 192.845118 
" clip-path="url(#p13c6bccea9)" style="fill: none; stroke: #000000"/>
    <path d="M 395.692491 173.490245 
L 407.085747 186.96725 
" clip-path="url(#p13c6bccea9)" style="fill: none; stroke: #000000"/>
    <path d="M 395.692491 173.490245 
L 369.578666 180.665406 
" clip-path="url(#p13c6bccea9)" style="fill: none; stroke: #000000"/>
    <path d="M 316.745443 185.116898 
L 379.819039 199.121055 
" clip-path="url(#p13c6bccea9)" style="fill: none; stroke: #000000"/>
    <path d="M 316.745443 185.116898 
L 371.112869 192.845118 
" clip-path="url(#p13c6bccea9)" style="fill: none; stroke: #000000"/>
    <path d="M 316.745443 185.116898 
L 369.578666 180.665406 
" clip-path="url(#p13c6bccea9)" style="fill: none; stroke: #000000"/>
    <path d="M 316.745443 185.116898 
L 218.046084 174.941579 
" clip-path="url(#p13c6bccea9)" style="fill: none; stroke: #000000"/>
    <path d="M 379.819039 199.121055 
L 396.054524 191.045551 
" clip-path="url(#p13c6bccea9)" style="fill: none; stroke: #000000"/>
    <path d="M 379.819039 199.121055 
L 404.581317 204.952214 
" clip-path="url(#p13c6bccea9)" style="fill: none; stroke: #000000"/>
    <path d="M 379.819039 199.121055 
L 407.085747 186.96725 
" clip-path="url(#p13c6bccea9)" style="fill: none; stroke: #000000"/>
    <path d="M 379.819039 199.121055 
L 420.813223 199.045242 
" clip-path="url(#p13c6bccea9)" style="fill: none; stroke: #000000"/>
    <path d="M 379.819039 199.121055 
L 391.723164 215.15492 
" clip-path="url(#p13c6bccea9)" style="fill: none; stroke: #000000"/>
    <path d="M 371.112869 192.845118 
L 396.054524 191.045551 
" clip-path="url(#p13c6bccea9)" style="fill: none; stroke: #000000"/>
    <path d="M 371.112869 192.845118 
L 404.581317 204.952214 
" clip-path="url(#p13c6bccea9)" style="fill: none; stroke: #000000"/>
    <path d="M 371.112869 192.845118 
L 369.578666 180.665406 
" clip-path="url(#p13c6bccea9)" style="fill: none; stroke: #000000"/>
    <path d="M 371.112869 192.845118 
L 391.723164 215.15492 
" clip-path="url(#p13c6bccea9)" style="fill: none; stroke: #000000"/>
    <path d="M 396.054524 191.045551 
L 407.085747 186.96725 
" clip-path="url(#p13c6bccea9)" style="fill: none; stroke: #000000"/>
    <path d="M 396.054524 191.045551 
L 420.813223 199.045242 
" clip-path="url(#p13c6bccea9)" style="fill: none; stroke: #000000"/>
    <path d="M 396.054524 191.045551 
L 369.578666 180.665406 
" clip-path="url(#p13c6bccea9)" style="fill: none; stroke: #000000"/>
    <path d="M 404.581317 204.952214 
L 407.085747 186.96725 
" clip-path="url(#p13c6bccea9)" style="fill: none; stroke: #000000"/>
    <path d="M 404.581317 204.952214 
L 420.813223 199.045242 
" clip-path="url(#p13c6bccea9)" style="fill: none; stroke: #000000"/>
    <path d="M 404.581317 204.952214 
L 391.723164 215.15492 
" clip-path="url(#p13c6bccea9)" style="fill: none; stroke: #000000"/>
    <path d="M 407.085747 186.96725 
L 420.813223 199.045242 
" clip-path="url(#p13c6bccea9)" style="fill: none; stroke: #000000"/>
    <path d="M 407.085747 186.96725 
L 369.578666 180.665406 
" clip-path="url(#p13c6bccea9)" style="fill: none; stroke: #000000"/>
    <path d="M 53.106166 215.986206 
L 85.187548 228.310023 
" clip-path="url(#p13c6bccea9)" style="fill: none; stroke: #000000"/>
    <path d="M 53.106166 215.986206 
L 47.151787 230.985715 
" clip-path="url(#p13c6bccea9)" style="fill: none; stroke: #000000"/>
    <path d="M 53.106166 215.986206 
L 80.291197 216.465328 
" clip-path="url(#p13c6bccea9)" style="fill: none; stroke: #000000"/>
    <path d="M 131.511577 208.196823 
L 78.554952 235.759267 
" clip-path="url(#p13c6bccea9)" style="fill: none; stroke: #000000"/>
    <path d="M 131.511577 208.196823 
L 85.187548 228.310023 
" clip-path="url(#p13c6bccea9)" style="fill: none; stroke: #000000"/>
    <path d="M 131.511577 208.196823 
L 80.291197 216.465328 
" clip-path="url(#p13c6bccea9)" style="fill: none; stroke: #000000"/>
    <path d="M 131.511577 208.196823 
L 218.046084 174.941579 
" clip-path="url(#p13c6bccea9)" style="fill: none; stroke: #000000"/>
    <path d="M 78.554952 235.759267 
L 58.916127 233.177992 
" clip-path="url(#p13c6bccea9)" style="fill: none; stroke: #000000"/>
    <path d="M 78.554952 235.759267 
L 59.418685 247.151202 
" clip-path="url(#p13c6bccea9)" style="fill: none; stroke: #000000"/>
    <path d="M 78.554952 235.759267 
L 47.151787 230.985715 
" clip-path="url(#p13c6bccea9)" style="fill: none; stroke: #000000"/>
    <path d="M 78.554952 235.759267 
L 39.986777 246.221491 
" clip-path="url(#p13c6bccea9)" style="fill: none; stroke: #000000"/>
    <path d="M 78.554952 235.759267 
L 76.213136 253.967546 
" clip-path="url(#p13c6bccea9)" style="fill: none; stroke: #000000"/>
    <path d="M 85.187548 228.310023 
L 58.916127 233.177992 
" clip-path="url(#p13c6bccea9)" style="fill: none; stroke: #000000"/>
    <path d="M 85.187548 228.310023 
L 59.418685 247.151202 
" clip-path="url(#p13c6bccea9)" style="fill: none; stroke: #000000"/>
    <path d="M 85.187548 228.310023 
L 80.291197 216.465328 
" clip-path="url(#p13c6bccea9)" style="fill: none; stroke: #000000"/>
    <path d="M 85.187548 228.310023 
L 76.213136 253.967546 
" clip-path="url(#p13c6bccea9)" style="fill: none; stroke: #000000"/>
    <path d="M 58.916127 233.177992 
L 47.151787 230.985715 
" clip-path="url(#p13c6bccea9)" style="fill: none; stroke: #000000"/>
    <path d="M 58.916127 233.177992 
L 39.986777 246.221491 
" clip-path="url(#p13c6bccea9)" style="fill: none; stroke: #000000"/>
    <path d="M 58.916127 233.177992 
L 80.291197 216.465328 
" clip-path="url(#p13c6bccea9)" style="fill: none; stroke: #000000"/>
    <path d="M 59.418685 247.151202 
L 47.151787 230.985715 
" clip-path="url(#p13c6bccea9)" style="fill: none; stroke: #000000"/>
    <path d="M 59.418685 247.151202 
L 39.986777 246.221491 
" clip-path="url(#p13c6bccea9)" style="fill: none; stroke: #000000"/>
    <path d="M 59.418685 247.151202 
L 76.213136 253.967546 
" clip-path="url(#p13c6bccea9)" style="fill: none; stroke: #000000"/>
    <path d="M 47.151787 230.985715 
L 39.986777 246.221491 
" clip-path="url(#p13c6bccea9)" style="fill: none; stroke: #000000"/>
    <path d="M 47.151787 230.985715 
L 80.291197 216.465328 
" clip-path="url(#p13c6bccea9)" style="fill: none; stroke: #000000"/>
   </g>
   <g id="PathCollection_1">
    <defs>
     <path id="mc3865aa278" d="M 0 8.660254 
C 2.296726 8.660254 4.499694 7.747755 6.123724 6.123724 
C 7.747755 4.499694 8.660254 2.296726 8.660254 0 
C 8.660254 -2.296726 7.747755 -4.499694 6.123724 -6.123724 
C 4.499694 -7.747755 2.296726 -8.660254 0 -8.660254 
C -2.296726 -8.660254 -4.499694 -7.747755 -6.123724 -6.123724 
C -7.747755 -4.499694 -8.660254 -2.296726 -8.660254 0 
C -8.660254 2.296726 -7.747755 4.499694 -6.123724 6.123724 
C -4.499694 7.747755 -2.296726 8.660254 0 8.660254 
z
" style="stroke: #1f78b4"/>
    </defs>
    <g clip-path="url(#p13c6bccea9)">
     <use xlink:href="#mc3865aa278" x="249.306739" y="106.206568" style="fill: #1f78b4; stroke: #1f78b4"/>
     <use xlink:href="#mc3865aa278" x="254.777022" y="47.199533" style="fill: #1f78b4; stroke: #1f78b4"/>
     <use xlink:href="#mc3865aa278" x="282.380534" y="36.571121" style="fill: #1f78b4; stroke: #1f78b4"/>
     <use xlink:href="#mc3865aa278" x="257.997097" y="62.24109" style="fill: #1f78b4; stroke: #1f78b4"/>
     <use xlink:href="#mc3865aa278" x="285.786447" y="54.204353" style="fill: #1f78b4; stroke: #1f78b4"/>
     <use xlink:href="#mc3865aa278" x="274.950016" y="42.624934" style="fill: #1f78b4; stroke: #1f78b4"/>
     <use xlink:href="#mc3865aa278" x="278.337319" y="65.149356" style="fill: #1f78b4; stroke: #1f78b4"/>
     <use xlink:href="#mc3865aa278" x="300.896462" y="41.777784" style="fill: #1f78b4; stroke: #1f78b4"/>
     <use xlink:href="#mc3865aa278" x="262.575316" y="73.604499" style="fill: #1f78b4; stroke: #1f78b4"/>
     <use xlink:href="#mc3865aa278" x="261.188105" y="29.990083" style="fill: #1f78b4; stroke: #1f78b4"/>
     <use xlink:href="#mc3865aa278" x="116.091396" y="83.387981" style="fill: #1f78b4; stroke: #1f78b4"/>
     <use xlink:href="#mc3865aa278" x="149.078254" y="131.047575" style="fill: #1f78b4; stroke: #1f78b4"/>
     <use xlink:href="#mc3865aa278" x="96.52737" y="106.562277" style="fill: #1f78b4; stroke: #1f78b4"/>
     <use xlink:href="#mc3865aa278" x="109.380987" y="108.307609" style="fill: #1f78b4; stroke: #1f78b4"/>
     <use xlink:href="#mc3865aa278" x="96.492781" y="92.981607" style="fill: #1f78b4; stroke: #1f78b4"/>
     <use xlink:href="#mc3865aa278" x="75.634774" y="97.651069" style="fill: #1f78b4; stroke: #1f78b4"/>
     <use xlink:href="#mc3865aa278" x="93.634649" y="84.560846" style="fill: #1f78b4; stroke: #1f78b4"/>
     <use xlink:href="#mc3865aa278" x="71.391678" y="84.708482" style="fill: #1f78b4; stroke: #1f78b4"/>
     <use xlink:href="#mc3865aa278" x="124.924597" y="101.523" style="fill: #1f78b4; stroke: #1f78b4"/>
     <use xlink:href="#mc3865aa278" x="71.967301" y="111.113645" style="fill: #1f78b4; stroke: #1f78b4"/>
     <use xlink:href="#mc3865aa278" x="275.303988" y="290.466293" style="fill: #1f78b4; stroke: #1f78b4"/>
     <use xlink:href="#mc3865aa278" x="235.004965" y="242.029835" style="fill: #1f78b4; stroke: #1f78b4"/>
     <use xlink:href="#mc3865aa278" x="236.517792" y="288.042524" style="fill: #1f78b4; stroke: #1f78b4"/>
     <use xlink:href="#mc3865aa278" x="241.201777" y="279.750039" style="fill: #1f78b4; stroke: #1f78b4"/>
     <use xlink:href="#mc3865aa278" x="251.940549" y="297.072209" style="fill: #1f78b4; stroke: #1f78b4"/>
     <use xlink:href="#mc3865aa278" x="236.201993" y="306.385319" style="fill: #1f78b4; stroke: #1f78b4"/>
     <use xlink:href="#mc3865aa278" x="261.512635" y="302.371629" style="fill: #1f78b4; stroke: #1f78b4"/>
     <use xlink:href="#mc3865aa278" x="249.26841" y="315.609917" style="fill: #1f78b4; stroke: #1f78b4"/>
     <use xlink:href="#mc3865aa278" x="257.97753" y="275.985615" style="fill: #1f78b4; stroke: #1f78b4"/>
     <use xlink:href="#mc3865aa278" x="218.360782" y="301.012653" style="fill: #1f78b4; stroke: #1f78b4"/>
     <use xlink:href="#mc3865aa278" x="395.692491" y="173.490245" style="fill: #1f78b4; stroke: #1f78b4"/>
     <use xlink:href="#mc3865aa278" x="316.745443" y="185.116898" style="fill: #1f78b4; stroke: #1f78b4"/>
     <use xlink:href="#mc3865aa278" x="379.819039" y="199.121055" style="fill: #1f78b4; stroke: #1f78b4"/>
     <use xlink:href="#mc3865aa278" x="371.112869" y="192.845118" style="fill: #1f78b4; stroke: #1f78b4"/>
     <use xlink:href="#mc3865aa278" x="396.054524" y="191.045551" style="fill: #1f78b4; stroke: #1f78b4"/>
     <use xlink:href="#mc3865aa278" x="404.581317" y="204.952214" style="fill: #1f78b4; stroke: #1f78b4"/>
     <use xlink:href="#mc3865aa278" x="407.085747" y="186.96725" style="fill: #1f78b4; stroke: #1f78b4"/>
     <use xlink:href="#mc3865aa278" x="420.813223" y="199.045242" style="fill: #1f78b4; stroke: #1f78b4"/>
     <use xlink:href="#mc3865aa278" x="369.578666" y="180.665406" style="fill: #1f78b4; stroke: #1f78b4"/>
     <use xlink:href="#mc3865aa278" x="391.723164" y="215.15492" style="fill: #1f78b4; stroke: #1f78b4"/>
     <use xlink:href="#mc3865aa278" x="53.106166" y="215.986206" style="fill: #1f78b4; stroke: #1f78b4"/>
     <use xlink:href="#mc3865aa278" x="131.511577" y="208.196823" style="fill: #1f78b4; stroke: #1f78b4"/>
     <use xlink:href="#mc3865aa278" x="78.554952" y="235.759267" style="fill: #1f78b4; stroke: #1f78b4"/>
     <use xlink:href="#mc3865aa278" x="85.187548" y="228.310023" style="fill: #1f78b4; stroke: #1f78b4"/>
     <use xlink:href="#mc3865aa278" x="58.916127" y="233.177992" style="fill: #1f78b4; stroke: #1f78b4"/>
     <use xlink:href="#mc3865aa278" x="59.418685" y="247.151202" style="fill: #1f78b4; stroke: #1f78b4"/>
     <use xlink:href="#mc3865aa278" x="47.151787" y="230.985715" style="fill: #1f78b4; stroke: #1f78b4"/>
     <use xlink:href="#mc3865aa278" x="39.986777" y="246.221491" style="fill: #1f78b4; stroke: #1f78b4"/>
     <use xlink:href="#mc3865aa278" x="80.291197" y="216.465328" style="fill: #1f78b4; stroke: #1f78b4"/>
     <use xlink:href="#mc3865aa278" x="76.213136" y="253.967546" style="fill: #1f78b4; stroke: #1f78b4"/>
     <use xlink:href="#mc3865aa278" x="218.046084" y="174.941579" style="fill: #1f78b4; stroke: #1f78b4"/>
    </g>
   </g>
  </g>
 </g>
 <defs>
  <clipPath id="p13c6bccea9">
   <rect x="0" y="0" width="460.8" height="345.6"/>
  </clipPath>
 </defs>
</svg>
