<?xml version="1.0" encoding="utf-8" standalone="no"?>
<!DOCTYPE svg PUBLIC "-//W3C//DTD SVG 1.1//EN"
  "http://www.w3.org/Graphics/SVG/1.1/DTD/svg11.dtd">
<svg xmlns:xlink="http://www.w3.org/1999/xlink" width="460.8pt" height="345.6pt" viewBox="0 0 460.8 345.6" xmlns="http://www.w3.org/2000/svg" version="1.1">
 <metadata>
  <rdf:RDF xmlns:dc="http://purl.org/dc/elements/1.1/" xmlns:cc="http://creativecommons.org/ns#" xmlns:rdf="http://www.w3.org/1999/02/22-rdf-syntax-ns#">
   <cc:Work>
    <dc:type rdf:resource="http://purl.org/dc/dcmitype/StillImage"/>
    <dc:date>2023-09-08T15:25:03.267519</dc:date>
    <dc:format>image/svg+xml</dc:format>
    <dc:creator>
     <cc:Agent>
      <dc:title>Matplotlib v3.7.2, https://matplotlib.org/</dc:title>
     </cc:Agent>
    </dc:creator>
   </cc:Work>
  </rdf:RDF>
 </metadata>
 <defs>
  <style type="text/css">*{stroke-linejoin: round; stroke-linecap: butt}</style>
 </defs>
 <g id="figure_1">
  <g id="patch_1">
   <path d="M 0 345.6 
L 460.8 345.6 
L 460.8 0 
L 0 0 
z
" style="fill: #ffffff"/>
  </g>
  <g id="axes_1">
   <g id="LineCollection_1">
    <path d="M 39.986777 246.262913 
L 75.176156 262.518297 
" clip-path="url(#peab9f3ac44)" style="fill: none; stroke: #000000"/>
    <path d="M 39.986777 246.262913 
L 58.53897 229.605299 
" clip-path="url(#peab9f3ac44)" style="fill: none; stroke: #000000"/>
    <path d="M 75.176156 262.518297 
L 122.217759 279.799322 
" clip-path="url(#peab9f3ac44)" style="fill: none; stroke: #000000"/>
    <path d="M 75.176156 262.518297 
L 94.601063 244.061404 
" clip-path="url(#peab9f3ac44)" style="fill: none; stroke: #000000"/>
    <path d="M 122.217759 279.799322 
L 175.241805 293.400772 
" clip-path="url(#peab9f3ac44)" style="fill: none; stroke: #000000"/>
    <path d="M 122.217759 279.799322 
L 141.538851 257.482523 
" clip-path="url(#peab9f3ac44)" style="fill: none; stroke: #000000"/>
    <path d="M 175.241805 293.400772 
L 229.490727 302.634224 
" clip-path="url(#peab9f3ac44)" style="fill: none; stroke: #000000"/>
    <path d="M 175.241805 293.400772 
L 193.606624 267.299637 
" clip-path="url(#peab9f3ac44)" style="fill: none; stroke: #000000"/>
    <path d="M 229.490727 302.634224 
L 281.671186 308.988472 
" clip-path="url(#peab9f3ac44)" style="fill: none; stroke: #000000"/>
    <path d="M 229.490727 302.634224 
L 246.392299 274.397097 
" clip-path="url(#peab9f3ac44)" style="fill: none; stroke: #000000"/>
    <path d="M 281.671186 308.988472 
L 328.628647 313.084895 
" clip-path="url(#peab9f3ac44)" style="fill: none; stroke: #000000"/>
    <path d="M 281.671186 308.988472 
L 297.412098 279.252164 
" clip-path="url(#peab9f3ac44)" style="fill: none; stroke: #000000"/>
    <path d="M 328.628647 313.084895 
L 365.041351 315.609917 
" clip-path="url(#peab9f3ac44)" style="fill: none; stroke: #000000"/>
    <path d="M 328.628647 313.084895 
L 343.734106 282.777622 
" clip-path="url(#peab9f3ac44)" style="fill: none; stroke: #000000"/>
    <path d="M 365.041351 315.609917 
L 380.259873 285.428316 
" clip-path="url(#peab9f3ac44)" style="fill: none; stroke: #000000"/>
    <path d="M 58.53897 229.605299 
L 94.601063 244.061404 
" clip-path="url(#peab9f3ac44)" style="fill: none; stroke: #000000"/>
    <path d="M 58.53897 229.605299 
L 79.765327 210.312588 
" clip-path="url(#peab9f3ac44)" style="fill: none; stroke: #000000"/>
    <path d="M 94.601063 244.061404 
L 141.538851 257.482523 
" clip-path="url(#peab9f3ac44)" style="fill: none; stroke: #000000"/>
    <path d="M 94.601063 244.061404 
L 116.791253 219.138218 
" clip-path="url(#peab9f3ac44)" style="fill: none; stroke: #000000"/>
    <path d="M 141.538851 257.482523 
L 193.606624 267.299637 
" clip-path="url(#peab9f3ac44)" style="fill: none; stroke: #000000"/>
    <path d="M 141.538851 257.482523 
L 163.385047 226.830585 
" clip-path="url(#peab9f3ac44)" style="fill: none; stroke: #000000"/>
    <path d="M 193.606624 267.299637 
L 246.392299 274.397097 
" clip-path="url(#peab9f3ac44)" style="fill: none; stroke: #000000"/>
    <path d="M 193.606624 267.299637 
L 214.411315 232.699391 
" clip-path="url(#peab9f3ac44)" style="fill: none; stroke: #000000"/>
    <path d="M 246.392299 274.397097 
L 297.412098 279.252164 
" clip-path="url(#peab9f3ac44)" style="fill: none; stroke: #000000"/>
    <path d="M 246.392299 274.397097 
L 266.110333 236.550626 
" clip-path="url(#peab9f3ac44)" style="fill: none; stroke: #000000"/>
    <path d="M 297.412098 279.252164 
L 343.734106 282.777622 
" clip-path="url(#peab9f3ac44)" style="fill: none; stroke: #000000"/>
    <path d="M 297.412098 279.252164 
L 316.165205 240.521209 
" clip-path="url(#peab9f3ac44)" style="fill: none; stroke: #000000"/>
    <path d="M 343.734106 282.777622 
L 380.259873 285.428316 
" clip-path="url(#peab9f3ac44)" style="fill: none; stroke: #000000"/>
    <path d="M 343.734106 282.777622 
L 361.126757 243.090823 
" clip-path="url(#peab9f3ac44)" style="fill: none; stroke: #000000"/>
    <path d="M 380.259873 285.428316 
L 396.560639 245.838151 
" clip-path="url(#peab9f3ac44)" style="fill: none; stroke: #000000"/>
    <path d="M 79.765327 210.312588 
L 116.791253 219.138218 
" clip-path="url(#peab9f3ac44)" style="fill: none; stroke: #000000"/>
    <path d="M 79.765327 210.312588 
L 100.993666 185.390154 
" clip-path="url(#peab9f3ac44)" style="fill: none; stroke: #000000"/>
    <path d="M 116.791253 219.138218 
L 163.385047 226.830585 
" clip-path="url(#peab9f3ac44)" style="fill: none; stroke: #000000"/>
    <path d="M 116.791253 219.138218 
L 138.491046 188.994318 
" clip-path="url(#peab9f3ac44)" style="fill: none; stroke: #000000"/>
    <path d="M 163.385047 226.830585 
L 214.411315 232.699391 
" clip-path="url(#peab9f3ac44)" style="fill: none; stroke: #000000"/>
    <path d="M 163.385047 226.830585 
L 184.384347 191.014363 
" clip-path="url(#peab9f3ac44)" style="fill: none; stroke: #000000"/>
    <path d="M 214.411315 232.699391 
L 266.110333 236.550626 
" clip-path="url(#peab9f3ac44)" style="fill: none; stroke: #000000"/>
    <path d="M 214.411315 232.699391 
L 233.316926 192.117988 
" clip-path="url(#peab9f3ac44)" style="fill: none; stroke: #000000"/>
    <path d="M 266.110333 236.550626 
L 316.165205 240.521209 
" clip-path="url(#peab9f3ac44)" style="fill: none; stroke: #000000"/>
    <path d="M 266.110333 236.550626 
L 283.119074 193.245846 
" clip-path="url(#peab9f3ac44)" style="fill: none; stroke: #000000"/>
    <path d="M 316.165205 240.521209 
L 361.126757 243.090823 
" clip-path="url(#peab9f3ac44)" style="fill: none; stroke: #000000"/>
    <path d="M 316.165205 240.521209 
L 331.551625 195.656806 
" clip-path="url(#peab9f3ac44)" style="fill: none; stroke: #000000"/>
    <path d="M 361.126757 243.090823 
L 396.560639 245.838151 
" clip-path="url(#peab9f3ac44)" style="fill: none; stroke: #000000"/>
    <path d="M 361.126757 243.090823 
L 375.470869 198.271342 
" clip-path="url(#peab9f3ac44)" style="fill: none; stroke: #000000"/>
    <path d="M 396.560639 245.838151 
L 409.96675 200.760687 
" clip-path="url(#peab9f3ac44)" style="fill: none; stroke: #000000"/>
    <path d="M 100.993666 185.390154 
L 138.491046 188.994318 
" clip-path="url(#peab9f3ac44)" style="fill: none; stroke: #000000"/>
    <path d="M 100.993666 185.390154 
L 123.687082 160.62372 
" clip-path="url(#peab9f3ac44)" style="fill: none; stroke: #000000"/>
    <path d="M 138.491046 188.994318 
L 184.384347 191.014363 
" clip-path="url(#peab9f3ac44)" style="fill: none; stroke: #000000"/>
    <path d="M 138.491046 188.994318 
L 158.051709 156.952412 
" clip-path="url(#peab9f3ac44)" style="fill: none; stroke: #000000"/>
    <path d="M 184.384347 191.014363 
L 233.316926 192.117988 
" clip-path="url(#peab9f3ac44)" style="fill: none; stroke: #000000"/>
    <path d="M 184.384347 191.014363 
L 199.729687 152.166842 
" clip-path="url(#peab9f3ac44)" style="fill: none; stroke: #000000"/>
    <path d="M 233.316926 192.117988 
L 283.119074 193.245846 
" clip-path="url(#peab9f3ac44)" style="fill: none; stroke: #000000"/>
    <path d="M 233.316926 192.117988 
L 245.94086 149.232122 
" clip-path="url(#peab9f3ac44)" style="fill: none; stroke: #000000"/>
    <path d="M 283.119074 193.245846 
L 331.551625 195.656806 
" clip-path="url(#peab9f3ac44)" style="fill: none; stroke: #000000"/>
    <path d="M 283.119074 193.245846 
L 294.069376 147.73825 
" clip-path="url(#peab9f3ac44)" style="fill: none; stroke: #000000"/>
    <path d="M 331.551625 195.656806 
L 375.470869 198.271342 
" clip-path="url(#peab9f3ac44)" style="fill: none; stroke: #000000"/>
    <path d="M 331.551625 195.656806 
L 341.473488 148.81126 
" clip-path="url(#peab9f3ac44)" style="fill: none; stroke: #000000"/>
    <path d="M 375.470869 198.271342 
L 409.96675 200.760687 
" clip-path="url(#peab9f3ac44)" style="fill: none; stroke: #000000"/>
    <path d="M 375.470869 198.271342 
L 384.700376 150.817468 
" clip-path="url(#peab9f3ac44)" style="fill: none; stroke: #000000"/>
    <path d="M 409.96675 200.760687 
L 418.434316 153.630251 
" clip-path="url(#peab9f3ac44)" style="fill: none; stroke: #000000"/>
    <path d="M 123.687082 160.62372 
L 158.051709 156.952412 
" clip-path="url(#peab9f3ac44)" style="fill: none; stroke: #000000"/>
    <path d="M 123.687082 160.62372 
L 147.207265 140.808971 
" clip-path="url(#peab9f3ac44)" style="fill: none; stroke: #000000"/>
    <path d="M 158.051709 156.952412 
L 199.729687 152.166842 
" clip-path="url(#peab9f3ac44)" style="fill: none; stroke: #000000"/>
    <path d="M 158.051709 156.952412 
L 165.472512 122.995939 
" clip-path="url(#peab9f3ac44)" style="fill: none; stroke: #000000"/>
    <path d="M 199.729687 152.166842 
L 245.94086 149.232122 
" clip-path="url(#peab9f3ac44)" style="fill: none; stroke: #000000"/>
    <path d="M 199.729687 152.166842 
L 203.376101 112.934007 
" clip-path="url(#peab9f3ac44)" style="fill: none; stroke: #000000"/>
    <path d="M 245.94086 149.232122 
L 294.069376 147.73825 
" clip-path="url(#peab9f3ac44)" style="fill: none; stroke: #000000"/>
    <path d="M 245.94086 149.232122 
L 248.71114 106.584142 
" clip-path="url(#peab9f3ac44)" style="fill: none; stroke: #000000"/>
    <path d="M 294.069376 147.73825 
L 341.473488 148.81126 
" clip-path="url(#peab9f3ac44)" style="fill: none; stroke: #000000"/>
    <path d="M 294.069376 147.73825 
L 296.566505 103.106549 
" clip-path="url(#peab9f3ac44)" style="fill: none; stroke: #000000"/>
    <path d="M 341.473488 148.81126 
L 384.700376 150.817468 
" clip-path="url(#peab9f3ac44)" style="fill: none; stroke: #000000"/>
    <path d="M 341.473488 148.81126 
L 343.710599 102.973268 
" clip-path="url(#peab9f3ac44)" style="fill: none; stroke: #000000"/>
    <path d="M 384.700376 150.817468 
L 418.434316 153.630251 
" clip-path="url(#peab9f3ac44)" style="fill: none; stroke: #000000"/>
    <path d="M 384.700376 150.817468 
L 386.609012 104.653438 
" clip-path="url(#peab9f3ac44)" style="fill: none; stroke: #000000"/>
    <path d="M 418.434316 153.630251 
L 420.813223 107.299819 
" clip-path="url(#peab9f3ac44)" style="fill: none; stroke: #000000"/>
    <path d="M 147.207265 140.808971 
L 165.472512 122.995939 
" clip-path="url(#peab9f3ac44)" style="fill: none; stroke: #000000"/>
    <path d="M 147.207265 140.808971 
L 136.237811 121.404748 
" clip-path="url(#peab9f3ac44)" style="fill: none; stroke: #000000"/>
    <path d="M 165.472512 122.995939 
L 203.376101 112.934007 
" clip-path="url(#peab9f3ac44)" style="fill: none; stroke: #000000"/>
    <path d="M 165.472512 122.995939 
L 156.856243 94.763555 
" clip-path="url(#peab9f3ac44)" style="fill: none; stroke: #000000"/>
    <path d="M 203.376101 112.934007 
L 248.71114 106.584142 
" clip-path="url(#peab9f3ac44)" style="fill: none; stroke: #000000"/>
    <path d="M 203.376101 112.934007 
L 195.961859 78.563459 
" clip-path="url(#peab9f3ac44)" style="fill: none; stroke: #000000"/>
    <path d="M 248.71114 106.584142 
L 296.566505 103.106549 
" clip-path="url(#peab9f3ac44)" style="fill: none; stroke: #000000"/>
    <path d="M 248.71114 106.584142 
L 242.95999 69.087714 
" clip-path="url(#peab9f3ac44)" style="fill: none; stroke: #000000"/>
    <path d="M 296.566505 103.106549 
L 343.710599 102.973268 
" clip-path="url(#peab9f3ac44)" style="fill: none; stroke: #000000"/>
    <path d="M 296.566505 103.106549 
L 291.463876 63.446478 
" clip-path="url(#peab9f3ac44)" style="fill: none; stroke: #000000"/>
    <path d="M 343.710599 102.973268 
L 386.609012 104.653438 
" clip-path="url(#peab9f3ac44)" style="fill: none; stroke: #000000"/>
    <path d="M 343.710599 102.973268 
L 339.087444 61.829345 
" clip-path="url(#peab9f3ac44)" style="fill: none; stroke: #000000"/>
    <path d="M 386.609012 104.653438 
L 420.813223 107.299819 
" clip-path="url(#peab9f3ac44)" style="fill: none; stroke: #000000"/>
    <path d="M 386.609012 104.653438 
L 382.860598 62.821254 
" clip-path="url(#peab9f3ac44)" style="fill: none; stroke: #000000"/>
    <path d="M 420.813223 107.299819 
L 417.786004 65.640206 
" clip-path="url(#peab9f3ac44)" style="fill: none; stroke: #000000"/>
    <path d="M 136.237811 121.404748 
L 156.856243 94.763555 
" clip-path="url(#peab9f3ac44)" style="fill: none; stroke: #000000"/>
    <path d="M 136.237811 121.404748 
L 117.277096 112.753589 
" clip-path="url(#peab9f3ac44)" style="fill: none; stroke: #000000"/>
    <path d="M 156.856243 94.763555 
L 195.961859 78.563459 
" clip-path="url(#peab9f3ac44)" style="fill: none; stroke: #000000"/>
    <path d="M 156.856243 94.763555 
L 141.054203 77.757484 
" clip-path="url(#peab9f3ac44)" style="fill: none; stroke: #000000"/>
    <path d="M 195.961859 78.563459 
L 242.95999 69.087714 
" clip-path="url(#peab9f3ac44)" style="fill: none; stroke: #000000"/>
    <path d="M 195.961859 78.563459 
L 183.201077 54.387258 
" clip-path="url(#peab9f3ac44)" style="fill: none; stroke: #000000"/>
    <path d="M 242.95999 69.087714 
L 291.463876 63.446478 
" clip-path="url(#peab9f3ac44)" style="fill: none; stroke: #000000"/>
    <path d="M 242.95999 69.087714 
L 232.462618 40.771386 
" clip-path="url(#peab9f3ac44)" style="fill: none; stroke: #000000"/>
    <path d="M 291.463876 63.446478 
L 339.087444 61.829345 
" clip-path="url(#peab9f3ac44)" style="fill: none; stroke: #000000"/>
    <path d="M 291.463876 63.446478 
L 283.128279 33.235579 
" clip-path="url(#peab9f3ac44)" style="fill: none; stroke: #000000"/>
    <path d="M 339.087444 61.829345 
L 382.860598 62.821254 
" clip-path="url(#peab9f3ac44)" style="fill: none; stroke: #000000"/>
    <path d="M 339.087444 61.829345 
L 332.171165 29.990083 
" clip-path="url(#peab9f3ac44)" style="fill: none; stroke: #000000"/>
    <path d="M 382.860598 62.821254 
L 417.786004 65.640206 
" clip-path="url(#peab9f3ac44)" style="fill: none; stroke: #000000"/>
    <path d="M 382.860598 62.821254 
L 377.045278 30.577366 
" clip-path="url(#peab9f3ac44)" style="fill: none; stroke: #000000"/>
    <path d="M 417.786004 65.640206 
L 412.797028 33.630039 
" clip-path="url(#peab9f3ac44)" style="fill: none; stroke: #000000"/>
    <path d="M 117.277096 112.753589 
L 141.054203 77.757484 
" clip-path="url(#peab9f3ac44)" style="fill: none; stroke: #000000"/>
    <path d="M 141.054203 77.757484 
L 183.201077 54.387258 
" clip-path="url(#peab9f3ac44)" style="fill: none; stroke: #000000"/>
    <path d="M 183.201077 54.387258 
L 232.462618 40.771386 
" clip-path="url(#peab9f3ac44)" style="fill: none; stroke: #000000"/>
    <path d="M 232.462618 40.771386 
L 283.128279 33.235579 
" clip-path="url(#peab9f3ac44)" style="fill: none; stroke: #000000"/>
    <path d="M 283.128279 33.235579 
L 332.171165 29.990083 
" clip-path="url(#peab9f3ac44)" style="fill: none; stroke: #000000"/>
    <path d="M 332.171165 29.990083 
L 377.045278 30.577366 
" clip-path="url(#peab9f3ac44)" style="fill: none; stroke: #000000"/>
    <path d="M 377.045278 30.577366 
L 412.797028 33.630039 
" clip-path="url(#peab9f3ac44)" style="fill: none; stroke: #000000"/>
   </g>
   <g id="PathCollection_1">
    <defs>
     <path id="m94e6856ff0" d="M 0 8.660254 
C 2.296726 8.660254 4.499694 7.747755 6.123724 6.123724 
C 7.747755 4.499694 8.660254 2.296726 8.660254 0 
C 8.660254 -2.296726 7.747755 -4.499694 6.123724 -6.123724 
C 4.499694 -7.747755 2.296726 -8.660254 0 -8.660254 
C -2.296726 -8.660254 -4.499694 -7.747755 -6.123724 -6.123724 
C -7.747755 -4.499694 -8.660254 -2.296726 -8.660254 0 
C -8.660254 2.296726 -7.747755 4.499694 -6.123724 6.123724 
C -4.499694 7.747755 -2.296726 8.660254 0 8.660254 
z
" style="stroke: #1f78b4"/>
    </defs>
    <g clip-path="url(#peab9f3ac44)">
     <use xlink:href="#m94e6856ff0" x="39.986777" y="246.262913" style="fill: #1f78b4; stroke: #1f78b4"/>
     <use xlink:href="#m94e6856ff0" x="75.176156" y="262.518297" style="fill: #1f78b4; stroke: #1f78b4"/>
     <use xlink:href="#m94e6856ff0" x="122.217759" y="279.799322" style="fill: #1f78b4; stroke: #1f78b4"/>
     <use xlink:href="#m94e6856ff0" x="175.241805" y="293.400772" style="fill: #1f78b4; stroke: #1f78b4"/>
     <use xlink:href="#m94e6856ff0" x="229.490727" y="302.634224" style="fill: #1f78b4; stroke: #1f78b4"/>
     <use xlink:href="#m94e6856ff0" x="281.671186" y="308.988472" style="fill: #1f78b4; stroke: #1f78b4"/>
     <use xlink:href="#m94e6856ff0" x="328.628647" y="313.084895" style="fill: #1f78b4; stroke: #1f78b4"/>
     <use xlink:href="#m94e6856ff0" x="365.041351" y="315.609917" style="fill: #1f78b4; stroke: #1f78b4"/>
     <use xlink:href="#m94e6856ff0" x="58.53897" y="229.605299" style="fill: #1f78b4; stroke: #1f78b4"/>
     <use xlink:href="#m94e6856ff0" x="94.601063" y="244.061404" style="fill: #1f78b4; stroke: #1f78b4"/>
     <use xlink:href="#m94e6856ff0" x="141.538851" y="257.482523" style="fill: #1f78b4; stroke: #1f78b4"/>
     <use xlink:href="#m94e6856ff0" x="193.606624" y="267.299637" style="fill: #1f78b4; stroke: #1f78b4"/>
     <use xlink:href="#m94e6856ff0" x="246.392299" y="274.397097" style="fill: #1f78b4; stroke: #1f78b4"/>
     <use xlink:href="#m94e6856ff0" x="297.412098" y="279.252164" style="fill: #1f78b4; stroke: #1f78b4"/>
     <use xlink:href="#m94e6856ff0" x="343.734106" y="282.777622" style="fill: #1f78b4; stroke: #1f78b4"/>
     <use xlink:href="#m94e6856ff0" x="380.259873" y="285.428316" style="fill: #1f78b4; stroke: #1f78b4"/>
     <use xlink:href="#m94e6856ff0" x="79.765327" y="210.312588" style="fill: #1f78b4; stroke: #1f78b4"/>
     <use xlink:href="#m94e6856ff0" x="116.791253" y="219.138218" style="fill: #1f78b4; stroke: #1f78b4"/>
     <use xlink:href="#m94e6856ff0" x="163.385047" y="226.830585" style="fill: #1f78b4; stroke: #1f78b4"/>
     <use xlink:href="#m94e6856ff0" x="214.411315" y="232.699391" style="fill: #1f78b4; stroke: #1f78b4"/>
     <use xlink:href="#m94e6856ff0" x="266.110333" y="236.550626" style="fill: #1f78b4; stroke: #1f78b4"/>
     <use xlink:href="#m94e6856ff0" x="316.165205" y="240.521209" style="fill: #1f78b4; stroke: #1f78b4"/>
     <use xlink:href="#m94e6856ff0" x="361.126757" y="243.090823" style="fill: #1f78b4; stroke: #1f78b4"/>
     <use xlink:href="#m94e6856ff0" x="396.560639" y="245.838151" style="fill: #1f78b4; stroke: #1f78b4"/>
     <use xlink:href="#m94e6856ff0" x="100.993666" y="185.390154" style="fill: #1f78b4; stroke: #1f78b4"/>
     <use xlink:href="#m94e6856ff0" x="138.491046" y="188.994318" style="fill: #1f78b4; stroke: #1f78b4"/>
     <use xlink:href="#m94e6856ff0" x="184.384347" y="191.014363" style="fill: #1f78b4; stroke: #1f78b4"/>
     <use xlink:href="#m94e6856ff0" x="233.316926" y="192.117988" style="fill: #1f78b4; stroke: #1f78b4"/>
     <use xlink:href="#m94e6856ff0" x="283.119074" y="193.245846" style="fill: #1f78b4; stroke: #1f78b4"/>
     <use xlink:href="#m94e6856ff0" x="331.551625" y="195.656806" style="fill: #1f78b4; stroke: #1f78b4"/>
     <use xlink:href="#m94e6856ff0" x="375.470869" y="198.271342" style="fill: #1f78b4; stroke: #1f78b4"/>
     <use xlink:href="#m94e6856ff0" x="409.96675" y="200.760687" style="fill: #1f78b4; stroke: #1f78b4"/>
     <use xlink:href="#m94e6856ff0" x="123.687082" y="160.62372" style="fill: #1f78b4; stroke: #1f78b4"/>
     <use xlink:href="#m94e6856ff0" x="158.051709" y="156.952412" style="fill: #1f78b4; stroke: #1f78b4"/>
     <use xlink:href="#m94e6856ff0" x="199.729687" y="152.166842" style="fill: #1f78b4; stroke: #1f78b4"/>
     <use xlink:href="#m94e6856ff0" x="245.94086" y="149.232122" style="fill: #1f78b4; stroke: #1f78b4"/>
     <use xlink:href="#m94e6856ff0" x="294.069376" y="147.73825" style="fill: #1f78b4; stroke: #1f78b4"/>
     <use xlink:href="#m94e6856ff0" x="341.473488" y="148.81126" style="fill: #1f78b4; stroke: #1f78b4"/>
     <use xlink:href="#m94e6856ff0" x="384.700376" y="150.817468" style="fill: #1f78b4; stroke: #1f78b4"/>
     <use xlink:href="#m94e6856ff0" x="418.434316" y="153.630251" style="fill: #1f78b4; stroke: #1f78b4"/>
     <use xlink:href="#m94e6856ff0" x="147.207265" y="140.808971" style="fill: #1f78b4; stroke: #1f78b4"/>
     <use xlink:href="#m94e6856ff0" x="165.472512" y="122.995939" style="fill: #1f78b4; stroke: #1f78b4"/>
     <use xlink:href="#m94e6856ff0" x="203.376101" y="112.934007" style="fill: #1f78b4; stroke: #1f78b4"/>
     <use xlink:href="#m94e6856ff0" x="248.71114" y="106.584142" style="fill: #1f78b4; stroke: #1f78b4"/>
     <use xlink:href="#m94e6856ff0" x="296.566505" y="103.106549" style="fill: #1f78b4; stroke: #1f78b4"/>
     <use xlink:href="#m94e6856ff0" x="343.710599" y="102.973268" style="fill: #1f78b4; stroke: #1f78b4"/>
     <use xlink:href="#m94e6856ff0" x="386.609012" y="104.653438" style="fill: #1f78b4; stroke: #1f78b4"/>
     <use xlink:href="#m94e6856ff0" x="420.813223" y="107.299819" style="fill: #1f78b4; stroke: #1f78b4"/>
     <use xlink:href="#m94e6856ff0" x="136.237811" y="121.404748" style="fill: #1f78b4; stroke: #1f78b4"/>
     <use xlink:href="#m94e6856ff0" x="156.856243" y="94.763555" style="fill: #1f78b4; stroke: #1f78b4"/>
     <use xlink:href="#m94e6856ff0" x="195.961859" y="78.563459" style="fill: #1f78b4; stroke: #1f78b4"/>
     <use xlink:href="#m94e6856ff0" x="242.95999" y="69.087714" style="fill: #1f78b4; stroke: #1f78b4"/>
     <use xlink:href="#m94e6856ff0" x="291.463876" y="63.446478" style="fill: #1f78b4; stroke: #1f78b4"/>
     <use xlink:href="#m94e6856ff0" x="339.087444" y="61.829345" style="fill: #1f78b4; stroke: #1f78b4"/>
     <use xlink:href="#m94e6856ff0" x="382.860598" y="62.821254" style="fill: #1f78b4; stroke: #1f78b4"/>
     <use xlink:href="#m94e6856ff0" x="417.786004" y="65.640206" style="fill: #1f78b4; stroke: #1f78b4"/>
     <use xlink:href="#m94e6856ff0" x="117.277096" y="112.753589" style="fill: #1f78b4; stroke: #1f78b4"/>
     <use xlink:href="#m94e6856ff0" x="141.054203" y="77.757484" style="fill: #1f78b4; stroke: #1f78b4"/>
     <use xlink:href="#m94e6856ff0" x="183.201077" y="54.387258" style="fill: #1f78b4; stroke: #1f78b4"/>
     <use xlink:href="#m94e6856ff0" x="232.462618" y="40.771386" style="fill: #1f78b4; stroke: #1f78b4"/>
     <use xlink:href="#m94e6856ff0" x="283.128279" y="33.235579" style="fill: #1f78b4; stroke: #1f78b4"/>
     <use xlink:href="#m94e6856ff0" x="332.171165" y="29.990083" style="fill: #1f78b4; stroke: #1f78b4"/>
     <use xlink:href="#m94e6856ff0" x="377.045278" y="30.577366" style="fill: #1f78b4; stroke: #1f78b4"/>
     <use xlink:href="#m94e6856ff0" x="412.797028" y="33.630039" style="fill: #1f78b4; stroke: #1f78b4"/>
    </g>
   </g>
  </g>
 </g>
 <defs>
  <clipPath id="peab9f3ac44">
   <rect x="0" y="0" width="460.8" height="345.6"/>
  </clipPath>
 </defs>
</svg>
