<?xml version="1.0" encoding="utf-8" standalone="no"?>
<!DOCTYPE svg PUBLIC "-//W3C//DTD SVG 1.1//EN"
  "http://www.w3.org/Graphics/SVG/1.1/DTD/svg11.dtd">
<svg xmlns:xlink="http://www.w3.org/1999/xlink" width="460.8pt" height="345.6pt" viewBox="0 0 460.8 345.6" xmlns="http://www.w3.org/2000/svg" version="1.1">
 <metadata>
  <rdf:RDF xmlns:dc="http://purl.org/dc/elements/1.1/" xmlns:cc="http://creativecommons.org/ns#" xmlns:rdf="http://www.w3.org/1999/02/22-rdf-syntax-ns#">
   <cc:Work>
    <dc:type rdf:resource="http://purl.org/dc/dcmitype/StillImage"/>
    <dc:date>2023-10-17T05:18:32.992540</dc:date>
    <dc:format>image/svg+xml</dc:format>
    <dc:creator>
     <cc:Agent>
      <dc:title>Matplotlib v3.7.2, https://matplotlib.org/</dc:title>
     </cc:Agent>
    </dc:creator>
   </cc:Work>
  </rdf:RDF>
 </metadata>
 <defs>
  <style type="text/css">*{stroke-linejoin: round; stroke-linecap: butt}</style>
 </defs>
 <g id="figure_1">
  <g id="patch_1">
   <path d="M 0 345.6 
L 460.8 345.6 
L 460.8 0 
L 0 0 
z
" style="fill: #ffffff"/>
  </g>
  <g id="axes_1">
   <g id="LineCollection_1">
    <path d="M 112.346786 286.227801 
L 50.697498 308.164549 
" clip-path="url(#pb9efcad78e)" style="fill: none; stroke: #000000"/>
    <path d="M 112.346786 286.227801 
L 76.199903 315.609917 
" clip-path="url(#pb9efcad78e)" style="fill: none; stroke: #000000"/>
    <path d="M 112.346786 286.227801 
L 39.986777 295.626176 
" clip-path="url(#pb9efcad78e)" style="fill: none; stroke: #000000"/>
    <path d="M 112.346786 286.227801 
L 49.12747 282.025605 
" clip-path="url(#pb9efcad78e)" style="fill: none; stroke: #000000"/>
    <path d="M 112.346786 286.227801 
L 108.420735 312.046183 
" clip-path="url(#pb9efcad78e)" style="fill: none; stroke: #000000"/>
    <path d="M 112.346786 286.227801 
L 77.614244 284.67216 
" clip-path="url(#pb9efcad78e)" style="fill: none; stroke: #000000"/>
    <path d="M 112.346786 286.227801 
L 84.521182 300.160302 
" clip-path="url(#pb9efcad78e)" style="fill: none; stroke: #000000"/>
    <path d="M 112.346786 286.227801 
L 123.897337 299.13537 
" clip-path="url(#pb9efcad78e)" style="fill: none; stroke: #000000"/>
    <path d="M 112.346786 286.227801 
L 100.695885 267.789455 
" clip-path="url(#pb9efcad78e)" style="fill: none; stroke: #000000"/>
    <path d="M 50.697498 308.164549 
L 76.199903 315.609917 
" clip-path="url(#pb9efcad78e)" style="fill: none; stroke: #000000"/>
    <path d="M 50.697498 308.164549 
L 39.986777 295.626176 
" clip-path="url(#pb9efcad78e)" style="fill: none; stroke: #000000"/>
    <path d="M 50.697498 308.164549 
L 49.12747 282.025605 
" clip-path="url(#pb9efcad78e)" style="fill: none; stroke: #000000"/>
    <path d="M 50.697498 308.164549 
L 108.420735 312.046183 
" clip-path="url(#pb9efcad78e)" style="fill: none; stroke: #000000"/>
    <path d="M 50.697498 308.164549 
L 77.614244 284.67216 
" clip-path="url(#pb9efcad78e)" style="fill: none; stroke: #000000"/>
    <path d="M 50.697498 308.164549 
L 84.521182 300.160302 
" clip-path="url(#pb9efcad78e)" style="fill: none; stroke: #000000"/>
    <path d="M 50.697498 308.164549 
L 123.897337 299.13537 
" clip-path="url(#pb9efcad78e)" style="fill: none; stroke: #000000"/>
    <path d="M 50.697498 308.164549 
L 100.695885 267.789455 
" clip-path="url(#pb9efcad78e)" style="fill: none; stroke: #000000"/>
    <path d="M 76.199903 315.609917 
L 39.986777 295.626176 
" clip-path="url(#pb9efcad78e)" style="fill: none; stroke: #000000"/>
    <path d="M 76.199903 315.609917 
L 49.12747 282.025605 
" clip-path="url(#pb9efcad78e)" style="fill: none; stroke: #000000"/>
    <path d="M 76.199903 315.609917 
L 108.420735 312.046183 
" clip-path="url(#pb9efcad78e)" style="fill: none; stroke: #000000"/>
    <path d="M 76.199903 315.609917 
L 77.614244 284.67216 
" clip-path="url(#pb9efcad78e)" style="fill: none; stroke: #000000"/>
    <path d="M 76.199903 315.609917 
L 84.521182 300.160302 
" clip-path="url(#pb9efcad78e)" style="fill: none; stroke: #000000"/>
    <path d="M 76.199903 315.609917 
L 123.897337 299.13537 
" clip-path="url(#pb9efcad78e)" style="fill: none; stroke: #000000"/>
    <path d="M 76.199903 315.609917 
L 100.695885 267.789455 
" clip-path="url(#pb9efcad78e)" style="fill: none; stroke: #000000"/>
    <path d="M 39.986777 295.626176 
L 49.12747 282.025605 
" clip-path="url(#pb9efcad78e)" style="fill: none; stroke: #000000"/>
    <path d="M 39.986777 295.626176 
L 108.420735 312.046183 
" clip-path="url(#pb9efcad78e)" style="fill: none; stroke: #000000"/>
    <path d="M 39.986777 295.626176 
L 77.614244 284.67216 
" clip-path="url(#pb9efcad78e)" style="fill: none; stroke: #000000"/>
    <path d="M 39.986777 295.626176 
L 84.521182 300.160302 
" clip-path="url(#pb9efcad78e)" style="fill: none; stroke: #000000"/>
    <path d="M 39.986777 295.626176 
L 123.897337 299.13537 
" clip-path="url(#pb9efcad78e)" style="fill: none; stroke: #000000"/>
    <path d="M 39.986777 295.626176 
L 100.695885 267.789455 
" clip-path="url(#pb9efcad78e)" style="fill: none; stroke: #000000"/>
    <path d="M 49.12747 282.025605 
L 108.420735 312.046183 
" clip-path="url(#pb9efcad78e)" style="fill: none; stroke: #000000"/>
    <path d="M 49.12747 282.025605 
L 77.614244 284.67216 
" clip-path="url(#pb9efcad78e)" style="fill: none; stroke: #000000"/>
    <path d="M 49.12747 282.025605 
L 84.521182 300.160302 
" clip-path="url(#pb9efcad78e)" style="fill: none; stroke: #000000"/>
    <path d="M 49.12747 282.025605 
L 123.897337 299.13537 
" clip-path="url(#pb9efcad78e)" style="fill: none; stroke: #000000"/>
    <path d="M 49.12747 282.025605 
L 100.695885 267.789455 
" clip-path="url(#pb9efcad78e)" style="fill: none; stroke: #000000"/>
    <path d="M 108.420735 312.046183 
L 77.614244 284.67216 
" clip-path="url(#pb9efcad78e)" style="fill: none; stroke: #000000"/>
    <path d="M 108.420735 312.046183 
L 84.521182 300.160302 
" clip-path="url(#pb9efcad78e)" style="fill: none; stroke: #000000"/>
    <path d="M 108.420735 312.046183 
L 123.897337 299.13537 
" clip-path="url(#pb9efcad78e)" style="fill: none; stroke: #000000"/>
    <path d="M 108.420735 312.046183 
L 100.695885 267.789455 
" clip-path="url(#pb9efcad78e)" style="fill: none; stroke: #000000"/>
    <path d="M 77.614244 284.67216 
L 84.521182 300.160302 
" clip-path="url(#pb9efcad78e)" style="fill: none; stroke: #000000"/>
    <path d="M 77.614244 284.67216 
L 123.897337 299.13537 
" clip-path="url(#pb9efcad78e)" style="fill: none; stroke: #000000"/>
    <path d="M 77.614244 284.67216 
L 100.695885 267.789455 
" clip-path="url(#pb9efcad78e)" style="fill: none; stroke: #000000"/>
    <path d="M 84.521182 300.160302 
L 123.897337 299.13537 
" clip-path="url(#pb9efcad78e)" style="fill: none; stroke: #000000"/>
    <path d="M 84.521182 300.160302 
L 100.695885 267.789455 
" clip-path="url(#pb9efcad78e)" style="fill: none; stroke: #000000"/>
    <path d="M 123.897337 299.13537 
L 100.695885 267.789455 
" clip-path="url(#pb9efcad78e)" style="fill: none; stroke: #000000"/>
    <path d="M 100.695885 267.789455 
L 157.388164 197.567916 
" clip-path="url(#pb9efcad78e)" style="fill: none; stroke: #000000"/>
    <path d="M 157.388164 197.567916 
L 216.935454 139.579547 
" clip-path="url(#pb9efcad78e)" style="fill: none; stroke: #000000"/>
    <path d="M 216.935454 139.579547 
L 282.284494 91.19468 
" clip-path="url(#pb9efcad78e)" style="fill: none; stroke: #000000"/>
    <path d="M 282.284494 91.19468 
L 352.468399 52.549114 
" clip-path="url(#pb9efcad78e)" style="fill: none; stroke: #000000"/>
    <path d="M 352.468399 52.549114 
L 420.813223 29.990083 
" clip-path="url(#pb9efcad78e)" style="fill: none; stroke: #000000"/>
   </g>
   <g id="PathCollection_1">
    <defs>
     <path id="m143de628d7" d="M 0 8.660254 
C 2.296726 8.660254 4.499694 7.747755 6.123724 6.123724 
C 7.747755 4.499694 8.660254 2.296726 8.660254 0 
C 8.660254 -2.296726 7.747755 -4.499694 6.123724 -6.123724 
C 4.499694 -7.747755 2.296726 -8.660254 0 -8.660254 
C -2.296726 -8.660254 -4.499694 -7.747755 -6.123724 -6.123724 
C -7.747755 -4.499694 -8.660254 -2.296726 -8.660254 0 
C -8.660254 2.296726 -7.747755 4.499694 -6.123724 6.123724 
C -4.499694 7.747755 -2.296726 8.660254 0 8.660254 
z
" style="stroke: #1f78b4"/>
    </defs>
    <g clip-path="url(#pb9efcad78e)">
     <use xlink:href="#m143de628d7" x="112.346786" y="286.227801" style="fill: #1f78b4; stroke: #1f78b4"/>
     <use xlink:href="#m143de628d7" x="50.697498" y="308.164549" style="fill: #1f78b4; stroke: #1f78b4"/>
     <use xlink:href="#m143de628d7" x="76.199903" y="315.609917" style="fill: #1f78b4; stroke: #1f78b4"/>
     <use xlink:href="#m143de628d7" x="39.986777" y="295.626176" style="fill: #1f78b4; stroke: #1f78b4"/>
     <use xlink:href="#m143de628d7" x="49.12747" y="282.025605" style="fill: #1f78b4; stroke: #1f78b4"/>
     <use xlink:href="#m143de628d7" x="108.420735" y="312.046183" style="fill: #1f78b4; stroke: #1f78b4"/>
     <use xlink:href="#m143de628d7" x="77.614244" y="284.67216" style="fill: #1f78b4; stroke: #1f78b4"/>
     <use xlink:href="#m143de628d7" x="84.521182" y="300.160302" style="fill: #1f78b4; stroke: #1f78b4"/>
     <use xlink:href="#m143de628d7" x="123.897337" y="299.13537" style="fill: #1f78b4; stroke: #1f78b4"/>
     <use xlink:href="#m143de628d7" x="100.695885" y="267.789455" style="fill: #1f78b4; stroke: #1f78b4"/>
     <use xlink:href="#m143de628d7" x="157.388164" y="197.567916" style="fill: #1f78b4; stroke: #1f78b4"/>
     <use xlink:href="#m143de628d7" x="216.935454" y="139.579547" style="fill: #1f78b4; stroke: #1f78b4"/>
     <use xlink:href="#m143de628d7" x="282.284494" y="91.19468" style="fill: #1f78b4; stroke: #1f78b4"/>
     <use xlink:href="#m143de628d7" x="352.468399" y="52.549114" style="fill: #1f78b4; stroke: #1f78b4"/>
     <use xlink:href="#m143de628d7" x="420.813223" y="29.990083" style="fill: #1f78b4; stroke: #1f78b4"/>
    </g>
   </g>
  </g>
 </g>
 <defs>
  <clipPath id="pb9efcad78e">
   <rect x="0" y="0" width="460.8" height="345.6"/>
  </clipPath>
 </defs>
</svg>
