<?xml version="1.0" encoding="utf-8" standalone="no"?>
<!DOCTYPE svg PUBLIC "-//W3C//DTD SVG 1.1//EN"
  "http://www.w3.org/Graphics/SVG/1.1/DTD/svg11.dtd">
<svg xmlns:xlink="http://www.w3.org/1999/xlink" width="460.8pt" height="345.6pt" viewBox="0 0 460.8 345.6" xmlns="http://www.w3.org/2000/svg" version="1.1">
 <metadata>
  <rdf:RDF xmlns:dc="http://purl.org/dc/elements/1.1/" xmlns:cc="http://creativecommons.org/ns#" xmlns:rdf="http://www.w3.org/1999/02/22-rdf-syntax-ns#">
   <cc:Work>
    <dc:type rdf:resource="http://purl.org/dc/dcmitype/StillImage"/>
    <dc:date>2023-10-17T04:35:34.639821</dc:date>
    <dc:format>image/svg+xml</dc:format>
    <dc:creator>
     <cc:Agent>
      <dc:title>Matplotlib v3.7.2, https://matplotlib.org/</dc:title>
     </cc:Agent>
    </dc:creator>
   </cc:Work>
  </rdf:RDF>
 </metadata>
 <defs>
  <style type="text/css">*{stroke-linejoin: round; stroke-linecap: butt}</style>
 </defs>
 <g id="figure_1">
  <g id="patch_1">
   <path d="M 0 345.6 
L 460.8 345.6 
L 460.8 0 
L 0 0 
z
" style="fill: #ffffff"/>
  </g>
  <g id="axes_1">
   <g id="LineCollection_1">
    <path d="M 183.251457 263.716663 
L 177.680978 301.352169 
" clip-path="url(#pa77f2f04a1)" style="fill: none; stroke: #000000"/>
    <path d="M 183.251457 263.716663 
L 100.872246 219.43984 
" clip-path="url(#pa77f2f04a1)" style="fill: none; stroke: #000000"/>
    <path d="M 183.251457 263.716663 
L 80.219511 314.961486 
" clip-path="url(#pa77f2f04a1)" style="fill: none; stroke: #000000"/>
    <path d="M 183.251457 263.716663 
L 39.986777 278.672431 
" clip-path="url(#pa77f2f04a1)" style="fill: none; stroke: #000000"/>
    <path d="M 183.251457 263.716663 
L 136.777281 247.296385 
" clip-path="url(#pa77f2f04a1)" style="fill: none; stroke: #000000"/>
    <path d="M 183.251457 263.716663 
L 93.281219 275.880961 
" clip-path="url(#pa77f2f04a1)" style="fill: none; stroke: #000000"/>
    <path d="M 183.251457 263.716663 
L 52.071282 237.57607 
" clip-path="url(#pa77f2f04a1)" style="fill: none; stroke: #000000"/>
    <path d="M 183.251457 263.716663 
L 133.150415 315.609917 
" clip-path="url(#pa77f2f04a1)" style="fill: none; stroke: #000000"/>
    <path d="M 183.251457 263.716663 
L 201.819044 190.329595 
" clip-path="url(#pa77f2f04a1)" style="fill: none; stroke: #000000"/>
    <path d="M 177.680978 301.352169 
L 100.872246 219.43984 
" clip-path="url(#pa77f2f04a1)" style="fill: none; stroke: #000000"/>
    <path d="M 177.680978 301.352169 
L 80.219511 314.961486 
" clip-path="url(#pa77f2f04a1)" style="fill: none; stroke: #000000"/>
    <path d="M 177.680978 301.352169 
L 39.986777 278.672431 
" clip-path="url(#pa77f2f04a1)" style="fill: none; stroke: #000000"/>
    <path d="M 177.680978 301.352169 
L 136.777281 247.296385 
" clip-path="url(#pa77f2f04a1)" style="fill: none; stroke: #000000"/>
    <path d="M 177.680978 301.352169 
L 93.281219 275.880961 
" clip-path="url(#pa77f2f04a1)" style="fill: none; stroke: #000000"/>
    <path d="M 177.680978 301.352169 
L 52.071282 237.57607 
" clip-path="url(#pa77f2f04a1)" style="fill: none; stroke: #000000"/>
    <path d="M 177.680978 301.352169 
L 133.150415 315.609917 
" clip-path="url(#pa77f2f04a1)" style="fill: none; stroke: #000000"/>
    <path d="M 177.680978 301.352169 
L 201.819044 190.329595 
" clip-path="url(#pa77f2f04a1)" style="fill: none; stroke: #000000"/>
    <path d="M 100.872246 219.43984 
L 80.219511 314.961486 
" clip-path="url(#pa77f2f04a1)" style="fill: none; stroke: #000000"/>
    <path d="M 100.872246 219.43984 
L 39.986777 278.672431 
" clip-path="url(#pa77f2f04a1)" style="fill: none; stroke: #000000"/>
    <path d="M 100.872246 219.43984 
L 136.777281 247.296385 
" clip-path="url(#pa77f2f04a1)" style="fill: none; stroke: #000000"/>
    <path d="M 100.872246 219.43984 
L 93.281219 275.880961 
" clip-path="url(#pa77f2f04a1)" style="fill: none; stroke: #000000"/>
    <path d="M 100.872246 219.43984 
L 52.071282 237.57607 
" clip-path="url(#pa77f2f04a1)" style="fill: none; stroke: #000000"/>
    <path d="M 100.872246 219.43984 
L 133.150415 315.609917 
" clip-path="url(#pa77f2f04a1)" style="fill: none; stroke: #000000"/>
    <path d="M 100.872246 219.43984 
L 201.819044 190.329595 
" clip-path="url(#pa77f2f04a1)" style="fill: none; stroke: #000000"/>
    <path d="M 80.219511 314.961486 
L 39.986777 278.672431 
" clip-path="url(#pa77f2f04a1)" style="fill: none; stroke: #000000"/>
    <path d="M 80.219511 314.961486 
L 136.777281 247.296385 
" clip-path="url(#pa77f2f04a1)" style="fill: none; stroke: #000000"/>
    <path d="M 80.219511 314.961486 
L 93.281219 275.880961 
" clip-path="url(#pa77f2f04a1)" style="fill: none; stroke: #000000"/>
    <path d="M 80.219511 314.961486 
L 52.071282 237.57607 
" clip-path="url(#pa77f2f04a1)" style="fill: none; stroke: #000000"/>
    <path d="M 80.219511 314.961486 
L 133.150415 315.609917 
" clip-path="url(#pa77f2f04a1)" style="fill: none; stroke: #000000"/>
    <path d="M 80.219511 314.961486 
L 201.819044 190.329595 
" clip-path="url(#pa77f2f04a1)" style="fill: none; stroke: #000000"/>
    <path d="M 39.986777 278.672431 
L 136.777281 247.296385 
" clip-path="url(#pa77f2f04a1)" style="fill: none; stroke: #000000"/>
    <path d="M 39.986777 278.672431 
L 93.281219 275.880961 
" clip-path="url(#pa77f2f04a1)" style="fill: none; stroke: #000000"/>
    <path d="M 39.986777 278.672431 
L 52.071282 237.57607 
" clip-path="url(#pa77f2f04a1)" style="fill: none; stroke: #000000"/>
    <path d="M 39.986777 278.672431 
L 133.150415 315.609917 
" clip-path="url(#pa77f2f04a1)" style="fill: none; stroke: #000000"/>
    <path d="M 39.986777 278.672431 
L 201.819044 190.329595 
" clip-path="url(#pa77f2f04a1)" style="fill: none; stroke: #000000"/>
    <path d="M 136.777281 247.296385 
L 93.281219 275.880961 
" clip-path="url(#pa77f2f04a1)" style="fill: none; stroke: #000000"/>
    <path d="M 136.777281 247.296385 
L 52.071282 237.57607 
" clip-path="url(#pa77f2f04a1)" style="fill: none; stroke: #000000"/>
    <path d="M 136.777281 247.296385 
L 133.150415 315.609917 
" clip-path="url(#pa77f2f04a1)" style="fill: none; stroke: #000000"/>
    <path d="M 136.777281 247.296385 
L 201.819044 190.329595 
" clip-path="url(#pa77f2f04a1)" style="fill: none; stroke: #000000"/>
    <path d="M 93.281219 275.880961 
L 52.071282 237.57607 
" clip-path="url(#pa77f2f04a1)" style="fill: none; stroke: #000000"/>
    <path d="M 93.281219 275.880961 
L 133.150415 315.609917 
" clip-path="url(#pa77f2f04a1)" style="fill: none; stroke: #000000"/>
    <path d="M 93.281219 275.880961 
L 201.819044 190.329595 
" clip-path="url(#pa77f2f04a1)" style="fill: none; stroke: #000000"/>
    <path d="M 52.071282 237.57607 
L 133.150415 315.609917 
" clip-path="url(#pa77f2f04a1)" style="fill: none; stroke: #000000"/>
    <path d="M 52.071282 237.57607 
L 201.819044 190.329595 
" clip-path="url(#pa77f2f04a1)" style="fill: none; stroke: #000000"/>
    <path d="M 133.150415 315.609917 
L 201.819044 190.329595 
" clip-path="url(#pa77f2f04a1)" style="fill: none; stroke: #000000"/>
    <path d="M 201.819044 190.329595 
L 223.51078 29.990083 
" clip-path="url(#pa77f2f04a1)" style="fill: none; stroke: #000000"/>
    <path d="M 201.819044 190.329595 
L 340.696457 66.012322 
" clip-path="url(#pa77f2f04a1)" style="fill: none; stroke: #000000"/>
    <path d="M 201.819044 190.329595 
L 420.813223 237.524823 
" clip-path="url(#pa77f2f04a1)" style="fill: none; stroke: #000000"/>
    <path d="M 201.819044 190.329595 
L 414.891368 139.655885 
" clip-path="url(#pa77f2f04a1)" style="fill: none; stroke: #000000"/>
    <path d="M 201.819044 190.329595 
L 87.658816 49.197097 
" clip-path="url(#pa77f2f04a1)" style="fill: none; stroke: #000000"/>
   </g>
   <g id="PathCollection_1">
    <defs>
     <path id="m8ed436b7c6" d="M 0 8.660254 
C 2.296726 8.660254 4.499694 7.747755 6.123724 6.123724 
C 7.747755 4.499694 8.660254 2.296726 8.660254 0 
C 8.660254 -2.296726 7.747755 -4.499694 6.123724 -6.123724 
C 4.499694 -7.747755 2.296726 -8.660254 0 -8.660254 
C -2.296726 -8.660254 -4.499694 -7.747755 -6.123724 -6.123724 
C -7.747755 -4.499694 -8.660254 -2.296726 -8.660254 0 
C -8.660254 2.296726 -7.747755 4.499694 -6.123724 6.123724 
C -4.499694 7.747755 -2.296726 8.660254 0 8.660254 
z
" style="stroke: #1f78b4"/>
    </defs>
    <g clip-path="url(#pa77f2f04a1)">
     <use xlink:href="#m8ed436b7c6" x="183.251457" y="263.716663" style="fill: #1f78b4; stroke: #1f78b4"/>
     <use xlink:href="#m8ed436b7c6" x="177.680978" y="301.352169" style="fill: #1f78b4; stroke: #1f78b4"/>
     <use xlink:href="#m8ed436b7c6" x="100.872246" y="219.43984" style="fill: #1f78b4; stroke: #1f78b4"/>
     <use xlink:href="#m8ed436b7c6" x="80.219511" y="314.961486" style="fill: #1f78b4; stroke: #1f78b4"/>
     <use xlink:href="#m8ed436b7c6" x="39.986777" y="278.672431" style="fill: #1f78b4; stroke: #1f78b4"/>
     <use xlink:href="#m8ed436b7c6" x="136.777281" y="247.296385" style="fill: #1f78b4; stroke: #1f78b4"/>
     <use xlink:href="#m8ed436b7c6" x="93.281219" y="275.880961" style="fill: #1f78b4; stroke: #1f78b4"/>
     <use xlink:href="#m8ed436b7c6" x="52.071282" y="237.57607" style="fill: #1f78b4; stroke: #1f78b4"/>
     <use xlink:href="#m8ed436b7c6" x="133.150415" y="315.609917" style="fill: #1f78b4; stroke: #1f78b4"/>
     <use xlink:href="#m8ed436b7c6" x="201.819044" y="190.329595" style="fill: #1f78b4; stroke: #1f78b4"/>
     <use xlink:href="#m8ed436b7c6" x="223.51078" y="29.990083" style="fill: #1f78b4; stroke: #1f78b4"/>
     <use xlink:href="#m8ed436b7c6" x="340.696457" y="66.012322" style="fill: #1f78b4; stroke: #1f78b4"/>
     <use xlink:href="#m8ed436b7c6" x="420.813223" y="237.524823" style="fill: #1f78b4; stroke: #1f78b4"/>
     <use xlink:href="#m8ed436b7c6" x="414.891368" y="139.655885" style="fill: #1f78b4; stroke: #1f78b4"/>
     <use xlink:href="#m8ed436b7c6" x="87.658816" y="49.197097" style="fill: #1f78b4; stroke: #1f78b4"/>
    </g>
   </g>
  </g>
 </g>
 <defs>
  <clipPath id="pa77f2f04a1">
   <rect x="0" y="0" width="460.8" height="345.6"/>
  </clipPath>
 </defs>
</svg>
