<?xml version="1.0" encoding="utf-8" standalone="no"?>
<!DOCTYPE svg PUBLIC "-//W3C//DTD SVG 1.1//EN"
  "http://www.w3.org/Graphics/SVG/1.1/DTD/svg11.dtd">
<svg xmlns:xlink="http://www.w3.org/1999/xlink" width="460.8pt" height="345.6pt" viewBox="0 0 460.8 345.6" xmlns="http://www.w3.org/2000/svg" version="1.1">
 <metadata>
  <rdf:RDF xmlns:dc="http://purl.org/dc/elements/1.1/" xmlns:cc="http://creativecommons.org/ns#" xmlns:rdf="http://www.w3.org/1999/02/22-rdf-syntax-ns#">
   <cc:Work>
    <dc:type rdf:resource="http://purl.org/dc/dcmitype/StillImage"/>
    <dc:date>2023-09-15T11:09:24.504272</dc:date>
    <dc:format>image/svg+xml</dc:format>
    <dc:creator>
     <cc:Agent>
      <dc:title>Matplotlib v3.7.2, https://matplotlib.org/</dc:title>
     </cc:Agent>
    </dc:creator>
   </cc:Work>
  </rdf:RDF>
 </metadata>
 <defs>
  <style type="text/css">*{stroke-linejoin: round; stroke-linecap: butt}</style>
 </defs>
 <g id="figure_1">
  <g id="patch_1">
   <path d="M 0 345.6 
L 460.8 345.6 
L 460.8 0 
L 0 0 
z
" style="fill: #ffffff"/>
  </g>
  <g id="axes_1">
   <g id="LineCollection_1">
    <path d="M 61.622964 29.990083 
L 95.390333 69.192007 
" clip-path="url(#pc513181395)" style="fill: none; stroke: #000000"/>
    <path d="M 61.622964 29.990083 
L 121.694512 48.994975 
" clip-path="url(#pc513181395)" style="fill: none; stroke: #000000"/>
    <path d="M 61.622964 29.990083 
L 53.141768 46.656358 
" clip-path="url(#pc513181395)" style="fill: none; stroke: #000000"/>
    <path d="M 39.986777 71.799447 
L 130.836416 73.096178 
" clip-path="url(#pc513181395)" style="fill: none; stroke: #000000"/>
    <path d="M 39.986777 71.799447 
L 95.390333 69.192007 
" clip-path="url(#pc513181395)" style="fill: none; stroke: #000000"/>
    <path d="M 39.986777 71.799447 
L 53.141768 46.656358 
" clip-path="url(#pc513181395)" style="fill: none; stroke: #000000"/>
    <path d="M 130.836416 73.096178 
L 116.7349 38.361065 
" clip-path="url(#pc513181395)" style="fill: none; stroke: #000000"/>
    <path d="M 130.836416 73.096178 
L 167.666064 75.842228 
" clip-path="url(#pc513181395)" style="fill: none; stroke: #000000"/>
    <path d="M 130.836416 73.096178 
L 121.694512 48.994975 
" clip-path="url(#pc513181395)" style="fill: none; stroke: #000000"/>
    <path d="M 130.836416 73.096178 
L 176.880563 47.942892 
" clip-path="url(#pc513181395)" style="fill: none; stroke: #000000"/>
    <path d="M 130.836416 73.096178 
L 165.596599 112.468711 
" clip-path="url(#pc513181395)" style="fill: none; stroke: #000000"/>
    <path d="M 95.390333 69.192007 
L 116.7349 38.361065 
" clip-path="url(#pc513181395)" style="fill: none; stroke: #000000"/>
    <path d="M 95.390333 69.192007 
L 167.666064 75.842228 
" clip-path="url(#pc513181395)" style="fill: none; stroke: #000000"/>
    <path d="M 95.390333 69.192007 
L 53.141768 46.656358 
" clip-path="url(#pc513181395)" style="fill: none; stroke: #000000"/>
    <path d="M 95.390333 69.192007 
L 165.596599 112.468711 
" clip-path="url(#pc513181395)" style="fill: none; stroke: #000000"/>
    <path d="M 116.7349 38.361065 
L 121.694512 48.994975 
" clip-path="url(#pc513181395)" style="fill: none; stroke: #000000"/>
    <path d="M 116.7349 38.361065 
L 176.880563 47.942892 
" clip-path="url(#pc513181395)" style="fill: none; stroke: #000000"/>
    <path d="M 116.7349 38.361065 
L 53.141768 46.656358 
" clip-path="url(#pc513181395)" style="fill: none; stroke: #000000"/>
    <path d="M 167.666064 75.842228 
L 121.694512 48.994975 
" clip-path="url(#pc513181395)" style="fill: none; stroke: #000000"/>
    <path d="M 167.666064 75.842228 
L 176.880563 47.942892 
" clip-path="url(#pc513181395)" style="fill: none; stroke: #000000"/>
    <path d="M 167.666064 75.842228 
L 165.596599 112.468711 
" clip-path="url(#pc513181395)" style="fill: none; stroke: #000000"/>
    <path d="M 121.694512 48.994975 
L 176.880563 47.942892 
" clip-path="url(#pc513181395)" style="fill: none; stroke: #000000"/>
    <path d="M 121.694512 48.994975 
L 53.141768 46.656358 
" clip-path="url(#pc513181395)" style="fill: none; stroke: #000000"/>
    <path d="M 165.596599 112.468711 
L 229.581325 175.37618 
" clip-path="url(#pc513181395)" style="fill: none; stroke: #000000"/>
    <path d="M 283.373817 315.609917 
L 359.723612 297.393967 
" clip-path="url(#pc513181395)" style="fill: none; stroke: #000000"/>
    <path d="M 283.373817 315.609917 
L 291.374815 280.934824 
" clip-path="url(#pc513181395)" style="fill: none; stroke: #000000"/>
    <path d="M 283.373817 315.609917 
L 322.786086 309.384753 
" clip-path="url(#pc513181395)" style="fill: none; stroke: #000000"/>
    <path d="M 388.430265 315.388149 
L 358.634981 276.11209 
" clip-path="url(#pc513181395)" style="fill: none; stroke: #000000"/>
    <path d="M 388.430265 315.388149 
L 359.723612 297.393967 
" clip-path="url(#pc513181395)" style="fill: none; stroke: #000000"/>
    <path d="M 388.430265 315.388149 
L 322.786086 309.384753 
" clip-path="url(#pc513181395)" style="fill: none; stroke: #000000"/>
    <path d="M 358.634981 276.11209 
L 315.605551 275.352755 
" clip-path="url(#pc513181395)" style="fill: none; stroke: #000000"/>
    <path d="M 358.634981 276.11209 
L 357.438878 262.082229 
" clip-path="url(#pc513181395)" style="fill: none; stroke: #000000"/>
    <path d="M 358.634981 276.11209 
L 291.374815 280.934824 
" clip-path="url(#pc513181395)" style="fill: none; stroke: #000000"/>
    <path d="M 358.634981 276.11209 
L 294.283409 239.096193 
" clip-path="url(#pc513181395)" style="fill: none; stroke: #000000"/>
    <path d="M 358.634981 276.11209 
L 420.813223 278.712485 
" clip-path="url(#pc513181395)" style="fill: none; stroke: #000000"/>
    <path d="M 359.723612 297.393967 
L 315.605551 275.352755 
" clip-path="url(#pc513181395)" style="fill: none; stroke: #000000"/>
    <path d="M 359.723612 297.393967 
L 357.438878 262.082229 
" clip-path="url(#pc513181395)" style="fill: none; stroke: #000000"/>
    <path d="M 359.723612 297.393967 
L 322.786086 309.384753 
" clip-path="url(#pc513181395)" style="fill: none; stroke: #000000"/>
    <path d="M 359.723612 297.393967 
L 420.813223 278.712485 
" clip-path="url(#pc513181395)" style="fill: none; stroke: #000000"/>
    <path d="M 315.605551 275.352755 
L 291.374815 280.934824 
" clip-path="url(#pc513181395)" style="fill: none; stroke: #000000"/>
    <path d="M 315.605551 275.352755 
L 294.283409 239.096193 
" clip-path="url(#pc513181395)" style="fill: none; stroke: #000000"/>
    <path d="M 315.605551 275.352755 
L 322.786086 309.384753 
" clip-path="url(#pc513181395)" style="fill: none; stroke: #000000"/>
    <path d="M 357.438878 262.082229 
L 291.374815 280.934824 
" clip-path="url(#pc513181395)" style="fill: none; stroke: #000000"/>
    <path d="M 357.438878 262.082229 
L 294.283409 239.096193 
" clip-path="url(#pc513181395)" style="fill: none; stroke: #000000"/>
    <path d="M 357.438878 262.082229 
L 420.813223 278.712485 
" clip-path="url(#pc513181395)" style="fill: none; stroke: #000000"/>
    <path d="M 291.374815 280.934824 
L 294.283409 239.096193 
" clip-path="url(#pc513181395)" style="fill: none; stroke: #000000"/>
    <path d="M 291.374815 280.934824 
L 322.786086 309.384753 
" clip-path="url(#pc513181395)" style="fill: none; stroke: #000000"/>
    <path d="M 294.283409 239.096193 
L 229.581325 175.37618 
" clip-path="url(#pc513181395)" style="fill: none; stroke: #000000"/>
   </g>
   <g id="PathCollection_1">
    <defs>
     <path id="mc06751132c" d="M 0 8.660254 
C 2.296726 8.660254 4.499694 7.747755 6.123724 6.123724 
C 7.747755 4.499694 8.660254 2.296726 8.660254 0 
C 8.660254 -2.296726 7.747755 -4.499694 6.123724 -6.123724 
C 4.499694 -7.747755 2.296726 -8.660254 0 -8.660254 
C -2.296726 -8.660254 -4.499694 -7.747755 -6.123724 -6.123724 
C -7.747755 -4.499694 -8.660254 -2.296726 -8.660254 0 
C -8.660254 2.296726 -7.747755 4.499694 -6.123724 6.123724 
C -4.499694 7.747755 -2.296726 8.660254 0 8.660254 
z
" style="stroke: #1f78b4"/>
    </defs>
    <g clip-path="url(#pc513181395)">
     <use xlink:href="#mc06751132c" x="61.622964" y="29.990083" style="fill: #1f78b4; stroke: #1f78b4"/>
     <use xlink:href="#mc06751132c" x="39.986777" y="71.799447" style="fill: #1f78b4; stroke: #1f78b4"/>
     <use xlink:href="#mc06751132c" x="130.836416" y="73.096178" style="fill: #1f78b4; stroke: #1f78b4"/>
     <use xlink:href="#mc06751132c" x="95.390333" y="69.192007" style="fill: #1f78b4; stroke: #1f78b4"/>
     <use xlink:href="#mc06751132c" x="116.7349" y="38.361065" style="fill: #1f78b4; stroke: #1f78b4"/>
     <use xlink:href="#mc06751132c" x="167.666064" y="75.842228" style="fill: #1f78b4; stroke: #1f78b4"/>
     <use xlink:href="#mc06751132c" x="121.694512" y="48.994975" style="fill: #1f78b4; stroke: #1f78b4"/>
     <use xlink:href="#mc06751132c" x="176.880563" y="47.942892" style="fill: #1f78b4; stroke: #1f78b4"/>
     <use xlink:href="#mc06751132c" x="53.141768" y="46.656358" style="fill: #1f78b4; stroke: #1f78b4"/>
     <use xlink:href="#mc06751132c" x="165.596599" y="112.468711" style="fill: #1f78b4; stroke: #1f78b4"/>
     <use xlink:href="#mc06751132c" x="283.373817" y="315.609917" style="fill: #1f78b4; stroke: #1f78b4"/>
     <use xlink:href="#mc06751132c" x="388.430265" y="315.388149" style="fill: #1f78b4; stroke: #1f78b4"/>
     <use xlink:href="#mc06751132c" x="358.634981" y="276.11209" style="fill: #1f78b4; stroke: #1f78b4"/>
     <use xlink:href="#mc06751132c" x="359.723612" y="297.393967" style="fill: #1f78b4; stroke: #1f78b4"/>
     <use xlink:href="#mc06751132c" x="315.605551" y="275.352755" style="fill: #1f78b4; stroke: #1f78b4"/>
     <use xlink:href="#mc06751132c" x="357.438878" y="262.082229" style="fill: #1f78b4; stroke: #1f78b4"/>
     <use xlink:href="#mc06751132c" x="291.374815" y="280.934824" style="fill: #1f78b4; stroke: #1f78b4"/>
     <use xlink:href="#mc06751132c" x="294.283409" y="239.096193" style="fill: #1f78b4; stroke: #1f78b4"/>
     <use xlink:href="#mc06751132c" x="322.786086" y="309.384753" style="fill: #1f78b4; stroke: #1f78b4"/>
     <use xlink:href="#mc06751132c" x="420.813223" y="278.712485" style="fill: #1f78b4; stroke: #1f78b4"/>
     <use xlink:href="#mc06751132c" x="229.581325" y="175.37618" style="fill: #1f78b4; stroke: #1f78b4"/>
    </g>
   </g>
  </g>
 </g>
 <defs>
  <clipPath id="pc513181395">
   <rect x="0" y="0" width="460.8" height="345.6"/>
  </clipPath>
 </defs>
</svg>
