<?xml version="1.0" encoding="utf-8" standalone="no"?>
<!DOCTYPE svg PUBLIC "-//W3C//DTD SVG 1.1//EN"
  "http://www.w3.org/Graphics/SVG/1.1/DTD/svg11.dtd">
<svg xmlns:xlink="http://www.w3.org/1999/xlink" width="460.8pt" height="345.6pt" viewBox="0 0 460.8 345.6" xmlns="http://www.w3.org/2000/svg" version="1.1">
 <metadata>
  <rdf:RDF xmlns:dc="http://purl.org/dc/elements/1.1/" xmlns:cc="http://creativecommons.org/ns#" xmlns:rdf="http://www.w3.org/1999/02/22-rdf-syntax-ns#">
   <cc:Work>
    <dc:type rdf:resource="http://purl.org/dc/dcmitype/StillImage"/>
    <dc:date>2023-09-24T20:14:14.703694</dc:date>
    <dc:format>image/svg+xml</dc:format>
    <dc:creator>
     <cc:Agent>
      <dc:title>Matplotlib v3.7.2, https://matplotlib.org/</dc:title>
     </cc:Agent>
    </dc:creator>
   </cc:Work>
  </rdf:RDF>
 </metadata>
 <defs>
  <style type="text/css">*{stroke-linejoin: round; stroke-linecap: butt}</style>
 </defs>
 <g id="figure_1">
  <g id="patch_1">
   <path d="M 0 345.6 
L 460.8 345.6 
L 460.8 0 
L 0 0 
z
" style="fill: #ffffff"/>
  </g>
  <g id="axes_1">
   <g id="LineCollection_1">
    <path d="M 254.036396 178.826399 
L 238.036707 189.823964 
" clip-path="url(#p93759bb414)" style="fill: none; stroke: #000000"/>
    <path d="M 254.036396 178.826399 
L 193.355306 185.465904 
" clip-path="url(#p93759bb414)" style="fill: none; stroke: #000000"/>
    <path d="M 254.036396 178.826399 
L 234.413799 167.460519 
" clip-path="url(#p93759bb414)" style="fill: none; stroke: #000000"/>
    <path d="M 254.036396 178.826399 
L 291.204841 191.933205 
" clip-path="url(#p93759bb414)" style="fill: none; stroke: #000000"/>
    <path d="M 254.036396 178.826399 
L 309.583789 171.701589 
" clip-path="url(#p93759bb414)" style="fill: none; stroke: #000000"/>
    <path d="M 254.036396 178.826399 
L 275.922239 155.570397 
" clip-path="url(#p93759bb414)" style="fill: none; stroke: #000000"/>
    <path d="M 254.036396 178.826399 
L 259.49637 124.290936 
" clip-path="url(#p93759bb414)" style="fill: none; stroke: #000000"/>
    <path d="M 254.036396 178.826399 
L 231.66745 117.204376 
" clip-path="url(#p93759bb414)" style="fill: none; stroke: #000000"/>
    <path d="M 254.036396 178.826399 
L 256.496249 229.749592 
" clip-path="url(#p93759bb414)" style="fill: none; stroke: #000000"/>
    <path d="M 254.036396 178.826399 
L 227.869357 208.264135 
" clip-path="url(#p93759bb414)" style="fill: none; stroke: #000000"/>
    <path d="M 254.036396 178.826399 
L 276.013053 234.51625 
" clip-path="url(#p93759bb414)" style="fill: none; stroke: #000000"/>
    <path d="M 43.131298 224.685772 
L 67.896581 211.321612 
" clip-path="url(#p93759bb414)" style="fill: none; stroke: #000000"/>
    <path d="M 137.728281 191.924762 
L 101.722906 205.707843 
" clip-path="url(#p93759bb414)" style="fill: none; stroke: #000000"/>
    <path d="M 137.728281 191.924762 
L 193.355306 185.465904 
" clip-path="url(#p93759bb414)" style="fill: none; stroke: #000000"/>
    <path d="M 137.728281 191.924762 
L 99.437626 186.598259 
" clip-path="url(#p93759bb414)" style="fill: none; stroke: #000000"/>
    <path d="M 101.722906 205.707843 
L 67.896581 211.321612 
" clip-path="url(#p93759bb414)" style="fill: none; stroke: #000000"/>
    <path d="M 67.896581 211.321612 
L 65.615245 187.899545 
" clip-path="url(#p93759bb414)" style="fill: none; stroke: #000000"/>
    <path d="M 39.986777 179.233879 
L 65.615245 187.899545 
" clip-path="url(#p93759bb414)" style="fill: none; stroke: #000000"/>
    <path d="M 99.437626 186.598259 
L 65.615245 187.899545 
" clip-path="url(#p93759bb414)" style="fill: none; stroke: #000000"/>
    <path d="M 295.016513 135.847519 
L 275.922239 155.570397 
" clip-path="url(#p93759bb414)" style="fill: none; stroke: #000000"/>
    <path d="M 333.026051 156.021381 
L 309.583789 171.701589 
" clip-path="url(#p93759bb414)" style="fill: none; stroke: #000000"/>
    <path d="M 355.203758 175.528775 
L 353.697664 198.157757 
" clip-path="url(#p93759bb414)" style="fill: none; stroke: #000000"/>
    <path d="M 355.203758 175.528775 
L 309.583789 171.701589 
" clip-path="url(#p93759bb414)" style="fill: none; stroke: #000000"/>
    <path d="M 355.203758 175.528775 
L 392.875483 172.047661 
" clip-path="url(#p93759bb414)" style="fill: none; stroke: #000000"/>
    <path d="M 353.697664 198.157757 
L 326.11107 200.525789 
" clip-path="url(#p93759bb414)" style="fill: none; stroke: #000000"/>
    <path d="M 420.813223 169.626783 
L 392.875483 172.047661 
" clip-path="url(#p93759bb414)" style="fill: none; stroke: #000000"/>
    <path d="M 291.204841 191.933205 
L 326.11107 200.525789 
" clip-path="url(#p93759bb414)" style="fill: none; stroke: #000000"/>
    <path d="M 252.060629 53.848979 
L 234.718262 64.885321 
" clip-path="url(#p93759bb414)" style="fill: none; stroke: #000000"/>
    <path d="M 252.060629 53.848979 
L 252.864437 81.713177 
" clip-path="url(#p93759bb414)" style="fill: none; stroke: #000000"/>
    <path d="M 259.49637 124.290936 
L 275.985151 99.905879 
" clip-path="url(#p93759bb414)" style="fill: none; stroke: #000000"/>
    <path d="M 259.49637 124.290936 
L 252.864437 81.713177 
" clip-path="url(#p93759bb414)" style="fill: none; stroke: #000000"/>
    <path d="M 236.676567 29.990083 
L 234.718262 64.885321 
" clip-path="url(#p93759bb414)" style="fill: none; stroke: #000000"/>
    <path d="M 219.920995 35.600829 
L 234.718262 64.885321 
" clip-path="url(#p93759bb414)" style="fill: none; stroke: #000000"/>
    <path d="M 234.718262 64.885321 
L 252.864437 81.713177 
" clip-path="url(#p93759bb414)" style="fill: none; stroke: #000000"/>
    <path d="M 234.718262 64.885321 
L 231.66745 117.204376 
" clip-path="url(#p93759bb414)" style="fill: none; stroke: #000000"/>
    <path d="M 214.990797 92.818662 
L 231.66745 117.204376 
" clip-path="url(#p93759bb414)" style="fill: none; stroke: #000000"/>
    <path d="M 205.661064 107.307733 
L 231.66745 117.204376 
" clip-path="url(#p93759bb414)" style="fill: none; stroke: #000000"/>
    <path d="M 288.153994 282.961542 
L 309.952422 305.955717 
" clip-path="url(#p93759bb414)" style="fill: none; stroke: #000000"/>
    <path d="M 288.153994 282.961542 
L 295.372158 315.609917 
" clip-path="url(#p93759bb414)" style="fill: none; stroke: #000000"/>
    <path d="M 288.153994 282.961542 
L 263.518194 275.106446 
" clip-path="url(#p93759bb414)" style="fill: none; stroke: #000000"/>
    <path d="M 288.153994 282.961542 
L 276.013053 234.51625 
" clip-path="url(#p93759bb414)" style="fill: none; stroke: #000000"/>
    <path d="M 208.49189 231.178808 
L 227.869357 208.264135 
" clip-path="url(#p93759bb414)" style="fill: none; stroke: #000000"/>
    <path d="M 256.496249 229.749592 
L 263.518194 275.106446 
" clip-path="url(#p93759bb414)" style="fill: none; stroke: #000000"/>
    <path d="M 257.114862 307.214094 
L 263.518194 275.106446 
" clip-path="url(#p93759bb414)" style="fill: none; stroke: #000000"/>
    <path d="M 294.128445 254.456806 
L 276.013053 234.51625 
" clip-path="url(#p93759bb414)" style="fill: none; stroke: #000000"/>
   </g>
   <g id="PathCollection_1">
    <defs>
     <path id="m7f76a801ec" d="M 0 8.660254 
C 2.296726 8.660254 4.499694 7.747755 6.123724 6.123724 
C 7.747755 4.499694 8.660254 2.296726 8.660254 0 
C 8.660254 -2.296726 7.747755 -4.499694 6.123724 -6.123724 
C 4.499694 -7.747755 2.296726 -8.660254 0 -8.660254 
C -2.296726 -8.660254 -4.499694 -7.747755 -6.123724 -6.123724 
C -7.747755 -4.499694 -8.660254 -2.296726 -8.660254 0 
C -8.660254 2.296726 -7.747755 4.499694 -6.123724 6.123724 
C -4.499694 7.747755 -2.296726 8.660254 0 8.660254 
z
" style="stroke: #1f78b4"/>
    </defs>
    <g clip-path="url(#p93759bb414)">
     <use xlink:href="#m7f76a801ec" x="254.036396" y="178.826399" style="fill: #1f78b4; stroke: #1f78b4"/>
     <use xlink:href="#m7f76a801ec" x="43.131298" y="224.685772" style="fill: #1f78b4; stroke: #1f78b4"/>
     <use xlink:href="#m7f76a801ec" x="137.728281" y="191.924762" style="fill: #1f78b4; stroke: #1f78b4"/>
     <use xlink:href="#m7f76a801ec" x="101.722906" y="205.707843" style="fill: #1f78b4; stroke: #1f78b4"/>
     <use xlink:href="#m7f76a801ec" x="238.036707" y="189.823964" style="fill: #1f78b4; stroke: #1f78b4"/>
     <use xlink:href="#m7f76a801ec" x="193.355306" y="185.465904" style="fill: #1f78b4; stroke: #1f78b4"/>
     <use xlink:href="#m7f76a801ec" x="67.896581" y="211.321612" style="fill: #1f78b4; stroke: #1f78b4"/>
     <use xlink:href="#m7f76a801ec" x="39.986777" y="179.233879" style="fill: #1f78b4; stroke: #1f78b4"/>
     <use xlink:href="#m7f76a801ec" x="234.413799" y="167.460519" style="fill: #1f78b4; stroke: #1f78b4"/>
     <use xlink:href="#m7f76a801ec" x="99.437626" y="186.598259" style="fill: #1f78b4; stroke: #1f78b4"/>
     <use xlink:href="#m7f76a801ec" x="65.615245" y="187.899545" style="fill: #1f78b4; stroke: #1f78b4"/>
     <use xlink:href="#m7f76a801ec" x="295.016513" y="135.847519" style="fill: #1f78b4; stroke: #1f78b4"/>
     <use xlink:href="#m7f76a801ec" x="333.026051" y="156.021381" style="fill: #1f78b4; stroke: #1f78b4"/>
     <use xlink:href="#m7f76a801ec" x="355.203758" y="175.528775" style="fill: #1f78b4; stroke: #1f78b4"/>
     <use xlink:href="#m7f76a801ec" x="353.697664" y="198.157757" style="fill: #1f78b4; stroke: #1f78b4"/>
     <use xlink:href="#m7f76a801ec" x="420.813223" y="169.626783" style="fill: #1f78b4; stroke: #1f78b4"/>
     <use xlink:href="#m7f76a801ec" x="291.204841" y="191.933205" style="fill: #1f78b4; stroke: #1f78b4"/>
     <use xlink:href="#m7f76a801ec" x="326.11107" y="200.525789" style="fill: #1f78b4; stroke: #1f78b4"/>
     <use xlink:href="#m7f76a801ec" x="309.583789" y="171.701589" style="fill: #1f78b4; stroke: #1f78b4"/>
     <use xlink:href="#m7f76a801ec" x="275.922239" y="155.570397" style="fill: #1f78b4; stroke: #1f78b4"/>
     <use xlink:href="#m7f76a801ec" x="392.875483" y="172.047661" style="fill: #1f78b4; stroke: #1f78b4"/>
     <use xlink:href="#m7f76a801ec" x="252.060629" y="53.848979" style="fill: #1f78b4; stroke: #1f78b4"/>
     <use xlink:href="#m7f76a801ec" x="259.49637" y="124.290936" style="fill: #1f78b4; stroke: #1f78b4"/>
     <use xlink:href="#m7f76a801ec" x="236.676567" y="29.990083" style="fill: #1f78b4; stroke: #1f78b4"/>
     <use xlink:href="#m7f76a801ec" x="219.920995" y="35.600829" style="fill: #1f78b4; stroke: #1f78b4"/>
     <use xlink:href="#m7f76a801ec" x="234.718262" y="64.885321" style="fill: #1f78b4; stroke: #1f78b4"/>
     <use xlink:href="#m7f76a801ec" x="275.985151" y="99.905879" style="fill: #1f78b4; stroke: #1f78b4"/>
     <use xlink:href="#m7f76a801ec" x="214.990797" y="92.818662" style="fill: #1f78b4; stroke: #1f78b4"/>
     <use xlink:href="#m7f76a801ec" x="252.864437" y="81.713177" style="fill: #1f78b4; stroke: #1f78b4"/>
     <use xlink:href="#m7f76a801ec" x="205.661064" y="107.307733" style="fill: #1f78b4; stroke: #1f78b4"/>
     <use xlink:href="#m7f76a801ec" x="231.66745" y="117.204376" style="fill: #1f78b4; stroke: #1f78b4"/>
     <use xlink:href="#m7f76a801ec" x="288.153994" y="282.961542" style="fill: #1f78b4; stroke: #1f78b4"/>
     <use xlink:href="#m7f76a801ec" x="309.952422" y="305.955717" style="fill: #1f78b4; stroke: #1f78b4"/>
     <use xlink:href="#m7f76a801ec" x="208.49189" y="231.178808" style="fill: #1f78b4; stroke: #1f78b4"/>
     <use xlink:href="#m7f76a801ec" x="256.496249" y="229.749592" style="fill: #1f78b4; stroke: #1f78b4"/>
     <use xlink:href="#m7f76a801ec" x="257.114862" y="307.214094" style="fill: #1f78b4; stroke: #1f78b4"/>
     <use xlink:href="#m7f76a801ec" x="295.372158" y="315.609917" style="fill: #1f78b4; stroke: #1f78b4"/>
     <use xlink:href="#m7f76a801ec" x="263.518194" y="275.106446" style="fill: #1f78b4; stroke: #1f78b4"/>
     <use xlink:href="#m7f76a801ec" x="227.869357" y="208.264135" style="fill: #1f78b4; stroke: #1f78b4"/>
     <use xlink:href="#m7f76a801ec" x="294.128445" y="254.456806" style="fill: #1f78b4; stroke: #1f78b4"/>
     <use xlink:href="#m7f76a801ec" x="276.013053" y="234.51625" style="fill: #1f78b4; stroke: #1f78b4"/>
    </g>
   </g>
  </g>
 </g>
 <defs>
  <clipPath id="p93759bb414">
   <rect x="0" y="0" width="460.8" height="345.6"/>
  </clipPath>
 </defs>
</svg>
