<?xml version="1.0" encoding="utf-8" standalone="no"?>
<!DOCTYPE svg PUBLIC "-//W3C//DTD SVG 1.1//EN"
  "http://www.w3.org/Graphics/SVG/1.1/DTD/svg11.dtd">
<svg xmlns:xlink="http://www.w3.org/1999/xlink" width="460.8pt" height="345.6pt" viewBox="0 0 460.8 345.6" xmlns="http://www.w3.org/2000/svg" version="1.1">
 <metadata>
  <rdf:RDF xmlns:dc="http://purl.org/dc/elements/1.1/" xmlns:cc="http://creativecommons.org/ns#" xmlns:rdf="http://www.w3.org/1999/02/22-rdf-syntax-ns#">
   <cc:Work>
    <dc:type rdf:resource="http://purl.org/dc/dcmitype/StillImage"/>
    <dc:date>2024-04-16T00:04:11.826580</dc:date>
    <dc:format>image/svg+xml</dc:format>
    <dc:creator>
     <cc:Agent>
      <dc:title>Matplotlib v3.8.3, https://matplotlib.org/</dc:title>
     </cc:Agent>
    </dc:creator>
   </cc:Work>
  </rdf:RDF>
 </metadata>
 <defs>
  <style type="text/css">*{stroke-linejoin: round; stroke-linecap: butt}</style>
 </defs>
 <g id="figure_1">
  <g id="patch_1">
   <path d="M 0 345.6 
L 460.8 345.6 
L 460.8 0 
L 0 0 
z
" style="fill: #ffffff"/>
  </g>
  <g id="axes_1">
   <g id="LineCollection_1">
    <path d="M 177.058892 111.051614 
L 134.487134 72.332234 
" clip-path="url(#pee0441ba9f)" style="fill: none; stroke: #000000"/>
    <path d="M 177.058892 111.051614 
L 146.062205 64.194669 
" clip-path="url(#pee0441ba9f)" style="fill: none; stroke: #000000"/>
    <path d="M 177.058892 111.051614 
L 161.607987 74.715093 
" clip-path="url(#pee0441ba9f)" style="fill: none; stroke: #000000"/>
    <path d="M 177.058892 111.051614 
L 232.119082 180.313054 
" clip-path="url(#pee0441ba9f)" style="fill: none; stroke: #000000"/>
    <path d="M 157.24086 47.594577 
L 121.578139 39.171471 
" clip-path="url(#pee0441ba9f)" style="fill: none; stroke: #000000"/>
    <path d="M 157.24086 47.594577 
L 134.487134 72.332234 
" clip-path="url(#pee0441ba9f)" style="fill: none; stroke: #000000"/>
    <path d="M 157.24086 47.594577 
L 161.607987 74.715093 
" clip-path="url(#pee0441ba9f)" style="fill: none; stroke: #000000"/>
    <path d="M 121.578139 39.171471 
L 139.723341 49.728018 
" clip-path="url(#pee0441ba9f)" style="fill: none; stroke: #000000"/>
    <path d="M 121.578139 39.171471 
L 113.089334 50.648183 
" clip-path="url(#pee0441ba9f)" style="fill: none; stroke: #000000"/>
    <path d="M 121.578139 39.171471 
L 146.062205 64.194669 
" clip-path="url(#pee0441ba9f)" style="fill: none; stroke: #000000"/>
    <path d="M 121.578139 39.171471 
L 131.473477 29.990083 
" clip-path="url(#pee0441ba9f)" style="fill: none; stroke: #000000"/>
    <path d="M 121.578139 39.171471 
L 92.234247 50.358916 
" clip-path="url(#pee0441ba9f)" style="fill: none; stroke: #000000"/>
    <path d="M 134.487134 72.332234 
L 139.723341 49.728018 
" clip-path="url(#pee0441ba9f)" style="fill: none; stroke: #000000"/>
    <path d="M 134.487134 72.332234 
L 113.089334 50.648183 
" clip-path="url(#pee0441ba9f)" style="fill: none; stroke: #000000"/>
    <path d="M 134.487134 72.332234 
L 161.607987 74.715093 
" clip-path="url(#pee0441ba9f)" style="fill: none; stroke: #000000"/>
    <path d="M 134.487134 72.332234 
L 92.234247 50.358916 
" clip-path="url(#pee0441ba9f)" style="fill: none; stroke: #000000"/>
    <path d="M 139.723341 49.728018 
L 146.062205 64.194669 
" clip-path="url(#pee0441ba9f)" style="fill: none; stroke: #000000"/>
    <path d="M 139.723341 49.728018 
L 131.473477 29.990083 
" clip-path="url(#pee0441ba9f)" style="fill: none; stroke: #000000"/>
    <path d="M 139.723341 49.728018 
L 161.607987 74.715093 
" clip-path="url(#pee0441ba9f)" style="fill: none; stroke: #000000"/>
    <path d="M 113.089334 50.648183 
L 146.062205 64.194669 
" clip-path="url(#pee0441ba9f)" style="fill: none; stroke: #000000"/>
    <path d="M 113.089334 50.648183 
L 131.473477 29.990083 
" clip-path="url(#pee0441ba9f)" style="fill: none; stroke: #000000"/>
    <path d="M 113.089334 50.648183 
L 92.234247 50.358916 
" clip-path="url(#pee0441ba9f)" style="fill: none; stroke: #000000"/>
    <path d="M 146.062205 64.194669 
L 131.473477 29.990083 
" clip-path="url(#pee0441ba9f)" style="fill: none; stroke: #000000"/>
    <path d="M 146.062205 64.194669 
L 161.607987 74.715093 
" clip-path="url(#pee0441ba9f)" style="fill: none; stroke: #000000"/>
    <path d="M 371.146797 278.199861 
L 327.02626 280.270125 
" clip-path="url(#pee0441ba9f)" style="fill: none; stroke: #000000"/>
    <path d="M 371.146797 278.199861 
L 363.459632 297.697098 
" clip-path="url(#pee0441ba9f)" style="fill: none; stroke: #000000"/>
    <path d="M 371.146797 278.199861 
L 342.073841 268.935223 
" clip-path="url(#pee0441ba9f)" style="fill: none; stroke: #000000"/>
    <path d="M 294.16418 244.050791 
L 325.591322 291.561035 
" clip-path="url(#pee0441ba9f)" style="fill: none; stroke: #000000"/>
    <path d="M 294.16418 244.050791 
L 327.02626 280.270125 
" clip-path="url(#pee0441ba9f)" style="fill: none; stroke: #000000"/>
    <path d="M 294.16418 244.050791 
L 342.073841 268.935223 
" clip-path="url(#pee0441ba9f)" style="fill: none; stroke: #000000"/>
    <path d="M 294.16418 244.050791 
L 232.119082 180.313054 
" clip-path="url(#pee0441ba9f)" style="fill: none; stroke: #000000"/>
    <path d="M 325.591322 291.561035 
L 349.880853 292.750711 
" clip-path="url(#pee0441ba9f)" style="fill: none; stroke: #000000"/>
    <path d="M 325.591322 291.561035 
L 338.014784 311.251999 
" clip-path="url(#pee0441ba9f)" style="fill: none; stroke: #000000"/>
    <path d="M 325.591322 291.561035 
L 363.459632 297.697098 
" clip-path="url(#pee0441ba9f)" style="fill: none; stroke: #000000"/>
    <path d="M 325.591322 291.561035 
L 358.58443 315.609917 
" clip-path="url(#pee0441ba9f)" style="fill: none; stroke: #000000"/>
    <path d="M 325.591322 291.561035 
L 313.932569 311.5866 
" clip-path="url(#pee0441ba9f)" style="fill: none; stroke: #000000"/>
    <path d="M 327.02626 280.270125 
L 349.880853 292.750711 
" clip-path="url(#pee0441ba9f)" style="fill: none; stroke: #000000"/>
    <path d="M 327.02626 280.270125 
L 338.014784 311.251999 
" clip-path="url(#pee0441ba9f)" style="fill: none; stroke: #000000"/>
    <path d="M 327.02626 280.270125 
L 342.073841 268.935223 
" clip-path="url(#pee0441ba9f)" style="fill: none; stroke: #000000"/>
    <path d="M 327.02626 280.270125 
L 313.932569 311.5866 
" clip-path="url(#pee0441ba9f)" style="fill: none; stroke: #000000"/>
    <path d="M 349.880853 292.750711 
L 363.459632 297.697098 
" clip-path="url(#pee0441ba9f)" style="fill: none; stroke: #000000"/>
    <path d="M 349.880853 292.750711 
L 358.58443 315.609917 
" clip-path="url(#pee0441ba9f)" style="fill: none; stroke: #000000"/>
    <path d="M 349.880853 292.750711 
L 342.073841 268.935223 
" clip-path="url(#pee0441ba9f)" style="fill: none; stroke: #000000"/>
    <path d="M 338.014784 311.251999 
L 363.459632 297.697098 
" clip-path="url(#pee0441ba9f)" style="fill: none; stroke: #000000"/>
    <path d="M 338.014784 311.251999 
L 358.58443 315.609917 
" clip-path="url(#pee0441ba9f)" style="fill: none; stroke: #000000"/>
    <path d="M 338.014784 311.251999 
L 313.932569 311.5866 
" clip-path="url(#pee0441ba9f)" style="fill: none; stroke: #000000"/>
    <path d="M 363.459632 297.697098 
L 358.58443 315.609917 
" clip-path="url(#pee0441ba9f)" style="fill: none; stroke: #000000"/>
    <path d="M 363.459632 297.697098 
L 342.073841 268.935223 
" clip-path="url(#pee0441ba9f)" style="fill: none; stroke: #000000"/>
    <path d="M 69.204824 264.889441 
L 99.532548 259.947598 
" clip-path="url(#pee0441ba9f)" style="fill: none; stroke: #000000"/>
    <path d="M 69.204824 264.889441 
L 51.517519 263.481593 
" clip-path="url(#pee0441ba9f)" style="fill: none; stroke: #000000"/>
    <path d="M 69.204824 264.889441 
L 88.467489 243.714974 
" clip-path="url(#pee0441ba9f)" style="fill: none; stroke: #000000"/>
    <path d="M 143.05147 227.707499 
L 84.723699 262.113604 
" clip-path="url(#pee0441ba9f)" style="fill: none; stroke: #000000"/>
    <path d="M 143.05147 227.707499 
L 99.532548 259.947598 
" clip-path="url(#pee0441ba9f)" style="fill: none; stroke: #000000"/>
    <path d="M 143.05147 227.707499 
L 88.467489 243.714974 
" clip-path="url(#pee0441ba9f)" style="fill: none; stroke: #000000"/>
    <path d="M 143.05147 227.707499 
L 232.119082 180.313054 
" clip-path="url(#pee0441ba9f)" style="fill: none; stroke: #000000"/>
    <path d="M 84.723699 262.113604 
L 59.124627 252.100276 
" clip-path="url(#pee0441ba9f)" style="fill: none; stroke: #000000"/>
    <path d="M 84.723699 262.113604 
L 66.284078 282.862465 
" clip-path="url(#pee0441ba9f)" style="fill: none; stroke: #000000"/>
    <path d="M 84.723699 262.113604 
L 51.517519 263.481593 
" clip-path="url(#pee0441ba9f)" style="fill: none; stroke: #000000"/>
    <path d="M 84.723699 262.113604 
L 39.986777 275.25626 
" clip-path="url(#pee0441ba9f)" style="fill: none; stroke: #000000"/>
    <path d="M 84.723699 262.113604 
L 89.934917 288.927698 
" clip-path="url(#pee0441ba9f)" style="fill: none; stroke: #000000"/>
    <path d="M 99.532548 259.947598 
L 59.124627 252.100276 
" clip-path="url(#pee0441ba9f)" style="fill: none; stroke: #000000"/>
    <path d="M 99.532548 259.947598 
L 66.284078 282.862465 
" clip-path="url(#pee0441ba9f)" style="fill: none; stroke: #000000"/>
    <path d="M 99.532548 259.947598 
L 88.467489 243.714974 
" clip-path="url(#pee0441ba9f)" style="fill: none; stroke: #000000"/>
    <path d="M 99.532548 259.947598 
L 89.934917 288.927698 
" clip-path="url(#pee0441ba9f)" style="fill: none; stroke: #000000"/>
    <path d="M 59.124627 252.100276 
L 51.517519 263.481593 
" clip-path="url(#pee0441ba9f)" style="fill: none; stroke: #000000"/>
    <path d="M 59.124627 252.100276 
L 39.986777 275.25626 
" clip-path="url(#pee0441ba9f)" style="fill: none; stroke: #000000"/>
    <path d="M 59.124627 252.100276 
L 88.467489 243.714974 
" clip-path="url(#pee0441ba9f)" style="fill: none; stroke: #000000"/>
    <path d="M 66.284078 282.862465 
L 51.517519 263.481593 
" clip-path="url(#pee0441ba9f)" style="fill: none; stroke: #000000"/>
    <path d="M 66.284078 282.862465 
L 39.986777 275.25626 
" clip-path="url(#pee0441ba9f)" style="fill: none; stroke: #000000"/>
    <path d="M 66.284078 282.862465 
L 89.934917 288.927698 
" clip-path="url(#pee0441ba9f)" style="fill: none; stroke: #000000"/>
    <path d="M 51.517519 263.481593 
L 39.986777 275.25626 
" clip-path="url(#pee0441ba9f)" style="fill: none; stroke: #000000"/>
    <path d="M 51.517519 263.481593 
L 88.467489 243.714974 
" clip-path="url(#pee0441ba9f)" style="fill: none; stroke: #000000"/>
    <path d="M 398.645926 120.630731 
L 377.617421 121.328283 
" clip-path="url(#pee0441ba9f)" style="fill: none; stroke: #000000"/>
    <path d="M 398.645926 120.630731 
L 397.247239 95.76356 
" clip-path="url(#pee0441ba9f)" style="fill: none; stroke: #000000"/>
    <path d="M 398.645926 120.630731 
L 361.375215 113.114549 
" clip-path="url(#pee0441ba9f)" style="fill: none; stroke: #000000"/>
    <path d="M 321.387908 138.233243 
L 381.78022 107.804793 
" clip-path="url(#pee0441ba9f)" style="fill: none; stroke: #000000"/>
    <path d="M 321.387908 138.233243 
L 377.617421 121.328283 
" clip-path="url(#pee0441ba9f)" style="fill: none; stroke: #000000"/>
    <path d="M 321.387908 138.233243 
L 361.375215 113.114549 
" clip-path="url(#pee0441ba9f)" style="fill: none; stroke: #000000"/>
    <path d="M 321.387908 138.233243 
L 232.119082 180.313054 
" clip-path="url(#pee0441ba9f)" style="fill: none; stroke: #000000"/>
    <path d="M 381.78022 107.804793 
L 378.809168 91.030948 
" clip-path="url(#pee0441ba9f)" style="fill: none; stroke: #000000"/>
    <path d="M 381.78022 107.804793 
L 415.878072 101.475577 
" clip-path="url(#pee0441ba9f)" style="fill: none; stroke: #000000"/>
    <path d="M 381.78022 107.804793 
L 397.247239 95.76356 
" clip-path="url(#pee0441ba9f)" style="fill: none; stroke: #000000"/>
    <path d="M 381.78022 107.804793 
L 407.904637 81.226813 
" clip-path="url(#pee0441ba9f)" style="fill: none; stroke: #000000"/>
    <path d="M 381.78022 107.804793 
L 420.813223 117.826551 
" clip-path="url(#pee0441ba9f)" style="fill: none; stroke: #000000"/>
    <path d="M 377.617421 121.328283 
L 378.809168 91.030948 
" clip-path="url(#pee0441ba9f)" style="fill: none; stroke: #000000"/>
    <path d="M 377.617421 121.328283 
L 415.878072 101.475577 
" clip-path="url(#pee0441ba9f)" style="fill: none; stroke: #000000"/>
    <path d="M 377.617421 121.328283 
L 361.375215 113.114549 
" clip-path="url(#pee0441ba9f)" style="fill: none; stroke: #000000"/>
    <path d="M 377.617421 121.328283 
L 420.813223 117.826551 
" clip-path="url(#pee0441ba9f)" style="fill: none; stroke: #000000"/>
    <path d="M 378.809168 91.030948 
L 397.247239 95.76356 
" clip-path="url(#pee0441ba9f)" style="fill: none; stroke: #000000"/>
    <path d="M 378.809168 91.030948 
L 407.904637 81.226813 
" clip-path="url(#pee0441ba9f)" style="fill: none; stroke: #000000"/>
    <path d="M 378.809168 91.030948 
L 361.375215 113.114549 
" clip-path="url(#pee0441ba9f)" style="fill: none; stroke: #000000"/>
    <path d="M 415.878072 101.475577 
L 397.247239 95.76356 
" clip-path="url(#pee0441ba9f)" style="fill: none; stroke: #000000"/>
    <path d="M 415.878072 101.475577 
L 407.904637 81.226813 
" clip-path="url(#pee0441ba9f)" style="fill: none; stroke: #000000"/>
    <path d="M 415.878072 101.475577 
L 420.813223 117.826551 
" clip-path="url(#pee0441ba9f)" style="fill: none; stroke: #000000"/>
    <path d="M 397.247239 95.76356 
L 407.904637 81.226813 
" clip-path="url(#pee0441ba9f)" style="fill: none; stroke: #000000"/>
    <path d="M 397.247239 95.76356 
L 361.375215 113.114549 
" clip-path="url(#pee0441ba9f)" style="fill: none; stroke: #000000"/>
   </g>
   <g id="PathCollection_1">
    <defs>
     <path id="mb3141331d8" d="M 0 8.660254 
C 2.296726 8.660254 4.499694 7.747755 6.123724 6.123724 
C 7.747755 4.499694 8.660254 2.296726 8.660254 0 
C 8.660254 -2.296726 7.747755 -4.499694 6.123724 -6.123724 
C 4.499694 -7.747755 2.296726 -8.660254 0 -8.660254 
C -2.296726 -8.660254 -4.499694 -7.747755 -6.123724 -6.123724 
C -7.747755 -4.499694 -8.660254 -2.296726 -8.660254 0 
C -8.660254 2.296726 -7.747755 4.499694 -6.123724 6.123724 
C -4.499694 7.747755 -2.296726 8.660254 0 8.660254 
z
" style="stroke: #1f78b4"/>
    </defs>
    <g clip-path="url(#pee0441ba9f)">
     <use xlink:href="#mb3141331d8" x="177.058892" y="111.051614" style="fill: #1f78b4; stroke: #1f78b4"/>
     <use xlink:href="#mb3141331d8" x="157.24086" y="47.594577" style="fill: #1f78b4; stroke: #1f78b4"/>
     <use xlink:href="#mb3141331d8" x="121.578139" y="39.171471" style="fill: #1f78b4; stroke: #1f78b4"/>
     <use xlink:href="#mb3141331d8" x="134.487134" y="72.332234" style="fill: #1f78b4; stroke: #1f78b4"/>
     <use xlink:href="#mb3141331d8" x="139.723341" y="49.728018" style="fill: #1f78b4; stroke: #1f78b4"/>
     <use xlink:href="#mb3141331d8" x="113.089334" y="50.648183" style="fill: #1f78b4; stroke: #1f78b4"/>
     <use xlink:href="#mb3141331d8" x="146.062205" y="64.194669" style="fill: #1f78b4; stroke: #1f78b4"/>
     <use xlink:href="#mb3141331d8" x="131.473477" y="29.990083" style="fill: #1f78b4; stroke: #1f78b4"/>
     <use xlink:href="#mb3141331d8" x="161.607987" y="74.715093" style="fill: #1f78b4; stroke: #1f78b4"/>
     <use xlink:href="#mb3141331d8" x="92.234247" y="50.358916" style="fill: #1f78b4; stroke: #1f78b4"/>
     <use xlink:href="#mb3141331d8" x="371.146797" y="278.199861" style="fill: #1f78b4; stroke: #1f78b4"/>
     <use xlink:href="#mb3141331d8" x="294.16418" y="244.050791" style="fill: #1f78b4; stroke: #1f78b4"/>
     <use xlink:href="#mb3141331d8" x="325.591322" y="291.561035" style="fill: #1f78b4; stroke: #1f78b4"/>
     <use xlink:href="#mb3141331d8" x="327.02626" y="280.270125" style="fill: #1f78b4; stroke: #1f78b4"/>
     <use xlink:href="#mb3141331d8" x="349.880853" y="292.750711" style="fill: #1f78b4; stroke: #1f78b4"/>
     <use xlink:href="#mb3141331d8" x="338.014784" y="311.251999" style="fill: #1f78b4; stroke: #1f78b4"/>
     <use xlink:href="#mb3141331d8" x="363.459632" y="297.697098" style="fill: #1f78b4; stroke: #1f78b4"/>
     <use xlink:href="#mb3141331d8" x="358.58443" y="315.609917" style="fill: #1f78b4; stroke: #1f78b4"/>
     <use xlink:href="#mb3141331d8" x="342.073841" y="268.935223" style="fill: #1f78b4; stroke: #1f78b4"/>
     <use xlink:href="#mb3141331d8" x="313.932569" y="311.5866" style="fill: #1f78b4; stroke: #1f78b4"/>
     <use xlink:href="#mb3141331d8" x="69.204824" y="264.889441" style="fill: #1f78b4; stroke: #1f78b4"/>
     <use xlink:href="#mb3141331d8" x="143.05147" y="227.707499" style="fill: #1f78b4; stroke: #1f78b4"/>
     <use xlink:href="#mb3141331d8" x="84.723699" y="262.113604" style="fill: #1f78b4; stroke: #1f78b4"/>
     <use xlink:href="#mb3141331d8" x="99.532548" y="259.947598" style="fill: #1f78b4; stroke: #1f78b4"/>
     <use xlink:href="#mb3141331d8" x="59.124627" y="252.100276" style="fill: #1f78b4; stroke: #1f78b4"/>
     <use xlink:href="#mb3141331d8" x="66.284078" y="282.862465" style="fill: #1f78b4; stroke: #1f78b4"/>
     <use xlink:href="#mb3141331d8" x="51.517519" y="263.481593" style="fill: #1f78b4; stroke: #1f78b4"/>
     <use xlink:href="#mb3141331d8" x="39.986777" y="275.25626" style="fill: #1f78b4; stroke: #1f78b4"/>
     <use xlink:href="#mb3141331d8" x="88.467489" y="243.714974" style="fill: #1f78b4; stroke: #1f78b4"/>
     <use xlink:href="#mb3141331d8" x="89.934917" y="288.927698" style="fill: #1f78b4; stroke: #1f78b4"/>
     <use xlink:href="#mb3141331d8" x="398.645926" y="120.630731" style="fill: #1f78b4; stroke: #1f78b4"/>
     <use xlink:href="#mb3141331d8" x="321.387908" y="138.233243" style="fill: #1f78b4; stroke: #1f78b4"/>
     <use xlink:href="#mb3141331d8" x="381.78022" y="107.804793" style="fill: #1f78b4; stroke: #1f78b4"/>
     <use xlink:href="#mb3141331d8" x="377.617421" y="121.328283" style="fill: #1f78b4; stroke: #1f78b4"/>
     <use xlink:href="#mb3141331d8" x="378.809168" y="91.030948" style="fill: #1f78b4; stroke: #1f78b4"/>
     <use xlink:href="#mb3141331d8" x="415.878072" y="101.475577" style="fill: #1f78b4; stroke: #1f78b4"/>
     <use xlink:href="#mb3141331d8" x="397.247239" y="95.76356" style="fill: #1f78b4; stroke: #1f78b4"/>
     <use xlink:href="#mb3141331d8" x="407.904637" y="81.226813" style="fill: #1f78b4; stroke: #1f78b4"/>
     <use xlink:href="#mb3141331d8" x="361.375215" y="113.114549" style="fill: #1f78b4; stroke: #1f78b4"/>
     <use xlink:href="#mb3141331d8" x="420.813223" y="117.826551" style="fill: #1f78b4; stroke: #1f78b4"/>
     <use xlink:href="#mb3141331d8" x="232.119082" y="180.313054" style="fill: #1f78b4; stroke: #1f78b4"/>
    </g>
   </g>
  </g>
 </g>
 <defs>
  <clipPath id="pee0441ba9f">
   <rect x="0" y="0" width="460.8" height="345.6"/>
  </clipPath>
 </defs>
</svg>
