<?xml version="1.0" encoding="utf-8" standalone="no"?>
<!DOCTYPE svg PUBLIC "-//W3C//DTD SVG 1.1//EN"
  "http://www.w3.org/Graphics/SVG/1.1/DTD/svg11.dtd">
<svg xmlns:xlink="http://www.w3.org/1999/xlink" width="460.8pt" height="345.6pt" viewBox="0 0 460.8 345.6" xmlns="http://www.w3.org/2000/svg" version="1.1">
 <metadata>
  <rdf:RDF xmlns:dc="http://purl.org/dc/elements/1.1/" xmlns:cc="http://creativecommons.org/ns#" xmlns:rdf="http://www.w3.org/1999/02/22-rdf-syntax-ns#">
   <cc:Work>
    <dc:type rdf:resource="http://purl.org/dc/dcmitype/StillImage"/>
    <dc:date>2024-04-17T15:47:01.051845</dc:date>
    <dc:format>image/svg+xml</dc:format>
    <dc:creator>
     <cc:Agent>
      <dc:title>Matplotlib v3.8.3, https://matplotlib.org/</dc:title>
     </cc:Agent>
    </dc:creator>
   </cc:Work>
  </rdf:RDF>
 </metadata>
 <defs>
  <style type="text/css">*{stroke-linejoin: round; stroke-linecap: butt}</style>
 </defs>
 <g id="figure_1">
  <g id="patch_1">
   <path d="M 0 345.6 
L 460.8 345.6 
L 460.8 0 
L 0 0 
z
" style="fill: #ffffff"/>
  </g>
  <g id="axes_1">
   <g id="LineCollection_1">
    <path d="M 321.824696 261.042957 
L 362.647063 219.470769 
" clip-path="url(#p0e508f586a)" style="fill: none; stroke: #000000"/>
    <path d="M 321.824696 261.042957 
L 382.406398 285.011195 
" clip-path="url(#p0e508f586a)" style="fill: none; stroke: #000000"/>
    <path d="M 321.824696 261.042957 
L 357.224712 259.029307 
" clip-path="url(#p0e508f586a)" style="fill: none; stroke: #000000"/>
    <path d="M 321.824696 261.042957 
L 389.597831 263.865014 
" clip-path="url(#p0e508f586a)" style="fill: none; stroke: #000000"/>
    <path d="M 321.824696 261.042957 
L 372.646366 249.050125 
" clip-path="url(#p0e508f586a)" style="fill: none; stroke: #000000"/>
    <path d="M 321.824696 261.042957 
L 200.114208 264.710287 
" clip-path="url(#p0e508f586a)" style="fill: none; stroke: #000000"/>
    <path d="M 362.647063 219.470769 
L 357.224712 259.029307 
" clip-path="url(#p0e508f586a)" style="fill: none; stroke: #000000"/>
    <path d="M 362.647063 219.470769 
L 402.118527 252.90333 
" clip-path="url(#p0e508f586a)" style="fill: none; stroke: #000000"/>
    <path d="M 362.647063 219.470769 
L 418.322332 229.040829 
" clip-path="url(#p0e508f586a)" style="fill: none; stroke: #000000"/>
    <path d="M 362.647063 219.470769 
L 398.504277 229.168771 
" clip-path="url(#p0e508f586a)" style="fill: none; stroke: #000000"/>
    <path d="M 362.647063 219.470769 
L 307.212991 155.595529 
" clip-path="url(#p0e508f586a)" style="fill: none; stroke: #000000"/>
    <path d="M 382.406398 285.011195 
L 420.813223 297.28177 
" clip-path="url(#p0e508f586a)" style="fill: none; stroke: #000000"/>
    <path d="M 382.406398 285.011195 
L 389.597831 263.865014 
" clip-path="url(#p0e508f586a)" style="fill: none; stroke: #000000"/>
    <path d="M 382.406398 285.011195 
L 402.118527 252.90333 
" clip-path="url(#p0e508f586a)" style="fill: none; stroke: #000000"/>
    <path d="M 420.813223 297.28177 
L 389.597831 263.865014 
" clip-path="url(#p0e508f586a)" style="fill: none; stroke: #000000"/>
    <path d="M 357.224712 259.029307 
L 389.597831 263.865014 
" clip-path="url(#p0e508f586a)" style="fill: none; stroke: #000000"/>
    <path d="M 357.224712 259.029307 
L 372.646366 249.050125 
" clip-path="url(#p0e508f586a)" style="fill: none; stroke: #000000"/>
    <path d="M 389.597831 263.865014 
L 402.118527 252.90333 
" clip-path="url(#p0e508f586a)" style="fill: none; stroke: #000000"/>
    <path d="M 389.597831 263.865014 
L 418.322332 229.040829 
" clip-path="url(#p0e508f586a)" style="fill: none; stroke: #000000"/>
    <path d="M 389.597831 263.865014 
L 398.504277 229.168771 
" clip-path="url(#p0e508f586a)" style="fill: none; stroke: #000000"/>
    <path d="M 402.118527 252.90333 
L 372.646366 249.050125 
" clip-path="url(#p0e508f586a)" style="fill: none; stroke: #000000"/>
    <path d="M 398.504277 229.168771 
L 372.646366 249.050125 
" clip-path="url(#p0e508f586a)" style="fill: none; stroke: #000000"/>
    <path d="M 200.114208 264.710287 
L 126.896251 224.468123 
" clip-path="url(#p0e508f586a)" style="fill: none; stroke: #000000"/>
    <path d="M 200.114208 264.710287 
L 150.681509 297.687878 
" clip-path="url(#p0e508f586a)" style="fill: none; stroke: #000000"/>
    <path d="M 200.114208 264.710287 
L 152.565654 261.035981 
" clip-path="url(#p0e508f586a)" style="fill: none; stroke: #000000"/>
    <path d="M 200.114208 264.710287 
L 137.562577 283.057488 
" clip-path="url(#p0e508f586a)" style="fill: none; stroke: #000000"/>
    <path d="M 126.896251 224.468123 
L 102.047445 259.299578 
" clip-path="url(#p0e508f586a)" style="fill: none; stroke: #000000"/>
    <path d="M 126.896251 224.468123 
L 121.019845 265.656954 
" clip-path="url(#p0e508f586a)" style="fill: none; stroke: #000000"/>
    <path d="M 126.896251 224.468123 
L 152.565654 261.035981 
" clip-path="url(#p0e508f586a)" style="fill: none; stroke: #000000"/>
    <path d="M 126.896251 224.468123 
L 102.711174 277.994507 
" clip-path="url(#p0e508f586a)" style="fill: none; stroke: #000000"/>
    <path d="M 126.896251 224.468123 
L 97.395371 125.279502 
" clip-path="url(#p0e508f586a)" style="fill: none; stroke: #000000"/>
    <path d="M 115.160791 315.609917 
L 150.681509 297.687878 
" clip-path="url(#p0e508f586a)" style="fill: none; stroke: #000000"/>
    <path d="M 115.160791 315.609917 
L 102.711174 277.994507 
" clip-path="url(#p0e508f586a)" style="fill: none; stroke: #000000"/>
    <path d="M 115.160791 315.609917 
L 137.562577 283.057488 
" clip-path="url(#p0e508f586a)" style="fill: none; stroke: #000000"/>
    <path d="M 102.047445 259.299578 
L 121.019845 265.656954 
" clip-path="url(#p0e508f586a)" style="fill: none; stroke: #000000"/>
    <path d="M 102.047445 259.299578 
L 116.785367 291.052319 
" clip-path="url(#p0e508f586a)" style="fill: none; stroke: #000000"/>
    <path d="M 102.047445 259.299578 
L 137.562577 283.057488 
" clip-path="url(#p0e508f586a)" style="fill: none; stroke: #000000"/>
    <path d="M 121.019845 265.656954 
L 150.681509 297.687878 
" clip-path="url(#p0e508f586a)" style="fill: none; stroke: #000000"/>
    <path d="M 121.019845 265.656954 
L 102.711174 277.994507 
" clip-path="url(#p0e508f586a)" style="fill: none; stroke: #000000"/>
    <path d="M 121.019845 265.656954 
L 137.562577 283.057488 
" clip-path="url(#p0e508f586a)" style="fill: none; stroke: #000000"/>
    <path d="M 150.681509 297.687878 
L 116.785367 291.052319 
" clip-path="url(#p0e508f586a)" style="fill: none; stroke: #000000"/>
    <path d="M 152.565654 261.035981 
L 116.785367 291.052319 
" clip-path="url(#p0e508f586a)" style="fill: none; stroke: #000000"/>
    <path d="M 116.785367 291.052319 
L 102.711174 277.994507 
" clip-path="url(#p0e508f586a)" style="fill: none; stroke: #000000"/>
    <path d="M 102.711174 277.994507 
L 137.562577 283.057488 
" clip-path="url(#p0e508f586a)" style="fill: none; stroke: #000000"/>
    <path d="M 97.395371 125.279502 
L 153.046288 98.238109 
" clip-path="url(#p0e508f586a)" style="fill: none; stroke: #000000"/>
    <path d="M 97.395371 125.279502 
L 67.390384 85.078919 
" clip-path="url(#p0e508f586a)" style="fill: none; stroke: #000000"/>
    <path d="M 97.395371 125.279502 
L 98.374747 86.32308 
" clip-path="url(#p0e508f586a)" style="fill: none; stroke: #000000"/>
    <path d="M 97.395371 125.279502 
L 82.028624 67.622442 
" clip-path="url(#p0e508f586a)" style="fill: none; stroke: #000000"/>
    <path d="M 97.395371 125.279502 
L 47.290598 91.434685 
" clip-path="url(#p0e508f586a)" style="fill: none; stroke: #000000"/>
    <path d="M 153.046288 98.238109 
L 117.627359 52.060708 
" clip-path="url(#p0e508f586a)" style="fill: none; stroke: #000000"/>
    <path d="M 153.046288 98.238109 
L 98.374747 86.32308 
" clip-path="url(#p0e508f586a)" style="fill: none; stroke: #000000"/>
    <path d="M 153.046288 98.238109 
L 242.440506 127.874862 
" clip-path="url(#p0e508f586a)" style="fill: none; stroke: #000000"/>
    <path d="M 39.986777 61.122998 
L 67.390384 85.078919 
" clip-path="url(#p0e508f586a)" style="fill: none; stroke: #000000"/>
    <path d="M 39.986777 61.122998 
L 62.221203 57.795393 
" clip-path="url(#p0e508f586a)" style="fill: none; stroke: #000000"/>
    <path d="M 39.986777 61.122998 
L 82.028624 67.622442 
" clip-path="url(#p0e508f586a)" style="fill: none; stroke: #000000"/>
    <path d="M 39.986777 61.122998 
L 47.290598 91.434685 
" clip-path="url(#p0e508f586a)" style="fill: none; stroke: #000000"/>
    <path d="M 67.390384 85.078919 
L 62.221203 57.795393 
" clip-path="url(#p0e508f586a)" style="fill: none; stroke: #000000"/>
    <path d="M 67.390384 85.078919 
L 98.374747 86.32308 
" clip-path="url(#p0e508f586a)" style="fill: none; stroke: #000000"/>
    <path d="M 67.390384 85.078919 
L 82.028624 67.622442 
" clip-path="url(#p0e508f586a)" style="fill: none; stroke: #000000"/>
    <path d="M 82.608802 29.990083 
L 117.627359 52.060708 
" clip-path="url(#p0e508f586a)" style="fill: none; stroke: #000000"/>
    <path d="M 82.608802 29.990083 
L 62.221203 57.795393 
" clip-path="url(#p0e508f586a)" style="fill: none; stroke: #000000"/>
    <path d="M 82.608802 29.990083 
L 82.028624 67.622442 
" clip-path="url(#p0e508f586a)" style="fill: none; stroke: #000000"/>
    <path d="M 117.627359 52.060708 
L 82.028624 67.622442 
" clip-path="url(#p0e508f586a)" style="fill: none; stroke: #000000"/>
    <path d="M 62.221203 57.795393 
L 98.374747 86.32308 
" clip-path="url(#p0e508f586a)" style="fill: none; stroke: #000000"/>
    <path d="M 62.221203 57.795393 
L 82.028624 67.622442 
" clip-path="url(#p0e508f586a)" style="fill: none; stroke: #000000"/>
    <path d="M 62.221203 57.795393 
L 47.290598 91.434685 
" clip-path="url(#p0e508f586a)" style="fill: none; stroke: #000000"/>
    <path d="M 98.374747 86.32308 
L 82.028624 67.622442 
" clip-path="url(#p0e508f586a)" style="fill: none; stroke: #000000"/>
    <path d="M 242.440506 127.874862 
L 307.212991 155.595529 
" clip-path="url(#p0e508f586a)" style="fill: none; stroke: #000000"/>
    <path d="M 242.440506 127.874862 
L 238.107527 167.481429 
" clip-path="url(#p0e508f586a)" style="fill: none; stroke: #000000"/>
    <path d="M 242.440506 127.874862 
L 252.732233 154.407441 
" clip-path="url(#p0e508f586a)" style="fill: none; stroke: #000000"/>
    <path d="M 242.440506 127.874862 
L 279.363432 126.766836 
" clip-path="url(#p0e508f586a)" style="fill: none; stroke: #000000"/>
    <path d="M 242.440506 127.874862 
L 265.071022 137.597032 
" clip-path="url(#p0e508f586a)" style="fill: none; stroke: #000000"/>
    <path d="M 242.440506 127.874862 
L 291.922337 111.239184 
" clip-path="url(#p0e508f586a)" style="fill: none; stroke: #000000"/>
    <path d="M 242.440506 127.874862 
L 274.156416 151.043663 
" clip-path="url(#p0e508f586a)" style="fill: none; stroke: #000000"/>
    <path d="M 307.212991 155.595529 
L 279.363432 126.766836 
" clip-path="url(#p0e508f586a)" style="fill: none; stroke: #000000"/>
    <path d="M 307.212991 155.595529 
L 291.087192 140.495544 
" clip-path="url(#p0e508f586a)" style="fill: none; stroke: #000000"/>
    <path d="M 307.212991 155.595529 
L 291.922337 111.239184 
" clip-path="url(#p0e508f586a)" style="fill: none; stroke: #000000"/>
    <path d="M 307.212991 155.595529 
L 274.156416 151.043663 
" clip-path="url(#p0e508f586a)" style="fill: none; stroke: #000000"/>
    <path d="M 307.212991 155.595529 
L 305.568785 129.509841 
" clip-path="url(#p0e508f586a)" style="fill: none; stroke: #000000"/>
    <path d="M 238.107527 167.481429 
L 252.732233 154.407441 
" clip-path="url(#p0e508f586a)" style="fill: none; stroke: #000000"/>
    <path d="M 238.107527 167.481429 
L 274.156416 151.043663 
" clip-path="url(#p0e508f586a)" style="fill: none; stroke: #000000"/>
    <path d="M 252.732233 154.407441 
L 291.087192 140.495544 
" clip-path="url(#p0e508f586a)" style="fill: none; stroke: #000000"/>
    <path d="M 252.732233 154.407441 
L 265.071022 137.597032 
" clip-path="url(#p0e508f586a)" style="fill: none; stroke: #000000"/>
    <path d="M 252.732233 154.407441 
L 274.156416 151.043663 
" clip-path="url(#p0e508f586a)" style="fill: none; stroke: #000000"/>
    <path d="M 279.363432 126.766836 
L 265.071022 137.597032 
" clip-path="url(#p0e508f586a)" style="fill: none; stroke: #000000"/>
    <path d="M 279.363432 126.766836 
L 274.156416 151.043663 
" clip-path="url(#p0e508f586a)" style="fill: none; stroke: #000000"/>
    <path d="M 279.363432 126.766836 
L 305.568785 129.509841 
" clip-path="url(#p0e508f586a)" style="fill: none; stroke: #000000"/>
    <path d="M 291.087192 140.495544 
L 265.071022 137.597032 
" clip-path="url(#p0e508f586a)" style="fill: none; stroke: #000000"/>
    <path d="M 291.087192 140.495544 
L 291.922337 111.239184 
" clip-path="url(#p0e508f586a)" style="fill: none; stroke: #000000"/>
    <path d="M 291.087192 140.495544 
L 274.156416 151.043663 
" clip-path="url(#p0e508f586a)" style="fill: none; stroke: #000000"/>
    <path d="M 291.087192 140.495544 
L 305.568785 129.509841 
" clip-path="url(#p0e508f586a)" style="fill: none; stroke: #000000"/>
    <path d="M 265.071022 137.597032 
L 274.156416 151.043663 
" clip-path="url(#p0e508f586a)" style="fill: none; stroke: #000000"/>
    <path d="M 265.071022 137.597032 
L 305.568785 129.509841 
" clip-path="url(#p0e508f586a)" style="fill: none; stroke: #000000"/>
    <path d="M 274.156416 151.043663 
L 305.568785 129.509841 
" clip-path="url(#p0e508f586a)" style="fill: none; stroke: #000000"/>
   </g>
   <g id="PathCollection_1">
    <defs>
     <path id="md0e7dcb203" d="M 0 8.660254 
C 2.296726 8.660254 4.499694 7.747755 6.123724 6.123724 
C 7.747755 4.499694 8.660254 2.296726 8.660254 0 
C 8.660254 -2.296726 7.747755 -4.499694 6.123724 -6.123724 
C 4.499694 -7.747755 2.296726 -8.660254 0 -8.660254 
C -2.296726 -8.660254 -4.499694 -7.747755 -6.123724 -6.123724 
C -7.747755 -4.499694 -8.660254 -2.296726 -8.660254 0 
C -8.660254 2.296726 -7.747755 4.499694 -6.123724 6.123724 
C -4.499694 7.747755 -2.296726 8.660254 0 8.660254 
z
" style="stroke: #1f78b4"/>
    </defs>
    <g clip-path="url(#p0e508f586a)">
     <use xlink:href="#md0e7dcb203" x="321.824696" y="261.042957" style="fill: #1f78b4; stroke: #1f78b4"/>
     <use xlink:href="#md0e7dcb203" x="362.647063" y="219.470769" style="fill: #1f78b4; stroke: #1f78b4"/>
     <use xlink:href="#md0e7dcb203" x="382.406398" y="285.011195" style="fill: #1f78b4; stroke: #1f78b4"/>
     <use xlink:href="#md0e7dcb203" x="420.813223" y="297.28177" style="fill: #1f78b4; stroke: #1f78b4"/>
     <use xlink:href="#md0e7dcb203" x="357.224712" y="259.029307" style="fill: #1f78b4; stroke: #1f78b4"/>
     <use xlink:href="#md0e7dcb203" x="389.597831" y="263.865014" style="fill: #1f78b4; stroke: #1f78b4"/>
     <use xlink:href="#md0e7dcb203" x="402.118527" y="252.90333" style="fill: #1f78b4; stroke: #1f78b4"/>
     <use xlink:href="#md0e7dcb203" x="418.322332" y="229.040829" style="fill: #1f78b4; stroke: #1f78b4"/>
     <use xlink:href="#md0e7dcb203" x="398.504277" y="229.168771" style="fill: #1f78b4; stroke: #1f78b4"/>
     <use xlink:href="#md0e7dcb203" x="372.646366" y="249.050125" style="fill: #1f78b4; stroke: #1f78b4"/>
     <use xlink:href="#md0e7dcb203" x="200.114208" y="264.710287" style="fill: #1f78b4; stroke: #1f78b4"/>
     <use xlink:href="#md0e7dcb203" x="126.896251" y="224.468123" style="fill: #1f78b4; stroke: #1f78b4"/>
     <use xlink:href="#md0e7dcb203" x="115.160791" y="315.609917" style="fill: #1f78b4; stroke: #1f78b4"/>
     <use xlink:href="#md0e7dcb203" x="102.047445" y="259.299578" style="fill: #1f78b4; stroke: #1f78b4"/>
     <use xlink:href="#md0e7dcb203" x="121.019845" y="265.656954" style="fill: #1f78b4; stroke: #1f78b4"/>
     <use xlink:href="#md0e7dcb203" x="150.681509" y="297.687878" style="fill: #1f78b4; stroke: #1f78b4"/>
     <use xlink:href="#md0e7dcb203" x="152.565654" y="261.035981" style="fill: #1f78b4; stroke: #1f78b4"/>
     <use xlink:href="#md0e7dcb203" x="116.785367" y="291.052319" style="fill: #1f78b4; stroke: #1f78b4"/>
     <use xlink:href="#md0e7dcb203" x="102.711174" y="277.994507" style="fill: #1f78b4; stroke: #1f78b4"/>
     <use xlink:href="#md0e7dcb203" x="137.562577" y="283.057488" style="fill: #1f78b4; stroke: #1f78b4"/>
     <use xlink:href="#md0e7dcb203" x="97.395371" y="125.279502" style="fill: #1f78b4; stroke: #1f78b4"/>
     <use xlink:href="#md0e7dcb203" x="153.046288" y="98.238109" style="fill: #1f78b4; stroke: #1f78b4"/>
     <use xlink:href="#md0e7dcb203" x="39.986777" y="61.122998" style="fill: #1f78b4; stroke: #1f78b4"/>
     <use xlink:href="#md0e7dcb203" x="67.390384" y="85.078919" style="fill: #1f78b4; stroke: #1f78b4"/>
     <use xlink:href="#md0e7dcb203" x="82.608802" y="29.990083" style="fill: #1f78b4; stroke: #1f78b4"/>
     <use xlink:href="#md0e7dcb203" x="117.627359" y="52.060708" style="fill: #1f78b4; stroke: #1f78b4"/>
     <use xlink:href="#md0e7dcb203" x="62.221203" y="57.795393" style="fill: #1f78b4; stroke: #1f78b4"/>
     <use xlink:href="#md0e7dcb203" x="98.374747" y="86.32308" style="fill: #1f78b4; stroke: #1f78b4"/>
     <use xlink:href="#md0e7dcb203" x="82.028624" y="67.622442" style="fill: #1f78b4; stroke: #1f78b4"/>
     <use xlink:href="#md0e7dcb203" x="47.290598" y="91.434685" style="fill: #1f78b4; stroke: #1f78b4"/>
     <use xlink:href="#md0e7dcb203" x="242.440506" y="127.874862" style="fill: #1f78b4; stroke: #1f78b4"/>
     <use xlink:href="#md0e7dcb203" x="307.212991" y="155.595529" style="fill: #1f78b4; stroke: #1f78b4"/>
     <use xlink:href="#md0e7dcb203" x="238.107527" y="167.481429" style="fill: #1f78b4; stroke: #1f78b4"/>
     <use xlink:href="#md0e7dcb203" x="252.732233" y="154.407441" style="fill: #1f78b4; stroke: #1f78b4"/>
     <use xlink:href="#md0e7dcb203" x="279.363432" y="126.766836" style="fill: #1f78b4; stroke: #1f78b4"/>
     <use xlink:href="#md0e7dcb203" x="291.087192" y="140.495544" style="fill: #1f78b4; stroke: #1f78b4"/>
     <use xlink:href="#md0e7dcb203" x="265.071022" y="137.597032" style="fill: #1f78b4; stroke: #1f78b4"/>
     <use xlink:href="#md0e7dcb203" x="291.922337" y="111.239184" style="fill: #1f78b4; stroke: #1f78b4"/>
     <use xlink:href="#md0e7dcb203" x="274.156416" y="151.043663" style="fill: #1f78b4; stroke: #1f78b4"/>
     <use xlink:href="#md0e7dcb203" x="305.568785" y="129.509841" style="fill: #1f78b4; stroke: #1f78b4"/>
    </g>
   </g>
   <g id="text_1">
    <g clip-path="url(#p0e508f586a)">
     <!-- 0 -->
     <g transform="translate(318.007196 264.354207) scale(0.12 -0.12)">
      <defs>
       <path id="DejaVuSans-30" d="M 2034 4250 
Q 1547 4250 1301 3770 
Q 1056 3291 1056 2328 
Q 1056 1369 1301 889 
Q 1547 409 2034 409 
Q 2525 409 2770 889 
Q 3016 1369 3016 2328 
Q 3016 3291 2770 3770 
Q 2525 4250 2034 4250 
z
M 2034 4750 
Q 2819 4750 3233 4129 
Q 3647 3509 3647 2328 
Q 3647 1150 3233 529 
Q 2819 -91 2034 -91 
Q 1250 -91 836 529 
Q 422 1150 422 2328 
Q 422 3509 836 4129 
Q 1250 4750 2034 4750 
z
" transform="scale(0.015625)"/>
      </defs>
      <use xlink:href="#DejaVuSans-30"/>
     </g>
    </g>
   </g>
   <g id="text_2">
    <g clip-path="url(#p0e508f586a)">
     <!-- 1 -->
     <g transform="translate(358.829563 222.782019) scale(0.12 -0.12)">
      <defs>
       <path id="DejaVuSans-31" d="M 794 531 
L 1825 531 
L 1825 4091 
L 703 3866 
L 703 4441 
L 1819 4666 
L 2450 4666 
L 2450 531 
L 3481 531 
L 3481 0 
L 794 0 
L 794 531 
z
" transform="scale(0.015625)"/>
      </defs>
      <use xlink:href="#DejaVuSans-31"/>
     </g>
    </g>
   </g>
   <g id="text_3">
    <g clip-path="url(#p0e508f586a)">
     <!-- 2 -->
     <g transform="translate(378.588898 288.322445) scale(0.12 -0.12)">
      <defs>
       <path id="DejaVuSans-32" d="M 1228 531 
L 3431 531 
L 3431 0 
L 469 0 
L 469 531 
Q 828 903 1448 1529 
Q 2069 2156 2228 2338 
Q 2531 2678 2651 2914 
Q 2772 3150 2772 3378 
Q 2772 3750 2511 3984 
Q 2250 4219 1831 4219 
Q 1534 4219 1204 4116 
Q 875 4013 500 3803 
L 500 4441 
Q 881 4594 1212 4672 
Q 1544 4750 1819 4750 
Q 2544 4750 2975 4387 
Q 3406 4025 3406 3419 
Q 3406 3131 3298 2873 
Q 3191 2616 2906 2266 
Q 2828 2175 2409 1742 
Q 1991 1309 1228 531 
z
" transform="scale(0.015625)"/>
      </defs>
      <use xlink:href="#DejaVuSans-32"/>
     </g>
    </g>
   </g>
   <g id="text_4">
    <g clip-path="url(#p0e508f586a)">
     <!-- 3 -->
     <g transform="translate(416.995723 300.59302) scale(0.12 -0.12)">
      <defs>
       <path id="DejaVuSans-33" d="M 2597 2516 
Q 3050 2419 3304 2112 
Q 3559 1806 3559 1356 
Q 3559 666 3084 287 
Q 2609 -91 1734 -91 
Q 1441 -91 1130 -33 
Q 819 25 488 141 
L 488 750 
Q 750 597 1062 519 
Q 1375 441 1716 441 
Q 2309 441 2620 675 
Q 2931 909 2931 1356 
Q 2931 1769 2642 2001 
Q 2353 2234 1838 2234 
L 1294 2234 
L 1294 2753 
L 1863 2753 
Q 2328 2753 2575 2939 
Q 2822 3125 2822 3475 
Q 2822 3834 2567 4026 
Q 2313 4219 1838 4219 
Q 1578 4219 1281 4162 
Q 984 4106 628 3988 
L 628 4550 
Q 988 4650 1302 4700 
Q 1616 4750 1894 4750 
Q 2613 4750 3031 4423 
Q 3450 4097 3450 3541 
Q 3450 3153 3228 2886 
Q 3006 2619 2597 2516 
z
" transform="scale(0.015625)"/>
      </defs>
      <use xlink:href="#DejaVuSans-33"/>
     </g>
    </g>
   </g>
   <g id="text_5">
    <g clip-path="url(#p0e508f586a)">
     <!-- 4 -->
     <g transform="translate(353.407212 262.340557) scale(0.12 -0.12)">
      <defs>
       <path id="DejaVuSans-34" d="M 2419 4116 
L 825 1625 
L 2419 1625 
L 2419 4116 
z
M 2253 4666 
L 3047 4666 
L 3047 1625 
L 3713 1625 
L 3713 1100 
L 3047 1100 
L 3047 0 
L 2419 0 
L 2419 1100 
L 313 1100 
L 313 1709 
L 2253 4666 
z
" transform="scale(0.015625)"/>
      </defs>
      <use xlink:href="#DejaVuSans-34"/>
     </g>
    </g>
   </g>
   <g id="text_6">
    <g clip-path="url(#p0e508f586a)">
     <!-- 5 -->
     <g transform="translate(385.780331 267.176264) scale(0.12 -0.12)">
      <defs>
       <path id="DejaVuSans-35" d="M 691 4666 
L 3169 4666 
L 3169 4134 
L 1269 4134 
L 1269 2991 
Q 1406 3038 1543 3061 
Q 1681 3084 1819 3084 
Q 2600 3084 3056 2656 
Q 3513 2228 3513 1497 
Q 3513 744 3044 326 
Q 2575 -91 1722 -91 
Q 1428 -91 1123 -41 
Q 819 9 494 109 
L 494 744 
Q 775 591 1075 516 
Q 1375 441 1709 441 
Q 2250 441 2565 725 
Q 2881 1009 2881 1497 
Q 2881 1984 2565 2268 
Q 2250 2553 1709 2553 
Q 1456 2553 1204 2497 
Q 953 2441 691 2322 
L 691 4666 
z
" transform="scale(0.015625)"/>
      </defs>
      <use xlink:href="#DejaVuSans-35"/>
     </g>
    </g>
   </g>
   <g id="text_7">
    <g clip-path="url(#p0e508f586a)">
     <!-- 6 -->
     <g transform="translate(398.301027 256.21458) scale(0.12 -0.12)">
      <defs>
       <path id="DejaVuSans-36" d="M 2113 2584 
Q 1688 2584 1439 2293 
Q 1191 2003 1191 1497 
Q 1191 994 1439 701 
Q 1688 409 2113 409 
Q 2538 409 2786 701 
Q 3034 994 3034 1497 
Q 3034 2003 2786 2293 
Q 2538 2584 2113 2584 
z
M 3366 4563 
L 3366 3988 
Q 3128 4100 2886 4159 
Q 2644 4219 2406 4219 
Q 1781 4219 1451 3797 
Q 1122 3375 1075 2522 
Q 1259 2794 1537 2939 
Q 1816 3084 2150 3084 
Q 2853 3084 3261 2657 
Q 3669 2231 3669 1497 
Q 3669 778 3244 343 
Q 2819 -91 2113 -91 
Q 1303 -91 875 529 
Q 447 1150 447 2328 
Q 447 3434 972 4092 
Q 1497 4750 2381 4750 
Q 2619 4750 2861 4703 
Q 3103 4656 3366 4563 
z
" transform="scale(0.015625)"/>
      </defs>
      <use xlink:href="#DejaVuSans-36"/>
     </g>
    </g>
   </g>
   <g id="text_8">
    <g clip-path="url(#p0e508f586a)">
     <!-- 7 -->
     <g transform="translate(414.504832 232.352079) scale(0.12 -0.12)">
      <defs>
       <path id="DejaVuSans-37" d="M 525 4666 
L 3525 4666 
L 3525 4397 
L 1831 0 
L 1172 0 
L 2766 4134 
L 525 4134 
L 525 4666 
z
" transform="scale(0.015625)"/>
      </defs>
      <use xlink:href="#DejaVuSans-37"/>
     </g>
    </g>
   </g>
   <g id="text_9">
    <g clip-path="url(#p0e508f586a)">
     <!-- 8 -->
     <g transform="translate(394.686777 232.480021) scale(0.12 -0.12)">
      <defs>
       <path id="DejaVuSans-38" d="M 2034 2216 
Q 1584 2216 1326 1975 
Q 1069 1734 1069 1313 
Q 1069 891 1326 650 
Q 1584 409 2034 409 
Q 2484 409 2743 651 
Q 3003 894 3003 1313 
Q 3003 1734 2745 1975 
Q 2488 2216 2034 2216 
z
M 1403 2484 
Q 997 2584 770 2862 
Q 544 3141 544 3541 
Q 544 4100 942 4425 
Q 1341 4750 2034 4750 
Q 2731 4750 3128 4425 
Q 3525 4100 3525 3541 
Q 3525 3141 3298 2862 
Q 3072 2584 2669 2484 
Q 3125 2378 3379 2068 
Q 3634 1759 3634 1313 
Q 3634 634 3220 271 
Q 2806 -91 2034 -91 
Q 1263 -91 848 271 
Q 434 634 434 1313 
Q 434 1759 690 2068 
Q 947 2378 1403 2484 
z
M 1172 3481 
Q 1172 3119 1398 2916 
Q 1625 2713 2034 2713 
Q 2441 2713 2670 2916 
Q 2900 3119 2900 3481 
Q 2900 3844 2670 4047 
Q 2441 4250 2034 4250 
Q 1625 4250 1398 4047 
Q 1172 3844 1172 3481 
z
" transform="scale(0.015625)"/>
      </defs>
      <use xlink:href="#DejaVuSans-38"/>
     </g>
    </g>
   </g>
   <g id="text_10">
    <g clip-path="url(#p0e508f586a)">
     <!-- 9 -->
     <g transform="translate(368.828866 252.361375) scale(0.12 -0.12)">
      <defs>
       <path id="DejaVuSans-39" d="M 703 97 
L 703 672 
Q 941 559 1184 500 
Q 1428 441 1663 441 
Q 2288 441 2617 861 
Q 2947 1281 2994 2138 
Q 2813 1869 2534 1725 
Q 2256 1581 1919 1581 
Q 1219 1581 811 2004 
Q 403 2428 403 3163 
Q 403 3881 828 4315 
Q 1253 4750 1959 4750 
Q 2769 4750 3195 4129 
Q 3622 3509 3622 2328 
Q 3622 1225 3098 567 
Q 2575 -91 1691 -91 
Q 1453 -91 1209 -44 
Q 966 3 703 97 
z
M 1959 2075 
Q 2384 2075 2632 2365 
Q 2881 2656 2881 3163 
Q 2881 3666 2632 3958 
Q 2384 4250 1959 4250 
Q 1534 4250 1286 3958 
Q 1038 3666 1038 3163 
Q 1038 2656 1286 2365 
Q 1534 2075 1959 2075 
z
" transform="scale(0.015625)"/>
      </defs>
      <use xlink:href="#DejaVuSans-39"/>
     </g>
    </g>
   </g>
   <g id="text_11">
    <g clip-path="url(#p0e508f586a)">
     <!-- 10 -->
     <g transform="translate(192.479208 268.021537) scale(0.12 -0.12)">
      <use xlink:href="#DejaVuSans-31"/>
      <use xlink:href="#DejaVuSans-30" x="63.623047"/>
     </g>
    </g>
   </g>
   <g id="text_12">
    <g clip-path="url(#p0e508f586a)">
     <!-- 11 -->
     <g transform="translate(119.261251 227.779373) scale(0.12 -0.12)">
      <use xlink:href="#DejaVuSans-31"/>
      <use xlink:href="#DejaVuSans-31" x="63.623047"/>
     </g>
    </g>
   </g>
   <g id="text_13">
    <g clip-path="url(#p0e508f586a)">
     <!-- 12 -->
     <g transform="translate(107.525791 318.921167) scale(0.12 -0.12)">
      <use xlink:href="#DejaVuSans-31"/>
      <use xlink:href="#DejaVuSans-32" x="63.623047"/>
     </g>
    </g>
   </g>
   <g id="text_14">
    <g clip-path="url(#p0e508f586a)">
     <!-- 13 -->
     <g transform="translate(94.412445 262.610828) scale(0.12 -0.12)">
      <use xlink:href="#DejaVuSans-31"/>
      <use xlink:href="#DejaVuSans-33" x="63.623047"/>
     </g>
    </g>
   </g>
   <g id="text_15">
    <g clip-path="url(#p0e508f586a)">
     <!-- 14 -->
     <g transform="translate(113.384845 268.968204) scale(0.12 -0.12)">
      <use xlink:href="#DejaVuSans-31"/>
      <use xlink:href="#DejaVuSans-34" x="63.623047"/>
     </g>
    </g>
   </g>
   <g id="text_16">
    <g clip-path="url(#p0e508f586a)">
     <!-- 15 -->
     <g transform="translate(143.046509 300.999128) scale(0.12 -0.12)">
      <use xlink:href="#DejaVuSans-31"/>
      <use xlink:href="#DejaVuSans-35" x="63.623047"/>
     </g>
    </g>
   </g>
   <g id="text_17">
    <g clip-path="url(#p0e508f586a)">
     <!-- 16 -->
     <g transform="translate(144.930654 264.347231) scale(0.12 -0.12)">
      <use xlink:href="#DejaVuSans-31"/>
      <use xlink:href="#DejaVuSans-36" x="63.623047"/>
     </g>
    </g>
   </g>
   <g id="text_18">
    <g clip-path="url(#p0e508f586a)">
     <!-- 17 -->
     <g transform="translate(109.150367 294.363569) scale(0.12 -0.12)">
      <use xlink:href="#DejaVuSans-31"/>
      <use xlink:href="#DejaVuSans-37" x="63.623047"/>
     </g>
    </g>
   </g>
   <g id="text_19">
    <g clip-path="url(#p0e508f586a)">
     <!-- 18 -->
     <g transform="translate(95.076174 281.305757) scale(0.12 -0.12)">
      <use xlink:href="#DejaVuSans-31"/>
      <use xlink:href="#DejaVuSans-38" x="63.623047"/>
     </g>
    </g>
   </g>
   <g id="text_20">
    <g clip-path="url(#p0e508f586a)">
     <!-- 19 -->
     <g transform="translate(129.927577 286.368738) scale(0.12 -0.12)">
      <use xlink:href="#DejaVuSans-31"/>
      <use xlink:href="#DejaVuSans-39" x="63.623047"/>
     </g>
    </g>
   </g>
   <g id="text_21">
    <g clip-path="url(#p0e508f586a)">
     <!-- 20 -->
     <g transform="translate(89.760371 128.590752) scale(0.12 -0.12)">
      <use xlink:href="#DejaVuSans-32"/>
      <use xlink:href="#DejaVuSans-30" x="63.623047"/>
     </g>
    </g>
   </g>
   <g id="text_22">
    <g clip-path="url(#p0e508f586a)">
     <!-- 21 -->
     <g transform="translate(145.411288 101.549359) scale(0.12 -0.12)">
      <use xlink:href="#DejaVuSans-32"/>
      <use xlink:href="#DejaVuSans-31" x="63.623047"/>
     </g>
    </g>
   </g>
   <g id="text_23">
    <g clip-path="url(#p0e508f586a)">
     <!-- 22 -->
     <g transform="translate(32.351777 64.434248) scale(0.12 -0.12)">
      <use xlink:href="#DejaVuSans-32"/>
      <use xlink:href="#DejaVuSans-32" x="63.623047"/>
     </g>
    </g>
   </g>
   <g id="text_24">
    <g clip-path="url(#p0e508f586a)">
     <!-- 23 -->
     <g transform="translate(59.755384 88.390169) scale(0.12 -0.12)">
      <use xlink:href="#DejaVuSans-32"/>
      <use xlink:href="#DejaVuSans-33" x="63.623047"/>
     </g>
    </g>
   </g>
   <g id="text_25">
    <g clip-path="url(#p0e508f586a)">
     <!-- 24 -->
     <g transform="translate(74.973802 33.301333) scale(0.12 -0.12)">
      <use xlink:href="#DejaVuSans-32"/>
      <use xlink:href="#DejaVuSans-34" x="63.623047"/>
     </g>
    </g>
   </g>
   <g id="text_26">
    <g clip-path="url(#p0e508f586a)">
     <!-- 25 -->
     <g transform="translate(109.992359 55.371958) scale(0.12 -0.12)">
      <use xlink:href="#DejaVuSans-32"/>
      <use xlink:href="#DejaVuSans-35" x="63.623047"/>
     </g>
    </g>
   </g>
   <g id="text_27">
    <g clip-path="url(#p0e508f586a)">
     <!-- 26 -->
     <g transform="translate(54.586203 61.106643) scale(0.12 -0.12)">
      <use xlink:href="#DejaVuSans-32"/>
      <use xlink:href="#DejaVuSans-36" x="63.623047"/>
     </g>
    </g>
   </g>
   <g id="text_28">
    <g clip-path="url(#p0e508f586a)">
     <!-- 27 -->
     <g transform="translate(90.739747 89.63433) scale(0.12 -0.12)">
      <use xlink:href="#DejaVuSans-32"/>
      <use xlink:href="#DejaVuSans-37" x="63.623047"/>
     </g>
    </g>
   </g>
   <g id="text_29">
    <g clip-path="url(#p0e508f586a)">
     <!-- 28 -->
     <g transform="translate(74.393624 70.933692) scale(0.12 -0.12)">
      <use xlink:href="#DejaVuSans-32"/>
      <use xlink:href="#DejaVuSans-38" x="63.623047"/>
     </g>
    </g>
   </g>
   <g id="text_30">
    <g clip-path="url(#p0e508f586a)">
     <!-- 29 -->
     <g transform="translate(39.655598 94.745935) scale(0.12 -0.12)">
      <use xlink:href="#DejaVuSans-32"/>
      <use xlink:href="#DejaVuSans-39" x="63.623047"/>
     </g>
    </g>
   </g>
   <g id="text_31">
    <g clip-path="url(#p0e508f586a)">
     <!-- 30 -->
     <g transform="translate(234.805506 131.186112) scale(0.12 -0.12)">
      <use xlink:href="#DejaVuSans-33"/>
      <use xlink:href="#DejaVuSans-30" x="63.623047"/>
     </g>
    </g>
   </g>
   <g id="text_32">
    <g clip-path="url(#p0e508f586a)">
     <!-- 31 -->
     <g transform="translate(299.577991 158.906779) scale(0.12 -0.12)">
      <use xlink:href="#DejaVuSans-33"/>
      <use xlink:href="#DejaVuSans-31" x="63.623047"/>
     </g>
    </g>
   </g>
   <g id="text_33">
    <g clip-path="url(#p0e508f586a)">
     <!-- 32 -->
     <g transform="translate(230.472527 170.792679) scale(0.12 -0.12)">
      <use xlink:href="#DejaVuSans-33"/>
      <use xlink:href="#DejaVuSans-32" x="63.623047"/>
     </g>
    </g>
   </g>
   <g id="text_34">
    <g clip-path="url(#p0e508f586a)">
     <!-- 33 -->
     <g transform="translate(245.097233 157.718691) scale(0.12 -0.12)">
      <use xlink:href="#DejaVuSans-33"/>
      <use xlink:href="#DejaVuSans-33" x="63.623047"/>
     </g>
    </g>
   </g>
   <g id="text_35">
    <g clip-path="url(#p0e508f586a)">
     <!-- 34 -->
     <g transform="translate(271.728432 130.078086) scale(0.12 -0.12)">
      <use xlink:href="#DejaVuSans-33"/>
      <use xlink:href="#DejaVuSans-34" x="63.623047"/>
     </g>
    </g>
   </g>
   <g id="text_36">
    <g clip-path="url(#p0e508f586a)">
     <!-- 35 -->
     <g transform="translate(283.452192 143.806794) scale(0.12 -0.12)">
      <use xlink:href="#DejaVuSans-33"/>
      <use xlink:href="#DejaVuSans-35" x="63.623047"/>
     </g>
    </g>
   </g>
   <g id="text_37">
    <g clip-path="url(#p0e508f586a)">
     <!-- 36 -->
     <g transform="translate(257.436022 140.908282) scale(0.12 -0.12)">
      <use xlink:href="#DejaVuSans-33"/>
      <use xlink:href="#DejaVuSans-36" x="63.623047"/>
     </g>
    </g>
   </g>
   <g id="text_38">
    <g clip-path="url(#p0e508f586a)">
     <!-- 37 -->
     <g transform="translate(284.287337 114.550434) scale(0.12 -0.12)">
      <use xlink:href="#DejaVuSans-33"/>
      <use xlink:href="#DejaVuSans-37" x="63.623047"/>
     </g>
    </g>
   </g>
   <g id="text_39">
    <g clip-path="url(#p0e508f586a)">
     <!-- 38 -->
     <g transform="translate(266.521416 154.354913) scale(0.12 -0.12)">
      <use xlink:href="#DejaVuSans-33"/>
      <use xlink:href="#DejaVuSans-38" x="63.623047"/>
     </g>
    </g>
   </g>
   <g id="text_40">
    <g clip-path="url(#p0e508f586a)">
     <!-- 39 -->
     <g transform="translate(297.933785 132.821091) scale(0.12 -0.12)">
      <use xlink:href="#DejaVuSans-33"/>
      <use xlink:href="#DejaVuSans-39" x="63.623047"/>
     </g>
    </g>
   </g>
  </g>
 </g>
 <defs>
  <clipPath id="p0e508f586a">
   <rect x="0" y="0" width="460.8" height="345.6"/>
  </clipPath>
 </defs>
</svg>
