<?xml version="1.0" encoding="utf-8" standalone="no"?>
<!DOCTYPE svg PUBLIC "-//W3C//DTD SVG 1.1//EN"
  "http://www.w3.org/Graphics/SVG/1.1/DTD/svg11.dtd">
<svg xmlns:xlink="http://www.w3.org/1999/xlink" width="460.8pt" height="345.6pt" viewBox="0 0 460.8 345.6" xmlns="http://www.w3.org/2000/svg" version="1.1">
 <metadata>
  <rdf:RDF xmlns:dc="http://purl.org/dc/elements/1.1/" xmlns:cc="http://creativecommons.org/ns#" xmlns:rdf="http://www.w3.org/1999/02/22-rdf-syntax-ns#">
   <cc:Work>
    <dc:type rdf:resource="http://purl.org/dc/dcmitype/StillImage"/>
    <dc:date>2024-04-17T15:33:56.785037</dc:date>
    <dc:format>image/svg+xml</dc:format>
    <dc:creator>
     <cc:Agent>
      <dc:title>Matplotlib v3.8.3, https://matplotlib.org/</dc:title>
     </cc:Agent>
    </dc:creator>
   </cc:Work>
  </rdf:RDF>
 </metadata>
 <defs>
  <style type="text/css">*{stroke-linejoin: round; stroke-linecap: butt}</style>
 </defs>
 <g id="figure_1">
  <g id="patch_1">
   <path d="M 0 345.6 
L 460.8 345.6 
L 460.8 0 
L 0 0 
z
" style="fill: #ffffff"/>
  </g>
  <g id="axes_1">
   <g id="LineCollection_1">
    <path d="M 281.297733 279.150681 
L 357.521242 299.669637 
" clip-path="url(#p0f998679ca)" style="fill: none; stroke: #000000"/>
    <path d="M 281.297733 279.150681 
L 345.758075 315.609917 
" clip-path="url(#p0f998679ca)" style="fill: none; stroke: #000000"/>
    <path d="M 281.297733 279.150681 
L 356.00357 279.542285 
" clip-path="url(#p0f998679ca)" style="fill: none; stroke: #000000"/>
    <path d="M 281.297733 279.150681 
L 324.271503 283.55835 
" clip-path="url(#p0f998679ca)" style="fill: none; stroke: #000000"/>
    <path d="M 281.297733 279.150681 
L 341.751568 266.039179 
" clip-path="url(#p0f998679ca)" style="fill: none; stroke: #000000"/>
    <path d="M 281.297733 279.150681 
L 313.258308 307.421965 
" clip-path="url(#p0f998679ca)" style="fill: none; stroke: #000000"/>
    <path d="M 281.297733 279.150681 
L 154.207356 230.661224 
" clip-path="url(#p0f998679ca)" style="fill: none; stroke: #000000"/>
    <path d="M 381.352361 224.138166 
L 356.00357 279.542285 
" clip-path="url(#p0f998679ca)" style="fill: none; stroke: #000000"/>
    <path d="M 381.352361 224.138166 
L 341.751568 266.039179 
" clip-path="url(#p0f998679ca)" style="fill: none; stroke: #000000"/>
    <path d="M 381.352361 224.138166 
L 399.221566 284.214978 
" clip-path="url(#p0f998679ca)" style="fill: none; stroke: #000000"/>
    <path d="M 381.352361 224.138166 
L 382.753178 258.847877 
" clip-path="url(#p0f998679ca)" style="fill: none; stroke: #000000"/>
    <path d="M 381.352361 224.138166 
L 377.455092 128.31246 
" clip-path="url(#p0f998679ca)" style="fill: none; stroke: #000000"/>
    <path d="M 357.521242 299.669637 
L 356.00357 279.542285 
" clip-path="url(#p0f998679ca)" style="fill: none; stroke: #000000"/>
    <path d="M 357.521242 299.669637 
L 341.751568 266.039179 
" clip-path="url(#p0f998679ca)" style="fill: none; stroke: #000000"/>
    <path d="M 357.521242 299.669637 
L 399.221566 284.214978 
" clip-path="url(#p0f998679ca)" style="fill: none; stroke: #000000"/>
    <path d="M 345.758075 315.609917 
L 356.00357 279.542285 
" clip-path="url(#p0f998679ca)" style="fill: none; stroke: #000000"/>
    <path d="M 345.758075 315.609917 
L 313.258308 307.421965 
" clip-path="url(#p0f998679ca)" style="fill: none; stroke: #000000"/>
    <path d="M 345.758075 315.609917 
L 399.221566 284.214978 
" clip-path="url(#p0f998679ca)" style="fill: none; stroke: #000000"/>
    <path d="M 356.00357 279.542285 
L 324.271503 283.55835 
" clip-path="url(#p0f998679ca)" style="fill: none; stroke: #000000"/>
    <path d="M 356.00357 279.542285 
L 341.751568 266.039179 
" clip-path="url(#p0f998679ca)" style="fill: none; stroke: #000000"/>
    <path d="M 356.00357 279.542285 
L 313.258308 307.421965 
" clip-path="url(#p0f998679ca)" style="fill: none; stroke: #000000"/>
    <path d="M 356.00357 279.542285 
L 399.221566 284.214978 
" clip-path="url(#p0f998679ca)" style="fill: none; stroke: #000000"/>
    <path d="M 356.00357 279.542285 
L 382.753178 258.847877 
" clip-path="url(#p0f998679ca)" style="fill: none; stroke: #000000"/>
    <path d="M 324.271503 283.55835 
L 382.753178 258.847877 
" clip-path="url(#p0f998679ca)" style="fill: none; stroke: #000000"/>
    <path d="M 341.751568 266.039179 
L 313.258308 307.421965 
" clip-path="url(#p0f998679ca)" style="fill: none; stroke: #000000"/>
    <path d="M 341.751568 266.039179 
L 382.753178 258.847877 
" clip-path="url(#p0f998679ca)" style="fill: none; stroke: #000000"/>
    <path d="M 154.207356 230.661224 
L 128.191056 207.641115 
" clip-path="url(#p0f998679ca)" style="fill: none; stroke: #000000"/>
    <path d="M 154.207356 230.661224 
L 103.800174 213.485059 
" clip-path="url(#p0f998679ca)" style="fill: none; stroke: #000000"/>
    <path d="M 154.207356 230.661224 
L 74.834332 185.571252 
" clip-path="url(#p0f998679ca)" style="fill: none; stroke: #000000"/>
    <path d="M 154.207356 230.661224 
L 122.35717 180.169441 
" clip-path="url(#p0f998679ca)" style="fill: none; stroke: #000000"/>
    <path d="M 154.207356 230.661224 
L 83.719933 235.759929 
" clip-path="url(#p0f998679ca)" style="fill: none; stroke: #000000"/>
    <path d="M 161.620044 164.608436 
L 128.191056 207.641115 
" clip-path="url(#p0f998679ca)" style="fill: none; stroke: #000000"/>
    <path d="M 161.620044 164.608436 
L 103.800174 213.485059 
" clip-path="url(#p0f998679ca)" style="fill: none; stroke: #000000"/>
    <path d="M 161.620044 164.608436 
L 94.352017 151.113676 
" clip-path="url(#p0f998679ca)" style="fill: none; stroke: #000000"/>
    <path d="M 161.620044 164.608436 
L 122.35717 180.169441 
" clip-path="url(#p0f998679ca)" style="fill: none; stroke: #000000"/>
    <path d="M 161.620044 164.608436 
L 87.97153 198.526024 
" clip-path="url(#p0f998679ca)" style="fill: none; stroke: #000000"/>
    <path d="M 161.620044 164.608436 
L 294.368136 114.271833 
" clip-path="url(#p0f998679ca)" style="fill: none; stroke: #000000"/>
    <path d="M 128.191056 207.641115 
L 103.800174 213.485059 
" clip-path="url(#p0f998679ca)" style="fill: none; stroke: #000000"/>
    <path d="M 128.191056 207.641115 
L 87.97153 198.526024 
" clip-path="url(#p0f998679ca)" style="fill: none; stroke: #000000"/>
    <path d="M 128.191056 207.641115 
L 83.719933 235.759929 
" clip-path="url(#p0f998679ca)" style="fill: none; stroke: #000000"/>
    <path d="M 39.986777 225.582452 
L 103.800174 213.485059 
" clip-path="url(#p0f998679ca)" style="fill: none; stroke: #000000"/>
    <path d="M 39.986777 225.582452 
L 87.97153 198.526024 
" clip-path="url(#p0f998679ca)" style="fill: none; stroke: #000000"/>
    <path d="M 39.986777 225.582452 
L 83.719933 235.759929 
" clip-path="url(#p0f998679ca)" style="fill: none; stroke: #000000"/>
    <path d="M 94.352017 151.113676 
L 74.834332 185.571252 
" clip-path="url(#p0f998679ca)" style="fill: none; stroke: #000000"/>
    <path d="M 94.352017 151.113676 
L 122.35717 180.169441 
" clip-path="url(#p0f998679ca)" style="fill: none; stroke: #000000"/>
    <path d="M 74.834332 185.571252 
L 87.97153 198.526024 
" clip-path="url(#p0f998679ca)" style="fill: none; stroke: #000000"/>
    <path d="M 122.35717 180.169441 
L 87.97153 198.526024 
" clip-path="url(#p0f998679ca)" style="fill: none; stroke: #000000"/>
    <path d="M 87.97153 198.526024 
L 83.719933 235.759929 
" clip-path="url(#p0f998679ca)" style="fill: none; stroke: #000000"/>
    <path d="M 294.368136 114.271833 
L 377.455092 128.31246 
" clip-path="url(#p0f998679ca)" style="fill: none; stroke: #000000"/>
    <path d="M 294.368136 114.271833 
L 360.310732 91.299369 
" clip-path="url(#p0f998679ca)" style="fill: none; stroke: #000000"/>
    <path d="M 294.368136 114.271833 
L 340.363748 60.011511 
" clip-path="url(#p0f998679ca)" style="fill: none; stroke: #000000"/>
    <path d="M 294.368136 114.271833 
L 333.375905 98.181479 
" clip-path="url(#p0f998679ca)" style="fill: none; stroke: #000000"/>
    <path d="M 294.368136 114.271833 
L 371.456535 103.958189 
" clip-path="url(#p0f998679ca)" style="fill: none; stroke: #000000"/>
    <path d="M 377.455092 128.31246 
L 360.310732 91.299369 
" clip-path="url(#p0f998679ca)" style="fill: none; stroke: #000000"/>
    <path d="M 377.455092 128.31246 
L 374.78249 74.955712 
" clip-path="url(#p0f998679ca)" style="fill: none; stroke: #000000"/>
    <path d="M 377.455092 128.31246 
L 420.813223 102.905358 
" clip-path="url(#p0f998679ca)" style="fill: none; stroke: #000000"/>
    <path d="M 377.455092 128.31246 
L 391.948983 60.133377 
" clip-path="url(#p0f998679ca)" style="fill: none; stroke: #000000"/>
    <path d="M 379.810765 29.990083 
L 374.78249 74.955712 
" clip-path="url(#p0f998679ca)" style="fill: none; stroke: #000000"/>
    <path d="M 379.810765 29.990083 
L 391.948983 60.133377 
" clip-path="url(#p0f998679ca)" style="fill: none; stroke: #000000"/>
    <path d="M 379.810765 29.990083 
L 340.363748 60.011511 
" clip-path="url(#p0f998679ca)" style="fill: none; stroke: #000000"/>
    <path d="M 360.310732 91.299369 
L 374.78249 74.955712 
" clip-path="url(#p0f998679ca)" style="fill: none; stroke: #000000"/>
    <path d="M 360.310732 91.299369 
L 420.813223 102.905358 
" clip-path="url(#p0f998679ca)" style="fill: none; stroke: #000000"/>
    <path d="M 360.310732 91.299369 
L 340.363748 60.011511 
" clip-path="url(#p0f998679ca)" style="fill: none; stroke: #000000"/>
    <path d="M 374.78249 74.955712 
L 340.363748 60.011511 
" clip-path="url(#p0f998679ca)" style="fill: none; stroke: #000000"/>
    <path d="M 374.78249 74.955712 
L 333.375905 98.181479 
" clip-path="url(#p0f998679ca)" style="fill: none; stroke: #000000"/>
    <path d="M 374.78249 74.955712 
L 371.456535 103.958189 
" clip-path="url(#p0f998679ca)" style="fill: none; stroke: #000000"/>
    <path d="M 420.813223 102.905358 
L 371.456535 103.958189 
" clip-path="url(#p0f998679ca)" style="fill: none; stroke: #000000"/>
    <path d="M 391.948983 60.133377 
L 340.363748 60.011511 
" clip-path="url(#p0f998679ca)" style="fill: none; stroke: #000000"/>
    <path d="M 333.375905 98.181479 
L 371.456535 103.958189 
" clip-path="url(#p0f998679ca)" style="fill: none; stroke: #000000"/>
   </g>
   <g id="PathCollection_1">
    <defs>
     <path id="m5e8524e80b" d="M 0 8.660254 
C 2.296726 8.660254 4.499694 7.747755 6.123724 6.123724 
C 7.747755 4.499694 8.660254 2.296726 8.660254 0 
C 8.660254 -2.296726 7.747755 -4.499694 6.123724 -6.123724 
C 4.499694 -7.747755 2.296726 -8.660254 0 -8.660254 
C -2.296726 -8.660254 -4.499694 -7.747755 -6.123724 -6.123724 
C -7.747755 -4.499694 -8.660254 -2.296726 -8.660254 0 
C -8.660254 2.296726 -7.747755 4.499694 -6.123724 6.123724 
C -4.499694 7.747755 -2.296726 8.660254 0 8.660254 
z
" style="stroke: #1f78b4"/>
    </defs>
    <g clip-path="url(#p0f998679ca)">
     <use xlink:href="#m5e8524e80b" x="281.297733" y="279.150681" style="fill: #1f78b4; stroke: #1f78b4"/>
     <use xlink:href="#m5e8524e80b" x="381.352361" y="224.138166" style="fill: #1f78b4; stroke: #1f78b4"/>
     <use xlink:href="#m5e8524e80b" x="357.521242" y="299.669637" style="fill: #1f78b4; stroke: #1f78b4"/>
     <use xlink:href="#m5e8524e80b" x="345.758075" y="315.609917" style="fill: #1f78b4; stroke: #1f78b4"/>
     <use xlink:href="#m5e8524e80b" x="356.00357" y="279.542285" style="fill: #1f78b4; stroke: #1f78b4"/>
     <use xlink:href="#m5e8524e80b" x="324.271503" y="283.55835" style="fill: #1f78b4; stroke: #1f78b4"/>
     <use xlink:href="#m5e8524e80b" x="341.751568" y="266.039179" style="fill: #1f78b4; stroke: #1f78b4"/>
     <use xlink:href="#m5e8524e80b" x="313.258308" y="307.421965" style="fill: #1f78b4; stroke: #1f78b4"/>
     <use xlink:href="#m5e8524e80b" x="399.221566" y="284.214978" style="fill: #1f78b4; stroke: #1f78b4"/>
     <use xlink:href="#m5e8524e80b" x="382.753178" y="258.847877" style="fill: #1f78b4; stroke: #1f78b4"/>
     <use xlink:href="#m5e8524e80b" x="154.207356" y="230.661224" style="fill: #1f78b4; stroke: #1f78b4"/>
     <use xlink:href="#m5e8524e80b" x="161.620044" y="164.608436" style="fill: #1f78b4; stroke: #1f78b4"/>
     <use xlink:href="#m5e8524e80b" x="128.191056" y="207.641115" style="fill: #1f78b4; stroke: #1f78b4"/>
     <use xlink:href="#m5e8524e80b" x="39.986777" y="225.582452" style="fill: #1f78b4; stroke: #1f78b4"/>
     <use xlink:href="#m5e8524e80b" x="103.800174" y="213.485059" style="fill: #1f78b4; stroke: #1f78b4"/>
     <use xlink:href="#m5e8524e80b" x="94.352017" y="151.113676" style="fill: #1f78b4; stroke: #1f78b4"/>
     <use xlink:href="#m5e8524e80b" x="74.834332" y="185.571252" style="fill: #1f78b4; stroke: #1f78b4"/>
     <use xlink:href="#m5e8524e80b" x="122.35717" y="180.169441" style="fill: #1f78b4; stroke: #1f78b4"/>
     <use xlink:href="#m5e8524e80b" x="87.97153" y="198.526024" style="fill: #1f78b4; stroke: #1f78b4"/>
     <use xlink:href="#m5e8524e80b" x="83.719933" y="235.759929" style="fill: #1f78b4; stroke: #1f78b4"/>
     <use xlink:href="#m5e8524e80b" x="294.368136" y="114.271833" style="fill: #1f78b4; stroke: #1f78b4"/>
     <use xlink:href="#m5e8524e80b" x="377.455092" y="128.31246" style="fill: #1f78b4; stroke: #1f78b4"/>
     <use xlink:href="#m5e8524e80b" x="379.810765" y="29.990083" style="fill: #1f78b4; stroke: #1f78b4"/>
     <use xlink:href="#m5e8524e80b" x="360.310732" y="91.299369" style="fill: #1f78b4; stroke: #1f78b4"/>
     <use xlink:href="#m5e8524e80b" x="374.78249" y="74.955712" style="fill: #1f78b4; stroke: #1f78b4"/>
     <use xlink:href="#m5e8524e80b" x="420.813223" y="102.905358" style="fill: #1f78b4; stroke: #1f78b4"/>
     <use xlink:href="#m5e8524e80b" x="391.948983" y="60.133377" style="fill: #1f78b4; stroke: #1f78b4"/>
     <use xlink:href="#m5e8524e80b" x="340.363748" y="60.011511" style="fill: #1f78b4; stroke: #1f78b4"/>
     <use xlink:href="#m5e8524e80b" x="333.375905" y="98.181479" style="fill: #1f78b4; stroke: #1f78b4"/>
     <use xlink:href="#m5e8524e80b" x="371.456535" y="103.958189" style="fill: #1f78b4; stroke: #1f78b4"/>
    </g>
   </g>
   <g id="text_1">
    <g clip-path="url(#p0f998679ca)">
     <!-- 0 -->
     <g transform="translate(277.480233 282.461931) scale(0.12 -0.12)">
      <defs>
       <path id="DejaVuSans-30" d="M 2034 4250 
Q 1547 4250 1301 3770 
Q 1056 3291 1056 2328 
Q 1056 1369 1301 889 
Q 1547 409 2034 409 
Q 2525 409 2770 889 
Q 3016 1369 3016 2328 
Q 3016 3291 2770 3770 
Q 2525 4250 2034 4250 
z
M 2034 4750 
Q 2819 4750 3233 4129 
Q 3647 3509 3647 2328 
Q 3647 1150 3233 529 
Q 2819 -91 2034 -91 
Q 1250 -91 836 529 
Q 422 1150 422 2328 
Q 422 3509 836 4129 
Q 1250 4750 2034 4750 
z
" transform="scale(0.015625)"/>
      </defs>
      <use xlink:href="#DejaVuSans-30"/>
     </g>
    </g>
   </g>
   <g id="text_2">
    <g clip-path="url(#p0f998679ca)">
     <!-- 1 -->
     <g transform="translate(377.534861 227.449416) scale(0.12 -0.12)">
      <defs>
       <path id="DejaVuSans-31" d="M 794 531 
L 1825 531 
L 1825 4091 
L 703 3866 
L 703 4441 
L 1819 4666 
L 2450 4666 
L 2450 531 
L 3481 531 
L 3481 0 
L 794 0 
L 794 531 
z
" transform="scale(0.015625)"/>
      </defs>
      <use xlink:href="#DejaVuSans-31"/>
     </g>
    </g>
   </g>
   <g id="text_3">
    <g clip-path="url(#p0f998679ca)">
     <!-- 2 -->
     <g transform="translate(353.703742 302.980887) scale(0.12 -0.12)">
      <defs>
       <path id="DejaVuSans-32" d="M 1228 531 
L 3431 531 
L 3431 0 
L 469 0 
L 469 531 
Q 828 903 1448 1529 
Q 2069 2156 2228 2338 
Q 2531 2678 2651 2914 
Q 2772 3150 2772 3378 
Q 2772 3750 2511 3984 
Q 2250 4219 1831 4219 
Q 1534 4219 1204 4116 
Q 875 4013 500 3803 
L 500 4441 
Q 881 4594 1212 4672 
Q 1544 4750 1819 4750 
Q 2544 4750 2975 4387 
Q 3406 4025 3406 3419 
Q 3406 3131 3298 2873 
Q 3191 2616 2906 2266 
Q 2828 2175 2409 1742 
Q 1991 1309 1228 531 
z
" transform="scale(0.015625)"/>
      </defs>
      <use xlink:href="#DejaVuSans-32"/>
     </g>
    </g>
   </g>
   <g id="text_4">
    <g clip-path="url(#p0f998679ca)">
     <!-- 3 -->
     <g transform="translate(341.940575 318.921167) scale(0.12 -0.12)">
      <defs>
       <path id="DejaVuSans-33" d="M 2597 2516 
Q 3050 2419 3304 2112 
Q 3559 1806 3559 1356 
Q 3559 666 3084 287 
Q 2609 -91 1734 -91 
Q 1441 -91 1130 -33 
Q 819 25 488 141 
L 488 750 
Q 750 597 1062 519 
Q 1375 441 1716 441 
Q 2309 441 2620 675 
Q 2931 909 2931 1356 
Q 2931 1769 2642 2001 
Q 2353 2234 1838 2234 
L 1294 2234 
L 1294 2753 
L 1863 2753 
Q 2328 2753 2575 2939 
Q 2822 3125 2822 3475 
Q 2822 3834 2567 4026 
Q 2313 4219 1838 4219 
Q 1578 4219 1281 4162 
Q 984 4106 628 3988 
L 628 4550 
Q 988 4650 1302 4700 
Q 1616 4750 1894 4750 
Q 2613 4750 3031 4423 
Q 3450 4097 3450 3541 
Q 3450 3153 3228 2886 
Q 3006 2619 2597 2516 
z
" transform="scale(0.015625)"/>
      </defs>
      <use xlink:href="#DejaVuSans-33"/>
     </g>
    </g>
   </g>
   <g id="text_5">
    <g clip-path="url(#p0f998679ca)">
     <!-- 4 -->
     <g transform="translate(352.18607 282.853535) scale(0.12 -0.12)">
      <defs>
       <path id="DejaVuSans-34" d="M 2419 4116 
L 825 1625 
L 2419 1625 
L 2419 4116 
z
M 2253 4666 
L 3047 4666 
L 3047 1625 
L 3713 1625 
L 3713 1100 
L 3047 1100 
L 3047 0 
L 2419 0 
L 2419 1100 
L 313 1100 
L 313 1709 
L 2253 4666 
z
" transform="scale(0.015625)"/>
      </defs>
      <use xlink:href="#DejaVuSans-34"/>
     </g>
    </g>
   </g>
   <g id="text_6">
    <g clip-path="url(#p0f998679ca)">
     <!-- 5 -->
     <g transform="translate(320.454003 286.8696) scale(0.12 -0.12)">
      <defs>
       <path id="DejaVuSans-35" d="M 691 4666 
L 3169 4666 
L 3169 4134 
L 1269 4134 
L 1269 2991 
Q 1406 3038 1543 3061 
Q 1681 3084 1819 3084 
Q 2600 3084 3056 2656 
Q 3513 2228 3513 1497 
Q 3513 744 3044 326 
Q 2575 -91 1722 -91 
Q 1428 -91 1123 -41 
Q 819 9 494 109 
L 494 744 
Q 775 591 1075 516 
Q 1375 441 1709 441 
Q 2250 441 2565 725 
Q 2881 1009 2881 1497 
Q 2881 1984 2565 2268 
Q 2250 2553 1709 2553 
Q 1456 2553 1204 2497 
Q 953 2441 691 2322 
L 691 4666 
z
" transform="scale(0.015625)"/>
      </defs>
      <use xlink:href="#DejaVuSans-35"/>
     </g>
    </g>
   </g>
   <g id="text_7">
    <g clip-path="url(#p0f998679ca)">
     <!-- 6 -->
     <g transform="translate(337.934068 269.350429) scale(0.12 -0.12)">
      <defs>
       <path id="DejaVuSans-36" d="M 2113 2584 
Q 1688 2584 1439 2293 
Q 1191 2003 1191 1497 
Q 1191 994 1439 701 
Q 1688 409 2113 409 
Q 2538 409 2786 701 
Q 3034 994 3034 1497 
Q 3034 2003 2786 2293 
Q 2538 2584 2113 2584 
z
M 3366 4563 
L 3366 3988 
Q 3128 4100 2886 4159 
Q 2644 4219 2406 4219 
Q 1781 4219 1451 3797 
Q 1122 3375 1075 2522 
Q 1259 2794 1537 2939 
Q 1816 3084 2150 3084 
Q 2853 3084 3261 2657 
Q 3669 2231 3669 1497 
Q 3669 778 3244 343 
Q 2819 -91 2113 -91 
Q 1303 -91 875 529 
Q 447 1150 447 2328 
Q 447 3434 972 4092 
Q 1497 4750 2381 4750 
Q 2619 4750 2861 4703 
Q 3103 4656 3366 4563 
z
" transform="scale(0.015625)"/>
      </defs>
      <use xlink:href="#DejaVuSans-36"/>
     </g>
    </g>
   </g>
   <g id="text_8">
    <g clip-path="url(#p0f998679ca)">
     <!-- 7 -->
     <g transform="translate(309.440808 310.733215) scale(0.12 -0.12)">
      <defs>
       <path id="DejaVuSans-37" d="M 525 4666 
L 3525 4666 
L 3525 4397 
L 1831 0 
L 1172 0 
L 2766 4134 
L 525 4134 
L 525 4666 
z
" transform="scale(0.015625)"/>
      </defs>
      <use xlink:href="#DejaVuSans-37"/>
     </g>
    </g>
   </g>
   <g id="text_9">
    <g clip-path="url(#p0f998679ca)">
     <!-- 8 -->
     <g transform="translate(395.404066 287.526228) scale(0.12 -0.12)">
      <defs>
       <path id="DejaVuSans-38" d="M 2034 2216 
Q 1584 2216 1326 1975 
Q 1069 1734 1069 1313 
Q 1069 891 1326 650 
Q 1584 409 2034 409 
Q 2484 409 2743 651 
Q 3003 894 3003 1313 
Q 3003 1734 2745 1975 
Q 2488 2216 2034 2216 
z
M 1403 2484 
Q 997 2584 770 2862 
Q 544 3141 544 3541 
Q 544 4100 942 4425 
Q 1341 4750 2034 4750 
Q 2731 4750 3128 4425 
Q 3525 4100 3525 3541 
Q 3525 3141 3298 2862 
Q 3072 2584 2669 2484 
Q 3125 2378 3379 2068 
Q 3634 1759 3634 1313 
Q 3634 634 3220 271 
Q 2806 -91 2034 -91 
Q 1263 -91 848 271 
Q 434 634 434 1313 
Q 434 1759 690 2068 
Q 947 2378 1403 2484 
z
M 1172 3481 
Q 1172 3119 1398 2916 
Q 1625 2713 2034 2713 
Q 2441 2713 2670 2916 
Q 2900 3119 2900 3481 
Q 2900 3844 2670 4047 
Q 2441 4250 2034 4250 
Q 1625 4250 1398 4047 
Q 1172 3844 1172 3481 
z
" transform="scale(0.015625)"/>
      </defs>
      <use xlink:href="#DejaVuSans-38"/>
     </g>
    </g>
   </g>
   <g id="text_10">
    <g clip-path="url(#p0f998679ca)">
     <!-- 9 -->
     <g transform="translate(378.935678 262.159127) scale(0.12 -0.12)">
      <defs>
       <path id="DejaVuSans-39" d="M 703 97 
L 703 672 
Q 941 559 1184 500 
Q 1428 441 1663 441 
Q 2288 441 2617 861 
Q 2947 1281 2994 2138 
Q 2813 1869 2534 1725 
Q 2256 1581 1919 1581 
Q 1219 1581 811 2004 
Q 403 2428 403 3163 
Q 403 3881 828 4315 
Q 1253 4750 1959 4750 
Q 2769 4750 3195 4129 
Q 3622 3509 3622 2328 
Q 3622 1225 3098 567 
Q 2575 -91 1691 -91 
Q 1453 -91 1209 -44 
Q 966 3 703 97 
z
M 1959 2075 
Q 2384 2075 2632 2365 
Q 2881 2656 2881 3163 
Q 2881 3666 2632 3958 
Q 2384 4250 1959 4250 
Q 1534 4250 1286 3958 
Q 1038 3666 1038 3163 
Q 1038 2656 1286 2365 
Q 1534 2075 1959 2075 
z
" transform="scale(0.015625)"/>
      </defs>
      <use xlink:href="#DejaVuSans-39"/>
     </g>
    </g>
   </g>
   <g id="text_11">
    <g clip-path="url(#p0f998679ca)">
     <!-- 10 -->
     <g transform="translate(146.572356 233.972474) scale(0.12 -0.12)">
      <use xlink:href="#DejaVuSans-31"/>
      <use xlink:href="#DejaVuSans-30" x="63.623047"/>
     </g>
    </g>
   </g>
   <g id="text_12">
    <g clip-path="url(#p0f998679ca)">
     <!-- 11 -->
     <g transform="translate(153.985044 167.919686) scale(0.12 -0.12)">
      <use xlink:href="#DejaVuSans-31"/>
      <use xlink:href="#DejaVuSans-31" x="63.623047"/>
     </g>
    </g>
   </g>
   <g id="text_13">
    <g clip-path="url(#p0f998679ca)">
     <!-- 12 -->
     <g transform="translate(120.556056 210.952365) scale(0.12 -0.12)">
      <use xlink:href="#DejaVuSans-31"/>
      <use xlink:href="#DejaVuSans-32" x="63.623047"/>
     </g>
    </g>
   </g>
   <g id="text_14">
    <g clip-path="url(#p0f998679ca)">
     <!-- 13 -->
     <g transform="translate(32.351777 228.893702) scale(0.12 -0.12)">
      <use xlink:href="#DejaVuSans-31"/>
      <use xlink:href="#DejaVuSans-33" x="63.623047"/>
     </g>
    </g>
   </g>
   <g id="text_15">
    <g clip-path="url(#p0f998679ca)">
     <!-- 14 -->
     <g transform="translate(96.165174 216.796309) scale(0.12 -0.12)">
      <use xlink:href="#DejaVuSans-31"/>
      <use xlink:href="#DejaVuSans-34" x="63.623047"/>
     </g>
    </g>
   </g>
   <g id="text_16">
    <g clip-path="url(#p0f998679ca)">
     <!-- 15 -->
     <g transform="translate(86.717017 154.424926) scale(0.12 -0.12)">
      <use xlink:href="#DejaVuSans-31"/>
      <use xlink:href="#DejaVuSans-35" x="63.623047"/>
     </g>
    </g>
   </g>
   <g id="text_17">
    <g clip-path="url(#p0f998679ca)">
     <!-- 16 -->
     <g transform="translate(67.199332 188.882502) scale(0.12 -0.12)">
      <use xlink:href="#DejaVuSans-31"/>
      <use xlink:href="#DejaVuSans-36" x="63.623047"/>
     </g>
    </g>
   </g>
   <g id="text_18">
    <g clip-path="url(#p0f998679ca)">
     <!-- 17 -->
     <g transform="translate(114.72217 183.480691) scale(0.12 -0.12)">
      <use xlink:href="#DejaVuSans-31"/>
      <use xlink:href="#DejaVuSans-37" x="63.623047"/>
     </g>
    </g>
   </g>
   <g id="text_19">
    <g clip-path="url(#p0f998679ca)">
     <!-- 18 -->
     <g transform="translate(80.33653 201.837274) scale(0.12 -0.12)">
      <use xlink:href="#DejaVuSans-31"/>
      <use xlink:href="#DejaVuSans-38" x="63.623047"/>
     </g>
    </g>
   </g>
   <g id="text_20">
    <g clip-path="url(#p0f998679ca)">
     <!-- 19 -->
     <g transform="translate(76.084933 239.071179) scale(0.12 -0.12)">
      <use xlink:href="#DejaVuSans-31"/>
      <use xlink:href="#DejaVuSans-39" x="63.623047"/>
     </g>
    </g>
   </g>
   <g id="text_21">
    <g clip-path="url(#p0f998679ca)">
     <!-- 20 -->
     <g transform="translate(286.733136 117.583083) scale(0.12 -0.12)">
      <use xlink:href="#DejaVuSans-32"/>
      <use xlink:href="#DejaVuSans-30" x="63.623047"/>
     </g>
    </g>
   </g>
   <g id="text_22">
    <g clip-path="url(#p0f998679ca)">
     <!-- 21 -->
     <g transform="translate(369.820092 131.62371) scale(0.12 -0.12)">
      <use xlink:href="#DejaVuSans-32"/>
      <use xlink:href="#DejaVuSans-31" x="63.623047"/>
     </g>
    </g>
   </g>
   <g id="text_23">
    <g clip-path="url(#p0f998679ca)">
     <!-- 22 -->
     <g transform="translate(372.175765 33.301333) scale(0.12 -0.12)">
      <use xlink:href="#DejaVuSans-32"/>
      <use xlink:href="#DejaVuSans-32" x="63.623047"/>
     </g>
    </g>
   </g>
   <g id="text_24">
    <g clip-path="url(#p0f998679ca)">
     <!-- 23 -->
     <g transform="translate(352.675732 94.610619) scale(0.12 -0.12)">
      <use xlink:href="#DejaVuSans-32"/>
      <use xlink:href="#DejaVuSans-33" x="63.623047"/>
     </g>
    </g>
   </g>
   <g id="text_25">
    <g clip-path="url(#p0f998679ca)">
     <!-- 24 -->
     <g transform="translate(367.14749 78.266962) scale(0.12 -0.12)">
      <use xlink:href="#DejaVuSans-32"/>
      <use xlink:href="#DejaVuSans-34" x="63.623047"/>
     </g>
    </g>
   </g>
   <g id="text_26">
    <g clip-path="url(#p0f998679ca)">
     <!-- 25 -->
     <g transform="translate(413.178223 106.216608) scale(0.12 -0.12)">
      <use xlink:href="#DejaVuSans-32"/>
      <use xlink:href="#DejaVuSans-35" x="63.623047"/>
     </g>
    </g>
   </g>
   <g id="text_27">
    <g clip-path="url(#p0f998679ca)">
     <!-- 26 -->
     <g transform="translate(384.313983 63.444627) scale(0.12 -0.12)">
      <use xlink:href="#DejaVuSans-32"/>
      <use xlink:href="#DejaVuSans-36" x="63.623047"/>
     </g>
    </g>
   </g>
   <g id="text_28">
    <g clip-path="url(#p0f998679ca)">
     <!-- 27 -->
     <g transform="translate(332.728748 63.322761) scale(0.12 -0.12)">
      <use xlink:href="#DejaVuSans-32"/>
      <use xlink:href="#DejaVuSans-37" x="63.623047"/>
     </g>
    </g>
   </g>
   <g id="text_29">
    <g clip-path="url(#p0f998679ca)">
     <!-- 28 -->
     <g transform="translate(325.740905 101.492729) scale(0.12 -0.12)">
      <use xlink:href="#DejaVuSans-32"/>
      <use xlink:href="#DejaVuSans-38" x="63.623047"/>
     </g>
    </g>
   </g>
   <g id="text_30">
    <g clip-path="url(#p0f998679ca)">
     <!-- 29 -->
     <g transform="translate(363.821535 107.269439) scale(0.12 -0.12)">
      <use xlink:href="#DejaVuSans-32"/>
      <use xlink:href="#DejaVuSans-39" x="63.623047"/>
     </g>
    </g>
   </g>
  </g>
 </g>
 <defs>
  <clipPath id="p0f998679ca">
   <rect x="0" y="0" width="460.8" height="345.6"/>
  </clipPath>
 </defs>
</svg>
