<?xml version="1.0" encoding="utf-8" standalone="no"?>
<!DOCTYPE svg PUBLIC "-//W3C//DTD SVG 1.1//EN"
  "http://www.w3.org/Graphics/SVG/1.1/DTD/svg11.dtd">
<svg xmlns:xlink="http://www.w3.org/1999/xlink" width="460.8pt" height="345.6pt" viewBox="0 0 460.8 345.6" xmlns="http://www.w3.org/2000/svg" version="1.1">
 <metadata>
  <rdf:RDF xmlns:dc="http://purl.org/dc/elements/1.1/" xmlns:cc="http://creativecommons.org/ns#" xmlns:rdf="http://www.w3.org/1999/02/22-rdf-syntax-ns#">
   <cc:Work>
    <dc:type rdf:resource="http://purl.org/dc/dcmitype/StillImage"/>
    <dc:date>2023-10-12T23:42:05.512327</dc:date>
    <dc:format>image/svg+xml</dc:format>
    <dc:creator>
     <cc:Agent>
      <dc:title>Matplotlib v3.7.2, https://matplotlib.org/</dc:title>
     </cc:Agent>
    </dc:creator>
   </cc:Work>
  </rdf:RDF>
 </metadata>
 <defs>
  <style type="text/css">*{stroke-linejoin: round; stroke-linecap: butt}</style>
 </defs>
 <g id="figure_1">
  <g id="patch_1">
   <path d="M 0 345.6 
L 460.8 345.6 
L 460.8 0 
L 0 0 
z
" style="fill: #ffffff"/>
  </g>
  <g id="axes_1">
   <g id="patch_2">
    <path d="M 398.717253 200.760857 
Q 311.425573 187.213191 225.2387 173.836992 
" clip-path="url(#p26dd1e8df8)" style="fill: none; stroke: #000000; stroke-linecap: round"/>
    <path d="M 228.884652 176.426787 
L 225.2387 173.836992 
L 229.498107 172.474108 
z
" clip-path="url(#p26dd1e8df8)" style="stroke: #000000; stroke-linecap: round"/>
   </g>
   <g id="patch_3">
    <path d="M 142.834333 295.392977 
Q 167.654071 242.922783 191.995737 191.463257 
" clip-path="url(#p26dd1e8df8)" style="fill: none; stroke: #000000; stroke-linecap: round"/>
    <path d="M 188.477401 194.22393 
L 191.995737 191.463257 
L 192.093273 195.93433 
z
" clip-path="url(#p26dd1e8df8)" style="stroke: #000000; stroke-linecap: round"/>
   </g>
   <g id="patch_4">
    <path d="M 224.132717 173.665343 
Q 311.424397 187.213009 397.61127 200.589208 
" clip-path="url(#p26dd1e8df8)" style="fill: none; stroke: #000000; stroke-linecap: round"/>
    <path d="M 393.965318 197.999413 
L 397.61127 200.589208 
L 393.351863 201.952092 
z
" clip-path="url(#p26dd1e8df8)" style="stroke: #000000; stroke-linecap: round"/>
   </g>
   <g id="patch_5">
    <path d="M 192.473619 190.45299 
Q 167.653882 242.923183 143.312215 294.382709 
" clip-path="url(#p26dd1e8df8)" style="fill: none; stroke: #000000; stroke-linecap: round"/>
    <path d="M 146.830551 291.622037 
L 143.312215 294.382709 
L 143.214679 289.911637 
z
" clip-path="url(#p26dd1e8df8)" style="stroke: #000000; stroke-linecap: round"/>
   </g>
   <g id="patch_6">
    <path d="M 182.420926 159.505096 
Q 121.012282 125.911125 60.584494 92.853738 
" clip-path="url(#p26dd1e8df8)" style="fill: none; stroke: #000000; stroke-linecap: round"/>
    <path d="M 63.133842 96.528084 
L 60.584494 92.853738 
L 65.053581 93.018867 
z
" clip-path="url(#p26dd1e8df8)" style="stroke: #000000; stroke-linecap: round"/>
   </g>
   <g id="patch_7">
    <path d="M 197.575192 148.326897 
Q 187.757076 100.113529 178.162056 52.99571 
" clip-path="url(#p26dd1e8df8)" style="fill: none; stroke: #000000; stroke-linecap: round"/>
    <path d="M 177.000452 57.314353 
L 178.162056 52.99571 
L 180.920008 56.516179 
z
" clip-path="url(#p26dd1e8df8)" style="stroke: #000000; stroke-linecap: round"/>
   </g>
   <g id="patch_8">
    <path d="M 59.602597 92.316585 
Q 121.011241 125.910556 181.439029 158.967943 
" clip-path="url(#p26dd1e8df8)" style="fill: none; stroke: #000000; stroke-linecap: round"/>
    <path d="M 178.889682 155.293596 
L 181.439029 158.967943 
L 176.969943 158.802813 
z
" clip-path="url(#p26dd1e8df8)" style="stroke: #000000; stroke-linecap: round"/>
   </g>
   <g id="patch_9">
    <path d="M 60.840584 73.525401 
Q 106.731556 55.788027 151.579679 38.453726 
" clip-path="url(#p26dd1e8df8)" style="fill: none; stroke: #000000; stroke-linecap: round"/>
    <path d="M 147.127633 38.030298 
L 151.579679 38.453726 
L 148.56971 41.761306 
z
" clip-path="url(#p26dd1e8df8)" style="stroke: #000000; stroke-linecap: round"/>
   </g>
   <g id="patch_10">
    <path d="M 177.938771 51.899235 
Q 187.756887 100.112603 197.351907 147.230422 
" clip-path="url(#p26dd1e8df8)" style="fill: none; stroke: #000000; stroke-linecap: round"/>
    <path d="M 198.513511 142.911779 
L 197.351907 147.230422 
L 194.593955 143.709953 
z
" clip-path="url(#p26dd1e8df8)" style="stroke: #000000; stroke-linecap: round"/>
   </g>
   <g id="patch_11">
    <path d="M 152.623409 38.050313 
Q 106.732437 55.787687 61.884314 73.121988 
" clip-path="url(#p26dd1e8df8)" style="fill: none; stroke: #000000; stroke-linecap: round"/>
    <path d="M 66.33636 73.545416 
L 61.884314 73.121988 
L 64.894283 69.814408 
z
" clip-path="url(#p26dd1e8df8)" style="stroke: #000000; stroke-linecap: round"/>
   </g>
   <g id="text_1">
    <g id="patch_12">
     <path d="M 302.365262 193.739942 
L 318.080249 196.178907 
Q 321.044759 196.638999 321.504851 193.67449 
L 322.989126 184.110859 
Q 323.449217 181.14635 320.484708 180.686258 
L 304.769721 178.247293 
Q 301.805211 177.787201 301.34512 180.75171 
L 299.860844 190.315341 
Q 299.400753 193.27985 302.365262 193.739942 
z
" clip-path="url(#p26dd1e8df8)" style="fill: #ffffff; stroke: #ffffff; stroke-linejoin: miter"/>
    </g>
    <g clip-path="url(#p26dd1e8df8)">
     <!-- 0.2 -->
     <g transform="translate(303.144303 188.720348) rotate(-351.178079) scale(0.1 -0.1)">
      <defs>
       <path id="DejaVuSans-30" d="M 2034 4250 
Q 1547 4250 1301 3770 
Q 1056 3291 1056 2328 
Q 1056 1369 1301 889 
Q 1547 409 2034 409 
Q 2525 409 2770 889 
Q 3016 1369 3016 2328 
Q 3016 3291 2770 3770 
Q 2525 4250 2034 4250 
z
M 2034 4750 
Q 2819 4750 3233 4129 
Q 3647 3509 3647 2328 
Q 3647 1150 3233 529 
Q 2819 -91 2034 -91 
Q 1250 -91 836 529 
Q 422 1150 422 2328 
Q 422 3509 836 4129 
Q 1250 4750 2034 4750 
z
" transform="scale(0.015625)"/>
       <path id="DejaVuSans-2e" d="M 684 794 
L 1344 794 
L 1344 0 
L 684 0 
L 684 794 
z
" transform="scale(0.015625)"/>
       <path id="DejaVuSans-32" d="M 1228 531 
L 3431 531 
L 3431 0 
L 469 0 
L 469 531 
Q 828 903 1448 1529 
Q 2069 2156 2228 2338 
Q 2531 2678 2651 2914 
Q 2772 3150 2772 3378 
Q 2772 3750 2511 3984 
Q 2250 4219 1831 4219 
Q 1534 4219 1204 4116 
Q 875 4013 500 3803 
L 500 4441 
Q 881 4594 1212 4672 
Q 1544 4750 1819 4750 
Q 2544 4750 2975 4387 
Q 3406 4025 3406 3419 
Q 3406 3131 3298 2873 
Q 3191 2616 2906 2266 
Q 2828 2175 2409 1742 
Q 1991 1309 1228 531 
z
" transform="scale(0.015625)"/>
      </defs>
      <use xlink:href="#DejaVuSans-30"/>
      <use xlink:href="#DejaVuSans-2e" x="63.623047"/>
      <use xlink:href="#DejaVuSans-32" x="95.410156"/>
     </g>
    </g>
   </g>
   <g id="text_2">
    <g id="patch_13">
     <path d="M 171.340151 253.462925 
L 178.140326 239.087007 
Q 179.423126 236.375103 176.711221 235.092303 
L 167.962505 230.953938 
Q 165.250601 229.671138 163.967801 232.383042 
L 157.167626 246.75896 
Q 155.884826 249.470864 158.596731 250.753664 
L 167.345447 254.892029 
Q 170.057351 256.174829 171.340151 253.462925 
z
" clip-path="url(#p26dd1e8df8)" style="fill: #ffffff; stroke: #ffffff; stroke-linejoin: miter"/>
    </g>
    <g clip-path="url(#p26dd1e8df8)">
     <!-- 0.2 -->
     <g transform="translate(166.748275 251.290851) rotate(-64.684658) scale(0.1 -0.1)">
      <use xlink:href="#DejaVuSans-30"/>
      <use xlink:href="#DejaVuSans-2e" x="63.623047"/>
      <use xlink:href="#DejaVuSans-32" x="95.410156"/>
     </g>
    </g>
   </g>
   <g id="text_3">
    <g id="patch_14">
     <path d="M 302.365262 193.739942 
L 318.080249 196.178907 
Q 321.044759 196.638999 321.504851 193.67449 
L 322.989126 184.110859 
Q 323.449217 181.14635 320.484708 180.686258 
L 304.769721 178.247293 
Q 301.805211 177.787201 301.34512 180.75171 
L 299.860844 190.315341 
Q 299.400753 193.27985 302.365262 193.739942 
z
" clip-path="url(#p26dd1e8df8)" style="fill: #ffffff; stroke: #ffffff; stroke-linejoin: miter"/>
    </g>
    <g clip-path="url(#p26dd1e8df8)">
     <!-- 0.2 -->
     <g transform="translate(303.144303 188.720348) rotate(-351.178079) scale(0.1 -0.1)">
      <use xlink:href="#DejaVuSans-30"/>
      <use xlink:href="#DejaVuSans-2e" x="63.623047"/>
      <use xlink:href="#DejaVuSans-32" x="95.410156"/>
     </g>
    </g>
   </g>
   <g id="text_4">
    <g id="patch_15">
     <path d="M 171.340151 253.462925 
L 178.140326 239.087007 
Q 179.423126 236.375103 176.711221 235.092303 
L 167.962505 230.953938 
Q 165.250601 229.671138 163.967801 232.383042 
L 157.167626 246.75896 
Q 155.884826 249.470864 158.596731 250.753664 
L 167.345447 254.892029 
Q 170.057351 256.174829 171.340151 253.462925 
z
" clip-path="url(#p26dd1e8df8)" style="fill: #ffffff; stroke: #ffffff; stroke-linejoin: miter"/>
    </g>
    <g clip-path="url(#p26dd1e8df8)">
     <!-- 0.2 -->
     <g transform="translate(166.748275 251.290851) rotate(-64.684658) scale(0.1 -0.1)">
      <use xlink:href="#DejaVuSans-30"/>
      <use xlink:href="#DejaVuSans-2e" x="63.623047"/>
      <use xlink:href="#DejaVuSans-32" x="95.410156"/>
     </g>
    </g>
   </g>
   <g id="text_5">
    <g id="patch_16">
     <path d="M 110.273585 128.971853 
L 124.225464 136.604313 
Q 126.857377 138.044117 128.297181 135.412204 
L 132.942048 126.921544 
Q 134.381852 124.289631 131.749939 122.849827 
L 117.79806 115.217367 
Q 115.166147 113.777563 113.726343 116.409476 
L 109.081476 124.900137 
Q 107.641672 127.532049 110.273585 128.971853 
z
" clip-path="url(#p26dd1e8df8)" style="fill: #ffffff; stroke: #ffffff; stroke-linejoin: miter"/>
    </g>
    <g clip-path="url(#p26dd1e8df8)">
     <!-- 0.2 -->
     <g transform="translate(112.711503 124.515422) rotate(-331.318869) scale(0.1 -0.1)">
      <use xlink:href="#DejaVuSans-30"/>
      <use xlink:href="#DejaVuSans-2e" x="63.623047"/>
      <use xlink:href="#DejaVuSans-32" x="95.410156"/>
     </g>
    </g>
   </g>
   <g id="text_6">
    <g id="patch_17">
     <path d="M 178.488888 93.885651 
L 181.662253 109.468948 
Q 182.260884 112.408615 185.200551 111.809985 
L 194.684038 109.878778 
Q 197.623705 109.280147 197.025075 106.34048 
L 193.85171 90.757184 
Q 193.253079 87.817517 190.313413 88.416147 
L 180.829925 90.347354 
Q 177.890258 90.945985 178.488888 93.885651 
z
" clip-path="url(#p26dd1e8df8)" style="fill: #ffffff; stroke: #ffffff; stroke-linejoin: miter"/>
    </g>
    <g clip-path="url(#p26dd1e8df8)">
     <!-- 0.2 -->
     <g transform="translate(183.466418 92.872033) rotate(-281.510265) scale(0.1 -0.1)">
      <use xlink:href="#DejaVuSans-30"/>
      <use xlink:href="#DejaVuSans-2e" x="63.623047"/>
      <use xlink:href="#DejaVuSans-32" x="95.410156"/>
     </g>
    </g>
   </g>
   <g id="text_7">
    <g id="patch_18">
     <path d="M 110.273585 128.971853 
L 124.225464 136.604313 
Q 126.857377 138.044117 128.297181 135.412204 
L 132.942048 126.921544 
Q 134.381852 124.289631 131.749939 122.849827 
L 117.79806 115.217367 
Q 115.166147 113.777563 113.726343 116.409476 
L 109.081476 124.900137 
Q 107.641672 127.532049 110.273585 128.971853 
z
" clip-path="url(#p26dd1e8df8)" style="fill: #ffffff; stroke: #ffffff; stroke-linejoin: miter"/>
    </g>
    <g clip-path="url(#p26dd1e8df8)">
     <!-- 0.2 -->
     <g transform="translate(112.711503 124.515422) rotate(-331.318869) scale(0.1 -0.1)">
      <use xlink:href="#DejaVuSans-30"/>
      <use xlink:href="#DejaVuSans-2e" x="63.623047"/>
      <use xlink:href="#DejaVuSans-32" x="95.410156"/>
     </g>
    </g>
   </g>
   <g id="text_8">
    <g id="patch_19">
     <path d="M 102.141293 65.966447 
L 116.974962 60.233068 
Q 119.773218 59.15151 118.691661 56.353255 
L 115.202513 47.325966 
Q 114.120956 44.52771 111.3227 45.609267 
L 96.489031 51.342647 
Q 93.690775 52.424204 94.772332 55.222459 
L 98.26148 64.249748 
Q 99.343037 67.048004 102.141293 65.966447 
z
" clip-path="url(#p26dd1e8df8)" style="fill: #ffffff; stroke: #ffffff; stroke-linejoin: miter"/>
    </g>
    <g clip-path="url(#p26dd1e8df8)">
     <!-- 0.2 -->
     <g transform="translate(100.309969 61.228359) rotate(-21.132075) scale(0.1 -0.1)">
      <use xlink:href="#DejaVuSans-30"/>
      <use xlink:href="#DejaVuSans-2e" x="63.623047"/>
      <use xlink:href="#DejaVuSans-32" x="95.410156"/>
     </g>
    </g>
   </g>
   <g id="text_9">
    <g id="patch_20">
     <path d="M 178.488888 93.885651 
L 181.662253 109.468948 
Q 182.260884 112.408615 185.200551 111.809985 
L 194.684038 109.878778 
Q 197.623705 109.280147 197.025075 106.34048 
L 193.85171 90.757184 
Q 193.253079 87.817517 190.313413 88.416147 
L 180.829925 90.347354 
Q 177.890258 90.945985 178.488888 93.885651 
z
" clip-path="url(#p26dd1e8df8)" style="fill: #ffffff; stroke: #ffffff; stroke-linejoin: miter"/>
    </g>
    <g clip-path="url(#p26dd1e8df8)">
     <!-- 0.2 -->
     <g transform="translate(183.466418 92.872033) rotate(-281.510265) scale(0.1 -0.1)">
      <use xlink:href="#DejaVuSans-30"/>
      <use xlink:href="#DejaVuSans-2e" x="63.623047"/>
      <use xlink:href="#DejaVuSans-32" x="95.410156"/>
     </g>
    </g>
   </g>
   <g id="text_10">
    <g id="patch_21">
     <path d="M 102.141293 65.966447 
L 116.974962 60.233068 
Q 119.773218 59.15151 118.691661 56.353255 
L 115.202513 47.325966 
Q 114.120956 44.52771 111.3227 45.609267 
L 96.489031 51.342647 
Q 93.690775 52.424204 94.772332 55.222459 
L 98.26148 64.249748 
Q 99.343037 67.048004 102.141293 65.966447 
z
" clip-path="url(#p26dd1e8df8)" style="fill: #ffffff; stroke: #ffffff; stroke-linejoin: miter"/>
    </g>
    <g clip-path="url(#p26dd1e8df8)">
     <!-- 0.2 -->
     <g transform="translate(100.309969 61.228359) rotate(-21.132075) scale(0.1 -0.1)">
      <use xlink:href="#DejaVuSans-30"/>
      <use xlink:href="#DejaVuSans-2e" x="63.623047"/>
      <use xlink:href="#DejaVuSans-32" x="95.410156"/>
     </g>
    </g>
   </g>
   <g id="PathCollection_1">
    <defs>
     <path id="C0_0_cd605b541d" d="M 0 22.36068 
C 5.930122 22.36068 11.618159 20.004617 15.811388 15.811388 
C 20.004617 11.618159 22.36068 5.930122 22.36068 -0 
C 22.36068 -5.930122 20.004617 -11.618159 15.811388 -15.811388 
C 11.618159 -20.004617 5.930122 -22.36068 0 -22.36068 
C -5.930122 -22.36068 -11.618159 -20.004617 -15.811388 -15.811388 
C -20.004617 -11.618159 -22.36068 -5.930122 -22.36068 0 
C -22.36068 5.930122 -20.004617 11.618159 -15.811388 15.811388 
C -11.618159 20.004617 -5.930122 22.36068 0 22.36068 
z
"/>
    </defs>
    <g clip-path="url(#p26dd1e8df8)">
     <use xlink:href="#C0_0_cd605b541d" x="420.813223" y="204.190151" style="fill: #1f77b4; stroke: #000000"/>
    </g>
    <g clip-path="url(#p26dd1e8df8)">
     <use xlink:href="#C0_0_cd605b541d" x="133.271205" y="315.609917" style="fill: #ff7f0e; stroke: #000000"/>
    </g>
    <g clip-path="url(#p26dd1e8df8)">
     <use xlink:href="#C0_0_cd605b541d" x="202.036747" y="170.236049" style="fill: #2ca02c; stroke: #000000"/>
    </g>
    <g clip-path="url(#p26dd1e8df8)">
     <use xlink:href="#C0_0_cd605b541d" x="39.986777" y="81.585631" style="fill: #d62728; stroke: #000000"/>
    </g>
    <g clip-path="url(#p26dd1e8df8)">
     <use xlink:href="#C0_0_cd605b541d" x="173.477216" y="29.990083" style="fill: #9467bd; stroke: #000000"/>
    </g>
   </g>
   <g id="text_11">
    <g clip-path="url(#p26dd1e8df8)">
     <!-- 1: 0.8 -->
     <g transform="translate(403.525723 207.501401) scale(0.12 -0.12)">
      <defs>
       <path id="DejaVuSans-31" d="M 794 531 
L 1825 531 
L 1825 4091 
L 703 3866 
L 703 4441 
L 1819 4666 
L 2450 4666 
L 2450 531 
L 3481 531 
L 3481 0 
L 794 0 
L 794 531 
z
" transform="scale(0.015625)"/>
       <path id="DejaVuSans-3a" d="M 750 794 
L 1409 794 
L 1409 0 
L 750 0 
L 750 794 
z
M 750 3309 
L 1409 3309 
L 1409 2516 
L 750 2516 
L 750 3309 
z
" transform="scale(0.015625)"/>
       <path id="DejaVuSans-20" transform="scale(0.015625)"/>
       <path id="DejaVuSans-38" d="M 2034 2216 
Q 1584 2216 1326 1975 
Q 1069 1734 1069 1313 
Q 1069 891 1326 650 
Q 1584 409 2034 409 
Q 2484 409 2743 651 
Q 3003 894 3003 1313 
Q 3003 1734 2745 1975 
Q 2488 2216 2034 2216 
z
M 1403 2484 
Q 997 2584 770 2862 
Q 544 3141 544 3541 
Q 544 4100 942 4425 
Q 1341 4750 2034 4750 
Q 2731 4750 3128 4425 
Q 3525 4100 3525 3541 
Q 3525 3141 3298 2862 
Q 3072 2584 2669 2484 
Q 3125 2378 3379 2068 
Q 3634 1759 3634 1313 
Q 3634 634 3220 271 
Q 2806 -91 2034 -91 
Q 1263 -91 848 271 
Q 434 634 434 1313 
Q 434 1759 690 2068 
Q 947 2378 1403 2484 
z
M 1172 3481 
Q 1172 3119 1398 2916 
Q 1625 2713 2034 2713 
Q 2441 2713 2670 2916 
Q 2900 3119 2900 3481 
Q 2900 3844 2670 4047 
Q 2441 4250 2034 4250 
Q 1625 4250 1398 4047 
Q 1172 3844 1172 3481 
z
" transform="scale(0.015625)"/>
      </defs>
      <use xlink:href="#DejaVuSans-31"/>
      <use xlink:href="#DejaVuSans-3a" x="63.623047"/>
      <use xlink:href="#DejaVuSans-20" x="97.314453"/>
      <use xlink:href="#DejaVuSans-30" x="129.101562"/>
      <use xlink:href="#DejaVuSans-2e" x="192.724609"/>
      <use xlink:href="#DejaVuSans-38" x="224.511719"/>
     </g>
    </g>
   </g>
   <g id="text_12">
    <g clip-path="url(#p26dd1e8df8)">
     <!-- 2: 0.8 -->
     <g transform="translate(115.983705 318.921167) scale(0.12 -0.12)">
      <use xlink:href="#DejaVuSans-32"/>
      <use xlink:href="#DejaVuSans-3a" x="63.623047"/>
      <use xlink:href="#DejaVuSans-20" x="97.314453"/>
      <use xlink:href="#DejaVuSans-30" x="129.101562"/>
      <use xlink:href="#DejaVuSans-2e" x="192.724609"/>
      <use xlink:href="#DejaVuSans-38" x="224.511719"/>
     </g>
    </g>
   </g>
   <g id="text_13">
    <g clip-path="url(#p26dd1e8df8)">
     <!-- 3: 0.2 -->
     <g transform="translate(184.749247 173.547299) scale(0.12 -0.12)">
      <defs>
       <path id="DejaVuSans-33" d="M 2597 2516 
Q 3050 2419 3304 2112 
Q 3559 1806 3559 1356 
Q 3559 666 3084 287 
Q 2609 -91 1734 -91 
Q 1441 -91 1130 -33 
Q 819 25 488 141 
L 488 750 
Q 750 597 1062 519 
Q 1375 441 1716 441 
Q 2309 441 2620 675 
Q 2931 909 2931 1356 
Q 2931 1769 2642 2001 
Q 2353 2234 1838 2234 
L 1294 2234 
L 1294 2753 
L 1863 2753 
Q 2328 2753 2575 2939 
Q 2822 3125 2822 3475 
Q 2822 3834 2567 4026 
Q 2313 4219 1838 4219 
Q 1578 4219 1281 4162 
Q 984 4106 628 3988 
L 628 4550 
Q 988 4650 1302 4700 
Q 1616 4750 1894 4750 
Q 2613 4750 3031 4423 
Q 3450 4097 3450 3541 
Q 3450 3153 3228 2886 
Q 3006 2619 2597 2516 
z
" transform="scale(0.015625)"/>
      </defs>
      <use xlink:href="#DejaVuSans-33"/>
      <use xlink:href="#DejaVuSans-3a" x="63.623047"/>
      <use xlink:href="#DejaVuSans-20" x="97.314453"/>
      <use xlink:href="#DejaVuSans-30" x="129.101562"/>
      <use xlink:href="#DejaVuSans-2e" x="192.724609"/>
      <use xlink:href="#DejaVuSans-32" x="224.511719"/>
     </g>
    </g>
   </g>
   <g id="text_14">
    <g clip-path="url(#p26dd1e8df8)">
     <!-- 4: 0.6 -->
     <g transform="translate(22.699277 84.896881) scale(0.12 -0.12)">
      <defs>
       <path id="DejaVuSans-34" d="M 2419 4116 
L 825 1625 
L 2419 1625 
L 2419 4116 
z
M 2253 4666 
L 3047 4666 
L 3047 1625 
L 3713 1625 
L 3713 1100 
L 3047 1100 
L 3047 0 
L 2419 0 
L 2419 1100 
L 313 1100 
L 313 1709 
L 2253 4666 
z
" transform="scale(0.015625)"/>
       <path id="DejaVuSans-36" d="M 2113 2584 
Q 1688 2584 1439 2293 
Q 1191 2003 1191 1497 
Q 1191 994 1439 701 
Q 1688 409 2113 409 
Q 2538 409 2786 701 
Q 3034 994 3034 1497 
Q 3034 2003 2786 2293 
Q 2538 2584 2113 2584 
z
M 3366 4563 
L 3366 3988 
Q 3128 4100 2886 4159 
Q 2644 4219 2406 4219 
Q 1781 4219 1451 3797 
Q 1122 3375 1075 2522 
Q 1259 2794 1537 2939 
Q 1816 3084 2150 3084 
Q 2853 3084 3261 2657 
Q 3669 2231 3669 1497 
Q 3669 778 3244 343 
Q 2819 -91 2113 -91 
Q 1303 -91 875 529 
Q 447 1150 447 2328 
Q 447 3434 972 4092 
Q 1497 4750 2381 4750 
Q 2619 4750 2861 4703 
Q 3103 4656 3366 4563 
z
" transform="scale(0.015625)"/>
      </defs>
      <use xlink:href="#DejaVuSans-34"/>
      <use xlink:href="#DejaVuSans-3a" x="63.623047"/>
      <use xlink:href="#DejaVuSans-20" x="97.314453"/>
      <use xlink:href="#DejaVuSans-30" x="129.101562"/>
      <use xlink:href="#DejaVuSans-2e" x="192.724609"/>
      <use xlink:href="#DejaVuSans-36" x="224.511719"/>
     </g>
    </g>
   </g>
   <g id="text_15">
    <g clip-path="url(#p26dd1e8df8)">
     <!-- 5: 0.6 -->
     <g transform="translate(156.189716 33.301333) scale(0.12 -0.12)">
      <defs>
       <path id="DejaVuSans-35" d="M 691 4666 
L 3169 4666 
L 3169 4134 
L 1269 4134 
L 1269 2991 
Q 1406 3038 1543 3061 
Q 1681 3084 1819 3084 
Q 2600 3084 3056 2656 
Q 3513 2228 3513 1497 
Q 3513 744 3044 326 
Q 2575 -91 1722 -91 
Q 1428 -91 1123 -41 
Q 819 9 494 109 
L 494 744 
Q 775 591 1075 516 
Q 1375 441 1709 441 
Q 2250 441 2565 725 
Q 2881 1009 2881 1497 
Q 2881 1984 2565 2268 
Q 2250 2553 1709 2553 
Q 1456 2553 1204 2497 
Q 953 2441 691 2322 
L 691 4666 
z
" transform="scale(0.015625)"/>
      </defs>
      <use xlink:href="#DejaVuSans-35"/>
      <use xlink:href="#DejaVuSans-3a" x="63.623047"/>
      <use xlink:href="#DejaVuSans-20" x="97.314453"/>
      <use xlink:href="#DejaVuSans-30" x="129.101562"/>
      <use xlink:href="#DejaVuSans-2e" x="192.724609"/>
      <use xlink:href="#DejaVuSans-36" x="224.511719"/>
     </g>
    </g>
   </g>
  </g>
 </g>
 <defs>
  <clipPath id="p26dd1e8df8">
   <rect x="0" y="0" width="460.8" height="345.6"/>
  </clipPath>
 </defs>
</svg>
