<?xml version="1.0" encoding="utf-8" standalone="no"?>
<!DOCTYPE svg PUBLIC "-//W3C//DTD SVG 1.1//EN"
  "http://www.w3.org/Graphics/SVG/1.1/DTD/svg11.dtd">
<svg xmlns:xlink="http://www.w3.org/1999/xlink" width="460.8pt" height="345.6pt" viewBox="0 0 460.8 345.6" xmlns="http://www.w3.org/2000/svg" version="1.1">
 <metadata>
  <rdf:RDF xmlns:dc="http://purl.org/dc/elements/1.1/" xmlns:cc="http://creativecommons.org/ns#" xmlns:rdf="http://www.w3.org/1999/02/22-rdf-syntax-ns#">
   <cc:Work>
    <dc:type rdf:resource="http://purl.org/dc/dcmitype/StillImage"/>
    <dc:date>2023-10-12T23:50:02.628207</dc:date>
    <dc:format>image/svg+xml</dc:format>
    <dc:creator>
     <cc:Agent>
      <dc:title>Matplotlib v3.7.2, https://matplotlib.org/</dc:title>
     </cc:Agent>
    </dc:creator>
   </cc:Work>
  </rdf:RDF>
 </metadata>
 <defs>
  <style type="text/css">*{stroke-linejoin: round; stroke-linecap: butt}</style>
 </defs>
 <g id="figure_1">
  <g id="patch_1">
   <path d="M 0 345.6 
L 460.8 345.6 
L 460.8 0 
L 0 0 
z
" style="fill: #ffffff"/>
  </g>
  <g id="axes_1">
   <g id="patch_2">
    <path d="M 398.451155 163.866004 
Q 316.890234 163.463195 236.447334 163.065908 
" clip-path="url(#p88710ad429)" style="fill: none; stroke: #000000; stroke-linecap: round"/>
    <path d="M 240.437408 165.085638 
L 236.447334 163.065908 
L 240.457162 161.085687 
z
" clip-path="url(#p88710ad429)" style="stroke: #000000; stroke-linecap: round"/>
   </g>
   <g id="patch_3">
    <path d="M 196.994939 293.410675 
Q 203.622451 239.278312 210.114095 186.255695 
" clip-path="url(#p88710ad429)" style="fill: none; stroke: #000000; stroke-linecap: round"/>
    <path d="M 207.642822 189.983001 
L 210.114095 186.255695 
L 211.613175 190.469098 
z
" clip-path="url(#p88710ad429)" style="stroke: #000000; stroke-linecap: round"/>
   </g>
   <g id="patch_4">
    <path d="M 235.329524 163.060387 
Q 316.890445 163.463196 397.333345 163.860483 
" clip-path="url(#p88710ad429)" style="fill: none; stroke: #000000; stroke-linecap: round"/>
    <path d="M 393.343271 161.840753 
L 397.333345 163.860483 
L 393.323516 165.840704 
z
" clip-path="url(#p88710ad429)" style="stroke: #000000; stroke-linecap: round"/>
   </g>
   <g id="patch_5">
    <path d="M 210.249567 185.149189 
Q 203.622054 239.281552 197.13041 292.304169 
" clip-path="url(#p88710ad429)" style="fill: none; stroke: #000000; stroke-linecap: round"/>
    <path d="M 199.601684 288.576863 
L 197.13041 292.304169 
L 195.63133 288.090766 
z
" clip-path="url(#p88710ad429)" style="stroke: #000000; stroke-linecap: round"/>
   </g>
   <g id="patch_6">
    <path d="M 191.944032 155.335854 
Q 126.475997 131.625176 62.059178 108.295218 
" clip-path="url(#p88710ad429)" style="fill: none; stroke: #000000; stroke-linecap: round"/>
    <path d="M 65.139064 111.537794 
L 62.059178 108.295218 
L 66.501171 107.776854 
z
" clip-path="url(#p88710ad429)" style="stroke: #000000; stroke-linecap: round"/>
   </g>
   <g id="patch_7">
    <path d="M 202.788023 143.039239 
Q 178.979098 96.469597 155.679115 50.895433 
" clip-path="url(#p88710ad429)" style="fill: none; stroke: #000000; stroke-linecap: round"/>
    <path d="M 155.719197 55.367389 
L 155.679115 50.895433 
L 159.28073 53.546541 
z
" clip-path="url(#p88710ad429)" style="stroke: #000000; stroke-linecap: round"/>
   </g>
   <g id="patch_8">
    <path d="M 61.010201 107.915308 
Q 126.478235 131.625986 190.895055 154.955945 
" clip-path="url(#p88710ad429)" style="fill: none; stroke: #000000; stroke-linecap: round"/>
    <path d="M 187.815168 151.713368 
L 190.895055 154.955945 
L 186.453062 155.474308 
z
" clip-path="url(#p88710ad429)" style="stroke: #000000; stroke-linecap: round"/>
   </g>
   <g id="patch_9">
    <path d="M 58.569555 87.858153 
Q 92.490196 65.14483 125.481837 43.053566 
" clip-path="url(#p88710ad429)" style="fill: none; stroke: #000000; stroke-linecap: round"/>
    <path d="M 121.04537 43.61727 
L 125.481837 43.053566 
L 123.27092 46.940962 
z
" clip-path="url(#p88710ad429)" style="stroke: #000000; stroke-linecap: round"/>
   </g>
   <g id="patch_10">
    <path d="M 155.1706 49.90079 
Q 178.979525 96.470432 202.279507 142.044596 
" clip-path="url(#p88710ad429)" style="fill: none; stroke: #000000; stroke-linecap: round"/>
    <path d="M 202.239425 137.57264 
L 202.279507 142.044596 
L 198.677893 139.393488 
z
" clip-path="url(#p88710ad429)" style="stroke: #000000; stroke-linecap: round"/>
   </g>
   <g id="patch_11">
    <path d="M 126.408389 42.433145 
Q 92.487748 65.146468 59.496107 87.237732 
" clip-path="url(#p88710ad429)" style="fill: none; stroke: #000000; stroke-linecap: round"/>
    <path d="M 63.932574 86.674028 
L 59.496107 87.237732 
L 61.707024 83.350336 
z
" clip-path="url(#p88710ad429)" style="stroke: #000000; stroke-linecap: round"/>
   </g>
   <g id="text_1">
    <g id="patch_12">
     <path d="M 305.718948 171.247181 
L 327.984301 171.357144 
Q 330.984265 171.37196 330.999081 168.371996 
L 331.046878 158.693989 
Q 331.061694 155.694026 328.061731 155.67921 
L 305.796377 155.569247 
Q 302.796414 155.554431 302.781598 158.554394 
L 302.733801 168.232401 
Q 302.718985 171.232365 305.718948 171.247181 
z
" clip-path="url(#p88710ad429)" style="fill: #ffffff; stroke: #ffffff; stroke-linejoin: miter"/>
    </g>
    <g clip-path="url(#p88710ad429)">
     <!-- 0.25 -->
     <g transform="translate(305.744035 166.167555) rotate(-359.717033) scale(0.1 -0.1)">
      <defs>
       <path id="DejaVuSans-30" d="M 2034 4250 
Q 1547 4250 1301 3770 
Q 1056 3291 1056 2328 
Q 1056 1369 1301 889 
Q 1547 409 2034 409 
Q 2525 409 2770 889 
Q 3016 1369 3016 2328 
Q 3016 3291 2770 3770 
Q 2525 4250 2034 4250 
z
M 2034 4750 
Q 2819 4750 3233 4129 
Q 3647 3509 3647 2328 
Q 3647 1150 3233 529 
Q 2819 -91 2034 -91 
Q 1250 -91 836 529 
Q 422 1150 422 2328 
Q 422 3509 836 4129 
Q 1250 4750 2034 4750 
z
" transform="scale(0.015625)"/>
       <path id="DejaVuSans-2e" d="M 684 794 
L 1344 794 
L 1344 0 
L 684 0 
L 684 794 
z
" transform="scale(0.015625)"/>
       <path id="DejaVuSans-32" d="M 1228 531 
L 3431 531 
L 3431 0 
L 469 0 
L 469 531 
Q 828 903 1448 1529 
Q 2069 2156 2228 2338 
Q 2531 2678 2651 2914 
Q 2772 3150 2772 3378 
Q 2772 3750 2511 3984 
Q 2250 4219 1831 4219 
Q 1534 4219 1204 4116 
Q 875 4013 500 3803 
L 500 4441 
Q 881 4594 1212 4672 
Q 1544 4750 1819 4750 
Q 2544 4750 2975 4387 
Q 3406 4025 3406 3419 
Q 3406 3131 3298 2873 
Q 3191 2616 2906 2266 
Q 2828 2175 2409 1742 
Q 1991 1309 1228 531 
z
" transform="scale(0.015625)"/>
       <path id="DejaVuSans-35" d="M 691 4666 
L 3169 4666 
L 3169 4134 
L 1269 4134 
L 1269 2991 
Q 1406 3038 1543 3061 
Q 1681 3084 1819 3084 
Q 2600 3084 3056 2656 
Q 3513 2228 3513 1497 
Q 3513 744 3044 326 
Q 2575 -91 1722 -91 
Q 1428 -91 1123 -41 
Q 819 9 494 109 
L 494 744 
Q 775 591 1075 516 
Q 1375 441 1709 441 
Q 2250 441 2565 725 
Q 2881 1009 2881 1497 
Q 2881 1984 2565 2268 
Q 2250 2553 1709 2553 
Q 1456 2553 1204 2497 
Q 953 2441 691 2322 
L 691 4666 
z
" transform="scale(0.015625)"/>
      </defs>
      <use xlink:href="#DejaVuSans-30"/>
      <use xlink:href="#DejaVuSans-2e" x="63.623047"/>
      <use xlink:href="#DejaVuSans-32" x="95.410156"/>
      <use xlink:href="#DejaVuSans-35" x="159.033203"/>
     </g>
    </g>
   </g>
   <g id="text_2">
    <g id="patch_13">
     <path d="M 210.05031 251.282869 
L 212.756122 229.182267 
Q 213.120695 226.204501 210.142929 225.839928 
L 200.536534 224.663802 
Q 197.558768 224.299229 197.194196 227.276995 
L 194.488384 249.377597 
Q 194.123811 252.355363 197.101576 252.719936 
L 206.707972 253.896062 
Q 209.685737 254.260635 210.05031 251.282869 
z
" clip-path="url(#p88710ad429)" style="fill: #ffffff; stroke: #ffffff; stroke-linejoin: miter"/>
    </g>
    <g clip-path="url(#p88710ad429)">
     <!-- 0.25 -->
     <g transform="translate(205.00827 250.665564) rotate(-83.019923) scale(0.1 -0.1)">
      <use xlink:href="#DejaVuSans-30"/>
      <use xlink:href="#DejaVuSans-2e" x="63.623047"/>
      <use xlink:href="#DejaVuSans-32" x="95.410156"/>
      <use xlink:href="#DejaVuSans-35" x="159.033203"/>
     </g>
    </g>
   </g>
   <g id="text_3">
    <g id="patch_14">
     <path d="M 305.718948 171.247181 
L 327.984301 171.357144 
Q 330.984265 171.37196 330.999081 168.371996 
L 331.046878 158.693989 
Q 331.061694 155.694026 328.061731 155.67921 
L 305.796377 155.569247 
Q 302.796414 155.554431 302.781598 158.554394 
L 302.733801 168.232401 
Q 302.718985 171.232365 305.718948 171.247181 
z
" clip-path="url(#p88710ad429)" style="fill: #ffffff; stroke: #ffffff; stroke-linejoin: miter"/>
    </g>
    <g clip-path="url(#p88710ad429)">
     <!-- 0.25 -->
     <g transform="translate(305.744035 166.167555) rotate(-359.717033) scale(0.1 -0.1)">
      <use xlink:href="#DejaVuSans-30"/>
      <use xlink:href="#DejaVuSans-2e" x="63.623047"/>
      <use xlink:href="#DejaVuSans-32" x="95.410156"/>
      <use xlink:href="#DejaVuSans-35" x="159.033203"/>
     </g>
    </g>
   </g>
   <g id="text_4">
    <g id="patch_15">
     <path d="M 210.05031 251.282869 
L 212.756122 229.182267 
Q 213.120695 226.204501 210.142929 225.839928 
L 200.536534 224.663802 
Q 197.558768 224.299229 197.194196 227.276995 
L 194.488384 249.377597 
Q 194.123811 252.355363 197.101576 252.719936 
L 206.707972 253.896062 
Q 209.685737 254.260635 210.05031 251.282869 
z
" clip-path="url(#p88710ad429)" style="fill: #ffffff; stroke: #ffffff; stroke-linejoin: miter"/>
    </g>
    <g clip-path="url(#p88710ad429)">
     <!-- 0.25 -->
     <g transform="translate(205.00827 250.665564) rotate(-83.019923) scale(0.1 -0.1)">
      <use xlink:href="#DejaVuSans-30"/>
      <use xlink:href="#DejaVuSans-2e" x="63.623047"/>
      <use xlink:href="#DejaVuSans-32" x="95.410156"/>
      <use xlink:href="#DejaVuSans-35" x="159.033203"/>
     </g>
    </g>
   </g>
   <g id="text_5">
    <g id="patch_16">
     <path d="M 113.340248 135.205122 
L 134.275166 142.78716 
Q 137.09587 143.80874 138.11745 140.988035 
L 141.413109 131.888324 
Q 142.434689 129.06762 139.613984 128.04604 
L 118.679067 120.464002 
Q 115.858362 119.442422 114.836782 122.263127 
L 111.541123 131.362838 
Q 110.519544 134.183542 113.340248 135.205122 
z
" clip-path="url(#p88710ad429)" style="fill: #ffffff; stroke: #ffffff; stroke-linejoin: miter"/>
    </g>
    <g clip-path="url(#p88710ad429)">
     <!-- 0.25 -->
     <g transform="translate(115.070017 130.429023) rotate(-340.091039) scale(0.1 -0.1)">
      <use xlink:href="#DejaVuSans-30"/>
      <use xlink:href="#DejaVuSans-2e" x="63.623047"/>
      <use xlink:href="#DejaVuSans-32" x="95.410156"/>
      <use xlink:href="#DejaVuSans-35" x="159.033203"/>
     </g>
    </g>
   </g>
   <g id="text_6">
    <g id="patch_17">
     <path d="M 166.931752 90.125983 
L 177.067334 109.950918 
Q 178.43297 112.622067 181.104119 111.256431 
L 189.721357 106.850832 
Q 192.392506 105.485195 191.02687 102.814046 
L 180.891289 82.989111 
Q 179.525653 80.317962 176.854504 81.683598 
L 168.237265 86.089198 
Q 165.566116 87.454834 166.931752 90.125983 
z
" clip-path="url(#p88710ad429)" style="fill: #ffffff; stroke: #ffffff; stroke-linejoin: miter"/>
    </g>
    <g clip-path="url(#p88710ad429)">
     <!-- 0.25 -->
     <g transform="translate(171.45462 87.813648) rotate(-297.07858) scale(0.1 -0.1)">
      <use xlink:href="#DejaVuSans-30"/>
      <use xlink:href="#DejaVuSans-2e" x="63.623047"/>
      <use xlink:href="#DejaVuSans-32" x="95.410156"/>
      <use xlink:href="#DejaVuSans-35" x="159.033203"/>
     </g>
    </g>
   </g>
   <g id="text_7">
    <g id="patch_18">
     <path d="M 113.340248 135.205122 
L 134.275166 142.78716 
Q 137.09587 143.80874 138.11745 140.988035 
L 141.413109 131.888324 
Q 142.434689 129.06762 139.613984 128.04604 
L 118.679067 120.464002 
Q 115.858362 119.442422 114.836782 122.263127 
L 111.541123 131.362838 
Q 110.519544 134.183542 113.340248 135.205122 
z
" clip-path="url(#p88710ad429)" style="fill: #ffffff; stroke: #ffffff; stroke-linejoin: miter"/>
    </g>
    <g clip-path="url(#p88710ad429)">
     <!-- 0.25 -->
     <g transform="translate(115.070017 130.429023) rotate(-340.091039) scale(0.1 -0.1)">
      <use xlink:href="#DejaVuSans-30"/>
      <use xlink:href="#DejaVuSans-2e" x="63.623047"/>
      <use xlink:href="#DejaVuSans-32" x="95.410156"/>
      <use xlink:href="#DejaVuSans-35" x="159.033203"/>
     </g>
    </g>
   </g>
   <g id="text_8">
    <g id="patch_19">
     <path d="M 87.600019 77.853464 
L 106.101038 65.465148 
Q 108.593807 63.795985 106.924644 61.303216 
L 101.539856 53.26144 
Q 99.870693 50.768672 97.377925 52.437834 
L 78.876906 64.82615 
Q 76.384137 66.495313 78.0533 68.988082 
L 83.438088 77.029858 
Q 85.10725 79.522626 87.600019 77.853464 
z
" clip-path="url(#p88710ad429)" style="fill: #ffffff; stroke: #ffffff; stroke-linejoin: miter"/>
    </g>
    <g clip-path="url(#p88710ad429)">
     <!-- 0.25 -->
     <g transform="translate(84.773745 73.632635) rotate(-33.806337) scale(0.1 -0.1)">
      <use xlink:href="#DejaVuSans-30"/>
      <use xlink:href="#DejaVuSans-2e" x="63.623047"/>
      <use xlink:href="#DejaVuSans-32" x="95.410156"/>
      <use xlink:href="#DejaVuSans-35" x="159.033203"/>
     </g>
    </g>
   </g>
   <g id="text_9">
    <g id="patch_20">
     <path d="M 166.931752 90.125983 
L 177.067334 109.950918 
Q 178.43297 112.622067 181.104119 111.256431 
L 189.721357 106.850832 
Q 192.392506 105.485195 191.02687 102.814046 
L 180.891289 82.989111 
Q 179.525653 80.317962 176.854504 81.683598 
L 168.237265 86.089198 
Q 165.566116 87.454834 166.931752 90.125983 
z
" clip-path="url(#p88710ad429)" style="fill: #ffffff; stroke: #ffffff; stroke-linejoin: miter"/>
    </g>
    <g clip-path="url(#p88710ad429)">
     <!-- 0.25 -->
     <g transform="translate(171.45462 87.813648) rotate(-297.07858) scale(0.1 -0.1)">
      <use xlink:href="#DejaVuSans-30"/>
      <use xlink:href="#DejaVuSans-2e" x="63.623047"/>
      <use xlink:href="#DejaVuSans-32" x="95.410156"/>
      <use xlink:href="#DejaVuSans-35" x="159.033203"/>
     </g>
    </g>
   </g>
   <g id="text_10">
    <g id="patch_21">
     <path d="M 87.600019 77.853464 
L 106.101038 65.465148 
Q 108.593807 63.795985 106.924644 61.303216 
L 101.539856 53.26144 
Q 99.870693 50.768672 97.377925 52.437834 
L 78.876906 64.82615 
Q 76.384137 66.495313 78.0533 68.988082 
L 83.438088 77.029858 
Q 85.10725 79.522626 87.600019 77.853464 
z
" clip-path="url(#p88710ad429)" style="fill: #ffffff; stroke: #ffffff; stroke-linejoin: miter"/>
    </g>
    <g clip-path="url(#p88710ad429)">
     <!-- 0.25 -->
     <g transform="translate(84.773745 73.632635) rotate(-33.806337) scale(0.1 -0.1)">
      <use xlink:href="#DejaVuSans-30"/>
      <use xlink:href="#DejaVuSans-2e" x="63.623047"/>
      <use xlink:href="#DejaVuSans-32" x="95.410156"/>
      <use xlink:href="#DejaVuSans-35" x="159.033203"/>
     </g>
    </g>
   </g>
   <g id="PathCollection_1">
    <defs>
     <path id="C0_0_070e47622f" d="M 0 22.36068 
C 5.930122 22.36068 11.618159 20.004617 15.811388 15.811388 
C 20.004617 11.618159 22.36068 5.930122 22.36068 -0 
C 22.36068 -5.930122 20.004617 -11.618159 15.811388 -15.811388 
C 11.618159 -20.004617 5.930122 -22.36068 0 -22.36068 
C -5.930122 -22.36068 -11.618159 -20.004617 -15.811388 -15.811388 
C -20.004617 -11.618159 -22.36068 -5.930122 -22.36068 0 
C -22.36068 5.930122 -20.004617 11.618159 -15.811388 15.811388 
C -11.618159 20.004617 -5.930122 22.36068 0 22.36068 
z
"/>
    </defs>
    <g clip-path="url(#p88710ad429)">
     <use xlink:href="#C0_0_070e47622f" x="420.813223" y="163.976444" style="fill: #1f77b4; stroke: #000000"/>
    </g>
    <g clip-path="url(#p88710ad429)">
     <use xlink:href="#C0_0_070e47622f" x="194.27705" y="315.609917" style="fill: #ff7f0e; stroke: #000000"/>
    </g>
    <g clip-path="url(#p88710ad429)">
     <use xlink:href="#C0_0_070e47622f" x="212.967456" y="162.949947" style="fill: #2ca02c; stroke: #000000"/>
    </g>
    <g clip-path="url(#p88710ad429)">
     <use xlink:href="#C0_0_070e47622f" x="39.986777" y="100.301215" style="fill: #d62728; stroke: #000000"/>
    </g>
    <g clip-path="url(#p88710ad429)">
     <use xlink:href="#C0_0_070e47622f" x="144.991167" y="29.990083" style="fill: #9467bd; stroke: #000000"/>
    </g>
   </g>
   <g id="text_11">
    <g clip-path="url(#p88710ad429)">
     <!-- 1: 0.75 -->
     <g transform="translate(399.708223 167.287694) scale(0.12 -0.12)">
      <defs>
       <path id="DejaVuSans-31" d="M 794 531 
L 1825 531 
L 1825 4091 
L 703 3866 
L 703 4441 
L 1819 4666 
L 2450 4666 
L 2450 531 
L 3481 531 
L 3481 0 
L 794 0 
L 794 531 
z
" transform="scale(0.015625)"/>
       <path id="DejaVuSans-3a" d="M 750 794 
L 1409 794 
L 1409 0 
L 750 0 
L 750 794 
z
M 750 3309 
L 1409 3309 
L 1409 2516 
L 750 2516 
L 750 3309 
z
" transform="scale(0.015625)"/>
       <path id="DejaVuSans-20" transform="scale(0.015625)"/>
       <path id="DejaVuSans-37" d="M 525 4666 
L 3525 4666 
L 3525 4397 
L 1831 0 
L 1172 0 
L 2766 4134 
L 525 4134 
L 525 4666 
z
" transform="scale(0.015625)"/>
      </defs>
      <use xlink:href="#DejaVuSans-31"/>
      <use xlink:href="#DejaVuSans-3a" x="63.623047"/>
      <use xlink:href="#DejaVuSans-20" x="97.314453"/>
      <use xlink:href="#DejaVuSans-30" x="129.101562"/>
      <use xlink:href="#DejaVuSans-2e" x="192.724609"/>
      <use xlink:href="#DejaVuSans-37" x="224.511719"/>
      <use xlink:href="#DejaVuSans-35" x="288.134766"/>
     </g>
    </g>
   </g>
   <g id="text_12">
    <g clip-path="url(#p88710ad429)">
     <!-- 2: 0.75 -->
     <g transform="translate(173.17205 318.921167) scale(0.12 -0.12)">
      <use xlink:href="#DejaVuSans-32"/>
      <use xlink:href="#DejaVuSans-3a" x="63.623047"/>
      <use xlink:href="#DejaVuSans-20" x="97.314453"/>
      <use xlink:href="#DejaVuSans-30" x="129.101562"/>
      <use xlink:href="#DejaVuSans-2e" x="192.724609"/>
      <use xlink:href="#DejaVuSans-37" x="224.511719"/>
      <use xlink:href="#DejaVuSans-35" x="288.134766"/>
     </g>
    </g>
   </g>
   <g id="text_13">
    <g clip-path="url(#p88710ad429)">
     <!-- 3: 0.0 -->
     <g transform="translate(195.679956 166.261197) scale(0.12 -0.12)">
      <defs>
       <path id="DejaVuSans-33" d="M 2597 2516 
Q 3050 2419 3304 2112 
Q 3559 1806 3559 1356 
Q 3559 666 3084 287 
Q 2609 -91 1734 -91 
Q 1441 -91 1130 -33 
Q 819 25 488 141 
L 488 750 
Q 750 597 1062 519 
Q 1375 441 1716 441 
Q 2309 441 2620 675 
Q 2931 909 2931 1356 
Q 2931 1769 2642 2001 
Q 2353 2234 1838 2234 
L 1294 2234 
L 1294 2753 
L 1863 2753 
Q 2328 2753 2575 2939 
Q 2822 3125 2822 3475 
Q 2822 3834 2567 4026 
Q 2313 4219 1838 4219 
Q 1578 4219 1281 4162 
Q 984 4106 628 3988 
L 628 4550 
Q 988 4650 1302 4700 
Q 1616 4750 1894 4750 
Q 2613 4750 3031 4423 
Q 3450 4097 3450 3541 
Q 3450 3153 3228 2886 
Q 3006 2619 2597 2516 
z
" transform="scale(0.015625)"/>
      </defs>
      <use xlink:href="#DejaVuSans-33"/>
      <use xlink:href="#DejaVuSans-3a" x="63.623047"/>
      <use xlink:href="#DejaVuSans-20" x="97.314453"/>
      <use xlink:href="#DejaVuSans-30" x="129.101562"/>
      <use xlink:href="#DejaVuSans-2e" x="192.724609"/>
      <use xlink:href="#DejaVuSans-30" x="224.511719"/>
     </g>
    </g>
   </g>
   <g id="text_14">
    <g clip-path="url(#p88710ad429)">
     <!-- 4: 0.5 -->
     <g transform="translate(22.699277 103.612465) scale(0.12 -0.12)">
      <defs>
       <path id="DejaVuSans-34" d="M 2419 4116 
L 825 1625 
L 2419 1625 
L 2419 4116 
z
M 2253 4666 
L 3047 4666 
L 3047 1625 
L 3713 1625 
L 3713 1100 
L 3047 1100 
L 3047 0 
L 2419 0 
L 2419 1100 
L 313 1100 
L 313 1709 
L 2253 4666 
z
" transform="scale(0.015625)"/>
      </defs>
      <use xlink:href="#DejaVuSans-34"/>
      <use xlink:href="#DejaVuSans-3a" x="63.623047"/>
      <use xlink:href="#DejaVuSans-20" x="97.314453"/>
      <use xlink:href="#DejaVuSans-30" x="129.101562"/>
      <use xlink:href="#DejaVuSans-2e" x="192.724609"/>
      <use xlink:href="#DejaVuSans-35" x="224.511719"/>
     </g>
    </g>
   </g>
   <g id="text_15">
    <g clip-path="url(#p88710ad429)">
     <!-- 5: 0.5 -->
     <g transform="translate(127.703667 33.301333) scale(0.12 -0.12)">
      <use xlink:href="#DejaVuSans-35"/>
      <use xlink:href="#DejaVuSans-3a" x="63.623047"/>
      <use xlink:href="#DejaVuSans-20" x="97.314453"/>
      <use xlink:href="#DejaVuSans-30" x="129.101562"/>
      <use xlink:href="#DejaVuSans-2e" x="192.724609"/>
      <use xlink:href="#DejaVuSans-35" x="224.511719"/>
     </g>
    </g>
   </g>
  </g>
 </g>
 <defs>
  <clipPath id="p88710ad429">
   <rect x="0" y="0" width="460.8" height="345.6"/>
  </clipPath>
 </defs>
</svg>
