<?xml version="1.0" encoding="utf-8" standalone="no"?>
<!DOCTYPE svg PUBLIC "-//W3C//DTD SVG 1.1//EN"
  "http://www.w3.org/Graphics/SVG/1.1/DTD/svg11.dtd">
<svg xmlns:xlink="http://www.w3.org/1999/xlink" width="619.12pt" height="349.632pt" viewBox="0 0 619.12 349.632" xmlns="http://www.w3.org/2000/svg" version="1.1">
 <metadata>
  <rdf:RDF xmlns:dc="http://purl.org/dc/elements/1.1/" xmlns:cc="http://creativecommons.org/ns#" xmlns:rdf="http://www.w3.org/1999/02/22-rdf-syntax-ns#">
   <cc:Work>
    <dc:type rdf:resource="http://purl.org/dc/dcmitype/StillImage"/>
    <dc:date>2023-07-25T19:11:01.609986</dc:date>
    <dc:format>image/svg+xml</dc:format>
    <dc:creator>
     <cc:Agent>
      <dc:title>Matplotlib v3.7.2, https://matplotlib.org/</dc:title>
     </cc:Agent>
    </dc:creator>
   </cc:Work>
  </rdf:RDF>
 </metadata>
 <defs>
  <style type="text/css">*{stroke-linejoin: round; stroke-linecap: butt}</style>
 </defs>
 <g id="figure_1">
  <g id="patch_1">
   <path d="M 0 349.632 
L 619.12 349.632 
L 619.12 -0 
L 0 -0 
z
" style="fill: #ffffff"/>
  </g>
  <g id="axes_1">
   <g id="patch_2">
    <path d="M 55.584 307.872 
L 412.704 307.872 
L 412.704 41.76 
L 55.584 41.76 
z
" style="fill: #ffffff"/>
   </g>
   <g id="PolyCollection_1">
    <path d="M 157.741035 272.400217 
L 157.741035 275.12121 
L 172.139162 275.12121 
L 172.139162 272.400217 
L 172.139162 272.400217 
L 157.741035 272.400217 
z
" clip-path="url(#p3b0c20d30c)" style="fill-opacity: 0.2"/>
   </g>
   <g id="matplotlib.axis_1">
    <g id="xtick_1">
     <g id="line2d_1">
      <path d="M 71.816727 307.872 
L 71.816727 41.76 
" clip-path="url(#p3b0c20d30c)" style="fill: none; stroke: #b0b0b0; stroke-width: 0.8; stroke-linecap: square"/>
     </g>
     <g id="line2d_2">
      <defs>
       <path id="mbff9d1e3eb" d="M 0 0 
L 0 3.5 
" style="stroke: #000000; stroke-width: 0.8"/>
      </defs>
      <g>
       <use xlink:href="#mbff9d1e3eb" x="71.816727" y="307.872" style="stroke: #000000; stroke-width: 0.8"/>
      </g>
     </g>
     <g id="text_1">
      <!-- 0 -->
      <g transform="translate(67.362977 325.509812) scale(0.14 -0.14)">
       <defs>
        <path id="DejaVuSans-30" d="M 2034 4250 
Q 1547 4250 1301 3770 
Q 1056 3291 1056 2328 
Q 1056 1369 1301 889 
Q 1547 409 2034 409 
Q 2525 409 2770 889 
Q 3016 1369 3016 2328 
Q 3016 3291 2770 3770 
Q 2525 4250 2034 4250 
z
M 2034 4750 
Q 2819 4750 3233 4129 
Q 3647 3509 3647 2328 
Q 3647 1150 3233 529 
Q 2819 -91 2034 -91 
Q 1250 -91 836 529 
Q 422 1150 422 2328 
Q 422 3509 836 4129 
Q 1250 4750 2034 4750 
z
" transform="scale(0.015625)"/>
       </defs>
       <use xlink:href="#DejaVuSans-30"/>
      </g>
     </g>
    </g>
    <g id="xtick_2">
     <g id="line2d_3">
      <path d="M 118.262299 307.872 
L 118.262299 41.76 
" clip-path="url(#p3b0c20d30c)" style="fill: none; stroke: #b0b0b0; stroke-width: 0.8; stroke-linecap: square"/>
     </g>
     <g id="line2d_4">
      <g>
       <use xlink:href="#mbff9d1e3eb" x="118.262299" y="307.872" style="stroke: #000000; stroke-width: 0.8"/>
      </g>
     </g>
     <g id="text_2">
      <!-- 100 -->
      <g transform="translate(104.901049 325.509812) scale(0.14 -0.14)">
       <defs>
        <path id="DejaVuSans-31" d="M 794 531 
L 1825 531 
L 1825 4091 
L 703 3866 
L 703 4441 
L 1819 4666 
L 2450 4666 
L 2450 531 
L 3481 531 
L 3481 0 
L 794 0 
L 794 531 
z
" transform="scale(0.015625)"/>
       </defs>
       <use xlink:href="#DejaVuSans-31"/>
       <use xlink:href="#DejaVuSans-30" x="63.623047"/>
       <use xlink:href="#DejaVuSans-30" x="127.246094"/>
      </g>
     </g>
    </g>
    <g id="xtick_3">
     <g id="line2d_5">
      <path d="M 164.70787 307.872 
L 164.70787 41.76 
" clip-path="url(#p3b0c20d30c)" style="fill: none; stroke: #b0b0b0; stroke-width: 0.8; stroke-linecap: square"/>
     </g>
     <g id="line2d_6">
      <g>
       <use xlink:href="#mbff9d1e3eb" x="164.70787" y="307.872" style="stroke: #000000; stroke-width: 0.8"/>
      </g>
     </g>
     <g id="text_3">
      <!-- 200 -->
      <g transform="translate(151.34662 325.509812) scale(0.14 -0.14)">
       <defs>
        <path id="DejaVuSans-32" d="M 1228 531 
L 3431 531 
L 3431 0 
L 469 0 
L 469 531 
Q 828 903 1448 1529 
Q 2069 2156 2228 2338 
Q 2531 2678 2651 2914 
Q 2772 3150 2772 3378 
Q 2772 3750 2511 3984 
Q 2250 4219 1831 4219 
Q 1534 4219 1204 4116 
Q 875 4013 500 3803 
L 500 4441 
Q 881 4594 1212 4672 
Q 1544 4750 1819 4750 
Q 2544 4750 2975 4387 
Q 3406 4025 3406 3419 
Q 3406 3131 3298 2873 
Q 3191 2616 2906 2266 
Q 2828 2175 2409 1742 
Q 1991 1309 1228 531 
z
" transform="scale(0.015625)"/>
       </defs>
       <use xlink:href="#DejaVuSans-32"/>
       <use xlink:href="#DejaVuSans-30" x="63.623047"/>
       <use xlink:href="#DejaVuSans-30" x="127.246094"/>
      </g>
     </g>
    </g>
    <g id="xtick_4">
     <g id="line2d_7">
      <path d="M 211.153442 307.872 
L 211.153442 41.76 
" clip-path="url(#p3b0c20d30c)" style="fill: none; stroke: #b0b0b0; stroke-width: 0.8; stroke-linecap: square"/>
     </g>
     <g id="line2d_8">
      <g>
       <use xlink:href="#mbff9d1e3eb" x="211.153442" y="307.872" style="stroke: #000000; stroke-width: 0.8"/>
      </g>
     </g>
     <g id="text_4">
      <!-- 300 -->
      <g transform="translate(197.792192 325.509812) scale(0.14 -0.14)">
       <defs>
        <path id="DejaVuSans-33" d="M 2597 2516 
Q 3050 2419 3304 2112 
Q 3559 1806 3559 1356 
Q 3559 666 3084 287 
Q 2609 -91 1734 -91 
Q 1441 -91 1130 -33 
Q 819 25 488 141 
L 488 750 
Q 750 597 1062 519 
Q 1375 441 1716 441 
Q 2309 441 2620 675 
Q 2931 909 2931 1356 
Q 2931 1769 2642 2001 
Q 2353 2234 1838 2234 
L 1294 2234 
L 1294 2753 
L 1863 2753 
Q 2328 2753 2575 2939 
Q 2822 3125 2822 3475 
Q 2822 3834 2567 4026 
Q 2313 4219 1838 4219 
Q 1578 4219 1281 4162 
Q 984 4106 628 3988 
L 628 4550 
Q 988 4650 1302 4700 
Q 1616 4750 1894 4750 
Q 2613 4750 3031 4423 
Q 3450 4097 3450 3541 
Q 3450 3153 3228 2886 
Q 3006 2619 2597 2516 
z
" transform="scale(0.015625)"/>
       </defs>
       <use xlink:href="#DejaVuSans-33"/>
       <use xlink:href="#DejaVuSans-30" x="63.623047"/>
       <use xlink:href="#DejaVuSans-30" x="127.246094"/>
      </g>
     </g>
    </g>
    <g id="xtick_5">
     <g id="line2d_9">
      <path d="M 257.599014 307.872 
L 257.599014 41.76 
" clip-path="url(#p3b0c20d30c)" style="fill: none; stroke: #b0b0b0; stroke-width: 0.8; stroke-linecap: square"/>
     </g>
     <g id="line2d_10">
      <g>
       <use xlink:href="#mbff9d1e3eb" x="257.599014" y="307.872" style="stroke: #000000; stroke-width: 0.8"/>
      </g>
     </g>
     <g id="text_5">
      <!-- 400 -->
      <g transform="translate(244.237764 325.509812) scale(0.14 -0.14)">
       <defs>
        <path id="DejaVuSans-34" d="M 2419 4116 
L 825 1625 
L 2419 1625 
L 2419 4116 
z
M 2253 4666 
L 3047 4666 
L 3047 1625 
L 3713 1625 
L 3713 1100 
L 3047 1100 
L 3047 0 
L 2419 0 
L 2419 1100 
L 313 1100 
L 313 1709 
L 2253 4666 
z
" transform="scale(0.015625)"/>
       </defs>
       <use xlink:href="#DejaVuSans-34"/>
       <use xlink:href="#DejaVuSans-30" x="63.623047"/>
       <use xlink:href="#DejaVuSans-30" x="127.246094"/>
      </g>
     </g>
    </g>
    <g id="xtick_6">
     <g id="line2d_11">
      <path d="M 304.044585 307.872 
L 304.044585 41.76 
" clip-path="url(#p3b0c20d30c)" style="fill: none; stroke: #b0b0b0; stroke-width: 0.8; stroke-linecap: square"/>
     </g>
     <g id="line2d_12">
      <g>
       <use xlink:href="#mbff9d1e3eb" x="304.044585" y="307.872" style="stroke: #000000; stroke-width: 0.8"/>
      </g>
     </g>
     <g id="text_6">
      <!-- 500 -->
      <g transform="translate(290.683335 325.509812) scale(0.14 -0.14)">
       <defs>
        <path id="DejaVuSans-35" d="M 691 4666 
L 3169 4666 
L 3169 4134 
L 1269 4134 
L 1269 2991 
Q 1406 3038 1543 3061 
Q 1681 3084 1819 3084 
Q 2600 3084 3056 2656 
Q 3513 2228 3513 1497 
Q 3513 744 3044 326 
Q 2575 -91 1722 -91 
Q 1428 -91 1123 -41 
Q 819 9 494 109 
L 494 744 
Q 775 591 1075 516 
Q 1375 441 1709 441 
Q 2250 441 2565 725 
Q 2881 1009 2881 1497 
Q 2881 1984 2565 2268 
Q 2250 2553 1709 2553 
Q 1456 2553 1204 2497 
Q 953 2441 691 2322 
L 691 4666 
z
" transform="scale(0.015625)"/>
       </defs>
       <use xlink:href="#DejaVuSans-35"/>
       <use xlink:href="#DejaVuSans-30" x="63.623047"/>
       <use xlink:href="#DejaVuSans-30" x="127.246094"/>
      </g>
     </g>
    </g>
    <g id="xtick_7">
     <g id="line2d_13">
      <path d="M 350.490157 307.872 
L 350.490157 41.76 
" clip-path="url(#p3b0c20d30c)" style="fill: none; stroke: #b0b0b0; stroke-width: 0.8; stroke-linecap: square"/>
     </g>
     <g id="line2d_14">
      <g>
       <use xlink:href="#mbff9d1e3eb" x="350.490157" y="307.872" style="stroke: #000000; stroke-width: 0.8"/>
      </g>
     </g>
     <g id="text_7">
      <!-- 600 -->
      <g transform="translate(337.128907 325.509812) scale(0.14 -0.14)">
       <defs>
        <path id="DejaVuSans-36" d="M 2113 2584 
Q 1688 2584 1439 2293 
Q 1191 2003 1191 1497 
Q 1191 994 1439 701 
Q 1688 409 2113 409 
Q 2538 409 2786 701 
Q 3034 994 3034 1497 
Q 3034 2003 2786 2293 
Q 2538 2584 2113 2584 
z
M 3366 4563 
L 3366 3988 
Q 3128 4100 2886 4159 
Q 2644 4219 2406 4219 
Q 1781 4219 1451 3797 
Q 1122 3375 1075 2522 
Q 1259 2794 1537 2939 
Q 1816 3084 2150 3084 
Q 2853 3084 3261 2657 
Q 3669 2231 3669 1497 
Q 3669 778 3244 343 
Q 2819 -91 2113 -91 
Q 1303 -91 875 529 
Q 447 1150 447 2328 
Q 447 3434 972 4092 
Q 1497 4750 2381 4750 
Q 2619 4750 2861 4703 
Q 3103 4656 3366 4563 
z
" transform="scale(0.015625)"/>
       </defs>
       <use xlink:href="#DejaVuSans-36"/>
       <use xlink:href="#DejaVuSans-30" x="63.623047"/>
       <use xlink:href="#DejaVuSans-30" x="127.246094"/>
      </g>
     </g>
    </g>
    <g id="xtick_8">
     <g id="line2d_15">
      <path d="M 396.935728 307.872 
L 396.935728 41.76 
" clip-path="url(#p3b0c20d30c)" style="fill: none; stroke: #b0b0b0; stroke-width: 0.8; stroke-linecap: square"/>
     </g>
     <g id="line2d_16">
      <g>
       <use xlink:href="#mbff9d1e3eb" x="396.935728" y="307.872" style="stroke: #000000; stroke-width: 0.8"/>
      </g>
     </g>
     <g id="text_8">
      <!-- 700 -->
      <g transform="translate(383.574478 325.509812) scale(0.14 -0.14)">
       <defs>
        <path id="DejaVuSans-37" d="M 525 4666 
L 3525 4666 
L 3525 4397 
L 1831 0 
L 1172 0 
L 2766 4134 
L 525 4134 
L 525 4666 
z
" transform="scale(0.015625)"/>
       </defs>
       <use xlink:href="#DejaVuSans-37"/>
       <use xlink:href="#DejaVuSans-30" x="63.623047"/>
       <use xlink:href="#DejaVuSans-30" x="127.246094"/>
      </g>
     </g>
    </g>
   </g>
   <g id="matplotlib.axis_2">
    <g id="ytick_1">
     <g id="line2d_17">
      <path d="M 55.584 297.636923 
L 412.704 297.636923 
" clip-path="url(#p3b0c20d30c)" style="fill: none; stroke: #b0b0b0; stroke-width: 0.8; stroke-linecap: square"/>
     </g>
     <g id="line2d_18">
      <defs>
       <path id="m1663ae4846" d="M 0 0 
L -3.5 0 
" style="stroke: #000000; stroke-width: 0.8"/>
      </defs>
      <g>
       <use xlink:href="#m1663ae4846" x="55.584" y="297.636923" style="stroke: #000000; stroke-width: 0.8"/>
      </g>
     </g>
     <g id="text_9">
      <!-- 0.00 -->
      <g transform="translate(17.412125 302.955829) scale(0.14 -0.14)">
       <defs>
        <path id="DejaVuSans-2e" d="M 684 794 
L 1344 794 
L 1344 0 
L 684 0 
L 684 794 
z
" transform="scale(0.015625)"/>
       </defs>
       <use xlink:href="#DejaVuSans-30"/>
       <use xlink:href="#DejaVuSans-2e" x="63.623047"/>
       <use xlink:href="#DejaVuSans-30" x="95.410156"/>
       <use xlink:href="#DejaVuSans-30" x="159.033203"/>
      </g>
     </g>
    </g>
    <g id="ytick_2">
     <g id="line2d_19">
      <path d="M 55.584 246.461538 
L 412.704 246.461538 
" clip-path="url(#p3b0c20d30c)" style="fill: none; stroke: #b0b0b0; stroke-width: 0.8; stroke-linecap: square"/>
     </g>
     <g id="line2d_20">
      <g>
       <use xlink:href="#m1663ae4846" x="55.584" y="246.461538" style="stroke: #000000; stroke-width: 0.8"/>
      </g>
     </g>
     <g id="text_10">
      <!-- 0.05 -->
      <g transform="translate(17.412125 251.780445) scale(0.14 -0.14)">
       <use xlink:href="#DejaVuSans-30"/>
       <use xlink:href="#DejaVuSans-2e" x="63.623047"/>
       <use xlink:href="#DejaVuSans-30" x="95.410156"/>
       <use xlink:href="#DejaVuSans-35" x="159.033203"/>
      </g>
     </g>
    </g>
    <g id="ytick_3">
     <g id="line2d_21">
      <path d="M 55.584 195.286154 
L 412.704 195.286154 
" clip-path="url(#p3b0c20d30c)" style="fill: none; stroke: #b0b0b0; stroke-width: 0.8; stroke-linecap: square"/>
     </g>
     <g id="line2d_22">
      <g>
       <use xlink:href="#m1663ae4846" x="55.584" y="195.286154" style="stroke: #000000; stroke-width: 0.8"/>
      </g>
     </g>
     <g id="text_11">
      <!-- 0.10 -->
      <g transform="translate(17.412125 200.60506) scale(0.14 -0.14)">
       <use xlink:href="#DejaVuSans-30"/>
       <use xlink:href="#DejaVuSans-2e" x="63.623047"/>
       <use xlink:href="#DejaVuSans-31" x="95.410156"/>
       <use xlink:href="#DejaVuSans-30" x="159.033203"/>
      </g>
     </g>
    </g>
    <g id="ytick_4">
     <g id="line2d_23">
      <path d="M 55.584 144.110769 
L 412.704 144.110769 
" clip-path="url(#p3b0c20d30c)" style="fill: none; stroke: #b0b0b0; stroke-width: 0.8; stroke-linecap: square"/>
     </g>
     <g id="line2d_24">
      <g>
       <use xlink:href="#m1663ae4846" x="55.584" y="144.110769" style="stroke: #000000; stroke-width: 0.8"/>
      </g>
     </g>
     <g id="text_12">
      <!-- 0.15 -->
      <g transform="translate(17.412125 149.429675) scale(0.14 -0.14)">
       <use xlink:href="#DejaVuSans-30"/>
       <use xlink:href="#DejaVuSans-2e" x="63.623047"/>
       <use xlink:href="#DejaVuSans-31" x="95.410156"/>
       <use xlink:href="#DejaVuSans-35" x="159.033203"/>
      </g>
     </g>
    </g>
    <g id="ytick_5">
     <g id="line2d_25">
      <path d="M 55.584 92.935385 
L 412.704 92.935385 
" clip-path="url(#p3b0c20d30c)" style="fill: none; stroke: #b0b0b0; stroke-width: 0.8; stroke-linecap: square"/>
     </g>
     <g id="line2d_26">
      <g>
       <use xlink:href="#m1663ae4846" x="55.584" y="92.935385" style="stroke: #000000; stroke-width: 0.8"/>
      </g>
     </g>
     <g id="text_13">
      <!-- 0.20 -->
      <g transform="translate(17.412125 98.254291) scale(0.14 -0.14)">
       <use xlink:href="#DejaVuSans-30"/>
       <use xlink:href="#DejaVuSans-2e" x="63.623047"/>
       <use xlink:href="#DejaVuSans-32" x="95.410156"/>
       <use xlink:href="#DejaVuSans-30" x="159.033203"/>
      </g>
     </g>
    </g>
    <g id="ytick_6">
     <g id="line2d_27">
      <path d="M 55.584 41.76 
L 412.704 41.76 
" clip-path="url(#p3b0c20d30c)" style="fill: none; stroke: #b0b0b0; stroke-width: 0.8; stroke-linecap: square"/>
     </g>
     <g id="line2d_28">
      <g>
       <use xlink:href="#m1663ae4846" x="55.584" y="41.76" style="stroke: #000000; stroke-width: 0.8"/>
      </g>
     </g>
     <g id="text_14">
      <!-- 0.25 -->
      <g transform="translate(17.412125 47.078906) scale(0.14 -0.14)">
       <use xlink:href="#DejaVuSans-30"/>
       <use xlink:href="#DejaVuSans-2e" x="63.623047"/>
       <use xlink:href="#DejaVuSans-32" x="95.410156"/>
       <use xlink:href="#DejaVuSans-35" x="159.033203"/>
      </g>
     </g>
    </g>
   </g>
   <g id="line2d_29">
    <path d="M 71.816727 297.636923 
L 117.797843 297.636923 
L 118.086918 -1 
M 126.391718 -1 
L 127.551413 18.649123 
L 129.409236 46.552089 
L 130.802603 65.184428 
L 133.124882 91.862133 
L 134.518249 105.484548 
L 137.304983 128.585195 
L 138.69835 138.76521 
L 139.627262 144.957924 
L 141.485085 155.983882 
L 144.736275 172.240927 
L 147.523009 183.689741 
L 149.845288 191.696681 
L 152.167566 198.793255 
L 154.489845 204.805127 
L 158.669946 214.131777 
L 162.850048 221.914825 
L 163.778959 223.386132 
L 165.172326 225.524316 
L 167.030149 228.111332 
L 167.494605 228.837474 
L 168.423516 229.998965 
L 169.816883 231.796837 
L 173.068073 235.752353 
L 177.712631 240.509529 
L 178.177086 240.864129 
L 179.105998 241.77269 
L 180.034909 242.520389 
L 183.286099 245.235997 
L 184.215011 245.807888 
L 186.072833 247.208305 
L 187.466201 248.186713 
L 194.897492 252.89732 
L 198.613138 254.917224 
L 199.542049 255.395577 
L 200.935416 256.0696 
L 202.793239 256.935185 
L 204.186606 257.55278 
L 214.404632 261.592574 
L 215.333544 261.919164 
L 219.978101 263.501302 
L 226.016025 265.212436 
L 226.944936 265.487657 
L 228.338304 265.875242 
L 232.982861 267.133573 
L 240.414152 268.734719 
L 243.665342 269.37302 
L 245.523165 269.761023 
L 260.850204 272.440946 
L 272.461597 274.159381 
L 279.428432 275.025934 
L 285.930812 275.674565 
L 309.153598 277.976494 
L 319.371624 278.795454 
L 323.551725 279.107869 
L 332.376384 279.761241 
L 340.272131 280.301307 
L 343.058865 280.490075 
L 348.167878 280.755714 
L 389.504437 283.007109 
L 395.542361 283.287881 
L 396.471273 283.321558 
L 396.471273 283.321558 
" clip-path="url(#p3b0c20d30c)" style="fill: none; stroke: #1f77b4; stroke-width: 2; stroke-linecap: square"/>
    <defs>
     <path id="m0f458c0a2c" d="M 0 3 
C 0.795609 3 1.55874 2.683901 2.12132 2.12132 
C 2.683901 1.55874 3 0.795609 3 0 
C 3 -0.795609 2.683901 -1.55874 2.12132 -2.12132 
C 1.55874 -2.683901 0.795609 -3 0 -3 
C -0.795609 -3 -1.55874 -2.683901 -2.12132 -2.12132 
C -2.683901 -1.55874 -3 -0.795609 -3 0 
C -3 0.795609 -2.683901 1.55874 -2.12132 2.12132 
C -1.55874 2.683901 -0.795609 3 0 3 
z
" style="stroke: #1f77b4"/>
    </defs>
    <g clip-path="url(#p3b0c20d30c)">
     <use xlink:href="#m0f458c0a2c" x="71.816727" y="297.636923" style="fill: #1f77b4; stroke: #1f77b4"/>
     <use xlink:href="#m0f458c0a2c" x="164.70787" y="224.75392" style="fill: #1f77b4; stroke: #1f77b4"/>
     <use xlink:href="#m0f458c0a2c" x="257.599014" y="271.919469" style="fill: #1f77b4; stroke: #1f77b4"/>
     <use xlink:href="#m0f458c0a2c" x="350.490157" y="280.918095" style="fill: #1f77b4; stroke: #1f77b4"/>
    </g>
   </g>
   <g id="line2d_30">
    <path d="M 269.210407 307.872 
L 269.210407 41.76 
" clip-path="url(#p3b0c20d30c)" style="fill: none; stroke-dasharray: 7.4,3.2; stroke-dashoffset: 0; stroke: #1f77b4; stroke-width: 2"/>
   </g>
   <g id="line2d_31">
    <path d="M 71.816727 297.636923 
L 117.797843 297.636923 
L 118.262299 87.11624 
L 118.726755 33.495288 
L 119.655666 74.06002 
L 120.120122 92.302469 
L 121.049033 116.562051 
L 121.513489 123.665542 
L 122.4424 142.89816 
L 122.906856 149.423607 
L 123.371312 158.210753 
L 123.835767 164.06951 
L 124.300223 167.021559 
L 125.229135 179.608851 
L 125.69359 184.25797 
L 126.158046 184.582727 
L 126.622502 191.53498 
L 127.086957 190.11988 
L 127.551413 199.09053 
L 128.015869 197.62189 
L 128.480325 205.048952 
L 129.409236 211.242492 
L 129.873692 212.683236 
L 130.338147 216.117958 
L 130.802603 217.239563 
L 131.267059 219.228265 
L 131.731515 217.515853 
L 132.19597 222.820956 
L 132.660426 226.191566 
L 133.124882 227.403372 
L 133.589337 229.530816 
L 134.053793 230.852633 
L 134.518249 232.609129 
L 134.982705 232.813877 
L 135.44716 235.11578 
L 136.376072 237.778044 
L 136.840528 238.53852 
L 137.304983 237.608887 
L 137.769439 241.481186 
L 138.233895 242.889064 
L 138.69835 242.934977 
L 139.162806 244.827755 
L 141.020629 248.36429 
L 141.94954 250.034042 
L 144.271819 253.768578 
L 144.736275 254.244631 
L 147.058553 257.399038 
L 150.774199 261.468613 
L 151.238655 261.744778 
L 151.70311 262.247674 
L 154.489845 264.351992 
L 155.883212 265.451439 
L 157.276579 266.478541 
L 159.598858 268.013764 
L 160.992225 268.864826 
L 161.45668 269.282069 
L 162.850048 270.036617 
L 164.70787 271.075846 
L 167.030149 272.121983 
L 169.816883 273.33736 
L 170.745795 273.614423 
L 171.674706 273.953565 
L 175.390352 275.218435 
L 177.712631 275.968161 
L 178.641542 276.247676 
L 179.570453 276.481538 
L 180.499365 276.833603 
L 195.361948 280.396874 
L 198.613138 280.94104 
L 204.651062 281.882197 
L 217.655822 283.512765 
L 218.584734 283.565545 
L 225.087114 284.283104 
L 228.802759 284.660271 
L 232.053949 284.881697 
L 236.698506 285.287694 
L 239.020785 285.406794 
L 242.271975 285.575575 
L 247.380988 285.8649 
L 265.959217 286.984728 
L 271.068229 287.264346 
L 273.390508 287.387094 
L 292.433192 288.107108 
L 304.973497 288.566795 
L 308.689142 288.689447 
L 324.016181 289.203187 
L 326.33846 289.245302 
L 346.774511 289.77799 
L 351.883524 289.869079 
L 396.471273 290.540147 
L 396.471273 290.540147 
" clip-path="url(#p3b0c20d30c)" style="fill: none; stroke: #ff7f0e; stroke-width: 2; stroke-linecap: square"/>
    <defs>
     <path id="m5b43bf9f22" d="M 0 -3 
L -3 3 
L 3 3 
z
" style="stroke: #ff7f0e; stroke-linejoin: miter"/>
    </defs>
    <g clip-path="url(#p3b0c20d30c)">
     <use xlink:href="#m5b43bf9f22" x="71.816727" y="297.636923" style="fill: #ff7f0e; stroke: #ff7f0e; stroke-linejoin: miter"/>
     <use xlink:href="#m5b43bf9f22" x="164.70787" y="271.075846" style="fill: #ff7f0e; stroke: #ff7f0e; stroke-linejoin: miter"/>
     <use xlink:href="#m5b43bf9f22" x="257.599014" y="286.514576" style="fill: #ff7f0e; stroke: #ff7f0e; stroke-linejoin: miter"/>
     <use xlink:href="#m5b43bf9f22" x="350.490157" y="289.847575" style="fill: #ff7f0e; stroke: #ff7f0e; stroke-linejoin: miter"/>
    </g>
   </g>
   <g id="line2d_32">
    <path d="M 171.21025 307.872 
L 171.21025 41.76 
" clip-path="url(#p3b0c20d30c)" style="fill: none; stroke-dasharray: 7.4,3.2; stroke-dashoffset: 0; stroke: #ff7f0e; stroke-width: 2"/>
   </g>
   <g id="line2d_33">
    <path d="M 71.816727 297.636923 
L 117.797843 297.636923 
L 118.262299 107.400455 
L 118.726755 90.260252 
L 119.655666 130.406331 
L 120.584577 154.712203 
L 121.513489 170.220467 
L 122.906856 188.008359 
L 124.764679 204.363523 
L 125.69359 211.077775 
L 128.015869 222.675934 
L 130.338147 233.339862 
L 131.267059 236.595186 
L 132.19597 239.38581 
L 135.44716 248.167614 
L 137.304983 252.035019 
L 137.769439 252.628848 
L 140.556173 257.148206 
L 142.878452 259.942888 
L 146.129642 263.262467 
L 146.594098 263.561646 
L 148.916376 265.725592 
L 151.70311 267.799931 
L 153.560933 268.947717 
L 155.418756 269.954718 
L 156.347668 270.552527 
L 157.276579 271.017003 
L 158.669946 271.789237 
L 161.45668 273.015414 
L 161.921136 273.118694 
L 163.778959 273.926793 
L 170.745795 276.447479 
L 173.996985 277.361737 
L 174.925896 277.649678 
L 184.215011 279.971862 
L 185.608378 280.112362 
L 194.897492 281.74558 
L 200.006505 282.379943 
L 206.508885 283.155206 
L 219.049189 284.224691 
L 221.835924 284.552887 
L 227.873848 284.963715 
L 230.196126 285.188397 
L 233.911772 285.48048 
L 243.200886 286.167552 
L 246.916532 286.425915 
L 267.817039 287.559639 
L 294.291015 288.492748 
L 296.613294 288.569776 
L 299.864484 288.741153 
L 318.442712 289.389784 
L 321.693902 289.445823 
L 324.016181 289.531847 
L 327.731827 289.620792 
L 351.419068 290.158704 
L 360.243727 290.329017 
L 365.35274 290.416938 
L 371.390664 290.573849 
L 377.428588 290.676842 
L 383.002057 290.811441 
L 387.646614 290.897883 
L 396.471273 291.02398 
L 396.471273 291.02398 
" clip-path="url(#p3b0c20d30c)" style="fill: none; stroke: #2ca02c; stroke-width: 2; stroke-linecap: square"/>
    <defs>
     <path id="maf0bf2617a" d="M -3 3 
L 3 3 
L 3 -3 
L -3 -3 
z
" style="stroke: #2ca02c; stroke-linejoin: miter"/>
    </defs>
    <g clip-path="url(#p3b0c20d30c)">
     <use xlink:href="#maf0bf2617a" x="71.816727" y="297.636923" style="fill: #2ca02c; stroke: #2ca02c; stroke-linejoin: miter"/>
     <use xlink:href="#maf0bf2617a" x="164.70787" y="274.27895" style="fill: #2ca02c; stroke: #2ca02c; stroke-linejoin: miter"/>
     <use xlink:href="#maf0bf2617a" x="257.599014" y="287.051826" style="fill: #2ca02c; stroke: #2ca02c; stroke-linejoin: miter"/>
     <use xlink:href="#maf0bf2617a" x="350.490157" y="290.113896" style="fill: #2ca02c; stroke: #2ca02c; stroke-linejoin: miter"/>
    </g>
   </g>
   <g id="line2d_34">
    <path d="M 163.314503 307.872 
L 163.314503 41.76 
" clip-path="url(#p3b0c20d30c)" style="fill: none; stroke-dasharray: 7.4,3.2; stroke-dashoffset: 0; stroke: #2ca02c; stroke-width: 2"/>
   </g>
   <g id="line2d_35">
    <path d="M 71.816727 297.636923 
L 117.797843 297.636923 
L 118.262299 111.228773 
L 118.726755 91.539036 
L 119.19121 115.642284 
L 120.120122 146.090673 
L 120.584577 156.736046 
L 121.513489 172.763558 
L 122.906856 189.915522 
L 124.300223 203.902742 
L 125.229135 210.359568 
L 127.551413 225.038331 
L 129.873692 234.995224 
L 130.338147 236.382791 
L 131.267059 239.976376 
L 131.731515 241.171966 
L 132.19597 242.944515 
L 134.053793 247.599131 
L 135.44716 250.635407 
L 138.233895 255.800997 
L 139.162806 257.260233 
L 140.091718 258.728508 
L 140.556173 259.125147 
L 141.020629 259.950084 
L 142.413996 261.481349 
L 142.878452 261.888074 
L 143.807363 263.00409 
L 144.736275 263.890735 
L 145.665186 264.973692 
L 146.129642 265.562606 
L 148.916376 267.867743 
L 149.845288 268.414565 
L 152.632022 270.477647 
L 153.560933 270.991842 
L 155.883212 272.328078 
L 158.20549 273.428224 
L 159.134402 273.897834 
L 160.063313 274.257311 
L 163.314503 275.486816 
L 166.565693 276.614323 
L 167.494605 276.88557 
L 169.352428 277.496944 
L 170.281339 277.738195 
L 171.674706 278.088563 
L 174.46144 278.891563 
L 176.319263 279.334983 
L 178.177086 279.653408 
L 179.570453 279.919556 
L 180.963821 280.131355 
L 182.357188 280.48799 
L 183.750555 280.734453 
L 185.143922 281.02461 
L 186.537289 281.284095 
L 191.181846 282.00152 
L 195.361948 282.429173 
L 197.219771 282.739951 
L 198.148682 282.856781 
L 203.257695 283.502674 
L 206.973341 283.775472 
L 211.153442 284.168157 
L 213.011265 284.323689 
L 215.333544 284.69267 
L 223.693746 285.431115 
L 226.016025 285.618527 
L 231.125038 285.918015 
L 236.698506 286.190737 
L 239.485241 286.283067 
L 241.343064 286.395647 
L 244.594254 286.661262 
L 246.452076 286.794818 
L 250.167722 286.964719 
L 253.883368 287.176719 
L 256.205647 287.242954 
L 258.063469 287.289627 
L 263.636938 287.563183 
L 267.352584 287.714821 
L 271.997141 287.932705 
L 278.963977 288.160075 
L 284.537445 288.45934 
L 289.646458 288.639026 
L 292.897648 288.723471 
L 298.471117 288.947112 
L 300.32894 289.014508 
L 308.224687 289.227269 
L 313.3337 289.309032 
L 317.513801 289.41049 
L 322.158358 289.537475 
L 327.731827 289.737387 
L 341.201043 289.993975 
L 344.916688 290.07462 
L 348.167878 290.178464 
L 356.992537 290.34938 
L 362.10155 290.425486 
L 365.817195 290.494772 
L 379.286411 290.726615 
L 382.537601 290.765144 
L 389.039981 290.848666 
L 396.471273 290.900576 
L 396.471273 290.900576 
" clip-path="url(#p3b0c20d30c)" style="fill: none; stroke: #d62728; stroke-width: 2; stroke-linecap: square"/>
    <defs>
     <path id="m0ec4c9ec32" d="M -3 3 
L 3 -3 
M -3 -3 
L 3 3 
" style="stroke: #d62728"/>
    </defs>
    <g clip-path="url(#p3b0c20d30c)">
     <use xlink:href="#m0ec4c9ec32" x="71.816727" y="297.636923" style="fill: #d62728; stroke: #d62728"/>
     <use xlink:href="#m0ec4c9ec32" x="164.70787" y="276.013089" style="fill: #d62728; stroke: #d62728"/>
     <use xlink:href="#m0ec4c9ec32" x="257.599014" y="287.271375" style="fill: #d62728; stroke: #d62728"/>
     <use xlink:href="#m0ec4c9ec32" x="350.490157" y="290.242249" style="fill: #d62728; stroke: #d62728"/>
    </g>
   </g>
   <g id="line2d_36">
    <path d="M 158.669946 307.872 
L 158.669946 41.76 
" clip-path="url(#p3b0c20d30c)" style="fill: none; stroke-dasharray: 7.4,3.2; stroke-dashoffset: 0; stroke: #d62728; stroke-width: 2"/>
   </g>
   <g id="line2d_37">
    <path d="M 71.816727 297.636923 
L 117.797843 297.636923 
L 118.262299 122.373611 
L 118.726755 80.935287 
L 119.655666 128.589867 
L 120.584577 154.223705 
L 121.049033 163.311203 
L 122.906856 189.415226 
L 123.835767 199.265861 
L 125.229135 211.824661 
L 126.158046 218.434746 
L 127.086957 224.056559 
L 128.480325 230.922096 
L 131.267059 241.667995 
L 133.124882 246.308932 
L 136.376072 254.157377 
L 137.304983 255.699922 
L 141.020629 261.11182 
L 141.485085 261.541939 
L 141.94954 262.231427 
L 142.878452 263.007996 
L 144.271819 264.405703 
L 145.20073 265.323363 
L 146.129642 266.195611 
L 147.987465 267.598647 
L 149.380832 268.74934 
L 150.774199 269.577634 
L 152.167566 270.433957 
L 153.096478 271.028137 
L 154.9543 272.117762 
L 161.921136 275.232702 
L 162.850048 275.544256 
L 167.030149 276.904398 
L 168.887972 277.485195 
L 169.352428 277.65137 
L 169.816883 277.686873 
L 171.674706 278.244628 
L 173.996985 278.880525 
L 175.390352 279.102669 
L 177.248175 279.63002 
L 178.641542 279.903665 
L 186.537289 281.396616 
L 187.466201 281.527683 
L 188.395112 281.710188 
L 191.646302 282.167787 
L 192.575213 282.279836 
L 193.968581 282.43632 
L 203.257695 283.893135 
L 204.651062 284.011322 
L 217.191366 285.305133 
L 229.267215 286.112756 
L 230.660582 286.169892 
L 244.594254 286.991018 
L 284.072989 288.624867 
L 288.253091 288.80317 
L 291.968737 288.993145 
L 296.613294 289.10699 
L 301.257851 289.25203 
L 304.973497 289.372072 
L 311.011421 289.466416 
L 323.551725 289.752827 
L 339.807675 290.111865 
L 344.452233 290.20282 
L 351.419068 290.341783 
L 371.390664 290.675548 
L 386.253247 290.882037 
L 395.077906 291.034507 
L 396.471273 291.038546 
L 396.471273 291.038546 
" clip-path="url(#p3b0c20d30c)" style="fill: none; stroke: #9467bd; stroke-width: 2; stroke-linecap: square"/>
    <defs>
     <path id="m596e198bd1" d="M -0 3 
L 3 -3 
L -3 -3 
z
" style="stroke: #9467bd; stroke-linejoin: miter"/>
    </defs>
    <g clip-path="url(#p3b0c20d30c)">
     <use xlink:href="#m596e198bd1" x="71.816727" y="297.636923" style="fill: #9467bd; stroke: #9467bd; stroke-linejoin: miter"/>
     <use xlink:href="#m596e198bd1" x="164.70787" y="276.203001" style="fill: #9467bd; stroke: #9467bd; stroke-linejoin: miter"/>
     <use xlink:href="#m596e198bd1" x="257.599014" y="287.575565" style="fill: #9467bd; stroke: #9467bd; stroke-linejoin: miter"/>
     <use xlink:href="#m596e198bd1" x="350.490157" y="290.311677" style="fill: #9467bd; stroke: #9467bd; stroke-linejoin: miter"/>
    </g>
   </g>
   <g id="line2d_38">
    <path d="M 158.669946 307.872 
L 158.669946 41.76 
" clip-path="url(#p3b0c20d30c)" style="fill: none; stroke-dasharray: 7.4,3.2; stroke-dashoffset: 0; stroke: #9467bd; stroke-width: 2"/>
   </g>
   <g id="line2d_39">
    <path d="M 71.816727 297.636923 
L 117.797843 297.636923 
L 118.262299 115.335612 
L 118.726755 73.279908 
L 119.655666 116.792218 
L 120.584577 140.795258 
L 121.049033 147.44208 
L 121.513489 158.678866 
L 123.371312 184.121465 
L 123.835767 186.996146 
L 125.229135 203.044829 
L 125.69359 205.187361 
L 126.158046 209.666402 
L 127.086957 216.149084 
L 127.551413 215.973051 
L 128.015869 214.092687 
L 128.480325 216.985216 
L 128.94478 221.264465 
L 129.409236 229.22572 
L 129.873692 231.192593 
L 130.338147 231.934227 
L 130.802603 235.195593 
L 131.267059 224.187889 
L 131.731515 237.838674 
L 132.19597 237.061647 
L 132.660426 241.237857 
L 133.124882 239.477759 
L 133.589337 243.43595 
L 134.053793 243.89477 
L 134.518249 245.753452 
L 136.376072 250.17921 
L 136.840528 250.792836 
L 137.304983 252.119166 
L 137.769439 252.490614 
L 138.233895 253.731224 
L 138.69835 254.388118 
L 139.162806 255.601314 
L 139.627262 256.165323 
L 140.091718 257.146127 
L 140.556173 257.497942 
L 141.020629 258.511173 
L 141.485085 258.601567 
L 141.94954 259.728573 
L 142.413996 260.022997 
L 142.878452 260.900952 
L 143.342908 260.538065 
L 143.807363 262.029832 
L 144.271819 262.0826 
L 144.736275 262.943719 
L 145.20073 263.125832 
L 145.665186 263.998297 
L 146.129642 264.040212 
L 146.594098 264.736239 
L 147.058553 264.86349 
L 147.987465 265.689546 
L 148.45192 266.442077 
L 148.916376 266.553948 
L 149.380832 267.212746 
L 149.845288 267.168035 
L 150.774199 268.262227 
L 151.238655 267.981745 
L 151.70311 268.790461 
L 152.632022 269.483632 
L 153.096478 269.413396 
L 153.560933 270.18131 
L 154.025389 270.415727 
L 154.489845 270.802755 
L 154.9543 270.98932 
L 155.418756 271.482458 
L 155.883212 271.694092 
L 156.347668 272.116381 
L 157.276579 272.549381 
L 157.741035 272.871254 
L 159.598858 273.679602 
L 160.527769 274.151788 
L 162.850048 274.999549 
L 165.636782 276.044681 
L 171.21025 277.580557 
L 171.674706 277.855056 
L 172.603618 278.045897 
L 176.319263 279.164025 
L 177.248175 279.287054 
L 179.570453 279.831203 
L 185.608378 280.91278 
L 187.001745 281.132788 
L 188.859568 281.431205 
L 189.788479 281.570783 
L 200.935416 283.007566 
L 202.793239 283.159132 
L 218.120278 284.717427 
L 219.049189 284.788272 
L 221.835924 284.991937 
L 225.087114 285.239137 
L 226.480481 285.401404 
L 228.338304 285.547371 
L 229.731671 285.651395 
L 233.911772 285.943786 
L 240.414152 286.387012 
L 265.959217 287.806988 
L 269.674862 287.875078 
L 276.641698 288.184421 
L 278.963977 288.245046 
L 291.039825 288.585461 
L 294.755471 288.713475 
L 324.016181 289.412603 
L 330.518561 289.511063 
L 339.34322 289.706716 
L 341.665498 289.729336 
L 353.741347 289.943766 
L 379.286411 290.456474 
L 383.930968 290.575288 
L 392.755627 290.683771 
L 396.471273 290.787282 
L 396.471273 290.787282 
" clip-path="url(#p3b0c20d30c)" style="fill: none; stroke: #8c564b; stroke-width: 2; stroke-linecap: square"/>
    <defs>
     <path id="mfd7097831a" d="M 0 -3 
L -0.673542 -0.927051 
L -2.85317 -0.927051 
L -1.089814 0.354102 
L -1.763356 2.427051 
L -0 1.145898 
L 1.763356 2.427051 
L 1.089814 0.354102 
L 2.85317 -0.927051 
L 0.673542 -0.927051 
z
" style="stroke: #8c564b; stroke-linejoin: bevel"/>
    </defs>
    <g clip-path="url(#p3b0c20d30c)">
     <use xlink:href="#mfd7097831a" x="71.816727" y="297.636923" style="fill: #8c564b; stroke: #8c564b; stroke-linejoin: bevel"/>
     <use xlink:href="#mfd7097831a" x="164.70787" y="275.675395" style="fill: #8c564b; stroke: #8c564b; stroke-linejoin: bevel"/>
     <use xlink:href="#mfd7097831a" x="257.599014" y="287.421167" style="fill: #8c564b; stroke: #8c564b; stroke-linejoin: bevel"/>
     <use xlink:href="#mfd7097831a" x="350.490157" y="289.876519" style="fill: #8c564b; stroke: #8c564b; stroke-linejoin: bevel"/>
    </g>
   </g>
   <g id="line2d_40">
    <path d="M 159.598858 307.872 
L 159.598858 41.76 
" clip-path="url(#p3b0c20d30c)" style="fill: none; stroke-dasharray: 7.4,3.2; stroke-dashoffset: 0; stroke: #8c564b; stroke-width: 2"/>
   </g>
   <g id="patch_3">
    <path d="M 55.584 307.872 
L 55.584 41.76 
" style="fill: none; stroke: #000000; stroke-width: 0.8; stroke-linejoin: miter; stroke-linecap: square"/>
   </g>
   <g id="patch_4">
    <path d="M 412.704 307.872 
L 412.704 41.76 
" style="fill: none; stroke: #000000; stroke-width: 0.8; stroke-linejoin: miter; stroke-linecap: square"/>
   </g>
   <g id="patch_5">
    <path d="M 55.584 307.872 
L 412.704 307.872 
" style="fill: none; stroke: #000000; stroke-width: 0.8; stroke-linejoin: miter; stroke-linecap: square"/>
   </g>
   <g id="patch_6">
    <path d="M 55.584 41.76 
L 412.704 41.76 
" style="fill: none; stroke: #000000; stroke-width: 0.8; stroke-linejoin: miter; stroke-linecap: square"/>
   </g>
   <g id="axes_2">
    <g id="patch_7">
     <path d="M 207.36 201.4272 
L 403.776 201.4272 
L 403.776 55.0656 
L 207.36 55.0656 
z
" style="fill: #ffffff"/>
    </g>
    <g id="matplotlib.axis_3">
     <g id="xtick_9">
      <g id="line2d_41">
       <path d="M 239.04 201.4272 
L 239.04 55.0656 
" clip-path="url(#p98a9d7ad26)" style="fill: none; stroke: #b0b0b0; stroke-width: 0.8; stroke-linecap: square"/>
      </g>
      <g id="line2d_42">
       <defs>
        <path id="m2cfd208d47" d="M 0 0 
L 0 3.5 
" style="stroke: #000000; stroke-width: 2"/>
       </defs>
       <g>
        <use xlink:href="#m2cfd208d47" x="239.04" y="201.4272" style="stroke: #000000; stroke-width: 2"/>
       </g>
      </g>
      <g id="text_15">
       <!-- 190 -->
       <g transform="translate(225.67875 219.065012) scale(0.14 -0.14)">
        <defs>
         <path id="DejaVuSans-39" d="M 703 97 
L 703 672 
Q 941 559 1184 500 
Q 1428 441 1663 441 
Q 2288 441 2617 861 
Q 2947 1281 2994 2138 
Q 2813 1869 2534 1725 
Q 2256 1581 1919 1581 
Q 1219 1581 811 2004 
Q 403 2428 403 3163 
Q 403 3881 828 4315 
Q 1253 4750 1959 4750 
Q 2769 4750 3195 4129 
Q 3622 3509 3622 2328 
Q 3622 1225 3098 567 
Q 2575 -91 1691 -91 
Q 1453 -91 1209 -44 
Q 966 3 703 97 
z
M 1959 2075 
Q 2384 2075 2632 2365 
Q 2881 2656 2881 3163 
Q 2881 3666 2632 3958 
Q 2384 4250 1959 4250 
Q 1534 4250 1286 3958 
Q 1038 3666 1038 3163 
Q 1038 2656 1286 2365 
Q 1534 2075 1959 2075 
z
" transform="scale(0.015625)"/>
        </defs>
        <use xlink:href="#DejaVuSans-31"/>
        <use xlink:href="#DejaVuSans-39" x="63.623047"/>
        <use xlink:href="#DejaVuSans-30" x="127.246094"/>
       </g>
      </g>
     </g>
     <g id="xtick_10">
      <g id="line2d_43">
       <path d="M 302.4 201.4272 
L 302.4 55.0656 
" clip-path="url(#p98a9d7ad26)" style="fill: none; stroke: #b0b0b0; stroke-width: 0.8; stroke-linecap: square"/>
      </g>
      <g id="line2d_44">
       <g>
        <use xlink:href="#m2cfd208d47" x="302.4" y="201.4272" style="stroke: #000000; stroke-width: 2"/>
       </g>
      </g>
      <g id="text_16">
       <!-- 200 -->
       <g transform="translate(289.03875 219.065012) scale(0.14 -0.14)">
        <use xlink:href="#DejaVuSans-32"/>
        <use xlink:href="#DejaVuSans-30" x="63.623047"/>
        <use xlink:href="#DejaVuSans-30" x="127.246094"/>
       </g>
      </g>
     </g>
     <g id="xtick_11">
      <g id="line2d_45">
       <path d="M 365.76 201.4272 
L 365.76 55.0656 
" clip-path="url(#p98a9d7ad26)" style="fill: none; stroke: #b0b0b0; stroke-width: 0.8; stroke-linecap: square"/>
      </g>
      <g id="line2d_46">
       <g>
        <use xlink:href="#m2cfd208d47" x="365.76" y="201.4272" style="stroke: #000000; stroke-width: 2"/>
       </g>
      </g>
      <g id="text_17">
       <!-- 210 -->
       <g transform="translate(352.39875 219.065012) scale(0.14 -0.14)">
        <use xlink:href="#DejaVuSans-32"/>
        <use xlink:href="#DejaVuSans-31" x="63.623047"/>
        <use xlink:href="#DejaVuSans-30" x="127.246094"/>
       </g>
      </g>
     </g>
    </g>
    <g id="matplotlib.axis_4">
     <g id="ytick_7">
      <g id="line2d_47">
       <path d="M 207.36 201.34885 
L 403.776 201.34885 
" clip-path="url(#p98a9d7ad26)" style="fill: none; stroke: #b0b0b0; stroke-width: 0.8; stroke-linecap: square"/>
      </g>
      <g id="line2d_48">
       <defs>
        <path id="mcb0adc8a7e" d="M 0 0 
L -3.5 0 
" style="stroke: #000000; stroke-width: 2"/>
       </defs>
       <g>
        <use xlink:href="#mcb0adc8a7e" x="207.36" y="201.34885" style="stroke: #000000; stroke-width: 2"/>
       </g>
      </g>
      <g id="text_18">
       <!-- 0.022 -->
       <g transform="translate(160.280625 206.667756) scale(0.14 -0.14)">
        <use xlink:href="#DejaVuSans-30"/>
        <use xlink:href="#DejaVuSans-2e" x="63.623047"/>
        <use xlink:href="#DejaVuSans-30" x="95.410156"/>
        <use xlink:href="#DejaVuSans-32" x="159.033203"/>
        <use xlink:href="#DejaVuSans-32" x="222.65625"/>
       </g>
      </g>
     </g>
     <g id="ytick_8">
      <g id="line2d_49">
       <path d="M 207.36 146.294601 
L 403.776 146.294601 
" clip-path="url(#p98a9d7ad26)" style="fill: none; stroke: #b0b0b0; stroke-width: 0.8; stroke-linecap: square"/>
      </g>
      <g id="line2d_50">
       <g>
        <use xlink:href="#mcb0adc8a7e" x="207.36" y="146.294601" style="stroke: #000000; stroke-width: 2"/>
       </g>
      </g>
      <g id="text_19">
       <!-- 0.023 -->
       <g transform="translate(160.280625 151.613507) scale(0.14 -0.14)">
        <use xlink:href="#DejaVuSans-30"/>
        <use xlink:href="#DejaVuSans-2e" x="63.623047"/>
        <use xlink:href="#DejaVuSans-30" x="95.410156"/>
        <use xlink:href="#DejaVuSans-32" x="159.033203"/>
        <use xlink:href="#DejaVuSans-33" x="222.65625"/>
       </g>
      </g>
     </g>
     <g id="ytick_9">
      <g id="line2d_51">
       <path d="M 207.36 91.240352 
L 403.776 91.240352 
" clip-path="url(#p98a9d7ad26)" style="fill: none; stroke: #b0b0b0; stroke-width: 0.8; stroke-linecap: square"/>
      </g>
      <g id="line2d_52">
       <g>
        <use xlink:href="#mcb0adc8a7e" x="207.36" y="91.240352" style="stroke: #000000; stroke-width: 2"/>
       </g>
      </g>
      <g id="text_20">
       <!-- 0.024 -->
       <g transform="translate(160.280625 96.559258) scale(0.14 -0.14)">
        <use xlink:href="#DejaVuSans-30"/>
        <use xlink:href="#DejaVuSans-2e" x="63.623047"/>
        <use xlink:href="#DejaVuSans-30" x="95.410156"/>
        <use xlink:href="#DejaVuSans-32" x="159.033203"/>
        <use xlink:href="#DejaVuSans-34" x="222.65625"/>
       </g>
      </g>
     </g>
    </g>
    <g id="line2d_53">
     <path d="M 0 0 
" clip-path="url(#p98a9d7ad26)" style="fill: none; stroke: #1f77b4; stroke-width: 2; stroke-linecap: square"/>
     <g clip-path="url(#p98a9d7ad26)">
      <use xlink:href="#m0f458c0a2c" x="1554.512511" y="-1" style="fill: #1f77b4; stroke: #1f77b4"/>
      <use xlink:href="#m0f458c0a2c" x="1569.6" y="29.206223" style="fill: #1f77b4; stroke: #1f77b4"/>
      <use xlink:href="#m0f458c0a2c" x="2836.8" y="513.240332" style="fill: #1f77b4; stroke: #1f77b4"/>
     </g>
    </g>
    <g id="line2d_54">
     <path clip-path="url(#p98a9d7ad26)" style="fill: none; stroke-dasharray: 7.4,3.2; stroke-dashoffset: 0; stroke: #1f77b4; stroke-width: 2"/>
    </g>
    <g id="line2d_55">
     <path d="M 309.93817 -1 
L 315.072 10.331415 
L 321.408 16.869481 
L 327.744 28.973087 
L 346.752 62.192205 
L 353.088 77.001919 
L 359.424 88.870881 
L 365.76 95.648546 
L 372.096 105.474275 
L 378.432 111.361951 
L 384.768 120.377427 
L 391.104 132.609388 
L 397.44 138.619794 
L 403.776 147.702657 
L 410.112 156.387871 
L 416.448 165.962918 
L 422.784 174.807292 
L 429.12 181.054792 
L 435.456 189.063123 
L 441.792 196.024925 
L 448.128 206.656897 
L 454.464 213.755361 
L 460.8 222.184013 
L 467.136 231.081585 
L 473.472 236.709262 
L 479.808 246.984466 
L 486.144 256.893489 
L 492.48 262.019512 
L 498.816 266.576911 
L 505.152 274.598915 
L 511.488 285.494157 
L 517.824 293.536425 
L 524.16 299.714903 
L 530.496 305.620436 
L 536.832 312.818564 
L 543.168 319.333282 
L 549.504 326.846455 
L 555.84 331.150201 
L 562.176 338.773954 
L 568.512 344.249123 
L 574.848 348.944474 
L 576.365765 350.632 
L 576.365765 350.632 
" clip-path="url(#p98a9d7ad26)" style="fill: none; stroke: #ff7f0e; stroke-width: 2; stroke-linecap: square"/>
     <g clip-path="url(#p98a9d7ad26)">
      <use xlink:href="#m5b43bf9f22" x="-1" y="325.898612" style="fill: #ff7f0e; stroke: #ff7f0e; stroke-linejoin: miter"/>
      <use xlink:href="#m5b43bf9f22" x="288.94313" y="-1" style="fill: #ff7f0e; stroke: #ff7f0e; stroke-linejoin: miter"/>
      <use xlink:href="#m5b43bf9f22" x="325.551448" y="-1" style="fill: #ff7f0e; stroke: #ff7f0e; stroke-linejoin: miter"/>
      <use xlink:href="#m5b43bf9f22" x="1569.6" y="814.273787" style="fill: #ff7f0e; stroke: #ff7f0e; stroke-linejoin: miter"/>
      <use xlink:href="#m5b43bf9f22" x="2836.8" y="993.555045" style="fill: #ff7f0e; stroke: #ff7f0e; stroke-linejoin: miter"/>
     </g>
    </g>
    <g id="line2d_56">
     <path d="M 391.104 201.4272 
L 391.104 55.0656 
" clip-path="url(#p98a9d7ad26)" style="fill: none; stroke-dasharray: 7.4,3.2; stroke-dashoffset: 0; stroke: #ff7f0e; stroke-width: 2"/>
    </g>
    <g id="line2d_57">
     <path d="M 208.733047 -1 
L 213.696 10.954691 
L 226.368 33.35378 
L 232.704 42.646831 
L 239.04 50.280057 
L 245.376 61.530386 
L 251.712 75.705704 
L 258.048 88.156896 
L 264.384 93.712268 
L 270.72 105.707398 
L 277.056 117.174615 
L 283.392 125.79408 
L 289.728 137.179732 
L 296.064 146.542782 
L 302.4 156.122204 
L 308.736 164.48202 
L 315.072 174.83577 
L 321.408 186.737957 
L 327.744 195.885263 
L 334.08 202.152654 
L 340.416 212.521993 
L 346.752 221.832552 
L 353.088 232.466876 
L 365.76 248.066176 
L 372.096 254.632325 
L 378.432 266.808643 
L 384.768 272.766907 
L 391.104 279.016961 
L 397.44 288.221776 
L 403.776 294.691052 
L 410.112 302.847127 
L 416.448 308.189074 
L 422.784 312.129884 
L 435.456 331.590655 
L 441.792 337.432896 
L 448.128 343.73532 
L 453.451583 350.632 
L 453.451583 350.632 
" clip-path="url(#p98a9d7ad26)" style="fill: none; stroke: #2ca02c; stroke-width: 2; stroke-linecap: square"/>
     <g clip-path="url(#p98a9d7ad26)">
      <use xlink:href="#maf0bf2617a" x="-1" y="456.941228" style="fill: #2ca02c; stroke: #2ca02c; stroke-linejoin: miter"/>
      <use xlink:href="#maf0bf2617a" x="302.4" y="156.122204" style="fill: #2ca02c; stroke: #2ca02c; stroke-linejoin: miter"/>
      <use xlink:href="#maf0bf2617a" x="1569.6" y="843.172316" style="fill: #2ca02c; stroke: #2ca02c; stroke-linejoin: miter"/>
      <use xlink:href="#maf0bf2617a" x="2836.8" y="1007.880405" style="fill: #2ca02c; stroke: #2ca02c; stroke-linejoin: miter"/>
     </g>
    </g>
    <g id="line2d_58">
     <path d="M 283.392 201.4272 
L 283.392 55.0656 
" clip-path="url(#p98a9d7ad26)" style="fill: none; stroke-dasharray: 7.4,3.2; stroke-dashoffset: 0; stroke: #2ca02c; stroke-width: 2"/>
    </g>
    <g id="line2d_59">
     <path d="M 158.979237 -1 
L 163.008 6.672533 
L 175.68 35.073857 
L 182.016 51.185252 
L 188.352 61.903593 
L 194.688 73.939228 
L 201.024 88.051511 
L 207.36 96.781781 
L 220.032 123.893322 
L 226.368 135.622048 
L 232.704 142.419936 
L 239.04 154.95825 
L 245.376 165.307374 
L 251.712 176.838962 
L 258.048 189.524005 
L 264.384 199.00923 
L 270.72 209.098723 
L 277.056 216.144364 
L 283.392 221.093042 
L 289.728 230.228648 
L 302.4 249.401137 
L 308.736 255.470687 
L 315.072 265.662425 
L 321.408 274.568436 
L 327.744 281.741366 
L 334.08 287.599126 
L 340.416 296.331724 
L 346.752 306.133359 
L 353.088 316.683474 
L 359.424 322.533824 
L 365.76 329.217371 
L 372.096 333.215036 
L 378.432 342.194227 
L 384.768 347.296931 
L 387.653041 350.632 
L 387.653041 350.632 
" clip-path="url(#p98a9d7ad26)" style="fill: none; stroke: #d62728; stroke-width: 2; stroke-linecap: square"/>
     <g clip-path="url(#p98a9d7ad26)">
      <use xlink:href="#m0ec4c9ec32" x="-1" y="527.886805" style="fill: #d62728; stroke: #d62728"/>
      <use xlink:href="#m0ec4c9ec32" x="302.4" y="249.401137" style="fill: #d62728; stroke: #d62728"/>
      <use xlink:href="#m0ec4c9ec32" x="1569.6" y="854.981809" style="fill: #d62728; stroke: #d62728"/>
      <use xlink:href="#m0ec4c9ec32" x="2836.8" y="1014.784447" style="fill: #d62728; stroke: #d62728"/>
     </g>
    </g>
    <g id="line2d_60">
     <path d="M 220.032 201.4272 
L 220.032 55.0656 
" clip-path="url(#p98a9d7ad26)" style="fill: none; stroke-dasharray: 7.4,3.2; stroke-dashoffset: 0; stroke: #d62728; stroke-width: 2"/>
    </g>
    <g id="line2d_61">
     <path d="M 151.140929 -1 
L 156.672 9.915014 
L 163.008 23.835877 
L 169.344 39.872378 
L 175.68 51.226813 
L 182.016 61.998177 
L 188.352 74.497303 
L 194.688 88.035167 
L 201.024 97.299827 
L 207.36 108.232851 
L 213.696 121.907731 
L 220.032 131.853778 
L 232.704 156.39281 
L 245.376 178.922345 
L 251.712 191.62453 
L 258.048 201.71393 
L 270.72 213.234824 
L 277.056 224.182721 
L 283.392 232.80737 
L 289.728 241.817611 
L 296.064 251.96688 
L 302.4 259.616453 
L 308.736 266.56106 
L 315.072 276.784485 
L 321.408 285.577894 
L 327.744 292.936117 
L 334.08 297.344445 
L 340.416 303.922777 
L 346.752 314.26176 
L 353.088 321.057249 
L 359.424 328.58539 
L 365.76 337.523922 
L 372.096 339.433613 
L 378.432 348.423759 
L 380.464644 350.632 
L 380.464644 350.632 
" clip-path="url(#p98a9d7ad26)" style="fill: none; stroke: #9467bd; stroke-width: 2; stroke-linecap: square"/>
     <g clip-path="url(#p98a9d7ad26)">
      <use xlink:href="#m596e198bd1" x="-1" y="535.656314" style="fill: #9467bd; stroke: #9467bd; stroke-linejoin: miter"/>
      <use xlink:href="#m596e198bd1" x="302.4" y="259.616453" style="fill: #9467bd; stroke: #9467bd; stroke-linejoin: miter"/>
      <use xlink:href="#m596e198bd1" x="1569.6" y="871.344142" style="fill: #9467bd; stroke: #9467bd; stroke-linejoin: miter"/>
      <use xlink:href="#m596e198bd1" x="2836.8" y="1018.519" style="fill: #9467bd; stroke: #9467bd; stroke-linejoin: miter"/>
     </g>
    </g>
    <g id="line2d_62">
     <path d="M 220.032 201.4272 
L 220.032 55.0656 
" clip-path="url(#p98a9d7ad26)" style="fill: none; stroke-dasharray: 7.4,3.2; stroke-dashoffset: 0; stroke: #9467bd; stroke-width: 2"/>
    </g>
    <g id="line2d_63">
     <path d="M 174.079741 -1 
L 175.68 5.699518 
L 182.016 17.083278 
L 188.352 39.79808 
L 194.688 48.647057 
L 201.024 63.08907 
L 207.36 80.402565 
L 213.696 89.853394 
L 220.032 102.867754 
L 226.368 111.134533 
L 232.704 123.883412 
L 239.04 138.304572 
L 245.376 149.282189 
L 251.712 157.280599 
L 258.048 166.911721 
L 264.384 174.56131 
L 270.72 186.214582 
L 277.056 194.883036 
L 283.392 205.016121 
L 289.728 214.261926 
L 296.064 222.445802 
L 302.4 231.236681 
L 308.736 239.353129 
L 315.072 251.100478 
L 321.408 257.549683 
L 327.744 268.208025 
L 334.08 275.083852 
L 340.416 279.514771 
L 346.752 285.431321 
L 353.088 291.831013 
L 359.424 300.430011 
L 365.76 303.415346 
L 372.096 309.24623 
L 378.432 316.187018 
L 384.768 326.3966 
L 391.104 333.714915 
L 397.44 348.480149 
L 402.82718 350.632 
L 402.82718 350.632 
" clip-path="url(#p98a9d7ad26)" style="fill: none; stroke: #8c564b; stroke-width: 2; stroke-linecap: square"/>
     <g clip-path="url(#p98a9d7ad26)">
      <use xlink:href="#mfd7097831a" x="-1" y="514.071383" style="fill: #8c564b; stroke: #8c564b; stroke-linejoin: bevel"/>
      <use xlink:href="#mfd7097831a" x="302.4" y="231.236681" style="fill: #8c564b; stroke: #8c564b; stroke-linejoin: bevel"/>
      <use xlink:href="#mfd7097831a" x="1569.6" y="863.039128" style="fill: #8c564b; stroke: #8c564b; stroke-linejoin: bevel"/>
      <use xlink:href="#mfd7097831a" x="2836.8" y="995.111951" style="fill: #8c564b; stroke: #8c564b; stroke-linejoin: bevel"/>
     </g>
    </g>
    <g id="line2d_64">
     <path d="M 232.704 201.4272 
L 232.704 55.0656 
" clip-path="url(#p98a9d7ad26)" style="fill: none; stroke-dasharray: 7.4,3.2; stroke-dashoffset: 0; stroke: #8c564b; stroke-width: 2"/>
    </g>
    <g id="patch_8">
     <path d="M 207.36 201.4272 
L 207.36 55.0656 
" style="fill: none; stroke: #000000; stroke-width: 2; stroke-linejoin: miter; stroke-linecap: square"/>
    </g>
    <g id="patch_9">
     <path d="M 403.776 201.4272 
L 403.776 55.0656 
" style="fill: none; stroke: #000000; stroke-width: 2; stroke-linejoin: miter; stroke-linecap: square"/>
    </g>
    <g id="patch_10">
     <path d="M 207.36 201.4272 
L 403.776 201.4272 
" style="fill: none; stroke: #000000; stroke-width: 2; stroke-linejoin: miter; stroke-linecap: square"/>
    </g>
    <g id="patch_11">
     <path d="M 207.36 55.0656 
L 403.776 55.0656 
" style="fill: none; stroke: #000000; stroke-width: 2; stroke-linejoin: miter; stroke-linecap: square"/>
    </g>
   </g>
   <g id="legend_1">
    <g id="patch_12">
     <path d="M 428.92 218.64425 
L 609.92 218.64425 
Q 611.92 218.64425 611.92 216.64425 
L 611.92 129.53175 
Q 611.92 127.53175 609.92 127.53175 
L 428.92 127.53175 
Q 426.92 127.53175 426.92 129.53175 
L 426.92 216.64425 
Q 426.92 218.64425 428.92 218.64425 
z
" style="fill: #ffffff; opacity: 0.8; stroke: #cccccc; stroke-linejoin: miter"/>
    </g>
    <g id="line2d_65">
     <path d="M 430.92 135.630187 
L 440.92 135.630187 
L 450.92 135.630187 
" style="fill: none; stroke: #1f77b4; stroke-width: 2; stroke-linecap: square"/>
     <g>
      <use xlink:href="#m0f458c0a2c" x="440.92" y="135.630187" style="fill: #1f77b4; stroke: #1f77b4"/>
     </g>
    </g>
    <g id="text_21">
     <!-- $\kappa$ = 0.02 -->
     <g transform="translate(458.92 139.130187) scale(0.1 -0.1)">
      <defs>
       <path id="DejaVuSans-Oblique-3ba" d="M 938 3500 
L 1531 3500 
L 1247 2047 
L 3041 3500 
L 3741 3500 
L 2106 2181 
L 3275 0 
L 2572 0 
L 1628 1806 
L 1122 1403 
L 850 0 
L 256 0 
L 938 3500 
z
" transform="scale(0.015625)"/>
       <path id="DejaVuSans-20" transform="scale(0.015625)"/>
       <path id="DejaVuSans-3d" d="M 678 2906 
L 4684 2906 
L 4684 2381 
L 678 2381 
L 678 2906 
z
M 678 1631 
L 4684 1631 
L 4684 1100 
L 678 1100 
L 678 1631 
z
" transform="scale(0.015625)"/>
      </defs>
      <use xlink:href="#DejaVuSans-Oblique-3ba" transform="translate(0 0.78125)"/>
      <use xlink:href="#DejaVuSans-20" transform="translate(58.935547 0.78125)"/>
      <use xlink:href="#DejaVuSans-3d" transform="translate(90.722656 0.78125)"/>
      <use xlink:href="#DejaVuSans-20" transform="translate(174.511719 0.78125)"/>
      <use xlink:href="#DejaVuSans-30" transform="translate(206.298828 0.78125)"/>
      <use xlink:href="#DejaVuSans-2e" transform="translate(269.921875 0.78125)"/>
      <use xlink:href="#DejaVuSans-30" transform="translate(301.708984 0.78125)"/>
      <use xlink:href="#DejaVuSans-32" transform="translate(365.332031 0.78125)"/>
     </g>
    </g>
    <g id="line2d_66">
     <path d="M 430.92 150.309875 
L 440.92 150.309875 
L 450.92 150.309875 
" style="fill: none; stroke: #ff7f0e; stroke-width: 2; stroke-linecap: square"/>
     <g>
      <use xlink:href="#m5b43bf9f22" x="440.92" y="150.309875" style="fill: #ff7f0e; stroke: #ff7f0e; stroke-linejoin: miter"/>
     </g>
    </g>
    <g id="text_22">
     <!-- Constant-edge ($\alpha$ = 0.242) -->
     <g transform="translate(458.92 153.809875) scale(0.1 -0.1)">
      <defs>
       <path id="DejaVuSans-43" d="M 4122 4306 
L 4122 3641 
Q 3803 3938 3442 4084 
Q 3081 4231 2675 4231 
Q 1875 4231 1450 3742 
Q 1025 3253 1025 2328 
Q 1025 1406 1450 917 
Q 1875 428 2675 428 
Q 3081 428 3442 575 
Q 3803 722 4122 1019 
L 4122 359 
Q 3791 134 3420 21 
Q 3050 -91 2638 -91 
Q 1578 -91 968 557 
Q 359 1206 359 2328 
Q 359 3453 968 4101 
Q 1578 4750 2638 4750 
Q 3056 4750 3426 4639 
Q 3797 4528 4122 4306 
z
" transform="scale(0.015625)"/>
       <path id="DejaVuSans-6f" d="M 1959 3097 
Q 1497 3097 1228 2736 
Q 959 2375 959 1747 
Q 959 1119 1226 758 
Q 1494 397 1959 397 
Q 2419 397 2687 759 
Q 2956 1122 2956 1747 
Q 2956 2369 2687 2733 
Q 2419 3097 1959 3097 
z
M 1959 3584 
Q 2709 3584 3137 3096 
Q 3566 2609 3566 1747 
Q 3566 888 3137 398 
Q 2709 -91 1959 -91 
Q 1206 -91 779 398 
Q 353 888 353 1747 
Q 353 2609 779 3096 
Q 1206 3584 1959 3584 
z
" transform="scale(0.015625)"/>
       <path id="DejaVuSans-6e" d="M 3513 2113 
L 3513 0 
L 2938 0 
L 2938 2094 
Q 2938 2591 2744 2837 
Q 2550 3084 2163 3084 
Q 1697 3084 1428 2787 
Q 1159 2491 1159 1978 
L 1159 0 
L 581 0 
L 581 3500 
L 1159 3500 
L 1159 2956 
Q 1366 3272 1645 3428 
Q 1925 3584 2291 3584 
Q 2894 3584 3203 3211 
Q 3513 2838 3513 2113 
z
" transform="scale(0.015625)"/>
       <path id="DejaVuSans-73" d="M 2834 3397 
L 2834 2853 
Q 2591 2978 2328 3040 
Q 2066 3103 1784 3103 
Q 1356 3103 1142 2972 
Q 928 2841 928 2578 
Q 928 2378 1081 2264 
Q 1234 2150 1697 2047 
L 1894 2003 
Q 2506 1872 2764 1633 
Q 3022 1394 3022 966 
Q 3022 478 2636 193 
Q 2250 -91 1575 -91 
Q 1294 -91 989 -36 
Q 684 19 347 128 
L 347 722 
Q 666 556 975 473 
Q 1284 391 1588 391 
Q 1994 391 2212 530 
Q 2431 669 2431 922 
Q 2431 1156 2273 1281 
Q 2116 1406 1581 1522 
L 1381 1569 
Q 847 1681 609 1914 
Q 372 2147 372 2553 
Q 372 3047 722 3315 
Q 1072 3584 1716 3584 
Q 2034 3584 2315 3537 
Q 2597 3491 2834 3397 
z
" transform="scale(0.015625)"/>
       <path id="DejaVuSans-74" d="M 1172 4494 
L 1172 3500 
L 2356 3500 
L 2356 3053 
L 1172 3053 
L 1172 1153 
Q 1172 725 1289 603 
Q 1406 481 1766 481 
L 2356 481 
L 2356 0 
L 1766 0 
Q 1100 0 847 248 
Q 594 497 594 1153 
L 594 3053 
L 172 3053 
L 172 3500 
L 594 3500 
L 594 4494 
L 1172 4494 
z
" transform="scale(0.015625)"/>
       <path id="DejaVuSans-61" d="M 2194 1759 
Q 1497 1759 1228 1600 
Q 959 1441 959 1056 
Q 959 750 1161 570 
Q 1363 391 1709 391 
Q 2188 391 2477 730 
Q 2766 1069 2766 1631 
L 2766 1759 
L 2194 1759 
z
M 3341 1997 
L 3341 0 
L 2766 0 
L 2766 531 
Q 2569 213 2275 61 
Q 1981 -91 1556 -91 
Q 1019 -91 701 211 
Q 384 513 384 1019 
Q 384 1609 779 1909 
Q 1175 2209 1959 2209 
L 2766 2209 
L 2766 2266 
Q 2766 2663 2505 2880 
Q 2244 3097 1772 3097 
Q 1472 3097 1187 3025 
Q 903 2953 641 2809 
L 641 3341 
Q 956 3463 1253 3523 
Q 1550 3584 1831 3584 
Q 2591 3584 2966 3190 
Q 3341 2797 3341 1997 
z
" transform="scale(0.015625)"/>
       <path id="DejaVuSans-2d" d="M 313 2009 
L 1997 2009 
L 1997 1497 
L 313 1497 
L 313 2009 
z
" transform="scale(0.015625)"/>
       <path id="DejaVuSans-65" d="M 3597 1894 
L 3597 1613 
L 953 1613 
Q 991 1019 1311 708 
Q 1631 397 2203 397 
Q 2534 397 2845 478 
Q 3156 559 3463 722 
L 3463 178 
Q 3153 47 2828 -22 
Q 2503 -91 2169 -91 
Q 1331 -91 842 396 
Q 353 884 353 1716 
Q 353 2575 817 3079 
Q 1281 3584 2069 3584 
Q 2775 3584 3186 3129 
Q 3597 2675 3597 1894 
z
M 3022 2063 
Q 3016 2534 2758 2815 
Q 2500 3097 2075 3097 
Q 1594 3097 1305 2825 
Q 1016 2553 972 2059 
L 3022 2063 
z
" transform="scale(0.015625)"/>
       <path id="DejaVuSans-64" d="M 2906 2969 
L 2906 4863 
L 3481 4863 
L 3481 0 
L 2906 0 
L 2906 525 
Q 2725 213 2448 61 
Q 2172 -91 1784 -91 
Q 1150 -91 751 415 
Q 353 922 353 1747 
Q 353 2572 751 3078 
Q 1150 3584 1784 3584 
Q 2172 3584 2448 3432 
Q 2725 3281 2906 2969 
z
M 947 1747 
Q 947 1113 1208 752 
Q 1469 391 1925 391 
Q 2381 391 2643 752 
Q 2906 1113 2906 1747 
Q 2906 2381 2643 2742 
Q 2381 3103 1925 3103 
Q 1469 3103 1208 2742 
Q 947 2381 947 1747 
z
" transform="scale(0.015625)"/>
       <path id="DejaVuSans-67" d="M 2906 1791 
Q 2906 2416 2648 2759 
Q 2391 3103 1925 3103 
Q 1463 3103 1205 2759 
Q 947 2416 947 1791 
Q 947 1169 1205 825 
Q 1463 481 1925 481 
Q 2391 481 2648 825 
Q 2906 1169 2906 1791 
z
M 3481 434 
Q 3481 -459 3084 -895 
Q 2688 -1331 1869 -1331 
Q 1566 -1331 1297 -1286 
Q 1028 -1241 775 -1147 
L 775 -588 
Q 1028 -725 1275 -790 
Q 1522 -856 1778 -856 
Q 2344 -856 2625 -561 
Q 2906 -266 2906 331 
L 2906 616 
Q 2728 306 2450 153 
Q 2172 0 1784 0 
Q 1141 0 747 490 
Q 353 981 353 1791 
Q 353 2603 747 3093 
Q 1141 3584 1784 3584 
Q 2172 3584 2450 3431 
Q 2728 3278 2906 2969 
L 2906 3500 
L 3481 3500 
L 3481 434 
z
" transform="scale(0.015625)"/>
       <path id="DejaVuSans-28" d="M 1984 4856 
Q 1566 4138 1362 3434 
Q 1159 2731 1159 2009 
Q 1159 1288 1364 580 
Q 1569 -128 1984 -844 
L 1484 -844 
Q 1016 -109 783 600 
Q 550 1309 550 2009 
Q 550 2706 781 3412 
Q 1013 4119 1484 4856 
L 1984 4856 
z
" transform="scale(0.015625)"/>
       <path id="DejaVuSans-Oblique-3b1" d="M 2619 1628 
L 2622 2350 
Q 2625 3088 2069 3091 
Q 1653 3094 1394 2747 
Q 1069 2319 959 1747 
Q 825 1059 994 731 
Q 1169 397 1547 397 
Q 1966 397 2319 1063 
L 2619 1628 
z
M 2166 3578 
Q 3141 3594 3128 2584 
Q 3128 2584 3616 3500 
L 4128 3500 
L 3119 1603 
L 3109 919 
Q 3109 766 3194 638 
Q 3291 488 3391 488 
L 3669 488 
L 3575 0 
L 3228 0 
Q 2934 0 2722 263 
Q 2622 394 2619 669 
Q 2416 334 2066 50 
Q 1900 -81 1453 -78 
Q 722 -72 456 397 
Q 184 884 353 1747 
Q 534 2675 1009 3097 
Q 1544 3569 2166 3578 
z
" transform="scale(0.015625)"/>
       <path id="DejaVuSans-29" d="M 513 4856 
L 1013 4856 
Q 1481 4119 1714 3412 
Q 1947 2706 1947 2009 
Q 1947 1309 1714 600 
Q 1481 -109 1013 -844 
L 513 -844 
Q 928 -128 1133 580 
Q 1338 1288 1338 2009 
Q 1338 2731 1133 3434 
Q 928 4138 513 4856 
z
" transform="scale(0.015625)"/>
      </defs>
      <use xlink:href="#DejaVuSans-43" transform="translate(0 0.015625)"/>
      <use xlink:href="#DejaVuSans-6f" transform="translate(69.824219 0.015625)"/>
      <use xlink:href="#DejaVuSans-6e" transform="translate(131.005859 0.015625)"/>
      <use xlink:href="#DejaVuSans-73" transform="translate(194.384766 0.015625)"/>
      <use xlink:href="#DejaVuSans-74" transform="translate(246.484375 0.015625)"/>
      <use xlink:href="#DejaVuSans-61" transform="translate(285.693359 0.015625)"/>
      <use xlink:href="#DejaVuSans-6e" transform="translate(346.972656 0.015625)"/>
      <use xlink:href="#DejaVuSans-74" transform="translate(410.351562 0.015625)"/>
      <use xlink:href="#DejaVuSans-2d" transform="translate(449.560547 0.015625)"/>
      <use xlink:href="#DejaVuSans-65" transform="translate(485.644531 0.015625)"/>
      <use xlink:href="#DejaVuSans-64" transform="translate(547.167969 0.015625)"/>
      <use xlink:href="#DejaVuSans-67" transform="translate(610.644531 0.015625)"/>
      <use xlink:href="#DejaVuSans-65" transform="translate(674.121094 0.015625)"/>
      <use xlink:href="#DejaVuSans-20" transform="translate(735.644531 0.015625)"/>
      <use xlink:href="#DejaVuSans-28" transform="translate(767.431641 0.015625)"/>
      <use xlink:href="#DejaVuSans-Oblique-3b1" transform="translate(806.445312 0.015625)"/>
      <use xlink:href="#DejaVuSans-20" transform="translate(872.363281 0.015625)"/>
      <use xlink:href="#DejaVuSans-3d" transform="translate(904.150391 0.015625)"/>
      <use xlink:href="#DejaVuSans-20" transform="translate(987.939453 0.015625)"/>
      <use xlink:href="#DejaVuSans-30" transform="translate(1019.726562 0.015625)"/>
      <use xlink:href="#DejaVuSans-2e" transform="translate(1083.349609 0.015625)"/>
      <use xlink:href="#DejaVuSans-32" transform="translate(1109.636719 0.015625)"/>
      <use xlink:href="#DejaVuSans-34" transform="translate(1173.259766 0.015625)"/>
      <use xlink:href="#DejaVuSans-32" transform="translate(1236.882812 0.015625)"/>
      <use xlink:href="#DejaVuSans-29" transform="translate(1300.505859 0.015625)"/>
     </g>
    </g>
    <g id="line2d_67">
     <path d="M 430.92 165.009875 
L 440.92 165.009875 
L 450.92 165.009875 
" style="fill: none; stroke: #2ca02c; stroke-width: 2; stroke-linecap: square"/>
     <g>
      <use xlink:href="#maf0bf2617a" x="440.92" y="165.009875" style="fill: #2ca02c; stroke: #2ca02c; stroke-linejoin: miter"/>
     </g>
    </g>
    <g id="text_23">
     <!-- Maximum-degree ($\alpha$ = 0.167) -->
     <g transform="translate(458.92 168.509875) scale(0.1 -0.1)">
      <defs>
       <path id="DejaVuSans-4d" d="M 628 4666 
L 1569 4666 
L 2759 1491 
L 3956 4666 
L 4897 4666 
L 4897 0 
L 4281 0 
L 4281 4097 
L 3078 897 
L 2444 897 
L 1241 4097 
L 1241 0 
L 628 0 
L 628 4666 
z
" transform="scale(0.015625)"/>
       <path id="DejaVuSans-78" d="M 3513 3500 
L 2247 1797 
L 3578 0 
L 2900 0 
L 1881 1375 
L 863 0 
L 184 0 
L 1544 1831 
L 300 3500 
L 978 3500 
L 1906 2253 
L 2834 3500 
L 3513 3500 
z
" transform="scale(0.015625)"/>
       <path id="DejaVuSans-69" d="M 603 3500 
L 1178 3500 
L 1178 0 
L 603 0 
L 603 3500 
z
M 603 4863 
L 1178 4863 
L 1178 4134 
L 603 4134 
L 603 4863 
z
" transform="scale(0.015625)"/>
       <path id="DejaVuSans-6d" d="M 3328 2828 
Q 3544 3216 3844 3400 
Q 4144 3584 4550 3584 
Q 5097 3584 5394 3201 
Q 5691 2819 5691 2113 
L 5691 0 
L 5113 0 
L 5113 2094 
Q 5113 2597 4934 2840 
Q 4756 3084 4391 3084 
Q 3944 3084 3684 2787 
Q 3425 2491 3425 1978 
L 3425 0 
L 2847 0 
L 2847 2094 
Q 2847 2600 2669 2842 
Q 2491 3084 2119 3084 
Q 1678 3084 1418 2786 
Q 1159 2488 1159 1978 
L 1159 0 
L 581 0 
L 581 3500 
L 1159 3500 
L 1159 2956 
Q 1356 3278 1631 3431 
Q 1906 3584 2284 3584 
Q 2666 3584 2933 3390 
Q 3200 3197 3328 2828 
z
" transform="scale(0.015625)"/>
       <path id="DejaVuSans-75" d="M 544 1381 
L 544 3500 
L 1119 3500 
L 1119 1403 
Q 1119 906 1312 657 
Q 1506 409 1894 409 
Q 2359 409 2629 706 
Q 2900 1003 2900 1516 
L 2900 3500 
L 3475 3500 
L 3475 0 
L 2900 0 
L 2900 538 
Q 2691 219 2414 64 
Q 2138 -91 1772 -91 
Q 1169 -91 856 284 
Q 544 659 544 1381 
z
M 1991 3584 
L 1991 3584 
z
" transform="scale(0.015625)"/>
       <path id="DejaVuSans-72" d="M 2631 2963 
Q 2534 3019 2420 3045 
Q 2306 3072 2169 3072 
Q 1681 3072 1420 2755 
Q 1159 2438 1159 1844 
L 1159 0 
L 581 0 
L 581 3500 
L 1159 3500 
L 1159 2956 
Q 1341 3275 1631 3429 
Q 1922 3584 2338 3584 
Q 2397 3584 2469 3576 
Q 2541 3569 2628 3553 
L 2631 2963 
z
" transform="scale(0.015625)"/>
      </defs>
      <use xlink:href="#DejaVuSans-4d" transform="translate(0 0.015625)"/>
      <use xlink:href="#DejaVuSans-61" transform="translate(86.279297 0.015625)"/>
      <use xlink:href="#DejaVuSans-78" transform="translate(147.558594 0.015625)"/>
      <use xlink:href="#DejaVuSans-69" transform="translate(206.738281 0.015625)"/>
      <use xlink:href="#DejaVuSans-6d" transform="translate(234.521484 0.015625)"/>
      <use xlink:href="#DejaVuSans-75" transform="translate(331.933594 0.015625)"/>
      <use xlink:href="#DejaVuSans-6d" transform="translate(395.3125 0.015625)"/>
      <use xlink:href="#DejaVuSans-2d" transform="translate(490.974609 0.015625)"/>
      <use xlink:href="#DejaVuSans-64" transform="translate(527.058594 0.015625)"/>
      <use xlink:href="#DejaVuSans-65" transform="translate(590.535156 0.015625)"/>
      <use xlink:href="#DejaVuSans-67" transform="translate(652.058594 0.015625)"/>
      <use xlink:href="#DejaVuSans-72" transform="translate(715.535156 0.015625)"/>
      <use xlink:href="#DejaVuSans-65" transform="translate(756.648438 0.015625)"/>
      <use xlink:href="#DejaVuSans-65" transform="translate(818.171875 0.015625)"/>
      <use xlink:href="#DejaVuSans-20" transform="translate(879.695312 0.015625)"/>
      <use xlink:href="#DejaVuSans-28" transform="translate(911.482422 0.015625)"/>
      <use xlink:href="#DejaVuSans-Oblique-3b1" transform="translate(950.496094 0.015625)"/>
      <use xlink:href="#DejaVuSans-20" transform="translate(1016.414062 0.015625)"/>
      <use xlink:href="#DejaVuSans-3d" transform="translate(1048.201172 0.015625)"/>
      <use xlink:href="#DejaVuSans-20" transform="translate(1131.990234 0.015625)"/>
      <use xlink:href="#DejaVuSans-30" transform="translate(1163.777344 0.015625)"/>
      <use xlink:href="#DejaVuSans-2e" transform="translate(1227.400391 0.015625)"/>
      <use xlink:href="#DejaVuSans-31" transform="translate(1259.1875 0.015625)"/>
      <use xlink:href="#DejaVuSans-36" transform="translate(1322.810547 0.015625)"/>
      <use xlink:href="#DejaVuSans-37" transform="translate(1386.433594 0.015625)"/>
      <use xlink:href="#DejaVuSans-29" transform="translate(1450.056641 0.015625)"/>
     </g>
    </g>
    <g id="line2d_68">
     <path d="M 430.92 179.708312 
L 440.92 179.708312 
L 450.92 179.708312 
" style="fill: none; stroke: #d62728; stroke-width: 2; stroke-linecap: square"/>
     <g>
      <use xlink:href="#m0ec4c9ec32" x="440.92" y="179.708312" style="fill: #d62728; stroke: #d62728"/>
     </g>
    </g>
    <g id="text_24">
     <!-- Local-degree -->
     <g transform="translate(458.92 183.208312) scale(0.1 -0.1)">
      <defs>
       <path id="DejaVuSans-4c" d="M 628 4666 
L 1259 4666 
L 1259 531 
L 3531 531 
L 3531 0 
L 628 0 
L 628 4666 
z
" transform="scale(0.015625)"/>
       <path id="DejaVuSans-63" d="M 3122 3366 
L 3122 2828 
Q 2878 2963 2633 3030 
Q 2388 3097 2138 3097 
Q 1578 3097 1268 2742 
Q 959 2388 959 1747 
Q 959 1106 1268 751 
Q 1578 397 2138 397 
Q 2388 397 2633 464 
Q 2878 531 3122 666 
L 3122 134 
Q 2881 22 2623 -34 
Q 2366 -91 2075 -91 
Q 1284 -91 818 406 
Q 353 903 353 1747 
Q 353 2603 823 3093 
Q 1294 3584 2113 3584 
Q 2378 3584 2631 3529 
Q 2884 3475 3122 3366 
z
" transform="scale(0.015625)"/>
       <path id="DejaVuSans-6c" d="M 603 4863 
L 1178 4863 
L 1178 0 
L 603 0 
L 603 4863 
z
" transform="scale(0.015625)"/>
      </defs>
      <use xlink:href="#DejaVuSans-4c"/>
      <use xlink:href="#DejaVuSans-6f" x="53.962891"/>
      <use xlink:href="#DejaVuSans-63" x="115.144531"/>
      <use xlink:href="#DejaVuSans-61" x="170.125"/>
      <use xlink:href="#DejaVuSans-6c" x="231.404297"/>
      <use xlink:href="#DejaVuSans-2d" x="259.1875"/>
      <use xlink:href="#DejaVuSans-64" x="295.271484"/>
      <use xlink:href="#DejaVuSans-65" x="358.748047"/>
      <use xlink:href="#DejaVuSans-67" x="420.271484"/>
      <use xlink:href="#DejaVuSans-72" x="483.748047"/>
      <use xlink:href="#DejaVuSans-65" x="522.611328"/>
      <use xlink:href="#DejaVuSans-65" x="584.134766"/>
     </g>
    </g>
    <g id="line2d_69">
     <path d="M 430.92 194.386437 
L 440.92 194.386437 
L 450.92 194.386437 
" style="fill: none; stroke: #9467bd; stroke-width: 2; stroke-linecap: square"/>
     <g>
      <use xlink:href="#m596e198bd1" x="440.92" y="194.386437" style="fill: #9467bd; stroke: #9467bd; stroke-linejoin: miter"/>
     </g>
    </g>
    <g id="text_25">
     <!-- FMMC -->
     <g transform="translate(458.92 197.886437) scale(0.1 -0.1)">
      <defs>
       <path id="DejaVuSans-46" d="M 628 4666 
L 3309 4666 
L 3309 4134 
L 1259 4134 
L 1259 2759 
L 3109 2759 
L 3109 2228 
L 1259 2228 
L 1259 0 
L 628 0 
L 628 4666 
z
" transform="scale(0.015625)"/>
      </defs>
      <use xlink:href="#DejaVuSans-46"/>
      <use xlink:href="#DejaVuSans-4d" x="57.519531"/>
      <use xlink:href="#DejaVuSans-4d" x="143.798828"/>
      <use xlink:href="#DejaVuSans-43" x="230.078125"/>
     </g>
    </g>
    <g id="line2d_70">
     <path d="M 430.92 209.064562 
L 440.92 209.064562 
L 450.92 209.064562 
" style="fill: none; stroke: #8c564b; stroke-width: 2; stroke-linecap: square"/>
     <g>
      <use xlink:href="#mfd7097831a" x="440.92" y="209.064562" style="fill: #8c564b; stroke: #8c564b; stroke-linejoin: bevel"/>
     </g>
    </g>
    <g id="text_26">
     <!-- FDLA -->
     <g transform="translate(458.92 212.564562) scale(0.1 -0.1)">
      <defs>
       <path id="DejaVuSans-44" d="M 1259 4147 
L 1259 519 
L 2022 519 
Q 2988 519 3436 956 
Q 3884 1394 3884 2338 
Q 3884 3275 3436 3711 
Q 2988 4147 2022 4147 
L 1259 4147 
z
M 628 4666 
L 1925 4666 
Q 3281 4666 3915 4102 
Q 4550 3538 4550 2338 
Q 4550 1131 3912 565 
Q 3275 0 1925 0 
L 628 0 
L 628 4666 
z
" transform="scale(0.015625)"/>
       <path id="DejaVuSans-41" d="M 2188 4044 
L 1331 1722 
L 3047 1722 
L 2188 4044 
z
M 1831 4666 
L 2547 4666 
L 4325 0 
L 3669 0 
L 3244 1197 
L 1141 1197 
L 716 0 
L 50 0 
L 1831 4666 
z
" transform="scale(0.015625)"/>
      </defs>
      <use xlink:href="#DejaVuSans-46"/>
      <use xlink:href="#DejaVuSans-44" x="57.519531"/>
      <use xlink:href="#DejaVuSans-4c" x="134.521484"/>
      <use xlink:href="#DejaVuSans-41" x="192.484375"/>
     </g>
    </g>
   </g>
  </g>
  <g id="patch_13">
   <path d="M 172.139162 272.400217 
Q 189.749581 236.913709 207.36 201.4272 
" style="fill: none; stroke: #000000; stroke-linecap: round"/>
  </g>
  <g id="text_27">
   <!-- 3-Cluster network -->
   <g transform="translate(174.834 16.318125) scale(0.12 -0.12)">
    <defs>
     <path id="DejaVuSans-77" d="M 269 3500 
L 844 3500 
L 1563 769 
L 2278 3500 
L 2956 3500 
L 3675 769 
L 4391 3500 
L 4966 3500 
L 4050 0 
L 3372 0 
L 2619 2869 
L 1863 0 
L 1184 0 
L 269 3500 
z
" transform="scale(0.015625)"/>
     <path id="DejaVuSans-6b" d="M 581 4863 
L 1159 4863 
L 1159 1991 
L 2875 3500 
L 3609 3500 
L 1753 1863 
L 3688 0 
L 2938 0 
L 1159 1709 
L 1159 0 
L 581 0 
L 581 4863 
z
" transform="scale(0.015625)"/>
    </defs>
    <use xlink:href="#DejaVuSans-33"/>
    <use xlink:href="#DejaVuSans-2d" x="63.623047"/>
    <use xlink:href="#DejaVuSans-43" x="99.707031"/>
    <use xlink:href="#DejaVuSans-6c" x="169.53125"/>
    <use xlink:href="#DejaVuSans-75" x="197.314453"/>
    <use xlink:href="#DejaVuSans-73" x="260.693359"/>
    <use xlink:href="#DejaVuSans-74" x="312.792969"/>
    <use xlink:href="#DejaVuSans-65" x="352.001953"/>
    <use xlink:href="#DejaVuSans-72" x="413.525391"/>
    <use xlink:href="#DejaVuSans-20" x="454.638672"/>
    <use xlink:href="#DejaVuSans-6e" x="486.425781"/>
    <use xlink:href="#DejaVuSans-65" x="549.804688"/>
    <use xlink:href="#DejaVuSans-74" x="611.328125"/>
    <use xlink:href="#DejaVuSans-77" x="650.537109"/>
    <use xlink:href="#DejaVuSans-6f" x="732.324219"/>
    <use xlink:href="#DejaVuSans-72" x="793.505859"/>
    <use xlink:href="#DejaVuSans-6b" x="834.619141"/>
   </g>
  </g>
  <g id="text_28">
   <!-- Timesteps -->
   <g transform="translate(197.599313 339.936375) scale(0.12 -0.12)">
    <defs>
     <path id="DejaVuSans-54" d="M -19 4666 
L 3928 4666 
L 3928 4134 
L 2272 4134 
L 2272 0 
L 1638 0 
L 1638 4134 
L -19 4134 
L -19 4666 
z
" transform="scale(0.015625)"/>
     <path id="DejaVuSans-70" d="M 1159 525 
L 1159 -1331 
L 581 -1331 
L 581 3500 
L 1159 3500 
L 1159 2969 
Q 1341 3281 1617 3432 
Q 1894 3584 2278 3584 
Q 2916 3584 3314 3078 
Q 3713 2572 3713 1747 
Q 3713 922 3314 415 
Q 2916 -91 2278 -91 
Q 1894 -91 1617 61 
Q 1341 213 1159 525 
z
M 3116 1747 
Q 3116 2381 2855 2742 
Q 2594 3103 2138 3103 
Q 1681 3103 1420 2742 
Q 1159 2381 1159 1747 
Q 1159 1113 1420 752 
Q 1681 391 2138 391 
Q 2594 391 2855 752 
Q 3116 1113 3116 1747 
z
" transform="scale(0.015625)"/>
    </defs>
    <use xlink:href="#DejaVuSans-54"/>
    <use xlink:href="#DejaVuSans-69" x="57.958984"/>
    <use xlink:href="#DejaVuSans-6d" x="85.742188"/>
    <use xlink:href="#DejaVuSans-65" x="183.154297"/>
    <use xlink:href="#DejaVuSans-73" x="244.677734"/>
    <use xlink:href="#DejaVuSans-74" x="296.777344"/>
    <use xlink:href="#DejaVuSans-65" x="335.986328"/>
    <use xlink:href="#DejaVuSans-70" x="397.509766"/>
    <use xlink:href="#DejaVuSans-73" x="460.986328"/>
   </g>
  </g>
  <g id="text_29">
   <!-- Mean estimate error for the best arm -->
   <g transform="translate(16.318125 284.760187) rotate(-90) scale(0.12 -0.12)">
    <defs>
     <path id="DejaVuSans-66" d="M 2375 4863 
L 2375 4384 
L 1825 4384 
Q 1516 4384 1395 4259 
Q 1275 4134 1275 3809 
L 1275 3500 
L 2222 3500 
L 2222 3053 
L 1275 3053 
L 1275 0 
L 697 0 
L 697 3053 
L 147 3053 
L 147 3500 
L 697 3500 
L 697 3744 
Q 697 4328 969 4595 
Q 1241 4863 1831 4863 
L 2375 4863 
z
" transform="scale(0.015625)"/>
     <path id="DejaVuSans-68" d="M 3513 2113 
L 3513 0 
L 2938 0 
L 2938 2094 
Q 2938 2591 2744 2837 
Q 2550 3084 2163 3084 
Q 1697 3084 1428 2787 
Q 1159 2491 1159 1978 
L 1159 0 
L 581 0 
L 581 4863 
L 1159 4863 
L 1159 2956 
Q 1366 3272 1645 3428 
Q 1925 3584 2291 3584 
Q 2894 3584 3203 3211 
Q 3513 2838 3513 2113 
z
" transform="scale(0.015625)"/>
     <path id="DejaVuSans-62" d="M 3116 1747 
Q 3116 2381 2855 2742 
Q 2594 3103 2138 3103 
Q 1681 3103 1420 2742 
Q 1159 2381 1159 1747 
Q 1159 1113 1420 752 
Q 1681 391 2138 391 
Q 2594 391 2855 752 
Q 3116 1113 3116 1747 
z
M 1159 2969 
Q 1341 3281 1617 3432 
Q 1894 3584 2278 3584 
Q 2916 3584 3314 3078 
Q 3713 2572 3713 1747 
Q 3713 922 3314 415 
Q 2916 -91 2278 -91 
Q 1894 -91 1617 61 
Q 1341 213 1159 525 
L 1159 0 
L 581 0 
L 581 4863 
L 1159 4863 
L 1159 2969 
z
" transform="scale(0.015625)"/>
    </defs>
    <use xlink:href="#DejaVuSans-4d"/>
    <use xlink:href="#DejaVuSans-65" x="86.279297"/>
    <use xlink:href="#DejaVuSans-61" x="147.802734"/>
    <use xlink:href="#DejaVuSans-6e" x="209.082031"/>
    <use xlink:href="#DejaVuSans-20" x="272.460938"/>
    <use xlink:href="#DejaVuSans-65" x="304.248047"/>
    <use xlink:href="#DejaVuSans-73" x="365.771484"/>
    <use xlink:href="#DejaVuSans-74" x="417.871094"/>
    <use xlink:href="#DejaVuSans-69" x="457.080078"/>
    <use xlink:href="#DejaVuSans-6d" x="484.863281"/>
    <use xlink:href="#DejaVuSans-61" x="582.275391"/>
    <use xlink:href="#DejaVuSans-74" x="643.554688"/>
    <use xlink:href="#DejaVuSans-65" x="682.763672"/>
    <use xlink:href="#DejaVuSans-20" x="744.287109"/>
    <use xlink:href="#DejaVuSans-65" x="776.074219"/>
    <use xlink:href="#DejaVuSans-72" x="837.597656"/>
    <use xlink:href="#DejaVuSans-72" x="876.960938"/>
    <use xlink:href="#DejaVuSans-6f" x="915.824219"/>
    <use xlink:href="#DejaVuSans-72" x="977.005859"/>
    <use xlink:href="#DejaVuSans-20" x="1018.119141"/>
    <use xlink:href="#DejaVuSans-66" x="1049.90625"/>
    <use xlink:href="#DejaVuSans-6f" x="1085.111328"/>
    <use xlink:href="#DejaVuSans-72" x="1146.292969"/>
    <use xlink:href="#DejaVuSans-20" x="1187.40625"/>
    <use xlink:href="#DejaVuSans-74" x="1219.193359"/>
    <use xlink:href="#DejaVuSans-68" x="1258.402344"/>
    <use xlink:href="#DejaVuSans-65" x="1321.78125"/>
    <use xlink:href="#DejaVuSans-20" x="1383.304688"/>
    <use xlink:href="#DejaVuSans-62" x="1415.091797"/>
    <use xlink:href="#DejaVuSans-65" x="1478.568359"/>
    <use xlink:href="#DejaVuSans-73" x="1540.091797"/>
    <use xlink:href="#DejaVuSans-74" x="1592.191406"/>
    <use xlink:href="#DejaVuSans-20" x="1631.400391"/>
    <use xlink:href="#DejaVuSans-61" x="1663.1875"/>
    <use xlink:href="#DejaVuSans-72" x="1724.466797"/>
    <use xlink:href="#DejaVuSans-6d" x="1763.830078"/>
   </g>
  </g>
 </g>
 <defs>
  <clipPath id="p3b0c20d30c">
   <rect x="55.584" y="41.76" width="357.12" height="266.112"/>
  </clipPath>
  <clipPath id="p98a9d7ad26">
   <rect x="207.36" y="55.0656" width="196.416" height="146.3616"/>
  </clipPath>
 </defs>
</svg>
