<?xml version="1.0" encoding="utf-8" standalone="no"?>
<!DOCTYPE svg PUBLIC "-//W3C//DTD SVG 1.1//EN"
  "http://www.w3.org/Graphics/SVG/1.1/DTD/svg11.dtd">
<svg xmlns:xlink="http://www.w3.org/1999/xlink" width="421.811252pt" height="349.632pt" viewBox="0 0 421.811252 349.632" xmlns="http://www.w3.org/2000/svg" version="1.1">
 <metadata>
  <rdf:RDF xmlns:dc="http://purl.org/dc/elements/1.1/" xmlns:cc="http://creativecommons.org/ns#" xmlns:rdf="http://www.w3.org/1999/02/22-rdf-syntax-ns#">
   <cc:Work>
    <dc:type rdf:resource="http://purl.org/dc/dcmitype/StillImage"/>
    <dc:date>2023-09-05T00:58:01.521041</dc:date>
    <dc:format>image/svg+xml</dc:format>
    <dc:creator>
     <cc:Agent>
      <dc:title>Matplotlib v3.7.2, https://matplotlib.org/</dc:title>
     </cc:Agent>
    </dc:creator>
   </cc:Work>
  </rdf:RDF>
 </metadata>
 <defs>
  <style type="text/css">*{stroke-linejoin: round; stroke-linecap: butt}</style>
 </defs>
 <g id="figure_1">
  <g id="patch_1">
   <path d="M 0 349.632 
L 421.811252 349.632 
L 421.811252 -0 
L 0 -0 
z
" style="fill: #ffffff"/>
  </g>
  <g id="axes_1">
   <g id="patch_2">
    <path d="M 55.584 307.872 
L 412.704 307.872 
L 412.704 41.76 
L 55.584 41.76 
z
" style="fill: #ffffff"/>
   </g>
   <g id="matplotlib.axis_1">
    <g id="xtick_1">
     <g id="line2d_1">
      <path d="M 71.816727 307.872 
L 71.816727 41.76 
" clip-path="url(#p2730455a86)" style="fill: none; stroke: #b0b0b0; stroke-width: 0.8; stroke-linecap: square"/>
     </g>
     <g id="line2d_2">
      <defs>
       <path id="m14467d52dd" d="M 0 0 
L 0 3.5 
" style="stroke: #000000; stroke-width: 0.8"/>
      </defs>
      <g>
       <use xlink:href="#m14467d52dd" x="71.816727" y="307.872" style="stroke: #000000; stroke-width: 0.8"/>
      </g>
     </g>
     <g id="text_1">
      <!-- 0 -->
      <g transform="translate(67.362977 325.509812) scale(0.14 -0.14)">
       <defs>
        <path id="DejaVuSans-30" d="M 2034 4250 
Q 1547 4250 1301 3770 
Q 1056 3291 1056 2328 
Q 1056 1369 1301 889 
Q 1547 409 2034 409 
Q 2525 409 2770 889 
Q 3016 1369 3016 2328 
Q 3016 3291 2770 3770 
Q 2525 4250 2034 4250 
z
M 2034 4750 
Q 2819 4750 3233 4129 
Q 3647 3509 3647 2328 
Q 3647 1150 3233 529 
Q 2819 -91 2034 -91 
Q 1250 -91 836 529 
Q 422 1150 422 2328 
Q 422 3509 836 4129 
Q 1250 4750 2034 4750 
z
" transform="scale(0.015625)"/>
       </defs>
       <use xlink:href="#DejaVuSans-30"/>
      </g>
     </g>
    </g>
    <g id="xtick_2">
     <g id="line2d_3">
      <path d="M 136.812632 307.872 
L 136.812632 41.76 
" clip-path="url(#p2730455a86)" style="fill: none; stroke: #b0b0b0; stroke-width: 0.8; stroke-linecap: square"/>
     </g>
     <g id="line2d_4">
      <g>
       <use xlink:href="#m14467d52dd" x="136.812632" y="307.872" style="stroke: #000000; stroke-width: 0.8"/>
      </g>
     </g>
     <g id="text_2">
      <!-- 200 -->
      <g transform="translate(123.451382 325.509812) scale(0.14 -0.14)">
       <defs>
        <path id="DejaVuSans-32" d="M 1228 531 
L 3431 531 
L 3431 0 
L 469 0 
L 469 531 
Q 828 903 1448 1529 
Q 2069 2156 2228 2338 
Q 2531 2678 2651 2914 
Q 2772 3150 2772 3378 
Q 2772 3750 2511 3984 
Q 2250 4219 1831 4219 
Q 1534 4219 1204 4116 
Q 875 4013 500 3803 
L 500 4441 
Q 881 4594 1212 4672 
Q 1544 4750 1819 4750 
Q 2544 4750 2975 4387 
Q 3406 4025 3406 3419 
Q 3406 3131 3298 2873 
Q 3191 2616 2906 2266 
Q 2828 2175 2409 1742 
Q 1991 1309 1228 531 
z
" transform="scale(0.015625)"/>
       </defs>
       <use xlink:href="#DejaVuSans-32"/>
       <use xlink:href="#DejaVuSans-30" x="63.623047"/>
       <use xlink:href="#DejaVuSans-30" x="127.246094"/>
      </g>
     </g>
    </g>
    <g id="xtick_3">
     <g id="line2d_5">
      <path d="M 201.808537 307.872 
L 201.808537 41.76 
" clip-path="url(#p2730455a86)" style="fill: none; stroke: #b0b0b0; stroke-width: 0.8; stroke-linecap: square"/>
     </g>
     <g id="line2d_6">
      <g>
       <use xlink:href="#m14467d52dd" x="201.808537" y="307.872" style="stroke: #000000; stroke-width: 0.8"/>
      </g>
     </g>
     <g id="text_3">
      <!-- 400 -->
      <g transform="translate(188.447287 325.509812) scale(0.14 -0.14)">
       <defs>
        <path id="DejaVuSans-34" d="M 2419 4116 
L 825 1625 
L 2419 1625 
L 2419 4116 
z
M 2253 4666 
L 3047 4666 
L 3047 1625 
L 3713 1625 
L 3713 1100 
L 3047 1100 
L 3047 0 
L 2419 0 
L 2419 1100 
L 313 1100 
L 313 1709 
L 2253 4666 
z
" transform="scale(0.015625)"/>
       </defs>
       <use xlink:href="#DejaVuSans-34"/>
       <use xlink:href="#DejaVuSans-30" x="63.623047"/>
       <use xlink:href="#DejaVuSans-30" x="127.246094"/>
      </g>
     </g>
    </g>
    <g id="xtick_4">
     <g id="line2d_7">
      <path d="M 266.804442 307.872 
L 266.804442 41.76 
" clip-path="url(#p2730455a86)" style="fill: none; stroke: #b0b0b0; stroke-width: 0.8; stroke-linecap: square"/>
     </g>
     <g id="line2d_8">
      <g>
       <use xlink:href="#m14467d52dd" x="266.804442" y="307.872" style="stroke: #000000; stroke-width: 0.8"/>
      </g>
     </g>
     <g id="text_4">
      <!-- 600 -->
      <g transform="translate(253.443192 325.509812) scale(0.14 -0.14)">
       <defs>
        <path id="DejaVuSans-36" d="M 2113 2584 
Q 1688 2584 1439 2293 
Q 1191 2003 1191 1497 
Q 1191 994 1439 701 
Q 1688 409 2113 409 
Q 2538 409 2786 701 
Q 3034 994 3034 1497 
Q 3034 2003 2786 2293 
Q 2538 2584 2113 2584 
z
M 3366 4563 
L 3366 3988 
Q 3128 4100 2886 4159 
Q 2644 4219 2406 4219 
Q 1781 4219 1451 3797 
Q 1122 3375 1075 2522 
Q 1259 2794 1537 2939 
Q 1816 3084 2150 3084 
Q 2853 3084 3261 2657 
Q 3669 2231 3669 1497 
Q 3669 778 3244 343 
Q 2819 -91 2113 -91 
Q 1303 -91 875 529 
Q 447 1150 447 2328 
Q 447 3434 972 4092 
Q 1497 4750 2381 4750 
Q 2619 4750 2861 4703 
Q 3103 4656 3366 4563 
z
" transform="scale(0.015625)"/>
       </defs>
       <use xlink:href="#DejaVuSans-36"/>
       <use xlink:href="#DejaVuSans-30" x="63.623047"/>
       <use xlink:href="#DejaVuSans-30" x="127.246094"/>
      </g>
     </g>
    </g>
    <g id="xtick_5">
     <g id="line2d_9">
      <path d="M 331.800347 307.872 
L 331.800347 41.76 
" clip-path="url(#p2730455a86)" style="fill: none; stroke: #b0b0b0; stroke-width: 0.8; stroke-linecap: square"/>
     </g>
     <g id="line2d_10">
      <g>
       <use xlink:href="#m14467d52dd" x="331.800347" y="307.872" style="stroke: #000000; stroke-width: 0.8"/>
      </g>
     </g>
     <g id="text_5">
      <!-- 800 -->
      <g transform="translate(318.439097 325.509812) scale(0.14 -0.14)">
       <defs>
        <path id="DejaVuSans-38" d="M 2034 2216 
Q 1584 2216 1326 1975 
Q 1069 1734 1069 1313 
Q 1069 891 1326 650 
Q 1584 409 2034 409 
Q 2484 409 2743 651 
Q 3003 894 3003 1313 
Q 3003 1734 2745 1975 
Q 2488 2216 2034 2216 
z
M 1403 2484 
Q 997 2584 770 2862 
Q 544 3141 544 3541 
Q 544 4100 942 4425 
Q 1341 4750 2034 4750 
Q 2731 4750 3128 4425 
Q 3525 4100 3525 3541 
Q 3525 3141 3298 2862 
Q 3072 2584 2669 2484 
Q 3125 2378 3379 2068 
Q 3634 1759 3634 1313 
Q 3634 634 3220 271 
Q 2806 -91 2034 -91 
Q 1263 -91 848 271 
Q 434 634 434 1313 
Q 434 1759 690 2068 
Q 947 2378 1403 2484 
z
M 1172 3481 
Q 1172 3119 1398 2916 
Q 1625 2713 2034 2713 
Q 2441 2713 2670 2916 
Q 2900 3119 2900 3481 
Q 2900 3844 2670 4047 
Q 2441 4250 2034 4250 
Q 1625 4250 1398 4047 
Q 1172 3844 1172 3481 
z
" transform="scale(0.015625)"/>
       </defs>
       <use xlink:href="#DejaVuSans-38"/>
       <use xlink:href="#DejaVuSans-30" x="63.623047"/>
       <use xlink:href="#DejaVuSans-30" x="127.246094"/>
      </g>
     </g>
    </g>
    <g id="xtick_6">
     <g id="line2d_11">
      <path d="M 396.796252 307.872 
L 396.796252 41.76 
" clip-path="url(#p2730455a86)" style="fill: none; stroke: #b0b0b0; stroke-width: 0.8; stroke-linecap: square"/>
     </g>
     <g id="line2d_12">
      <g>
       <use xlink:href="#m14467d52dd" x="396.796252" y="307.872" style="stroke: #000000; stroke-width: 0.8"/>
      </g>
     </g>
     <g id="text_6">
      <!-- 1000 -->
      <g transform="translate(378.981252 325.509812) scale(0.14 -0.14)">
       <defs>
        <path id="DejaVuSans-31" d="M 794 531 
L 1825 531 
L 1825 4091 
L 703 3866 
L 703 4441 
L 1819 4666 
L 2450 4666 
L 2450 531 
L 3481 531 
L 3481 0 
L 794 0 
L 794 531 
z
" transform="scale(0.015625)"/>
       </defs>
       <use xlink:href="#DejaVuSans-31"/>
       <use xlink:href="#DejaVuSans-30" x="63.623047"/>
       <use xlink:href="#DejaVuSans-30" x="127.246094"/>
       <use xlink:href="#DejaVuSans-30" x="190.869141"/>
      </g>
     </g>
    </g>
   </g>
   <g id="matplotlib.axis_2">
    <g id="ytick_1">
     <g id="line2d_13">
      <path d="M 55.584 277.161103 
L 412.704 277.161103 
" clip-path="url(#p2730455a86)" style="fill: none; stroke: #b0b0b0; stroke-width: 0.8; stroke-linecap: square"/>
     </g>
     <g id="line2d_14">
      <defs>
       <path id="m2ae2bc8be4" d="M 0 0 
L -3.5 0 
" style="stroke: #000000; stroke-width: 0.8"/>
      </defs>
      <g>
       <use xlink:href="#m2ae2bc8be4" x="55.584" y="277.161103" style="stroke: #000000; stroke-width: 0.8"/>
      </g>
     </g>
     <g id="text_7">
      <!-- 1 -->
      <g transform="translate(39.6765 282.480009) scale(0.14 -0.14)">
       <use xlink:href="#DejaVuSans-31"/>
      </g>
     </g>
    </g>
    <g id="ytick_2">
     <g id="line2d_15">
      <path d="M 55.584 230.886052 
L 412.704 230.886052 
" clip-path="url(#p2730455a86)" style="fill: none; stroke: #b0b0b0; stroke-width: 0.8; stroke-linecap: square"/>
     </g>
     <g id="line2d_16">
      <g>
       <use xlink:href="#m2ae2bc8be4" x="55.584" y="230.886052" style="stroke: #000000; stroke-width: 0.8"/>
      </g>
     </g>
     <g id="text_8">
      <!-- 2 -->
      <g transform="translate(39.6765 236.204958) scale(0.14 -0.14)">
       <use xlink:href="#DejaVuSans-32"/>
      </g>
     </g>
    </g>
    <g id="ytick_3">
     <g id="line2d_17">
      <path d="M 55.584 184.611002 
L 412.704 184.611002 
" clip-path="url(#p2730455a86)" style="fill: none; stroke: #b0b0b0; stroke-width: 0.8; stroke-linecap: square"/>
     </g>
     <g id="line2d_18">
      <g>
       <use xlink:href="#m2ae2bc8be4" x="55.584" y="184.611002" style="stroke: #000000; stroke-width: 0.8"/>
      </g>
     </g>
     <g id="text_9">
      <!-- 3 -->
      <g transform="translate(39.6765 189.929908) scale(0.14 -0.14)">
       <defs>
        <path id="DejaVuSans-33" d="M 2597 2516 
Q 3050 2419 3304 2112 
Q 3559 1806 3559 1356 
Q 3559 666 3084 287 
Q 2609 -91 1734 -91 
Q 1441 -91 1130 -33 
Q 819 25 488 141 
L 488 750 
Q 750 597 1062 519 
Q 1375 441 1716 441 
Q 2309 441 2620 675 
Q 2931 909 2931 1356 
Q 2931 1769 2642 2001 
Q 2353 2234 1838 2234 
L 1294 2234 
L 1294 2753 
L 1863 2753 
Q 2328 2753 2575 2939 
Q 2822 3125 2822 3475 
Q 2822 3834 2567 4026 
Q 2313 4219 1838 4219 
Q 1578 4219 1281 4162 
Q 984 4106 628 3988 
L 628 4550 
Q 988 4650 1302 4700 
Q 1616 4750 1894 4750 
Q 2613 4750 3031 4423 
Q 3450 4097 3450 3541 
Q 3450 3153 3228 2886 
Q 3006 2619 2597 2516 
z
" transform="scale(0.015625)"/>
       </defs>
       <use xlink:href="#DejaVuSans-33"/>
      </g>
     </g>
    </g>
    <g id="ytick_4">
     <g id="line2d_19">
      <path d="M 55.584 138.335951 
L 412.704 138.335951 
" clip-path="url(#p2730455a86)" style="fill: none; stroke: #b0b0b0; stroke-width: 0.8; stroke-linecap: square"/>
     </g>
     <g id="line2d_20">
      <g>
       <use xlink:href="#m2ae2bc8be4" x="55.584" y="138.335951" style="stroke: #000000; stroke-width: 0.8"/>
      </g>
     </g>
     <g id="text_10">
      <!-- 4 -->
      <g transform="translate(39.6765 143.654857) scale(0.14 -0.14)">
       <use xlink:href="#DejaVuSans-34"/>
      </g>
     </g>
    </g>
    <g id="ytick_5">
     <g id="line2d_21">
      <path d="M 55.584 92.0609 
L 412.704 92.0609 
" clip-path="url(#p2730455a86)" style="fill: none; stroke: #b0b0b0; stroke-width: 0.8; stroke-linecap: square"/>
     </g>
     <g id="line2d_22">
      <g>
       <use xlink:href="#m2ae2bc8be4" x="55.584" y="92.0609" style="stroke: #000000; stroke-width: 0.8"/>
      </g>
     </g>
     <g id="text_11">
      <!-- 5 -->
      <g transform="translate(39.6765 97.379806) scale(0.14 -0.14)">
       <defs>
        <path id="DejaVuSans-35" d="M 691 4666 
L 3169 4666 
L 3169 4134 
L 1269 4134 
L 1269 2991 
Q 1406 3038 1543 3061 
Q 1681 3084 1819 3084 
Q 2600 3084 3056 2656 
Q 3513 2228 3513 1497 
Q 3513 744 3044 326 
Q 2575 -91 1722 -91 
Q 1428 -91 1123 -41 
Q 819 9 494 109 
L 494 744 
Q 775 591 1075 516 
Q 1375 441 1709 441 
Q 2250 441 2565 725 
Q 2881 1009 2881 1497 
Q 2881 1984 2565 2268 
Q 2250 2553 1709 2553 
Q 1456 2553 1204 2497 
Q 953 2441 691 2322 
L 691 4666 
z
" transform="scale(0.015625)"/>
       </defs>
       <use xlink:href="#DejaVuSans-35"/>
      </g>
     </g>
    </g>
    <g id="ytick_6">
     <g id="line2d_23">
      <path d="M 55.584 45.78585 
L 412.704 45.78585 
" clip-path="url(#p2730455a86)" style="fill: none; stroke: #b0b0b0; stroke-width: 0.8; stroke-linecap: square"/>
     </g>
     <g id="line2d_24">
      <g>
       <use xlink:href="#m2ae2bc8be4" x="55.584" y="45.78585" style="stroke: #000000; stroke-width: 0.8"/>
      </g>
     </g>
     <g id="text_12">
      <!-- 6 -->
      <g transform="translate(39.6765 51.104756) scale(0.14 -0.14)">
       <use xlink:href="#DejaVuSans-36"/>
      </g>
     </g>
    </g>
   </g>
   <g id="line2d_25">
    <path d="M 71.816727 295.776 
L 72.141707 269.399189 
L 72.791666 256.274548 
L 73.766604 241.981526 
L 74.741543 231.80396 
L 75.716482 223.882011 
L 76.69142 217.345232 
L 78.316318 208.905844 
L 79.291256 204.793044 
L 80.916154 199.259433 
L 82.541052 195.056946 
L 84.815908 190.007787 
L 86.765785 186.420608 
L 88.065704 184.184882 
L 89.365622 182.093197 
L 91.965458 178.729217 
L 94.890274 175.138432 
L 101.064885 169.124681 
L 107.889455 163.600123 
L 111.13925 161.347125 
L 112.764147 160.102712 
L 115.039004 158.547284 
L 116.663902 157.456623 
L 121.538595 154.031903 
L 133.562837 147.133099 
L 135.187735 146.322378 
L 137.137612 145.278305 
L 139.412468 144.162382 
L 140.712387 143.341183 
L 142.987243 141.934059 
L 149.811813 138.468953 
L 153.711568 136.568488 
L 155.986424 135.531614 
L 158.261281 134.588422 
L 163.785933 132.059023 
L 165.41083 131.391785 
L 167.035728 130.726922 
L 170.610503 129.223212 
L 172.88536 128.214307 
L 176.785114 126.626953 
L 181.659807 124.640195 
L 188.809356 121.740647 
L 192.384131 120.554054 
L 195.958906 119.290341 
L 198.233762 118.579663 
L 200.18364 117.838414 
L 208.958087 115.10345 
L 209.933025 114.773313 
L 215.132698 113.341295 
L 220.007391 111.84804 
L 223.582165 110.720069 
L 225.857022 110.110154 
L 227.806899 109.595342 
L 232.031633 108.241239 
L 235.606408 107.132039 
L 240.481101 105.878342 
L 244.705835 104.571237 
L 246.330732 104.167037 
L 251.530405 102.916314 
L 252.830323 102.656866 
L 256.730077 101.761994 
L 259.329913 101.269886 
L 264.529586 100.054727 
L 270.379217 98.674195 
L 274.603951 97.571061 
L 278.178726 96.723782 
L 279.803623 96.374508 
L 294.427702 93.276115 
L 301.577251 92.0748 
L 322.050962 87.789649 
L 326.275695 87.09542 
L 332.450306 85.746891 
L 336.67504 84.788279 
L 339.274876 84.287513 
L 354.873894 81.7905 
L 359.098627 80.979721 
L 361.698464 80.489785 
L 364.948259 79.853224 
L 376.322542 77.562513 
L 379.247358 77.14601 
L 390.296662 75.311482 
L 396.471273 74.438788 
L 396.471273 74.438788 
" clip-path="url(#p2730455a86)" style="fill: none; stroke: #1f77b4; stroke-width: 2; stroke-linecap: square"/>
    <defs>
     <path id="m256b64dad1" d="M 0 3 
C 0.795609 3 1.55874 2.683901 2.12132 2.12132 
C 2.683901 1.55874 3 0.795609 3 0 
C 3 -0.795609 2.683901 -1.55874 2.12132 -2.12132 
C 1.55874 -2.683901 0.795609 -3 0 -3 
C -0.795609 -3 -1.55874 -2.683901 -2.12132 -2.12132 
C -2.683901 -1.55874 -3 -0.795609 -3 0 
C -3 0.795609 -2.683901 1.55874 -2.12132 2.12132 
C -1.55874 2.683901 -0.795609 3 0 3 
z
" style="stroke: #1f77b4"/>
    </defs>
    <g clip-path="url(#p2730455a86)">
     <use xlink:href="#m256b64dad1" x="71.816727" y="295.776" style="fill: #1f77b4; stroke: #1f77b4"/>
     <use xlink:href="#m256b64dad1" x="136.812632" y="145.412785" style="fill: #1f77b4; stroke: #1f77b4"/>
     <use xlink:href="#m256b64dad1" x="201.808537" y="117.330552" style="fill: #1f77b4; stroke: #1f77b4"/>
     <use xlink:href="#m256b64dad1" x="266.804442" y="99.523708" style="fill: #1f77b4; stroke: #1f77b4"/>
     <use xlink:href="#m256b64dad1" x="331.800347" y="85.892369" style="fill: #1f77b4; stroke: #1f77b4"/>
    </g>
   </g>
   <g id="line2d_26">
    <path d="M 71.816727 295.776 
L 72.141707 269.399189 
L 73.441625 258.482137 
L 75.066523 244.441121 
L 77.991338 227.766006 
L 79.616236 220.571387 
L 81.566113 213.448722 
L 82.216072 211.525095 
L 82.866031 209.411125 
L 83.51599 207.695344 
L 85.140888 202.969667 
L 85.790847 201.275088 
L 87.415744 197.247646 
L 88.390683 195.302485 
L 89.040642 193.789314 
L 89.365622 193.324547 
L 91.640478 188.552615 
L 92.615417 186.844909 
L 98.465048 176.659355 
L 101.389864 172.233688 
L 102.039823 171.507589 
L 103.339741 169.721524 
L 106.264557 166.491748 
L 107.239495 165.274574 
L 107.889455 164.446254 
L 108.539414 163.73155 
L 109.514352 162.809466 
L 110.489291 161.891044 
L 111.13925 161.270484 
L 111.464229 160.999493 
L 112.114188 160.167232 
L 112.764147 159.368936 
L 114.064066 158.127031 
L 114.714025 157.469609 
L 115.039004 157.227514 
L 115.363984 156.813195 
L 115.688963 156.604803 
L 116.663902 155.486109 
L 117.313861 155.02511 
L 118.288799 154.186187 
L 118.938758 153.533124 
L 119.913697 152.696857 
L 120.563656 152.244156 
L 120.888636 151.873039 
L 121.213615 151.724773 
L 122.513533 150.590373 
L 123.813451 149.485234 
L 124.46341 148.897163 
L 125.438349 148.23395 
L 126.738267 147.177251 
L 127.388226 146.573579 
L 128.363165 145.870901 
L 128.688144 145.470072 
L 131.28798 143.756958 
L 132.587898 142.6312 
L 132.912878 142.508979 
L 133.562837 141.999474 
L 134.212796 141.619918 
L 134.862755 141.055006 
L 139.412468 138.241215 
L 140.062428 137.674412 
L 141.362346 136.996111 
L 143.962182 135.194571 
L 144.612141 134.856987 
L 146.886998 133.437743 
L 147.861936 132.842631 
L 148.511895 132.328496 
L 150.136793 131.208207 
L 150.786752 130.958123 
L 152.08667 129.856761 
L 152.736629 129.365489 
L 153.386588 128.966346 
L 154.036547 128.441408 
L 154.686506 128.219889 
L 155.336465 127.771583 
L 155.986424 127.420673 
L 157.936301 126.346988 
L 158.91124 125.898496 
L 159.886179 125.380654 
L 161.836056 124.249833 
L 162.161035 124.137165 
L 163.135974 123.422699 
L 163.460953 123.309053 
L 164.110912 122.838735 
L 165.41083 122.169255 
L 166.06079 121.90863 
L 168.010667 120.710516 
L 168.335646 120.592676 
L 169.635564 119.740177 
L 171.585441 118.717059 
L 176.460134 116.912917 
L 177.110093 116.571388 
L 177.760052 116.361958 
L 178.410011 116.111072 
L 185.884541 113.381481 
L 186.859479 112.939884 
L 187.834418 112.520848 
L 188.809356 112.203772 
L 192.384131 110.791155 
L 193.03409 110.582807 
L 193.684049 110.232152 
L 198.233762 108.526088 
L 199.85866 107.881541 
L 200.833599 107.403019 
L 201.808537 107.114933 
L 205.383312 105.945931 
L 206.033271 105.752413 
L 207.333189 105.288384 
L 214.482739 102.980112 
L 218.382493 102.022559 
L 219.032452 101.765138 
L 223.257186 100.496022 
L 224.232124 99.838633 
L 224.882084 99.629495 
L 226.182002 99.18328 
L 228.781838 98.39763 
L 230.081756 97.963582 
L 231.381674 97.604606 
L 232.031633 97.389303 
L 233.656531 97.028299 
L 235.606408 96.508888 
L 238.531224 95.396227 
L 239.831142 94.960729 
L 240.481101 94.816462 
L 242.430978 94.224166 
L 243.080937 94.057613 
L 244.055876 93.579467 
L 252.180364 91.596516 
L 252.830323 91.354967 
L 254.7802 90.980911 
L 255.755138 90.60855 
L 257.705016 90.228093 
L 259.329913 89.91184 
L 260.629831 89.577896 
L 261.27979 89.434471 
L 263.554647 88.910594 
L 266.479463 87.993125 
L 266.804442 87.947551 
L 267.454401 87.731921 
L 268.754319 87.422351 
L 269.729258 87.196513 
L 271.354156 86.709593 
L 272.654074 86.436024 
L 272.979053 86.276004 
L 273.953992 86.109719 
L 274.603951 85.783469 
L 275.578889 85.58741 
L 276.228848 85.310609 
L 276.878808 85.076847 
L 277.853746 84.889629 
L 278.828685 84.660251 
L 280.778562 84.114145 
L 281.428521 83.919529 
L 282.728439 83.623118 
L 285.003296 83.070207 
L 290.527948 81.705448 
L 292.152845 81.475622 
L 293.777743 81.171206 
L 294.102722 80.980058 
L 296.0526 80.63102 
L 296.702559 80.441932 
L 298.977415 80.120218 
L 305.801985 78.636529 
L 307.426883 78.291227 
L 308.401821 78.050514 
L 309.051781 77.895403 
L 309.70174 77.752944 
L 311.001658 77.483248 
L 312.301576 77.12502 
L 313.601494 76.667526 
L 318.801166 75.475846 
L 322.375941 74.415589 
L 323.0259 74.057577 
L 324.650798 73.69557 
L 325.950716 73.432496 
L 326.925654 73.292068 
L 328.875532 73.067035 
L 330.17545 72.802808 
L 332.125327 72.453272 
L 333.100265 72.325594 
L 333.750224 72.147339 
L 335.700102 71.748759 
L 337.649979 71.390571 
L 338.949897 71.171499 
L 339.924835 70.873997 
L 342.849651 70.317408 
L 346.099446 69.791549 
L 348.699283 69.308211 
L 349.349242 69.094148 
L 351.624098 68.541644 
L 355.198873 68.107606 
L 361.698464 67.049495 
L 363.323361 66.805066 
L 367.873075 66.069172 
L 368.848013 65.841959 
L 369.822952 65.698009 
L 371.12287 65.4878 
L 374.047686 65.01489 
L 375.022624 64.742309 
L 375.997563 64.598119 
L 377.94744 64.325206 
L 381.847194 63.602046 
L 383.797071 63.396778 
L 385.096989 63.168717 
L 386.721887 62.899977 
L 389.321723 62.407408 
L 391.2716 62.189735 
L 392.896498 61.917011 
L 394.846375 61.562053 
L 396.471273 61.245236 
L 396.471273 61.245236 
" clip-path="url(#p2730455a86)" style="fill: none; stroke: #ff7f0e; stroke-width: 2; stroke-linecap: square"/>
    <defs>
     <path id="mfa8b81f1f8" d="M 0 -3 
L -3 3 
L 3 3 
z
" style="stroke: #ff7f0e; stroke-linejoin: miter"/>
    </defs>
    <g clip-path="url(#p2730455a86)">
     <use xlink:href="#mfa8b81f1f8" x="71.816727" y="295.776" style="fill: #ff7f0e; stroke: #ff7f0e; stroke-linejoin: miter"/>
     <use xlink:href="#mfa8b81f1f8" x="136.812632" y="139.758076" style="fill: #ff7f0e; stroke: #ff7f0e; stroke-linejoin: miter"/>
     <use xlink:href="#mfa8b81f1f8" x="201.808537" y="107.114933" style="fill: #ff7f0e; stroke: #ff7f0e; stroke-linejoin: miter"/>
     <use xlink:href="#mfa8b81f1f8" x="266.804442" y="87.947551" style="fill: #ff7f0e; stroke: #ff7f0e; stroke-linejoin: miter"/>
     <use xlink:href="#mfa8b81f1f8" x="331.800347" y="72.502872" style="fill: #ff7f0e; stroke: #ff7f0e; stroke-linejoin: miter"/>
    </g>
   </g>
   <g id="line2d_27">
    <path d="M 71.816727 295.776 
L 72.141707 269.399189 
L 73.766604 256.610722 
L 74.741543 249.506966 
L 76.69142 237.385427 
L 78.641297 228.331824 
L 81.241133 219.096873 
L 82.866031 214.472305 
L 83.51599 212.714314 
L 85.140888 208.541091 
L 88.390683 200.817425 
L 90.015581 197.829295 
L 91.315499 195.116198 
L 92.615417 192.235471 
L 93.265376 191.050898 
L 94.240314 189.332903 
L 94.890274 188.251029 
L 95.865212 186.855894 
L 98.140069 183.408105 
L 100.414925 180.304131 
L 101.064885 179.595578 
L 102.039823 178.268116 
L 104.31468 175.375899 
L 104.964639 174.536599 
L 105.614598 173.771161 
L 106.589536 172.576197 
L 109.514352 169.24588 
L 109.839332 168.971569 
L 110.81427 167.723733 
L 113.414106 164.731311 
L 114.064066 164.152888 
L 116.013943 162.49776 
L 116.663902 161.820952 
L 118.938758 159.896137 
L 120.238676 158.501404 
L 122.513533 156.714866 
L 123.813451 155.746291 
L 128.363165 152.394542 
L 129.013124 151.776612 
L 131.937939 149.919932 
L 135.187735 147.477997 
L 136.812632 146.360893 
L 138.43753 145.316134 
L 144.93712 141.175837 
L 146.562018 140.299836 
L 147.861936 139.635291 
L 149.486834 138.582698 
L 151.111731 137.817096 
L 153.386588 136.493937 
L 157.611322 133.987438 
L 158.261281 133.709638 
L 159.561199 133.013288 
L 160.536138 132.495604 
L 162.161035 131.586315 
L 163.460953 130.770152 
L 170.610503 127.132661 
L 172.56038 126.306042 
L 173.210339 126.048164 
L 181.659807 122.103191 
L 184.259643 121.249524 
L 185.559561 120.742174 
L 189.134336 119.370126 
L 191.734172 118.487823 
L 194.009029 117.645599 
L 194.658988 117.333611 
L 198.233762 115.73383 
L 200.508619 115.028631 
L 201.483558 114.656345 
L 205.708292 113.055027 
L 209.608046 111.394374 
L 210.582984 111.075115 
L 211.232943 110.813152 
L 212.857841 110.287282 
L 214.157759 109.780576 
L 215.457677 109.42052 
L 216.757595 109.006887 
L 218.382493 108.406321 
L 219.032452 108.168987 
L 220.33237 107.471487 
L 222.282247 106.881108 
L 224.557104 106.128332 
L 227.48192 105.313277 
L 228.781838 104.925243 
L 230.731715 104.211733 
L 232.031633 103.677403 
L 232.356613 103.604723 
L 233.006572 103.305813 
L 234.631469 102.838156 
L 240.481101 100.758564 
L 243.405916 99.84484 
L 244.380855 99.456862 
L 246.655712 98.979807 
L 247.63065 98.72564 
L 248.930568 98.432462 
L 254.7802 96.591591 
L 261.929749 94.557783 
L 262.904688 94.079342 
L 263.879627 93.877898 
L 264.854565 93.661761 
L 265.829504 93.330421 
L 267.779381 92.90657 
L 269.729258 92.374465 
L 272.654074 91.592249 
L 273.304033 91.364476 
L 276.878808 90.542282 
L 277.528767 90.382912 
L 278.828685 90.002255 
L 287.928111 88.094795 
L 301.902231 84.952789 
L 305.152026 84.206281 
L 306.776924 83.874884 
L 315.226391 82.111292 
L 316.52631 81.774037 
L 318.801166 81.344023 
L 319.451125 81.130669 
L 320.426064 80.876098 
L 322.050962 80.464856 
L 323.675859 80.022434 
L 324.975777 79.709595 
L 326.275695 79.475672 
L 329.525491 78.859956 
L 332.450306 78.262617 
L 333.425245 77.937152 
L 335.700102 77.521989 
L 337.324999 77.081494 
L 342.849651 76.190595 
L 344.149569 75.914357 
L 361.048505 73.199974 
L 362.023443 73.00297 
L 364.623279 72.586446 
L 366.248177 72.322104 
L 387.696826 69.013167 
L 389.646703 68.616196 
L 391.59658 68.284731 
L 395.821314 67.615958 
L 396.471273 67.54187 
L 396.471273 67.54187 
" clip-path="url(#p2730455a86)" style="fill: none; stroke: #2ca02c; stroke-width: 2; stroke-linecap: square"/>
    <defs>
     <path id="me11a8c0759" d="M -3 3 
L 3 3 
L 3 -3 
L -3 -3 
z
" style="stroke: #2ca02c; stroke-linejoin: miter"/>
    </defs>
    <g clip-path="url(#p2730455a86)">
     <use xlink:href="#me11a8c0759" x="71.816727" y="295.776" style="fill: #2ca02c; stroke: #2ca02c; stroke-linejoin: miter"/>
     <use xlink:href="#me11a8c0759" x="136.812632" y="146.360893" style="fill: #2ca02c; stroke: #2ca02c; stroke-linejoin: miter"/>
     <use xlink:href="#me11a8c0759" x="201.808537" y="114.541754" style="fill: #2ca02c; stroke: #2ca02c; stroke-linejoin: miter"/>
     <use xlink:href="#me11a8c0759" x="266.804442" y="93.129667" style="fill: #2ca02c; stroke: #2ca02c; stroke-linejoin: miter"/>
     <use xlink:href="#me11a8c0759" x="331.800347" y="78.432699" style="fill: #2ca02c; stroke: #2ca02c; stroke-linejoin: miter"/>
    </g>
   </g>
   <g id="line2d_28">
    <path d="M 71.816727 295.776 
L 72.141707 269.399189 
L 75.716482 242.299815 
L 78.316318 228.895641 
L 81.241133 217.907856 
L 81.891093 216.038699 
L 82.541052 213.957532 
L 86.440806 203.662823 
L 87.415744 201.792121 
L 88.715663 198.816547 
L 90.34056 195.598508 
L 92.290437 191.76075 
L 93.265376 189.860065 
L 93.590355 189.360624 
L 94.890274 186.703681 
L 96.190192 184.520127 
L 97.815089 181.941461 
L 101.064885 177.570464 
L 104.639659 173.299524 
L 105.289618 172.731822 
L 106.264557 171.378119 
L 106.914516 170.548677 
L 107.564475 169.835233 
L 108.539414 168.445281 
L 117.313861 159.127534 
L 117.96382 158.543263 
L 120.238676 155.922596 
L 120.888636 155.441763 
L 121.538595 154.776611 
L 123.163492 153.632262 
L 123.813451 153.042699 
L 124.78839 152.136501 
L 126.413287 150.767941 
L 127.388226 149.694958 
L 128.038185 149.203985 
L 128.688144 148.538594 
L 129.663083 147.777219 
L 130.313042 147.172739 
L 132.912878 145.009758 
L 134.212796 143.901751 
L 136.162673 142.305315 
L 136.812632 141.835056 
L 137.787571 141.251678 
L 138.762509 140.548802 
L 139.412468 140.178694 
L 140.387407 139.698576 
L 141.362346 139.189965 
L 142.662264 138.542653 
L 143.637202 137.897224 
L 144.612141 137.348972 
L 145.2621 136.991148 
L 146.562018 136.120464 
L 149.161854 134.754721 
L 151.111731 133.509001 
L 152.08667 132.894665 
L 153.061609 132.279497 
L 155.011486 131.412686 
L 155.986424 130.877594 
L 157.611322 129.891632 
L 158.91124 129.139964 
L 159.886179 128.694282 
L 160.861117 128.247613 
L 165.73581 125.53647 
L 169.635564 123.613568 
L 170.935482 122.759609 
L 172.2354 122.174604 
L 175.160216 120.892142 
L 178.410011 119.294801 
L 181.009848 118.182259 
L 181.659807 117.875641 
L 183.934663 116.911188 
L 184.584622 116.617668 
L 186.20952 116.085123 
L 187.509438 115.634894 
L 190.759233 114.374092 
L 191.734172 113.977103 
L 194.983967 112.95 
L 197.908783 111.668022 
L 201.158578 110.280431 
L 202.133517 110.002837 
L 206.033271 108.687078 
L 207.658169 108.098701 
L 209.933025 106.961167 
L 214.157759 105.419235 
L 216.107636 104.775278 
L 217.082575 104.414563 
L 218.057514 104.167523 
L 218.707473 103.874478 
L 219.357432 103.677496 
L 220.007391 103.447486 
L 221.307309 103.080413 
L 221.632288 103.010156 
L 221.957268 102.754864 
L 222.932206 102.487618 
L 224.557104 101.7712 
L 225.532043 101.506088 
L 229.106817 100.331576 
L 234.631469 98.71498 
L 237.231305 98.198232 
L 239.831142 97.242134 
L 247.305671 95.101153 
L 248.280609 94.887855 
L 252.505343 93.8628 
L 254.45522 93.461981 
L 257.705016 92.710541 
L 262.254729 91.471925 
L 266.804442 89.823559 
L 273.629012 87.905054 
L 274.603951 87.571337 
L 279.153664 86.290096 
L 279.803623 86.014536 
L 281.103541 85.738663 
L 283.703378 85.052609 
L 285.328275 84.74588 
L 286.303214 84.43566 
L 293.452763 82.770673 
L 294.102722 82.546491 
L 296.702559 81.927652 
L 298.652436 81.480048 
L 299.627374 81.263686 
L 305.152026 79.892585 
L 306.126965 79.638086 
L 311.326637 78.714663 
L 312.301576 78.390758 
L 314.251453 77.921712 
L 316.20133 77.616755 
L 317.501248 77.23423 
L 319.776105 76.700165 
L 324.975777 75.201517 
L 326.600675 74.859363 
L 327.575613 74.550183 
L 331.150388 73.58946 
L 334.075204 73.01908 
L 337.649979 72.304814 
L 338.624917 72.118916 
L 339.274876 71.941801 
L 342.199692 71.402526 
L 343.174631 71.154062 
L 346.424426 70.582879 
L 347.724344 70.316853 
L 350.974139 69.718286 
L 352.274057 69.510469 
L 353.898955 69.195461 
L 359.423607 68.288302 
L 361.373484 68.026611 
L 364.2983 67.408944 
L 367.223115 66.856985 
L 369.172993 66.494672 
L 369.822952 66.343655 
L 374.047686 65.481598 
L 375.022624 65.284474 
L 376.972501 64.928173 
L 377.62246 64.657291 
L 378.597399 64.435154 
L 379.572337 64.113146 
L 381.197235 63.810105 
L 384.44703 63.139121 
L 386.396907 62.867484 
L 388.021805 62.453446 
L 390.946621 61.823554 
L 391.921559 61.591374 
L 396.146293 60.695808 
L 396.471273 60.642106 
L 396.471273 60.642106 
" clip-path="url(#p2730455a86)" style="fill: none; stroke: #d62728; stroke-width: 2; stroke-linecap: square"/>
    <defs>
     <path id="m89c2e9ec98" d="M -3 3 
L 3 -3 
M -3 -3 
L 3 3 
" style="stroke: #d62728"/>
    </defs>
    <g clip-path="url(#p2730455a86)">
     <use xlink:href="#m89c2e9ec98" x="71.816727" y="295.776" style="fill: #d62728; stroke: #d62728"/>
     <use xlink:href="#m89c2e9ec98" x="136.812632" y="141.835056" style="fill: #d62728; stroke: #d62728"/>
     <use xlink:href="#m89c2e9ec98" x="201.808537" y="110.130186" style="fill: #d62728; stroke: #d62728"/>
     <use xlink:href="#m89c2e9ec98" x="266.804442" y="89.823559" style="fill: #d62728; stroke: #d62728"/>
     <use xlink:href="#m89c2e9ec98" x="331.800347" y="73.421031" style="fill: #d62728; stroke: #d62728"/>
    </g>
   </g>
   <g id="line2d_29">
    <path d="M 71.816727 295.776 
L 72.141707 269.399189 
L 72.791666 264.76423 
L 74.091584 252.574019 
L 74.741543 247.248462 
L 77.0164 231.885257 
L 78.966277 222.456526 
L 79.941215 218.620384 
L 82.216072 210.093628 
L 84.165949 203.593026 
L 88.715663 192.8545 
L 89.365622 191.593663 
L 92.615417 184.880258 
L 93.915335 182.784242 
L 94.240314 182.090801 
L 95.865212 179.868131 
L 96.840151 178.008995 
L 99.764966 173.891206 
L 100.739905 171.941554 
L 101.389864 171.115473 
L 101.714844 170.801553 
L 102.689782 169.462407 
L 104.31468 167.589835 
L 104.964639 166.54331 
L 105.614598 165.769392 
L 106.589536 164.599382 
L 107.239495 163.85389 
L 107.889455 163.219712 
L 109.189373 161.268877 
L 110.81427 159.471402 
L 111.464229 158.742557 
L 112.114188 157.932499 
L 112.439168 157.619638 
L 112.764147 156.961084 
L 115.039004 154.657947 
L 116.338922 153.311271 
L 118.288799 151.176344 
L 120.238676 149.261397 
L 121.538595 147.823863 
L 122.838513 146.500306 
L 124.46341 145.124617 
L 124.78839 144.550199 
L 125.438349 144.048215 
L 126.088308 143.298709 
L 126.738267 142.874804 
L 127.388226 142.325055 
L 128.038185 141.987012 
L 128.688144 141.459945 
L 129.988062 140.353776 
L 132.912878 138.30876 
L 133.887817 137.480565 
L 135.187735 136.647364 
L 136.487653 135.586321 
L 138.11255 134.66731 
L 139.087489 133.961189 
L 140.712387 132.886976 
L 142.662264 131.584322 
L 143.637202 130.921139 
L 145.912059 129.195454 
L 148.186916 127.803609 
L 148.836875 127.316348 
L 150.136793 126.743028 
L 151.436711 125.891441 
L 152.08667 125.631139 
L 152.736629 125.104647 
L 153.386588 124.500074 
L 154.361527 123.879951 
L 155.011486 123.376601 
L 156.636383 122.223939 
L 158.91124 120.802533 
L 159.561199 120.444355 
L 159.886179 120.178307 
L 160.211158 120.082429 
L 160.861117 119.57969 
L 161.186097 119.459537 
L 161.836056 119.048429 
L 167.360708 115.702529 
L 168.335646 115.257459 
L 169.635564 114.60485 
L 170.610503 114.219315 
L 172.2354 113.344381 
L 174.510257 112.284653 
L 176.460134 111.402153 
L 177.110093 111.123727 
L 178.410011 110.597631 
L 181.334827 109.459937 
L 181.984786 109.078812 
L 183.284704 108.638349 
L 184.259643 108.19326 
L 185.559561 107.500003 
L 187.834418 106.24308 
L 190.759233 105.371245 
L 191.409192 105.137187 
L 193.03409 104.519275 
L 193.684049 104.214051 
L 197.908783 102.845063 
L 198.883722 102.280144 
L 204.408373 100.377622 
L 205.383312 100.069609 
L 206.358251 99.547739 
L 208.958087 98.488392 
L 209.608046 98.26745 
L 210.258005 98.014389 
L 214.157759 96.930598 
L 215.457677 96.451757 
L 217.407554 95.934595 
L 218.382493 95.676992 
L 219.032452 95.52485 
L 219.682411 95.20192 
L 220.33237 94.964068 
L 221.632288 94.517414 
L 225.857022 93.158579 
L 226.506981 92.862607 
L 227.48192 92.6158 
L 229.431797 91.808338 
L 230.731715 91.506689 
L 231.706654 91.174907 
L 238.856203 89.167094 
L 240.481101 88.948466 
L 241.13106 88.712311 
L 246.980691 86.748968 
L 247.95563 86.35108 
L 248.930568 86.096038 
L 252.180364 85.000629 
L 256.405097 83.95125 
L 257.380036 83.786126 
L 258.354975 83.480952 
L 259.329913 83.160899 
L 260.629831 82.621192 
L 265.829504 81.292588 
L 266.479463 80.986794 
L 270.704197 79.724785 
L 271.029176 79.525251 
L 271.679135 79.352614 
L 273.304033 78.907927 
L 275.903869 78.189305 
L 277.203787 77.767936 
L 277.853746 77.464265 
L 278.828685 77.112366 
L 280.453582 76.799248 
L 281.103541 76.505963 
L 282.728439 76.187547 
L 284.353337 75.617531 
L 286.628193 75.243266 
L 288.253091 74.838442 
L 288.90305 74.636133 
L 289.877989 74.366402 
L 292.477825 73.814889 
L 293.452763 73.492226 
L 297.027538 72.711456 
L 298.002477 72.377759 
L 298.652436 72.173465 
L 303.202149 71.128072 
L 304.177088 70.885701 
L 305.477006 70.690664 
L 307.101903 70.408931 
L 308.076842 70.153404 
L 309.37676 69.935929 
L 310.351699 69.659459 
L 312.301576 69.344936 
L 315.876351 68.636112 
L 316.851289 68.321671 
L 318.801166 67.88547 
L 324.000839 66.643372 
L 326.925654 66.169844 
L 331.475368 65.267673 
L 331.800347 65.241562 
L 332.775286 64.818357 
L 337.649979 63.603415 
L 339.274876 63.194652 
L 339.924835 63.008089 
L 351.624098 61.376035 
L 354.873894 60.990985 
L 358.448668 60.355841 
L 360.398545 60.136424 
L 362.348423 59.808181 
L 363.648341 59.580887 
L 364.623279 59.401743 
L 366.573156 59.121983 
L 369.172993 58.625946 
L 370.79789 58.368563 
L 373.072747 57.823949 
L 381.197235 56.499584 
L 381.847194 56.348841 
L 396.471273 53.856 
L 396.471273 53.856 
" clip-path="url(#p2730455a86)" style="fill: none; stroke: #9467bd; stroke-width: 2; stroke-linecap: square"/>
    <defs>
     <path id="m5003391f14" d="M -0 3 
L 3 -3 
L -3 -3 
z
" style="stroke: #9467bd; stroke-linejoin: miter"/>
    </defs>
    <g clip-path="url(#p2730455a86)">
     <use xlink:href="#m5003391f14" x="71.816727" y="295.776" style="fill: #9467bd; stroke: #9467bd; stroke-linejoin: miter"/>
     <use xlink:href="#m5003391f14" x="136.812632" y="135.424767" style="fill: #9467bd; stroke: #9467bd; stroke-linejoin: miter"/>
     <use xlink:href="#m5003391f14" x="201.808537" y="101.299865" style="fill: #9467bd; stroke: #9467bd; stroke-linejoin: miter"/>
     <use xlink:href="#m5003391f14" x="266.804442" y="80.89563" style="fill: #9467bd; stroke: #9467bd; stroke-linejoin: miter"/>
     <use xlink:href="#m5003391f14" x="331.800347" y="65.241562" style="fill: #9467bd; stroke: #9467bd; stroke-linejoin: miter"/>
    </g>
   </g>
   <g id="line2d_30">
    <path d="M 71.816727 295.776 
L 72.141707 269.399189 
L 72.791666 265.603588 
L 75.391502 244.754504 
L 76.366441 238.302504 
L 77.666359 231.648607 
L 79.941215 221.131462 
L 80.266195 220.164303 
L 81.566113 215.121946 
L 81.891093 214.350206 
L 82.541052 212.134841 
L 83.191011 209.912536 
L 85.140888 204.988425 
L 86.440806 201.506056 
L 87.090765 199.968002 
L 87.740724 198.520729 
L 90.015581 193.553763 
L 90.990519 191.844075 
L 91.640478 190.429457 
L 91.965458 189.818479 
L 92.290437 188.890213 
L 92.940396 187.871858 
L 94.565294 184.924232 
L 95.540233 183.413668 
L 97.815089 179.967761 
L 98.465048 178.833768 
L 99.115007 177.90357 
L 101.714844 174.050194 
L 103.9897 171.275997 
L 104.639659 170.742756 
L 106.589536 168.707408 
L 108.214434 166.93314 
L 108.864393 166.468106 
L 109.839332 165.315794 
L 110.489291 164.610607 
L 111.464229 163.450633 
L 113.089127 161.448884 
L 114.389045 159.832387 
L 115.039004 159.0792 
L 115.688963 158.589247 
L 116.988881 157.406089 
L 117.63884 156.736247 
L 118.288799 156.256989 
L 119.263738 155.274346 
L 122.188554 152.431546 
L 124.78839 150.099348 
L 126.088308 148.900363 
L 128.038185 147.502356 
L 128.688144 147.019864 
L 129.338103 146.452802 
L 130.638021 145.5198 
L 133.562837 143.352474 
L 134.212796 142.71792 
L 136.162673 141.143036 
L 136.487653 140.962204 
L 137.462591 140.144135 
L 139.087489 138.933359 
L 139.412468 138.792712 
L 139.737448 138.419619 
L 140.387407 137.917492 
L 140.712387 137.642911 
L 141.362346 137.320496 
L 143.312223 136.025871 
L 143.962182 135.671657 
L 144.93712 135.071047 
L 145.912059 134.3183 
L 146.886998 133.862169 
L 148.511895 132.746059 
L 148.836875 132.642071 
L 150.136793 131.790925 
L 150.786752 131.332648 
L 152.736629 130.114892 
L 153.711568 129.637311 
L 154.361527 129.222261 
L 155.011486 128.795326 
L 155.336465 128.475146 
L 155.986424 128.070838 
L 157.936301 126.795937 
L 162.161035 124.484251 
L 163.460953 123.647615 
L 164.110912 123.198541 
L 164.760871 122.831237 
L 165.73581 122.026447 
L 167.035728 121.266403 
L 167.360708 120.98764 
L 169.635564 119.98995 
L 173.860298 118.042988 
L 175.160216 117.553843 
L 177.110093 116.761059 
L 177.760052 116.386473 
L 179.059971 115.893714 
L 179.70993 115.460492 
L 183.284704 113.744578 
L 184.584622 113.302833 
L 184.909602 113.048393 
L 186.20952 112.609974 
L 187.184459 112.192309 
L 190.434254 110.443748 
L 192.384131 109.662305 
L 194.658988 108.394309 
L 200.508619 105.932042 
L 202.133517 105.35946 
L 203.433435 104.935302 
L 205.058333 104.197616 
L 207.333189 103.358097 
L 208.308128 102.953412 
L 214.807718 100.803712 
L 216.432616 100.09008 
L 217.082575 99.884658 
L 218.057514 99.506178 
L 219.032452 99.186006 
L 221.632288 98.540527 
L 223.907145 97.552957 
L 225.207063 97.340719 
L 226.506981 96.928813 
L 228.131879 96.552952 
L 233.006572 94.915223 
L 235.931387 94.166633 
L 237.231305 93.634859 
L 237.881265 93.460929 
L 239.506162 93.066131 
L 240.156121 92.891 
L 243.080937 91.995838 
L 245.355794 91.479889 
L 252.830323 89.509924 
L 253.805261 89.158144 
L 258.354975 87.884793 
L 259.004934 87.716447 
L 260.954811 87.342366 
L 261.60477 87.049731 
L 264.854565 86.38627 
L 265.504524 86.175955 
L 268.42934 85.462756 
L 269.729258 85.134878 
L 272.004115 84.619775 
L 272.329094 84.580049 
L 273.304033 84.198136 
L 275.25391 83.559247 
L 277.528767 83.0519 
L 278.828685 82.806791 
L 279.803623 82.494133 
L 280.453582 82.348404 
L 281.103541 82.222212 
L 283.378398 81.637382 
L 284.678316 81.332214 
L 285.328275 81.093018 
L 287.278152 80.739654 
L 288.253091 80.527139 
L 289.553009 80.290335 
L 296.702559 78.753932 
L 302.55219 77.026082 
L 303.202149 76.717799 
L 303.852108 76.547113 
L 304.502067 76.331813 
L 306.776924 75.737434 
L 308.076842 75.193876 
L 311.651617 74.551016 
L 314.901412 74.052184 
L 316.20133 73.90466 
L 317.501248 73.548479 
L 318.476187 73.371046 
L 321.076023 72.876887 
L 322.050962 72.546537 
L 324.325818 71.974659 
L 326.925654 71.379619 
L 328.225572 71.048489 
L 329.85047 70.756188 
L 331.150388 70.483623 
L 331.475368 70.438616 
L 332.125327 70.188308 
L 339.599856 68.558664 
L 340.249815 68.301616 
L 345.124508 67.457752 
L 345.774467 67.293646 
L 346.424426 67.239478 
L 346.749405 67.053492 
L 349.349242 66.654032 
L 351.299119 66.329712 
L 356.173812 65.857547 
L 357.47373 65.718437 
L 358.448668 65.502958 
L 366.898136 63.890757 
L 367.873075 63.535852 
L 370.147931 63.169254 
L 372.097808 62.619462 
L 373.397726 62.341593 
L 375.347604 61.917388 
L 376.972501 61.401122 
L 378.597399 61.031503 
L 379.247358 60.698772 
L 379.897317 60.583293 
L 380.547276 60.301372 
L 385.096989 59.212623 
L 386.721887 59.025681 
L 388.346785 58.784698 
L 390.296662 58.480304 
L 391.59658 58.285413 
L 392.246539 58.103126 
L 393.546457 57.917383 
L 395.171355 57.608194 
L 396.146293 57.383689 
L 396.471273 57.336975 
L 396.471273 57.336975 
" clip-path="url(#p2730455a86)" style="fill: none; stroke: #8c564b; stroke-width: 2; stroke-linecap: square"/>
    <defs>
     <path id="m141596f787" d="M -0 4.242641 
L 2.545584 0 
L 0 -4.242641 
L -2.545584 -0 
z
" style="stroke: #8c564b; stroke-linejoin: miter"/>
    </defs>
    <g clip-path="url(#p2730455a86)">
     <use xlink:href="#m141596f787" x="71.816727" y="295.776" style="fill: #8c564b; stroke: #8c564b; stroke-linejoin: miter"/>
     <use xlink:href="#m141596f787" x="136.812632" y="140.640659" style="fill: #8c564b; stroke: #8c564b; stroke-linejoin: miter"/>
     <use xlink:href="#m141596f787" x="201.808537" y="105.44256" style="fill: #8c564b; stroke: #8c564b; stroke-linejoin: miter"/>
     <use xlink:href="#m141596f787" x="266.804442" y="85.802116" style="fill: #8c564b; stroke: #8c564b; stroke-linejoin: miter"/>
     <use xlink:href="#m141596f787" x="331.800347" y="70.263086" style="fill: #8c564b; stroke: #8c564b; stroke-linejoin: miter"/>
    </g>
   </g>
   <g id="patch_3">
    <path d="M 55.584 307.872 
L 55.584 41.76 
" style="fill: none; stroke: #000000; stroke-width: 0.8; stroke-linejoin: miter; stroke-linecap: square"/>
   </g>
   <g id="patch_4">
    <path d="M 412.704 307.872 
L 412.704 41.76 
" style="fill: none; stroke: #000000; stroke-width: 0.8; stroke-linejoin: miter; stroke-linecap: square"/>
   </g>
   <g id="patch_5">
    <path d="M 55.584 307.872 
L 412.704 307.872 
" style="fill: none; stroke: #000000; stroke-width: 0.8; stroke-linejoin: miter; stroke-linecap: square"/>
   </g>
   <g id="patch_6">
    <path d="M 55.584 41.76 
L 412.704 41.76 
" style="fill: none; stroke: #000000; stroke-width: 0.8; stroke-linejoin: miter; stroke-linecap: square"/>
   </g>
   <g id="legend_1">
    <g id="patch_7">
     <path d="M 225.304 302.872 
L 405.704 302.872 
Q 407.704 302.872 407.704 300.872 
L 407.704 213.7595 
Q 407.704 211.7595 405.704 211.7595 
L 225.304 211.7595 
Q 223.304 211.7595 223.304 213.7595 
L 223.304 300.872 
Q 223.304 302.872 225.304 302.872 
z
" style="fill: #ffffff; opacity: 0.8; stroke: #cccccc; stroke-linejoin: miter"/>
    </g>
    <g id="line2d_31">
     <path d="M 227.304 219.857937 
L 237.304 219.857937 
L 247.304 219.857937 
" style="fill: none; stroke: #1f77b4; stroke-width: 2; stroke-linecap: square"/>
     <g>
      <use xlink:href="#m256b64dad1" x="237.304" y="219.857937" style="fill: #1f77b4; stroke: #1f77b4"/>
     </g>
    </g>
    <g id="text_13">
     <!-- $\kappa$ = 0.02 -->
     <g transform="translate(255.304 223.357937) scale(0.1 -0.1)">
      <defs>
       <path id="DejaVuSans-Oblique-3ba" d="M 938 3500 
L 1531 3500 
L 1247 2047 
L 3041 3500 
L 3741 3500 
L 2106 2181 
L 3275 0 
L 2572 0 
L 1628 1806 
L 1122 1403 
L 850 0 
L 256 0 
L 938 3500 
z
" transform="scale(0.015625)"/>
       <path id="DejaVuSans-20" transform="scale(0.015625)"/>
       <path id="DejaVuSans-3d" d="M 678 2906 
L 4684 2906 
L 4684 2381 
L 678 2381 
L 678 2906 
z
M 678 1631 
L 4684 1631 
L 4684 1100 
L 678 1100 
L 678 1631 
z
" transform="scale(0.015625)"/>
       <path id="DejaVuSans-2e" d="M 684 794 
L 1344 794 
L 1344 0 
L 684 0 
L 684 794 
z
" transform="scale(0.015625)"/>
      </defs>
      <use xlink:href="#DejaVuSans-Oblique-3ba" transform="translate(0 0.78125)"/>
      <use xlink:href="#DejaVuSans-20" transform="translate(58.935547 0.78125)"/>
      <use xlink:href="#DejaVuSans-3d" transform="translate(90.722656 0.78125)"/>
      <use xlink:href="#DejaVuSans-20" transform="translate(174.511719 0.78125)"/>
      <use xlink:href="#DejaVuSans-30" transform="translate(206.298828 0.78125)"/>
      <use xlink:href="#DejaVuSans-2e" transform="translate(269.921875 0.78125)"/>
      <use xlink:href="#DejaVuSans-30" transform="translate(301.708984 0.78125)"/>
      <use xlink:href="#DejaVuSans-32" transform="translate(365.332031 0.78125)"/>
     </g>
    </g>
    <g id="line2d_32">
     <path d="M 227.304 234.537625 
L 237.304 234.537625 
L 247.304 234.537625 
" style="fill: none; stroke: #ff7f0e; stroke-width: 2; stroke-linecap: square"/>
     <g>
      <use xlink:href="#mfa8b81f1f8" x="237.304" y="234.537625" style="fill: #ff7f0e; stroke: #ff7f0e; stroke-linejoin: miter"/>
     </g>
    </g>
    <g id="text_14">
     <!-- Constant-edge ($\alpha$ = 0.200) -->
     <g transform="translate(255.304 238.037625) scale(0.1 -0.1)">
      <defs>
       <path id="DejaVuSans-43" d="M 4122 4306 
L 4122 3641 
Q 3803 3938 3442 4084 
Q 3081 4231 2675 4231 
Q 1875 4231 1450 3742 
Q 1025 3253 1025 2328 
Q 1025 1406 1450 917 
Q 1875 428 2675 428 
Q 3081 428 3442 575 
Q 3803 722 4122 1019 
L 4122 359 
Q 3791 134 3420 21 
Q 3050 -91 2638 -91 
Q 1578 -91 968 557 
Q 359 1206 359 2328 
Q 359 3453 968 4101 
Q 1578 4750 2638 4750 
Q 3056 4750 3426 4639 
Q 3797 4528 4122 4306 
z
" transform="scale(0.015625)"/>
       <path id="DejaVuSans-6f" d="M 1959 3097 
Q 1497 3097 1228 2736 
Q 959 2375 959 1747 
Q 959 1119 1226 758 
Q 1494 397 1959 397 
Q 2419 397 2687 759 
Q 2956 1122 2956 1747 
Q 2956 2369 2687 2733 
Q 2419 3097 1959 3097 
z
M 1959 3584 
Q 2709 3584 3137 3096 
Q 3566 2609 3566 1747 
Q 3566 888 3137 398 
Q 2709 -91 1959 -91 
Q 1206 -91 779 398 
Q 353 888 353 1747 
Q 353 2609 779 3096 
Q 1206 3584 1959 3584 
z
" transform="scale(0.015625)"/>
       <path id="DejaVuSans-6e" d="M 3513 2113 
L 3513 0 
L 2938 0 
L 2938 2094 
Q 2938 2591 2744 2837 
Q 2550 3084 2163 3084 
Q 1697 3084 1428 2787 
Q 1159 2491 1159 1978 
L 1159 0 
L 581 0 
L 581 3500 
L 1159 3500 
L 1159 2956 
Q 1366 3272 1645 3428 
Q 1925 3584 2291 3584 
Q 2894 3584 3203 3211 
Q 3513 2838 3513 2113 
z
" transform="scale(0.015625)"/>
       <path id="DejaVuSans-73" d="M 2834 3397 
L 2834 2853 
Q 2591 2978 2328 3040 
Q 2066 3103 1784 3103 
Q 1356 3103 1142 2972 
Q 928 2841 928 2578 
Q 928 2378 1081 2264 
Q 1234 2150 1697 2047 
L 1894 2003 
Q 2506 1872 2764 1633 
Q 3022 1394 3022 966 
Q 3022 478 2636 193 
Q 2250 -91 1575 -91 
Q 1294 -91 989 -36 
Q 684 19 347 128 
L 347 722 
Q 666 556 975 473 
Q 1284 391 1588 391 
Q 1994 391 2212 530 
Q 2431 669 2431 922 
Q 2431 1156 2273 1281 
Q 2116 1406 1581 1522 
L 1381 1569 
Q 847 1681 609 1914 
Q 372 2147 372 2553 
Q 372 3047 722 3315 
Q 1072 3584 1716 3584 
Q 2034 3584 2315 3537 
Q 2597 3491 2834 3397 
z
" transform="scale(0.015625)"/>
       <path id="DejaVuSans-74" d="M 1172 4494 
L 1172 3500 
L 2356 3500 
L 2356 3053 
L 1172 3053 
L 1172 1153 
Q 1172 725 1289 603 
Q 1406 481 1766 481 
L 2356 481 
L 2356 0 
L 1766 0 
Q 1100 0 847 248 
Q 594 497 594 1153 
L 594 3053 
L 172 3053 
L 172 3500 
L 594 3500 
L 594 4494 
L 1172 4494 
z
" transform="scale(0.015625)"/>
       <path id="DejaVuSans-61" d="M 2194 1759 
Q 1497 1759 1228 1600 
Q 959 1441 959 1056 
Q 959 750 1161 570 
Q 1363 391 1709 391 
Q 2188 391 2477 730 
Q 2766 1069 2766 1631 
L 2766 1759 
L 2194 1759 
z
M 3341 1997 
L 3341 0 
L 2766 0 
L 2766 531 
Q 2569 213 2275 61 
Q 1981 -91 1556 -91 
Q 1019 -91 701 211 
Q 384 513 384 1019 
Q 384 1609 779 1909 
Q 1175 2209 1959 2209 
L 2766 2209 
L 2766 2266 
Q 2766 2663 2505 2880 
Q 2244 3097 1772 3097 
Q 1472 3097 1187 3025 
Q 903 2953 641 2809 
L 641 3341 
Q 956 3463 1253 3523 
Q 1550 3584 1831 3584 
Q 2591 3584 2966 3190 
Q 3341 2797 3341 1997 
z
" transform="scale(0.015625)"/>
       <path id="DejaVuSans-2d" d="M 313 2009 
L 1997 2009 
L 1997 1497 
L 313 1497 
L 313 2009 
z
" transform="scale(0.015625)"/>
       <path id="DejaVuSans-65" d="M 3597 1894 
L 3597 1613 
L 953 1613 
Q 991 1019 1311 708 
Q 1631 397 2203 397 
Q 2534 397 2845 478 
Q 3156 559 3463 722 
L 3463 178 
Q 3153 47 2828 -22 
Q 2503 -91 2169 -91 
Q 1331 -91 842 396 
Q 353 884 353 1716 
Q 353 2575 817 3079 
Q 1281 3584 2069 3584 
Q 2775 3584 3186 3129 
Q 3597 2675 3597 1894 
z
M 3022 2063 
Q 3016 2534 2758 2815 
Q 2500 3097 2075 3097 
Q 1594 3097 1305 2825 
Q 1016 2553 972 2059 
L 3022 2063 
z
" transform="scale(0.015625)"/>
       <path id="DejaVuSans-64" d="M 2906 2969 
L 2906 4863 
L 3481 4863 
L 3481 0 
L 2906 0 
L 2906 525 
Q 2725 213 2448 61 
Q 2172 -91 1784 -91 
Q 1150 -91 751 415 
Q 353 922 353 1747 
Q 353 2572 751 3078 
Q 1150 3584 1784 3584 
Q 2172 3584 2448 3432 
Q 2725 3281 2906 2969 
z
M 947 1747 
Q 947 1113 1208 752 
Q 1469 391 1925 391 
Q 2381 391 2643 752 
Q 2906 1113 2906 1747 
Q 2906 2381 2643 2742 
Q 2381 3103 1925 3103 
Q 1469 3103 1208 2742 
Q 947 2381 947 1747 
z
" transform="scale(0.015625)"/>
       <path id="DejaVuSans-67" d="M 2906 1791 
Q 2906 2416 2648 2759 
Q 2391 3103 1925 3103 
Q 1463 3103 1205 2759 
Q 947 2416 947 1791 
Q 947 1169 1205 825 
Q 1463 481 1925 481 
Q 2391 481 2648 825 
Q 2906 1169 2906 1791 
z
M 3481 434 
Q 3481 -459 3084 -895 
Q 2688 -1331 1869 -1331 
Q 1566 -1331 1297 -1286 
Q 1028 -1241 775 -1147 
L 775 -588 
Q 1028 -725 1275 -790 
Q 1522 -856 1778 -856 
Q 2344 -856 2625 -561 
Q 2906 -266 2906 331 
L 2906 616 
Q 2728 306 2450 153 
Q 2172 0 1784 0 
Q 1141 0 747 490 
Q 353 981 353 1791 
Q 353 2603 747 3093 
Q 1141 3584 1784 3584 
Q 2172 3584 2450 3431 
Q 2728 3278 2906 2969 
L 2906 3500 
L 3481 3500 
L 3481 434 
z
" transform="scale(0.015625)"/>
       <path id="DejaVuSans-28" d="M 1984 4856 
Q 1566 4138 1362 3434 
Q 1159 2731 1159 2009 
Q 1159 1288 1364 580 
Q 1569 -128 1984 -844 
L 1484 -844 
Q 1016 -109 783 600 
Q 550 1309 550 2009 
Q 550 2706 781 3412 
Q 1013 4119 1484 4856 
L 1984 4856 
z
" transform="scale(0.015625)"/>
       <path id="DejaVuSans-Oblique-3b1" d="M 2619 1628 
L 2622 2350 
Q 2625 3088 2069 3091 
Q 1653 3094 1394 2747 
Q 1069 2319 959 1747 
Q 825 1059 994 731 
Q 1169 397 1547 397 
Q 1966 397 2319 1063 
L 2619 1628 
z
M 2166 3578 
Q 3141 3594 3128 2584 
Q 3128 2584 3616 3500 
L 4128 3500 
L 3119 1603 
L 3109 919 
Q 3109 766 3194 638 
Q 3291 488 3391 488 
L 3669 488 
L 3575 0 
L 3228 0 
Q 2934 0 2722 263 
Q 2622 394 2619 669 
Q 2416 334 2066 50 
Q 1900 -81 1453 -78 
Q 722 -72 456 397 
Q 184 884 353 1747 
Q 534 2675 1009 3097 
Q 1544 3569 2166 3578 
z
" transform="scale(0.015625)"/>
       <path id="DejaVuSans-29" d="M 513 4856 
L 1013 4856 
Q 1481 4119 1714 3412 
Q 1947 2706 1947 2009 
Q 1947 1309 1714 600 
Q 1481 -109 1013 -844 
L 513 -844 
Q 928 -128 1133 580 
Q 1338 1288 1338 2009 
Q 1338 2731 1133 3434 
Q 928 4138 513 4856 
z
" transform="scale(0.015625)"/>
      </defs>
      <use xlink:href="#DejaVuSans-43" transform="translate(0 0.015625)"/>
      <use xlink:href="#DejaVuSans-6f" transform="translate(69.824219 0.015625)"/>
      <use xlink:href="#DejaVuSans-6e" transform="translate(131.005859 0.015625)"/>
      <use xlink:href="#DejaVuSans-73" transform="translate(194.384766 0.015625)"/>
      <use xlink:href="#DejaVuSans-74" transform="translate(246.484375 0.015625)"/>
      <use xlink:href="#DejaVuSans-61" transform="translate(285.693359 0.015625)"/>
      <use xlink:href="#DejaVuSans-6e" transform="translate(346.972656 0.015625)"/>
      <use xlink:href="#DejaVuSans-74" transform="translate(410.351562 0.015625)"/>
      <use xlink:href="#DejaVuSans-2d" transform="translate(449.560547 0.015625)"/>
      <use xlink:href="#DejaVuSans-65" transform="translate(485.644531 0.015625)"/>
      <use xlink:href="#DejaVuSans-64" transform="translate(547.167969 0.015625)"/>
      <use xlink:href="#DejaVuSans-67" transform="translate(610.644531 0.015625)"/>
      <use xlink:href="#DejaVuSans-65" transform="translate(674.121094 0.015625)"/>
      <use xlink:href="#DejaVuSans-20" transform="translate(735.644531 0.015625)"/>
      <use xlink:href="#DejaVuSans-28" transform="translate(767.431641 0.015625)"/>
      <use xlink:href="#DejaVuSans-Oblique-3b1" transform="translate(806.445312 0.015625)"/>
      <use xlink:href="#DejaVuSans-20" transform="translate(872.363281 0.015625)"/>
      <use xlink:href="#DejaVuSans-3d" transform="translate(904.150391 0.015625)"/>
      <use xlink:href="#DejaVuSans-20" transform="translate(987.939453 0.015625)"/>
      <use xlink:href="#DejaVuSans-30" transform="translate(1019.726562 0.015625)"/>
      <use xlink:href="#DejaVuSans-2e" transform="translate(1083.349609 0.015625)"/>
      <use xlink:href="#DejaVuSans-32" transform="translate(1109.636719 0.015625)"/>
      <use xlink:href="#DejaVuSans-30" transform="translate(1173.259766 0.015625)"/>
      <use xlink:href="#DejaVuSans-30" transform="translate(1236.882812 0.015625)"/>
      <use xlink:href="#DejaVuSans-29" transform="translate(1300.505859 0.015625)"/>
     </g>
    </g>
    <g id="line2d_33">
     <path d="M 227.304 249.237625 
L 237.304 249.237625 
L 247.304 249.237625 
" style="fill: none; stroke: #2ca02c; stroke-width: 2; stroke-linecap: square"/>
     <g>
      <use xlink:href="#me11a8c0759" x="237.304" y="249.237625" style="fill: #2ca02c; stroke: #2ca02c; stroke-linejoin: miter"/>
     </g>
    </g>
    <g id="text_15">
     <!-- Maximum-degree ($\alpha$ = 0.250) -->
     <g transform="translate(255.304 252.737625) scale(0.1 -0.1)">
      <defs>
       <path id="DejaVuSans-4d" d="M 628 4666 
L 1569 4666 
L 2759 1491 
L 3956 4666 
L 4897 4666 
L 4897 0 
L 4281 0 
L 4281 4097 
L 3078 897 
L 2444 897 
L 1241 4097 
L 1241 0 
L 628 0 
L 628 4666 
z
" transform="scale(0.015625)"/>
       <path id="DejaVuSans-78" d="M 3513 3500 
L 2247 1797 
L 3578 0 
L 2900 0 
L 1881 1375 
L 863 0 
L 184 0 
L 1544 1831 
L 300 3500 
L 978 3500 
L 1906 2253 
L 2834 3500 
L 3513 3500 
z
" transform="scale(0.015625)"/>
       <path id="DejaVuSans-69" d="M 603 3500 
L 1178 3500 
L 1178 0 
L 603 0 
L 603 3500 
z
M 603 4863 
L 1178 4863 
L 1178 4134 
L 603 4134 
L 603 4863 
z
" transform="scale(0.015625)"/>
       <path id="DejaVuSans-6d" d="M 3328 2828 
Q 3544 3216 3844 3400 
Q 4144 3584 4550 3584 
Q 5097 3584 5394 3201 
Q 5691 2819 5691 2113 
L 5691 0 
L 5113 0 
L 5113 2094 
Q 5113 2597 4934 2840 
Q 4756 3084 4391 3084 
Q 3944 3084 3684 2787 
Q 3425 2491 3425 1978 
L 3425 0 
L 2847 0 
L 2847 2094 
Q 2847 2600 2669 2842 
Q 2491 3084 2119 3084 
Q 1678 3084 1418 2786 
Q 1159 2488 1159 1978 
L 1159 0 
L 581 0 
L 581 3500 
L 1159 3500 
L 1159 2956 
Q 1356 3278 1631 3431 
Q 1906 3584 2284 3584 
Q 2666 3584 2933 3390 
Q 3200 3197 3328 2828 
z
" transform="scale(0.015625)"/>
       <path id="DejaVuSans-75" d="M 544 1381 
L 544 3500 
L 1119 3500 
L 1119 1403 
Q 1119 906 1312 657 
Q 1506 409 1894 409 
Q 2359 409 2629 706 
Q 2900 1003 2900 1516 
L 2900 3500 
L 3475 3500 
L 3475 0 
L 2900 0 
L 2900 538 
Q 2691 219 2414 64 
Q 2138 -91 1772 -91 
Q 1169 -91 856 284 
Q 544 659 544 1381 
z
M 1991 3584 
L 1991 3584 
z
" transform="scale(0.015625)"/>
       <path id="DejaVuSans-72" d="M 2631 2963 
Q 2534 3019 2420 3045 
Q 2306 3072 2169 3072 
Q 1681 3072 1420 2755 
Q 1159 2438 1159 1844 
L 1159 0 
L 581 0 
L 581 3500 
L 1159 3500 
L 1159 2956 
Q 1341 3275 1631 3429 
Q 1922 3584 2338 3584 
Q 2397 3584 2469 3576 
Q 2541 3569 2628 3553 
L 2631 2963 
z
" transform="scale(0.015625)"/>
      </defs>
      <use xlink:href="#DejaVuSans-4d" transform="translate(0 0.015625)"/>
      <use xlink:href="#DejaVuSans-61" transform="translate(86.279297 0.015625)"/>
      <use xlink:href="#DejaVuSans-78" transform="translate(147.558594 0.015625)"/>
      <use xlink:href="#DejaVuSans-69" transform="translate(206.738281 0.015625)"/>
      <use xlink:href="#DejaVuSans-6d" transform="translate(234.521484 0.015625)"/>
      <use xlink:href="#DejaVuSans-75" transform="translate(331.933594 0.015625)"/>
      <use xlink:href="#DejaVuSans-6d" transform="translate(395.3125 0.015625)"/>
      <use xlink:href="#DejaVuSans-2d" transform="translate(490.974609 0.015625)"/>
      <use xlink:href="#DejaVuSans-64" transform="translate(527.058594 0.015625)"/>
      <use xlink:href="#DejaVuSans-65" transform="translate(590.535156 0.015625)"/>
      <use xlink:href="#DejaVuSans-67" transform="translate(652.058594 0.015625)"/>
      <use xlink:href="#DejaVuSans-72" transform="translate(715.535156 0.015625)"/>
      <use xlink:href="#DejaVuSans-65" transform="translate(756.648438 0.015625)"/>
      <use xlink:href="#DejaVuSans-65" transform="translate(818.171875 0.015625)"/>
      <use xlink:href="#DejaVuSans-20" transform="translate(879.695312 0.015625)"/>
      <use xlink:href="#DejaVuSans-28" transform="translate(911.482422 0.015625)"/>
      <use xlink:href="#DejaVuSans-Oblique-3b1" transform="translate(950.496094 0.015625)"/>
      <use xlink:href="#DejaVuSans-20" transform="translate(1016.414062 0.015625)"/>
      <use xlink:href="#DejaVuSans-3d" transform="translate(1048.201172 0.015625)"/>
      <use xlink:href="#DejaVuSans-20" transform="translate(1131.990234 0.015625)"/>
      <use xlink:href="#DejaVuSans-30" transform="translate(1163.777344 0.015625)"/>
      <use xlink:href="#DejaVuSans-2e" transform="translate(1227.400391 0.015625)"/>
      <use xlink:href="#DejaVuSans-32" transform="translate(1253.6875 0.015625)"/>
      <use xlink:href="#DejaVuSans-35" transform="translate(1317.310547 0.015625)"/>
      <use xlink:href="#DejaVuSans-30" transform="translate(1380.933594 0.015625)"/>
      <use xlink:href="#DejaVuSans-29" transform="translate(1444.556641 0.015625)"/>
     </g>
    </g>
    <g id="line2d_34">
     <path d="M 227.304 263.936062 
L 237.304 263.936062 
L 247.304 263.936062 
" style="fill: none; stroke: #d62728; stroke-width: 2; stroke-linecap: square"/>
     <g>
      <use xlink:href="#m89c2e9ec98" x="237.304" y="263.936062" style="fill: #d62728; stroke: #d62728"/>
     </g>
    </g>
    <g id="text_16">
     <!-- Local-degree -->
     <g transform="translate(255.304 267.436062) scale(0.1 -0.1)">
      <defs>
       <path id="DejaVuSans-4c" d="M 628 4666 
L 1259 4666 
L 1259 531 
L 3531 531 
L 3531 0 
L 628 0 
L 628 4666 
z
" transform="scale(0.015625)"/>
       <path id="DejaVuSans-63" d="M 3122 3366 
L 3122 2828 
Q 2878 2963 2633 3030 
Q 2388 3097 2138 3097 
Q 1578 3097 1268 2742 
Q 959 2388 959 1747 
Q 959 1106 1268 751 
Q 1578 397 2138 397 
Q 2388 397 2633 464 
Q 2878 531 3122 666 
L 3122 134 
Q 2881 22 2623 -34 
Q 2366 -91 2075 -91 
Q 1284 -91 818 406 
Q 353 903 353 1747 
Q 353 2603 823 3093 
Q 1294 3584 2113 3584 
Q 2378 3584 2631 3529 
Q 2884 3475 3122 3366 
z
" transform="scale(0.015625)"/>
       <path id="DejaVuSans-6c" d="M 603 4863 
L 1178 4863 
L 1178 0 
L 603 0 
L 603 4863 
z
" transform="scale(0.015625)"/>
      </defs>
      <use xlink:href="#DejaVuSans-4c"/>
      <use xlink:href="#DejaVuSans-6f" x="53.962891"/>
      <use xlink:href="#DejaVuSans-63" x="115.144531"/>
      <use xlink:href="#DejaVuSans-61" x="170.125"/>
      <use xlink:href="#DejaVuSans-6c" x="231.404297"/>
      <use xlink:href="#DejaVuSans-2d" x="259.1875"/>
      <use xlink:href="#DejaVuSans-64" x="295.271484"/>
      <use xlink:href="#DejaVuSans-65" x="358.748047"/>
      <use xlink:href="#DejaVuSans-67" x="420.271484"/>
      <use xlink:href="#DejaVuSans-72" x="483.748047"/>
      <use xlink:href="#DejaVuSans-65" x="522.611328"/>
      <use xlink:href="#DejaVuSans-65" x="584.134766"/>
     </g>
    </g>
    <g id="line2d_35">
     <path d="M 227.304 278.614187 
L 237.304 278.614187 
L 247.304 278.614187 
" style="fill: none; stroke: #9467bd; stroke-width: 2; stroke-linecap: square"/>
     <g>
      <use xlink:href="#m5003391f14" x="237.304" y="278.614187" style="fill: #9467bd; stroke: #9467bd; stroke-linejoin: miter"/>
     </g>
    </g>
    <g id="text_17">
     <!-- FMMC -->
     <g transform="translate(255.304 282.114187) scale(0.1 -0.1)">
      <defs>
       <path id="DejaVuSans-46" d="M 628 4666 
L 3309 4666 
L 3309 4134 
L 1259 4134 
L 1259 2759 
L 3109 2759 
L 3109 2228 
L 1259 2228 
L 1259 0 
L 628 0 
L 628 4666 
z
" transform="scale(0.015625)"/>
      </defs>
      <use xlink:href="#DejaVuSans-46"/>
      <use xlink:href="#DejaVuSans-4d" x="57.519531"/>
      <use xlink:href="#DejaVuSans-4d" x="143.798828"/>
      <use xlink:href="#DejaVuSans-43" x="230.078125"/>
     </g>
    </g>
    <g id="line2d_36">
     <path d="M 227.304 293.292312 
L 237.304 293.292312 
L 247.304 293.292312 
" style="fill: none; stroke: #8c564b; stroke-width: 2; stroke-linecap: square"/>
     <g>
      <use xlink:href="#m141596f787" x="237.304" y="293.292312" style="fill: #8c564b; stroke: #8c564b; stroke-linejoin: miter"/>
     </g>
    </g>
    <g id="text_18">
     <!-- FDLA -->
     <g transform="translate(255.304 296.792312) scale(0.1 -0.1)">
      <defs>
       <path id="DejaVuSans-44" d="M 1259 4147 
L 1259 519 
L 2022 519 
Q 2988 519 3436 956 
Q 3884 1394 3884 2338 
Q 3884 3275 3436 3711 
Q 2988 4147 2022 4147 
L 1259 4147 
z
M 628 4666 
L 1925 4666 
Q 3281 4666 3915 4102 
Q 4550 3538 4550 2338 
Q 4550 1131 3912 565 
Q 3275 0 1925 0 
L 628 0 
L 628 4666 
z
" transform="scale(0.015625)"/>
       <path id="DejaVuSans-41" d="M 2188 4044 
L 1331 1722 
L 3047 1722 
L 2188 4044 
z
M 1831 4666 
L 2547 4666 
L 4325 0 
L 3669 0 
L 3244 1197 
L 1141 1197 
L 716 0 
L 50 0 
L 1831 4666 
z
" transform="scale(0.015625)"/>
      </defs>
      <use xlink:href="#DejaVuSans-46"/>
      <use xlink:href="#DejaVuSans-44" x="57.519531"/>
      <use xlink:href="#DejaVuSans-4c" x="134.521484"/>
      <use xlink:href="#DejaVuSans-41" x="192.484375"/>
     </g>
    </g>
   </g>
  </g>
  <g id="text_19">
   <!-- All-To-All network -->
   <g transform="translate(177.159938 16.318125) scale(0.12 -0.12)">
    <defs>
     <path id="DejaVuSans-54" d="M -19 4666 
L 3928 4666 
L 3928 4134 
L 2272 4134 
L 2272 0 
L 1638 0 
L 1638 4134 
L -19 4134 
L -19 4666 
z
" transform="scale(0.015625)"/>
     <path id="DejaVuSans-77" d="M 269 3500 
L 844 3500 
L 1563 769 
L 2278 3500 
L 2956 3500 
L 3675 769 
L 4391 3500 
L 4966 3500 
L 4050 0 
L 3372 0 
L 2619 2869 
L 1863 0 
L 1184 0 
L 269 3500 
z
" transform="scale(0.015625)"/>
     <path id="DejaVuSans-6b" d="M 581 4863 
L 1159 4863 
L 1159 1991 
L 2875 3500 
L 3609 3500 
L 1753 1863 
L 3688 0 
L 2938 0 
L 1159 1709 
L 1159 0 
L 581 0 
L 581 4863 
z
" transform="scale(0.015625)"/>
    </defs>
    <use xlink:href="#DejaVuSans-41"/>
    <use xlink:href="#DejaVuSans-6c" x="68.408203"/>
    <use xlink:href="#DejaVuSans-6c" x="96.191406"/>
    <use xlink:href="#DejaVuSans-2d" x="123.974609"/>
    <use xlink:href="#DejaVuSans-54" x="150.933594"/>
    <use xlink:href="#DejaVuSans-6f" x="195.017578"/>
    <use xlink:href="#DejaVuSans-2d" x="258.074219"/>
    <use xlink:href="#DejaVuSans-41" x="291.908203"/>
    <use xlink:href="#DejaVuSans-6c" x="360.316406"/>
    <use xlink:href="#DejaVuSans-6c" x="388.099609"/>
    <use xlink:href="#DejaVuSans-20" x="415.882812"/>
    <use xlink:href="#DejaVuSans-6e" x="447.669922"/>
    <use xlink:href="#DejaVuSans-65" x="511.048828"/>
    <use xlink:href="#DejaVuSans-74" x="572.572266"/>
    <use xlink:href="#DejaVuSans-77" x="611.78125"/>
    <use xlink:href="#DejaVuSans-6f" x="693.568359"/>
    <use xlink:href="#DejaVuSans-72" x="754.75"/>
    <use xlink:href="#DejaVuSans-6b" x="795.863281"/>
   </g>
  </g>
  <g id="text_20">
   <!-- Timesteps -->
   <g transform="translate(197.599313 339.936375) scale(0.12 -0.12)">
    <defs>
     <path id="DejaVuSans-70" d="M 1159 525 
L 1159 -1331 
L 581 -1331 
L 581 3500 
L 1159 3500 
L 1159 2969 
Q 1341 3281 1617 3432 
Q 1894 3584 2278 3584 
Q 2916 3584 3314 3078 
Q 3713 2572 3713 1747 
Q 3713 922 3314 415 
Q 2916 -91 2278 -91 
Q 1894 -91 1617 61 
Q 1341 213 1159 525 
z
M 3116 1747 
Q 3116 2381 2855 2742 
Q 2594 3103 2138 3103 
Q 1681 3103 1420 2742 
Q 1159 2381 1159 1747 
Q 1159 1113 1420 752 
Q 1681 391 2138 391 
Q 2594 391 2855 752 
Q 3116 1113 3116 1747 
z
" transform="scale(0.015625)"/>
    </defs>
    <use xlink:href="#DejaVuSans-54"/>
    <use xlink:href="#DejaVuSans-69" x="57.958984"/>
    <use xlink:href="#DejaVuSans-6d" x="85.742188"/>
    <use xlink:href="#DejaVuSans-65" x="183.154297"/>
    <use xlink:href="#DejaVuSans-73" x="244.677734"/>
    <use xlink:href="#DejaVuSans-74" x="296.777344"/>
    <use xlink:href="#DejaVuSans-65" x="335.986328"/>
    <use xlink:href="#DejaVuSans-70" x="397.509766"/>
    <use xlink:href="#DejaVuSans-73" x="460.986328"/>
   </g>
  </g>
  <g id="text_21">
   <!-- Exploration portion of Q for the best arm -->
   <g transform="translate(16.318125 295.466437) rotate(-90) scale(0.12 -0.12)">
    <defs>
     <path id="DejaVuSans-45" d="M 628 4666 
L 3578 4666 
L 3578 4134 
L 1259 4134 
L 1259 2753 
L 3481 2753 
L 3481 2222 
L 1259 2222 
L 1259 531 
L 3634 531 
L 3634 0 
L 628 0 
L 628 4666 
z
" transform="scale(0.015625)"/>
     <path id="DejaVuSans-66" d="M 2375 4863 
L 2375 4384 
L 1825 4384 
Q 1516 4384 1395 4259 
Q 1275 4134 1275 3809 
L 1275 3500 
L 2222 3500 
L 2222 3053 
L 1275 3053 
L 1275 0 
L 697 0 
L 697 3053 
L 147 3053 
L 147 3500 
L 697 3500 
L 697 3744 
Q 697 4328 969 4595 
Q 1241 4863 1831 4863 
L 2375 4863 
z
" transform="scale(0.015625)"/>
     <path id="DejaVuSans-51" d="M 2522 4238 
Q 1834 4238 1429 3725 
Q 1025 3213 1025 2328 
Q 1025 1447 1429 934 
Q 1834 422 2522 422 
Q 3209 422 3611 934 
Q 4013 1447 4013 2328 
Q 4013 3213 3611 3725 
Q 3209 4238 2522 4238 
z
M 3406 84 
L 4238 -825 
L 3475 -825 
L 2784 -78 
Q 2681 -84 2626 -87 
Q 2572 -91 2522 -91 
Q 1538 -91 948 567 
Q 359 1225 359 2328 
Q 359 3434 948 4092 
Q 1538 4750 2522 4750 
Q 3503 4750 4090 4092 
Q 4678 3434 4678 2328 
Q 4678 1516 4351 937 
Q 4025 359 3406 84 
z
" transform="scale(0.015625)"/>
     <path id="DejaVuSans-68" d="M 3513 2113 
L 3513 0 
L 2938 0 
L 2938 2094 
Q 2938 2591 2744 2837 
Q 2550 3084 2163 3084 
Q 1697 3084 1428 2787 
Q 1159 2491 1159 1978 
L 1159 0 
L 581 0 
L 581 4863 
L 1159 4863 
L 1159 2956 
Q 1366 3272 1645 3428 
Q 1925 3584 2291 3584 
Q 2894 3584 3203 3211 
Q 3513 2838 3513 2113 
z
" transform="scale(0.015625)"/>
     <path id="DejaVuSans-62" d="M 3116 1747 
Q 3116 2381 2855 2742 
Q 2594 3103 2138 3103 
Q 1681 3103 1420 2742 
Q 1159 2381 1159 1747 
Q 1159 1113 1420 752 
Q 1681 391 2138 391 
Q 2594 391 2855 752 
Q 3116 1113 3116 1747 
z
M 1159 2969 
Q 1341 3281 1617 3432 
Q 1894 3584 2278 3584 
Q 2916 3584 3314 3078 
Q 3713 2572 3713 1747 
Q 3713 922 3314 415 
Q 2916 -91 2278 -91 
Q 1894 -91 1617 61 
Q 1341 213 1159 525 
L 1159 0 
L 581 0 
L 581 4863 
L 1159 4863 
L 1159 2969 
z
" transform="scale(0.015625)"/>
    </defs>
    <use xlink:href="#DejaVuSans-45"/>
    <use xlink:href="#DejaVuSans-78" x="63.183594"/>
    <use xlink:href="#DejaVuSans-70" x="122.363281"/>
    <use xlink:href="#DejaVuSans-6c" x="185.839844"/>
    <use xlink:href="#DejaVuSans-6f" x="213.623047"/>
    <use xlink:href="#DejaVuSans-72" x="274.804688"/>
    <use xlink:href="#DejaVuSans-61" x="315.917969"/>
    <use xlink:href="#DejaVuSans-74" x="377.197266"/>
    <use xlink:href="#DejaVuSans-69" x="416.40625"/>
    <use xlink:href="#DejaVuSans-6f" x="444.189453"/>
    <use xlink:href="#DejaVuSans-6e" x="505.371094"/>
    <use xlink:href="#DejaVuSans-20" x="568.75"/>
    <use xlink:href="#DejaVuSans-70" x="600.537109"/>
    <use xlink:href="#DejaVuSans-6f" x="664.013672"/>
    <use xlink:href="#DejaVuSans-72" x="725.195312"/>
    <use xlink:href="#DejaVuSans-74" x="766.308594"/>
    <use xlink:href="#DejaVuSans-69" x="805.517578"/>
    <use xlink:href="#DejaVuSans-6f" x="833.300781"/>
    <use xlink:href="#DejaVuSans-6e" x="894.482422"/>
    <use xlink:href="#DejaVuSans-20" x="957.861328"/>
    <use xlink:href="#DejaVuSans-6f" x="989.648438"/>
    <use xlink:href="#DejaVuSans-66" x="1050.830078"/>
    <use xlink:href="#DejaVuSans-20" x="1086.035156"/>
    <use xlink:href="#DejaVuSans-51" x="1117.822266"/>
    <use xlink:href="#DejaVuSans-20" x="1196.533203"/>
    <use xlink:href="#DejaVuSans-66" x="1228.320312"/>
    <use xlink:href="#DejaVuSans-6f" x="1263.525391"/>
    <use xlink:href="#DejaVuSans-72" x="1324.707031"/>
    <use xlink:href="#DejaVuSans-20" x="1365.820312"/>
    <use xlink:href="#DejaVuSans-74" x="1397.607422"/>
    <use xlink:href="#DejaVuSans-68" x="1436.816406"/>
    <use xlink:href="#DejaVuSans-65" x="1500.195312"/>
    <use xlink:href="#DejaVuSans-20" x="1561.71875"/>
    <use xlink:href="#DejaVuSans-62" x="1593.505859"/>
    <use xlink:href="#DejaVuSans-65" x="1656.982422"/>
    <use xlink:href="#DejaVuSans-73" x="1718.505859"/>
    <use xlink:href="#DejaVuSans-74" x="1770.605469"/>
    <use xlink:href="#DejaVuSans-20" x="1809.814453"/>
    <use xlink:href="#DejaVuSans-61" x="1841.601562"/>
    <use xlink:href="#DejaVuSans-72" x="1902.880859"/>
    <use xlink:href="#DejaVuSans-6d" x="1942.244141"/>
   </g>
  </g>
 </g>
 <defs>
  <clipPath id="p2730455a86">
   <rect x="55.584" y="41.76" width="357.12" height="266.112"/>
  </clipPath>
 </defs>
</svg>
