<?xml version="1.0" encoding="utf-8" standalone="no"?>
<!DOCTYPE svg PUBLIC "-//W3C//DTD SVG 1.1//EN"
  "http://www.w3.org/Graphics/SVG/1.1/DTD/svg11.dtd">
<svg xmlns:xlink="http://www.w3.org/1999/xlink" width="619.12pt" height="349.632pt" viewBox="0 0 619.12 349.632" xmlns="http://www.w3.org/2000/svg" version="1.1">
 <metadata>
  <rdf:RDF xmlns:dc="http://purl.org/dc/elements/1.1/" xmlns:cc="http://creativecommons.org/ns#" xmlns:rdf="http://www.w3.org/1999/02/22-rdf-syntax-ns#">
   <cc:Work>
    <dc:type rdf:resource="http://purl.org/dc/dcmitype/StillImage"/>
    <dc:date>2023-08-28T19:14:49.170670</dc:date>
    <dc:format>image/svg+xml</dc:format>
    <dc:creator>
     <cc:Agent>
      <dc:title>Matplotlib v3.7.2, https://matplotlib.org/</dc:title>
     </cc:Agent>
    </dc:creator>
   </cc:Work>
  </rdf:RDF>
 </metadata>
 <defs>
  <style type="text/css">*{stroke-linejoin: round; stroke-linecap: butt}</style>
 </defs>
 <g id="figure_1">
  <g id="patch_1">
   <path d="M 0 349.632 
L 619.12 349.632 
L 619.12 -0 
L 0 -0 
z
" style="fill: #ffffff"/>
  </g>
  <g id="axes_1">
   <g id="patch_2">
    <path d="M 55.584 307.872 
L 412.704 307.872 
L 412.704 41.76 
L 55.584 41.76 
z
" style="fill: #ffffff"/>
   </g>
   <g id="PolyCollection_1">
    <path d="M 115.688963 273.425745 
L 115.688963 276.34056 
L 118.288799 276.34056 
L 118.288799 273.425745 
L 118.288799 273.425745 
L 115.688963 273.425745 
z
" clip-path="url(#p6961b9473b)" style="fill-opacity: 0.2"/>
   </g>
   <g id="matplotlib.axis_1">
    <g id="xtick_1">
     <g id="line2d_1">
      <path d="M 71.816727 307.872 
L 71.816727 41.76 
" clip-path="url(#p6961b9473b)" style="fill: none; stroke: #b0b0b0; stroke-width: 0.8; stroke-linecap: square"/>
     </g>
     <g id="line2d_2">
      <defs>
       <path id="mc3dc4bc506" d="M 0 0 
L 0 3.5 
" style="stroke: #000000; stroke-width: 0.8"/>
      </defs>
      <g>
       <use xlink:href="#mc3dc4bc506" x="71.816727" y="307.872" style="stroke: #000000; stroke-width: 0.8"/>
      </g>
     </g>
     <g id="text_1">
      <!-- 0 -->
      <g transform="translate(67.362977 325.509812) scale(0.14 -0.14)">
       <defs>
        <path id="DejaVuSans-30" d="M 2034 4250 
Q 1547 4250 1301 3770 
Q 1056 3291 1056 2328 
Q 1056 1369 1301 889 
Q 1547 409 2034 409 
Q 2525 409 2770 889 
Q 3016 1369 3016 2328 
Q 3016 3291 2770 3770 
Q 2525 4250 2034 4250 
z
M 2034 4750 
Q 2819 4750 3233 4129 
Q 3647 3509 3647 2328 
Q 3647 1150 3233 529 
Q 2819 -91 2034 -91 
Q 1250 -91 836 529 
Q 422 1150 422 2328 
Q 422 3509 836 4129 
Q 1250 4750 2034 4750 
z
" transform="scale(0.015625)"/>
       </defs>
       <use xlink:href="#DejaVuSans-30"/>
      </g>
     </g>
    </g>
    <g id="xtick_2">
     <g id="line2d_3">
      <path d="M 136.812632 307.872 
L 136.812632 41.76 
" clip-path="url(#p6961b9473b)" style="fill: none; stroke: #b0b0b0; stroke-width: 0.8; stroke-linecap: square"/>
     </g>
     <g id="line2d_4">
      <g>
       <use xlink:href="#mc3dc4bc506" x="136.812632" y="307.872" style="stroke: #000000; stroke-width: 0.8"/>
      </g>
     </g>
     <g id="text_2">
      <!-- 200 -->
      <g transform="translate(123.451382 325.509812) scale(0.14 -0.14)">
       <defs>
        <path id="DejaVuSans-32" d="M 1228 531 
L 3431 531 
L 3431 0 
L 469 0 
L 469 531 
Q 828 903 1448 1529 
Q 2069 2156 2228 2338 
Q 2531 2678 2651 2914 
Q 2772 3150 2772 3378 
Q 2772 3750 2511 3984 
Q 2250 4219 1831 4219 
Q 1534 4219 1204 4116 
Q 875 4013 500 3803 
L 500 4441 
Q 881 4594 1212 4672 
Q 1544 4750 1819 4750 
Q 2544 4750 2975 4387 
Q 3406 4025 3406 3419 
Q 3406 3131 3298 2873 
Q 3191 2616 2906 2266 
Q 2828 2175 2409 1742 
Q 1991 1309 1228 531 
z
" transform="scale(0.015625)"/>
       </defs>
       <use xlink:href="#DejaVuSans-32"/>
       <use xlink:href="#DejaVuSans-30" x="63.623047"/>
       <use xlink:href="#DejaVuSans-30" x="127.246094"/>
      </g>
     </g>
    </g>
    <g id="xtick_3">
     <g id="line2d_5">
      <path d="M 201.808537 307.872 
L 201.808537 41.76 
" clip-path="url(#p6961b9473b)" style="fill: none; stroke: #b0b0b0; stroke-width: 0.8; stroke-linecap: square"/>
     </g>
     <g id="line2d_6">
      <g>
       <use xlink:href="#mc3dc4bc506" x="201.808537" y="307.872" style="stroke: #000000; stroke-width: 0.8"/>
      </g>
     </g>
     <g id="text_3">
      <!-- 400 -->
      <g transform="translate(188.447287 325.509812) scale(0.14 -0.14)">
       <defs>
        <path id="DejaVuSans-34" d="M 2419 4116 
L 825 1625 
L 2419 1625 
L 2419 4116 
z
M 2253 4666 
L 3047 4666 
L 3047 1625 
L 3713 1625 
L 3713 1100 
L 3047 1100 
L 3047 0 
L 2419 0 
L 2419 1100 
L 313 1100 
L 313 1709 
L 2253 4666 
z
" transform="scale(0.015625)"/>
       </defs>
       <use xlink:href="#DejaVuSans-34"/>
       <use xlink:href="#DejaVuSans-30" x="63.623047"/>
       <use xlink:href="#DejaVuSans-30" x="127.246094"/>
      </g>
     </g>
    </g>
    <g id="xtick_4">
     <g id="line2d_7">
      <path d="M 266.804442 307.872 
L 266.804442 41.76 
" clip-path="url(#p6961b9473b)" style="fill: none; stroke: #b0b0b0; stroke-width: 0.8; stroke-linecap: square"/>
     </g>
     <g id="line2d_8">
      <g>
       <use xlink:href="#mc3dc4bc506" x="266.804442" y="307.872" style="stroke: #000000; stroke-width: 0.8"/>
      </g>
     </g>
     <g id="text_4">
      <!-- 600 -->
      <g transform="translate(253.443192 325.509812) scale(0.14 -0.14)">
       <defs>
        <path id="DejaVuSans-36" d="M 2113 2584 
Q 1688 2584 1439 2293 
Q 1191 2003 1191 1497 
Q 1191 994 1439 701 
Q 1688 409 2113 409 
Q 2538 409 2786 701 
Q 3034 994 3034 1497 
Q 3034 2003 2786 2293 
Q 2538 2584 2113 2584 
z
M 3366 4563 
L 3366 3988 
Q 3128 4100 2886 4159 
Q 2644 4219 2406 4219 
Q 1781 4219 1451 3797 
Q 1122 3375 1075 2522 
Q 1259 2794 1537 2939 
Q 1816 3084 2150 3084 
Q 2853 3084 3261 2657 
Q 3669 2231 3669 1497 
Q 3669 778 3244 343 
Q 2819 -91 2113 -91 
Q 1303 -91 875 529 
Q 447 1150 447 2328 
Q 447 3434 972 4092 
Q 1497 4750 2381 4750 
Q 2619 4750 2861 4703 
Q 3103 4656 3366 4563 
z
" transform="scale(0.015625)"/>
       </defs>
       <use xlink:href="#DejaVuSans-36"/>
       <use xlink:href="#DejaVuSans-30" x="63.623047"/>
       <use xlink:href="#DejaVuSans-30" x="127.246094"/>
      </g>
     </g>
    </g>
    <g id="xtick_5">
     <g id="line2d_9">
      <path d="M 331.800347 307.872 
L 331.800347 41.76 
" clip-path="url(#p6961b9473b)" style="fill: none; stroke: #b0b0b0; stroke-width: 0.8; stroke-linecap: square"/>
     </g>
     <g id="line2d_10">
      <g>
       <use xlink:href="#mc3dc4bc506" x="331.800347" y="307.872" style="stroke: #000000; stroke-width: 0.8"/>
      </g>
     </g>
     <g id="text_5">
      <!-- 800 -->
      <g transform="translate(318.439097 325.509812) scale(0.14 -0.14)">
       <defs>
        <path id="DejaVuSans-38" d="M 2034 2216 
Q 1584 2216 1326 1975 
Q 1069 1734 1069 1313 
Q 1069 891 1326 650 
Q 1584 409 2034 409 
Q 2484 409 2743 651 
Q 3003 894 3003 1313 
Q 3003 1734 2745 1975 
Q 2488 2216 2034 2216 
z
M 1403 2484 
Q 997 2584 770 2862 
Q 544 3141 544 3541 
Q 544 4100 942 4425 
Q 1341 4750 2034 4750 
Q 2731 4750 3128 4425 
Q 3525 4100 3525 3541 
Q 3525 3141 3298 2862 
Q 3072 2584 2669 2484 
Q 3125 2378 3379 2068 
Q 3634 1759 3634 1313 
Q 3634 634 3220 271 
Q 2806 -91 2034 -91 
Q 1263 -91 848 271 
Q 434 634 434 1313 
Q 434 1759 690 2068 
Q 947 2378 1403 2484 
z
M 1172 3481 
Q 1172 3119 1398 2916 
Q 1625 2713 2034 2713 
Q 2441 2713 2670 2916 
Q 2900 3119 2900 3481 
Q 2900 3844 2670 4047 
Q 2441 4250 2034 4250 
Q 1625 4250 1398 4047 
Q 1172 3844 1172 3481 
z
" transform="scale(0.015625)"/>
       </defs>
       <use xlink:href="#DejaVuSans-38"/>
       <use xlink:href="#DejaVuSans-30" x="63.623047"/>
       <use xlink:href="#DejaVuSans-30" x="127.246094"/>
      </g>
     </g>
    </g>
    <g id="xtick_6">
     <g id="line2d_11">
      <path d="M 396.796252 307.872 
L 396.796252 41.76 
" clip-path="url(#p6961b9473b)" style="fill: none; stroke: #b0b0b0; stroke-width: 0.8; stroke-linecap: square"/>
     </g>
     <g id="line2d_12">
      <g>
       <use xlink:href="#mc3dc4bc506" x="396.796252" y="307.872" style="stroke: #000000; stroke-width: 0.8"/>
      </g>
     </g>
     <g id="text_6">
      <!-- 1000 -->
      <g transform="translate(378.981252 325.509812) scale(0.14 -0.14)">
       <defs>
        <path id="DejaVuSans-31" d="M 794 531 
L 1825 531 
L 1825 4091 
L 703 3866 
L 703 4441 
L 1819 4666 
L 2450 4666 
L 2450 531 
L 3481 531 
L 3481 0 
L 794 0 
L 794 531 
z
" transform="scale(0.015625)"/>
       </defs>
       <use xlink:href="#DejaVuSans-31"/>
       <use xlink:href="#DejaVuSans-30" x="63.623047"/>
       <use xlink:href="#DejaVuSans-30" x="127.246094"/>
       <use xlink:href="#DejaVuSans-30" x="190.869141"/>
      </g>
     </g>
    </g>
   </g>
   <g id="matplotlib.axis_2">
    <g id="ytick_1">
     <g id="line2d_13">
      <path d="M 55.584 297.636923 
L 412.704 297.636923 
" clip-path="url(#p6961b9473b)" style="fill: none; stroke: #b0b0b0; stroke-width: 0.8; stroke-linecap: square"/>
     </g>
     <g id="line2d_14">
      <defs>
       <path id="m998c934d3a" d="M 0 0 
L -3.5 0 
" style="stroke: #000000; stroke-width: 0.8"/>
      </defs>
      <g>
       <use xlink:href="#m998c934d3a" x="55.584" y="297.636923" style="stroke: #000000; stroke-width: 0.8"/>
      </g>
     </g>
     <g id="text_7">
      <!-- 0.00 -->
      <g transform="translate(17.412125 302.955829) scale(0.14 -0.14)">
       <defs>
        <path id="DejaVuSans-2e" d="M 684 794 
L 1344 794 
L 1344 0 
L 684 0 
L 684 794 
z
" transform="scale(0.015625)"/>
       </defs>
       <use xlink:href="#DejaVuSans-30"/>
       <use xlink:href="#DejaVuSans-2e" x="63.623047"/>
       <use xlink:href="#DejaVuSans-30" x="95.410156"/>
       <use xlink:href="#DejaVuSans-30" x="159.033203"/>
      </g>
     </g>
    </g>
    <g id="ytick_2">
     <g id="line2d_15">
      <path d="M 55.584 246.461538 
L 412.704 246.461538 
" clip-path="url(#p6961b9473b)" style="fill: none; stroke: #b0b0b0; stroke-width: 0.8; stroke-linecap: square"/>
     </g>
     <g id="line2d_16">
      <g>
       <use xlink:href="#m998c934d3a" x="55.584" y="246.461538" style="stroke: #000000; stroke-width: 0.8"/>
      </g>
     </g>
     <g id="text_8">
      <!-- 0.05 -->
      <g transform="translate(17.412125 251.780445) scale(0.14 -0.14)">
       <defs>
        <path id="DejaVuSans-35" d="M 691 4666 
L 3169 4666 
L 3169 4134 
L 1269 4134 
L 1269 2991 
Q 1406 3038 1543 3061 
Q 1681 3084 1819 3084 
Q 2600 3084 3056 2656 
Q 3513 2228 3513 1497 
Q 3513 744 3044 326 
Q 2575 -91 1722 -91 
Q 1428 -91 1123 -41 
Q 819 9 494 109 
L 494 744 
Q 775 591 1075 516 
Q 1375 441 1709 441 
Q 2250 441 2565 725 
Q 2881 1009 2881 1497 
Q 2881 1984 2565 2268 
Q 2250 2553 1709 2553 
Q 1456 2553 1204 2497 
Q 953 2441 691 2322 
L 691 4666 
z
" transform="scale(0.015625)"/>
       </defs>
       <use xlink:href="#DejaVuSans-30"/>
       <use xlink:href="#DejaVuSans-2e" x="63.623047"/>
       <use xlink:href="#DejaVuSans-30" x="95.410156"/>
       <use xlink:href="#DejaVuSans-35" x="159.033203"/>
      </g>
     </g>
    </g>
    <g id="ytick_3">
     <g id="line2d_17">
      <path d="M 55.584 195.286154 
L 412.704 195.286154 
" clip-path="url(#p6961b9473b)" style="fill: none; stroke: #b0b0b0; stroke-width: 0.8; stroke-linecap: square"/>
     </g>
     <g id="line2d_18">
      <g>
       <use xlink:href="#m998c934d3a" x="55.584" y="195.286154" style="stroke: #000000; stroke-width: 0.8"/>
      </g>
     </g>
     <g id="text_9">
      <!-- 0.10 -->
      <g transform="translate(17.412125 200.60506) scale(0.14 -0.14)">
       <use xlink:href="#DejaVuSans-30"/>
       <use xlink:href="#DejaVuSans-2e" x="63.623047"/>
       <use xlink:href="#DejaVuSans-31" x="95.410156"/>
       <use xlink:href="#DejaVuSans-30" x="159.033203"/>
      </g>
     </g>
    </g>
    <g id="ytick_4">
     <g id="line2d_19">
      <path d="M 55.584 144.110769 
L 412.704 144.110769 
" clip-path="url(#p6961b9473b)" style="fill: none; stroke: #b0b0b0; stroke-width: 0.8; stroke-linecap: square"/>
     </g>
     <g id="line2d_20">
      <g>
       <use xlink:href="#m998c934d3a" x="55.584" y="144.110769" style="stroke: #000000; stroke-width: 0.8"/>
      </g>
     </g>
     <g id="text_10">
      <!-- 0.15 -->
      <g transform="translate(17.412125 149.429675) scale(0.14 -0.14)">
       <use xlink:href="#DejaVuSans-30"/>
       <use xlink:href="#DejaVuSans-2e" x="63.623047"/>
       <use xlink:href="#DejaVuSans-31" x="95.410156"/>
       <use xlink:href="#DejaVuSans-35" x="159.033203"/>
      </g>
     </g>
    </g>
    <g id="ytick_5">
     <g id="line2d_21">
      <path d="M 55.584 92.935385 
L 412.704 92.935385 
" clip-path="url(#p6961b9473b)" style="fill: none; stroke: #b0b0b0; stroke-width: 0.8; stroke-linecap: square"/>
     </g>
     <g id="line2d_22">
      <g>
       <use xlink:href="#m998c934d3a" x="55.584" y="92.935385" style="stroke: #000000; stroke-width: 0.8"/>
      </g>
     </g>
     <g id="text_11">
      <!-- 0.20 -->
      <g transform="translate(17.412125 98.254291) scale(0.14 -0.14)">
       <use xlink:href="#DejaVuSans-30"/>
       <use xlink:href="#DejaVuSans-2e" x="63.623047"/>
       <use xlink:href="#DejaVuSans-32" x="95.410156"/>
       <use xlink:href="#DejaVuSans-30" x="159.033203"/>
      </g>
     </g>
    </g>
    <g id="ytick_6">
     <g id="line2d_23">
      <path d="M 55.584 41.76 
L 412.704 41.76 
" clip-path="url(#p6961b9473b)" style="fill: none; stroke: #b0b0b0; stroke-width: 0.8; stroke-linecap: square"/>
     </g>
     <g id="line2d_24">
      <g>
       <use xlink:href="#m998c934d3a" x="55.584" y="41.76" style="stroke: #000000; stroke-width: 0.8"/>
      </g>
     </g>
     <g id="text_12">
      <!-- 0.25 -->
      <g transform="translate(17.412125 47.078906) scale(0.14 -0.14)">
       <use xlink:href="#DejaVuSans-30"/>
       <use xlink:href="#DejaVuSans-2e" x="63.623047"/>
       <use xlink:href="#DejaVuSans-32" x="95.410156"/>
       <use xlink:href="#DejaVuSans-35" x="159.033203"/>
      </g>
     </g>
    </g>
   </g>
   <g id="line2d_25">
    <path d="M 71.816727 297.636923 
L 103.9897 297.636923 
L 104.200888 -1 
M 109.505195 -1 
L 110.81427 33.491501 
L 112.114188 62.868441 
L 113.739086 92.125005 
L 115.363984 116.477351 
L 117.313861 139.761965 
L 118.613779 152.608068 
L 120.238676 166.222716 
L 122.513533 181.684823 
L 123.813451 189.50551 
L 126.413287 202.245364 
L 128.363165 209.849645 
L 130.963001 218.554937 
L 132.587898 223.059393 
L 133.887817 226.542501 
L 137.462591 234.276709 
L 139.737448 238.532497 
L 140.712387 240.105187 
L 142.337284 242.67981 
L 145.587079 247.167994 
L 147.861936 249.744936 
L 151.111731 253.176966 
L 153.386588 255.478447 
L 155.986424 257.742346 
L 158.58626 259.746528 
L 159.236219 260.204196 
L 160.536138 261.153519 
L 161.511076 261.798961 
L 163.135974 262.760632 
L 164.760871 263.713578 
L 172.2354 267.585317 
L 175.485196 268.957359 
L 178.734991 270.238896 
L 181.009848 271.080838 
L 182.959725 271.790479 
L 184.259643 272.308382 
L 187.184459 273.138354 
L 189.784295 273.955825 
L 192.709111 274.711459 
L 195.308947 275.414638 
L 197.908783 276.016233 
L 212.857841 279.11501 
L 220.982329 280.392979 
L 224.882084 281.006185 
L 230.081756 281.682093 
L 232.031633 281.916928 
L 241.781019 283.018436 
L 244.705835 283.309694 
L 254.7802 284.283053 
L 257.380036 284.508151 
L 261.929749 284.875727 
L 268.10436 285.372751 
L 273.953992 285.80298 
L 286.953173 286.555704 
L 292.802804 286.892489 
L 328.875532 288.511921 
L 337.324999 288.823458 
L 361.048505 289.549314 
L 396.471273 290.424731 
L 396.471273 290.424731 
" clip-path="url(#p6961b9473b)" style="fill: none; stroke: #1f77b4; stroke-width: 2; stroke-linecap: square"/>
    <defs>
     <path id="m23edc240b5" d="M 0 3 
C 0.795609 3 1.55874 2.683901 2.12132 2.12132 
C 2.683901 1.55874 3 0.795609 3 0 
C 3 -0.795609 2.683901 -1.55874 2.12132 -2.12132 
C 1.55874 -2.683901 0.795609 -3 0 -3 
C -0.795609 -3 -1.55874 -2.683901 -2.12132 -2.12132 
C -2.683901 -1.55874 -3 -0.795609 -3 0 
C -3 0.795609 -2.683901 1.55874 -2.12132 2.12132 
C -1.55874 2.683901 -0.795609 3 0 3 
z
" style="stroke: #1f77b4"/>
    </defs>
    <g clip-path="url(#p6961b9473b)">
     <use xlink:href="#m23edc240b5" x="71.816727" y="297.636923" style="fill: #1f77b4; stroke: #1f77b4"/>
     <use xlink:href="#m23edc240b5" x="136.812632" y="232.859681" style="fill: #1f77b4; stroke: #1f77b4"/>
     <use xlink:href="#m23edc240b5" x="201.808537" y="276.902351" style="fill: #1f77b4; stroke: #1f77b4"/>
     <use xlink:href="#m23edc240b5" x="266.804442" y="285.253723" style="fill: #1f77b4; stroke: #1f77b4"/>
     <use xlink:href="#m23edc240b5" x="331.800347" y="288.604368" style="fill: #1f77b4; stroke: #1f77b4"/>
    </g>
   </g>
   <g id="line2d_26">
    <path d="M 192.709111 307.872 
L 192.709111 41.76 
" clip-path="url(#p6961b9473b)" style="fill: none; stroke-dasharray: 7.4,3.2; stroke-dashoffset: 0; stroke: #1f77b4; stroke-width: 2"/>
   </g>
   <g id="line2d_27">
    <path d="M 71.816727 297.636923 
L 103.9897 297.636923 
L 104.31468 179.742796 
L 104.639659 175.352658 
L 104.964639 198.410656 
L 105.614598 220.745501 
L 106.264557 232.472737 
L 107.239495 244.429038 
L 107.564475 247.976703 
L 108.539414 254.617588 
L 109.514352 259.661588 
L 110.164311 262.448984 
L 111.464229 266.273678 
L 114.714025 271.765267 
L 115.363984 272.607757 
L 116.013943 273.479053 
L 116.663902 274.269394 
L 118.613779 276.077485 
L 118.938758 276.332838 
L 119.263738 276.756653 
L 119.588717 276.933916 
L 120.238676 277.466275 
L 123.813451 279.783661 
L 124.46341 280.006022 
L 125.113369 280.426178 
L 125.438349 280.493049 
L 126.088308 280.854374 
L 126.738267 281.120659 
L 128.038185 281.823128 
L 130.963001 282.97079 
L 133.237857 283.729033 
L 137.462591 284.763974 
L 138.43753 284.907892 
L 139.412468 284.961956 
L 140.387407 285.139986 
L 141.362346 285.310719 
L 142.337284 285.530069 
L 145.587079 286.186569 
L 146.237038 286.319822 
L 147.211977 286.4749 
L 149.161854 286.87233 
L 151.436711 287.157643 
L 152.411649 287.268349 
L 153.711568 287.548598 
L 157.936301 287.943705 
L 158.91124 288.014547 
L 163.785933 288.528006 
L 164.760871 288.549572 
L 168.335646 288.75641 
L 170.285523 288.958633 
L 172.88536 289.148467 
L 176.135155 289.46511 
L 178.085032 289.577108 
L 180.684868 289.731512 
L 182.634745 289.790947 
L 185.234581 289.918213 
L 186.20952 289.965233 
L 189.459315 290.131393 
L 192.709111 290.25819 
L 195.308947 290.411076 
L 198.883722 290.583992 
L 200.18364 290.623961 
L 204.733353 290.774074 
L 211.557923 290.949278 
L 213.5078 291.055121 
L 218.382493 291.176672 
L 221.307309 291.269471 
L 299.627374 292.664199 
L 303.852108 292.720944 
L 310.351699 292.797784 
L 323.35088 292.924512 
L 350.974139 293.208393 
L 355.198873 293.258309 
L 396.471273 293.549751 
L 396.471273 293.549751 
" clip-path="url(#p6961b9473b)" style="fill: none; stroke: #ff7f0e; stroke-width: 2; stroke-linecap: square"/>
    <defs>
     <path id="m6a8bceaa18" d="M 0 -3 
L -3 3 
L 3 3 
z
" style="stroke: #ff7f0e; stroke-linejoin: miter"/>
    </defs>
    <g clip-path="url(#p6961b9473b)">
     <use xlink:href="#m6a8bceaa18" x="71.816727" y="297.636923" style="fill: #ff7f0e; stroke: #ff7f0e; stroke-linejoin: miter"/>
     <use xlink:href="#m6a8bceaa18" x="136.812632" y="284.624414" style="fill: #ff7f0e; stroke: #ff7f0e; stroke-linejoin: miter"/>
     <use xlink:href="#m6a8bceaa18" x="201.808537" y="290.685793" style="fill: #ff7f0e; stroke: #ff7f0e; stroke-linejoin: miter"/>
     <use xlink:href="#m6a8bceaa18" x="266.804442" y="292.242711" style="fill: #ff7f0e; stroke: #ff7f0e; stroke-linejoin: miter"/>
     <use xlink:href="#m6a8bceaa18" x="331.800347" y="293.014636" style="fill: #ff7f0e; stroke: #ff7f0e; stroke-linejoin: miter"/>
    </g>
   </g>
   <g id="line2d_28">
    <path d="M 117.313861 307.872 
L 117.313861 41.76 
" clip-path="url(#p6961b9473b)" style="fill: none; stroke-dasharray: 7.4,3.2; stroke-dashoffset: 0; stroke: #ff7f0e; stroke-width: 2"/>
   </g>
   <g id="line2d_29">
    <path d="M 71.816727 297.636923 
L 103.9897 297.636923 
L 104.31468 180.103812 
L 104.639659 143.567225 
L 104.964639 177.21076 
L 105.289618 196.030523 
L 105.939577 215.960378 
L 106.589536 228.189844 
L 107.239495 237.498365 
L 107.889455 244.188568 
L 108.214434 246.484555 
L 108.864393 251.787544 
L 109.839332 256.93731 
L 110.489291 260.038866 
L 111.789209 264.199843 
L 113.089127 267.590335 
L 115.688963 272.158424 
L 116.988881 273.801436 
L 117.63884 274.70513 
L 118.938758 275.972774 
L 120.238676 277.295192 
L 120.563656 277.613537 
L 120.888636 277.737834 
L 121.213615 278.000858 
L 121.863574 278.333727 
L 123.813451 279.418228 
L 124.78839 279.881598 
L 127.388226 281.344539 
L 128.688144 281.715068 
L 137.787571 284.533286 
L 139.737448 284.887162 
L 140.387407 285.125582 
L 141.037366 285.188892 
L 141.687325 285.352178 
L 142.337284 285.485209 
L 143.962182 285.670022 
L 145.912059 285.956139 
L 149.486834 286.597985 
L 164.435892 288.375974 
L 175.485196 289.004064 
L 176.460134 289.065243 
L 184.584622 289.579597 
L 185.884541 289.657552 
L 189.134336 289.810291 
L 193.684049 290.022645 
L 196.283885 290.135995 
L 197.583803 290.26548 
L 220.007391 290.949194 
L 224.232124 291.009846 
L 227.48192 291.117932 
L 237.231305 291.370769 
L 240.80608 291.452741 
L 245.030814 291.605607 
L 265.829504 292.058587 
L 273.304033 292.206822 
L 283.053419 292.366904 
L 290.202968 292.476305 
L 318.801166 292.88508 
L 324.650798 292.935655 
L 329.85047 292.956522 
L 349.349242 293.214351 
L 376.972501 293.405553 
L 382.822133 293.438251 
L 396.471273 293.571908 
L 396.471273 293.571908 
" clip-path="url(#p6961b9473b)" style="fill: none; stroke: #2ca02c; stroke-width: 2; stroke-linecap: square"/>
    <defs>
     <path id="m30697bc986" d="M -3 3 
L 3 3 
L 3 -3 
L -3 -3 
z
" style="stroke: #2ca02c; stroke-linejoin: miter"/>
    </defs>
    <g clip-path="url(#p6961b9473b)">
     <use xlink:href="#m30697bc986" x="71.816727" y="297.636923" style="fill: #2ca02c; stroke: #2ca02c; stroke-linejoin: miter"/>
     <use xlink:href="#m30697bc986" x="136.812632" y="284.26142" style="fill: #2ca02c; stroke: #2ca02c; stroke-linejoin: miter"/>
     <use xlink:href="#m30697bc986" x="201.808537" y="290.376792" style="fill: #2ca02c; stroke: #2ca02c; stroke-linejoin: miter"/>
     <use xlink:href="#m30697bc986" x="266.804442" y="292.076399" style="fill: #2ca02c; stroke: #2ca02c; stroke-linejoin: miter"/>
     <use xlink:href="#m30697bc986" x="331.800347" y="292.987601" style="fill: #2ca02c; stroke: #2ca02c; stroke-linejoin: miter"/>
    </g>
   </g>
   <g id="line2d_30">
    <path d="M 117.63884 307.872 
L 117.63884 41.76 
" clip-path="url(#p6961b9473b)" style="fill: none; stroke-dasharray: 7.4,3.2; stroke-dashoffset: 0; stroke: #2ca02c; stroke-width: 2"/>
   </g>
   <g id="line2d_31">
    <path d="M 71.816727 297.636923 
L 103.9897 297.636923 
L 104.31468 179.564132 
L 104.639659 181.263872 
L 104.964639 203.746215 
L 105.614598 223.485208 
L 106.589536 238.460646 
L 107.239495 246.1457 
L 107.889455 252.190501 
L 109.189373 259.71576 
L 109.514352 261.111796 
L 109.839332 261.762215 
L 110.489291 263.669909 
L 110.81427 264.279546 
L 111.13925 265.132555 
L 111.464229 266.348496 
L 111.789209 266.897282 
L 112.439168 268.601781 
L 112.764147 269.014384 
L 113.414106 270.590264 
L 114.389045 272.399416 
L 115.039004 272.969705 
L 115.688963 273.910704 
L 116.013943 274.330842 
L 116.338922 274.545996 
L 116.988881 275.439896 
L 118.613779 277.089199 
L 118.938758 277.210708 
L 119.588717 277.67104 
L 121.538595 278.93543 
L 123.163492 279.9424 
L 124.138431 280.344744 
L 126.413287 281.482091 
L 127.713206 281.989083 
L 128.363165 282.188168 
L 130.638021 282.943652 
L 131.28798 283.141609 
L 132.912878 283.719015 
L 135.837694 284.526738 
L 139.087489 285.16913 
L 144.93712 286.286 
L 146.562018 286.356581 
L 148.511895 286.672848 
L 149.486834 286.870805 
L 151.436711 287.121646 
L 156.961363 287.644687 
L 157.936301 287.715377 
L 160.211158 288.014039 
L 161.186097 288.068571 
L 164.110912 288.300478 
L 165.41083 288.396428 
L 169.310585 288.729437 
L 170.610503 288.913599 
L 174.510257 289.16999 
L 175.810175 289.225161 
L 177.760052 289.401606 
L 180.034909 289.534194 
L 188.159397 289.991377 
L 192.059152 290.149523 
L 210.907964 291.068874 
L 220.65735 291.348911 
L 227.806899 291.474037 
L 232.356613 291.595201 
L 235.281428 291.658732 
L 239.181183 291.754356 
L 242.755957 291.812862 
L 246.980691 291.887928 
L 271.354156 292.346358 
L 277.853746 292.407151 
L 284.678316 292.533241 
L 289.228029 292.594463 
L 334.400183 293.21994 
L 343.174631 293.290309 
L 360.398545 293.480141 
L 365.923197 293.51892 
L 382.822133 293.662333 
L 390.621641 293.727222 
L 396.471273 293.721989 
L 396.471273 293.721989 
" clip-path="url(#p6961b9473b)" style="fill: none; stroke: #d62728; stroke-width: 2; stroke-linecap: square"/>
    <defs>
     <path id="mda226f3ef0" d="M -3 3 
L 3 -3 
M -3 -3 
L 3 3 
" style="stroke: #d62728"/>
    </defs>
    <g clip-path="url(#p6961b9473b)">
     <use xlink:href="#mda226f3ef0" x="71.816727" y="297.636923" style="fill: #d62728; stroke: #d62728"/>
     <use xlink:href="#mda226f3ef0" x="136.812632" y="284.681291" style="fill: #d62728; stroke: #d62728"/>
     <use xlink:href="#mda226f3ef0" x="201.808537" y="290.622139" style="fill: #d62728; stroke: #d62728"/>
     <use xlink:href="#mda226f3ef0" x="266.804442" y="292.265538" style="fill: #d62728; stroke: #d62728"/>
     <use xlink:href="#mda226f3ef0" x="331.800347" y="293.21171" style="fill: #d62728; stroke: #d62728"/>
    </g>
   </g>
   <g id="line2d_32">
    <path d="M 116.663902 307.872 
L 116.663902 41.76 
" clip-path="url(#p6961b9473b)" style="fill: none; stroke-dasharray: 7.4,3.2; stroke-dashoffset: 0; stroke: #d62728; stroke-width: 2"/>
   </g>
   <g id="line2d_33">
    <path d="M 71.816727 297.636923 
L 103.9897 297.636923 
L 104.31468 178.063093 
L 104.639659 177.721858 
L 104.964639 204.775954 
L 105.614598 224.931684 
L 106.264557 236.451398 
L 106.914516 244.707858 
L 107.564475 250.001345 
L 108.864393 257.507264 
L 109.839332 261.318609 
L 111.789209 267.329786 
L 112.114188 268.022916 
L 112.439168 269.023224 
L 114.064066 271.91825 
L 114.389045 272.235101 
L 115.688963 274.197736 
L 117.63884 276.116858 
L 118.288799 276.73481 
L 118.938758 277.371924 
L 119.263738 277.566393 
L 119.913697 278.160588 
L 121.213615 278.735778 
L 121.863574 279.184207 
L 123.163492 279.829001 
L 123.488472 280.035133 
L 124.138431 280.268914 
L 124.78839 280.632783 
L 125.763328 281.030282 
L 126.413287 281.312884 
L 127.388226 281.614696 
L 128.688144 282.199553 
L 129.338103 282.411029 
L 131.28798 283.181662 
L 131.937939 283.4379 
L 134.212796 284.152417 
L 135.187735 284.509319 
L 136.162673 284.83906 
L 138.11255 285.36458 
L 140.712387 285.772867 
L 141.362346 285.917743 
L 142.337284 286.065235 
L 145.587079 286.539495 
L 149.486834 287.070946 
L 152.08667 287.237178 
L 154.036547 287.53797 
L 158.261281 287.962952 
L 159.236219 288.064831 
L 160.211158 288.181104 
L 161.511076 288.340488 
L 162.810994 288.429745 
L 164.760871 288.518636 
L 166.06079 288.603021 
L 180.684868 289.642339 
L 183.934663 289.776473 
L 186.5345 289.882452 
L 227.48192 291.343442 
L 230.081756 291.406669 
L 248.930568 291.767121 
L 251.530405 291.861064 
L 255.430159 291.949842 
L 261.929749 292.086666 
L 266.804442 292.131943 
L 333.100265 293.065153 
L 339.599856 293.126201 
L 396.471273 293.558088 
L 396.471273 293.558088 
" clip-path="url(#p6961b9473b)" style="fill: none; stroke: #9467bd; stroke-width: 2; stroke-linecap: square"/>
    <defs>
     <path id="m7715a71ee3" d="M -0 3 
L 3 -3 
L -3 -3 
z
" style="stroke: #9467bd; stroke-linejoin: miter"/>
    </defs>
    <g clip-path="url(#p6961b9473b)">
     <use xlink:href="#m7715a71ee3" x="71.816727" y="297.636923" style="fill: #9467bd; stroke: #9467bd; stroke-linejoin: miter"/>
     <use xlink:href="#m7715a71ee3" x="136.812632" y="285.064829" style="fill: #9467bd; stroke: #9467bd; stroke-linejoin: miter"/>
     <use xlink:href="#m7715a71ee3" x="201.808537" y="290.536784" style="fill: #9467bd; stroke: #9467bd; stroke-linejoin: miter"/>
     <use xlink:href="#m7715a71ee3" x="266.804442" y="292.131943" style="fill: #9467bd; stroke: #9467bd; stroke-linejoin: miter"/>
     <use xlink:href="#m7715a71ee3" x="331.800347" y="293.049514" style="fill: #9467bd; stroke: #9467bd; stroke-linejoin: miter"/>
    </g>
   </g>
   <g id="line2d_34">
    <path d="M 116.338922 307.872 
L 116.338922 41.76 
" clip-path="url(#p6961b9473b)" style="fill: none; stroke-dasharray: 7.4,3.2; stroke-dashoffset: 0; stroke: #9467bd; stroke-width: 2"/>
   </g>
   <g id="line2d_35">
    <path d="M 71.816727 297.636923 
L 103.9897 297.636923 
L 104.31468 179.942727 
L 104.639659 174.934285 
L 104.964639 200.468749 
L 105.614598 222.128395 
L 106.264557 234.699203 
L 106.914516 243.082834 
L 108.214434 253.208729 
L 109.839332 260.281411 
L 110.81427 263.62072 
L 111.464229 265.822522 
L 112.439168 268.006037 
L 113.089127 269.204715 
L 114.389045 271.304054 
L 117.313861 275.105447 
L 117.96382 275.83258 
L 118.288799 276.276563 
L 118.938758 276.767878 
L 120.888636 278.534397 
L 121.538595 278.835783 
L 121.863574 278.92594 
L 122.513533 279.339907 
L 122.838513 279.39956 
L 123.813451 280.041504 
L 124.46341 280.403175 
L 125.113369 280.674601 
L 125.438349 280.902114 
L 126.088308 281.119297 
L 126.738267 281.498383 
L 127.063247 281.700018 
L 127.713206 281.876855 
L 129.338103 282.565089 
L 130.638021 283.100057 
L 131.937939 283.430927 
L 136.162673 284.53313 
L 137.462591 284.865383 
L 141.362346 285.52608 
L 146.886998 286.340497 
L 149.811813 286.647522 
L 153.711568 287.132342 
L 155.986424 287.423262 
L 159.886179 287.823469 
L 161.186097 287.84532 
L 170.285523 288.490192 
L 171.260462 288.570393 
L 172.56038 288.610375 
L 179.70993 289.163479 
L 182.309766 289.295516 
L 183.934663 289.422588 
L 188.159397 289.670659 
L 204.733353 290.502432 
L 206.358251 290.552391 
L 207.658169 290.587071 
L 245.030814 291.77628 
L 301.252272 292.705843 
L 310.026719 292.80768 
L 314.901412 292.854873 
L 368.523034 293.402805 
L 374.047686 293.463537 
L 382.822133 293.564525 
L 396.471273 293.643059 
L 396.471273 293.643059 
" clip-path="url(#p6961b9473b)" style="fill: none; stroke: #8c564b; stroke-width: 2; stroke-linecap: square"/>
    <defs>
     <path id="m7db0736b3c" d="M 0 -3 
L -0.673542 -0.927051 
L -2.85317 -0.927051 
L -1.089814 0.354102 
L -1.763356 2.427051 
L -0 1.145898 
L 1.763356 2.427051 
L 1.089814 0.354102 
L 2.85317 -0.927051 
L 0.673542 -0.927051 
z
" style="stroke: #8c564b; stroke-linejoin: bevel"/>
    </defs>
    <g clip-path="url(#p6961b9473b)">
     <use xlink:href="#m7db0736b3c" x="71.816727" y="297.636923" style="fill: #8c564b; stroke: #8c564b; stroke-linejoin: bevel"/>
     <use xlink:href="#m7db0736b3c" x="136.812632" y="284.700483" style="fill: #8c564b; stroke: #8c564b; stroke-linejoin: bevel"/>
     <use xlink:href="#m7db0736b3c" x="201.808537" y="290.357748" style="fill: #8c564b; stroke: #8c564b; stroke-linejoin: bevel"/>
     <use xlink:href="#m7db0736b3c" x="266.804442" y="292.222625" style="fill: #8c564b; stroke: #8c564b; stroke-linejoin: bevel"/>
     <use xlink:href="#m7db0736b3c" x="331.800347" y="293.061917" style="fill: #8c564b; stroke: #8c564b; stroke-linejoin: bevel"/>
    </g>
   </g>
   <g id="line2d_36">
    <path d="M 116.988881 307.872 
L 116.988881 41.76 
" clip-path="url(#p6961b9473b)" style="fill: none; stroke-dasharray: 7.4,3.2; stroke-dashoffset: 0; stroke: #8c564b; stroke-width: 2"/>
   </g>
   <g id="patch_3">
    <path d="M 55.584 307.872 
L 55.584 41.76 
" style="fill: none; stroke: #000000; stroke-width: 0.8; stroke-linejoin: miter; stroke-linecap: square"/>
   </g>
   <g id="patch_4">
    <path d="M 412.704 307.872 
L 412.704 41.76 
" style="fill: none; stroke: #000000; stroke-width: 0.8; stroke-linejoin: miter; stroke-linecap: square"/>
   </g>
   <g id="patch_5">
    <path d="M 55.584 307.872 
L 412.704 307.872 
" style="fill: none; stroke: #000000; stroke-width: 0.8; stroke-linejoin: miter; stroke-linecap: square"/>
   </g>
   <g id="patch_6">
    <path d="M 55.584 41.76 
L 412.704 41.76 
" style="fill: none; stroke: #000000; stroke-width: 0.8; stroke-linejoin: miter; stroke-linecap: square"/>
   </g>
   <g id="axes_2">
    <g id="patch_7">
     <path d="M 207.36 201.4272 
L 403.776 201.4272 
L 403.776 55.0656 
L 207.36 55.0656 
z
" style="fill: #ffffff"/>
    </g>
    <g id="matplotlib.axis_3">
     <g id="xtick_7">
      <g id="line2d_37">
       <path d="M 231.912 201.4272 
L 231.912 55.0656 
" clip-path="url(#p8b7f491f0b)" style="fill: none; stroke: #b0b0b0; stroke-width: 0.8; stroke-linecap: square"/>
      </g>
      <g id="line2d_38">
       <defs>
        <path id="m9c33826906" d="M 0 0 
L 0 3.5 
" style="stroke: #000000; stroke-width: 2"/>
       </defs>
       <g>
        <use xlink:href="#m9c33826906" x="231.912" y="201.4272" style="stroke: #000000; stroke-width: 2"/>
       </g>
      </g>
      <g id="text_13">
       <!-- 136 -->
       <g transform="translate(218.55075 219.065012) scale(0.14 -0.14)">
        <defs>
         <path id="DejaVuSans-33" d="M 2597 2516 
Q 3050 2419 3304 2112 
Q 3559 1806 3559 1356 
Q 3559 666 3084 287 
Q 2609 -91 1734 -91 
Q 1441 -91 1130 -33 
Q 819 25 488 141 
L 488 750 
Q 750 597 1062 519 
Q 1375 441 1716 441 
Q 2309 441 2620 675 
Q 2931 909 2931 1356 
Q 2931 1769 2642 2001 
Q 2353 2234 1838 2234 
L 1294 2234 
L 1294 2753 
L 1863 2753 
Q 2328 2753 2575 2939 
Q 2822 3125 2822 3475 
Q 2822 3834 2567 4026 
Q 2313 4219 1838 4219 
Q 1578 4219 1281 4162 
Q 984 4106 628 3988 
L 628 4550 
Q 988 4650 1302 4700 
Q 1616 4750 1894 4750 
Q 2613 4750 3031 4423 
Q 3450 4097 3450 3541 
Q 3450 3153 3228 2886 
Q 3006 2619 2597 2516 
z
" transform="scale(0.015625)"/>
        </defs>
        <use xlink:href="#DejaVuSans-31"/>
        <use xlink:href="#DejaVuSans-33" x="63.623047"/>
        <use xlink:href="#DejaVuSans-36" x="127.246094"/>
       </g>
      </g>
     </g>
     <g id="xtick_8">
      <g id="line2d_39">
       <path d="M 281.016 201.4272 
L 281.016 55.0656 
" clip-path="url(#p8b7f491f0b)" style="fill: none; stroke: #b0b0b0; stroke-width: 0.8; stroke-linecap: square"/>
      </g>
      <g id="line2d_40">
       <g>
        <use xlink:href="#m9c33826906" x="281.016" y="201.4272" style="stroke: #000000; stroke-width: 2"/>
       </g>
      </g>
      <g id="text_14">
       <!-- 138 -->
       <g transform="translate(267.65475 219.065012) scale(0.14 -0.14)">
        <use xlink:href="#DejaVuSans-31"/>
        <use xlink:href="#DejaVuSans-33" x="63.623047"/>
        <use xlink:href="#DejaVuSans-38" x="127.246094"/>
       </g>
      </g>
     </g>
     <g id="xtick_9">
      <g id="line2d_41">
       <path d="M 330.12 201.4272 
L 330.12 55.0656 
" clip-path="url(#p8b7f491f0b)" style="fill: none; stroke: #b0b0b0; stroke-width: 0.8; stroke-linecap: square"/>
      </g>
      <g id="line2d_42">
       <g>
        <use xlink:href="#m9c33826906" x="330.12" y="201.4272" style="stroke: #000000; stroke-width: 2"/>
       </g>
      </g>
      <g id="text_15">
       <!-- 140 -->
       <g transform="translate(316.75875 219.065012) scale(0.14 -0.14)">
        <use xlink:href="#DejaVuSans-31"/>
        <use xlink:href="#DejaVuSans-34" x="63.623047"/>
        <use xlink:href="#DejaVuSans-30" x="127.246094"/>
       </g>
      </g>
     </g>
     <g id="xtick_10">
      <g id="line2d_43">
       <path d="M 379.224 201.4272 
L 379.224 55.0656 
" clip-path="url(#p8b7f491f0b)" style="fill: none; stroke: #b0b0b0; stroke-width: 0.8; stroke-linecap: square"/>
      </g>
      <g id="line2d_44">
       <g>
        <use xlink:href="#m9c33826906" x="379.224" y="201.4272" style="stroke: #000000; stroke-width: 2"/>
       </g>
      </g>
      <g id="text_16">
       <!-- 142 -->
       <g transform="translate(365.86275 219.065012) scale(0.14 -0.14)">
        <use xlink:href="#DejaVuSans-31"/>
        <use xlink:href="#DejaVuSans-34" x="63.623047"/>
        <use xlink:href="#DejaVuSans-32" x="127.246094"/>
       </g>
      </g>
     </g>
    </g>
    <g id="matplotlib.axis_4">
     <g id="ytick_7">
      <g id="line2d_45">
       <path d="M 207.36 191.520268 
L 403.776 191.520268 
" clip-path="url(#p8b7f491f0b)" style="fill: none; stroke: #b0b0b0; stroke-width: 0.8; stroke-linecap: square"/>
      </g>
      <g id="line2d_46">
       <defs>
        <path id="m6eb25bb10b" d="M 0 0 
L -3.5 0 
" style="stroke: #000000; stroke-width: 2"/>
       </defs>
       <g>
        <use xlink:href="#m6eb25bb10b" x="207.36" y="191.520268" style="stroke: #000000; stroke-width: 2"/>
       </g>
      </g>
      <g id="text_17">
       <!-- 0.021 -->
       <g transform="translate(160.280625 196.839174) scale(0.14 -0.14)">
        <use xlink:href="#DejaVuSans-30"/>
        <use xlink:href="#DejaVuSans-2e" x="63.623047"/>
        <use xlink:href="#DejaVuSans-30" x="95.410156"/>
        <use xlink:href="#DejaVuSans-32" x="159.033203"/>
        <use xlink:href="#DejaVuSans-31" x="222.65625"/>
       </g>
      </g>
     </g>
     <g id="ytick_8">
      <g id="line2d_47">
       <path d="M 207.36 140.126869 
L 403.776 140.126869 
" clip-path="url(#p8b7f491f0b)" style="fill: none; stroke: #b0b0b0; stroke-width: 0.8; stroke-linecap: square"/>
      </g>
      <g id="line2d_48">
       <g>
        <use xlink:href="#m6eb25bb10b" x="207.36" y="140.126869" style="stroke: #000000; stroke-width: 2"/>
       </g>
      </g>
      <g id="text_18">
       <!-- 0.022 -->
       <g transform="translate(160.280625 145.445776) scale(0.14 -0.14)">
        <use xlink:href="#DejaVuSans-30"/>
        <use xlink:href="#DejaVuSans-2e" x="63.623047"/>
        <use xlink:href="#DejaVuSans-30" x="95.410156"/>
        <use xlink:href="#DejaVuSans-32" x="159.033203"/>
        <use xlink:href="#DejaVuSans-32" x="222.65625"/>
       </g>
      </g>
     </g>
     <g id="ytick_9">
      <g id="line2d_49">
       <path d="M 207.36 88.733471 
L 403.776 88.733471 
" clip-path="url(#p8b7f491f0b)" style="fill: none; stroke: #b0b0b0; stroke-width: 0.8; stroke-linecap: square"/>
      </g>
      <g id="line2d_50">
       <g>
        <use xlink:href="#m6eb25bb10b" x="207.36" y="88.733471" style="stroke: #000000; stroke-width: 2"/>
       </g>
      </g>
      <g id="text_19">
       <!-- 0.023 -->
       <g transform="translate(160.280625 94.052377) scale(0.14 -0.14)">
        <use xlink:href="#DejaVuSans-30"/>
        <use xlink:href="#DejaVuSans-2e" x="63.623047"/>
        <use xlink:href="#DejaVuSans-30" x="95.410156"/>
        <use xlink:href="#DejaVuSans-32" x="159.033203"/>
        <use xlink:href="#DejaVuSans-33" x="222.65625"/>
       </g>
      </g>
     </g>
    </g>
    <g id="line2d_51">
     <path d="M 0 0 
" clip-path="url(#p8b7f491f0b)" style="fill: none; stroke: #1f77b4; stroke-width: 2; stroke-linecap: square"/>
     <g clip-path="url(#p8b7f491f0b)">
      <use xlink:href="#m23edc240b5" x="6201.539874" y="-1" style="fill: #1f77b4; stroke: #1f77b4"/>
      <use xlink:href="#m23edc240b5" x="6713.64" y="229.636411" style="fill: #1f77b4; stroke: #1f77b4"/>
      <use xlink:href="#m23edc240b5" x="11624.04" y="648.983924" style="fill: #1f77b4; stroke: #1f77b4"/>
      <use xlink:href="#m23edc240b5" x="16534.44" y="817.229893" style="fill: #1f77b4; stroke: #1f77b4"/>
     </g>
    </g>
    <g id="line2d_52">
     <path clip-path="url(#p8b7f491f0b)" style="fill: none; stroke-dasharray: 7.4,3.2; stroke-dashoffset: 0; stroke: #1f77b4; stroke-width: 2"/>
    </g>
    <g id="line2d_53">
     <path d="M 167.580258 -1 
L 182.808 13.991944 
L 207.36 40.154698 
L 231.912 57.74233 
L 256.464 81.016961 
L 281.016 97.427751 
L 305.568 113.596081 
L 330.12 124.198972 
L 354.672 143.877664 
L 379.224 163.050881 
L 403.776 174.200996 
L 428.328 188.217434 
L 452.88 201.039466 
L 477.432 222.320522 
L 501.984 231.221388 
L 526.536 248.619169 
L 551.088 257.952763 
L 575.64 268.724033 
L 600.192 283.181174 
L 620.12 293.53389 
L 620.12 293.53389 
" clip-path="url(#p8b7f491f0b)" style="fill: none; stroke: #ff7f0e; stroke-width: 2; stroke-linecap: square"/>
     <g clip-path="url(#p8b7f491f0b)">
      <use xlink:href="#m6a8bceaa18" x="-1" y="857.463741" style="fill: #ff7f0e; stroke: #ff7f0e; stroke-linejoin: miter"/>
      <use xlink:href="#m6a8bceaa18" x="1803.24" y="617.384449" style="fill: #ff7f0e; stroke: #ff7f0e; stroke-linejoin: miter"/>
      <use xlink:href="#m6a8bceaa18" x="6713.64" y="921.744504" style="fill: #ff7f0e; stroke: #ff7f0e; stroke-linejoin: miter"/>
      <use xlink:href="#m6a8bceaa18" x="11624.04" y="999.922048" style="fill: #ff7f0e; stroke: #ff7f0e; stroke-linejoin: miter"/>
      <use xlink:href="#m6a8bceaa18" x="16534.44" y="1038.68273" style="fill: #ff7f0e; stroke: #ff7f0e; stroke-linejoin: miter"/>
     </g>
    </g>
    <g id="line2d_54">
     <path d="M 330.12 201.4272 
L 330.12 55.0656 
" clip-path="url(#p8b7f491f0b)" style="fill: none; stroke-dasharray: 7.4,3.2; stroke-dashoffset: 0; stroke: #ff7f0e; stroke-width: 2"/>
    </g>
    <g id="line2d_55">
     <path d="M 217.170862 -1 
L 231.912 10.374794 
L 256.464 23.965072 
L 281.016 47.074737 
L 305.568 73.930183 
L 330.12 97.660604 
L 354.672 119.307349 
L 379.224 133.574392 
L 403.776 146.90629 
L 428.328 167.890258 
L 452.88 182.959594 
L 477.432 201.178305 
L 501.984 221.781394 
L 526.536 234.955952 
L 551.088 249.362156 
L 575.64 265.347204 
L 600.192 271.588525 
L 620.12 282.308393 
L 620.12 282.308393 
" clip-path="url(#p8b7f491f0b)" style="fill: none; stroke: #2ca02c; stroke-width: 2; stroke-linecap: square"/>
     <g clip-path="url(#p8b7f491f0b)">
      <use xlink:href="#m30697bc986" x="-1" y="845.933895" style="fill: #2ca02c; stroke: #2ca02c; stroke-linejoin: miter"/>
      <use xlink:href="#m30697bc986" x="1803.24" y="599.157393" style="fill: #2ca02c; stroke: #2ca02c; stroke-linejoin: miter"/>
      <use xlink:href="#m30697bc986" x="6713.64" y="906.228653" style="fill: #2ca02c; stroke: #2ca02c; stroke-linejoin: miter"/>
      <use xlink:href="#m30697bc986" x="11624.04" y="991.571029" style="fill: #2ca02c; stroke: #2ca02c; stroke-linejoin: miter"/>
      <use xlink:href="#m30697bc986" x="16534.44" y="1037.325205" style="fill: #2ca02c; stroke: #2ca02c; stroke-linejoin: miter"/>
     </g>
    </g>
    <g id="line2d_56">
     <path d="M 354.672 201.4272 
L 354.672 55.0656 
" clip-path="url(#p8b7f491f0b)" style="fill: none; stroke-dasharray: 7.4,3.2; stroke-dashoffset: 0; stroke: #2ca02c; stroke-width: 2"/>
    </g>
    <g id="line2d_57">
     <path d="M 104.333821 -1 
L 109.152 3.530509 
L 133.704 16.676549 
L 158.256 32.166469 
L 182.808 59.11237 
L 207.36 79.416855 
L 231.912 100.513251 
L 256.464 111.316777 
L 281.016 137.185451 
L 305.568 156.20215 
L 330.12 172.906857 
L 354.672 191.614547 
L 379.224 206.500678 
L 403.776 223.362159 
L 428.328 239.01864 
L 452.88 245.119952 
L 477.432 259.741905 
L 501.984 268.234621 
L 526.536 277.839424 
L 551.088 287.836165 
L 575.64 297.116236 
L 600.192 312.290864 
L 620.12 320.172198 
L 620.12 320.172198 
" clip-path="url(#p8b7f491f0b)" style="fill: none; stroke: #d62728; stroke-width: 2; stroke-linecap: square"/>
     <g clip-path="url(#p8b7f491f0b)">
      <use xlink:href="#mda226f3ef0" x="-1" y="859.270326" style="fill: #d62728; stroke: #d62728"/>
      <use xlink:href="#mda226f3ef0" x="1803.24" y="620.240405" style="fill: #d62728; stroke: #d62728"/>
      <use xlink:href="#mda226f3ef0" x="6713.64" y="918.548236" style="fill: #d62728; stroke: #d62728"/>
      <use xlink:href="#mda226f3ef0" x="11624.04" y="1001.068266" style="fill: #d62728; stroke: #d62728"/>
      <use xlink:href="#mda226f3ef0" x="16534.44" y="1048.578375" style="fill: #d62728; stroke: #d62728"/>
     </g>
    </g>
    <g id="line2d_58">
     <path d="M 281.016 201.4272 
L 281.016 55.0656 
" clip-path="url(#p8b7f491f0b)" style="fill: none; stroke-dasharray: 7.4,3.2; stroke-dashoffset: 0; stroke: #d62728; stroke-width: 2"/>
    </g>
    <g id="line2d_59">
     <path d="M 112.534182 -1 
L 133.704 22.285768 
L 158.256 50.739686 
L 182.808 73.213393 
L 207.36 93.829582 
L 231.912 111.059126 
L 256.464 129.014379 
L 281.016 149.789293 
L 305.568 168.244089 
L 330.12 181.584436 
L 354.672 190.194464 
L 379.224 202.825987 
L 403.776 221.223705 
L 428.328 240.424369 
L 452.88 253.215115 
L 477.432 262.979999 
L 501.984 281.248565 
L 526.536 292.816278 
L 551.088 299.195676 
L 575.64 308.954542 
L 600.192 315.477356 
L 620.12 320.526696 
L 620.12 320.526696 
" clip-path="url(#p8b7f491f0b)" style="fill: none; stroke: #9467bd; stroke-width: 2; stroke-linecap: square"/>
     <g clip-path="url(#p8b7f491f0b)">
      <use xlink:href="#m7715a71ee3" x="-1" y="871.452692" style="fill: #9467bd; stroke: #9467bd; stroke-linejoin: miter"/>
      <use xlink:href="#m7715a71ee3" x="1803.24" y="639.499005" style="fill: #9467bd; stroke: #9467bd; stroke-linejoin: miter"/>
      <use xlink:href="#m7715a71ee3" x="6713.64" y="914.262301" style="fill: #9467bd; stroke: #9467bd; stroke-linejoin: miter"/>
      <use xlink:href="#m7715a71ee3" x="11624.04" y="994.360037" style="fill: #9467bd; stroke: #9467bd; stroke-linejoin: miter"/>
      <use xlink:href="#m7715a71ee3" x="16534.44" y="1040.434028" style="fill: #9467bd; stroke: #9467bd; stroke-linejoin: miter"/>
     </g>
    </g>
    <g id="line2d_60">
     <path d="M 256.464 201.4272 
L 256.464 55.0656 
" clip-path="url(#p8b7f491f0b)" style="fill: none; stroke-dasharray: 7.4,3.2; stroke-dashoffset: 0; stroke: #9467bd; stroke-width: 2"/>
    </g>
    <g id="line2d_61">
     <path d="M 163.061871 -1 
L 182.808 19.576848 
L 207.36 44.388388 
L 231.912 65.165729 
L 256.464 87.98632 
L 281.016 105.257868 
L 305.568 121.501882 
L 330.12 139.408468 
L 354.672 155.36563 
L 379.224 175.920028 
L 403.776 198.213734 
L 428.328 208.168765 
L 452.88 222.884119 
L 477.432 238.839953 
L 501.984 255.233288 
L 526.536 268.074221 
L 551.088 289.645336 
L 575.64 302.105539 
L 600.192 311.586369 
L 620.12 319.747896 
L 620.12 319.747896 
" clip-path="url(#p8b7f491f0b)" style="fill: none; stroke: #8c564b; stroke-width: 2; stroke-linecap: square"/>
     <g clip-path="url(#p8b7f491f0b)">
      <use xlink:href="#m7db0736b3c" x="-1" y="859.879933" style="fill: #8c564b; stroke: #8c564b; stroke-linejoin: bevel"/>
      <use xlink:href="#m7db0736b3c" x="1803.24" y="621.204108" style="fill: #8c564b; stroke: #8c564b; stroke-linejoin: bevel"/>
      <use xlink:href="#m7db0736b3c" x="6713.64" y="905.272365" style="fill: #8c564b; stroke: #8c564b; stroke-linejoin: bevel"/>
      <use xlink:href="#m7db0736b3c" x="11624.04" y="998.913455" style="fill: #8c564b; stroke: #8c564b; stroke-linejoin: bevel"/>
      <use xlink:href="#m7db0736b3c" x="16534.44" y="1041.056841" style="fill: #8c564b; stroke: #8c564b; stroke-linejoin: bevel"/>
     </g>
    </g>
    <g id="line2d_62">
     <path d="M 305.568 201.4272 
L 305.568 55.0656 
" clip-path="url(#p8b7f491f0b)" style="fill: none; stroke-dasharray: 7.4,3.2; stroke-dashoffset: 0; stroke: #8c564b; stroke-width: 2"/>
    </g>
    <g id="patch_8">
     <path d="M 207.36 201.4272 
L 207.36 55.0656 
" style="fill: none; stroke: #000000; stroke-width: 2; stroke-linejoin: miter; stroke-linecap: square"/>
    </g>
    <g id="patch_9">
     <path d="M 403.776 201.4272 
L 403.776 55.0656 
" style="fill: none; stroke: #000000; stroke-width: 2; stroke-linejoin: miter; stroke-linecap: square"/>
    </g>
    <g id="patch_10">
     <path d="M 207.36 201.4272 
L 403.776 201.4272 
" style="fill: none; stroke: #000000; stroke-width: 2; stroke-linejoin: miter; stroke-linecap: square"/>
    </g>
    <g id="patch_11">
     <path d="M 207.36 55.0656 
L 403.776 55.0656 
" style="fill: none; stroke: #000000; stroke-width: 2; stroke-linejoin: miter; stroke-linecap: square"/>
    </g>
   </g>
   <g id="legend_1">
    <g id="patch_12">
     <path d="M 428.92 218.64425 
L 609.92 218.64425 
Q 611.92 218.64425 611.92 216.64425 
L 611.92 129.53175 
Q 611.92 127.53175 609.92 127.53175 
L 428.92 127.53175 
Q 426.92 127.53175 426.92 129.53175 
L 426.92 216.64425 
Q 426.92 218.64425 428.92 218.64425 
z
" style="fill: #ffffff; opacity: 0.8; stroke: #cccccc; stroke-linejoin: miter"/>
    </g>
    <g id="line2d_63">
     <path d="M 430.92 135.630187 
L 440.92 135.630187 
L 450.92 135.630187 
" style="fill: none; stroke: #1f77b4; stroke-width: 2; stroke-linecap: square"/>
     <g>
      <use xlink:href="#m23edc240b5" x="440.92" y="135.630187" style="fill: #1f77b4; stroke: #1f77b4"/>
     </g>
    </g>
    <g id="text_20">
     <!-- $\kappa$ = 0.02 -->
     <g transform="translate(458.92 139.130187) scale(0.1 -0.1)">
      <defs>
       <path id="DejaVuSans-Oblique-3ba" d="M 938 3500 
L 1531 3500 
L 1247 2047 
L 3041 3500 
L 3741 3500 
L 2106 2181 
L 3275 0 
L 2572 0 
L 1628 1806 
L 1122 1403 
L 850 0 
L 256 0 
L 938 3500 
z
" transform="scale(0.015625)"/>
       <path id="DejaVuSans-20" transform="scale(0.015625)"/>
       <path id="DejaVuSans-3d" d="M 678 2906 
L 4684 2906 
L 4684 2381 
L 678 2381 
L 678 2906 
z
M 678 1631 
L 4684 1631 
L 4684 1100 
L 678 1100 
L 678 1631 
z
" transform="scale(0.015625)"/>
      </defs>
      <use xlink:href="#DejaVuSans-Oblique-3ba" transform="translate(0 0.78125)"/>
      <use xlink:href="#DejaVuSans-20" transform="translate(58.935547 0.78125)"/>
      <use xlink:href="#DejaVuSans-3d" transform="translate(90.722656 0.78125)"/>
      <use xlink:href="#DejaVuSans-20" transform="translate(174.511719 0.78125)"/>
      <use xlink:href="#DejaVuSans-30" transform="translate(206.298828 0.78125)"/>
      <use xlink:href="#DejaVuSans-2e" transform="translate(269.921875 0.78125)"/>
      <use xlink:href="#DejaVuSans-30" transform="translate(301.708984 0.78125)"/>
      <use xlink:href="#DejaVuSans-32" transform="translate(365.332031 0.78125)"/>
     </g>
    </g>
    <g id="line2d_64">
     <path d="M 430.92 150.309875 
L 440.92 150.309875 
L 450.92 150.309875 
" style="fill: none; stroke: #ff7f0e; stroke-width: 2; stroke-linecap: square"/>
     <g>
      <use xlink:href="#m6a8bceaa18" x="440.92" y="150.309875" style="fill: #ff7f0e; stroke: #ff7f0e; stroke-linejoin: miter"/>
     </g>
    </g>
    <g id="text_21">
     <!-- Constant-edge ($\alpha$ = 0.047) -->
     <g transform="translate(458.92 153.809875) scale(0.1 -0.1)">
      <defs>
       <path id="DejaVuSans-43" d="M 4122 4306 
L 4122 3641 
Q 3803 3938 3442 4084 
Q 3081 4231 2675 4231 
Q 1875 4231 1450 3742 
Q 1025 3253 1025 2328 
Q 1025 1406 1450 917 
Q 1875 428 2675 428 
Q 3081 428 3442 575 
Q 3803 722 4122 1019 
L 4122 359 
Q 3791 134 3420 21 
Q 3050 -91 2638 -91 
Q 1578 -91 968 557 
Q 359 1206 359 2328 
Q 359 3453 968 4101 
Q 1578 4750 2638 4750 
Q 3056 4750 3426 4639 
Q 3797 4528 4122 4306 
z
" transform="scale(0.015625)"/>
       <path id="DejaVuSans-6f" d="M 1959 3097 
Q 1497 3097 1228 2736 
Q 959 2375 959 1747 
Q 959 1119 1226 758 
Q 1494 397 1959 397 
Q 2419 397 2687 759 
Q 2956 1122 2956 1747 
Q 2956 2369 2687 2733 
Q 2419 3097 1959 3097 
z
M 1959 3584 
Q 2709 3584 3137 3096 
Q 3566 2609 3566 1747 
Q 3566 888 3137 398 
Q 2709 -91 1959 -91 
Q 1206 -91 779 398 
Q 353 888 353 1747 
Q 353 2609 779 3096 
Q 1206 3584 1959 3584 
z
" transform="scale(0.015625)"/>
       <path id="DejaVuSans-6e" d="M 3513 2113 
L 3513 0 
L 2938 0 
L 2938 2094 
Q 2938 2591 2744 2837 
Q 2550 3084 2163 3084 
Q 1697 3084 1428 2787 
Q 1159 2491 1159 1978 
L 1159 0 
L 581 0 
L 581 3500 
L 1159 3500 
L 1159 2956 
Q 1366 3272 1645 3428 
Q 1925 3584 2291 3584 
Q 2894 3584 3203 3211 
Q 3513 2838 3513 2113 
z
" transform="scale(0.015625)"/>
       <path id="DejaVuSans-73" d="M 2834 3397 
L 2834 2853 
Q 2591 2978 2328 3040 
Q 2066 3103 1784 3103 
Q 1356 3103 1142 2972 
Q 928 2841 928 2578 
Q 928 2378 1081 2264 
Q 1234 2150 1697 2047 
L 1894 2003 
Q 2506 1872 2764 1633 
Q 3022 1394 3022 966 
Q 3022 478 2636 193 
Q 2250 -91 1575 -91 
Q 1294 -91 989 -36 
Q 684 19 347 128 
L 347 722 
Q 666 556 975 473 
Q 1284 391 1588 391 
Q 1994 391 2212 530 
Q 2431 669 2431 922 
Q 2431 1156 2273 1281 
Q 2116 1406 1581 1522 
L 1381 1569 
Q 847 1681 609 1914 
Q 372 2147 372 2553 
Q 372 3047 722 3315 
Q 1072 3584 1716 3584 
Q 2034 3584 2315 3537 
Q 2597 3491 2834 3397 
z
" transform="scale(0.015625)"/>
       <path id="DejaVuSans-74" d="M 1172 4494 
L 1172 3500 
L 2356 3500 
L 2356 3053 
L 1172 3053 
L 1172 1153 
Q 1172 725 1289 603 
Q 1406 481 1766 481 
L 2356 481 
L 2356 0 
L 1766 0 
Q 1100 0 847 248 
Q 594 497 594 1153 
L 594 3053 
L 172 3053 
L 172 3500 
L 594 3500 
L 594 4494 
L 1172 4494 
z
" transform="scale(0.015625)"/>
       <path id="DejaVuSans-61" d="M 2194 1759 
Q 1497 1759 1228 1600 
Q 959 1441 959 1056 
Q 959 750 1161 570 
Q 1363 391 1709 391 
Q 2188 391 2477 730 
Q 2766 1069 2766 1631 
L 2766 1759 
L 2194 1759 
z
M 3341 1997 
L 3341 0 
L 2766 0 
L 2766 531 
Q 2569 213 2275 61 
Q 1981 -91 1556 -91 
Q 1019 -91 701 211 
Q 384 513 384 1019 
Q 384 1609 779 1909 
Q 1175 2209 1959 2209 
L 2766 2209 
L 2766 2266 
Q 2766 2663 2505 2880 
Q 2244 3097 1772 3097 
Q 1472 3097 1187 3025 
Q 903 2953 641 2809 
L 641 3341 
Q 956 3463 1253 3523 
Q 1550 3584 1831 3584 
Q 2591 3584 2966 3190 
Q 3341 2797 3341 1997 
z
" transform="scale(0.015625)"/>
       <path id="DejaVuSans-2d" d="M 313 2009 
L 1997 2009 
L 1997 1497 
L 313 1497 
L 313 2009 
z
" transform="scale(0.015625)"/>
       <path id="DejaVuSans-65" d="M 3597 1894 
L 3597 1613 
L 953 1613 
Q 991 1019 1311 708 
Q 1631 397 2203 397 
Q 2534 397 2845 478 
Q 3156 559 3463 722 
L 3463 178 
Q 3153 47 2828 -22 
Q 2503 -91 2169 -91 
Q 1331 -91 842 396 
Q 353 884 353 1716 
Q 353 2575 817 3079 
Q 1281 3584 2069 3584 
Q 2775 3584 3186 3129 
Q 3597 2675 3597 1894 
z
M 3022 2063 
Q 3016 2534 2758 2815 
Q 2500 3097 2075 3097 
Q 1594 3097 1305 2825 
Q 1016 2553 972 2059 
L 3022 2063 
z
" transform="scale(0.015625)"/>
       <path id="DejaVuSans-64" d="M 2906 2969 
L 2906 4863 
L 3481 4863 
L 3481 0 
L 2906 0 
L 2906 525 
Q 2725 213 2448 61 
Q 2172 -91 1784 -91 
Q 1150 -91 751 415 
Q 353 922 353 1747 
Q 353 2572 751 3078 
Q 1150 3584 1784 3584 
Q 2172 3584 2448 3432 
Q 2725 3281 2906 2969 
z
M 947 1747 
Q 947 1113 1208 752 
Q 1469 391 1925 391 
Q 2381 391 2643 752 
Q 2906 1113 2906 1747 
Q 2906 2381 2643 2742 
Q 2381 3103 1925 3103 
Q 1469 3103 1208 2742 
Q 947 2381 947 1747 
z
" transform="scale(0.015625)"/>
       <path id="DejaVuSans-67" d="M 2906 1791 
Q 2906 2416 2648 2759 
Q 2391 3103 1925 3103 
Q 1463 3103 1205 2759 
Q 947 2416 947 1791 
Q 947 1169 1205 825 
Q 1463 481 1925 481 
Q 2391 481 2648 825 
Q 2906 1169 2906 1791 
z
M 3481 434 
Q 3481 -459 3084 -895 
Q 2688 -1331 1869 -1331 
Q 1566 -1331 1297 -1286 
Q 1028 -1241 775 -1147 
L 775 -588 
Q 1028 -725 1275 -790 
Q 1522 -856 1778 -856 
Q 2344 -856 2625 -561 
Q 2906 -266 2906 331 
L 2906 616 
Q 2728 306 2450 153 
Q 2172 0 1784 0 
Q 1141 0 747 490 
Q 353 981 353 1791 
Q 353 2603 747 3093 
Q 1141 3584 1784 3584 
Q 2172 3584 2450 3431 
Q 2728 3278 2906 2969 
L 2906 3500 
L 3481 3500 
L 3481 434 
z
" transform="scale(0.015625)"/>
       <path id="DejaVuSans-28" d="M 1984 4856 
Q 1566 4138 1362 3434 
Q 1159 2731 1159 2009 
Q 1159 1288 1364 580 
Q 1569 -128 1984 -844 
L 1484 -844 
Q 1016 -109 783 600 
Q 550 1309 550 2009 
Q 550 2706 781 3412 
Q 1013 4119 1484 4856 
L 1984 4856 
z
" transform="scale(0.015625)"/>
       <path id="DejaVuSans-Oblique-3b1" d="M 2619 1628 
L 2622 2350 
Q 2625 3088 2069 3091 
Q 1653 3094 1394 2747 
Q 1069 2319 959 1747 
Q 825 1059 994 731 
Q 1169 397 1547 397 
Q 1966 397 2319 1063 
L 2619 1628 
z
M 2166 3578 
Q 3141 3594 3128 2584 
Q 3128 2584 3616 3500 
L 4128 3500 
L 3119 1603 
L 3109 919 
Q 3109 766 3194 638 
Q 3291 488 3391 488 
L 3669 488 
L 3575 0 
L 3228 0 
Q 2934 0 2722 263 
Q 2622 394 2619 669 
Q 2416 334 2066 50 
Q 1900 -81 1453 -78 
Q 722 -72 456 397 
Q 184 884 353 1747 
Q 534 2675 1009 3097 
Q 1544 3569 2166 3578 
z
" transform="scale(0.015625)"/>
       <path id="DejaVuSans-37" d="M 525 4666 
L 3525 4666 
L 3525 4397 
L 1831 0 
L 1172 0 
L 2766 4134 
L 525 4134 
L 525 4666 
z
" transform="scale(0.015625)"/>
       <path id="DejaVuSans-29" d="M 513 4856 
L 1013 4856 
Q 1481 4119 1714 3412 
Q 1947 2706 1947 2009 
Q 1947 1309 1714 600 
Q 1481 -109 1013 -844 
L 513 -844 
Q 928 -128 1133 580 
Q 1338 1288 1338 2009 
Q 1338 2731 1133 3434 
Q 928 4138 513 4856 
z
" transform="scale(0.015625)"/>
      </defs>
      <use xlink:href="#DejaVuSans-43" transform="translate(0 0.015625)"/>
      <use xlink:href="#DejaVuSans-6f" transform="translate(69.824219 0.015625)"/>
      <use xlink:href="#DejaVuSans-6e" transform="translate(131.005859 0.015625)"/>
      <use xlink:href="#DejaVuSans-73" transform="translate(194.384766 0.015625)"/>
      <use xlink:href="#DejaVuSans-74" transform="translate(246.484375 0.015625)"/>
      <use xlink:href="#DejaVuSans-61" transform="translate(285.693359 0.015625)"/>
      <use xlink:href="#DejaVuSans-6e" transform="translate(346.972656 0.015625)"/>
      <use xlink:href="#DejaVuSans-74" transform="translate(410.351562 0.015625)"/>
      <use xlink:href="#DejaVuSans-2d" transform="translate(449.560547 0.015625)"/>
      <use xlink:href="#DejaVuSans-65" transform="translate(485.644531 0.015625)"/>
      <use xlink:href="#DejaVuSans-64" transform="translate(547.167969 0.015625)"/>
      <use xlink:href="#DejaVuSans-67" transform="translate(610.644531 0.015625)"/>
      <use xlink:href="#DejaVuSans-65" transform="translate(674.121094 0.015625)"/>
      <use xlink:href="#DejaVuSans-20" transform="translate(735.644531 0.015625)"/>
      <use xlink:href="#DejaVuSans-28" transform="translate(767.431641 0.015625)"/>
      <use xlink:href="#DejaVuSans-Oblique-3b1" transform="translate(806.445312 0.015625)"/>
      <use xlink:href="#DejaVuSans-20" transform="translate(872.363281 0.015625)"/>
      <use xlink:href="#DejaVuSans-3d" transform="translate(904.150391 0.015625)"/>
      <use xlink:href="#DejaVuSans-20" transform="translate(987.939453 0.015625)"/>
      <use xlink:href="#DejaVuSans-30" transform="translate(1019.726562 0.015625)"/>
      <use xlink:href="#DejaVuSans-2e" transform="translate(1083.349609 0.015625)"/>
      <use xlink:href="#DejaVuSans-30" transform="translate(1115.136719 0.015625)"/>
      <use xlink:href="#DejaVuSans-34" transform="translate(1178.759766 0.015625)"/>
      <use xlink:href="#DejaVuSans-37" transform="translate(1242.382812 0.015625)"/>
      <use xlink:href="#DejaVuSans-29" transform="translate(1306.005859 0.015625)"/>
     </g>
    </g>
    <g id="line2d_65">
     <path d="M 430.92 165.009875 
L 440.92 165.009875 
L 450.92 165.009875 
" style="fill: none; stroke: #2ca02c; stroke-width: 2; stroke-linecap: square"/>
     <g>
      <use xlink:href="#m30697bc986" x="440.92" y="165.009875" style="fill: #2ca02c; stroke: #2ca02c; stroke-linejoin: miter"/>
     </g>
    </g>
    <g id="text_22">
     <!-- Maximum-degree ($\alpha$ = 0.033) -->
     <g transform="translate(458.92 168.509875) scale(0.1 -0.1)">
      <defs>
       <path id="DejaVuSans-4d" d="M 628 4666 
L 1569 4666 
L 2759 1491 
L 3956 4666 
L 4897 4666 
L 4897 0 
L 4281 0 
L 4281 4097 
L 3078 897 
L 2444 897 
L 1241 4097 
L 1241 0 
L 628 0 
L 628 4666 
z
" transform="scale(0.015625)"/>
       <path id="DejaVuSans-78" d="M 3513 3500 
L 2247 1797 
L 3578 0 
L 2900 0 
L 1881 1375 
L 863 0 
L 184 0 
L 1544 1831 
L 300 3500 
L 978 3500 
L 1906 2253 
L 2834 3500 
L 3513 3500 
z
" transform="scale(0.015625)"/>
       <path id="DejaVuSans-69" d="M 603 3500 
L 1178 3500 
L 1178 0 
L 603 0 
L 603 3500 
z
M 603 4863 
L 1178 4863 
L 1178 4134 
L 603 4134 
L 603 4863 
z
" transform="scale(0.015625)"/>
       <path id="DejaVuSans-6d" d="M 3328 2828 
Q 3544 3216 3844 3400 
Q 4144 3584 4550 3584 
Q 5097 3584 5394 3201 
Q 5691 2819 5691 2113 
L 5691 0 
L 5113 0 
L 5113 2094 
Q 5113 2597 4934 2840 
Q 4756 3084 4391 3084 
Q 3944 3084 3684 2787 
Q 3425 2491 3425 1978 
L 3425 0 
L 2847 0 
L 2847 2094 
Q 2847 2600 2669 2842 
Q 2491 3084 2119 3084 
Q 1678 3084 1418 2786 
Q 1159 2488 1159 1978 
L 1159 0 
L 581 0 
L 581 3500 
L 1159 3500 
L 1159 2956 
Q 1356 3278 1631 3431 
Q 1906 3584 2284 3584 
Q 2666 3584 2933 3390 
Q 3200 3197 3328 2828 
z
" transform="scale(0.015625)"/>
       <path id="DejaVuSans-75" d="M 544 1381 
L 544 3500 
L 1119 3500 
L 1119 1403 
Q 1119 906 1312 657 
Q 1506 409 1894 409 
Q 2359 409 2629 706 
Q 2900 1003 2900 1516 
L 2900 3500 
L 3475 3500 
L 3475 0 
L 2900 0 
L 2900 538 
Q 2691 219 2414 64 
Q 2138 -91 1772 -91 
Q 1169 -91 856 284 
Q 544 659 544 1381 
z
M 1991 3584 
L 1991 3584 
z
" transform="scale(0.015625)"/>
       <path id="DejaVuSans-72" d="M 2631 2963 
Q 2534 3019 2420 3045 
Q 2306 3072 2169 3072 
Q 1681 3072 1420 2755 
Q 1159 2438 1159 1844 
L 1159 0 
L 581 0 
L 581 3500 
L 1159 3500 
L 1159 2956 
Q 1341 3275 1631 3429 
Q 1922 3584 2338 3584 
Q 2397 3584 2469 3576 
Q 2541 3569 2628 3553 
L 2631 2963 
z
" transform="scale(0.015625)"/>
      </defs>
      <use xlink:href="#DejaVuSans-4d" transform="translate(0 0.015625)"/>
      <use xlink:href="#DejaVuSans-61" transform="translate(86.279297 0.015625)"/>
      <use xlink:href="#DejaVuSans-78" transform="translate(147.558594 0.015625)"/>
      <use xlink:href="#DejaVuSans-69" transform="translate(206.738281 0.015625)"/>
      <use xlink:href="#DejaVuSans-6d" transform="translate(234.521484 0.015625)"/>
      <use xlink:href="#DejaVuSans-75" transform="translate(331.933594 0.015625)"/>
      <use xlink:href="#DejaVuSans-6d" transform="translate(395.3125 0.015625)"/>
      <use xlink:href="#DejaVuSans-2d" transform="translate(490.974609 0.015625)"/>
      <use xlink:href="#DejaVuSans-64" transform="translate(527.058594 0.015625)"/>
      <use xlink:href="#DejaVuSans-65" transform="translate(590.535156 0.015625)"/>
      <use xlink:href="#DejaVuSans-67" transform="translate(652.058594 0.015625)"/>
      <use xlink:href="#DejaVuSans-72" transform="translate(715.535156 0.015625)"/>
      <use xlink:href="#DejaVuSans-65" transform="translate(756.648438 0.015625)"/>
      <use xlink:href="#DejaVuSans-65" transform="translate(818.171875 0.015625)"/>
      <use xlink:href="#DejaVuSans-20" transform="translate(879.695312 0.015625)"/>
      <use xlink:href="#DejaVuSans-28" transform="translate(911.482422 0.015625)"/>
      <use xlink:href="#DejaVuSans-Oblique-3b1" transform="translate(950.496094 0.015625)"/>
      <use xlink:href="#DejaVuSans-20" transform="translate(1016.414062 0.015625)"/>
      <use xlink:href="#DejaVuSans-3d" transform="translate(1048.201172 0.015625)"/>
      <use xlink:href="#DejaVuSans-20" transform="translate(1131.990234 0.015625)"/>
      <use xlink:href="#DejaVuSans-30" transform="translate(1163.777344 0.015625)"/>
      <use xlink:href="#DejaVuSans-2e" transform="translate(1227.400391 0.015625)"/>
      <use xlink:href="#DejaVuSans-30" transform="translate(1259.1875 0.015625)"/>
      <use xlink:href="#DejaVuSans-33" transform="translate(1322.810547 0.015625)"/>
      <use xlink:href="#DejaVuSans-33" transform="translate(1386.433594 0.015625)"/>
      <use xlink:href="#DejaVuSans-29" transform="translate(1450.056641 0.015625)"/>
     </g>
    </g>
    <g id="line2d_66">
     <path d="M 430.92 179.708312 
L 440.92 179.708312 
L 450.92 179.708312 
" style="fill: none; stroke: #d62728; stroke-width: 2; stroke-linecap: square"/>
     <g>
      <use xlink:href="#mda226f3ef0" x="440.92" y="179.708312" style="fill: #d62728; stroke: #d62728"/>
     </g>
    </g>
    <g id="text_23">
     <!-- Local-degree -->
     <g transform="translate(458.92 183.208312) scale(0.1 -0.1)">
      <defs>
       <path id="DejaVuSans-4c" d="M 628 4666 
L 1259 4666 
L 1259 531 
L 3531 531 
L 3531 0 
L 628 0 
L 628 4666 
z
" transform="scale(0.015625)"/>
       <path id="DejaVuSans-63" d="M 3122 3366 
L 3122 2828 
Q 2878 2963 2633 3030 
Q 2388 3097 2138 3097 
Q 1578 3097 1268 2742 
Q 959 2388 959 1747 
Q 959 1106 1268 751 
Q 1578 397 2138 397 
Q 2388 397 2633 464 
Q 2878 531 3122 666 
L 3122 134 
Q 2881 22 2623 -34 
Q 2366 -91 2075 -91 
Q 1284 -91 818 406 
Q 353 903 353 1747 
Q 353 2603 823 3093 
Q 1294 3584 2113 3584 
Q 2378 3584 2631 3529 
Q 2884 3475 3122 3366 
z
" transform="scale(0.015625)"/>
       <path id="DejaVuSans-6c" d="M 603 4863 
L 1178 4863 
L 1178 0 
L 603 0 
L 603 4863 
z
" transform="scale(0.015625)"/>
      </defs>
      <use xlink:href="#DejaVuSans-4c"/>
      <use xlink:href="#DejaVuSans-6f" x="53.962891"/>
      <use xlink:href="#DejaVuSans-63" x="115.144531"/>
      <use xlink:href="#DejaVuSans-61" x="170.125"/>
      <use xlink:href="#DejaVuSans-6c" x="231.404297"/>
      <use xlink:href="#DejaVuSans-2d" x="259.1875"/>
      <use xlink:href="#DejaVuSans-64" x="295.271484"/>
      <use xlink:href="#DejaVuSans-65" x="358.748047"/>
      <use xlink:href="#DejaVuSans-67" x="420.271484"/>
      <use xlink:href="#DejaVuSans-72" x="483.748047"/>
      <use xlink:href="#DejaVuSans-65" x="522.611328"/>
      <use xlink:href="#DejaVuSans-65" x="584.134766"/>
     </g>
    </g>
    <g id="line2d_67">
     <path d="M 430.92 194.386437 
L 440.92 194.386437 
L 450.92 194.386437 
" style="fill: none; stroke: #9467bd; stroke-width: 2; stroke-linecap: square"/>
     <g>
      <use xlink:href="#m7715a71ee3" x="440.92" y="194.386437" style="fill: #9467bd; stroke: #9467bd; stroke-linejoin: miter"/>
     </g>
    </g>
    <g id="text_24">
     <!-- FMMC -->
     <g transform="translate(458.92 197.886437) scale(0.1 -0.1)">
      <defs>
       <path id="DejaVuSans-46" d="M 628 4666 
L 3309 4666 
L 3309 4134 
L 1259 4134 
L 1259 2759 
L 3109 2759 
L 3109 2228 
L 1259 2228 
L 1259 0 
L 628 0 
L 628 4666 
z
" transform="scale(0.015625)"/>
      </defs>
      <use xlink:href="#DejaVuSans-46"/>
      <use xlink:href="#DejaVuSans-4d" x="57.519531"/>
      <use xlink:href="#DejaVuSans-4d" x="143.798828"/>
      <use xlink:href="#DejaVuSans-43" x="230.078125"/>
     </g>
    </g>
    <g id="line2d_68">
     <path d="M 430.92 209.064562 
L 440.92 209.064562 
L 450.92 209.064562 
" style="fill: none; stroke: #8c564b; stroke-width: 2; stroke-linecap: square"/>
     <g>
      <use xlink:href="#m7db0736b3c" x="440.92" y="209.064562" style="fill: #8c564b; stroke: #8c564b; stroke-linejoin: bevel"/>
     </g>
    </g>
    <g id="text_25">
     <!-- FDLA -->
     <g transform="translate(458.92 212.564562) scale(0.1 -0.1)">
      <defs>
       <path id="DejaVuSans-44" d="M 1259 4147 
L 1259 519 
L 2022 519 
Q 2988 519 3436 956 
Q 3884 1394 3884 2338 
Q 3884 3275 3436 3711 
Q 2988 4147 2022 4147 
L 1259 4147 
z
M 628 4666 
L 1925 4666 
Q 3281 4666 3915 4102 
Q 4550 3538 4550 2338 
Q 4550 1131 3912 565 
Q 3275 0 1925 0 
L 628 0 
L 628 4666 
z
" transform="scale(0.015625)"/>
       <path id="DejaVuSans-41" d="M 2188 4044 
L 1331 1722 
L 3047 1722 
L 2188 4044 
z
M 1831 4666 
L 2547 4666 
L 4325 0 
L 3669 0 
L 3244 1197 
L 1141 1197 
L 716 0 
L 50 0 
L 1831 4666 
z
" transform="scale(0.015625)"/>
      </defs>
      <use xlink:href="#DejaVuSans-46"/>
      <use xlink:href="#DejaVuSans-44" x="57.519531"/>
      <use xlink:href="#DejaVuSans-4c" x="134.521484"/>
      <use xlink:href="#DejaVuSans-41" x="192.484375"/>
     </g>
    </g>
   </g>
  </g>
  <g id="patch_13">
   <path d="M 118.288799 273.425745 
Q 162.8244 237.426473 207.36 201.4272 
" style="fill: none; stroke: #000000; stroke-linecap: round"/>
  </g>
  <g id="text_26">
   <!-- Big network -->
   <g transform="translate(192.519 16.318125) scale(0.12 -0.12)">
    <defs>
     <path id="DejaVuSans-42" d="M 1259 2228 
L 1259 519 
L 2272 519 
Q 2781 519 3026 730 
Q 3272 941 3272 1375 
Q 3272 1813 3026 2020 
Q 2781 2228 2272 2228 
L 1259 2228 
z
M 1259 4147 
L 1259 2741 
L 2194 2741 
Q 2656 2741 2882 2914 
Q 3109 3088 3109 3444 
Q 3109 3797 2882 3972 
Q 2656 4147 2194 4147 
L 1259 4147 
z
M 628 4666 
L 2241 4666 
Q 2963 4666 3353 4366 
Q 3744 4066 3744 3513 
Q 3744 3084 3544 2831 
Q 3344 2578 2956 2516 
Q 3422 2416 3680 2098 
Q 3938 1781 3938 1306 
Q 3938 681 3513 340 
Q 3088 0 2303 0 
L 628 0 
L 628 4666 
z
" transform="scale(0.015625)"/>
     <path id="DejaVuSans-77" d="M 269 3500 
L 844 3500 
L 1563 769 
L 2278 3500 
L 2956 3500 
L 3675 769 
L 4391 3500 
L 4966 3500 
L 4050 0 
L 3372 0 
L 2619 2869 
L 1863 0 
L 1184 0 
L 269 3500 
z
" transform="scale(0.015625)"/>
     <path id="DejaVuSans-6b" d="M 581 4863 
L 1159 4863 
L 1159 1991 
L 2875 3500 
L 3609 3500 
L 1753 1863 
L 3688 0 
L 2938 0 
L 1159 1709 
L 1159 0 
L 581 0 
L 581 4863 
z
" transform="scale(0.015625)"/>
    </defs>
    <use xlink:href="#DejaVuSans-42"/>
    <use xlink:href="#DejaVuSans-69" x="68.603516"/>
    <use xlink:href="#DejaVuSans-67" x="96.386719"/>
    <use xlink:href="#DejaVuSans-20" x="159.863281"/>
    <use xlink:href="#DejaVuSans-6e" x="191.650391"/>
    <use xlink:href="#DejaVuSans-65" x="255.029297"/>
    <use xlink:href="#DejaVuSans-74" x="316.552734"/>
    <use xlink:href="#DejaVuSans-77" x="355.761719"/>
    <use xlink:href="#DejaVuSans-6f" x="437.548828"/>
    <use xlink:href="#DejaVuSans-72" x="498.730469"/>
    <use xlink:href="#DejaVuSans-6b" x="539.84375"/>
   </g>
  </g>
  <g id="text_27">
   <!-- Timesteps -->
   <g transform="translate(197.599313 339.936375) scale(0.12 -0.12)">
    <defs>
     <path id="DejaVuSans-54" d="M -19 4666 
L 3928 4666 
L 3928 4134 
L 2272 4134 
L 2272 0 
L 1638 0 
L 1638 4134 
L -19 4134 
L -19 4666 
z
" transform="scale(0.015625)"/>
     <path id="DejaVuSans-70" d="M 1159 525 
L 1159 -1331 
L 581 -1331 
L 581 3500 
L 1159 3500 
L 1159 2969 
Q 1341 3281 1617 3432 
Q 1894 3584 2278 3584 
Q 2916 3584 3314 3078 
Q 3713 2572 3713 1747 
Q 3713 922 3314 415 
Q 2916 -91 2278 -91 
Q 1894 -91 1617 61 
Q 1341 213 1159 525 
z
M 3116 1747 
Q 3116 2381 2855 2742 
Q 2594 3103 2138 3103 
Q 1681 3103 1420 2742 
Q 1159 2381 1159 1747 
Q 1159 1113 1420 752 
Q 1681 391 2138 391 
Q 2594 391 2855 752 
Q 3116 1113 3116 1747 
z
" transform="scale(0.015625)"/>
    </defs>
    <use xlink:href="#DejaVuSans-54"/>
    <use xlink:href="#DejaVuSans-69" x="57.958984"/>
    <use xlink:href="#DejaVuSans-6d" x="85.742188"/>
    <use xlink:href="#DejaVuSans-65" x="183.154297"/>
    <use xlink:href="#DejaVuSans-73" x="244.677734"/>
    <use xlink:href="#DejaVuSans-74" x="296.777344"/>
    <use xlink:href="#DejaVuSans-65" x="335.986328"/>
    <use xlink:href="#DejaVuSans-70" x="397.509766"/>
    <use xlink:href="#DejaVuSans-73" x="460.986328"/>
   </g>
  </g>
  <g id="text_28">
   <!-- Mean estimate error for the best arm -->
   <g transform="translate(16.318125 284.760187) rotate(-90) scale(0.12 -0.12)">
    <defs>
     <path id="DejaVuSans-66" d="M 2375 4863 
L 2375 4384 
L 1825 4384 
Q 1516 4384 1395 4259 
Q 1275 4134 1275 3809 
L 1275 3500 
L 2222 3500 
L 2222 3053 
L 1275 3053 
L 1275 0 
L 697 0 
L 697 3053 
L 147 3053 
L 147 3500 
L 697 3500 
L 697 3744 
Q 697 4328 969 4595 
Q 1241 4863 1831 4863 
L 2375 4863 
z
" transform="scale(0.015625)"/>
     <path id="DejaVuSans-68" d="M 3513 2113 
L 3513 0 
L 2938 0 
L 2938 2094 
Q 2938 2591 2744 2837 
Q 2550 3084 2163 3084 
Q 1697 3084 1428 2787 
Q 1159 2491 1159 1978 
L 1159 0 
L 581 0 
L 581 4863 
L 1159 4863 
L 1159 2956 
Q 1366 3272 1645 3428 
Q 1925 3584 2291 3584 
Q 2894 3584 3203 3211 
Q 3513 2838 3513 2113 
z
" transform="scale(0.015625)"/>
     <path id="DejaVuSans-62" d="M 3116 1747 
Q 3116 2381 2855 2742 
Q 2594 3103 2138 3103 
Q 1681 3103 1420 2742 
Q 1159 2381 1159 1747 
Q 1159 1113 1420 752 
Q 1681 391 2138 391 
Q 2594 391 2855 752 
Q 3116 1113 3116 1747 
z
M 1159 2969 
Q 1341 3281 1617 3432 
Q 1894 3584 2278 3584 
Q 2916 3584 3314 3078 
Q 3713 2572 3713 1747 
Q 3713 922 3314 415 
Q 2916 -91 2278 -91 
Q 1894 -91 1617 61 
Q 1341 213 1159 525 
L 1159 0 
L 581 0 
L 581 4863 
L 1159 4863 
L 1159 2969 
z
" transform="scale(0.015625)"/>
    </defs>
    <use xlink:href="#DejaVuSans-4d"/>
    <use xlink:href="#DejaVuSans-65" x="86.279297"/>
    <use xlink:href="#DejaVuSans-61" x="147.802734"/>
    <use xlink:href="#DejaVuSans-6e" x="209.082031"/>
    <use xlink:href="#DejaVuSans-20" x="272.460938"/>
    <use xlink:href="#DejaVuSans-65" x="304.248047"/>
    <use xlink:href="#DejaVuSans-73" x="365.771484"/>
    <use xlink:href="#DejaVuSans-74" x="417.871094"/>
    <use xlink:href="#DejaVuSans-69" x="457.080078"/>
    <use xlink:href="#DejaVuSans-6d" x="484.863281"/>
    <use xlink:href="#DejaVuSans-61" x="582.275391"/>
    <use xlink:href="#DejaVuSans-74" x="643.554688"/>
    <use xlink:href="#DejaVuSans-65" x="682.763672"/>
    <use xlink:href="#DejaVuSans-20" x="744.287109"/>
    <use xlink:href="#DejaVuSans-65" x="776.074219"/>
    <use xlink:href="#DejaVuSans-72" x="837.597656"/>
    <use xlink:href="#DejaVuSans-72" x="876.960938"/>
    <use xlink:href="#DejaVuSans-6f" x="915.824219"/>
    <use xlink:href="#DejaVuSans-72" x="977.005859"/>
    <use xlink:href="#DejaVuSans-20" x="1018.119141"/>
    <use xlink:href="#DejaVuSans-66" x="1049.90625"/>
    <use xlink:href="#DejaVuSans-6f" x="1085.111328"/>
    <use xlink:href="#DejaVuSans-72" x="1146.292969"/>
    <use xlink:href="#DejaVuSans-20" x="1187.40625"/>
    <use xlink:href="#DejaVuSans-74" x="1219.193359"/>
    <use xlink:href="#DejaVuSans-68" x="1258.402344"/>
    <use xlink:href="#DejaVuSans-65" x="1321.78125"/>
    <use xlink:href="#DejaVuSans-20" x="1383.304688"/>
    <use xlink:href="#DejaVuSans-62" x="1415.091797"/>
    <use xlink:href="#DejaVuSans-65" x="1478.568359"/>
    <use xlink:href="#DejaVuSans-73" x="1540.091797"/>
    <use xlink:href="#DejaVuSans-74" x="1592.191406"/>
    <use xlink:href="#DejaVuSans-20" x="1631.400391"/>
    <use xlink:href="#DejaVuSans-61" x="1663.1875"/>
    <use xlink:href="#DejaVuSans-72" x="1724.466797"/>
    <use xlink:href="#DejaVuSans-6d" x="1763.830078"/>
   </g>
  </g>
 </g>
 <defs>
  <clipPath id="p6961b9473b">
   <rect x="55.584" y="41.76" width="357.12" height="266.112"/>
  </clipPath>
  <clipPath id="p8b7f491f0b">
   <rect x="207.36" y="55.0656" width="196.416" height="146.3616"/>
  </clipPath>
 </defs>
</svg>
