<?xml version="1.0" encoding="utf-8" standalone="no"?>
<!DOCTYPE svg PUBLIC "-//W3C//DTD SVG 1.1//EN"
  "http://www.w3.org/Graphics/SVG/1.1/DTD/svg11.dtd">
<svg xmlns:xlink="http://www.w3.org/1999/xlink" width="422.134781pt" height="368.824pt" viewBox="0 0 422.134781 368.824" xmlns="http://www.w3.org/2000/svg" version="1.1">
 <metadata>
  <rdf:RDF xmlns:dc="http://purl.org/dc/elements/1.1/" xmlns:cc="http://creativecommons.org/ns#" xmlns:rdf="http://www.w3.org/1999/02/22-rdf-syntax-ns#">
   <cc:Work>
    <dc:type rdf:resource="http://purl.org/dc/dcmitype/StillImage"/>
    <dc:date>2024-06-06T16:36:53.134847</dc:date>
    <dc:format>image/svg+xml</dc:format>
    <dc:creator>
     <cc:Agent>
      <dc:title>Matplotlib v3.9.0, https://matplotlib.org/</dc:title>
     </cc:Agent>
    </dc:creator>
   </cc:Work>
  </rdf:RDF>
 </metadata>
 <defs>
  <style type="text/css">*{stroke-linejoin: round; stroke-linecap: butt}</style>
 </defs>
 <g id="figure_1">
  <g id="patch_1">
   <path d="M 0 368.824 
L 422.134781 368.824 
L 422.134781 0 
L 0 0 
z
" style="fill: #ffffff"/>
  </g>
  <g id="axes_1">
   <g id="patch_2">
    <path d="M 55.584 327.064 
L 412.704 327.064 
L 412.704 60.952 
L 55.584 60.952 
z
" style="fill: #ffffff"/>
   </g>
   <g id="PolyCollection_1">
    <path d="M 220.806489 302.075367 
L 220.806489 304.997716 
L 302.132778 304.997716 
L 302.132778 302.075367 
L 302.132778 302.075367 
L 220.806489 302.075367 
z
" clip-path="url(#p08e66ab26c)" style="fill-opacity: 0.2"/>
   </g>
   <g id="matplotlib.axis_1">
    <g id="xtick_1">
     <g id="line2d_1">
      <path d="M 71.816727 327.064 
L 71.816727 60.952 
" clip-path="url(#p08e66ab26c)" style="fill: none; stroke: #b0b0b0; stroke-width: 0.8; stroke-linecap: square"/>
     </g>
     <g id="line2d_2">
      <defs>
       <path id="m775ca679b6" d="M 0 0 
L 0 3.5 
" style="stroke: #000000; stroke-width: 0.8"/>
      </defs>
      <g>
       <use xlink:href="#m775ca679b6" x="71.816727" y="327.064" style="stroke: #000000; stroke-width: 0.8"/>
      </g>
     </g>
     <g id="text_1">
      <!-- 0 -->
      <g transform="translate(67.362977 344.701812) scale(0.14 -0.14)">
       <defs>
        <path id="DejaVuSans-30" d="M 2034 4250 
Q 1547 4250 1301 3770 
Q 1056 3291 1056 2328 
Q 1056 1369 1301 889 
Q 1547 409 2034 409 
Q 2525 409 2770 889 
Q 3016 1369 3016 2328 
Q 3016 3291 2770 3770 
Q 2525 4250 2034 4250 
z
M 2034 4750 
Q 2819 4750 3233 4129 
Q 3647 3509 3647 2328 
Q 3647 1150 3233 529 
Q 2819 -91 2034 -91 
Q 1250 -91 836 529 
Q 422 1150 422 2328 
Q 422 3509 836 4129 
Q 1250 4750 2034 4750 
z
" transform="scale(0.015625)"/>
       </defs>
       <use xlink:href="#DejaVuSans-30"/>
      </g>
     </g>
    </g>
    <g id="xtick_2">
     <g id="line2d_3">
      <path d="M 136.877758 327.064 
L 136.877758 60.952 
" clip-path="url(#p08e66ab26c)" style="fill: none; stroke: #b0b0b0; stroke-width: 0.8; stroke-linecap: square"/>
     </g>
     <g id="line2d_4">
      <g>
       <use xlink:href="#m775ca679b6" x="136.877758" y="327.064" style="stroke: #000000; stroke-width: 0.8"/>
      </g>
     </g>
     <g id="text_2">
      <!-- 100 -->
      <g transform="translate(123.516508 344.701812) scale(0.14 -0.14)">
       <defs>
        <path id="DejaVuSans-31" d="M 794 531 
L 1825 531 
L 1825 4091 
L 703 3866 
L 703 4441 
L 1819 4666 
L 2450 4666 
L 2450 531 
L 3481 531 
L 3481 0 
L 794 0 
L 794 531 
z
" transform="scale(0.015625)"/>
       </defs>
       <use xlink:href="#DejaVuSans-31"/>
       <use xlink:href="#DejaVuSans-30" x="63.623047"/>
       <use xlink:href="#DejaVuSans-30" x="127.246094"/>
      </g>
     </g>
    </g>
    <g id="xtick_3">
     <g id="line2d_5">
      <path d="M 201.93879 327.064 
L 201.93879 60.952 
" clip-path="url(#p08e66ab26c)" style="fill: none; stroke: #b0b0b0; stroke-width: 0.8; stroke-linecap: square"/>
     </g>
     <g id="line2d_6">
      <g>
       <use xlink:href="#m775ca679b6" x="201.93879" y="327.064" style="stroke: #000000; stroke-width: 0.8"/>
      </g>
     </g>
     <g id="text_3">
      <!-- 200 -->
      <g transform="translate(188.57754 344.701812) scale(0.14 -0.14)">
       <defs>
        <path id="DejaVuSans-32" d="M 1228 531 
L 3431 531 
L 3431 0 
L 469 0 
L 469 531 
Q 828 903 1448 1529 
Q 2069 2156 2228 2338 
Q 2531 2678 2651 2914 
Q 2772 3150 2772 3378 
Q 2772 3750 2511 3984 
Q 2250 4219 1831 4219 
Q 1534 4219 1204 4116 
Q 875 4013 500 3803 
L 500 4441 
Q 881 4594 1212 4672 
Q 1544 4750 1819 4750 
Q 2544 4750 2975 4387 
Q 3406 4025 3406 3419 
Q 3406 3131 3298 2873 
Q 3191 2616 2906 2266 
Q 2828 2175 2409 1742 
Q 1991 1309 1228 531 
z
" transform="scale(0.015625)"/>
       </defs>
       <use xlink:href="#DejaVuSans-32"/>
       <use xlink:href="#DejaVuSans-30" x="63.623047"/>
       <use xlink:href="#DejaVuSans-30" x="127.246094"/>
      </g>
     </g>
    </g>
    <g id="xtick_4">
     <g id="line2d_7">
      <path d="M 266.999821 327.064 
L 266.999821 60.952 
" clip-path="url(#p08e66ab26c)" style="fill: none; stroke: #b0b0b0; stroke-width: 0.8; stroke-linecap: square"/>
     </g>
     <g id="line2d_8">
      <g>
       <use xlink:href="#m775ca679b6" x="266.999821" y="327.064" style="stroke: #000000; stroke-width: 0.8"/>
      </g>
     </g>
     <g id="text_4">
      <!-- 300 -->
      <g transform="translate(253.638571 344.701812) scale(0.14 -0.14)">
       <defs>
        <path id="DejaVuSans-33" d="M 2597 2516 
Q 3050 2419 3304 2112 
Q 3559 1806 3559 1356 
Q 3559 666 3084 287 
Q 2609 -91 1734 -91 
Q 1441 -91 1130 -33 
Q 819 25 488 141 
L 488 750 
Q 750 597 1062 519 
Q 1375 441 1716 441 
Q 2309 441 2620 675 
Q 2931 909 2931 1356 
Q 2931 1769 2642 2001 
Q 2353 2234 1838 2234 
L 1294 2234 
L 1294 2753 
L 1863 2753 
Q 2328 2753 2575 2939 
Q 2822 3125 2822 3475 
Q 2822 3834 2567 4026 
Q 2313 4219 1838 4219 
Q 1578 4219 1281 4162 
Q 984 4106 628 3988 
L 628 4550 
Q 988 4650 1302 4700 
Q 1616 4750 1894 4750 
Q 2613 4750 3031 4423 
Q 3450 4097 3450 3541 
Q 3450 3153 3228 2886 
Q 3006 2619 2597 2516 
z
" transform="scale(0.015625)"/>
       </defs>
       <use xlink:href="#DejaVuSans-33"/>
       <use xlink:href="#DejaVuSans-30" x="63.623047"/>
       <use xlink:href="#DejaVuSans-30" x="127.246094"/>
      </g>
     </g>
    </g>
    <g id="xtick_5">
     <g id="line2d_9">
      <path d="M 332.060852 327.064 
L 332.060852 60.952 
" clip-path="url(#p08e66ab26c)" style="fill: none; stroke: #b0b0b0; stroke-width: 0.8; stroke-linecap: square"/>
     </g>
     <g id="line2d_10">
      <g>
       <use xlink:href="#m775ca679b6" x="332.060852" y="327.064" style="stroke: #000000; stroke-width: 0.8"/>
      </g>
     </g>
     <g id="text_5">
      <!-- 400 -->
      <g transform="translate(318.699602 344.701812) scale(0.14 -0.14)">
       <defs>
        <path id="DejaVuSans-34" d="M 2419 4116 
L 825 1625 
L 2419 1625 
L 2419 4116 
z
M 2253 4666 
L 3047 4666 
L 3047 1625 
L 3713 1625 
L 3713 1100 
L 3047 1100 
L 3047 0 
L 2419 0 
L 2419 1100 
L 313 1100 
L 313 1709 
L 2253 4666 
z
" transform="scale(0.015625)"/>
       </defs>
       <use xlink:href="#DejaVuSans-34"/>
       <use xlink:href="#DejaVuSans-30" x="63.623047"/>
       <use xlink:href="#DejaVuSans-30" x="127.246094"/>
      </g>
     </g>
    </g>
    <g id="xtick_6">
     <g id="line2d_11">
      <path d="M 397.121883 327.064 
L 397.121883 60.952 
" clip-path="url(#p08e66ab26c)" style="fill: none; stroke: #b0b0b0; stroke-width: 0.8; stroke-linecap: square"/>
     </g>
     <g id="line2d_12">
      <g>
       <use xlink:href="#m775ca679b6" x="397.121883" y="327.064" style="stroke: #000000; stroke-width: 0.8"/>
      </g>
     </g>
     <g id="text_6">
      <!-- 500 -->
      <g transform="translate(383.760633 344.701812) scale(0.14 -0.14)">
       <defs>
        <path id="DejaVuSans-35" d="M 691 4666 
L 3169 4666 
L 3169 4134 
L 1269 4134 
L 1269 2991 
Q 1406 3038 1543 3061 
Q 1681 3084 1819 3084 
Q 2600 3084 3056 2656 
Q 3513 2228 3513 1497 
Q 3513 744 3044 326 
Q 2575 -91 1722 -91 
Q 1428 -91 1123 -41 
Q 819 9 494 109 
L 494 744 
Q 775 591 1075 516 
Q 1375 441 1709 441 
Q 2250 441 2565 725 
Q 2881 1009 2881 1497 
Q 2881 1984 2565 2268 
Q 2250 2553 1709 2553 
Q 1456 2553 1204 2497 
Q 953 2441 691 2322 
L 691 4666 
z
" transform="scale(0.015625)"/>
       </defs>
       <use xlink:href="#DejaVuSans-35"/>
       <use xlink:href="#DejaVuSans-30" x="63.623047"/>
       <use xlink:href="#DejaVuSans-30" x="127.246094"/>
      </g>
     </g>
    </g>
   </g>
   <g id="matplotlib.axis_2">
    <g id="ytick_1">
     <g id="line2d_13">
      <path d="M 55.584 314.968 
L 412.704 314.968 
" clip-path="url(#p08e66ab26c)" style="fill: none; stroke: #b0b0b0; stroke-width: 0.8; stroke-linecap: square"/>
     </g>
     <g id="line2d_14">
      <defs>
       <path id="m17c00c83d4" d="M 0 0 
L -3.5 0 
" style="stroke: #000000; stroke-width: 0.8"/>
      </defs>
      <g>
       <use xlink:href="#m17c00c83d4" x="55.584" y="314.968" style="stroke: #000000; stroke-width: 0.8"/>
      </g>
     </g>
     <g id="text_7">
      <!-- 0.0 -->
      <g transform="translate(26.319625 320.286906) scale(0.14 -0.14)">
       <defs>
        <path id="DejaVuSans-2e" d="M 684 794 
L 1344 794 
L 1344 0 
L 684 0 
L 684 794 
z
" transform="scale(0.015625)"/>
       </defs>
       <use xlink:href="#DejaVuSans-30"/>
       <use xlink:href="#DejaVuSans-2e" x="63.623047"/>
       <use xlink:href="#DejaVuSans-30" x="95.410156"/>
      </g>
     </g>
    </g>
    <g id="ytick_2">
     <g id="line2d_15">
      <path d="M 55.584 273.094428 
L 412.704 273.094428 
" clip-path="url(#p08e66ab26c)" style="fill: none; stroke: #b0b0b0; stroke-width: 0.8; stroke-linecap: square"/>
     </g>
     <g id="line2d_16">
      <g>
       <use xlink:href="#m17c00c83d4" x="55.584" y="273.094428" style="stroke: #000000; stroke-width: 0.8"/>
      </g>
     </g>
     <g id="text_8">
      <!-- 0.1 -->
      <g transform="translate(26.319625 278.413334) scale(0.14 -0.14)">
       <use xlink:href="#DejaVuSans-30"/>
       <use xlink:href="#DejaVuSans-2e" x="63.623047"/>
       <use xlink:href="#DejaVuSans-31" x="95.410156"/>
      </g>
     </g>
    </g>
    <g id="ytick_3">
     <g id="line2d_17">
      <path d="M 55.584 231.220855 
L 412.704 231.220855 
" clip-path="url(#p08e66ab26c)" style="fill: none; stroke: #b0b0b0; stroke-width: 0.8; stroke-linecap: square"/>
     </g>
     <g id="line2d_18">
      <g>
       <use xlink:href="#m17c00c83d4" x="55.584" y="231.220855" style="stroke: #000000; stroke-width: 0.8"/>
      </g>
     </g>
     <g id="text_9">
      <!-- 0.2 -->
      <g transform="translate(26.319625 236.539761) scale(0.14 -0.14)">
       <use xlink:href="#DejaVuSans-30"/>
       <use xlink:href="#DejaVuSans-2e" x="63.623047"/>
       <use xlink:href="#DejaVuSans-32" x="95.410156"/>
      </g>
     </g>
    </g>
    <g id="ytick_4">
     <g id="line2d_19">
      <path d="M 55.584 189.347283 
L 412.704 189.347283 
" clip-path="url(#p08e66ab26c)" style="fill: none; stroke: #b0b0b0; stroke-width: 0.8; stroke-linecap: square"/>
     </g>
     <g id="line2d_20">
      <g>
       <use xlink:href="#m17c00c83d4" x="55.584" y="189.347283" style="stroke: #000000; stroke-width: 0.8"/>
      </g>
     </g>
     <g id="text_10">
      <!-- 0.3 -->
      <g transform="translate(26.319625 194.666189) scale(0.14 -0.14)">
       <use xlink:href="#DejaVuSans-30"/>
       <use xlink:href="#DejaVuSans-2e" x="63.623047"/>
       <use xlink:href="#DejaVuSans-33" x="95.410156"/>
      </g>
     </g>
    </g>
    <g id="ytick_5">
     <g id="line2d_21">
      <path d="M 55.584 147.47371 
L 412.704 147.47371 
" clip-path="url(#p08e66ab26c)" style="fill: none; stroke: #b0b0b0; stroke-width: 0.8; stroke-linecap: square"/>
     </g>
     <g id="line2d_22">
      <g>
       <use xlink:href="#m17c00c83d4" x="55.584" y="147.47371" style="stroke: #000000; stroke-width: 0.8"/>
      </g>
     </g>
     <g id="text_11">
      <!-- 0.4 -->
      <g transform="translate(26.319625 152.792617) scale(0.14 -0.14)">
       <use xlink:href="#DejaVuSans-30"/>
       <use xlink:href="#DejaVuSans-2e" x="63.623047"/>
       <use xlink:href="#DejaVuSans-34" x="95.410156"/>
      </g>
     </g>
    </g>
    <g id="ytick_6">
     <g id="line2d_23">
      <path d="M 55.584 105.600138 
L 412.704 105.600138 
" clip-path="url(#p08e66ab26c)" style="fill: none; stroke: #b0b0b0; stroke-width: 0.8; stroke-linecap: square"/>
     </g>
     <g id="line2d_24">
      <g>
       <use xlink:href="#m17c00c83d4" x="55.584" y="105.600138" style="stroke: #000000; stroke-width: 0.8"/>
      </g>
     </g>
     <g id="text_12">
      <!-- 0.5 -->
      <g transform="translate(26.319625 110.919044) scale(0.14 -0.14)">
       <use xlink:href="#DejaVuSans-30"/>
       <use xlink:href="#DejaVuSans-2e" x="63.623047"/>
       <use xlink:href="#DejaVuSans-35" x="95.410156"/>
      </g>
     </g>
    </g>
    <g id="ytick_7">
     <g id="line2d_25">
      <path d="M 55.584 63.726565 
L 412.704 63.726565 
" clip-path="url(#p08e66ab26c)" style="fill: none; stroke: #b0b0b0; stroke-width: 0.8; stroke-linecap: square"/>
     </g>
     <g id="line2d_26">
      <g>
       <use xlink:href="#m17c00c83d4" x="55.584" y="63.726565" style="stroke: #000000; stroke-width: 0.8"/>
      </g>
     </g>
     <g id="text_13">
      <!-- 0.6 -->
      <g transform="translate(26.319625 69.045472) scale(0.14 -0.14)">
       <defs>
        <path id="DejaVuSans-36" d="M 2113 2584 
Q 1688 2584 1439 2293 
Q 1191 2003 1191 1497 
Q 1191 994 1439 701 
Q 1688 409 2113 409 
Q 2538 409 2786 701 
Q 3034 994 3034 1497 
Q 3034 2003 2786 2293 
Q 2538 2584 2113 2584 
z
M 3366 4563 
L 3366 3988 
Q 3128 4100 2886 4159 
Q 2644 4219 2406 4219 
Q 1781 4219 1451 3797 
Q 1122 3375 1075 2522 
Q 1259 2794 1537 2939 
Q 1816 3084 2150 3084 
Q 2853 3084 3261 2657 
Q 3669 2231 3669 1497 
Q 3669 778 3244 343 
Q 2819 -91 2113 -91 
Q 1303 -91 875 529 
Q 447 1150 447 2328 
Q 447 3434 972 4092 
Q 1497 4750 2381 4750 
Q 2619 4750 2861 4703 
Q 3103 4656 3366 4563 
z
" transform="scale(0.015625)"/>
       </defs>
       <use xlink:href="#DejaVuSans-30"/>
       <use xlink:href="#DejaVuSans-2e" x="63.623047"/>
       <use xlink:href="#DejaVuSans-36" x="95.410156"/>
      </g>
     </g>
    </g>
   </g>
   <g id="line2d_27">
    <path d="M 71.816727 314.968 
L 103.696633 314.968 
L 104.347243 73.048 
L 104.997853 96.846029 
L 106.299074 108.583832 
L 110.853346 148.580583 
L 112.154567 157.894769 
L 114.106398 170.174577 
L 116.058228 180.978737 
L 118.66067 193.495036 
L 120.612501 201.828803 
L 122.564332 209.262912 
L 125.166773 217.945613 
L 127.118604 223.828434 
L 130.371655 232.091501 
L 131.672876 235.036768 
L 133.624707 239.156847 
L 135.576538 242.847898 
L 140.13081 250.522833 
L 142.733251 254.246616 
L 145.335692 257.686934 
L 147.287523 259.961832 
L 151.191185 263.981134 
L 153.793627 266.373951 
L 157.046678 269.075115 
L 158.998509 270.580494 
L 162.902171 273.245991 
L 166.805833 275.574177 
L 174.613156 279.469754 
L 177.215598 280.550502 
L 181.11926 282.066986 
L 184.372311 283.297715 
L 191.529025 285.616567 
L 196.733907 287.023534 
L 203.24001 288.570565 
L 208.444893 289.671782 
L 212.999165 290.539187 
L 227.312592 292.827118 
L 242.276629 294.713836 
L 246.830901 295.186893 
L 274.156534 297.537709 
L 299.530336 299.123543 
L 331.410242 300.617134 
L 342.470617 301.034538 
L 354.832213 301.462722 
L 396.471273 302.598787 
L 396.471273 302.598787 
" clip-path="url(#p08e66ab26c)" style="fill: none; stroke: #1f77b4; stroke-width: 2; stroke-linecap: square"/>
    <defs>
     <path id="m22b160fe8a" d="M 0 3 
C 0.795609 3 1.55874 2.683901 2.12132 2.12132 
C 2.683901 1.55874 3 0.795609 3 0 
C 3 -0.795609 2.683901 -1.55874 2.12132 -2.12132 
C 1.55874 -2.683901 0.795609 -3 0 -3 
C -0.795609 -3 -1.55874 -2.683901 -2.12132 -2.12132 
C -2.683901 -1.55874 -3 -0.795609 -3 0 
C -3 0.795609 -2.683901 1.55874 -2.12132 2.12132 
C -1.55874 2.683901 -0.795609 3 0 3 
z
" style="stroke: #1f77b4"/>
    </defs>
    <g clip-path="url(#p08e66ab26c)">
     <use xlink:href="#m22b160fe8a" x="71.816727" y="314.968" style="fill: #1f77b4; stroke: #1f77b4"/>
     <use xlink:href="#m22b160fe8a" x="201.93879" y="288.291358" style="fill: #1f77b4; stroke: #1f77b4"/>
     <use xlink:href="#m22b160fe8a" x="332.060852" y="300.635437" style="fill: #1f77b4; stroke: #1f77b4"/>
    </g>
   </g>
   <g id="line2d_28">
    <path d="M 396.471273 327.064 
L 396.471273 60.952 
" clip-path="url(#p08e66ab26c)" style="fill: none; stroke-dasharray: 7.4,3.2; stroke-dashoffset: 0; stroke: #1f77b4; stroke-width: 2"/>
    <g clip-path="url(#p08e66ab26c)">
     <use xlink:href="#m22b160fe8a" x="396.471273" y="327.064" style="fill: #1f77b4; stroke: #1f77b4"/>
     <use xlink:href="#m22b160fe8a" x="396.471273" y="60.952" style="fill: #1f77b4; stroke: #1f77b4"/>
    </g>
   </g>
   <g id="line2d_29">
    <path d="M 71.816727 314.968 
L 103.696633 314.968 
L 104.347243 206.540087 
L 104.997853 191.324106 
L 105.648463 205.772434 
L 106.299074 215.342179 
L 106.949684 222.289781 
L 108.250905 232.605912 
L 109.552125 240.621225 
L 112.154567 252.803876 
L 113.455787 257.183592 
L 115.407618 262.894431 
L 116.058228 264.335268 
L 116.708839 263.209774 
L 117.359449 267.359214 
L 120.612501 273.354117 
L 123.214942 277.178356 
L 125.166773 279.680771 
L 127.118604 281.766452 
L 128.419824 283.049041 
L 129.070435 282.269608 
L 129.721045 284.153733 
L 131.022266 285.234959 
L 132.974097 286.656554 
L 139.4802 290.602482 
L 141.432031 291.441253 
L 143.383862 292.205214 
L 151.841796 295.094563 
L 155.094847 295.947138 
L 160.95034 297.142571 
L 164.854002 297.872753 
L 168.107053 298.430966 
L 177.866208 299.689531 
L 194.131466 301.197372 
L 197.384517 301.390502 
L 201.93879 301.688437 
L 205.842451 301.942267 
L 215.601606 302.466225 
L 229.915033 303.06054 
L 255.939445 303.773581 
L 293.674844 304.385109 
L 340.518786 304.811112 
L 365.241978 304.965584 
L 381.507236 305.037775 
L 396.471273 305.100297 
L 396.471273 305.100297 
" clip-path="url(#p08e66ab26c)" style="fill: none; stroke: #ff7f0e; stroke-width: 2; stroke-linecap: square"/>
    <defs>
     <path id="m4492829228" d="M 0 -3 
L -3 3 
L 3 3 
z
" style="stroke: #ff7f0e; stroke-linejoin: miter"/>
    </defs>
    <g clip-path="url(#p08e66ab26c)">
     <use xlink:href="#m4492829228" x="71.816727" y="314.968" style="fill: #ff7f0e; stroke: #ff7f0e; stroke-linejoin: miter"/>
     <use xlink:href="#m4492829228" x="201.93879" y="301.688437" style="fill: #ff7f0e; stroke: #ff7f0e; stroke-linejoin: miter"/>
     <use xlink:href="#m4492829228" x="332.060852" y="304.742555" style="fill: #ff7f0e; stroke: #ff7f0e; stroke-linejoin: miter"/>
    </g>
   </g>
   <g id="line2d_30">
    <path d="M 301.482167 327.064 
L 301.482167 60.952 
" clip-path="url(#p08e66ab26c)" style="fill: none; stroke-dasharray: 7.4,3.2; stroke-dashoffset: 0; stroke: #ff7f0e; stroke-width: 2"/>
    <g clip-path="url(#p08e66ab26c)">
     <use xlink:href="#m4492829228" x="301.482167" y="327.064" style="fill: #ff7f0e; stroke: #ff7f0e; stroke-linejoin: miter"/>
     <use xlink:href="#m4492829228" x="301.482167" y="60.952" style="fill: #ff7f0e; stroke: #ff7f0e; stroke-linejoin: miter"/>
    </g>
   </g>
   <g id="line2d_31">
    <path d="M 71.816727 314.968 
L 103.696633 314.968 
L 104.347243 222.332232 
L 104.997853 217.934057 
L 105.648463 229.320455 
L 106.299074 238.339886 
L 106.949684 244.380616 
L 107.600294 248.57861 
L 108.250905 251.70455 
L 110.202736 259.116844 
L 112.154567 265.386758 
L 114.106398 270.239662 
L 116.708839 275.146727 
L 119.96189 280.189213 
L 121.913721 282.508719 
L 125.817383 286.408626 
L 128.419824 288.447809 
L 133.624707 291.696297 
L 136.227148 292.922359 
L 143.383862 295.729775 
L 149.239354 297.529624 
L 151.191185 297.974083 
L 155.745457 298.957456 
L 164.203392 300.232054 
L 168.757664 300.837 
L 171.360105 301.203063 
L 180.468649 302.162732 
L 190.878414 302.972391 
L 204.541231 303.767405 
L 245.52968 305.077481 
L 272.855314 305.533313 
L 311.241322 305.890054 
L 319.699256 305.941902 
L 361.988926 306.133115 
L 396.471273 306.239365 
L 396.471273 306.239365 
" clip-path="url(#p08e66ab26c)" style="fill: none; stroke: #2ca02c; stroke-width: 2; stroke-linecap: square"/>
    <defs>
     <path id="m6ad8bf9546" d="M -3 3 
L 3 3 
L 3 -3 
L -3 -3 
z
" style="stroke: #2ca02c; stroke-linejoin: miter"/>
    </defs>
    <g clip-path="url(#p08e66ab26c)">
     <use xlink:href="#m6ad8bf9546" x="71.816727" y="314.968" style="fill: #2ca02c; stroke: #2ca02c; stroke-linejoin: miter"/>
     <use xlink:href="#m6ad8bf9546" x="201.93879" y="303.625444" style="fill: #2ca02c; stroke: #2ca02c; stroke-linejoin: miter"/>
     <use xlink:href="#m6ad8bf9546" x="332.060852" y="306.006192" style="fill: #2ca02c; stroke: #2ca02c; stroke-linejoin: miter"/>
    </g>
   </g>
   <g id="line2d_32">
    <path d="M 222.107709 327.064 
L 222.107709 60.952 
" clip-path="url(#p08e66ab26c)" style="fill: none; stroke-dasharray: 7.4,3.2; stroke-dashoffset: 0; stroke: #2ca02c; stroke-width: 2"/>
    <g clip-path="url(#p08e66ab26c)">
     <use xlink:href="#m6ad8bf9546" x="222.107709" y="327.064" style="fill: #2ca02c; stroke: #2ca02c; stroke-linejoin: miter"/>
     <use xlink:href="#m6ad8bf9546" x="222.107709" y="60.952" style="fill: #2ca02c; stroke: #2ca02c; stroke-linejoin: miter"/>
    </g>
   </g>
   <g id="line2d_33">
    <path d="M 71.816727 314.968 
L 103.696633 314.968 
L 104.347243 224.575367 
L 104.997853 219.864961 
L 105.648463 231.305417 
L 106.299074 240.001892 
L 106.949684 245.482649 
L 107.600294 249.261516 
L 108.901515 254.889258 
L 110.202736 259.815025 
L 111.503956 263.956968 
L 112.805177 267.627166 
L 114.757008 272.133139 
L 116.708839 275.730083 
L 118.66067 278.736223 
L 121.263111 282.17122 
L 123.214942 284.33063 
L 125.817383 286.682398 
L 128.419824 288.74211 
L 132.974097 291.518603 
L 140.78142 294.988365 
L 146.636913 296.798433 
L 155.745457 299.001463 
L 160.95034 299.882937 
L 163.552781 300.264785 
L 165.504612 300.570954 
L 190.227804 302.892454 
L 204.541231 303.665651 
L 218.204047 304.212259 
L 226.661981 304.472023 
L 236.421136 304.734303 
L 255.288835 305.095185 
L 262.445549 305.185002 
L 277.409586 305.372083 
L 291.072402 305.523338 
L 375.651743 305.987539 
L 396.471273 306.055059 
L 396.471273 306.055059 
" clip-path="url(#p08e66ab26c)" style="fill: none; stroke: #d62728; stroke-width: 2; stroke-linecap: square"/>
    <defs>
     <path id="mb5138d7b87" d="M -3 3 
L 3 -3 
M -3 -3 
L 3 3 
" style="stroke: #d62728"/>
    </defs>
    <g clip-path="url(#p08e66ab26c)">
     <use xlink:href="#mb5138d7b87" x="71.816727" y="314.968" style="fill: #d62728; stroke: #d62728"/>
     <use xlink:href="#mb5138d7b87" x="201.93879" y="303.569719" style="fill: #d62728; stroke: #d62728"/>
     <use xlink:href="#mb5138d7b87" x="332.060852" y="305.823854" style="fill: #d62728; stroke: #d62728"/>
    </g>
   </g>
   <g id="line2d_34">
    <path d="M 226.011371 327.064 
L 226.011371 60.952 
" clip-path="url(#p08e66ab26c)" style="fill: none; stroke-dasharray: 7.4,3.2; stroke-dashoffset: 0; stroke: #d62728; stroke-width: 2"/>
    <g clip-path="url(#p08e66ab26c)">
     <use xlink:href="#mb5138d7b87" x="226.011371" y="327.064" style="fill: #d62728; stroke: #d62728"/>
     <use xlink:href="#mb5138d7b87" x="226.011371" y="60.952" style="fill: #d62728; stroke: #d62728"/>
    </g>
   </g>
   <g id="line2d_35">
    <path d="M 71.816727 314.968 
L 103.696633 314.968 
L 104.347243 227.141823 
L 104.997853 204.711677 
L 106.299074 230.068558 
L 106.949684 237.629001 
L 107.600294 242.633207 
L 108.901515 249.715992 
L 110.853346 258.249594 
L 112.805177 264.883065 
L 114.106398 268.425595 
L 115.407618 271.37509 
L 116.708839 274.025572 
L 118.66067 277.540806 
L 120.612501 280.621316 
L 121.913721 282.317539 
L 123.214942 283.879646 
L 126.467993 287.041879 
L 129.721045 289.519875 
L 132.323486 291.141083 
L 134.925927 292.512598 
L 136.877758 293.42747 
L 139.4802 294.566772 
L 146.636913 296.948339 
L 150.540575 297.904146 
L 157.046678 299.202567 
L 168.107053 300.819035 
L 173.311936 301.378406 
L 176.564987 301.653425 
L 195.432686 303.007808 
L 209.746113 303.686724 
L 220.155878 304.029408 
L 265.04799 305.005874 
L 302.783388 305.398558 
L 346.374279 305.633247 
L 361.338316 305.70253 
L 379.555405 305.771306 
L 396.471273 305.822039 
L 396.471273 305.822039 
" clip-path="url(#p08e66ab26c)" style="fill: none; stroke: #9467bd; stroke-width: 2; stroke-linecap: square"/>
    <defs>
     <path id="m72979c2c61" d="M -0 3 
L 3 -3 
L -3 -3 
z
" style="stroke: #9467bd; stroke-linejoin: miter"/>
    </defs>
    <g clip-path="url(#p08e66ab26c)">
     <use xlink:href="#m72979c2c61" x="71.816727" y="314.968" style="fill: #9467bd; stroke: #9467bd; stroke-linejoin: miter"/>
     <use xlink:href="#m72979c2c61" x="201.93879" y="303.360194" style="fill: #9467bd; stroke: #9467bd; stroke-linejoin: miter"/>
     <use xlink:href="#m72979c2c61" x="332.060852" y="305.561051" style="fill: #9467bd; stroke: #9467bd; stroke-linejoin: miter"/>
    </g>
   </g>
   <g id="line2d_36">
    <path d="M 235.770526 327.064 
L 235.770526 60.952 
" clip-path="url(#p08e66ab26c)" style="fill: none; stroke-dasharray: 7.4,3.2; stroke-dashoffset: 0; stroke: #9467bd; stroke-width: 2"/>
    <g clip-path="url(#p08e66ab26c)">
     <use xlink:href="#m72979c2c61" x="235.770526" y="327.064" style="fill: #9467bd; stroke: #9467bd; stroke-linejoin: miter"/>
     <use xlink:href="#m72979c2c61" x="235.770526" y="60.952" style="fill: #9467bd; stroke: #9467bd; stroke-linejoin: miter"/>
    </g>
   </g>
   <g id="line2d_37">
    <path d="M 71.816727 314.968 
L 103.696633 314.968 
L 104.347243 223.181766 
L 104.997853 209.252782 
L 106.299074 230.889002 
L 106.949684 237.077921 
L 107.600294 241.653626 
L 109.552125 251.498496 
L 110.853346 257.125868 
L 112.154567 261.995109 
L 114.757008 269.49783 
L 116.058228 272.35054 
L 117.359449 275.149049 
L 119.31128 278.600882 
L 120.612501 280.555722 
L 122.564332 282.888589 
L 125.166773 285.640028 
L 129.721045 289.414566 
L 131.022266 290.286523 
L 133.624707 291.80904 
L 140.13081 294.851998 
L 146.636913 297.007566 
L 151.841796 298.309623 
L 158.998509 299.688183 
L 172.010715 301.498619 
L 186.324142 302.799799 
L 199.336348 303.603845 
L 211.697944 304.127619 
L 233.168085 304.795877 
L 239.023577 304.941181 
L 253.987615 305.259262 
L 294.976064 305.728535 
L 391.917001 306.177219 
L 396.471273 306.180304 
L 396.471273 306.180304 
" clip-path="url(#p08e66ab26c)" style="fill: none; stroke: #8c564b; stroke-width: 2; stroke-linecap: square"/>
    <defs>
     <path id="m068f8e1c80" d="M -0 4.242641 
L 2.545584 0 
L 0 -4.242641 
L -2.545584 -0 
z
" style="stroke: #8c564b; stroke-linejoin: miter"/>
    </defs>
    <g clip-path="url(#p08e66ab26c)">
     <use xlink:href="#m068f8e1c80" x="71.816727" y="314.968" style="fill: #8c564b; stroke: #8c564b; stroke-linejoin: miter"/>
     <use xlink:href="#m068f8e1c80" x="201.93879" y="303.718062" style="fill: #8c564b; stroke: #8c564b; stroke-linejoin: miter"/>
     <use xlink:href="#m068f8e1c80" x="332.060852" y="305.974891" style="fill: #8c564b; stroke: #8c564b; stroke-linejoin: miter"/>
    </g>
   </g>
   <g id="line2d_38">
    <path d="M 221.457099 327.064 
L 221.457099 60.952 
" clip-path="url(#p08e66ab26c)" style="fill: none; stroke-dasharray: 7.4,3.2; stroke-dashoffset: 0; stroke: #8c564b; stroke-width: 2"/>
    <g clip-path="url(#p08e66ab26c)">
     <use xlink:href="#m068f8e1c80" x="221.457099" y="327.064" style="fill: #8c564b; stroke: #8c564b; stroke-linejoin: miter"/>
     <use xlink:href="#m068f8e1c80" x="221.457099" y="60.952" style="fill: #8c564b; stroke: #8c564b; stroke-linejoin: miter"/>
    </g>
   </g>
   <g id="line2d_39">
    <path d="M 71.816727 314.968 
L 103.696633 314.968 
L 104.347243 227.681376 
L 104.997853 220.499337 
L 105.648463 232.558325 
L 106.299074 241.638563 
L 106.949684 246.690233 
L 108.250905 253.443219 
L 109.552125 258.659381 
L 111.503956 265.245274 
L 113.455787 270.400152 
L 116.708839 276.888559 
L 119.31128 280.790622 
L 121.913721 283.956225 
L 124.516163 286.413285 
L 125.817383 287.48557 
L 127.769214 289.043764 
L 132.974097 292.231033 
L 135.576538 293.501705 
L 143.383862 296.416343 
L 147.938134 297.675168 
L 158.347899 299.705822 
L 164.203392 300.464898 
L 175.263767 301.773775 
L 198.685738 303.278548 
L 216.252216 303.965022 
L 265.04799 305.078349 
L 303.433998 305.437553 
L 396.471273 305.836657 
L 396.471273 305.836657 
" clip-path="url(#p08e66ab26c)" style="fill: none; stroke: #e377c2; stroke-width: 2; stroke-linecap: square"/>
    <defs>
     <path id="m633582de65" d="M 0 0 
L 0 3 
M 0 0 
L 2.4 -1.5 
M 0 0 
L -2.4 -1.5 
" style="stroke: #e377c2"/>
    </defs>
    <g clip-path="url(#p08e66ab26c)">
     <use xlink:href="#m633582de65" x="71.816727" y="314.968" style="fill: #e377c2; stroke: #e377c2"/>
     <use xlink:href="#m633582de65" x="201.93879" y="303.423987" style="fill: #e377c2; stroke: #e377c2"/>
     <use xlink:href="#m633582de65" x="332.060852" y="305.620341" style="fill: #e377c2; stroke: #e377c2"/>
    </g>
   </g>
   <g id="line2d_40">
    <path d="M 233.168085 327.064 
L 233.168085 60.952 
" clip-path="url(#p08e66ab26c)" style="fill: none; stroke-dasharray: 7.4,3.2; stroke-dashoffset: 0; stroke: #e377c2; stroke-width: 2"/>
    <g clip-path="url(#p08e66ab26c)">
     <use xlink:href="#m633582de65" x="233.168085" y="327.064" style="fill: #e377c2; stroke: #e377c2"/>
     <use xlink:href="#m633582de65" x="233.168085" y="60.952" style="fill: #e377c2; stroke: #e377c2"/>
    </g>
   </g>
   <g id="patch_3">
    <path d="M 55.584 327.064 
L 55.584 60.952 
" style="fill: none; stroke: #000000; stroke-width: 0.8; stroke-linejoin: miter; stroke-linecap: square"/>
   </g>
   <g id="patch_4">
    <path d="M 412.704 327.064 
L 412.704 60.952 
" style="fill: none; stroke: #000000; stroke-width: 0.8; stroke-linejoin: miter; stroke-linecap: square"/>
   </g>
   <g id="patch_5">
    <path d="M 55.584 327.064 
L 412.704 327.064 
" style="fill: none; stroke: #000000; stroke-width: 0.8; stroke-linejoin: miter; stroke-linecap: square"/>
   </g>
   <g id="patch_6">
    <path d="M 55.584 60.952 
L 412.704 60.952 
" style="fill: none; stroke: #000000; stroke-width: 0.8; stroke-linejoin: miter; stroke-linecap: square"/>
   </g>
   <g id="axes_2">
    <g id="patch_7">
     <path d="M 207.36 220.6192 
L 403.776 220.6192 
L 403.776 74.2576 
L 207.36 74.2576 
z
" style="fill: #ffffff"/>
    </g>
    <g id="matplotlib.axis_3">
     <g id="xtick_7">
      <g id="line2d_41">
       <path d="M 240.357888 220.6192 
L 240.357888 74.2576 
" clip-path="url(#p7b2f546445)" style="fill: none; stroke: #b0b0b0; stroke-width: 0.8; stroke-linecap: square"/>
      </g>
      <g id="line2d_42">
       <defs>
        <path id="mf871aa423d" d="M 0 0 
L 0 3.5 
" style="stroke: #000000; stroke-width: 2"/>
       </defs>
       <g>
        <use xlink:href="#mf871aa423d" x="240.357888" y="220.6192" style="stroke: #000000; stroke-width: 2"/>
       </g>
      </g>
      <g id="text_14">
       <!-- 250 -->
       <g transform="translate(226.996638 238.257012) scale(0.14 -0.14)">
        <use xlink:href="#DejaVuSans-32"/>
        <use xlink:href="#DejaVuSans-35" x="63.623047"/>
        <use xlink:href="#DejaVuSans-30" x="127.246094"/>
       </g>
      </g>
     </g>
     <g id="xtick_8">
      <g id="line2d_43">
       <path d="M 318.924288 220.6192 
L 318.924288 74.2576 
" clip-path="url(#p7b2f546445)" style="fill: none; stroke: #b0b0b0; stroke-width: 0.8; stroke-linecap: square"/>
      </g>
      <g id="line2d_44">
       <g>
        <use xlink:href="#mf871aa423d" x="318.924288" y="220.6192" style="stroke: #000000; stroke-width: 2"/>
       </g>
      </g>
      <g id="text_15">
       <!-- 300 -->
       <g transform="translate(305.563038 238.257012) scale(0.14 -0.14)">
        <use xlink:href="#DejaVuSans-33"/>
        <use xlink:href="#DejaVuSans-30" x="63.623047"/>
        <use xlink:href="#DejaVuSans-30" x="127.246094"/>
       </g>
      </g>
     </g>
     <g id="xtick_9">
      <g id="line2d_45">
       <path d="M 397.490688 220.6192 
L 397.490688 74.2576 
" clip-path="url(#p7b2f546445)" style="fill: none; stroke: #b0b0b0; stroke-width: 0.8; stroke-linecap: square"/>
      </g>
      <g id="line2d_46">
       <g>
        <use xlink:href="#mf871aa423d" x="397.490688" y="220.6192" style="stroke: #000000; stroke-width: 2"/>
       </g>
      </g>
      <g id="text_16">
       <!-- 350 -->
       <g transform="translate(384.129438 238.257012) scale(0.14 -0.14)">
        <use xlink:href="#DejaVuSans-33"/>
        <use xlink:href="#DejaVuSans-35" x="63.623047"/>
        <use xlink:href="#DejaVuSans-30" x="127.246094"/>
       </g>
      </g>
     </g>
    </g>
    <g id="matplotlib.axis_4">
     <g id="ytick_8">
      <g id="line2d_47">
       <path d="M 207.36 216.643914 
L 403.776 216.643914 
" clip-path="url(#p7b2f546445)" style="fill: none; stroke: #b0b0b0; stroke-width: 0.8; stroke-linecap: square"/>
      </g>
      <g id="line2d_48">
       <defs>
        <path id="m64f54c620e" d="M 0 0 
L -3.5 0 
" style="stroke: #000000; stroke-width: 2"/>
       </defs>
       <g>
        <use xlink:href="#m64f54c620e" x="207.36" y="216.643914" style="stroke: #000000; stroke-width: 2"/>
       </g>
      </g>
      <g id="text_17">
       <!-- 0.024 -->
       <g transform="translate(160.280625 221.96282) scale(0.14 -0.14)">
        <use xlink:href="#DejaVuSans-30"/>
        <use xlink:href="#DejaVuSans-2e" x="63.623047"/>
        <use xlink:href="#DejaVuSans-30" x="95.410156"/>
        <use xlink:href="#DejaVuSans-32" x="159.033203"/>
        <use xlink:href="#DejaVuSans-34" x="222.65625"/>
       </g>
      </g>
     </g>
     <g id="ytick_9">
      <g id="line2d_49">
       <path d="M 207.36 174.700372 
L 403.776 174.700372 
" clip-path="url(#p7b2f546445)" style="fill: none; stroke: #b0b0b0; stroke-width: 0.8; stroke-linecap: square"/>
      </g>
      <g id="line2d_50">
       <g>
        <use xlink:href="#m64f54c620e" x="207.36" y="174.700372" style="stroke: #000000; stroke-width: 2"/>
       </g>
      </g>
      <g id="text_18">
       <!-- 0.026 -->
       <g transform="translate(160.280625 180.019278) scale(0.14 -0.14)">
        <use xlink:href="#DejaVuSans-30"/>
        <use xlink:href="#DejaVuSans-2e" x="63.623047"/>
        <use xlink:href="#DejaVuSans-30" x="95.410156"/>
        <use xlink:href="#DejaVuSans-32" x="159.033203"/>
        <use xlink:href="#DejaVuSans-36" x="222.65625"/>
       </g>
      </g>
     </g>
     <g id="ytick_10">
      <g id="line2d_51">
       <path d="M 207.36 132.756829 
L 403.776 132.756829 
" clip-path="url(#p7b2f546445)" style="fill: none; stroke: #b0b0b0; stroke-width: 0.8; stroke-linecap: square"/>
      </g>
      <g id="line2d_52">
       <g>
        <use xlink:href="#m64f54c620e" x="207.36" y="132.756829" style="stroke: #000000; stroke-width: 2"/>
       </g>
      </g>
      <g id="text_19">
       <!-- 0.028 -->
       <g transform="translate(160.280625 138.075736) scale(0.14 -0.14)">
        <defs>
         <path id="DejaVuSans-38" d="M 2034 2216 
Q 1584 2216 1326 1975 
Q 1069 1734 1069 1313 
Q 1069 891 1326 650 
Q 1584 409 2034 409 
Q 2484 409 2743 651 
Q 3003 894 3003 1313 
Q 3003 1734 2745 1975 
Q 2488 2216 2034 2216 
z
M 1403 2484 
Q 997 2584 770 2862 
Q 544 3141 544 3541 
Q 544 4100 942 4425 
Q 1341 4750 2034 4750 
Q 2731 4750 3128 4425 
Q 3525 4100 3525 3541 
Q 3525 3141 3298 2862 
Q 3072 2584 2669 2484 
Q 3125 2378 3379 2068 
Q 3634 1759 3634 1313 
Q 3634 634 3220 271 
Q 2806 -91 2034 -91 
Q 1263 -91 848 271 
Q 434 634 434 1313 
Q 434 1759 690 2068 
Q 947 2378 1403 2484 
z
M 1172 3481 
Q 1172 3119 1398 2916 
Q 1625 2713 2034 2713 
Q 2441 2713 2670 2916 
Q 2900 3119 2900 3481 
Q 2900 3844 2670 4047 
Q 2441 4250 2034 4250 
Q 1625 4250 1398 4047 
Q 1172 3844 1172 3481 
z
" transform="scale(0.015625)"/>
        </defs>
        <use xlink:href="#DejaVuSans-30"/>
        <use xlink:href="#DejaVuSans-2e" x="63.623047"/>
        <use xlink:href="#DejaVuSans-30" x="95.410156"/>
        <use xlink:href="#DejaVuSans-32" x="159.033203"/>
        <use xlink:href="#DejaVuSans-38" x="222.65625"/>
       </g>
      </g>
     </g>
     <g id="ytick_11">
      <g id="line2d_53">
       <path d="M 207.36 90.813287 
L 403.776 90.813287 
" clip-path="url(#p7b2f546445)" style="fill: none; stroke: #b0b0b0; stroke-width: 0.8; stroke-linecap: square"/>
      </g>
      <g id="line2d_54">
       <g>
        <use xlink:href="#m64f54c620e" x="207.36" y="90.813287" style="stroke: #000000; stroke-width: 2"/>
       </g>
      </g>
      <g id="text_20">
       <!-- 0.030 -->
       <g transform="translate(160.280625 96.132193) scale(0.14 -0.14)">
        <use xlink:href="#DejaVuSans-30"/>
        <use xlink:href="#DejaVuSans-2e" x="63.623047"/>
        <use xlink:href="#DejaVuSans-30" x="95.410156"/>
        <use xlink:href="#DejaVuSans-33" x="159.033203"/>
        <use xlink:href="#DejaVuSans-30" x="222.65625"/>
       </g>
      </g>
     </g>
    </g>
    <g id="line2d_55">
     <path d="M 0 0 
" clip-path="url(#p7b2f546445)" style="fill: none; stroke: #1f77b4; stroke-width: 1.5; stroke-linecap: square"/>
    </g>
    <g id="line2d_56">
     <path clip-path="url(#p7b2f546445)" style="fill: none; stroke-dasharray: 5.55,2.4; stroke-dashoffset: 0; stroke: #1f77b4; stroke-width: 1.5"/>
    </g>
    <g id="line2d_57">
     <path d="M 123.88927 -1 
L 124.079616 -0.64759 
L 125.650944 1.337183 
L 127.222272 4.066985 
L 128.7936 7.877873 
L 130.364928 10.215568 
L 131.936256 11.827516 
L 133.507584 14.080873 
L 135.078912 15.856939 
L 136.65024 19.629688 
L 138.221568 21.954475 
L 141.364224 27.910308 
L 142.935552 30.284504 
L 144.50688 31.38658 
L 147.649536 35.767858 
L 149.220864 38.164225 
L 150.792192 39.95712 
L 152.36352 42.695158 
L 153.934848 43.97678 
L 155.506176 46.453767 
L 157.077504 48.680977 
L 158.648832 51.179571 
L 160.22016 52.232551 
L 161.791488 54.878781 
L 163.362816 56.180814 
L 164.934144 58.397507 
L 166.505472 60.014334 
L 168.0768 62.436754 
L 169.648128 64.341754 
L 171.219456 67.591483 
L 174.362112 71.618377 
L 175.93344 72.347943 
L 177.504768 74.676957 
L 179.076096 75.646906 
L 180.647424 77.191518 
L 182.218752 79.026879 
L 183.79008 81.673733 
L 185.361408 83.081539 
L 186.932736 84.334693 
L 188.504064 86.019564 
L 191.64672 89.975472 
L 193.218048 92.407993 
L 194.789376 93.833173 
L 199.50336 98.55718 
L 201.074688 99.880481 
L 202.646016 101.67208 
L 205.788672 104.779157 
L 207.36 106.748557 
L 208.931328 108.212692 
L 210.502656 108.856218 
L 213.645312 111.556522 
L 215.21664 113.00547 
L 216.787968 113.987714 
L 218.359296 115.538296 
L 224.644608 120.688623 
L 226.215936 121.625505 
L 227.787264 122.809182 
L 229.358592 123.598546 
L 232.501248 125.623087 
L 234.072576 126.816461 
L 235.643904 127.74988 
L 237.215232 129.07503 
L 238.78656 130.240218 
L 241.929216 132.018587 
L 243.500544 133.79472 
L 245.071872 134.669084 
L 246.6432 135.733465 
L 248.214528 136.506826 
L 251.357184 138.954133 
L 252.928512 139.955274 
L 254.49984 140.467829 
L 256.071168 141.697927 
L 257.642496 142.409719 
L 259.213824 143.292956 
L 262.35648 145.531587 
L 263.927808 146.302817 
L 265.499136 147.638069 
L 267.070464 148.509396 
L 270.21312 149.854917 
L 271.784448 151.080758 
L 273.355776 151.750991 
L 274.927104 152.663917 
L 276.498432 152.845936 
L 278.06976 153.490545 
L 279.641088 153.511924 
L 281.212416 154.354386 
L 282.783744 155.010044 
L 284.355072 156.294391 
L 287.497728 157.497261 
L 289.069056 158.3734 
L 290.640384 158.964277 
L 292.211712 159.310183 
L 295.354368 160.544725 
L 296.925696 161.559494 
L 300.068352 162.451222 
L 301.63968 162.870186 
L 304.782336 164.849892 
L 307.924992 166.405978 
L 311.067648 167.424732 
L 312.638976 167.941386 
L 314.210304 168.77754 
L 315.781632 169.799121 
L 317.35296 169.855548 
L 320.495616 171.425032 
L 322.066944 171.93541 
L 323.638272 172.632244 
L 325.2096 173.193993 
L 328.352256 174.038085 
L 329.923584 174.851905 
L 331.494912 175.449326 
L 333.06624 175.879684 
L 334.637568 176.078798 
L 336.208896 177.016439 
L 337.780224 177.328536 
L 344.065536 179.349691 
L 345.636864 179.824605 
L 348.77952 181.036539 
L 350.350848 181.543025 
L 351.922176 181.547264 
L 355.064832 182.601776 
L 356.63616 183.319475 
L 358.207488 183.215891 
L 359.778816 184.042282 
L 361.350144 184.380765 
L 362.921472 184.920738 
L 364.4928 184.988599 
L 366.064128 185.476564 
L 367.635456 185.547347 
L 369.206784 186.334825 
L 370.778112 186.465923 
L 372.34944 187.064522 
L 373.920768 187.528156 
L 375.492096 187.769784 
L 377.063424 188.133122 
L 378.634752 189.033957 
L 381.777408 189.824681 
L 384.920064 190.158191 
L 389.634048 191.518368 
L 391.205376 192.098226 
L 392.776704 192.127693 
L 394.348032 192.505458 
L 397.490688 192.641679 
L 399.062016 193.009375 
L 400.633344 193.207648 
L 403.776 193.958359 
L 405.347328 194.656149 
L 406.918656 194.990535 
L 408.489984 195.590269 
L 410.061312 196.026457 
L 411.63264 196.329817 
L 413.203968 196.836195 
L 416.346624 197.441067 
L 422.631936 199.312602 
L 423.134781 199.37384 
L 423.134781 199.37384 
" clip-path="url(#p7b2f546445)" style="fill: none; stroke: #ff7f0e; stroke-width: 1.5; stroke-linecap: square"/>
    </g>
    <g id="line2d_58">
     <path d="M 402.204672 220.6192 
L 402.204672 74.2576 
" clip-path="url(#p7b2f546445)" style="fill: none; stroke-dasharray: 5.55,2.4; stroke-dashoffset: 0; stroke: #ff7f0e; stroke-width: 1.5"/>
    </g>
    <g id="line2d_59">
     <path d="M 76.51564 -1 
L 76.939776 0.278672 
L 78.511104 4.310792 
L 80.082432 8.025632 
L 81.65376 12.235813 
L 83.225088 17.885034 
L 84.796416 22.040523 
L 86.367744 27.123805 
L 87.939072 30.569516 
L 89.5104 34.358225 
L 91.081728 37.512406 
L 92.653056 41.44944 
L 94.224384 44.88587 
L 97.36704 52.549728 
L 98.938368 55.715063 
L 100.509696 59.749981 
L 102.081024 63.034801 
L 103.652352 67.178491 
L 106.795008 72.660712 
L 108.366336 75.92841 
L 114.651648 86.930074 
L 116.222976 89.755196 
L 119.365632 94.549035 
L 122.508288 99.552722 
L 124.079616 102.341908 
L 125.650944 104.672042 
L 127.222272 107.387923 
L 128.7936 109.252076 
L 131.936256 113.284545 
L 135.078912 119.183741 
L 136.65024 121.32655 
L 138.221568 122.617503 
L 139.792896 124.978999 
L 141.364224 127.881901 
L 142.935552 129.755609 
L 144.50688 131.436873 
L 146.078208 133.578546 
L 147.649536 135.190373 
L 149.220864 138.106955 
L 150.792192 139.548582 
L 152.36352 141.254061 
L 153.934848 142.450253 
L 155.506176 144.489426 
L 157.077504 145.933571 
L 160.22016 149.532596 
L 161.791488 151.890976 
L 163.362816 153.720709 
L 164.934144 155.237477 
L 166.505472 156.95775 
L 168.0768 159.00085 
L 171.219456 161.23706 
L 172.790784 162.958901 
L 174.362112 164.501734 
L 175.93344 166.577003 
L 179.076096 170.353549 
L 180.647424 170.953582 
L 182.218752 172.626458 
L 183.79008 173.312913 
L 185.361408 174.535233 
L 188.504064 177.406628 
L 193.218048 182.267563 
L 194.789376 183.434551 
L 196.360704 184.279467 
L 201.074688 187.828893 
L 202.646016 189.256889 
L 204.217344 189.608238 
L 205.788672 190.65577 
L 207.36 192.163532 
L 208.931328 193.244645 
L 210.502656 193.971794 
L 212.073984 195.398387 
L 215.21664 197.469717 
L 216.787968 198.71805 
L 218.359296 200.401717 
L 219.930624 200.8242 
L 223.07328 202.894036 
L 224.644608 204.114626 
L 226.215936 205.149363 
L 227.787264 206.015278 
L 229.358592 207.259529 
L 230.92992 208.120914 
L 232.501248 208.589906 
L 235.643904 209.891542 
L 237.215232 210.824603 
L 238.78656 211.376512 
L 240.357888 212.501237 
L 243.500544 213.496065 
L 245.071872 214.494107 
L 246.6432 215.899551 
L 248.214528 216.27305 
L 249.785856 216.923025 
L 251.357184 217.232104 
L 252.928512 218.147896 
L 254.49984 218.741755 
L 257.642496 219.38441 
L 259.213824 220.364387 
L 260.785152 221.604197 
L 262.35648 222.315827 
L 263.927808 222.770473 
L 265.499136 223.838826 
L 270.21312 226.143397 
L 273.355776 228.067851 
L 274.927104 228.053537 
L 276.498432 229.010804 
L 278.06976 229.551821 
L 279.641088 229.954385 
L 281.212416 230.510465 
L 282.783744 231.450339 
L 284.355072 232.208204 
L 285.9264 233.388817 
L 287.497728 233.80445 
L 289.069056 234.68183 
L 290.640384 235.231339 
L 292.211712 235.650287 
L 293.78304 236.247214 
L 295.354368 236.981123 
L 296.925696 237.41858 
L 298.497024 237.988021 
L 300.068352 238.280175 
L 301.63968 238.977214 
L 304.782336 240.184719 
L 306.353664 240.492929 
L 307.924992 240.668996 
L 311.067648 241.439071 
L 312.638976 242.016966 
L 314.210304 242.445185 
L 315.781632 243.150459 
L 318.924288 243.999289 
L 322.066944 245.044517 
L 323.638272 245.084133 
L 325.2096 245.387068 
L 326.780928 245.832534 
L 328.352256 246.029524 
L 329.923584 246.438218 
L 331.494912 247.012602 
L 342.494208 249.930702 
L 344.065536 250.63379 
L 347.208192 250.830024 
L 348.77952 250.607322 
L 351.922176 251.120456 
L 353.493504 251.060589 
L 355.064832 251.428387 
L 356.63616 251.970818 
L 358.207488 252.277699 
L 362.921472 253.653936 
L 364.4928 254.366333 
L 366.064128 254.899529 
L 369.206784 255.392512 
L 370.778112 255.296734 
L 372.34944 255.642941 
L 373.920768 256.151881 
L 375.492096 256.376194 
L 378.634752 257.40511 
L 380.20608 257.445792 
L 381.777408 257.783443 
L 383.348736 258.264154 
L 384.920064 258.529695 
L 386.491392 258.970906 
L 388.06272 259.204883 
L 391.205376 259.291769 
L 392.776704 259.675244 
L 395.91936 259.686682 
L 397.490688 260.249676 
L 399.062016 260.282299 
L 402.204672 260.84178 
L 403.776 261.86734 
L 405.347328 262.091801 
L 406.918656 262.716709 
L 408.489984 262.691947 
L 410.061312 263.132083 
L 411.63264 263.371277 
L 413.203968 263.83702 
L 416.346624 264.374776 
L 417.917952 264.54453 
L 421.060608 265.323334 
L 422.631936 265.094552 
L 423.134781 265.159937 
L 423.134781 265.159937 
" clip-path="url(#p7b2f546445)" style="fill: none; stroke: #2ca02c; stroke-width: 1.5; stroke-linecap: square"/>
    </g>
    <g id="line2d_60">
     <path d="M 210.502656 220.6192 
L 210.502656 74.2576 
" clip-path="url(#p7b2f546445)" style="fill: none; stroke-dasharray: 5.55,2.4; stroke-dashoffset: 0; stroke: #2ca02c; stroke-width: 1.5"/>
    </g>
    <g id="line2d_61">
     <path d="M 73.840982 -1 
L 75.368448 2.090494 
L 78.511104 9.636918 
L 80.082432 11.914795 
L 83.225088 19.509778 
L 84.796416 23.227568 
L 86.367744 27.294119 
L 87.939072 30.433692 
L 89.5104 34.248696 
L 91.081728 37.687852 
L 92.653056 41.515432 
L 94.224384 44.038494 
L 95.795712 47.529865 
L 97.36704 51.413936 
L 98.938368 54.356197 
L 103.652352 63.751345 
L 105.22368 65.91688 
L 106.795008 69.255664 
L 108.366336 72.028396 
L 109.937664 75.419448 
L 116.222976 87.185995 
L 117.794304 90.665105 
L 119.365632 93.312024 
L 120.93696 96.985011 
L 122.508288 99.125102 
L 125.650944 104.922786 
L 127.222272 107.31678 
L 128.7936 109.353301 
L 130.364928 111.803628 
L 135.078912 117.189869 
L 136.65024 119.519749 
L 138.221568 122.763328 
L 139.792896 124.614588 
L 141.364224 126.977452 
L 142.935552 128.891663 
L 144.50688 130.038012 
L 146.078208 131.762967 
L 147.649536 133.31019 
L 149.220864 135.154642 
L 150.792192 136.579166 
L 153.934848 140.421579 
L 155.506176 141.883674 
L 158.648832 145.843638 
L 160.22016 147.727988 
L 163.362816 150.422137 
L 164.934144 150.992119 
L 166.505472 152.73165 
L 168.0768 153.904689 
L 169.648128 155.453332 
L 171.219456 156.241053 
L 172.790784 158.044701 
L 174.362112 160.053862 
L 175.93344 160.736949 
L 177.504768 161.842485 
L 179.076096 163.122624 
L 182.218752 166.549218 
L 185.361408 168.896945 
L 186.932736 170.372144 
L 188.504064 172.010056 
L 190.075392 173.126237 
L 191.64672 173.582655 
L 193.218048 175.541454 
L 194.789376 177.243995 
L 196.360704 178.54112 
L 199.50336 180.0624 
L 201.074688 181.280758 
L 204.217344 182.492809 
L 205.788672 183.259916 
L 207.36 184.401896 
L 208.931328 184.987792 
L 210.502656 186.022466 
L 212.073984 187.418859 
L 213.645312 188.00354 
L 215.21664 189.739879 
L 219.930624 193.519406 
L 221.501952 194.290632 
L 223.07328 195.530254 
L 224.644608 196.181774 
L 227.787264 198.163896 
L 229.358592 198.766051 
L 232.501248 200.528877 
L 234.072576 201.659389 
L 235.643904 202.581482 
L 237.215232 203.27144 
L 238.78656 204.14387 
L 240.357888 204.674581 
L 241.929216 205.442381 
L 243.500544 206.808431 
L 245.071872 207.426553 
L 246.6432 207.860941 
L 249.785856 209.348871 
L 252.928512 211.153497 
L 254.49984 211.822637 
L 256.071168 211.784259 
L 257.642496 212.549381 
L 259.213824 212.91163 
L 260.785152 213.150802 
L 262.35648 213.863521 
L 265.499136 214.982602 
L 267.070464 215.060531 
L 268.641792 216.087167 
L 274.927104 218.22448 
L 276.498432 219.168249 
L 278.06976 219.63996 
L 279.641088 220.478405 
L 281.212416 221.017055 
L 282.783744 222.349175 
L 284.355072 223.03847 
L 285.9264 223.390685 
L 289.069056 225.014971 
L 290.640384 225.500791 
L 292.211712 226.414829 
L 293.78304 226.794659 
L 295.354368 226.896669 
L 300.068352 227.935677 
L 303.211008 228.685409 
L 304.782336 229.329184 
L 306.353664 229.564984 
L 307.924992 229.99916 
L 311.067648 231.177317 
L 317.35296 232.327189 
L 318.924288 233.0387 
L 322.066944 234.06905 
L 323.638272 234.744639 
L 326.780928 235.435913 
L 328.352256 235.376388 
L 329.923584 235.995772 
L 334.637568 236.847599 
L 336.208896 237.406976 
L 337.780224 237.524639 
L 340.92288 238.54081 
L 342.494208 238.854779 
L 344.065536 239.368819 
L 347.208192 239.607009 
L 350.350848 240.330732 
L 351.922176 240.3164 
L 355.064832 240.877974 
L 356.63616 241.119863 
L 358.207488 241.583397 
L 359.778816 242.202751 
L 362.921472 242.73173 
L 367.635456 244.660854 
L 370.778112 245.41468 
L 373.920768 246.285902 
L 375.492096 246.50699 
L 377.063424 246.944213 
L 383.348736 247.754597 
L 384.920064 248.187024 
L 386.491392 248.437104 
L 388.06272 248.888711 
L 389.634048 248.873272 
L 391.205376 249.162392 
L 392.776704 249.292586 
L 395.91936 249.924234 
L 400.633344 251.444492 
L 403.776 251.868163 
L 406.918656 252.52624 
L 408.489984 253.10558 
L 410.061312 253.038819 
L 413.203968 254.0909 
L 414.775296 254.319681 
L 416.346624 254.786889 
L 417.917952 254.806852 
L 419.48928 255.079008 
L 421.060608 255.589913 
L 423.134781 255.974641 
L 423.134781 255.974641 
" clip-path="url(#p7b2f546445)" style="fill: none; stroke: #d62728; stroke-width: 1.5; stroke-linecap: square"/>
    </g>
    <g id="line2d_62">
     <path d="M 219.930624 220.6192 
L 219.930624 74.2576 
" clip-path="url(#p7b2f546445)" style="fill: none; stroke-dasharray: 5.55,2.4; stroke-dashoffset: 0; stroke: #d62728; stroke-width: 1.5"/>
    </g>
    <g id="line2d_63">
     <path d="M 75.114138 -1 
L 75.368448 -0.10078 
L 76.939776 3.363798 
L 78.511104 7.782433 
L 80.082432 11.33604 
L 81.65376 15.478829 
L 83.225088 18.925258 
L 84.796416 23.277881 
L 86.367744 25.747615 
L 87.939072 29.79576 
L 89.5104 32.9274 
L 91.081728 36.933753 
L 92.653056 39.351331 
L 94.224384 41.119574 
L 100.509696 53.125233 
L 102.081024 55.647785 
L 105.22368 60.219398 
L 108.366336 66.421475 
L 111.508992 71.770728 
L 113.08032 75.326946 
L 117.794304 82.521079 
L 119.365632 85.518472 
L 120.93696 87.31823 
L 124.079616 93.349808 
L 125.650944 95.20625 
L 127.222272 97.600754 
L 128.7936 100.378752 
L 131.936256 104.690308 
L 133.507584 106.631995 
L 135.078912 107.971072 
L 136.65024 110.049692 
L 139.792896 113.006052 
L 141.364224 115.257674 
L 142.935552 117.050388 
L 144.50688 118.540082 
L 146.078208 120.957539 
L 147.649536 122.748587 
L 149.220864 125.043914 
L 150.792192 126.469912 
L 153.934848 129.959438 
L 155.506176 131.993898 
L 158.648832 135.539972 
L 160.22016 136.891499 
L 161.791488 138.606321 
L 163.362816 140.059841 
L 164.934144 141.186701 
L 166.505472 143.552375 
L 168.0768 145.241432 
L 171.219456 147.957154 
L 174.362112 149.902896 
L 175.93344 151.279974 
L 177.504768 152.442517 
L 179.076096 153.408052 
L 182.218752 156.356161 
L 183.79008 157.185765 
L 185.361408 158.575593 
L 188.504064 161.011429 
L 190.075392 161.873115 
L 193.218048 164.581544 
L 194.789376 165.366406 
L 197.932032 167.37676 
L 199.50336 168.698879 
L 201.074688 169.633339 
L 202.646016 169.958751 
L 204.217344 170.868548 
L 205.788672 172.122891 
L 207.36 172.908282 
L 208.931328 174.190809 
L 210.502656 175.12499 
L 213.645312 177.458605 
L 215.21664 178.296798 
L 216.787968 179.273352 
L 218.359296 180.412775 
L 219.930624 181.363329 
L 221.501952 182.033424 
L 223.07328 182.965137 
L 224.644608 184.399819 
L 226.215936 184.702752 
L 227.787264 185.927594 
L 229.358592 186.611096 
L 232.501248 188.410638 
L 234.072576 188.779942 
L 235.643904 189.368992 
L 237.215232 190.592845 
L 238.78656 191.408769 
L 240.357888 192.380197 
L 241.929216 193.195751 
L 243.500544 193.831283 
L 245.071872 194.856288 
L 246.6432 195.175188 
L 248.214528 195.687457 
L 251.357184 197.769699 
L 252.928512 197.985821 
L 254.49984 198.419402 
L 257.642496 199.894509 
L 259.213824 200.33296 
L 260.785152 201.163358 
L 262.35648 201.718217 
L 263.927808 202.512539 
L 268.641792 205.4435 
L 273.355776 207.553145 
L 276.498432 208.990841 
L 278.06976 209.140853 
L 279.641088 209.584924 
L 281.212416 210.441578 
L 284.355072 210.845219 
L 285.9264 211.699988 
L 287.497728 212.713894 
L 289.069056 213.224563 
L 290.640384 213.494511 
L 292.211712 214.418891 
L 293.78304 215.524689 
L 295.354368 216.030149 
L 296.925696 216.727809 
L 298.497024 216.991746 
L 300.068352 217.720371 
L 301.63968 218.08206 
L 303.211008 218.317018 
L 306.353664 219.266426 
L 309.49632 220.283609 
L 312.638976 220.582054 
L 317.35296 221.919769 
L 318.924288 222.523687 
L 320.495616 223.308084 
L 322.066944 223.267837 
L 323.638272 223.37495 
L 326.780928 224.186143 
L 333.06624 225.712901 
L 334.637568 226.269697 
L 336.208896 226.260707 
L 337.780224 226.774669 
L 340.92288 227.264203 
L 342.494208 227.669618 
L 345.636864 228.142569 
L 348.77952 229.683871 
L 351.922176 230.578815 
L 359.778816 232.714345 
L 361.350144 232.810969 
L 362.921472 233.507086 
L 366.064128 234.101063 
L 369.206784 234.726491 
L 375.492096 235.579547 
L 377.063424 236.101585 
L 383.348736 236.968589 
L 384.920064 236.868301 
L 386.491392 237.010847 
L 388.06272 237.570998 
L 389.634048 237.603593 
L 392.776704 238.67787 
L 394.348032 238.988635 
L 395.91936 239.13069 
L 399.062016 240.206298 
L 400.633344 240.516453 
L 402.204672 240.462194 
L 403.776 240.673674 
L 405.347328 240.694823 
L 406.918656 240.949958 
L 408.489984 240.928982 
L 410.061312 241.104403 
L 411.63264 241.420994 
L 413.203968 241.558103 
L 416.346624 242.199509 
L 417.917952 242.253995 
L 419.48928 242.65354 
L 421.060608 242.454365 
L 423.134781 242.607426 
L 423.134781 242.607426 
" clip-path="url(#p7b2f546445)" style="fill: none; stroke: #9467bd; stroke-width: 1.5; stroke-linecap: square"/>
    </g>
    <g id="line2d_64">
     <path d="M 243.500544 220.6192 
L 243.500544 74.2576 
" clip-path="url(#p7b2f546445)" style="fill: none; stroke-dasharray: 5.55,2.4; stroke-dashoffset: 0; stroke: #9467bd; stroke-width: 1.5"/>
    </g>
    <g id="line2d_65">
     <path d="M 72.150071 -1 
L 72.225792 -0.755902 
L 73.79712 3.653464 
L 76.939776 13.302372 
L 80.082432 21.941606 
L 83.225088 28.95941 
L 84.796416 33.515546 
L 87.939072 41.90851 
L 89.5104 45.37203 
L 97.36704 61.236217 
L 100.509696 66.332573 
L 105.22368 77.126706 
L 111.508992 88.693005 
L 113.08032 90.968072 
L 114.651648 94.034773 
L 116.222976 96.842413 
L 117.794304 100.232475 
L 122.508288 107.63871 
L 124.079616 110.539733 
L 125.650944 112.814204 
L 127.222272 114.438062 
L 135.078912 125.945695 
L 136.65024 127.399371 
L 138.221568 129.840649 
L 139.792896 131.641908 
L 141.364224 133.705764 
L 144.50688 138.734811 
L 146.078208 141.062607 
L 147.649536 142.353834 
L 149.220864 144.164684 
L 150.792192 145.726809 
L 152.36352 147.703073 
L 153.934848 149.063077 
L 157.077504 152.468277 
L 158.648832 153.219905 
L 160.22016 154.563136 
L 161.791488 156.529607 
L 163.362816 158.236843 
L 164.934144 159.739502 
L 168.0768 162.199366 
L 169.648128 163.363271 
L 172.790784 166.663174 
L 174.362112 167.932291 
L 175.93344 169.536558 
L 177.504768 170.308565 
L 179.076096 172.221107 
L 180.647424 173.687515 
L 182.218752 174.703487 
L 183.79008 175.485106 
L 185.361408 177.041673 
L 188.504064 179.347266 
L 190.075392 180.343495 
L 191.64672 181.598595 
L 193.218048 182.597531 
L 194.789376 183.873856 
L 196.360704 184.706908 
L 197.932032 185.904917 
L 201.074688 188.616957 
L 202.646016 189.616994 
L 204.217344 190.760086 
L 205.788672 192.092381 
L 207.36 193.067117 
L 210.502656 195.67974 
L 213.645312 197.732745 
L 215.21664 199.149434 
L 216.787968 199.567676 
L 219.930624 202.167312 
L 221.501952 203.053488 
L 223.07328 203.718158 
L 226.215936 205.617597 
L 227.787264 206.033802 
L 234.072576 209.389227 
L 235.643904 210.014308 
L 237.215232 210.510424 
L 238.78656 210.768068 
L 240.357888 211.460606 
L 241.929216 212.821578 
L 246.6432 215.336011 
L 248.214528 216.006382 
L 249.785856 217.056247 
L 251.357184 217.787746 
L 252.928512 218.719756 
L 256.071168 220.248433 
L 257.642496 220.878622 
L 262.35648 223.434268 
L 263.927808 223.658483 
L 265.499136 224.731736 
L 267.070464 225.290062 
L 268.641792 226.460891 
L 270.21312 227.484536 
L 271.784448 227.774934 
L 273.355776 228.513895 
L 274.927104 229.498884 
L 276.498432 229.916482 
L 279.641088 231.564965 
L 281.212416 231.805625 
L 282.783744 232.376046 
L 284.355072 232.536238 
L 290.640384 234.734655 
L 292.211712 235.540977 
L 296.925696 237.225225 
L 298.497024 237.599393 
L 300.068352 238.245433 
L 303.211008 238.584756 
L 309.49632 240.188677 
L 311.067648 240.211631 
L 314.210304 240.619202 
L 320.495616 242.701412 
L 322.066944 242.723009 
L 323.638272 243.486697 
L 325.2096 243.844398 
L 334.637568 247.2018 
L 336.208896 247.653756 
L 339.351552 248.244027 
L 340.92288 249.06142 
L 344.065536 249.505857 
L 345.636864 249.551948 
L 348.77952 250.014403 
L 350.350848 250.454792 
L 351.922176 250.515279 
L 355.064832 251.130618 
L 359.778816 251.925531 
L 362.921472 252.918795 
L 364.4928 253.201095 
L 366.064128 253.229361 
L 367.635456 253.506698 
L 369.206784 253.595835 
L 375.492096 254.735343 
L 377.063424 255.317464 
L 378.634752 255.719421 
L 383.348736 256.487441 
L 384.920064 257.034107 
L 388.06272 257.409394 
L 389.634048 257.868124 
L 392.776704 258.476861 
L 394.348032 258.894044 
L 395.91936 259.095261 
L 397.490688 259.660726 
L 399.062016 259.878205 
L 402.204672 260.029767 
L 403.776 260.477014 
L 405.347328 260.534695 
L 406.918656 260.960649 
L 408.489984 260.921274 
L 413.203968 261.243158 
L 414.775296 261.723135 
L 416.346624 261.988128 
L 417.917952 261.965503 
L 419.48928 262.217251 
L 421.060608 262.586234 
L 423.134781 262.913248 
L 423.134781 262.913248 
" clip-path="url(#p7b2f546445)" style="fill: none; stroke: #8c564b; stroke-width: 1.5; stroke-linecap: square"/>
    </g>
    <g id="line2d_66">
     <path d="M 208.931328 220.6192 
L 208.931328 74.2576 
" clip-path="url(#p7b2f546445)" style="fill: none; stroke-dasharray: 5.55,2.4; stroke-dashoffset: 0; stroke: #8c564b; stroke-width: 1.5"/>
    </g>
    <g id="line2d_67">
     <path d="M 72.603492 -1 
L 73.79712 2.985755 
L 78.511104 17.26543 
L 80.082432 20.243204 
L 81.65376 24.577849 
L 89.5104 42.649554 
L 91.081728 44.766244 
L 92.653056 48.448046 
L 94.224384 51.465387 
L 95.795712 55.492442 
L 97.36704 59.152796 
L 98.938368 61.383008 
L 102.081024 66.433768 
L 103.652352 68.926704 
L 105.22368 71.157868 
L 106.795008 74.120107 
L 108.366336 77.326331 
L 111.508992 82.596002 
L 117.794304 91.601483 
L 119.365632 93.168454 
L 120.93696 95.762985 
L 122.508288 98.077837 
L 124.079616 98.808972 
L 125.650944 99.915704 
L 127.222272 102.184819 
L 128.7936 104.242499 
L 130.364928 106.51422 
L 131.936256 108.144733 
L 133.507584 110.47023 
L 135.078912 112.052882 
L 138.221568 116.399204 
L 141.364224 119.931953 
L 142.935552 121.499711 
L 146.078208 125.372946 
L 147.649536 126.670484 
L 149.220864 129.162761 
L 152.36352 132.984746 
L 155.506176 135.975043 
L 157.077504 138.236954 
L 158.648832 139.291327 
L 160.22016 140.809427 
L 161.791488 141.801302 
L 163.362816 141.923395 
L 164.934144 143.778818 
L 166.505472 145.017578 
L 168.0768 145.915739 
L 171.219456 148.850144 
L 172.790784 150.698264 
L 174.362112 151.753376 
L 177.504768 154.835685 
L 179.076096 155.907963 
L 180.647424 157.495822 
L 182.218752 159.372593 
L 183.79008 160.165516 
L 185.361408 161.189505 
L 186.932736 161.91806 
L 188.504064 163.331185 
L 190.075392 163.885841 
L 191.64672 164.761886 
L 194.789376 167.220992 
L 196.360704 168.898255 
L 197.932032 169.71216 
L 199.50336 170.886214 
L 201.074688 171.913422 
L 202.646016 173.168298 
L 204.217344 173.914515 
L 210.502656 178.69012 
L 212.073984 179.724658 
L 213.645312 180.125692 
L 215.21664 181.481759 
L 216.787968 182.514277 
L 218.359296 183.104355 
L 219.930624 184.121877 
L 221.501952 184.896552 
L 223.07328 185.436104 
L 224.644608 186.514272 
L 226.215936 187.146051 
L 227.787264 187.515333 
L 229.358592 188.837171 
L 230.92992 190.305267 
L 232.501248 190.88967 
L 234.072576 191.833824 
L 235.643904 193.10594 
L 237.215232 194.186872 
L 238.78656 194.687483 
L 241.929216 195.362835 
L 243.500544 196.142908 
L 245.071872 197.509503 
L 246.6432 198.06594 
L 248.214528 198.870466 
L 249.785856 199.821531 
L 251.357184 200.625949 
L 252.928512 201.088284 
L 256.071168 202.520573 
L 257.642496 202.917947 
L 259.213824 203.894102 
L 260.785152 204.423565 
L 262.35648 204.746057 
L 263.927808 205.749386 
L 265.499136 206.393354 
L 267.070464 207.450725 
L 276.498432 211.654397 
L 284.355072 213.966451 
L 285.9264 214.66467 
L 287.497728 215.216268 
L 289.069056 216.113507 
L 290.640384 217.194055 
L 296.925696 220.228908 
L 298.497024 220.639138 
L 300.068352 220.785234 
L 301.63968 220.447792 
L 303.211008 221.0836 
L 304.782336 221.522031 
L 307.924992 222.669866 
L 312.638976 224.405765 
L 314.210304 224.657581 
L 315.781632 225.056337 
L 317.35296 225.059194 
L 320.495616 225.961142 
L 322.066944 225.786578 
L 323.638272 226.009276 
L 325.2096 226.022477 
L 328.352256 226.502078 
L 329.923584 227.378322 
L 333.06624 227.787463 
L 334.637568 228.268638 
L 336.208896 228.431421 
L 339.351552 229.347748 
L 340.92288 229.472225 
L 342.494208 230.437185 
L 344.065536 230.879505 
L 345.636864 231.153516 
L 347.208192 231.544501 
L 348.77952 231.757258 
L 351.922176 232.857157 
L 353.493504 233.100431 
L 355.064832 233.756941 
L 356.63616 233.710654 
L 358.207488 234.181138 
L 361.350144 234.598264 
L 362.921472 235.61575 
L 364.4928 236.012631 
L 367.635456 236.035153 
L 369.206784 236.525982 
L 372.34944 236.76096 
L 375.492096 237.453425 
L 377.063424 237.61145 
L 378.634752 237.949889 
L 380.20608 237.988418 
L 381.777408 238.481818 
L 383.348736 238.770234 
L 384.920064 238.903734 
L 386.491392 239.619371 
L 388.06272 239.540735 
L 389.634048 239.574586 
L 392.776704 240.207278 
L 394.348032 240.166302 
L 395.91936 240.616275 
L 397.490688 240.917496 
L 400.633344 241.225238 
L 402.204672 241.627718 
L 403.776 241.832257 
L 406.918656 242.647789 
L 408.489984 242.788248 
L 410.061312 243.167927 
L 411.63264 243.174337 
L 414.775296 243.463894 
L 416.346624 243.888642 
L 419.48928 244.029105 
L 423.134781 244.705783 
L 423.134781 244.705783 
" clip-path="url(#p7b2f546445)" style="fill: none; stroke: #e377c2; stroke-width: 1.5; stroke-linecap: square"/>
    </g>
    <g id="line2d_68">
     <path d="M 237.215232 220.6192 
L 237.215232 74.2576 
" clip-path="url(#p7b2f546445)" style="fill: none; stroke-dasharray: 5.55,2.4; stroke-dashoffset: 0; stroke: #e377c2; stroke-width: 1.5"/>
    </g>
    <g id="patch_8">
     <path d="M 207.36 220.6192 
L 207.36 74.2576 
" style="fill: none; stroke: #000000; stroke-width: 2; stroke-linejoin: miter; stroke-linecap: square"/>
    </g>
    <g id="patch_9">
     <path d="M 403.776 220.6192 
L 403.776 74.2576 
" style="fill: none; stroke: #000000; stroke-width: 2; stroke-linejoin: miter; stroke-linecap: square"/>
    </g>
    <g id="patch_10">
     <path d="M 207.36 220.6192 
L 403.776 220.6192 
" style="fill: none; stroke: #000000; stroke-width: 2; stroke-linejoin: miter; stroke-linecap: square"/>
    </g>
    <g id="patch_11">
     <path d="M 207.36 74.2576 
L 403.776 74.2576 
" style="fill: none; stroke: #000000; stroke-width: 2; stroke-linejoin: miter; stroke-linecap: square"/>
    </g>
   </g>
   <g id="legend_1">
    <g id="patch_12">
     <path d="M 43.833219 54.278125 
L 412.934781 54.278125 
Q 414.934781 54.278125 414.934781 52.278125 
L 414.934781 9.2 
Q 414.934781 7.2 412.934781 7.2 
L 43.833219 7.2 
Q 41.833219 7.2 41.833219 9.2 
L 41.833219 52.278125 
Q 41.833219 54.278125 43.833219 54.278125 
z
" style="fill: #ffffff; opacity: 0.8; stroke: #cccccc; stroke-linejoin: miter"/>
    </g>
    <g id="line2d_69">
     <path d="M 45.833219 15.298437 
L 55.833219 15.298437 
L 65.833219 15.298437 
" style="fill: none; stroke: #1f77b4; stroke-width: 2; stroke-linecap: square"/>
     <g>
      <use xlink:href="#m22b160fe8a" x="55.833219" y="15.298437" style="fill: #1f77b4; stroke: #1f77b4"/>
     </g>
    </g>
    <g id="text_21">
     <!-- $\kappa$ = 0.02 -->
     <g transform="translate(73.833219 18.798437) scale(0.1 -0.1)">
      <defs>
       <path id="DejaVuSans-Oblique-3ba" d="M 938 3500 
L 1531 3500 
L 1247 2047 
L 3041 3500 
L 3741 3500 
L 2106 2181 
L 3275 0 
L 2572 0 
L 1628 1806 
L 1122 1403 
L 850 0 
L 256 0 
L 938 3500 
z
" transform="scale(0.015625)"/>
       <path id="DejaVuSans-20" transform="scale(0.015625)"/>
       <path id="DejaVuSans-3d" d="M 678 2906 
L 4684 2906 
L 4684 2381 
L 678 2381 
L 678 2906 
z
M 678 1631 
L 4684 1631 
L 4684 1100 
L 678 1100 
L 678 1631 
z
" transform="scale(0.015625)"/>
      </defs>
      <use xlink:href="#DejaVuSans-Oblique-3ba" transform="translate(0 0.78125)"/>
      <use xlink:href="#DejaVuSans-20" transform="translate(58.935547 0.78125)"/>
      <use xlink:href="#DejaVuSans-3d" transform="translate(90.722656 0.78125)"/>
      <use xlink:href="#DejaVuSans-20" transform="translate(174.511719 0.78125)"/>
      <use xlink:href="#DejaVuSans-30" transform="translate(206.298828 0.78125)"/>
      <use xlink:href="#DejaVuSans-2e" transform="translate(269.921875 0.78125)"/>
      <use xlink:href="#DejaVuSans-30" transform="translate(301.708984 0.78125)"/>
      <use xlink:href="#DejaVuSans-32" transform="translate(365.332031 0.78125)"/>
     </g>
    </g>
    <g id="line2d_70">
     <path d="M 45.833219 29.978125 
L 55.833219 29.978125 
L 65.833219 29.978125 
" style="fill: none; stroke: #ff7f0e; stroke-width: 2; stroke-linecap: square"/>
     <g>
      <use xlink:href="#m4492829228" x="55.833219" y="29.978125" style="fill: #ff7f0e; stroke: #ff7f0e; stroke-linejoin: miter"/>
     </g>
    </g>
    <g id="text_22">
     <!-- Constant-edge ($\alpha$ = 0.244) -->
     <g transform="translate(73.833219 33.478125) scale(0.1 -0.1)">
      <defs>
       <path id="DejaVuSans-43" d="M 4122 4306 
L 4122 3641 
Q 3803 3938 3442 4084 
Q 3081 4231 2675 4231 
Q 1875 4231 1450 3742 
Q 1025 3253 1025 2328 
Q 1025 1406 1450 917 
Q 1875 428 2675 428 
Q 3081 428 3442 575 
Q 3803 722 4122 1019 
L 4122 359 
Q 3791 134 3420 21 
Q 3050 -91 2638 -91 
Q 1578 -91 968 557 
Q 359 1206 359 2328 
Q 359 3453 968 4101 
Q 1578 4750 2638 4750 
Q 3056 4750 3426 4639 
Q 3797 4528 4122 4306 
z
" transform="scale(0.015625)"/>
       <path id="DejaVuSans-6f" d="M 1959 3097 
Q 1497 3097 1228 2736 
Q 959 2375 959 1747 
Q 959 1119 1226 758 
Q 1494 397 1959 397 
Q 2419 397 2687 759 
Q 2956 1122 2956 1747 
Q 2956 2369 2687 2733 
Q 2419 3097 1959 3097 
z
M 1959 3584 
Q 2709 3584 3137 3096 
Q 3566 2609 3566 1747 
Q 3566 888 3137 398 
Q 2709 -91 1959 -91 
Q 1206 -91 779 398 
Q 353 888 353 1747 
Q 353 2609 779 3096 
Q 1206 3584 1959 3584 
z
" transform="scale(0.015625)"/>
       <path id="DejaVuSans-6e" d="M 3513 2113 
L 3513 0 
L 2938 0 
L 2938 2094 
Q 2938 2591 2744 2837 
Q 2550 3084 2163 3084 
Q 1697 3084 1428 2787 
Q 1159 2491 1159 1978 
L 1159 0 
L 581 0 
L 581 3500 
L 1159 3500 
L 1159 2956 
Q 1366 3272 1645 3428 
Q 1925 3584 2291 3584 
Q 2894 3584 3203 3211 
Q 3513 2838 3513 2113 
z
" transform="scale(0.015625)"/>
       <path id="DejaVuSans-73" d="M 2834 3397 
L 2834 2853 
Q 2591 2978 2328 3040 
Q 2066 3103 1784 3103 
Q 1356 3103 1142 2972 
Q 928 2841 928 2578 
Q 928 2378 1081 2264 
Q 1234 2150 1697 2047 
L 1894 2003 
Q 2506 1872 2764 1633 
Q 3022 1394 3022 966 
Q 3022 478 2636 193 
Q 2250 -91 1575 -91 
Q 1294 -91 989 -36 
Q 684 19 347 128 
L 347 722 
Q 666 556 975 473 
Q 1284 391 1588 391 
Q 1994 391 2212 530 
Q 2431 669 2431 922 
Q 2431 1156 2273 1281 
Q 2116 1406 1581 1522 
L 1381 1569 
Q 847 1681 609 1914 
Q 372 2147 372 2553 
Q 372 3047 722 3315 
Q 1072 3584 1716 3584 
Q 2034 3584 2315 3537 
Q 2597 3491 2834 3397 
z
" transform="scale(0.015625)"/>
       <path id="DejaVuSans-74" d="M 1172 4494 
L 1172 3500 
L 2356 3500 
L 2356 3053 
L 1172 3053 
L 1172 1153 
Q 1172 725 1289 603 
Q 1406 481 1766 481 
L 2356 481 
L 2356 0 
L 1766 0 
Q 1100 0 847 248 
Q 594 497 594 1153 
L 594 3053 
L 172 3053 
L 172 3500 
L 594 3500 
L 594 4494 
L 1172 4494 
z
" transform="scale(0.015625)"/>
       <path id="DejaVuSans-61" d="M 2194 1759 
Q 1497 1759 1228 1600 
Q 959 1441 959 1056 
Q 959 750 1161 570 
Q 1363 391 1709 391 
Q 2188 391 2477 730 
Q 2766 1069 2766 1631 
L 2766 1759 
L 2194 1759 
z
M 3341 1997 
L 3341 0 
L 2766 0 
L 2766 531 
Q 2569 213 2275 61 
Q 1981 -91 1556 -91 
Q 1019 -91 701 211 
Q 384 513 384 1019 
Q 384 1609 779 1909 
Q 1175 2209 1959 2209 
L 2766 2209 
L 2766 2266 
Q 2766 2663 2505 2880 
Q 2244 3097 1772 3097 
Q 1472 3097 1187 3025 
Q 903 2953 641 2809 
L 641 3341 
Q 956 3463 1253 3523 
Q 1550 3584 1831 3584 
Q 2591 3584 2966 3190 
Q 3341 2797 3341 1997 
z
" transform="scale(0.015625)"/>
       <path id="DejaVuSans-2d" d="M 313 2009 
L 1997 2009 
L 1997 1497 
L 313 1497 
L 313 2009 
z
" transform="scale(0.015625)"/>
       <path id="DejaVuSans-65" d="M 3597 1894 
L 3597 1613 
L 953 1613 
Q 991 1019 1311 708 
Q 1631 397 2203 397 
Q 2534 397 2845 478 
Q 3156 559 3463 722 
L 3463 178 
Q 3153 47 2828 -22 
Q 2503 -91 2169 -91 
Q 1331 -91 842 396 
Q 353 884 353 1716 
Q 353 2575 817 3079 
Q 1281 3584 2069 3584 
Q 2775 3584 3186 3129 
Q 3597 2675 3597 1894 
z
M 3022 2063 
Q 3016 2534 2758 2815 
Q 2500 3097 2075 3097 
Q 1594 3097 1305 2825 
Q 1016 2553 972 2059 
L 3022 2063 
z
" transform="scale(0.015625)"/>
       <path id="DejaVuSans-64" d="M 2906 2969 
L 2906 4863 
L 3481 4863 
L 3481 0 
L 2906 0 
L 2906 525 
Q 2725 213 2448 61 
Q 2172 -91 1784 -91 
Q 1150 -91 751 415 
Q 353 922 353 1747 
Q 353 2572 751 3078 
Q 1150 3584 1784 3584 
Q 2172 3584 2448 3432 
Q 2725 3281 2906 2969 
z
M 947 1747 
Q 947 1113 1208 752 
Q 1469 391 1925 391 
Q 2381 391 2643 752 
Q 2906 1113 2906 1747 
Q 2906 2381 2643 2742 
Q 2381 3103 1925 3103 
Q 1469 3103 1208 2742 
Q 947 2381 947 1747 
z
" transform="scale(0.015625)"/>
       <path id="DejaVuSans-67" d="M 2906 1791 
Q 2906 2416 2648 2759 
Q 2391 3103 1925 3103 
Q 1463 3103 1205 2759 
Q 947 2416 947 1791 
Q 947 1169 1205 825 
Q 1463 481 1925 481 
Q 2391 481 2648 825 
Q 2906 1169 2906 1791 
z
M 3481 434 
Q 3481 -459 3084 -895 
Q 2688 -1331 1869 -1331 
Q 1566 -1331 1297 -1286 
Q 1028 -1241 775 -1147 
L 775 -588 
Q 1028 -725 1275 -790 
Q 1522 -856 1778 -856 
Q 2344 -856 2625 -561 
Q 2906 -266 2906 331 
L 2906 616 
Q 2728 306 2450 153 
Q 2172 0 1784 0 
Q 1141 0 747 490 
Q 353 981 353 1791 
Q 353 2603 747 3093 
Q 1141 3584 1784 3584 
Q 2172 3584 2450 3431 
Q 2728 3278 2906 2969 
L 2906 3500 
L 3481 3500 
L 3481 434 
z
" transform="scale(0.015625)"/>
       <path id="DejaVuSans-28" d="M 1984 4856 
Q 1566 4138 1362 3434 
Q 1159 2731 1159 2009 
Q 1159 1288 1364 580 
Q 1569 -128 1984 -844 
L 1484 -844 
Q 1016 -109 783 600 
Q 550 1309 550 2009 
Q 550 2706 781 3412 
Q 1013 4119 1484 4856 
L 1984 4856 
z
" transform="scale(0.015625)"/>
       <path id="DejaVuSans-Oblique-3b1" d="M 2619 1628 
L 2622 2350 
Q 2625 3088 2069 3091 
Q 1653 3094 1394 2747 
Q 1069 2319 959 1747 
Q 825 1059 994 731 
Q 1169 397 1547 397 
Q 1966 397 2319 1063 
L 2619 1628 
z
M 2166 3578 
Q 3141 3594 3128 2584 
Q 3128 2584 3616 3500 
L 4128 3500 
L 3119 1603 
L 3109 919 
Q 3109 766 3194 638 
Q 3291 488 3391 488 
L 3669 488 
L 3575 0 
L 3228 0 
Q 2934 0 2722 263 
Q 2622 394 2619 669 
Q 2416 334 2066 50 
Q 1900 -81 1453 -78 
Q 722 -72 456 397 
Q 184 884 353 1747 
Q 534 2675 1009 3097 
Q 1544 3569 2166 3578 
z
" transform="scale(0.015625)"/>
       <path id="DejaVuSans-29" d="M 513 4856 
L 1013 4856 
Q 1481 4119 1714 3412 
Q 1947 2706 1947 2009 
Q 1947 1309 1714 600 
Q 1481 -109 1013 -844 
L 513 -844 
Q 928 -128 1133 580 
Q 1338 1288 1338 2009 
Q 1338 2731 1133 3434 
Q 928 4138 513 4856 
z
" transform="scale(0.015625)"/>
      </defs>
      <use xlink:href="#DejaVuSans-43" transform="translate(0 0.015625)"/>
      <use xlink:href="#DejaVuSans-6f" transform="translate(69.824219 0.015625)"/>
      <use xlink:href="#DejaVuSans-6e" transform="translate(131.005859 0.015625)"/>
      <use xlink:href="#DejaVuSans-73" transform="translate(194.384766 0.015625)"/>
      <use xlink:href="#DejaVuSans-74" transform="translate(246.484375 0.015625)"/>
      <use xlink:href="#DejaVuSans-61" transform="translate(285.693359 0.015625)"/>
      <use xlink:href="#DejaVuSans-6e" transform="translate(346.972656 0.015625)"/>
      <use xlink:href="#DejaVuSans-74" transform="translate(410.351562 0.015625)"/>
      <use xlink:href="#DejaVuSans-2d" transform="translate(449.560547 0.015625)"/>
      <use xlink:href="#DejaVuSans-65" transform="translate(485.644531 0.015625)"/>
      <use xlink:href="#DejaVuSans-64" transform="translate(547.167969 0.015625)"/>
      <use xlink:href="#DejaVuSans-67" transform="translate(610.644531 0.015625)"/>
      <use xlink:href="#DejaVuSans-65" transform="translate(674.121094 0.015625)"/>
      <use xlink:href="#DejaVuSans-20" transform="translate(735.644531 0.015625)"/>
      <use xlink:href="#DejaVuSans-28" transform="translate(767.431641 0.015625)"/>
      <use xlink:href="#DejaVuSans-Oblique-3b1" transform="translate(806.445312 0.015625)"/>
      <use xlink:href="#DejaVuSans-20" transform="translate(872.363281 0.015625)"/>
      <use xlink:href="#DejaVuSans-3d" transform="translate(904.150391 0.015625)"/>
      <use xlink:href="#DejaVuSans-20" transform="translate(987.939453 0.015625)"/>
      <use xlink:href="#DejaVuSans-30" transform="translate(1019.726562 0.015625)"/>
      <use xlink:href="#DejaVuSans-2e" transform="translate(1083.349609 0.015625)"/>
      <use xlink:href="#DejaVuSans-32" transform="translate(1109.636719 0.015625)"/>
      <use xlink:href="#DejaVuSans-34" transform="translate(1173.259766 0.015625)"/>
      <use xlink:href="#DejaVuSans-34" transform="translate(1236.882812 0.015625)"/>
      <use xlink:href="#DejaVuSans-29" transform="translate(1300.505859 0.015625)"/>
     </g>
    </g>
    <g id="line2d_71">
     <path d="M 45.833219 44.678125 
L 55.833219 44.678125 
L 65.833219 44.678125 
" style="fill: none; stroke: #2ca02c; stroke-width: 2; stroke-linecap: square"/>
     <g>
      <use xlink:href="#m6ad8bf9546" x="55.833219" y="44.678125" style="fill: #2ca02c; stroke: #2ca02c; stroke-linejoin: miter"/>
     </g>
    </g>
    <g id="text_23">
     <!-- Maximum-degree ($\alpha$ = 0.167) -->
     <g transform="translate(73.833219 48.178125) scale(0.1 -0.1)">
      <defs>
       <path id="DejaVuSans-4d" d="M 628 4666 
L 1569 4666 
L 2759 1491 
L 3956 4666 
L 4897 4666 
L 4897 0 
L 4281 0 
L 4281 4097 
L 3078 897 
L 2444 897 
L 1241 4097 
L 1241 0 
L 628 0 
L 628 4666 
z
" transform="scale(0.015625)"/>
       <path id="DejaVuSans-78" d="M 3513 3500 
L 2247 1797 
L 3578 0 
L 2900 0 
L 1881 1375 
L 863 0 
L 184 0 
L 1544 1831 
L 300 3500 
L 978 3500 
L 1906 2253 
L 2834 3500 
L 3513 3500 
z
" transform="scale(0.015625)"/>
       <path id="DejaVuSans-69" d="M 603 3500 
L 1178 3500 
L 1178 0 
L 603 0 
L 603 3500 
z
M 603 4863 
L 1178 4863 
L 1178 4134 
L 603 4134 
L 603 4863 
z
" transform="scale(0.015625)"/>
       <path id="DejaVuSans-6d" d="M 3328 2828 
Q 3544 3216 3844 3400 
Q 4144 3584 4550 3584 
Q 5097 3584 5394 3201 
Q 5691 2819 5691 2113 
L 5691 0 
L 5113 0 
L 5113 2094 
Q 5113 2597 4934 2840 
Q 4756 3084 4391 3084 
Q 3944 3084 3684 2787 
Q 3425 2491 3425 1978 
L 3425 0 
L 2847 0 
L 2847 2094 
Q 2847 2600 2669 2842 
Q 2491 3084 2119 3084 
Q 1678 3084 1418 2786 
Q 1159 2488 1159 1978 
L 1159 0 
L 581 0 
L 581 3500 
L 1159 3500 
L 1159 2956 
Q 1356 3278 1631 3431 
Q 1906 3584 2284 3584 
Q 2666 3584 2933 3390 
Q 3200 3197 3328 2828 
z
" transform="scale(0.015625)"/>
       <path id="DejaVuSans-75" d="M 544 1381 
L 544 3500 
L 1119 3500 
L 1119 1403 
Q 1119 906 1312 657 
Q 1506 409 1894 409 
Q 2359 409 2629 706 
Q 2900 1003 2900 1516 
L 2900 3500 
L 3475 3500 
L 3475 0 
L 2900 0 
L 2900 538 
Q 2691 219 2414 64 
Q 2138 -91 1772 -91 
Q 1169 -91 856 284 
Q 544 659 544 1381 
z
M 1991 3584 
L 1991 3584 
z
" transform="scale(0.015625)"/>
       <path id="DejaVuSans-72" d="M 2631 2963 
Q 2534 3019 2420 3045 
Q 2306 3072 2169 3072 
Q 1681 3072 1420 2755 
Q 1159 2438 1159 1844 
L 1159 0 
L 581 0 
L 581 3500 
L 1159 3500 
L 1159 2956 
Q 1341 3275 1631 3429 
Q 1922 3584 2338 3584 
Q 2397 3584 2469 3576 
Q 2541 3569 2628 3553 
L 2631 2963 
z
" transform="scale(0.015625)"/>
       <path id="DejaVuSans-37" d="M 525 4666 
L 3525 4666 
L 3525 4397 
L 1831 0 
L 1172 0 
L 2766 4134 
L 525 4134 
L 525 4666 
z
" transform="scale(0.015625)"/>
      </defs>
      <use xlink:href="#DejaVuSans-4d" transform="translate(0 0.015625)"/>
      <use xlink:href="#DejaVuSans-61" transform="translate(86.279297 0.015625)"/>
      <use xlink:href="#DejaVuSans-78" transform="translate(147.558594 0.015625)"/>
      <use xlink:href="#DejaVuSans-69" transform="translate(206.738281 0.015625)"/>
      <use xlink:href="#DejaVuSans-6d" transform="translate(234.521484 0.015625)"/>
      <use xlink:href="#DejaVuSans-75" transform="translate(331.933594 0.015625)"/>
      <use xlink:href="#DejaVuSans-6d" transform="translate(395.3125 0.015625)"/>
      <use xlink:href="#DejaVuSans-2d" transform="translate(490.974609 0.015625)"/>
      <use xlink:href="#DejaVuSans-64" transform="translate(527.058594 0.015625)"/>
      <use xlink:href="#DejaVuSans-65" transform="translate(590.535156 0.015625)"/>
      <use xlink:href="#DejaVuSans-67" transform="translate(652.058594 0.015625)"/>
      <use xlink:href="#DejaVuSans-72" transform="translate(715.535156 0.015625)"/>
      <use xlink:href="#DejaVuSans-65" transform="translate(756.648438 0.015625)"/>
      <use xlink:href="#DejaVuSans-65" transform="translate(818.171875 0.015625)"/>
      <use xlink:href="#DejaVuSans-20" transform="translate(879.695312 0.015625)"/>
      <use xlink:href="#DejaVuSans-28" transform="translate(911.482422 0.015625)"/>
      <use xlink:href="#DejaVuSans-Oblique-3b1" transform="translate(950.496094 0.015625)"/>
      <use xlink:href="#DejaVuSans-20" transform="translate(1016.414062 0.015625)"/>
      <use xlink:href="#DejaVuSans-3d" transform="translate(1048.201172 0.015625)"/>
      <use xlink:href="#DejaVuSans-20" transform="translate(1131.990234 0.015625)"/>
      <use xlink:href="#DejaVuSans-30" transform="translate(1163.777344 0.015625)"/>
      <use xlink:href="#DejaVuSans-2e" transform="translate(1227.400391 0.015625)"/>
      <use xlink:href="#DejaVuSans-31" transform="translate(1259.1875 0.015625)"/>
      <use xlink:href="#DejaVuSans-36" transform="translate(1322.810547 0.015625)"/>
      <use xlink:href="#DejaVuSans-37" transform="translate(1386.433594 0.015625)"/>
      <use xlink:href="#DejaVuSans-29" transform="translate(1450.056641 0.015625)"/>
     </g>
    </g>
    <g id="line2d_72">
     <path d="M 242.833219 15.298437 
L 252.833219 15.298437 
L 262.833219 15.298437 
" style="fill: none; stroke: #d62728; stroke-width: 2; stroke-linecap: square"/>
     <g>
      <use xlink:href="#mb5138d7b87" x="252.833219" y="15.298437" style="fill: #d62728; stroke: #d62728"/>
     </g>
    </g>
    <g id="text_24">
     <!-- Local-degree -->
     <g transform="translate(270.833219 18.798437) scale(0.1 -0.1)">
      <defs>
       <path id="DejaVuSans-4c" d="M 628 4666 
L 1259 4666 
L 1259 531 
L 3531 531 
L 3531 0 
L 628 0 
L 628 4666 
z
" transform="scale(0.015625)"/>
       <path id="DejaVuSans-63" d="M 3122 3366 
L 3122 2828 
Q 2878 2963 2633 3030 
Q 2388 3097 2138 3097 
Q 1578 3097 1268 2742 
Q 959 2388 959 1747 
Q 959 1106 1268 751 
Q 1578 397 2138 397 
Q 2388 397 2633 464 
Q 2878 531 3122 666 
L 3122 134 
Q 2881 22 2623 -34 
Q 2366 -91 2075 -91 
Q 1284 -91 818 406 
Q 353 903 353 1747 
Q 353 2603 823 3093 
Q 1294 3584 2113 3584 
Q 2378 3584 2631 3529 
Q 2884 3475 3122 3366 
z
" transform="scale(0.015625)"/>
       <path id="DejaVuSans-6c" d="M 603 4863 
L 1178 4863 
L 1178 0 
L 603 0 
L 603 4863 
z
" transform="scale(0.015625)"/>
      </defs>
      <use xlink:href="#DejaVuSans-4c"/>
      <use xlink:href="#DejaVuSans-6f" x="53.962891"/>
      <use xlink:href="#DejaVuSans-63" x="115.144531"/>
      <use xlink:href="#DejaVuSans-61" x="170.125"/>
      <use xlink:href="#DejaVuSans-6c" x="231.404297"/>
      <use xlink:href="#DejaVuSans-2d" x="259.1875"/>
      <use xlink:href="#DejaVuSans-64" x="295.271484"/>
      <use xlink:href="#DejaVuSans-65" x="358.748047"/>
      <use xlink:href="#DejaVuSans-67" x="420.271484"/>
      <use xlink:href="#DejaVuSans-72" x="483.748047"/>
      <use xlink:href="#DejaVuSans-65" x="522.611328"/>
      <use xlink:href="#DejaVuSans-65" x="584.134766"/>
     </g>
    </g>
    <g id="line2d_73">
     <path d="M 242.833219 29.976562 
L 252.833219 29.976562 
L 262.833219 29.976562 
" style="fill: none; stroke: #9467bd; stroke-width: 2; stroke-linecap: square"/>
     <g>
      <use xlink:href="#m72979c2c61" x="252.833219" y="29.976562" style="fill: #9467bd; stroke: #9467bd; stroke-linejoin: miter"/>
     </g>
    </g>
    <g id="text_25">
     <!-- FMMC -->
     <g transform="translate(270.833219 33.476562) scale(0.1 -0.1)">
      <defs>
       <path id="DejaVuSans-46" d="M 628 4666 
L 3309 4666 
L 3309 4134 
L 1259 4134 
L 1259 2759 
L 3109 2759 
L 3109 2228 
L 1259 2228 
L 1259 0 
L 628 0 
L 628 4666 
z
" transform="scale(0.015625)"/>
      </defs>
      <use xlink:href="#DejaVuSans-46"/>
      <use xlink:href="#DejaVuSans-4d" x="57.519531"/>
      <use xlink:href="#DejaVuSans-4d" x="143.798828"/>
      <use xlink:href="#DejaVuSans-43" x="230.078125"/>
     </g>
    </g>
    <g id="line2d_74">
     <path d="M 355.403531 15.298437 
L 365.403531 15.298437 
L 375.403531 15.298437 
" style="fill: none; stroke: #8c564b; stroke-width: 2; stroke-linecap: square"/>
     <g>
      <use xlink:href="#m068f8e1c80" x="365.403531" y="15.298437" style="fill: #8c564b; stroke: #8c564b; stroke-linejoin: miter"/>
     </g>
    </g>
    <g id="text_26">
     <!-- FDLA -->
     <g transform="translate(383.403531 18.798437) scale(0.1 -0.1)">
      <defs>
       <path id="DejaVuSans-44" d="M 1259 4147 
L 1259 519 
L 2022 519 
Q 2988 519 3436 956 
Q 3884 1394 3884 2338 
Q 3884 3275 3436 3711 
Q 2988 4147 2022 4147 
L 1259 4147 
z
M 628 4666 
L 1925 4666 
Q 3281 4666 3915 4102 
Q 4550 3538 4550 2338 
Q 4550 1131 3912 565 
Q 3275 0 1925 0 
L 628 0 
L 628 4666 
z
" transform="scale(0.015625)"/>
       <path id="DejaVuSans-41" d="M 2188 4044 
L 1331 1722 
L 3047 1722 
L 2188 4044 
z
M 1831 4666 
L 2547 4666 
L 4325 0 
L 3669 0 
L 3244 1197 
L 1141 1197 
L 716 0 
L 50 0 
L 1831 4666 
z
" transform="scale(0.015625)"/>
      </defs>
      <use xlink:href="#DejaVuSans-46"/>
      <use xlink:href="#DejaVuSans-44" x="57.519531"/>
      <use xlink:href="#DejaVuSans-4c" x="134.521484"/>
      <use xlink:href="#DejaVuSans-41" x="192.484375"/>
     </g>
    </g>
    <g id="line2d_75">
     <path d="M 355.403531 29.976562 
L 365.403531 29.976562 
L 375.403531 29.976562 
" style="fill: none; stroke: #e377c2; stroke-width: 2; stroke-linecap: square"/>
     <g>
      <use xlink:href="#m633582de65" x="365.403531" y="29.976562" style="fill: #e377c2; stroke: #e377c2"/>
     </g>
    </g>
    <g id="text_27">
     <!-- LMSC -->
     <g transform="translate(383.403531 33.476562) scale(0.1 -0.1)">
      <defs>
       <path id="DejaVuSans-53" d="M 3425 4513 
L 3425 3897 
Q 3066 4069 2747 4153 
Q 2428 4238 2131 4238 
Q 1616 4238 1336 4038 
Q 1056 3838 1056 3469 
Q 1056 3159 1242 3001 
Q 1428 2844 1947 2747 
L 2328 2669 
Q 3034 2534 3370 2195 
Q 3706 1856 3706 1288 
Q 3706 609 3251 259 
Q 2797 -91 1919 -91 
Q 1588 -91 1214 -16 
Q 841 59 441 206 
L 441 856 
Q 825 641 1194 531 
Q 1563 422 1919 422 
Q 2459 422 2753 634 
Q 3047 847 3047 1241 
Q 3047 1584 2836 1778 
Q 2625 1972 2144 2069 
L 1759 2144 
Q 1053 2284 737 2584 
Q 422 2884 422 3419 
Q 422 4038 858 4394 
Q 1294 4750 2059 4750 
Q 2388 4750 2728 4690 
Q 3069 4631 3425 4513 
z
" transform="scale(0.015625)"/>
      </defs>
      <use xlink:href="#DejaVuSans-4c"/>
      <use xlink:href="#DejaVuSans-4d" x="55.712891"/>
      <use xlink:href="#DejaVuSans-53" x="141.992188"/>
      <use xlink:href="#DejaVuSans-43" x="205.46875"/>
     </g>
    </g>
   </g>
  </g>
  <g id="patch_13">
   <path d="M 302.132778 302.075367 
Q 254.746389 261.347283 207.36 220.6192 
" style="fill: none; stroke: #000000; stroke-linecap: round"/>
  </g>
  <g id="text_28">
   <!-- Timesteps -->
   <g transform="translate(197.599313 359.128375) scale(0.12 -0.12)">
    <defs>
     <path id="DejaVuSans-54" d="M -19 4666 
L 3928 4666 
L 3928 4134 
L 2272 4134 
L 2272 0 
L 1638 0 
L 1638 4134 
L -19 4134 
L -19 4666 
z
" transform="scale(0.015625)"/>
     <path id="DejaVuSans-70" d="M 1159 525 
L 1159 -1331 
L 581 -1331 
L 581 3500 
L 1159 3500 
L 1159 2969 
Q 1341 3281 1617 3432 
Q 1894 3584 2278 3584 
Q 2916 3584 3314 3078 
Q 3713 2572 3713 1747 
Q 3713 922 3314 415 
Q 2916 -91 2278 -91 
Q 1894 -91 1617 61 
Q 1341 213 1159 525 
z
M 3116 1747 
Q 3116 2381 2855 2742 
Q 2594 3103 2138 3103 
Q 1681 3103 1420 2742 
Q 1159 2381 1159 1747 
Q 1159 1113 1420 752 
Q 1681 391 2138 391 
Q 2594 391 2855 752 
Q 3116 1113 3116 1747 
z
" transform="scale(0.015625)"/>
    </defs>
    <use xlink:href="#DejaVuSans-54"/>
    <use xlink:href="#DejaVuSans-69" x="57.958984"/>
    <use xlink:href="#DejaVuSans-6d" x="85.742188"/>
    <use xlink:href="#DejaVuSans-65" x="183.154297"/>
    <use xlink:href="#DejaVuSans-73" x="244.677734"/>
    <use xlink:href="#DejaVuSans-74" x="296.777344"/>
    <use xlink:href="#DejaVuSans-65" x="335.986328"/>
    <use xlink:href="#DejaVuSans-70" x="397.509766"/>
    <use xlink:href="#DejaVuSans-73" x="460.986328"/>
   </g>
  </g>
  <g id="text_29">
   <!-- Mean estimate error for the best arm -->
   <g transform="translate(16.318125 303.952187) rotate(-90) scale(0.12 -0.12)">
    <defs>
     <path id="DejaVuSans-66" d="M 2375 4863 
L 2375 4384 
L 1825 4384 
Q 1516 4384 1395 4259 
Q 1275 4134 1275 3809 
L 1275 3500 
L 2222 3500 
L 2222 3053 
L 1275 3053 
L 1275 0 
L 697 0 
L 697 3053 
L 147 3053 
L 147 3500 
L 697 3500 
L 697 3744 
Q 697 4328 969 4595 
Q 1241 4863 1831 4863 
L 2375 4863 
z
" transform="scale(0.015625)"/>
     <path id="DejaVuSans-68" d="M 3513 2113 
L 3513 0 
L 2938 0 
L 2938 2094 
Q 2938 2591 2744 2837 
Q 2550 3084 2163 3084 
Q 1697 3084 1428 2787 
Q 1159 2491 1159 1978 
L 1159 0 
L 581 0 
L 581 4863 
L 1159 4863 
L 1159 2956 
Q 1366 3272 1645 3428 
Q 1925 3584 2291 3584 
Q 2894 3584 3203 3211 
Q 3513 2838 3513 2113 
z
" transform="scale(0.015625)"/>
     <path id="DejaVuSans-62" d="M 3116 1747 
Q 3116 2381 2855 2742 
Q 2594 3103 2138 3103 
Q 1681 3103 1420 2742 
Q 1159 2381 1159 1747 
Q 1159 1113 1420 752 
Q 1681 391 2138 391 
Q 2594 391 2855 752 
Q 3116 1113 3116 1747 
z
M 1159 2969 
Q 1341 3281 1617 3432 
Q 1894 3584 2278 3584 
Q 2916 3584 3314 3078 
Q 3713 2572 3713 1747 
Q 3713 922 3314 415 
Q 2916 -91 2278 -91 
Q 1894 -91 1617 61 
Q 1341 213 1159 525 
L 1159 0 
L 581 0 
L 581 4863 
L 1159 4863 
L 1159 2969 
z
" transform="scale(0.015625)"/>
    </defs>
    <use xlink:href="#DejaVuSans-4d"/>
    <use xlink:href="#DejaVuSans-65" x="86.279297"/>
    <use xlink:href="#DejaVuSans-61" x="147.802734"/>
    <use xlink:href="#DejaVuSans-6e" x="209.082031"/>
    <use xlink:href="#DejaVuSans-20" x="272.460938"/>
    <use xlink:href="#DejaVuSans-65" x="304.248047"/>
    <use xlink:href="#DejaVuSans-73" x="365.771484"/>
    <use xlink:href="#DejaVuSans-74" x="417.871094"/>
    <use xlink:href="#DejaVuSans-69" x="457.080078"/>
    <use xlink:href="#DejaVuSans-6d" x="484.863281"/>
    <use xlink:href="#DejaVuSans-61" x="582.275391"/>
    <use xlink:href="#DejaVuSans-74" x="643.554688"/>
    <use xlink:href="#DejaVuSans-65" x="682.763672"/>
    <use xlink:href="#DejaVuSans-20" x="744.287109"/>
    <use xlink:href="#DejaVuSans-65" x="776.074219"/>
    <use xlink:href="#DejaVuSans-72" x="837.597656"/>
    <use xlink:href="#DejaVuSans-72" x="876.960938"/>
    <use xlink:href="#DejaVuSans-6f" x="915.824219"/>
    <use xlink:href="#DejaVuSans-72" x="977.005859"/>
    <use xlink:href="#DejaVuSans-20" x="1018.119141"/>
    <use xlink:href="#DejaVuSans-66" x="1049.90625"/>
    <use xlink:href="#DejaVuSans-6f" x="1085.111328"/>
    <use xlink:href="#DejaVuSans-72" x="1146.292969"/>
    <use xlink:href="#DejaVuSans-20" x="1187.40625"/>
    <use xlink:href="#DejaVuSans-74" x="1219.193359"/>
    <use xlink:href="#DejaVuSans-68" x="1258.402344"/>
    <use xlink:href="#DejaVuSans-65" x="1321.78125"/>
    <use xlink:href="#DejaVuSans-20" x="1383.304688"/>
    <use xlink:href="#DejaVuSans-62" x="1415.091797"/>
    <use xlink:href="#DejaVuSans-65" x="1478.568359"/>
    <use xlink:href="#DejaVuSans-73" x="1540.091797"/>
    <use xlink:href="#DejaVuSans-74" x="1592.191406"/>
    <use xlink:href="#DejaVuSans-20" x="1631.400391"/>
    <use xlink:href="#DejaVuSans-61" x="1663.1875"/>
    <use xlink:href="#DejaVuSans-72" x="1724.466797"/>
    <use xlink:href="#DejaVuSans-6d" x="1763.830078"/>
   </g>
  </g>
 </g>
 <defs>
  <clipPath id="p08e66ab26c">
   <rect x="55.584" y="60.952" width="357.12" height="266.112"/>
  </clipPath>
  <clipPath id="p7b2f546445">
   <rect x="207.36" y="74.2576" width="196.416" height="146.3616"/>
  </clipPath>
 </defs>
</svg>
