<?xml version="1.0" encoding="utf-8" standalone="no"?>
<!DOCTYPE svg PUBLIC "-//W3C//DTD SVG 1.1//EN"
  "http://www.w3.org/Graphics/SVG/1.1/DTD/svg11.dtd">
<svg xmlns:xlink="http://www.w3.org/1999/xlink" width="424.33725pt" height="368.824pt" viewBox="0 0 424.33725 368.824" xmlns="http://www.w3.org/2000/svg" version="1.1">
 <metadata>
  <rdf:RDF xmlns:dc="http://purl.org/dc/elements/1.1/" xmlns:cc="http://creativecommons.org/ns#" xmlns:rdf="http://www.w3.org/1999/02/22-rdf-syntax-ns#">
   <cc:Work>
    <dc:type rdf:resource="http://purl.org/dc/dcmitype/StillImage"/>
    <dc:date>2024-06-06T16:40:20.625675</dc:date>
    <dc:format>image/svg+xml</dc:format>
    <dc:creator>
     <cc:Agent>
      <dc:title>Matplotlib v3.9.0, https://matplotlib.org/</dc:title>
     </cc:Agent>
    </dc:creator>
   </cc:Work>
  </rdf:RDF>
 </metadata>
 <defs>
  <style type="text/css">*{stroke-linejoin: round; stroke-linecap: butt}</style>
 </defs>
 <g id="figure_1">
  <g id="patch_1">
   <path d="M 0 368.824 
L 424.33725 368.824 
L 424.33725 0 
L 0 0 
z
" style="fill: #ffffff"/>
  </g>
  <g id="axes_1">
   <g id="patch_2">
    <path d="M 55.584 327.064 
L 412.704 327.064 
L 412.704 60.952 
L 55.584 60.952 
z
" style="fill: #ffffff"/>
   </g>
   <g id="PolyCollection_1">
    <path d="M 222.107709 303.431426 
L 222.107709 307.472052 
L 266.999821 307.472052 
L 266.999821 303.431426 
L 266.999821 303.431426 
L 222.107709 303.431426 
z
" clip-path="url(#p6dc0f46928)" style="fill-opacity: 0.2"/>
   </g>
   <g id="matplotlib.axis_1">
    <g id="xtick_1">
     <g id="line2d_1">
      <path d="M 71.816727 327.064 
L 71.816727 60.952 
" clip-path="url(#p6dc0f46928)" style="fill: none; stroke: #b0b0b0; stroke-width: 0.8; stroke-linecap: square"/>
     </g>
     <g id="line2d_2">
      <defs>
       <path id="m97aa80c074" d="M 0 0 
L 0 3.5 
" style="stroke: #000000; stroke-width: 0.8"/>
      </defs>
      <g>
       <use xlink:href="#m97aa80c074" x="71.816727" y="327.064" style="stroke: #000000; stroke-width: 0.8"/>
      </g>
     </g>
     <g id="text_1">
      <!-- 0 -->
      <g transform="translate(67.362977 344.701812) scale(0.14 -0.14)">
       <defs>
        <path id="DejaVuSans-30" d="M 2034 4250 
Q 1547 4250 1301 3770 
Q 1056 3291 1056 2328 
Q 1056 1369 1301 889 
Q 1547 409 2034 409 
Q 2525 409 2770 889 
Q 3016 1369 3016 2328 
Q 3016 3291 2770 3770 
Q 2525 4250 2034 4250 
z
M 2034 4750 
Q 2819 4750 3233 4129 
Q 3647 3509 3647 2328 
Q 3647 1150 3233 529 
Q 2819 -91 2034 -91 
Q 1250 -91 836 529 
Q 422 1150 422 2328 
Q 422 3509 836 4129 
Q 1250 4750 2034 4750 
z
" transform="scale(0.015625)"/>
       </defs>
       <use xlink:href="#DejaVuSans-30"/>
      </g>
     </g>
    </g>
    <g id="xtick_2">
     <g id="line2d_3">
      <path d="M 136.877758 327.064 
L 136.877758 60.952 
" clip-path="url(#p6dc0f46928)" style="fill: none; stroke: #b0b0b0; stroke-width: 0.8; stroke-linecap: square"/>
     </g>
     <g id="line2d_4">
      <g>
       <use xlink:href="#m97aa80c074" x="136.877758" y="327.064" style="stroke: #000000; stroke-width: 0.8"/>
      </g>
     </g>
     <g id="text_2">
      <!-- 100 -->
      <g transform="translate(123.516508 344.701812) scale(0.14 -0.14)">
       <defs>
        <path id="DejaVuSans-31" d="M 794 531 
L 1825 531 
L 1825 4091 
L 703 3866 
L 703 4441 
L 1819 4666 
L 2450 4666 
L 2450 531 
L 3481 531 
L 3481 0 
L 794 0 
L 794 531 
z
" transform="scale(0.015625)"/>
       </defs>
       <use xlink:href="#DejaVuSans-31"/>
       <use xlink:href="#DejaVuSans-30" x="63.623047"/>
       <use xlink:href="#DejaVuSans-30" x="127.246094"/>
      </g>
     </g>
    </g>
    <g id="xtick_3">
     <g id="line2d_5">
      <path d="M 201.93879 327.064 
L 201.93879 60.952 
" clip-path="url(#p6dc0f46928)" style="fill: none; stroke: #b0b0b0; stroke-width: 0.8; stroke-linecap: square"/>
     </g>
     <g id="line2d_6">
      <g>
       <use xlink:href="#m97aa80c074" x="201.93879" y="327.064" style="stroke: #000000; stroke-width: 0.8"/>
      </g>
     </g>
     <g id="text_3">
      <!-- 200 -->
      <g transform="translate(188.57754 344.701812) scale(0.14 -0.14)">
       <defs>
        <path id="DejaVuSans-32" d="M 1228 531 
L 3431 531 
L 3431 0 
L 469 0 
L 469 531 
Q 828 903 1448 1529 
Q 2069 2156 2228 2338 
Q 2531 2678 2651 2914 
Q 2772 3150 2772 3378 
Q 2772 3750 2511 3984 
Q 2250 4219 1831 4219 
Q 1534 4219 1204 4116 
Q 875 4013 500 3803 
L 500 4441 
Q 881 4594 1212 4672 
Q 1544 4750 1819 4750 
Q 2544 4750 2975 4387 
Q 3406 4025 3406 3419 
Q 3406 3131 3298 2873 
Q 3191 2616 2906 2266 
Q 2828 2175 2409 1742 
Q 1991 1309 1228 531 
z
" transform="scale(0.015625)"/>
       </defs>
       <use xlink:href="#DejaVuSans-32"/>
       <use xlink:href="#DejaVuSans-30" x="63.623047"/>
       <use xlink:href="#DejaVuSans-30" x="127.246094"/>
      </g>
     </g>
    </g>
    <g id="xtick_4">
     <g id="line2d_7">
      <path d="M 266.999821 327.064 
L 266.999821 60.952 
" clip-path="url(#p6dc0f46928)" style="fill: none; stroke: #b0b0b0; stroke-width: 0.8; stroke-linecap: square"/>
     </g>
     <g id="line2d_8">
      <g>
       <use xlink:href="#m97aa80c074" x="266.999821" y="327.064" style="stroke: #000000; stroke-width: 0.8"/>
      </g>
     </g>
     <g id="text_4">
      <!-- 300 -->
      <g transform="translate(253.638571 344.701812) scale(0.14 -0.14)">
       <defs>
        <path id="DejaVuSans-33" d="M 2597 2516 
Q 3050 2419 3304 2112 
Q 3559 1806 3559 1356 
Q 3559 666 3084 287 
Q 2609 -91 1734 -91 
Q 1441 -91 1130 -33 
Q 819 25 488 141 
L 488 750 
Q 750 597 1062 519 
Q 1375 441 1716 441 
Q 2309 441 2620 675 
Q 2931 909 2931 1356 
Q 2931 1769 2642 2001 
Q 2353 2234 1838 2234 
L 1294 2234 
L 1294 2753 
L 1863 2753 
Q 2328 2753 2575 2939 
Q 2822 3125 2822 3475 
Q 2822 3834 2567 4026 
Q 2313 4219 1838 4219 
Q 1578 4219 1281 4162 
Q 984 4106 628 3988 
L 628 4550 
Q 988 4650 1302 4700 
Q 1616 4750 1894 4750 
Q 2613 4750 3031 4423 
Q 3450 4097 3450 3541 
Q 3450 3153 3228 2886 
Q 3006 2619 2597 2516 
z
" transform="scale(0.015625)"/>
       </defs>
       <use xlink:href="#DejaVuSans-33"/>
       <use xlink:href="#DejaVuSans-30" x="63.623047"/>
       <use xlink:href="#DejaVuSans-30" x="127.246094"/>
      </g>
     </g>
    </g>
    <g id="xtick_5">
     <g id="line2d_9">
      <path d="M 332.060852 327.064 
L 332.060852 60.952 
" clip-path="url(#p6dc0f46928)" style="fill: none; stroke: #b0b0b0; stroke-width: 0.8; stroke-linecap: square"/>
     </g>
     <g id="line2d_10">
      <g>
       <use xlink:href="#m97aa80c074" x="332.060852" y="327.064" style="stroke: #000000; stroke-width: 0.8"/>
      </g>
     </g>
     <g id="text_5">
      <!-- 400 -->
      <g transform="translate(318.699602 344.701812) scale(0.14 -0.14)">
       <defs>
        <path id="DejaVuSans-34" d="M 2419 4116 
L 825 1625 
L 2419 1625 
L 2419 4116 
z
M 2253 4666 
L 3047 4666 
L 3047 1625 
L 3713 1625 
L 3713 1100 
L 3047 1100 
L 3047 0 
L 2419 0 
L 2419 1100 
L 313 1100 
L 313 1709 
L 2253 4666 
z
" transform="scale(0.015625)"/>
       </defs>
       <use xlink:href="#DejaVuSans-34"/>
       <use xlink:href="#DejaVuSans-30" x="63.623047"/>
       <use xlink:href="#DejaVuSans-30" x="127.246094"/>
      </g>
     </g>
    </g>
    <g id="xtick_6">
     <g id="line2d_11">
      <path d="M 397.121883 327.064 
L 397.121883 60.952 
" clip-path="url(#p6dc0f46928)" style="fill: none; stroke: #b0b0b0; stroke-width: 0.8; stroke-linecap: square"/>
     </g>
     <g id="line2d_12">
      <g>
       <use xlink:href="#m97aa80c074" x="397.121883" y="327.064" style="stroke: #000000; stroke-width: 0.8"/>
      </g>
     </g>
     <g id="text_6">
      <!-- 500 -->
      <g transform="translate(383.760633 344.701812) scale(0.14 -0.14)">
       <defs>
        <path id="DejaVuSans-35" d="M 691 4666 
L 3169 4666 
L 3169 4134 
L 1269 4134 
L 1269 2991 
Q 1406 3038 1543 3061 
Q 1681 3084 1819 3084 
Q 2600 3084 3056 2656 
Q 3513 2228 3513 1497 
Q 3513 744 3044 326 
Q 2575 -91 1722 -91 
Q 1428 -91 1123 -41 
Q 819 9 494 109 
L 494 744 
Q 775 591 1075 516 
Q 1375 441 1709 441 
Q 2250 441 2565 725 
Q 2881 1009 2881 1497 
Q 2881 1984 2565 2268 
Q 2250 2553 1709 2553 
Q 1456 2553 1204 2497 
Q 953 2441 691 2322 
L 691 4666 
z
" transform="scale(0.015625)"/>
       </defs>
       <use xlink:href="#DejaVuSans-35"/>
       <use xlink:href="#DejaVuSans-30" x="63.623047"/>
       <use xlink:href="#DejaVuSans-30" x="127.246094"/>
      </g>
     </g>
    </g>
   </g>
   <g id="matplotlib.axis_2">
    <g id="ytick_1">
     <g id="line2d_13">
      <path d="M 55.584 314.968 
L 412.704 314.968 
" clip-path="url(#p6dc0f46928)" style="fill: none; stroke: #b0b0b0; stroke-width: 0.8; stroke-linecap: square"/>
     </g>
     <g id="line2d_14">
      <defs>
       <path id="m490fee5b0b" d="M 0 0 
L -3.5 0 
" style="stroke: #000000; stroke-width: 0.8"/>
      </defs>
      <g>
       <use xlink:href="#m490fee5b0b" x="55.584" y="314.968" style="stroke: #000000; stroke-width: 0.8"/>
      </g>
     </g>
     <g id="text_7">
      <!-- 0.0 -->
      <g transform="translate(26.319625 320.286906) scale(0.14 -0.14)">
       <defs>
        <path id="DejaVuSans-2e" d="M 684 794 
L 1344 794 
L 1344 0 
L 684 0 
L 684 794 
z
" transform="scale(0.015625)"/>
       </defs>
       <use xlink:href="#DejaVuSans-30"/>
       <use xlink:href="#DejaVuSans-2e" x="63.623047"/>
       <use xlink:href="#DejaVuSans-30" x="95.410156"/>
      </g>
     </g>
    </g>
    <g id="ytick_2">
     <g id="line2d_15">
      <path d="M 55.584 272.830582 
L 412.704 272.830582 
" clip-path="url(#p6dc0f46928)" style="fill: none; stroke: #b0b0b0; stroke-width: 0.8; stroke-linecap: square"/>
     </g>
     <g id="line2d_16">
      <g>
       <use xlink:href="#m490fee5b0b" x="55.584" y="272.830582" style="stroke: #000000; stroke-width: 0.8"/>
      </g>
     </g>
     <g id="text_8">
      <!-- 0.1 -->
      <g transform="translate(26.319625 278.149488) scale(0.14 -0.14)">
       <use xlink:href="#DejaVuSans-30"/>
       <use xlink:href="#DejaVuSans-2e" x="63.623047"/>
       <use xlink:href="#DejaVuSans-31" x="95.410156"/>
      </g>
     </g>
    </g>
    <g id="ytick_3">
     <g id="line2d_17">
      <path d="M 55.584 230.693164 
L 412.704 230.693164 
" clip-path="url(#p6dc0f46928)" style="fill: none; stroke: #b0b0b0; stroke-width: 0.8; stroke-linecap: square"/>
     </g>
     <g id="line2d_18">
      <g>
       <use xlink:href="#m490fee5b0b" x="55.584" y="230.693164" style="stroke: #000000; stroke-width: 0.8"/>
      </g>
     </g>
     <g id="text_9">
      <!-- 0.2 -->
      <g transform="translate(26.319625 236.012071) scale(0.14 -0.14)">
       <use xlink:href="#DejaVuSans-30"/>
       <use xlink:href="#DejaVuSans-2e" x="63.623047"/>
       <use xlink:href="#DejaVuSans-32" x="95.410156"/>
      </g>
     </g>
    </g>
    <g id="ytick_4">
     <g id="line2d_19">
      <path d="M 55.584 188.555746 
L 412.704 188.555746 
" clip-path="url(#p6dc0f46928)" style="fill: none; stroke: #b0b0b0; stroke-width: 0.8; stroke-linecap: square"/>
     </g>
     <g id="line2d_20">
      <g>
       <use xlink:href="#m490fee5b0b" x="55.584" y="188.555746" style="stroke: #000000; stroke-width: 0.8"/>
      </g>
     </g>
     <g id="text_10">
      <!-- 0.3 -->
      <g transform="translate(26.319625 193.874653) scale(0.14 -0.14)">
       <use xlink:href="#DejaVuSans-30"/>
       <use xlink:href="#DejaVuSans-2e" x="63.623047"/>
       <use xlink:href="#DejaVuSans-33" x="95.410156"/>
      </g>
     </g>
    </g>
    <g id="ytick_5">
     <g id="line2d_21">
      <path d="M 55.584 146.418329 
L 412.704 146.418329 
" clip-path="url(#p6dc0f46928)" style="fill: none; stroke: #b0b0b0; stroke-width: 0.8; stroke-linecap: square"/>
     </g>
     <g id="line2d_22">
      <g>
       <use xlink:href="#m490fee5b0b" x="55.584" y="146.418329" style="stroke: #000000; stroke-width: 0.8"/>
      </g>
     </g>
     <g id="text_11">
      <!-- 0.4 -->
      <g transform="translate(26.319625 151.737235) scale(0.14 -0.14)">
       <use xlink:href="#DejaVuSans-30"/>
       <use xlink:href="#DejaVuSans-2e" x="63.623047"/>
       <use xlink:href="#DejaVuSans-34" x="95.410156"/>
      </g>
     </g>
    </g>
    <g id="ytick_6">
     <g id="line2d_23">
      <path d="M 55.584 104.280911 
L 412.704 104.280911 
" clip-path="url(#p6dc0f46928)" style="fill: none; stroke: #b0b0b0; stroke-width: 0.8; stroke-linecap: square"/>
     </g>
     <g id="line2d_24">
      <g>
       <use xlink:href="#m490fee5b0b" x="55.584" y="104.280911" style="stroke: #000000; stroke-width: 0.8"/>
      </g>
     </g>
     <g id="text_12">
      <!-- 0.5 -->
      <g transform="translate(26.319625 109.599817) scale(0.14 -0.14)">
       <use xlink:href="#DejaVuSans-30"/>
       <use xlink:href="#DejaVuSans-2e" x="63.623047"/>
       <use xlink:href="#DejaVuSans-35" x="95.410156"/>
      </g>
     </g>
    </g>
    <g id="ytick_7">
     <g id="line2d_25">
      <path d="M 55.584 62.143493 
L 412.704 62.143493 
" clip-path="url(#p6dc0f46928)" style="fill: none; stroke: #b0b0b0; stroke-width: 0.8; stroke-linecap: square"/>
     </g>
     <g id="line2d_26">
      <g>
       <use xlink:href="#m490fee5b0b" x="55.584" y="62.143493" style="stroke: #000000; stroke-width: 0.8"/>
      </g>
     </g>
     <g id="text_13">
      <!-- 0.6 -->
      <g transform="translate(26.319625 67.462399) scale(0.14 -0.14)">
       <defs>
        <path id="DejaVuSans-36" d="M 2113 2584 
Q 1688 2584 1439 2293 
Q 1191 2003 1191 1497 
Q 1191 994 1439 701 
Q 1688 409 2113 409 
Q 2538 409 2786 701 
Q 3034 994 3034 1497 
Q 3034 2003 2786 2293 
Q 2538 2584 2113 2584 
z
M 3366 4563 
L 3366 3988 
Q 3128 4100 2886 4159 
Q 2644 4219 2406 4219 
Q 1781 4219 1451 3797 
Q 1122 3375 1075 2522 
Q 1259 2794 1537 2939 
Q 1816 3084 2150 3084 
Q 2853 3084 3261 2657 
Q 3669 2231 3669 1497 
Q 3669 778 3244 343 
Q 2819 -91 2113 -91 
Q 1303 -91 875 529 
Q 447 1150 447 2328 
Q 447 3434 972 4092 
Q 1497 4750 2381 4750 
Q 2619 4750 2861 4703 
Q 3103 4656 3366 4563 
z
" transform="scale(0.015625)"/>
       </defs>
       <use xlink:href="#DejaVuSans-30"/>
       <use xlink:href="#DejaVuSans-2e" x="63.623047"/>
       <use xlink:href="#DejaVuSans-36" x="95.410156"/>
      </g>
     </g>
    </g>
   </g>
   <g id="line2d_27">
    <path d="M 71.816727 314.968 
L 103.696633 314.968 
L 104.347243 73.048 
L 104.997853 96.555413 
L 105.648463 104.477699 
L 107.600294 122.328617 
L 109.552125 140.327621 
L 111.503956 156.191416 
L 113.455787 170.091948 
L 115.407618 182.282223 
L 117.359449 192.895755 
L 119.96189 205.083126 
L 121.263111 210.58612 
L 123.214942 217.790248 
L 125.817383 226.247382 
L 127.769214 231.897948 
L 129.721045 236.950421 
L 131.672876 241.533549 
L 133.624707 245.546119 
L 137.528369 252.543792 
L 140.13081 256.487686 
L 142.733251 260.026533 
L 145.335692 263.20606 
L 148.588744 266.635973 
L 152.492406 270.229143 
L 155.745457 272.901537 
L 158.998509 275.202717 
L 167.456443 280.135502 
L 171.360105 281.960854 
L 174.613156 283.326543 
L 181.76987 286.00317 
L 187.625363 287.864536 
L 196.733907 290.229262 
L 202.5894 291.509935 
L 209.746113 292.87838 
L 215.601606 293.862001 
L 220.155878 294.545 
L 230.565643 295.907094 
L 242.927239 297.264745 
L 260.493718 298.806808 
L 278.060196 300.019108 
L 307.33766 301.486827 
L 318.398035 301.936895 
L 363.940757 303.26619 
L 396.471273 303.958144 
L 396.471273 303.958144 
" clip-path="url(#p6dc0f46928)" style="fill: none; stroke: #1f77b4; stroke-width: 2; stroke-linecap: square"/>
    <defs>
     <path id="m5871ef03ab" d="M 0 3 
C 0.795609 3 1.55874 2.683901 2.12132 2.12132 
C 2.683901 1.55874 3 0.795609 3 0 
C 3 -0.795609 2.683901 -1.55874 2.12132 -2.12132 
C 1.55874 -2.683901 0.795609 -3 0 -3 
C -0.795609 -3 -1.55874 -2.683901 -2.12132 -2.12132 
C -2.683901 -1.55874 -3 -0.795609 -3 0 
C -3 0.795609 -2.683901 1.55874 -2.12132 2.12132 
C -1.55874 2.683901 -0.795609 3 0 3 
z
" style="stroke: #1f77b4"/>
    </defs>
    <g clip-path="url(#p6dc0f46928)">
     <use xlink:href="#m5871ef03ab" x="71.816727" y="314.968" style="fill: #1f77b4; stroke: #1f77b4"/>
     <use xlink:href="#m5871ef03ab" x="201.93879" y="291.369482" style="fill: #1f77b4; stroke: #1f77b4"/>
     <use xlink:href="#m5871ef03ab" x="332.060852" y="302.392551" style="fill: #1f77b4; stroke: #1f77b4"/>
    </g>
   </g>
   <g id="line2d_28">
    <path d="M 396.471273 327.064 
L 396.471273 60.952 
" clip-path="url(#p6dc0f46928)" style="fill: none; stroke-dasharray: 7.4,3.2; stroke-dashoffset: 0; stroke: #1f77b4; stroke-width: 2"/>
    <g clip-path="url(#p6dc0f46928)">
     <use xlink:href="#m5871ef03ab" x="396.471273" y="327.064" style="fill: #1f77b4; stroke: #1f77b4"/>
     <use xlink:href="#m5871ef03ab" x="396.471273" y="60.952" style="fill: #1f77b4; stroke: #1f77b4"/>
    </g>
   </g>
   <g id="line2d_29">
    <path d="M 71.816727 314.968 
L 103.696633 314.968 
L 104.347243 211.83288 
L 104.997853 197.703016 
L 105.648463 210.769542 
L 106.949684 226.590667 
L 108.250905 237.191431 
L 109.552125 245.577316 
L 111.503956 254.797763 
L 114.106398 263.9157 
L 114.757008 265.954232 
L 115.407618 267.617175 
L 116.058228 268.709355 
L 116.708839 270.52304 
L 118.66067 274.388494 
L 121.263111 278.693403 
L 125.166773 283.505457 
L 127.769214 286.011265 
L 131.672876 289.098986 
L 132.974097 289.963928 
L 135.576538 291.607886 
L 138.178979 292.989348 
L 142.733251 295.06544 
L 146.636913 296.465569 
L 147.287523 296.569748 
L 148.588744 297.04741 
L 151.191185 297.814711 
L 160.95034 300.020717 
L 166.155222 300.971229 
L 173.962546 302.096186 
L 181.11926 302.899312 
L 185.673532 303.361054 
L 193.480856 304.026312 
L 207.794282 304.963196 
L 241.626019 306.35301 
L 256.590056 306.730541 
L 269.602262 306.997522 
L 297.578505 307.44614 
L 352.880382 307.956071 
L 388.013339 308.154175 
L 396.471273 308.182651 
L 396.471273 308.182651 
" clip-path="url(#p6dc0f46928)" style="fill: none; stroke: #ff7f0e; stroke-width: 2; stroke-linecap: square"/>
    <defs>
     <path id="m63f5076fda" d="M 0 -3 
L -3 3 
L 3 3 
z
" style="stroke: #ff7f0e; stroke-linejoin: miter"/>
    </defs>
    <g clip-path="url(#p6dc0f46928)">
     <use xlink:href="#m63f5076fda" x="71.816727" y="314.968" style="fill: #ff7f0e; stroke: #ff7f0e; stroke-linejoin: miter"/>
     <use xlink:href="#m63f5076fda" x="201.93879" y="304.626084" style="fill: #ff7f0e; stroke: #ff7f0e; stroke-linejoin: miter"/>
     <use xlink:href="#m63f5076fda" x="332.060852" y="307.808692" style="fill: #ff7f0e; stroke: #ff7f0e; stroke-linejoin: miter"/>
    </g>
   </g>
   <g id="line2d_30">
    <path d="M 266.34921 327.064 
L 266.34921 60.952 
" clip-path="url(#p6dc0f46928)" style="fill: none; stroke-dasharray: 7.4,3.2; stroke-dashoffset: 0; stroke: #ff7f0e; stroke-width: 2"/>
    <g clip-path="url(#p6dc0f46928)">
     <use xlink:href="#m63f5076fda" x="266.34921" y="327.064" style="fill: #ff7f0e; stroke: #ff7f0e; stroke-linejoin: miter"/>
     <use xlink:href="#m63f5076fda" x="266.34921" y="60.952" style="fill: #ff7f0e; stroke: #ff7f0e; stroke-linejoin: miter"/>
    </g>
   </g>
   <g id="line2d_31">
    <path d="M 71.816727 314.968 
L 103.696633 314.968 
L 104.347243 225.61313 
L 104.997853 222.16966 
L 105.648463 233.38547 
L 106.299074 242.081974 
L 106.949684 247.692316 
L 108.250905 254.983448 
L 110.202736 263.375268 
L 112.154567 269.854165 
L 114.106398 274.587477 
L 115.407618 277.175012 
L 117.359449 280.54635 
L 118.66067 282.403047 
L 119.96189 284.184328 
L 123.865552 288.157194 
L 125.817383 289.642772 
L 128.419824 291.503821 
L 134.925927 295.077948 
L 137.528369 296.163949 
L 140.78142 297.317321 
L 147.938134 299.286299 
L 157.046678 301.207427 
L 162.902171 302.158514 
L 175.263767 303.628015 
L 181.76987 304.197467 
L 191.529025 304.949633 
L 196.083297 305.23159 
L 212.348555 306.084073 
L 222.75832 306.486757 
L 255.939445 307.353149 
L 300.831557 307.983576 
L 396.471273 308.637053 
L 396.471273 308.637053 
" clip-path="url(#p6dc0f46928)" style="fill: none; stroke: #2ca02c; stroke-width: 2; stroke-linecap: square"/>
    <defs>
     <path id="m5c644d26ee" d="M -3 3 
L 3 3 
L 3 -3 
L -3 -3 
z
" style="stroke: #2ca02c; stroke-linejoin: miter"/>
    </defs>
    <g clip-path="url(#p6dc0f46928)">
     <use xlink:href="#m5c644d26ee" x="71.816727" y="314.968" style="fill: #2ca02c; stroke: #2ca02c; stroke-linejoin: miter"/>
     <use xlink:href="#m5c644d26ee" x="201.93879" y="305.587174" style="fill: #2ca02c; stroke: #2ca02c; stroke-linejoin: miter"/>
     <use xlink:href="#m5c644d26ee" x="332.060852" y="308.271291" style="fill: #2ca02c; stroke: #2ca02c; stroke-linejoin: miter"/>
    </g>
   </g>
   <g id="line2d_32">
    <path d="M 237.722357 327.064 
L 237.722357 60.952 
" clip-path="url(#p6dc0f46928)" style="fill: none; stroke-dasharray: 7.4,3.2; stroke-dashoffset: 0; stroke: #2ca02c; stroke-width: 2"/>
    <g clip-path="url(#p6dc0f46928)">
     <use xlink:href="#m5c644d26ee" x="237.722357" y="327.064" style="fill: #2ca02c; stroke: #2ca02c; stroke-linejoin: miter"/>
     <use xlink:href="#m5c644d26ee" x="237.722357" y="60.952" style="fill: #2ca02c; stroke: #2ca02c; stroke-linejoin: miter"/>
    </g>
   </g>
   <g id="line2d_33">
    <path d="M 71.816727 314.968 
L 103.696633 314.968 
L 104.347243 230.437006 
L 104.997853 224.871018 
L 105.648463 236.351366 
L 106.299074 244.44325 
L 106.949684 249.626812 
L 107.600294 253.674109 
L 108.901515 259.881747 
L 110.853346 267.154212 
L 112.154567 271.026619 
L 113.455787 274.373923 
L 116.708839 280.669124 
L 118.66067 283.525669 
L 121.913721 287.277455 
L 123.865552 289.162129 
L 127.769214 292.15035 
L 130.371655 293.71746 
L 133.624707 295.381141 
L 138.178979 297.237375 
L 141.432031 298.321528 
L 149.889965 300.495157 
L 164.854002 302.961738 
L 177.215598 304.272881 
L 184.372311 304.871536 
L 199.336348 305.781505 
L 227.963202 306.899292 
L 242.927239 307.260355 
L 280.662637 307.88979 
L 367.193809 308.562396 
L 396.471273 308.6739 
L 396.471273 308.6739 
" clip-path="url(#p6dc0f46928)" style="fill: none; stroke: #d62728; stroke-width: 2; stroke-linecap: square"/>
    <defs>
     <path id="mf691853788" d="M -3 3 
L 3 -3 
M -3 -3 
L 3 3 
" style="stroke: #d62728"/>
    </defs>
    <g clip-path="url(#p6dc0f46928)">
     <use xlink:href="#mf691853788" x="71.816727" y="314.968" style="fill: #d62728; stroke: #d62728"/>
     <use xlink:href="#mf691853788" x="201.93879" y="305.905313" style="fill: #d62728; stroke: #d62728"/>
     <use xlink:href="#mf691853788" x="332.060852" y="308.386263" style="fill: #d62728; stroke: #d62728"/>
    </g>
   </g>
   <g id="line2d_34">
    <path d="M 229.264423 327.064 
L 229.264423 60.952 
" clip-path="url(#p6dc0f46928)" style="fill: none; stroke-dasharray: 7.4,3.2; stroke-dashoffset: 0; stroke: #d62728; stroke-width: 2"/>
    <g clip-path="url(#p6dc0f46928)">
     <use xlink:href="#mf691853788" x="229.264423" y="327.064" style="fill: #d62728; stroke: #d62728"/>
     <use xlink:href="#mf691853788" x="229.264423" y="60.952" style="fill: #d62728; stroke: #d62728"/>
    </g>
   </g>
   <g id="line2d_35">
    <path d="M 71.816727 314.968 
L 103.696633 314.968 
L 104.347243 233.578873 
L 104.997853 220.580027 
L 105.648463 232.756571 
L 106.299074 242.088596 
L 106.949684 247.905485 
L 107.600294 252.074392 
L 108.901515 258.579319 
L 110.202736 264.085491 
L 111.503956 268.664002 
L 112.805177 272.501846 
L 114.757008 277.166187 
L 115.407618 278.537714 
L 118.66067 283.834119 
L 120.612501 286.212486 
L 123.865552 289.54529 
L 127.118604 292.09667 
L 129.721045 293.852349 
L 133.624707 295.907653 
L 135.576538 296.769827 
L 139.4802 298.192285 
L 142.082641 298.970408 
L 145.986303 300.026725 
L 148.588744 300.644944 
L 153.143016 301.59288 
L 166.805833 303.536393 
L 170.709495 303.928821 
L 183.071091 304.970323 
L 188.275973 305.298574 
L 200.637569 305.969522 
L 216.252216 306.583992 
L 238.372967 307.170598 
L 319.048646 308.153477 
L 396.471273 308.520364 
L 396.471273 308.520364 
" clip-path="url(#p6dc0f46928)" style="fill: none; stroke: #9467bd; stroke-width: 2; stroke-linecap: square"/>
    <defs>
     <path id="mc9ca0fbb5e" d="M -0 3 
L 3 -3 
L -3 -3 
z
" style="stroke: #9467bd; stroke-linejoin: miter"/>
    </defs>
    <g clip-path="url(#p6dc0f46928)">
     <use xlink:href="#mc9ca0fbb5e" x="71.816727" y="314.968" style="fill: #9467bd; stroke: #9467bd; stroke-linejoin: miter"/>
     <use xlink:href="#mc9ca0fbb5e" x="201.93879" y="306.032575" style="fill: #9467bd; stroke: #9467bd; stroke-linejoin: miter"/>
     <use xlink:href="#mc9ca0fbb5e" x="332.060852" y="308.224733" style="fill: #9467bd; stroke: #9467bd; stroke-linejoin: miter"/>
    </g>
   </g>
   <g id="line2d_36">
    <path d="M 228.613812 327.064 
L 228.613812 60.952 
" clip-path="url(#p6dc0f46928)" style="fill: none; stroke-dasharray: 7.4,3.2; stroke-dashoffset: 0; stroke: #9467bd; stroke-width: 2"/>
    <g clip-path="url(#p6dc0f46928)">
     <use xlink:href="#mc9ca0fbb5e" x="228.613812" y="327.064" style="fill: #9467bd; stroke: #9467bd; stroke-linejoin: miter"/>
     <use xlink:href="#mc9ca0fbb5e" x="228.613812" y="60.952" style="fill: #9467bd; stroke: #9467bd; stroke-linejoin: miter"/>
    </g>
   </g>
   <g id="line2d_37">
    <path d="M 71.816727 314.968 
L 103.696633 314.968 
L 104.347243 229.234029 
L 104.997853 216.536463 
L 105.648463 228.470385 
L 106.299074 237.329976 
L 106.949684 242.925307 
L 108.250905 250.715724 
L 108.901515 253.964827 
L 109.552125 256.626746 
L 110.202736 259.966994 
L 112.154567 266.639533 
L 112.805177 268.75731 
L 113.455787 270.456256 
L 114.106398 272.483895 
L 114.757008 273.09556 
L 115.407618 275.311265 
L 116.058228 276.318459 
L 116.708839 267.959875 
L 117.359449 278.974448 
L 118.010059 279.928967 
L 118.66067 281.356397 
L 119.31128 281.226641 
L 119.96189 281.457151 
L 120.612501 283.95996 
L 123.214942 287.135586 
L 123.865552 287.673635 
L 125.166773 289.013055 
L 125.817383 289.464329 
L 127.118604 290.804297 
L 127.769214 291.176193 
L 129.070435 292.21739 
L 129.721045 292.552497 
L 130.371655 293.056032 
L 131.022266 293.242538 
L 131.672876 293.855542 
L 132.323486 293.758055 
L 132.974097 294.5975 
L 135.576538 295.781515 
L 138.178979 296.815492 
L 142.733251 298.374091 
L 146.636913 299.523626 
L 154.444237 301.190093 
L 169.408274 303.42711 
L 176.564987 304.155898 
L 185.022921 304.843346 
L 190.878414 305.211193 
L 212.999165 306.280584 
L 233.168085 306.877369 
L 246.180291 307.195478 
L 273.505924 307.631061 
L 299.530336 307.92266 
L 343.771837 308.248985 
L 396.471273 308.413294 
L 396.471273 308.413294 
" clip-path="url(#p6dc0f46928)" style="fill: none; stroke: #8c564b; stroke-width: 2; stroke-linecap: square"/>
    <defs>
     <path id="m34db511b56" d="M -0 4.242641 
L 2.545584 0 
L 0 -4.242641 
L -2.545584 -0 
z
" style="stroke: #8c564b; stroke-linejoin: miter"/>
    </defs>
    <g clip-path="url(#p6dc0f46928)">
     <use xlink:href="#m34db511b56" x="71.816727" y="314.968" style="fill: #8c564b; stroke: #8c564b; stroke-linejoin: miter"/>
     <use xlink:href="#m34db511b56" x="201.93879" y="305.813612" style="fill: #8c564b; stroke: #8c564b; stroke-linejoin: miter"/>
     <use xlink:href="#m34db511b56" x="332.060852" y="308.194437" style="fill: #8c564b; stroke: #8c564b; stroke-linejoin: miter"/>
    </g>
   </g>
   <g id="line2d_38">
    <path d="M 235.119915 327.064 
L 235.119915 60.952 
" clip-path="url(#p6dc0f46928)" style="fill: none; stroke-dasharray: 7.4,3.2; stroke-dashoffset: 0; stroke: #8c564b; stroke-width: 2"/>
    <g clip-path="url(#p6dc0f46928)">
     <use xlink:href="#m34db511b56" x="235.119915" y="327.064" style="fill: #8c564b; stroke: #8c564b; stroke-linejoin: miter"/>
     <use xlink:href="#m34db511b56" x="235.119915" y="60.952" style="fill: #8c564b; stroke: #8c564b; stroke-linejoin: miter"/>
    </g>
   </g>
   <g id="line2d_39">
    <path d="M 71.816727 314.968 
L 103.696633 314.968 
L 104.347243 235.087918 
L 104.997853 225.868058 
L 105.648463 236.748492 
L 106.299074 244.877571 
L 106.949684 249.914628 
L 108.250905 257.321355 
L 109.552125 262.962622 
L 111.503956 269.855106 
L 112.805177 273.530437 
L 114.106398 276.761951 
L 115.407618 279.39252 
L 117.359449 282.6768 
L 119.31128 285.362622 
L 120.612501 286.91787 
L 122.564332 288.963694 
L 123.865552 290.148291 
L 125.817383 291.718567 
L 128.419824 293.450397 
L 129.721045 294.302378 
L 132.323486 295.643247 
L 136.877758 297.657289 
L 140.13081 298.771794 
L 145.335692 300.218597 
L 149.889965 301.145963 
L 157.697288 302.513061 
L 162.251561 303.172835 
L 167.456443 303.774607 
L 172.010715 304.211564 
L 179.818039 304.854322 
L 186.324142 305.343198 
L 190.227804 305.56508 
L 199.336348 306.050459 
L 206.493062 306.33849 
L 220.155878 306.862726 
L 237.722357 307.329836 
L 244.87907 307.464382 
L 255.288835 307.663424 
L 283.265079 308.0076 
L 393.218221 308.630378 
L 396.471273 308.636389 
L 396.471273 308.636389 
" clip-path="url(#p6dc0f46928)" style="fill: none; stroke: #e377c2; stroke-width: 2; stroke-linecap: square"/>
    <defs>
     <path id="m5d67a47909" d="M 0 0 
L 0 3 
M 0 0 
L 2.4 -1.5 
M 0 0 
L -2.4 -1.5 
" style="stroke: #e377c2"/>
    </defs>
    <g clip-path="url(#p6dc0f46928)">
     <use xlink:href="#m5d67a47909" x="71.816727" y="314.968" style="fill: #e377c2; stroke: #e377c2"/>
     <use xlink:href="#m5d67a47909" x="201.93879" y="306.166955" style="fill: #e377c2; stroke: #e377c2"/>
     <use xlink:href="#m5d67a47909" x="332.060852" y="308.354538" style="fill: #e377c2; stroke: #e377c2"/>
    </g>
   </g>
   <g id="line2d_40">
    <path d="M 222.75832 327.064 
L 222.75832 60.952 
" clip-path="url(#p6dc0f46928)" style="fill: none; stroke-dasharray: 7.4,3.2; stroke-dashoffset: 0; stroke: #e377c2; stroke-width: 2"/>
    <g clip-path="url(#p6dc0f46928)">
     <use xlink:href="#m5d67a47909" x="222.75832" y="327.064" style="fill: #e377c2; stroke: #e377c2"/>
     <use xlink:href="#m5d67a47909" x="222.75832" y="60.952" style="fill: #e377c2; stroke: #e377c2"/>
    </g>
   </g>
   <g id="patch_3">
    <path d="M 55.584 327.064 
L 55.584 60.952 
" style="fill: none; stroke: #000000; stroke-width: 0.8; stroke-linejoin: miter; stroke-linecap: square"/>
   </g>
   <g id="patch_4">
    <path d="M 412.704 327.064 
L 412.704 60.952 
" style="fill: none; stroke: #000000; stroke-width: 0.8; stroke-linejoin: miter; stroke-linecap: square"/>
   </g>
   <g id="patch_5">
    <path d="M 55.584 327.064 
L 412.704 327.064 
" style="fill: none; stroke: #000000; stroke-width: 0.8; stroke-linejoin: miter; stroke-linecap: square"/>
   </g>
   <g id="patch_6">
    <path d="M 55.584 60.952 
L 412.704 60.952 
" style="fill: none; stroke: #000000; stroke-width: 0.8; stroke-linejoin: miter; stroke-linecap: square"/>
   </g>
   <g id="axes_2">
    <g id="patch_7">
     <path d="M 207.36 220.6192 
L 403.776 220.6192 
L 403.776 74.2576 
L 207.36 74.2576 
z
" style="fill: #ffffff"/>
    </g>
    <g id="matplotlib.axis_3">
     <g id="xtick_7">
      <g id="line2d_41">
       <path d="M 232.979478 220.6192 
L 232.979478 74.2576 
" clip-path="url(#p44c147bc18)" style="fill: none; stroke: #b0b0b0; stroke-width: 0.8; stroke-linecap: square"/>
      </g>
      <g id="line2d_42">
       <defs>
        <path id="mefcf03ecee" d="M 0 0 
L 0 3.5 
" style="stroke: #000000; stroke-width: 2"/>
       </defs>
       <g>
        <use xlink:href="#mefcf03ecee" x="232.979478" y="220.6192" style="stroke: #000000; stroke-width: 2"/>
       </g>
      </g>
      <g id="text_14">
       <!-- 240 -->
       <g transform="translate(219.618228 238.257012) scale(0.14 -0.14)">
        <use xlink:href="#DejaVuSans-32"/>
        <use xlink:href="#DejaVuSans-34" x="63.623047"/>
        <use xlink:href="#DejaVuSans-30" x="127.246094"/>
       </g>
      </g>
     </g>
     <g id="xtick_8">
      <g id="line2d_43">
       <path d="M 289.911652 220.6192 
L 289.911652 74.2576 
" clip-path="url(#p44c147bc18)" style="fill: none; stroke: #b0b0b0; stroke-width: 0.8; stroke-linecap: square"/>
      </g>
      <g id="line2d_44">
       <g>
        <use xlink:href="#mefcf03ecee" x="289.911652" y="220.6192" style="stroke: #000000; stroke-width: 2"/>
       </g>
      </g>
      <g id="text_15">
       <!-- 260 -->
       <g transform="translate(276.550402 238.257012) scale(0.14 -0.14)">
        <use xlink:href="#DejaVuSans-32"/>
        <use xlink:href="#DejaVuSans-36" x="63.623047"/>
        <use xlink:href="#DejaVuSans-30" x="127.246094"/>
       </g>
      </g>
     </g>
     <g id="xtick_9">
      <g id="line2d_45">
       <path d="M 346.843826 220.6192 
L 346.843826 74.2576 
" clip-path="url(#p44c147bc18)" style="fill: none; stroke: #b0b0b0; stroke-width: 0.8; stroke-linecap: square"/>
      </g>
      <g id="line2d_46">
       <g>
        <use xlink:href="#mefcf03ecee" x="346.843826" y="220.6192" style="stroke: #000000; stroke-width: 2"/>
       </g>
      </g>
      <g id="text_16">
       <!-- 280 -->
       <g transform="translate(333.482576 238.257012) scale(0.14 -0.14)">
        <defs>
         <path id="DejaVuSans-38" d="M 2034 2216 
Q 1584 2216 1326 1975 
Q 1069 1734 1069 1313 
Q 1069 891 1326 650 
Q 1584 409 2034 409 
Q 2484 409 2743 651 
Q 3003 894 3003 1313 
Q 3003 1734 2745 1975 
Q 2488 2216 2034 2216 
z
M 1403 2484 
Q 997 2584 770 2862 
Q 544 3141 544 3541 
Q 544 4100 942 4425 
Q 1341 4750 2034 4750 
Q 2731 4750 3128 4425 
Q 3525 4100 3525 3541 
Q 3525 3141 3298 2862 
Q 3072 2584 2669 2484 
Q 3125 2378 3379 2068 
Q 3634 1759 3634 1313 
Q 3634 634 3220 271 
Q 2806 -91 2034 -91 
Q 1263 -91 848 271 
Q 434 634 434 1313 
Q 434 1759 690 2068 
Q 947 2378 1403 2484 
z
M 1172 3481 
Q 1172 3119 1398 2916 
Q 1625 2713 2034 2713 
Q 2441 2713 2670 2916 
Q 2900 3119 2900 3481 
Q 2900 3844 2670 4047 
Q 2441 4250 2034 4250 
Q 1625 4250 1398 4047 
Q 1172 3844 1172 3481 
z
" transform="scale(0.015625)"/>
        </defs>
        <use xlink:href="#DejaVuSans-32"/>
        <use xlink:href="#DejaVuSans-38" x="63.623047"/>
        <use xlink:href="#DejaVuSans-30" x="127.246094"/>
       </g>
      </g>
     </g>
     <g id="xtick_10">
      <g id="line2d_47">
       <path d="M 403.776 220.6192 
L 403.776 74.2576 
" clip-path="url(#p44c147bc18)" style="fill: none; stroke: #b0b0b0; stroke-width: 0.8; stroke-linecap: square"/>
      </g>
      <g id="line2d_48">
       <g>
        <use xlink:href="#mefcf03ecee" x="403.776" y="220.6192" style="stroke: #000000; stroke-width: 2"/>
       </g>
      </g>
      <g id="text_17">
       <!-- 300 -->
       <g transform="translate(390.41475 238.257012) scale(0.14 -0.14)">
        <use xlink:href="#DejaVuSans-33"/>
        <use xlink:href="#DejaVuSans-30" x="63.623047"/>
        <use xlink:href="#DejaVuSans-30" x="127.246094"/>
       </g>
      </g>
     </g>
    </g>
    <g id="matplotlib.axis_4">
     <g id="ytick_8">
      <g id="line2d_49">
       <path d="M 207.36 217.403104 
L 403.776 217.403104 
" clip-path="url(#p44c147bc18)" style="fill: none; stroke: #b0b0b0; stroke-width: 0.8; stroke-linecap: square"/>
      </g>
      <g id="line2d_50">
       <defs>
        <path id="m718918b2b7" d="M 0 0 
L -3.5 0 
" style="stroke: #000000; stroke-width: 2"/>
       </defs>
       <g>
        <use xlink:href="#m718918b2b7" x="207.36" y="217.403104" style="stroke: #000000; stroke-width: 2"/>
       </g>
      </g>
      <g id="text_18">
       <!-- 0.018 -->
       <g transform="translate(160.280625 222.72201) scale(0.14 -0.14)">
        <use xlink:href="#DejaVuSans-30"/>
        <use xlink:href="#DejaVuSans-2e" x="63.623047"/>
        <use xlink:href="#DejaVuSans-30" x="95.410156"/>
        <use xlink:href="#DejaVuSans-31" x="159.033203"/>
        <use xlink:href="#DejaVuSans-38" x="222.65625"/>
       </g>
      </g>
     </g>
     <g id="ytick_9">
      <g id="line2d_51">
       <path d="M 207.36 186.876643 
L 403.776 186.876643 
" clip-path="url(#p44c147bc18)" style="fill: none; stroke: #b0b0b0; stroke-width: 0.8; stroke-linecap: square"/>
      </g>
      <g id="line2d_52">
       <g>
        <use xlink:href="#m718918b2b7" x="207.36" y="186.876643" style="stroke: #000000; stroke-width: 2"/>
       </g>
      </g>
      <g id="text_19">
       <!-- 0.020 -->
       <g transform="translate(160.280625 192.195549) scale(0.14 -0.14)">
        <use xlink:href="#DejaVuSans-30"/>
        <use xlink:href="#DejaVuSans-2e" x="63.623047"/>
        <use xlink:href="#DejaVuSans-30" x="95.410156"/>
        <use xlink:href="#DejaVuSans-32" x="159.033203"/>
        <use xlink:href="#DejaVuSans-30" x="222.65625"/>
       </g>
      </g>
     </g>
     <g id="ytick_10">
      <g id="line2d_53">
       <path d="M 207.36 156.350183 
L 403.776 156.350183 
" clip-path="url(#p44c147bc18)" style="fill: none; stroke: #b0b0b0; stroke-width: 0.8; stroke-linecap: square"/>
      </g>
      <g id="line2d_54">
       <g>
        <use xlink:href="#m718918b2b7" x="207.36" y="156.350183" style="stroke: #000000; stroke-width: 2"/>
       </g>
      </g>
      <g id="text_20">
       <!-- 0.022 -->
       <g transform="translate(160.280625 161.669089) scale(0.14 -0.14)">
        <use xlink:href="#DejaVuSans-30"/>
        <use xlink:href="#DejaVuSans-2e" x="63.623047"/>
        <use xlink:href="#DejaVuSans-30" x="95.410156"/>
        <use xlink:href="#DejaVuSans-32" x="159.033203"/>
        <use xlink:href="#DejaVuSans-32" x="222.65625"/>
       </g>
      </g>
     </g>
     <g id="ytick_11">
      <g id="line2d_55">
       <path d="M 207.36 125.823722 
L 403.776 125.823722 
" clip-path="url(#p44c147bc18)" style="fill: none; stroke: #b0b0b0; stroke-width: 0.8; stroke-linecap: square"/>
      </g>
      <g id="line2d_56">
       <g>
        <use xlink:href="#m718918b2b7" x="207.36" y="125.823722" style="stroke: #000000; stroke-width: 2"/>
       </g>
      </g>
      <g id="text_21">
       <!-- 0.024 -->
       <g transform="translate(160.280625 131.142629) scale(0.14 -0.14)">
        <use xlink:href="#DejaVuSans-30"/>
        <use xlink:href="#DejaVuSans-2e" x="63.623047"/>
        <use xlink:href="#DejaVuSans-30" x="95.410156"/>
        <use xlink:href="#DejaVuSans-32" x="159.033203"/>
        <use xlink:href="#DejaVuSans-34" x="222.65625"/>
       </g>
      </g>
     </g>
     <g id="ytick_12">
      <g id="line2d_57">
       <path d="M 207.36 95.297262 
L 403.776 95.297262 
" clip-path="url(#p44c147bc18)" style="fill: none; stroke: #b0b0b0; stroke-width: 0.8; stroke-linecap: square"/>
      </g>
      <g id="line2d_58">
       <g>
        <use xlink:href="#m718918b2b7" x="207.36" y="95.297262" style="stroke: #000000; stroke-width: 2"/>
       </g>
      </g>
      <g id="text_22">
       <!-- 0.026 -->
       <g transform="translate(160.280625 100.616168) scale(0.14 -0.14)">
        <use xlink:href="#DejaVuSans-30"/>
        <use xlink:href="#DejaVuSans-2e" x="63.623047"/>
        <use xlink:href="#DejaVuSans-30" x="95.410156"/>
        <use xlink:href="#DejaVuSans-32" x="159.033203"/>
        <use xlink:href="#DejaVuSans-36" x="222.65625"/>
       </g>
      </g>
     </g>
    </g>
    <g id="line2d_59">
     <path d="M 0 0 
" clip-path="url(#p44c147bc18)" style="fill: none; stroke: #1f77b4; stroke-width: 1.5; stroke-linecap: square"/>
    </g>
    <g id="line2d_60">
     <path clip-path="url(#p44c147bc18)" style="fill: none; stroke-dasharray: 5.55,2.4; stroke-dashoffset: 0; stroke: #1f77b4; stroke-width: 1.5"/>
    </g>
    <g id="line2d_61">
     <path d="M -1 28.250163 
L 2.404174 31.701814 
L 10.944 40.19146 
L 13.790609 42.231069 
L 19.483826 47.334529 
L 22.330435 50.267377 
L 25.177043 52.311915 
L 28.023652 54.983098 
L 30.870261 56.858726 
L 33.71687 59.797197 
L 36.563478 62.0245 
L 39.410087 64.62847 
L 42.256696 66.985431 
L 45.103304 69.834852 
L 47.949913 71.708543 
L 50.796522 74.035032 
L 53.64313 75.84198 
L 56.489739 78.469442 
L 59.336348 80.395861 
L 62.182957 82.765679 
L 65.029565 84.228317 
L 70.722783 88.42886 
L 73.569391 90.827768 
L 87.802435 99.240931 
L 90.649043 101.459101 
L 93.495652 102.865241 
L 96.342261 104.697616 
L 99.18887 106.023709 
L 102.035478 108.291735 
L 104.882087 109.513 
L 110.575304 112.337378 
L 113.421913 113.961924 
L 116.268522 115.826133 
L 119.11513 117.531084 
L 121.961739 119.023824 
L 124.808348 120.323547 
L 136.194783 126.134639 
L 139.041391 127.496588 
L 144.734609 129.742145 
L 150.427826 131.869676 
L 153.274435 133.218442 
L 156.121043 134.40909 
L 158.967652 136.06178 
L 164.66087 138.777904 
L 167.507478 139.782519 
L 170.354087 141.42875 
L 173.200696 142.533217 
L 176.047304 143.967063 
L 178.893913 144.959517 
L 181.740522 146.493682 
L 187.433739 148.739323 
L 190.280348 149.450786 
L 193.126957 150.70616 
L 195.973565 151.646668 
L 198.820174 152.803157 
L 204.513391 155.342454 
L 207.36 155.921793 
L 210.206609 157.182635 
L 213.053217 157.938091 
L 215.899826 158.971776 
L 218.746435 159.613694 
L 221.593043 160.862371 
L 224.439652 161.67356 
L 232.979478 164.563148 
L 235.826087 165.617712 
L 238.672696 166.534452 
L 244.365913 167.930944 
L 247.212522 168.735904 
L 258.598957 171.25654 
L 261.445565 171.903359 
L 267.138783 173.664367 
L 269.985391 174.301479 
L 272.832 175.203665 
L 278.525217 176.377867 
L 289.911652 179.619115 
L 295.60487 180.506849 
L 298.451478 181.410624 
L 301.298087 181.887364 
L 304.144696 182.665122 
L 306.991304 183.201994 
L 315.53113 185.293571 
L 318.377739 185.964154 
L 324.070957 187.096028 
L 326.917565 187.893053 
L 335.457391 189.473757 
L 338.304 190.167821 
L 341.150609 190.572443 
L 343.997217 191.17346 
L 346.843826 191.552877 
L 349.690435 192.163134 
L 355.383652 193.081661 
L 361.07687 194.440023 
L 363.923478 194.81411 
L 366.770087 195.459971 
L 372.463304 196.193012 
L 375.309913 196.558198 
L 378.156522 197.107323 
L 381.00313 197.52801 
L 392.389565 199.645634 
L 395.236174 200.015375 
L 398.082783 200.609723 
L 406.622609 201.907226 
L 409.469217 202.542521 
L 420.855652 204.320425 
L 425.33725 205.076909 
L 425.33725 205.076909 
" clip-path="url(#p44c147bc18)" style="fill: none; stroke: #ff7f0e; stroke-width: 1.5; stroke-linecap: square"/>
    </g>
    <g id="line2d_62">
     <path d="M 400.929391 220.6192 
L 400.929391 74.2576 
" clip-path="url(#p44c147bc18)" style="fill: none; stroke-dasharray: 5.55,2.4; stroke-dashoffset: 0; stroke: #ff7f0e; stroke-width: 1.5"/>
    </g>
    <g id="line2d_63">
     <path d="M -1 78.186096 
L -0.442435 78.602003 
L 2.404174 81.378523 
L 10.944 88.736681 
L 13.790609 90.889843 
L 16.637217 92.074844 
L 25.177043 98.752234 
L 28.023652 100.003505 
L 30.870261 102.005513 
L 33.71687 103.563778 
L 39.410087 107.614607 
L 42.256696 109.362254 
L 45.103304 110.955004 
L 47.949913 112.974643 
L 50.796522 115.405938 
L 53.64313 116.942235 
L 56.489739 118.299552 
L 59.336348 120.294383 
L 62.182957 122.133335 
L 65.029565 124.445723 
L 70.722783 127.550733 
L 73.569391 129.25086 
L 76.416 131.240407 
L 82.109217 133.885278 
L 84.955826 135.107104 
L 87.802435 136.713603 
L 90.649043 137.952605 
L 96.342261 140.85887 
L 99.18887 142.219138 
L 107.728696 147.300875 
L 110.575304 148.316016 
L 116.268522 151.338182 
L 121.961739 153.447572 
L 124.808348 154.787903 
L 130.501565 157.126745 
L 133.348174 158.151893 
L 139.041391 160.452917 
L 150.427826 164.698917 
L 153.274435 166.044275 
L 156.121043 166.788188 
L 158.967652 167.768997 
L 161.814261 168.994073 
L 164.66087 170.343111 
L 167.507478 171.488401 
L 170.354087 172.050777 
L 173.200696 172.817906 
L 176.047304 173.788122 
L 181.740522 176.067252 
L 184.58713 177.269959 
L 187.433739 178.083721 
L 190.280348 178.668367 
L 193.126957 179.828394 
L 195.973565 180.553534 
L 198.820174 181.746081 
L 210.206609 184.929358 
L 215.899826 186.273989 
L 227.286261 189.609911 
L 230.13287 190.350895 
L 238.672696 192.111891 
L 241.519304 192.910565 
L 244.365913 194.009709 
L 247.212522 194.589109 
L 250.05913 195.595747 
L 255.752348 196.58236 
L 258.598957 197.167083 
L 269.985391 200.047437 
L 272.832 200.43783 
L 275.678609 201.540162 
L 281.371826 202.348603 
L 284.218435 203.044355 
L 287.065043 203.599126 
L 292.758261 205.037336 
L 295.60487 205.489772 
L 304.144696 207.46348 
L 306.991304 207.728065 
L 312.684522 208.876686 
L 315.53113 209.511544 
L 318.377739 209.72624 
L 321.224348 210.127696 
L 324.070957 210.645261 
L 326.917565 211.303877 
L 329.764174 211.826424 
L 332.610783 212.487188 
L 335.457391 212.875071 
L 338.304 213.590628 
L 341.150609 214.176356 
L 346.843826 214.827911 
L 358.230261 216.698597 
L 366.770087 217.734171 
L 369.616696 218.192173 
L 375.309913 218.95305 
L 389.542957 221.164671 
L 392.389565 221.855359 
L 395.236174 222.401346 
L 398.082783 222.619601 
L 400.929391 222.709912 
L 415.162435 224.327394 
L 418.009043 224.905421 
L 420.855652 225.200465 
L 425.33725 225.995703 
L 425.33725 225.995703 
" clip-path="url(#p44c147bc18)" style="fill: none; stroke: #2ca02c; stroke-width: 1.5; stroke-linecap: square"/>
    </g>
    <g id="line2d_64">
     <path d="M 275.678609 220.6192 
L 275.678609 74.2576 
" clip-path="url(#p44c147bc18)" style="fill: none; stroke-dasharray: 5.55,2.4; stroke-dashoffset: 0; stroke: #2ca02c; stroke-width: 1.5"/>
    </g>
    <g id="line2d_65">
     <path d="M -1 95.926729 
L 5.250783 100.470936 
L 13.790609 107.055456 
L 19.483826 110.655674 
L 22.330435 113.05827 
L 25.177043 115.172566 
L 28.023652 116.871003 
L 30.870261 119.05283 
L 33.71687 120.609325 
L 36.563478 122.363313 
L 42.256696 126.421981 
L 45.103304 128.008426 
L 47.949913 128.920162 
L 50.796522 131.124555 
L 53.64313 132.490726 
L 56.489739 134.349376 
L 59.336348 135.839583 
L 65.029565 139.587281 
L 67.876174 140.868341 
L 70.722783 141.669426 
L 73.569391 143.132291 
L 76.416 145.007716 
L 82.109217 147.689548 
L 84.955826 148.78028 
L 87.802435 150.375583 
L 90.649043 151.741819 
L 93.495652 153.487669 
L 96.342261 154.969006 
L 99.18887 156.042302 
L 102.035478 156.842474 
L 104.882087 158.315294 
L 110.575304 160.392844 
L 113.421913 161.309179 
L 127.654957 167.431489 
L 130.501565 168.346167 
L 133.348174 169.439589 
L 136.194783 170.368397 
L 144.734609 173.696205 
L 150.427826 176.313009 
L 153.274435 177.063557 
L 158.967652 180.043689 
L 164.66087 181.513696 
L 167.507478 182.549418 
L 170.354087 183.466258 
L 173.200696 184.680013 
L 176.047304 185.299032 
L 178.893913 186.400729 
L 184.58713 187.7834 
L 187.433739 188.9777 
L 193.126957 190.739969 
L 195.973565 191.745674 
L 198.820174 192.526044 
L 201.666783 193.106915 
L 207.36 194.053787 
L 215.899826 196.036274 
L 218.746435 196.51288 
L 221.593043 197.142762 
L 230.13287 199.294731 
L 232.979478 199.87241 
L 241.519304 202.10321 
L 250.05913 203.3711 
L 252.905739 204.138147 
L 261.445565 206.030434 
L 267.138783 207.432943 
L 272.832 208.258366 
L 275.678609 208.920526 
L 278.525217 209.350551 
L 281.371826 210.000613 
L 287.065043 211.103832 
L 289.911652 211.752514 
L 292.758261 211.929999 
L 306.991304 214.393443 
L 312.684522 215.183629 
L 315.53113 215.684882 
L 321.224348 216.80616 
L 335.457391 218.902014 
L 341.150609 220.048144 
L 349.690435 221.583275 
L 355.383652 222.340238 
L 358.230261 222.548108 
L 361.07687 223.016678 
L 366.770087 223.435058 
L 369.616696 224.168319 
L 372.463304 224.600094 
L 375.309913 225.179241 
L 378.156522 225.201967 
L 381.00313 225.507457 
L 383.849739 226.145411 
L 389.542957 226.590028 
L 392.389565 227.292536 
L 409.469217 228.738136 
L 412.315826 229.257093 
L 420.855652 230.53828 
L 425.33725 231.350878 
L 425.33725 231.350878 
" clip-path="url(#p44c147bc18)" style="fill: none; stroke: #d62728; stroke-width: 1.5; stroke-linecap: square"/>
    </g>
    <g id="line2d_66">
     <path d="M 238.672696 220.6192 
L 238.672696 74.2576 
" clip-path="url(#p44c147bc18)" style="fill: none; stroke-dasharray: 5.55,2.4; stroke-dashoffset: 0; stroke: #d62728; stroke-width: 1.5"/>
    </g>
    <g id="line2d_67">
     <path d="M -1 104.549197 
L 5.250783 108.862641 
L 8.097391 111.15455 
L 16.637217 116.174061 
L 25.177043 122.00656 
L 28.023652 123.850898 
L 30.870261 125.995572 
L 33.71687 127.76986 
L 36.563478 130.000297 
L 42.256696 133.792201 
L 47.949913 136.325342 
L 50.796522 137.826641 
L 53.64313 139.500537 
L 56.489739 140.772352 
L 59.336348 141.890388 
L 62.182957 143.378467 
L 65.029565 145.079495 
L 67.876174 146.326733 
L 70.722783 147.992596 
L 73.569391 149.421886 
L 76.416 150.242727 
L 84.955826 154.171975 
L 87.802435 155.646799 
L 93.495652 158.038548 
L 96.342261 158.974983 
L 99.18887 160.33088 
L 102.035478 161.460369 
L 104.882087 162.82103 
L 107.728696 163.884332 
L 110.575304 165.255736 
L 113.421913 166.193787 
L 119.11513 168.477731 
L 121.961739 169.676257 
L 124.808348 170.514965 
L 127.654957 171.480695 
L 130.501565 172.232424 
L 136.194783 174.411779 
L 139.041391 175.132773 
L 141.888 176.285415 
L 144.734609 177.141234 
L 150.427826 179.35206 
L 153.274435 180.441735 
L 156.121043 181.14794 
L 158.967652 182.214668 
L 161.814261 183.114311 
L 164.66087 183.757777 
L 167.507478 184.539723 
L 170.354087 185.453932 
L 173.200696 186.240145 
L 176.047304 186.792011 
L 178.893913 187.562858 
L 181.740522 188.451425 
L 184.58713 189.193367 
L 193.126957 191.777887 
L 195.973565 192.419068 
L 198.820174 192.910145 
L 204.513391 194.179693 
L 207.36 194.73502 
L 210.206609 195.57372 
L 215.899826 196.752555 
L 218.746435 197.17097 
L 221.593043 197.781668 
L 230.13287 200.284556 
L 235.826087 200.976253 
L 241.519304 202.358433 
L 244.365913 202.9409 
L 247.212522 203.695707 
L 250.05913 203.998357 
L 255.752348 205.059776 
L 258.598957 205.699059 
L 264.292174 206.679197 
L 267.138783 207.421892 
L 275.678609 208.99825 
L 278.525217 209.69977 
L 287.065043 210.720402 
L 292.758261 211.944154 
L 295.60487 212.594544 
L 301.298087 213.536449 
L 306.991304 213.965009 
L 318.377739 215.423337 
L 321.224348 216.076838 
L 326.917565 217.180093 
L 329.764174 217.771433 
L 332.610783 218.045485 
L 335.457391 218.760344 
L 346.843826 220.23245 
L 349.690435 220.868396 
L 355.383652 221.737776 
L 363.923478 222.588177 
L 366.770087 223.140052 
L 369.616696 223.421778 
L 372.463304 223.535444 
L 375.309913 223.957617 
L 378.156522 224.525543 
L 398.082783 226.711388 
L 403.776 227.374095 
L 406.622609 227.612503 
L 409.469217 228.052455 
L 415.162435 228.526949 
L 420.855652 228.916922 
L 425.33725 229.406286 
L 425.33725 229.406286 
" clip-path="url(#p44c147bc18)" style="fill: none; stroke: #9467bd; stroke-width: 1.5; stroke-linecap: square"/>
    </g>
    <g id="line2d_68">
     <path d="M 235.826087 220.6192 
L 235.826087 74.2576 
" clip-path="url(#p44c147bc18)" style="fill: none; stroke-dasharray: 5.55,2.4; stroke-dashoffset: 0; stroke: #9467bd; stroke-width: 1.5"/>
    </g>
    <g id="line2d_69">
     <path d="M -1 93.589179 
L -0.442435 94.06288 
L 2.404174 96.111033 
L 5.250783 98.540106 
L 8.097391 100.49978 
L 10.944 102.110634 
L 13.790609 104.078059 
L 16.637217 106.205186 
L 19.483826 108.190849 
L 22.330435 110.769441 
L 25.177043 112.935351 
L 28.023652 114.412145 
L 30.870261 116.420757 
L 33.71687 117.973485 
L 36.563478 119.92529 
L 42.256696 123.300638 
L 45.103304 125.400879 
L 50.796522 129.18989 
L 59.336348 134.056273 
L 62.182957 135.344525 
L 65.029565 136.261389 
L 67.876174 137.430422 
L 76.416 141.418323 
L 79.262609 142.383367 
L 82.109217 143.903279 
L 87.802435 146.366911 
L 90.649043 147.884673 
L 93.495652 149.846213 
L 96.342261 151.261395 
L 99.18887 152.249017 
L 107.728696 156.149722 
L 110.575304 157.170709 
L 113.421913 158.575463 
L 121.961739 161.493746 
L 124.808348 162.761473 
L 130.501565 164.49815 
L 133.348174 165.72614 
L 141.888 168.745524 
L 144.734609 169.551699 
L 147.581217 170.915069 
L 150.427826 171.832537 
L 153.274435 172.515455 
L 156.121043 173.540012 
L 161.814261 175.997774 
L 164.66087 176.805639 
L 167.507478 177.461222 
L 170.354087 178.288299 
L 176.047304 180.565627 
L 181.740522 181.613432 
L 187.433739 183.023496 
L 190.280348 184.010546 
L 193.126957 184.599916 
L 195.973565 185.408408 
L 198.820174 186.015612 
L 204.513391 187.857029 
L 213.053217 190.143964 
L 215.899826 190.274557 
L 218.746435 190.724899 
L 221.593043 191.004678 
L 224.439652 191.786437 
L 230.13287 192.892706 
L 232.979478 193.849319 
L 238.672696 195.274344 
L 247.212522 196.913185 
L 252.905739 198.497995 
L 255.752348 199.078289 
L 261.445565 200.614817 
L 269.985391 201.942053 
L 272.832 202.402597 
L 275.678609 203.047646 
L 281.371826 204.07253 
L 284.218435 204.336395 
L 287.065043 205.03443 
L 289.911652 205.437485 
L 292.758261 206.268926 
L 295.60487 206.8243 
L 298.451478 207.655451 
L 301.298087 208.096509 
L 312.684522 210.600995 
L 315.53113 210.88142 
L 321.224348 212.252756 
L 326.917565 213.139575 
L 329.764174 213.328328 
L 332.610783 213.645064 
L 335.457391 213.762241 
L 338.304 214.251617 
L 341.150609 214.497968 
L 346.843826 215.370542 
L 349.690435 215.614758 
L 363.923478 217.969026 
L 366.770087 218.373941 
L 372.463304 218.861767 
L 375.309913 219.325361 
L 381.00313 219.944791 
L 383.849739 220.505634 
L 392.389565 221.665242 
L 395.236174 221.836925 
L 403.776 222.936267 
L 415.162435 223.948459 
L 418.009043 224.29852 
L 425.33725 225.413382 
L 425.33725 225.413382 
" clip-path="url(#p44c147bc18)" style="fill: none; stroke: #8c564b; stroke-width: 1.5; stroke-linecap: square"/>
    </g>
    <g id="line2d_70">
     <path d="M 264.292174 220.6192 
L 264.292174 74.2576 
" clip-path="url(#p44c147bc18)" style="fill: none; stroke-dasharray: 5.55,2.4; stroke-dashoffset: 0; stroke: #8c564b; stroke-width: 1.5"/>
    </g>
    <g id="line2d_71">
     <path d="M -1 110.05829 
L -0.442435 110.458132 
L 2.404174 112.645591 
L 5.250783 115.343184 
L 10.944 118.670263 
L 13.790609 120.826866 
L 16.637217 122.599725 
L 19.483826 123.919935 
L 22.330435 125.798462 
L 25.177043 127.886423 
L 28.023652 130.183367 
L 30.870261 131.682318 
L 33.71687 133.350496 
L 36.563478 134.671062 
L 39.410087 136.312012 
L 42.256696 138.565405 
L 47.949913 142.079429 
L 50.796522 143.506748 
L 53.64313 144.227594 
L 56.489739 145.66946 
L 59.336348 146.746588 
L 62.182957 148.391033 
L 65.029565 149.70439 
L 67.876174 151.543896 
L 70.722783 153.083056 
L 73.569391 154.431036 
L 76.416 155.371077 
L 79.262609 156.969863 
L 82.109217 158.376991 
L 87.802435 160.933139 
L 90.649043 162.575776 
L 93.495652 163.918499 
L 96.342261 164.838938 
L 99.18887 166.0063 
L 102.035478 166.974905 
L 104.882087 168.149333 
L 107.728696 169.125536 
L 110.575304 169.748817 
L 113.421913 171.069581 
L 116.268522 172.082097 
L 119.11513 173.345324 
L 133.348174 177.931617 
L 136.194783 178.873343 
L 139.041391 179.558729 
L 141.888 180.651869 
L 144.734609 181.56665 
L 153.274435 184.741632 
L 161.814261 187.378698 
L 164.66087 188.102607 
L 167.507478 189.064569 
L 170.354087 189.650855 
L 173.200696 190.642636 
L 176.047304 191.462604 
L 178.893913 192.114858 
L 184.58713 194.328212 
L 187.433739 194.932181 
L 195.973565 197.960564 
L 198.820174 198.547889 
L 201.666783 199.30581 
L 207.36 200.430125 
L 213.053217 202.106216 
L 221.593043 203.98141 
L 227.286261 204.955371 
L 230.13287 205.709372 
L 232.979478 206.657387 
L 235.826087 207.248738 
L 238.672696 208.038391 
L 241.519304 208.54274 
L 244.365913 208.917747 
L 252.905739 210.873336 
L 255.752348 211.873949 
L 258.598957 212.283817 
L 261.445565 212.811073 
L 264.292174 213.462973 
L 267.138783 213.973699 
L 269.985391 214.323388 
L 272.832 215.145748 
L 275.678609 215.467775 
L 278.525217 215.586621 
L 281.371826 215.993948 
L 284.218435 216.625872 
L 287.065043 217.127703 
L 289.911652 217.820384 
L 295.60487 218.633094 
L 306.991304 220.341364 
L 309.837913 221.033236 
L 315.53113 221.463605 
L 318.377739 221.974182 
L 321.224348 222.140694 
L 329.764174 223.674987 
L 332.610783 224.308121 
L 343.997217 226.123428 
L 346.843826 226.877542 
L 349.690435 227.462113 
L 352.537043 227.551191 
L 363.923478 228.969584 
L 366.770087 229.258765 
L 369.616696 229.737784 
L 375.309913 230.346466 
L 381.00313 230.861476 
L 383.849739 231.265544 
L 386.696348 231.440725 
L 389.542957 231.920986 
L 395.236174 232.424073 
L 400.929391 232.729076 
L 412.315826 233.988603 
L 415.162435 234.186692 
L 420.855652 234.862617 
L 423.702261 235.059548 
L 425.33725 235.336842 
L 425.33725 235.336842 
" clip-path="url(#p44c147bc18)" style="fill: none; stroke: #e377c2; stroke-width: 1.5; stroke-linecap: square"/>
    </g>
    <g id="line2d_72">
     <path d="M 210.206609 220.6192 
L 210.206609 74.2576 
" clip-path="url(#p44c147bc18)" style="fill: none; stroke-dasharray: 5.55,2.4; stroke-dashoffset: 0; stroke: #e377c2; stroke-width: 1.5"/>
    </g>
    <g id="patch_8">
     <path d="M 207.36 220.6192 
L 207.36 74.2576 
" style="fill: none; stroke: #000000; stroke-width: 2; stroke-linejoin: miter; stroke-linecap: square"/>
    </g>
    <g id="patch_9">
     <path d="M 403.776 220.6192 
L 403.776 74.2576 
" style="fill: none; stroke: #000000; stroke-width: 2; stroke-linejoin: miter; stroke-linecap: square"/>
    </g>
    <g id="patch_10">
     <path d="M 207.36 220.6192 
L 403.776 220.6192 
" style="fill: none; stroke: #000000; stroke-width: 2; stroke-linejoin: miter; stroke-linecap: square"/>
    </g>
    <g id="patch_11">
     <path d="M 207.36 74.2576 
L 403.776 74.2576 
" style="fill: none; stroke: #000000; stroke-width: 2; stroke-linejoin: miter; stroke-linecap: square"/>
    </g>
   </g>
   <g id="legend_1">
    <g id="patch_12">
     <path d="M 43.833219 54.278125 
L 412.934781 54.278125 
Q 414.934781 54.278125 414.934781 52.278125 
L 414.934781 9.2 
Q 414.934781 7.2 412.934781 7.2 
L 43.833219 7.2 
Q 41.833219 7.2 41.833219 9.2 
L 41.833219 52.278125 
Q 41.833219 54.278125 43.833219 54.278125 
z
" style="fill: #ffffff; opacity: 0.8; stroke: #cccccc; stroke-linejoin: miter"/>
    </g>
    <g id="line2d_73">
     <path d="M 45.833219 15.298437 
L 55.833219 15.298437 
L 65.833219 15.298437 
" style="fill: none; stroke: #1f77b4; stroke-width: 2; stroke-linecap: square"/>
     <g>
      <use xlink:href="#m5871ef03ab" x="55.833219" y="15.298437" style="fill: #1f77b4; stroke: #1f77b4"/>
     </g>
    </g>
    <g id="text_23">
     <!-- $\kappa$ = 0.02 -->
     <g transform="translate(73.833219 18.798437) scale(0.1 -0.1)">
      <defs>
       <path id="DejaVuSans-Oblique-3ba" d="M 938 3500 
L 1531 3500 
L 1247 2047 
L 3041 3500 
L 3741 3500 
L 2106 2181 
L 3275 0 
L 2572 0 
L 1628 1806 
L 1122 1403 
L 850 0 
L 256 0 
L 938 3500 
z
" transform="scale(0.015625)"/>
       <path id="DejaVuSans-20" transform="scale(0.015625)"/>
       <path id="DejaVuSans-3d" d="M 678 2906 
L 4684 2906 
L 4684 2381 
L 678 2381 
L 678 2906 
z
M 678 1631 
L 4684 1631 
L 4684 1100 
L 678 1100 
L 678 1631 
z
" transform="scale(0.015625)"/>
      </defs>
      <use xlink:href="#DejaVuSans-Oblique-3ba" transform="translate(0 0.78125)"/>
      <use xlink:href="#DejaVuSans-20" transform="translate(58.935547 0.78125)"/>
      <use xlink:href="#DejaVuSans-3d" transform="translate(90.722656 0.78125)"/>
      <use xlink:href="#DejaVuSans-20" transform="translate(174.511719 0.78125)"/>
      <use xlink:href="#DejaVuSans-30" transform="translate(206.298828 0.78125)"/>
      <use xlink:href="#DejaVuSans-2e" transform="translate(269.921875 0.78125)"/>
      <use xlink:href="#DejaVuSans-30" transform="translate(301.708984 0.78125)"/>
      <use xlink:href="#DejaVuSans-32" transform="translate(365.332031 0.78125)"/>
     </g>
    </g>
    <g id="line2d_74">
     <path d="M 45.833219 29.978125 
L 55.833219 29.978125 
L 65.833219 29.978125 
" style="fill: none; stroke: #ff7f0e; stroke-width: 2; stroke-linecap: square"/>
     <g>
      <use xlink:href="#m63f5076fda" x="55.833219" y="29.978125" style="fill: #ff7f0e; stroke: #ff7f0e; stroke-linejoin: miter"/>
     </g>
    </g>
    <g id="text_24">
     <!-- Constant-edge ($\alpha$ = 0.242) -->
     <g transform="translate(73.833219 33.478125) scale(0.1 -0.1)">
      <defs>
       <path id="DejaVuSans-43" d="M 4122 4306 
L 4122 3641 
Q 3803 3938 3442 4084 
Q 3081 4231 2675 4231 
Q 1875 4231 1450 3742 
Q 1025 3253 1025 2328 
Q 1025 1406 1450 917 
Q 1875 428 2675 428 
Q 3081 428 3442 575 
Q 3803 722 4122 1019 
L 4122 359 
Q 3791 134 3420 21 
Q 3050 -91 2638 -91 
Q 1578 -91 968 557 
Q 359 1206 359 2328 
Q 359 3453 968 4101 
Q 1578 4750 2638 4750 
Q 3056 4750 3426 4639 
Q 3797 4528 4122 4306 
z
" transform="scale(0.015625)"/>
       <path id="DejaVuSans-6f" d="M 1959 3097 
Q 1497 3097 1228 2736 
Q 959 2375 959 1747 
Q 959 1119 1226 758 
Q 1494 397 1959 397 
Q 2419 397 2687 759 
Q 2956 1122 2956 1747 
Q 2956 2369 2687 2733 
Q 2419 3097 1959 3097 
z
M 1959 3584 
Q 2709 3584 3137 3096 
Q 3566 2609 3566 1747 
Q 3566 888 3137 398 
Q 2709 -91 1959 -91 
Q 1206 -91 779 398 
Q 353 888 353 1747 
Q 353 2609 779 3096 
Q 1206 3584 1959 3584 
z
" transform="scale(0.015625)"/>
       <path id="DejaVuSans-6e" d="M 3513 2113 
L 3513 0 
L 2938 0 
L 2938 2094 
Q 2938 2591 2744 2837 
Q 2550 3084 2163 3084 
Q 1697 3084 1428 2787 
Q 1159 2491 1159 1978 
L 1159 0 
L 581 0 
L 581 3500 
L 1159 3500 
L 1159 2956 
Q 1366 3272 1645 3428 
Q 1925 3584 2291 3584 
Q 2894 3584 3203 3211 
Q 3513 2838 3513 2113 
z
" transform="scale(0.015625)"/>
       <path id="DejaVuSans-73" d="M 2834 3397 
L 2834 2853 
Q 2591 2978 2328 3040 
Q 2066 3103 1784 3103 
Q 1356 3103 1142 2972 
Q 928 2841 928 2578 
Q 928 2378 1081 2264 
Q 1234 2150 1697 2047 
L 1894 2003 
Q 2506 1872 2764 1633 
Q 3022 1394 3022 966 
Q 3022 478 2636 193 
Q 2250 -91 1575 -91 
Q 1294 -91 989 -36 
Q 684 19 347 128 
L 347 722 
Q 666 556 975 473 
Q 1284 391 1588 391 
Q 1994 391 2212 530 
Q 2431 669 2431 922 
Q 2431 1156 2273 1281 
Q 2116 1406 1581 1522 
L 1381 1569 
Q 847 1681 609 1914 
Q 372 2147 372 2553 
Q 372 3047 722 3315 
Q 1072 3584 1716 3584 
Q 2034 3584 2315 3537 
Q 2597 3491 2834 3397 
z
" transform="scale(0.015625)"/>
       <path id="DejaVuSans-74" d="M 1172 4494 
L 1172 3500 
L 2356 3500 
L 2356 3053 
L 1172 3053 
L 1172 1153 
Q 1172 725 1289 603 
Q 1406 481 1766 481 
L 2356 481 
L 2356 0 
L 1766 0 
Q 1100 0 847 248 
Q 594 497 594 1153 
L 594 3053 
L 172 3053 
L 172 3500 
L 594 3500 
L 594 4494 
L 1172 4494 
z
" transform="scale(0.015625)"/>
       <path id="DejaVuSans-61" d="M 2194 1759 
Q 1497 1759 1228 1600 
Q 959 1441 959 1056 
Q 959 750 1161 570 
Q 1363 391 1709 391 
Q 2188 391 2477 730 
Q 2766 1069 2766 1631 
L 2766 1759 
L 2194 1759 
z
M 3341 1997 
L 3341 0 
L 2766 0 
L 2766 531 
Q 2569 213 2275 61 
Q 1981 -91 1556 -91 
Q 1019 -91 701 211 
Q 384 513 384 1019 
Q 384 1609 779 1909 
Q 1175 2209 1959 2209 
L 2766 2209 
L 2766 2266 
Q 2766 2663 2505 2880 
Q 2244 3097 1772 3097 
Q 1472 3097 1187 3025 
Q 903 2953 641 2809 
L 641 3341 
Q 956 3463 1253 3523 
Q 1550 3584 1831 3584 
Q 2591 3584 2966 3190 
Q 3341 2797 3341 1997 
z
" transform="scale(0.015625)"/>
       <path id="DejaVuSans-2d" d="M 313 2009 
L 1997 2009 
L 1997 1497 
L 313 1497 
L 313 2009 
z
" transform="scale(0.015625)"/>
       <path id="DejaVuSans-65" d="M 3597 1894 
L 3597 1613 
L 953 1613 
Q 991 1019 1311 708 
Q 1631 397 2203 397 
Q 2534 397 2845 478 
Q 3156 559 3463 722 
L 3463 178 
Q 3153 47 2828 -22 
Q 2503 -91 2169 -91 
Q 1331 -91 842 396 
Q 353 884 353 1716 
Q 353 2575 817 3079 
Q 1281 3584 2069 3584 
Q 2775 3584 3186 3129 
Q 3597 2675 3597 1894 
z
M 3022 2063 
Q 3016 2534 2758 2815 
Q 2500 3097 2075 3097 
Q 1594 3097 1305 2825 
Q 1016 2553 972 2059 
L 3022 2063 
z
" transform="scale(0.015625)"/>
       <path id="DejaVuSans-64" d="M 2906 2969 
L 2906 4863 
L 3481 4863 
L 3481 0 
L 2906 0 
L 2906 525 
Q 2725 213 2448 61 
Q 2172 -91 1784 -91 
Q 1150 -91 751 415 
Q 353 922 353 1747 
Q 353 2572 751 3078 
Q 1150 3584 1784 3584 
Q 2172 3584 2448 3432 
Q 2725 3281 2906 2969 
z
M 947 1747 
Q 947 1113 1208 752 
Q 1469 391 1925 391 
Q 2381 391 2643 752 
Q 2906 1113 2906 1747 
Q 2906 2381 2643 2742 
Q 2381 3103 1925 3103 
Q 1469 3103 1208 2742 
Q 947 2381 947 1747 
z
" transform="scale(0.015625)"/>
       <path id="DejaVuSans-67" d="M 2906 1791 
Q 2906 2416 2648 2759 
Q 2391 3103 1925 3103 
Q 1463 3103 1205 2759 
Q 947 2416 947 1791 
Q 947 1169 1205 825 
Q 1463 481 1925 481 
Q 2391 481 2648 825 
Q 2906 1169 2906 1791 
z
M 3481 434 
Q 3481 -459 3084 -895 
Q 2688 -1331 1869 -1331 
Q 1566 -1331 1297 -1286 
Q 1028 -1241 775 -1147 
L 775 -588 
Q 1028 -725 1275 -790 
Q 1522 -856 1778 -856 
Q 2344 -856 2625 -561 
Q 2906 -266 2906 331 
L 2906 616 
Q 2728 306 2450 153 
Q 2172 0 1784 0 
Q 1141 0 747 490 
Q 353 981 353 1791 
Q 353 2603 747 3093 
Q 1141 3584 1784 3584 
Q 2172 3584 2450 3431 
Q 2728 3278 2906 2969 
L 2906 3500 
L 3481 3500 
L 3481 434 
z
" transform="scale(0.015625)"/>
       <path id="DejaVuSans-28" d="M 1984 4856 
Q 1566 4138 1362 3434 
Q 1159 2731 1159 2009 
Q 1159 1288 1364 580 
Q 1569 -128 1984 -844 
L 1484 -844 
Q 1016 -109 783 600 
Q 550 1309 550 2009 
Q 550 2706 781 3412 
Q 1013 4119 1484 4856 
L 1984 4856 
z
" transform="scale(0.015625)"/>
       <path id="DejaVuSans-Oblique-3b1" d="M 2619 1628 
L 2622 2350 
Q 2625 3088 2069 3091 
Q 1653 3094 1394 2747 
Q 1069 2319 959 1747 
Q 825 1059 994 731 
Q 1169 397 1547 397 
Q 1966 397 2319 1063 
L 2619 1628 
z
M 2166 3578 
Q 3141 3594 3128 2584 
Q 3128 2584 3616 3500 
L 4128 3500 
L 3119 1603 
L 3109 919 
Q 3109 766 3194 638 
Q 3291 488 3391 488 
L 3669 488 
L 3575 0 
L 3228 0 
Q 2934 0 2722 263 
Q 2622 394 2619 669 
Q 2416 334 2066 50 
Q 1900 -81 1453 -78 
Q 722 -72 456 397 
Q 184 884 353 1747 
Q 534 2675 1009 3097 
Q 1544 3569 2166 3578 
z
" transform="scale(0.015625)"/>
       <path id="DejaVuSans-29" d="M 513 4856 
L 1013 4856 
Q 1481 4119 1714 3412 
Q 1947 2706 1947 2009 
Q 1947 1309 1714 600 
Q 1481 -109 1013 -844 
L 513 -844 
Q 928 -128 1133 580 
Q 1338 1288 1338 2009 
Q 1338 2731 1133 3434 
Q 928 4138 513 4856 
z
" transform="scale(0.015625)"/>
      </defs>
      <use xlink:href="#DejaVuSans-43" transform="translate(0 0.015625)"/>
      <use xlink:href="#DejaVuSans-6f" transform="translate(69.824219 0.015625)"/>
      <use xlink:href="#DejaVuSans-6e" transform="translate(131.005859 0.015625)"/>
      <use xlink:href="#DejaVuSans-73" transform="translate(194.384766 0.015625)"/>
      <use xlink:href="#DejaVuSans-74" transform="translate(246.484375 0.015625)"/>
      <use xlink:href="#DejaVuSans-61" transform="translate(285.693359 0.015625)"/>
      <use xlink:href="#DejaVuSans-6e" transform="translate(346.972656 0.015625)"/>
      <use xlink:href="#DejaVuSans-74" transform="translate(410.351562 0.015625)"/>
      <use xlink:href="#DejaVuSans-2d" transform="translate(449.560547 0.015625)"/>
      <use xlink:href="#DejaVuSans-65" transform="translate(485.644531 0.015625)"/>
      <use xlink:href="#DejaVuSans-64" transform="translate(547.167969 0.015625)"/>
      <use xlink:href="#DejaVuSans-67" transform="translate(610.644531 0.015625)"/>
      <use xlink:href="#DejaVuSans-65" transform="translate(674.121094 0.015625)"/>
      <use xlink:href="#DejaVuSans-20" transform="translate(735.644531 0.015625)"/>
      <use xlink:href="#DejaVuSans-28" transform="translate(767.431641 0.015625)"/>
      <use xlink:href="#DejaVuSans-Oblique-3b1" transform="translate(806.445312 0.015625)"/>
      <use xlink:href="#DejaVuSans-20" transform="translate(872.363281 0.015625)"/>
      <use xlink:href="#DejaVuSans-3d" transform="translate(904.150391 0.015625)"/>
      <use xlink:href="#DejaVuSans-20" transform="translate(987.939453 0.015625)"/>
      <use xlink:href="#DejaVuSans-30" transform="translate(1019.726562 0.015625)"/>
      <use xlink:href="#DejaVuSans-2e" transform="translate(1083.349609 0.015625)"/>
      <use xlink:href="#DejaVuSans-32" transform="translate(1109.636719 0.015625)"/>
      <use xlink:href="#DejaVuSans-34" transform="translate(1173.259766 0.015625)"/>
      <use xlink:href="#DejaVuSans-32" transform="translate(1236.882812 0.015625)"/>
      <use xlink:href="#DejaVuSans-29" transform="translate(1300.505859 0.015625)"/>
     </g>
    </g>
    <g id="line2d_75">
     <path d="M 45.833219 44.678125 
L 55.833219 44.678125 
L 65.833219 44.678125 
" style="fill: none; stroke: #2ca02c; stroke-width: 2; stroke-linecap: square"/>
     <g>
      <use xlink:href="#m5c644d26ee" x="55.833219" y="44.678125" style="fill: #2ca02c; stroke: #2ca02c; stroke-linejoin: miter"/>
     </g>
    </g>
    <g id="text_25">
     <!-- Maximum-degree ($\alpha$ = 0.167) -->
     <g transform="translate(73.833219 48.178125) scale(0.1 -0.1)">
      <defs>
       <path id="DejaVuSans-4d" d="M 628 4666 
L 1569 4666 
L 2759 1491 
L 3956 4666 
L 4897 4666 
L 4897 0 
L 4281 0 
L 4281 4097 
L 3078 897 
L 2444 897 
L 1241 4097 
L 1241 0 
L 628 0 
L 628 4666 
z
" transform="scale(0.015625)"/>
       <path id="DejaVuSans-78" d="M 3513 3500 
L 2247 1797 
L 3578 0 
L 2900 0 
L 1881 1375 
L 863 0 
L 184 0 
L 1544 1831 
L 300 3500 
L 978 3500 
L 1906 2253 
L 2834 3500 
L 3513 3500 
z
" transform="scale(0.015625)"/>
       <path id="DejaVuSans-69" d="M 603 3500 
L 1178 3500 
L 1178 0 
L 603 0 
L 603 3500 
z
M 603 4863 
L 1178 4863 
L 1178 4134 
L 603 4134 
L 603 4863 
z
" transform="scale(0.015625)"/>
       <path id="DejaVuSans-6d" d="M 3328 2828 
Q 3544 3216 3844 3400 
Q 4144 3584 4550 3584 
Q 5097 3584 5394 3201 
Q 5691 2819 5691 2113 
L 5691 0 
L 5113 0 
L 5113 2094 
Q 5113 2597 4934 2840 
Q 4756 3084 4391 3084 
Q 3944 3084 3684 2787 
Q 3425 2491 3425 1978 
L 3425 0 
L 2847 0 
L 2847 2094 
Q 2847 2600 2669 2842 
Q 2491 3084 2119 3084 
Q 1678 3084 1418 2786 
Q 1159 2488 1159 1978 
L 1159 0 
L 581 0 
L 581 3500 
L 1159 3500 
L 1159 2956 
Q 1356 3278 1631 3431 
Q 1906 3584 2284 3584 
Q 2666 3584 2933 3390 
Q 3200 3197 3328 2828 
z
" transform="scale(0.015625)"/>
       <path id="DejaVuSans-75" d="M 544 1381 
L 544 3500 
L 1119 3500 
L 1119 1403 
Q 1119 906 1312 657 
Q 1506 409 1894 409 
Q 2359 409 2629 706 
Q 2900 1003 2900 1516 
L 2900 3500 
L 3475 3500 
L 3475 0 
L 2900 0 
L 2900 538 
Q 2691 219 2414 64 
Q 2138 -91 1772 -91 
Q 1169 -91 856 284 
Q 544 659 544 1381 
z
M 1991 3584 
L 1991 3584 
z
" transform="scale(0.015625)"/>
       <path id="DejaVuSans-72" d="M 2631 2963 
Q 2534 3019 2420 3045 
Q 2306 3072 2169 3072 
Q 1681 3072 1420 2755 
Q 1159 2438 1159 1844 
L 1159 0 
L 581 0 
L 581 3500 
L 1159 3500 
L 1159 2956 
Q 1341 3275 1631 3429 
Q 1922 3584 2338 3584 
Q 2397 3584 2469 3576 
Q 2541 3569 2628 3553 
L 2631 2963 
z
" transform="scale(0.015625)"/>
       <path id="DejaVuSans-37" d="M 525 4666 
L 3525 4666 
L 3525 4397 
L 1831 0 
L 1172 0 
L 2766 4134 
L 525 4134 
L 525 4666 
z
" transform="scale(0.015625)"/>
      </defs>
      <use xlink:href="#DejaVuSans-4d" transform="translate(0 0.015625)"/>
      <use xlink:href="#DejaVuSans-61" transform="translate(86.279297 0.015625)"/>
      <use xlink:href="#DejaVuSans-78" transform="translate(147.558594 0.015625)"/>
      <use xlink:href="#DejaVuSans-69" transform="translate(206.738281 0.015625)"/>
      <use xlink:href="#DejaVuSans-6d" transform="translate(234.521484 0.015625)"/>
      <use xlink:href="#DejaVuSans-75" transform="translate(331.933594 0.015625)"/>
      <use xlink:href="#DejaVuSans-6d" transform="translate(395.3125 0.015625)"/>
      <use xlink:href="#DejaVuSans-2d" transform="translate(490.974609 0.015625)"/>
      <use xlink:href="#DejaVuSans-64" transform="translate(527.058594 0.015625)"/>
      <use xlink:href="#DejaVuSans-65" transform="translate(590.535156 0.015625)"/>
      <use xlink:href="#DejaVuSans-67" transform="translate(652.058594 0.015625)"/>
      <use xlink:href="#DejaVuSans-72" transform="translate(715.535156 0.015625)"/>
      <use xlink:href="#DejaVuSans-65" transform="translate(756.648438 0.015625)"/>
      <use xlink:href="#DejaVuSans-65" transform="translate(818.171875 0.015625)"/>
      <use xlink:href="#DejaVuSans-20" transform="translate(879.695312 0.015625)"/>
      <use xlink:href="#DejaVuSans-28" transform="translate(911.482422 0.015625)"/>
      <use xlink:href="#DejaVuSans-Oblique-3b1" transform="translate(950.496094 0.015625)"/>
      <use xlink:href="#DejaVuSans-20" transform="translate(1016.414062 0.015625)"/>
      <use xlink:href="#DejaVuSans-3d" transform="translate(1048.201172 0.015625)"/>
      <use xlink:href="#DejaVuSans-20" transform="translate(1131.990234 0.015625)"/>
      <use xlink:href="#DejaVuSans-30" transform="translate(1163.777344 0.015625)"/>
      <use xlink:href="#DejaVuSans-2e" transform="translate(1227.400391 0.015625)"/>
      <use xlink:href="#DejaVuSans-31" transform="translate(1259.1875 0.015625)"/>
      <use xlink:href="#DejaVuSans-36" transform="translate(1322.810547 0.015625)"/>
      <use xlink:href="#DejaVuSans-37" transform="translate(1386.433594 0.015625)"/>
      <use xlink:href="#DejaVuSans-29" transform="translate(1450.056641 0.015625)"/>
     </g>
    </g>
    <g id="line2d_76">
     <path d="M 242.833219 15.298437 
L 252.833219 15.298437 
L 262.833219 15.298437 
" style="fill: none; stroke: #d62728; stroke-width: 2; stroke-linecap: square"/>
     <g>
      <use xlink:href="#mf691853788" x="252.833219" y="15.298437" style="fill: #d62728; stroke: #d62728"/>
     </g>
    </g>
    <g id="text_26">
     <!-- Local-degree -->
     <g transform="translate(270.833219 18.798437) scale(0.1 -0.1)">
      <defs>
       <path id="DejaVuSans-4c" d="M 628 4666 
L 1259 4666 
L 1259 531 
L 3531 531 
L 3531 0 
L 628 0 
L 628 4666 
z
" transform="scale(0.015625)"/>
       <path id="DejaVuSans-63" d="M 3122 3366 
L 3122 2828 
Q 2878 2963 2633 3030 
Q 2388 3097 2138 3097 
Q 1578 3097 1268 2742 
Q 959 2388 959 1747 
Q 959 1106 1268 751 
Q 1578 397 2138 397 
Q 2388 397 2633 464 
Q 2878 531 3122 666 
L 3122 134 
Q 2881 22 2623 -34 
Q 2366 -91 2075 -91 
Q 1284 -91 818 406 
Q 353 903 353 1747 
Q 353 2603 823 3093 
Q 1294 3584 2113 3584 
Q 2378 3584 2631 3529 
Q 2884 3475 3122 3366 
z
" transform="scale(0.015625)"/>
       <path id="DejaVuSans-6c" d="M 603 4863 
L 1178 4863 
L 1178 0 
L 603 0 
L 603 4863 
z
" transform="scale(0.015625)"/>
      </defs>
      <use xlink:href="#DejaVuSans-4c"/>
      <use xlink:href="#DejaVuSans-6f" x="53.962891"/>
      <use xlink:href="#DejaVuSans-63" x="115.144531"/>
      <use xlink:href="#DejaVuSans-61" x="170.125"/>
      <use xlink:href="#DejaVuSans-6c" x="231.404297"/>
      <use xlink:href="#DejaVuSans-2d" x="259.1875"/>
      <use xlink:href="#DejaVuSans-64" x="295.271484"/>
      <use xlink:href="#DejaVuSans-65" x="358.748047"/>
      <use xlink:href="#DejaVuSans-67" x="420.271484"/>
      <use xlink:href="#DejaVuSans-72" x="483.748047"/>
      <use xlink:href="#DejaVuSans-65" x="522.611328"/>
      <use xlink:href="#DejaVuSans-65" x="584.134766"/>
     </g>
    </g>
    <g id="line2d_77">
     <path d="M 242.833219 29.976562 
L 252.833219 29.976562 
L 262.833219 29.976562 
" style="fill: none; stroke: #9467bd; stroke-width: 2; stroke-linecap: square"/>
     <g>
      <use xlink:href="#mc9ca0fbb5e" x="252.833219" y="29.976562" style="fill: #9467bd; stroke: #9467bd; stroke-linejoin: miter"/>
     </g>
    </g>
    <g id="text_27">
     <!-- FMMC -->
     <g transform="translate(270.833219 33.476562) scale(0.1 -0.1)">
      <defs>
       <path id="DejaVuSans-46" d="M 628 4666 
L 3309 4666 
L 3309 4134 
L 1259 4134 
L 1259 2759 
L 3109 2759 
L 3109 2228 
L 1259 2228 
L 1259 0 
L 628 0 
L 628 4666 
z
" transform="scale(0.015625)"/>
      </defs>
      <use xlink:href="#DejaVuSans-46"/>
      <use xlink:href="#DejaVuSans-4d" x="57.519531"/>
      <use xlink:href="#DejaVuSans-4d" x="143.798828"/>
      <use xlink:href="#DejaVuSans-43" x="230.078125"/>
     </g>
    </g>
    <g id="line2d_78">
     <path d="M 355.403531 15.298437 
L 365.403531 15.298437 
L 375.403531 15.298437 
" style="fill: none; stroke: #8c564b; stroke-width: 2; stroke-linecap: square"/>
     <g>
      <use xlink:href="#m34db511b56" x="365.403531" y="15.298437" style="fill: #8c564b; stroke: #8c564b; stroke-linejoin: miter"/>
     </g>
    </g>
    <g id="text_28">
     <!-- FDLA -->
     <g transform="translate(383.403531 18.798437) scale(0.1 -0.1)">
      <defs>
       <path id="DejaVuSans-44" d="M 1259 4147 
L 1259 519 
L 2022 519 
Q 2988 519 3436 956 
Q 3884 1394 3884 2338 
Q 3884 3275 3436 3711 
Q 2988 4147 2022 4147 
L 1259 4147 
z
M 628 4666 
L 1925 4666 
Q 3281 4666 3915 4102 
Q 4550 3538 4550 2338 
Q 4550 1131 3912 565 
Q 3275 0 1925 0 
L 628 0 
L 628 4666 
z
" transform="scale(0.015625)"/>
       <path id="DejaVuSans-41" d="M 2188 4044 
L 1331 1722 
L 3047 1722 
L 2188 4044 
z
M 1831 4666 
L 2547 4666 
L 4325 0 
L 3669 0 
L 3244 1197 
L 1141 1197 
L 716 0 
L 50 0 
L 1831 4666 
z
" transform="scale(0.015625)"/>
      </defs>
      <use xlink:href="#DejaVuSans-46"/>
      <use xlink:href="#DejaVuSans-44" x="57.519531"/>
      <use xlink:href="#DejaVuSans-4c" x="134.521484"/>
      <use xlink:href="#DejaVuSans-41" x="192.484375"/>
     </g>
    </g>
    <g id="line2d_79">
     <path d="M 355.403531 29.976562 
L 365.403531 29.976562 
L 375.403531 29.976562 
" style="fill: none; stroke: #e377c2; stroke-width: 2; stroke-linecap: square"/>
     <g>
      <use xlink:href="#m5d67a47909" x="365.403531" y="29.976562" style="fill: #e377c2; stroke: #e377c2"/>
     </g>
    </g>
    <g id="text_29">
     <!-- LMSC -->
     <g transform="translate(383.403531 33.476562) scale(0.1 -0.1)">
      <defs>
       <path id="DejaVuSans-53" d="M 3425 4513 
L 3425 3897 
Q 3066 4069 2747 4153 
Q 2428 4238 2131 4238 
Q 1616 4238 1336 4038 
Q 1056 3838 1056 3469 
Q 1056 3159 1242 3001 
Q 1428 2844 1947 2747 
L 2328 2669 
Q 3034 2534 3370 2195 
Q 3706 1856 3706 1288 
Q 3706 609 3251 259 
Q 2797 -91 1919 -91 
Q 1588 -91 1214 -16 
Q 841 59 441 206 
L 441 856 
Q 825 641 1194 531 
Q 1563 422 1919 422 
Q 2459 422 2753 634 
Q 3047 847 3047 1241 
Q 3047 1584 2836 1778 
Q 2625 1972 2144 2069 
L 1759 2144 
Q 1053 2284 737 2584 
Q 422 2884 422 3419 
Q 422 4038 858 4394 
Q 1294 4750 2059 4750 
Q 2388 4750 2728 4690 
Q 3069 4631 3425 4513 
z
" transform="scale(0.015625)"/>
      </defs>
      <use xlink:href="#DejaVuSans-4c"/>
      <use xlink:href="#DejaVuSans-4d" x="55.712891"/>
      <use xlink:href="#DejaVuSans-53" x="141.992188"/>
      <use xlink:href="#DejaVuSans-43" x="205.46875"/>
     </g>
    </g>
   </g>
  </g>
  <g id="patch_13">
   <path d="M 266.999821 303.431426 
Q 237.17991 262.025313 207.36 220.6192 
" style="fill: none; stroke: #000000; stroke-linecap: round"/>
  </g>
  <g id="text_30">
   <!-- Timesteps -->
   <g transform="translate(197.599313 359.128375) scale(0.12 -0.12)">
    <defs>
     <path id="DejaVuSans-54" d="M -19 4666 
L 3928 4666 
L 3928 4134 
L 2272 4134 
L 2272 0 
L 1638 0 
L 1638 4134 
L -19 4134 
L -19 4666 
z
" transform="scale(0.015625)"/>
     <path id="DejaVuSans-70" d="M 1159 525 
L 1159 -1331 
L 581 -1331 
L 581 3500 
L 1159 3500 
L 1159 2969 
Q 1341 3281 1617 3432 
Q 1894 3584 2278 3584 
Q 2916 3584 3314 3078 
Q 3713 2572 3713 1747 
Q 3713 922 3314 415 
Q 2916 -91 2278 -91 
Q 1894 -91 1617 61 
Q 1341 213 1159 525 
z
M 3116 1747 
Q 3116 2381 2855 2742 
Q 2594 3103 2138 3103 
Q 1681 3103 1420 2742 
Q 1159 2381 1159 1747 
Q 1159 1113 1420 752 
Q 1681 391 2138 391 
Q 2594 391 2855 752 
Q 3116 1113 3116 1747 
z
" transform="scale(0.015625)"/>
    </defs>
    <use xlink:href="#DejaVuSans-54"/>
    <use xlink:href="#DejaVuSans-69" x="57.958984"/>
    <use xlink:href="#DejaVuSans-6d" x="85.742188"/>
    <use xlink:href="#DejaVuSans-65" x="183.154297"/>
    <use xlink:href="#DejaVuSans-73" x="244.677734"/>
    <use xlink:href="#DejaVuSans-74" x="296.777344"/>
    <use xlink:href="#DejaVuSans-65" x="335.986328"/>
    <use xlink:href="#DejaVuSans-70" x="397.509766"/>
    <use xlink:href="#DejaVuSans-73" x="460.986328"/>
   </g>
  </g>
  <g id="text_31">
   <!-- Mean estimate error for the best arm -->
   <g transform="translate(16.318125 303.952187) rotate(-90) scale(0.12 -0.12)">
    <defs>
     <path id="DejaVuSans-66" d="M 2375 4863 
L 2375 4384 
L 1825 4384 
Q 1516 4384 1395 4259 
Q 1275 4134 1275 3809 
L 1275 3500 
L 2222 3500 
L 2222 3053 
L 1275 3053 
L 1275 0 
L 697 0 
L 697 3053 
L 147 3053 
L 147 3500 
L 697 3500 
L 697 3744 
Q 697 4328 969 4595 
Q 1241 4863 1831 4863 
L 2375 4863 
z
" transform="scale(0.015625)"/>
     <path id="DejaVuSans-68" d="M 3513 2113 
L 3513 0 
L 2938 0 
L 2938 2094 
Q 2938 2591 2744 2837 
Q 2550 3084 2163 3084 
Q 1697 3084 1428 2787 
Q 1159 2491 1159 1978 
L 1159 0 
L 581 0 
L 581 4863 
L 1159 4863 
L 1159 2956 
Q 1366 3272 1645 3428 
Q 1925 3584 2291 3584 
Q 2894 3584 3203 3211 
Q 3513 2838 3513 2113 
z
" transform="scale(0.015625)"/>
     <path id="DejaVuSans-62" d="M 3116 1747 
Q 3116 2381 2855 2742 
Q 2594 3103 2138 3103 
Q 1681 3103 1420 2742 
Q 1159 2381 1159 1747 
Q 1159 1113 1420 752 
Q 1681 391 2138 391 
Q 2594 391 2855 752 
Q 3116 1113 3116 1747 
z
M 1159 2969 
Q 1341 3281 1617 3432 
Q 1894 3584 2278 3584 
Q 2916 3584 3314 3078 
Q 3713 2572 3713 1747 
Q 3713 922 3314 415 
Q 2916 -91 2278 -91 
Q 1894 -91 1617 61 
Q 1341 213 1159 525 
L 1159 0 
L 581 0 
L 581 4863 
L 1159 4863 
L 1159 2969 
z
" transform="scale(0.015625)"/>
    </defs>
    <use xlink:href="#DejaVuSans-4d"/>
    <use xlink:href="#DejaVuSans-65" x="86.279297"/>
    <use xlink:href="#DejaVuSans-61" x="147.802734"/>
    <use xlink:href="#DejaVuSans-6e" x="209.082031"/>
    <use xlink:href="#DejaVuSans-20" x="272.460938"/>
    <use xlink:href="#DejaVuSans-65" x="304.248047"/>
    <use xlink:href="#DejaVuSans-73" x="365.771484"/>
    <use xlink:href="#DejaVuSans-74" x="417.871094"/>
    <use xlink:href="#DejaVuSans-69" x="457.080078"/>
    <use xlink:href="#DejaVuSans-6d" x="484.863281"/>
    <use xlink:href="#DejaVuSans-61" x="582.275391"/>
    <use xlink:href="#DejaVuSans-74" x="643.554688"/>
    <use xlink:href="#DejaVuSans-65" x="682.763672"/>
    <use xlink:href="#DejaVuSans-20" x="744.287109"/>
    <use xlink:href="#DejaVuSans-65" x="776.074219"/>
    <use xlink:href="#DejaVuSans-72" x="837.597656"/>
    <use xlink:href="#DejaVuSans-72" x="876.960938"/>
    <use xlink:href="#DejaVuSans-6f" x="915.824219"/>
    <use xlink:href="#DejaVuSans-72" x="977.005859"/>
    <use xlink:href="#DejaVuSans-20" x="1018.119141"/>
    <use xlink:href="#DejaVuSans-66" x="1049.90625"/>
    <use xlink:href="#DejaVuSans-6f" x="1085.111328"/>
    <use xlink:href="#DejaVuSans-72" x="1146.292969"/>
    <use xlink:href="#DejaVuSans-20" x="1187.40625"/>
    <use xlink:href="#DejaVuSans-74" x="1219.193359"/>
    <use xlink:href="#DejaVuSans-68" x="1258.402344"/>
    <use xlink:href="#DejaVuSans-65" x="1321.78125"/>
    <use xlink:href="#DejaVuSans-20" x="1383.304688"/>
    <use xlink:href="#DejaVuSans-62" x="1415.091797"/>
    <use xlink:href="#DejaVuSans-65" x="1478.568359"/>
    <use xlink:href="#DejaVuSans-73" x="1540.091797"/>
    <use xlink:href="#DejaVuSans-74" x="1592.191406"/>
    <use xlink:href="#DejaVuSans-20" x="1631.400391"/>
    <use xlink:href="#DejaVuSans-61" x="1663.1875"/>
    <use xlink:href="#DejaVuSans-72" x="1724.466797"/>
    <use xlink:href="#DejaVuSans-6d" x="1763.830078"/>
   </g>
  </g>
 </g>
 <defs>
  <clipPath id="p6dc0f46928">
   <rect x="55.584" y="60.952" width="357.12" height="266.112"/>
  </clipPath>
  <clipPath id="p44c147bc18">
   <rect x="207.36" y="74.2576" width="196.416" height="146.3616"/>
  </clipPath>
 </defs>
</svg>
