<?xml version="1.0" encoding="utf-8" standalone="no"?>
<!DOCTYPE svg PUBLIC "-//W3C//DTD SVG 1.1//EN"
  "http://www.w3.org/Graphics/SVG/1.1/DTD/svg11.dtd">
<svg xmlns:xlink="http://www.w3.org/1999/xlink" width="459.390625pt" height="368.824pt" viewBox="0 0 459.390625 368.824" xmlns="http://www.w3.org/2000/svg" version="1.1">
 <metadata>
  <rdf:RDF xmlns:dc="http://purl.org/dc/elements/1.1/" xmlns:cc="http://creativecommons.org/ns#" xmlns:rdf="http://www.w3.org/1999/02/22-rdf-syntax-ns#">
   <cc:Work>
    <dc:type rdf:resource="http://purl.org/dc/dcmitype/StillImage"/>
    <dc:date>2024-06-04T03:57:46.070786</dc:date>
    <dc:format>image/svg+xml</dc:format>
    <dc:creator>
     <cc:Agent>
      <dc:title>Matplotlib v3.9.0, https://matplotlib.org/</dc:title>
     </cc:Agent>
    </dc:creator>
   </cc:Work>
  </rdf:RDF>
 </metadata>
 <defs>
  <style type="text/css">*{stroke-linejoin: round; stroke-linecap: butt}</style>
 </defs>
 <g id="figure_1">
  <g id="patch_1">
   <path d="M 0 368.824 
L 459.390625 368.824 
L 459.390625 0 
L 0 0 
z
" style="fill: #ffffff"/>
  </g>
  <g id="axes_1">
   <g id="patch_2">
    <path d="M 56.895313 327.064 
L 414.015313 327.064 
L 414.015313 60.952 
L 56.895313 60.952 
z
" style="fill: #ffffff"/>
   </g>
   <g id="PolyCollection_1">
    <path d="M 196.093389 291.663286 
L 196.093389 294.411893 
L 212.358646 294.411893 
L 212.358646 291.663286 
L 212.358646 291.663286 
L 196.093389 291.663286 
z
" clip-path="url(#p4e36055f59)" style="fill-opacity: 0.2"/>
   </g>
   <g id="matplotlib.axis_1">
    <g id="xtick_1">
     <g id="line2d_1">
      <path d="M 73.12804 327.064 
L 73.12804 60.952 
" clip-path="url(#p4e36055f59)" style="fill: none; stroke: #b0b0b0; stroke-width: 0.8; stroke-linecap: square"/>
     </g>
     <g id="line2d_2">
      <defs>
       <path id="md52dd35366" d="M 0 0 
L 0 3.5 
" style="stroke: #000000; stroke-width: 0.8"/>
      </defs>
      <g>
       <use xlink:href="#md52dd35366" x="73.12804" y="327.064" style="stroke: #000000; stroke-width: 0.8"/>
      </g>
     </g>
     <g id="text_1">
      <!-- 0 -->
      <g transform="translate(68.67429 344.701813) scale(0.14 -0.14)">
       <defs>
        <path id="DejaVuSans-30" d="M 2034 4250 
Q 1547 4250 1301 3770 
Q 1056 3291 1056 2328 
Q 1056 1369 1301 889 
Q 1547 409 2034 409 
Q 2525 409 2770 889 
Q 3016 1369 3016 2328 
Q 3016 3291 2770 3770 
Q 2525 4250 2034 4250 
z
M 2034 4750 
Q 2819 4750 3233 4129 
Q 3647 3509 3647 2328 
Q 3647 1150 3233 529 
Q 2819 -91 2034 -91 
Q 1250 -91 836 529 
Q 422 1150 422 2328 
Q 422 3509 836 4129 
Q 1250 4750 2034 4750 
z
" transform="scale(0.015625)"/>
       </defs>
       <use xlink:href="#DejaVuSans-30"/>
      </g>
     </g>
    </g>
    <g id="xtick_2">
     <g id="line2d_3">
      <path d="M 138.189071 327.064 
L 138.189071 60.952 
" clip-path="url(#p4e36055f59)" style="fill: none; stroke: #b0b0b0; stroke-width: 0.8; stroke-linecap: square"/>
     </g>
     <g id="line2d_4">
      <g>
       <use xlink:href="#md52dd35366" x="138.189071" y="327.064" style="stroke: #000000; stroke-width: 0.8"/>
      </g>
     </g>
     <g id="text_2">
      <!-- 100 -->
      <g transform="translate(124.827821 344.701813) scale(0.14 -0.14)">
       <defs>
        <path id="DejaVuSans-31" d="M 794 531 
L 1825 531 
L 1825 4091 
L 703 3866 
L 703 4441 
L 1819 4666 
L 2450 4666 
L 2450 531 
L 3481 531 
L 3481 0 
L 794 0 
L 794 531 
z
" transform="scale(0.015625)"/>
       </defs>
       <use xlink:href="#DejaVuSans-31"/>
       <use xlink:href="#DejaVuSans-30" x="63.623047"/>
       <use xlink:href="#DejaVuSans-30" x="127.246094"/>
      </g>
     </g>
    </g>
    <g id="xtick_3">
     <g id="line2d_5">
      <path d="M 203.250102 327.064 
L 203.250102 60.952 
" clip-path="url(#p4e36055f59)" style="fill: none; stroke: #b0b0b0; stroke-width: 0.8; stroke-linecap: square"/>
     </g>
     <g id="line2d_6">
      <g>
       <use xlink:href="#md52dd35366" x="203.250102" y="327.064" style="stroke: #000000; stroke-width: 0.8"/>
      </g>
     </g>
     <g id="text_3">
      <!-- 200 -->
      <g transform="translate(189.888852 344.701813) scale(0.14 -0.14)">
       <defs>
        <path id="DejaVuSans-32" d="M 1228 531 
L 3431 531 
L 3431 0 
L 469 0 
L 469 531 
Q 828 903 1448 1529 
Q 2069 2156 2228 2338 
Q 2531 2678 2651 2914 
Q 2772 3150 2772 3378 
Q 2772 3750 2511 3984 
Q 2250 4219 1831 4219 
Q 1534 4219 1204 4116 
Q 875 4013 500 3803 
L 500 4441 
Q 881 4594 1212 4672 
Q 1544 4750 1819 4750 
Q 2544 4750 2975 4387 
Q 3406 4025 3406 3419 
Q 3406 3131 3298 2873 
Q 3191 2616 2906 2266 
Q 2828 2175 2409 1742 
Q 1991 1309 1228 531 
z
" transform="scale(0.015625)"/>
       </defs>
       <use xlink:href="#DejaVuSans-32"/>
       <use xlink:href="#DejaVuSans-30" x="63.623047"/>
       <use xlink:href="#DejaVuSans-30" x="127.246094"/>
      </g>
     </g>
    </g>
    <g id="xtick_4">
     <g id="line2d_7">
      <path d="M 268.311133 327.064 
L 268.311133 60.952 
" clip-path="url(#p4e36055f59)" style="fill: none; stroke: #b0b0b0; stroke-width: 0.8; stroke-linecap: square"/>
     </g>
     <g id="line2d_8">
      <g>
       <use xlink:href="#md52dd35366" x="268.311133" y="327.064" style="stroke: #000000; stroke-width: 0.8"/>
      </g>
     </g>
     <g id="text_4">
      <!-- 300 -->
      <g transform="translate(254.949883 344.701813) scale(0.14 -0.14)">
       <defs>
        <path id="DejaVuSans-33" d="M 2597 2516 
Q 3050 2419 3304 2112 
Q 3559 1806 3559 1356 
Q 3559 666 3084 287 
Q 2609 -91 1734 -91 
Q 1441 -91 1130 -33 
Q 819 25 488 141 
L 488 750 
Q 750 597 1062 519 
Q 1375 441 1716 441 
Q 2309 441 2620 675 
Q 2931 909 2931 1356 
Q 2931 1769 2642 2001 
Q 2353 2234 1838 2234 
L 1294 2234 
L 1294 2753 
L 1863 2753 
Q 2328 2753 2575 2939 
Q 2822 3125 2822 3475 
Q 2822 3834 2567 4026 
Q 2313 4219 1838 4219 
Q 1578 4219 1281 4162 
Q 984 4106 628 3988 
L 628 4550 
Q 988 4650 1302 4700 
Q 1616 4750 1894 4750 
Q 2613 4750 3031 4423 
Q 3450 4097 3450 3541 
Q 3450 3153 3228 2886 
Q 3006 2619 2597 2516 
z
" transform="scale(0.015625)"/>
       </defs>
       <use xlink:href="#DejaVuSans-33"/>
       <use xlink:href="#DejaVuSans-30" x="63.623047"/>
       <use xlink:href="#DejaVuSans-30" x="127.246094"/>
      </g>
     </g>
    </g>
    <g id="xtick_5">
     <g id="line2d_9">
      <path d="M 333.372164 327.064 
L 333.372164 60.952 
" clip-path="url(#p4e36055f59)" style="fill: none; stroke: #b0b0b0; stroke-width: 0.8; stroke-linecap: square"/>
     </g>
     <g id="line2d_10">
      <g>
       <use xlink:href="#md52dd35366" x="333.372164" y="327.064" style="stroke: #000000; stroke-width: 0.8"/>
      </g>
     </g>
     <g id="text_5">
      <!-- 400 -->
      <g transform="translate(320.010914 344.701813) scale(0.14 -0.14)">
       <defs>
        <path id="DejaVuSans-34" d="M 2419 4116 
L 825 1625 
L 2419 1625 
L 2419 4116 
z
M 2253 4666 
L 3047 4666 
L 3047 1625 
L 3713 1625 
L 3713 1100 
L 3047 1100 
L 3047 0 
L 2419 0 
L 2419 1100 
L 313 1100 
L 313 1709 
L 2253 4666 
z
" transform="scale(0.015625)"/>
       </defs>
       <use xlink:href="#DejaVuSans-34"/>
       <use xlink:href="#DejaVuSans-30" x="63.623047"/>
       <use xlink:href="#DejaVuSans-30" x="127.246094"/>
      </g>
     </g>
    </g>
    <g id="xtick_6">
     <g id="line2d_11">
      <path d="M 398.433196 327.064 
L 398.433196 60.952 
" clip-path="url(#p4e36055f59)" style="fill: none; stroke: #b0b0b0; stroke-width: 0.8; stroke-linecap: square"/>
     </g>
     <g id="line2d_12">
      <g>
       <use xlink:href="#md52dd35366" x="398.433196" y="327.064" style="stroke: #000000; stroke-width: 0.8"/>
      </g>
     </g>
     <g id="text_6">
      <!-- 500 -->
      <g transform="translate(385.071946 344.701813) scale(0.14 -0.14)">
       <defs>
        <path id="DejaVuSans-35" d="M 691 4666 
L 3169 4666 
L 3169 4134 
L 1269 4134 
L 1269 2991 
Q 1406 3038 1543 3061 
Q 1681 3084 1819 3084 
Q 2600 3084 3056 2656 
Q 3513 2228 3513 1497 
Q 3513 744 3044 326 
Q 2575 -91 1722 -91 
Q 1428 -91 1123 -41 
Q 819 9 494 109 
L 494 744 
Q 775 591 1075 516 
Q 1375 441 1709 441 
Q 2250 441 2565 725 
Q 2881 1009 2881 1497 
Q 2881 1984 2565 2268 
Q 2250 2553 1709 2553 
Q 1456 2553 1204 2497 
Q 953 2441 691 2322 
L 691 4666 
z
" transform="scale(0.015625)"/>
       </defs>
       <use xlink:href="#DejaVuSans-35"/>
       <use xlink:href="#DejaVuSans-30" x="63.623047"/>
       <use xlink:href="#DejaVuSans-30" x="127.246094"/>
      </g>
     </g>
    </g>
   </g>
   <g id="matplotlib.axis_2">
    <g id="ytick_1">
     <g id="line2d_13">
      <path d="M 56.895313 316.828923 
L 414.015313 316.828923 
" clip-path="url(#p4e36055f59)" style="fill: none; stroke: #b0b0b0; stroke-width: 0.8; stroke-linecap: square"/>
     </g>
     <g id="line2d_14">
      <defs>
       <path id="m1ea9a1b712" d="M 0 0 
L -3.5 0 
" style="stroke: #000000; stroke-width: 0.8"/>
      </defs>
      <g>
       <use xlink:href="#m1ea9a1b712" x="56.895313" y="316.828923" style="stroke: #000000; stroke-width: 0.8"/>
      </g>
     </g>
     <g id="text_7">
      <!-- 0.00 -->
      <g transform="translate(18.723438 322.147829) scale(0.14 -0.14)">
       <defs>
        <path id="DejaVuSans-2e" d="M 684 794 
L 1344 794 
L 1344 0 
L 684 0 
L 684 794 
z
" transform="scale(0.015625)"/>
       </defs>
       <use xlink:href="#DejaVuSans-30"/>
       <use xlink:href="#DejaVuSans-2e" x="63.623047"/>
       <use xlink:href="#DejaVuSans-30" x="95.410156"/>
       <use xlink:href="#DejaVuSans-30" x="159.033203"/>
      </g>
     </g>
    </g>
    <g id="ytick_2">
     <g id="line2d_15">
      <path d="M 56.895313 265.653538 
L 414.015313 265.653538 
" clip-path="url(#p4e36055f59)" style="fill: none; stroke: #b0b0b0; stroke-width: 0.8; stroke-linecap: square"/>
     </g>
     <g id="line2d_16">
      <g>
       <use xlink:href="#m1ea9a1b712" x="56.895313" y="265.653538" style="stroke: #000000; stroke-width: 0.8"/>
      </g>
     </g>
     <g id="text_8">
      <!-- 0.05 -->
      <g transform="translate(18.723438 270.972445) scale(0.14 -0.14)">
       <use xlink:href="#DejaVuSans-30"/>
       <use xlink:href="#DejaVuSans-2e" x="63.623047"/>
       <use xlink:href="#DejaVuSans-30" x="95.410156"/>
       <use xlink:href="#DejaVuSans-35" x="159.033203"/>
      </g>
     </g>
    </g>
    <g id="ytick_3">
     <g id="line2d_17">
      <path d="M 56.895313 214.478154 
L 414.015313 214.478154 
" clip-path="url(#p4e36055f59)" style="fill: none; stroke: #b0b0b0; stroke-width: 0.8; stroke-linecap: square"/>
     </g>
     <g id="line2d_18">
      <g>
       <use xlink:href="#m1ea9a1b712" x="56.895313" y="214.478154" style="stroke: #000000; stroke-width: 0.8"/>
      </g>
     </g>
     <g id="text_9">
      <!-- 0.10 -->
      <g transform="translate(18.723438 219.79706) scale(0.14 -0.14)">
       <use xlink:href="#DejaVuSans-30"/>
       <use xlink:href="#DejaVuSans-2e" x="63.623047"/>
       <use xlink:href="#DejaVuSans-31" x="95.410156"/>
       <use xlink:href="#DejaVuSans-30" x="159.033203"/>
      </g>
     </g>
    </g>
    <g id="ytick_4">
     <g id="line2d_19">
      <path d="M 56.895313 163.302769 
L 414.015313 163.302769 
" clip-path="url(#p4e36055f59)" style="fill: none; stroke: #b0b0b0; stroke-width: 0.8; stroke-linecap: square"/>
     </g>
     <g id="line2d_20">
      <g>
       <use xlink:href="#m1ea9a1b712" x="56.895313" y="163.302769" style="stroke: #000000; stroke-width: 0.8"/>
      </g>
     </g>
     <g id="text_10">
      <!-- 0.15 -->
      <g transform="translate(18.723438 168.621675) scale(0.14 -0.14)">
       <use xlink:href="#DejaVuSans-30"/>
       <use xlink:href="#DejaVuSans-2e" x="63.623047"/>
       <use xlink:href="#DejaVuSans-31" x="95.410156"/>
       <use xlink:href="#DejaVuSans-35" x="159.033203"/>
      </g>
     </g>
    </g>
    <g id="ytick_5">
     <g id="line2d_21">
      <path d="M 56.895313 112.127385 
L 414.015313 112.127385 
" clip-path="url(#p4e36055f59)" style="fill: none; stroke: #b0b0b0; stroke-width: 0.8; stroke-linecap: square"/>
     </g>
     <g id="line2d_22">
      <g>
       <use xlink:href="#m1ea9a1b712" x="56.895313" y="112.127385" style="stroke: #000000; stroke-width: 0.8"/>
      </g>
     </g>
     <g id="text_11">
      <!-- 0.20 -->
      <g transform="translate(18.723438 117.446291) scale(0.14 -0.14)">
       <use xlink:href="#DejaVuSans-30"/>
       <use xlink:href="#DejaVuSans-2e" x="63.623047"/>
       <use xlink:href="#DejaVuSans-32" x="95.410156"/>
       <use xlink:href="#DejaVuSans-30" x="159.033203"/>
      </g>
     </g>
    </g>
    <g id="ytick_6">
     <g id="line2d_23">
      <path d="M 56.895313 60.952 
L 414.015313 60.952 
" clip-path="url(#p4e36055f59)" style="fill: none; stroke: #b0b0b0; stroke-width: 0.8; stroke-linecap: square"/>
     </g>
     <g id="line2d_24">
      <g>
       <use xlink:href="#m1ea9a1b712" x="56.895313" y="60.952" style="stroke: #000000; stroke-width: 0.8"/>
      </g>
     </g>
     <g id="text_12">
      <!-- 0.25 -->
      <g transform="translate(18.723438 66.270906) scale(0.14 -0.14)">
       <use xlink:href="#DejaVuSans-30"/>
       <use xlink:href="#DejaVuSans-2e" x="63.623047"/>
       <use xlink:href="#DejaVuSans-32" x="95.410156"/>
       <use xlink:href="#DejaVuSans-35" x="159.033203"/>
      </g>
     </g>
    </g>
   </g>
   <g id="line2d_25">
    <path d="M 73.12804 316.828923 
L 137.538461 316.828923 
L 137.971193 -1 
M 148.447617 -1 
L 149.900057 16.408704 
L 151.851887 37.641608 
L 153.803718 56.810362 
L 156.40616 79.826869 
L 159.008601 99.605662 
L 160.960432 113.164499 
L 162.912263 125.360659 
L 164.864094 136.340929 
L 167.466535 149.533804 
L 169.418366 158.535609 
L 172.020807 169.249813 
L 174.623248 178.78837 
L 177.8763 189.408847 
L 179.828131 195.083522 
L 183.081182 203.666914 
L 185.033013 208.204938 
L 188.286065 215.227713 
L 191.539116 221.489742 
L 194.792168 227.026231 
L 196.743999 230.05705 
L 201.298271 236.484397 
L 207.153764 243.519447 
L 211.708036 248.206635 
L 214.961088 251.267339 
L 218.214139 254.079606 
L 224.069632 258.468075 
L 227.973294 261.036388 
L 232.527566 263.86031 
L 240.9855 268.33982 
L 244.889162 270.164509 
L 254.648317 274.13566 
L 263.106251 277.017845 
L 271.564185 279.523476 
L 276.118457 280.722531 
L 282.62456 282.349359 
L 291.082494 284.280888 
L 298.889818 285.803289 
L 311.251414 287.977878 
L 334.022775 291.140585 
L 352.890474 293.233819 
L 381.517327 295.78029 
L 397.782585 296.961148 
L 397.782585 296.961148 
" clip-path="url(#p4e36055f59)" style="fill: none; stroke: #1f77b4; stroke-width: 2; stroke-linecap: square"/>
    <defs>
     <path id="mca85b967fc" d="M 0 3 
C 0.795609 3 1.55874 2.683901 2.12132 2.12132 
C 2.683901 1.55874 3 0.795609 3 0 
C 3 -0.795609 2.683901 -1.55874 2.12132 -2.12132 
C 1.55874 -2.683901 0.795609 -3 0 -3 
C -0.795609 -3 -1.55874 -2.683901 -2.12132 -2.12132 
C -2.683901 -1.55874 -3 -0.795609 -3 0 
C -3 0.795609 -2.683901 1.55874 -2.12132 2.12132 
C -1.55874 2.683901 -0.795609 3 0 3 
z
" style="stroke: #1f77b4"/>
    </defs>
    <g clip-path="url(#p4e36055f59)">
     <use xlink:href="#mca85b967fc" x="73.12804" y="316.828923" style="fill: #1f77b4; stroke: #1f77b4"/>
     <use xlink:href="#mca85b967fc" x="203.250102" y="238.889207" style="fill: #1f77b4; stroke: #1f77b4"/>
     <use xlink:href="#mca85b967fc" x="333.372164" y="291.073317" style="fill: #1f77b4; stroke: #1f77b4"/>
    </g>
   </g>
   <g id="line2d_26">
    <path d="M 350.288032 327.064 
L 350.288032 60.952 
" clip-path="url(#p4e36055f59)" style="fill: none; stroke-dasharray: 7.4,3.2; stroke-dashoffset: 0; stroke: #1f77b4; stroke-width: 2"/>
    <g clip-path="url(#p4e36055f59)">
     <use xlink:href="#mca85b967fc" x="350.288032" y="327.064" style="fill: #1f77b4; stroke: #1f77b4"/>
     <use xlink:href="#mca85b967fc" x="350.288032" y="60.952" style="fill: #1f77b4; stroke: #1f77b4"/>
    </g>
   </g>
   <g id="line2d_27">
    <path d="M 73.12804 316.828923 
L 137.538461 316.828923 
L 138.189071 126.284676 
L 138.839681 60.877207 
L 139.490292 84.294883 
L 140.140902 103.347823 
L 141.442122 128.369846 
L 142.743343 147.369282 
L 144.044564 163.213664 
L 145.345784 177.163059 
L 146.647005 188.860166 
L 147.297615 193.451389 
L 147.948226 197.057961 
L 148.598836 202.933076 
L 149.249446 207.280281 
L 151.851887 220.68092 
L 153.803718 229.063432 
L 155.755549 236.113541 
L 157.05677 240.392083 
L 158.357991 244.009018 
L 160.309822 249.247623 
L 162.912263 254.885543 
L 164.864094 258.601306 
L 168.117145 264.046848 
L 168.767756 264.858077 
L 170.068976 266.779638 
L 172.020807 269.342891 
L 176.575079 274.277542 
L 179.177521 276.753719 
L 181.129351 278.473468 
L 186.984844 282.537373 
L 189.587286 284.146704 
L 195.442778 287.157346 
L 199.34644 288.931245 
L 206.503154 291.639259 
L 211.708036 293.209207 
L 222.117801 295.93489 
L 224.069632 296.328368 
L 230.575735 297.636065 
L 235.780618 298.52726 
L 239.033669 299.032922 
L 247.491603 300.257322 
L 261.15442 301.836909 
L 268.961744 302.583271 
L 273.516016 302.984602 
L 278.070288 303.38716 
L 287.178832 304.054854 
L 302.142869 305.004583 
L 319.058738 305.859023 
L 334.673385 306.573766 
L 345.73376 306.975074 
L 352.890474 307.209968 
L 397.782585 308.420186 
L 397.782585 308.420186 
" clip-path="url(#p4e36055f59)" style="fill: none; stroke: #ff7f0e; stroke-width: 2; stroke-linecap: square"/>
    <defs>
     <path id="m7f52dd2e5b" d="M 0 -3 
L -3 3 
L 3 3 
z
" style="stroke: #ff7f0e; stroke-linejoin: miter"/>
    </defs>
    <g clip-path="url(#p4e36055f59)">
     <use xlink:href="#m7f52dd2e5b" x="73.12804" y="316.828923" style="fill: #ff7f0e; stroke: #ff7f0e; stroke-linejoin: miter"/>
     <use xlink:href="#m7f52dd2e5b" x="203.250102" y="290.496051" style="fill: #ff7f0e; stroke: #ff7f0e; stroke-linejoin: miter"/>
     <use xlink:href="#m7f52dd2e5b" x="333.372164" y="306.516121" style="fill: #ff7f0e; stroke: #ff7f0e; stroke-linejoin: miter"/>
    </g>
   </g>
   <g id="line2d_28">
    <path d="M 211.057426 327.064 
L 211.057426 60.952 
" clip-path="url(#p4e36055f59)" style="fill: none; stroke-dasharray: 7.4,3.2; stroke-dashoffset: 0; stroke: #ff7f0e; stroke-width: 2"/>
    <g clip-path="url(#p4e36055f59)">
     <use xlink:href="#m7f52dd2e5b" x="211.057426" y="327.064" style="fill: #ff7f0e; stroke: #ff7f0e; stroke-linejoin: miter"/>
     <use xlink:href="#m7f52dd2e5b" x="211.057426" y="60.952" style="fill: #ff7f0e; stroke: #ff7f0e; stroke-linejoin: miter"/>
    </g>
   </g>
   <g id="line2d_29">
    <path d="M 73.12804 316.828923 
L 137.538461 316.828923 
L 138.189071 132.619286 
L 138.839681 110.512336 
L 139.490292 134.168908 
L 140.140902 152.253596 
L 140.791512 164.148341 
L 142.092733 179.101273 
L 143.393953 191.132971 
L 144.695174 201.24092 
L 146.647005 213.897545 
L 148.598836 224.432613 
L 149.249446 227.674683 
L 151.201277 235.310104 
L 153.153108 242.423282 
L 154.454329 246.361253 
L 156.40616 251.34495 
L 158.357991 255.777705 
L 160.309822 259.746348 
L 163.562873 265.33935 
L 164.864094 267.301879 
L 170.068976 273.882151 
L 171.370197 275.201264 
L 172.671417 276.429229 
L 174.623248 278.268835 
L 178.52691 281.42369 
L 179.828131 282.35611 
L 181.129351 283.274448 
L 187.635455 286.792134 
L 189.587286 287.753531 
L 191.539116 288.638613 
L 194.141558 289.730617 
L 200.647661 292.09976 
L 205.201933 293.553239 
L 210.406816 294.987236 
L 213.659867 295.79141 
L 216.912919 296.47391 
L 224.069632 297.947807 
L 231.226345 299.169486 
L 235.130007 299.768097 
L 256.600148 302.356543 
L 263.756861 303.062394 
L 268.961744 303.506169 
L 277.419678 304.103188 
L 302.142869 305.58283 
L 324.26362 306.597649 
L 389.975261 308.619494 
L 397.131975 308.762754 
L 397.782585 308.782232 
L 397.782585 308.782232 
" clip-path="url(#p4e36055f59)" style="fill: none; stroke: #2ca02c; stroke-width: 2; stroke-linecap: square"/>
    <defs>
     <path id="m80ac684a22" d="M -3 3 
L 3 3 
L 3 -3 
L -3 -3 
z
" style="stroke: #2ca02c; stroke-linejoin: miter"/>
    </defs>
    <g clip-path="url(#p4e36055f59)">
     <use xlink:href="#m80ac684a22" x="73.12804" y="316.828923" style="fill: #2ca02c; stroke: #2ca02c; stroke-linejoin: miter"/>
     <use xlink:href="#m80ac684a22" x="203.250102" y="292.969773" style="fill: #2ca02c; stroke: #2ca02c; stroke-linejoin: miter"/>
     <use xlink:href="#m80ac684a22" x="333.372164" y="306.959998" style="fill: #2ca02c; stroke: #2ca02c; stroke-linejoin: miter"/>
    </g>
   </g>
   <g id="line2d_30">
    <path d="M 203.250102 327.064 
L 203.250102 60.952 
" clip-path="url(#p4e36055f59)" style="fill: none; stroke-dasharray: 7.4,3.2; stroke-dashoffset: 0; stroke: #2ca02c; stroke-width: 2"/>
    <g clip-path="url(#p4e36055f59)">
     <use xlink:href="#m80ac684a22" x="203.250102" y="327.064" style="fill: #2ca02c; stroke: #2ca02c; stroke-linejoin: miter"/>
     <use xlink:href="#m80ac684a22" x="203.250102" y="60.952" style="fill: #2ca02c; stroke: #2ca02c; stroke-linejoin: miter"/>
    </g>
   </g>
   <g id="line2d_31">
    <path d="M 73.12804 316.828923 
L 137.538461 316.828923 
L 138.189071 145.258859 
L 138.839681 116.693161 
L 139.490292 141.290124 
L 140.140902 158.826274 
L 140.791512 169.746135 
L 142.092733 183.900661 
L 143.393953 195.736379 
L 145.345784 210.553323 
L 147.297615 222.209967 
L 149.249446 231.618747 
L 150.550667 237.151812 
L 152.502498 243.863428 
L 154.454329 249.690726 
L 155.755549 253.217955 
L 157.70738 257.741789 
L 160.960432 263.966942 
L 163.562873 268.068781 
L 165.514704 270.785193 
L 168.117145 274.115912 
L 170.068976 276.16447 
L 173.322028 279.302826 
L 175.924469 281.496539 
L 178.52691 283.556303 
L 183.081182 286.231888 
L 190.237896 289.933361 
L 194.792168 291.803535 
L 198.04522 292.942671 
L 199.997051 293.549297 
L 202.599492 294.318586 
L 207.153764 295.575732 
L 219.51536 298.336212 
L 224.069632 299.123406 
L 242.286721 301.654619 
L 247.491603 302.174524 
L 256.600148 303.104225 
L 261.15442 303.481258 
L 267.660523 303.996799 
L 294.986156 305.673082 
L 317.757517 306.693119 
L 324.91423 306.958756 
L 344.43254 307.662184 
L 354.842305 307.967468 
L 381.517327 308.604258 
L 397.782585 308.956137 
L 397.782585 308.956137 
" clip-path="url(#p4e36055f59)" style="fill: none; stroke: #d62728; stroke-width: 2; stroke-linecap: square"/>
    <defs>
     <path id="m988e92ad70" d="M -3 3 
L 3 -3 
M -3 -3 
L 3 3 
" style="stroke: #d62728"/>
    </defs>
    <g clip-path="url(#p4e36055f59)">
     <use xlink:href="#m988e92ad70" x="73.12804" y="316.828923" style="fill: #d62728; stroke: #d62728"/>
     <use xlink:href="#m988e92ad70" x="203.250102" y="294.514715" style="fill: #d62728; stroke: #d62728"/>
     <use xlink:href="#m988e92ad70" x="333.372164" y="307.293806" style="fill: #d62728; stroke: #d62728"/>
    </g>
   </g>
   <g id="line2d_32">
    <path d="M 198.04522 327.064 
L 198.04522 60.952 
" clip-path="url(#p4e36055f59)" style="fill: none; stroke-dasharray: 7.4,3.2; stroke-dashoffset: 0; stroke: #d62728; stroke-width: 2"/>
    <g clip-path="url(#p4e36055f59)">
     <use xlink:href="#m988e92ad70" x="198.04522" y="327.064" style="fill: #d62728; stroke: #d62728"/>
     <use xlink:href="#m988e92ad70" x="198.04522" y="60.952" style="fill: #d62728; stroke: #d62728"/>
    </g>
   </g>
   <g id="line2d_33">
    <path d="M 73.12804 316.828923 
L 137.538461 316.828923 
L 138.189071 148.798752 
L 138.839681 108.025543 
L 139.490292 134.206235 
L 140.140902 153.650875 
L 140.791512 166.202168 
L 141.442122 174.534198 
L 142.743343 187.652488 
L 144.044564 198.856285 
L 145.345784 208.756274 
L 146.647005 217.477323 
L 148.598836 227.948513 
L 149.900057 233.793976 
L 151.851887 241.53275 
L 153.803718 247.981977 
L 156.40616 254.975594 
L 159.008601 260.756988 
L 160.960432 264.303878 
L 165.514704 271.167938 
L 168.117145 274.400354 
L 170.068976 276.515902 
L 175.924469 281.667354 
L 181.129351 285.334716 
L 185.683624 287.982382 
L 192.189727 291.01337 
L 196.093389 292.565725 
L 205.201933 295.440027 
L 208.454985 296.159148 
L 218.214139 298.238191 
L 227.973294 299.934784 
L 234.479397 300.8132 
L 239.68428 301.540017 
L 253.347096 303.033573 
L 272.214795 304.597967 
L 288.480053 305.537918 
L 311.902024 306.68182 
L 317.106907 306.848092 
L 337.926437 307.56214 
L 397.782585 309.016616 
L 397.782585 309.016616 
" clip-path="url(#p4e36055f59)" style="fill: none; stroke: #9467bd; stroke-width: 2; stroke-linecap: square"/>
    <defs>
     <path id="m9881de2c5b" d="M -0 3 
L 3 -3 
L -3 -3 
z
" style="stroke: #9467bd; stroke-linejoin: miter"/>
    </defs>
    <g clip-path="url(#p4e36055f59)">
     <use xlink:href="#m9881de2c5b" x="73.12804" y="316.828923" style="fill: #9467bd; stroke: #9467bd; stroke-linejoin: miter"/>
     <use xlink:href="#m9881de2c5b" x="203.250102" y="294.947956" style="fill: #9467bd; stroke: #9467bd; stroke-linejoin: miter"/>
     <use xlink:href="#m9881de2c5b" x="333.372164" y="307.410845" style="fill: #9467bd; stroke: #9467bd; stroke-linejoin: miter"/>
    </g>
   </g>
   <g id="line2d_34">
    <path d="M 197.394609 327.064 
L 197.394609 60.952 
" clip-path="url(#p4e36055f59)" style="fill: none; stroke-dasharray: 7.4,3.2; stroke-dashoffset: 0; stroke: #9467bd; stroke-width: 2"/>
    <g clip-path="url(#p4e36055f59)">
     <use xlink:href="#m9881de2c5b" x="197.394609" y="327.064" style="fill: #9467bd; stroke: #9467bd; stroke-linejoin: miter"/>
     <use xlink:href="#m9881de2c5b" x="197.394609" y="60.952" style="fill: #9467bd; stroke: #9467bd; stroke-linejoin: miter"/>
    </g>
   </g>
   <g id="line2d_35">
    <path d="M 73.12804 316.828923 
L 137.538461 316.828923 
L 138.189071 148.145316 
L 138.839681 101.169536 
L 139.490292 127.153781 
L 140.140902 146.951043 
L 140.791512 158.537407 
L 142.092733 173.252719 
L 143.393953 185.205043 
L 144.044564 189.366933 
L 144.695174 195.762921 
L 145.996395 206.545435 
L 146.647005 208.801147 
L 147.297615 206.047943 
L 147.948226 210.473531 
L 148.598836 157.717969 
L 149.249446 224.49011 
L 149.900057 228.626381 
L 151.201277 232.993219 
L 151.851887 234.761883 
L 152.502498 238.507187 
L 153.153108 221.938733 
L 153.803718 242.475329 
L 154.454329 243.958992 
L 155.104939 247.83642 
L 155.755549 249.572856 
L 156.40616 250.713128 
L 157.05677 251.128881 
L 157.70738 254.012886 
L 158.357991 255.888877 
L 159.008601 257.084146 
L 159.659211 257.220135 
L 160.309822 260.251738 
L 160.960432 260.474961 
L 161.611042 263.060553 
L 162.261652 263.401485 
L 162.912263 265.360513 
L 164.213483 267.017639 
L 164.864094 268.38872 
L 165.514704 269.208925 
L 166.165314 270.320013 
L 169.418366 274.633129 
L 170.068976 274.960378 
L 170.719587 276.098116 
L 171.370197 276.660317 
L 172.020807 277.504266 
L 173.972638 279.173637 
L 174.623248 279.636865 
L 175.273859 280.252453 
L 175.924469 280.538201 
L 176.575079 281.316734 
L 177.22569 281.88562 
L 177.8763 282.24578 
L 179.828131 283.796974 
L 180.478741 284.199368 
L 181.129351 284.451189 
L 181.779962 285.011298 
L 182.430572 285.333029 
L 183.731793 286.187777 
L 185.033013 286.946983 
L 188.286065 288.665505 
L 188.936675 289.099063 
L 190.888506 289.946758 
L 192.189727 290.570746 
L 195.442778 291.946659 
L 197.394609 292.643075 
L 199.997051 293.584714 
L 207.153764 295.59415 
L 209.105595 296.073851 
L 219.51536 298.378567 
L 236.431228 300.943089 
L 239.68428 301.330869 
L 247.491603 302.264195 
L 262.45564 303.675858 
L 267.009913 304.009915 
L 290.431884 305.485453 
L 300.191038 305.990165 
L 317.757517 306.773966 
L 382.818548 308.632781 
L 397.782585 308.931324 
L 397.782585 308.931324 
" clip-path="url(#p4e36055f59)" style="fill: none; stroke: #8c564b; stroke-width: 2; stroke-linecap: square"/>
    <defs>
     <path id="mca90fe1590" d="M -0 4.242641 
L 2.545584 0 
L 0 -4.242641 
L -2.545584 -0 
z
" style="stroke: #8c564b; stroke-linejoin: miter"/>
    </defs>
    <g clip-path="url(#p4e36055f59)">
     <use xlink:href="#mca90fe1590" x="73.12804" y="316.828923" style="fill: #8c564b; stroke: #8c564b; stroke-linejoin: miter"/>
     <use xlink:href="#mca90fe1590" x="203.250102" y="294.532204" style="fill: #8c564b; stroke: #8c564b; stroke-linejoin: miter"/>
     <use xlink:href="#mca90fe1590" x="333.372164" y="307.338097" style="fill: #8c564b; stroke: #8c564b; stroke-linejoin: miter"/>
    </g>
   </g>
   <g id="line2d_36">
    <path d="M 198.69583 327.064 
L 198.69583 60.952 
" clip-path="url(#p4e36055f59)" style="fill: none; stroke-dasharray: 7.4,3.2; stroke-dashoffset: 0; stroke: #8c564b; stroke-width: 2"/>
    <g clip-path="url(#p4e36055f59)">
     <use xlink:href="#mca90fe1590" x="198.69583" y="327.064" style="fill: #8c564b; stroke: #8c564b; stroke-linejoin: miter"/>
     <use xlink:href="#mca90fe1590" x="198.69583" y="60.952" style="fill: #8c564b; stroke: #8c564b; stroke-linejoin: miter"/>
    </g>
   </g>
   <g id="patch_3">
    <path d="M 56.895313 327.064 
L 56.895313 60.952 
" style="fill: none; stroke: #000000; stroke-width: 0.8; stroke-linejoin: miter; stroke-linecap: square"/>
   </g>
   <g id="patch_4">
    <path d="M 414.015313 327.064 
L 414.015313 60.952 
" style="fill: none; stroke: #000000; stroke-width: 0.8; stroke-linejoin: miter; stroke-linecap: square"/>
   </g>
   <g id="patch_5">
    <path d="M 56.895313 327.064 
L 414.015313 327.064 
" style="fill: none; stroke: #000000; stroke-width: 0.8; stroke-linejoin: miter; stroke-linecap: square"/>
   </g>
   <g id="patch_6">
    <path d="M 56.895313 60.952 
L 414.015313 60.952 
" style="fill: none; stroke: #000000; stroke-width: 0.8; stroke-linejoin: miter; stroke-linecap: square"/>
   </g>
   <g id="axes_2">
    <g id="patch_7">
     <path d="M 208.671312 220.6192 
L 405.087313 220.6192 
L 405.087313 74.2576 
L 208.671312 74.2576 
z
" style="fill: #ffffff"/>
    </g>
    <g id="matplotlib.axis_3">
     <g id="xtick_7">
      <g id="line2d_37">
       <path d="M 216.527952 220.6192 
L 216.527952 74.2576 
" clip-path="url(#p9f18b3d017)" style="fill: none; stroke: #b0b0b0; stroke-width: 0.8; stroke-linecap: square"/>
      </g>
      <g id="line2d_38">
       <defs>
        <path id="mb65c3ca393" d="M 0 0 
L 0 3.5 
" style="stroke: #000000; stroke-width: 2"/>
       </defs>
       <g>
        <use xlink:href="#mb65c3ca393" x="216.527952" y="220.6192" style="stroke: #000000; stroke-width: 2"/>
       </g>
      </g>
      <g id="text_13">
       <!-- 190 -->
       <g transform="translate(203.166702 238.257013) scale(0.14 -0.14)">
        <defs>
         <path id="DejaVuSans-39" d="M 703 97 
L 703 672 
Q 941 559 1184 500 
Q 1428 441 1663 441 
Q 2288 441 2617 861 
Q 2947 1281 2994 2138 
Q 2813 1869 2534 1725 
Q 2256 1581 1919 1581 
Q 1219 1581 811 2004 
Q 403 2428 403 3163 
Q 403 3881 828 4315 
Q 1253 4750 1959 4750 
Q 2769 4750 3195 4129 
Q 3622 3509 3622 2328 
Q 3622 1225 3098 567 
Q 2575 -91 1691 -91 
Q 1453 -91 1209 -44 
Q 966 3 703 97 
z
M 1959 2075 
Q 2384 2075 2632 2365 
Q 2881 2656 2881 3163 
Q 2881 3666 2632 3958 
Q 2384 4250 1959 4250 
Q 1534 4250 1286 3958 
Q 1038 3666 1038 3163 
Q 1038 2656 1286 2365 
Q 1534 2075 1959 2075 
z
" transform="scale(0.015625)"/>
        </defs>
        <use xlink:href="#DejaVuSans-31"/>
        <use xlink:href="#DejaVuSans-39" x="63.623047"/>
        <use xlink:href="#DejaVuSans-30" x="127.246094"/>
       </g>
      </g>
     </g>
     <g id="xtick_8">
      <g id="line2d_39">
       <path d="M 295.094352 220.6192 
L 295.094352 74.2576 
" clip-path="url(#p9f18b3d017)" style="fill: none; stroke: #b0b0b0; stroke-width: 0.8; stroke-linecap: square"/>
      </g>
      <g id="line2d_40">
       <g>
        <use xlink:href="#mb65c3ca393" x="295.094352" y="220.6192" style="stroke: #000000; stroke-width: 2"/>
       </g>
      </g>
      <g id="text_14">
       <!-- 200 -->
       <g transform="translate(281.733102 238.257013) scale(0.14 -0.14)">
        <use xlink:href="#DejaVuSans-32"/>
        <use xlink:href="#DejaVuSans-30" x="63.623047"/>
        <use xlink:href="#DejaVuSans-30" x="127.246094"/>
       </g>
      </g>
     </g>
     <g id="xtick_9">
      <g id="line2d_41">
       <path d="M 373.660752 220.6192 
L 373.660752 74.2576 
" clip-path="url(#p9f18b3d017)" style="fill: none; stroke: #b0b0b0; stroke-width: 0.8; stroke-linecap: square"/>
      </g>
      <g id="line2d_42">
       <g>
        <use xlink:href="#mb65c3ca393" x="373.660752" y="220.6192" style="stroke: #000000; stroke-width: 2"/>
       </g>
      </g>
      <g id="text_15">
       <!-- 210 -->
       <g transform="translate(360.299502 238.257013) scale(0.14 -0.14)">
        <use xlink:href="#DejaVuSans-32"/>
        <use xlink:href="#DejaVuSans-31" x="63.623047"/>
        <use xlink:href="#DejaVuSans-30" x="127.246094"/>
       </g>
      </g>
     </g>
    </g>
    <g id="matplotlib.axis_4">
     <g id="ytick_7">
      <g id="line2d_43">
       <path d="M 208.671312 215.286869 
L 405.087313 215.286869 
" clip-path="url(#p9f18b3d017)" style="fill: none; stroke: #b0b0b0; stroke-width: 0.8; stroke-linecap: square"/>
      </g>
      <g id="line2d_44">
       <defs>
        <path id="m91c1cf2868" d="M 0 0 
L -3.5 0 
" style="stroke: #000000; stroke-width: 2"/>
       </defs>
       <g>
        <use xlink:href="#m91c1cf2868" x="208.671312" y="215.286869" style="stroke: #000000; stroke-width: 2"/>
       </g>
      </g>
      <g id="text_16">
       <!-- 0.022 -->
       <g transform="translate(161.591938 220.605775) scale(0.14 -0.14)">
        <use xlink:href="#DejaVuSans-30"/>
        <use xlink:href="#DejaVuSans-2e" x="63.623047"/>
        <use xlink:href="#DejaVuSans-30" x="95.410156"/>
        <use xlink:href="#DejaVuSans-32" x="159.033203"/>
        <use xlink:href="#DejaVuSans-32" x="222.65625"/>
       </g>
      </g>
     </g>
     <g id="ytick_8">
      <g id="line2d_45">
       <path d="M 208.671312 160.785718 
L 405.087313 160.785718 
" clip-path="url(#p9f18b3d017)" style="fill: none; stroke: #b0b0b0; stroke-width: 0.8; stroke-linecap: square"/>
      </g>
      <g id="line2d_46">
       <g>
        <use xlink:href="#m91c1cf2868" x="208.671312" y="160.785718" style="stroke: #000000; stroke-width: 2"/>
       </g>
      </g>
      <g id="text_17">
       <!-- 0.023 -->
       <g transform="translate(161.591938 166.104625) scale(0.14 -0.14)">
        <use xlink:href="#DejaVuSans-30"/>
        <use xlink:href="#DejaVuSans-2e" x="63.623047"/>
        <use xlink:href="#DejaVuSans-30" x="95.410156"/>
        <use xlink:href="#DejaVuSans-32" x="159.033203"/>
        <use xlink:href="#DejaVuSans-33" x="222.65625"/>
       </g>
      </g>
     </g>
     <g id="ytick_9">
      <g id="line2d_47">
       <path d="M 208.671312 106.284568 
L 405.087313 106.284568 
" clip-path="url(#p9f18b3d017)" style="fill: none; stroke: #b0b0b0; stroke-width: 0.8; stroke-linecap: square"/>
      </g>
      <g id="line2d_48">
       <g>
        <use xlink:href="#m91c1cf2868" x="208.671312" y="106.284568" style="stroke: #000000; stroke-width: 2"/>
       </g>
      </g>
      <g id="text_18">
       <!-- 0.024 -->
       <g transform="translate(161.591938 111.603474) scale(0.14 -0.14)">
        <use xlink:href="#DejaVuSans-30"/>
        <use xlink:href="#DejaVuSans-2e" x="63.623047"/>
        <use xlink:href="#DejaVuSans-30" x="95.410156"/>
        <use xlink:href="#DejaVuSans-32" x="159.033203"/>
        <use xlink:href="#DejaVuSans-34" x="222.65625"/>
       </g>
      </g>
     </g>
    </g>
    <g id="line2d_49">
     <path d="M 0 0 
" clip-path="url(#p9f18b3d017)" style="fill: none; stroke: #1f77b4; stroke-width: 1.5; stroke-linecap: square"/>
    </g>
    <g id="line2d_50">
     <path clip-path="url(#p9f18b3d017)" style="fill: none; stroke-dasharray: 5.55,2.4; stroke-dashoffset: 0; stroke: #1f77b4; stroke-width: 1.5"/>
    </g>
    <g id="line2d_51">
     <path d="M 287.502382 -1 
L 295.094352 12.103075 
L 302.950992 24.038977 
L 310.807632 36.845448 
L 318.664272 49.019033 
L 326.520912 61.741037 
L 342.234192 84.08297 
L 350.090833 94.7499 
L 357.947473 106.209673 
L 365.804112 116.283329 
L 373.660752 128.441227 
L 381.517392 137.173236 
L 389.374032 147.038503 
L 412.943953 175.666835 
L 420.800592 186.122659 
L 428.657232 195.317682 
L 436.513872 206.662482 
L 444.370512 215.046325 
L 452.227153 224.923525 
L 460.390625 233.272158 
L 460.390625 233.272158 
" clip-path="url(#p9f18b3d017)" style="fill: none; stroke: #ff7f0e; stroke-width: 1.5; stroke-linecap: square"/>
    </g>
    <g id="line2d_52">
     <path d="M 389.374032 220.6192 
L 389.374032 74.2576 
" clip-path="url(#p9f18b3d017)" style="fill: none; stroke-dasharray: 5.55,2.4; stroke-dashoffset: 0; stroke: #ff7f0e; stroke-width: 1.5"/>
    </g>
    <g id="line2d_53">
     <path d="M 200.79868 -1 
L 200.814672 -0.970405 
L 208.671312 14.91326 
L 224.384592 39.020993 
L 232.241232 50.610273 
L 240.097872 61.839147 
L 247.954512 73.529204 
L 255.811152 86.992491 
L 263.667792 97.499546 
L 271.524432 109.402497 
L 279.381072 120.641724 
L 287.237712 133.327237 
L 295.094352 143.827198 
L 302.950992 154.738063 
L 310.807632 165.121213 
L 318.664272 174.896447 
L 326.520912 185.171356 
L 334.377552 196.449699 
L 342.234192 203.56502 
L 350.090833 213.980914 
L 357.947473 223.556277 
L 365.804112 233.695903 
L 373.660752 242.309255 
L 381.517392 251.255864 
L 389.374032 258.680295 
L 397.230672 267.077361 
L 405.087313 277.153243 
L 412.943953 284.518738 
L 420.800592 294.077665 
L 428.657232 302.499129 
L 436.513872 309.019352 
L 444.370512 315.700242 
L 452.227153 322.944895 
L 460.390625 330.717149 
L 460.390625 330.717149 
" clip-path="url(#p9f18b3d017)" style="fill: none; stroke: #2ca02c; stroke-width: 1.5; stroke-linecap: square"/>
    </g>
    <g id="line2d_54">
     <path d="M 295.094352 220.6192 
L 295.094352 74.2576 
" clip-path="url(#p9f18b3d017)" style="fill: none; stroke-dasharray: 5.55,2.4; stroke-dashoffset: 0; stroke: #2ca02c; stroke-width: 1.5"/>
    </g>
    <g id="line2d_55">
     <path d="M 146.692849 -1 
L 153.674832 12.970324 
L 161.531472 28.324147 
L 169.388112 42.8738 
L 177.244752 56.171208 
L 185.101392 70.065562 
L 192.958032 81.725779 
L 208.671312 108.280319 
L 216.527952 120.045644 
L 224.384592 132.349358 
L 232.241232 142.384038 
L 240.097872 151.682987 
L 247.954512 162.983677 
L 263.667792 186.241656 
L 271.524432 195.764143 
L 287.237712 215.650659 
L 295.094352 226.094433 
L 302.950992 234.110256 
L 310.807632 244.342589 
L 318.664272 254.362848 
L 326.520912 265.214407 
L 334.377552 272.508874 
L 342.234192 282.592916 
L 357.947473 298.520271 
L 365.804112 307.751723 
L 373.660752 316.28599 
L 381.517392 325.312222 
L 389.374032 333.825319 
L 405.087313 349.702778 
L 412.943953 358.481933 
L 420.800592 366.247584 
L 424.948007 369.824 
L 424.948007 369.824 
" clip-path="url(#p9f18b3d017)" style="fill: none; stroke: #d62728; stroke-width: 1.5; stroke-linecap: square"/>
    </g>
    <g id="line2d_56">
     <path d="M 232.241232 220.6192 
L 232.241232 74.2576 
" clip-path="url(#p9f18b3d017)" style="fill: none; stroke-dasharray: 5.55,2.4; stroke-dashoffset: 0; stroke: #d62728; stroke-width: 1.5"/>
    </g>
    <g id="line2d_57">
     <path d="M 139.61088 -1 
L 145.818192 11.709233 
L 153.674832 25.974608 
L 161.531472 39.649946 
L 177.244752 69.11508 
L 185.101392 82.685505 
L 192.958032 95.714055 
L 200.814672 109.901699 
L 208.671312 122.311937 
L 232.241232 155.844628 
L 240.097872 169.931321 
L 247.954512 182.249953 
L 255.811152 192.86382 
L 263.667792 206.155495 
L 271.524432 216.368683 
L 279.381072 227.612988 
L 287.237712 239.507559 
L 295.094352 249.164265 
L 302.950992 257.662211 
L 310.807632 267.170484 
L 318.664272 275.366734 
L 326.520912 282.02123 
L 334.377552 290.479156 
L 357.947473 313.659478 
L 365.804112 321.4199 
L 373.660752 329.728007 
L 381.517392 339.244385 
L 389.374032 346.498547 
L 397.230672 354.911741 
L 405.087313 360.739299 
L 414.547195 369.824 
L 414.547195 369.824 
" clip-path="url(#p9f18b3d017)" style="fill: none; stroke: #9467bd; stroke-width: 1.5; stroke-linecap: square"/>
    </g>
    <g id="line2d_58">
     <path d="M 224.384592 220.6192 
L 224.384592 74.2576 
" clip-path="url(#p9f18b3d017)" style="fill: none; stroke-dasharray: 5.55,2.4; stroke-dashoffset: 0; stroke: #9467bd; stroke-width: 1.5"/>
    </g>
    <g id="line2d_59">
     <path d="M 152.365201 -1 
L 153.674832 2.229859 
L 161.531472 16.08054 
L 169.388112 31.200211 
L 177.244752 45.881554 
L 185.101392 62.038463 
L 192.958032 74.766345 
L 200.814672 89.34703 
L 208.671312 100.007201 
L 216.527952 112.507428 
L 232.241232 140.379341 
L 240.097872 152.492762 
L 247.954512 164.833418 
L 255.811152 176.572428 
L 263.667792 186.846868 
L 271.524432 195.478785 
L 279.381072 205.073028 
L 287.237712 216.153779 
L 295.094352 227.02571 
L 302.950992 236.493822 
L 310.807632 243.934531 
L 318.664272 255.097531 
L 326.520912 264.232401 
L 334.377552 273.767185 
L 350.090833 293.485305 
L 381.517392 324.608216 
L 389.374032 333.641408 
L 397.230672 341.268418 
L 405.087313 350.153308 
L 412.943953 356.570355 
L 420.800592 364.486086 
L 426.263826 369.824 
L 426.263826 369.824 
" clip-path="url(#p9f18b3d017)" style="fill: none; stroke: #8c564b; stroke-width: 1.5; stroke-linecap: square"/>
    </g>
    <g id="line2d_60">
     <path d="M 240.097872 220.6192 
L 240.097872 74.2576 
" clip-path="url(#p9f18b3d017)" style="fill: none; stroke-dasharray: 5.55,2.4; stroke-dashoffset: 0; stroke: #8c564b; stroke-width: 1.5"/>
    </g>
    <g id="patch_8">
     <path d="M 208.671312 220.6192 
L 208.671312 74.2576 
" style="fill: none; stroke: #000000; stroke-width: 2; stroke-linejoin: miter; stroke-linecap: square"/>
    </g>
    <g id="patch_9">
     <path d="M 405.087313 220.6192 
L 405.087313 74.2576 
" style="fill: none; stroke: #000000; stroke-width: 2; stroke-linejoin: miter; stroke-linecap: square"/>
    </g>
    <g id="patch_10">
     <path d="M 208.671312 220.6192 
L 405.087313 220.6192 
" style="fill: none; stroke: #000000; stroke-width: 2; stroke-linejoin: miter; stroke-linecap: square"/>
    </g>
    <g id="patch_11">
     <path d="M 208.671312 74.2576 
L 405.087313 74.2576 
" style="fill: none; stroke: #000000; stroke-width: 2; stroke-linejoin: miter; stroke-linecap: square"/>
    </g>
   </g>
   <g id="legend_1">
    <g id="patch_12">
     <path d="M 9.2 39.579687 
L 450.190625 39.579687 
Q 452.190625 39.579687 452.190625 37.579687 
L 452.190625 9.2 
Q 452.190625 7.2 450.190625 7.2 
L 9.2 7.2 
Q 7.2 7.2 7.2 9.2 
L 7.2 37.579687 
Q 7.2 39.579687 9.2 39.579687 
z
" style="fill: #ffffff; opacity: 0.8; stroke: #cccccc; stroke-linejoin: miter"/>
    </g>
    <g id="line2d_61">
     <path d="M 11.2 15.3 
L 21.2 15.3 
L 31.2 15.3 
" style="fill: none; stroke: #1f77b4; stroke-width: 2; stroke-linecap: square"/>
     <g>
      <use xlink:href="#mca85b967fc" x="21.2" y="15.3" style="fill: #1f77b4; stroke: #1f77b4"/>
     </g>
    </g>
    <g id="text_19">
     <!-- $\kappa$ = 0.02 -->
     <g transform="translate(39.2 18.8) scale(0.1 -0.1)">
      <defs>
       <path id="DejaVuSans-Oblique-3ba" d="M 938 3500 
L 1531 3500 
L 1247 2047 
L 3041 3500 
L 3741 3500 
L 2106 2181 
L 3275 0 
L 2572 0 
L 1628 1806 
L 1122 1403 
L 850 0 
L 256 0 
L 938 3500 
z
" transform="scale(0.015625)"/>
       <path id="DejaVuSans-20" transform="scale(0.015625)"/>
       <path id="DejaVuSans-3d" d="M 678 2906 
L 4684 2906 
L 4684 2381 
L 678 2381 
L 678 2906 
z
M 678 1631 
L 4684 1631 
L 4684 1100 
L 678 1100 
L 678 1631 
z
" transform="scale(0.015625)"/>
      </defs>
      <use xlink:href="#DejaVuSans-Oblique-3ba" transform="translate(0 0.78125)"/>
      <use xlink:href="#DejaVuSans-20" transform="translate(58.935547 0.78125)"/>
      <use xlink:href="#DejaVuSans-3d" transform="translate(90.722656 0.78125)"/>
      <use xlink:href="#DejaVuSans-20" transform="translate(174.511719 0.78125)"/>
      <use xlink:href="#DejaVuSans-30" transform="translate(206.298828 0.78125)"/>
      <use xlink:href="#DejaVuSans-2e" transform="translate(269.921875 0.78125)"/>
      <use xlink:href="#DejaVuSans-30" transform="translate(301.708984 0.78125)"/>
      <use xlink:href="#DejaVuSans-32" transform="translate(365.332031 0.78125)"/>
     </g>
    </g>
    <g id="line2d_62">
     <path d="M 11.2 29.979687 
L 21.2 29.979687 
L 31.2 29.979687 
" style="fill: none; stroke: #ff7f0e; stroke-width: 2; stroke-linecap: square"/>
     <g>
      <use xlink:href="#m7f52dd2e5b" x="21.2" y="29.979687" style="fill: #ff7f0e; stroke: #ff7f0e; stroke-linejoin: miter"/>
     </g>
    </g>
    <g id="text_20">
     <!-- Constant-edge ($\alpha$ = 0.241) -->
     <g transform="translate(39.2 33.479687) scale(0.1 -0.1)">
      <defs>
       <path id="DejaVuSans-43" d="M 4122 4306 
L 4122 3641 
Q 3803 3938 3442 4084 
Q 3081 4231 2675 4231 
Q 1875 4231 1450 3742 
Q 1025 3253 1025 2328 
Q 1025 1406 1450 917 
Q 1875 428 2675 428 
Q 3081 428 3442 575 
Q 3803 722 4122 1019 
L 4122 359 
Q 3791 134 3420 21 
Q 3050 -91 2638 -91 
Q 1578 -91 968 557 
Q 359 1206 359 2328 
Q 359 3453 968 4101 
Q 1578 4750 2638 4750 
Q 3056 4750 3426 4639 
Q 3797 4528 4122 4306 
z
" transform="scale(0.015625)"/>
       <path id="DejaVuSans-6f" d="M 1959 3097 
Q 1497 3097 1228 2736 
Q 959 2375 959 1747 
Q 959 1119 1226 758 
Q 1494 397 1959 397 
Q 2419 397 2687 759 
Q 2956 1122 2956 1747 
Q 2956 2369 2687 2733 
Q 2419 3097 1959 3097 
z
M 1959 3584 
Q 2709 3584 3137 3096 
Q 3566 2609 3566 1747 
Q 3566 888 3137 398 
Q 2709 -91 1959 -91 
Q 1206 -91 779 398 
Q 353 888 353 1747 
Q 353 2609 779 3096 
Q 1206 3584 1959 3584 
z
" transform="scale(0.015625)"/>
       <path id="DejaVuSans-6e" d="M 3513 2113 
L 3513 0 
L 2938 0 
L 2938 2094 
Q 2938 2591 2744 2837 
Q 2550 3084 2163 3084 
Q 1697 3084 1428 2787 
Q 1159 2491 1159 1978 
L 1159 0 
L 581 0 
L 581 3500 
L 1159 3500 
L 1159 2956 
Q 1366 3272 1645 3428 
Q 1925 3584 2291 3584 
Q 2894 3584 3203 3211 
Q 3513 2838 3513 2113 
z
" transform="scale(0.015625)"/>
       <path id="DejaVuSans-73" d="M 2834 3397 
L 2834 2853 
Q 2591 2978 2328 3040 
Q 2066 3103 1784 3103 
Q 1356 3103 1142 2972 
Q 928 2841 928 2578 
Q 928 2378 1081 2264 
Q 1234 2150 1697 2047 
L 1894 2003 
Q 2506 1872 2764 1633 
Q 3022 1394 3022 966 
Q 3022 478 2636 193 
Q 2250 -91 1575 -91 
Q 1294 -91 989 -36 
Q 684 19 347 128 
L 347 722 
Q 666 556 975 473 
Q 1284 391 1588 391 
Q 1994 391 2212 530 
Q 2431 669 2431 922 
Q 2431 1156 2273 1281 
Q 2116 1406 1581 1522 
L 1381 1569 
Q 847 1681 609 1914 
Q 372 2147 372 2553 
Q 372 3047 722 3315 
Q 1072 3584 1716 3584 
Q 2034 3584 2315 3537 
Q 2597 3491 2834 3397 
z
" transform="scale(0.015625)"/>
       <path id="DejaVuSans-74" d="M 1172 4494 
L 1172 3500 
L 2356 3500 
L 2356 3053 
L 1172 3053 
L 1172 1153 
Q 1172 725 1289 603 
Q 1406 481 1766 481 
L 2356 481 
L 2356 0 
L 1766 0 
Q 1100 0 847 248 
Q 594 497 594 1153 
L 594 3053 
L 172 3053 
L 172 3500 
L 594 3500 
L 594 4494 
L 1172 4494 
z
" transform="scale(0.015625)"/>
       <path id="DejaVuSans-61" d="M 2194 1759 
Q 1497 1759 1228 1600 
Q 959 1441 959 1056 
Q 959 750 1161 570 
Q 1363 391 1709 391 
Q 2188 391 2477 730 
Q 2766 1069 2766 1631 
L 2766 1759 
L 2194 1759 
z
M 3341 1997 
L 3341 0 
L 2766 0 
L 2766 531 
Q 2569 213 2275 61 
Q 1981 -91 1556 -91 
Q 1019 -91 701 211 
Q 384 513 384 1019 
Q 384 1609 779 1909 
Q 1175 2209 1959 2209 
L 2766 2209 
L 2766 2266 
Q 2766 2663 2505 2880 
Q 2244 3097 1772 3097 
Q 1472 3097 1187 3025 
Q 903 2953 641 2809 
L 641 3341 
Q 956 3463 1253 3523 
Q 1550 3584 1831 3584 
Q 2591 3584 2966 3190 
Q 3341 2797 3341 1997 
z
" transform="scale(0.015625)"/>
       <path id="DejaVuSans-2d" d="M 313 2009 
L 1997 2009 
L 1997 1497 
L 313 1497 
L 313 2009 
z
" transform="scale(0.015625)"/>
       <path id="DejaVuSans-65" d="M 3597 1894 
L 3597 1613 
L 953 1613 
Q 991 1019 1311 708 
Q 1631 397 2203 397 
Q 2534 397 2845 478 
Q 3156 559 3463 722 
L 3463 178 
Q 3153 47 2828 -22 
Q 2503 -91 2169 -91 
Q 1331 -91 842 396 
Q 353 884 353 1716 
Q 353 2575 817 3079 
Q 1281 3584 2069 3584 
Q 2775 3584 3186 3129 
Q 3597 2675 3597 1894 
z
M 3022 2063 
Q 3016 2534 2758 2815 
Q 2500 3097 2075 3097 
Q 1594 3097 1305 2825 
Q 1016 2553 972 2059 
L 3022 2063 
z
" transform="scale(0.015625)"/>
       <path id="DejaVuSans-64" d="M 2906 2969 
L 2906 4863 
L 3481 4863 
L 3481 0 
L 2906 0 
L 2906 525 
Q 2725 213 2448 61 
Q 2172 -91 1784 -91 
Q 1150 -91 751 415 
Q 353 922 353 1747 
Q 353 2572 751 3078 
Q 1150 3584 1784 3584 
Q 2172 3584 2448 3432 
Q 2725 3281 2906 2969 
z
M 947 1747 
Q 947 1113 1208 752 
Q 1469 391 1925 391 
Q 2381 391 2643 752 
Q 2906 1113 2906 1747 
Q 2906 2381 2643 2742 
Q 2381 3103 1925 3103 
Q 1469 3103 1208 2742 
Q 947 2381 947 1747 
z
" transform="scale(0.015625)"/>
       <path id="DejaVuSans-67" d="M 2906 1791 
Q 2906 2416 2648 2759 
Q 2391 3103 1925 3103 
Q 1463 3103 1205 2759 
Q 947 2416 947 1791 
Q 947 1169 1205 825 
Q 1463 481 1925 481 
Q 2391 481 2648 825 
Q 2906 1169 2906 1791 
z
M 3481 434 
Q 3481 -459 3084 -895 
Q 2688 -1331 1869 -1331 
Q 1566 -1331 1297 -1286 
Q 1028 -1241 775 -1147 
L 775 -588 
Q 1028 -725 1275 -790 
Q 1522 -856 1778 -856 
Q 2344 -856 2625 -561 
Q 2906 -266 2906 331 
L 2906 616 
Q 2728 306 2450 153 
Q 2172 0 1784 0 
Q 1141 0 747 490 
Q 353 981 353 1791 
Q 353 2603 747 3093 
Q 1141 3584 1784 3584 
Q 2172 3584 2450 3431 
Q 2728 3278 2906 2969 
L 2906 3500 
L 3481 3500 
L 3481 434 
z
" transform="scale(0.015625)"/>
       <path id="DejaVuSans-28" d="M 1984 4856 
Q 1566 4138 1362 3434 
Q 1159 2731 1159 2009 
Q 1159 1288 1364 580 
Q 1569 -128 1984 -844 
L 1484 -844 
Q 1016 -109 783 600 
Q 550 1309 550 2009 
Q 550 2706 781 3412 
Q 1013 4119 1484 4856 
L 1984 4856 
z
" transform="scale(0.015625)"/>
       <path id="DejaVuSans-Oblique-3b1" d="M 2619 1628 
L 2622 2350 
Q 2625 3088 2069 3091 
Q 1653 3094 1394 2747 
Q 1069 2319 959 1747 
Q 825 1059 994 731 
Q 1169 397 1547 397 
Q 1966 397 2319 1063 
L 2619 1628 
z
M 2166 3578 
Q 3141 3594 3128 2584 
Q 3128 2584 3616 3500 
L 4128 3500 
L 3119 1603 
L 3109 919 
Q 3109 766 3194 638 
Q 3291 488 3391 488 
L 3669 488 
L 3575 0 
L 3228 0 
Q 2934 0 2722 263 
Q 2622 394 2619 669 
Q 2416 334 2066 50 
Q 1900 -81 1453 -78 
Q 722 -72 456 397 
Q 184 884 353 1747 
Q 534 2675 1009 3097 
Q 1544 3569 2166 3578 
z
" transform="scale(0.015625)"/>
       <path id="DejaVuSans-29" d="M 513 4856 
L 1013 4856 
Q 1481 4119 1714 3412 
Q 1947 2706 1947 2009 
Q 1947 1309 1714 600 
Q 1481 -109 1013 -844 
L 513 -844 
Q 928 -128 1133 580 
Q 1338 1288 1338 2009 
Q 1338 2731 1133 3434 
Q 928 4138 513 4856 
z
" transform="scale(0.015625)"/>
      </defs>
      <use xlink:href="#DejaVuSans-43" transform="translate(0 0.015625)"/>
      <use xlink:href="#DejaVuSans-6f" transform="translate(69.824219 0.015625)"/>
      <use xlink:href="#DejaVuSans-6e" transform="translate(131.005859 0.015625)"/>
      <use xlink:href="#DejaVuSans-73" transform="translate(194.384766 0.015625)"/>
      <use xlink:href="#DejaVuSans-74" transform="translate(246.484375 0.015625)"/>
      <use xlink:href="#DejaVuSans-61" transform="translate(285.693359 0.015625)"/>
      <use xlink:href="#DejaVuSans-6e" transform="translate(346.972656 0.015625)"/>
      <use xlink:href="#DejaVuSans-74" transform="translate(410.351562 0.015625)"/>
      <use xlink:href="#DejaVuSans-2d" transform="translate(449.560547 0.015625)"/>
      <use xlink:href="#DejaVuSans-65" transform="translate(485.644531 0.015625)"/>
      <use xlink:href="#DejaVuSans-64" transform="translate(547.167969 0.015625)"/>
      <use xlink:href="#DejaVuSans-67" transform="translate(610.644531 0.015625)"/>
      <use xlink:href="#DejaVuSans-65" transform="translate(674.121094 0.015625)"/>
      <use xlink:href="#DejaVuSans-20" transform="translate(735.644531 0.015625)"/>
      <use xlink:href="#DejaVuSans-28" transform="translate(767.431641 0.015625)"/>
      <use xlink:href="#DejaVuSans-Oblique-3b1" transform="translate(806.445312 0.015625)"/>
      <use xlink:href="#DejaVuSans-20" transform="translate(872.363281 0.015625)"/>
      <use xlink:href="#DejaVuSans-3d" transform="translate(904.150391 0.015625)"/>
      <use xlink:href="#DejaVuSans-20" transform="translate(987.939453 0.015625)"/>
      <use xlink:href="#DejaVuSans-30" transform="translate(1019.726562 0.015625)"/>
      <use xlink:href="#DejaVuSans-2e" transform="translate(1083.349609 0.015625)"/>
      <use xlink:href="#DejaVuSans-32" transform="translate(1109.636719 0.015625)"/>
      <use xlink:href="#DejaVuSans-34" transform="translate(1173.259766 0.015625)"/>
      <use xlink:href="#DejaVuSans-31" transform="translate(1236.882812 0.015625)"/>
      <use xlink:href="#DejaVuSans-29" transform="translate(1300.505859 0.015625)"/>
     </g>
    </g>
    <g id="line2d_63">
     <path d="M 193.2 15.3 
L 203.2 15.3 
L 213.2 15.3 
" style="fill: none; stroke: #2ca02c; stroke-width: 2; stroke-linecap: square"/>
     <g>
      <use xlink:href="#m80ac684a22" x="203.2" y="15.3" style="fill: #2ca02c; stroke: #2ca02c; stroke-linejoin: miter"/>
     </g>
    </g>
    <g id="text_21">
     <!-- Maximum-degree ($\alpha$ = 0.167) -->
     <g transform="translate(221.2 18.8) scale(0.1 -0.1)">
      <defs>
       <path id="DejaVuSans-4d" d="M 628 4666 
L 1569 4666 
L 2759 1491 
L 3956 4666 
L 4897 4666 
L 4897 0 
L 4281 0 
L 4281 4097 
L 3078 897 
L 2444 897 
L 1241 4097 
L 1241 0 
L 628 0 
L 628 4666 
z
" transform="scale(0.015625)"/>
       <path id="DejaVuSans-78" d="M 3513 3500 
L 2247 1797 
L 3578 0 
L 2900 0 
L 1881 1375 
L 863 0 
L 184 0 
L 1544 1831 
L 300 3500 
L 978 3500 
L 1906 2253 
L 2834 3500 
L 3513 3500 
z
" transform="scale(0.015625)"/>
       <path id="DejaVuSans-69" d="M 603 3500 
L 1178 3500 
L 1178 0 
L 603 0 
L 603 3500 
z
M 603 4863 
L 1178 4863 
L 1178 4134 
L 603 4134 
L 603 4863 
z
" transform="scale(0.015625)"/>
       <path id="DejaVuSans-6d" d="M 3328 2828 
Q 3544 3216 3844 3400 
Q 4144 3584 4550 3584 
Q 5097 3584 5394 3201 
Q 5691 2819 5691 2113 
L 5691 0 
L 5113 0 
L 5113 2094 
Q 5113 2597 4934 2840 
Q 4756 3084 4391 3084 
Q 3944 3084 3684 2787 
Q 3425 2491 3425 1978 
L 3425 0 
L 2847 0 
L 2847 2094 
Q 2847 2600 2669 2842 
Q 2491 3084 2119 3084 
Q 1678 3084 1418 2786 
Q 1159 2488 1159 1978 
L 1159 0 
L 581 0 
L 581 3500 
L 1159 3500 
L 1159 2956 
Q 1356 3278 1631 3431 
Q 1906 3584 2284 3584 
Q 2666 3584 2933 3390 
Q 3200 3197 3328 2828 
z
" transform="scale(0.015625)"/>
       <path id="DejaVuSans-75" d="M 544 1381 
L 544 3500 
L 1119 3500 
L 1119 1403 
Q 1119 906 1312 657 
Q 1506 409 1894 409 
Q 2359 409 2629 706 
Q 2900 1003 2900 1516 
L 2900 3500 
L 3475 3500 
L 3475 0 
L 2900 0 
L 2900 538 
Q 2691 219 2414 64 
Q 2138 -91 1772 -91 
Q 1169 -91 856 284 
Q 544 659 544 1381 
z
M 1991 3584 
L 1991 3584 
z
" transform="scale(0.015625)"/>
       <path id="DejaVuSans-72" d="M 2631 2963 
Q 2534 3019 2420 3045 
Q 2306 3072 2169 3072 
Q 1681 3072 1420 2755 
Q 1159 2438 1159 1844 
L 1159 0 
L 581 0 
L 581 3500 
L 1159 3500 
L 1159 2956 
Q 1341 3275 1631 3429 
Q 1922 3584 2338 3584 
Q 2397 3584 2469 3576 
Q 2541 3569 2628 3553 
L 2631 2963 
z
" transform="scale(0.015625)"/>
       <path id="DejaVuSans-36" d="M 2113 2584 
Q 1688 2584 1439 2293 
Q 1191 2003 1191 1497 
Q 1191 994 1439 701 
Q 1688 409 2113 409 
Q 2538 409 2786 701 
Q 3034 994 3034 1497 
Q 3034 2003 2786 2293 
Q 2538 2584 2113 2584 
z
M 3366 4563 
L 3366 3988 
Q 3128 4100 2886 4159 
Q 2644 4219 2406 4219 
Q 1781 4219 1451 3797 
Q 1122 3375 1075 2522 
Q 1259 2794 1537 2939 
Q 1816 3084 2150 3084 
Q 2853 3084 3261 2657 
Q 3669 2231 3669 1497 
Q 3669 778 3244 343 
Q 2819 -91 2113 -91 
Q 1303 -91 875 529 
Q 447 1150 447 2328 
Q 447 3434 972 4092 
Q 1497 4750 2381 4750 
Q 2619 4750 2861 4703 
Q 3103 4656 3366 4563 
z
" transform="scale(0.015625)"/>
       <path id="DejaVuSans-37" d="M 525 4666 
L 3525 4666 
L 3525 4397 
L 1831 0 
L 1172 0 
L 2766 4134 
L 525 4134 
L 525 4666 
z
" transform="scale(0.015625)"/>
      </defs>
      <use xlink:href="#DejaVuSans-4d" transform="translate(0 0.015625)"/>
      <use xlink:href="#DejaVuSans-61" transform="translate(86.279297 0.015625)"/>
      <use xlink:href="#DejaVuSans-78" transform="translate(147.558594 0.015625)"/>
      <use xlink:href="#DejaVuSans-69" transform="translate(206.738281 0.015625)"/>
      <use xlink:href="#DejaVuSans-6d" transform="translate(234.521484 0.015625)"/>
      <use xlink:href="#DejaVuSans-75" transform="translate(331.933594 0.015625)"/>
      <use xlink:href="#DejaVuSans-6d" transform="translate(395.3125 0.015625)"/>
      <use xlink:href="#DejaVuSans-2d" transform="translate(490.974609 0.015625)"/>
      <use xlink:href="#DejaVuSans-64" transform="translate(527.058594 0.015625)"/>
      <use xlink:href="#DejaVuSans-65" transform="translate(590.535156 0.015625)"/>
      <use xlink:href="#DejaVuSans-67" transform="translate(652.058594 0.015625)"/>
      <use xlink:href="#DejaVuSans-72" transform="translate(715.535156 0.015625)"/>
      <use xlink:href="#DejaVuSans-65" transform="translate(756.648438 0.015625)"/>
      <use xlink:href="#DejaVuSans-65" transform="translate(818.171875 0.015625)"/>
      <use xlink:href="#DejaVuSans-20" transform="translate(879.695312 0.015625)"/>
      <use xlink:href="#DejaVuSans-28" transform="translate(911.482422 0.015625)"/>
      <use xlink:href="#DejaVuSans-Oblique-3b1" transform="translate(950.496094 0.015625)"/>
      <use xlink:href="#DejaVuSans-20" transform="translate(1016.414062 0.015625)"/>
      <use xlink:href="#DejaVuSans-3d" transform="translate(1048.201172 0.015625)"/>
      <use xlink:href="#DejaVuSans-20" transform="translate(1131.990234 0.015625)"/>
      <use xlink:href="#DejaVuSans-30" transform="translate(1163.777344 0.015625)"/>
      <use xlink:href="#DejaVuSans-2e" transform="translate(1227.400391 0.015625)"/>
      <use xlink:href="#DejaVuSans-31" transform="translate(1259.1875 0.015625)"/>
      <use xlink:href="#DejaVuSans-36" transform="translate(1322.810547 0.015625)"/>
      <use xlink:href="#DejaVuSans-37" transform="translate(1386.433594 0.015625)"/>
      <use xlink:href="#DejaVuSans-29" transform="translate(1450.056641 0.015625)"/>
     </g>
    </g>
    <g id="line2d_64">
     <path d="M 193.2 29.998437 
L 203.2 29.998437 
L 213.2 29.998437 
" style="fill: none; stroke: #d62728; stroke-width: 2; stroke-linecap: square"/>
     <g>
      <use xlink:href="#m988e92ad70" x="203.2" y="29.998437" style="fill: #d62728; stroke: #d62728"/>
     </g>
    </g>
    <g id="text_22">
     <!-- Local-degree -->
     <g transform="translate(221.2 33.498437) scale(0.1 -0.1)">
      <defs>
       <path id="DejaVuSans-4c" d="M 628 4666 
L 1259 4666 
L 1259 531 
L 3531 531 
L 3531 0 
L 628 0 
L 628 4666 
z
" transform="scale(0.015625)"/>
       <path id="DejaVuSans-63" d="M 3122 3366 
L 3122 2828 
Q 2878 2963 2633 3030 
Q 2388 3097 2138 3097 
Q 1578 3097 1268 2742 
Q 959 2388 959 1747 
Q 959 1106 1268 751 
Q 1578 397 2138 397 
Q 2388 397 2633 464 
Q 2878 531 3122 666 
L 3122 134 
Q 2881 22 2623 -34 
Q 2366 -91 2075 -91 
Q 1284 -91 818 406 
Q 353 903 353 1747 
Q 353 2603 823 3093 
Q 1294 3584 2113 3584 
Q 2378 3584 2631 3529 
Q 2884 3475 3122 3366 
z
" transform="scale(0.015625)"/>
       <path id="DejaVuSans-6c" d="M 603 4863 
L 1178 4863 
L 1178 0 
L 603 0 
L 603 4863 
z
" transform="scale(0.015625)"/>
      </defs>
      <use xlink:href="#DejaVuSans-4c"/>
      <use xlink:href="#DejaVuSans-6f" x="53.962891"/>
      <use xlink:href="#DejaVuSans-63" x="115.144531"/>
      <use xlink:href="#DejaVuSans-61" x="170.125"/>
      <use xlink:href="#DejaVuSans-6c" x="231.404297"/>
      <use xlink:href="#DejaVuSans-2d" x="259.1875"/>
      <use xlink:href="#DejaVuSans-64" x="295.271484"/>
      <use xlink:href="#DejaVuSans-65" x="358.748047"/>
      <use xlink:href="#DejaVuSans-67" x="420.271484"/>
      <use xlink:href="#DejaVuSans-72" x="483.748047"/>
      <use xlink:href="#DejaVuSans-65" x="522.611328"/>
      <use xlink:href="#DejaVuSans-65" x="584.134766"/>
     </g>
    </g>
    <g id="line2d_65">
     <path d="M 390.2 15.3 
L 400.2 15.3 
L 410.2 15.3 
" style="fill: none; stroke: #9467bd; stroke-width: 2; stroke-linecap: square"/>
     <g>
      <use xlink:href="#m9881de2c5b" x="400.2" y="15.3" style="fill: #9467bd; stroke: #9467bd; stroke-linejoin: miter"/>
     </g>
    </g>
    <g id="text_23">
     <!-- FMMC -->
     <g transform="translate(418.2 18.8) scale(0.1 -0.1)">
      <defs>
       <path id="DejaVuSans-46" d="M 628 4666 
L 3309 4666 
L 3309 4134 
L 1259 4134 
L 1259 2759 
L 3109 2759 
L 3109 2228 
L 1259 2228 
L 1259 0 
L 628 0 
L 628 4666 
z
" transform="scale(0.015625)"/>
      </defs>
      <use xlink:href="#DejaVuSans-46"/>
      <use xlink:href="#DejaVuSans-4d" x="57.519531"/>
      <use xlink:href="#DejaVuSans-4d" x="143.798828"/>
      <use xlink:href="#DejaVuSans-43" x="230.078125"/>
     </g>
    </g>
    <g id="line2d_66">
     <path d="M 390.2 29.978125 
L 400.2 29.978125 
L 410.2 29.978125 
" style="fill: none; stroke: #8c564b; stroke-width: 2; stroke-linecap: square"/>
     <g>
      <use xlink:href="#mca90fe1590" x="400.2" y="29.978125" style="fill: #8c564b; stroke: #8c564b; stroke-linejoin: miter"/>
     </g>
    </g>
    <g id="text_24">
     <!-- FDLA -->
     <g transform="translate(418.2 33.478125) scale(0.1 -0.1)">
      <defs>
       <path id="DejaVuSans-44" d="M 1259 4147 
L 1259 519 
L 2022 519 
Q 2988 519 3436 956 
Q 3884 1394 3884 2338 
Q 3884 3275 3436 3711 
Q 2988 4147 2022 4147 
L 1259 4147 
z
M 628 4666 
L 1925 4666 
Q 3281 4666 3915 4102 
Q 4550 3538 4550 2338 
Q 4550 1131 3912 565 
Q 3275 0 1925 0 
L 628 0 
L 628 4666 
z
" transform="scale(0.015625)"/>
       <path id="DejaVuSans-41" d="M 2188 4044 
L 1331 1722 
L 3047 1722 
L 2188 4044 
z
M 1831 4666 
L 2547 4666 
L 4325 0 
L 3669 0 
L 3244 1197 
L 1141 1197 
L 716 0 
L 50 0 
L 1831 4666 
z
" transform="scale(0.015625)"/>
      </defs>
      <use xlink:href="#DejaVuSans-46"/>
      <use xlink:href="#DejaVuSans-44" x="57.519531"/>
      <use xlink:href="#DejaVuSans-4c" x="134.521484"/>
      <use xlink:href="#DejaVuSans-41" x="192.484375"/>
     </g>
    </g>
   </g>
  </g>
  <g id="patch_13">
   <path d="M 212.358646 291.663286 
Q 210.514979 256.141243 208.671312 220.6192 
" style="fill: none; stroke: #000000; stroke-linecap: round"/>
  </g>
  <g id="text_25">
   <!-- Timesteps -->
   <g transform="translate(198.910625 359.128375) scale(0.12 -0.12)">
    <defs>
     <path id="DejaVuSans-54" d="M -19 4666 
L 3928 4666 
L 3928 4134 
L 2272 4134 
L 2272 0 
L 1638 0 
L 1638 4134 
L -19 4134 
L -19 4666 
z
" transform="scale(0.015625)"/>
     <path id="DejaVuSans-70" d="M 1159 525 
L 1159 -1331 
L 581 -1331 
L 581 3500 
L 1159 3500 
L 1159 2969 
Q 1341 3281 1617 3432 
Q 1894 3584 2278 3584 
Q 2916 3584 3314 3078 
Q 3713 2572 3713 1747 
Q 3713 922 3314 415 
Q 2916 -91 2278 -91 
Q 1894 -91 1617 61 
Q 1341 213 1159 525 
z
M 3116 1747 
Q 3116 2381 2855 2742 
Q 2594 3103 2138 3103 
Q 1681 3103 1420 2742 
Q 1159 2381 1159 1747 
Q 1159 1113 1420 752 
Q 1681 391 2138 391 
Q 2594 391 2855 752 
Q 3116 1113 3116 1747 
z
" transform="scale(0.015625)"/>
    </defs>
    <use xlink:href="#DejaVuSans-54"/>
    <use xlink:href="#DejaVuSans-69" x="57.958984"/>
    <use xlink:href="#DejaVuSans-6d" x="85.742188"/>
    <use xlink:href="#DejaVuSans-65" x="183.154297"/>
    <use xlink:href="#DejaVuSans-73" x="244.677734"/>
    <use xlink:href="#DejaVuSans-74" x="296.777344"/>
    <use xlink:href="#DejaVuSans-65" x="335.986328"/>
    <use xlink:href="#DejaVuSans-70" x="397.509766"/>
    <use xlink:href="#DejaVuSans-73" x="460.986328"/>
   </g>
  </g>
  <g id="text_26">
   <!-- Mean estimate error for the best arm -->
   <g transform="translate(17.629438 303.952188) rotate(-90) scale(0.12 -0.12)">
    <defs>
     <path id="DejaVuSans-66" d="M 2375 4863 
L 2375 4384 
L 1825 4384 
Q 1516 4384 1395 4259 
Q 1275 4134 1275 3809 
L 1275 3500 
L 2222 3500 
L 2222 3053 
L 1275 3053 
L 1275 0 
L 697 0 
L 697 3053 
L 147 3053 
L 147 3500 
L 697 3500 
L 697 3744 
Q 697 4328 969 4595 
Q 1241 4863 1831 4863 
L 2375 4863 
z
" transform="scale(0.015625)"/>
     <path id="DejaVuSans-68" d="M 3513 2113 
L 3513 0 
L 2938 0 
L 2938 2094 
Q 2938 2591 2744 2837 
Q 2550 3084 2163 3084 
Q 1697 3084 1428 2787 
Q 1159 2491 1159 1978 
L 1159 0 
L 581 0 
L 581 4863 
L 1159 4863 
L 1159 2956 
Q 1366 3272 1645 3428 
Q 1925 3584 2291 3584 
Q 2894 3584 3203 3211 
Q 3513 2838 3513 2113 
z
" transform="scale(0.015625)"/>
     <path id="DejaVuSans-62" d="M 3116 1747 
Q 3116 2381 2855 2742 
Q 2594 3103 2138 3103 
Q 1681 3103 1420 2742 
Q 1159 2381 1159 1747 
Q 1159 1113 1420 752 
Q 1681 391 2138 391 
Q 2594 391 2855 752 
Q 3116 1113 3116 1747 
z
M 1159 2969 
Q 1341 3281 1617 3432 
Q 1894 3584 2278 3584 
Q 2916 3584 3314 3078 
Q 3713 2572 3713 1747 
Q 3713 922 3314 415 
Q 2916 -91 2278 -91 
Q 1894 -91 1617 61 
Q 1341 213 1159 525 
L 1159 0 
L 581 0 
L 581 4863 
L 1159 4863 
L 1159 2969 
z
" transform="scale(0.015625)"/>
    </defs>
    <use xlink:href="#DejaVuSans-4d"/>
    <use xlink:href="#DejaVuSans-65" x="86.279297"/>
    <use xlink:href="#DejaVuSans-61" x="147.802734"/>
    <use xlink:href="#DejaVuSans-6e" x="209.082031"/>
    <use xlink:href="#DejaVuSans-20" x="272.460938"/>
    <use xlink:href="#DejaVuSans-65" x="304.248047"/>
    <use xlink:href="#DejaVuSans-73" x="365.771484"/>
    <use xlink:href="#DejaVuSans-74" x="417.871094"/>
    <use xlink:href="#DejaVuSans-69" x="457.080078"/>
    <use xlink:href="#DejaVuSans-6d" x="484.863281"/>
    <use xlink:href="#DejaVuSans-61" x="582.275391"/>
    <use xlink:href="#DejaVuSans-74" x="643.554688"/>
    <use xlink:href="#DejaVuSans-65" x="682.763672"/>
    <use xlink:href="#DejaVuSans-20" x="744.287109"/>
    <use xlink:href="#DejaVuSans-65" x="776.074219"/>
    <use xlink:href="#DejaVuSans-72" x="837.597656"/>
    <use xlink:href="#DejaVuSans-72" x="876.960938"/>
    <use xlink:href="#DejaVuSans-6f" x="915.824219"/>
    <use xlink:href="#DejaVuSans-72" x="977.005859"/>
    <use xlink:href="#DejaVuSans-20" x="1018.119141"/>
    <use xlink:href="#DejaVuSans-66" x="1049.90625"/>
    <use xlink:href="#DejaVuSans-6f" x="1085.111328"/>
    <use xlink:href="#DejaVuSans-72" x="1146.292969"/>
    <use xlink:href="#DejaVuSans-20" x="1187.40625"/>
    <use xlink:href="#DejaVuSans-74" x="1219.193359"/>
    <use xlink:href="#DejaVuSans-68" x="1258.402344"/>
    <use xlink:href="#DejaVuSans-65" x="1321.78125"/>
    <use xlink:href="#DejaVuSans-20" x="1383.304688"/>
    <use xlink:href="#DejaVuSans-62" x="1415.091797"/>
    <use xlink:href="#DejaVuSans-65" x="1478.568359"/>
    <use xlink:href="#DejaVuSans-73" x="1540.091797"/>
    <use xlink:href="#DejaVuSans-74" x="1592.191406"/>
    <use xlink:href="#DejaVuSans-20" x="1631.400391"/>
    <use xlink:href="#DejaVuSans-61" x="1663.1875"/>
    <use xlink:href="#DejaVuSans-72" x="1724.466797"/>
    <use xlink:href="#DejaVuSans-6d" x="1763.830078"/>
   </g>
  </g>
 </g>
 <defs>
  <clipPath id="p4e36055f59">
   <rect x="56.895313" y="60.952" width="357.12" height="266.112"/>
  </clipPath>
  <clipPath id="p9f18b3d017">
   <rect x="208.671312" y="74.2576" width="196.416" height="146.3616"/>
  </clipPath>
 </defs>
</svg>
