<?xml version="1.0" encoding="utf-8" standalone="no"?>
<!DOCTYPE svg PUBLIC "-//W3C//DTD SVG 1.1//EN"
  "http://www.w3.org/Graphics/SVG/1.1/DTD/svg11.dtd">
<svg xmlns:xlink="http://www.w3.org/1999/xlink" width="424.33725pt" height="368.824pt" viewBox="0 0 424.33725 368.824" xmlns="http://www.w3.org/2000/svg" version="1.1">
 <metadata>
  <rdf:RDF xmlns:dc="http://purl.org/dc/elements/1.1/" xmlns:cc="http://creativecommons.org/ns#" xmlns:rdf="http://www.w3.org/1999/02/22-rdf-syntax-ns#">
   <cc:Work>
    <dc:type rdf:resource="http://purl.org/dc/dcmitype/StillImage"/>
    <dc:date>2024-06-06T16:56:19.725824</dc:date>
    <dc:format>image/svg+xml</dc:format>
    <dc:creator>
     <cc:Agent>
      <dc:title>Matplotlib v3.9.0, https://matplotlib.org/</dc:title>
     </cc:Agent>
    </dc:creator>
   </cc:Work>
  </rdf:RDF>
 </metadata>
 <defs>
  <style type="text/css">*{stroke-linejoin: round; stroke-linecap: butt}</style>
 </defs>
 <g id="figure_1">
  <g id="patch_1">
   <path d="M 0 368.824 
L 424.33725 368.824 
L 424.33725 0 
L 0 0 
z
" style="fill: #ffffff"/>
  </g>
  <g id="axes_1">
   <g id="patch_2">
    <path d="M 55.584 327.064 
L 412.704 327.064 
L 412.704 60.952 
L 55.584 60.952 
z
" style="fill: #ffffff"/>
   </g>
   <g id="PolyCollection_1">
    <path d="M 226.011371 304.427028 
L 226.011371 308.652797 
L 332.060852 308.652797 
L 332.060852 304.427028 
L 332.060852 304.427028 
L 226.011371 304.427028 
z
" clip-path="url(#p488fb3e429)" style="fill-opacity: 0.2"/>
   </g>
   <g id="matplotlib.axis_1">
    <g id="xtick_1">
     <g id="line2d_1">
      <path d="M 71.816727 327.064 
L 71.816727 60.952 
" clip-path="url(#p488fb3e429)" style="fill: none; stroke: #b0b0b0; stroke-width: 0.8; stroke-linecap: square"/>
     </g>
     <g id="line2d_2">
      <defs>
       <path id="mc01c0ce0c9" d="M 0 0 
L 0 3.5 
" style="stroke: #000000; stroke-width: 0.8"/>
      </defs>
      <g>
       <use xlink:href="#mc01c0ce0c9" x="71.816727" y="327.064" style="stroke: #000000; stroke-width: 0.8"/>
      </g>
     </g>
     <g id="text_1">
      <!-- 0 -->
      <g transform="translate(67.362977 344.701812) scale(0.14 -0.14)">
       <defs>
        <path id="DejaVuSans-30" d="M 2034 4250 
Q 1547 4250 1301 3770 
Q 1056 3291 1056 2328 
Q 1056 1369 1301 889 
Q 1547 409 2034 409 
Q 2525 409 2770 889 
Q 3016 1369 3016 2328 
Q 3016 3291 2770 3770 
Q 2525 4250 2034 4250 
z
M 2034 4750 
Q 2819 4750 3233 4129 
Q 3647 3509 3647 2328 
Q 3647 1150 3233 529 
Q 2819 -91 2034 -91 
Q 1250 -91 836 529 
Q 422 1150 422 2328 
Q 422 3509 836 4129 
Q 1250 4750 2034 4750 
z
" transform="scale(0.015625)"/>
       </defs>
       <use xlink:href="#DejaVuSans-30"/>
      </g>
     </g>
    </g>
    <g id="xtick_2">
     <g id="line2d_3">
      <path d="M 136.877758 327.064 
L 136.877758 60.952 
" clip-path="url(#p488fb3e429)" style="fill: none; stroke: #b0b0b0; stroke-width: 0.8; stroke-linecap: square"/>
     </g>
     <g id="line2d_4">
      <g>
       <use xlink:href="#mc01c0ce0c9" x="136.877758" y="327.064" style="stroke: #000000; stroke-width: 0.8"/>
      </g>
     </g>
     <g id="text_2">
      <!-- 100 -->
      <g transform="translate(123.516508 344.701812) scale(0.14 -0.14)">
       <defs>
        <path id="DejaVuSans-31" d="M 794 531 
L 1825 531 
L 1825 4091 
L 703 3866 
L 703 4441 
L 1819 4666 
L 2450 4666 
L 2450 531 
L 3481 531 
L 3481 0 
L 794 0 
L 794 531 
z
" transform="scale(0.015625)"/>
       </defs>
       <use xlink:href="#DejaVuSans-31"/>
       <use xlink:href="#DejaVuSans-30" x="63.623047"/>
       <use xlink:href="#DejaVuSans-30" x="127.246094"/>
      </g>
     </g>
    </g>
    <g id="xtick_3">
     <g id="line2d_5">
      <path d="M 201.93879 327.064 
L 201.93879 60.952 
" clip-path="url(#p488fb3e429)" style="fill: none; stroke: #b0b0b0; stroke-width: 0.8; stroke-linecap: square"/>
     </g>
     <g id="line2d_6">
      <g>
       <use xlink:href="#mc01c0ce0c9" x="201.93879" y="327.064" style="stroke: #000000; stroke-width: 0.8"/>
      </g>
     </g>
     <g id="text_3">
      <!-- 200 -->
      <g transform="translate(188.57754 344.701812) scale(0.14 -0.14)">
       <defs>
        <path id="DejaVuSans-32" d="M 1228 531 
L 3431 531 
L 3431 0 
L 469 0 
L 469 531 
Q 828 903 1448 1529 
Q 2069 2156 2228 2338 
Q 2531 2678 2651 2914 
Q 2772 3150 2772 3378 
Q 2772 3750 2511 3984 
Q 2250 4219 1831 4219 
Q 1534 4219 1204 4116 
Q 875 4013 500 3803 
L 500 4441 
Q 881 4594 1212 4672 
Q 1544 4750 1819 4750 
Q 2544 4750 2975 4387 
Q 3406 4025 3406 3419 
Q 3406 3131 3298 2873 
Q 3191 2616 2906 2266 
Q 2828 2175 2409 1742 
Q 1991 1309 1228 531 
z
" transform="scale(0.015625)"/>
       </defs>
       <use xlink:href="#DejaVuSans-32"/>
       <use xlink:href="#DejaVuSans-30" x="63.623047"/>
       <use xlink:href="#DejaVuSans-30" x="127.246094"/>
      </g>
     </g>
    </g>
    <g id="xtick_4">
     <g id="line2d_7">
      <path d="M 266.999821 327.064 
L 266.999821 60.952 
" clip-path="url(#p488fb3e429)" style="fill: none; stroke: #b0b0b0; stroke-width: 0.8; stroke-linecap: square"/>
     </g>
     <g id="line2d_8">
      <g>
       <use xlink:href="#mc01c0ce0c9" x="266.999821" y="327.064" style="stroke: #000000; stroke-width: 0.8"/>
      </g>
     </g>
     <g id="text_4">
      <!-- 300 -->
      <g transform="translate(253.638571 344.701812) scale(0.14 -0.14)">
       <defs>
        <path id="DejaVuSans-33" d="M 2597 2516 
Q 3050 2419 3304 2112 
Q 3559 1806 3559 1356 
Q 3559 666 3084 287 
Q 2609 -91 1734 -91 
Q 1441 -91 1130 -33 
Q 819 25 488 141 
L 488 750 
Q 750 597 1062 519 
Q 1375 441 1716 441 
Q 2309 441 2620 675 
Q 2931 909 2931 1356 
Q 2931 1769 2642 2001 
Q 2353 2234 1838 2234 
L 1294 2234 
L 1294 2753 
L 1863 2753 
Q 2328 2753 2575 2939 
Q 2822 3125 2822 3475 
Q 2822 3834 2567 4026 
Q 2313 4219 1838 4219 
Q 1578 4219 1281 4162 
Q 984 4106 628 3988 
L 628 4550 
Q 988 4650 1302 4700 
Q 1616 4750 1894 4750 
Q 2613 4750 3031 4423 
Q 3450 4097 3450 3541 
Q 3450 3153 3228 2886 
Q 3006 2619 2597 2516 
z
" transform="scale(0.015625)"/>
       </defs>
       <use xlink:href="#DejaVuSans-33"/>
       <use xlink:href="#DejaVuSans-30" x="63.623047"/>
       <use xlink:href="#DejaVuSans-30" x="127.246094"/>
      </g>
     </g>
    </g>
    <g id="xtick_5">
     <g id="line2d_9">
      <path d="M 332.060852 327.064 
L 332.060852 60.952 
" clip-path="url(#p488fb3e429)" style="fill: none; stroke: #b0b0b0; stroke-width: 0.8; stroke-linecap: square"/>
     </g>
     <g id="line2d_10">
      <g>
       <use xlink:href="#mc01c0ce0c9" x="332.060852" y="327.064" style="stroke: #000000; stroke-width: 0.8"/>
      </g>
     </g>
     <g id="text_5">
      <!-- 400 -->
      <g transform="translate(318.699602 344.701812) scale(0.14 -0.14)">
       <defs>
        <path id="DejaVuSans-34" d="M 2419 4116 
L 825 1625 
L 2419 1625 
L 2419 4116 
z
M 2253 4666 
L 3047 4666 
L 3047 1625 
L 3713 1625 
L 3713 1100 
L 3047 1100 
L 3047 0 
L 2419 0 
L 2419 1100 
L 313 1100 
L 313 1709 
L 2253 4666 
z
" transform="scale(0.015625)"/>
       </defs>
       <use xlink:href="#DejaVuSans-34"/>
       <use xlink:href="#DejaVuSans-30" x="63.623047"/>
       <use xlink:href="#DejaVuSans-30" x="127.246094"/>
      </g>
     </g>
    </g>
    <g id="xtick_6">
     <g id="line2d_11">
      <path d="M 397.121883 327.064 
L 397.121883 60.952 
" clip-path="url(#p488fb3e429)" style="fill: none; stroke: #b0b0b0; stroke-width: 0.8; stroke-linecap: square"/>
     </g>
     <g id="line2d_12">
      <g>
       <use xlink:href="#mc01c0ce0c9" x="397.121883" y="327.064" style="stroke: #000000; stroke-width: 0.8"/>
      </g>
     </g>
     <g id="text_6">
      <!-- 500 -->
      <g transform="translate(383.760633 344.701812) scale(0.14 -0.14)">
       <defs>
        <path id="DejaVuSans-35" d="M 691 4666 
L 3169 4666 
L 3169 4134 
L 1269 4134 
L 1269 2991 
Q 1406 3038 1543 3061 
Q 1681 3084 1819 3084 
Q 2600 3084 3056 2656 
Q 3513 2228 3513 1497 
Q 3513 744 3044 326 
Q 2575 -91 1722 -91 
Q 1428 -91 1123 -41 
Q 819 9 494 109 
L 494 744 
Q 775 591 1075 516 
Q 1375 441 1709 441 
Q 2250 441 2565 725 
Q 2881 1009 2881 1497 
Q 2881 1984 2565 2268 
Q 2250 2553 1709 2553 
Q 1456 2553 1204 2497 
Q 953 2441 691 2322 
L 691 4666 
z
" transform="scale(0.015625)"/>
       </defs>
       <use xlink:href="#DejaVuSans-35"/>
       <use xlink:href="#DejaVuSans-30" x="63.623047"/>
       <use xlink:href="#DejaVuSans-30" x="127.246094"/>
      </g>
     </g>
    </g>
   </g>
   <g id="matplotlib.axis_2">
    <g id="ytick_1">
     <g id="line2d_13">
      <path d="M 55.584 314.968 
L 412.704 314.968 
" clip-path="url(#p488fb3e429)" style="fill: none; stroke: #b0b0b0; stroke-width: 0.8; stroke-linecap: square"/>
     </g>
     <g id="line2d_14">
      <defs>
       <path id="mbdbe1074ae" d="M 0 0 
L -3.5 0 
" style="stroke: #000000; stroke-width: 0.8"/>
      </defs>
      <g>
       <use xlink:href="#mbdbe1074ae" x="55.584" y="314.968" style="stroke: #000000; stroke-width: 0.8"/>
      </g>
     </g>
     <g id="text_7">
      <!-- 0.0 -->
      <g transform="translate(26.319625 320.286906) scale(0.14 -0.14)">
       <defs>
        <path id="DejaVuSans-2e" d="M 684 794 
L 1344 794 
L 1344 0 
L 684 0 
L 684 794 
z
" transform="scale(0.015625)"/>
       </defs>
       <use xlink:href="#DejaVuSans-30"/>
       <use xlink:href="#DejaVuSans-2e" x="63.623047"/>
       <use xlink:href="#DejaVuSans-30" x="95.410156"/>
      </g>
     </g>
    </g>
    <g id="ytick_2">
     <g id="line2d_15">
      <path d="M 55.584 272.842528 
L 412.704 272.842528 
" clip-path="url(#p488fb3e429)" style="fill: none; stroke: #b0b0b0; stroke-width: 0.8; stroke-linecap: square"/>
     </g>
     <g id="line2d_16">
      <g>
       <use xlink:href="#mbdbe1074ae" x="55.584" y="272.842528" style="stroke: #000000; stroke-width: 0.8"/>
      </g>
     </g>
     <g id="text_8">
      <!-- 0.1 -->
      <g transform="translate(26.319625 278.161434) scale(0.14 -0.14)">
       <use xlink:href="#DejaVuSans-30"/>
       <use xlink:href="#DejaVuSans-2e" x="63.623047"/>
       <use xlink:href="#DejaVuSans-31" x="95.410156"/>
      </g>
     </g>
    </g>
    <g id="ytick_3">
     <g id="line2d_17">
      <path d="M 55.584 230.717055 
L 412.704 230.717055 
" clip-path="url(#p488fb3e429)" style="fill: none; stroke: #b0b0b0; stroke-width: 0.8; stroke-linecap: square"/>
     </g>
     <g id="line2d_18">
      <g>
       <use xlink:href="#mbdbe1074ae" x="55.584" y="230.717055" style="stroke: #000000; stroke-width: 0.8"/>
      </g>
     </g>
     <g id="text_9">
      <!-- 0.2 -->
      <g transform="translate(26.319625 236.035961) scale(0.14 -0.14)">
       <use xlink:href="#DejaVuSans-30"/>
       <use xlink:href="#DejaVuSans-2e" x="63.623047"/>
       <use xlink:href="#DejaVuSans-32" x="95.410156"/>
      </g>
     </g>
    </g>
    <g id="ytick_4">
     <g id="line2d_19">
      <path d="M 55.584 188.591583 
L 412.704 188.591583 
" clip-path="url(#p488fb3e429)" style="fill: none; stroke: #b0b0b0; stroke-width: 0.8; stroke-linecap: square"/>
     </g>
     <g id="line2d_20">
      <g>
       <use xlink:href="#mbdbe1074ae" x="55.584" y="188.591583" style="stroke: #000000; stroke-width: 0.8"/>
      </g>
     </g>
     <g id="text_10">
      <!-- 0.3 -->
      <g transform="translate(26.319625 193.910489) scale(0.14 -0.14)">
       <use xlink:href="#DejaVuSans-30"/>
       <use xlink:href="#DejaVuSans-2e" x="63.623047"/>
       <use xlink:href="#DejaVuSans-33" x="95.410156"/>
      </g>
     </g>
    </g>
    <g id="ytick_5">
     <g id="line2d_21">
      <path d="M 55.584 146.46611 
L 412.704 146.46611 
" clip-path="url(#p488fb3e429)" style="fill: none; stroke: #b0b0b0; stroke-width: 0.8; stroke-linecap: square"/>
     </g>
     <g id="line2d_22">
      <g>
       <use xlink:href="#mbdbe1074ae" x="55.584" y="146.46611" style="stroke: #000000; stroke-width: 0.8"/>
      </g>
     </g>
     <g id="text_11">
      <!-- 0.4 -->
      <g transform="translate(26.319625 151.785016) scale(0.14 -0.14)">
       <use xlink:href="#DejaVuSans-30"/>
       <use xlink:href="#DejaVuSans-2e" x="63.623047"/>
       <use xlink:href="#DejaVuSans-34" x="95.410156"/>
      </g>
     </g>
    </g>
    <g id="ytick_6">
     <g id="line2d_23">
      <path d="M 55.584 104.340638 
L 412.704 104.340638 
" clip-path="url(#p488fb3e429)" style="fill: none; stroke: #b0b0b0; stroke-width: 0.8; stroke-linecap: square"/>
     </g>
     <g id="line2d_24">
      <g>
       <use xlink:href="#mbdbe1074ae" x="55.584" y="104.340638" style="stroke: #000000; stroke-width: 0.8"/>
      </g>
     </g>
     <g id="text_12">
      <!-- 0.5 -->
      <g transform="translate(26.319625 109.659544) scale(0.14 -0.14)">
       <use xlink:href="#DejaVuSans-30"/>
       <use xlink:href="#DejaVuSans-2e" x="63.623047"/>
       <use xlink:href="#DejaVuSans-35" x="95.410156"/>
      </g>
     </g>
    </g>
    <g id="ytick_7">
     <g id="line2d_25">
      <path d="M 55.584 62.215165 
L 412.704 62.215165 
" clip-path="url(#p488fb3e429)" style="fill: none; stroke: #b0b0b0; stroke-width: 0.8; stroke-linecap: square"/>
     </g>
     <g id="line2d_26">
      <g>
       <use xlink:href="#mbdbe1074ae" x="55.584" y="62.215165" style="stroke: #000000; stroke-width: 0.8"/>
      </g>
     </g>
     <g id="text_13">
      <!-- 0.6 -->
      <g transform="translate(26.319625 67.534071) scale(0.14 -0.14)">
       <defs>
        <path id="DejaVuSans-36" d="M 2113 2584 
Q 1688 2584 1439 2293 
Q 1191 2003 1191 1497 
Q 1191 994 1439 701 
Q 1688 409 2113 409 
Q 2538 409 2786 701 
Q 3034 994 3034 1497 
Q 3034 2003 2786 2293 
Q 2538 2584 2113 2584 
z
M 3366 4563 
L 3366 3988 
Q 3128 4100 2886 4159 
Q 2644 4219 2406 4219 
Q 1781 4219 1451 3797 
Q 1122 3375 1075 2522 
Q 1259 2794 1537 2939 
Q 1816 3084 2150 3084 
Q 2853 3084 3261 2657 
Q 3669 2231 3669 1497 
Q 3669 778 3244 343 
Q 2819 -91 2113 -91 
Q 1303 -91 875 529 
Q 447 1150 447 2328 
Q 447 3434 972 4092 
Q 1497 4750 2381 4750 
Q 2619 4750 2861 4703 
Q 3103 4656 3366 4563 
z
" transform="scale(0.015625)"/>
       </defs>
       <use xlink:href="#DejaVuSans-30"/>
       <use xlink:href="#DejaVuSans-2e" x="63.623047"/>
       <use xlink:href="#DejaVuSans-36" x="95.410156"/>
      </g>
     </g>
    </g>
   </g>
   <g id="line2d_27">
    <path d="M 71.816727 314.968 
L 103.696633 314.968 
L 104.347243 73.048 
L 104.997853 97.059719 
L 105.648463 105.200866 
L 109.552125 141.758888 
L 111.503956 158.1212 
L 113.455787 172.361153 
L 115.407618 184.644852 
L 117.359449 195.541271 
L 119.31128 205.05909 
L 121.263111 213.558654 
L 123.214942 220.903977 
L 125.817383 229.464788 
L 128.419824 236.830343 
L 131.022266 243.056567 
L 133.624707 248.511874 
L 136.227148 253.253303 
L 138.829589 257.370105 
L 142.082641 261.784269 
L 144.034472 264.212236 
L 147.287523 267.782752 
L 149.889965 270.261319 
L 152.492406 272.505406 
L 155.745457 275.037206 
L 158.998509 277.291529 
L 164.203392 280.33184 
L 168.107053 282.285364 
L 172.661326 284.315902 
L 176.564987 285.849359 
L 180.468649 287.218994 
L 187.625363 289.384055 
L 197.384517 291.771593 
L 203.24001 292.976672 
L 218.204047 295.475332 
L 233.168085 297.367664 
L 239.674188 298.047687 
L 250.734563 299.071654 
L 259.843107 299.792682 
L 270.252872 300.512056 
L 280.012027 301.09308 
L 299.530336 302.109655 
L 314.494373 302.726686 
L 348.97672 303.882039 
L 366.543198 304.329632 
L 396.471273 304.953596 
L 396.471273 304.953596 
" clip-path="url(#p488fb3e429)" style="fill: none; stroke: #1f77b4; stroke-width: 2; stroke-linecap: square"/>
    <defs>
     <path id="mab99fcdc90" d="M 0 3 
C 0.795609 3 1.55874 2.683901 2.12132 2.12132 
C 2.683901 1.55874 3 0.795609 3 0 
C 3 -0.795609 2.683901 -1.55874 2.12132 -2.12132 
C 1.55874 -2.683901 0.795609 -3 0 -3 
C -0.795609 -3 -1.55874 -2.683901 -2.12132 -2.12132 
C -2.683901 -1.55874 -3 -0.795609 -3 0 
C -3 0.795609 -2.683901 1.55874 -2.12132 2.12132 
C -1.55874 2.683901 -0.795609 3 0 3 
z
" style="stroke: #1f77b4"/>
    </defs>
    <g clip-path="url(#p488fb3e429)">
     <use xlink:href="#mab99fcdc90" x="71.816727" y="314.968" style="fill: #1f77b4; stroke: #1f77b4"/>
     <use xlink:href="#mab99fcdc90" x="201.93879" y="292.721789" style="fill: #1f77b4; stroke: #1f77b4"/>
     <use xlink:href="#mab99fcdc90" x="332.060852" y="303.367415" style="fill: #1f77b4; stroke: #1f77b4"/>
    </g>
   </g>
   <g id="line2d_28">
    <path d="M 396.471273 327.064 
L 396.471273 60.952 
" clip-path="url(#p488fb3e429)" style="fill: none; stroke-dasharray: 7.4,3.2; stroke-dashoffset: 0; stroke: #1f77b4; stroke-width: 2"/>
    <g clip-path="url(#p488fb3e429)">
     <use xlink:href="#mab99fcdc90" x="396.471273" y="327.064" style="fill: #1f77b4; stroke: #1f77b4"/>
     <use xlink:href="#mab99fcdc90" x="396.471273" y="60.952" style="fill: #1f77b4; stroke: #1f77b4"/>
    </g>
   </g>
   <g id="line2d_29">
    <path d="M 71.816727 314.968 
L 103.696633 314.968 
L 104.347243 216.962661 
L 104.997853 199.951182 
L 105.648463 212.103669 
L 106.299074 221.277694 
L 106.949684 228.551735 
L 107.600294 234.097262 
L 108.250905 237.09116 
L 108.901515 243.85888 
L 110.202736 251.35674 
L 112.154567 260.009542 
L 114.106398 266.757721 
L 115.407618 270.235472 
L 118.010059 275.913262 
L 120.612501 280.334808 
L 123.865552 284.439326 
L 125.166773 285.920416 
L 127.118604 287.866205 
L 129.070435 289.502662 
L 131.022266 290.980892 
L 134.275317 293.050284 
L 136.877758 294.465239 
L 141.432031 296.479076 
L 146.636913 298.266944 
L 149.889965 299.228356 
L 156.396068 300.818593 
L 167.456443 302.848214 
L 175.263767 303.896091 
L 191.529025 305.47674 
L 199.336348 306.032844 
L 233.168085 307.562895 
L 261.794938 308.288405 
L 294.325454 308.838113 
L 378.904794 309.562465 
L 396.471273 309.636963 
L 396.471273 309.636963 
" clip-path="url(#p488fb3e429)" style="fill: none; stroke: #ff7f0e; stroke-width: 2; stroke-linecap: square"/>
    <defs>
     <path id="m95e97882b3" d="M 0 -3 
L -3 3 
L 3 3 
z
" style="stroke: #ff7f0e; stroke-linejoin: miter"/>
    </defs>
    <g clip-path="url(#p488fb3e429)">
     <use xlink:href="#m95e97882b3" x="71.816727" y="314.968" style="fill: #ff7f0e; stroke: #ff7f0e; stroke-linejoin: miter"/>
     <use xlink:href="#m95e97882b3" x="201.93879" y="306.197543" style="fill: #ff7f0e; stroke: #ff7f0e; stroke-linejoin: miter"/>
     <use xlink:href="#m95e97882b3" x="332.060852" y="309.255802" style="fill: #ff7f0e; stroke: #ff7f0e; stroke-linejoin: miter"/>
    </g>
   </g>
   <g id="line2d_30">
    <path d="M 253.987615 327.064 
L 253.987615 60.952 
" clip-path="url(#p488fb3e429)" style="fill: none; stroke-dasharray: 7.4,3.2; stroke-dashoffset: 0; stroke: #ff7f0e; stroke-width: 2"/>
    <g clip-path="url(#p488fb3e429)">
     <use xlink:href="#m95e97882b3" x="253.987615" y="327.064" style="fill: #ff7f0e; stroke: #ff7f0e; stroke-linejoin: miter"/>
     <use xlink:href="#m95e97882b3" x="253.987615" y="60.952" style="fill: #ff7f0e; stroke: #ff7f0e; stroke-linejoin: miter"/>
    </g>
   </g>
   <g id="line2d_31">
    <path d="M 71.816727 314.968 
L 103.696633 314.968 
L 104.347243 228.074462 
L 104.997853 223.964527 
L 105.648463 235.20337 
L 106.299074 243.466206 
L 106.949684 249.285395 
L 107.600294 253.630029 
L 108.901515 260.400156 
L 110.202736 265.765687 
L 112.154567 272.074397 
L 113.455787 275.425966 
L 114.757008 278.237588 
L 116.708839 281.692977 
L 118.66067 284.611652 
L 121.263111 287.706177 
L 122.564332 289.039745 
L 124.516163 290.710385 
L 130.371655 294.467815 
L 132.974097 295.757243 
L 138.178979 297.884602 
L 141.432031 298.981363 
L 147.287523 300.497587 
L 153.143016 301.738378 
L 160.95034 303.054925 
L 170.058884 304.22479 
L 183.721701 305.482263 
L 190.878414 305.991828 
L 218.854658 307.421605 
L 233.818695 307.913532 
L 247.481511 308.261132 
L 297.578505 309.150938 
L 396.471273 309.873272 
L 396.471273 309.873272 
" clip-path="url(#p488fb3e429)" style="fill: none; stroke: #2ca02c; stroke-width: 2; stroke-linecap: square"/>
    <defs>
     <path id="m5465cf3df0" d="M -3 3 
L 3 3 
L 3 -3 
L -3 -3 
z
" style="stroke: #2ca02c; stroke-linejoin: miter"/>
    </defs>
    <g clip-path="url(#p488fb3e429)">
     <use xlink:href="#m5465cf3df0" x="71.816727" y="314.968" style="fill: #2ca02c; stroke: #2ca02c; stroke-linejoin: miter"/>
     <use xlink:href="#m5465cf3df0" x="201.93879" y="306.631616" style="fill: #2ca02c; stroke: #2ca02c; stroke-linejoin: miter"/>
     <use xlink:href="#m5465cf3df0" x="332.060852" y="309.489678" style="fill: #2ca02c; stroke: #2ca02c; stroke-linejoin: miter"/>
    </g>
   </g>
   <g id="line2d_32">
    <path d="M 240.975408 327.064 
L 240.975408 60.952 
" clip-path="url(#p488fb3e429)" style="fill: none; stroke-dasharray: 7.4,3.2; stroke-dashoffset: 0; stroke: #2ca02c; stroke-width: 2"/>
    <g clip-path="url(#p488fb3e429)">
     <use xlink:href="#m5465cf3df0" x="240.975408" y="327.064" style="fill: #2ca02c; stroke: #2ca02c; stroke-linejoin: miter"/>
     <use xlink:href="#m5465cf3df0" x="240.975408" y="60.952" style="fill: #2ca02c; stroke: #2ca02c; stroke-linejoin: miter"/>
    </g>
   </g>
   <g id="line2d_33">
    <path d="M 71.816727 314.968 
L 103.696633 314.968 
L 104.347243 233.155231 
L 104.997853 226.539124 
L 105.648463 237.64776 
L 106.299074 245.767987 
L 106.949684 251.306671 
L 108.250905 259.070575 
L 109.552125 265.098691 
L 110.853346 269.875675 
L 112.805177 275.407978 
L 114.106398 278.419201 
L 115.407618 280.976729 
L 117.359449 284.168492 
L 118.66067 285.901793 
L 120.612501 288.195197 
L 123.214942 290.791115 
L 125.817383 292.824336 
L 128.419824 294.490677 
L 130.371655 295.615803 
L 132.323486 296.63847 
L 135.576538 298.038387 
L 140.13081 299.604239 
L 142.733251 300.327508 
L 145.986303 301.132375 
L 155.094847 302.980335 
L 164.203392 304.278035 
L 172.010715 305.171049 
L 192.830245 306.729105 
L 229.264423 308.192532 
L 268.301041 308.958656 
L 313.193153 309.495954 
L 338.566955 309.680287 
L 396.471273 309.950075 
L 396.471273 309.950075 
" clip-path="url(#p488fb3e429)" style="fill: none; stroke: #d62728; stroke-width: 2; stroke-linecap: square"/>
    <defs>
     <path id="maf917fde2d" d="M -3 3 
L 3 -3 
M -3 -3 
L 3 3 
" style="stroke: #d62728"/>
    </defs>
    <g clip-path="url(#p488fb3e429)">
     <use xlink:href="#maf917fde2d" x="71.816727" y="314.968" style="fill: #d62728; stroke: #d62728"/>
     <use xlink:href="#maf917fde2d" x="201.93879" y="307.219571" style="fill: #d62728; stroke: #d62728"/>
     <use xlink:href="#maf917fde2d" x="332.060852" y="309.633023" style="fill: #d62728; stroke: #d62728"/>
    </g>
   </g>
   <g id="line2d_34">
    <path d="M 227.312592 327.064 
L 227.312592 60.952 
" clip-path="url(#p488fb3e429)" style="fill: none; stroke-dasharray: 7.4,3.2; stroke-dashoffset: 0; stroke: #d62728; stroke-width: 2"/>
    <g clip-path="url(#p488fb3e429)">
     <use xlink:href="#maf917fde2d" x="227.312592" y="327.064" style="fill: #d62728; stroke: #d62728"/>
     <use xlink:href="#maf917fde2d" x="227.312592" y="60.952" style="fill: #d62728; stroke: #d62728"/>
    </g>
   </g>
   <g id="line2d_35">
    <path d="M 71.816727 314.968 
L 103.696633 314.968 
L 104.347243 234.178001 
L 104.997853 223.070917 
L 105.648463 235.038876 
L 106.299074 243.955091 
L 106.949684 249.766557 
L 107.600294 254.149125 
L 108.901515 260.917377 
L 110.202736 266.358786 
L 111.503956 270.844715 
L 112.805177 274.542508 
L 114.106398 277.734147 
L 115.407618 280.39636 
L 117.359449 283.651523 
L 119.96189 287.201212 
L 121.913721 289.308092 
L 124.516163 291.667125 
L 127.118604 293.519356 
L 132.323486 296.528116 
L 138.829589 299.193107 
L 144.685082 300.910557 
L 149.239354 301.974792 
L 153.793627 302.886618 
L 160.95034 303.97835 
L 166.805833 304.680583 
L 176.564987 305.661148 
L 196.083297 306.937687 
L 207.794282 307.494632 
L 229.915033 308.205285 
L 289.771182 309.245804 
L 390.61578 309.868901 
L 396.471273 309.893856 
L 396.471273 309.893856 
" clip-path="url(#p488fb3e429)" style="fill: none; stroke: #9467bd; stroke-width: 2; stroke-linecap: square"/>
    <defs>
     <path id="me568b10581" d="M -0 3 
L 3 -3 
L -3 -3 
z
" style="stroke: #9467bd; stroke-linejoin: miter"/>
    </defs>
    <g clip-path="url(#p488fb3e429)">
     <use xlink:href="#me568b10581" x="71.816727" y="314.968" style="fill: #9467bd; stroke: #9467bd; stroke-linejoin: miter"/>
     <use xlink:href="#me568b10581" x="201.93879" y="307.239188" style="fill: #9467bd; stroke: #9467bd; stroke-linejoin: miter"/>
     <use xlink:href="#me568b10581" x="332.060852" y="309.586831" style="fill: #9467bd; stroke: #9467bd; stroke-linejoin: miter"/>
    </g>
   </g>
   <g id="line2d_36">
    <path d="M 226.661981 327.064 
L 226.661981 60.952 
" clip-path="url(#p488fb3e429)" style="fill: none; stroke-dasharray: 7.4,3.2; stroke-dashoffset: 0; stroke: #9467bd; stroke-width: 2"/>
    <g clip-path="url(#p488fb3e429)">
     <use xlink:href="#me568b10581" x="226.661981" y="327.064" style="fill: #9467bd; stroke: #9467bd; stroke-linejoin: miter"/>
     <use xlink:href="#me568b10581" x="226.661981" y="60.952" style="fill: #9467bd; stroke: #9467bd; stroke-linejoin: miter"/>
    </g>
   </g>
   <g id="line2d_37">
    <path d="M 71.816727 314.968 
L 103.696633 314.968 
L 104.347243 232.458748 
L 104.997853 219.518697 
L 105.648463 231.632499 
L 106.299074 240.003236 
L 106.949684 245.376942 
L 108.250905 253.584909 
L 108.901515 257.117412 
L 109.552125 258.750689 
L 110.202736 263.107745 
L 110.853346 258.219277 
L 111.503956 267.188688 
L 112.154567 270.008075 
L 112.805177 271.187439 
L 114.106398 275.459104 
L 114.757008 276.755015 
L 115.407618 277.273976 
L 116.058228 277.326388 
L 116.708839 280.833279 
L 118.010059 282.663055 
L 118.66067 283.106358 
L 119.31128 283.732541 
L 119.96189 285.630492 
L 120.612501 286.535084 
L 121.263111 287.10648 
L 122.564332 288.719696 
L 124.516163 290.493522 
L 125.166773 290.910203 
L 125.817383 291.654631 
L 127.118604 292.653903 
L 127.769214 292.333595 
L 128.419824 293.53756 
L 131.022266 295.164251 
L 131.672876 295.404282 
L 132.323486 295.918731 
L 135.576538 297.455617 
L 137.528369 298.135968 
L 138.178979 294.062806 
L 138.829589 298.760615 
L 146.636913 301.120669 
L 149.889965 301.843113 
L 153.793627 302.645251 
L 158.347899 303.400256 
L 167.456443 304.639036 
L 172.661326 305.153587 
L 183.721701 306.078241 
L 207.143672 307.379769 
L 228.613812 308.116786 
L 240.975408 308.427186 
L 256.590056 308.726326 
L 270.252872 308.934095 
L 300.831557 309.282956 
L 396.471273 309.834083 
L 396.471273 309.834083 
" clip-path="url(#p488fb3e429)" style="fill: none; stroke: #8c564b; stroke-width: 2; stroke-linecap: square"/>
    <defs>
     <path id="m6eda77f2e5" d="M -0 4.242641 
L 2.545584 0 
L 0 -4.242641 
L -2.545584 -0 
z
" style="stroke: #8c564b; stroke-linejoin: miter"/>
    </defs>
    <g clip-path="url(#p488fb3e429)">
     <use xlink:href="#m6eda77f2e5" x="71.816727" y="314.968" style="fill: #8c564b; stroke: #8c564b; stroke-linejoin: miter"/>
     <use xlink:href="#m6eda77f2e5" x="201.93879" y="307.141956" style="fill: #8c564b; stroke: #8c564b; stroke-linejoin: miter"/>
     <use xlink:href="#m6eda77f2e5" x="332.060852" y="309.54284" style="fill: #8c564b; stroke: #8c564b; stroke-linejoin: miter"/>
    </g>
   </g>
   <g id="line2d_38">
    <path d="M 228.613812 327.064 
L 228.613812 60.952 
" clip-path="url(#p488fb3e429)" style="fill: none; stroke-dasharray: 7.4,3.2; stroke-dashoffset: 0; stroke: #8c564b; stroke-width: 2"/>
    <g clip-path="url(#p488fb3e429)">
     <use xlink:href="#m6eda77f2e5" x="228.613812" y="327.064" style="fill: #8c564b; stroke: #8c564b; stroke-linejoin: miter"/>
     <use xlink:href="#m6eda77f2e5" x="228.613812" y="60.952" style="fill: #8c564b; stroke: #8c564b; stroke-linejoin: miter"/>
    </g>
   </g>
   <g id="line2d_39">
    <path d="M 71.816727 314.968 
L 103.696633 314.968 
L 104.347243 205.005116 
L 104.997853 182.255712 
L 105.648463 192.072562 
L 106.949684 213.63815 
L 107.600294 221.499095 
L 108.901515 233.165962 
L 110.202736 241.865913 
L 111.503956 248.947461 
L 112.805177 254.872081 
L 114.106398 259.78508 
L 115.407618 264.034777 
L 116.708839 267.579701 
L 118.66067 272.163205 
L 119.96189 274.682476 
L 121.263111 276.886929 
L 123.865552 280.671632 
L 125.817383 282.97978 
L 127.769214 285.00053 
L 131.022266 287.712845 
L 132.974097 289.175991 
L 136.227148 291.187962 
L 140.78142 293.405223 
L 145.986303 295.437618 
L 149.889965 296.650241 
L 155.745457 298.171816 
L 164.854002 299.965396 
L 171.360105 300.963393 
L 189.577194 302.99115 
L 197.384517 303.618269 
L 205.842451 304.204161 
L 218.854658 304.986706 
L 231.216254 305.557121 
L 248.782732 306.231615 
L 274.156534 306.958487 
L 336.615124 308.200488 
L 393.218221 308.86949 
L 396.471273 308.902411 
L 396.471273 308.902411 
" clip-path="url(#p488fb3e429)" style="fill: none; stroke: #e377c2; stroke-width: 2; stroke-linecap: square"/>
    <defs>
     <path id="m050d50e00a" d="M 0 0 
L 0 3 
M 0 0 
L 2.4 -1.5 
M 0 0 
L -2.4 -1.5 
" style="stroke: #e377c2"/>
    </defs>
    <g clip-path="url(#p488fb3e429)">
     <use xlink:href="#m050d50e00a" x="71.816727" y="314.968" style="fill: #e377c2; stroke: #e377c2"/>
     <use xlink:href="#m050d50e00a" x="201.93879" y="303.948042" style="fill: #e377c2; stroke: #e377c2"/>
     <use xlink:href="#m050d50e00a" x="332.060852" y="308.134689" style="fill: #e377c2; stroke: #e377c2"/>
    </g>
   </g>
   <g id="line2d_40">
    <path d="M 331.410242 327.064 
L 331.410242 60.952 
" clip-path="url(#p488fb3e429)" style="fill: none; stroke-dasharray: 7.4,3.2; stroke-dashoffset: 0; stroke: #e377c2; stroke-width: 2"/>
    <g clip-path="url(#p488fb3e429)">
     <use xlink:href="#m050d50e00a" x="331.410242" y="327.064" style="fill: #e377c2; stroke: #e377c2"/>
     <use xlink:href="#m050d50e00a" x="331.410242" y="60.952" style="fill: #e377c2; stroke: #e377c2"/>
    </g>
   </g>
   <g id="patch_3">
    <path d="M 55.584 327.064 
L 55.584 60.952 
" style="fill: none; stroke: #000000; stroke-width: 0.8; stroke-linejoin: miter; stroke-linecap: square"/>
   </g>
   <g id="patch_4">
    <path d="M 412.704 327.064 
L 412.704 60.952 
" style="fill: none; stroke: #000000; stroke-width: 0.8; stroke-linejoin: miter; stroke-linecap: square"/>
   </g>
   <g id="patch_5">
    <path d="M 55.584 327.064 
L 412.704 327.064 
" style="fill: none; stroke: #000000; stroke-width: 0.8; stroke-linejoin: miter; stroke-linecap: square"/>
   </g>
   <g id="patch_6">
    <path d="M 55.584 60.952 
L 412.704 60.952 
" style="fill: none; stroke: #000000; stroke-width: 0.8; stroke-linejoin: miter; stroke-linecap: square"/>
   </g>
   <g id="axes_2">
    <g id="patch_7">
     <path d="M 207.36 220.6192 
L 403.776 220.6192 
L 403.776 74.2576 
L 207.36 74.2576 
z
" style="fill: #ffffff"/>
    </g>
    <g id="matplotlib.axis_3">
     <g id="xtick_7">
      <g id="line2d_41">
       <path d="M 223.02508 220.6192 
L 223.02508 74.2576 
" clip-path="url(#pb21ee06670)" style="fill: none; stroke: #b0b0b0; stroke-width: 0.8; stroke-linecap: square"/>
      </g>
      <g id="line2d_42">
       <defs>
        <path id="m0b490df37f" d="M 0 0 
L 0 3.5 
" style="stroke: #000000; stroke-width: 2"/>
       </defs>
       <g>
        <use xlink:href="#m0b490df37f" x="223.02508" y="220.6192" style="stroke: #000000; stroke-width: 2"/>
       </g>
      </g>
      <g id="text_14">
       <!-- 250 -->
       <g transform="translate(209.66383 238.257012) scale(0.14 -0.14)">
        <use xlink:href="#DejaVuSans-32"/>
        <use xlink:href="#DejaVuSans-35" x="63.623047"/>
        <use xlink:href="#DejaVuSans-30" x="127.246094"/>
       </g>
      </g>
     </g>
     <g id="xtick_8">
      <g id="line2d_43">
       <path d="M 283.275387 220.6192 
L 283.275387 74.2576 
" clip-path="url(#pb21ee06670)" style="fill: none; stroke: #b0b0b0; stroke-width: 0.8; stroke-linecap: square"/>
      </g>
      <g id="line2d_44">
       <g>
        <use xlink:href="#m0b490df37f" x="283.275387" y="220.6192" style="stroke: #000000; stroke-width: 2"/>
       </g>
      </g>
      <g id="text_15">
       <!-- 300 -->
       <g transform="translate(269.914137 238.257012) scale(0.14 -0.14)">
        <use xlink:href="#DejaVuSans-33"/>
        <use xlink:href="#DejaVuSans-30" x="63.623047"/>
        <use xlink:href="#DejaVuSans-30" x="127.246094"/>
       </g>
      </g>
     </g>
     <g id="xtick_9">
      <g id="line2d_45">
       <path d="M 343.525693 220.6192 
L 343.525693 74.2576 
" clip-path="url(#pb21ee06670)" style="fill: none; stroke: #b0b0b0; stroke-width: 0.8; stroke-linecap: square"/>
      </g>
      <g id="line2d_46">
       <g>
        <use xlink:href="#m0b490df37f" x="343.525693" y="220.6192" style="stroke: #000000; stroke-width: 2"/>
       </g>
      </g>
      <g id="text_16">
       <!-- 350 -->
       <g transform="translate(330.164443 238.257012) scale(0.14 -0.14)">
        <use xlink:href="#DejaVuSans-33"/>
        <use xlink:href="#DejaVuSans-35" x="63.623047"/>
        <use xlink:href="#DejaVuSans-30" x="127.246094"/>
       </g>
      </g>
     </g>
     <g id="xtick_10">
      <g id="line2d_47">
       <path d="M 403.776 220.6192 
L 403.776 74.2576 
" clip-path="url(#pb21ee06670)" style="fill: none; stroke: #b0b0b0; stroke-width: 0.8; stroke-linecap: square"/>
      </g>
      <g id="line2d_48">
       <g>
        <use xlink:href="#m0b490df37f" x="403.776" y="220.6192" style="stroke: #000000; stroke-width: 2"/>
       </g>
      </g>
      <g id="text_17">
       <!-- 400 -->
       <g transform="translate(390.41475 238.257012) scale(0.14 -0.14)">
        <use xlink:href="#DejaVuSans-34"/>
        <use xlink:href="#DejaVuSans-30" x="63.623047"/>
        <use xlink:href="#DejaVuSans-30" x="127.246094"/>
       </g>
      </g>
     </g>
    </g>
    <g id="matplotlib.axis_4">
     <g id="ytick_8">
      <g id="line2d_49">
       <path d="M 207.36 220.493883 
L 403.776 220.493883 
" clip-path="url(#pb21ee06670)" style="fill: none; stroke: #b0b0b0; stroke-width: 0.8; stroke-linecap: square"/>
      </g>
      <g id="line2d_50">
       <defs>
        <path id="m76c114fdcb" d="M 0 0 
L -3.5 0 
" style="stroke: #000000; stroke-width: 2"/>
       </defs>
       <g>
        <use xlink:href="#m76c114fdcb" x="207.36" y="220.493883" style="stroke: #000000; stroke-width: 2"/>
       </g>
      </g>
      <g id="text_18">
       <!-- 0.0150 -->
       <g transform="translate(151.373125 225.81279) scale(0.14 -0.14)">
        <use xlink:href="#DejaVuSans-30"/>
        <use xlink:href="#DejaVuSans-2e" x="63.623047"/>
        <use xlink:href="#DejaVuSans-30" x="95.410156"/>
        <use xlink:href="#DejaVuSans-31" x="159.033203"/>
        <use xlink:href="#DejaVuSans-35" x="222.65625"/>
        <use xlink:href="#DejaVuSans-30" x="286.279297"/>
       </g>
      </g>
     </g>
     <g id="ytick_9">
      <g id="line2d_51">
       <path d="M 207.36 184.017974 
L 403.776 184.017974 
" clip-path="url(#pb21ee06670)" style="fill: none; stroke: #b0b0b0; stroke-width: 0.8; stroke-linecap: square"/>
      </g>
      <g id="line2d_52">
       <g>
        <use xlink:href="#m76c114fdcb" x="207.36" y="184.017974" style="stroke: #000000; stroke-width: 2"/>
       </g>
      </g>
      <g id="text_19">
       <!-- 0.0175 -->
       <g transform="translate(151.373125 189.33688) scale(0.14 -0.14)">
        <defs>
         <path id="DejaVuSans-37" d="M 525 4666 
L 3525 4666 
L 3525 4397 
L 1831 0 
L 1172 0 
L 2766 4134 
L 525 4134 
L 525 4666 
z
" transform="scale(0.015625)"/>
        </defs>
        <use xlink:href="#DejaVuSans-30"/>
        <use xlink:href="#DejaVuSans-2e" x="63.623047"/>
        <use xlink:href="#DejaVuSans-30" x="95.410156"/>
        <use xlink:href="#DejaVuSans-31" x="159.033203"/>
        <use xlink:href="#DejaVuSans-37" x="222.65625"/>
        <use xlink:href="#DejaVuSans-35" x="286.279297"/>
       </g>
      </g>
     </g>
     <g id="ytick_10">
      <g id="line2d_53">
       <path d="M 207.36 147.542065 
L 403.776 147.542065 
" clip-path="url(#pb21ee06670)" style="fill: none; stroke: #b0b0b0; stroke-width: 0.8; stroke-linecap: square"/>
      </g>
      <g id="line2d_54">
       <g>
        <use xlink:href="#m76c114fdcb" x="207.36" y="147.542065" style="stroke: #000000; stroke-width: 2"/>
       </g>
      </g>
      <g id="text_20">
       <!-- 0.0200 -->
       <g transform="translate(151.373125 152.860971) scale(0.14 -0.14)">
        <use xlink:href="#DejaVuSans-30"/>
        <use xlink:href="#DejaVuSans-2e" x="63.623047"/>
        <use xlink:href="#DejaVuSans-30" x="95.410156"/>
        <use xlink:href="#DejaVuSans-32" x="159.033203"/>
        <use xlink:href="#DejaVuSans-30" x="222.65625"/>
        <use xlink:href="#DejaVuSans-30" x="286.279297"/>
       </g>
      </g>
     </g>
     <g id="ytick_11">
      <g id="line2d_55">
       <path d="M 207.36 111.066155 
L 403.776 111.066155 
" clip-path="url(#pb21ee06670)" style="fill: none; stroke: #b0b0b0; stroke-width: 0.8; stroke-linecap: square"/>
      </g>
      <g id="line2d_56">
       <g>
        <use xlink:href="#m76c114fdcb" x="207.36" y="111.066155" style="stroke: #000000; stroke-width: 2"/>
       </g>
      </g>
      <g id="text_21">
       <!-- 0.0225 -->
       <g transform="translate(151.373125 116.385062) scale(0.14 -0.14)">
        <use xlink:href="#DejaVuSans-30"/>
        <use xlink:href="#DejaVuSans-2e" x="63.623047"/>
        <use xlink:href="#DejaVuSans-30" x="95.410156"/>
        <use xlink:href="#DejaVuSans-32" x="159.033203"/>
        <use xlink:href="#DejaVuSans-32" x="222.65625"/>
        <use xlink:href="#DejaVuSans-35" x="286.279297"/>
       </g>
      </g>
     </g>
     <g id="ytick_12">
      <g id="line2d_57">
       <path d="M 207.36 74.590246 
L 403.776 74.590246 
" clip-path="url(#pb21ee06670)" style="fill: none; stroke: #b0b0b0; stroke-width: 0.8; stroke-linecap: square"/>
      </g>
      <g id="line2d_58">
       <g>
        <use xlink:href="#m76c114fdcb" x="207.36" y="74.590246" style="stroke: #000000; stroke-width: 2"/>
       </g>
      </g>
      <g id="text_22">
       <!-- 0.0250 -->
       <g transform="translate(151.373125 79.909152) scale(0.14 -0.14)">
        <use xlink:href="#DejaVuSans-30"/>
        <use xlink:href="#DejaVuSans-2e" x="63.623047"/>
        <use xlink:href="#DejaVuSans-30" x="95.410156"/>
        <use xlink:href="#DejaVuSans-32" x="159.033203"/>
        <use xlink:href="#DejaVuSans-35" x="222.65625"/>
        <use xlink:href="#DejaVuSans-30" x="286.279297"/>
       </g>
      </g>
     </g>
    </g>
    <g id="line2d_59">
     <path d="M 349.351822 -1 
L 350.75573 0.052738 
L 351.960736 1.132403 
L 354.370748 2.939928 
L 356.780761 4.855672 
L 357.985767 5.563049 
L 359.190773 6.640323 
L 360.395779 7.369347 
L 364.010798 10.080245 
L 367.625816 12.73218 
L 368.830822 13.711537 
L 371.240834 15.36545 
L 372.44584 16.192927 
L 376.060859 19.100499 
L 382.08589 23.523978 
L 383.290896 24.463915 
L 388.11092 27.458705 
L 389.315926 28.363752 
L 392.930945 30.655031 
L 401.365988 36.204634 
L 402.570994 36.781246 
L 404.981006 38.25241 
L 411.006037 41.862242 
L 412.211043 42.681236 
L 413.416049 43.290312 
L 415.826061 44.752992 
L 418.236074 46.122356 
L 425.33725 49.730762 
L 425.33725 49.730762 
" clip-path="url(#pb21ee06670)" style="fill: none; stroke: #1f77b4; stroke-width: 1.5; stroke-linecap: square"/>
    </g>
    <g id="line2d_60">
     <path clip-path="url(#pb21ee06670)" style="fill: none; stroke-dasharray: 5.55,2.4; stroke-dashoffset: 0; stroke: #1f77b4; stroke-width: 1.5"/>
    </g>
    <g id="line2d_61">
     <path d="M 92.320115 -1 
L 95.294429 8.131266 
L 96.499436 12.335818 
L 98.909448 19.574622 
L 102.524466 29.62802 
L 104.934479 35.389993 
L 107.344491 41.865221 
L 109.754503 47.368353 
L 112.164515 53.703275 
L 114.574528 58.20489 
L 118.189546 66.592008 
L 119.394552 68.566647 
L 121.804564 73.873588 
L 123.009571 75.978332 
L 124.214577 78.309432 
L 125.419583 80.14093 
L 129.034601 87.204784 
L 131.444613 91.174219 
L 132.64962 93.478604 
L 133.854626 95.201332 
L 135.059632 97.396314 
L 137.469644 101.011276 
L 142.289669 108.897207 
L 143.494675 110.614894 
L 144.699681 112.538706 
L 145.904687 114.147852 
L 147.109693 115.957272 
L 148.314699 116.977758 
L 149.519706 118.824133 
L 150.724712 120.064024 
L 151.929718 121.998396 
L 156.749742 128.705369 
L 159.159755 130.963411 
L 160.364761 132.592424 
L 161.569767 134.474452 
L 163.979779 136.720312 
L 165.184785 138.152973 
L 166.389791 139.378689 
L 167.594798 140.803046 
L 168.799804 141.757786 
L 178.439853 151.530726 
L 180.849865 153.40818 
L 186.874896 158.309669 
L 188.079902 159.156024 
L 190.489914 161.099272 
L 191.69492 162.513942 
L 192.899926 163.363738 
L 194.104933 164.432336 
L 196.514945 166.246995 
L 198.924957 167.834945 
L 200.129963 168.682974 
L 202.539975 170.685031 
L 207.36 174.288785 
L 208.565006 175.258786 
L 209.770012 175.991013 
L 210.975018 176.557382 
L 215.795043 179.714296 
L 217.000049 180.679135 
L 219.410061 182.033159 
L 220.615067 182.869893 
L 223.02508 184.258666 
L 224.230086 184.6828 
L 225.435092 185.555398 
L 226.640098 186.043345 
L 227.845104 186.932523 
L 229.05011 187.240758 
L 235.075141 190.624193 
L 237.485153 191.968831 
L 238.69016 192.213375 
L 239.895166 192.728119 
L 241.100172 193.516689 
L 244.71519 195.086453 
L 247.125202 196.539864 
L 248.330209 197.133267 
L 250.740221 198.515986 
L 251.945227 199.023528 
L 254.355239 200.320091 
L 256.765252 201.186115 
L 257.970258 201.806343 
L 259.175264 202.110265 
L 262.790282 204.025212 
L 263.995288 204.376757 
L 265.200294 204.934176 
L 267.610307 205.754071 
L 272.430331 207.755661 
L 273.635337 207.998306 
L 279.660368 210.16755 
L 280.865374 210.557132 
L 282.07038 211.104961 
L 284.480393 212.000022 
L 291.710429 214.548838 
L 292.915436 215.067003 
L 297.73546 216.55535 
L 306.170503 219.121406 
L 307.375509 219.562372 
L 308.580515 219.821202 
L 310.990528 220.484081 
L 314.605546 221.51892 
L 315.810552 222.095721 
L 317.015558 222.401085 
L 318.220564 222.990621 
L 325.450601 225.031385 
L 326.655607 225.217695 
L 333.885644 227.037702 
L 338.705669 227.944676 
L 339.910675 228.479409 
L 343.525693 229.137325 
L 344.730699 229.654106 
L 345.935706 229.842059 
L 347.140712 230.286089 
L 349.550724 230.949858 
L 350.75573 231.060653 
L 357.985767 232.577197 
L 361.600785 232.963489 
L 366.42081 234.130563 
L 371.240834 234.874126 
L 372.44584 235.224801 
L 373.650847 235.402868 
L 377.265865 236.318607 
L 382.08589 237.195563 
L 383.290896 237.584747 
L 389.315926 238.674698 
L 391.725939 239.047886 
L 392.930945 239.327474 
L 394.135951 239.752839 
L 396.545963 240.166151 
L 397.750969 240.202574 
L 402.570994 241.110786 
L 403.776 241.504581 
L 412.211043 242.831522 
L 413.416049 243.234248 
L 414.621055 243.254135 
L 417.031067 243.667928 
L 420.646086 244.006632 
L 423.056098 244.361626 
L 425.33725 244.569179 
L 425.33725 244.569179 
" clip-path="url(#pb21ee06670)" style="fill: none; stroke: #ff7f0e; stroke-width: 1.5; stroke-linecap: square"/>
    </g>
    <g id="line2d_62">
     <path d="M 259.175264 220.6192 
L 259.175264 74.2576 
" clip-path="url(#pb21ee06670)" style="fill: none; stroke-dasharray: 5.55,2.4; stroke-dashoffset: 0; stroke: #ff7f0e; stroke-width: 1.5"/>
    </g>
    <g id="line2d_63">
     <path d="M 77.64978 -1 
L 78.424344 1.481903 
L 79.62935 4.918326 
L 82.039362 12.546581 
L 83.244368 16.115852 
L 84.449374 19.32113 
L 85.65438 23.251447 
L 86.859387 26.734142 
L 90.474405 36.181871 
L 91.679411 39.612131 
L 94.089423 45.561517 
L 96.499436 51.926185 
L 102.524466 64.353204 
L 103.729472 67.253002 
L 104.934479 69.510877 
L 106.139485 72.471705 
L 113.369521 85.678367 
L 118.189546 93.95533 
L 120.599558 98.417454 
L 121.804564 100.035423 
L 127.829595 109.137554 
L 129.034601 110.806176 
L 130.239607 112.722243 
L 131.444613 114.115304 
L 133.854626 117.365681 
L 136.264638 120.406123 
L 138.67465 124.074683 
L 141.084663 126.648617 
L 142.289669 128.455208 
L 144.699681 130.927969 
L 151.929718 139.777595 
L 153.134724 141.421923 
L 154.33973 142.64031 
L 155.544736 143.645795 
L 156.749742 144.928307 
L 160.364761 148.120309 
L 161.569767 149.59193 
L 162.774773 150.614608 
L 163.979779 151.815171 
L 165.184785 153.20424 
L 168.799804 156.590122 
L 170.00481 157.84766 
L 174.824834 162.043122 
L 177.234847 164.503525 
L 178.439853 165.664562 
L 185.66989 170.681026 
L 186.874896 171.614708 
L 188.079902 172.933177 
L 194.104933 177.976249 
L 195.309939 178.555594 
L 198.924957 180.960911 
L 201.334969 182.545162 
L 203.744982 184.257264 
L 204.949988 184.873252 
L 207.36 186.449891 
L 208.565006 187.354246 
L 209.770012 188.042526 
L 214.590037 191.201719 
L 219.410061 193.582338 
L 220.615067 194.170266 
L 223.02508 195.763125 
L 231.460123 200.510811 
L 235.075141 202.09662 
L 236.280147 203.00012 
L 238.69016 203.811876 
L 239.895166 204.203041 
L 242.305178 205.3225 
L 244.71519 206.151643 
L 245.920196 206.691916 
L 248.330209 207.502365 
L 250.740221 208.811041 
L 255.560245 211.105005 
L 256.765252 211.491564 
L 257.970258 212.18767 
L 259.175264 212.608431 
L 262.790282 214.325351 
L 263.995288 214.559519 
L 265.200294 215.230131 
L 266.405301 215.680861 
L 268.815313 216.209161 
L 276.04535 219.277807 
L 277.250356 219.440353 
L 282.07038 221.383049 
L 283.275387 221.718266 
L 284.480393 222.42603 
L 292.915436 225.04646 
L 295.325448 225.921104 
L 301.350479 227.718733 
L 303.760491 228.397749 
L 304.965497 228.927378 
L 306.170503 229.085172 
L 307.375509 229.521633 
L 308.580515 229.792177 
L 309.785521 230.239368 
L 317.015558 232.085016 
L 331.475632 235.726551 
L 332.680638 236.15516 
L 333.885644 236.247075 
L 339.910675 237.872552 
L 341.115681 238.041822 
L 347.140712 239.57589 
L 348.345718 239.718955 
L 349.550724 240.083166 
L 351.960736 240.464197 
L 353.165742 240.828118 
L 355.575755 241.242862 
L 359.190773 241.81109 
L 360.395779 242.130551 
L 362.805791 242.558678 
L 364.010798 242.880899 
L 367.625816 243.31377 
L 370.035828 243.825156 
L 374.855853 244.470642 
L 377.265865 244.896415 
L 378.470871 245.183551 
L 379.675877 245.587211 
L 383.290896 246.110625 
L 384.495902 246.438838 
L 386.905914 246.790829 
L 390.520933 247.490686 
L 391.725939 247.553573 
L 394.135951 248.035636 
L 395.340957 248.121666 
L 401.365988 249.162044 
L 403.776 249.604964 
L 406.186012 249.939817 
L 408.596025 250.466248 
L 411.006037 250.914945 
L 425.33725 253.106746 
L 425.33725 253.106746 
" clip-path="url(#pb21ee06670)" style="fill: none; stroke: #2ca02c; stroke-width: 1.5; stroke-linecap: square"/>
    </g>
    <g id="line2d_64">
     <path d="M 235.075141 220.6192 
L 235.075141 74.2576 
" clip-path="url(#pb21ee06670)" style="fill: none; stroke-dasharray: 5.55,2.4; stroke-dashoffset: 0; stroke: #2ca02c; stroke-width: 1.5"/>
    </g>
    <g id="line2d_65">
     <path d="M 68.783635 -1 
L 71.194307 8.21069 
L 72.399313 12.582428 
L 76.014331 24.150697 
L 79.62935 34.273839 
L 82.039362 41.056908 
L 83.244368 43.774394 
L 84.449374 47.597363 
L 86.859387 53.948196 
L 88.064393 56.838304 
L 89.269399 60.132609 
L 90.474405 62.766901 
L 95.294429 74.918595 
L 104.934479 95.82903 
L 107.344491 100.027132 
L 108.549497 101.819177 
L 112.164515 107.959499 
L 113.369521 110.228506 
L 114.574528 111.97316 
L 121.804564 124.332161 
L 123.009571 126.146034 
L 124.214577 127.10293 
L 126.624589 130.293003 
L 127.829595 132.331977 
L 129.034601 133.801426 
L 130.239607 134.945033 
L 131.444613 136.871184 
L 135.059632 141.278709 
L 137.469644 144.637352 
L 138.67465 145.927912 
L 139.879656 147.409293 
L 141.084663 148.390714 
L 142.289669 149.630468 
L 144.699681 152.647786 
L 145.904687 153.99116 
L 147.109693 154.963552 
L 149.519706 157.370269 
L 150.724712 159.056345 
L 153.134724 161.495366 
L 154.33973 162.58317 
L 155.544736 163.872134 
L 157.954748 166.233128 
L 162.774773 170.978691 
L 163.979779 172.214648 
L 170.00481 176.64688 
L 171.209816 177.532297 
L 174.824834 179.61237 
L 176.02984 180.719037 
L 177.234847 181.545981 
L 178.439853 182.17219 
L 183.259877 185.466363 
L 185.66989 186.990025 
L 186.874896 187.796494 
L 190.489914 190.947595 
L 191.69492 191.462101 
L 194.104933 192.94542 
L 195.309939 193.639652 
L 196.514945 194.478715 
L 197.719951 195.179088 
L 198.924957 196.306295 
L 202.539975 198.125459 
L 203.744982 199.102584 
L 204.949988 199.904365 
L 206.154994 200.548767 
L 207.36 200.985556 
L 212.180025 203.724196 
L 213.385031 204.677689 
L 214.590037 205.182417 
L 217.000049 206.826509 
L 218.205055 207.223424 
L 219.410061 207.851838 
L 220.615067 208.225684 
L 227.845104 211.812506 
L 229.05011 212.019617 
L 230.255117 212.499258 
L 231.460123 213.225561 
L 232.665129 213.708227 
L 233.870135 214.469034 
L 238.69016 216.570427 
L 242.305178 217.897157 
L 244.71519 218.525092 
L 247.125202 219.310922 
L 248.330209 219.809622 
L 249.535215 220.147208 
L 253.150233 221.637021 
L 254.355239 221.99518 
L 257.970258 223.687745 
L 260.38027 224.45451 
L 265.200294 226.475582 
L 267.610307 226.900055 
L 268.815313 227.402201 
L 273.635337 228.446583 
L 274.840344 228.912488 
L 277.250356 229.346714 
L 283.275387 230.686102 
L 286.890405 231.538022 
L 290.505423 232.651466 
L 292.915436 233.359676 
L 302.555485 235.510402 
L 303.760491 235.876303 
L 306.170503 236.37366 
L 310.990528 237.65706 
L 315.810552 238.505095 
L 317.015558 238.996649 
L 325.450601 240.799824 
L 329.06562 241.542607 
L 331.475632 242.053922 
L 333.885644 242.590478 
L 335.09065 242.979459 
L 345.935706 244.824457 
L 347.140712 245.166714 
L 348.345718 245.361265 
L 353.165742 246.682298 
L 356.780761 247.238939 
L 359.190773 247.731971 
L 364.010798 248.982944 
L 366.42081 249.410963 
L 367.625816 249.735082 
L 368.830822 249.822349 
L 370.035828 250.081819 
L 373.650847 250.444749 
L 376.060859 250.86434 
L 378.470871 251.216456 
L 379.675877 251.306999 
L 384.495902 252.169543 
L 386.905914 252.589782 
L 389.315926 252.773416 
L 390.520933 252.865566 
L 391.725939 253.135097 
L 394.135951 253.52819 
L 397.750969 254.06069 
L 402.570994 254.448549 
L 407.391018 254.947189 
L 408.596025 255.198139 
L 411.006037 255.436171 
L 413.416049 255.841232 
L 414.621055 256.176815 
L 417.031067 256.322092 
L 419.44108 256.625054 
L 421.851092 256.784895 
L 425.33725 256.97904 
L 425.33725 256.97904 
" clip-path="url(#pb21ee06670)" style="fill: none; stroke: #d62728; stroke-width: 1.5; stroke-linecap: square"/>
    </g>
    <g id="line2d_66">
     <path d="M 209.770012 220.6192 
L 209.770012 74.2576 
" clip-path="url(#pb21ee06670)" style="fill: none; stroke-dasharray: 5.55,2.4; stroke-dashoffset: 0; stroke: #d62728; stroke-width: 1.5"/>
    </g>
    <g id="line2d_67">
     <path d="M 67.511559 -1 
L 67.579288 -0.716597 
L 68.784294 3.253104 
L 72.399313 17.140695 
L 74.809325 24.643612 
L 76.014331 28.057071 
L 77.219337 31.876334 
L 78.424344 35.114884 
L 79.62935 39.268786 
L 80.834356 42.985324 
L 82.039362 47.09784 
L 83.244368 49.855432 
L 85.65438 56.005107 
L 86.859387 58.717428 
L 88.064393 61.823995 
L 89.269399 64.042177 
L 90.474405 67.136691 
L 91.679411 69.76937 
L 92.884417 72.106906 
L 94.089423 75.271294 
L 95.294429 77.557562 
L 96.499436 80.155806 
L 97.704442 83.039622 
L 100.114454 87.805715 
L 102.524466 92.593197 
L 104.934479 97.432394 
L 112.164515 111.084238 
L 113.369521 113.169304 
L 114.574528 114.860346 
L 115.779534 117.001946 
L 116.98454 118.601246 
L 118.189546 120.62334 
L 119.394552 122.335471 
L 120.599558 124.351372 
L 121.804564 125.919391 
L 123.009571 127.84177 
L 124.214577 129.53779 
L 126.624589 133.306826 
L 129.034601 136.857622 
L 131.444613 139.407713 
L 133.854626 142.140403 
L 135.059632 143.807434 
L 139.879656 149.329558 
L 141.084663 150.374428 
L 142.289669 151.902747 
L 148.314699 157.977782 
L 149.519706 158.867158 
L 150.724712 160.309426 
L 151.929718 161.215514 
L 155.544736 164.946707 
L 160.364761 169.447009 
L 163.979779 172.731649 
L 165.184785 173.815203 
L 167.594798 175.78697 
L 168.799804 176.994225 
L 170.00481 177.710605 
L 172.414822 179.63856 
L 176.02984 182.339641 
L 177.234847 183.501056 
L 178.439853 184.363445 
L 180.849865 185.740752 
L 182.054871 186.393458 
L 183.259877 187.485201 
L 184.464883 187.980584 
L 188.079902 190.482877 
L 189.284908 191.184915 
L 190.489914 191.679587 
L 191.69492 192.592585 
L 194.104933 194.056467 
L 195.309939 194.982193 
L 196.514945 195.723204 
L 201.334969 198.065582 
L 203.744982 199.589884 
L 204.949988 199.997998 
L 206.154994 200.566003 
L 208.565006 202.1764 
L 209.770012 202.782857 
L 210.975018 203.19583 
L 212.180025 203.797192 
L 213.385031 204.559884 
L 214.590037 205.119386 
L 215.795043 205.550818 
L 217.000049 206.347961 
L 223.02508 209.046773 
L 226.640098 210.623327 
L 229.05011 212.043688 
L 232.665129 213.497173 
L 235.075141 214.376587 
L 236.280147 215.110537 
L 237.485153 215.627185 
L 238.69016 216.27971 
L 241.100172 217.172598 
L 242.305178 217.685854 
L 244.71519 218.352923 
L 248.330209 219.81977 
L 253.150233 221.581366 
L 254.355239 222.086393 
L 260.38027 223.955445 
L 261.585276 224.44848 
L 262.790282 225.084296 
L 265.200294 225.975724 
L 267.610307 226.653598 
L 270.020319 227.366014 
L 273.635337 228.145997 
L 274.840344 228.545731 
L 277.250356 229.088814 
L 278.455362 229.609483 
L 282.07038 230.762831 
L 283.275387 230.94617 
L 285.685399 231.736075 
L 286.890405 232.268678 
L 288.095411 232.605449 
L 289.300417 233.170494 
L 290.505423 233.491726 
L 292.915436 233.847031 
L 295.325448 234.503533 
L 296.530454 234.723455 
L 297.73546 235.186188 
L 302.555485 236.004118 
L 303.760491 236.24774 
L 304.965497 236.654862 
L 306.170503 236.754037 
L 307.375509 236.98346 
L 308.580515 237.088208 
L 310.990528 237.605287 
L 315.810552 238.879385 
L 317.015558 239.305274 
L 321.835583 240.396167 
L 323.040589 240.775649 
L 325.450601 241.158281 
L 326.655607 241.322093 
L 329.06562 241.858452 
L 331.475632 242.219386 
L 332.680638 242.582108 
L 335.09065 242.850746 
L 339.910675 243.685368 
L 342.320687 244.006527 
L 349.550724 245.575925 
L 353.165742 246.074952 
L 359.190773 246.795377 
L 362.805791 247.460545 
L 370.035828 248.720085 
L 373.650847 249.185891 
L 376.060859 249.459094 
L 377.265865 249.612072 
L 378.470871 249.882893 
L 382.08589 250.149923 
L 388.11092 251.168957 
L 390.520933 251.270655 
L 391.725939 251.512078 
L 395.340957 251.876301 
L 398.955975 252.278073 
L 402.570994 252.680158 
L 403.776 252.969902 
L 404.981006 252.92773 
L 406.186012 253.18848 
L 408.596025 253.312806 
L 409.801031 253.538931 
L 412.211043 253.760812 
L 415.826061 254.307973 
L 423.056098 254.862918 
L 425.33725 254.889425 
L 425.33725 254.889425 
" clip-path="url(#pb21ee06670)" style="fill: none; stroke: #9467bd; stroke-width: 1.5; stroke-linecap: square"/>
    </g>
    <g id="line2d_68">
     <path d="M 208.565006 220.6192 
L 208.565006 74.2576 
" clip-path="url(#pb21ee06670)" style="fill: none; stroke-dasharray: 5.55,2.4; stroke-dashoffset: 0; stroke: #9467bd; stroke-width: 1.5"/>
    </g>
    <g id="line2d_69">
     <path d="M 69.90052 -1 
L 74.809325 16.741307 
L 76.014331 20.629863 
L 77.219337 25.060783 
L 78.424344 28.864529 
L 85.65438 48.525403 
L 86.859387 52.401112 
L 88.064393 55.869266 
L 91.679411 64.581929 
L 92.884417 68.090486 
L 94.089423 71.211768 
L 96.499436 76.17889 
L 97.704442 78.51884 
L 98.909448 81.600603 
L 100.114454 83.358657 
L 102.524466 87.855423 
L 103.729472 90.883004 
L 106.139485 95.710016 
L 107.344491 97.697123 
L 108.549497 99.422351 
L 110.959509 103.732083 
L 113.369521 108.448757 
L 116.98454 114.336636 
L 119.394552 117.849563 
L 121.804564 120.879351 
L 124.214577 124.712522 
L 125.419583 126.655633 
L 126.624589 128.194126 
L 127.829595 129.947743 
L 130.239607 132.806105 
L 131.444613 133.91087 
L 132.64962 135.762891 
L 133.854626 136.853049 
L 135.059632 138.549473 
L 137.469644 141.321258 
L 139.879656 144.737727 
L 141.084663 146.600014 
L 142.289669 148.032829 
L 145.904687 151.735534 
L 148.314699 154.631895 
L 150.724712 156.710236 
L 153.134724 159.682781 
L 154.33973 161.20468 
L 156.749742 163.626157 
L 160.364761 166.110082 
L 162.774773 168.290482 
L 163.979779 169.079744 
L 168.799804 173.625613 
L 174.824834 178.344297 
L 176.02984 179.4739 
L 180.849865 182.784778 
L 182.054871 183.773681 
L 185.66989 186.179389 
L 188.079902 187.961316 
L 189.284908 188.801838 
L 190.489914 189.824889 
L 191.69492 190.33138 
L 192.899926 191.222535 
L 196.514945 193.252526 
L 197.719951 193.942412 
L 201.334969 196.330218 
L 202.539975 197.072522 
L 203.744982 197.580044 
L 209.770012 200.713518 
L 210.975018 201.301356 
L 213.385031 202.805421 
L 214.590037 203.273789 
L 217.000049 204.584983 
L 218.205055 205.130188 
L 219.410061 205.537218 
L 221.820074 206.819192 
L 224.230086 208.048252 
L 225.435092 208.505532 
L 226.640098 209.207395 
L 227.845104 209.610331 
L 229.05011 210.215484 
L 231.460123 210.98868 
L 235.075141 212.805044 
L 236.280147 213.085082 
L 237.485153 213.614033 
L 241.100172 214.78796 
L 243.510184 215.775004 
L 248.330209 217.678861 
L 249.535215 218.356784 
L 251.945227 219.257667 
L 254.355239 220.086261 
L 255.560245 220.618547 
L 257.970258 221.325431 
L 262.790282 222.944355 
L 263.995288 223.165906 
L 266.405301 224.155483 
L 267.610307 224.489885 
L 270.020319 224.992786 
L 273.635337 226.12538 
L 274.840344 226.266156 
L 280.865374 227.976812 
L 282.07038 228.202505 
L 283.275387 228.659161 
L 296.530454 232.223741 
L 297.73546 232.406572 
L 298.940466 232.9625 
L 301.350479 233.608702 
L 302.555485 233.887795 
L 303.760491 234.341711 
L 306.170503 234.895935 
L 313.40054 236.611414 
L 317.015558 237.200166 
L 320.630577 238.027732 
L 321.835583 238.047199 
L 330.270626 239.943038 
L 337.500663 241.040202 
L 338.705669 241.413416 
L 341.115681 241.752129 
L 344.730699 242.206869 
L 345.935706 242.445054 
L 348.345718 242.75501 
L 349.550724 243.024001 
L 354.370748 243.462668 
L 357.985767 244.199134 
L 361.600785 244.722359 
L 364.010798 245.042424 
L 368.830822 245.997519 
L 371.240834 246.344495 
L 373.650847 247.083548 
L 376.060859 247.482382 
L 378.470871 247.762466 
L 380.880883 248.21555 
L 382.08589 248.595268 
L 384.495902 248.927522 
L 386.905914 249.235861 
L 391.725939 249.937701 
L 394.135951 250.391474 
L 403.776 251.446282 
L 404.981006 251.484088 
L 406.186012 251.658866 
L 407.391018 251.629164 
L 409.801031 251.98032 
L 412.211043 252.390065 
L 414.621055 252.516274 
L 419.44108 253.013591 
L 425.33725 253.838163 
L 425.33725 253.838163 
" clip-path="url(#pb21ee06670)" style="fill: none; stroke: #8c564b; stroke-width: 1.5; stroke-linecap: square"/>
    </g>
    <g id="line2d_70">
     <path d="M 212.180025 220.6192 
L 212.180025 74.2576 
" clip-path="url(#pb21ee06670)" style="fill: none; stroke-dasharray: 5.55,2.4; stroke-dashoffset: 0; stroke: #8c564b; stroke-width: 1.5"/>
    </g>
    <g id="line2d_71">
     <path d="M 125.773417 -1 
L 129.034601 4.978065 
L 130.239607 6.999711 
L 132.64962 11.627715 
L 133.854626 14.102079 
L 136.264638 18.171249 
L 138.67465 22.589379 
L 141.084663 26.636735 
L 144.699681 32.606296 
L 145.904687 34.357721 
L 147.109693 36.329595 
L 151.929718 43.221281 
L 153.134724 44.535543 
L 159.159755 52.94184 
L 162.774773 57.667694 
L 163.979779 59.629976 
L 166.389791 62.521257 
L 167.594798 64.039394 
L 171.209816 67.702351 
L 172.414822 69.38866 
L 173.619828 70.633494 
L 177.234847 75.248418 
L 178.439853 76.49384 
L 179.644859 77.525336 
L 180.849865 79.051305 
L 183.259877 81.63335 
L 185.66989 84.472392 
L 186.874896 85.734303 
L 190.489914 90.109778 
L 195.309939 94.881442 
L 197.719951 96.767462 
L 200.129963 99.179172 
L 203.744982 102.581929 
L 207.36 105.373357 
L 209.770012 108.045366 
L 212.180025 109.822828 
L 214.590037 111.918803 
L 215.795043 112.72858 
L 217.000049 113.398949 
L 220.615067 116.474978 
L 221.820074 117.254676 
L 223.02508 118.221473 
L 224.230086 119.030046 
L 226.640098 121.079151 
L 229.05011 122.572045 
L 230.255117 123.500168 
L 231.460123 124.568809 
L 233.870135 126.234891 
L 236.280147 127.962752 
L 238.69016 129.828196 
L 241.100172 131.443306 
L 243.510184 132.757086 
L 245.920196 134.58307 
L 248.330209 135.866026 
L 249.535215 136.760378 
L 254.355239 139.630993 
L 257.970258 141.643226 
L 259.175264 142.62787 
L 260.38027 143.434105 
L 262.790282 144.815191 
L 265.200294 146.277216 
L 268.815313 148.109427 
L 270.020319 148.882241 
L 273.635337 150.703599 
L 274.840344 151.596441 
L 277.250356 152.863858 
L 279.660368 154.115411 
L 280.865374 154.81217 
L 282.07038 155.353582 
L 284.480393 156.664152 
L 286.890405 157.831213 
L 289.300417 159.129355 
L 290.505423 159.633554 
L 294.120442 160.856565 
L 295.325448 161.499254 
L 297.73546 162.422433 
L 298.940466 162.958112 
L 300.145472 163.618594 
L 301.350479 164.471178 
L 302.555485 165.024679 
L 303.760491 165.442116 
L 306.170503 166.727836 
L 308.580515 168.058525 
L 313.40054 169.990474 
L 319.425571 172.924676 
L 320.630577 173.60319 
L 324.245595 175.2102 
L 326.655607 176.380094 
L 331.475632 178.31005 
L 336.295656 180.25637 
L 341.115681 181.778436 
L 344.730699 183.301955 
L 347.140712 184.410883 
L 353.165742 186.655211 
L 354.370748 187.233288 
L 357.985767 188.435752 
L 359.190773 188.957887 
L 362.805791 189.964189 
L 364.010798 190.256775 
L 370.035828 192.267992 
L 377.265865 194.534792 
L 378.470871 194.97172 
L 380.880883 195.618291 
L 383.290896 196.567916 
L 385.700908 197.117185 
L 388.11092 197.940003 
L 390.520933 198.475475 
L 398.955975 201.122892 
L 400.160982 201.667099 
L 402.570994 202.190861 
L 403.776 202.674263 
L 406.186012 203.263879 
L 412.211043 204.953235 
L 415.826061 205.952267 
L 419.44108 207.07722 
L 423.056098 207.822028 
L 424.261104 208.32069 
L 425.33725 208.622479 
L 425.33725 208.622479 
" clip-path="url(#pb21ee06670)" style="fill: none; stroke: #e377c2; stroke-width: 1.5; stroke-linecap: square"/>
    </g>
    <g id="line2d_72">
     <path d="M 402.570994 220.6192 
L 402.570994 74.2576 
" clip-path="url(#pb21ee06670)" style="fill: none; stroke-dasharray: 5.55,2.4; stroke-dashoffset: 0; stroke: #e377c2; stroke-width: 1.5"/>
    </g>
    <g id="patch_8">
     <path d="M 207.36 220.6192 
L 207.36 74.2576 
" style="fill: none; stroke: #000000; stroke-width: 2; stroke-linejoin: miter; stroke-linecap: square"/>
    </g>
    <g id="patch_9">
     <path d="M 403.776 220.6192 
L 403.776 74.2576 
" style="fill: none; stroke: #000000; stroke-width: 2; stroke-linejoin: miter; stroke-linecap: square"/>
    </g>
    <g id="patch_10">
     <path d="M 207.36 220.6192 
L 403.776 220.6192 
" style="fill: none; stroke: #000000; stroke-width: 2; stroke-linejoin: miter; stroke-linecap: square"/>
    </g>
    <g id="patch_11">
     <path d="M 207.36 74.2576 
L 403.776 74.2576 
" style="fill: none; stroke: #000000; stroke-width: 2; stroke-linejoin: miter; stroke-linecap: square"/>
    </g>
   </g>
   <g id="legend_1">
    <g id="patch_12">
     <path d="M 43.833219 54.278125 
L 412.934781 54.278125 
Q 414.934781 54.278125 414.934781 52.278125 
L 414.934781 9.2 
Q 414.934781 7.2 412.934781 7.2 
L 43.833219 7.2 
Q 41.833219 7.2 41.833219 9.2 
L 41.833219 52.278125 
Q 41.833219 54.278125 43.833219 54.278125 
z
" style="fill: #ffffff; opacity: 0.8; stroke: #cccccc; stroke-linejoin: miter"/>
    </g>
    <g id="line2d_73">
     <path d="M 45.833219 15.298437 
L 55.833219 15.298437 
L 65.833219 15.298437 
" style="fill: none; stroke: #1f77b4; stroke-width: 2; stroke-linecap: square"/>
     <g>
      <use xlink:href="#mab99fcdc90" x="55.833219" y="15.298437" style="fill: #1f77b4; stroke: #1f77b4"/>
     </g>
    </g>
    <g id="text_23">
     <!-- $\kappa$ = 0.02 -->
     <g transform="translate(73.833219 18.798437) scale(0.1 -0.1)">
      <defs>
       <path id="DejaVuSans-Oblique-3ba" d="M 938 3500 
L 1531 3500 
L 1247 2047 
L 3041 3500 
L 3741 3500 
L 2106 2181 
L 3275 0 
L 2572 0 
L 1628 1806 
L 1122 1403 
L 850 0 
L 256 0 
L 938 3500 
z
" transform="scale(0.015625)"/>
       <path id="DejaVuSans-20" transform="scale(0.015625)"/>
       <path id="DejaVuSans-3d" d="M 678 2906 
L 4684 2906 
L 4684 2381 
L 678 2381 
L 678 2906 
z
M 678 1631 
L 4684 1631 
L 4684 1100 
L 678 1100 
L 678 1631 
z
" transform="scale(0.015625)"/>
      </defs>
      <use xlink:href="#DejaVuSans-Oblique-3ba" transform="translate(0 0.78125)"/>
      <use xlink:href="#DejaVuSans-20" transform="translate(58.935547 0.78125)"/>
      <use xlink:href="#DejaVuSans-3d" transform="translate(90.722656 0.78125)"/>
      <use xlink:href="#DejaVuSans-20" transform="translate(174.511719 0.78125)"/>
      <use xlink:href="#DejaVuSans-30" transform="translate(206.298828 0.78125)"/>
      <use xlink:href="#DejaVuSans-2e" transform="translate(269.921875 0.78125)"/>
      <use xlink:href="#DejaVuSans-30" transform="translate(301.708984 0.78125)"/>
      <use xlink:href="#DejaVuSans-32" transform="translate(365.332031 0.78125)"/>
     </g>
    </g>
    <g id="line2d_74">
     <path d="M 45.833219 29.978125 
L 55.833219 29.978125 
L 65.833219 29.978125 
" style="fill: none; stroke: #ff7f0e; stroke-width: 2; stroke-linecap: square"/>
     <g>
      <use xlink:href="#m95e97882b3" x="55.833219" y="29.978125" style="fill: #ff7f0e; stroke: #ff7f0e; stroke-linejoin: miter"/>
     </g>
    </g>
    <g id="text_24">
     <!-- Constant-edge ($\alpha$ = 0.241) -->
     <g transform="translate(73.833219 33.478125) scale(0.1 -0.1)">
      <defs>
       <path id="DejaVuSans-43" d="M 4122 4306 
L 4122 3641 
Q 3803 3938 3442 4084 
Q 3081 4231 2675 4231 
Q 1875 4231 1450 3742 
Q 1025 3253 1025 2328 
Q 1025 1406 1450 917 
Q 1875 428 2675 428 
Q 3081 428 3442 575 
Q 3803 722 4122 1019 
L 4122 359 
Q 3791 134 3420 21 
Q 3050 -91 2638 -91 
Q 1578 -91 968 557 
Q 359 1206 359 2328 
Q 359 3453 968 4101 
Q 1578 4750 2638 4750 
Q 3056 4750 3426 4639 
Q 3797 4528 4122 4306 
z
" transform="scale(0.015625)"/>
       <path id="DejaVuSans-6f" d="M 1959 3097 
Q 1497 3097 1228 2736 
Q 959 2375 959 1747 
Q 959 1119 1226 758 
Q 1494 397 1959 397 
Q 2419 397 2687 759 
Q 2956 1122 2956 1747 
Q 2956 2369 2687 2733 
Q 2419 3097 1959 3097 
z
M 1959 3584 
Q 2709 3584 3137 3096 
Q 3566 2609 3566 1747 
Q 3566 888 3137 398 
Q 2709 -91 1959 -91 
Q 1206 -91 779 398 
Q 353 888 353 1747 
Q 353 2609 779 3096 
Q 1206 3584 1959 3584 
z
" transform="scale(0.015625)"/>
       <path id="DejaVuSans-6e" d="M 3513 2113 
L 3513 0 
L 2938 0 
L 2938 2094 
Q 2938 2591 2744 2837 
Q 2550 3084 2163 3084 
Q 1697 3084 1428 2787 
Q 1159 2491 1159 1978 
L 1159 0 
L 581 0 
L 581 3500 
L 1159 3500 
L 1159 2956 
Q 1366 3272 1645 3428 
Q 1925 3584 2291 3584 
Q 2894 3584 3203 3211 
Q 3513 2838 3513 2113 
z
" transform="scale(0.015625)"/>
       <path id="DejaVuSans-73" d="M 2834 3397 
L 2834 2853 
Q 2591 2978 2328 3040 
Q 2066 3103 1784 3103 
Q 1356 3103 1142 2972 
Q 928 2841 928 2578 
Q 928 2378 1081 2264 
Q 1234 2150 1697 2047 
L 1894 2003 
Q 2506 1872 2764 1633 
Q 3022 1394 3022 966 
Q 3022 478 2636 193 
Q 2250 -91 1575 -91 
Q 1294 -91 989 -36 
Q 684 19 347 128 
L 347 722 
Q 666 556 975 473 
Q 1284 391 1588 391 
Q 1994 391 2212 530 
Q 2431 669 2431 922 
Q 2431 1156 2273 1281 
Q 2116 1406 1581 1522 
L 1381 1569 
Q 847 1681 609 1914 
Q 372 2147 372 2553 
Q 372 3047 722 3315 
Q 1072 3584 1716 3584 
Q 2034 3584 2315 3537 
Q 2597 3491 2834 3397 
z
" transform="scale(0.015625)"/>
       <path id="DejaVuSans-74" d="M 1172 4494 
L 1172 3500 
L 2356 3500 
L 2356 3053 
L 1172 3053 
L 1172 1153 
Q 1172 725 1289 603 
Q 1406 481 1766 481 
L 2356 481 
L 2356 0 
L 1766 0 
Q 1100 0 847 248 
Q 594 497 594 1153 
L 594 3053 
L 172 3053 
L 172 3500 
L 594 3500 
L 594 4494 
L 1172 4494 
z
" transform="scale(0.015625)"/>
       <path id="DejaVuSans-61" d="M 2194 1759 
Q 1497 1759 1228 1600 
Q 959 1441 959 1056 
Q 959 750 1161 570 
Q 1363 391 1709 391 
Q 2188 391 2477 730 
Q 2766 1069 2766 1631 
L 2766 1759 
L 2194 1759 
z
M 3341 1997 
L 3341 0 
L 2766 0 
L 2766 531 
Q 2569 213 2275 61 
Q 1981 -91 1556 -91 
Q 1019 -91 701 211 
Q 384 513 384 1019 
Q 384 1609 779 1909 
Q 1175 2209 1959 2209 
L 2766 2209 
L 2766 2266 
Q 2766 2663 2505 2880 
Q 2244 3097 1772 3097 
Q 1472 3097 1187 3025 
Q 903 2953 641 2809 
L 641 3341 
Q 956 3463 1253 3523 
Q 1550 3584 1831 3584 
Q 2591 3584 2966 3190 
Q 3341 2797 3341 1997 
z
" transform="scale(0.015625)"/>
       <path id="DejaVuSans-2d" d="M 313 2009 
L 1997 2009 
L 1997 1497 
L 313 1497 
L 313 2009 
z
" transform="scale(0.015625)"/>
       <path id="DejaVuSans-65" d="M 3597 1894 
L 3597 1613 
L 953 1613 
Q 991 1019 1311 708 
Q 1631 397 2203 397 
Q 2534 397 2845 478 
Q 3156 559 3463 722 
L 3463 178 
Q 3153 47 2828 -22 
Q 2503 -91 2169 -91 
Q 1331 -91 842 396 
Q 353 884 353 1716 
Q 353 2575 817 3079 
Q 1281 3584 2069 3584 
Q 2775 3584 3186 3129 
Q 3597 2675 3597 1894 
z
M 3022 2063 
Q 3016 2534 2758 2815 
Q 2500 3097 2075 3097 
Q 1594 3097 1305 2825 
Q 1016 2553 972 2059 
L 3022 2063 
z
" transform="scale(0.015625)"/>
       <path id="DejaVuSans-64" d="M 2906 2969 
L 2906 4863 
L 3481 4863 
L 3481 0 
L 2906 0 
L 2906 525 
Q 2725 213 2448 61 
Q 2172 -91 1784 -91 
Q 1150 -91 751 415 
Q 353 922 353 1747 
Q 353 2572 751 3078 
Q 1150 3584 1784 3584 
Q 2172 3584 2448 3432 
Q 2725 3281 2906 2969 
z
M 947 1747 
Q 947 1113 1208 752 
Q 1469 391 1925 391 
Q 2381 391 2643 752 
Q 2906 1113 2906 1747 
Q 2906 2381 2643 2742 
Q 2381 3103 1925 3103 
Q 1469 3103 1208 2742 
Q 947 2381 947 1747 
z
" transform="scale(0.015625)"/>
       <path id="DejaVuSans-67" d="M 2906 1791 
Q 2906 2416 2648 2759 
Q 2391 3103 1925 3103 
Q 1463 3103 1205 2759 
Q 947 2416 947 1791 
Q 947 1169 1205 825 
Q 1463 481 1925 481 
Q 2391 481 2648 825 
Q 2906 1169 2906 1791 
z
M 3481 434 
Q 3481 -459 3084 -895 
Q 2688 -1331 1869 -1331 
Q 1566 -1331 1297 -1286 
Q 1028 -1241 775 -1147 
L 775 -588 
Q 1028 -725 1275 -790 
Q 1522 -856 1778 -856 
Q 2344 -856 2625 -561 
Q 2906 -266 2906 331 
L 2906 616 
Q 2728 306 2450 153 
Q 2172 0 1784 0 
Q 1141 0 747 490 
Q 353 981 353 1791 
Q 353 2603 747 3093 
Q 1141 3584 1784 3584 
Q 2172 3584 2450 3431 
Q 2728 3278 2906 2969 
L 2906 3500 
L 3481 3500 
L 3481 434 
z
" transform="scale(0.015625)"/>
       <path id="DejaVuSans-28" d="M 1984 4856 
Q 1566 4138 1362 3434 
Q 1159 2731 1159 2009 
Q 1159 1288 1364 580 
Q 1569 -128 1984 -844 
L 1484 -844 
Q 1016 -109 783 600 
Q 550 1309 550 2009 
Q 550 2706 781 3412 
Q 1013 4119 1484 4856 
L 1984 4856 
z
" transform="scale(0.015625)"/>
       <path id="DejaVuSans-Oblique-3b1" d="M 2619 1628 
L 2622 2350 
Q 2625 3088 2069 3091 
Q 1653 3094 1394 2747 
Q 1069 2319 959 1747 
Q 825 1059 994 731 
Q 1169 397 1547 397 
Q 1966 397 2319 1063 
L 2619 1628 
z
M 2166 3578 
Q 3141 3594 3128 2584 
Q 3128 2584 3616 3500 
L 4128 3500 
L 3119 1603 
L 3109 919 
Q 3109 766 3194 638 
Q 3291 488 3391 488 
L 3669 488 
L 3575 0 
L 3228 0 
Q 2934 0 2722 263 
Q 2622 394 2619 669 
Q 2416 334 2066 50 
Q 1900 -81 1453 -78 
Q 722 -72 456 397 
Q 184 884 353 1747 
Q 534 2675 1009 3097 
Q 1544 3569 2166 3578 
z
" transform="scale(0.015625)"/>
       <path id="DejaVuSans-29" d="M 513 4856 
L 1013 4856 
Q 1481 4119 1714 3412 
Q 1947 2706 1947 2009 
Q 1947 1309 1714 600 
Q 1481 -109 1013 -844 
L 513 -844 
Q 928 -128 1133 580 
Q 1338 1288 1338 2009 
Q 1338 2731 1133 3434 
Q 928 4138 513 4856 
z
" transform="scale(0.015625)"/>
      </defs>
      <use xlink:href="#DejaVuSans-43" transform="translate(0 0.015625)"/>
      <use xlink:href="#DejaVuSans-6f" transform="translate(69.824219 0.015625)"/>
      <use xlink:href="#DejaVuSans-6e" transform="translate(131.005859 0.015625)"/>
      <use xlink:href="#DejaVuSans-73" transform="translate(194.384766 0.015625)"/>
      <use xlink:href="#DejaVuSans-74" transform="translate(246.484375 0.015625)"/>
      <use xlink:href="#DejaVuSans-61" transform="translate(285.693359 0.015625)"/>
      <use xlink:href="#DejaVuSans-6e" transform="translate(346.972656 0.015625)"/>
      <use xlink:href="#DejaVuSans-74" transform="translate(410.351562 0.015625)"/>
      <use xlink:href="#DejaVuSans-2d" transform="translate(449.560547 0.015625)"/>
      <use xlink:href="#DejaVuSans-65" transform="translate(485.644531 0.015625)"/>
      <use xlink:href="#DejaVuSans-64" transform="translate(547.167969 0.015625)"/>
      <use xlink:href="#DejaVuSans-67" transform="translate(610.644531 0.015625)"/>
      <use xlink:href="#DejaVuSans-65" transform="translate(674.121094 0.015625)"/>
      <use xlink:href="#DejaVuSans-20" transform="translate(735.644531 0.015625)"/>
      <use xlink:href="#DejaVuSans-28" transform="translate(767.431641 0.015625)"/>
      <use xlink:href="#DejaVuSans-Oblique-3b1" transform="translate(806.445312 0.015625)"/>
      <use xlink:href="#DejaVuSans-20" transform="translate(872.363281 0.015625)"/>
      <use xlink:href="#DejaVuSans-3d" transform="translate(904.150391 0.015625)"/>
      <use xlink:href="#DejaVuSans-20" transform="translate(987.939453 0.015625)"/>
      <use xlink:href="#DejaVuSans-30" transform="translate(1019.726562 0.015625)"/>
      <use xlink:href="#DejaVuSans-2e" transform="translate(1083.349609 0.015625)"/>
      <use xlink:href="#DejaVuSans-32" transform="translate(1109.636719 0.015625)"/>
      <use xlink:href="#DejaVuSans-34" transform="translate(1173.259766 0.015625)"/>
      <use xlink:href="#DejaVuSans-31" transform="translate(1236.882812 0.015625)"/>
      <use xlink:href="#DejaVuSans-29" transform="translate(1300.505859 0.015625)"/>
     </g>
    </g>
    <g id="line2d_75">
     <path d="M 45.833219 44.678125 
L 55.833219 44.678125 
L 65.833219 44.678125 
" style="fill: none; stroke: #2ca02c; stroke-width: 2; stroke-linecap: square"/>
     <g>
      <use xlink:href="#m5465cf3df0" x="55.833219" y="44.678125" style="fill: #2ca02c; stroke: #2ca02c; stroke-linejoin: miter"/>
     </g>
    </g>
    <g id="text_25">
     <!-- Maximum-degree ($\alpha$ = 0.167) -->
     <g transform="translate(73.833219 48.178125) scale(0.1 -0.1)">
      <defs>
       <path id="DejaVuSans-4d" d="M 628 4666 
L 1569 4666 
L 2759 1491 
L 3956 4666 
L 4897 4666 
L 4897 0 
L 4281 0 
L 4281 4097 
L 3078 897 
L 2444 897 
L 1241 4097 
L 1241 0 
L 628 0 
L 628 4666 
z
" transform="scale(0.015625)"/>
       <path id="DejaVuSans-78" d="M 3513 3500 
L 2247 1797 
L 3578 0 
L 2900 0 
L 1881 1375 
L 863 0 
L 184 0 
L 1544 1831 
L 300 3500 
L 978 3500 
L 1906 2253 
L 2834 3500 
L 3513 3500 
z
" transform="scale(0.015625)"/>
       <path id="DejaVuSans-69" d="M 603 3500 
L 1178 3500 
L 1178 0 
L 603 0 
L 603 3500 
z
M 603 4863 
L 1178 4863 
L 1178 4134 
L 603 4134 
L 603 4863 
z
" transform="scale(0.015625)"/>
       <path id="DejaVuSans-6d" d="M 3328 2828 
Q 3544 3216 3844 3400 
Q 4144 3584 4550 3584 
Q 5097 3584 5394 3201 
Q 5691 2819 5691 2113 
L 5691 0 
L 5113 0 
L 5113 2094 
Q 5113 2597 4934 2840 
Q 4756 3084 4391 3084 
Q 3944 3084 3684 2787 
Q 3425 2491 3425 1978 
L 3425 0 
L 2847 0 
L 2847 2094 
Q 2847 2600 2669 2842 
Q 2491 3084 2119 3084 
Q 1678 3084 1418 2786 
Q 1159 2488 1159 1978 
L 1159 0 
L 581 0 
L 581 3500 
L 1159 3500 
L 1159 2956 
Q 1356 3278 1631 3431 
Q 1906 3584 2284 3584 
Q 2666 3584 2933 3390 
Q 3200 3197 3328 2828 
z
" transform="scale(0.015625)"/>
       <path id="DejaVuSans-75" d="M 544 1381 
L 544 3500 
L 1119 3500 
L 1119 1403 
Q 1119 906 1312 657 
Q 1506 409 1894 409 
Q 2359 409 2629 706 
Q 2900 1003 2900 1516 
L 2900 3500 
L 3475 3500 
L 3475 0 
L 2900 0 
L 2900 538 
Q 2691 219 2414 64 
Q 2138 -91 1772 -91 
Q 1169 -91 856 284 
Q 544 659 544 1381 
z
M 1991 3584 
L 1991 3584 
z
" transform="scale(0.015625)"/>
       <path id="DejaVuSans-72" d="M 2631 2963 
Q 2534 3019 2420 3045 
Q 2306 3072 2169 3072 
Q 1681 3072 1420 2755 
Q 1159 2438 1159 1844 
L 1159 0 
L 581 0 
L 581 3500 
L 1159 3500 
L 1159 2956 
Q 1341 3275 1631 3429 
Q 1922 3584 2338 3584 
Q 2397 3584 2469 3576 
Q 2541 3569 2628 3553 
L 2631 2963 
z
" transform="scale(0.015625)"/>
      </defs>
      <use xlink:href="#DejaVuSans-4d" transform="translate(0 0.015625)"/>
      <use xlink:href="#DejaVuSans-61" transform="translate(86.279297 0.015625)"/>
      <use xlink:href="#DejaVuSans-78" transform="translate(147.558594 0.015625)"/>
      <use xlink:href="#DejaVuSans-69" transform="translate(206.738281 0.015625)"/>
      <use xlink:href="#DejaVuSans-6d" transform="translate(234.521484 0.015625)"/>
      <use xlink:href="#DejaVuSans-75" transform="translate(331.933594 0.015625)"/>
      <use xlink:href="#DejaVuSans-6d" transform="translate(395.3125 0.015625)"/>
      <use xlink:href="#DejaVuSans-2d" transform="translate(490.974609 0.015625)"/>
      <use xlink:href="#DejaVuSans-64" transform="translate(527.058594 0.015625)"/>
      <use xlink:href="#DejaVuSans-65" transform="translate(590.535156 0.015625)"/>
      <use xlink:href="#DejaVuSans-67" transform="translate(652.058594 0.015625)"/>
      <use xlink:href="#DejaVuSans-72" transform="translate(715.535156 0.015625)"/>
      <use xlink:href="#DejaVuSans-65" transform="translate(756.648438 0.015625)"/>
      <use xlink:href="#DejaVuSans-65" transform="translate(818.171875 0.015625)"/>
      <use xlink:href="#DejaVuSans-20" transform="translate(879.695312 0.015625)"/>
      <use xlink:href="#DejaVuSans-28" transform="translate(911.482422 0.015625)"/>
      <use xlink:href="#DejaVuSans-Oblique-3b1" transform="translate(950.496094 0.015625)"/>
      <use xlink:href="#DejaVuSans-20" transform="translate(1016.414062 0.015625)"/>
      <use xlink:href="#DejaVuSans-3d" transform="translate(1048.201172 0.015625)"/>
      <use xlink:href="#DejaVuSans-20" transform="translate(1131.990234 0.015625)"/>
      <use xlink:href="#DejaVuSans-30" transform="translate(1163.777344 0.015625)"/>
      <use xlink:href="#DejaVuSans-2e" transform="translate(1227.400391 0.015625)"/>
      <use xlink:href="#DejaVuSans-31" transform="translate(1259.1875 0.015625)"/>
      <use xlink:href="#DejaVuSans-36" transform="translate(1322.810547 0.015625)"/>
      <use xlink:href="#DejaVuSans-37" transform="translate(1386.433594 0.015625)"/>
      <use xlink:href="#DejaVuSans-29" transform="translate(1450.056641 0.015625)"/>
     </g>
    </g>
    <g id="line2d_76">
     <path d="M 242.833219 15.298437 
L 252.833219 15.298437 
L 262.833219 15.298437 
" style="fill: none; stroke: #d62728; stroke-width: 2; stroke-linecap: square"/>
     <g>
      <use xlink:href="#maf917fde2d" x="252.833219" y="15.298437" style="fill: #d62728; stroke: #d62728"/>
     </g>
    </g>
    <g id="text_26">
     <!-- Local-degree -->
     <g transform="translate(270.833219 18.798437) scale(0.1 -0.1)">
      <defs>
       <path id="DejaVuSans-4c" d="M 628 4666 
L 1259 4666 
L 1259 531 
L 3531 531 
L 3531 0 
L 628 0 
L 628 4666 
z
" transform="scale(0.015625)"/>
       <path id="DejaVuSans-63" d="M 3122 3366 
L 3122 2828 
Q 2878 2963 2633 3030 
Q 2388 3097 2138 3097 
Q 1578 3097 1268 2742 
Q 959 2388 959 1747 
Q 959 1106 1268 751 
Q 1578 397 2138 397 
Q 2388 397 2633 464 
Q 2878 531 3122 666 
L 3122 134 
Q 2881 22 2623 -34 
Q 2366 -91 2075 -91 
Q 1284 -91 818 406 
Q 353 903 353 1747 
Q 353 2603 823 3093 
Q 1294 3584 2113 3584 
Q 2378 3584 2631 3529 
Q 2884 3475 3122 3366 
z
" transform="scale(0.015625)"/>
       <path id="DejaVuSans-6c" d="M 603 4863 
L 1178 4863 
L 1178 0 
L 603 0 
L 603 4863 
z
" transform="scale(0.015625)"/>
      </defs>
      <use xlink:href="#DejaVuSans-4c"/>
      <use xlink:href="#DejaVuSans-6f" x="53.962891"/>
      <use xlink:href="#DejaVuSans-63" x="115.144531"/>
      <use xlink:href="#DejaVuSans-61" x="170.125"/>
      <use xlink:href="#DejaVuSans-6c" x="231.404297"/>
      <use xlink:href="#DejaVuSans-2d" x="259.1875"/>
      <use xlink:href="#DejaVuSans-64" x="295.271484"/>
      <use xlink:href="#DejaVuSans-65" x="358.748047"/>
      <use xlink:href="#DejaVuSans-67" x="420.271484"/>
      <use xlink:href="#DejaVuSans-72" x="483.748047"/>
      <use xlink:href="#DejaVuSans-65" x="522.611328"/>
      <use xlink:href="#DejaVuSans-65" x="584.134766"/>
     </g>
    </g>
    <g id="line2d_77">
     <path d="M 242.833219 29.976562 
L 252.833219 29.976562 
L 262.833219 29.976562 
" style="fill: none; stroke: #9467bd; stroke-width: 2; stroke-linecap: square"/>
     <g>
      <use xlink:href="#me568b10581" x="252.833219" y="29.976562" style="fill: #9467bd; stroke: #9467bd; stroke-linejoin: miter"/>
     </g>
    </g>
    <g id="text_27">
     <!-- FMMC -->
     <g transform="translate(270.833219 33.476562) scale(0.1 -0.1)">
      <defs>
       <path id="DejaVuSans-46" d="M 628 4666 
L 3309 4666 
L 3309 4134 
L 1259 4134 
L 1259 2759 
L 3109 2759 
L 3109 2228 
L 1259 2228 
L 1259 0 
L 628 0 
L 628 4666 
z
" transform="scale(0.015625)"/>
      </defs>
      <use xlink:href="#DejaVuSans-46"/>
      <use xlink:href="#DejaVuSans-4d" x="57.519531"/>
      <use xlink:href="#DejaVuSans-4d" x="143.798828"/>
      <use xlink:href="#DejaVuSans-43" x="230.078125"/>
     </g>
    </g>
    <g id="line2d_78">
     <path d="M 355.403531 15.298437 
L 365.403531 15.298437 
L 375.403531 15.298437 
" style="fill: none; stroke: #8c564b; stroke-width: 2; stroke-linecap: square"/>
     <g>
      <use xlink:href="#m6eda77f2e5" x="365.403531" y="15.298437" style="fill: #8c564b; stroke: #8c564b; stroke-linejoin: miter"/>
     </g>
    </g>
    <g id="text_28">
     <!-- FDLA -->
     <g transform="translate(383.403531 18.798437) scale(0.1 -0.1)">
      <defs>
       <path id="DejaVuSans-44" d="M 1259 4147 
L 1259 519 
L 2022 519 
Q 2988 519 3436 956 
Q 3884 1394 3884 2338 
Q 3884 3275 3436 3711 
Q 2988 4147 2022 4147 
L 1259 4147 
z
M 628 4666 
L 1925 4666 
Q 3281 4666 3915 4102 
Q 4550 3538 4550 2338 
Q 4550 1131 3912 565 
Q 3275 0 1925 0 
L 628 0 
L 628 4666 
z
" transform="scale(0.015625)"/>
       <path id="DejaVuSans-41" d="M 2188 4044 
L 1331 1722 
L 3047 1722 
L 2188 4044 
z
M 1831 4666 
L 2547 4666 
L 4325 0 
L 3669 0 
L 3244 1197 
L 1141 1197 
L 716 0 
L 50 0 
L 1831 4666 
z
" transform="scale(0.015625)"/>
      </defs>
      <use xlink:href="#DejaVuSans-46"/>
      <use xlink:href="#DejaVuSans-44" x="57.519531"/>
      <use xlink:href="#DejaVuSans-4c" x="134.521484"/>
      <use xlink:href="#DejaVuSans-41" x="192.484375"/>
     </g>
    </g>
    <g id="line2d_79">
     <path d="M 355.403531 29.976562 
L 365.403531 29.976562 
L 375.403531 29.976562 
" style="fill: none; stroke: #e377c2; stroke-width: 2; stroke-linecap: square"/>
     <g>
      <use xlink:href="#m050d50e00a" x="365.403531" y="29.976562" style="fill: #e377c2; stroke: #e377c2"/>
     </g>
    </g>
    <g id="text_29">
     <!-- LMSC -->
     <g transform="translate(383.403531 33.476562) scale(0.1 -0.1)">
      <defs>
       <path id="DejaVuSans-53" d="M 3425 4513 
L 3425 3897 
Q 3066 4069 2747 4153 
Q 2428 4238 2131 4238 
Q 1616 4238 1336 4038 
Q 1056 3838 1056 3469 
Q 1056 3159 1242 3001 
Q 1428 2844 1947 2747 
L 2328 2669 
Q 3034 2534 3370 2195 
Q 3706 1856 3706 1288 
Q 3706 609 3251 259 
Q 2797 -91 1919 -91 
Q 1588 -91 1214 -16 
Q 841 59 441 206 
L 441 856 
Q 825 641 1194 531 
Q 1563 422 1919 422 
Q 2459 422 2753 634 
Q 3047 847 3047 1241 
Q 3047 1584 2836 1778 
Q 2625 1972 2144 2069 
L 1759 2144 
Q 1053 2284 737 2584 
Q 422 2884 422 3419 
Q 422 4038 858 4394 
Q 1294 4750 2059 4750 
Q 2388 4750 2728 4690 
Q 3069 4631 3425 4513 
z
" transform="scale(0.015625)"/>
      </defs>
      <use xlink:href="#DejaVuSans-4c"/>
      <use xlink:href="#DejaVuSans-4d" x="55.712891"/>
      <use xlink:href="#DejaVuSans-53" x="141.992188"/>
      <use xlink:href="#DejaVuSans-43" x="205.46875"/>
     </g>
    </g>
   </g>
  </g>
  <g id="patch_13">
   <path d="M 332.060852 304.427028 
Q 269.710426 262.523114 207.36 220.6192 
" style="fill: none; stroke: #000000; stroke-linecap: round"/>
  </g>
  <g id="text_30">
   <!-- Timesteps -->
   <g transform="translate(197.599313 359.128375) scale(0.12 -0.12)">
    <defs>
     <path id="DejaVuSans-54" d="M -19 4666 
L 3928 4666 
L 3928 4134 
L 2272 4134 
L 2272 0 
L 1638 0 
L 1638 4134 
L -19 4134 
L -19 4666 
z
" transform="scale(0.015625)"/>
     <path id="DejaVuSans-70" d="M 1159 525 
L 1159 -1331 
L 581 -1331 
L 581 3500 
L 1159 3500 
L 1159 2969 
Q 1341 3281 1617 3432 
Q 1894 3584 2278 3584 
Q 2916 3584 3314 3078 
Q 3713 2572 3713 1747 
Q 3713 922 3314 415 
Q 2916 -91 2278 -91 
Q 1894 -91 1617 61 
Q 1341 213 1159 525 
z
M 3116 1747 
Q 3116 2381 2855 2742 
Q 2594 3103 2138 3103 
Q 1681 3103 1420 2742 
Q 1159 2381 1159 1747 
Q 1159 1113 1420 752 
Q 1681 391 2138 391 
Q 2594 391 2855 752 
Q 3116 1113 3116 1747 
z
" transform="scale(0.015625)"/>
    </defs>
    <use xlink:href="#DejaVuSans-54"/>
    <use xlink:href="#DejaVuSans-69" x="57.958984"/>
    <use xlink:href="#DejaVuSans-6d" x="85.742188"/>
    <use xlink:href="#DejaVuSans-65" x="183.154297"/>
    <use xlink:href="#DejaVuSans-73" x="244.677734"/>
    <use xlink:href="#DejaVuSans-74" x="296.777344"/>
    <use xlink:href="#DejaVuSans-65" x="335.986328"/>
    <use xlink:href="#DejaVuSans-70" x="397.509766"/>
    <use xlink:href="#DejaVuSans-73" x="460.986328"/>
   </g>
  </g>
  <g id="text_31">
   <!-- Mean estimate error for the best arm -->
   <g transform="translate(16.318125 303.952187) rotate(-90) scale(0.12 -0.12)">
    <defs>
     <path id="DejaVuSans-66" d="M 2375 4863 
L 2375 4384 
L 1825 4384 
Q 1516 4384 1395 4259 
Q 1275 4134 1275 3809 
L 1275 3500 
L 2222 3500 
L 2222 3053 
L 1275 3053 
L 1275 0 
L 697 0 
L 697 3053 
L 147 3053 
L 147 3500 
L 697 3500 
L 697 3744 
Q 697 4328 969 4595 
Q 1241 4863 1831 4863 
L 2375 4863 
z
" transform="scale(0.015625)"/>
     <path id="DejaVuSans-68" d="M 3513 2113 
L 3513 0 
L 2938 0 
L 2938 2094 
Q 2938 2591 2744 2837 
Q 2550 3084 2163 3084 
Q 1697 3084 1428 2787 
Q 1159 2491 1159 1978 
L 1159 0 
L 581 0 
L 581 4863 
L 1159 4863 
L 1159 2956 
Q 1366 3272 1645 3428 
Q 1925 3584 2291 3584 
Q 2894 3584 3203 3211 
Q 3513 2838 3513 2113 
z
" transform="scale(0.015625)"/>
     <path id="DejaVuSans-62" d="M 3116 1747 
Q 3116 2381 2855 2742 
Q 2594 3103 2138 3103 
Q 1681 3103 1420 2742 
Q 1159 2381 1159 1747 
Q 1159 1113 1420 752 
Q 1681 391 2138 391 
Q 2594 391 2855 752 
Q 3116 1113 3116 1747 
z
M 1159 2969 
Q 1341 3281 1617 3432 
Q 1894 3584 2278 3584 
Q 2916 3584 3314 3078 
Q 3713 2572 3713 1747 
Q 3713 922 3314 415 
Q 2916 -91 2278 -91 
Q 1894 -91 1617 61 
Q 1341 213 1159 525 
L 1159 0 
L 581 0 
L 581 4863 
L 1159 4863 
L 1159 2969 
z
" transform="scale(0.015625)"/>
    </defs>
    <use xlink:href="#DejaVuSans-4d"/>
    <use xlink:href="#DejaVuSans-65" x="86.279297"/>
    <use xlink:href="#DejaVuSans-61" x="147.802734"/>
    <use xlink:href="#DejaVuSans-6e" x="209.082031"/>
    <use xlink:href="#DejaVuSans-20" x="272.460938"/>
    <use xlink:href="#DejaVuSans-65" x="304.248047"/>
    <use xlink:href="#DejaVuSans-73" x="365.771484"/>
    <use xlink:href="#DejaVuSans-74" x="417.871094"/>
    <use xlink:href="#DejaVuSans-69" x="457.080078"/>
    <use xlink:href="#DejaVuSans-6d" x="484.863281"/>
    <use xlink:href="#DejaVuSans-61" x="582.275391"/>
    <use xlink:href="#DejaVuSans-74" x="643.554688"/>
    <use xlink:href="#DejaVuSans-65" x="682.763672"/>
    <use xlink:href="#DejaVuSans-20" x="744.287109"/>
    <use xlink:href="#DejaVuSans-65" x="776.074219"/>
    <use xlink:href="#DejaVuSans-72" x="837.597656"/>
    <use xlink:href="#DejaVuSans-72" x="876.960938"/>
    <use xlink:href="#DejaVuSans-6f" x="915.824219"/>
    <use xlink:href="#DejaVuSans-72" x="977.005859"/>
    <use xlink:href="#DejaVuSans-20" x="1018.119141"/>
    <use xlink:href="#DejaVuSans-66" x="1049.90625"/>
    <use xlink:href="#DejaVuSans-6f" x="1085.111328"/>
    <use xlink:href="#DejaVuSans-72" x="1146.292969"/>
    <use xlink:href="#DejaVuSans-20" x="1187.40625"/>
    <use xlink:href="#DejaVuSans-74" x="1219.193359"/>
    <use xlink:href="#DejaVuSans-68" x="1258.402344"/>
    <use xlink:href="#DejaVuSans-65" x="1321.78125"/>
    <use xlink:href="#DejaVuSans-20" x="1383.304688"/>
    <use xlink:href="#DejaVuSans-62" x="1415.091797"/>
    <use xlink:href="#DejaVuSans-65" x="1478.568359"/>
    <use xlink:href="#DejaVuSans-73" x="1540.091797"/>
    <use xlink:href="#DejaVuSans-74" x="1592.191406"/>
    <use xlink:href="#DejaVuSans-20" x="1631.400391"/>
    <use xlink:href="#DejaVuSans-61" x="1663.1875"/>
    <use xlink:href="#DejaVuSans-72" x="1724.466797"/>
    <use xlink:href="#DejaVuSans-6d" x="1763.830078"/>
   </g>
  </g>
 </g>
 <defs>
  <clipPath id="p488fb3e429">
   <rect x="55.584" y="60.952" width="357.12" height="266.112"/>
  </clipPath>
  <clipPath id="pb21ee06670">
   <rect x="207.36" y="74.2576" width="196.416" height="146.3616"/>
  </clipPath>
 </defs>
</svg>
