<?xml version="1.0" encoding="utf-8" standalone="no"?>
<!DOCTYPE svg PUBLIC "-//W3C//DTD SVG 1.1//EN"
  "http://www.w3.org/Graphics/SVG/1.1/DTD/svg11.dtd">
<svg xmlns:xlink="http://www.w3.org/1999/xlink" width="422.134781pt" height="368.824pt" viewBox="0 0 422.134781 368.824" xmlns="http://www.w3.org/2000/svg" version="1.1">
 <metadata>
  <rdf:RDF xmlns:dc="http://purl.org/dc/elements/1.1/" xmlns:cc="http://creativecommons.org/ns#" xmlns:rdf="http://www.w3.org/1999/02/22-rdf-syntax-ns#">
   <cc:Work>
    <dc:type rdf:resource="http://purl.org/dc/dcmitype/StillImage"/>
    <dc:date>2024-06-06T17:01:59.948440</dc:date>
    <dc:format>image/svg+xml</dc:format>
    <dc:creator>
     <cc:Agent>
      <dc:title>Matplotlib v3.9.0, https://matplotlib.org/</dc:title>
     </cc:Agent>
    </dc:creator>
   </cc:Work>
  </rdf:RDF>
 </metadata>
 <defs>
  <style type="text/css">*{stroke-linejoin: round; stroke-linecap: butt}</style>
 </defs>
 <g id="figure_1">
  <g id="patch_1">
   <path d="M 0 368.824 
L 422.134781 368.824 
L 422.134781 0 
L 0 0 
z
" style="fill: #ffffff"/>
  </g>
  <g id="axes_1">
   <g id="patch_2">
    <path d="M 55.584 327.064 
L 412.704 327.064 
L 412.704 60.952 
L 55.584 60.952 
z
" style="fill: #ffffff"/>
   </g>
   <g id="PolyCollection_1">
    <path d="M 227.963202 304.973106 
L 227.963202 309.368273 
L 363.290147 309.368273 
L 363.290147 304.973106 
L 363.290147 304.973106 
L 227.963202 304.973106 
z
" clip-path="url(#pac36dbb3ef)" style="fill-opacity: 0.2"/>
   </g>
   <g id="matplotlib.axis_1">
    <g id="xtick_1">
     <g id="line2d_1">
      <path d="M 71.816727 327.064 
L 71.816727 60.952 
" clip-path="url(#pac36dbb3ef)" style="fill: none; stroke: #b0b0b0; stroke-width: 0.8; stroke-linecap: square"/>
     </g>
     <g id="line2d_2">
      <defs>
       <path id="meac4d9c22d" d="M 0 0 
L 0 3.5 
" style="stroke: #000000; stroke-width: 0.8"/>
      </defs>
      <g>
       <use xlink:href="#meac4d9c22d" x="71.816727" y="327.064" style="stroke: #000000; stroke-width: 0.8"/>
      </g>
     </g>
     <g id="text_1">
      <!-- 0 -->
      <g transform="translate(67.362977 344.701812) scale(0.14 -0.14)">
       <defs>
        <path id="DejaVuSans-30" d="M 2034 4250 
Q 1547 4250 1301 3770 
Q 1056 3291 1056 2328 
Q 1056 1369 1301 889 
Q 1547 409 2034 409 
Q 2525 409 2770 889 
Q 3016 1369 3016 2328 
Q 3016 3291 2770 3770 
Q 2525 4250 2034 4250 
z
M 2034 4750 
Q 2819 4750 3233 4129 
Q 3647 3509 3647 2328 
Q 3647 1150 3233 529 
Q 2819 -91 2034 -91 
Q 1250 -91 836 529 
Q 422 1150 422 2328 
Q 422 3509 836 4129 
Q 1250 4750 2034 4750 
z
" transform="scale(0.015625)"/>
       </defs>
       <use xlink:href="#DejaVuSans-30"/>
      </g>
     </g>
    </g>
    <g id="xtick_2">
     <g id="line2d_3">
      <path d="M 136.877758 327.064 
L 136.877758 60.952 
" clip-path="url(#pac36dbb3ef)" style="fill: none; stroke: #b0b0b0; stroke-width: 0.8; stroke-linecap: square"/>
     </g>
     <g id="line2d_4">
      <g>
       <use xlink:href="#meac4d9c22d" x="136.877758" y="327.064" style="stroke: #000000; stroke-width: 0.8"/>
      </g>
     </g>
     <g id="text_2">
      <!-- 100 -->
      <g transform="translate(123.516508 344.701812) scale(0.14 -0.14)">
       <defs>
        <path id="DejaVuSans-31" d="M 794 531 
L 1825 531 
L 1825 4091 
L 703 3866 
L 703 4441 
L 1819 4666 
L 2450 4666 
L 2450 531 
L 3481 531 
L 3481 0 
L 794 0 
L 794 531 
z
" transform="scale(0.015625)"/>
       </defs>
       <use xlink:href="#DejaVuSans-31"/>
       <use xlink:href="#DejaVuSans-30" x="63.623047"/>
       <use xlink:href="#DejaVuSans-30" x="127.246094"/>
      </g>
     </g>
    </g>
    <g id="xtick_3">
     <g id="line2d_5">
      <path d="M 201.93879 327.064 
L 201.93879 60.952 
" clip-path="url(#pac36dbb3ef)" style="fill: none; stroke: #b0b0b0; stroke-width: 0.8; stroke-linecap: square"/>
     </g>
     <g id="line2d_6">
      <g>
       <use xlink:href="#meac4d9c22d" x="201.93879" y="327.064" style="stroke: #000000; stroke-width: 0.8"/>
      </g>
     </g>
     <g id="text_3">
      <!-- 200 -->
      <g transform="translate(188.57754 344.701812) scale(0.14 -0.14)">
       <defs>
        <path id="DejaVuSans-32" d="M 1228 531 
L 3431 531 
L 3431 0 
L 469 0 
L 469 531 
Q 828 903 1448 1529 
Q 2069 2156 2228 2338 
Q 2531 2678 2651 2914 
Q 2772 3150 2772 3378 
Q 2772 3750 2511 3984 
Q 2250 4219 1831 4219 
Q 1534 4219 1204 4116 
Q 875 4013 500 3803 
L 500 4441 
Q 881 4594 1212 4672 
Q 1544 4750 1819 4750 
Q 2544 4750 2975 4387 
Q 3406 4025 3406 3419 
Q 3406 3131 3298 2873 
Q 3191 2616 2906 2266 
Q 2828 2175 2409 1742 
Q 1991 1309 1228 531 
z
" transform="scale(0.015625)"/>
       </defs>
       <use xlink:href="#DejaVuSans-32"/>
       <use xlink:href="#DejaVuSans-30" x="63.623047"/>
       <use xlink:href="#DejaVuSans-30" x="127.246094"/>
      </g>
     </g>
    </g>
    <g id="xtick_4">
     <g id="line2d_7">
      <path d="M 266.999821 327.064 
L 266.999821 60.952 
" clip-path="url(#pac36dbb3ef)" style="fill: none; stroke: #b0b0b0; stroke-width: 0.8; stroke-linecap: square"/>
     </g>
     <g id="line2d_8">
      <g>
       <use xlink:href="#meac4d9c22d" x="266.999821" y="327.064" style="stroke: #000000; stroke-width: 0.8"/>
      </g>
     </g>
     <g id="text_4">
      <!-- 300 -->
      <g transform="translate(253.638571 344.701812) scale(0.14 -0.14)">
       <defs>
        <path id="DejaVuSans-33" d="M 2597 2516 
Q 3050 2419 3304 2112 
Q 3559 1806 3559 1356 
Q 3559 666 3084 287 
Q 2609 -91 1734 -91 
Q 1441 -91 1130 -33 
Q 819 25 488 141 
L 488 750 
Q 750 597 1062 519 
Q 1375 441 1716 441 
Q 2309 441 2620 675 
Q 2931 909 2931 1356 
Q 2931 1769 2642 2001 
Q 2353 2234 1838 2234 
L 1294 2234 
L 1294 2753 
L 1863 2753 
Q 2328 2753 2575 2939 
Q 2822 3125 2822 3475 
Q 2822 3834 2567 4026 
Q 2313 4219 1838 4219 
Q 1578 4219 1281 4162 
Q 984 4106 628 3988 
L 628 4550 
Q 988 4650 1302 4700 
Q 1616 4750 1894 4750 
Q 2613 4750 3031 4423 
Q 3450 4097 3450 3541 
Q 3450 3153 3228 2886 
Q 3006 2619 2597 2516 
z
" transform="scale(0.015625)"/>
       </defs>
       <use xlink:href="#DejaVuSans-33"/>
       <use xlink:href="#DejaVuSans-30" x="63.623047"/>
       <use xlink:href="#DejaVuSans-30" x="127.246094"/>
      </g>
     </g>
    </g>
    <g id="xtick_5">
     <g id="line2d_9">
      <path d="M 332.060852 327.064 
L 332.060852 60.952 
" clip-path="url(#pac36dbb3ef)" style="fill: none; stroke: #b0b0b0; stroke-width: 0.8; stroke-linecap: square"/>
     </g>
     <g id="line2d_10">
      <g>
       <use xlink:href="#meac4d9c22d" x="332.060852" y="327.064" style="stroke: #000000; stroke-width: 0.8"/>
      </g>
     </g>
     <g id="text_5">
      <!-- 400 -->
      <g transform="translate(318.699602 344.701812) scale(0.14 -0.14)">
       <defs>
        <path id="DejaVuSans-34" d="M 2419 4116 
L 825 1625 
L 2419 1625 
L 2419 4116 
z
M 2253 4666 
L 3047 4666 
L 3047 1625 
L 3713 1625 
L 3713 1100 
L 3047 1100 
L 3047 0 
L 2419 0 
L 2419 1100 
L 313 1100 
L 313 1709 
L 2253 4666 
z
" transform="scale(0.015625)"/>
       </defs>
       <use xlink:href="#DejaVuSans-34"/>
       <use xlink:href="#DejaVuSans-30" x="63.623047"/>
       <use xlink:href="#DejaVuSans-30" x="127.246094"/>
      </g>
     </g>
    </g>
    <g id="xtick_6">
     <g id="line2d_11">
      <path d="M 397.121883 327.064 
L 397.121883 60.952 
" clip-path="url(#pac36dbb3ef)" style="fill: none; stroke: #b0b0b0; stroke-width: 0.8; stroke-linecap: square"/>
     </g>
     <g id="line2d_12">
      <g>
       <use xlink:href="#meac4d9c22d" x="397.121883" y="327.064" style="stroke: #000000; stroke-width: 0.8"/>
      </g>
     </g>
     <g id="text_6">
      <!-- 500 -->
      <g transform="translate(383.760633 344.701812) scale(0.14 -0.14)">
       <defs>
        <path id="DejaVuSans-35" d="M 691 4666 
L 3169 4666 
L 3169 4134 
L 1269 4134 
L 1269 2991 
Q 1406 3038 1543 3061 
Q 1681 3084 1819 3084 
Q 2600 3084 3056 2656 
Q 3513 2228 3513 1497 
Q 3513 744 3044 326 
Q 2575 -91 1722 -91 
Q 1428 -91 1123 -41 
Q 819 9 494 109 
L 494 744 
Q 775 591 1075 516 
Q 1375 441 1709 441 
Q 2250 441 2565 725 
Q 2881 1009 2881 1497 
Q 2881 1984 2565 2268 
Q 2250 2553 1709 2553 
Q 1456 2553 1204 2497 
Q 953 2441 691 2322 
L 691 4666 
z
" transform="scale(0.015625)"/>
       </defs>
       <use xlink:href="#DejaVuSans-35"/>
       <use xlink:href="#DejaVuSans-30" x="63.623047"/>
       <use xlink:href="#DejaVuSans-30" x="127.246094"/>
      </g>
     </g>
    </g>
   </g>
   <g id="matplotlib.axis_2">
    <g id="ytick_1">
     <g id="line2d_13">
      <path d="M 55.584 314.968 
L 412.704 314.968 
" clip-path="url(#pac36dbb3ef)" style="fill: none; stroke: #b0b0b0; stroke-width: 0.8; stroke-linecap: square"/>
     </g>
     <g id="line2d_14">
      <defs>
       <path id="md88f161279" d="M 0 0 
L -3.5 0 
" style="stroke: #000000; stroke-width: 0.8"/>
      </defs>
      <g>
       <use xlink:href="#md88f161279" x="55.584" y="314.968" style="stroke: #000000; stroke-width: 0.8"/>
      </g>
     </g>
     <g id="text_7">
      <!-- 0.0 -->
      <g transform="translate(26.319625 320.286906) scale(0.14 -0.14)">
       <defs>
        <path id="DejaVuSans-2e" d="M 684 794 
L 1344 794 
L 1344 0 
L 684 0 
L 684 794 
z
" transform="scale(0.015625)"/>
       </defs>
       <use xlink:href="#DejaVuSans-30"/>
       <use xlink:href="#DejaVuSans-2e" x="63.623047"/>
       <use xlink:href="#DejaVuSans-30" x="95.410156"/>
      </g>
     </g>
    </g>
    <g id="ytick_2">
     <g id="line2d_15">
      <path d="M 55.584 272.681133 
L 412.704 272.681133 
" clip-path="url(#pac36dbb3ef)" style="fill: none; stroke: #b0b0b0; stroke-width: 0.8; stroke-linecap: square"/>
     </g>
     <g id="line2d_16">
      <g>
       <use xlink:href="#md88f161279" x="55.584" y="272.681133" style="stroke: #000000; stroke-width: 0.8"/>
      </g>
     </g>
     <g id="text_8">
      <!-- 0.1 -->
      <g transform="translate(26.319625 278.000039) scale(0.14 -0.14)">
       <use xlink:href="#DejaVuSans-30"/>
       <use xlink:href="#DejaVuSans-2e" x="63.623047"/>
       <use xlink:href="#DejaVuSans-31" x="95.410156"/>
      </g>
     </g>
    </g>
    <g id="ytick_3">
     <g id="line2d_17">
      <path d="M 55.584 230.394266 
L 412.704 230.394266 
" clip-path="url(#pac36dbb3ef)" style="fill: none; stroke: #b0b0b0; stroke-width: 0.8; stroke-linecap: square"/>
     </g>
     <g id="line2d_18">
      <g>
       <use xlink:href="#md88f161279" x="55.584" y="230.394266" style="stroke: #000000; stroke-width: 0.8"/>
      </g>
     </g>
     <g id="text_9">
      <!-- 0.2 -->
      <g transform="translate(26.319625 235.713172) scale(0.14 -0.14)">
       <use xlink:href="#DejaVuSans-30"/>
       <use xlink:href="#DejaVuSans-2e" x="63.623047"/>
       <use xlink:href="#DejaVuSans-32" x="95.410156"/>
      </g>
     </g>
    </g>
    <g id="ytick_4">
     <g id="line2d_19">
      <path d="M 55.584 188.107398 
L 412.704 188.107398 
" clip-path="url(#pac36dbb3ef)" style="fill: none; stroke: #b0b0b0; stroke-width: 0.8; stroke-linecap: square"/>
     </g>
     <g id="line2d_20">
      <g>
       <use xlink:href="#md88f161279" x="55.584" y="188.107398" style="stroke: #000000; stroke-width: 0.8"/>
      </g>
     </g>
     <g id="text_10">
      <!-- 0.3 -->
      <g transform="translate(26.319625 193.426305) scale(0.14 -0.14)">
       <use xlink:href="#DejaVuSans-30"/>
       <use xlink:href="#DejaVuSans-2e" x="63.623047"/>
       <use xlink:href="#DejaVuSans-33" x="95.410156"/>
      </g>
     </g>
    </g>
    <g id="ytick_5">
     <g id="line2d_21">
      <path d="M 55.584 145.820531 
L 412.704 145.820531 
" clip-path="url(#pac36dbb3ef)" style="fill: none; stroke: #b0b0b0; stroke-width: 0.8; stroke-linecap: square"/>
     </g>
     <g id="line2d_22">
      <g>
       <use xlink:href="#md88f161279" x="55.584" y="145.820531" style="stroke: #000000; stroke-width: 0.8"/>
      </g>
     </g>
     <g id="text_11">
      <!-- 0.4 -->
      <g transform="translate(26.319625 151.139437) scale(0.14 -0.14)">
       <use xlink:href="#DejaVuSans-30"/>
       <use xlink:href="#DejaVuSans-2e" x="63.623047"/>
       <use xlink:href="#DejaVuSans-34" x="95.410156"/>
      </g>
     </g>
    </g>
    <g id="ytick_6">
     <g id="line2d_23">
      <path d="M 55.584 103.533664 
L 412.704 103.533664 
" clip-path="url(#pac36dbb3ef)" style="fill: none; stroke: #b0b0b0; stroke-width: 0.8; stroke-linecap: square"/>
     </g>
     <g id="line2d_24">
      <g>
       <use xlink:href="#md88f161279" x="55.584" y="103.533664" style="stroke: #000000; stroke-width: 0.8"/>
      </g>
     </g>
     <g id="text_12">
      <!-- 0.5 -->
      <g transform="translate(26.319625 108.85257) scale(0.14 -0.14)">
       <use xlink:href="#DejaVuSans-30"/>
       <use xlink:href="#DejaVuSans-2e" x="63.623047"/>
       <use xlink:href="#DejaVuSans-35" x="95.410156"/>
      </g>
     </g>
    </g>
    <g id="ytick_7">
     <g id="line2d_25">
      <path d="M 55.584 61.246797 
L 412.704 61.246797 
" clip-path="url(#pac36dbb3ef)" style="fill: none; stroke: #b0b0b0; stroke-width: 0.8; stroke-linecap: square"/>
     </g>
     <g id="line2d_26">
      <g>
       <use xlink:href="#md88f161279" x="55.584" y="61.246797" style="stroke: #000000; stroke-width: 0.8"/>
      </g>
     </g>
     <g id="text_13">
      <!-- 0.6 -->
      <g transform="translate(26.319625 66.565703) scale(0.14 -0.14)">
       <defs>
        <path id="DejaVuSans-36" d="M 2113 2584 
Q 1688 2584 1439 2293 
Q 1191 2003 1191 1497 
Q 1191 994 1439 701 
Q 1688 409 2113 409 
Q 2538 409 2786 701 
Q 3034 994 3034 1497 
Q 3034 2003 2786 2293 
Q 2538 2584 2113 2584 
z
M 3366 4563 
L 3366 3988 
Q 3128 4100 2886 4159 
Q 2644 4219 2406 4219 
Q 1781 4219 1451 3797 
Q 1122 3375 1075 2522 
Q 1259 2794 1537 2939 
Q 1816 3084 2150 3084 
Q 2853 3084 3261 2657 
Q 3669 2231 3669 1497 
Q 3669 778 3244 343 
Q 2819 -91 2113 -91 
Q 1303 -91 875 529 
Q 447 1150 447 2328 
Q 447 3434 972 4092 
Q 1497 4750 2381 4750 
Q 2619 4750 2861 4703 
Q 3103 4656 3366 4563 
z
" transform="scale(0.015625)"/>
       </defs>
       <use xlink:href="#DejaVuSans-30"/>
       <use xlink:href="#DejaVuSans-2e" x="63.623047"/>
       <use xlink:href="#DejaVuSans-36" x="95.410156"/>
      </g>
     </g>
    </g>
   </g>
   <g id="line2d_27">
    <path d="M 71.816727 314.968 
L 103.696633 314.968 
L 104.347243 73.048 
L 104.997853 96.520708 
L 105.648463 105.267242 
L 107.600294 124.333599 
L 110.202736 147.995003 
L 112.154567 163.793244 
L 114.106398 177.70955 
L 116.058228 189.795405 
L 118.010059 200.509698 
L 119.96189 209.777189 
L 121.913721 218.010312 
L 123.865552 225.21592 
L 125.817383 231.537807 
L 127.769214 237.17067 
L 129.721045 242.075225 
L 131.672876 246.457348 
L 133.624707 250.436112 
L 136.227148 255.062714 
L 138.829589 259.123617 
L 141.432031 262.74014 
L 144.034472 265.876953 
L 145.986303 267.990546 
L 149.239354 271.135819 
L 152.492406 273.903342 
L 156.396068 276.818315 
L 161.60095 280.069974 
L 164.854002 281.806689 
L 169.408274 283.932234 
L 174.613156 286.059377 
L 179.818039 287.889399 
L 185.673532 289.665461 
L 191.529025 291.191359 
L 203.24001 293.701194 
L 211.047334 295.086706 
L 220.155878 296.443263 
L 237.071746 298.408741 
L 252.686394 299.824194 
L 268.301041 300.955152 
L 292.373623 302.320435 
L 312.542543 303.208853 
L 352.229772 304.498128 
L 372.398691 305.002378 
L 396.471273 305.501692 
L 396.471273 305.501692 
" clip-path="url(#pac36dbb3ef)" style="fill: none; stroke: #1f77b4; stroke-width: 2; stroke-linecap: square"/>
    <defs>
     <path id="mb838bc628f" d="M 0 3 
C 0.795609 3 1.55874 2.683901 2.12132 2.12132 
C 2.683901 1.55874 3 0.795609 3 0 
C 3 -0.795609 2.683901 -1.55874 2.12132 -2.12132 
C 1.55874 -2.683901 0.795609 -3 0 -3 
C -0.795609 -3 -1.55874 -2.683901 -2.12132 -2.12132 
C -2.683901 -1.55874 -3 -0.795609 -3 0 
C -3 0.795609 -2.683901 1.55874 -2.12132 2.12132 
C -1.55874 2.683901 -0.795609 3 0 3 
z
" style="stroke: #1f77b4"/>
    </defs>
    <g clip-path="url(#pac36dbb3ef)">
     <use xlink:href="#mb838bc628f" x="71.816727" y="314.968" style="fill: #1f77b4; stroke: #1f77b4"/>
     <use xlink:href="#mb838bc628f" x="201.93879" y="293.465149" style="fill: #1f77b4; stroke: #1f77b4"/>
     <use xlink:href="#mb838bc628f" x="332.060852" y="303.903726" style="fill: #1f77b4; stroke: #1f77b4"/>
    </g>
   </g>
   <g id="line2d_28">
    <path d="M 396.471273 327.064 
L 396.471273 60.952 
" clip-path="url(#pac36dbb3ef)" style="fill: none; stroke-dasharray: 7.4,3.2; stroke-dashoffset: 0; stroke: #1f77b4; stroke-width: 2"/>
    <g clip-path="url(#pac36dbb3ef)">
     <use xlink:href="#mb838bc628f" x="396.471273" y="327.064" style="fill: #1f77b4; stroke: #1f77b4"/>
     <use xlink:href="#mb838bc628f" x="396.471273" y="60.952" style="fill: #1f77b4; stroke: #1f77b4"/>
    </g>
   </g>
   <g id="line2d_29">
    <path d="M 71.816727 314.968 
L 103.696633 314.968 
L 104.347243 222.388611 
L 104.997853 203.481578 
L 105.648463 215.02321 
L 106.299074 224.268579 
L 106.949684 231.248231 
L 107.600294 236.210529 
L 108.250905 242.129432 
L 109.552125 250.514132 
L 110.853346 257.407912 
L 112.154567 262.779236 
L 113.455787 267.199484 
L 114.757008 270.902872 
L 116.708839 275.600922 
L 118.66067 279.34579 
L 121.263111 283.397439 
L 123.214942 285.918562 
L 125.817383 288.618528 
L 128.419824 290.9103 
L 131.022266 292.760686 
L 133.624707 294.398501 
L 136.877758 296.137158 
L 140.78142 297.789673 
L 143.383862 298.72945 
L 149.239354 300.484076 
L 154.444237 301.737352 
L 162.251561 303.197498 
L 167.456443 303.964151 
L 180.468649 305.488172 
L 194.131466 306.603828 
L 212.348555 307.622039 
L 247.481511 308.839872 
L 268.951652 309.309248 
L 359.386485 310.271861 
L 396.471273 310.477045 
L 396.471273 310.477045 
" clip-path="url(#pac36dbb3ef)" style="fill: none; stroke: #ff7f0e; stroke-width: 2; stroke-linecap: square"/>
    <defs>
     <path id="mb2ef702c0b" d="M 0 -3 
L -3 3 
L 3 3 
z
" style="stroke: #ff7f0e; stroke-linejoin: miter"/>
    </defs>
    <g clip-path="url(#pac36dbb3ef)">
     <use xlink:href="#mb2ef702c0b" x="71.816727" y="314.968" style="fill: #ff7f0e; stroke: #ff7f0e; stroke-linejoin: miter"/>
     <use xlink:href="#mb2ef702c0b" x="201.93879" y="307.093835" style="fill: #ff7f0e; stroke: #ff7f0e; stroke-linejoin: miter"/>
     <use xlink:href="#mb2ef702c0b" x="332.060852" y="310.072687" style="fill: #ff7f0e; stroke: #ff7f0e; stroke-linejoin: miter"/>
    </g>
   </g>
   <g id="line2d_30">
    <path d="M 246.830901 327.064 
L 246.830901 60.952 
" clip-path="url(#pac36dbb3ef)" style="fill: none; stroke-dasharray: 7.4,3.2; stroke-dashoffset: 0; stroke: #ff7f0e; stroke-width: 2"/>
    <g clip-path="url(#pac36dbb3ef)">
     <use xlink:href="#mb2ef702c0b" x="246.830901" y="327.064" style="fill: #ff7f0e; stroke: #ff7f0e; stroke-linejoin: miter"/>
     <use xlink:href="#mb2ef702c0b" x="246.830901" y="60.952" style="fill: #ff7f0e; stroke: #ff7f0e; stroke-linejoin: miter"/>
    </g>
   </g>
   <g id="line2d_31">
    <path d="M 71.816727 314.968 
L 103.696633 314.968 
L 104.347243 229.491088 
L 104.997853 224.513992 
L 105.648463 235.942795 
L 106.299074 244.262307 
L 106.949684 249.931365 
L 108.250905 258.175427 
L 109.552125 264.513325 
L 110.853346 269.348552 
L 112.154567 273.384988 
L 113.455787 276.768075 
L 115.407618 280.804929 
L 116.708839 283.067832 
L 118.010059 285.002351 
L 119.31128 286.641241 
L 120.612501 288.16179 
L 123.214942 290.685521 
L 125.166773 292.2271 
L 127.769214 294.026344 
L 132.323486 296.480605 
L 136.227148 298.116766 
L 142.733251 300.201789 
L 151.841796 302.32862 
L 156.396068 303.166709 
L 162.251561 304.031226 
L 170.709495 305.051174 
L 179.167429 305.861176 
L 193.480856 306.878469 
L 206.493062 307.575323 
L 235.119915 308.642743 
L 263.096159 309.306836 
L 285.86752 309.68422 
L 345.073058 310.351745 
L 396.471273 310.63355 
L 396.471273 310.63355 
" clip-path="url(#pac36dbb3ef)" style="fill: none; stroke: #2ca02c; stroke-width: 2; stroke-linecap: square"/>
    <defs>
     <path id="m2cc94fd6f3" d="M -3 3 
L 3 3 
L 3 -3 
L -3 -3 
z
" style="stroke: #2ca02c; stroke-linejoin: miter"/>
    </defs>
    <g clip-path="url(#pac36dbb3ef)">
     <use xlink:href="#m2cc94fd6f3" x="71.816727" y="314.968" style="fill: #2ca02c; stroke: #2ca02c; stroke-linejoin: miter"/>
     <use xlink:href="#m2cc94fd6f3" x="201.93879" y="307.351537" style="fill: #2ca02c; stroke: #2ca02c; stroke-linejoin: miter"/>
     <use xlink:href="#m2cc94fd6f3" x="332.060852" y="310.238117" style="fill: #2ca02c; stroke: #2ca02c; stroke-linejoin: miter"/>
    </g>
   </g>
   <g id="line2d_32">
    <path d="M 242.276629 327.064 
L 242.276629 60.952 
" clip-path="url(#pac36dbb3ef)" style="fill: none; stroke-dasharray: 7.4,3.2; stroke-dashoffset: 0; stroke: #2ca02c; stroke-width: 2"/>
    <g clip-path="url(#pac36dbb3ef)">
     <use xlink:href="#m2cc94fd6f3" x="242.276629" y="327.064" style="fill: #2ca02c; stroke: #2ca02c; stroke-linejoin: miter"/>
     <use xlink:href="#m2cc94fd6f3" x="242.276629" y="60.952" style="fill: #2ca02c; stroke: #2ca02c; stroke-linejoin: miter"/>
    </g>
   </g>
   <g id="line2d_33">
    <path d="M 71.816727 314.968 
L 103.696633 314.968 
L 104.347243 232.564973 
L 104.997853 226.312785 
L 105.648463 237.426356 
L 106.299074 245.522646 
L 106.949684 251.016493 
L 108.250905 259.169979 
L 109.552125 265.076755 
L 110.853346 270.043355 
L 112.154567 274.006797 
L 113.455787 277.331497 
L 114.757008 280.072791 
L 116.058228 282.390442 
L 118.010059 285.494385 
L 119.96189 287.885384 
L 121.913721 289.976287 
L 123.214942 291.20931 
L 125.817383 293.194761 
L 127.769214 294.536659 
L 129.721045 295.698207 
L 133.624707 297.600735 
L 138.829589 299.590478 
L 142.082641 300.598025 
L 147.938134 302.016812 
L 153.143016 303.067733 
L 162.902171 304.5562 
L 170.058884 305.353772 
L 183.721701 306.588671 
L 196.733907 307.425926 
L 217.553437 308.321709 
L 246.830901 309.182841 
L 302.783388 310.059822 
L 348.32611 310.4484 
L 396.471273 310.678864 
L 396.471273 310.678864 
" clip-path="url(#pac36dbb3ef)" style="fill: none; stroke: #d62728; stroke-width: 2; stroke-linecap: square"/>
    <defs>
     <path id="mf9493789cd" d="M -3 3 
L 3 -3 
M -3 -3 
L 3 3 
" style="stroke: #d62728"/>
    </defs>
    <g clip-path="url(#pac36dbb3ef)">
     <use xlink:href="#mf9493789cd" x="71.816727" y="314.968" style="fill: #d62728; stroke: #d62728"/>
     <use xlink:href="#mf9493789cd" x="201.93879" y="307.682682" style="fill: #d62728; stroke: #d62728"/>
     <use xlink:href="#mf9493789cd" x="332.060852" y="310.327133" style="fill: #d62728; stroke: #d62728"/>
    </g>
   </g>
   <g id="line2d_34">
    <path d="M 232.517474 327.064 
L 232.517474 60.952 
" clip-path="url(#pac36dbb3ef)" style="fill: none; stroke-dasharray: 7.4,3.2; stroke-dashoffset: 0; stroke: #d62728; stroke-width: 2"/>
    <g clip-path="url(#pac36dbb3ef)">
     <use xlink:href="#mf9493789cd" x="232.517474" y="327.064" style="fill: #d62728; stroke: #d62728"/>
     <use xlink:href="#mf9493789cd" x="232.517474" y="60.952" style="fill: #d62728; stroke: #d62728"/>
    </g>
   </g>
   <g id="line2d_35">
    <path d="M 71.816727 314.968 
L 103.696633 314.968 
L 104.347243 233.267193 
L 104.997853 224.120977 
L 105.648463 235.389622 
L 106.299074 244.283214 
L 106.949684 250.197408 
L 108.250905 258.395978 
L 109.552125 264.523201 
L 110.853346 269.38275 
L 112.154567 273.516453 
L 113.455787 276.956969 
L 114.757008 279.793361 
L 116.058228 282.329586 
L 118.010059 285.406901 
L 119.31128 287.127504 
L 120.612501 288.681333 
L 122.564332 290.685611 
L 124.516163 292.336782 
L 126.467993 293.732744 
L 129.721045 295.797461 
L 132.323486 297.099436 
L 136.227148 298.714193 
L 145.335692 301.472297 
L 150.540575 302.596364 
L 158.347899 303.950694 
L 172.661326 305.743247 
L 180.468649 306.415194 
L 198.685738 307.594089 
L 210.396724 308.123215 
L 227.312592 308.715616 
L 244.22846 309.155675 
L 270.903483 309.655521 
L 363.290147 310.499202 
L 396.471273 310.65243 
L 396.471273 310.65243 
" clip-path="url(#pac36dbb3ef)" style="fill: none; stroke: #9467bd; stroke-width: 2; stroke-linecap: square"/>
    <defs>
     <path id="m58b83e5749" d="M -0 3 
L 3 -3 
L -3 -3 
z
" style="stroke: #9467bd; stroke-linejoin: miter"/>
    </defs>
    <g clip-path="url(#pac36dbb3ef)">
     <use xlink:href="#m58b83e5749" x="71.816727" y="314.968" style="fill: #9467bd; stroke: #9467bd; stroke-linejoin: miter"/>
     <use xlink:href="#m58b83e5749" x="201.93879" y="307.748655" style="fill: #9467bd; stroke: #9467bd; stroke-linejoin: miter"/>
     <use xlink:href="#m58b83e5749" x="332.060852" y="310.296083" style="fill: #9467bd; stroke: #9467bd; stroke-linejoin: miter"/>
    </g>
   </g>
   <g id="line2d_36">
    <path d="M 231.216254 327.064 
L 231.216254 60.952 
" clip-path="url(#pac36dbb3ef)" style="fill: none; stroke-dasharray: 7.4,3.2; stroke-dashoffset: 0; stroke: #9467bd; stroke-width: 2"/>
    <g clip-path="url(#pac36dbb3ef)">
     <use xlink:href="#m58b83e5749" x="231.216254" y="327.064" style="fill: #9467bd; stroke: #9467bd; stroke-linejoin: miter"/>
     <use xlink:href="#m58b83e5749" x="231.216254" y="60.952" style="fill: #9467bd; stroke: #9467bd; stroke-linejoin: miter"/>
    </g>
   </g>
   <g id="line2d_37">
    <path d="M 71.816727 314.968 
L 103.696633 314.968 
L 104.347243 233.617269 
L 104.997853 220.915805 
L 105.648463 232.711459 
L 106.299074 235.987366 
L 106.949684 246.606394 
L 108.250905 254.580378 
L 108.901515 257.302253 
L 110.202736 264.038577 
L 110.853346 265.471193 
L 111.503956 264.653948 
L 112.154567 270.982166 
L 112.805177 272.673701 
L 113.455787 268.024327 
L 114.106398 276.675096 
L 115.407618 278.829618 
L 116.058228 280.118076 
L 116.708839 280.824118 
L 117.359449 282.963387 
L 118.010059 283.823053 
L 118.66067 283.980958 
L 119.31128 284.838175 
L 119.96189 286.642553 
L 120.612501 287.65413 
L 121.263111 288.077922 
L 121.913721 289.100574 
L 122.564332 289.306959 
L 123.214942 290.499067 
L 125.817383 292.754989 
L 126.467993 292.157314 
L 127.118604 293.54222 
L 128.419824 294.552237 
L 129.070435 294.824878 
L 130.371655 295.800792 
L 131.022266 295.93897 
L 131.672876 296.467113 
L 132.974097 296.920396 
L 133.624707 297.44291 
L 134.275317 297.675206 
L 134.925927 295.390748 
L 135.576538 298.237828 
L 136.227148 297.840246 
L 136.877758 298.843863 
L 139.4802 299.838948 
L 142.733251 300.801215 
L 143.383862 300.861434 
L 144.034472 301.159172 
L 151.841796 302.952649 
L 158.347899 304.099202 
L 167.456443 305.259017 
L 172.010715 305.721066 
L 175.263767 306.034637 
L 178.516818 306.291243 
L 180.468649 306.48524 
L 181.11926 304.961055 
L 181.76987 306.587248 
L 182.42048 306.563062 
L 183.721701 306.737689 
L 188.275973 307.085599 
L 199.986959 307.78597 
L 216.252216 308.467711 
L 247.481511 309.282823 
L 272.855314 309.71486 
L 312.542543 310.166905 
L 396.471273 310.645153 
L 396.471273 310.645153 
" clip-path="url(#pac36dbb3ef)" style="fill: none; stroke: #8c564b; stroke-width: 2; stroke-linecap: square"/>
    <defs>
     <path id="m44794a28f0" d="M -0 4.242641 
L 2.545584 0 
L 0 -4.242641 
L -2.545584 -0 
z
" style="stroke: #8c564b; stroke-linejoin: miter"/>
    </defs>
    <g clip-path="url(#pac36dbb3ef)">
     <use xlink:href="#m44794a28f0" x="71.816727" y="314.968" style="fill: #8c564b; stroke: #8c564b; stroke-linejoin: miter"/>
     <use xlink:href="#m44794a28f0" x="201.93879" y="307.872116" style="fill: #8c564b; stroke: #8c564b; stroke-linejoin: miter"/>
     <use xlink:href="#m44794a28f0" x="332.060852" y="310.321844" style="fill: #8c564b; stroke: #8c564b; stroke-linejoin: miter"/>
    </g>
   </g>
   <g id="line2d_38">
    <path d="M 228.613812 327.064 
L 228.613812 60.952 
" clip-path="url(#pac36dbb3ef)" style="fill: none; stroke-dasharray: 7.4,3.2; stroke-dashoffset: 0; stroke: #8c564b; stroke-width: 2"/>
    <g clip-path="url(#pac36dbb3ef)">
     <use xlink:href="#m44794a28f0" x="228.613812" y="327.064" style="fill: #8c564b; stroke: #8c564b; stroke-linejoin: miter"/>
     <use xlink:href="#m44794a28f0" x="228.613812" y="60.952" style="fill: #8c564b; stroke: #8c564b; stroke-linejoin: miter"/>
    </g>
   </g>
   <g id="line2d_39">
    <path d="M 71.816727 314.968 
L 103.696633 314.968 
L 104.347243 200.364669 
L 104.997853 176.38491 
L 105.648463 184.253224 
L 106.949684 205.591194 
L 107.600294 213.937423 
L 108.901515 226.897559 
L 110.202736 236.733765 
L 111.503956 244.524724 
L 112.805177 251.076831 
L 114.106398 256.540311 
L 115.407618 261.162621 
L 116.708839 265.070506 
L 118.010059 268.515797 
L 119.96189 272.734536 
L 121.913721 276.26535 
L 123.214942 278.276063 
L 125.166773 280.856881 
L 127.118604 283.143579 
L 129.721045 285.733939 
L 131.672876 287.297365 
L 134.925927 289.555296 
L 138.829589 291.798897 
L 141.432031 293.075577 
L 146.636913 295.161991 
L 149.889965 296.246052 
L 155.094847 297.696201 
L 158.998509 298.606088 
L 167.456443 300.191884 
L 176.564987 301.523321 
L 185.673532 302.575104 
L 195.432686 303.489068 
L 202.5894 304.031607 
L 224.71015 305.374208 
L 274.156534 307.17234 
L 299.530336 307.774966 
L 335.313903 308.426058 
L 396.471273 309.219392 
L 396.471273 309.219392 
" clip-path="url(#pac36dbb3ef)" style="fill: none; stroke: #e377c2; stroke-width: 2; stroke-linecap: square"/>
    <defs>
     <path id="m6904e8c7cf" d="M 0 0 
L 0 3 
M 0 0 
L 2.4 -1.5 
M 0 0 
L -2.4 -1.5 
" style="stroke: #e377c2"/>
    </defs>
    <g clip-path="url(#pac36dbb3ef)">
     <use xlink:href="#m6904e8c7cf" x="71.816727" y="314.968" style="fill: #e377c2; stroke: #e377c2"/>
     <use xlink:href="#m6904e8c7cf" x="201.93879" y="303.995957" style="fill: #e377c2; stroke: #e377c2"/>
     <use xlink:href="#m6904e8c7cf" x="332.060852" y="308.370205" style="fill: #e377c2; stroke: #e377c2"/>
    </g>
   </g>
   <g id="line2d_40">
    <path d="M 362.639537 327.064 
L 362.639537 60.952 
" clip-path="url(#pac36dbb3ef)" style="fill: none; stroke-dasharray: 7.4,3.2; stroke-dashoffset: 0; stroke: #e377c2; stroke-width: 2"/>
    <g clip-path="url(#pac36dbb3ef)">
     <use xlink:href="#m6904e8c7cf" x="362.639537" y="327.064" style="fill: #e377c2; stroke: #e377c2"/>
     <use xlink:href="#m6904e8c7cf" x="362.639537" y="60.952" style="fill: #e377c2; stroke: #e377c2"/>
    </g>
   </g>
   <g id="patch_3">
    <path d="M 55.584 327.064 
L 55.584 60.952 
" style="fill: none; stroke: #000000; stroke-width: 0.8; stroke-linejoin: miter; stroke-linecap: square"/>
   </g>
   <g id="patch_4">
    <path d="M 412.704 327.064 
L 412.704 60.952 
" style="fill: none; stroke: #000000; stroke-width: 0.8; stroke-linejoin: miter; stroke-linecap: square"/>
   </g>
   <g id="patch_5">
    <path d="M 55.584 327.064 
L 412.704 327.064 
" style="fill: none; stroke: #000000; stroke-width: 0.8; stroke-linejoin: miter; stroke-linecap: square"/>
   </g>
   <g id="patch_6">
    <path d="M 55.584 60.952 
L 412.704 60.952 
" style="fill: none; stroke: #000000; stroke-width: 0.8; stroke-linejoin: miter; stroke-linecap: square"/>
   </g>
   <g id="axes_2">
    <g id="patch_7">
     <path d="M 207.36 220.6192 
L 403.776 220.6192 
L 403.776 74.2576 
L 207.36 74.2576 
z
" style="fill: #ffffff"/>
    </g>
    <g id="matplotlib.axis_3">
     <g id="xtick_7">
      <g id="line2d_41">
       <path d="M 264.018462 220.6192 
L 264.018462 74.2576 
" clip-path="url(#pf997486f98)" style="fill: none; stroke: #b0b0b0; stroke-width: 0.8; stroke-linecap: square"/>
      </g>
      <g id="line2d_42">
       <defs>
        <path id="me2525f4129" d="M 0 0 
L 0 3.5 
" style="stroke: #000000; stroke-width: 2"/>
       </defs>
       <g>
        <use xlink:href="#me2525f4129" x="264.018462" y="220.6192" style="stroke: #000000; stroke-width: 2"/>
       </g>
      </g>
      <g id="text_14">
       <!-- 300 -->
       <g transform="translate(250.657212 238.257012) scale(0.14 -0.14)">
        <use xlink:href="#DejaVuSans-33"/>
        <use xlink:href="#DejaVuSans-30" x="63.623047"/>
        <use xlink:href="#DejaVuSans-30" x="127.246094"/>
       </g>
      </g>
     </g>
     <g id="xtick_8">
      <g id="line2d_43">
       <path d="M 358.449231 220.6192 
L 358.449231 74.2576 
" clip-path="url(#pf997486f98)" style="fill: none; stroke: #b0b0b0; stroke-width: 0.8; stroke-linecap: square"/>
      </g>
      <g id="line2d_44">
       <g>
        <use xlink:href="#me2525f4129" x="358.449231" y="220.6192" style="stroke: #000000; stroke-width: 2"/>
       </g>
      </g>
      <g id="text_15">
       <!-- 400 -->
       <g transform="translate(345.087981 238.257012) scale(0.14 -0.14)">
        <use xlink:href="#DejaVuSans-34"/>
        <use xlink:href="#DejaVuSans-30" x="63.623047"/>
        <use xlink:href="#DejaVuSans-30" x="127.246094"/>
       </g>
      </g>
     </g>
    </g>
    <g id="matplotlib.axis_4">
     <g id="ytick_8">
      <g id="line2d_45">
       <path d="M 207.36 195.866791 
L 403.776 195.866791 
" clip-path="url(#pf997486f98)" style="fill: none; stroke: #b0b0b0; stroke-width: 0.8; stroke-linecap: square"/>
      </g>
      <g id="line2d_46">
       <defs>
        <path id="m78f6409bc4" d="M 0 0 
L -3.5 0 
" style="stroke: #000000; stroke-width: 2"/>
       </defs>
       <g>
        <use xlink:href="#m78f6409bc4" x="207.36" y="195.866791" style="stroke: #000000; stroke-width: 2"/>
       </g>
      </g>
      <g id="text_16">
       <!-- 0.0150 -->
       <g transform="translate(151.373125 201.185697) scale(0.14 -0.14)">
        <use xlink:href="#DejaVuSans-30"/>
        <use xlink:href="#DejaVuSans-2e" x="63.623047"/>
        <use xlink:href="#DejaVuSans-30" x="95.410156"/>
        <use xlink:href="#DejaVuSans-31" x="159.033203"/>
        <use xlink:href="#DejaVuSans-35" x="222.65625"/>
        <use xlink:href="#DejaVuSans-30" x="286.279297"/>
       </g>
      </g>
     </g>
     <g id="ytick_9">
      <g id="line2d_47">
       <path d="M 207.36 160.662361 
L 403.776 160.662361 
" clip-path="url(#pf997486f98)" style="fill: none; stroke: #b0b0b0; stroke-width: 0.8; stroke-linecap: square"/>
      </g>
      <g id="line2d_48">
       <g>
        <use xlink:href="#m78f6409bc4" x="207.36" y="160.662361" style="stroke: #000000; stroke-width: 2"/>
       </g>
      </g>
      <g id="text_17">
       <!-- 0.0175 -->
       <g transform="translate(151.373125 165.981268) scale(0.14 -0.14)">
        <defs>
         <path id="DejaVuSans-37" d="M 525 4666 
L 3525 4666 
L 3525 4397 
L 1831 0 
L 1172 0 
L 2766 4134 
L 525 4134 
L 525 4666 
z
" transform="scale(0.015625)"/>
        </defs>
        <use xlink:href="#DejaVuSans-30"/>
        <use xlink:href="#DejaVuSans-2e" x="63.623047"/>
        <use xlink:href="#DejaVuSans-30" x="95.410156"/>
        <use xlink:href="#DejaVuSans-31" x="159.033203"/>
        <use xlink:href="#DejaVuSans-37" x="222.65625"/>
        <use xlink:href="#DejaVuSans-35" x="286.279297"/>
       </g>
      </g>
     </g>
     <g id="ytick_10">
      <g id="line2d_49">
       <path d="M 207.36 125.457932 
L 403.776 125.457932 
" clip-path="url(#pf997486f98)" style="fill: none; stroke: #b0b0b0; stroke-width: 0.8; stroke-linecap: square"/>
      </g>
      <g id="line2d_50">
       <g>
        <use xlink:href="#m78f6409bc4" x="207.36" y="125.457932" style="stroke: #000000; stroke-width: 2"/>
       </g>
      </g>
      <g id="text_18">
       <!-- 0.0200 -->
       <g transform="translate(151.373125 130.776838) scale(0.14 -0.14)">
        <use xlink:href="#DejaVuSans-30"/>
        <use xlink:href="#DejaVuSans-2e" x="63.623047"/>
        <use xlink:href="#DejaVuSans-30" x="95.410156"/>
        <use xlink:href="#DejaVuSans-32" x="159.033203"/>
        <use xlink:href="#DejaVuSans-30" x="222.65625"/>
        <use xlink:href="#DejaVuSans-30" x="286.279297"/>
       </g>
      </g>
     </g>
     <g id="ytick_11">
      <g id="line2d_51">
       <path d="M 207.36 90.253503 
L 403.776 90.253503 
" clip-path="url(#pf997486f98)" style="fill: none; stroke: #b0b0b0; stroke-width: 0.8; stroke-linecap: square"/>
      </g>
      <g id="line2d_52">
       <g>
        <use xlink:href="#m78f6409bc4" x="207.36" y="90.253503" style="stroke: #000000; stroke-width: 2"/>
       </g>
      </g>
      <g id="text_19">
       <!-- 0.0225 -->
       <g transform="translate(151.373125 95.572409) scale(0.14 -0.14)">
        <use xlink:href="#DejaVuSans-30"/>
        <use xlink:href="#DejaVuSans-2e" x="63.623047"/>
        <use xlink:href="#DejaVuSans-30" x="95.410156"/>
        <use xlink:href="#DejaVuSans-32" x="159.033203"/>
        <use xlink:href="#DejaVuSans-32" x="222.65625"/>
        <use xlink:href="#DejaVuSans-35" x="286.279297"/>
       </g>
      </g>
     </g>
    </g>
    <g id="line2d_53">
     <path d="M 27.001599 369.824 
L 27.045066 -1 
M 312.976154 -1 
L 315.011077 0.973571 
L 316.899692 2.88303 
L 323.509846 9.353671 
L 325.398462 11.312624 
L 327.287077 12.917431 
L 330.12 15.506971 
L 335.785846 20.21698 
L 336.730154 21.031095 
L 337.674462 22.022258 
L 339.563077 23.566794 
L 340.507385 24.545308 
L 341.451692 25.354614 
L 342.396 25.983073 
L 345.228923 28.373114 
L 347.117538 29.823232 
L 349.950462 32.245789 
L 362.226462 41.510751 
L 366.003692 43.947688 
L 366.948 44.658774 
L 367.892308 45.142757 
L 377.335385 51.772363 
L 381.112615 54.063891 
L 383.945538 55.946739 
L 385.834154 57.240815 
L 387.722769 58.44056 
L 390.555692 60.283201 
L 394.332923 62.45113 
L 395.277231 62.930914 
L 396.221538 63.557433 
L 397.165846 64.010684 
L 400.943077 66.378766 
L 401.887385 66.779646 
L 419.829231 76.621915 
L 423.134781 78.200902 
L 423.134781 78.200902 
" clip-path="url(#pf997486f98)" style="fill: none; stroke: #1f77b4; stroke-width: 1.5; stroke-linecap: square"/>
    </g>
    <g id="line2d_54">
     <path clip-path="url(#pf997486f98)" style="fill: none; stroke-dasharray: 5.55,2.4; stroke-dashoffset: 0; stroke: #1f77b4; stroke-width: 1.5"/>
    </g>
    <g id="line2d_55">
     <path d="M 27.008646 369.824 
L 27.12223 -1 
M 107.887385 -1 
L 111.984923 15.128824 
L 112.929231 18.762778 
L 113.873538 21.64744 
L 117.650769 34.805209 
L 118.595077 37.423619 
L 119.539385 40.658816 
L 120.483692 43.378441 
L 122.372308 49.779096 
L 123.316615 52.61167 
L 125.205231 57.306411 
L 126.149538 60.384335 
L 128.982462 67.969505 
L 132.759692 78.340033 
L 135.592615 85.000779 
L 139.369846 93.337173 
L 140.314154 95.188168 
L 141.258462 97.44339 
L 142.202769 99.207557 
L 143.147077 101.384796 
L 145.98 106.604656 
L 147.868615 110.26614 
L 148.812923 112.009252 
L 149.757231 113.411921 
L 150.701538 115.545926 
L 154.478769 122.091485 
L 155.423077 124.125289 
L 157.311692 126.94259 
L 158.256 128.561602 
L 159.200308 129.895564 
L 160.144615 131.46408 
L 164.866154 138.139238 
L 169.587692 144.879095 
L 170.532 145.930347 
L 172.420615 148.211487 
L 173.364923 149.212457 
L 175.253538 152.038783 
L 177.142154 154.435925 
L 179.975077 157.511759 
L 181.863692 159.336107 
L 184.696615 162.468605 
L 185.640923 163.286648 
L 186.585231 164.339568 
L 190.362462 167.762926 
L 191.306769 168.439215 
L 192.251077 169.538253 
L 193.195385 170.463896 
L 194.139692 171.616783 
L 196.028308 173.252124 
L 198.861231 176.043636 
L 199.805538 176.67608 
L 201.694154 178.442305 
L 202.638462 179.03212 
L 203.582769 179.997233 
L 204.527077 180.636982 
L 206.415692 182.398289 
L 207.36 182.853485 
L 208.304308 183.789672 
L 210.192923 185.166089 
L 211.137231 186.118919 
L 216.803077 190.656989 
L 217.747385 191.221063 
L 219.636 192.85081 
L 221.524615 194.120305 
L 222.468923 195.099187 
L 223.413231 195.442978 
L 225.301846 196.928158 
L 227.190462 197.964914 
L 229.079077 199.267231 
L 230.023385 199.598336 
L 231.912 200.634069 
L 233.800615 201.887374 
L 235.689231 203.023154 
L 237.577846 204.118716 
L 241.355077 206.238932 
L 242.299385 206.905579 
L 244.188 207.994771 
L 245.132308 208.666457 
L 246.076615 209.097938 
L 247.020923 209.671408 
L 247.965231 210.078022 
L 249.853846 210.676336 
L 250.798154 211.024122 
L 254.575385 212.905538 
L 256.464 213.625574 
L 258.352615 214.613197 
L 259.296923 214.960397 
L 262.129846 216.668949 
L 266.851385 218.653656 
L 268.74 219.230767 
L 269.684308 219.61798 
L 270.628615 219.819542 
L 274.405846 221.376607 
L 277.238769 222.356519 
L 278.183077 222.755949 
L 279.127385 222.932433 
L 281.016 223.766088 
L 283.848923 224.573646 
L 285.737538 225.350005 
L 286.681846 225.708648 
L 287.626154 225.910642 
L 290.459077 227.025074 
L 292.347692 227.470304 
L 294.236308 228.055996 
L 306.512308 231.50502 
L 310.289538 232.753653 
L 311.233846 232.906313 
L 312.178154 233.329585 
L 313.122462 233.472252 
L 314.066769 233.83428 
L 317.844 234.7332 
L 318.788308 235.154014 
L 320.676923 235.505547 
L 323.509846 236.347621 
L 325.398462 236.657074 
L 327.287077 237.286038 
L 331.064308 238.229271 
L 333.897231 239.16514 
L 337.674462 239.784833 
L 341.451692 240.644602 
L 348.061846 242.057951 
L 349.950462 242.330704 
L 352.783385 242.827916 
L 353.727692 242.937266 
L 356.560615 243.743316 
L 360.337846 244.392392 
L 364.115077 245.124925 
L 365.059385 245.220704 
L 366.003692 245.490518 
L 377.335385 247.308889 
L 381.112615 248.046496 
L 382.056923 248.149518 
L 385.834154 249.016826 
L 389.611385 249.535516 
L 395.277231 250.19102 
L 396.221538 250.279222 
L 398.110154 250.709205 
L 403.776 251.348924 
L 419.829231 253.642767 
L 421.717846 253.989399 
L 423.134781 254.193623 
L 423.134781 254.193623 
" clip-path="url(#pf997486f98)" style="fill: none; stroke: #ff7f0e; stroke-width: 1.5; stroke-linecap: square"/>
    </g>
    <g id="line2d_56">
     <path d="M 234.744923 220.6192 
L 234.744923 74.2576 
" clip-path="url(#pf997486f98)" style="fill: none; stroke-dasharray: 5.55,2.4; stroke-dashoffset: 0; stroke: #ff7f0e; stroke-width: 1.5"/>
    </g>
    <g id="line2d_57">
     <path d="M 27.009595 369.824 
L 27.132616 -1 
M 99.750109 -1 
L 101.597538 6.422845 
L 104.430462 17.663065 
L 107.263385 27.460421 
L 108.207692 30.414416 
L 110.096308 36.761855 
L 115.762154 54.830937 
L 116.706462 57.027431 
L 120.483692 67.283056 
L 123.316615 74.427285 
L 125.205231 79.18848 
L 130.871077 91.986485 
L 131.815385 94.205343 
L 133.704 97.783665 
L 136.536923 103.830862 
L 138.425538 107.282377 
L 139.369846 109.524844 
L 142.202769 114.327415 
L 144.091385 117.95765 
L 146.924308 122.608525 
L 152.590154 131.011781 
L 153.534462 132.181968 
L 155.423077 135.246554 
L 157.311692 137.707287 
L 161.088923 142.850666 
L 163.921846 146.54506 
L 164.866154 147.530608 
L 166.754769 150.057128 
L 167.699077 151.407754 
L 169.587692 153.460737 
L 171.476308 155.894203 
L 174.309231 158.814033 
L 175.253538 159.971663 
L 179.030769 163.720974 
L 179.975077 164.321501 
L 180.919385 165.319533 
L 181.863692 166.117836 
L 186.585231 170.934965 
L 187.529538 171.708164 
L 189.418154 173.517037 
L 191.306769 175.288404 
L 192.251077 176.488845 
L 193.195385 177.184933 
L 194.139692 178.137502 
L 196.972615 180.41655 
L 197.916923 181.092106 
L 199.805538 182.87821 
L 202.638462 185.189709 
L 206.415692 188.090975 
L 207.36 188.556104 
L 209.248615 190.345105 
L 211.137231 191.48218 
L 213.970154 193.748503 
L 214.914462 194.293412 
L 220.580308 198.276081 
L 224.357538 200.619237 
L 225.301846 201.298445 
L 226.246154 201.770596 
L 229.079077 203.480962 
L 242.299385 210.940658 
L 243.243692 211.184277 
L 246.076615 212.810223 
L 247.020923 213.255438 
L 247.965231 213.57532 
L 248.909538 214.101359 
L 251.742462 215.351632 
L 254.575385 216.724378 
L 256.464 217.781871 
L 258.352615 218.57331 
L 259.296923 219.03567 
L 261.185538 219.62604 
L 266.851385 221.956364 
L 269.684308 222.921953 
L 270.628615 223.454029 
L 278.183077 226.641864 
L 279.127385 227.158413 
L 282.904615 228.385991 
L 286.681846 229.844501 
L 290.459077 230.798732 
L 296.124923 232.800964 
L 298.013538 233.231611 
L 301.790769 234.327179 
L 305.568 235.671159 
L 306.512308 235.79881 
L 311.233846 237.225696 
L 312.178154 237.442386 
L 313.122462 237.824865 
L 314.066769 238.038926 
L 315.955385 238.776033 
L 317.844 239.522015 
L 323.509846 240.984017 
L 324.454154 241.350292 
L 329.175692 242.563984 
L 330.12 242.923867 
L 332.008615 243.365156 
L 342.396 246.007095 
L 345.228923 246.67346 
L 346.173231 246.982132 
L 348.061846 247.313184 
L 349.006154 247.532974 
L 349.950462 247.638178 
L 352.783385 248.362481 
L 353.727692 248.491025 
L 357.504923 249.350806 
L 366.003692 251.363336 
L 370.725231 252.264181 
L 373.558154 252.740873 
L 375.446769 252.943732 
L 377.335385 253.369404 
L 383.001231 254.366289 
L 385.834154 254.897475 
L 387.722769 255.051261 
L 391.5 255.82916 
L 395.277231 256.290215 
L 398.110154 256.786912 
L 402.831692 257.199206 
L 404.720308 257.539968 
L 419.829231 259.304637 
L 423.134781 259.438754 
L 423.134781 259.438754 
" clip-path="url(#pf997486f98)" style="fill: none; stroke: #2ca02c; stroke-width: 1.5; stroke-linecap: square"/>
    </g>
    <g id="line2d_58">
     <path d="M 228.134769 220.6192 
L 228.134769 74.2576 
" clip-path="url(#pf997486f98)" style="fill: none; stroke-dasharray: 5.55,2.4; stroke-dashoffset: 0; stroke: #2ca02c; stroke-width: 1.5"/>
    </g>
    <g id="line2d_59">
     <path d="M 27.010056 369.824 
L 27.137667 -1 
M 96.042294 -1 
L 96.876 3.103566 
L 99.708923 14.343333 
L 103.486154 28.66794 
L 106.319077 38.763379 
L 108.207692 45.04778 
L 111.040615 54.419729 
L 114.817846 66.129404 
L 123.316615 86.934015 
L 125.205231 91.383305 
L 127.093846 95.978884 
L 129.926769 102.307408 
L 130.871077 104.659841 
L 132.759692 108.469561 
L 134.648308 112.067963 
L 136.536923 115.902537 
L 140.314154 123.035715 
L 141.258462 125.047921 
L 144.091385 129.620508 
L 145.035692 131.458378 
L 146.924308 134.293109 
L 149.757231 138.839786 
L 150.701538 140.244178 
L 151.645846 141.895924 
L 154.478769 145.093532 
L 156.367385 147.973291 
L 160.144615 153.080664 
L 162.033231 155.93792 
L 165.810462 160.247361 
L 166.754769 161.545233 
L 168.643385 163.385393 
L 172.420615 167.720268 
L 174.309231 169.499749 
L 175.253538 170.224209 
L 181.863692 176.668107 
L 187.529538 181.898944 
L 188.473846 182.634167 
L 190.362462 184.310129 
L 191.306769 184.963131 
L 193.195385 186.486991 
L 195.084 187.921521 
L 196.028308 188.768625 
L 196.972615 189.775213 
L 197.916923 190.39321 
L 199.805538 192.23034 
L 200.749846 193.271463 
L 202.638462 194.93722 
L 203.582769 195.607155 
L 204.527077 196.455119 
L 212.081538 201.57328 
L 216.803077 204.343881 
L 217.747385 204.976842 
L 219.636 205.867022 
L 220.580308 206.708049 
L 222.468923 207.835184 
L 224.357538 209.006072 
L 226.246154 209.826551 
L 228.134769 210.877608 
L 230.967692 212.641903 
L 232.856308 213.438143 
L 234.744923 214.444237 
L 235.689231 214.825575 
L 236.633538 215.364976 
L 244.188 218.52643 
L 245.132308 218.813728 
L 247.020923 219.919164 
L 250.798154 221.411341 
L 252.686769 222.308237 
L 253.631077 222.656891 
L 254.575385 223.238757 
L 256.464 223.781119 
L 257.408308 223.989468 
L 258.352615 224.426051 
L 259.296923 224.723933 
L 261.185538 225.491761 
L 268.74 228.319946 
L 273.461538 230.417423 
L 274.405846 230.601712 
L 276.294462 231.368709 
L 277.238769 231.784524 
L 279.127385 232.45642 
L 281.016 233.228862 
L 281.960308 233.693396 
L 287.626154 235.507025 
L 288.570462 235.807797 
L 290.459077 236.624521 
L 291.403385 236.933351 
L 292.347692 237.39 
L 294.236308 237.770345 
L 297.069231 238.625235 
L 298.013538 238.989338 
L 301.790769 239.904066 
L 302.735077 240.068468 
L 304.623692 240.687094 
L 305.568 240.851183 
L 306.512308 241.177065 
L 307.456615 241.33813 
L 311.233846 242.553133 
L 312.178154 242.65766 
L 318.788308 244.261231 
L 319.732615 244.368827 
L 321.621231 244.771328 
L 322.565538 244.943073 
L 323.509846 245.268417 
L 326.342769 245.782284 
L 329.175692 246.551778 
L 330.12 246.579091 
L 331.064308 246.720511 
L 333.897231 247.46251 
L 334.841538 247.535955 
L 337.674462 248.094292 
L 339.563077 248.348925 
L 341.451692 248.794747 
L 343.340308 249.423522 
L 345.228923 249.830122 
L 347.117538 250.144636 
L 348.061846 250.460479 
L 349.006154 250.496772 
L 349.950462 250.761272 
L 351.839077 251.123424 
L 352.783385 251.421272 
L 358.449231 252.549807 
L 362.226462 253.33719 
L 363.170769 253.661165 
L 365.059385 253.945005 
L 367.892308 254.349466 
L 369.780923 254.777017 
L 374.502462 255.4847 
L 380.168308 256.255054 
L 381.112615 256.493465 
L 383.945538 256.859814 
L 385.834154 257.049534 
L 387.722769 257.191916 
L 388.667077 257.382681 
L 390.555692 257.37677 
L 395.277231 258.128168 
L 397.165846 258.385123 
L 399.998769 258.546027 
L 409.441846 259.760527 
L 416.052 260.674408 
L 416.996308 260.879888 
L 418.884923 260.939494 
L 420.773538 261.19418 
L 423.134781 261.362254 
L 423.134781 261.362254 
" clip-path="url(#pf997486f98)" style="fill: none; stroke: #d62728; stroke-width: 1.5; stroke-linecap: square"/>
    </g>
    <g id="line2d_60">
     <path d="M 213.970154 220.6192 
L 213.970154 74.2576 
" clip-path="url(#pf997486f98)" style="fill: none; stroke-dasharray: 5.55,2.4; stroke-dashoffset: 0; stroke: #d62728; stroke-width: 1.5"/>
    </g>
    <g id="line2d_61">
     <path d="M 27.010166 369.824 
L 27.138874 -1 
M 95.902405 -1 
L 95.931692 -0.875513 
L 97.820308 7.971838 
L 99.708923 15.678091 
L 101.597538 23.492052 
L 103.486154 30.863021 
L 107.263385 43.093656 
L 109.152 49.858559 
L 111.040615 56.05254 
L 111.984923 59.354884 
L 112.929231 61.781921 
L 117.650769 75.711108 
L 122.372308 88.304148 
L 128.038154 102.049706 
L 129.926769 106.065683 
L 132.759692 111.962364 
L 134.648308 115.240427 
L 135.592615 117.446957 
L 137.481231 120.823747 
L 140.314154 125.296594 
L 142.202769 128.785375 
L 143.147077 130.30699 
L 144.091385 132.046713 
L 150.701538 142.148707 
L 151.645846 143.758296 
L 152.590154 144.739199 
L 153.534462 146.26898 
L 154.478769 147.421413 
L 158.256 152.770707 
L 160.144615 155.29903 
L 164.866154 161.537867 
L 165.810462 162.315506 
L 167.699077 164.278468 
L 169.587692 166.685 
L 171.476308 168.949533 
L 172.420615 169.998799 
L 175.253538 172.669411 
L 177.142154 174.871524 
L 179.030769 176.438543 
L 180.919385 178.238199 
L 182.808 180.049922 
L 185.640923 182.475826 
L 186.585231 183.435666 
L 187.529538 184.174541 
L 188.473846 185.159774 
L 189.418154 185.743043 
L 196.972615 191.772592 
L 202.638462 196.446427 
L 203.582769 197.059582 
L 205.471385 198.044462 
L 206.415692 198.885349 
L 207.36 199.307888 
L 210.192923 201.040303 
L 211.137231 201.797933 
L 213.025846 203.101322 
L 213.970154 203.871244 
L 215.858769 204.911754 
L 216.803077 205.287133 
L 222.468923 208.532526 
L 223.413231 209.244836 
L 230.967692 213.539573 
L 234.744923 215.440257 
L 235.689231 215.719298 
L 236.633538 216.379465 
L 239.466462 217.735896 
L 240.410769 218.096385 
L 242.299385 219.066398 
L 243.243692 219.442207 
L 244.188 220.012601 
L 247.020923 221.309246 
L 247.965231 221.885661 
L 248.909538 222.319284 
L 250.798154 223.034126 
L 255.519692 224.798418 
L 256.464 225.371711 
L 266.851385 229.327945 
L 267.795692 229.570554 
L 268.74 229.969653 
L 270.628615 230.408455 
L 271.572923 230.878868 
L 273.461538 231.53492 
L 275.350154 231.998388 
L 278.183077 233.013542 
L 279.127385 233.444766 
L 281.960308 234.398093 
L 282.904615 234.854828 
L 286.681846 236.070545 
L 288.570462 236.464688 
L 289.514769 236.839745 
L 291.403385 237.285509 
L 293.292 237.805086 
L 295.180615 238.450918 
L 297.069231 238.877022 
L 298.013538 239.019669 
L 301.790769 240.069472 
L 303.679385 240.514634 
L 305.568 241.029616 
L 313.122462 242.736759 
L 315.011077 243.102703 
L 315.955385 243.449497 
L 317.844 243.719359 
L 319.732615 244.195931 
L 320.676923 244.305187 
L 321.621231 244.602156 
L 323.509846 244.968539 
L 325.398462 245.464766 
L 327.287077 245.814301 
L 329.175692 246.342968 
L 331.064308 246.716772 
L 332.008615 246.978532 
L 334.841538 247.420807 
L 338.618769 248.556061 
L 342.396 249.047568 
L 344.284615 249.330117 
L 345.228923 249.586988 
L 346.173231 249.639247 
L 349.006154 250.07275 
L 355.616308 251.0031 
L 358.449231 251.515838 
L 362.226462 252.103678 
L 364.115077 252.622789 
L 366.948 253.003779 
L 390.555692 256.394776 
L 391.5 256.438779 
L 392.444308 256.621564 
L 393.388615 256.652158 
L 400.943077 258.030498 
L 406.608923 258.646351 
L 407.553231 258.660063 
L 409.441846 258.869638 
L 413.219077 259.244172 
L 414.163385 259.439917 
L 417.940615 259.732072 
L 420.773538 260.062975 
L 422.662154 260.268391 
L 423.134781 260.363358 
L 423.134781 260.363358 
" clip-path="url(#pf997486f98)" style="fill: none; stroke: #9467bd; stroke-width: 1.5; stroke-linecap: square"/>
    </g>
    <g id="line2d_62">
     <path d="M 212.081538 220.6192 
L 212.081538 74.2576 
" clip-path="url(#pf997486f98)" style="fill: none; stroke-dasharray: 5.55,2.4; stroke-dashoffset: 0; stroke: #9467bd; stroke-width: 1.5"/>
    </g>
    <g id="line2d_63">
     <path d="M 27.010222 369.824 
L 27.139483 -1 
M 94.957797 -1 
L 95.931692 3.254063 
L 96.876 6.975214 
L 101.597538 27.683086 
L 103.486154 34.888738 
L 107.263385 48.126774 
L 110.096308 57.459027 
L 111.040615 59.308693 
L 111.984923 62.531736 
L 115.762154 73.184717 
L 116.706462 75.263369 
L 119.539385 83.778618 
L 120.483692 85.492635 
L 121.428 88.338223 
L 122.372308 90.041494 
L 123.316615 92.880247 
L 124.260923 94.506683 
L 125.205231 97.272784 
L 126.149538 99.165093 
L 127.093846 101.712166 
L 128.982462 105.896862 
L 129.926769 106.047538 
L 130.871077 109.607201 
L 131.815385 110.622008 
L 132.759692 113.411085 
L 133.704 112.899081 
L 134.648308 117.177534 
L 135.592615 118.152343 
L 136.536923 120.996795 
L 137.481231 121.796153 
L 138.425538 124.612556 
L 139.369846 73.856291 
L 140.314154 128.009478 
L 141.258462 127.204052 
L 142.202769 131.665752 
L 143.147077 133.019228 
L 144.091385 135.130558 
L 148.812923 142.750208 
L 149.757231 144.60486 
L 152.590154 149.145344 
L 153.534462 150.355573 
L 155.423077 153.200467 
L 157.311692 155.309712 
L 162.033231 162.312581 
L 163.921846 164.413161 
L 165.810462 166.885067 
L 167.699077 168.972972 
L 168.643385 169.743463 
L 171.476308 172.904234 
L 172.420615 174.169223 
L 174.309231 176.124752 
L 176.197846 177.649541 
L 177.142154 178.744291 
L 178.086462 179.450297 
L 179.030769 180.476373 
L 179.975077 180.96493 
L 181.863692 183.155716 
L 182.808 184.28197 
L 183.752308 185.21029 
L 187.529538 188.004141 
L 189.418154 189.760344 
L 190.362462 190.629964 
L 192.251077 191.79533 
L 193.195385 192.251995 
L 194.139692 193.029002 
L 195.084 193.472424 
L 196.028308 194.413999 
L 198.861231 196.59362 
L 203.582769 199.745081 
L 208.304308 202.64166 
L 209.248615 203.345886 
L 210.192923 203.834944 
L 211.137231 204.529772 
L 212.081538 204.981403 
L 213.025846 205.691592 
L 214.914462 206.689582 
L 216.803077 207.855303 
L 217.747385 208.425213 
L 218.691692 208.850631 
L 219.636 209.622584 
L 222.468923 211.193979 
L 223.413231 211.5428 
L 230.023385 215.027468 
L 239.466462 219.598359 
L 240.410769 219.997081 
L 241.355077 220.233435 
L 243.243692 221.207911 
L 246.076615 222.267043 
L 248.909538 223.349132 
L 249.853846 223.637743 
L 255.519692 226.000324 
L 260.241231 227.761621 
L 261.185538 228.255213 
L 264.018462 229.222491 
L 264.962769 229.440897 
L 270.628615 231.556335 
L 273.461538 232.4654 
L 275.350154 232.982057 
L 277.238769 233.771311 
L 280.071692 234.616721 
L 287.626154 236.893956 
L 288.570462 237.096847 
L 289.514769 237.533104 
L 291.403385 238.150822 
L 298.957846 240.292903 
L 301.790769 240.846822 
L 305.568 241.855538 
L 310.289538 242.939042 
L 312.178154 243.371424 
L 314.066769 243.850378 
L 315.011077 243.97976 
L 316.899692 244.496659 
L 318.788308 244.789968 
L 319.732615 245.170516 
L 324.454154 246.135437 
L 328.231385 246.748395 
L 329.175692 247.062975 
L 338.618769 248.664746 
L 339.563077 248.850062 
L 340.507385 248.89805 
L 345.228923 249.991815 
L 349.006154 250.658628 
L 350.894769 251.113437 
L 351.839077 251.217449 
L 353.727692 251.591808 
L 358.449231 252.373671 
L 366.003692 253.789955 
L 370.725231 254.313221 
L 371.669538 254.359539 
L 373.558154 254.702667 
L 374.502462 254.867316 
L 378.279692 255.100238 
L 381.112615 255.513454 
L 383.001231 255.849359 
L 384.889846 255.869477 
L 389.611385 256.549956 
L 401.887385 257.816949 
L 404.720308 258.369293 
L 406.608923 258.372418 
L 407.553231 258.573338 
L 408.497538 258.610629 
L 410.386154 258.990534 
L 412.274769 259.1556 
L 419.829231 260.201319 
L 422.662154 260.556312 
L 423.134781 260.584206 
L 423.134781 260.584206 
" clip-path="url(#pf997486f98)" style="fill: none; stroke: #8c564b; stroke-width: 1.5; stroke-linecap: square"/>
    </g>
    <g id="line2d_64">
     <path d="M 208.304308 220.6192 
L 208.304308 74.2576 
" clip-path="url(#pf997486f98)" style="fill: none; stroke-dasharray: 5.55,2.4; stroke-dashoffset: 0; stroke: #8c564b; stroke-width: 1.5"/>
    </g>
    <g id="line2d_65">
     <path d="M 27.006453 369.824 
L 27.098208 -1 
M 147.997636 -1 
L 148.812923 1.104527 
L 149.757231 3.014387 
L 150.701538 5.391998 
L 156.367385 17.416253 
L 158.256 20.825251 
L 160.144615 24.838277 
L 161.088923 26.77752 
L 162.033231 28.415453 
L 162.977538 29.797655 
L 165.810462 34.703001 
L 168.643385 40.101503 
L 169.587692 41.71798 
L 170.532 42.905129 
L 173.364923 47.220361 
L 174.309231 48.873416 
L 176.197846 51.759998 
L 177.142154 53.203557 
L 178.086462 54.975427 
L 181.863692 60.74732 
L 183.752308 63.742916 
L 191.306769 73.691316 
L 193.195385 75.821864 
L 195.084 78.447672 
L 196.028308 79.597984 
L 196.972615 80.94261 
L 199.805538 84.195086 
L 200.749846 85.203477 
L 202.638462 87.614544 
L 204.527077 89.319739 
L 207.36 92.515724 
L 208.304308 93.824863 
L 210.192923 95.671514 
L 211.137231 96.831373 
L 214.914462 100.265105 
L 215.858769 101.356017 
L 217.747385 103.240688 
L 218.691692 104.34486 
L 224.357538 109.632471 
L 225.301846 110.247751 
L 226.246154 111.19 
L 227.190462 111.968368 
L 228.134769 112.945629 
L 229.079077 113.651474 
L 230.967692 115.501297 
L 232.856308 116.975109 
L 233.800615 117.978068 
L 235.689231 119.611305 
L 237.577846 121.299861 
L 238.522154 121.894982 
L 244.188 126.547489 
L 246.076615 128.287366 
L 247.020923 128.865284 
L 247.965231 129.593887 
L 248.909538 130.108279 
L 261.185538 139.064661 
L 263.074154 140.137612 
L 265.907077 142.200284 
L 266.851385 142.66868 
L 271.572923 145.833285 
L 274.405846 147.493379 
L 280.071692 151.135177 
L 281.016 151.543548 
L 283.848923 153.341443 
L 285.737538 154.08641 
L 287.626154 155.20042 
L 288.570462 155.460229 
L 293.292 158.33081 
L 295.180615 159.212063 
L 303.679385 163.907396 
L 304.623692 164.216399 
L 307.456615 165.618314 
L 313.122462 168.497573 
L 317.844 170.804357 
L 319.732615 171.60149 
L 322.565538 172.843644 
L 323.509846 173.108375 
L 331.064308 176.292985 
L 332.952923 177.064784 
L 333.897231 177.673527 
L 334.841538 178.044681 
L 335.785846 178.588317 
L 339.563077 179.984871 
L 341.451692 180.931807 
L 343.340308 181.710911 
L 346.173231 182.73314 
L 349.006154 183.811826 
L 351.839077 184.842445 
L 353.727692 185.663756 
L 355.616308 186.288684 
L 358.449231 187.38296 
L 360.337846 188.25562 
L 361.282154 188.514276 
L 363.170769 189.242899 
L 365.059385 189.828639 
L 366.948 190.418516 
L 368.836615 191.18415 
L 369.780923 191.467644 
L 370.725231 191.902293 
L 372.613846 192.454281 
L 375.446769 193.58958 
L 376.391077 194.029119 
L 379.224 194.94091 
L 382.056923 195.948724 
L 383.001231 196.127526 
L 392.444308 199.329101 
L 394.332923 199.833071 
L 396.221538 200.472761 
L 397.165846 200.709126 
L 399.998769 201.746821 
L 402.831692 202.457361 
L 407.553231 203.879563 
L 409.441846 204.212427 
L 413.219077 205.262255 
L 416.052 206.193234 
L 417.940615 206.829523 
L 418.884923 207.017746 
L 421.717846 207.97836 
L 423.134781 208.319301 
L 423.134781 208.319301 
" clip-path="url(#pf997486f98)" style="fill: none; stroke: #e377c2; stroke-width: 1.5; stroke-linecap: square"/>
    </g>
    <g id="line2d_66">
     <path d="M 402.831692 220.6192 
L 402.831692 74.2576 
" clip-path="url(#pf997486f98)" style="fill: none; stroke-dasharray: 5.55,2.4; stroke-dashoffset: 0; stroke: #e377c2; stroke-width: 1.5"/>
    </g>
    <g id="patch_8">
     <path d="M 207.36 220.6192 
L 207.36 74.2576 
" style="fill: none; stroke: #000000; stroke-width: 2; stroke-linejoin: miter; stroke-linecap: square"/>
    </g>
    <g id="patch_9">
     <path d="M 403.776 220.6192 
L 403.776 74.2576 
" style="fill: none; stroke: #000000; stroke-width: 2; stroke-linejoin: miter; stroke-linecap: square"/>
    </g>
    <g id="patch_10">
     <path d="M 207.36 220.6192 
L 403.776 220.6192 
" style="fill: none; stroke: #000000; stroke-width: 2; stroke-linejoin: miter; stroke-linecap: square"/>
    </g>
    <g id="patch_11">
     <path d="M 207.36 74.2576 
L 403.776 74.2576 
" style="fill: none; stroke: #000000; stroke-width: 2; stroke-linejoin: miter; stroke-linecap: square"/>
    </g>
   </g>
   <g id="legend_1">
    <g id="patch_12">
     <path d="M 43.833219 54.278125 
L 412.934781 54.278125 
Q 414.934781 54.278125 414.934781 52.278125 
L 414.934781 9.2 
Q 414.934781 7.2 412.934781 7.2 
L 43.833219 7.2 
Q 41.833219 7.2 41.833219 9.2 
L 41.833219 52.278125 
Q 41.833219 54.278125 43.833219 54.278125 
z
" style="fill: #ffffff; opacity: 0.8; stroke: #cccccc; stroke-linejoin: miter"/>
    </g>
    <g id="line2d_67">
     <path d="M 45.833219 15.298437 
L 55.833219 15.298437 
L 65.833219 15.298437 
" style="fill: none; stroke: #1f77b4; stroke-width: 2; stroke-linecap: square"/>
     <g>
      <use xlink:href="#mb838bc628f" x="55.833219" y="15.298437" style="fill: #1f77b4; stroke: #1f77b4"/>
     </g>
    </g>
    <g id="text_20">
     <!-- $\kappa$ = 0.02 -->
     <g transform="translate(73.833219 18.798437) scale(0.1 -0.1)">
      <defs>
       <path id="DejaVuSans-Oblique-3ba" d="M 938 3500 
L 1531 3500 
L 1247 2047 
L 3041 3500 
L 3741 3500 
L 2106 2181 
L 3275 0 
L 2572 0 
L 1628 1806 
L 1122 1403 
L 850 0 
L 256 0 
L 938 3500 
z
" transform="scale(0.015625)"/>
       <path id="DejaVuSans-20" transform="scale(0.015625)"/>
       <path id="DejaVuSans-3d" d="M 678 2906 
L 4684 2906 
L 4684 2381 
L 678 2381 
L 678 2906 
z
M 678 1631 
L 4684 1631 
L 4684 1100 
L 678 1100 
L 678 1631 
z
" transform="scale(0.015625)"/>
      </defs>
      <use xlink:href="#DejaVuSans-Oblique-3ba" transform="translate(0 0.78125)"/>
      <use xlink:href="#DejaVuSans-20" transform="translate(58.935547 0.78125)"/>
      <use xlink:href="#DejaVuSans-3d" transform="translate(90.722656 0.78125)"/>
      <use xlink:href="#DejaVuSans-20" transform="translate(174.511719 0.78125)"/>
      <use xlink:href="#DejaVuSans-30" transform="translate(206.298828 0.78125)"/>
      <use xlink:href="#DejaVuSans-2e" transform="translate(269.921875 0.78125)"/>
      <use xlink:href="#DejaVuSans-30" transform="translate(301.708984 0.78125)"/>
      <use xlink:href="#DejaVuSans-32" transform="translate(365.332031 0.78125)"/>
     </g>
    </g>
    <g id="line2d_68">
     <path d="M 45.833219 29.978125 
L 55.833219 29.978125 
L 65.833219 29.978125 
" style="fill: none; stroke: #ff7f0e; stroke-width: 2; stroke-linecap: square"/>
     <g>
      <use xlink:href="#mb2ef702c0b" x="55.833219" y="29.978125" style="fill: #ff7f0e; stroke: #ff7f0e; stroke-linejoin: miter"/>
     </g>
    </g>
    <g id="text_21">
     <!-- Constant-edge ($\alpha$ = 0.239) -->
     <g transform="translate(73.833219 33.478125) scale(0.1 -0.1)">
      <defs>
       <path id="DejaVuSans-43" d="M 4122 4306 
L 4122 3641 
Q 3803 3938 3442 4084 
Q 3081 4231 2675 4231 
Q 1875 4231 1450 3742 
Q 1025 3253 1025 2328 
Q 1025 1406 1450 917 
Q 1875 428 2675 428 
Q 3081 428 3442 575 
Q 3803 722 4122 1019 
L 4122 359 
Q 3791 134 3420 21 
Q 3050 -91 2638 -91 
Q 1578 -91 968 557 
Q 359 1206 359 2328 
Q 359 3453 968 4101 
Q 1578 4750 2638 4750 
Q 3056 4750 3426 4639 
Q 3797 4528 4122 4306 
z
" transform="scale(0.015625)"/>
       <path id="DejaVuSans-6f" d="M 1959 3097 
Q 1497 3097 1228 2736 
Q 959 2375 959 1747 
Q 959 1119 1226 758 
Q 1494 397 1959 397 
Q 2419 397 2687 759 
Q 2956 1122 2956 1747 
Q 2956 2369 2687 2733 
Q 2419 3097 1959 3097 
z
M 1959 3584 
Q 2709 3584 3137 3096 
Q 3566 2609 3566 1747 
Q 3566 888 3137 398 
Q 2709 -91 1959 -91 
Q 1206 -91 779 398 
Q 353 888 353 1747 
Q 353 2609 779 3096 
Q 1206 3584 1959 3584 
z
" transform="scale(0.015625)"/>
       <path id="DejaVuSans-6e" d="M 3513 2113 
L 3513 0 
L 2938 0 
L 2938 2094 
Q 2938 2591 2744 2837 
Q 2550 3084 2163 3084 
Q 1697 3084 1428 2787 
Q 1159 2491 1159 1978 
L 1159 0 
L 581 0 
L 581 3500 
L 1159 3500 
L 1159 2956 
Q 1366 3272 1645 3428 
Q 1925 3584 2291 3584 
Q 2894 3584 3203 3211 
Q 3513 2838 3513 2113 
z
" transform="scale(0.015625)"/>
       <path id="DejaVuSans-73" d="M 2834 3397 
L 2834 2853 
Q 2591 2978 2328 3040 
Q 2066 3103 1784 3103 
Q 1356 3103 1142 2972 
Q 928 2841 928 2578 
Q 928 2378 1081 2264 
Q 1234 2150 1697 2047 
L 1894 2003 
Q 2506 1872 2764 1633 
Q 3022 1394 3022 966 
Q 3022 478 2636 193 
Q 2250 -91 1575 -91 
Q 1294 -91 989 -36 
Q 684 19 347 128 
L 347 722 
Q 666 556 975 473 
Q 1284 391 1588 391 
Q 1994 391 2212 530 
Q 2431 669 2431 922 
Q 2431 1156 2273 1281 
Q 2116 1406 1581 1522 
L 1381 1569 
Q 847 1681 609 1914 
Q 372 2147 372 2553 
Q 372 3047 722 3315 
Q 1072 3584 1716 3584 
Q 2034 3584 2315 3537 
Q 2597 3491 2834 3397 
z
" transform="scale(0.015625)"/>
       <path id="DejaVuSans-74" d="M 1172 4494 
L 1172 3500 
L 2356 3500 
L 2356 3053 
L 1172 3053 
L 1172 1153 
Q 1172 725 1289 603 
Q 1406 481 1766 481 
L 2356 481 
L 2356 0 
L 1766 0 
Q 1100 0 847 248 
Q 594 497 594 1153 
L 594 3053 
L 172 3053 
L 172 3500 
L 594 3500 
L 594 4494 
L 1172 4494 
z
" transform="scale(0.015625)"/>
       <path id="DejaVuSans-61" d="M 2194 1759 
Q 1497 1759 1228 1600 
Q 959 1441 959 1056 
Q 959 750 1161 570 
Q 1363 391 1709 391 
Q 2188 391 2477 730 
Q 2766 1069 2766 1631 
L 2766 1759 
L 2194 1759 
z
M 3341 1997 
L 3341 0 
L 2766 0 
L 2766 531 
Q 2569 213 2275 61 
Q 1981 -91 1556 -91 
Q 1019 -91 701 211 
Q 384 513 384 1019 
Q 384 1609 779 1909 
Q 1175 2209 1959 2209 
L 2766 2209 
L 2766 2266 
Q 2766 2663 2505 2880 
Q 2244 3097 1772 3097 
Q 1472 3097 1187 3025 
Q 903 2953 641 2809 
L 641 3341 
Q 956 3463 1253 3523 
Q 1550 3584 1831 3584 
Q 2591 3584 2966 3190 
Q 3341 2797 3341 1997 
z
" transform="scale(0.015625)"/>
       <path id="DejaVuSans-2d" d="M 313 2009 
L 1997 2009 
L 1997 1497 
L 313 1497 
L 313 2009 
z
" transform="scale(0.015625)"/>
       <path id="DejaVuSans-65" d="M 3597 1894 
L 3597 1613 
L 953 1613 
Q 991 1019 1311 708 
Q 1631 397 2203 397 
Q 2534 397 2845 478 
Q 3156 559 3463 722 
L 3463 178 
Q 3153 47 2828 -22 
Q 2503 -91 2169 -91 
Q 1331 -91 842 396 
Q 353 884 353 1716 
Q 353 2575 817 3079 
Q 1281 3584 2069 3584 
Q 2775 3584 3186 3129 
Q 3597 2675 3597 1894 
z
M 3022 2063 
Q 3016 2534 2758 2815 
Q 2500 3097 2075 3097 
Q 1594 3097 1305 2825 
Q 1016 2553 972 2059 
L 3022 2063 
z
" transform="scale(0.015625)"/>
       <path id="DejaVuSans-64" d="M 2906 2969 
L 2906 4863 
L 3481 4863 
L 3481 0 
L 2906 0 
L 2906 525 
Q 2725 213 2448 61 
Q 2172 -91 1784 -91 
Q 1150 -91 751 415 
Q 353 922 353 1747 
Q 353 2572 751 3078 
Q 1150 3584 1784 3584 
Q 2172 3584 2448 3432 
Q 2725 3281 2906 2969 
z
M 947 1747 
Q 947 1113 1208 752 
Q 1469 391 1925 391 
Q 2381 391 2643 752 
Q 2906 1113 2906 1747 
Q 2906 2381 2643 2742 
Q 2381 3103 1925 3103 
Q 1469 3103 1208 2742 
Q 947 2381 947 1747 
z
" transform="scale(0.015625)"/>
       <path id="DejaVuSans-67" d="M 2906 1791 
Q 2906 2416 2648 2759 
Q 2391 3103 1925 3103 
Q 1463 3103 1205 2759 
Q 947 2416 947 1791 
Q 947 1169 1205 825 
Q 1463 481 1925 481 
Q 2391 481 2648 825 
Q 2906 1169 2906 1791 
z
M 3481 434 
Q 3481 -459 3084 -895 
Q 2688 -1331 1869 -1331 
Q 1566 -1331 1297 -1286 
Q 1028 -1241 775 -1147 
L 775 -588 
Q 1028 -725 1275 -790 
Q 1522 -856 1778 -856 
Q 2344 -856 2625 -561 
Q 2906 -266 2906 331 
L 2906 616 
Q 2728 306 2450 153 
Q 2172 0 1784 0 
Q 1141 0 747 490 
Q 353 981 353 1791 
Q 353 2603 747 3093 
Q 1141 3584 1784 3584 
Q 2172 3584 2450 3431 
Q 2728 3278 2906 2969 
L 2906 3500 
L 3481 3500 
L 3481 434 
z
" transform="scale(0.015625)"/>
       <path id="DejaVuSans-28" d="M 1984 4856 
Q 1566 4138 1362 3434 
Q 1159 2731 1159 2009 
Q 1159 1288 1364 580 
Q 1569 -128 1984 -844 
L 1484 -844 
Q 1016 -109 783 600 
Q 550 1309 550 2009 
Q 550 2706 781 3412 
Q 1013 4119 1484 4856 
L 1984 4856 
z
" transform="scale(0.015625)"/>
       <path id="DejaVuSans-Oblique-3b1" d="M 2619 1628 
L 2622 2350 
Q 2625 3088 2069 3091 
Q 1653 3094 1394 2747 
Q 1069 2319 959 1747 
Q 825 1059 994 731 
Q 1169 397 1547 397 
Q 1966 397 2319 1063 
L 2619 1628 
z
M 2166 3578 
Q 3141 3594 3128 2584 
Q 3128 2584 3616 3500 
L 4128 3500 
L 3119 1603 
L 3109 919 
Q 3109 766 3194 638 
Q 3291 488 3391 488 
L 3669 488 
L 3575 0 
L 3228 0 
Q 2934 0 2722 263 
Q 2622 394 2619 669 
Q 2416 334 2066 50 
Q 1900 -81 1453 -78 
Q 722 -72 456 397 
Q 184 884 353 1747 
Q 534 2675 1009 3097 
Q 1544 3569 2166 3578 
z
" transform="scale(0.015625)"/>
       <path id="DejaVuSans-39" d="M 703 97 
L 703 672 
Q 941 559 1184 500 
Q 1428 441 1663 441 
Q 2288 441 2617 861 
Q 2947 1281 2994 2138 
Q 2813 1869 2534 1725 
Q 2256 1581 1919 1581 
Q 1219 1581 811 2004 
Q 403 2428 403 3163 
Q 403 3881 828 4315 
Q 1253 4750 1959 4750 
Q 2769 4750 3195 4129 
Q 3622 3509 3622 2328 
Q 3622 1225 3098 567 
Q 2575 -91 1691 -91 
Q 1453 -91 1209 -44 
Q 966 3 703 97 
z
M 1959 2075 
Q 2384 2075 2632 2365 
Q 2881 2656 2881 3163 
Q 2881 3666 2632 3958 
Q 2384 4250 1959 4250 
Q 1534 4250 1286 3958 
Q 1038 3666 1038 3163 
Q 1038 2656 1286 2365 
Q 1534 2075 1959 2075 
z
" transform="scale(0.015625)"/>
       <path id="DejaVuSans-29" d="M 513 4856 
L 1013 4856 
Q 1481 4119 1714 3412 
Q 1947 2706 1947 2009 
Q 1947 1309 1714 600 
Q 1481 -109 1013 -844 
L 513 -844 
Q 928 -128 1133 580 
Q 1338 1288 1338 2009 
Q 1338 2731 1133 3434 
Q 928 4138 513 4856 
z
" transform="scale(0.015625)"/>
      </defs>
      <use xlink:href="#DejaVuSans-43" transform="translate(0 0.015625)"/>
      <use xlink:href="#DejaVuSans-6f" transform="translate(69.824219 0.015625)"/>
      <use xlink:href="#DejaVuSans-6e" transform="translate(131.005859 0.015625)"/>
      <use xlink:href="#DejaVuSans-73" transform="translate(194.384766 0.015625)"/>
      <use xlink:href="#DejaVuSans-74" transform="translate(246.484375 0.015625)"/>
      <use xlink:href="#DejaVuSans-61" transform="translate(285.693359 0.015625)"/>
      <use xlink:href="#DejaVuSans-6e" transform="translate(346.972656 0.015625)"/>
      <use xlink:href="#DejaVuSans-74" transform="translate(410.351562 0.015625)"/>
      <use xlink:href="#DejaVuSans-2d" transform="translate(449.560547 0.015625)"/>
      <use xlink:href="#DejaVuSans-65" transform="translate(485.644531 0.015625)"/>
      <use xlink:href="#DejaVuSans-64" transform="translate(547.167969 0.015625)"/>
      <use xlink:href="#DejaVuSans-67" transform="translate(610.644531 0.015625)"/>
      <use xlink:href="#DejaVuSans-65" transform="translate(674.121094 0.015625)"/>
      <use xlink:href="#DejaVuSans-20" transform="translate(735.644531 0.015625)"/>
      <use xlink:href="#DejaVuSans-28" transform="translate(767.431641 0.015625)"/>
      <use xlink:href="#DejaVuSans-Oblique-3b1" transform="translate(806.445312 0.015625)"/>
      <use xlink:href="#DejaVuSans-20" transform="translate(872.363281 0.015625)"/>
      <use xlink:href="#DejaVuSans-3d" transform="translate(904.150391 0.015625)"/>
      <use xlink:href="#DejaVuSans-20" transform="translate(987.939453 0.015625)"/>
      <use xlink:href="#DejaVuSans-30" transform="translate(1019.726562 0.015625)"/>
      <use xlink:href="#DejaVuSans-2e" transform="translate(1083.349609 0.015625)"/>
      <use xlink:href="#DejaVuSans-32" transform="translate(1109.636719 0.015625)"/>
      <use xlink:href="#DejaVuSans-33" transform="translate(1173.259766 0.015625)"/>
      <use xlink:href="#DejaVuSans-39" transform="translate(1236.882812 0.015625)"/>
      <use xlink:href="#DejaVuSans-29" transform="translate(1300.505859 0.015625)"/>
     </g>
    </g>
    <g id="line2d_69">
     <path d="M 45.833219 44.678125 
L 55.833219 44.678125 
L 65.833219 44.678125 
" style="fill: none; stroke: #2ca02c; stroke-width: 2; stroke-linecap: square"/>
     <g>
      <use xlink:href="#m2cc94fd6f3" x="55.833219" y="44.678125" style="fill: #2ca02c; stroke: #2ca02c; stroke-linejoin: miter"/>
     </g>
    </g>
    <g id="text_22">
     <!-- Maximum-degree ($\alpha$ = 0.167) -->
     <g transform="translate(73.833219 48.178125) scale(0.1 -0.1)">
      <defs>
       <path id="DejaVuSans-4d" d="M 628 4666 
L 1569 4666 
L 2759 1491 
L 3956 4666 
L 4897 4666 
L 4897 0 
L 4281 0 
L 4281 4097 
L 3078 897 
L 2444 897 
L 1241 4097 
L 1241 0 
L 628 0 
L 628 4666 
z
" transform="scale(0.015625)"/>
       <path id="DejaVuSans-78" d="M 3513 3500 
L 2247 1797 
L 3578 0 
L 2900 0 
L 1881 1375 
L 863 0 
L 184 0 
L 1544 1831 
L 300 3500 
L 978 3500 
L 1906 2253 
L 2834 3500 
L 3513 3500 
z
" transform="scale(0.015625)"/>
       <path id="DejaVuSans-69" d="M 603 3500 
L 1178 3500 
L 1178 0 
L 603 0 
L 603 3500 
z
M 603 4863 
L 1178 4863 
L 1178 4134 
L 603 4134 
L 603 4863 
z
" transform="scale(0.015625)"/>
       <path id="DejaVuSans-6d" d="M 3328 2828 
Q 3544 3216 3844 3400 
Q 4144 3584 4550 3584 
Q 5097 3584 5394 3201 
Q 5691 2819 5691 2113 
L 5691 0 
L 5113 0 
L 5113 2094 
Q 5113 2597 4934 2840 
Q 4756 3084 4391 3084 
Q 3944 3084 3684 2787 
Q 3425 2491 3425 1978 
L 3425 0 
L 2847 0 
L 2847 2094 
Q 2847 2600 2669 2842 
Q 2491 3084 2119 3084 
Q 1678 3084 1418 2786 
Q 1159 2488 1159 1978 
L 1159 0 
L 581 0 
L 581 3500 
L 1159 3500 
L 1159 2956 
Q 1356 3278 1631 3431 
Q 1906 3584 2284 3584 
Q 2666 3584 2933 3390 
Q 3200 3197 3328 2828 
z
" transform="scale(0.015625)"/>
       <path id="DejaVuSans-75" d="M 544 1381 
L 544 3500 
L 1119 3500 
L 1119 1403 
Q 1119 906 1312 657 
Q 1506 409 1894 409 
Q 2359 409 2629 706 
Q 2900 1003 2900 1516 
L 2900 3500 
L 3475 3500 
L 3475 0 
L 2900 0 
L 2900 538 
Q 2691 219 2414 64 
Q 2138 -91 1772 -91 
Q 1169 -91 856 284 
Q 544 659 544 1381 
z
M 1991 3584 
L 1991 3584 
z
" transform="scale(0.015625)"/>
       <path id="DejaVuSans-72" d="M 2631 2963 
Q 2534 3019 2420 3045 
Q 2306 3072 2169 3072 
Q 1681 3072 1420 2755 
Q 1159 2438 1159 1844 
L 1159 0 
L 581 0 
L 581 3500 
L 1159 3500 
L 1159 2956 
Q 1341 3275 1631 3429 
Q 1922 3584 2338 3584 
Q 2397 3584 2469 3576 
Q 2541 3569 2628 3553 
L 2631 2963 
z
" transform="scale(0.015625)"/>
      </defs>
      <use xlink:href="#DejaVuSans-4d" transform="translate(0 0.015625)"/>
      <use xlink:href="#DejaVuSans-61" transform="translate(86.279297 0.015625)"/>
      <use xlink:href="#DejaVuSans-78" transform="translate(147.558594 0.015625)"/>
      <use xlink:href="#DejaVuSans-69" transform="translate(206.738281 0.015625)"/>
      <use xlink:href="#DejaVuSans-6d" transform="translate(234.521484 0.015625)"/>
      <use xlink:href="#DejaVuSans-75" transform="translate(331.933594 0.015625)"/>
      <use xlink:href="#DejaVuSans-6d" transform="translate(395.3125 0.015625)"/>
      <use xlink:href="#DejaVuSans-2d" transform="translate(490.974609 0.015625)"/>
      <use xlink:href="#DejaVuSans-64" transform="translate(527.058594 0.015625)"/>
      <use xlink:href="#DejaVuSans-65" transform="translate(590.535156 0.015625)"/>
      <use xlink:href="#DejaVuSans-67" transform="translate(652.058594 0.015625)"/>
      <use xlink:href="#DejaVuSans-72" transform="translate(715.535156 0.015625)"/>
      <use xlink:href="#DejaVuSans-65" transform="translate(756.648438 0.015625)"/>
      <use xlink:href="#DejaVuSans-65" transform="translate(818.171875 0.015625)"/>
      <use xlink:href="#DejaVuSans-20" transform="translate(879.695312 0.015625)"/>
      <use xlink:href="#DejaVuSans-28" transform="translate(911.482422 0.015625)"/>
      <use xlink:href="#DejaVuSans-Oblique-3b1" transform="translate(950.496094 0.015625)"/>
      <use xlink:href="#DejaVuSans-20" transform="translate(1016.414062 0.015625)"/>
      <use xlink:href="#DejaVuSans-3d" transform="translate(1048.201172 0.015625)"/>
      <use xlink:href="#DejaVuSans-20" transform="translate(1131.990234 0.015625)"/>
      <use xlink:href="#DejaVuSans-30" transform="translate(1163.777344 0.015625)"/>
      <use xlink:href="#DejaVuSans-2e" transform="translate(1227.400391 0.015625)"/>
      <use xlink:href="#DejaVuSans-31" transform="translate(1259.1875 0.015625)"/>
      <use xlink:href="#DejaVuSans-36" transform="translate(1322.810547 0.015625)"/>
      <use xlink:href="#DejaVuSans-37" transform="translate(1386.433594 0.015625)"/>
      <use xlink:href="#DejaVuSans-29" transform="translate(1450.056641 0.015625)"/>
     </g>
    </g>
    <g id="line2d_70">
     <path d="M 242.833219 15.298437 
L 252.833219 15.298437 
L 262.833219 15.298437 
" style="fill: none; stroke: #d62728; stroke-width: 2; stroke-linecap: square"/>
     <g>
      <use xlink:href="#mf9493789cd" x="252.833219" y="15.298437" style="fill: #d62728; stroke: #d62728"/>
     </g>
    </g>
    <g id="text_23">
     <!-- Local-degree -->
     <g transform="translate(270.833219 18.798437) scale(0.1 -0.1)">
      <defs>
       <path id="DejaVuSans-4c" d="M 628 4666 
L 1259 4666 
L 1259 531 
L 3531 531 
L 3531 0 
L 628 0 
L 628 4666 
z
" transform="scale(0.015625)"/>
       <path id="DejaVuSans-63" d="M 3122 3366 
L 3122 2828 
Q 2878 2963 2633 3030 
Q 2388 3097 2138 3097 
Q 1578 3097 1268 2742 
Q 959 2388 959 1747 
Q 959 1106 1268 751 
Q 1578 397 2138 397 
Q 2388 397 2633 464 
Q 2878 531 3122 666 
L 3122 134 
Q 2881 22 2623 -34 
Q 2366 -91 2075 -91 
Q 1284 -91 818 406 
Q 353 903 353 1747 
Q 353 2603 823 3093 
Q 1294 3584 2113 3584 
Q 2378 3584 2631 3529 
Q 2884 3475 3122 3366 
z
" transform="scale(0.015625)"/>
       <path id="DejaVuSans-6c" d="M 603 4863 
L 1178 4863 
L 1178 0 
L 603 0 
L 603 4863 
z
" transform="scale(0.015625)"/>
      </defs>
      <use xlink:href="#DejaVuSans-4c"/>
      <use xlink:href="#DejaVuSans-6f" x="53.962891"/>
      <use xlink:href="#DejaVuSans-63" x="115.144531"/>
      <use xlink:href="#DejaVuSans-61" x="170.125"/>
      <use xlink:href="#DejaVuSans-6c" x="231.404297"/>
      <use xlink:href="#DejaVuSans-2d" x="259.1875"/>
      <use xlink:href="#DejaVuSans-64" x="295.271484"/>
      <use xlink:href="#DejaVuSans-65" x="358.748047"/>
      <use xlink:href="#DejaVuSans-67" x="420.271484"/>
      <use xlink:href="#DejaVuSans-72" x="483.748047"/>
      <use xlink:href="#DejaVuSans-65" x="522.611328"/>
      <use xlink:href="#DejaVuSans-65" x="584.134766"/>
     </g>
    </g>
    <g id="line2d_71">
     <path d="M 242.833219 29.976562 
L 252.833219 29.976562 
L 262.833219 29.976562 
" style="fill: none; stroke: #9467bd; stroke-width: 2; stroke-linecap: square"/>
     <g>
      <use xlink:href="#m58b83e5749" x="252.833219" y="29.976562" style="fill: #9467bd; stroke: #9467bd; stroke-linejoin: miter"/>
     </g>
    </g>
    <g id="text_24">
     <!-- FMMC -->
     <g transform="translate(270.833219 33.476562) scale(0.1 -0.1)">
      <defs>
       <path id="DejaVuSans-46" d="M 628 4666 
L 3309 4666 
L 3309 4134 
L 1259 4134 
L 1259 2759 
L 3109 2759 
L 3109 2228 
L 1259 2228 
L 1259 0 
L 628 0 
L 628 4666 
z
" transform="scale(0.015625)"/>
      </defs>
      <use xlink:href="#DejaVuSans-46"/>
      <use xlink:href="#DejaVuSans-4d" x="57.519531"/>
      <use xlink:href="#DejaVuSans-4d" x="143.798828"/>
      <use xlink:href="#DejaVuSans-43" x="230.078125"/>
     </g>
    </g>
    <g id="line2d_72">
     <path d="M 355.403531 15.298437 
L 365.403531 15.298437 
L 375.403531 15.298437 
" style="fill: none; stroke: #8c564b; stroke-width: 2; stroke-linecap: square"/>
     <g>
      <use xlink:href="#m44794a28f0" x="365.403531" y="15.298437" style="fill: #8c564b; stroke: #8c564b; stroke-linejoin: miter"/>
     </g>
    </g>
    <g id="text_25">
     <!-- FDLA -->
     <g transform="translate(383.403531 18.798437) scale(0.1 -0.1)">
      <defs>
       <path id="DejaVuSans-44" d="M 1259 4147 
L 1259 519 
L 2022 519 
Q 2988 519 3436 956 
Q 3884 1394 3884 2338 
Q 3884 3275 3436 3711 
Q 2988 4147 2022 4147 
L 1259 4147 
z
M 628 4666 
L 1925 4666 
Q 3281 4666 3915 4102 
Q 4550 3538 4550 2338 
Q 4550 1131 3912 565 
Q 3275 0 1925 0 
L 628 0 
L 628 4666 
z
" transform="scale(0.015625)"/>
       <path id="DejaVuSans-41" d="M 2188 4044 
L 1331 1722 
L 3047 1722 
L 2188 4044 
z
M 1831 4666 
L 2547 4666 
L 4325 0 
L 3669 0 
L 3244 1197 
L 1141 1197 
L 716 0 
L 50 0 
L 1831 4666 
z
" transform="scale(0.015625)"/>
      </defs>
      <use xlink:href="#DejaVuSans-46"/>
      <use xlink:href="#DejaVuSans-44" x="57.519531"/>
      <use xlink:href="#DejaVuSans-4c" x="134.521484"/>
      <use xlink:href="#DejaVuSans-41" x="192.484375"/>
     </g>
    </g>
    <g id="line2d_73">
     <path d="M 355.403531 29.976562 
L 365.403531 29.976562 
L 375.403531 29.976562 
" style="fill: none; stroke: #e377c2; stroke-width: 2; stroke-linecap: square"/>
     <g>
      <use xlink:href="#m6904e8c7cf" x="365.403531" y="29.976562" style="fill: #e377c2; stroke: #e377c2"/>
     </g>
    </g>
    <g id="text_26">
     <!-- LMSC -->
     <g transform="translate(383.403531 33.476562) scale(0.1 -0.1)">
      <defs>
       <path id="DejaVuSans-53" d="M 3425 4513 
L 3425 3897 
Q 3066 4069 2747 4153 
Q 2428 4238 2131 4238 
Q 1616 4238 1336 4038 
Q 1056 3838 1056 3469 
Q 1056 3159 1242 3001 
Q 1428 2844 1947 2747 
L 2328 2669 
Q 3034 2534 3370 2195 
Q 3706 1856 3706 1288 
Q 3706 609 3251 259 
Q 2797 -91 1919 -91 
Q 1588 -91 1214 -16 
Q 841 59 441 206 
L 441 856 
Q 825 641 1194 531 
Q 1563 422 1919 422 
Q 2459 422 2753 634 
Q 3047 847 3047 1241 
Q 3047 1584 2836 1778 
Q 2625 1972 2144 2069 
L 1759 2144 
Q 1053 2284 737 2584 
Q 422 2884 422 3419 
Q 422 4038 858 4394 
Q 1294 4750 2059 4750 
Q 2388 4750 2728 4690 
Q 3069 4631 3425 4513 
z
" transform="scale(0.015625)"/>
      </defs>
      <use xlink:href="#DejaVuSans-4c"/>
      <use xlink:href="#DejaVuSans-4d" x="55.712891"/>
      <use xlink:href="#DejaVuSans-53" x="141.992188"/>
      <use xlink:href="#DejaVuSans-43" x="205.46875"/>
     </g>
    </g>
   </g>
  </g>
  <g id="patch_13">
   <path d="M 363.290147 304.973106 
Q 285.325073 262.796153 207.36 220.6192 
" style="fill: none; stroke: #000000; stroke-linecap: round"/>
  </g>
  <g id="text_27">
   <!-- Timesteps -->
   <g transform="translate(197.599313 359.128375) scale(0.12 -0.12)">
    <defs>
     <path id="DejaVuSans-54" d="M -19 4666 
L 3928 4666 
L 3928 4134 
L 2272 4134 
L 2272 0 
L 1638 0 
L 1638 4134 
L -19 4134 
L -19 4666 
z
" transform="scale(0.015625)"/>
     <path id="DejaVuSans-70" d="M 1159 525 
L 1159 -1331 
L 581 -1331 
L 581 3500 
L 1159 3500 
L 1159 2969 
Q 1341 3281 1617 3432 
Q 1894 3584 2278 3584 
Q 2916 3584 3314 3078 
Q 3713 2572 3713 1747 
Q 3713 922 3314 415 
Q 2916 -91 2278 -91 
Q 1894 -91 1617 61 
Q 1341 213 1159 525 
z
M 3116 1747 
Q 3116 2381 2855 2742 
Q 2594 3103 2138 3103 
Q 1681 3103 1420 2742 
Q 1159 2381 1159 1747 
Q 1159 1113 1420 752 
Q 1681 391 2138 391 
Q 2594 391 2855 752 
Q 3116 1113 3116 1747 
z
" transform="scale(0.015625)"/>
    </defs>
    <use xlink:href="#DejaVuSans-54"/>
    <use xlink:href="#DejaVuSans-69" x="57.958984"/>
    <use xlink:href="#DejaVuSans-6d" x="85.742188"/>
    <use xlink:href="#DejaVuSans-65" x="183.154297"/>
    <use xlink:href="#DejaVuSans-73" x="244.677734"/>
    <use xlink:href="#DejaVuSans-74" x="296.777344"/>
    <use xlink:href="#DejaVuSans-65" x="335.986328"/>
    <use xlink:href="#DejaVuSans-70" x="397.509766"/>
    <use xlink:href="#DejaVuSans-73" x="460.986328"/>
   </g>
  </g>
  <g id="text_28">
   <!-- Mean estimate error for the best arm -->
   <g transform="translate(16.318125 303.952187) rotate(-90) scale(0.12 -0.12)">
    <defs>
     <path id="DejaVuSans-66" d="M 2375 4863 
L 2375 4384 
L 1825 4384 
Q 1516 4384 1395 4259 
Q 1275 4134 1275 3809 
L 1275 3500 
L 2222 3500 
L 2222 3053 
L 1275 3053 
L 1275 0 
L 697 0 
L 697 3053 
L 147 3053 
L 147 3500 
L 697 3500 
L 697 3744 
Q 697 4328 969 4595 
Q 1241 4863 1831 4863 
L 2375 4863 
z
" transform="scale(0.015625)"/>
     <path id="DejaVuSans-68" d="M 3513 2113 
L 3513 0 
L 2938 0 
L 2938 2094 
Q 2938 2591 2744 2837 
Q 2550 3084 2163 3084 
Q 1697 3084 1428 2787 
Q 1159 2491 1159 1978 
L 1159 0 
L 581 0 
L 581 4863 
L 1159 4863 
L 1159 2956 
Q 1366 3272 1645 3428 
Q 1925 3584 2291 3584 
Q 2894 3584 3203 3211 
Q 3513 2838 3513 2113 
z
" transform="scale(0.015625)"/>
     <path id="DejaVuSans-62" d="M 3116 1747 
Q 3116 2381 2855 2742 
Q 2594 3103 2138 3103 
Q 1681 3103 1420 2742 
Q 1159 2381 1159 1747 
Q 1159 1113 1420 752 
Q 1681 391 2138 391 
Q 2594 391 2855 752 
Q 3116 1113 3116 1747 
z
M 1159 2969 
Q 1341 3281 1617 3432 
Q 1894 3584 2278 3584 
Q 2916 3584 3314 3078 
Q 3713 2572 3713 1747 
Q 3713 922 3314 415 
Q 2916 -91 2278 -91 
Q 1894 -91 1617 61 
Q 1341 213 1159 525 
L 1159 0 
L 581 0 
L 581 4863 
L 1159 4863 
L 1159 2969 
z
" transform="scale(0.015625)"/>
    </defs>
    <use xlink:href="#DejaVuSans-4d"/>
    <use xlink:href="#DejaVuSans-65" x="86.279297"/>
    <use xlink:href="#DejaVuSans-61" x="147.802734"/>
    <use xlink:href="#DejaVuSans-6e" x="209.082031"/>
    <use xlink:href="#DejaVuSans-20" x="272.460938"/>
    <use xlink:href="#DejaVuSans-65" x="304.248047"/>
    <use xlink:href="#DejaVuSans-73" x="365.771484"/>
    <use xlink:href="#DejaVuSans-74" x="417.871094"/>
    <use xlink:href="#DejaVuSans-69" x="457.080078"/>
    <use xlink:href="#DejaVuSans-6d" x="484.863281"/>
    <use xlink:href="#DejaVuSans-61" x="582.275391"/>
    <use xlink:href="#DejaVuSans-74" x="643.554688"/>
    <use xlink:href="#DejaVuSans-65" x="682.763672"/>
    <use xlink:href="#DejaVuSans-20" x="744.287109"/>
    <use xlink:href="#DejaVuSans-65" x="776.074219"/>
    <use xlink:href="#DejaVuSans-72" x="837.597656"/>
    <use xlink:href="#DejaVuSans-72" x="876.960938"/>
    <use xlink:href="#DejaVuSans-6f" x="915.824219"/>
    <use xlink:href="#DejaVuSans-72" x="977.005859"/>
    <use xlink:href="#DejaVuSans-20" x="1018.119141"/>
    <use xlink:href="#DejaVuSans-66" x="1049.90625"/>
    <use xlink:href="#DejaVuSans-6f" x="1085.111328"/>
    <use xlink:href="#DejaVuSans-72" x="1146.292969"/>
    <use xlink:href="#DejaVuSans-20" x="1187.40625"/>
    <use xlink:href="#DejaVuSans-74" x="1219.193359"/>
    <use xlink:href="#DejaVuSans-68" x="1258.402344"/>
    <use xlink:href="#DejaVuSans-65" x="1321.78125"/>
    <use xlink:href="#DejaVuSans-20" x="1383.304688"/>
    <use xlink:href="#DejaVuSans-62" x="1415.091797"/>
    <use xlink:href="#DejaVuSans-65" x="1478.568359"/>
    <use xlink:href="#DejaVuSans-73" x="1540.091797"/>
    <use xlink:href="#DejaVuSans-74" x="1592.191406"/>
    <use xlink:href="#DejaVuSans-20" x="1631.400391"/>
    <use xlink:href="#DejaVuSans-61" x="1663.1875"/>
    <use xlink:href="#DejaVuSans-72" x="1724.466797"/>
    <use xlink:href="#DejaVuSans-6d" x="1763.830078"/>
   </g>
  </g>
 </g>
 <defs>
  <clipPath id="pac36dbb3ef">
   <rect x="55.584" y="60.952" width="357.12" height="266.112"/>
  </clipPath>
  <clipPath id="pf997486f98">
   <rect x="207.36" y="74.2576" width="196.416" height="146.3616"/>
  </clipPath>
 </defs>
</svg>
