<?xml version="1.0" encoding="utf-8" standalone="no"?>
<!DOCTYPE svg PUBLIC "-//W3C//DTD SVG 1.1//EN"
  "http://www.w3.org/Graphics/SVG/1.1/DTD/svg11.dtd">
<svg xmlns:xlink="http://www.w3.org/1999/xlink" width="458.790625pt" height="368.824pt" viewBox="0 0 458.790625 368.824" xmlns="http://www.w3.org/2000/svg" version="1.1">
 <metadata>
  <rdf:RDF xmlns:dc="http://purl.org/dc/elements/1.1/" xmlns:cc="http://creativecommons.org/ns#" xmlns:rdf="http://www.w3.org/1999/02/22-rdf-syntax-ns#">
   <cc:Work>
    <dc:type rdf:resource="http://purl.org/dc/dcmitype/StillImage"/>
    <dc:date>2024-06-03T23:35:38.036069</dc:date>
    <dc:format>image/svg+xml</dc:format>
    <dc:creator>
     <cc:Agent>
      <dc:title>Matplotlib v3.9.0, https://matplotlib.org/</dc:title>
     </cc:Agent>
    </dc:creator>
   </cc:Work>
  </rdf:RDF>
 </metadata>
 <defs>
  <style type="text/css">*{stroke-linejoin: round; stroke-linecap: butt}</style>
 </defs>
 <g id="figure_1">
  <g id="patch_1">
   <path d="M 0 368.824 
L 458.790625 368.824 
L 458.790625 0 
L 0 0 
z
" style="fill: #ffffff"/>
  </g>
  <g id="axes_1">
   <g id="patch_2">
    <path d="M 56.595312 327.064 
L 413.715313 327.064 
L 413.715313 60.952 
L 56.595312 60.952 
z
" style="fill: #ffffff"/>
   </g>
   <g id="PolyCollection_1">
    <path d="M 126.124682 278.907767 
L 126.124682 281.575843 
L 129.699457 281.575843 
L 129.699457 278.907767 
L 129.699457 278.907767 
L 126.124682 278.907767 
z
" clip-path="url(#p3cafb39614)" style="fill-opacity: 0.2"/>
   </g>
   <g id="matplotlib.axis_1">
    <g id="xtick_1">
     <g id="line2d_1">
      <path d="M 72.82804 327.064 
L 72.82804 60.952 
" clip-path="url(#p3cafb39614)" style="fill: none; stroke: #b0b0b0; stroke-width: 0.8; stroke-linecap: square"/>
     </g>
     <g id="line2d_2">
      <defs>
       <path id="m0d58d4e526" d="M 0 0 
L 0 3.5 
" style="stroke: #000000; stroke-width: 0.8"/>
      </defs>
      <g>
       <use xlink:href="#m0d58d4e526" x="72.82804" y="327.064" style="stroke: #000000; stroke-width: 0.8"/>
      </g>
     </g>
     <g id="text_1">
      <!-- 0 -->
      <g transform="translate(68.37429 344.701813) scale(0.14 -0.14)">
       <defs>
        <path id="DejaVuSans-30" d="M 2034 4250 
Q 1547 4250 1301 3770 
Q 1056 3291 1056 2328 
Q 1056 1369 1301 889 
Q 1547 409 2034 409 
Q 2525 409 2770 889 
Q 3016 1369 3016 2328 
Q 3016 3291 2770 3770 
Q 2525 4250 2034 4250 
z
M 2034 4750 
Q 2819 4750 3233 4129 
Q 3647 3509 3647 2328 
Q 3647 1150 3233 529 
Q 2819 -91 2034 -91 
Q 1250 -91 836 529 
Q 422 1150 422 2328 
Q 422 3509 836 4129 
Q 1250 4750 2034 4750 
z
" transform="scale(0.015625)"/>
       </defs>
       <use xlink:href="#DejaVuSans-30"/>
      </g>
     </g>
    </g>
    <g id="xtick_2">
     <g id="line2d_3">
      <path d="M 137.823945 327.064 
L 137.823945 60.952 
" clip-path="url(#p3cafb39614)" style="fill: none; stroke: #b0b0b0; stroke-width: 0.8; stroke-linecap: square"/>
     </g>
     <g id="line2d_4">
      <g>
       <use xlink:href="#m0d58d4e526" x="137.823945" y="327.064" style="stroke: #000000; stroke-width: 0.8"/>
      </g>
     </g>
     <g id="text_2">
      <!-- 200 -->
      <g transform="translate(124.462695 344.701813) scale(0.14 -0.14)">
       <defs>
        <path id="DejaVuSans-32" d="M 1228 531 
L 3431 531 
L 3431 0 
L 469 0 
L 469 531 
Q 828 903 1448 1529 
Q 2069 2156 2228 2338 
Q 2531 2678 2651 2914 
Q 2772 3150 2772 3378 
Q 2772 3750 2511 3984 
Q 2250 4219 1831 4219 
Q 1534 4219 1204 4116 
Q 875 4013 500 3803 
L 500 4441 
Q 881 4594 1212 4672 
Q 1544 4750 1819 4750 
Q 2544 4750 2975 4387 
Q 3406 4025 3406 3419 
Q 3406 3131 3298 2873 
Q 3191 2616 2906 2266 
Q 2828 2175 2409 1742 
Q 1991 1309 1228 531 
z
" transform="scale(0.015625)"/>
       </defs>
       <use xlink:href="#DejaVuSans-32"/>
       <use xlink:href="#DejaVuSans-30" x="63.623047"/>
       <use xlink:href="#DejaVuSans-30" x="127.246094"/>
      </g>
     </g>
    </g>
    <g id="xtick_3">
     <g id="line2d_5">
      <path d="M 202.81985 327.064 
L 202.81985 60.952 
" clip-path="url(#p3cafb39614)" style="fill: none; stroke: #b0b0b0; stroke-width: 0.8; stroke-linecap: square"/>
     </g>
     <g id="line2d_6">
      <g>
       <use xlink:href="#m0d58d4e526" x="202.81985" y="327.064" style="stroke: #000000; stroke-width: 0.8"/>
      </g>
     </g>
     <g id="text_3">
      <!-- 400 -->
      <g transform="translate(189.4586 344.701813) scale(0.14 -0.14)">
       <defs>
        <path id="DejaVuSans-34" d="M 2419 4116 
L 825 1625 
L 2419 1625 
L 2419 4116 
z
M 2253 4666 
L 3047 4666 
L 3047 1625 
L 3713 1625 
L 3713 1100 
L 3047 1100 
L 3047 0 
L 2419 0 
L 2419 1100 
L 313 1100 
L 313 1709 
L 2253 4666 
z
" transform="scale(0.015625)"/>
       </defs>
       <use xlink:href="#DejaVuSans-34"/>
       <use xlink:href="#DejaVuSans-30" x="63.623047"/>
       <use xlink:href="#DejaVuSans-30" x="127.246094"/>
      </g>
     </g>
    </g>
    <g id="xtick_4">
     <g id="line2d_7">
      <path d="M 267.815755 327.064 
L 267.815755 60.952 
" clip-path="url(#p3cafb39614)" style="fill: none; stroke: #b0b0b0; stroke-width: 0.8; stroke-linecap: square"/>
     </g>
     <g id="line2d_8">
      <g>
       <use xlink:href="#m0d58d4e526" x="267.815755" y="327.064" style="stroke: #000000; stroke-width: 0.8"/>
      </g>
     </g>
     <g id="text_4">
      <!-- 600 -->
      <g transform="translate(254.454505 344.701813) scale(0.14 -0.14)">
       <defs>
        <path id="DejaVuSans-36" d="M 2113 2584 
Q 1688 2584 1439 2293 
Q 1191 2003 1191 1497 
Q 1191 994 1439 701 
Q 1688 409 2113 409 
Q 2538 409 2786 701 
Q 3034 994 3034 1497 
Q 3034 2003 2786 2293 
Q 2538 2584 2113 2584 
z
M 3366 4563 
L 3366 3988 
Q 3128 4100 2886 4159 
Q 2644 4219 2406 4219 
Q 1781 4219 1451 3797 
Q 1122 3375 1075 2522 
Q 1259 2794 1537 2939 
Q 1816 3084 2150 3084 
Q 2853 3084 3261 2657 
Q 3669 2231 3669 1497 
Q 3669 778 3244 343 
Q 2819 -91 2113 -91 
Q 1303 -91 875 529 
Q 447 1150 447 2328 
Q 447 3434 972 4092 
Q 1497 4750 2381 4750 
Q 2619 4750 2861 4703 
Q 3103 4656 3366 4563 
z
" transform="scale(0.015625)"/>
       </defs>
       <use xlink:href="#DejaVuSans-36"/>
       <use xlink:href="#DejaVuSans-30" x="63.623047"/>
       <use xlink:href="#DejaVuSans-30" x="127.246094"/>
      </g>
     </g>
    </g>
    <g id="xtick_5">
     <g id="line2d_9">
      <path d="M 332.81166 327.064 
L 332.81166 60.952 
" clip-path="url(#p3cafb39614)" style="fill: none; stroke: #b0b0b0; stroke-width: 0.8; stroke-linecap: square"/>
     </g>
     <g id="line2d_10">
      <g>
       <use xlink:href="#m0d58d4e526" x="332.81166" y="327.064" style="stroke: #000000; stroke-width: 0.8"/>
      </g>
     </g>
     <g id="text_5">
      <!-- 800 -->
      <g transform="translate(319.45041 344.701813) scale(0.14 -0.14)">
       <defs>
        <path id="DejaVuSans-38" d="M 2034 2216 
Q 1584 2216 1326 1975 
Q 1069 1734 1069 1313 
Q 1069 891 1326 650 
Q 1584 409 2034 409 
Q 2484 409 2743 651 
Q 3003 894 3003 1313 
Q 3003 1734 2745 1975 
Q 2488 2216 2034 2216 
z
M 1403 2484 
Q 997 2584 770 2862 
Q 544 3141 544 3541 
Q 544 4100 942 4425 
Q 1341 4750 2034 4750 
Q 2731 4750 3128 4425 
Q 3525 4100 3525 3541 
Q 3525 3141 3298 2862 
Q 3072 2584 2669 2484 
Q 3125 2378 3379 2068 
Q 3634 1759 3634 1313 
Q 3634 634 3220 271 
Q 2806 -91 2034 -91 
Q 1263 -91 848 271 
Q 434 634 434 1313 
Q 434 1759 690 2068 
Q 947 2378 1403 2484 
z
M 1172 3481 
Q 1172 3119 1398 2916 
Q 1625 2713 2034 2713 
Q 2441 2713 2670 2916 
Q 2900 3119 2900 3481 
Q 2900 3844 2670 4047 
Q 2441 4250 2034 4250 
Q 1625 4250 1398 4047 
Q 1172 3844 1172 3481 
z
" transform="scale(0.015625)"/>
       </defs>
       <use xlink:href="#DejaVuSans-38"/>
       <use xlink:href="#DejaVuSans-30" x="63.623047"/>
       <use xlink:href="#DejaVuSans-30" x="127.246094"/>
      </g>
     </g>
    </g>
    <g id="xtick_6">
     <g id="line2d_11">
      <path d="M 397.807565 327.064 
L 397.807565 60.952 
" clip-path="url(#p3cafb39614)" style="fill: none; stroke: #b0b0b0; stroke-width: 0.8; stroke-linecap: square"/>
     </g>
     <g id="line2d_12">
      <g>
       <use xlink:href="#m0d58d4e526" x="397.807565" y="327.064" style="stroke: #000000; stroke-width: 0.8"/>
      </g>
     </g>
     <g id="text_6">
      <!-- 1000 -->
      <g transform="translate(379.992565 344.701813) scale(0.14 -0.14)">
       <defs>
        <path id="DejaVuSans-31" d="M 794 531 
L 1825 531 
L 1825 4091 
L 703 3866 
L 703 4441 
L 1819 4666 
L 2450 4666 
L 2450 531 
L 3481 531 
L 3481 0 
L 794 0 
L 794 531 
z
" transform="scale(0.015625)"/>
       </defs>
       <use xlink:href="#DejaVuSans-31"/>
       <use xlink:href="#DejaVuSans-30" x="63.623047"/>
       <use xlink:href="#DejaVuSans-30" x="127.246094"/>
       <use xlink:href="#DejaVuSans-30" x="190.869141"/>
      </g>
     </g>
    </g>
   </g>
   <g id="matplotlib.axis_2">
    <g id="ytick_1">
     <g id="line2d_13">
      <path d="M 56.595312 316.828923 
L 413.715313 316.828923 
" clip-path="url(#p3cafb39614)" style="fill: none; stroke: #b0b0b0; stroke-width: 0.8; stroke-linecap: square"/>
     </g>
     <g id="line2d_14">
      <defs>
       <path id="md9b256f165" d="M 0 0 
L -3.5 0 
" style="stroke: #000000; stroke-width: 0.8"/>
      </defs>
      <g>
       <use xlink:href="#md9b256f165" x="56.595312" y="316.828923" style="stroke: #000000; stroke-width: 0.8"/>
      </g>
     </g>
     <g id="text_7">
      <!-- 0.00 -->
      <g transform="translate(18.423437 322.147829) scale(0.14 -0.14)">
       <defs>
        <path id="DejaVuSans-2e" d="M 684 794 
L 1344 794 
L 1344 0 
L 684 0 
L 684 794 
z
" transform="scale(0.015625)"/>
       </defs>
       <use xlink:href="#DejaVuSans-30"/>
       <use xlink:href="#DejaVuSans-2e" x="63.623047"/>
       <use xlink:href="#DejaVuSans-30" x="95.410156"/>
       <use xlink:href="#DejaVuSans-30" x="159.033203"/>
      </g>
     </g>
    </g>
    <g id="ytick_2">
     <g id="line2d_15">
      <path d="M 56.595312 265.653538 
L 413.715313 265.653538 
" clip-path="url(#p3cafb39614)" style="fill: none; stroke: #b0b0b0; stroke-width: 0.8; stroke-linecap: square"/>
     </g>
     <g id="line2d_16">
      <g>
       <use xlink:href="#md9b256f165" x="56.595312" y="265.653538" style="stroke: #000000; stroke-width: 0.8"/>
      </g>
     </g>
     <g id="text_8">
      <!-- 0.05 -->
      <g transform="translate(18.423437 270.972445) scale(0.14 -0.14)">
       <defs>
        <path id="DejaVuSans-35" d="M 691 4666 
L 3169 4666 
L 3169 4134 
L 1269 4134 
L 1269 2991 
Q 1406 3038 1543 3061 
Q 1681 3084 1819 3084 
Q 2600 3084 3056 2656 
Q 3513 2228 3513 1497 
Q 3513 744 3044 326 
Q 2575 -91 1722 -91 
Q 1428 -91 1123 -41 
Q 819 9 494 109 
L 494 744 
Q 775 591 1075 516 
Q 1375 441 1709 441 
Q 2250 441 2565 725 
Q 2881 1009 2881 1497 
Q 2881 1984 2565 2268 
Q 2250 2553 1709 2553 
Q 1456 2553 1204 2497 
Q 953 2441 691 2322 
L 691 4666 
z
" transform="scale(0.015625)"/>
       </defs>
       <use xlink:href="#DejaVuSans-30"/>
       <use xlink:href="#DejaVuSans-2e" x="63.623047"/>
       <use xlink:href="#DejaVuSans-30" x="95.410156"/>
       <use xlink:href="#DejaVuSans-35" x="159.033203"/>
      </g>
     </g>
    </g>
    <g id="ytick_3">
     <g id="line2d_17">
      <path d="M 56.595312 214.478154 
L 413.715313 214.478154 
" clip-path="url(#p3cafb39614)" style="fill: none; stroke: #b0b0b0; stroke-width: 0.8; stroke-linecap: square"/>
     </g>
     <g id="line2d_18">
      <g>
       <use xlink:href="#md9b256f165" x="56.595312" y="214.478154" style="stroke: #000000; stroke-width: 0.8"/>
      </g>
     </g>
     <g id="text_9">
      <!-- 0.10 -->
      <g transform="translate(18.423437 219.79706) scale(0.14 -0.14)">
       <use xlink:href="#DejaVuSans-30"/>
       <use xlink:href="#DejaVuSans-2e" x="63.623047"/>
       <use xlink:href="#DejaVuSans-31" x="95.410156"/>
       <use xlink:href="#DejaVuSans-30" x="159.033203"/>
      </g>
     </g>
    </g>
    <g id="ytick_4">
     <g id="line2d_19">
      <path d="M 56.595312 163.302769 
L 413.715313 163.302769 
" clip-path="url(#p3cafb39614)" style="fill: none; stroke: #b0b0b0; stroke-width: 0.8; stroke-linecap: square"/>
     </g>
     <g id="line2d_20">
      <g>
       <use xlink:href="#md9b256f165" x="56.595312" y="163.302769" style="stroke: #000000; stroke-width: 0.8"/>
      </g>
     </g>
     <g id="text_10">
      <!-- 0.15 -->
      <g transform="translate(18.423437 168.621675) scale(0.14 -0.14)">
       <use xlink:href="#DejaVuSans-30"/>
       <use xlink:href="#DejaVuSans-2e" x="63.623047"/>
       <use xlink:href="#DejaVuSans-31" x="95.410156"/>
       <use xlink:href="#DejaVuSans-35" x="159.033203"/>
      </g>
     </g>
    </g>
    <g id="ytick_5">
     <g id="line2d_21">
      <path d="M 56.595312 112.127385 
L 413.715313 112.127385 
" clip-path="url(#p3cafb39614)" style="fill: none; stroke: #b0b0b0; stroke-width: 0.8; stroke-linecap: square"/>
     </g>
     <g id="line2d_22">
      <g>
       <use xlink:href="#md9b256f165" x="56.595312" y="112.127385" style="stroke: #000000; stroke-width: 0.8"/>
      </g>
     </g>
     <g id="text_11">
      <!-- 0.20 -->
      <g transform="translate(18.423437 117.446291) scale(0.14 -0.14)">
       <use xlink:href="#DejaVuSans-30"/>
       <use xlink:href="#DejaVuSans-2e" x="63.623047"/>
       <use xlink:href="#DejaVuSans-32" x="95.410156"/>
       <use xlink:href="#DejaVuSans-30" x="159.033203"/>
      </g>
     </g>
    </g>
    <g id="ytick_6">
     <g id="line2d_23">
      <path d="M 56.595312 60.952 
L 413.715313 60.952 
" clip-path="url(#p3cafb39614)" style="fill: none; stroke: #b0b0b0; stroke-width: 0.8; stroke-linecap: square"/>
     </g>
     <g id="line2d_24">
      <g>
       <use xlink:href="#md9b256f165" x="56.595312" y="60.952" style="stroke: #000000; stroke-width: 0.8"/>
      </g>
     </g>
     <g id="text_12">
      <!-- 0.25 -->
      <g transform="translate(18.423437 66.270906) scale(0.14 -0.14)">
       <use xlink:href="#DejaVuSans-30"/>
       <use xlink:href="#DejaVuSans-2e" x="63.623047"/>
       <use xlink:href="#DejaVuSans-32" x="95.410156"/>
       <use xlink:href="#DejaVuSans-35" x="159.033203"/>
      </g>
     </g>
    </g>
   </g>
   <g id="line2d_25">
    <path d="M 72.82804 316.828923 
L 75.752855 316.828923 
L 75.893758 -1 
M 80.376641 -1 
L 80.952528 20.34641 
L 82.252446 59.439906 
L 83.877344 97.353571 
L 85.502241 127.184778 
L 87.127139 149.235956 
L 89.077016 170.017263 
L 90.701914 183.36635 
L 92.326811 194.822015 
L 94.601668 207.694112 
L 97.201504 218.973658 
L 97.851463 221.592572 
L 99.476361 226.975079 
L 101.426238 233.179066 
L 102.401177 235.677755 
L 103.701095 239.218811 
L 105.975951 244.29435 
L 106.62591 245.592332 
L 107.275869 246.905585 
L 110.525665 252.427606 
L 114.425419 258.223055 
L 116.050317 260.259249 
L 117.675214 262.237868 
L 120.925009 265.524726 
L 123.849825 268.193553 
L 126.449661 270.178387 
L 127.4246 270.979793 
L 128.724518 271.7599 
L 131.324354 273.407609 
L 132.624272 274.197542 
L 135.224109 275.598341 
L 135.874068 276.007807 
L 139.773822 277.833745 
L 141.39872 278.610475 
L 145.948433 280.609393 
L 146.598392 280.861904 
L 148.22329 281.491508 
L 149.198228 281.843068 
L 152.448023 282.950187 
L 164.472266 286.283029 
L 170.321897 287.649286 
L 174.221652 288.356594 
L 182.34614 290.057894 
L 184.945976 290.450245 
L 186.245894 290.690722 
L 188.84573 291.050955 
L 192.095525 291.577642 
L 194.045403 291.782912 
L 195.99528 292.113785 
L 197.945157 292.378481 
L 199.245075 292.555225 
L 216.793969 294.519406 
L 219.393806 294.790448 
L 221.993642 295.093733 
L 224.593478 295.33038 
L 228.493232 295.694584 
L 232.068007 296.001702 
L 234.667843 296.245086 
L 246.692086 297.268786 
L 247.992004 297.30385 
L 252.866697 297.618626 
L 285.689629 299.526563 
L 302.913543 300.42997 
L 311.687991 300.766838 
L 319.812479 301.094692 
L 327.287008 301.394814 
L 329.561865 301.466029 
L 345.485861 302.07202 
L 351.335493 302.243593 
L 360.434919 302.546936 
L 364.334674 302.664213 
L 374.409039 302.951411 
L 380.908629 303.13116 
L 397.482585 303.551214 
L 397.482585 303.551214 
" clip-path="url(#p3cafb39614)" style="fill: none; stroke: #1f77b4; stroke-width: 2; stroke-linecap: square"/>
    <defs>
     <path id="m6a00f3fc86" d="M 0 3 
C 0.795609 3 1.55874 2.683901 2.12132 2.12132 
C 2.683901 1.55874 3 0.795609 3 0 
C 3 -0.795609 2.683901 -1.55874 2.12132 -2.12132 
C 1.55874 -2.683901 0.795609 -3 0 -3 
C -0.795609 -3 -1.55874 -2.683901 -2.12132 -2.12132 
C -2.683901 -1.55874 -3 -0.795609 -3 0 
C -3 0.795609 -2.683901 1.55874 -2.12132 2.12132 
C -1.55874 2.683901 -0.795609 3 0 3 
z
" style="stroke: #1f77b4"/>
    </defs>
    <g clip-path="url(#p3cafb39614)">
     <use xlink:href="#m6a00f3fc86" x="72.82804" y="316.828923" style="fill: #1f77b4; stroke: #1f77b4"/>
     <use xlink:href="#m6a00f3fc86" x="137.823945" y="277.056988" style="fill: #1f77b4; stroke: #1f77b4"/>
     <use xlink:href="#m6a00f3fc86" x="202.81985" y="292.99721" style="fill: #1f77b4; stroke: #1f77b4"/>
     <use xlink:href="#m6a00f3fc86" x="267.815755" y="298.600728" style="fill: #1f77b4; stroke: #1f77b4"/>
     <use xlink:href="#m6a00f3fc86" x="332.81166" y="301.599833" style="fill: #1f77b4; stroke: #1f77b4"/>
    </g>
   </g>
   <g id="line2d_26">
    <path d="M 144.973494 327.064 
L 144.973494 60.952 
" clip-path="url(#p3cafb39614)" style="fill: none; stroke-dasharray: 7.4,3.2; stroke-dashoffset: 0; stroke: #1f77b4; stroke-width: 2"/>
    <g clip-path="url(#p3cafb39614)">
     <use xlink:href="#m6a00f3fc86" x="144.973494" y="327.064" style="fill: #1f77b4; stroke: #1f77b4"/>
     <use xlink:href="#m6a00f3fc86" x="144.973494" y="60.952" style="fill: #1f77b4; stroke: #1f77b4"/>
    </g>
   </g>
   <g id="line2d_27">
    <path d="M 72.82804 316.828923 
L 75.752855 316.828923 
L 76.039377 -1 
M 76.309301 -1 
L 76.402815 16.235079 
L 77.052774 60.64605 
L 77.702733 90.902994 
L 78.352692 109.782107 
L 79.977589 146.984166 
L 80.627548 156.679194 
L 81.277507 167.786808 
L 83.552364 196.067307 
L 85.502241 210.505491 
L 86.802159 218.730095 
L 87.452118 221.88163 
L 88.752036 229.024524 
L 89.401996 231.888632 
L 91.026893 237.54446 
L 91.676852 238.990653 
L 92.001832 239.897916 
L 92.651791 242.288577 
L 93.951709 245.65676 
L 95.901586 250.302702 
L 97.526484 253.495218 
L 99.80134 257.339798 
L 102.726156 261.265314 
L 104.026074 262.719215 
L 105.975951 265.101025 
L 107.275869 266.295572 
L 107.925828 266.865241 
L 108.900767 267.738858 
L 111.175624 270.001177 
L 111.500603 270.103159 
L 112.475542 270.896355 
L 113.45048 271.808499 
L 113.77546 271.977506 
L 114.425419 272.655336 
L 115.075378 273.044374 
L 117.025255 274.611005 
L 117.675214 274.945835 
L 118.000194 275.103373 
L 118.325173 275.443096 
L 119.300112 276.039038 
L 120.27505 276.55764 
L 120.60003 276.656423 
L 121.249989 277.022539 
L 122.224928 277.463673 
L 122.874887 277.847517 
L 125.799702 279.269581 
L 126.774641 279.748406 
L 127.749579 280.19001 
L 130.024436 281.214291 
L 131.649334 281.937374 
L 134.24917 282.659729 
L 135.874068 283.155835 
L 136.524027 283.313427 
L 137.823945 283.75936 
L 138.473904 283.900566 
L 146.923371 286.279031 
L 147.89831 286.538198 
L 148.548269 286.730838 
L 149.848187 287.0191 
L 153.422962 287.781398 
L 155.372839 288.263785 
L 156.672757 288.450993 
L 160.897491 289.277298 
L 163.822307 289.886113 
L 174.546631 291.817958 
L 178.771365 292.351143 
L 195.020341 294.506727 
L 196.645239 294.660069 
L 223.29356 296.960572 
L 226.543355 297.211083 
L 229.143191 297.428441 
L 230.768089 297.526365 
L 232.717966 297.682604 
L 236.9427 297.922679 
L 245.717147 298.442861 
L 247.342045 298.508427 
L 256.766451 299.153307 
L 261.316164 299.338269 
L 264.56596 299.540497 
L 268.790693 299.703887 
L 271.715509 299.845163 
L 303.238523 301.112221 
L 306.813298 301.252538 
L 346.4608 302.681718 
L 355.885206 302.976191 
L 360.10994 303.108842 
L 369.209367 303.358135 
L 375.383978 303.484064 
L 383.183486 303.673732 
L 395.532708 304.005703 
L 397.482585 304.077038 
L 397.482585 304.077038 
" clip-path="url(#p3cafb39614)" style="fill: none; stroke: #ff7f0e; stroke-width: 2; stroke-linecap: square"/>
    <defs>
     <path id="m5aacae8687" d="M 0 -3 
L -3 3 
L 3 3 
z
" style="stroke: #ff7f0e; stroke-linejoin: miter"/>
    </defs>
    <g clip-path="url(#p3cafb39614)">
     <use xlink:href="#m5aacae8687" x="72.82804" y="316.828923" style="fill: #ff7f0e; stroke: #ff7f0e; stroke-linejoin: miter"/>
     <use xlink:href="#m5aacae8687" x="137.823945" y="283.75936" style="fill: #ff7f0e; stroke: #ff7f0e; stroke-linejoin: miter"/>
     <use xlink:href="#m5aacae8687" x="202.81985" y="295.281128" style="fill: #ff7f0e; stroke: #ff7f0e; stroke-linejoin: miter"/>
     <use xlink:href="#m5aacae8687" x="267.815755" y="299.651338" style="fill: #ff7f0e; stroke: #ff7f0e; stroke-linejoin: miter"/>
     <use xlink:href="#m5aacae8687" x="332.81166" y="302.260624" style="fill: #ff7f0e; stroke: #ff7f0e; stroke-linejoin: miter"/>
    </g>
   </g>
   <g id="line2d_28">
    <path d="M 127.749579 327.064 
L 127.749579 60.952 
" clip-path="url(#p3cafb39614)" style="fill: none; stroke-dasharray: 7.4,3.2; stroke-dashoffset: 0; stroke: #ff7f0e; stroke-width: 2"/>
    <g clip-path="url(#p3cafb39614)">
     <use xlink:href="#m5aacae8687" x="127.749579" y="327.064" style="fill: #ff7f0e; stroke: #ff7f0e; stroke-linejoin: miter"/>
     <use xlink:href="#m5aacae8687" x="127.749579" y="60.952" style="fill: #ff7f0e; stroke: #ff7f0e; stroke-linejoin: miter"/>
    </g>
   </g>
   <g id="line2d_29">
    <path d="M 72.82804 316.828923 
L 75.752855 316.828923 
L 76.033342 -1 
M 76.359007 -1 
L 76.402815 6.854968 
L 77.052774 61.23744 
L 77.702733 89.692031 
L 78.677671 118.105638 
L 80.627548 158.881556 
L 81.927466 177.885935 
L 82.902405 189.393945 
L 84.527303 203.850889 
L 85.502241 211.320458 
L 86.47718 217.576196 
L 87.127139 220.983359 
L 87.777098 224.725295 
L 88.427057 227.872091 
L 90.051955 234.714021 
L 91.026893 237.583662 
L 91.676852 239.401422 
L 93.626729 245.034483 
L 94.926647 247.78949 
L 95.901586 250.123015 
L 97.851463 254.182511 
L 99.80134 257.414426 
L 104.026074 263.126016 
L 105.975951 265.39418 
L 106.95089 266.467989 
L 110.525665 269.702328 
L 113.125501 271.818134 
L 113.77546 272.298659 
L 117.675214 274.618326 
L 118.650153 275.091008 
L 118.975132 275.385176 
L 119.300112 275.455569 
L 121.249989 276.764016 
L 121.899948 277.153692 
L 123.199866 277.820621 
L 124.174805 278.192562 
L 125.799702 279.102195 
L 126.449661 279.346593 
L 130.674395 281.04849 
L 131.974313 281.51746 
L 133.274231 282.091093 
L 134.24917 282.464726 
L 135.224109 282.788095 
L 136.199047 283.128391 
L 138.148924 283.709037 
L 138.798883 283.945632 
L 139.448842 284.19082 
L 145.623453 285.808917 
L 146.273412 285.848389 
L 149.198228 286.562672 
L 156.997737 288.444417 
L 160.572512 289.086036 
L 163.822307 289.783931 
L 169.671938 290.844281 
L 171.621815 291.178136 
L 175.19659 291.789064 
L 178.771365 292.23463 
L 182.34614 292.778023 
L 187.220833 293.366067 
L 188.195771 293.449276 
L 193.720423 294.103647 
L 201.519932 294.955145 
L 204.444747 295.252286 
L 206.719604 295.457011 
L 208.019522 295.535131 
L 211.919276 295.87805 
L 225.243437 297.053958 
L 227.193314 297.16348 
L 233.042946 297.643213 
L 237.267679 297.789514 
L 240.192495 298.001533 
L 246.367106 298.394066 
L 251.241799 298.686084 
L 294.789055 300.905405 
L 360.434919 303.06376 
L 386.758261 303.717985 
L 397.482585 303.920931 
L 397.482585 303.920931 
" clip-path="url(#p3cafb39614)" style="fill: none; stroke: #2ca02c; stroke-width: 2; stroke-linecap: square"/>
    <defs>
     <path id="mda84a28b0f" d="M -3 3 
L 3 3 
L 3 -3 
L -3 -3 
z
" style="stroke: #2ca02c; stroke-linejoin: miter"/>
    </defs>
    <g clip-path="url(#p3cafb39614)">
     <use xlink:href="#mda84a28b0f" x="72.82804" y="316.828923" style="fill: #2ca02c; stroke: #2ca02c; stroke-linejoin: miter"/>
     <use xlink:href="#mda84a28b0f" x="137.823945" y="283.655914" style="fill: #2ca02c; stroke: #2ca02c; stroke-linejoin: miter"/>
     <use xlink:href="#mda84a28b0f" x="202.81985" y="295.067179" style="fill: #2ca02c; stroke: #2ca02c; stroke-linejoin: miter"/>
     <use xlink:href="#mda84a28b0f" x="267.815755" y="299.593785" style="fill: #2ca02c; stroke: #2ca02c; stroke-linejoin: miter"/>
     <use xlink:href="#mda84a28b0f" x="332.81166" y="302.228111" style="fill: #2ca02c; stroke: #2ca02c; stroke-linejoin: miter"/>
    </g>
   </g>
   <g id="line2d_30">
    <path d="M 128.399539 327.064 
L 128.399539 60.952 
" clip-path="url(#p3cafb39614)" style="fill: none; stroke-dasharray: 7.4,3.2; stroke-dashoffset: 0; stroke: #2ca02c; stroke-width: 2"/>
    <g clip-path="url(#p3cafb39614)">
     <use xlink:href="#mda84a28b0f" x="128.399539" y="327.064" style="fill: #2ca02c; stroke: #2ca02c; stroke-linejoin: miter"/>
     <use xlink:href="#mda84a28b0f" x="128.399539" y="60.952" style="fill: #2ca02c; stroke: #2ca02c; stroke-linejoin: miter"/>
    </g>
   </g>
   <g id="line2d_31">
    <path d="M 72.82804 316.828923 
L 75.752855 316.828923 
L 76.03131 -1 
M 76.38268 -1 
L 76.402815 2.507527 
L 77.052774 56.030836 
L 77.702733 86.820482 
L 78.352692 107.322953 
L 79.32763 131.118017 
L 79.977589 145.728175 
L 81.602487 173.679954 
L 82.902405 189.729175 
L 84.852282 206.879162 
L 85.827221 213.138365 
L 86.802159 218.678496 
L 87.452118 221.834412 
L 88.427057 227.037989 
L 89.401996 230.812307 
L 93.626729 245.20602 
L 95.251627 248.966742 
L 95.901586 250.107475 
L 99.151381 256.24923 
L 100.451299 258.349445 
L 100.776279 258.642169 
L 102.076197 260.605924 
L 103.701095 262.661751 
L 104.351054 263.462853 
L 105.325992 264.663159 
L 105.975951 265.289526 
L 106.62591 265.99704 
L 107.275869 266.64701 
L 107.925828 267.275625 
L 108.250808 267.478173 
L 108.900767 268.121453 
L 109.550726 268.734935 
L 110.525665 269.463694 
L 110.850644 269.674487 
L 111.825583 270.644676 
L 112.800521 271.437135 
L 113.77546 272.341293 
L 114.425419 272.933411 
L 116.050317 273.955721 
L 118.650153 275.684904 
L 119.300112 276.05175 
L 120.925009 276.841591 
L 121.574969 277.213465 
L 123.199866 277.928862 
L 124.174805 278.417258 
L 125.149743 278.760398 
L 131.324354 281.275006 
L 131.649334 281.278885 
L 133.274231 281.920287 
L 137.498965 283.431776 
L 140.423781 284.356797 
L 142.373658 284.976434 
L 146.273412 286.006213 
L 149.848187 286.846756 
L 150.823126 287.115486 
L 153.097982 287.795624 
L 154.397901 288.039868 
L 164.147286 289.919471 
L 165.122225 290.14492 
L 168.047041 290.627249 
L 171.621815 291.069597 
L 172.921733 291.336513 
L 176.496508 291.821629 
L 178.446385 292.194244 
L 182.671119 292.723605 
L 197.945157 294.603662 
L 200.544993 294.880282 
L 230.11813 297.597441 
L 232.392987 297.73699 
L 234.342864 297.873402 
L 236.9427 298.042867 
L 241.167434 298.370982 
L 243.117311 298.467012 
L 246.042127 298.641229 
L 251.566779 299.040934 
L 254.491594 299.204946 
L 267.165796 299.947541 
L 268.790693 299.998253 
L 272.690448 300.207127 
L 278.2151 300.452715 
L 283.089792 300.713276 
L 298.36383 301.330906 
L 307.463257 301.706803 
L 380.58365 303.819342 
L 388.058179 303.960917 
L 392.932872 304.062897 
L 397.482585 304.147815 
L 397.482585 304.147815 
" clip-path="url(#p3cafb39614)" style="fill: none; stroke: #d62728; stroke-width: 2; stroke-linecap: square"/>
    <defs>
     <path id="mc0f7f91313" d="M -3 3 
L 3 -3 
M -3 -3 
L 3 3 
" style="stroke: #d62728"/>
    </defs>
    <g clip-path="url(#p3cafb39614)">
     <use xlink:href="#mc0f7f91313" x="72.82804" y="316.828923" style="fill: #d62728; stroke: #d62728"/>
     <use xlink:href="#mc0f7f91313" x="137.823945" y="283.546288" style="fill: #d62728; stroke: #d62728"/>
     <use xlink:href="#mc0f7f91313" x="202.81985" y="295.084224" style="fill: #d62728; stroke: #d62728"/>
     <use xlink:href="#mc0f7f91313" x="267.815755" y="299.957811" style="fill: #d62728; stroke: #d62728"/>
     <use xlink:href="#mc0f7f91313" x="332.81166" y="302.523746" style="fill: #d62728; stroke: #d62728"/>
    </g>
   </g>
   <g id="line2d_32">
    <path d="M 129.049498 327.064 
L 129.049498 60.952 
" clip-path="url(#p3cafb39614)" style="fill: none; stroke-dasharray: 7.4,3.2; stroke-dashoffset: 0; stroke: #d62728; stroke-width: 2"/>
    <g clip-path="url(#p3cafb39614)">
     <use xlink:href="#mc0f7f91313" x="129.049498" y="327.064" style="fill: #d62728; stroke: #d62728"/>
     <use xlink:href="#mc0f7f91313" x="129.049498" y="60.952" style="fill: #d62728; stroke: #d62728"/>
    </g>
   </g>
   <g id="line2d_33">
    <path d="M 72.82804 316.828923 
L 75.752855 316.828923 
L 76.038824 -1 
M 76.301773 -1 
L 76.402815 18.562853 
L 77.377753 80.560649 
L 78.027712 104.946305 
L 79.977589 149.055606 
L 81.602487 175.184383 
L 82.577426 186.67239 
L 83.227385 193.634771 
L 83.877344 199.506973 
L 85.502241 212.730971 
L 86.47718 218.582969 
L 87.127139 222.097399 
L 88.102077 227.265663 
L 90.376934 235.839987 
L 91.026893 238.056875 
L 91.676852 240.129774 
L 94.601668 247.941293 
L 96.226566 251.221582 
L 97.526484 253.45802 
L 98.501422 254.89623 
L 99.80134 257.288936 
L 101.101258 259.478331 
L 102.726156 261.746187 
L 103.701095 263.008735 
L 104.351054 263.735571 
L 105.001013 264.56768 
L 105.650972 265.489649 
L 105.975951 265.966392 
L 108.575788 268.313373 
L 110.525665 270.167848 
L 111.500603 270.962162 
L 112.150562 271.43065 
L 112.800521 271.814928 
L 114.425419 272.93049 
L 115.400358 273.511367 
L 117.675214 275.09257 
L 118.650153 275.630318 
L 119.625091 276.147693 
L 120.27505 276.590127 
L 121.249989 277.28974 
L 122.224928 277.835071 
L 123.849825 278.692483 
L 126.449661 280.154671 
L 127.09962 280.390062 
L 127.4246 280.61086 
L 128.724518 280.982878 
L 130.024436 281.488512 
L 134.899129 283.31171 
L 135.549088 283.519364 
L 136.849006 283.99126 
L 137.823945 284.267557 
L 138.798883 284.549891 
L 141.07374 285.207665 
L 141.723699 285.453808 
L 145.623453 286.577436 
L 147.573331 286.862857 
L 152.448023 288.093074 
L 154.72288 288.61998 
L 156.022798 288.761427 
L 157.322716 289.079473 
L 157.972675 289.254684 
L 159.597573 289.629306 
L 161.54745 289.988156 
L 164.797245 290.488398 
L 180.071283 292.72957 
L 181.371201 292.901455 
L 186.895853 293.579905 
L 189.17071 293.789577 
L 191.770546 294.141235 
L 196.320259 294.635518 
L 198.920095 294.914962 
L 204.444747 295.440373 
L 226.543355 297.423992 
L 228.818212 297.567518 
L 234.017884 297.868768 
L 238.567598 298.201343 
L 241.492413 298.38397 
L 261.641144 299.619967 
L 277.89012 300.430983 
L 310.388073 301.737751 
L 316.237704 301.978323 
L 321.112397 302.089799 
L 327.936967 302.374488 
L 334.761537 302.517105 
L 337.686353 302.629991 
L 343.535984 302.775632 
L 371.159244 303.442485 
L 382.208548 303.726455 
L 385.133363 303.783755 
L 397.482585 304.039638 
L 397.482585 304.039638 
" clip-path="url(#p3cafb39614)" style="fill: none; stroke: #9467bd; stroke-width: 2; stroke-linecap: square"/>
    <defs>
     <path id="m7a1907acb3" d="M -0 3 
L 3 -3 
L -3 -3 
z
" style="stroke: #9467bd; stroke-linejoin: miter"/>
    </defs>
    <g clip-path="url(#p3cafb39614)">
     <use xlink:href="#m7a1907acb3" x="72.82804" y="316.828923" style="fill: #9467bd; stroke: #9467bd; stroke-linejoin: miter"/>
     <use xlink:href="#m7a1907acb3" x="137.823945" y="284.267557" style="fill: #9467bd; stroke: #9467bd; stroke-linejoin: miter"/>
     <use xlink:href="#m7a1907acb3" x="202.81985" y="295.292138" style="fill: #9467bd; stroke: #9467bd; stroke-linejoin: miter"/>
     <use xlink:href="#m7a1907acb3" x="267.815755" y="299.93658" style="fill: #9467bd; stroke: #9467bd; stroke-linejoin: miter"/>
     <use xlink:href="#m7a1907acb3" x="332.81166" y="302.46943" style="fill: #9467bd; stroke: #9467bd; stroke-linejoin: miter"/>
    </g>
   </g>
   <g id="line2d_34">
    <path d="M 126.774641 327.064 
L 126.774641 60.952 
" clip-path="url(#p3cafb39614)" style="fill: none; stroke-dasharray: 7.4,3.2; stroke-dashoffset: 0; stroke: #9467bd; stroke-width: 2"/>
    <g clip-path="url(#p3cafb39614)">
     <use xlink:href="#m7a1907acb3" x="126.774641" y="327.064" style="fill: #9467bd; stroke: #9467bd; stroke-linejoin: miter"/>
     <use xlink:href="#m7a1907acb3" x="126.774641" y="60.952" style="fill: #9467bd; stroke: #9467bd; stroke-linejoin: miter"/>
    </g>
   </g>
   <g id="line2d_35">
    <path d="M 72.82804 316.828923 
L 75.752855 316.828923 
L 76.035724 -1 
M 76.314226 -1 
L 76.402815 16.731591 
L 77.377753 82.491757 
L 78.027712 104.393775 
L 79.32763 137.741159 
L 80.302569 156.234532 
L 82.252446 182.617185 
L 85.177262 207.928271 
L 86.47718 216.12708 
L 88.427057 227.096176 
L 90.376934 234.829387 
L 90.701914 235.471588 
L 92.001832 239.593054 
L 92.651791 241.471319 
L 93.30175 243.118808 
L 96.551545 251.488037 
L 97.851463 253.541635 
L 98.501422 254.79098 
L 102.076197 260.048749 
L 102.401177 260.421682 
L 103.051136 261.426125 
L 103.701095 262.155801 
L 104.351054 263.110946 
L 105.001013 263.865704 
L 105.975951 264.941675 
L 106.300931 265.119799 
L 108.900767 267.95691 
L 109.225747 268.416895 
L 110.525665 269.259815 
L 111.500603 270.345795 
L 115.400358 273.46646 
L 116.375296 274.092636 
L 117.675214 275.03329 
L 120.60003 276.90137 
L 121.899948 277.522649 
L 123.199866 278.13762 
L 123.849825 278.432233 
L 124.499784 278.712803 
L 125.474723 279.123116 
L 127.09962 279.823449 
L 128.074559 280.372312 
L 130.674395 281.224357 
L 131.974313 281.71597 
L 135.874068 283.175882 
L 137.173986 283.512038 
L 138.798883 284.106447 
L 149.523208 287.083493 
L 157.647696 288.993135 
L 160.897491 289.475221 
L 162.847368 289.800895 
L 169.996918 291.123322 
L 171.946795 291.392028 
L 175.19659 291.933677 
L 177.146467 292.193325 
L 180.721242 292.669283 
L 182.02116 292.818578 
L 183.321078 293.034526 
L 185.920914 293.376339 
L 188.195771 293.706091 
L 199.570055 294.937978 
L 200.869973 295.054959 
L 214.844092 296.468195 
L 219.393806 296.828894 
L 221.018703 296.944658 
L 225.243437 297.216012 
L 227.518294 297.378578 
L 237.267679 298.056921 
L 239.217557 298.157651 
L 278.2151 300.360201 
L 281.789874 300.541905 
L 283.414772 300.618961 
L 285.364649 300.703533 
L 291.214281 300.951555 
L 302.588564 301.361057 
L 311.687991 301.669469 
L 322.412315 302.087507 
L 341.586107 302.660865 
L 347.110759 302.782801 
L 360.10994 303.150975 
L 387.733199 303.828514 
L 392.607892 303.942114 
L 397.482585 304.037803 
L 397.482585 304.037803 
" clip-path="url(#p3cafb39614)" style="fill: none; stroke: #8c564b; stroke-width: 2; stroke-linecap: square"/>
    <defs>
     <path id="mf799f7d356" d="M -0 4.242641 
L 2.545584 0 
L 0 -4.242641 
L -2.545584 -0 
z
" style="stroke: #8c564b; stroke-linejoin: miter"/>
    </defs>
    <g clip-path="url(#p3cafb39614)">
     <use xlink:href="#mf799f7d356" x="72.82804" y="316.828923" style="fill: #8c564b; stroke: #8c564b; stroke-linejoin: miter"/>
     <use xlink:href="#mf799f7d356" x="137.823945" y="283.782146" style="fill: #8c564b; stroke: #8c564b; stroke-linejoin: miter"/>
     <use xlink:href="#mf799f7d356" x="202.81985" y="295.289448" style="fill: #8c564b; stroke: #8c564b; stroke-linejoin: miter"/>
     <use xlink:href="#mf799f7d356" x="267.815755" y="299.855007" style="fill: #8c564b; stroke: #8c564b; stroke-linejoin: miter"/>
     <use xlink:href="#mf799f7d356" x="332.81166" y="302.39713" style="fill: #8c564b; stroke: #8c564b; stroke-linejoin: miter"/>
    </g>
   </g>
   <g id="line2d_36">
    <path d="M 127.749579 327.064 
L 127.749579 60.952 
" clip-path="url(#p3cafb39614)" style="fill: none; stroke-dasharray: 7.4,3.2; stroke-dashoffset: 0; stroke: #8c564b; stroke-width: 2"/>
    <g clip-path="url(#p3cafb39614)">
     <use xlink:href="#mf799f7d356" x="127.749579" y="327.064" style="fill: #8c564b; stroke: #8c564b; stroke-linejoin: miter"/>
     <use xlink:href="#mf799f7d356" x="127.749579" y="60.952" style="fill: #8c564b; stroke: #8c564b; stroke-linejoin: miter"/>
    </g>
   </g>
   <g id="patch_3">
    <path d="M 56.595312 327.064 
L 56.595312 60.952 
" style="fill: none; stroke: #000000; stroke-width: 0.8; stroke-linejoin: miter; stroke-linecap: square"/>
   </g>
   <g id="patch_4">
    <path d="M 413.715313 327.064 
L 413.715313 60.952 
" style="fill: none; stroke: #000000; stroke-width: 0.8; stroke-linejoin: miter; stroke-linecap: square"/>
   </g>
   <g id="patch_5">
    <path d="M 56.595312 327.064 
L 413.715312 327.064 
" style="fill: none; stroke: #000000; stroke-width: 0.8; stroke-linejoin: miter; stroke-linecap: square"/>
   </g>
   <g id="patch_6">
    <path d="M 56.595312 60.952 
L 413.715312 60.952 
" style="fill: none; stroke: #000000; stroke-width: 0.8; stroke-linejoin: miter; stroke-linecap: square"/>
   </g>
   <g id="axes_2">
    <g id="patch_7">
     <path d="M 208.371313 220.6192 
L 404.787313 220.6192 
L 404.787313 74.2576 
L 208.371313 74.2576 
z
" style="fill: #ffffff"/>
    </g>
    <g id="matplotlib.axis_3">
     <g id="xtick_7">
      <g id="line2d_37">
       <path d="M 226.227313 220.6192 
L 226.227313 74.2576 
" clip-path="url(#p70479a52be)" style="fill: none; stroke: #b0b0b0; stroke-width: 0.8; stroke-linecap: square"/>
      </g>
      <g id="line2d_38">
       <defs>
        <path id="m978fceeaec" d="M 0 0 
L 0 3.5 
" style="stroke: #000000; stroke-width: 2"/>
       </defs>
       <g>
        <use xlink:href="#m978fceeaec" x="226.227313" y="220.6192" style="stroke: #000000; stroke-width: 2"/>
       </g>
      </g>
      <g id="text_13">
       <!-- 165 -->
       <g transform="translate(212.866063 238.257013) scale(0.14 -0.14)">
        <use xlink:href="#DejaVuSans-31"/>
        <use xlink:href="#DejaVuSans-36" x="63.623047"/>
        <use xlink:href="#DejaVuSans-35" x="127.246094"/>
       </g>
      </g>
     </g>
     <g id="xtick_8">
      <g id="line2d_39">
       <path d="M 315.507312 220.6192 
L 315.507312 74.2576 
" clip-path="url(#p70479a52be)" style="fill: none; stroke: #b0b0b0; stroke-width: 0.8; stroke-linecap: square"/>
      </g>
      <g id="line2d_40">
       <g>
        <use xlink:href="#m978fceeaec" x="315.507312" y="220.6192" style="stroke: #000000; stroke-width: 2"/>
       </g>
      </g>
      <g id="text_14">
       <!-- 170 -->
       <g transform="translate(302.146062 238.257013) scale(0.14 -0.14)">
        <defs>
         <path id="DejaVuSans-37" d="M 525 4666 
L 3525 4666 
L 3525 4397 
L 1831 0 
L 1172 0 
L 2766 4134 
L 525 4134 
L 525 4666 
z
" transform="scale(0.015625)"/>
        </defs>
        <use xlink:href="#DejaVuSans-31"/>
        <use xlink:href="#DejaVuSans-37" x="63.623047"/>
        <use xlink:href="#DejaVuSans-30" x="127.246094"/>
       </g>
      </g>
     </g>
     <g id="xtick_9">
      <g id="line2d_41">
       <path d="M 404.787313 220.6192 
L 404.787313 74.2576 
" clip-path="url(#p70479a52be)" style="fill: none; stroke: #b0b0b0; stroke-width: 0.8; stroke-linecap: square"/>
      </g>
      <g id="line2d_42">
       <g>
        <use xlink:href="#m978fceeaec" x="404.787313" y="220.6192" style="stroke: #000000; stroke-width: 2"/>
       </g>
      </g>
      <g id="text_15">
       <!-- 175 -->
       <g transform="translate(391.426063 238.257013) scale(0.14 -0.14)">
        <use xlink:href="#DejaVuSans-31"/>
        <use xlink:href="#DejaVuSans-37" x="63.623047"/>
        <use xlink:href="#DejaVuSans-35" x="127.246094"/>
       </g>
      </g>
     </g>
    </g>
    <g id="matplotlib.axis_4">
     <g id="ytick_7">
      <g id="line2d_43">
       <path d="M 208.371313 189.36798 
L 404.787313 189.36798 
" clip-path="url(#p70479a52be)" style="fill: none; stroke: #b0b0b0; stroke-width: 0.8; stroke-linecap: square"/>
      </g>
      <g id="line2d_44">
       <defs>
        <path id="m0c68756f63" d="M 0 0 
L -3.5 0 
" style="stroke: #000000; stroke-width: 2"/>
       </defs>
       <g>
        <use xlink:href="#m0c68756f63" x="208.371313" y="189.36798" style="stroke: #000000; stroke-width: 2"/>
       </g>
      </g>
      <g id="text_16">
       <!-- 0.035 -->
       <g transform="translate(161.291938 194.686886) scale(0.14 -0.14)">
        <defs>
         <path id="DejaVuSans-33" d="M 2597 2516 
Q 3050 2419 3304 2112 
Q 3559 1806 3559 1356 
Q 3559 666 3084 287 
Q 2609 -91 1734 -91 
Q 1441 -91 1130 -33 
Q 819 25 488 141 
L 488 750 
Q 750 597 1062 519 
Q 1375 441 1716 441 
Q 2309 441 2620 675 
Q 2931 909 2931 1356 
Q 2931 1769 2642 2001 
Q 2353 2234 1838 2234 
L 1294 2234 
L 1294 2753 
L 1863 2753 
Q 2328 2753 2575 2939 
Q 2822 3125 2822 3475 
Q 2822 3834 2567 4026 
Q 2313 4219 1838 4219 
Q 1578 4219 1281 4162 
Q 984 4106 628 3988 
L 628 4550 
Q 988 4650 1302 4700 
Q 1616 4750 1894 4750 
Q 2613 4750 3031 4423 
Q 3450 4097 3450 3541 
Q 3450 3153 3228 2886 
Q 3006 2619 2597 2516 
z
" transform="scale(0.015625)"/>
        </defs>
        <use xlink:href="#DejaVuSans-30"/>
        <use xlink:href="#DejaVuSans-2e" x="63.623047"/>
        <use xlink:href="#DejaVuSans-30" x="95.410156"/>
        <use xlink:href="#DejaVuSans-33" x="159.033203"/>
        <use xlink:href="#DejaVuSans-35" x="222.65625"/>
       </g>
      </g>
     </g>
     <g id="ytick_8">
      <g id="line2d_45">
       <path d="M 208.371313 133.221813 
L 404.787313 133.221813 
" clip-path="url(#p70479a52be)" style="fill: none; stroke: #b0b0b0; stroke-width: 0.8; stroke-linecap: square"/>
      </g>
      <g id="line2d_46">
       <g>
        <use xlink:href="#m0c68756f63" x="208.371313" y="133.221813" style="stroke: #000000; stroke-width: 2"/>
       </g>
      </g>
      <g id="text_17">
       <!-- 0.036 -->
       <g transform="translate(161.291938 138.540719) scale(0.14 -0.14)">
        <use xlink:href="#DejaVuSans-30"/>
        <use xlink:href="#DejaVuSans-2e" x="63.623047"/>
        <use xlink:href="#DejaVuSans-30" x="95.410156"/>
        <use xlink:href="#DejaVuSans-33" x="159.033203"/>
        <use xlink:href="#DejaVuSans-36" x="222.65625"/>
       </g>
      </g>
     </g>
     <g id="ytick_9">
      <g id="line2d_47">
       <path d="M 208.371313 77.075645 
L 404.787313 77.075645 
" clip-path="url(#p70479a52be)" style="fill: none; stroke: #b0b0b0; stroke-width: 0.8; stroke-linecap: square"/>
      </g>
      <g id="line2d_48">
       <g>
        <use xlink:href="#m0c68756f63" x="208.371313" y="77.075645" style="stroke: #000000; stroke-width: 2"/>
       </g>
      </g>
      <g id="text_18">
       <!-- 0.037 -->
       <g transform="translate(161.291938 82.394551) scale(0.14 -0.14)">
        <use xlink:href="#DejaVuSans-30"/>
        <use xlink:href="#DejaVuSans-2e" x="63.623047"/>
        <use xlink:href="#DejaVuSans-30" x="95.410156"/>
        <use xlink:href="#DejaVuSans-33" x="159.033203"/>
        <use xlink:href="#DejaVuSans-37" x="222.65625"/>
       </g>
      </g>
     </g>
    </g>
    <g id="line2d_49">
     <path d="M 0 0 
" clip-path="url(#p70479a52be)" style="fill: none; stroke: #1f77b4; stroke-width: 1.5; stroke-linecap: square"/>
    </g>
    <g id="line2d_50">
     <path clip-path="url(#p70479a52be)" style="fill: none; stroke-dasharray: 5.55,2.4; stroke-dashoffset: 0; stroke: #1f77b4; stroke-width: 1.5"/>
    </g>
    <g id="line2d_51">
     <path d="M -0.693252 -1 
L 11.955312 8.619839 
L 29.811312 16.095853 
L 47.667312 25.456903 
L 65.523312 34.589884 
L 83.379312 44.683393 
L 101.235312 54.284744 
L 119.091312 63.410075 
L 136.947312 72.276862 
L 154.803313 80.065599 
L 172.659312 84.328575 
L 190.515313 94.105466 
L 208.371312 101.531739 
L 226.227313 110.239239 
L 261.939313 130.430887 
L 279.795312 137.088517 
L 297.651313 144.597102 
L 315.507312 151.84896 
L 333.363313 161.03437 
L 351.219312 168.801167 
L 369.075313 177.296594 
L 386.931312 185.515624 
L 404.787313 194.413257 
L 422.643313 200.785658 
L 458.355313 217.94639 
L 459.790625 218.445294 
L 459.790625 218.445294 
" clip-path="url(#p70479a52be)" style="fill: none; stroke: #ff7f0e; stroke-width: 1.5; stroke-linecap: square"/>
    </g>
    <g id="line2d_52">
     <path d="M 297.651313 220.6192 
L 297.651313 74.2576 
" clip-path="url(#p70479a52be)" style="fill: none; stroke-dasharray: 5.55,2.4; stroke-dashoffset: 0; stroke: #ff7f0e; stroke-width: 1.5"/>
    </g>
    <g id="line2d_53">
     <path d="M 14.490877 -1 
L 29.811312 5.003645 
L 47.667312 14.620447 
L 65.523312 20.613905 
L 83.379312 25.640425 
L 101.235312 35.02385 
L 119.091312 45.996957 
L 136.947312 53.718089 
L 154.803313 63.785513 
L 172.659312 72.811028 
L 190.515313 84.923242 
L 208.371312 88.821004 
L 226.227313 98.330091 
L 244.083312 105.983139 
L 261.939313 115.204445 
L 279.795312 120.872281 
L 297.651313 131.612066 
L 315.507312 141.893792 
L 333.363313 147.78528 
L 351.219312 152.040128 
L 369.075313 159.93467 
L 386.931312 169.004325 
L 404.787313 173.563021 
L 422.643313 181.559573 
L 440.499313 186.357957 
L 459.790625 192.098422 
L 459.790625 192.098422 
" clip-path="url(#p70479a52be)" style="fill: none; stroke: #2ca02c; stroke-width: 1.5; stroke-linecap: square"/>
    </g>
    <g id="line2d_54">
     <path d="M 333.363313 220.6192 
L 333.363313 74.2576 
" clip-path="url(#p70479a52be)" style="fill: none; stroke-dasharray: 5.55,2.4; stroke-dashoffset: 0; stroke: #2ca02c; stroke-width: 1.5"/>
    </g>
    <g id="line2d_55">
     <path d="M -1 1.283165 
L 11.955312 4.522089 
L 29.811312 11.367234 
L 47.667312 20.55814 
L 65.523312 31.4101 
L 83.379312 38.717325 
L 101.235312 47.349895 
L 119.091312 55.573508 
L 136.947312 63.038559 
L 154.803313 66.173436 
L 172.659312 73.494006 
L 190.515313 82.647894 
L 208.371312 90.149962 
L 226.227313 96.017747 
L 244.083312 103.252747 
L 261.939313 106.727645 
L 279.795312 115.941513 
L 297.651313 125.400275 
L 315.507312 128.927218 
L 333.363313 135.782797 
L 351.219312 143.261092 
L 369.075313 150.436491 
L 386.931312 157.935401 
L 404.787313 168.163703 
L 422.643313 173.259385 
L 440.499313 179.58146 
L 459.790625 188.714779 
L 459.790625 188.714779 
" clip-path="url(#p70479a52be)" style="fill: none; stroke: #d62728; stroke-width: 1.5; stroke-linecap: square"/>
    </g>
    <g id="line2d_56">
     <path d="M 369.075313 220.6192 
L 369.075313 74.2576 
" clip-path="url(#p70479a52be)" style="fill: none; stroke-dasharray: 5.55,2.4; stroke-dashoffset: 0; stroke: #d62728; stroke-width: 1.5"/>
    </g>
    <g id="line2d_57">
     <path d="M -1 18.384702 
L 11.955312 26.240257 
L 29.811312 34.351383 
L 47.667312 46.383582 
L 65.523312 55.727815 
L 83.379312 62.447822 
L 101.235312 73.099969 
L 119.091312 80.193416 
L 136.947312 92.645875 
L 154.803313 104.166958 
L 172.659312 115.124007 
L 190.515313 122.328677 
L 208.371312 134.312367 
L 226.227313 142.658513 
L 244.083312 147.853497 
L 261.939313 155.571249 
L 279.795312 167.68348 
L 297.651313 171.31543 
L 315.507312 175.476612 
L 333.363313 182.669574 
L 369.075313 193.619648 
L 386.931312 203.07481 
L 404.787313 208.251481 
L 422.643313 215.828501 
L 440.499313 222.822139 
L 458.355313 229.022398 
L 459.790625 229.732091 
L 459.790625 229.732091 
" clip-path="url(#p70479a52be)" style="fill: none; stroke: #9467bd; stroke-width: 1.5; stroke-linecap: square"/>
    </g>
    <g id="line2d_58">
     <path d="M 244.083312 220.6192 
L 244.083312 74.2576 
" clip-path="url(#p70479a52be)" style="fill: none; stroke-dasharray: 5.55,2.4; stroke-dashoffset: 0; stroke: #9467bd; stroke-width: 1.5"/>
    </g>
    <g id="line2d_59">
     <path d="M -1 6.884978 
L 11.955312 11.224157 
L 29.811312 22.796323 
L 47.667312 32.00993 
L 65.523312 42.919921 
L 83.379312 48.171381 
L 101.235312 54.022752 
L 136.947312 73.102749 
L 154.803313 77.035856 
L 172.659312 86.070894 
L 190.515313 92.940411 
L 208.371312 100.936442 
L 226.227313 105.230169 
L 244.083312 114.059005 
L 261.939313 124.488803 
L 279.795312 135.352949 
L 297.651313 144.440309 
L 315.507312 154.597562 
L 333.363313 159.989383 
L 351.219312 164.365755 
L 369.075313 172.510784 
L 386.931312 177.530713 
L 404.787313 183.543611 
L 422.643313 186.010415 
L 440.499313 195.659759 
L 458.355313 201.337854 
L 459.790625 202.005383 
L 459.790625 202.005383 
" clip-path="url(#p70479a52be)" style="fill: none; stroke: #8c564b; stroke-width: 1.5; stroke-linecap: square"/>
    </g>
    <g id="line2d_60">
     <path d="M 297.651313 220.6192 
L 297.651313 74.2576 
" clip-path="url(#p70479a52be)" style="fill: none; stroke-dasharray: 5.55,2.4; stroke-dashoffset: 0; stroke: #8c564b; stroke-width: 1.5"/>
    </g>
    <g id="patch_8">
     <path d="M 208.371313 220.6192 
L 208.371313 74.2576 
" style="fill: none; stroke: #000000; stroke-width: 2; stroke-linejoin: miter; stroke-linecap: square"/>
    </g>
    <g id="patch_9">
     <path d="M 404.787313 220.6192 
L 404.787313 74.2576 
" style="fill: none; stroke: #000000; stroke-width: 2; stroke-linejoin: miter; stroke-linecap: square"/>
    </g>
    <g id="patch_10">
     <path d="M 208.371312 220.6192 
L 404.787313 220.6192 
" style="fill: none; stroke: #000000; stroke-width: 2; stroke-linejoin: miter; stroke-linecap: square"/>
    </g>
    <g id="patch_11">
     <path d="M 208.371312 74.2576 
L 404.787313 74.2576 
" style="fill: none; stroke: #000000; stroke-width: 2; stroke-linejoin: miter; stroke-linecap: square"/>
    </g>
   </g>
   <g id="legend_1">
    <g id="patch_12">
     <path d="M 9.2 39.579687 
L 449.590625 39.579687 
Q 451.590625 39.579687 451.590625 37.579687 
L 451.590625 9.2 
Q 451.590625 7.2 449.590625 7.2 
L 9.2 7.2 
Q 7.2 7.2 7.2 9.2 
L 7.2 37.579687 
Q 7.2 39.579687 9.2 39.579687 
z
" style="fill: #ffffff; opacity: 0.8; stroke: #cccccc; stroke-linejoin: miter"/>
    </g>
    <g id="line2d_61">
     <path d="M 11.2 15.3 
L 21.2 15.3 
L 31.2 15.3 
" style="fill: none; stroke: #1f77b4; stroke-width: 2; stroke-linecap: square"/>
     <g>
      <use xlink:href="#m6a00f3fc86" x="21.2" y="15.3" style="fill: #1f77b4; stroke: #1f77b4"/>
     </g>
    </g>
    <g id="text_19">
     <!-- $\kappa$ = 0.02 -->
     <g transform="translate(39.2 18.8) scale(0.1 -0.1)">
      <defs>
       <path id="DejaVuSans-Oblique-3ba" d="M 938 3500 
L 1531 3500 
L 1247 2047 
L 3041 3500 
L 3741 3500 
L 2106 2181 
L 3275 0 
L 2572 0 
L 1628 1806 
L 1122 1403 
L 850 0 
L 256 0 
L 938 3500 
z
" transform="scale(0.015625)"/>
       <path id="DejaVuSans-20" transform="scale(0.015625)"/>
       <path id="DejaVuSans-3d" d="M 678 2906 
L 4684 2906 
L 4684 2381 
L 678 2381 
L 678 2906 
z
M 678 1631 
L 4684 1631 
L 4684 1100 
L 678 1100 
L 678 1631 
z
" transform="scale(0.015625)"/>
      </defs>
      <use xlink:href="#DejaVuSans-Oblique-3ba" transform="translate(0 0.78125)"/>
      <use xlink:href="#DejaVuSans-20" transform="translate(58.935547 0.78125)"/>
      <use xlink:href="#DejaVuSans-3d" transform="translate(90.722656 0.78125)"/>
      <use xlink:href="#DejaVuSans-20" transform="translate(174.511719 0.78125)"/>
      <use xlink:href="#DejaVuSans-30" transform="translate(206.298828 0.78125)"/>
      <use xlink:href="#DejaVuSans-2e" transform="translate(269.921875 0.78125)"/>
      <use xlink:href="#DejaVuSans-30" transform="translate(301.708984 0.78125)"/>
      <use xlink:href="#DejaVuSans-32" transform="translate(365.332031 0.78125)"/>
     </g>
    </g>
    <g id="line2d_62">
     <path d="M 11.2 29.979687 
L 21.2 29.979687 
L 31.2 29.979687 
" style="fill: none; stroke: #ff7f0e; stroke-width: 2; stroke-linecap: square"/>
     <g>
      <use xlink:href="#m5aacae8687" x="21.2" y="29.979687" style="fill: #ff7f0e; stroke: #ff7f0e; stroke-linejoin: miter"/>
     </g>
    </g>
    <g id="text_20">
     <!-- Constant-edge ($\alpha$ = 0.200) -->
     <g transform="translate(39.2 33.479687) scale(0.1 -0.1)">
      <defs>
       <path id="DejaVuSans-43" d="M 4122 4306 
L 4122 3641 
Q 3803 3938 3442 4084 
Q 3081 4231 2675 4231 
Q 1875 4231 1450 3742 
Q 1025 3253 1025 2328 
Q 1025 1406 1450 917 
Q 1875 428 2675 428 
Q 3081 428 3442 575 
Q 3803 722 4122 1019 
L 4122 359 
Q 3791 134 3420 21 
Q 3050 -91 2638 -91 
Q 1578 -91 968 557 
Q 359 1206 359 2328 
Q 359 3453 968 4101 
Q 1578 4750 2638 4750 
Q 3056 4750 3426 4639 
Q 3797 4528 4122 4306 
z
" transform="scale(0.015625)"/>
       <path id="DejaVuSans-6f" d="M 1959 3097 
Q 1497 3097 1228 2736 
Q 959 2375 959 1747 
Q 959 1119 1226 758 
Q 1494 397 1959 397 
Q 2419 397 2687 759 
Q 2956 1122 2956 1747 
Q 2956 2369 2687 2733 
Q 2419 3097 1959 3097 
z
M 1959 3584 
Q 2709 3584 3137 3096 
Q 3566 2609 3566 1747 
Q 3566 888 3137 398 
Q 2709 -91 1959 -91 
Q 1206 -91 779 398 
Q 353 888 353 1747 
Q 353 2609 779 3096 
Q 1206 3584 1959 3584 
z
" transform="scale(0.015625)"/>
       <path id="DejaVuSans-6e" d="M 3513 2113 
L 3513 0 
L 2938 0 
L 2938 2094 
Q 2938 2591 2744 2837 
Q 2550 3084 2163 3084 
Q 1697 3084 1428 2787 
Q 1159 2491 1159 1978 
L 1159 0 
L 581 0 
L 581 3500 
L 1159 3500 
L 1159 2956 
Q 1366 3272 1645 3428 
Q 1925 3584 2291 3584 
Q 2894 3584 3203 3211 
Q 3513 2838 3513 2113 
z
" transform="scale(0.015625)"/>
       <path id="DejaVuSans-73" d="M 2834 3397 
L 2834 2853 
Q 2591 2978 2328 3040 
Q 2066 3103 1784 3103 
Q 1356 3103 1142 2972 
Q 928 2841 928 2578 
Q 928 2378 1081 2264 
Q 1234 2150 1697 2047 
L 1894 2003 
Q 2506 1872 2764 1633 
Q 3022 1394 3022 966 
Q 3022 478 2636 193 
Q 2250 -91 1575 -91 
Q 1294 -91 989 -36 
Q 684 19 347 128 
L 347 722 
Q 666 556 975 473 
Q 1284 391 1588 391 
Q 1994 391 2212 530 
Q 2431 669 2431 922 
Q 2431 1156 2273 1281 
Q 2116 1406 1581 1522 
L 1381 1569 
Q 847 1681 609 1914 
Q 372 2147 372 2553 
Q 372 3047 722 3315 
Q 1072 3584 1716 3584 
Q 2034 3584 2315 3537 
Q 2597 3491 2834 3397 
z
" transform="scale(0.015625)"/>
       <path id="DejaVuSans-74" d="M 1172 4494 
L 1172 3500 
L 2356 3500 
L 2356 3053 
L 1172 3053 
L 1172 1153 
Q 1172 725 1289 603 
Q 1406 481 1766 481 
L 2356 481 
L 2356 0 
L 1766 0 
Q 1100 0 847 248 
Q 594 497 594 1153 
L 594 3053 
L 172 3053 
L 172 3500 
L 594 3500 
L 594 4494 
L 1172 4494 
z
" transform="scale(0.015625)"/>
       <path id="DejaVuSans-61" d="M 2194 1759 
Q 1497 1759 1228 1600 
Q 959 1441 959 1056 
Q 959 750 1161 570 
Q 1363 391 1709 391 
Q 2188 391 2477 730 
Q 2766 1069 2766 1631 
L 2766 1759 
L 2194 1759 
z
M 3341 1997 
L 3341 0 
L 2766 0 
L 2766 531 
Q 2569 213 2275 61 
Q 1981 -91 1556 -91 
Q 1019 -91 701 211 
Q 384 513 384 1019 
Q 384 1609 779 1909 
Q 1175 2209 1959 2209 
L 2766 2209 
L 2766 2266 
Q 2766 2663 2505 2880 
Q 2244 3097 1772 3097 
Q 1472 3097 1187 3025 
Q 903 2953 641 2809 
L 641 3341 
Q 956 3463 1253 3523 
Q 1550 3584 1831 3584 
Q 2591 3584 2966 3190 
Q 3341 2797 3341 1997 
z
" transform="scale(0.015625)"/>
       <path id="DejaVuSans-2d" d="M 313 2009 
L 1997 2009 
L 1997 1497 
L 313 1497 
L 313 2009 
z
" transform="scale(0.015625)"/>
       <path id="DejaVuSans-65" d="M 3597 1894 
L 3597 1613 
L 953 1613 
Q 991 1019 1311 708 
Q 1631 397 2203 397 
Q 2534 397 2845 478 
Q 3156 559 3463 722 
L 3463 178 
Q 3153 47 2828 -22 
Q 2503 -91 2169 -91 
Q 1331 -91 842 396 
Q 353 884 353 1716 
Q 353 2575 817 3079 
Q 1281 3584 2069 3584 
Q 2775 3584 3186 3129 
Q 3597 2675 3597 1894 
z
M 3022 2063 
Q 3016 2534 2758 2815 
Q 2500 3097 2075 3097 
Q 1594 3097 1305 2825 
Q 1016 2553 972 2059 
L 3022 2063 
z
" transform="scale(0.015625)"/>
       <path id="DejaVuSans-64" d="M 2906 2969 
L 2906 4863 
L 3481 4863 
L 3481 0 
L 2906 0 
L 2906 525 
Q 2725 213 2448 61 
Q 2172 -91 1784 -91 
Q 1150 -91 751 415 
Q 353 922 353 1747 
Q 353 2572 751 3078 
Q 1150 3584 1784 3584 
Q 2172 3584 2448 3432 
Q 2725 3281 2906 2969 
z
M 947 1747 
Q 947 1113 1208 752 
Q 1469 391 1925 391 
Q 2381 391 2643 752 
Q 2906 1113 2906 1747 
Q 2906 2381 2643 2742 
Q 2381 3103 1925 3103 
Q 1469 3103 1208 2742 
Q 947 2381 947 1747 
z
" transform="scale(0.015625)"/>
       <path id="DejaVuSans-67" d="M 2906 1791 
Q 2906 2416 2648 2759 
Q 2391 3103 1925 3103 
Q 1463 3103 1205 2759 
Q 947 2416 947 1791 
Q 947 1169 1205 825 
Q 1463 481 1925 481 
Q 2391 481 2648 825 
Q 2906 1169 2906 1791 
z
M 3481 434 
Q 3481 -459 3084 -895 
Q 2688 -1331 1869 -1331 
Q 1566 -1331 1297 -1286 
Q 1028 -1241 775 -1147 
L 775 -588 
Q 1028 -725 1275 -790 
Q 1522 -856 1778 -856 
Q 2344 -856 2625 -561 
Q 2906 -266 2906 331 
L 2906 616 
Q 2728 306 2450 153 
Q 2172 0 1784 0 
Q 1141 0 747 490 
Q 353 981 353 1791 
Q 353 2603 747 3093 
Q 1141 3584 1784 3584 
Q 2172 3584 2450 3431 
Q 2728 3278 2906 2969 
L 2906 3500 
L 3481 3500 
L 3481 434 
z
" transform="scale(0.015625)"/>
       <path id="DejaVuSans-28" d="M 1984 4856 
Q 1566 4138 1362 3434 
Q 1159 2731 1159 2009 
Q 1159 1288 1364 580 
Q 1569 -128 1984 -844 
L 1484 -844 
Q 1016 -109 783 600 
Q 550 1309 550 2009 
Q 550 2706 781 3412 
Q 1013 4119 1484 4856 
L 1984 4856 
z
" transform="scale(0.015625)"/>
       <path id="DejaVuSans-Oblique-3b1" d="M 2619 1628 
L 2622 2350 
Q 2625 3088 2069 3091 
Q 1653 3094 1394 2747 
Q 1069 2319 959 1747 
Q 825 1059 994 731 
Q 1169 397 1547 397 
Q 1966 397 2319 1063 
L 2619 1628 
z
M 2166 3578 
Q 3141 3594 3128 2584 
Q 3128 2584 3616 3500 
L 4128 3500 
L 3119 1603 
L 3109 919 
Q 3109 766 3194 638 
Q 3291 488 3391 488 
L 3669 488 
L 3575 0 
L 3228 0 
Q 2934 0 2722 263 
Q 2622 394 2619 669 
Q 2416 334 2066 50 
Q 1900 -81 1453 -78 
Q 722 -72 456 397 
Q 184 884 353 1747 
Q 534 2675 1009 3097 
Q 1544 3569 2166 3578 
z
" transform="scale(0.015625)"/>
       <path id="DejaVuSans-29" d="M 513 4856 
L 1013 4856 
Q 1481 4119 1714 3412 
Q 1947 2706 1947 2009 
Q 1947 1309 1714 600 
Q 1481 -109 1013 -844 
L 513 -844 
Q 928 -128 1133 580 
Q 1338 1288 1338 2009 
Q 1338 2731 1133 3434 
Q 928 4138 513 4856 
z
" transform="scale(0.015625)"/>
      </defs>
      <use xlink:href="#DejaVuSans-43" transform="translate(0 0.015625)"/>
      <use xlink:href="#DejaVuSans-6f" transform="translate(69.824219 0.015625)"/>
      <use xlink:href="#DejaVuSans-6e" transform="translate(131.005859 0.015625)"/>
      <use xlink:href="#DejaVuSans-73" transform="translate(194.384766 0.015625)"/>
      <use xlink:href="#DejaVuSans-74" transform="translate(246.484375 0.015625)"/>
      <use xlink:href="#DejaVuSans-61" transform="translate(285.693359 0.015625)"/>
      <use xlink:href="#DejaVuSans-6e" transform="translate(346.972656 0.015625)"/>
      <use xlink:href="#DejaVuSans-74" transform="translate(410.351562 0.015625)"/>
      <use xlink:href="#DejaVuSans-2d" transform="translate(449.560547 0.015625)"/>
      <use xlink:href="#DejaVuSans-65" transform="translate(485.644531 0.015625)"/>
      <use xlink:href="#DejaVuSans-64" transform="translate(547.167969 0.015625)"/>
      <use xlink:href="#DejaVuSans-67" transform="translate(610.644531 0.015625)"/>
      <use xlink:href="#DejaVuSans-65" transform="translate(674.121094 0.015625)"/>
      <use xlink:href="#DejaVuSans-20" transform="translate(735.644531 0.015625)"/>
      <use xlink:href="#DejaVuSans-28" transform="translate(767.431641 0.015625)"/>
      <use xlink:href="#DejaVuSans-Oblique-3b1" transform="translate(806.445312 0.015625)"/>
      <use xlink:href="#DejaVuSans-20" transform="translate(872.363281 0.015625)"/>
      <use xlink:href="#DejaVuSans-3d" transform="translate(904.150391 0.015625)"/>
      <use xlink:href="#DejaVuSans-20" transform="translate(987.939453 0.015625)"/>
      <use xlink:href="#DejaVuSans-30" transform="translate(1019.726562 0.015625)"/>
      <use xlink:href="#DejaVuSans-2e" transform="translate(1083.349609 0.015625)"/>
      <use xlink:href="#DejaVuSans-32" transform="translate(1109.636719 0.015625)"/>
      <use xlink:href="#DejaVuSans-30" transform="translate(1173.259766 0.015625)"/>
      <use xlink:href="#DejaVuSans-30" transform="translate(1236.882812 0.015625)"/>
      <use xlink:href="#DejaVuSans-29" transform="translate(1300.505859 0.015625)"/>
     </g>
    </g>
    <g id="line2d_63">
     <path d="M 193.2 15.3 
L 203.2 15.3 
L 213.2 15.3 
" style="fill: none; stroke: #2ca02c; stroke-width: 2; stroke-linecap: square"/>
     <g>
      <use xlink:href="#mda84a28b0f" x="203.2" y="15.3" style="fill: #2ca02c; stroke: #2ca02c; stroke-linejoin: miter"/>
     </g>
    </g>
    <g id="text_21">
     <!-- Maximum-degree ($\alpha$ = 0.250) -->
     <g transform="translate(221.2 18.8) scale(0.1 -0.1)">
      <defs>
       <path id="DejaVuSans-4d" d="M 628 4666 
L 1569 4666 
L 2759 1491 
L 3956 4666 
L 4897 4666 
L 4897 0 
L 4281 0 
L 4281 4097 
L 3078 897 
L 2444 897 
L 1241 4097 
L 1241 0 
L 628 0 
L 628 4666 
z
" transform="scale(0.015625)"/>
       <path id="DejaVuSans-78" d="M 3513 3500 
L 2247 1797 
L 3578 0 
L 2900 0 
L 1881 1375 
L 863 0 
L 184 0 
L 1544 1831 
L 300 3500 
L 978 3500 
L 1906 2253 
L 2834 3500 
L 3513 3500 
z
" transform="scale(0.015625)"/>
       <path id="DejaVuSans-69" d="M 603 3500 
L 1178 3500 
L 1178 0 
L 603 0 
L 603 3500 
z
M 603 4863 
L 1178 4863 
L 1178 4134 
L 603 4134 
L 603 4863 
z
" transform="scale(0.015625)"/>
       <path id="DejaVuSans-6d" d="M 3328 2828 
Q 3544 3216 3844 3400 
Q 4144 3584 4550 3584 
Q 5097 3584 5394 3201 
Q 5691 2819 5691 2113 
L 5691 0 
L 5113 0 
L 5113 2094 
Q 5113 2597 4934 2840 
Q 4756 3084 4391 3084 
Q 3944 3084 3684 2787 
Q 3425 2491 3425 1978 
L 3425 0 
L 2847 0 
L 2847 2094 
Q 2847 2600 2669 2842 
Q 2491 3084 2119 3084 
Q 1678 3084 1418 2786 
Q 1159 2488 1159 1978 
L 1159 0 
L 581 0 
L 581 3500 
L 1159 3500 
L 1159 2956 
Q 1356 3278 1631 3431 
Q 1906 3584 2284 3584 
Q 2666 3584 2933 3390 
Q 3200 3197 3328 2828 
z
" transform="scale(0.015625)"/>
       <path id="DejaVuSans-75" d="M 544 1381 
L 544 3500 
L 1119 3500 
L 1119 1403 
Q 1119 906 1312 657 
Q 1506 409 1894 409 
Q 2359 409 2629 706 
Q 2900 1003 2900 1516 
L 2900 3500 
L 3475 3500 
L 3475 0 
L 2900 0 
L 2900 538 
Q 2691 219 2414 64 
Q 2138 -91 1772 -91 
Q 1169 -91 856 284 
Q 544 659 544 1381 
z
M 1991 3584 
L 1991 3584 
z
" transform="scale(0.015625)"/>
       <path id="DejaVuSans-72" d="M 2631 2963 
Q 2534 3019 2420 3045 
Q 2306 3072 2169 3072 
Q 1681 3072 1420 2755 
Q 1159 2438 1159 1844 
L 1159 0 
L 581 0 
L 581 3500 
L 1159 3500 
L 1159 2956 
Q 1341 3275 1631 3429 
Q 1922 3584 2338 3584 
Q 2397 3584 2469 3576 
Q 2541 3569 2628 3553 
L 2631 2963 
z
" transform="scale(0.015625)"/>
      </defs>
      <use xlink:href="#DejaVuSans-4d" transform="translate(0 0.015625)"/>
      <use xlink:href="#DejaVuSans-61" transform="translate(86.279297 0.015625)"/>
      <use xlink:href="#DejaVuSans-78" transform="translate(147.558594 0.015625)"/>
      <use xlink:href="#DejaVuSans-69" transform="translate(206.738281 0.015625)"/>
      <use xlink:href="#DejaVuSans-6d" transform="translate(234.521484 0.015625)"/>
      <use xlink:href="#DejaVuSans-75" transform="translate(331.933594 0.015625)"/>
      <use xlink:href="#DejaVuSans-6d" transform="translate(395.3125 0.015625)"/>
      <use xlink:href="#DejaVuSans-2d" transform="translate(490.974609 0.015625)"/>
      <use xlink:href="#DejaVuSans-64" transform="translate(527.058594 0.015625)"/>
      <use xlink:href="#DejaVuSans-65" transform="translate(590.535156 0.015625)"/>
      <use xlink:href="#DejaVuSans-67" transform="translate(652.058594 0.015625)"/>
      <use xlink:href="#DejaVuSans-72" transform="translate(715.535156 0.015625)"/>
      <use xlink:href="#DejaVuSans-65" transform="translate(756.648438 0.015625)"/>
      <use xlink:href="#DejaVuSans-65" transform="translate(818.171875 0.015625)"/>
      <use xlink:href="#DejaVuSans-20" transform="translate(879.695312 0.015625)"/>
      <use xlink:href="#DejaVuSans-28" transform="translate(911.482422 0.015625)"/>
      <use xlink:href="#DejaVuSans-Oblique-3b1" transform="translate(950.496094 0.015625)"/>
      <use xlink:href="#DejaVuSans-20" transform="translate(1016.414062 0.015625)"/>
      <use xlink:href="#DejaVuSans-3d" transform="translate(1048.201172 0.015625)"/>
      <use xlink:href="#DejaVuSans-20" transform="translate(1131.990234 0.015625)"/>
      <use xlink:href="#DejaVuSans-30" transform="translate(1163.777344 0.015625)"/>
      <use xlink:href="#DejaVuSans-2e" transform="translate(1227.400391 0.015625)"/>
      <use xlink:href="#DejaVuSans-32" transform="translate(1253.6875 0.015625)"/>
      <use xlink:href="#DejaVuSans-35" transform="translate(1317.310547 0.015625)"/>
      <use xlink:href="#DejaVuSans-30" transform="translate(1380.933594 0.015625)"/>
      <use xlink:href="#DejaVuSans-29" transform="translate(1444.556641 0.015625)"/>
     </g>
    </g>
    <g id="line2d_64">
     <path d="M 193.2 29.998437 
L 203.2 29.998437 
L 213.2 29.998437 
" style="fill: none; stroke: #d62728; stroke-width: 2; stroke-linecap: square"/>
     <g>
      <use xlink:href="#mc0f7f91313" x="203.2" y="29.998437" style="fill: #d62728; stroke: #d62728"/>
     </g>
    </g>
    <g id="text_22">
     <!-- Local-degree -->
     <g transform="translate(221.2 33.498437) scale(0.1 -0.1)">
      <defs>
       <path id="DejaVuSans-4c" d="M 628 4666 
L 1259 4666 
L 1259 531 
L 3531 531 
L 3531 0 
L 628 0 
L 628 4666 
z
" transform="scale(0.015625)"/>
       <path id="DejaVuSans-63" d="M 3122 3366 
L 3122 2828 
Q 2878 2963 2633 3030 
Q 2388 3097 2138 3097 
Q 1578 3097 1268 2742 
Q 959 2388 959 1747 
Q 959 1106 1268 751 
Q 1578 397 2138 397 
Q 2388 397 2633 464 
Q 2878 531 3122 666 
L 3122 134 
Q 2881 22 2623 -34 
Q 2366 -91 2075 -91 
Q 1284 -91 818 406 
Q 353 903 353 1747 
Q 353 2603 823 3093 
Q 1294 3584 2113 3584 
Q 2378 3584 2631 3529 
Q 2884 3475 3122 3366 
z
" transform="scale(0.015625)"/>
       <path id="DejaVuSans-6c" d="M 603 4863 
L 1178 4863 
L 1178 0 
L 603 0 
L 603 4863 
z
" transform="scale(0.015625)"/>
      </defs>
      <use xlink:href="#DejaVuSans-4c"/>
      <use xlink:href="#DejaVuSans-6f" x="53.962891"/>
      <use xlink:href="#DejaVuSans-63" x="115.144531"/>
      <use xlink:href="#DejaVuSans-61" x="170.125"/>
      <use xlink:href="#DejaVuSans-6c" x="231.404297"/>
      <use xlink:href="#DejaVuSans-2d" x="259.1875"/>
      <use xlink:href="#DejaVuSans-64" x="295.271484"/>
      <use xlink:href="#DejaVuSans-65" x="358.748047"/>
      <use xlink:href="#DejaVuSans-67" x="420.271484"/>
      <use xlink:href="#DejaVuSans-72" x="483.748047"/>
      <use xlink:href="#DejaVuSans-65" x="522.611328"/>
      <use xlink:href="#DejaVuSans-65" x="584.134766"/>
     </g>
    </g>
    <g id="line2d_65">
     <path d="M 389.6 15.3 
L 399.6 15.3 
L 409.6 15.3 
" style="fill: none; stroke: #9467bd; stroke-width: 2; stroke-linecap: square"/>
     <g>
      <use xlink:href="#m7a1907acb3" x="399.6" y="15.3" style="fill: #9467bd; stroke: #9467bd; stroke-linejoin: miter"/>
     </g>
    </g>
    <g id="text_23">
     <!-- FMMC -->
     <g transform="translate(417.6 18.8) scale(0.1 -0.1)">
      <defs>
       <path id="DejaVuSans-46" d="M 628 4666 
L 3309 4666 
L 3309 4134 
L 1259 4134 
L 1259 2759 
L 3109 2759 
L 3109 2228 
L 1259 2228 
L 1259 0 
L 628 0 
L 628 4666 
z
" transform="scale(0.015625)"/>
      </defs>
      <use xlink:href="#DejaVuSans-46"/>
      <use xlink:href="#DejaVuSans-4d" x="57.519531"/>
      <use xlink:href="#DejaVuSans-4d" x="143.798828"/>
      <use xlink:href="#DejaVuSans-43" x="230.078125"/>
     </g>
    </g>
    <g id="line2d_66">
     <path d="M 389.6 29.978125 
L 399.6 29.978125 
L 409.6 29.978125 
" style="fill: none; stroke: #8c564b; stroke-width: 2; stroke-linecap: square"/>
     <g>
      <use xlink:href="#mf799f7d356" x="399.6" y="29.978125" style="fill: #8c564b; stroke: #8c564b; stroke-linejoin: miter"/>
     </g>
    </g>
    <g id="text_24">
     <!-- FDLA -->
     <g transform="translate(417.6 33.478125) scale(0.1 -0.1)">
      <defs>
       <path id="DejaVuSans-44" d="M 1259 4147 
L 1259 519 
L 2022 519 
Q 2988 519 3436 956 
Q 3884 1394 3884 2338 
Q 3884 3275 3436 3711 
Q 2988 4147 2022 4147 
L 1259 4147 
z
M 628 4666 
L 1925 4666 
Q 3281 4666 3915 4102 
Q 4550 3538 4550 2338 
Q 4550 1131 3912 565 
Q 3275 0 1925 0 
L 628 0 
L 628 4666 
z
" transform="scale(0.015625)"/>
       <path id="DejaVuSans-41" d="M 2188 4044 
L 1331 1722 
L 3047 1722 
L 2188 4044 
z
M 1831 4666 
L 2547 4666 
L 4325 0 
L 3669 0 
L 3244 1197 
L 1141 1197 
L 716 0 
L 50 0 
L 1831 4666 
z
" transform="scale(0.015625)"/>
      </defs>
      <use xlink:href="#DejaVuSans-46"/>
      <use xlink:href="#DejaVuSans-44" x="57.519531"/>
      <use xlink:href="#DejaVuSans-4c" x="134.521484"/>
      <use xlink:href="#DejaVuSans-41" x="192.484375"/>
     </g>
    </g>
   </g>
  </g>
  <g id="patch_13">
   <path d="M 129.699457 278.907767 
Q 169.035385 249.763484 208.371312 220.6192 
" style="fill: none; stroke: #000000; stroke-linecap: round"/>
  </g>
  <g id="text_25">
   <!-- Timesteps -->
   <g transform="translate(198.610625 359.128375) scale(0.12 -0.12)">
    <defs>
     <path id="DejaVuSans-54" d="M -19 4666 
L 3928 4666 
L 3928 4134 
L 2272 4134 
L 2272 0 
L 1638 0 
L 1638 4134 
L -19 4134 
L -19 4666 
z
" transform="scale(0.015625)"/>
     <path id="DejaVuSans-70" d="M 1159 525 
L 1159 -1331 
L 581 -1331 
L 581 3500 
L 1159 3500 
L 1159 2969 
Q 1341 3281 1617 3432 
Q 1894 3584 2278 3584 
Q 2916 3584 3314 3078 
Q 3713 2572 3713 1747 
Q 3713 922 3314 415 
Q 2916 -91 2278 -91 
Q 1894 -91 1617 61 
Q 1341 213 1159 525 
z
M 3116 1747 
Q 3116 2381 2855 2742 
Q 2594 3103 2138 3103 
Q 1681 3103 1420 2742 
Q 1159 2381 1159 1747 
Q 1159 1113 1420 752 
Q 1681 391 2138 391 
Q 2594 391 2855 752 
Q 3116 1113 3116 1747 
z
" transform="scale(0.015625)"/>
    </defs>
    <use xlink:href="#DejaVuSans-54"/>
    <use xlink:href="#DejaVuSans-69" x="57.958984"/>
    <use xlink:href="#DejaVuSans-6d" x="85.742188"/>
    <use xlink:href="#DejaVuSans-65" x="183.154297"/>
    <use xlink:href="#DejaVuSans-73" x="244.677734"/>
    <use xlink:href="#DejaVuSans-74" x="296.777344"/>
    <use xlink:href="#DejaVuSans-65" x="335.986328"/>
    <use xlink:href="#DejaVuSans-70" x="397.509766"/>
    <use xlink:href="#DejaVuSans-73" x="460.986328"/>
   </g>
  </g>
  <g id="text_26">
   <!-- Mean estimate error for the best arm -->
   <g transform="translate(17.329437 303.952188) rotate(-90) scale(0.12 -0.12)">
    <defs>
     <path id="DejaVuSans-66" d="M 2375 4863 
L 2375 4384 
L 1825 4384 
Q 1516 4384 1395 4259 
Q 1275 4134 1275 3809 
L 1275 3500 
L 2222 3500 
L 2222 3053 
L 1275 3053 
L 1275 0 
L 697 0 
L 697 3053 
L 147 3053 
L 147 3500 
L 697 3500 
L 697 3744 
Q 697 4328 969 4595 
Q 1241 4863 1831 4863 
L 2375 4863 
z
" transform="scale(0.015625)"/>
     <path id="DejaVuSans-68" d="M 3513 2113 
L 3513 0 
L 2938 0 
L 2938 2094 
Q 2938 2591 2744 2837 
Q 2550 3084 2163 3084 
Q 1697 3084 1428 2787 
Q 1159 2491 1159 1978 
L 1159 0 
L 581 0 
L 581 4863 
L 1159 4863 
L 1159 2956 
Q 1366 3272 1645 3428 
Q 1925 3584 2291 3584 
Q 2894 3584 3203 3211 
Q 3513 2838 3513 2113 
z
" transform="scale(0.015625)"/>
     <path id="DejaVuSans-62" d="M 3116 1747 
Q 3116 2381 2855 2742 
Q 2594 3103 2138 3103 
Q 1681 3103 1420 2742 
Q 1159 2381 1159 1747 
Q 1159 1113 1420 752 
Q 1681 391 2138 391 
Q 2594 391 2855 752 
Q 3116 1113 3116 1747 
z
M 1159 2969 
Q 1341 3281 1617 3432 
Q 1894 3584 2278 3584 
Q 2916 3584 3314 3078 
Q 3713 2572 3713 1747 
Q 3713 922 3314 415 
Q 2916 -91 2278 -91 
Q 1894 -91 1617 61 
Q 1341 213 1159 525 
L 1159 0 
L 581 0 
L 581 4863 
L 1159 4863 
L 1159 2969 
z
" transform="scale(0.015625)"/>
    </defs>
    <use xlink:href="#DejaVuSans-4d"/>
    <use xlink:href="#DejaVuSans-65" x="86.279297"/>
    <use xlink:href="#DejaVuSans-61" x="147.802734"/>
    <use xlink:href="#DejaVuSans-6e" x="209.082031"/>
    <use xlink:href="#DejaVuSans-20" x="272.460938"/>
    <use xlink:href="#DejaVuSans-65" x="304.248047"/>
    <use xlink:href="#DejaVuSans-73" x="365.771484"/>
    <use xlink:href="#DejaVuSans-74" x="417.871094"/>
    <use xlink:href="#DejaVuSans-69" x="457.080078"/>
    <use xlink:href="#DejaVuSans-6d" x="484.863281"/>
    <use xlink:href="#DejaVuSans-61" x="582.275391"/>
    <use xlink:href="#DejaVuSans-74" x="643.554688"/>
    <use xlink:href="#DejaVuSans-65" x="682.763672"/>
    <use xlink:href="#DejaVuSans-20" x="744.287109"/>
    <use xlink:href="#DejaVuSans-65" x="776.074219"/>
    <use xlink:href="#DejaVuSans-72" x="837.597656"/>
    <use xlink:href="#DejaVuSans-72" x="876.960938"/>
    <use xlink:href="#DejaVuSans-6f" x="915.824219"/>
    <use xlink:href="#DejaVuSans-72" x="977.005859"/>
    <use xlink:href="#DejaVuSans-20" x="1018.119141"/>
    <use xlink:href="#DejaVuSans-66" x="1049.90625"/>
    <use xlink:href="#DejaVuSans-6f" x="1085.111328"/>
    <use xlink:href="#DejaVuSans-72" x="1146.292969"/>
    <use xlink:href="#DejaVuSans-20" x="1187.40625"/>
    <use xlink:href="#DejaVuSans-74" x="1219.193359"/>
    <use xlink:href="#DejaVuSans-68" x="1258.402344"/>
    <use xlink:href="#DejaVuSans-65" x="1321.78125"/>
    <use xlink:href="#DejaVuSans-20" x="1383.304688"/>
    <use xlink:href="#DejaVuSans-62" x="1415.091797"/>
    <use xlink:href="#DejaVuSans-65" x="1478.568359"/>
    <use xlink:href="#DejaVuSans-73" x="1540.091797"/>
    <use xlink:href="#DejaVuSans-74" x="1592.191406"/>
    <use xlink:href="#DejaVuSans-20" x="1631.400391"/>
    <use xlink:href="#DejaVuSans-61" x="1663.1875"/>
    <use xlink:href="#DejaVuSans-72" x="1724.466797"/>
    <use xlink:href="#DejaVuSans-6d" x="1763.830078"/>
   </g>
  </g>
 </g>
 <defs>
  <clipPath id="p3cafb39614">
   <rect x="56.595312" y="60.952" width="357.12" height="266.112"/>
  </clipPath>
  <clipPath id="p70479a52be">
   <rect x="208.371313" y="74.2576" width="196.416" height="146.3616"/>
  </clipPath>
 </defs>
</svg>
