<?xml version="1.0" encoding="utf-8" standalone="no"?>
<!DOCTYPE svg PUBLIC "-//W3C//DTD SVG 1.1//EN"
  "http://www.w3.org/Graphics/SVG/1.1/DTD/svg11.dtd">
<svg xmlns:xlink="http://www.w3.org/1999/xlink" width="421.811252pt" height="315.072pt" viewBox="0 0 421.811252 315.072" xmlns="http://www.w3.org/2000/svg" version="1.1">
 <metadata>
  <rdf:RDF xmlns:dc="http://purl.org/dc/elements/1.1/" xmlns:cc="http://creativecommons.org/ns#" xmlns:rdf="http://www.w3.org/1999/02/22-rdf-syntax-ns#">
   <cc:Work>
    <dc:type rdf:resource="http://purl.org/dc/dcmitype/StillImage"/>
    <dc:date>2024-04-17T19:19:16.431573</dc:date>
    <dc:format>image/svg+xml</dc:format>
    <dc:creator>
     <cc:Agent>
      <dc:title>Matplotlib v3.8.3, https://matplotlib.org/</dc:title>
     </cc:Agent>
    </dc:creator>
   </cc:Work>
  </rdf:RDF>
 </metadata>
 <defs>
  <style type="text/css">*{stroke-linejoin: round; stroke-linecap: butt}</style>
 </defs>
 <g id="figure_1">
  <g id="patch_1">
   <path d="M 0 315.072 
L 421.811252 315.072 
L 421.811252 0 
L 0 0 
z
" style="fill: #ffffff"/>
  </g>
  <g id="axes_1">
   <g id="patch_2">
    <path d="M 55.584 273.312 
L 412.704 273.312 
L 412.704 7.2 
L 55.584 7.2 
z
" style="fill: #ffffff"/>
   </g>
   <g id="PolyCollection_1">
    <path d="M 156.961363 19.296 
L 156.961363 255.952587 
L 394.846375 255.952587 
L 394.846375 19.296 
L 394.846375 19.296 
L 156.961363 19.296 
z
" clip-path="url(#pe07f3497a7)" style="fill-opacity: 0.2"/>
   </g>
   <g id="matplotlib.axis_1">
    <g id="xtick_1">
     <g id="line2d_1">
      <path d="M 71.816727 273.312 
L 71.816727 7.2 
" clip-path="url(#pe07f3497a7)" style="fill: none; stroke: #b0b0b0; stroke-width: 0.8; stroke-linecap: square"/>
     </g>
     <g id="line2d_2">
      <defs>
       <path id="m33b5145317" d="M 0 0 
L 0 3.5 
" style="stroke: #000000; stroke-width: 0.8"/>
      </defs>
      <g>
       <use xlink:href="#m33b5145317" x="71.816727" y="273.312" style="stroke: #000000; stroke-width: 0.8"/>
      </g>
     </g>
     <g id="text_1">
      <!-- 0 -->
      <g transform="translate(67.362977 290.949812) scale(0.14 -0.14)">
       <defs>
        <path id="DejaVuSans-30" d="M 2034 4250 
Q 1547 4250 1301 3770 
Q 1056 3291 1056 2328 
Q 1056 1369 1301 889 
Q 1547 409 2034 409 
Q 2525 409 2770 889 
Q 3016 1369 3016 2328 
Q 3016 3291 2770 3770 
Q 2525 4250 2034 4250 
z
M 2034 4750 
Q 2819 4750 3233 4129 
Q 3647 3509 3647 2328 
Q 3647 1150 3233 529 
Q 2819 -91 2034 -91 
Q 1250 -91 836 529 
Q 422 1150 422 2328 
Q 422 3509 836 4129 
Q 1250 4750 2034 4750 
z
" transform="scale(0.015625)"/>
       </defs>
       <use xlink:href="#DejaVuSans-30"/>
      </g>
     </g>
    </g>
    <g id="xtick_2">
     <g id="line2d_3">
      <path d="M 136.812632 273.312 
L 136.812632 7.2 
" clip-path="url(#pe07f3497a7)" style="fill: none; stroke: #b0b0b0; stroke-width: 0.8; stroke-linecap: square"/>
     </g>
     <g id="line2d_4">
      <g>
       <use xlink:href="#m33b5145317" x="136.812632" y="273.312" style="stroke: #000000; stroke-width: 0.8"/>
      </g>
     </g>
     <g id="text_2">
      <!-- 200 -->
      <g transform="translate(123.451382 290.949812) scale(0.14 -0.14)">
       <defs>
        <path id="DejaVuSans-32" d="M 1228 531 
L 3431 531 
L 3431 0 
L 469 0 
L 469 531 
Q 828 903 1448 1529 
Q 2069 2156 2228 2338 
Q 2531 2678 2651 2914 
Q 2772 3150 2772 3378 
Q 2772 3750 2511 3984 
Q 2250 4219 1831 4219 
Q 1534 4219 1204 4116 
Q 875 4013 500 3803 
L 500 4441 
Q 881 4594 1212 4672 
Q 1544 4750 1819 4750 
Q 2544 4750 2975 4387 
Q 3406 4025 3406 3419 
Q 3406 3131 3298 2873 
Q 3191 2616 2906 2266 
Q 2828 2175 2409 1742 
Q 1991 1309 1228 531 
z
" transform="scale(0.015625)"/>
       </defs>
       <use xlink:href="#DejaVuSans-32"/>
       <use xlink:href="#DejaVuSans-30" x="63.623047"/>
       <use xlink:href="#DejaVuSans-30" x="127.246094"/>
      </g>
     </g>
    </g>
    <g id="xtick_3">
     <g id="line2d_5">
      <path d="M 201.808537 273.312 
L 201.808537 7.2 
" clip-path="url(#pe07f3497a7)" style="fill: none; stroke: #b0b0b0; stroke-width: 0.8; stroke-linecap: square"/>
     </g>
     <g id="line2d_6">
      <g>
       <use xlink:href="#m33b5145317" x="201.808537" y="273.312" style="stroke: #000000; stroke-width: 0.8"/>
      </g>
     </g>
     <g id="text_3">
      <!-- 400 -->
      <g transform="translate(188.447287 290.949812) scale(0.14 -0.14)">
       <defs>
        <path id="DejaVuSans-34" d="M 2419 4116 
L 825 1625 
L 2419 1625 
L 2419 4116 
z
M 2253 4666 
L 3047 4666 
L 3047 1625 
L 3713 1625 
L 3713 1100 
L 3047 1100 
L 3047 0 
L 2419 0 
L 2419 1100 
L 313 1100 
L 313 1709 
L 2253 4666 
z
" transform="scale(0.015625)"/>
       </defs>
       <use xlink:href="#DejaVuSans-34"/>
       <use xlink:href="#DejaVuSans-30" x="63.623047"/>
       <use xlink:href="#DejaVuSans-30" x="127.246094"/>
      </g>
     </g>
    </g>
    <g id="xtick_4">
     <g id="line2d_7">
      <path d="M 266.804442 273.312 
L 266.804442 7.2 
" clip-path="url(#pe07f3497a7)" style="fill: none; stroke: #b0b0b0; stroke-width: 0.8; stroke-linecap: square"/>
     </g>
     <g id="line2d_8">
      <g>
       <use xlink:href="#m33b5145317" x="266.804442" y="273.312" style="stroke: #000000; stroke-width: 0.8"/>
      </g>
     </g>
     <g id="text_4">
      <!-- 600 -->
      <g transform="translate(253.443192 290.949812) scale(0.14 -0.14)">
       <defs>
        <path id="DejaVuSans-36" d="M 2113 2584 
Q 1688 2584 1439 2293 
Q 1191 2003 1191 1497 
Q 1191 994 1439 701 
Q 1688 409 2113 409 
Q 2538 409 2786 701 
Q 3034 994 3034 1497 
Q 3034 2003 2786 2293 
Q 2538 2584 2113 2584 
z
M 3366 4563 
L 3366 3988 
Q 3128 4100 2886 4159 
Q 2644 4219 2406 4219 
Q 1781 4219 1451 3797 
Q 1122 3375 1075 2522 
Q 1259 2794 1537 2939 
Q 1816 3084 2150 3084 
Q 2853 3084 3261 2657 
Q 3669 2231 3669 1497 
Q 3669 778 3244 343 
Q 2819 -91 2113 -91 
Q 1303 -91 875 529 
Q 447 1150 447 2328 
Q 447 3434 972 4092 
Q 1497 4750 2381 4750 
Q 2619 4750 2861 4703 
Q 3103 4656 3366 4563 
z
" transform="scale(0.015625)"/>
       </defs>
       <use xlink:href="#DejaVuSans-36"/>
       <use xlink:href="#DejaVuSans-30" x="63.623047"/>
       <use xlink:href="#DejaVuSans-30" x="127.246094"/>
      </g>
     </g>
    </g>
    <g id="xtick_5">
     <g id="line2d_9">
      <path d="M 331.800347 273.312 
L 331.800347 7.2 
" clip-path="url(#pe07f3497a7)" style="fill: none; stroke: #b0b0b0; stroke-width: 0.8; stroke-linecap: square"/>
     </g>
     <g id="line2d_10">
      <g>
       <use xlink:href="#m33b5145317" x="331.800347" y="273.312" style="stroke: #000000; stroke-width: 0.8"/>
      </g>
     </g>
     <g id="text_5">
      <!-- 800 -->
      <g transform="translate(318.439097 290.949812) scale(0.14 -0.14)">
       <defs>
        <path id="DejaVuSans-38" d="M 2034 2216 
Q 1584 2216 1326 1975 
Q 1069 1734 1069 1313 
Q 1069 891 1326 650 
Q 1584 409 2034 409 
Q 2484 409 2743 651 
Q 3003 894 3003 1313 
Q 3003 1734 2745 1975 
Q 2488 2216 2034 2216 
z
M 1403 2484 
Q 997 2584 770 2862 
Q 544 3141 544 3541 
Q 544 4100 942 4425 
Q 1341 4750 2034 4750 
Q 2731 4750 3128 4425 
Q 3525 4100 3525 3541 
Q 3525 3141 3298 2862 
Q 3072 2584 2669 2484 
Q 3125 2378 3379 2068 
Q 3634 1759 3634 1313 
Q 3634 634 3220 271 
Q 2806 -91 2034 -91 
Q 1263 -91 848 271 
Q 434 634 434 1313 
Q 434 1759 690 2068 
Q 947 2378 1403 2484 
z
M 1172 3481 
Q 1172 3119 1398 2916 
Q 1625 2713 2034 2713 
Q 2441 2713 2670 2916 
Q 2900 3119 2900 3481 
Q 2900 3844 2670 4047 
Q 2441 4250 2034 4250 
Q 1625 4250 1398 4047 
Q 1172 3844 1172 3481 
z
" transform="scale(0.015625)"/>
       </defs>
       <use xlink:href="#DejaVuSans-38"/>
       <use xlink:href="#DejaVuSans-30" x="63.623047"/>
       <use xlink:href="#DejaVuSans-30" x="127.246094"/>
      </g>
     </g>
    </g>
    <g id="xtick_6">
     <g id="line2d_11">
      <path d="M 396.796252 273.312 
L 396.796252 7.2 
" clip-path="url(#pe07f3497a7)" style="fill: none; stroke: #b0b0b0; stroke-width: 0.8; stroke-linecap: square"/>
     </g>
     <g id="line2d_12">
      <g>
       <use xlink:href="#m33b5145317" x="396.796252" y="273.312" style="stroke: #000000; stroke-width: 0.8"/>
      </g>
     </g>
     <g id="text_6">
      <!-- 1000 -->
      <g transform="translate(378.981252 290.949812) scale(0.14 -0.14)">
       <defs>
        <path id="DejaVuSans-31" d="M 794 531 
L 1825 531 
L 1825 4091 
L 703 3866 
L 703 4441 
L 1819 4666 
L 2450 4666 
L 2450 531 
L 3481 531 
L 3481 0 
L 794 0 
L 794 531 
z
" transform="scale(0.015625)"/>
       </defs>
       <use xlink:href="#DejaVuSans-31"/>
       <use xlink:href="#DejaVuSans-30" x="63.623047"/>
       <use xlink:href="#DejaVuSans-30" x="127.246094"/>
       <use xlink:href="#DejaVuSans-30" x="190.869141"/>
      </g>
     </g>
    </g>
   </g>
   <g id="matplotlib.axis_2">
    <g id="ytick_1">
     <g id="line2d_13">
      <path d="M 55.584 261.216 
L 412.704 261.216 
" clip-path="url(#pe07f3497a7)" style="fill: none; stroke: #b0b0b0; stroke-width: 0.8; stroke-linecap: square"/>
     </g>
     <g id="line2d_14">
      <defs>
       <path id="m4c860f882b" d="M 0 0 
L -3.5 0 
" style="stroke: #000000; stroke-width: 0.8"/>
      </defs>
      <g>
       <use xlink:href="#m4c860f882b" x="55.584" y="261.216" style="stroke: #000000; stroke-width: 0.8"/>
      </g>
     </g>
     <g id="text_7">
      <!-- 0 -->
      <g transform="translate(39.6765 266.534906) scale(0.14 -0.14)">
       <use xlink:href="#DejaVuSans-30"/>
      </g>
     </g>
    </g>
    <g id="ytick_2">
     <g id="line2d_15">
      <path d="M 55.584 208.515992 
L 412.704 208.515992 
" clip-path="url(#pe07f3497a7)" style="fill: none; stroke: #b0b0b0; stroke-width: 0.8; stroke-linecap: square"/>
     </g>
     <g id="line2d_16">
      <g>
       <use xlink:href="#m4c860f882b" x="55.584" y="208.515992" style="stroke: #000000; stroke-width: 0.8"/>
      </g>
     </g>
     <g id="text_8">
      <!-- 10 -->
      <g transform="translate(30.769 213.834898) scale(0.14 -0.14)">
       <use xlink:href="#DejaVuSans-31"/>
       <use xlink:href="#DejaVuSans-30" x="63.623047"/>
      </g>
     </g>
    </g>
    <g id="ytick_3">
     <g id="line2d_17">
      <path d="M 55.584 155.815984 
L 412.704 155.815984 
" clip-path="url(#pe07f3497a7)" style="fill: none; stroke: #b0b0b0; stroke-width: 0.8; stroke-linecap: square"/>
     </g>
     <g id="line2d_18">
      <g>
       <use xlink:href="#m4c860f882b" x="55.584" y="155.815984" style="stroke: #000000; stroke-width: 0.8"/>
      </g>
     </g>
     <g id="text_9">
      <!-- 20 -->
      <g transform="translate(30.769 161.13489) scale(0.14 -0.14)">
       <use xlink:href="#DejaVuSans-32"/>
       <use xlink:href="#DejaVuSans-30" x="63.623047"/>
      </g>
     </g>
    </g>
    <g id="ytick_4">
     <g id="line2d_19">
      <path d="M 55.584 103.115976 
L 412.704 103.115976 
" clip-path="url(#pe07f3497a7)" style="fill: none; stroke: #b0b0b0; stroke-width: 0.8; stroke-linecap: square"/>
     </g>
     <g id="line2d_20">
      <g>
       <use xlink:href="#m4c860f882b" x="55.584" y="103.115976" style="stroke: #000000; stroke-width: 0.8"/>
      </g>
     </g>
     <g id="text_10">
      <!-- 30 -->
      <g transform="translate(30.769 108.434882) scale(0.14 -0.14)">
       <defs>
        <path id="DejaVuSans-33" d="M 2597 2516 
Q 3050 2419 3304 2112 
Q 3559 1806 3559 1356 
Q 3559 666 3084 287 
Q 2609 -91 1734 -91 
Q 1441 -91 1130 -33 
Q 819 25 488 141 
L 488 750 
Q 750 597 1062 519 
Q 1375 441 1716 441 
Q 2309 441 2620 675 
Q 2931 909 2931 1356 
Q 2931 1769 2642 2001 
Q 2353 2234 1838 2234 
L 1294 2234 
L 1294 2753 
L 1863 2753 
Q 2328 2753 2575 2939 
Q 2822 3125 2822 3475 
Q 2822 3834 2567 4026 
Q 2313 4219 1838 4219 
Q 1578 4219 1281 4162 
Q 984 4106 628 3988 
L 628 4550 
Q 988 4650 1302 4700 
Q 1616 4750 1894 4750 
Q 2613 4750 3031 4423 
Q 3450 4097 3450 3541 
Q 3450 3153 3228 2886 
Q 3006 2619 2597 2516 
z
" transform="scale(0.015625)"/>
       </defs>
       <use xlink:href="#DejaVuSans-33"/>
       <use xlink:href="#DejaVuSans-30" x="63.623047"/>
      </g>
     </g>
    </g>
    <g id="ytick_5">
     <g id="line2d_21">
      <path d="M 55.584 50.415967 
L 412.704 50.415967 
" clip-path="url(#pe07f3497a7)" style="fill: none; stroke: #b0b0b0; stroke-width: 0.8; stroke-linecap: square"/>
     </g>
     <g id="line2d_22">
      <g>
       <use xlink:href="#m4c860f882b" x="55.584" y="50.415967" style="stroke: #000000; stroke-width: 0.8"/>
      </g>
     </g>
     <g id="text_11">
      <!-- 40 -->
      <g transform="translate(30.769 55.734874) scale(0.14 -0.14)">
       <use xlink:href="#DejaVuSans-34"/>
       <use xlink:href="#DejaVuSans-30" x="63.623047"/>
      </g>
     </g>
    </g>
   </g>
   <g id="line2d_23">
    <path d="M 71.816727 261.216 
L 74.741543 261.216 
L 75.066523 248.026941 
L 75.391502 250.346992 
L 75.716482 250.994423 
L 77.0164 251.890818 
L 77.341379 252.046454 
L 77.666359 251.204331 
L 78.316318 251.439429 
L 78.966277 251.47343 
L 79.291256 251.602759 
L 79.941215 251.553458 
L 80.916154 251.738899 
L 82.216072 252.006361 
L 82.541052 250.750772 
L 82.866031 250.95882 
L 83.191011 251.007907 
L 83.84097 251.294335 
L 84.165949 251.362191 
L 84.490929 251.046078 
L 87.740724 251.559592 
L 88.390683 251.579848 
L 88.715663 251.230512 
L 90.015581 251.303343 
L 93.590355 251.363883 
L 94.240314 251.344465 
L 95.215253 251.371786 
L 96.515171 251.353357 
L 97.16513 251.116715 
L 99.439987 251.165293 
L 100.089946 251.169195 
L 100.414925 251.017272 
L 100.739905 250.676404 
L 101.389864 250.673162 
L 103.014762 250.779352 
L 103.339741 250.502728 
L 103.664721 250.524124 
L 103.9897 250.214831 
L 108.539414 250.266573 
L 111.464229 250.2929 
L 111.789209 250.174498 
L 113.414106 250.19398 
L 125.438349 250.061081 
L 126.088308 249.912059 
L 127.713206 249.892616 
L 128.363165 249.858694 
L 128.688144 248.260591 
L 138.43753 248.269941 
L 139.737448 248.249061 
L 140.062428 248.02147 
L 144.612141 247.89807 
L 144.93712 247.605338 
L 147.861936 247.591166 
L 155.986424 247.476428 
L 156.636383 247.389278 
L 162.161035 247.207172 
L 163.135974 247.156669 
L 168.985605 247.160352 
L 174.835237 247.056975 
L 175.160216 245.106562 
L 179.38495 245.162469 
L 181.659807 245.143199 
L 185.884541 245.159442 
L 186.20952 244.970048 
L 189.459315 244.950953 
L 190.109274 244.869799 
L 194.009029 244.838043 
L 195.633926 244.842547 
L 195.958906 244.634984 
L 197.908783 244.612178 
L 202.458496 244.536246 
L 203.108455 244.461379 
L 205.708292 244.434566 
L 206.358251 244.349483 
L 213.5078 244.339892 
L 221.957268 244.340641 
L 222.282247 243.852093 
L 237.231305 243.86178 
L 238.531224 243.843118 
L 252.180364 243.825792 
L 253.155302 243.799541 
L 267.454401 243.813041 
L 309.70174 243.597996 
L 326.925654 243.604039 
L 331.475368 243.59716 
L 331.800347 243.334369 
L 334.725163 243.308881 
L 335.050143 242.987744 
L 342.199692 242.955467 
L 365.598218 242.796079 
L 366.573156 242.751999 
L 368.523034 242.761674 
L 368.848013 242.56255 
L 396.471273 242.341369 
L 396.471273 242.341369 
" clip-path="url(#pe07f3497a7)" style="fill: none; stroke: #1f77b4; stroke-width: 2; stroke-linecap: square"/>
    <defs>
     <path id="mf6f37dba64" d="M 0 3 
C 0.795609 3 1.55874 2.683901 2.12132 2.12132 
C 2.683901 1.55874 3 0.795609 3 0 
C 3 -0.795609 2.683901 -1.55874 2.12132 -2.12132 
C 1.55874 -2.683901 0.795609 -3 0 -3 
C -0.795609 -3 -1.55874 -2.683901 -2.12132 -2.12132 
C -2.683901 -1.55874 -3 -0.795609 -3 0 
C -3 0.795609 -2.683901 1.55874 -2.12132 2.12132 
C -1.55874 2.683901 -0.795609 3 0 3 
z
" style="stroke: #1f77b4"/>
    </defs>
    <g clip-path="url(#pe07f3497a7)">
     <use xlink:href="#mf6f37dba64" x="71.816727" y="261.216" style="fill: #1f77b4; stroke: #1f77b4"/>
     <use xlink:href="#mf6f37dba64" x="136.812632" y="248.276972" style="fill: #1f77b4; stroke: #1f77b4"/>
     <use xlink:href="#mf6f37dba64" x="201.808537" y="244.543556" style="fill: #1f77b4; stroke: #1f77b4"/>
     <use xlink:href="#mf6f37dba64" x="266.804442" y="243.8114" style="fill: #1f77b4; stroke: #1f77b4"/>
     <use xlink:href="#mf6f37dba64" x="331.800347" y="243.334369" style="fill: #1f77b4; stroke: #1f77b4"/>
    </g>
   </g>
   <g id="line2d_24">
    <path d="M 396.471273 273.312 
L 396.471273 7.2 
" clip-path="url(#pe07f3497a7)" style="fill: none; stroke-dasharray: 7.4,3.2; stroke-dashoffset: 0; stroke: #1f77b4; stroke-width: 2"/>
    <g clip-path="url(#pe07f3497a7)">
     <use xlink:href="#mf6f37dba64" x="396.471273" y="273.312" style="fill: #1f77b4; stroke: #1f77b4"/>
     <use xlink:href="#mf6f37dba64" x="396.471273" y="7.2" style="fill: #1f77b4; stroke: #1f77b4"/>
    </g>
   </g>
   <g id="line2d_25">
    <path d="M 71.816727 261.216 
L 74.741543 261.216 
L 75.066523 253.016689 
L 75.391502 253.986011 
L 75.716482 254.194728 
L 76.041461 254.100037 
L 76.69142 254.118523 
L 77.0164 253.008225 
L 77.666359 252.827597 
L 77.991338 252.854778 
L 78.316318 252.584811 
L 78.641297 252.514876 
L 79.616236 251.591259 
L 80.916154 251.655608 
L 81.241133 251.584947 
L 81.891093 250.77505 
L 82.216072 250.6861 
L 82.541052 250.242282 
L 83.191011 250.153907 
L 83.51599 250.192543 
L 84.165949 250.113053 
L 84.815908 250.222434 
L 85.140888 250.018028 
L 86.765785 249.868504 
L 87.090765 249.728834 
L 87.415744 249.735285 
L 87.740724 249.456201 
L 89.040642 249.451551 
L 90.015581 249.327729 
L 90.34056 249.354182 
L 91.315499 249.176786 
L 91.640478 249.169235 
L 91.965458 248.896048 
L 92.290437 244.720122 
L 93.265376 245.265192 
L 95.865212 246.066916 
L 96.515171 246.158736 
L 96.840151 246.059038 
L 101.714844 246.53553 
L 102.364803 246.4157 
L 103.339741 246.489613 
L 103.9897 246.442928 
L 104.31468 223.953195 
L 104.964639 223.895937 
L 105.614598 223.900594 
L 107.239495 223.733657 
L 107.889455 223.790571 
L 108.539414 223.702205 
L 108.864393 223.723412 
L 109.189373 223.091062 
L 109.839332 222.986885 
L 110.489291 223.015016 
L 110.81427 222.833819 
L 113.739086 222.908875 
L 118.288799 222.902871 
L 118.938758 222.915218 
L 119.263738 222.509631 
L 121.213615 222.581718 
L 121.863574 222.506853 
L 122.838513 222.52524 
L 123.813451 222.423728 
L 125.763328 222.445795 
L 126.413287 222.398446 
L 127.063247 222.330797 
L 130.313042 222.371749 
L 130.638021 222.341316 
L 130.963001 222.183067 
L 135.512714 222.228601 
L 140.712387 222.118441 
L 142.337284 222.033413 
L 145.912059 222.033061 
L 146.886998 221.936423 
L 147.211977 221.911679 
L 147.861936 221.740365 
L 149.161854 221.69075 
L 154.361527 221.550977 
L 155.011486 221.470472 
L 158.58626 221.328807 
L 161.511076 221.311087 
L 164.760871 221.329929 
L 165.085851 221.071526 
L 165.73581 221.101779 
L 166.06079 220.933226 
L 168.660626 220.991268 
L 169.310585 220.909524 
L 173.860298 220.975163 
L 174.185278 220.786116 
L 179.059971 220.776703 
L 179.38495 220.249915 
L 180.034909 220.163129 
L 186.5345 220.200393 
L 187.184459 220.100948 
L 192.059152 220.069547 
L 192.384131 219.919634 
L 196.933844 219.901051 
L 198.883722 219.800083 
L 211.882903 219.800301 
L 212.532862 219.744847 
L 219.682411 219.742122 
L 220.007391 219.156823 
L 229.756776 219.199554 
L 238.531224 219.234405 
L 240.80608 219.24691 
L 241.13106 218.92327 
L 241.781019 218.931656 
L 242.105998 218.372152 
L 248.930568 218.391239 
L 249.905507 218.29867 
L 260.304852 218.332476 
L 260.954811 218.264846 
L 274.603951 218.212808 
L 281.428521 218.212272 
L 282.403459 218.168592 
L 294.427702 218.179716 
L 296.0526 218.161404 
L 307.751862 218.1476 
L 315.226391 218.142171 
L 321.725982 218.067501 
L 330.17545 218.072296 
L 330.500429 215.199782 
L 365.598218 215.531986 
L 372.422788 215.560342 
L 378.272419 215.644224 
L 396.146293 215.793889 
L 396.471273 215.664504 
L 396.471273 215.664504 
" clip-path="url(#pe07f3497a7)" style="fill: none; stroke: #ff7f0e; stroke-width: 2; stroke-linecap: square"/>
    <defs>
     <path id="m234cc6b292" d="M 0 -3 
L -3 3 
L 3 3 
z
" style="stroke: #ff7f0e; stroke-linejoin: miter"/>
    </defs>
    <g clip-path="url(#pe07f3497a7)">
     <use xlink:href="#m234cc6b292" x="71.816727" y="261.216" style="fill: #ff7f0e; stroke: #ff7f0e; stroke-linejoin: miter"/>
     <use xlink:href="#m234cc6b292" x="136.812632" y="222.143888" style="fill: #ff7f0e; stroke: #ff7f0e; stroke-linejoin: miter"/>
     <use xlink:href="#m234cc6b292" x="201.808537" y="219.786299" style="fill: #ff7f0e; stroke: #ff7f0e; stroke-linejoin: miter"/>
     <use xlink:href="#m234cc6b292" x="266.804442" y="218.242802" style="fill: #ff7f0e; stroke: #ff7f0e; stroke-linejoin: miter"/>
     <use xlink:href="#m234cc6b292" x="331.800347" y="215.207789" style="fill: #ff7f0e; stroke: #ff7f0e; stroke-linejoin: miter"/>
    </g>
   </g>
   <g id="line2d_26">
    <path d="M 331.150388 273.312 
L 331.150388 7.2 
" clip-path="url(#pe07f3497a7)" style="fill: none; stroke-dasharray: 7.4,3.2; stroke-dashoffset: 0; stroke: #ff7f0e; stroke-width: 2"/>
    <g clip-path="url(#pe07f3497a7)">
     <use xlink:href="#m234cc6b292" x="331.150388" y="273.312" style="fill: #ff7f0e; stroke: #ff7f0e; stroke-linejoin: miter"/>
     <use xlink:href="#m234cc6b292" x="331.150388" y="7.2" style="fill: #ff7f0e; stroke: #ff7f0e; stroke-linejoin: miter"/>
    </g>
   </g>
   <g id="line2d_27">
    <path d="M 71.816727 261.216 
L 74.741543 261.216 
L 75.066523 247.206592 
L 75.391502 250.182353 
L 75.716482 251.103203 
L 76.366441 251.764588 
L 76.69142 251.805287 
L 77.0164 251.63723 
L 77.341379 251.849344 
L 77.666359 251.050766 
L 77.991338 250.738922 
L 78.316318 250.612015 
L 78.641297 250.854263 
L 78.966277 250.92968 
L 79.941215 250.587163 
L 80.266195 249.36673 
L 81.241133 248.870525 
L 81.891093 248.863885 
L 82.216072 248.797104 
L 82.541052 248.420644 
L 82.866031 248.465753 
L 83.51599 248.294469 
L 84.165949 248.30757 
L 84.490929 247.36696 
L 84.815908 247.250209 
L 85.140888 247.281518 
L 85.790847 247.127925 
L 86.765785 246.951928 
L 88.390683 246.513813 
L 89.040642 246.545038 
L 89.690601 246.52634 
L 90.990519 246.55221 
L 91.315499 245.949096 
L 91.640478 245.755006 
L 92.290437 245.804946 
L 92.615417 245.175818 
L 92.940396 245.216104 
L 93.265376 245.094664 
L 94.240314 245.075153 
L 94.565294 244.801012 
L 95.540233 244.817521 
L 96.840151 244.842178 
L 97.49011 244.807413 
L 98.790028 244.905732 
L 99.115007 243.781402 
L 100.414925 244.030873 
L 102.689782 244.242727 
L 103.339741 244.209444 
L 103.9897 244.254185 
L 104.639659 244.213479 
L 108.864393 244.271068 
L 110.164311 244.182601 
L 110.489291 244.004313 
L 110.81427 244.027042 
L 111.13925 243.830809 
L 111.789209 243.806331 
L 113.414106 243.795532 
L 114.714025 243.811426 
L 116.988881 243.843329 
L 117.96382 243.843225 
L 119.588717 243.806933 
L 122.838513 243.830321 
L 124.138431 243.790852 
L 126.088308 243.813122 
L 126.738267 243.754925 
L 132.262919 243.728798 
L 132.587898 243.375741 
L 135.187735 243.289358 
L 136.487653 243.256983 
L 136.812632 243.084997 
L 138.43753 243.093209 
L 138.762509 242.869103 
L 144.612141 242.957682 
L 144.93712 242.70783 
L 145.587079 242.689781 
L 145.912059 242.488855 
L 148.511895 242.445043 
L 161.186097 242.319214 
L 161.511076 241.786006 
L 166.06079 241.808796 
L 166.385769 241.165885 
L 172.2354 241.130067 
L 173.210339 241.045591 
L 175.810175 240.950759 
L 178.734991 240.975676 
L 199.85866 240.831539 
L 200.508619 240.709366 
L 207.333189 240.712789 
L 207.658169 240.488596 
L 212.207882 240.484086 
L 217.407554 240.352543 
L 218.382493 240.317828 
L 220.33237 240.317222 
L 221.632288 240.248986 
L 221.957268 238.795162 
L 229.756776 238.979521 
L 240.80608 239.136575 
L 245.030814 239.188381 
L 245.355794 239.070241 
L 254.130241 239.133487 
L 256.730077 239.117007 
L 260.629831 239.108025 
L 265.829504 239.097556 
L 268.754319 239.124911 
L 276.878808 239.170911 
L 279.153664 239.189741 
L 286.953173 239.267109 
L 287.278152 238.526355 
L 300.602313 238.660475 
L 304.502067 238.687679 
L 304.827047 238.425143 
L 310.026719 238.459491 
L 310.676678 238.373171 
L 313.926473 238.328037 
L 314.901412 238.304469 
L 317.826228 238.256587 
L 320.101084 238.269057 
L 324.650798 238.232743 
L 327.575613 238.203973 
L 337.974958 238.257918 
L 347.399364 238.168259 
L 367.548095 238.236093 
L 367.873075 238.038633 
L 379.897317 238.078635 
L 381.847194 238.026142 
L 392.571518 238.034751 
L 394.196416 238.010319 
L 396.471273 238.010904 
L 396.471273 238.010904 
" clip-path="url(#pe07f3497a7)" style="fill: none; stroke: #2ca02c; stroke-width: 2; stroke-linecap: square"/>
    <defs>
     <path id="mf258de48e4" d="M -3 3 
L 3 3 
L 3 -3 
L -3 -3 
z
" style="stroke: #2ca02c; stroke-linejoin: miter"/>
    </defs>
    <g clip-path="url(#pe07f3497a7)">
     <use xlink:href="#mf258de48e4" x="71.816727" y="261.216" style="fill: #2ca02c; stroke: #2ca02c; stroke-linejoin: miter"/>
     <use xlink:href="#mf258de48e4" x="136.812632" y="243.084997" style="fill: #2ca02c; stroke: #2ca02c; stroke-linejoin: miter"/>
     <use xlink:href="#mf258de48e4" x="201.808537" y="240.695915" style="fill: #2ca02c; stroke: #2ca02c; stroke-linejoin: miter"/>
     <use xlink:href="#mf258de48e4" x="266.804442" y="239.097084" style="fill: #2ca02c; stroke: #2ca02c; stroke-linejoin: miter"/>
     <use xlink:href="#mf258de48e4" x="331.800347" y="238.266347" style="fill: #2ca02c; stroke: #2ca02c; stroke-linejoin: miter"/>
    </g>
   </g>
   <g id="line2d_28">
    <path d="M 394.196416 273.312 
L 394.196416 7.2 
" clip-path="url(#pe07f3497a7)" style="fill: none; stroke-dasharray: 7.4,3.2; stroke-dashoffset: 0; stroke: #2ca02c; stroke-width: 2"/>
    <g clip-path="url(#pe07f3497a7)">
     <use xlink:href="#mf258de48e4" x="394.196416" y="273.312" style="fill: #2ca02c; stroke: #2ca02c; stroke-linejoin: miter"/>
     <use xlink:href="#mf258de48e4" x="394.196416" y="7.2" style="fill: #2ca02c; stroke: #2ca02c; stroke-linejoin: miter"/>
    </g>
   </g>
   <g id="line2d_29">
    <path d="M 71.816727 261.216 
L 74.741543 261.216 
L 75.066523 252.385765 
L 75.391502 253.115685 
L 76.041461 252.645847 
L 76.366441 252.71503 
L 76.69142 252.473226 
L 77.0164 250.932481 
L 77.666359 250.839047 
L 78.316318 250.402459 
L 78.966277 250.584695 
L 79.941215 250.380103 
L 80.266195 249.849286 
L 80.591174 249.837833 
L 81.241133 249.64051 
L 82.866031 249.455879 
L 83.191011 248.493154 
L 83.84097 248.514799 
L 84.165949 248.267381 
L 84.490929 248.331606 
L 85.140888 248.309941 
L 89.690601 248.04382 
L 90.015581 247.147706 
L 90.34056 247.011106 
L 90.66554 247.015403 
L 90.990519 246.892827 
L 91.640478 246.901314 
L 91.965458 246.773737 
L 92.290437 246.808348 
L 92.615417 245.789271 
L 93.590355 245.726655 
L 94.240314 245.550457 
L 94.565294 245.443029 
L 96.515171 245.500231 
L 98.140069 245.406855 
L 98.790028 245.363277 
L 99.115007 244.754529 
L 101.389864 244.858076 
L 102.039823 244.71187 
L 103.664721 244.728835 
L 104.964639 244.601926 
L 106.589536 244.585117 
L 106.914516 243.102891 
L 112.439168 242.89156 
L 112.764147 242.668352 
L 116.013943 242.579734 
L 116.338922 241.784425 
L 118.288799 241.820017 
L 118.613779 241.602522 
L 119.263738 241.583412 
L 120.238676 241.437757 
L 126.088308 241.246731 
L 126.738267 241.189218 
L 132.587898 241.170179 
L 133.887817 241.068786 
L 137.462591 241.05559 
L 147.536957 240.936956 
L 149.486834 240.920529 
L 155.336465 240.890654 
L 157.286342 240.85078 
L 157.611322 19.302588 
L 159.886179 27.399741 
L 162.161035 34.972022 
L 165.085851 43.916639 
L 167.685687 51.267354 
L 170.935482 59.629324 
L 173.535319 65.86149 
L 177.110093 73.690889 
L 179.70993 78.953353 
L 182.634745 84.374325 
L 184.909602 88.373009 
L 187.509438 92.749118 
L 192.709111 100.855902 
L 196.283885 105.951672 
L 196.933844 106.841277 
L 197.258824 107.08146 
L 200.18364 110.901169 
L 200.508619 111.146966 
L 204.733353 116.226999 
L 207.983148 119.875596 
L 211.882903 123.948785 
L 215.782657 127.785377 
L 216.432616 128.396658 
L 216.757595 128.517807 
L 219.032452 130.614642 
L 219.357432 130.738837 
L 223.582165 134.430428 
L 227.15694 137.257997 
L 230.731715 140.027005 
L 232.681592 141.428037 
L 233.331551 141.806172 
L 236.581346 144.103304 
L 237.556285 144.721924 
L 242.105998 147.722813 
L 245.680773 149.907308 
L 251.855384 153.501845 
L 261.27979 158.45494 
L 262.254729 158.890579 
L 265.504524 160.390663 
L 267.454401 161.230349 
L 279.478644 166.332056 
L 283.378398 167.842511 
L 283.703378 167.845984 
L 290.202968 170.220495 
L 292.802804 171.131816 
L 300.277333 173.619494 
L 310.351699 176.666902 
L 314.251453 177.74479 
L 315.876351 178.206617 
L 316.52631 178.283888 
L 319.126146 178.983262 
L 319.451125 178.451481 
L 324.650798 179.938506 
L 332.450306 182.010745 
L 333.750224 182.30472 
L 345.774467 185.107639 
L 352.924016 186.623456 
L 355.523853 187.149101 
L 355.848832 187.005891 
L 362.998382 188.402923 
L 373.072747 190.222954 
L 380.872256 191.529729 
L 392.896498 193.434786 
L 393.221477 191.597024 
L 396.471273 192.101954 
L 396.471273 192.101954 
" clip-path="url(#pe07f3497a7)" style="fill: none; stroke: #d62728; stroke-width: 2; stroke-linecap: square"/>
    <defs>
     <path id="m054be3998b" d="M -3 3 
L 3 -3 
M -3 -3 
L 3 3 
" style="stroke: #d62728"/>
    </defs>
    <g clip-path="url(#pe07f3497a7)">
     <use xlink:href="#m054be3998b" x="71.816727" y="261.216" style="fill: #d62728; stroke: #d62728"/>
     <use xlink:href="#m054be3998b" x="136.812632" y="241.051856" style="fill: #d62728; stroke: #d62728"/>
     <use xlink:href="#m054be3998b" x="201.808537" y="112.762217" style="fill: #d62728; stroke: #d62728"/>
     <use xlink:href="#m054be3998b" x="266.804442" y="160.927103" style="fill: #d62728; stroke: #d62728"/>
     <use xlink:href="#m054be3998b" x="331.800347" y="181.839751" style="fill: #d62728; stroke: #d62728"/>
    </g>
   </g>
   <g id="line2d_30">
    <path d="M 157.611322 273.312 
L 157.611322 7.2 
" clip-path="url(#pe07f3497a7)" style="fill: none; stroke-dasharray: 7.4,3.2; stroke-dashoffset: 0; stroke: #d62728; stroke-width: 2"/>
    <g clip-path="url(#pe07f3497a7)">
     <use xlink:href="#m054be3998b" x="157.611322" y="273.312" style="fill: #d62728; stroke: #d62728"/>
     <use xlink:href="#m054be3998b" x="157.611322" y="7.2" style="fill: #d62728; stroke: #d62728"/>
    </g>
   </g>
   <g id="line2d_31">
    <path d="M 71.816727 261.216 
L 74.741543 261.216 
L 75.066523 251.476937 
L 75.391502 252.111435 
L 75.716482 251.341777 
L 76.041461 251.460484 
L 76.366441 251.403945 
L 77.0164 251.4711 
L 77.666359 251.310855 
L 77.991338 250.975306 
L 79.291256 250.898944 
L 79.941215 250.654111 
L 80.591174 250.472426 
L 81.566113 249.800745 
L 82.216072 249.699744 
L 82.541052 249.703975 
L 82.866031 249.500493 
L 83.51599 249.401666 
L 83.84097 249.187768 
L 84.165949 249.182262 
L 84.490929 248.219763 
L 84.815908 248.246853 
L 87.090765 247.661564 
L 87.415744 247.280182 
L 89.040642 247.280229 
L 89.690601 247.213451 
L 90.015581 246.746624 
L 90.34056 246.641515 
L 91.640478 246.651051 
L 92.290437 246.648528 
L 92.940396 246.380834 
L 93.590355 246.179741 
L 93.915335 244.845606 
L 94.890274 244.750627 
L 95.215253 244.765421 
L 95.540233 244.651724 
L 96.190192 244.583306 
L 99.115007 244.307471 
L 100.414925 244.235306 
L 100.739905 243.782364 
L 102.364803 243.623243 
L 104.639659 243.497952 
L 104.964639 243.263869 
L 105.289618 243.26432 
L 105.614598 243.14229 
L 107.889455 243.128376 
L 108.214434 242.949952 
L 108.864393 242.944275 
L 109.189373 242.764309 
L 109.514352 242.759359 
L 109.839332 242.493273 
L 111.789209 242.407268 
L 112.439168 242.421765 
L 112.764147 242.163362 
L 113.739086 242.14731 
L 114.389045 242.022072 
L 120.238676 241.741542 
L 120.888636 241.544341 
L 121.863574 241.515974 
L 122.838513 241.360446 
L 123.488472 241.35209 
L 123.813451 241.1912 
L 127.713206 241.128173 
L 128.688144 241.083681 
L 134.862755 241.106949 
L 136.812632 241.038805 
L 142.337284 240.845092 
L 144.612141 240.863957 
L 145.2621 240.751077 
L 150.786752 240.701201 
L 152.736629 240.675894 
L 154.686506 240.629227 
L 155.336465 240.57939 
L 157.611322 240.515916 
L 158.261281 240.460271 
L 161.511076 240.445653 
L 161.836056 240.287793 
L 165.41083 240.267843 
L 165.73581 240.008596 
L 170.285523 239.978967 
L 170.935482 239.944535 
L 173.860298 239.990011 
L 178.410011 239.978761 
L 179.059971 239.920938 
L 183.609684 239.866764 
L 188.484377 239.776204 
L 190.434254 239.776523 
L 191.409192 239.655507 
L 194.983967 239.602562 
L 204.733353 239.523315 
L 206.68323 239.496986 
L 207.00821 239.363876 
L 216.432616 239.288762 
L 217.732534 239.254761 
L 237.556285 239.165511 
L 244.380855 239.070832 
L 245.355794 239.02856 
L 245.680773 238.40363 
L 257.705016 238.420567 
L 258.679954 238.374326 
L 259.004934 238.374032 
L 259.329913 238.074845 
L 262.254729 238.038389 
L 262.579708 237.801098 
L 274.603951 237.811111 
L 275.25391 237.714257 
L 282.403459 237.67221 
L 287.603132 237.655969 
L 316.20133 237.427862 
L 317.501248 237.403184 
L 321.076023 237.371147 
L 321.401002 237.046728 
L 326.600675 237.006788 
L 328.550552 236.99901 
L 328.875532 235.495394 
L 333.100265 235.820177 
L 338.624917 236.1077 
L 361.698464 236.516138 
L 374.697645 236.580953 
L 375.022624 236.576971 
L 375.672583 236.450165 
L 376.647522 236.422916 
L 378.922378 236.435092 
L 379.247358 236.259607 
L 389.971682 236.233635 
L 393.546457 236.25575 
L 396.471273 236.238735 
L 396.471273 236.238735 
" clip-path="url(#pe07f3497a7)" style="fill: none; stroke: #9467bd; stroke-width: 2; stroke-linecap: square"/>
    <defs>
     <path id="mfa477d2d77" d="M -0 3 
L 3 -3 
L -3 -3 
z
" style="stroke: #9467bd; stroke-linejoin: miter"/>
    </defs>
    <g clip-path="url(#pe07f3497a7)">
     <use xlink:href="#mfa477d2d77" x="71.816727" y="261.216" style="fill: #9467bd; stroke: #9467bd; stroke-linejoin: miter"/>
     <use xlink:href="#mfa477d2d77" x="136.812632" y="241.038805" style="fill: #9467bd; stroke: #9467bd; stroke-linejoin: miter"/>
     <use xlink:href="#mfa477d2d77" x="201.808537" y="239.524762" style="fill: #9467bd; stroke: #9467bd; stroke-linejoin: miter"/>
     <use xlink:href="#mfa477d2d77" x="266.804442" y="237.803495" style="fill: #9467bd; stroke: #9467bd; stroke-linejoin: miter"/>
     <use xlink:href="#mfa477d2d77" x="331.800347" y="235.732949" style="fill: #9467bd; stroke: #9467bd; stroke-linejoin: miter"/>
    </g>
   </g>
   <g id="line2d_32">
    <path d="M 328.875532 273.312 
L 328.875532 7.2 
" clip-path="url(#pe07f3497a7)" style="fill: none; stroke-dasharray: 7.4,3.2; stroke-dashoffset: 0; stroke: #9467bd; stroke-width: 2"/>
    <g clip-path="url(#pe07f3497a7)">
     <use xlink:href="#mfa477d2d77" x="328.875532" y="273.312" style="fill: #9467bd; stroke: #9467bd; stroke-linejoin: miter"/>
     <use xlink:href="#mfa477d2d77" x="328.875532" y="7.2" style="fill: #9467bd; stroke: #9467bd; stroke-linejoin: miter"/>
    </g>
   </g>
   <g id="line2d_33">
    <path d="M 71.816727 261.216 
L 74.741543 261.216 
L 75.066523 252.466415 
L 75.391502 252.773425 
L 75.716482 251.215055 
L 76.366441 251.620706 
L 77.0164 251.765396 
L 77.341379 251.01804 
L 77.666359 250.806599 
L 78.316318 250.761176 
L 79.291256 250.540688 
L 79.616236 249.614963 
L 80.591174 249.938258 
L 80.916154 249.779998 
L 81.241133 249.824577 
L 81.566113 249.751732 
L 82.216072 249.385044 
L 83.51599 249.413533 
L 84.165949 249.425156 
L 84.490929 249.240091 
L 84.815908 249.204121 
L 85.465867 248.659658 
L 86.115826 248.564233 
L 86.440806 248.579112 
L 86.765785 248.137785 
L 87.740724 248.045107 
L 88.065704 246.870413 
L 88.390683 246.762028 
L 90.990519 247.237156 
L 92.290437 247.238586 
L 92.940396 247.247692 
L 93.265376 247.061421 
L 93.915335 247.033248 
L 94.240314 246.86906 
L 96.190192 246.91661 
L 96.840151 246.375279 
L 97.16513 246.257135 
L 99.115007 246.291298 
L 99.439987 245.400156 
L 101.064885 245.192823 
L 101.389864 245.19305 
L 101.714844 244.554938 
L 103.339741 244.730398 
L 103.664721 244.255476 
L 106.914516 244.296195 
L 107.889455 244.167209 
L 108.214434 243.934971 
L 109.839332 243.788139 
L 112.114188 243.816685 
L 112.764147 243.741478 
L 115.688963 243.680175 
L 116.663902 243.698751 
L 116.988881 243.258537 
L 119.913697 243.324369 
L 120.563656 243.306997 
L 121.538595 242.918746 
L 122.188554 242.86595 
L 123.488472 242.828733 
L 125.113369 242.900751 
L 127.713206 242.992655 
L 129.013124 242.985454 
L 130.313042 242.927274 
L 130.963001 242.843715 
L 135.512714 242.908158 
L 140.062428 242.851495 
L 150.136793 242.723299 
L 151.111731 242.665468 
L 154.361527 242.612592 
L 154.686506 242.498601 
L 160.861117 242.524805 
L 164.760871 242.514815 
L 168.985605 242.549824 
L 171.260462 242.525488 
L 177.110093 242.545668 
L 177.760052 242.448785 
L 181.334827 242.422557 
L 190.434254 242.439993 
L 207.658169 242.356338 
L 207.983148 241.723553 
L 210.907964 241.697973 
L 211.232943 241.251316 
L 216.107636 241.296934 
L 216.432616 240.176319 
L 217.732534 240.168179 
L 223.257186 240.216947 
L 223.907145 240.114707 
L 230.731715 240.152599 
L 232.031633 240.133542 
L 236.256367 240.122329 
L 236.581346 239.956952 
L 247.95563 240.119558 
L 254.45522 240.13154 
L 255.430159 240.065984 
L 265.179545 240.114457 
L 288.90305 240.151604 
L 290.852927 240.146091 
L 297.677497 240.11587 
L 298.002477 239.978554 
L 306.451944 240.018872 
L 307.101903 239.96637 
L 318.151207 239.994673 
L 319.776105 239.981729 
L 320.101084 239.719456 
L 354.873894 239.820063 
L 363.648341 239.790565 
L 373.397726 239.779962 
L 396.471273 239.834579 
L 396.471273 239.834579 
" clip-path="url(#pe07f3497a7)" style="fill: none; stroke: #8c564b; stroke-width: 2; stroke-linecap: square"/>
    <defs>
     <path id="m2956c3fbae" d="M -0 4.242641 
L 2.545584 0 
L 0 -4.242641 
L -2.545584 -0 
z
" style="stroke: #8c564b; stroke-linejoin: miter"/>
    </defs>
    <g clip-path="url(#pe07f3497a7)">
     <use xlink:href="#m2956c3fbae" x="71.816727" y="261.216" style="fill: #8c564b; stroke: #8c564b; stroke-linejoin: miter"/>
     <use xlink:href="#m2956c3fbae" x="136.812632" y="242.886548" style="fill: #8c564b; stroke: #8c564b; stroke-linejoin: miter"/>
     <use xlink:href="#m2956c3fbae" x="201.808537" y="242.351083" style="fill: #8c564b; stroke: #8c564b; stroke-linejoin: miter"/>
     <use xlink:href="#m2956c3fbae" x="266.804442" y="240.092311" style="fill: #8c564b; stroke: #8c564b; stroke-linejoin: miter"/>
     <use xlink:href="#m2956c3fbae" x="331.800347" y="239.754966" style="fill: #8c564b; stroke: #8c564b; stroke-linejoin: miter"/>
    </g>
   </g>
   <g id="line2d_34">
    <path d="M 320.101084 273.312 
L 320.101084 7.2 
" clip-path="url(#pe07f3497a7)" style="fill: none; stroke-dasharray: 7.4,3.2; stroke-dashoffset: 0; stroke: #8c564b; stroke-width: 2"/>
    <g clip-path="url(#pe07f3497a7)">
     <use xlink:href="#m2956c3fbae" x="320.101084" y="273.312" style="fill: #8c564b; stroke: #8c564b; stroke-linejoin: miter"/>
     <use xlink:href="#m2956c3fbae" x="320.101084" y="7.2" style="fill: #8c564b; stroke: #8c564b; stroke-linejoin: miter"/>
    </g>
   </g>
   <g id="patch_3">
    <path d="M 55.584 273.312 
L 55.584 7.2 
" style="fill: none; stroke: #000000; stroke-width: 0.8; stroke-linejoin: miter; stroke-linecap: square"/>
   </g>
   <g id="patch_4">
    <path d="M 412.704 273.312 
L 412.704 7.2 
" style="fill: none; stroke: #000000; stroke-width: 0.8; stroke-linejoin: miter; stroke-linecap: square"/>
   </g>
   <g id="patch_5">
    <path d="M 55.584 273.312 
L 412.704 273.312 
" style="fill: none; stroke: #000000; stroke-width: 0.8; stroke-linejoin: miter; stroke-linecap: square"/>
   </g>
   <g id="patch_6">
    <path d="M 55.584 7.2 
L 412.704 7.2 
" style="fill: none; stroke: #000000; stroke-width: 0.8; stroke-linejoin: miter; stroke-linecap: square"/>
   </g>
  </g>
  <g id="text_12">
   <!-- Timesteps -->
   <g transform="translate(197.599313 305.376375) scale(0.12 -0.12)">
    <defs>
     <path id="DejaVuSans-54" d="M -19 4666 
L 3928 4666 
L 3928 4134 
L 2272 4134 
L 2272 0 
L 1638 0 
L 1638 4134 
L -19 4134 
L -19 4666 
z
" transform="scale(0.015625)"/>
     <path id="DejaVuSans-69" d="M 603 3500 
L 1178 3500 
L 1178 0 
L 603 0 
L 603 3500 
z
M 603 4863 
L 1178 4863 
L 1178 4134 
L 603 4134 
L 603 4863 
z
" transform="scale(0.015625)"/>
     <path id="DejaVuSans-6d" d="M 3328 2828 
Q 3544 3216 3844 3400 
Q 4144 3584 4550 3584 
Q 5097 3584 5394 3201 
Q 5691 2819 5691 2113 
L 5691 0 
L 5113 0 
L 5113 2094 
Q 5113 2597 4934 2840 
Q 4756 3084 4391 3084 
Q 3944 3084 3684 2787 
Q 3425 2491 3425 1978 
L 3425 0 
L 2847 0 
L 2847 2094 
Q 2847 2600 2669 2842 
Q 2491 3084 2119 3084 
Q 1678 3084 1418 2786 
Q 1159 2488 1159 1978 
L 1159 0 
L 581 0 
L 581 3500 
L 1159 3500 
L 1159 2956 
Q 1356 3278 1631 3431 
Q 1906 3584 2284 3584 
Q 2666 3584 2933 3390 
Q 3200 3197 3328 2828 
z
" transform="scale(0.015625)"/>
     <path id="DejaVuSans-65" d="M 3597 1894 
L 3597 1613 
L 953 1613 
Q 991 1019 1311 708 
Q 1631 397 2203 397 
Q 2534 397 2845 478 
Q 3156 559 3463 722 
L 3463 178 
Q 3153 47 2828 -22 
Q 2503 -91 2169 -91 
Q 1331 -91 842 396 
Q 353 884 353 1716 
Q 353 2575 817 3079 
Q 1281 3584 2069 3584 
Q 2775 3584 3186 3129 
Q 3597 2675 3597 1894 
z
M 3022 2063 
Q 3016 2534 2758 2815 
Q 2500 3097 2075 3097 
Q 1594 3097 1305 2825 
Q 1016 2553 972 2059 
L 3022 2063 
z
" transform="scale(0.015625)"/>
     <path id="DejaVuSans-73" d="M 2834 3397 
L 2834 2853 
Q 2591 2978 2328 3040 
Q 2066 3103 1784 3103 
Q 1356 3103 1142 2972 
Q 928 2841 928 2578 
Q 928 2378 1081 2264 
Q 1234 2150 1697 2047 
L 1894 2003 
Q 2506 1872 2764 1633 
Q 3022 1394 3022 966 
Q 3022 478 2636 193 
Q 2250 -91 1575 -91 
Q 1294 -91 989 -36 
Q 684 19 347 128 
L 347 722 
Q 666 556 975 473 
Q 1284 391 1588 391 
Q 1994 391 2212 530 
Q 2431 669 2431 922 
Q 2431 1156 2273 1281 
Q 2116 1406 1581 1522 
L 1381 1569 
Q 847 1681 609 1914 
Q 372 2147 372 2553 
Q 372 3047 722 3315 
Q 1072 3584 1716 3584 
Q 2034 3584 2315 3537 
Q 2597 3491 2834 3397 
z
" transform="scale(0.015625)"/>
     <path id="DejaVuSans-74" d="M 1172 4494 
L 1172 3500 
L 2356 3500 
L 2356 3053 
L 1172 3053 
L 1172 1153 
Q 1172 725 1289 603 
Q 1406 481 1766 481 
L 2356 481 
L 2356 0 
L 1766 0 
Q 1100 0 847 248 
Q 594 497 594 1153 
L 594 3053 
L 172 3053 
L 172 3500 
L 594 3500 
L 594 4494 
L 1172 4494 
z
" transform="scale(0.015625)"/>
     <path id="DejaVuSans-70" d="M 1159 525 
L 1159 -1331 
L 581 -1331 
L 581 3500 
L 1159 3500 
L 1159 2969 
Q 1341 3281 1617 3432 
Q 1894 3584 2278 3584 
Q 2916 3584 3314 3078 
Q 3713 2572 3713 1747 
Q 3713 922 3314 415 
Q 2916 -91 2278 -91 
Q 1894 -91 1617 61 
Q 1341 213 1159 525 
z
M 3116 1747 
Q 3116 2381 2855 2742 
Q 2594 3103 2138 3103 
Q 1681 3103 1420 2742 
Q 1159 2381 1159 1747 
Q 1159 1113 1420 752 
Q 1681 391 2138 391 
Q 2594 391 2855 752 
Q 3116 1113 3116 1747 
z
" transform="scale(0.015625)"/>
    </defs>
    <use xlink:href="#DejaVuSans-54"/>
    <use xlink:href="#DejaVuSans-69" x="57.958984"/>
    <use xlink:href="#DejaVuSans-6d" x="85.742188"/>
    <use xlink:href="#DejaVuSans-65" x="183.154297"/>
    <use xlink:href="#DejaVuSans-73" x="244.677734"/>
    <use xlink:href="#DejaVuSans-74" x="296.777344"/>
    <use xlink:href="#DejaVuSans-65" x="335.986328"/>
    <use xlink:href="#DejaVuSans-70" x="397.509766"/>
    <use xlink:href="#DejaVuSans-73" x="460.986328"/>
   </g>
  </g>
  <g id="text_13">
   <!-- Mean estimate error for the best arm -->
   <g transform="translate(16.318125 250.200187) rotate(-90) scale(0.12 -0.12)">
    <defs>
     <path id="DejaVuSans-4d" d="M 628 4666 
L 1569 4666 
L 2759 1491 
L 3956 4666 
L 4897 4666 
L 4897 0 
L 4281 0 
L 4281 4097 
L 3078 897 
L 2444 897 
L 1241 4097 
L 1241 0 
L 628 0 
L 628 4666 
z
" transform="scale(0.015625)"/>
     <path id="DejaVuSans-61" d="M 2194 1759 
Q 1497 1759 1228 1600 
Q 959 1441 959 1056 
Q 959 750 1161 570 
Q 1363 391 1709 391 
Q 2188 391 2477 730 
Q 2766 1069 2766 1631 
L 2766 1759 
L 2194 1759 
z
M 3341 1997 
L 3341 0 
L 2766 0 
L 2766 531 
Q 2569 213 2275 61 
Q 1981 -91 1556 -91 
Q 1019 -91 701 211 
Q 384 513 384 1019 
Q 384 1609 779 1909 
Q 1175 2209 1959 2209 
L 2766 2209 
L 2766 2266 
Q 2766 2663 2505 2880 
Q 2244 3097 1772 3097 
Q 1472 3097 1187 3025 
Q 903 2953 641 2809 
L 641 3341 
Q 956 3463 1253 3523 
Q 1550 3584 1831 3584 
Q 2591 3584 2966 3190 
Q 3341 2797 3341 1997 
z
" transform="scale(0.015625)"/>
     <path id="DejaVuSans-6e" d="M 3513 2113 
L 3513 0 
L 2938 0 
L 2938 2094 
Q 2938 2591 2744 2837 
Q 2550 3084 2163 3084 
Q 1697 3084 1428 2787 
Q 1159 2491 1159 1978 
L 1159 0 
L 581 0 
L 581 3500 
L 1159 3500 
L 1159 2956 
Q 1366 3272 1645 3428 
Q 1925 3584 2291 3584 
Q 2894 3584 3203 3211 
Q 3513 2838 3513 2113 
z
" transform="scale(0.015625)"/>
     <path id="DejaVuSans-20" transform="scale(0.015625)"/>
     <path id="DejaVuSans-72" d="M 2631 2963 
Q 2534 3019 2420 3045 
Q 2306 3072 2169 3072 
Q 1681 3072 1420 2755 
Q 1159 2438 1159 1844 
L 1159 0 
L 581 0 
L 581 3500 
L 1159 3500 
L 1159 2956 
Q 1341 3275 1631 3429 
Q 1922 3584 2338 3584 
Q 2397 3584 2469 3576 
Q 2541 3569 2628 3553 
L 2631 2963 
z
" transform="scale(0.015625)"/>
     <path id="DejaVuSans-6f" d="M 1959 3097 
Q 1497 3097 1228 2736 
Q 959 2375 959 1747 
Q 959 1119 1226 758 
Q 1494 397 1959 397 
Q 2419 397 2687 759 
Q 2956 1122 2956 1747 
Q 2956 2369 2687 2733 
Q 2419 3097 1959 3097 
z
M 1959 3584 
Q 2709 3584 3137 3096 
Q 3566 2609 3566 1747 
Q 3566 888 3137 398 
Q 2709 -91 1959 -91 
Q 1206 -91 779 398 
Q 353 888 353 1747 
Q 353 2609 779 3096 
Q 1206 3584 1959 3584 
z
" transform="scale(0.015625)"/>
     <path id="DejaVuSans-66" d="M 2375 4863 
L 2375 4384 
L 1825 4384 
Q 1516 4384 1395 4259 
Q 1275 4134 1275 3809 
L 1275 3500 
L 2222 3500 
L 2222 3053 
L 1275 3053 
L 1275 0 
L 697 0 
L 697 3053 
L 147 3053 
L 147 3500 
L 697 3500 
L 697 3744 
Q 697 4328 969 4595 
Q 1241 4863 1831 4863 
L 2375 4863 
z
" transform="scale(0.015625)"/>
     <path id="DejaVuSans-68" d="M 3513 2113 
L 3513 0 
L 2938 0 
L 2938 2094 
Q 2938 2591 2744 2837 
Q 2550 3084 2163 3084 
Q 1697 3084 1428 2787 
Q 1159 2491 1159 1978 
L 1159 0 
L 581 0 
L 581 4863 
L 1159 4863 
L 1159 2956 
Q 1366 3272 1645 3428 
Q 1925 3584 2291 3584 
Q 2894 3584 3203 3211 
Q 3513 2838 3513 2113 
z
" transform="scale(0.015625)"/>
     <path id="DejaVuSans-62" d="M 3116 1747 
Q 3116 2381 2855 2742 
Q 2594 3103 2138 3103 
Q 1681 3103 1420 2742 
Q 1159 2381 1159 1747 
Q 1159 1113 1420 752 
Q 1681 391 2138 391 
Q 2594 391 2855 752 
Q 3116 1113 3116 1747 
z
M 1159 2969 
Q 1341 3281 1617 3432 
Q 1894 3584 2278 3584 
Q 2916 3584 3314 3078 
Q 3713 2572 3713 1747 
Q 3713 922 3314 415 
Q 2916 -91 2278 -91 
Q 1894 -91 1617 61 
Q 1341 213 1159 525 
L 1159 0 
L 581 0 
L 581 4863 
L 1159 4863 
L 1159 2969 
z
" transform="scale(0.015625)"/>
    </defs>
    <use xlink:href="#DejaVuSans-4d"/>
    <use xlink:href="#DejaVuSans-65" x="86.279297"/>
    <use xlink:href="#DejaVuSans-61" x="147.802734"/>
    <use xlink:href="#DejaVuSans-6e" x="209.082031"/>
    <use xlink:href="#DejaVuSans-20" x="272.460938"/>
    <use xlink:href="#DejaVuSans-65" x="304.248047"/>
    <use xlink:href="#DejaVuSans-73" x="365.771484"/>
    <use xlink:href="#DejaVuSans-74" x="417.871094"/>
    <use xlink:href="#DejaVuSans-69" x="457.080078"/>
    <use xlink:href="#DejaVuSans-6d" x="484.863281"/>
    <use xlink:href="#DejaVuSans-61" x="582.275391"/>
    <use xlink:href="#DejaVuSans-74" x="643.554688"/>
    <use xlink:href="#DejaVuSans-65" x="682.763672"/>
    <use xlink:href="#DejaVuSans-20" x="744.287109"/>
    <use xlink:href="#DejaVuSans-65" x="776.074219"/>
    <use xlink:href="#DejaVuSans-72" x="837.597656"/>
    <use xlink:href="#DejaVuSans-72" x="876.960938"/>
    <use xlink:href="#DejaVuSans-6f" x="915.824219"/>
    <use xlink:href="#DejaVuSans-72" x="977.005859"/>
    <use xlink:href="#DejaVuSans-20" x="1018.119141"/>
    <use xlink:href="#DejaVuSans-66" x="1049.90625"/>
    <use xlink:href="#DejaVuSans-6f" x="1085.111328"/>
    <use xlink:href="#DejaVuSans-72" x="1146.292969"/>
    <use xlink:href="#DejaVuSans-20" x="1187.40625"/>
    <use xlink:href="#DejaVuSans-74" x="1219.193359"/>
    <use xlink:href="#DejaVuSans-68" x="1258.402344"/>
    <use xlink:href="#DejaVuSans-65" x="1321.78125"/>
    <use xlink:href="#DejaVuSans-20" x="1383.304688"/>
    <use xlink:href="#DejaVuSans-62" x="1415.091797"/>
    <use xlink:href="#DejaVuSans-65" x="1478.568359"/>
    <use xlink:href="#DejaVuSans-73" x="1540.091797"/>
    <use xlink:href="#DejaVuSans-74" x="1592.191406"/>
    <use xlink:href="#DejaVuSans-20" x="1631.400391"/>
    <use xlink:href="#DejaVuSans-61" x="1663.1875"/>
    <use xlink:href="#DejaVuSans-72" x="1724.466797"/>
    <use xlink:href="#DejaVuSans-6d" x="1763.830078"/>
   </g>
  </g>
 </g>
 <defs>
  <clipPath id="pe07f3497a7">
   <rect x="55.584" y="7.2" width="357.12" height="266.112"/>
  </clipPath>
 </defs>
</svg>
