<?xml version="1.0" encoding="utf-8" standalone="no"?>
<!DOCTYPE svg PUBLIC "-//W3C//DTD SVG 1.1//EN"
  "http://www.w3.org/Graphics/SVG/1.1/DTD/svg11.dtd">
<svg xmlns:xlink="http://www.w3.org/1999/xlink" width="421.811252pt" height="315.072pt" viewBox="0 0 421.811252 315.072" xmlns="http://www.w3.org/2000/svg" version="1.1">
 <metadata>
  <rdf:RDF xmlns:dc="http://purl.org/dc/elements/1.1/" xmlns:cc="http://creativecommons.org/ns#" xmlns:rdf="http://www.w3.org/1999/02/22-rdf-syntax-ns#">
   <cc:Work>
    <dc:type rdf:resource="http://purl.org/dc/dcmitype/StillImage"/>
    <dc:date>2024-04-17T16:09:00.758742</dc:date>
    <dc:format>image/svg+xml</dc:format>
    <dc:creator>
     <cc:Agent>
      <dc:title>Matplotlib v3.8.3, https://matplotlib.org/</dc:title>
     </cc:Agent>
    </dc:creator>
   </cc:Work>
  </rdf:RDF>
 </metadata>
 <defs>
  <style type="text/css">*{stroke-linejoin: round; stroke-linecap: butt}</style>
 </defs>
 <g id="figure_1">
  <g id="patch_1">
   <path d="M 0 315.072 
L 421.811252 315.072 
L 421.811252 0 
L 0 0 
z
" style="fill: #ffffff"/>
  </g>
  <g id="axes_1">
   <g id="patch_2">
    <path d="M 55.584 273.312 
L 412.704 273.312 
L 412.704 7.2 
L 55.584 7.2 
z
" style="fill: #ffffff"/>
   </g>
   <g id="PolyCollection_1">
    <path d="M 103.664721 19.296 
L 103.664721 254.404129 
L 363.648341 254.404129 
L 363.648341 19.296 
L 363.648341 19.296 
L 103.664721 19.296 
z
" clip-path="url(#p04a760591b)" style="fill-opacity: 0.2"/>
   </g>
   <g id="matplotlib.axis_1">
    <g id="xtick_1">
     <g id="line2d_1">
      <path d="M 71.816727 273.312 
L 71.816727 7.2 
" clip-path="url(#p04a760591b)" style="fill: none; stroke: #b0b0b0; stroke-width: 0.8; stroke-linecap: square"/>
     </g>
     <g id="line2d_2">
      <defs>
       <path id="m83e175292c" d="M 0 0 
L 0 3.5 
" style="stroke: #000000; stroke-width: 0.8"/>
      </defs>
      <g>
       <use xlink:href="#m83e175292c" x="71.816727" y="273.312" style="stroke: #000000; stroke-width: 0.8"/>
      </g>
     </g>
     <g id="text_1">
      <!-- 0 -->
      <g transform="translate(67.362977 290.949812) scale(0.14 -0.14)">
       <defs>
        <path id="DejaVuSans-30" d="M 2034 4250 
Q 1547 4250 1301 3770 
Q 1056 3291 1056 2328 
Q 1056 1369 1301 889 
Q 1547 409 2034 409 
Q 2525 409 2770 889 
Q 3016 1369 3016 2328 
Q 3016 3291 2770 3770 
Q 2525 4250 2034 4250 
z
M 2034 4750 
Q 2819 4750 3233 4129 
Q 3647 3509 3647 2328 
Q 3647 1150 3233 529 
Q 2819 -91 2034 -91 
Q 1250 -91 836 529 
Q 422 1150 422 2328 
Q 422 3509 836 4129 
Q 1250 4750 2034 4750 
z
" transform="scale(0.015625)"/>
       </defs>
       <use xlink:href="#DejaVuSans-30"/>
      </g>
     </g>
    </g>
    <g id="xtick_2">
     <g id="line2d_3">
      <path d="M 136.812632 273.312 
L 136.812632 7.2 
" clip-path="url(#p04a760591b)" style="fill: none; stroke: #b0b0b0; stroke-width: 0.8; stroke-linecap: square"/>
     </g>
     <g id="line2d_4">
      <g>
       <use xlink:href="#m83e175292c" x="136.812632" y="273.312" style="stroke: #000000; stroke-width: 0.8"/>
      </g>
     </g>
     <g id="text_2">
      <!-- 200 -->
      <g transform="translate(123.451382 290.949812) scale(0.14 -0.14)">
       <defs>
        <path id="DejaVuSans-32" d="M 1228 531 
L 3431 531 
L 3431 0 
L 469 0 
L 469 531 
Q 828 903 1448 1529 
Q 2069 2156 2228 2338 
Q 2531 2678 2651 2914 
Q 2772 3150 2772 3378 
Q 2772 3750 2511 3984 
Q 2250 4219 1831 4219 
Q 1534 4219 1204 4116 
Q 875 4013 500 3803 
L 500 4441 
Q 881 4594 1212 4672 
Q 1544 4750 1819 4750 
Q 2544 4750 2975 4387 
Q 3406 4025 3406 3419 
Q 3406 3131 3298 2873 
Q 3191 2616 2906 2266 
Q 2828 2175 2409 1742 
Q 1991 1309 1228 531 
z
" transform="scale(0.015625)"/>
       </defs>
       <use xlink:href="#DejaVuSans-32"/>
       <use xlink:href="#DejaVuSans-30" x="63.623047"/>
       <use xlink:href="#DejaVuSans-30" x="127.246094"/>
      </g>
     </g>
    </g>
    <g id="xtick_3">
     <g id="line2d_5">
      <path d="M 201.808537 273.312 
L 201.808537 7.2 
" clip-path="url(#p04a760591b)" style="fill: none; stroke: #b0b0b0; stroke-width: 0.8; stroke-linecap: square"/>
     </g>
     <g id="line2d_6">
      <g>
       <use xlink:href="#m83e175292c" x="201.808537" y="273.312" style="stroke: #000000; stroke-width: 0.8"/>
      </g>
     </g>
     <g id="text_3">
      <!-- 400 -->
      <g transform="translate(188.447287 290.949812) scale(0.14 -0.14)">
       <defs>
        <path id="DejaVuSans-34" d="M 2419 4116 
L 825 1625 
L 2419 1625 
L 2419 4116 
z
M 2253 4666 
L 3047 4666 
L 3047 1625 
L 3713 1625 
L 3713 1100 
L 3047 1100 
L 3047 0 
L 2419 0 
L 2419 1100 
L 313 1100 
L 313 1709 
L 2253 4666 
z
" transform="scale(0.015625)"/>
       </defs>
       <use xlink:href="#DejaVuSans-34"/>
       <use xlink:href="#DejaVuSans-30" x="63.623047"/>
       <use xlink:href="#DejaVuSans-30" x="127.246094"/>
      </g>
     </g>
    </g>
    <g id="xtick_4">
     <g id="line2d_7">
      <path d="M 266.804442 273.312 
L 266.804442 7.2 
" clip-path="url(#p04a760591b)" style="fill: none; stroke: #b0b0b0; stroke-width: 0.8; stroke-linecap: square"/>
     </g>
     <g id="line2d_8">
      <g>
       <use xlink:href="#m83e175292c" x="266.804442" y="273.312" style="stroke: #000000; stroke-width: 0.8"/>
      </g>
     </g>
     <g id="text_4">
      <!-- 600 -->
      <g transform="translate(253.443192 290.949812) scale(0.14 -0.14)">
       <defs>
        <path id="DejaVuSans-36" d="M 2113 2584 
Q 1688 2584 1439 2293 
Q 1191 2003 1191 1497 
Q 1191 994 1439 701 
Q 1688 409 2113 409 
Q 2538 409 2786 701 
Q 3034 994 3034 1497 
Q 3034 2003 2786 2293 
Q 2538 2584 2113 2584 
z
M 3366 4563 
L 3366 3988 
Q 3128 4100 2886 4159 
Q 2644 4219 2406 4219 
Q 1781 4219 1451 3797 
Q 1122 3375 1075 2522 
Q 1259 2794 1537 2939 
Q 1816 3084 2150 3084 
Q 2853 3084 3261 2657 
Q 3669 2231 3669 1497 
Q 3669 778 3244 343 
Q 2819 -91 2113 -91 
Q 1303 -91 875 529 
Q 447 1150 447 2328 
Q 447 3434 972 4092 
Q 1497 4750 2381 4750 
Q 2619 4750 2861 4703 
Q 3103 4656 3366 4563 
z
" transform="scale(0.015625)"/>
       </defs>
       <use xlink:href="#DejaVuSans-36"/>
       <use xlink:href="#DejaVuSans-30" x="63.623047"/>
       <use xlink:href="#DejaVuSans-30" x="127.246094"/>
      </g>
     </g>
    </g>
    <g id="xtick_5">
     <g id="line2d_9">
      <path d="M 331.800347 273.312 
L 331.800347 7.2 
" clip-path="url(#p04a760591b)" style="fill: none; stroke: #b0b0b0; stroke-width: 0.8; stroke-linecap: square"/>
     </g>
     <g id="line2d_10">
      <g>
       <use xlink:href="#m83e175292c" x="331.800347" y="273.312" style="stroke: #000000; stroke-width: 0.8"/>
      </g>
     </g>
     <g id="text_5">
      <!-- 800 -->
      <g transform="translate(318.439097 290.949812) scale(0.14 -0.14)">
       <defs>
        <path id="DejaVuSans-38" d="M 2034 2216 
Q 1584 2216 1326 1975 
Q 1069 1734 1069 1313 
Q 1069 891 1326 650 
Q 1584 409 2034 409 
Q 2484 409 2743 651 
Q 3003 894 3003 1313 
Q 3003 1734 2745 1975 
Q 2488 2216 2034 2216 
z
M 1403 2484 
Q 997 2584 770 2862 
Q 544 3141 544 3541 
Q 544 4100 942 4425 
Q 1341 4750 2034 4750 
Q 2731 4750 3128 4425 
Q 3525 4100 3525 3541 
Q 3525 3141 3298 2862 
Q 3072 2584 2669 2484 
Q 3125 2378 3379 2068 
Q 3634 1759 3634 1313 
Q 3634 634 3220 271 
Q 2806 -91 2034 -91 
Q 1263 -91 848 271 
Q 434 634 434 1313 
Q 434 1759 690 2068 
Q 947 2378 1403 2484 
z
M 1172 3481 
Q 1172 3119 1398 2916 
Q 1625 2713 2034 2713 
Q 2441 2713 2670 2916 
Q 2900 3119 2900 3481 
Q 2900 3844 2670 4047 
Q 2441 4250 2034 4250 
Q 1625 4250 1398 4047 
Q 1172 3844 1172 3481 
z
" transform="scale(0.015625)"/>
       </defs>
       <use xlink:href="#DejaVuSans-38"/>
       <use xlink:href="#DejaVuSans-30" x="63.623047"/>
       <use xlink:href="#DejaVuSans-30" x="127.246094"/>
      </g>
     </g>
    </g>
    <g id="xtick_6">
     <g id="line2d_11">
      <path d="M 396.796252 273.312 
L 396.796252 7.2 
" clip-path="url(#p04a760591b)" style="fill: none; stroke: #b0b0b0; stroke-width: 0.8; stroke-linecap: square"/>
     </g>
     <g id="line2d_12">
      <g>
       <use xlink:href="#m83e175292c" x="396.796252" y="273.312" style="stroke: #000000; stroke-width: 0.8"/>
      </g>
     </g>
     <g id="text_6">
      <!-- 1000 -->
      <g transform="translate(378.981252 290.949812) scale(0.14 -0.14)">
       <defs>
        <path id="DejaVuSans-31" d="M 794 531 
L 1825 531 
L 1825 4091 
L 703 3866 
L 703 4441 
L 1819 4666 
L 2450 4666 
L 2450 531 
L 3481 531 
L 3481 0 
L 794 0 
L 794 531 
z
" transform="scale(0.015625)"/>
       </defs>
       <use xlink:href="#DejaVuSans-31"/>
       <use xlink:href="#DejaVuSans-30" x="63.623047"/>
       <use xlink:href="#DejaVuSans-30" x="127.246094"/>
       <use xlink:href="#DejaVuSans-30" x="190.869141"/>
      </g>
     </g>
    </g>
   </g>
   <g id="matplotlib.axis_2">
    <g id="ytick_1">
     <g id="line2d_13">
      <path d="M 55.584 261.216 
L 412.704 261.216 
" clip-path="url(#p04a760591b)" style="fill: none; stroke: #b0b0b0; stroke-width: 0.8; stroke-linecap: square"/>
     </g>
     <g id="line2d_14">
      <defs>
       <path id="m88266f54c8" d="M 0 0 
L -3.5 0 
" style="stroke: #000000; stroke-width: 0.8"/>
      </defs>
      <g>
       <use xlink:href="#m88266f54c8" x="55.584" y="261.216" style="stroke: #000000; stroke-width: 0.8"/>
      </g>
     </g>
     <g id="text_7">
      <!-- 0 -->
      <g transform="translate(39.6765 266.534906) scale(0.14 -0.14)">
       <use xlink:href="#DejaVuSans-30"/>
      </g>
     </g>
    </g>
    <g id="ytick_2">
     <g id="line2d_15">
      <path d="M 55.584 227.114016 
L 412.704 227.114016 
" clip-path="url(#p04a760591b)" style="fill: none; stroke: #b0b0b0; stroke-width: 0.8; stroke-linecap: square"/>
     </g>
     <g id="line2d_16">
      <g>
       <use xlink:href="#m88266f54c8" x="55.584" y="227.114016" style="stroke: #000000; stroke-width: 0.8"/>
      </g>
     </g>
     <g id="text_8">
      <!-- 5 -->
      <g transform="translate(39.6765 232.432922) scale(0.14 -0.14)">
       <defs>
        <path id="DejaVuSans-35" d="M 691 4666 
L 3169 4666 
L 3169 4134 
L 1269 4134 
L 1269 2991 
Q 1406 3038 1543 3061 
Q 1681 3084 1819 3084 
Q 2600 3084 3056 2656 
Q 3513 2228 3513 1497 
Q 3513 744 3044 326 
Q 2575 -91 1722 -91 
Q 1428 -91 1123 -41 
Q 819 9 494 109 
L 494 744 
Q 775 591 1075 516 
Q 1375 441 1709 441 
Q 2250 441 2565 725 
Q 2881 1009 2881 1497 
Q 2881 1984 2565 2268 
Q 2250 2553 1709 2553 
Q 1456 2553 1204 2497 
Q 953 2441 691 2322 
L 691 4666 
z
" transform="scale(0.015625)"/>
       </defs>
       <use xlink:href="#DejaVuSans-35"/>
      </g>
     </g>
    </g>
    <g id="ytick_3">
     <g id="line2d_17">
      <path d="M 55.584 193.012032 
L 412.704 193.012032 
" clip-path="url(#p04a760591b)" style="fill: none; stroke: #b0b0b0; stroke-width: 0.8; stroke-linecap: square"/>
     </g>
     <g id="line2d_18">
      <g>
       <use xlink:href="#m88266f54c8" x="55.584" y="193.012032" style="stroke: #000000; stroke-width: 0.8"/>
      </g>
     </g>
     <g id="text_9">
      <!-- 10 -->
      <g transform="translate(30.769 198.330938) scale(0.14 -0.14)">
       <use xlink:href="#DejaVuSans-31"/>
       <use xlink:href="#DejaVuSans-30" x="63.623047"/>
      </g>
     </g>
    </g>
    <g id="ytick_4">
     <g id="line2d_19">
      <path d="M 55.584 158.910048 
L 412.704 158.910048 
" clip-path="url(#p04a760591b)" style="fill: none; stroke: #b0b0b0; stroke-width: 0.8; stroke-linecap: square"/>
     </g>
     <g id="line2d_20">
      <g>
       <use xlink:href="#m88266f54c8" x="55.584" y="158.910048" style="stroke: #000000; stroke-width: 0.8"/>
      </g>
     </g>
     <g id="text_10">
      <!-- 15 -->
      <g transform="translate(30.769 164.228954) scale(0.14 -0.14)">
       <use xlink:href="#DejaVuSans-31"/>
       <use xlink:href="#DejaVuSans-35" x="63.623047"/>
      </g>
     </g>
    </g>
    <g id="ytick_5">
     <g id="line2d_21">
      <path d="M 55.584 124.808064 
L 412.704 124.808064 
" clip-path="url(#p04a760591b)" style="fill: none; stroke: #b0b0b0; stroke-width: 0.8; stroke-linecap: square"/>
     </g>
     <g id="line2d_22">
      <g>
       <use xlink:href="#m88266f54c8" x="55.584" y="124.808064" style="stroke: #000000; stroke-width: 0.8"/>
      </g>
     </g>
     <g id="text_11">
      <!-- 20 -->
      <g transform="translate(30.769 130.12697) scale(0.14 -0.14)">
       <use xlink:href="#DejaVuSans-32"/>
       <use xlink:href="#DejaVuSans-30" x="63.623047"/>
      </g>
     </g>
    </g>
    <g id="ytick_6">
     <g id="line2d_23">
      <path d="M 55.584 90.70608 
L 412.704 90.70608 
" clip-path="url(#p04a760591b)" style="fill: none; stroke: #b0b0b0; stroke-width: 0.8; stroke-linecap: square"/>
     </g>
     <g id="line2d_24">
      <g>
       <use xlink:href="#m88266f54c8" x="55.584" y="90.70608" style="stroke: #000000; stroke-width: 0.8"/>
      </g>
     </g>
     <g id="text_12">
      <!-- 25 -->
      <g transform="translate(30.769 96.024986) scale(0.14 -0.14)">
       <use xlink:href="#DejaVuSans-32"/>
       <use xlink:href="#DejaVuSans-35" x="63.623047"/>
      </g>
     </g>
    </g>
    <g id="ytick_7">
     <g id="line2d_25">
      <path d="M 55.584 56.604096 
L 412.704 56.604096 
" clip-path="url(#p04a760591b)" style="fill: none; stroke: #b0b0b0; stroke-width: 0.8; stroke-linecap: square"/>
     </g>
     <g id="line2d_26">
      <g>
       <use xlink:href="#m88266f54c8" x="55.584" y="56.604096" style="stroke: #000000; stroke-width: 0.8"/>
      </g>
     </g>
     <g id="text_13">
      <!-- 30 -->
      <g transform="translate(30.769 61.923002) scale(0.14 -0.14)">
       <defs>
        <path id="DejaVuSans-33" d="M 2597 2516 
Q 3050 2419 3304 2112 
Q 3559 1806 3559 1356 
Q 3559 666 3084 287 
Q 2609 -91 1734 -91 
Q 1441 -91 1130 -33 
Q 819 25 488 141 
L 488 750 
Q 750 597 1062 519 
Q 1375 441 1716 441 
Q 2309 441 2620 675 
Q 2931 909 2931 1356 
Q 2931 1769 2642 2001 
Q 2353 2234 1838 2234 
L 1294 2234 
L 1294 2753 
L 1863 2753 
Q 2328 2753 2575 2939 
Q 2822 3125 2822 3475 
Q 2822 3834 2567 4026 
Q 2313 4219 1838 4219 
Q 1578 4219 1281 4162 
Q 984 4106 628 3988 
L 628 4550 
Q 988 4650 1302 4700 
Q 1616 4750 1894 4750 
Q 2613 4750 3031 4423 
Q 3450 4097 3450 3541 
Q 3450 3153 3228 2886 
Q 3006 2619 2597 2516 
z
" transform="scale(0.015625)"/>
       </defs>
       <use xlink:href="#DejaVuSans-33"/>
       <use xlink:href="#DejaVuSans-30" x="63.623047"/>
      </g>
     </g>
    </g>
    <g id="ytick_8">
     <g id="line2d_27">
      <path d="M 55.584 22.502112 
L 412.704 22.502112 
" clip-path="url(#p04a760591b)" style="fill: none; stroke: #b0b0b0; stroke-width: 0.8; stroke-linecap: square"/>
     </g>
     <g id="line2d_28">
      <g>
       <use xlink:href="#m88266f54c8" x="55.584" y="22.502112" style="stroke: #000000; stroke-width: 0.8"/>
      </g>
     </g>
     <g id="text_14">
      <!-- 35 -->
      <g transform="translate(30.769 27.821018) scale(0.14 -0.14)">
       <use xlink:href="#DejaVuSans-33"/>
       <use xlink:href="#DejaVuSans-35" x="63.623047"/>
      </g>
     </g>
    </g>
   </g>
   <g id="line2d_29">
    <path d="M 71.816727 261.216 
L 103.9897 261.216 
L 104.31468 249.76329 
L 104.639659 252.240986 
L 104.964639 253.159788 
L 105.614598 254.044967 
L 108.864393 255.61944 
L 111.789209 256.408595 
L 113.739086 256.815114 
L 116.013943 257.253093 
L 117.96382 257.476121 
L 124.78839 258.156273 
L 130.313042 258.428392 
L 132.587898 258.386944 
L 132.912878 258.17327 
L 133.237857 257.481584 
L 135.187735 257.458246 
L 138.11255 257.48515 
L 138.43753 257.299434 
L 144.287161 257.500689 
L 146.237038 257.279615 
L 146.562018 256.64947 
L 147.211977 256.695555 
L 147.536957 255.563278 
L 148.836875 255.990934 
L 150.136793 256.208386 
L 152.411649 256.517759 
L 152.736629 256.554879 
L 153.386588 256.481453 
L 154.361527 256.554131 
L 154.686506 255.778907 
L 156.636383 255.912397 
L 159.236219 256.087284 
L 159.886179 256.051513 
L 163.785933 256.10797 
L 168.010667 256.290963 
L 168.985605 256.278133 
L 171.585441 256.349359 
L 175.485196 256.45608 
L 176.785114 256.4309 
L 183.284704 256.443524 
L 189.784295 256.54602 
L 192.384131 256.492898 
L 195.308947 256.514526 
L 206.358251 256.62886 
L 207.333189 256.595714 
L 209.283066 256.601956 
L 209.608046 256.469277 
L 213.83278 256.524469 
L 214.807718 256.499678 
L 218.057514 256.477498 
L 219.032452 256.446007 
L 226.506981 256.538618 
L 227.48192 256.504235 
L 234.956449 256.584483 
L 236.256367 256.592808 
L 236.581346 256.463202 
L 244.055876 256.512819 
L 244.705835 256.442938 
L 259.004934 256.439837 
L 259.654893 256.356802 
L 266.479463 256.408146 
L 280.128603 256.469493 
L 287.278152 256.372943 
L 298.002477 256.328946 
L 318.151207 256.341072 
L 334.400183 256.385719 
L 346.099446 256.350781 
L 346.424426 255.718716 
L 354.223934 255.662815 
L 363.648341 255.633218 
L 375.347604 255.636515 
L 379.572337 255.624013 
L 381.522215 255.638648 
L 381.847194 255.459917 
L 391.2716 255.452858 
L 396.471273 255.486949 
L 396.471273 255.486949 
" clip-path="url(#p04a760591b)" style="fill: none; stroke: #1f77b4; stroke-width: 2; stroke-linecap: square"/>
    <defs>
     <path id="md30dbc939b" d="M 0 3 
C 0.795609 3 1.55874 2.683901 2.12132 2.12132 
C 2.683901 1.55874 3 0.795609 3 0 
C 3 -0.795609 2.683901 -1.55874 2.12132 -2.12132 
C 1.55874 -2.683901 0.795609 -3 0 -3 
C -0.795609 -3 -1.55874 -2.683901 -2.12132 -2.12132 
C -2.683901 -1.55874 -3 -0.795609 -3 0 
C -3 0.795609 -2.683901 1.55874 -2.12132 2.12132 
C -1.55874 2.683901 -0.795609 3 0 3 
z
" style="stroke: #1f77b4"/>
    </defs>
    <g clip-path="url(#p04a760591b)">
     <use xlink:href="#md30dbc939b" x="71.816727" y="261.216" style="fill: #1f77b4; stroke: #1f77b4"/>
     <use xlink:href="#md30dbc939b" x="136.812632" y="257.449449" style="fill: #1f77b4; stroke: #1f77b4"/>
     <use xlink:href="#md30dbc939b" x="201.808537" y="256.619282" style="fill: #1f77b4; stroke: #1f77b4"/>
     <use xlink:href="#md30dbc939b" x="266.804442" y="256.411968" style="fill: #1f77b4; stroke: #1f77b4"/>
     <use xlink:href="#md30dbc939b" x="331.800347" y="256.395009" style="fill: #1f77b4; stroke: #1f77b4"/>
    </g>
   </g>
   <g id="line2d_30">
    <path d="M 104.31468 273.312 
L 104.31468 7.2 
" clip-path="url(#p04a760591b)" style="fill: none; stroke-dasharray: 7.4,3.2; stroke-dashoffset: 0; stroke: #1f77b4; stroke-width: 2"/>
    <g clip-path="url(#p04a760591b)">
     <use xlink:href="#md30dbc939b" x="104.31468" y="273.312" style="fill: #1f77b4; stroke: #1f77b4"/>
     <use xlink:href="#md30dbc939b" x="104.31468" y="7.2" style="fill: #1f77b4; stroke: #1f77b4"/>
    </g>
   </g>
   <g id="line2d_31">
    <path d="M 71.816727 261.216 
L 103.9897 261.216 
L 104.31468 242.837414 
L 104.639659 249.143905 
L 104.964639 250.905644 
L 105.289618 249.329965 
L 105.614598 251.281863 
L 105.939577 38.436466 
L 106.264557 72.041249 
L 106.589536 90.2236 
L 107.239495 111.942423 
L 107.564475 94.972157 
L 107.889455 123.81378 
L 108.214434 126.369097 
L 108.539414 106.665381 
L 108.864393 132.584855 
L 109.189373 69.484739 
L 109.514352 136.748028 
L 109.839332 136.936503 
L 110.164311 141.333667 
L 110.489291 126.720055 
L 110.81427 145.021718 
L 111.13925 125.941369 
L 111.464229 148.129891 
L 111.789209 19.304525 
L 112.114188 151.118823 
L 112.439168 121.085305 
L 112.764147 153.418729 
L 113.089127 103.400055 
L 113.414106 153.219691 
L 113.739086 47.564327 
L 114.064066 156.777561 
L 114.389045 137.523295 
L 114.714025 157.324222 
L 115.039004 150.510831 
L 115.363984 158.986054 
L 115.688963 154.788784 
L 116.013943 157.850106 
L 116.338922 156.981781 
L 116.663902 155.541955 
L 116.988881 159.821422 
L 117.313861 142.601508 
L 117.63884 159.241085 
L 117.96382 150.475287 
L 118.288799 161.975171 
L 118.613779 159.5985 
L 118.938758 163.263008 
L 119.263738 128.26278 
L 119.588717 163.400544 
L 119.913697 160.807378 
L 120.238676 164.115871 
L 120.563656 125.079149 
L 120.888636 166.345159 
L 121.213615 162.764301 
L 121.538595 165.608754 
L 121.863574 146.707276 
L 122.188554 166.991554 
L 122.513533 161.84604 
L 122.838513 167.122115 
L 123.163492 163.717689 
L 123.488472 167.348401 
L 123.813451 159.944518 
L 124.138431 167.569735 
L 124.46341 114.941499 
L 124.78839 167.950709 
L 125.113369 166.038824 
L 125.438349 168.412846 
L 125.763328 164.512201 
L 126.088308 168.438359 
L 126.413287 164.710287 
L 126.738267 167.750139 
L 127.063247 159.503606 
L 127.388226 168.948711 
L 127.713206 167.311055 
L 128.038185 168.685258 
L 128.688144 168.321798 
L 129.338103 169.362273 
L 129.988062 169.184084 
L 130.313042 169.41764 
L 130.638021 169.419463 
L 131.61296 169.805808 
L 131.937939 168.835789 
L 132.262919 169.112714 
L 132.587898 169.096252 
L 132.912878 169.289684 
L 133.562837 169.401295 
L 133.887817 168.869626 
L 134.212796 167.3891 
L 134.862755 168.296894 
L 135.187735 168.3346 
L 135.512714 168.620957 
L 135.837694 168.476455 
L 136.487653 168.962786 
L 137.462591 169.121912 
L 138.11255 169.346915 
L 138.762509 169.440179 
L 139.412468 169.583987 
L 139.737448 169.098939 
L 140.387407 169.597064 
L 140.712387 169.509359 
L 141.037366 169.621385 
L 141.687325 169.70295 
L 143.962182 169.919062 
L 144.287161 169.716395 
L 146.562018 169.955537 
L 146.886998 169.689152 
L 147.211977 169.906865 
L 148.836875 169.990838 
L 149.161854 169.824813 
L 149.486834 169.859566 
L 149.811813 169.611457 
L 150.136793 169.535553 
L 150.461772 169.638619 
L 150.786752 169.519259 
L 151.111731 169.569936 
L 151.436711 169.061101 
L 152.08667 169.17476 
L 152.736629 169.089661 
L 153.386588 169.259602 
L 155.661445 169.382569 
L 155.986424 168.413886 
L 156.311404 169.449753 
L 156.961363 169.480643 
L 157.286342 169.393458 
L 158.261281 169.498445 
L 160.211158 169.639681 
L 161.186097 169.624009 
L 161.511076 169.635013 
L 161.836056 168.164053 
L 162.161035 169.641468 
L 163.135974 169.65629 
L 163.785933 169.595213 
L 165.085851 169.616373 
L 165.41083 169.247313 
L 166.06079 169.30674 
L 167.685687 169.413201 
L 168.335646 169.419195 
L 168.660626 166.062744 
L 168.985605 166.4284 
L 169.310585 166.599343 
L 169.635564 166.623148 
L 170.285523 166.823197 
L 171.260462 166.923414 
L 171.910421 166.838406 
L 172.56038 166.898747 
L 174.510257 167.052538 
L 175.485196 167.068993 
L 175.810175 167.130175 
L 176.460134 167.13305 
L 178.085032 167.039288 
L 178.410011 166.182368 
L 179.059971 166.330391 
L 181.659807 166.509946 
L 181.984786 166.224412 
L 182.309766 166.270951 
L 182.634745 164.207935 
L 183.284704 164.586543 
L 186.5345 165.056849 
L 187.509438 165.057776 
L 187.834418 165.184154 
L 188.159397 165.089175 
L 188.484377 165.14816 
L 188.809356 165.077819 
L 189.459315 165.122613 
L 190.434254 165.230913 
L 191.409192 165.192549 
L 191.734172 165.284129 
L 192.059152 165.177596 
L 192.384131 165.316011 
L 193.35907 165.307773 
L 195.958906 165.272877 
L 196.283885 164.925026 
L 196.608865 164.937608 
L 196.933844 164.766672 
L 197.583803 164.861868 
L 198.233762 164.856971 
L 200.18364 164.933268 
L 200.508619 164.473407 
L 201.483558 164.602471 
L 201.808537 164.57326 
L 202.458496 164.665094 
L 203.433435 164.740705 
L 205.058333 164.768215 
L 207.333189 164.843268 
L 208.308128 164.825361 
L 209.283066 164.855332 
L 209.933025 164.735682 
L 210.582984 164.738216 
L 211.882903 164.660628 
L 213.182821 164.707278 
L 215.782657 164.781218 
L 219.682411 164.895978 
L 224.882084 165.034694 
L 225.532043 164.724982 
L 227.48192 164.847884 
L 229.756776 164.869367 
L 239.831142 165.058395 
L 241.456039 164.977949 
L 242.105998 164.996466 
L 242.430978 162.423608 
L 243.080937 162.83545 
L 246.005753 163.298863 
L 248.280609 163.41971 
L 248.605589 147.676409 
L 248.930568 150.263872 
L 249.255548 150.441583 
L 249.905507 152.198013 
L 250.230486 152.162128 
L 250.555466 152.570711 
L 251.855384 152.857542 
L 252.180364 152.827108 
L 252.505343 152.96397 
L 252.830323 152.934642 
L 253.155302 153.073741 
L 253.480282 153.035189 
L 253.805261 153.152746 
L 254.130241 153.114269 
L 254.45522 153.244698 
L 254.7802 153.198512 
L 255.105179 153.324931 
L 255.430159 153.290267 
L 256.080118 153.381678 
L 257.380036 153.541782 
L 262.904688 154.083847 
L 263.229667 153.937805 
L 265.179545 154.1558 
L 268.754319 154.463356 
L 270.054238 154.527141 
L 273.629012 154.802849 
L 274.278971 154.751182 
L 276.878808 154.941531 
L 292.802804 155.790462 
L 293.777743 155.82307 
L 296.702559 155.948732 
L 297.352518 155.926645 
L 299.952354 156.091528 
L 301.252272 156.112573 
L 301.577251 156.004838 
L 301.902231 156.016233 
L 302.22721 155.74494 
L 303.852108 155.944327 
L 308.726801 156.298265 
L 309.051781 156.164355 
L 312.301576 156.444019 
L 313.601494 156.406462 
L 324.000839 156.951843 
L 324.325818 156.442274 
L 324.650798 156.984439 
L 342.524672 157.721007 
L 342.849651 157.556655 
L 344.149569 157.62542 
L 348.049324 157.712153 
L 348.699283 157.687876 
L 360.723525 157.984343 
L 361.048505 157.392871 
L 361.698464 157.776755 
L 362.673402 157.959204 
L 363.648341 158.04135 
L 364.623279 157.87353 
L 364.948259 158.096093 
L 365.273238 158.019929 
L 365.923197 158.144286 
L 368.523034 158.231809 
L 370.79789 158.21024 
L 371.12287 158.049908 
L 372.097808 158.10605 
L 378.272419 158.356413 
L 379.897317 158.399993 
L 388.346785 158.673252 
L 393.221477 158.780408 
L 393.546457 158.26753 
L 393.871437 158.355666 
L 394.521396 158.36192 
L 396.471273 158.461124 
L 396.471273 158.461124 
" clip-path="url(#p04a760591b)" style="fill: none; stroke: #ff7f0e; stroke-width: 2; stroke-linecap: square"/>
    <defs>
     <path id="m41240eb321" d="M 0 -3 
L -3 3 
L 3 3 
z
" style="stroke: #ff7f0e; stroke-linejoin: miter"/>
    </defs>
    <g clip-path="url(#p04a760591b)">
     <use xlink:href="#m41240eb321" x="71.816727" y="261.216" style="fill: #ff7f0e; stroke: #ff7f0e; stroke-linejoin: miter"/>
     <use xlink:href="#m41240eb321" x="136.812632" y="168.985989" style="fill: #ff7f0e; stroke: #ff7f0e; stroke-linejoin: miter"/>
     <use xlink:href="#m41240eb321" x="201.808537" y="164.57326" style="fill: #ff7f0e; stroke: #ff7f0e; stroke-linejoin: miter"/>
     <use xlink:href="#m41240eb321" x="266.804442" y="154.306348" style="fill: #ff7f0e; stroke: #ff7f0e; stroke-linejoin: miter"/>
     <use xlink:href="#m41240eb321" x="331.800347" y="157.334764" style="fill: #ff7f0e; stroke: #ff7f0e; stroke-linejoin: miter"/>
    </g>
   </g>
   <g id="line2d_32">
    <path d="M 111.789209 273.312 
L 111.789209 7.2 
" clip-path="url(#p04a760591b)" style="fill: none; stroke-dasharray: 7.4,3.2; stroke-dashoffset: 0; stroke: #ff7f0e; stroke-width: 2"/>
    <g clip-path="url(#p04a760591b)">
     <use xlink:href="#m41240eb321" x="111.789209" y="273.312" style="fill: #ff7f0e; stroke: #ff7f0e; stroke-linejoin: miter"/>
     <use xlink:href="#m41240eb321" x="111.789209" y="7.2" style="fill: #ff7f0e; stroke: #ff7f0e; stroke-linejoin: miter"/>
    </g>
   </g>
   <g id="line2d_33">
    <path d="M 71.816727 261.216 
L 103.9897 261.216 
L 104.31468 250.420389 
L 104.639659 253.467778 
L 104.964639 254.584107 
L 105.614598 253.899445 
L 105.939577 254.104368 
L 106.264557 254.470057 
L 106.589536 254.523338 
L 106.914516 254.777448 
L 107.239495 254.58751 
L 107.564475 254.234615 
L 107.889455 253.638433 
L 108.539414 254.049973 
L 108.864393 254.082839 
L 109.189373 253.939307 
L 109.839332 253.931892 
L 110.164311 253.944879 
L 110.81427 253.802088 
L 111.13925 253.83011 
L 111.464229 253.585304 
L 111.789209 253.64273 
L 112.114188 253.557629 
L 112.764147 252.747528 
L 113.739086 252.649504 
L 114.064066 252.103777 
L 114.389045 252.172414 
L 114.714025 252.390916 
L 115.039004 252.451037 
L 115.363984 251.937236 
L 115.688963 251.731416 
L 116.663902 251.902416 
L 117.313861 251.647704 
L 118.288799 251.827023 
L 118.938758 251.877847 
L 120.238676 251.967007 
L 121.213615 251.898699 
L 121.538595 251.933099 
L 122.188554 251.350878 
L 123.488472 251.399706 
L 123.813451 251.299548 
L 124.46341 251.385808 
L 124.78839 250.155748 
L 126.088308 250.310235 
L 126.413287 250.189755 
L 126.738267 250.247172 
L 127.063247 249.744651 
L 128.038185 249.872065 
L 129.013124 250.032234 
L 130.638021 250.184627 
L 130.963001 249.747649 
L 131.937939 249.873267 
L 132.262919 249.915746 
L 132.587898 249.83355 
L 133.887817 249.991593 
L 134.212796 249.85014 
L 137.787571 250.225456 
L 139.412468 250.232067 
L 139.737448 250.029508 
L 142.337284 250.250988 
L 143.637202 250.293655 
L 143.962182 249.997457 
L 145.2621 250.055307 
L 149.486834 250.280555 
L 153.386588 250.280216 
L 154.686506 250.258366 
L 155.011486 249.575015 
L 157.936301 249.612311 
L 158.261281 249.401723 
L 162.161035 249.537185 
L 162.810994 249.520727 
L 163.785933 249.016356 
L 173.535319 249.22543 
L 174.835237 249.159961 
L 178.734991 249.193167 
L 180.034909 249.173447 
L 183.609684 249.248449 
L 195.633926 249.394787 
L 195.958906 249.111614 
L 198.233762 249.196216 
L 201.808537 249.044531 
L 203.433435 249.071454 
L 203.758414 248.962045 
L 207.658169 249.017019 
L 208.308128 248.829607 
L 215.457677 248.962116 
L 218.382493 248.940497 
L 227.806899 249.053057 
L 248.280609 248.978206 
L 248.605589 248.688578 
L 255.430159 248.705583 
L 256.405097 248.714333 
L 256.730077 248.377831 
L 268.10436 248.339137 
L 268.42934 248.13564 
L 276.878808 248.18934 
L 279.803623 248.225998 
L 292.802804 248.257766 
L 309.051781 248.207203 
L 310.026719 248.169413 
L 396.471273 248.113434 
L 396.471273 248.113434 
" clip-path="url(#p04a760591b)" style="fill: none; stroke: #2ca02c; stroke-width: 2; stroke-linecap: square"/>
    <defs>
     <path id="m5039be5721" d="M -3 3 
L 3 3 
L 3 -3 
L -3 -3 
z
" style="stroke: #2ca02c; stroke-linejoin: miter"/>
    </defs>
    <g clip-path="url(#p04a760591b)">
     <use xlink:href="#m5039be5721" x="71.816727" y="261.216" style="fill: #2ca02c; stroke: #2ca02c; stroke-linejoin: miter"/>
     <use xlink:href="#m5039be5721" x="136.812632" y="250.13947" style="fill: #2ca02c; stroke: #2ca02c; stroke-linejoin: miter"/>
     <use xlink:href="#m5039be5721" x="201.808537" y="249.044531" style="fill: #2ca02c; stroke: #2ca02c; stroke-linejoin: miter"/>
     <use xlink:href="#m5039be5721" x="266.804442" y="248.316674" style="fill: #2ca02c; stroke: #2ca02c; stroke-linejoin: miter"/>
     <use xlink:href="#m5039be5721" x="331.800347" y="248.209021" style="fill: #2ca02c; stroke: #2ca02c; stroke-linejoin: miter"/>
    </g>
   </g>
   <g id="line2d_34">
    <path d="M 362.998382 273.312 
L 362.998382 7.2 
" clip-path="url(#p04a760591b)" style="fill: none; stroke-dasharray: 7.4,3.2; stroke-dashoffset: 0; stroke: #2ca02c; stroke-width: 2"/>
    <g clip-path="url(#p04a760591b)">
     <use xlink:href="#m5039be5721" x="362.998382" y="273.312" style="fill: #2ca02c; stroke: #2ca02c; stroke-linejoin: miter"/>
     <use xlink:href="#m5039be5721" x="362.998382" y="7.2" style="fill: #2ca02c; stroke: #2ca02c; stroke-linejoin: miter"/>
    </g>
   </g>
   <g id="line2d_35">
    <path d="M 71.816727 261.216 
L 103.9897 261.216 
L 104.31468 253.813801 
L 104.639659 255.084752 
L 104.964639 255.471163 
L 105.939577 254.980328 
L 106.264557 252.442296 
L 106.914516 253.559731 
L 107.239495 253.895024 
L 107.564475 253.827747 
L 107.889455 254.171909 
L 108.214434 254.246352 
L 108.539414 254.179414 
L 108.864393 254.246307 
L 109.189373 254.15286 
L 109.514352 254.272858 
L 109.839332 254.267919 
L 110.164311 254.138972 
L 111.13925 254.37625 
L 111.464229 253.893012 
L 112.439168 254.073731 
L 113.089127 253.758132 
L 113.414106 253.8252 
L 113.739086 252.27403 
L 114.389045 252.458496 
L 114.714025 252.581155 
L 115.039004 252.511712 
L 115.363984 251.524681 
L 116.013943 251.607133 
L 116.338922 251.750621 
L 116.663902 251.526918 
L 117.96382 251.775726 
L 118.288799 251.822439 
L 118.613779 251.6972 
L 119.913697 251.999878 
L 123.488472 252.465732 
L 123.813451 252.329423 
L 125.763328 252.554699 
L 127.063247 252.337516 
L 128.363165 252.393334 
L 128.688144 252.022018 
L 130.313042 252.002523 
L 131.937939 252.115024 
L 132.262919 251.745094 
L 132.912878 251.803624 
L 133.237857 249.860181 
L 135.187735 250.035951 
L 135.512714 249.900431 
L 136.487653 250.071073 
L 136.812632 250.118861 
L 137.137612 250.045241 
L 138.762509 250.277627 
L 139.087489 250.276962 
L 139.412468 249.699053 
L 140.062428 249.96549 
L 140.387407 250.045395 
L 141.037366 250.009948 
L 142.012305 250.111165 
L 142.987243 250.183767 
L 145.587079 250.307928 
L 145.912059 250.184653 
L 149.161854 250.27472 
L 151.436711 250.206157 
L 162.161035 250.350858 
L 164.110912 250.356292 
L 167.360708 250.312393 
L 167.685687 250.192937 
L 170.285523 250.234804 
L 170.935482 250.124652 
L 172.2354 250.150184 
L 172.56038 249.787911 
L 177.435073 249.880507 
L 181.659807 249.797797 
L 184.259643 249.798438 
L 184.584622 249.689211 
L 185.559561 249.612952 
L 189.459315 249.670997 
L 189.784295 247.079236 
L 192.709111 247.097106 
L 194.334008 247.029526 
L 195.958906 247.019947 
L 196.608865 246.947661 
L 198.883722 246.98576 
L 199.85866 246.946152 
L 201.158578 246.954729 
L 203.758414 246.987498 
L 215.782657 246.992225 
L 216.432616 246.890357 
L 216.757595 245.957962 
L 220.65735 245.982512 
L 221.957268 245.874083 
L 226.506981 245.897539 
L 226.831961 245.428207 
L 228.131879 245.443269 
L 230.731715 245.481134 
L 250.880446 245.569987 
L 251.205425 245.554396 
L 251.530405 245.427339 
L 256.080118 245.451463 
L 257.055057 245.417439 
L 265.179545 245.492767 
L 267.779381 245.516362 
L 276.553828 245.548541 
L 280.778562 245.572019 
L 281.428521 245.483841 
L 286.628193 245.425384 
L 309.051781 245.323416 
L 325.625736 245.32526 
L 326.275695 245.26707 
L 337.649979 245.197402 
L 341.224753 245.197001 
L 346.424426 245.176355 
L 346.749405 245.161353 
L 347.074385 244.981907 
L 352.924016 244.997302 
L 353.573975 244.899501 
L 367.223115 244.935551 
L 372.097808 244.897038 
L 378.922378 244.932349 
L 379.247358 244.688131 
L 383.472092 244.672444 
L 389.321723 244.675668 
L 391.921559 244.677328 
L 392.246539 244.457808 
L 393.221477 244.357235 
L 396.471273 244.381988 
L 396.471273 244.381988 
" clip-path="url(#p04a760591b)" style="fill: none; stroke: #d62728; stroke-width: 2; stroke-linecap: square"/>
    <defs>
     <path id="m2ecc51eaba" d="M -3 3 
L 3 -3 
M -3 -3 
L 3 3 
" style="stroke: #d62728"/>
    </defs>
    <g clip-path="url(#p04a760591b)">
     <use xlink:href="#m2ecc51eaba" x="71.816727" y="261.216" style="fill: #d62728; stroke: #d62728"/>
     <use xlink:href="#m2ecc51eaba" x="136.812632" y="250.118861" style="fill: #d62728; stroke: #d62728"/>
     <use xlink:href="#m2ecc51eaba" x="201.808537" y="246.949305" style="fill: #d62728; stroke: #d62728"/>
     <use xlink:href="#m2ecc51eaba" x="266.804442" y="245.501518" style="fill: #d62728; stroke: #d62728"/>
     <use xlink:href="#m2ecc51eaba" x="331.800347" y="245.289053" style="fill: #d62728; stroke: #d62728"/>
    </g>
   </g>
   <g id="line2d_36">
    <path d="M 392.896498 273.312 
L 392.896498 7.2 
" clip-path="url(#p04a760591b)" style="fill: none; stroke-dasharray: 7.4,3.2; stroke-dashoffset: 0; stroke: #d62728; stroke-width: 2"/>
    <g clip-path="url(#p04a760591b)">
     <use xlink:href="#m2ecc51eaba" x="392.896498" y="273.312" style="fill: #d62728; stroke: #d62728"/>
     <use xlink:href="#m2ecc51eaba" x="392.896498" y="7.2" style="fill: #d62728; stroke: #d62728"/>
    </g>
   </g>
   <g id="line2d_37">
    <path d="M 71.816727 261.216 
L 103.9897 261.216 
L 104.31468 253.856464 
L 104.639659 254.591664 
L 104.964639 254.790593 
L 105.289618 254.543701 
L 105.614598 254.666123 
L 106.589536 254.198067 
L 106.914516 253.621149 
L 107.239495 253.439535 
L 107.889455 253.694605 
L 108.214434 253.728467 
L 108.539414 253.397865 
L 109.189373 253.312175 
L 109.839332 253.048192 
L 110.164311 252.67922 
L 111.13925 252.797141 
L 111.464229 252.5497 
L 113.414106 252.72447 
L 114.064066 252.554071 
L 114.389045 252.586683 
L 114.714025 252.45009 
L 115.688963 252.556131 
L 116.013943 251.937201 
L 116.663902 251.972566 
L 118.288799 252.057902 
L 118.938758 252.159638 
L 119.913697 252.027307 
L 120.238676 252.075643 
L 120.888636 252.042987 
L 122.188554 252.071773 
L 123.163492 252.063123 
L 123.488472 251.783411 
L 124.138431 251.876332 
L 124.46341 251.406886 
L 125.763328 251.727816 
L 126.738267 251.774517 
L 127.063247 248.948431 
L 129.013124 249.032106 
L 129.988062 249.02038 
L 130.638021 249.148823 
L 130.963001 249.067172 
L 131.937939 249.091223 
L 132.262919 248.962779 
L 133.237857 248.981535 
L 133.887817 248.975014 
L 142.337284 249.174857 
L 142.662264 249.013875 
L 146.237038 249.133276 
L 146.562018 248.82148 
L 146.886998 248.682625 
L 149.161854 248.706143 
L 153.386588 248.831688 
L 154.036547 248.740776 
L 154.361527 248.749125 
L 154.686506 222.876453 
L 155.661445 223.29113 
L 157.936301 223.596752 
L 159.561199 223.601781 
L 159.886179 223.476454 
L 162.810994 223.598339 
L 163.135974 223.287127 
L 163.785933 223.223133 
L 165.41083 223.198548 
L 166.710749 223.169933 
L 168.335646 223.128223 
L 172.2354 223.153264 
L 174.510257 223.204382 
L 175.160216 223.117019 
L 176.785114 223.163309 
L 177.110093 223.049597 
L 179.059971 223.095246 
L 185.234581 223.051685 
L 185.559561 222.138595 
L 189.134336 222.077772 
L 189.459315 221.279092 
L 192.384131 221.304704 
L 192.709111 221.131398 
L 194.334008 221.111489 
L 196.933844 221.178807 
L 197.258824 221.019923 
L 199.533681 221.061481 
L 201.483558 221.015719 
L 202.783476 220.908384 
L 205.708292 220.939408 
L 206.033271 220.946131 
L 206.358251 220.828322 
L 214.157759 220.92136 
L 214.807718 220.85708 
L 217.732534 220.874521 
L 218.057514 220.593206 
L 230.081756 220.72374 
L 234.30649 220.731273 
L 234.631469 220.571741 
L 242.430978 220.586692 
L 251.530405 220.642149 
L 251.855384 220.463067 
L 256.080118 220.436652 
L 258.354975 220.433686 
L 261.60477 220.396822 
L 272.979053 220.409592 
L 273.629012 220.295348 
L 285.003296 220.367077 
L 285.328275 219.177565 
L 285.653255 218.920427 
L 288.90305 218.959825 
L 289.228029 218.972014 
L 289.553009 218.834796 
L 293.452763 218.87241 
L 305.801985 219.143979 
L 312.626555 219.262125 
L 313.926473 219.242835 
L 316.851289 219.227809 
L 318.476187 219.239963 
L 330.17545 219.401827 
L 347.724344 219.596546 
L 349.024262 219.580895 
L 354.873894 219.619022 
L 367.873075 219.600024 
L 369.172993 219.518991 
L 381.522215 219.591126 
L 382.822133 219.55066 
L 387.696826 219.553384 
L 394.196416 219.565157 
L 396.471273 219.537132 
L 396.471273 219.537132 
" clip-path="url(#p04a760591b)" style="fill: none; stroke: #9467bd; stroke-width: 2; stroke-linecap: square"/>
    <defs>
     <path id="m05cf1bb93c" d="M -0 3 
L 3 -3 
L -3 -3 
z
" style="stroke: #9467bd; stroke-linejoin: miter"/>
    </defs>
    <g clip-path="url(#p04a760591b)">
     <use xlink:href="#m05cf1bb93c" x="71.816727" y="261.216" style="fill: #9467bd; stroke: #9467bd; stroke-linejoin: miter"/>
     <use xlink:href="#m05cf1bb93c" x="136.812632" y="249.058547" style="fill: #9467bd; stroke: #9467bd; stroke-linejoin: miter"/>
     <use xlink:href="#m05cf1bb93c" x="201.808537" y="220.969984" style="fill: #9467bd; stroke: #9467bd; stroke-linejoin: miter"/>
     <use xlink:href="#m05cf1bb93c" x="266.804442" y="220.411344" style="fill: #9467bd; stroke: #9467bd; stroke-linejoin: miter"/>
     <use xlink:href="#m05cf1bb93c" x="331.800347" y="219.421373" style="fill: #9467bd; stroke: #9467bd; stroke-linejoin: miter"/>
    </g>
   </g>
   <g id="line2d_38">
    <path d="M 291.502886 273.312 
L 291.502886 7.2 
" clip-path="url(#p04a760591b)" style="fill: none; stroke-dasharray: 7.4,3.2; stroke-dashoffset: 0; stroke: #9467bd; stroke-width: 2"/>
    <g clip-path="url(#p04a760591b)">
     <use xlink:href="#m05cf1bb93c" x="291.502886" y="273.312" style="fill: #9467bd; stroke: #9467bd; stroke-linejoin: miter"/>
     <use xlink:href="#m05cf1bb93c" x="291.502886" y="7.2" style="fill: #9467bd; stroke: #9467bd; stroke-linejoin: miter"/>
    </g>
   </g>
   <g id="line2d_39">
    <path d="M 71.816727 261.216 
L 103.9897 261.216 
L 104.31468 252.630241 
L 104.639659 253.837035 
L 104.964639 254.190815 
L 105.289618 252.547858 
L 105.614598 251.621189 
L 105.939577 252.184169 
L 106.264557 250.540123 
L 106.589536 239.732248 
L 106.914516 250.36437 
L 107.239495 252.974262 
L 107.564475 250.529389 
L 107.889455 250.79618 
L 108.214434 239.649446 
L 108.539414 249.875036 
L 108.864393 250.469012 
L 109.189373 247.54856 
L 109.514352 246.893175 
L 109.839332 249.423109 
L 110.164311 249.127186 
L 110.81427 251.096287 
L 111.13925 250.170342 
L 111.464229 249.836683 
L 111.789209 249.283281 
L 112.114188 249.503302 
L 112.439168 251.684446 
L 112.764147 245.379563 
L 113.089127 251.429192 
L 113.414106 245.467326 
L 113.739086 248.599808 
L 114.064066 247.035449 
L 114.389045 242.464647 
L 114.714025 242.327134 
L 115.039004 248.730276 
L 115.363984 249.186454 
L 115.688963 247.973241 
L 116.338922 249.454894 
L 116.663902 248.906791 
L 116.988881 249.521294 
L 117.313861 248.634227 
L 117.63884 237.95535 
L 117.96382 246.810302 
L 118.288799 247.391009 
L 118.613779 246.647622 
L 118.938758 247.056937 
L 119.263738 249.215959 
L 119.588717 247.760032 
L 119.913697 241.815292 
L 120.563656 249.275242 
L 120.888636 232.933444 
L 121.213615 237.708859 
L 121.538595 238.102504 
L 121.863574 241.34898 
L 122.188554 205.112004 
L 122.513533 241.675152 
L 122.838513 227.414802 
L 123.163492 241.081796 
L 123.488472 229.68308 
L 123.813451 237.758739 
L 124.138431 238.989152 
L 124.46341 245.286663 
L 124.78839 243.055876 
L 125.113369 245.907602 
L 125.438349 243.115629 
L 125.763328 245.996234 
L 126.088308 231.183096 
L 126.413287 246.714286 
L 126.738267 245.892588 
L 127.063247 247.475625 
L 127.388226 241.335407 
L 127.713206 248.687521 
L 128.038185 246.756302 
L 128.363165 249.058196 
L 128.688144 249.664199 
L 129.013124 249.653804 
L 129.338103 248.327617 
L 129.663083 249.58112 
L 129.988062 250.101302 
L 130.313042 218.414543 
L 130.638021 218.413819 
L 130.963001 246.561287 
L 131.28798 250.660593 
L 131.61296 251.27011 
L 131.937939 249.765576 
L 132.262919 251.088692 
L 132.587898 251.289651 
L 132.912878 246.873414 
L 133.237857 250.582161 
L 133.562837 251.250713 
L 134.212796 251.425298 
L 134.537776 251.139198 
L 134.862755 251.463299 
L 135.187735 251.42139 
L 135.512714 251.068818 
L 135.837694 251.134868 
L 136.162673 251.338491 
L 136.487653 251.757553 
L 136.812632 251.042303 
L 137.137612 252.085764 
L 137.462591 251.244248 
L 137.787571 249.865532 
L 138.11255 252.026557 
L 138.43753 252.269386 
L 138.762509 252.06043 
L 139.087489 252.344793 
L 140.062428 252.210321 
L 140.387407 252.498553 
L 140.712387 245.061803 
L 141.037366 252.573224 
L 141.362346 252.7217 
L 142.012305 252.722374 
L 142.337284 250.71568 
L 142.662264 252.850123 
L 143.312223 252.892835 
L 143.637202 252.793788 
L 144.287161 252.943156 
L 145.587079 253.047134 
L 145.912059 252.903594 
L 146.562018 252.940749 
L 146.886998 251.980555 
L 147.211977 252.771121 
L 147.536957 253.056975 
L 147.861936 253.058045 
L 148.186916 252.686955 
L 148.511895 252.953665 
L 151.436711 253.146078 
L 151.76169 249.232299 
L 152.08667 249.284211 
L 152.411649 248.401827 
L 152.736629 248.692378 
L 153.061609 248.417852 
L 153.386588 248.740686 
L 153.711568 248.363674 
L 154.036547 248.901945 
L 154.361527 248.624207 
L 154.686506 249.060401 
L 155.011486 248.79207 
L 155.336465 249.224131 
L 155.661445 249.000453 
L 155.986424 249.334105 
L 156.311404 249.13641 
L 156.636383 249.524207 
L 156.961363 249.276942 
L 157.286342 249.697959 
L 157.611322 249.293271 
L 157.936301 249.761229 
L 158.261281 249.639094 
L 158.58626 249.869158 
L 158.91124 249.774265 
L 159.236219 246.66958 
L 159.561199 249.933533 
L 159.886179 250.062798 
L 160.536138 250.078273 
L 160.861117 250.111708 
L 161.186097 248.389153 
L 161.511076 248.075111 
L 161.836056 242.475871 
L 162.161035 248.419467 
L 162.810994 247.868671 
L 163.135974 248.510459 
L 163.460953 248.652823 
L 163.785933 248.654408 
L 164.110912 248.865205 
L 164.435892 247.449219 
L 164.760871 248.905818 
L 165.085851 248.862461 
L 165.73581 249.124932 
L 166.06079 248.774837 
L 166.385769 248.9585 
L 166.710749 248.864903 
L 167.035728 249.016133 
L 167.360708 248.24003 
L 167.685687 249.067367 
L 168.010667 248.503665 
L 168.335646 248.436664 
L 168.985605 248.691296 
L 169.310585 248.312744 
L 169.635564 248.715124 
L 171.585441 248.978926 
L 172.88536 249.047667 
L 173.210339 249.067808 
L 173.860298 248.80845 
L 174.835237 248.831129 
L 175.160216 248.879471 
L 175.485196 248.761738 
L 175.810175 248.900723 
L 176.135155 248.742746 
L 176.460134 248.973739 
L 176.785114 248.823764 
L 177.110093 248.416681 
L 177.435073 248.827046 
L 178.085032 248.898694 
L 178.410011 248.58743 
L 178.734991 248.612021 
L 179.70993 248.31921 
L 180.034909 248.301872 
L 180.684868 247.606355 
L 181.009848 248.156475 
L 181.334827 248.401532 
L 181.984786 248.47152 
L 182.309766 248.499628 
L 182.634745 248.2185 
L 187.184459 248.421495 
L 187.509438 247.636248 
L 188.159397 247.5901 
L 188.809356 247.66428 
L 189.134336 245.584771 
L 189.459315 244.964457 
L 189.784295 245.292393 
L 190.109274 244.969829 
L 190.434254 245.409324 
L 190.759233 245.149218 
L 191.084213 245.603269 
L 191.409192 245.322081 
L 191.734172 245.774548 
L 192.059152 245.472735 
L 192.384131 245.89885 
L 192.709111 245.62367 
L 193.03409 245.981095 
L 193.35907 245.763932 
L 193.684049 245.952658 
L 194.009029 245.375214 
L 194.334008 244.368839 
L 194.658988 245.62315 
L 194.983967 245.756524 
L 195.308947 245.630689 
L 195.633926 245.975977 
L 195.958906 243.100121 
L 196.283885 246.068274 
L 196.608865 245.747182 
L 196.933844 245.916918 
L 197.258824 245.697574 
L 197.583803 245.973585 
L 197.908783 243.700806 
L 198.233762 245.778157 
L 198.558742 244.998082 
L 198.883722 245.880266 
L 199.208701 245.765942 
L 199.533681 245.917882 
L 199.85866 245.86899 
L 200.18364 246.011669 
L 200.508619 245.964329 
L 200.833599 246.097077 
L 201.158578 246.060701 
L 201.483558 246.166197 
L 201.808537 246.071261 
L 202.133517 246.164727 
L 202.458496 246.129453 
L 203.108455 246.196658 
L 204.083394 246.256381 
L 204.733353 246.311007 
L 205.383312 245.391737 
L 205.708292 245.148927 
L 206.033271 245.279074 
L 206.358251 245.249785 
L 206.68323 245.359229 
L 207.658169 245.294824 
L 207.983148 245.485288 
L 209.608046 245.659395 
L 210.582984 245.768848 
L 213.83278 245.877622 
L 214.157759 245.606706 
L 215.457677 245.909524 
L 215.782657 244.794116 
L 216.107636 245.97134 
L 216.432616 245.884012 
L 217.082575 245.969711 
L 217.407554 244.963295 
L 217.732534 245.995362 
L 218.057514 245.566076 
L 218.382493 245.668656 
L 218.707473 239.317878 
L 219.032452 245.540446 
L 219.357432 244.702253 
L 219.682411 245.838534 
L 220.007391 245.460173 
L 220.33237 245.839801 
L 220.65735 243.928411 
L 220.982329 245.827558 
L 221.307309 243.0743 
L 221.632288 245.866765 
L 221.957268 245.63172 
L 222.282247 245.784257 
L 222.932206 245.480715 
L 223.257186 245.985878 
L 223.907145 245.932018 
L 224.232124 245.967752 
L 224.557104 245.821516 
L 224.882084 246.02486 
L 225.207063 245.961062 
L 226.182002 246.054555 
L 226.831961 246.053716 
L 227.15694 245.891378 
L 231.706654 246.156875 
L 234.956449 246.19813 
L 237.881265 246.171923 
L 239.506162 246.194337 
L 244.380855 246.280597 
L 244.705835 244.973658 
L 245.030814 244.567169 
L 245.355794 244.707177 
L 245.680773 244.539526 
L 246.005753 244.767366 
L 246.330732 244.595516 
L 246.655712 244.82609 
L 246.980691 244.682469 
L 247.305671 244.904548 
L 247.63065 244.767654 
L 247.95563 244.982313 
L 248.280609 244.830274 
L 248.605589 245.023319 
L 248.930568 244.900035 
L 249.255548 245.057298 
L 249.580527 244.949383 
L 249.905507 245.092265 
L 250.230486 244.980149 
L 250.555466 245.093544 
L 250.880446 245.022934 
L 251.205425 245.138589 
L 251.530405 245.085895 
L 251.855384 245.168934 
L 252.180364 245.11802 
L 252.505343 245.203351 
L 253.155302 245.24272 
L 254.130241 245.266687 
L 255.105179 245.349741 
L 259.329913 245.350724 
L 262.254729 245.364288 
L 262.904688 245.230479 
L 263.554647 244.221009 
L 263.879627 244.996019 
L 264.204606 244.993871 
L 264.529586 244.871197 
L 265.179545 245.0557 
L 265.504524 244.919394 
L 266.479463 245.089943 
L 266.804442 244.803402 
L 267.129422 245.088872 
L 267.779381 245.139259 
L 268.10436 245.050108 
L 268.42934 245.135768 
L 268.754319 244.983465 
L 269.079299 245.172328 
L 270.379217 245.219881 
L 270.704197 243.304274 
L 271.029176 244.855471 
L 275.25391 245.070732 
L 275.903869 244.845481 
L 276.553828 244.86948 
L 277.203787 244.702049 
L 277.853746 244.735971 
L 278.178726 244.799711 
L 278.503705 244.740241 
L 278.828685 237.061283 
L 279.478644 236.395832 
L 279.803623 236.914686 
L 280.128603 236.689683 
L 280.453582 237.28714 
L 280.778562 237.116017 
L 281.103541 237.673525 
L 281.428521 237.524604 
L 281.7535 238.010125 
L 282.07848 237.850177 
L 282.403459 238.338635 
L 282.728439 238.13347 
L 283.053419 238.575379 
L 283.378398 238.419152 
L 283.703378 238.816781 
L 284.028357 238.691483 
L 284.353337 239.044562 
L 284.678316 238.930807 
L 285.003296 239.258873 
L 285.328275 239.144504 
L 285.653255 239.443656 
L 285.978234 239.351866 
L 286.303214 239.621946 
L 286.628193 239.516861 
L 286.953173 239.765853 
L 287.278152 239.667906 
L 287.603132 239.881719 
L 287.928111 239.785845 
L 288.253091 239.961983 
L 288.57807 239.933757 
L 288.90305 240.078638 
L 289.228029 240.070019 
L 289.877989 240.194378 
L 291.177907 240.405972 
L 296.377579 240.89944 
L 296.702559 240.702497 
L 298.977415 240.835316 
L 299.952354 240.833211 
L 300.927292 240.871699 
L 301.577251 240.815779 
L 314.901412 241.095439 
L 322.375941 241.33788 
L 323.0259 241.235239 
L 325.625736 241.309585 
L 356.823771 241.87029 
L 358.448668 241.858577 
L 359.423607 241.848037 
L 360.723525 241.87982 
L 362.673402 241.763154 
L 362.998382 241.700592 
L 363.323361 241.813005 
L 364.2983 241.88183 
L 365.598218 241.963431 
L 371.772829 242.148674 
L 380.222296 242.231725 
L 386.071928 242.18402 
L 390.621641 242.327626 
L 396.471273 242.405339 
L 396.471273 242.405339 
" clip-path="url(#p04a760591b)" style="fill: none; stroke: #8c564b; stroke-width: 2; stroke-linecap: square"/>
    <defs>
     <path id="m77b2daf89b" d="M -0 4.242641 
L 2.545584 0 
L 0 -4.242641 
L -2.545584 -0 
z
" style="stroke: #8c564b; stroke-linejoin: miter"/>
    </defs>
    <g clip-path="url(#p04a760591b)">
     <use xlink:href="#m77b2daf89b" x="71.816727" y="261.216" style="fill: #8c564b; stroke: #8c564b; stroke-linejoin: miter"/>
     <use xlink:href="#m77b2daf89b" x="136.812632" y="251.042303" style="fill: #8c564b; stroke: #8c564b; stroke-linejoin: miter"/>
     <use xlink:href="#m77b2daf89b" x="201.808537" y="246.071261" style="fill: #8c564b; stroke: #8c564b; stroke-linejoin: miter"/>
     <use xlink:href="#m77b2daf89b" x="266.804442" y="244.803402" style="fill: #8c564b; stroke: #8c564b; stroke-linejoin: miter"/>
     <use xlink:href="#m77b2daf89b" x="331.800347" y="241.458768" style="fill: #8c564b; stroke: #8c564b; stroke-linejoin: miter"/>
    </g>
   </g>
   <g id="line2d_40">
    <path d="M 128.688144 273.312 
L 128.688144 7.2 
" clip-path="url(#p04a760591b)" style="fill: none; stroke-dasharray: 7.4,3.2; stroke-dashoffset: 0; stroke: #8c564b; stroke-width: 2"/>
    <g clip-path="url(#p04a760591b)">
     <use xlink:href="#m77b2daf89b" x="128.688144" y="273.312" style="fill: #8c564b; stroke: #8c564b; stroke-linejoin: miter"/>
     <use xlink:href="#m77b2daf89b" x="128.688144" y="7.2" style="fill: #8c564b; stroke: #8c564b; stroke-linejoin: miter"/>
    </g>
   </g>
   <g id="patch_3">
    <path d="M 55.584 273.312 
L 55.584 7.2 
" style="fill: none; stroke: #000000; stroke-width: 0.8; stroke-linejoin: miter; stroke-linecap: square"/>
   </g>
   <g id="patch_4">
    <path d="M 412.704 273.312 
L 412.704 7.2 
" style="fill: none; stroke: #000000; stroke-width: 0.8; stroke-linejoin: miter; stroke-linecap: square"/>
   </g>
   <g id="patch_5">
    <path d="M 55.584 273.312 
L 412.704 273.312 
" style="fill: none; stroke: #000000; stroke-width: 0.8; stroke-linejoin: miter; stroke-linecap: square"/>
   </g>
   <g id="patch_6">
    <path d="M 55.584 7.2 
L 412.704 7.2 
" style="fill: none; stroke: #000000; stroke-width: 0.8; stroke-linejoin: miter; stroke-linecap: square"/>
   </g>
   <g id="axes_2">
    <g id="patch_7">
     <path d="M 207.36 166.8672 
L 403.776 166.8672 
L 403.776 20.5056 
L 207.36 20.5056 
z
" style="fill: #ffffff"/>
    </g>
    <g id="matplotlib.axis_3">
     <g id="xtick_7">
      <g id="line2d_41">
       <path d="M 232.40304 166.8672 
L 232.40304 20.5056 
" clip-path="url(#p473422e57d)" style="fill: none; stroke: #b0b0b0; stroke-width: 0.8; stroke-linecap: square"/>
      </g>
      <g id="line2d_42">
       <defs>
        <path id="maa2b382cc3" d="M 0 0 
L 0 3.5 
" style="stroke: #000000; stroke-width: 2"/>
       </defs>
       <g>
        <use xlink:href="#maa2b382cc3" x="232.40304" y="166.8672" style="stroke: #000000; stroke-width: 2"/>
       </g>
      </g>
      <g id="text_15">
       <!-- 200 -->
       <g transform="translate(219.04179 184.505012) scale(0.14 -0.14)">
        <use xlink:href="#DejaVuSans-32"/>
        <use xlink:href="#DejaVuSans-30" x="63.623047"/>
        <use xlink:href="#DejaVuSans-30" x="127.246094"/>
       </g>
      </g>
     </g>
     <g id="xtick_8">
      <g id="line2d_43">
       <path d="M 281.50704 166.8672 
L 281.50704 20.5056 
" clip-path="url(#p473422e57d)" style="fill: none; stroke: #b0b0b0; stroke-width: 0.8; stroke-linecap: square"/>
      </g>
      <g id="line2d_44">
       <g>
        <use xlink:href="#maa2b382cc3" x="281.50704" y="166.8672" style="stroke: #000000; stroke-width: 2"/>
       </g>
      </g>
      <g id="text_16">
       <!-- 400 -->
       <g transform="translate(268.14579 184.505012) scale(0.14 -0.14)">
        <use xlink:href="#DejaVuSans-34"/>
        <use xlink:href="#DejaVuSans-30" x="63.623047"/>
        <use xlink:href="#DejaVuSans-30" x="127.246094"/>
       </g>
      </g>
     </g>
     <g id="xtick_9">
      <g id="line2d_45">
       <path d="M 330.61104 166.8672 
L 330.61104 20.5056 
" clip-path="url(#p473422e57d)" style="fill: none; stroke: #b0b0b0; stroke-width: 0.8; stroke-linecap: square"/>
      </g>
      <g id="line2d_46">
       <g>
        <use xlink:href="#maa2b382cc3" x="330.61104" y="166.8672" style="stroke: #000000; stroke-width: 2"/>
       </g>
      </g>
      <g id="text_17">
       <!-- 600 -->
       <g transform="translate(317.24979 184.505012) scale(0.14 -0.14)">
        <use xlink:href="#DejaVuSans-36"/>
        <use xlink:href="#DejaVuSans-30" x="63.623047"/>
        <use xlink:href="#DejaVuSans-30" x="127.246094"/>
       </g>
      </g>
     </g>
     <g id="xtick_10">
      <g id="line2d_47">
       <path d="M 379.71504 166.8672 
L 379.71504 20.5056 
" clip-path="url(#p473422e57d)" style="fill: none; stroke: #b0b0b0; stroke-width: 0.8; stroke-linecap: square"/>
      </g>
      <g id="line2d_48">
       <g>
        <use xlink:href="#maa2b382cc3" x="379.71504" y="166.8672" style="stroke: #000000; stroke-width: 2"/>
       </g>
      </g>
      <g id="text_18">
       <!-- 800 -->
       <g transform="translate(366.35379 184.505012) scale(0.14 -0.14)">
        <use xlink:href="#DejaVuSans-38"/>
        <use xlink:href="#DejaVuSans-30" x="63.623047"/>
        <use xlink:href="#DejaVuSans-30" x="127.246094"/>
       </g>
      </g>
     </g>
    </g>
    <g id="matplotlib.axis_4">
     <g id="ytick_9">
      <g id="line2d_49">
       <path d="M 207.36 128.648847 
L 403.776 128.648847 
" clip-path="url(#p473422e57d)" style="fill: none; stroke: #b0b0b0; stroke-width: 0.8; stroke-linecap: square"/>
      </g>
      <g id="line2d_50">
       <defs>
        <path id="m3c27f6da3d" d="M 0 0 
L -3.5 0 
" style="stroke: #000000; stroke-width: 2"/>
       </defs>
       <g>
        <use xlink:href="#m3c27f6da3d" x="207.36" y="128.648847" style="stroke: #000000; stroke-width: 2"/>
       </g>
      </g>
      <g id="text_19">
       <!-- 10 -->
       <g transform="translate(182.545 133.967753) scale(0.14 -0.14)">
        <use xlink:href="#DejaVuSans-31"/>
        <use xlink:href="#DejaVuSans-30" x="63.623047"/>
       </g>
      </g>
     </g>
     <g id="ytick_10">
      <g id="line2d_51">
       <path d="M 207.36 86.189907 
L 403.776 86.189907 
" clip-path="url(#p473422e57d)" style="fill: none; stroke: #b0b0b0; stroke-width: 0.8; stroke-linecap: square"/>
      </g>
      <g id="line2d_52">
       <g>
        <use xlink:href="#m3c27f6da3d" x="207.36" y="86.189907" style="stroke: #000000; stroke-width: 2"/>
       </g>
      </g>
      <g id="text_20">
       <!-- 20 -->
       <g transform="translate(182.545 91.508813) scale(0.14 -0.14)">
        <use xlink:href="#DejaVuSans-32"/>
        <use xlink:href="#DejaVuSans-30" x="63.623047"/>
       </g>
      </g>
     </g>
     <g id="ytick_11">
      <g id="line2d_53">
       <path d="M 207.36 43.730967 
L 403.776 43.730967 
" clip-path="url(#p473422e57d)" style="fill: none; stroke: #b0b0b0; stroke-width: 0.8; stroke-linecap: square"/>
      </g>
      <g id="line2d_54">
       <g>
        <use xlink:href="#m3c27f6da3d" x="207.36" y="43.730967" style="stroke: #000000; stroke-width: 2"/>
       </g>
      </g>
      <g id="text_21">
       <!-- 30 -->
       <g transform="translate(182.545 49.049873) scale(0.14 -0.14)">
        <use xlink:href="#DejaVuSans-33"/>
        <use xlink:href="#DejaVuSans-30" x="63.623047"/>
       </g>
      </g>
     </g>
    </g>
    <g id="line2d_55">
     <path d="M 183.29904 171.107787 
L 207.60552 171.107787 
L 207.85104 163.978144 
L 208.09656 165.520581 
L 208.5876 166.404228 
L 209.07864 166.747678 
L 210.06072 167.23225 
L 211.77936 167.756083 
L 216.44424 168.605118 
L 219.14496 168.889611 
L 223.07328 169.188612 
L 227.73816 169.369408 
L 229.4568 169.213599 
L 229.70232 168.783005 
L 233.1396 168.786836 
L 233.38512 168.785224 
L 233.63064 168.669611 
L 238.78656 168.779619 
L 239.2776 168.648764 
L 239.52312 168.657273 
L 239.76864 168.26499 
L 240.25968 168.293679 
L 240.5052 167.588804 
L 241.7328 167.906325 
L 245.66112 168.205638 
L 245.90664 167.723039 
L 248.60736 167.868173 
L 250.326 167.901402 
L 255.48192 168.020644 
L 260.1468 168.118238 
L 281.26152 168.241682 
L 286.41744 168.23705 
L 291.57336 168.175458 
L 313.42464 168.179921 
L 314.1612 168.13739 
L 320.54472 168.134371 
L 322.26336 168.123475 
L 332.82072 168.136857 
L 335.76696 168.145352 
L 343.6236 168.151917 
L 344.11464 168.091351 
L 368.42112 168.066169 
L 383.15232 168.08892 
L 390.51792 168.079047 
L 390.76344 167.685569 
L 402.79392 167.64024 
L 411.1416 167.623714 
L 417.2796 167.635724 
L 417.77064 167.526611 
L 422.811252 167.55365 
L 422.811252 167.55365 
" clip-path="url(#p473422e57d)" style="fill: none; stroke: #1f77b4; stroke-width: 1.5; stroke-linecap: square"/>
    </g>
    <g id="line2d_56">
     <path d="M 207.85104 166.8672 
L 207.85104 20.5056 
" clip-path="url(#p473422e57d)" style="fill: none; stroke-dasharray: 5.55,2.4; stroke-dashoffset: 0; stroke: #1f77b4; stroke-width: 1.5"/>
    </g>
    <g id="line2d_57">
     <path d="M 183.29904 171.107787 
L 207.60552 171.107787 
L 207.85104 159.666586 
L 208.09656 163.592559 
L 208.34208 164.689292 
L 208.5876 163.708386 
L 208.83312 164.9235 
L 209.07864 32.421093 
L 209.32416 53.341041 
L 209.8152 71.978836 
L 210.06072 78.180674 
L 210.30624 67.616193 
L 210.55176 85.570936 
L 210.79728 87.161695 
L 211.0428 74.895563 
L 211.28832 91.031184 
L 211.53384 51.749539 
L 211.77936 93.62288 
L 212.02488 93.740211 
L 212.2704 96.477572 
L 212.51592 87.380177 
L 212.76144 98.77349 
L 213.00696 86.895422 
L 213.25248 100.708418 
L 213.498 20.510907 
L 213.74352 102.569114 
L 213.98904 83.872382 
L 214.23456 104.000872 
L 214.48008 72.862803 
L 214.7256 103.876966 
L 214.97112 38.10345 
L 215.21664 106.091842 
L 215.46216 94.105506 
L 215.70768 106.432154 
L 215.9532 102.190622 
L 216.19872 107.466693 
L 216.44424 104.853771 
L 216.68976 106.759532 
L 216.93528 106.218975 
L 217.1808 105.322642 
L 217.42632 107.986733 
L 217.67184 97.266839 
L 217.91736 107.625457 
L 218.16288 102.168494 
L 218.4084 109.327504 
L 218.65392 107.847958 
L 218.89944 110.12922 
L 219.14496 88.340567 
L 219.39048 110.214841 
L 219.636 108.60052 
L 219.88152 110.660152 
L 220.12704 86.358665 
L 220.37256 112.047948 
L 220.61808 109.818761 
L 220.8636 111.589515 
L 221.10912 99.822799 
L 221.35464 112.450348 
L 221.60016 109.247117 
L 221.84568 112.531626 
L 222.0912 110.412272 
L 222.33672 112.672496 
L 222.58224 108.063364 
L 222.82776 112.810282 
L 223.07328 80.047686 
L 223.3188 113.04745 
L 223.56432 111.857246 
L 223.80984 113.335143 
L 224.05536 110.906879 
L 224.30088 113.351026 
L 224.5464 111.030193 
L 224.79192 112.922589 
L 225.03744 107.788884 
L 225.28296 113.668734 
L 225.52848 112.649246 
L 225.774 113.504728 
L 226.26504 113.278463 
L 226.75608 113.926189 
L 227.24712 113.815261 
L 227.49264 113.960656 
L 227.98368 114.055016 
L 228.47472 114.202302 
L 228.72024 113.598437 
L 228.96576 113.770831 
L 229.21128 113.760583 
L 229.70232 113.900922 
L 229.94784 113.950481 
L 230.19336 113.619502 
L 230.43888 112.697831 
L 230.92992 113.26296 
L 231.17544 113.286433 
L 231.42096 113.464698 
L 231.66648 113.374742 
L 232.15752 113.677497 
L 232.89408 113.776557 
L 233.38512 113.916628 
L 233.87616 113.974687 
L 234.3672 114.064212 
L 234.61272 113.762256 
L 235.10376 114.072353 
L 235.34928 114.017754 
L 236.08584 114.13827 
L 237.80448 114.272806 
L 238.05 114.14664 
L 239.76864 114.295513 
L 240.01416 114.129681 
L 240.5052 114.281448 
L 241.48728 114.317489 
L 241.7328 114.214133 
L 241.97832 114.235768 
L 242.46936 114.034061 
L 242.71488 114.098222 
L 243.20592 114.055465 
L 243.45144 113.7387 
L 243.94248 113.809457 
L 244.67904 113.821798 
L 245.90664 113.957274 
L 246.39768 113.964535 
L 246.6432 113.938824 
L 246.88872 113.33579 
L 247.13424 113.980648 
L 248.60736 114.01096 
L 251.06256 114.095977 
L 251.30808 113.180262 
L 251.5536 114.099996 
L 252.29016 114.109223 
L 252.7812 114.071201 
L 253.76328 114.084373 
L 254.0088 113.854623 
L 254.74536 113.916456 
L 256.21848 113.961625 
L 256.464 111.872136 
L 256.95504 112.206185 
L 257.93712 112.373018 
L 258.42816 112.407929 
L 258.9192 112.355009 
L 259.90128 112.433231 
L 263.33856 112.481926 
L 263.58408 112.480063 
L 263.8296 111.946606 
L 264.56616 112.054877 
L 265.79376 112.139326 
L 266.2848 112.150533 
L 266.53032 111.972779 
L 266.77584 112.001751 
L 267.02136 110.717465 
L 267.5124 110.953159 
L 270.45864 111.289122 
L 270.70416 111.246515 
L 270.94968 111.325189 
L 271.68624 111.258993 
L 272.4228 111.320174 
L 273.15936 111.325643 
L 273.89592 111.387426 
L 274.14144 111.321106 
L 274.63248 111.386049 
L 275.36904 111.392532 
L 277.08768 111.380422 
L 277.3332 111.163875 
L 277.57872 111.171707 
L 277.82424 111.065294 
L 278.80632 111.121508 
L 280.27944 111.169005 
L 280.52496 110.882728 
L 282.2436 111.029208 
L 284.45328 111.075111 
L 285.68088 111.112978 
L 286.90848 111.117245 
L 288.3816 111.028371 
L 293.53752 111.106852 
L 299.18448 111.1085 
L 299.67552 111.062469 
L 302.13072 111.1326 
L 305.32248 111.180965 
L 311.95152 111.208348 
L 312.19704 109.606669 
L 312.68808 109.863053 
L 315.14328 110.163945 
L 316.6164 110.226772 
L 316.86192 100.426112 
L 317.10744 102.036883 
L 317.35296 102.147513 
L 317.844 103.240941 
L 318.08952 103.218602 
L 318.33504 103.472956 
L 319.80816 103.717772 
L 320.54472 103.762108 
L 321.28128 103.892533 
L 321.77232 103.94248 
L 322.50888 103.977807 
L 324.22752 104.134468 
L 327.6648 104.414927 
L 327.91032 104.324012 
L 330.12 104.517987 
L 335.76696 104.862527 
L 336.258 104.830363 
L 339.69528 105.045642 
L 340.67736 105.085916 
L 345.58776 105.308978 
L 347.55192 105.386442 
L 355.40856 105.650931 
L 356.63616 105.677868 
L 357.61824 105.484592 
L 361.30104 105.743098 
L 364.98384 105.884202 
L 366.21144 105.869947 
L 369.4032 106.016425 
L 373.82256 106.200337 
L 374.06808 105.883117 
L 374.3136 106.22063 
L 390.51792 106.661216 
L 391.00896 106.634262 
L 393.21864 106.6888 
L 396.16488 106.767461 
L 397.14696 106.736226 
L 401.56632 106.843099 
L 401.81184 106.474891 
L 402.30288 106.713869 
L 403.28496 106.853174 
L 404.02152 106.859862 
L 404.26704 106.897093 
L 404.51256 106.774114 
L 404.75808 106.912667 
L 405.0036 106.865252 
L 405.49464 106.942668 
L 407.94984 107.009253 
L 408.44088 106.963019 
L 418.75272 107.177977 
L 422.811252 107.279972 
L 422.811252 107.279972 
" clip-path="url(#p473422e57d)" style="fill: none; stroke: #ff7f0e; stroke-width: 1.5; stroke-linecap: square"/>
    </g>
    <g id="line2d_58">
     <path d="M 213.498 166.8672 
L 213.498 20.5056 
" clip-path="url(#p473422e57d)" style="fill: none; stroke-dasharray: 5.55,2.4; stroke-dashoffset: 0; stroke: #ff7f0e; stroke-width: 1.5"/>
    </g>
    <g id="line2d_59">
     <path d="M 183.29904 171.107787 
L 207.60552 171.107787 
L 207.85104 164.387207 
L 208.09656 166.284295 
L 208.34208 166.979241 
L 208.83312 166.55302 
L 209.8152 167.099602 
L 210.30624 166.761673 
L 210.55176 166.390532 
L 211.0428 166.646728 
L 211.77936 166.605942 
L 213.74352 166.340229 
L 214.23456 165.835918 
L 214.97112 165.774896 
L 215.21664 165.435164 
L 215.9532 165.651344 
L 216.19872 165.331488 
L 216.44424 165.203359 
L 217.1808 165.309812 
L 217.67184 165.151246 
L 218.89944 165.294517 
L 219.88152 165.350021 
L 221.10912 165.10848 
L 221.35464 164.966463 
L 223.07328 164.988208 
L 223.3188 164.222461 
L 224.30088 164.318633 
L 224.79192 164.279374 
L 225.03744 163.966541 
L 226.51056 164.145569 
L 227.73816 164.240439 
L 227.98368 163.968407 
L 232.15752 164.189317 
L 234.12168 164.278953 
L 234.3672 164.269971 
L 234.61272 164.143872 
L 237.55896 164.308311 
L 237.80448 164.12392 
L 239.03208 164.175119 
L 241.97832 164.300156 
L 245.90664 164.286343 
L 246.15216 163.860937 
L 248.36184 163.884155 
L 248.60736 163.753058 
L 252.04464 163.827141 
L 252.7812 163.513156 
L 260.39232 163.618271 
L 261.3744 163.609025 
L 280.52496 163.562678 
L 281.50704 163.530696 
L 283.71672 163.49812 
L 285.9264 163.513569 
L 286.66296 163.403643 
L 294.5196 163.476127 
L 295.99272 163.482501 
L 304.09488 163.540601 
L 306.05904 163.508359 
L 315.3888 163.576599 
L 315.87984 163.478285 
L 316.6164 163.489407 
L 316.86192 163.309105 
L 322.7544 163.325138 
L 322.99992 163.115655 
L 331.59312 163.091568 
L 331.83864 162.964885 
L 342.396 163.026656 
L 344.36016 163.018199 
L 353.4444 163.052142 
L 371.61288 163.002712 
L 377.75088 162.999384 
L 393.21864 162.992345 
L 394.20072 162.963622 
L 409.17744 162.943568 
L 410.65056 162.928887 
L 422.811252 162.942932 
L 422.811252 162.942932 
" clip-path="url(#p473422e57d)" style="fill: none; stroke: #2ca02c; stroke-width: 1.5; stroke-linecap: square"/>
    </g>
    <g id="line2d_60">
     <path d="M 403.28496 166.8672 
L 403.28496 20.5056 
" clip-path="url(#p473422e57d)" style="fill: none; stroke-dasharray: 5.55,2.4; stroke-dashoffset: 0; stroke: #2ca02c; stroke-width: 1.5"/>
    </g>
    <g id="line2d_61">
     <path d="M 183.29904 171.107787 
L 207.60552 171.107787 
L 207.85104 166.499704 
L 208.09656 167.290908 
L 208.34208 167.531459 
L 209.07864 167.225901 
L 209.32416 165.645903 
L 209.8152 166.341538 
L 210.06072 166.550267 
L 210.30624 166.508386 
L 210.55176 166.722637 
L 211.28832 166.768952 
L 211.53384 166.710778 
L 212.02488 166.782406 
L 212.51592 166.735303 
L 213.00696 166.849845 
L 213.25248 166.549015 
L 213.98904 166.661518 
L 214.48008 166.465049 
L 214.7256 166.5068 
L 214.97112 165.541152 
L 215.9532 165.689116 
L 216.19872 165.07466 
L 216.68976 165.125989 
L 216.93528 165.215315 
L 217.1808 165.076053 
L 218.4084 165.260024 
L 218.65392 165.182058 
L 219.88152 165.396864 
L 222.33672 165.660492 
L 222.82776 165.603138 
L 224.05536 165.715876 
L 225.03744 165.580674 
L 226.01952 165.615422 
L 226.26504 165.384267 
L 227.98368 165.396977 
L 228.72024 165.442166 
L 228.96576 165.211874 
L 229.4568 165.248311 
L 229.70232 164.038461 
L 231.17544 164.147883 
L 231.42096 164.063518 
L 232.40304 164.199497 
L 232.89408 164.194601 
L 234.12168 164.29792 
L 234.3672 163.938155 
L 235.10376 164.153763 
L 235.5948 164.131696 
L 237.06792 164.239903 
L 239.03208 164.317197 
L 239.52312 164.252859 
L 241.97832 164.281861 
L 242.71488 164.264342 
L 246.39768 164.309127 
L 250.08048 164.315797 
L 253.51776 164.346439 
L 254.25432 164.299951 
L 255.97296 164.257039 
L 259.16472 164.218996 
L 259.41024 163.993471 
L 263.8296 164.053618 
L 264.32064 163.993306 
L 268.24896 164.000025 
L 268.74 163.938683 
L 272.17728 163.920689 
L 272.4228 162.307243 
L 275.12352 162.304748 
L 276.35112 162.261053 
L 279.29736 162.249051 
L 280.27944 162.209324 
L 284.20776 162.232637 
L 292.0644 162.253076 
L 292.55544 162.18966 
L 292.80096 161.609217 
L 296.23824 161.599794 
L 296.9748 161.561825 
L 300.16656 161.571602 
L 300.41208 161.279429 
L 301.8852 161.307416 
L 312.9336 161.399634 
L 316.86192 161.392704 
L 317.59848 161.357799 
L 319.80816 161.281895 
L 321.03576 161.272984 
L 325.70064 161.291219 
L 341.1684 161.368957 
L 341.90496 161.316105 
L 352.2168 161.244209 
L 352.95336 161.200934 
L 391.00896 161.113305 
L 391.5 161.004716 
L 397.638 160.962359 
L 398.8656 160.940554 
L 408.44088 160.937639 
L 422.811252 160.808697 
L 422.811252 160.808697 
" clip-path="url(#p473422e57d)" style="fill: none; stroke: #d62728; stroke-width: 1.5; stroke-linecap: square"/>
    </g>
    <g id="line2d_62">
     <path clip-path="url(#p473422e57d)" style="fill: none; stroke-dasharray: 5.55,2.4; stroke-dashoffset: 0; stroke: #d62728; stroke-width: 1.5"/>
    </g>
    <g id="line2d_63">
     <path d="M 183.29904 171.107787 
L 207.60552 171.107787 
L 207.85104 166.526263 
L 208.09656 166.983946 
L 208.34208 167.107785 
L 208.5876 166.954088 
L 208.83312 167.030299 
L 209.56968 166.73892 
L 209.8152 166.379772 
L 210.06072 166.266713 
L 210.79728 166.446581 
L 211.0428 166.240772 
L 211.53384 166.187427 
L 212.51592 165.840333 
L 216.44424 165.716768 
L 216.68976 165.331467 
L 217.67184 165.383155 
L 218.4084 165.406606 
L 219.14496 165.424874 
L 219.636 165.38756 
L 220.61808 165.418074 
L 221.10912 165.393651 
L 222.0912 165.409856 
L 222.33672 165.235728 
L 222.82776 165.293574 
L 223.07328 165.00133 
L 224.30088 165.202577 
L 224.79192 165.230191 
L 225.03744 163.47087 
L 226.75608 163.509958 
L 227.49264 163.550459 
L 227.98368 163.54479 
L 228.72024 163.559763 
L 229.21128 163.506735 
L 236.57688 163.611827 
L 237.06792 163.520212 
L 238.78656 163.580283 
L 239.52312 163.585942 
L 240.01416 163.305399 
L 243.45144 163.365851 
L 245.66112 163.346797 
L 245.90664 147.240312 
L 246.88872 147.533976 
L 248.60736 147.701508 
L 249.58944 147.691849 
L 250.08048 147.629219 
L 252.04464 147.689706 
L 252.53568 147.440958 
L 254.0088 147.440825 
L 255.97296 147.399671 
L 268.98552 147.349398 
L 269.23104 146.780974 
L 271.93176 146.743109 
L 272.17728 146.245908 
L 274.38696 146.261852 
L 274.878 146.141076 
L 277.82424 146.183478 
L 278.31528 146.078649 
L 281.016 146.123395 
L 282.2436 146.015132 
L 288.13608 146.005932 
L 293.53752 145.994051 
L 293.78304 145.818924 
L 319.0716 145.849393 
L 319.56264 145.741812 
L 322.99992 145.717377 
L 333.55728 145.706186 
L 344.11464 145.676552 
L 344.36016 145.678153 
L 344.60568 144.937647 
L 344.8512 144.777571 
L 347.55192 144.809685 
L 348.04296 144.731623 
L 349.7616 144.72275 
L 358.60032 144.885187 
L 366.45696 144.983385 
L 367.43904 144.961391 
L 378.48744 145.077256 
L 395.91936 145.20871 
L 399.11112 145.231898 
L 405.49464 145.203447 
L 415.56096 145.201268 
L 422.811252 145.173051 
L 422.811252 145.173051 
" clip-path="url(#p473422e57d)" style="fill: none; stroke: #9467bd; stroke-width: 1.5; stroke-linecap: square"/>
    </g>
    <g id="line2d_64">
     <path d="M 349.27056 166.8672 
L 349.27056 20.5056 
" clip-path="url(#p473422e57d)" style="fill: none; stroke-dasharray: 5.55,2.4; stroke-dashoffset: 0; stroke: #9467bd; stroke-width: 1.5"/>
    </g>
    <g id="line2d_65">
     <path d="M 183.29904 171.107787 
L 207.60552 171.107787 
L 207.85104 165.762904 
L 208.09656 166.514168 
L 208.34208 166.734406 
L 208.83312 165.13474 
L 209.07864 165.485211 
L 209.32416 164.461745 
L 209.56968 157.733531 
L 209.8152 164.352334 
L 210.06072 165.977066 
L 210.30624 164.455062 
L 210.55176 164.621148 
L 210.79728 157.681984 
L 211.0428 164.047709 
L 211.28832 164.417476 
L 211.53384 162.599411 
L 211.77936 162.191415 
L 212.02488 163.766371 
L 212.2704 163.582151 
L 212.76144 164.807973 
L 213.00696 164.231545 
L 213.498 163.679324 
L 213.74352 163.816294 
L 213.98904 165.174119 
L 214.23456 161.249147 
L 214.48008 165.015216 
L 214.7256 161.303782 
L 214.97112 163.253843 
L 215.21664 162.279984 
L 215.46216 159.434528 
L 215.70768 159.348922 
L 215.9532 163.335063 
L 216.19872 163.619047 
L 216.44424 162.863787 
L 216.93528 163.786158 
L 217.1808 163.444949 
L 217.42632 163.827494 
L 217.67184 163.27527 
L 217.91736 156.627361 
L 218.16288 162.139823 
L 218.4084 162.501331 
L 218.65392 162.03855 
L 218.89944 162.293361 
L 219.14496 163.637415 
L 219.39048 162.731058 
L 219.636 159.030286 
L 220.12704 163.67432 
L 220.37256 153.501079 
L 220.61808 156.473912 
L 220.8636 156.718968 
L 221.10912 158.739993 
L 221.35464 136.181429 
L 221.60016 158.943044 
L 221.84568 150.065565 
L 222.0912 158.573663 
L 222.33672 151.477633 
L 222.58224 156.504964 
L 222.82776 157.270932 
L 223.07328 161.191314 
L 223.3188 159.802585 
L 223.56432 161.577866 
L 223.80984 159.839783 
L 224.05536 161.633043 
L 224.30088 152.411436 
L 224.5464 162.080051 
L 224.79192 161.56852 
L 225.03744 162.554006 
L 225.28296 158.731543 
L 225.52848 163.308447 
L 225.774 162.106207 
L 226.01952 163.539202 
L 226.26504 163.916457 
L 226.51056 163.909985 
L 226.75608 163.084396 
L 227.0016 163.864738 
L 227.24712 164.188566 
L 227.49264 144.462643 
L 227.73816 144.462193 
L 227.98368 161.984804 
L 228.2292 164.536741 
L 228.47472 164.916183 
L 228.72024 163.979567 
L 228.96576 164.803245 
L 229.21128 164.928348 
L 229.4568 162.179113 
L 229.70232 164.487914 
L 229.94784 164.904108 
L 230.43888 165.012792 
L 230.6844 164.834687 
L 230.92992 165.036449 
L 231.17544 165.010359 
L 231.42096 164.790873 
L 231.912 164.958752 
L 232.15752 165.21963 
L 232.40304 164.774366 
L 232.64856 165.423951 
L 232.89408 164.900083 
L 233.1396 164.041792 
L 233.38512 165.387093 
L 233.63064 165.538261 
L 233.87616 165.40818 
L 234.12168 165.585204 
L 234.85824 165.501491 
L 235.10376 165.680924 
L 235.34928 161.051333 
L 235.5948 165.727409 
L 236.08584 165.834754 
L 236.33136 165.820259 
L 236.57688 164.571034 
L 236.8224 165.899787 
L 239.03208 166.022432 
L 239.52312 165.947038 
L 239.76864 165.956204 
L 240.01416 165.358455 
L 240.25968 165.850605 
L 240.5052 166.028558 
L 240.75072 166.029224 
L 240.99624 165.79821 
L 241.24176 165.964245 
L 243.45144 166.084027 
L 243.69696 163.647587 
L 243.94248 163.679904 
L 244.188 163.130594 
L 244.43352 163.31147 
L 244.67904 163.14057 
L 244.92456 163.341544 
L 245.17008 163.106843 
L 245.4156 163.441932 
L 245.66112 163.269032 
L 245.90664 163.540575 
L 246.15216 163.373532 
L 246.39768 163.642502 
L 246.6432 163.503256 
L 246.88872 163.710964 
L 247.13424 163.587893 
L 247.37976 163.829308 
L 247.62528 163.675378 
L 247.8708 163.937473 
L 248.11632 163.685543 
L 248.36184 163.976861 
L 248.60736 163.900828 
L 248.85288 164.04405 
L 249.0984 163.984976 
L 249.34392 162.05222 
L 249.58944 164.084125 
L 250.08048 164.137771 
L 250.57152 164.195044 
L 250.81704 163.122704 
L 251.06256 162.927204 
L 251.30808 159.441515 
L 251.5536 163.141575 
L 252.04464 162.798689 
L 252.29016 163.19822 
L 253.02672 163.41906 
L 253.27224 162.537568 
L 253.51776 163.444343 
L 254.0088 163.481831 
L 254.25432 163.580748 
L 254.49984 163.362804 
L 254.74536 163.477139 
L 254.99088 163.418872 
L 255.2364 163.513017 
L 255.48192 163.029871 
L 255.72744 163.544912 
L 255.97296 163.193991 
L 256.21848 163.152281 
L 256.70952 163.310797 
L 256.95504 163.075137 
L 257.20056 163.32563 
L 258.9192 163.48461 
L 259.41024 163.513594 
L 259.90128 163.545186 
L 260.39232 163.383728 
L 261.61992 163.354649 
L 261.86544 163.441171 
L 262.11096 163.342826 
L 262.35648 163.486625 
L 262.602 163.393262 
L 262.84752 163.139841 
L 263.09304 163.395305 
L 263.58408 163.439908 
L 263.8296 163.246137 
L 264.32064 163.188016 
L 265.0572 163.068369 
L 265.54824 162.63539 
L 266.03928 163.13041 
L 269.47656 163.15321 
L 270.45864 163.142838 
L 270.70416 162.653999 
L 271.68624 162.67145 
L 271.93176 161.376895 
L 272.17728 160.990732 
L 272.4228 161.194881 
L 272.66832 160.994076 
L 272.91384 161.267674 
L 273.15936 161.105751 
L 273.40488 161.38841 
L 273.6504 161.213363 
L 273.89592 161.495037 
L 274.14144 161.307149 
L 274.38696 161.572418 
L 274.63248 161.401111 
L 274.878 161.623619 
L 275.12352 161.488428 
L 275.36904 161.605915 
L 275.61456 161.24644 
L 275.86008 160.619942 
L 276.1056 161.400787 
L 276.35112 161.483816 
L 276.59664 161.405481 
L 276.84216 161.620432 
L 277.08768 159.830129 
L 277.3332 161.67789 
L 277.57872 161.478001 
L 277.82424 161.583667 
L 278.06976 161.447118 
L 278.31528 161.618943 
L 278.5608 160.204072 
L 278.80632 161.497284 
L 279.05184 161.011664 
L 279.29736 161.560849 
L 279.54288 161.48968 
L 279.7884 161.584266 
L 280.03392 161.553829 
L 280.27944 161.642652 
L 280.52496 161.613181 
L 281.016 161.673175 
L 281.26152 161.738849 
L 281.50704 161.679749 
L 282.2436 161.772797 
L 283.4712 161.786652 
L 283.71672 161.828998 
L 284.20776 161.256726 
L 284.45328 161.10557 
L 285.18984 161.236489 
L 285.9264 161.196395 
L 286.41744 161.327075 
L 289.6092 161.523506 
L 291.57336 161.572024 
L 291.81888 161.579063 
L 292.0644 160.88469 
L 292.30992 161.617546 
L 292.80096 161.588932 
L 293.04648 161.616532 
L 293.292 160.990008 
L 293.53752 161.6325 
L 293.78304 161.365257 
L 294.02856 161.429116 
L 294.27408 157.475573 
L 294.5196 161.349302 
L 294.76512 160.827502 
L 295.01064 161.53487 
L 295.25616 161.299329 
L 295.50168 161.535659 
L 295.7472 160.345763 
L 295.99272 161.528037 
L 296.23824 159.814054 
L 296.48376 161.552445 
L 296.72928 161.406122 
L 296.9748 161.501081 
L 297.46584 161.312117 
L 297.71136 161.626596 
L 298.69344 161.524276 
L 298.93896 161.650863 
L 299.67552 161.642955 
L 300.41208 161.668827 
L 300.90312 161.583494 
L 304.3404 161.728808 
L 306.55008 161.758729 
L 312.68808 161.788263 
L 313.67016 161.810067 
L 313.91568 160.99646 
L 314.1612 160.743408 
L 314.40672 160.830568 
L 314.65224 160.7262 
L 314.89776 160.868037 
L 315.14328 160.761055 
L 315.3888 160.904594 
L 315.63432 160.815186 
L 315.87984 160.953436 
L 316.12536 160.868216 
L 316.37088 161.001848 
L 316.6164 160.907199 
L 316.86192 161.027375 
L 317.10744 160.950627 
L 317.35296 161.048528 
L 317.59848 160.981348 
L 317.844 161.070296 
L 318.08952 161.0005 
L 318.82608 161.099134 
L 319.56264 161.086329 
L 320.2992 161.163959 
L 321.5268 161.206224 
L 322.7544 161.245961 
L 324.71856 161.159634 
L 325.2096 161.238957 
L 327.6648 161.156338 
L 328.15584 160.527914 
L 328.40136 161.01038 
L 332.08416 161.002565 
L 332.5752 161.131442 
L 333.31176 161.14974 
L 333.55728 159.95722 
L 333.8028 160.922885 
L 337.24008 160.973864 
L 337.73112 160.952716 
L 339.44976 160.851151 
L 339.69528 156.070778 
L 340.18632 155.656515 
L 340.43184 155.979517 
L 340.67736 155.839446 
L 340.92288 156.21138 
L 341.1684 156.104851 
L 341.41392 156.451916 
L 341.65944 156.359208 
L 341.90496 156.661459 
L 342.15048 156.561887 
L 342.396 156.865966 
L 342.64152 156.738245 
L 342.88704 157.013346 
L 343.13256 156.916091 
L 343.37808 157.163626 
L 343.6236 157.085624 
L 343.86912 157.305426 
L 344.11464 157.234611 
L 344.36016 157.438841 
L 344.60568 157.367643 
L 344.8512 157.553874 
L 345.09672 157.496732 
L 345.34224 157.664864 
L 345.58776 157.599446 
L 345.83328 157.754451 
L 346.0788 157.693476 
L 346.32432 157.826581 
L 346.56984 157.766897 
L 346.81536 157.876547 
L 347.3064 157.949168 
L 348.04296 158.02122 
L 349.51608 158.208311 
L 350.9892 158.311925 
L 356.39064 158.442872 
L 357.1272 158.410662 
L 358.10928 158.382108 
L 359.5824 158.395048 
L 383.15232 158.882438 
L 384.62544 158.901567 
L 395.91936 159.073192 
L 402.79392 159.100016 
L 403.28496 158.958882 
L 404.02152 159.073002 
L 406.72224 159.168513 
L 414.08784 159.291421 
L 417.77064 159.248396 
L 421.94448 159.293659 
L 422.811252 159.316771 
L 422.811252 159.316771 
" clip-path="url(#p473422e57d)" style="fill: none; stroke: #8c564b; stroke-width: 1.5; stroke-linecap: square"/>
    </g>
    <g id="line2d_66">
     <path d="M 226.26504 166.8672 
L 226.26504 20.5056 
" clip-path="url(#p473422e57d)" style="fill: none; stroke-dasharray: 5.55,2.4; stroke-dashoffset: 0; stroke: #8c564b; stroke-width: 1.5"/>
    </g>
    <g id="patch_8">
     <path d="M 207.36 166.8672 
L 207.36 20.5056 
" style="fill: none; stroke: #000000; stroke-width: 2; stroke-linejoin: miter; stroke-linecap: square"/>
    </g>
    <g id="patch_9">
     <path d="M 403.776 166.8672 
L 403.776 20.5056 
" style="fill: none; stroke: #000000; stroke-width: 2; stroke-linejoin: miter; stroke-linecap: square"/>
    </g>
    <g id="patch_10">
     <path d="M 207.36 166.8672 
L 403.776 166.8672 
" style="fill: none; stroke: #000000; stroke-width: 2; stroke-linejoin: miter; stroke-linecap: square"/>
    </g>
    <g id="patch_11">
     <path d="M 207.36 20.5056 
L 403.776 20.5056 
" style="fill: none; stroke: #000000; stroke-width: 2; stroke-linejoin: miter; stroke-linecap: square"/>
    </g>
   </g>
  </g>
  <g id="text_22">
   <!-- Timesteps -->
   <g transform="translate(197.599313 305.376375) scale(0.12 -0.12)">
    <defs>
     <path id="DejaVuSans-54" d="M -19 4666 
L 3928 4666 
L 3928 4134 
L 2272 4134 
L 2272 0 
L 1638 0 
L 1638 4134 
L -19 4134 
L -19 4666 
z
" transform="scale(0.015625)"/>
     <path id="DejaVuSans-69" d="M 603 3500 
L 1178 3500 
L 1178 0 
L 603 0 
L 603 3500 
z
M 603 4863 
L 1178 4863 
L 1178 4134 
L 603 4134 
L 603 4863 
z
" transform="scale(0.015625)"/>
     <path id="DejaVuSans-6d" d="M 3328 2828 
Q 3544 3216 3844 3400 
Q 4144 3584 4550 3584 
Q 5097 3584 5394 3201 
Q 5691 2819 5691 2113 
L 5691 0 
L 5113 0 
L 5113 2094 
Q 5113 2597 4934 2840 
Q 4756 3084 4391 3084 
Q 3944 3084 3684 2787 
Q 3425 2491 3425 1978 
L 3425 0 
L 2847 0 
L 2847 2094 
Q 2847 2600 2669 2842 
Q 2491 3084 2119 3084 
Q 1678 3084 1418 2786 
Q 1159 2488 1159 1978 
L 1159 0 
L 581 0 
L 581 3500 
L 1159 3500 
L 1159 2956 
Q 1356 3278 1631 3431 
Q 1906 3584 2284 3584 
Q 2666 3584 2933 3390 
Q 3200 3197 3328 2828 
z
" transform="scale(0.015625)"/>
     <path id="DejaVuSans-65" d="M 3597 1894 
L 3597 1613 
L 953 1613 
Q 991 1019 1311 708 
Q 1631 397 2203 397 
Q 2534 397 2845 478 
Q 3156 559 3463 722 
L 3463 178 
Q 3153 47 2828 -22 
Q 2503 -91 2169 -91 
Q 1331 -91 842 396 
Q 353 884 353 1716 
Q 353 2575 817 3079 
Q 1281 3584 2069 3584 
Q 2775 3584 3186 3129 
Q 3597 2675 3597 1894 
z
M 3022 2063 
Q 3016 2534 2758 2815 
Q 2500 3097 2075 3097 
Q 1594 3097 1305 2825 
Q 1016 2553 972 2059 
L 3022 2063 
z
" transform="scale(0.015625)"/>
     <path id="DejaVuSans-73" d="M 2834 3397 
L 2834 2853 
Q 2591 2978 2328 3040 
Q 2066 3103 1784 3103 
Q 1356 3103 1142 2972 
Q 928 2841 928 2578 
Q 928 2378 1081 2264 
Q 1234 2150 1697 2047 
L 1894 2003 
Q 2506 1872 2764 1633 
Q 3022 1394 3022 966 
Q 3022 478 2636 193 
Q 2250 -91 1575 -91 
Q 1294 -91 989 -36 
Q 684 19 347 128 
L 347 722 
Q 666 556 975 473 
Q 1284 391 1588 391 
Q 1994 391 2212 530 
Q 2431 669 2431 922 
Q 2431 1156 2273 1281 
Q 2116 1406 1581 1522 
L 1381 1569 
Q 847 1681 609 1914 
Q 372 2147 372 2553 
Q 372 3047 722 3315 
Q 1072 3584 1716 3584 
Q 2034 3584 2315 3537 
Q 2597 3491 2834 3397 
z
" transform="scale(0.015625)"/>
     <path id="DejaVuSans-74" d="M 1172 4494 
L 1172 3500 
L 2356 3500 
L 2356 3053 
L 1172 3053 
L 1172 1153 
Q 1172 725 1289 603 
Q 1406 481 1766 481 
L 2356 481 
L 2356 0 
L 1766 0 
Q 1100 0 847 248 
Q 594 497 594 1153 
L 594 3053 
L 172 3053 
L 172 3500 
L 594 3500 
L 594 4494 
L 1172 4494 
z
" transform="scale(0.015625)"/>
     <path id="DejaVuSans-70" d="M 1159 525 
L 1159 -1331 
L 581 -1331 
L 581 3500 
L 1159 3500 
L 1159 2969 
Q 1341 3281 1617 3432 
Q 1894 3584 2278 3584 
Q 2916 3584 3314 3078 
Q 3713 2572 3713 1747 
Q 3713 922 3314 415 
Q 2916 -91 2278 -91 
Q 1894 -91 1617 61 
Q 1341 213 1159 525 
z
M 3116 1747 
Q 3116 2381 2855 2742 
Q 2594 3103 2138 3103 
Q 1681 3103 1420 2742 
Q 1159 2381 1159 1747 
Q 1159 1113 1420 752 
Q 1681 391 2138 391 
Q 2594 391 2855 752 
Q 3116 1113 3116 1747 
z
" transform="scale(0.015625)"/>
    </defs>
    <use xlink:href="#DejaVuSans-54"/>
    <use xlink:href="#DejaVuSans-69" x="57.958984"/>
    <use xlink:href="#DejaVuSans-6d" x="85.742188"/>
    <use xlink:href="#DejaVuSans-65" x="183.154297"/>
    <use xlink:href="#DejaVuSans-73" x="244.677734"/>
    <use xlink:href="#DejaVuSans-74" x="296.777344"/>
    <use xlink:href="#DejaVuSans-65" x="335.986328"/>
    <use xlink:href="#DejaVuSans-70" x="397.509766"/>
    <use xlink:href="#DejaVuSans-73" x="460.986328"/>
   </g>
  </g>
  <g id="text_23">
   <!-- Mean estimate error for the best arm -->
   <g transform="translate(16.318125 250.200187) rotate(-90) scale(0.12 -0.12)">
    <defs>
     <path id="DejaVuSans-4d" d="M 628 4666 
L 1569 4666 
L 2759 1491 
L 3956 4666 
L 4897 4666 
L 4897 0 
L 4281 0 
L 4281 4097 
L 3078 897 
L 2444 897 
L 1241 4097 
L 1241 0 
L 628 0 
L 628 4666 
z
" transform="scale(0.015625)"/>
     <path id="DejaVuSans-61" d="M 2194 1759 
Q 1497 1759 1228 1600 
Q 959 1441 959 1056 
Q 959 750 1161 570 
Q 1363 391 1709 391 
Q 2188 391 2477 730 
Q 2766 1069 2766 1631 
L 2766 1759 
L 2194 1759 
z
M 3341 1997 
L 3341 0 
L 2766 0 
L 2766 531 
Q 2569 213 2275 61 
Q 1981 -91 1556 -91 
Q 1019 -91 701 211 
Q 384 513 384 1019 
Q 384 1609 779 1909 
Q 1175 2209 1959 2209 
L 2766 2209 
L 2766 2266 
Q 2766 2663 2505 2880 
Q 2244 3097 1772 3097 
Q 1472 3097 1187 3025 
Q 903 2953 641 2809 
L 641 3341 
Q 956 3463 1253 3523 
Q 1550 3584 1831 3584 
Q 2591 3584 2966 3190 
Q 3341 2797 3341 1997 
z
" transform="scale(0.015625)"/>
     <path id="DejaVuSans-6e" d="M 3513 2113 
L 3513 0 
L 2938 0 
L 2938 2094 
Q 2938 2591 2744 2837 
Q 2550 3084 2163 3084 
Q 1697 3084 1428 2787 
Q 1159 2491 1159 1978 
L 1159 0 
L 581 0 
L 581 3500 
L 1159 3500 
L 1159 2956 
Q 1366 3272 1645 3428 
Q 1925 3584 2291 3584 
Q 2894 3584 3203 3211 
Q 3513 2838 3513 2113 
z
" transform="scale(0.015625)"/>
     <path id="DejaVuSans-20" transform="scale(0.015625)"/>
     <path id="DejaVuSans-72" d="M 2631 2963 
Q 2534 3019 2420 3045 
Q 2306 3072 2169 3072 
Q 1681 3072 1420 2755 
Q 1159 2438 1159 1844 
L 1159 0 
L 581 0 
L 581 3500 
L 1159 3500 
L 1159 2956 
Q 1341 3275 1631 3429 
Q 1922 3584 2338 3584 
Q 2397 3584 2469 3576 
Q 2541 3569 2628 3553 
L 2631 2963 
z
" transform="scale(0.015625)"/>
     <path id="DejaVuSans-6f" d="M 1959 3097 
Q 1497 3097 1228 2736 
Q 959 2375 959 1747 
Q 959 1119 1226 758 
Q 1494 397 1959 397 
Q 2419 397 2687 759 
Q 2956 1122 2956 1747 
Q 2956 2369 2687 2733 
Q 2419 3097 1959 3097 
z
M 1959 3584 
Q 2709 3584 3137 3096 
Q 3566 2609 3566 1747 
Q 3566 888 3137 398 
Q 2709 -91 1959 -91 
Q 1206 -91 779 398 
Q 353 888 353 1747 
Q 353 2609 779 3096 
Q 1206 3584 1959 3584 
z
" transform="scale(0.015625)"/>
     <path id="DejaVuSans-66" d="M 2375 4863 
L 2375 4384 
L 1825 4384 
Q 1516 4384 1395 4259 
Q 1275 4134 1275 3809 
L 1275 3500 
L 2222 3500 
L 2222 3053 
L 1275 3053 
L 1275 0 
L 697 0 
L 697 3053 
L 147 3053 
L 147 3500 
L 697 3500 
L 697 3744 
Q 697 4328 969 4595 
Q 1241 4863 1831 4863 
L 2375 4863 
z
" transform="scale(0.015625)"/>
     <path id="DejaVuSans-68" d="M 3513 2113 
L 3513 0 
L 2938 0 
L 2938 2094 
Q 2938 2591 2744 2837 
Q 2550 3084 2163 3084 
Q 1697 3084 1428 2787 
Q 1159 2491 1159 1978 
L 1159 0 
L 581 0 
L 581 4863 
L 1159 4863 
L 1159 2956 
Q 1366 3272 1645 3428 
Q 1925 3584 2291 3584 
Q 2894 3584 3203 3211 
Q 3513 2838 3513 2113 
z
" transform="scale(0.015625)"/>
     <path id="DejaVuSans-62" d="M 3116 1747 
Q 3116 2381 2855 2742 
Q 2594 3103 2138 3103 
Q 1681 3103 1420 2742 
Q 1159 2381 1159 1747 
Q 1159 1113 1420 752 
Q 1681 391 2138 391 
Q 2594 391 2855 752 
Q 3116 1113 3116 1747 
z
M 1159 2969 
Q 1341 3281 1617 3432 
Q 1894 3584 2278 3584 
Q 2916 3584 3314 3078 
Q 3713 2572 3713 1747 
Q 3713 922 3314 415 
Q 2916 -91 2278 -91 
Q 1894 -91 1617 61 
Q 1341 213 1159 525 
L 1159 0 
L 581 0 
L 581 4863 
L 1159 4863 
L 1159 2969 
z
" transform="scale(0.015625)"/>
    </defs>
    <use xlink:href="#DejaVuSans-4d"/>
    <use xlink:href="#DejaVuSans-65" x="86.279297"/>
    <use xlink:href="#DejaVuSans-61" x="147.802734"/>
    <use xlink:href="#DejaVuSans-6e" x="209.082031"/>
    <use xlink:href="#DejaVuSans-20" x="272.460938"/>
    <use xlink:href="#DejaVuSans-65" x="304.248047"/>
    <use xlink:href="#DejaVuSans-73" x="365.771484"/>
    <use xlink:href="#DejaVuSans-74" x="417.871094"/>
    <use xlink:href="#DejaVuSans-69" x="457.080078"/>
    <use xlink:href="#DejaVuSans-6d" x="484.863281"/>
    <use xlink:href="#DejaVuSans-61" x="582.275391"/>
    <use xlink:href="#DejaVuSans-74" x="643.554688"/>
    <use xlink:href="#DejaVuSans-65" x="682.763672"/>
    <use xlink:href="#DejaVuSans-20" x="744.287109"/>
    <use xlink:href="#DejaVuSans-65" x="776.074219"/>
    <use xlink:href="#DejaVuSans-72" x="837.597656"/>
    <use xlink:href="#DejaVuSans-72" x="876.960938"/>
    <use xlink:href="#DejaVuSans-6f" x="915.824219"/>
    <use xlink:href="#DejaVuSans-72" x="977.005859"/>
    <use xlink:href="#DejaVuSans-20" x="1018.119141"/>
    <use xlink:href="#DejaVuSans-66" x="1049.90625"/>
    <use xlink:href="#DejaVuSans-6f" x="1085.111328"/>
    <use xlink:href="#DejaVuSans-72" x="1146.292969"/>
    <use xlink:href="#DejaVuSans-20" x="1187.40625"/>
    <use xlink:href="#DejaVuSans-74" x="1219.193359"/>
    <use xlink:href="#DejaVuSans-68" x="1258.402344"/>
    <use xlink:href="#DejaVuSans-65" x="1321.78125"/>
    <use xlink:href="#DejaVuSans-20" x="1383.304688"/>
    <use xlink:href="#DejaVuSans-62" x="1415.091797"/>
    <use xlink:href="#DejaVuSans-65" x="1478.568359"/>
    <use xlink:href="#DejaVuSans-73" x="1540.091797"/>
    <use xlink:href="#DejaVuSans-74" x="1592.191406"/>
    <use xlink:href="#DejaVuSans-20" x="1631.400391"/>
    <use xlink:href="#DejaVuSans-61" x="1663.1875"/>
    <use xlink:href="#DejaVuSans-72" x="1724.466797"/>
    <use xlink:href="#DejaVuSans-6d" x="1763.830078"/>
   </g>
  </g>
 </g>
 <defs>
  <clipPath id="p04a760591b">
   <rect x="55.584" y="7.2" width="357.12" height="266.112"/>
  </clipPath>
  <clipPath id="p473422e57d">
   <rect x="207.36" y="20.5056" width="196.416" height="146.3616"/>
  </clipPath>
 </defs>
</svg>
