<?xml version="1.0" encoding="utf-8" standalone="no"?>
<!DOCTYPE svg PUBLIC "-//W3C//DTD SVG 1.1//EN"
  "http://www.w3.org/Graphics/SVG/1.1/DTD/svg11.dtd">
<svg xmlns:xlink="http://www.w3.org/1999/xlink" width="421.811252pt" height="315.072pt" viewBox="0 0 421.811252 315.072" xmlns="http://www.w3.org/2000/svg" version="1.1">
 <metadata>
  <rdf:RDF xmlns:dc="http://purl.org/dc/elements/1.1/" xmlns:cc="http://creativecommons.org/ns#" xmlns:rdf="http://www.w3.org/1999/02/22-rdf-syntax-ns#">
   <cc:Work>
    <dc:type rdf:resource="http://purl.org/dc/dcmitype/StillImage"/>
    <dc:date>2024-04-17T15:45:54.540670</dc:date>
    <dc:format>image/svg+xml</dc:format>
    <dc:creator>
     <cc:Agent>
      <dc:title>Matplotlib v3.8.3, https://matplotlib.org/</dc:title>
     </cc:Agent>
    </dc:creator>
   </cc:Work>
  </rdf:RDF>
 </metadata>
 <defs>
  <style type="text/css">*{stroke-linejoin: round; stroke-linecap: butt}</style>
 </defs>
 <g id="figure_1">
  <g id="patch_1">
   <path d="M 0 315.072 
L 421.811252 315.072 
L 421.811252 0 
L 0 0 
z
" style="fill: #ffffff"/>
  </g>
  <g id="axes_1">
   <g id="patch_2">
    <path d="M 55.584 273.312 
L 412.704 273.312 
L 412.704 7.2 
L 55.584 7.2 
z
" style="fill: #ffffff"/>
   </g>
   <g id="PolyCollection_1">
    <path d="M 103.664721 19.296 
L 103.664721 245.845394 
L 121.863574 245.845394 
L 121.863574 19.296 
L 121.863574 19.296 
L 103.664721 19.296 
z
" clip-path="url(#p1d3949de71)" style="fill-opacity: 0.2"/>
   </g>
   <g id="matplotlib.axis_1">
    <g id="xtick_1">
     <g id="line2d_1">
      <path d="M 71.816727 273.312 
L 71.816727 7.2 
" clip-path="url(#p1d3949de71)" style="fill: none; stroke: #b0b0b0; stroke-width: 0.8; stroke-linecap: square"/>
     </g>
     <g id="line2d_2">
      <defs>
       <path id="mf44d50578c" d="M 0 0 
L 0 3.5 
" style="stroke: #000000; stroke-width: 0.8"/>
      </defs>
      <g>
       <use xlink:href="#mf44d50578c" x="71.816727" y="273.312" style="stroke: #000000; stroke-width: 0.8"/>
      </g>
     </g>
     <g id="text_1">
      <!-- 0 -->
      <g transform="translate(67.362977 290.949812) scale(0.14 -0.14)">
       <defs>
        <path id="DejaVuSans-30" d="M 2034 4250 
Q 1547 4250 1301 3770 
Q 1056 3291 1056 2328 
Q 1056 1369 1301 889 
Q 1547 409 2034 409 
Q 2525 409 2770 889 
Q 3016 1369 3016 2328 
Q 3016 3291 2770 3770 
Q 2525 4250 2034 4250 
z
M 2034 4750 
Q 2819 4750 3233 4129 
Q 3647 3509 3647 2328 
Q 3647 1150 3233 529 
Q 2819 -91 2034 -91 
Q 1250 -91 836 529 
Q 422 1150 422 2328 
Q 422 3509 836 4129 
Q 1250 4750 2034 4750 
z
" transform="scale(0.015625)"/>
       </defs>
       <use xlink:href="#DejaVuSans-30"/>
      </g>
     </g>
    </g>
    <g id="xtick_2">
     <g id="line2d_3">
      <path d="M 136.812632 273.312 
L 136.812632 7.2 
" clip-path="url(#p1d3949de71)" style="fill: none; stroke: #b0b0b0; stroke-width: 0.8; stroke-linecap: square"/>
     </g>
     <g id="line2d_4">
      <g>
       <use xlink:href="#mf44d50578c" x="136.812632" y="273.312" style="stroke: #000000; stroke-width: 0.8"/>
      </g>
     </g>
     <g id="text_2">
      <!-- 200 -->
      <g transform="translate(123.451382 290.949812) scale(0.14 -0.14)">
       <defs>
        <path id="DejaVuSans-32" d="M 1228 531 
L 3431 531 
L 3431 0 
L 469 0 
L 469 531 
Q 828 903 1448 1529 
Q 2069 2156 2228 2338 
Q 2531 2678 2651 2914 
Q 2772 3150 2772 3378 
Q 2772 3750 2511 3984 
Q 2250 4219 1831 4219 
Q 1534 4219 1204 4116 
Q 875 4013 500 3803 
L 500 4441 
Q 881 4594 1212 4672 
Q 1544 4750 1819 4750 
Q 2544 4750 2975 4387 
Q 3406 4025 3406 3419 
Q 3406 3131 3298 2873 
Q 3191 2616 2906 2266 
Q 2828 2175 2409 1742 
Q 1991 1309 1228 531 
z
" transform="scale(0.015625)"/>
       </defs>
       <use xlink:href="#DejaVuSans-32"/>
       <use xlink:href="#DejaVuSans-30" x="63.623047"/>
       <use xlink:href="#DejaVuSans-30" x="127.246094"/>
      </g>
     </g>
    </g>
    <g id="xtick_3">
     <g id="line2d_5">
      <path d="M 201.808537 273.312 
L 201.808537 7.2 
" clip-path="url(#p1d3949de71)" style="fill: none; stroke: #b0b0b0; stroke-width: 0.8; stroke-linecap: square"/>
     </g>
     <g id="line2d_6">
      <g>
       <use xlink:href="#mf44d50578c" x="201.808537" y="273.312" style="stroke: #000000; stroke-width: 0.8"/>
      </g>
     </g>
     <g id="text_3">
      <!-- 400 -->
      <g transform="translate(188.447287 290.949812) scale(0.14 -0.14)">
       <defs>
        <path id="DejaVuSans-34" d="M 2419 4116 
L 825 1625 
L 2419 1625 
L 2419 4116 
z
M 2253 4666 
L 3047 4666 
L 3047 1625 
L 3713 1625 
L 3713 1100 
L 3047 1100 
L 3047 0 
L 2419 0 
L 2419 1100 
L 313 1100 
L 313 1709 
L 2253 4666 
z
" transform="scale(0.015625)"/>
       </defs>
       <use xlink:href="#DejaVuSans-34"/>
       <use xlink:href="#DejaVuSans-30" x="63.623047"/>
       <use xlink:href="#DejaVuSans-30" x="127.246094"/>
      </g>
     </g>
    </g>
    <g id="xtick_4">
     <g id="line2d_7">
      <path d="M 266.804442 273.312 
L 266.804442 7.2 
" clip-path="url(#p1d3949de71)" style="fill: none; stroke: #b0b0b0; stroke-width: 0.8; stroke-linecap: square"/>
     </g>
     <g id="line2d_8">
      <g>
       <use xlink:href="#mf44d50578c" x="266.804442" y="273.312" style="stroke: #000000; stroke-width: 0.8"/>
      </g>
     </g>
     <g id="text_4">
      <!-- 600 -->
      <g transform="translate(253.443192 290.949812) scale(0.14 -0.14)">
       <defs>
        <path id="DejaVuSans-36" d="M 2113 2584 
Q 1688 2584 1439 2293 
Q 1191 2003 1191 1497 
Q 1191 994 1439 701 
Q 1688 409 2113 409 
Q 2538 409 2786 701 
Q 3034 994 3034 1497 
Q 3034 2003 2786 2293 
Q 2538 2584 2113 2584 
z
M 3366 4563 
L 3366 3988 
Q 3128 4100 2886 4159 
Q 2644 4219 2406 4219 
Q 1781 4219 1451 3797 
Q 1122 3375 1075 2522 
Q 1259 2794 1537 2939 
Q 1816 3084 2150 3084 
Q 2853 3084 3261 2657 
Q 3669 2231 3669 1497 
Q 3669 778 3244 343 
Q 2819 -91 2113 -91 
Q 1303 -91 875 529 
Q 447 1150 447 2328 
Q 447 3434 972 4092 
Q 1497 4750 2381 4750 
Q 2619 4750 2861 4703 
Q 3103 4656 3366 4563 
z
" transform="scale(0.015625)"/>
       </defs>
       <use xlink:href="#DejaVuSans-36"/>
       <use xlink:href="#DejaVuSans-30" x="63.623047"/>
       <use xlink:href="#DejaVuSans-30" x="127.246094"/>
      </g>
     </g>
    </g>
    <g id="xtick_5">
     <g id="line2d_9">
      <path d="M 331.800347 273.312 
L 331.800347 7.2 
" clip-path="url(#p1d3949de71)" style="fill: none; stroke: #b0b0b0; stroke-width: 0.8; stroke-linecap: square"/>
     </g>
     <g id="line2d_10">
      <g>
       <use xlink:href="#mf44d50578c" x="331.800347" y="273.312" style="stroke: #000000; stroke-width: 0.8"/>
      </g>
     </g>
     <g id="text_5">
      <!-- 800 -->
      <g transform="translate(318.439097 290.949812) scale(0.14 -0.14)">
       <defs>
        <path id="DejaVuSans-38" d="M 2034 2216 
Q 1584 2216 1326 1975 
Q 1069 1734 1069 1313 
Q 1069 891 1326 650 
Q 1584 409 2034 409 
Q 2484 409 2743 651 
Q 3003 894 3003 1313 
Q 3003 1734 2745 1975 
Q 2488 2216 2034 2216 
z
M 1403 2484 
Q 997 2584 770 2862 
Q 544 3141 544 3541 
Q 544 4100 942 4425 
Q 1341 4750 2034 4750 
Q 2731 4750 3128 4425 
Q 3525 4100 3525 3541 
Q 3525 3141 3298 2862 
Q 3072 2584 2669 2484 
Q 3125 2378 3379 2068 
Q 3634 1759 3634 1313 
Q 3634 634 3220 271 
Q 2806 -91 2034 -91 
Q 1263 -91 848 271 
Q 434 634 434 1313 
Q 434 1759 690 2068 
Q 947 2378 1403 2484 
z
M 1172 3481 
Q 1172 3119 1398 2916 
Q 1625 2713 2034 2713 
Q 2441 2713 2670 2916 
Q 2900 3119 2900 3481 
Q 2900 3844 2670 4047 
Q 2441 4250 2034 4250 
Q 1625 4250 1398 4047 
Q 1172 3844 1172 3481 
z
" transform="scale(0.015625)"/>
       </defs>
       <use xlink:href="#DejaVuSans-38"/>
       <use xlink:href="#DejaVuSans-30" x="63.623047"/>
       <use xlink:href="#DejaVuSans-30" x="127.246094"/>
      </g>
     </g>
    </g>
    <g id="xtick_6">
     <g id="line2d_11">
      <path d="M 396.796252 273.312 
L 396.796252 7.2 
" clip-path="url(#p1d3949de71)" style="fill: none; stroke: #b0b0b0; stroke-width: 0.8; stroke-linecap: square"/>
     </g>
     <g id="line2d_12">
      <g>
       <use xlink:href="#mf44d50578c" x="396.796252" y="273.312" style="stroke: #000000; stroke-width: 0.8"/>
      </g>
     </g>
     <g id="text_6">
      <!-- 1000 -->
      <g transform="translate(378.981252 290.949812) scale(0.14 -0.14)">
       <defs>
        <path id="DejaVuSans-31" d="M 794 531 
L 1825 531 
L 1825 4091 
L 703 3866 
L 703 4441 
L 1819 4666 
L 2450 4666 
L 2450 531 
L 3481 531 
L 3481 0 
L 794 0 
L 794 531 
z
" transform="scale(0.015625)"/>
       </defs>
       <use xlink:href="#DejaVuSans-31"/>
       <use xlink:href="#DejaVuSans-30" x="63.623047"/>
       <use xlink:href="#DejaVuSans-30" x="127.246094"/>
       <use xlink:href="#DejaVuSans-30" x="190.869141"/>
      </g>
     </g>
    </g>
   </g>
   <g id="matplotlib.axis_2">
    <g id="ytick_1">
     <g id="line2d_13">
      <path d="M 55.584 261.216 
L 412.704 261.216 
" clip-path="url(#p1d3949de71)" style="fill: none; stroke: #b0b0b0; stroke-width: 0.8; stroke-linecap: square"/>
     </g>
     <g id="line2d_14">
      <defs>
       <path id="m86ae066cf8" d="M 0 0 
L -3.5 0 
" style="stroke: #000000; stroke-width: 0.8"/>
      </defs>
      <g>
       <use xlink:href="#m86ae066cf8" x="55.584" y="261.216" style="stroke: #000000; stroke-width: 0.8"/>
      </g>
     </g>
     <g id="text_7">
      <!-- 0 -->
      <g transform="translate(39.6765 266.534906) scale(0.14 -0.14)">
       <use xlink:href="#DejaVuSans-30"/>
      </g>
     </g>
    </g>
    <g id="ytick_2">
     <g id="line2d_15">
      <path d="M 55.584 230.436313 
L 412.704 230.436313 
" clip-path="url(#p1d3949de71)" style="fill: none; stroke: #b0b0b0; stroke-width: 0.8; stroke-linecap: square"/>
     </g>
     <g id="line2d_16">
      <g>
       <use xlink:href="#m86ae066cf8" x="55.584" y="230.436313" style="stroke: #000000; stroke-width: 0.8"/>
      </g>
     </g>
     <g id="text_8">
      <!-- 2 -->
      <g transform="translate(39.6765 235.75522) scale(0.14 -0.14)">
       <use xlink:href="#DejaVuSans-32"/>
      </g>
     </g>
    </g>
    <g id="ytick_3">
     <g id="line2d_17">
      <path d="M 55.584 199.656627 
L 412.704 199.656627 
" clip-path="url(#p1d3949de71)" style="fill: none; stroke: #b0b0b0; stroke-width: 0.8; stroke-linecap: square"/>
     </g>
     <g id="line2d_18">
      <g>
       <use xlink:href="#m86ae066cf8" x="55.584" y="199.656627" style="stroke: #000000; stroke-width: 0.8"/>
      </g>
     </g>
     <g id="text_9">
      <!-- 4 -->
      <g transform="translate(39.6765 204.975533) scale(0.14 -0.14)">
       <use xlink:href="#DejaVuSans-34"/>
      </g>
     </g>
    </g>
    <g id="ytick_4">
     <g id="line2d_19">
      <path d="M 55.584 168.87694 
L 412.704 168.87694 
" clip-path="url(#p1d3949de71)" style="fill: none; stroke: #b0b0b0; stroke-width: 0.8; stroke-linecap: square"/>
     </g>
     <g id="line2d_20">
      <g>
       <use xlink:href="#m86ae066cf8" x="55.584" y="168.87694" style="stroke: #000000; stroke-width: 0.8"/>
      </g>
     </g>
     <g id="text_10">
      <!-- 6 -->
      <g transform="translate(39.6765 174.195846) scale(0.14 -0.14)">
       <use xlink:href="#DejaVuSans-36"/>
      </g>
     </g>
    </g>
    <g id="ytick_5">
     <g id="line2d_21">
      <path d="M 55.584 138.097253 
L 412.704 138.097253 
" clip-path="url(#p1d3949de71)" style="fill: none; stroke: #b0b0b0; stroke-width: 0.8; stroke-linecap: square"/>
     </g>
     <g id="line2d_22">
      <g>
       <use xlink:href="#m86ae066cf8" x="55.584" y="138.097253" style="stroke: #000000; stroke-width: 0.8"/>
      </g>
     </g>
     <g id="text_11">
      <!-- 8 -->
      <g transform="translate(39.6765 143.416159) scale(0.14 -0.14)">
       <use xlink:href="#DejaVuSans-38"/>
      </g>
     </g>
    </g>
    <g id="ytick_6">
     <g id="line2d_23">
      <path d="M 55.584 107.317566 
L 412.704 107.317566 
" clip-path="url(#p1d3949de71)" style="fill: none; stroke: #b0b0b0; stroke-width: 0.8; stroke-linecap: square"/>
     </g>
     <g id="line2d_24">
      <g>
       <use xlink:href="#m86ae066cf8" x="55.584" y="107.317566" style="stroke: #000000; stroke-width: 0.8"/>
      </g>
     </g>
     <g id="text_12">
      <!-- 10 -->
      <g transform="translate(30.769 112.636473) scale(0.14 -0.14)">
       <use xlink:href="#DejaVuSans-31"/>
       <use xlink:href="#DejaVuSans-30" x="63.623047"/>
      </g>
     </g>
    </g>
    <g id="ytick_7">
     <g id="line2d_25">
      <path d="M 55.584 76.53788 
L 412.704 76.53788 
" clip-path="url(#p1d3949de71)" style="fill: none; stroke: #b0b0b0; stroke-width: 0.8; stroke-linecap: square"/>
     </g>
     <g id="line2d_26">
      <g>
       <use xlink:href="#m86ae066cf8" x="55.584" y="76.53788" style="stroke: #000000; stroke-width: 0.8"/>
      </g>
     </g>
     <g id="text_13">
      <!-- 12 -->
      <g transform="translate(30.769 81.856786) scale(0.14 -0.14)">
       <use xlink:href="#DejaVuSans-31"/>
       <use xlink:href="#DejaVuSans-32" x="63.623047"/>
      </g>
     </g>
    </g>
    <g id="ytick_8">
     <g id="line2d_27">
      <path d="M 55.584 45.758193 
L 412.704 45.758193 
" clip-path="url(#p1d3949de71)" style="fill: none; stroke: #b0b0b0; stroke-width: 0.8; stroke-linecap: square"/>
     </g>
     <g id="line2d_28">
      <g>
       <use xlink:href="#m86ae066cf8" x="55.584" y="45.758193" style="stroke: #000000; stroke-width: 0.8"/>
      </g>
     </g>
     <g id="text_14">
      <!-- 14 -->
      <g transform="translate(30.769 51.077099) scale(0.14 -0.14)">
       <use xlink:href="#DejaVuSans-31"/>
       <use xlink:href="#DejaVuSans-34" x="63.623047"/>
      </g>
     </g>
    </g>
    <g id="ytick_9">
     <g id="line2d_29">
      <path d="M 55.584 14.978506 
L 412.704 14.978506 
" clip-path="url(#p1d3949de71)" style="fill: none; stroke: #b0b0b0; stroke-width: 0.8; stroke-linecap: square"/>
     </g>
     <g id="line2d_30">
      <g>
       <use xlink:href="#m86ae066cf8" x="55.584" y="14.978506" style="stroke: #000000; stroke-width: 0.8"/>
      </g>
     </g>
     <g id="text_15">
      <!-- 16 -->
      <g transform="translate(30.769 20.297412) scale(0.14 -0.14)">
       <use xlink:href="#DejaVuSans-31"/>
       <use xlink:href="#DejaVuSans-36" x="63.623047"/>
      </g>
     </g>
    </g>
   </g>
   <g id="line2d_31">
    <path d="M 71.816727 261.216 
L 103.9897 261.216 
L 104.31468 229.260876 
L 104.639659 234.415517 
L 104.964639 236.412846 
L 105.614598 238.287126 
L 106.264557 239.312817 
L 108.539414 241.37792 
L 110.164311 242.543794 
L 111.13925 243.01127 
L 111.464229 242.772546 
L 112.439168 243.501443 
L 113.089127 243.807262 
L 113.414106 243.993244 
L 113.739086 244.037567 
L 114.064066 244.243906 
L 114.389045 244.134876 
L 115.688963 244.791837 
L 116.988881 245.327215 
L 117.63884 245.439306 
L 118.613779 245.847699 
L 124.138431 247.07196 
L 124.78839 247.195082 
L 126.088308 247.378707 
L 131.28798 248.026253 
L 132.587898 248.105664 
L 133.562837 248.247142 
L 133.887817 248.137303 
L 135.512714 248.328715 
L 136.162673 248.283248 
L 136.812632 248.379028 
L 137.137612 248.191833 
L 138.762509 248.367395 
L 140.062428 248.308667 
L 141.362346 248.418421 
L 141.687325 247.627131 
L 142.662264 247.88788 
L 143.962182 248.093674 
L 145.587079 248.307738 
L 146.237038 248.087842 
L 146.562018 247.64352 
L 148.186916 247.738712 
L 148.836875 247.78729 
L 150.461772 248.039129 
L 151.436711 248.169946 
L 152.08667 247.274966 
L 152.736629 246.875179 
L 153.711568 246.86778 
L 154.361527 246.934563 
L 155.336465 247.055543 
L 159.886179 247.611452 
L 161.511076 247.708274 
L 164.110912 247.817404 
L 164.435892 247.109748 
L 164.760871 247.012405 
L 166.06079 247.170071 
L 166.385769 246.990478 
L 167.685687 247.180041 
L 168.335646 247.142868 
L 169.960544 247.247926 
L 173.860298 247.495178 
L 174.185278 247.395576 
L 174.510257 247.425021 
L 174.835237 246.22873 
L 175.485196 246.329358 
L 175.810175 246.206823 
L 177.110093 246.32305 
L 177.435073 246.358666 
L 177.760052 246.276907 
L 179.059971 246.328126 
L 179.70993 246.343783 
L 181.659807 246.478459 
L 182.634745 246.499445 
L 186.5345 246.733008 
L 186.859479 246.490544 
L 190.109274 246.688294 
L 190.434254 246.591888 
L 191.409192 246.600816 
L 191.734172 246.599936 
L 192.059152 246.337201 
L 193.35907 246.470313 
L 194.009029 246.296951 
L 198.883722 246.678051 
L 199.85866 246.736091 
L 201.808537 246.839549 
L 203.108455 246.853404 
L 206.033271 247.07764 
L 206.68323 247.050481 
L 212.532862 247.328398 
L 213.5078 247.390795 
L 214.482739 247.296665 
L 217.732534 247.469697 
L 224.232124 247.784368 
L 229.106817 247.965715 
L 230.081756 247.992408 
L 230.731715 247.917471 
L 231.381674 247.932911 
L 231.706654 247.089929 
L 240.80608 247.595984 
L 241.13106 247.182242 
L 241.781019 247.127326 
L 243.730896 247.19038 
L 251.530405 247.333287 
L 251.855384 247.103735 
L 256.405097 247.245571 
L 258.354975 247.20367 
L 261.27979 247.290768 
L 261.60477 246.34121 
L 265.829504 246.223769 
L 267.779381 246.235324 
L 268.42934 246.19552 
L 270.379217 246.25324 
L 270.704197 245.885321 
L 285.978234 246.082402 
L 286.953173 246.049081 
L 302.55219 246.303979 
L 302.87717 246.105737 
L 309.051781 246.15673 
L 316.20133 246.125666 
L 316.52631 245.87834 
L 343.49961 246.032784 
L 344.799528 245.99282 
L 348.049324 245.987663 
L 362.023443 245.942576 
L 362.348423 245.815165 
L 365.598218 245.751585 
L 367.873075 245.694886 
L 368.198054 245.463913 
L 373.072747 245.499885 
L 373.397726 244.965799 
L 383.797071 245.004574 
L 389.321723 244.975947 
L 392.246539 244.942869 
L 396.471273 245.005635 
L 396.471273 245.005635 
" clip-path="url(#p1d3949de71)" style="fill: none; stroke: #1f77b4; stroke-width: 2; stroke-linecap: square"/>
    <defs>
     <path id="m82d7870f88" d="M 0 3 
C 0.795609 3 1.55874 2.683901 2.12132 2.12132 
C 2.683901 1.55874 3 0.795609 3 0 
C 3 -0.795609 2.683901 -1.55874 2.12132 -2.12132 
C 1.55874 -2.683901 0.795609 -3 0 -3 
C -0.795609 -3 -1.55874 -2.683901 -2.12132 -2.12132 
C -2.683901 -1.55874 -3 -0.795609 -3 0 
C -3 0.795609 -2.683901 1.55874 -2.12132 2.12132 
C -1.55874 2.683901 -0.795609 3 0 3 
z
" style="stroke: #1f77b4"/>
    </defs>
    <g clip-path="url(#p1d3949de71)">
     <use xlink:href="#m82d7870f88" x="71.816727" y="261.216" style="fill: #1f77b4; stroke: #1f77b4"/>
     <use xlink:href="#m82d7870f88" x="136.812632" y="248.379028" style="fill: #1f77b4; stroke: #1f77b4"/>
     <use xlink:href="#m82d7870f88" x="201.808537" y="246.839549" style="fill: #1f77b4; stroke: #1f77b4"/>
     <use xlink:href="#m82d7870f88" x="266.804442" y="246.216589" style="fill: #1f77b4; stroke: #1f77b4"/>
     <use xlink:href="#m82d7870f88" x="331.800347" y="246.045212" style="fill: #1f77b4; stroke: #1f77b4"/>
    </g>
   </g>
   <g id="line2d_32">
    <path d="M 104.31468 273.312 
L 104.31468 7.2 
" clip-path="url(#p1d3949de71)" style="fill: none; stroke-dasharray: 7.4,3.2; stroke-dashoffset: 0; stroke: #1f77b4; stroke-width: 2"/>
    <g clip-path="url(#p1d3949de71)">
     <use xlink:href="#m82d7870f88" x="104.31468" y="273.312" style="fill: #1f77b4; stroke: #1f77b4"/>
     <use xlink:href="#m82d7870f88" x="104.31468" y="7.2" style="fill: #1f77b4; stroke: #1f77b4"/>
    </g>
   </g>
   <g id="line2d_33">
    <path d="M 71.816727 261.216 
L 103.9897 261.216 
L 104.31468 243.424191 
L 104.639659 245.274806 
L 104.964639 245.596357 
L 105.289618 245.191956 
L 105.614598 245.559938 
L 105.939577 244.229671 
L 106.264557 244.343933 
L 106.589536 243.912452 
L 106.914516 244.810974 
L 107.239495 244.410777 
L 107.889455 244.00649 
L 108.539414 239.892371 
L 108.864393 239.789842 
L 109.514352 239.897832 
L 109.839332 191.066387 
L 110.164311 238.829393 
L 110.489291 239.739807 
L 110.81427 239.242296 
L 111.13925 201.845768 
L 111.464229 240.78376 
L 111.789209 240.913885 
L 112.114188 240.721259 
L 112.439168 240.33784 
L 112.764147 234.556754 
L 113.089127 238.00994 
L 113.414106 239.791384 
L 113.739086 233.78062 
L 114.064066 236.076995 
L 114.389045 235.854577 
L 114.714025 237.428575 
L 115.039004 237.625958 
L 115.363984 237.393706 
L 115.688963 236.671502 
L 116.013943 233.601186 
L 116.338922 150.129228 
L 116.663902 154.812788 
L 116.988881 162.686472 
L 117.313861 159.689835 
L 117.63884 164.537858 
L 117.96382 149.077808 
L 118.288799 164.419576 
L 118.613779 135.476031 
L 118.938758 164.720952 
L 119.263738 59.006775 
L 119.588717 164.074242 
L 119.913697 42.767158 
L 120.238676 163.762033 
L 120.563656 129.257564 
L 120.888636 164.118464 
L 121.213615 19.315237 
L 121.538595 159.88208 
L 121.863574 137.923341 
L 122.188554 163.125993 
L 122.513533 151.116508 
L 122.838513 163.421896 
L 123.163492 156.447432 
L 123.488472 163.391357 
L 123.813451 158.221915 
L 124.138431 160.959346 
L 124.46341 159.676314 
L 124.78839 163.294531 
L 125.438349 158.660215 
L 125.763328 161.621522 
L 126.088308 153.296647 
L 126.413287 155.31872 
L 126.738267 156.010693 
L 127.063247 156.038022 
L 127.388226 157.012875 
L 127.713206 156.191141 
L 128.038185 156.730585 
L 128.363165 155.296679 
L 128.688144 156.313277 
L 129.013124 156.175952 
L 129.663083 156.620811 
L 129.988062 156.523795 
L 130.313042 156.88722 
L 130.638021 156.586256 
L 130.963001 157.031941 
L 131.28798 156.419832 
L 131.61296 157.267986 
L 131.937939 155.69908 
L 132.262919 156.343559 
L 132.587898 155.253838 
L 132.912878 156.460339 
L 133.237857 154.920207 
L 133.562837 156.500316 
L 133.887817 154.177698 
L 134.212796 156.192813 
L 134.537776 153.420379 
L 134.862755 156.547449 
L 135.187735 155.365766 
L 135.512714 156.653781 
L 135.837694 156.012875 
L 136.162673 156.777526 
L 136.487653 156.359313 
L 136.812632 156.802105 
L 137.137612 156.629362 
L 137.462591 156.874758 
L 137.787571 156.713609 
L 138.11255 156.822869 
L 138.43753 156.515773 
L 138.762509 156.743495 
L 139.087489 156.681174 
L 139.412468 155.853056 
L 139.737448 155.839747 
L 140.062428 154.143648 
L 140.387407 154.713375 
L 140.712387 152.43773 
L 141.037366 153.12442 
L 141.362346 153.409399 
L 142.012305 153.49625 
L 142.337284 153.292089 
L 142.662264 153.424177 
L 142.987243 153.415976 
L 143.312223 153.584556 
L 143.637202 153.450448 
L 143.962182 153.581769 
L 144.287161 153.548289 
L 144.612141 153.709543 
L 145.2621 153.711185 
L 145.587079 152.199643 
L 145.912059 152.6729 
L 146.237038 152.547047 
L 147.211977 152.757765 
L 147.536957 152.365174 
L 148.186916 152.564001 
L 149.486834 152.72281 
L 149.811813 152.395325 
L 150.461772 152.359497 
L 151.111731 152.404221 
L 152.08667 152.491037 
L 152.411649 152.493146 
L 152.736629 152.189083 
L 154.686506 152.177497 
L 155.661445 152.018002 
L 156.311404 152.084966 
L 156.636383 151.355627 
L 157.611322 151.68417 
L 157.936301 151.56276 
L 158.91124 151.541352 
L 159.561199 151.476599 
L 160.861117 151.58559 
L 162.486015 151.5509 
L 163.460953 151.246666 
L 164.760871 151.232324 
L 165.73581 150.716644 
L 166.385769 150.861928 
L 166.710749 150.772581 
L 167.035728 150.851596 
L 167.685687 150.749765 
L 168.660626 150.897157 
L 169.635564 150.630973 
L 170.285523 150.625412 
L 170.935482 150.690068 
L 171.585441 150.670932 
L 172.56038 150.734163 
L 173.210339 150.709068 
L 173.535319 150.253221 
L 173.860298 150.33462 
L 174.185278 150.246846 
L 175.485196 150.300016 
L 176.785114 150.247522 
L 177.110093 149.150869 
L 177.435073 149.332378 
L 178.734991 149.309111 
L 179.38495 149.148838 
L 180.034909 149.217201 
L 182.634745 149.177994 
L 184.259643 149.079968 
L 184.584622 149.010885 
L 185.559561 149.144734 
L 186.859479 149.156951 
L 187.184459 149.058382 
L 187.509438 149.101618 
L 187.834418 149.027225 
L 188.159397 148.758686 
L 188.484377 149.003632 
L 191.084213 149.04584 
L 191.734172 148.935314 
L 192.384131 148.910029 
L 192.709111 148.70424 
L 193.35907 148.728761 
L 194.334008 148.739955 
L 194.658988 148.3112 
L 195.308947 148.429632 
L 195.958906 148.430342 
L 196.283885 147.987974 
L 196.933844 148.048026 
L 197.583803 148.127424 
L 197.908783 147.835817 
L 198.233762 148.181614 
L 203.108455 148.166821 
L 203.433435 147.893492 
L 204.408373 148.007233 
L 206.358251 148.068158 
L 207.00821 148.014553 
L 209.283066 147.951884 
L 210.582984 147.62995 
L 211.557923 147.69538 
L 211.882903 147.481457 
L 213.182821 147.582279 
L 214.157759 147.573393 
L 216.432616 147.586628 
L 217.732534 147.601924 
L 218.057514 146.866253 
L 218.382493 147.062701 
L 218.707473 146.684713 
L 219.357432 146.873345 
L 220.33237 146.913698 
L 220.982329 146.91959 
L 221.307309 146.871373 
L 221.632288 146.62603 
L 223.257186 146.728263 
L 223.582165 146.624824 
L 224.557104 146.680035 
L 225.207063 146.628873 
L 225.857022 146.583405 
L 226.182002 146.587219 
L 226.506981 146.43579 
L 227.15694 146.517189 
L 232.031633 146.566986 
L 232.356613 146.459675 
L 233.331551 146.50245 
L 234.631469 146.527341 
L 238.531224 146.554204 
L 239.181183 146.540027 
L 239.831142 146.544428 
L 242.430978 146.600351 
L 242.755957 146.426041 
L 244.055876 146.473174 
L 246.330732 146.501802 
L 246.655712 146.527239 
L 246.980691 145.729861 
L 247.63065 145.725285 
L 248.930568 145.921997 
L 249.905507 145.857275 
L 251.205425 145.89806 
L 251.530405 145.586047 
L 252.505343 145.698591 
L 253.480282 145.768691 
L 253.805261 145.581672 
L 254.45522 145.65168 
L 255.105179 145.588128 
L 255.430159 145.609394 
L 255.755138 145.123838 
L 256.080118 145.28304 
L 256.730077 145.341183 
L 257.705016 145.411045 
L 258.029995 145.342665 
L 259.004934 145.39196 
L 260.304852 145.446077 
L 261.929749 145.51399 
L 262.254729 144.733877 
L 262.579708 144.925849 
L 263.229667 145.000134 
L 264.204606 145.100504 
L 267.454401 145.071637 
L 269.404278 145.028984 
L 277.853746 145.097744 
L 278.828685 144.957396 
L 279.803623 145.011303 
L 280.128603 144.750313 
L 280.453582 144.88759 
L 281.428521 144.917996 
L 281.7535 144.662644 
L 282.07848 144.688341 
L 282.403459 140.767824 
L 283.053419 141.492485 
L 283.378398 141.746357 
L 283.703378 141.321383 
L 284.028357 141.476701 
L 284.353337 141.412115 
L 284.678316 141.532854 
L 285.653255 141.436161 
L 286.303214 141.486791 
L 287.928111 141.542669 
L 290.852927 141.538337 
L 292.477825 141.551365 
L 293.777743 141.593869 
L 294.427702 141.531494 
L 295.077661 141.557577 
L 295.40264 141.431321 
L 296.377579 141.49684 
L 310.351699 141.669231 
L 311.001658 141.544645 
L 312.626555 141.577104 
L 324.325818 141.578778 
L 324.650798 141.465024 
L 325.625736 141.520492 
L 328.550552 141.514798 
L 328.875532 141.34508 
L 331.800347 141.322254 
L 332.125327 141.234391 
L 333.100265 141.316012 
L 334.075204 141.336568 
L 334.400183 141.097853 
L 336.025081 141.201752 
L 337.00002 141.088084 
L 339.274876 141.157866 
L 339.924835 141.112393 
L 341.224753 141.141709 
L 341.549733 140.950818 
L 343.174631 141.03529 
L 344.149569 140.989828 
L 344.799528 140.938406 
L 346.424426 140.969441 
L 346.749405 140.734912 
L 347.724344 140.783066 
L 349.024262 140.805199 
L 349.349242 140.809367 
L 349.674221 139.86804 
L 349.999201 140.111801 
L 350.32418 140.016676 
L 350.974139 140.170759 
L 355.198873 140.04006 
L 356.173812 140.110581 
L 359.098627 140.090065 
L 361.048505 140.10732 
L 362.023443 140.097844 
L 363.323361 140.053832 
L 364.948259 140.070519 
L 371.772829 140.141863 
L 383.797071 140.136798 
L 396.471273 140.292224 
L 396.471273 140.292224 
" clip-path="url(#p1d3949de71)" style="fill: none; stroke: #ff7f0e; stroke-width: 2; stroke-linecap: square"/>
    <defs>
     <path id="mcb9bc763f8" d="M 0 -3 
L -3 3 
L 3 3 
z
" style="stroke: #ff7f0e; stroke-linejoin: miter"/>
    </defs>
    <g clip-path="url(#p1d3949de71)">
     <use xlink:href="#mcb9bc763f8" x="71.816727" y="261.216" style="fill: #ff7f0e; stroke: #ff7f0e; stroke-linejoin: miter"/>
     <use xlink:href="#mcb9bc763f8" x="136.812632" y="156.802105" style="fill: #ff7f0e; stroke: #ff7f0e; stroke-linejoin: miter"/>
     <use xlink:href="#mcb9bc763f8" x="201.808537" y="148.247031" style="fill: #ff7f0e; stroke: #ff7f0e; stroke-linejoin: miter"/>
     <use xlink:href="#mcb9bc763f8" x="266.804442" y="145.01972" style="fill: #ff7f0e; stroke: #ff7f0e; stroke-linejoin: miter"/>
     <use xlink:href="#mcb9bc763f8" x="331.800347" y="141.322254" style="fill: #ff7f0e; stroke: #ff7f0e; stroke-linejoin: miter"/>
    </g>
   </g>
   <g id="line2d_34">
    <path d="M 121.213615 273.312 
L 121.213615 7.2 
" clip-path="url(#p1d3949de71)" style="fill: none; stroke-dasharray: 7.4,3.2; stroke-dashoffset: 0; stroke: #ff7f0e; stroke-width: 2"/>
    <g clip-path="url(#p1d3949de71)">
     <use xlink:href="#mcb9bc763f8" x="121.213615" y="273.312" style="fill: #ff7f0e; stroke: #ff7f0e; stroke-linejoin: miter"/>
     <use xlink:href="#mcb9bc763f8" x="121.213615" y="7.2" style="fill: #ff7f0e; stroke: #ff7f0e; stroke-linejoin: miter"/>
    </g>
   </g>
   <g id="line2d_35">
    <path d="M 71.816727 261.216 
L 103.9897 261.216 
L 104.31468 237.683843 
L 104.639659 243.50943 
L 104.964639 245.53073 
L 105.289618 246.236046 
L 105.614598 246.256958 
L 105.939577 246.422477 
L 106.264557 246.429922 
L 106.589536 246.63959 
L 107.239495 245.500412 
L 107.889455 245.702972 
L 108.214434 245.152818 
L 108.539414 245.217701 
L 108.864393 242.452778 
L 109.189373 241.945204 
L 109.839332 241.584605 
L 110.164311 241.687116 
L 110.489291 241.374185 
L 111.13925 241.455184 
L 111.464229 241.256887 
L 111.789209 241.36971 
L 112.439168 240.872016 
L 113.089127 240.845585 
L 113.414106 236.013262 
L 114.064066 237.383859 
L 114.389045 237.898156 
L 114.714025 236.95408 
L 115.039004 237.121026 
L 115.363984 237.15452 
L 116.013943 237.648741 
L 116.663902 237.939421 
L 116.988881 217.928544 
L 117.63884 222.999511 
L 118.288799 226.302599 
L 118.613779 227.087137 
L 118.938758 228.1625 
L 119.588717 229.555216 
L 119.913697 230.212473 
L 120.238676 230.264425 
L 120.888636 231.220343 
L 121.213615 231.293247 
L 121.863574 231.882264 
L 122.513533 232.109846 
L 123.488472 232.776974 
L 124.78839 233.489018 
L 125.113369 232.548846 
L 125.438349 231.949172 
L 126.088308 232.002331 
L 126.413287 231.914519 
L 127.063247 232.211124 
L 128.038185 232.774554 
L 128.688144 233.100742 
L 129.013124 230.454206 
L 129.338103 230.387956 
L 130.313042 230.692279 
L 130.963001 230.856313 
L 131.61296 228.393188 
L 133.237857 229.098931 
L 134.862755 229.675251 
L 135.837694 229.912928 
L 136.487653 230.065732 
L 138.11255 230.357159 
L 138.43753 230.34776 
L 138.762509 229.95995 
L 140.387407 230.178271 
L 141.037366 229.951447 
L 142.337284 230.143752 
L 143.312223 229.998506 
L 144.93712 230.135891 
L 146.562018 230.307865 
L 147.861936 230.35175 
L 148.511895 230.382135 
L 149.486834 230.183465 
L 149.811813 230.26265 
L 150.136793 229.648023 
L 151.111731 229.787757 
L 152.08667 229.911243 
L 152.411649 229.765497 
L 156.961363 229.936709 
L 157.936301 229.966464 
L 158.261281 229.553 
L 160.211158 229.670666 
L 160.536138 229.49947 
L 162.161035 229.615048 
L 162.486015 228.752111 
L 163.785933 229.052001 
L 164.110912 228.997933 
L 165.41083 229.186435 
L 165.73581 229.041391 
L 167.360708 229.052075 
L 168.660626 229.12579 
L 169.310585 229.133189 
L 169.960544 229.147973 
L 170.610503 229.110578 
L 170.935482 228.398715 
L 173.210339 228.42923 
L 173.860298 228.436959 
L 174.185278 228.049587 
L 176.135155 228.100457 
L 177.110093 228.110967 
L 179.38495 228.122 
L 180.684868 228.162868 
L 181.009848 227.985277 
L 181.334827 228.00671 
L 181.659807 226.487842 
L 186.859479 226.518877 
L 187.509438 226.392593 
L 188.809356 226.429284 
L 191.409192 226.557431 
L 192.384131 226.528317 
L 194.009029 226.523346 
L 194.334008 226.262793 
L 195.958906 226.267123 
L 198.233762 226.355147 
L 199.533681 226.274892 
L 200.833599 226.279132 
L 202.133517 226.214737 
L 202.458496 225.938709 
L 204.408373 226.013368 
L 205.058333 225.960949 
L 210.907964 225.939352 
L 211.557923 225.89874 
L 214.807718 225.946098 
L 215.457677 225.86348 
L 218.057514 225.853118 
L 218.382493 225.658226 
L 220.33237 225.624839 
L 224.557104 225.54086 
L 225.857022 225.542412 
L 226.182002 224.956033 
L 227.48192 224.886892 
L 232.356613 224.980548 
L 241.13106 225.087261 
L 241.781019 225.038976 
L 244.055876 225.004486 
L 245.030814 224.930134 
L 246.005753 224.862403 
L 247.63065 224.895811 
L 247.95563 224.738166 
L 249.905507 224.710314 
L 250.555466 224.643546 
L 255.430159 224.643145 
L 256.080118 224.594119 
L 256.730077 224.61162 
L 257.055057 224.492145 
L 263.554647 224.489923 
L 263.879627 224.265627 
L 266.804442 224.208737 
L 267.454401 224.166733 
L 270.379217 224.144157 
L 271.029176 224.101241 
L 274.92893 224.14348 
L 277.853746 224.157159 
L 278.178726 223.545049 
L 281.7535 223.484553 
L 282.07848 222.901279 
L 284.353337 222.913883 
L 284.678316 222.69868 
L 289.228029 222.804693 
L 293.777743 222.895481 
L 294.427702 222.840062 
L 322.375941 222.788919 
L 322.700921 222.49072 
L 326.275695 222.514403 
L 333.100265 222.536363 
L 333.425245 221.556658 
L 334.075204 221.626473 
L 335.700102 221.909047 
L 338.299938 222.123027 
L 343.49961 222.239964 
L 344.799528 222.157739 
L 349.349242 222.252811 
L 356.498791 222.374765 
L 356.823771 218.017437 
L 362.348423 218.158281 
L 363.648341 218.173608 
L 394.521396 218.811756 
L 394.846375 218.558797 
L 396.471273 218.597771 
L 396.471273 218.597771 
" clip-path="url(#p1d3949de71)" style="fill: none; stroke: #2ca02c; stroke-width: 2; stroke-linecap: square"/>
    <defs>
     <path id="m8628432ec0" d="M -3 3 
L 3 3 
L 3 -3 
L -3 -3 
z
" style="stroke: #2ca02c; stroke-linejoin: miter"/>
    </defs>
    <g clip-path="url(#p1d3949de71)">
     <use xlink:href="#m8628432ec0" x="71.816727" y="261.216" style="fill: #2ca02c; stroke: #2ca02c; stroke-linejoin: miter"/>
     <use xlink:href="#m8628432ec0" x="136.812632" y="230.141239" style="fill: #2ca02c; stroke: #2ca02c; stroke-linejoin: miter"/>
     <use xlink:href="#m8628432ec0" x="201.808537" y="226.222677" style="fill: #2ca02c; stroke: #2ca02c; stroke-linejoin: miter"/>
     <use xlink:href="#m8628432ec0" x="266.804442" y="224.208737" style="fill: #2ca02c; stroke: #2ca02c; stroke-linejoin: miter"/>
     <use xlink:href="#m8628432ec0" x="331.800347" y="222.521365" style="fill: #2ca02c; stroke: #2ca02c; stroke-linejoin: miter"/>
    </g>
   </g>
   <g id="line2d_36">
    <path d="M 116.988881 273.312 
L 116.988881 7.2 
" clip-path="url(#p1d3949de71)" style="fill: none; stroke-dasharray: 7.4,3.2; stroke-dashoffset: 0; stroke: #2ca02c; stroke-width: 2"/>
    <g clip-path="url(#p1d3949de71)">
     <use xlink:href="#m8628432ec0" x="116.988881" y="273.312" style="fill: #2ca02c; stroke: #2ca02c; stroke-linejoin: miter"/>
     <use xlink:href="#m8628432ec0" x="116.988881" y="7.2" style="fill: #2ca02c; stroke: #2ca02c; stroke-linejoin: miter"/>
    </g>
   </g>
   <g id="line2d_37">
    <path d="M 71.816727 261.216 
L 103.9897 261.216 
L 104.31468 238.828067 
L 104.639659 241.01948 
L 104.964639 241.758462 
L 105.939577 241.973815 
L 106.264557 241.298744 
L 106.589536 239.384049 
L 106.914516 239.557179 
L 107.239495 238.657151 
L 107.564475 238.314249 
L 107.889455 238.352334 
L 108.214434 238.061316 
L 108.539414 233.968755 
L 108.864393 233.678352 
L 109.514352 234.520424 
L 109.839332 234.825314 
L 110.164311 234.925849 
L 110.489291 235.181578 
L 110.81427 235.236666 
L 111.13925 234.871842 
L 112.439168 235.654671 
L 112.764147 235.53387 
L 113.414106 235.640317 
L 113.739086 235.40936 
L 114.064066 235.372536 
L 114.389045 235.216085 
L 114.714025 228.552028 
L 115.039004 228.877486 
L 115.363984 228.75917 
L 115.688963 228.967579 
L 116.338922 229.090571 
L 116.988881 228.888705 
L 117.313861 228.98909 
L 117.63884 228.152322 
L 117.96382 228.362069 
L 118.288799 227.25057 
L 118.938758 227.472058 
L 119.263738 227.283639 
L 119.588717 200.892506 
L 120.563656 210.166206 
L 121.213615 214.28168 
L 121.863574 216.855154 
L 122.513533 218.613801 
L 124.138431 221.16643 
L 124.78839 221.878296 
L 125.113369 222.023434 
L 125.763328 222.594352 
L 126.088308 222.791949 
L 126.413287 221.802382 
L 126.738267 221.891922 
L 127.713206 222.476704 
L 129.013124 223.01252 
L 129.663083 222.354016 
L 129.988062 222.461088 
L 130.313042 222.449369 
L 130.638021 222.5722 
L 130.963001 222.532449 
L 132.587898 222.880491 
L 132.912878 220.32973 
L 133.887817 220.790763 
L 134.537776 220.972385 
L 135.512714 221.133956 
L 136.812632 221.383476 
L 138.11255 221.463317 
L 139.087489 221.701961 
L 139.412468 221.195441 
L 140.062428 221.366452 
L 140.712387 221.478107 
L 141.037366 220.770451 
L 142.012305 220.947913 
L 142.337284 220.813448 
L 144.612141 220.978092 
L 144.93712 220.215766 
L 145.2621 220.06358 
L 146.886998 220.573484 
L 148.836875 220.89495 
L 149.161854 217.523691 
L 149.811813 217.649191 
L 150.136793 217.624616 
L 150.461772 217.446633 
L 152.411649 217.537905 
L 154.686506 217.663963 
L 155.336465 217.429858 
L 156.311404 217.384092 
L 160.861117 217.544331 
L 161.186097 217.334175 
L 163.460953 217.396827 
L 165.41083 217.352494 
L 166.385769 217.326552 
L 168.985605 217.31387 
L 169.310585 217.205608 
L 170.935482 217.304903 
L 171.260462 217.204328 
L 173.210339 217.245237 
L 176.460134 217.233024 
L 177.760052 217.286471 
L 178.085032 217.045878 
L 179.38495 217.042989 
L 180.034909 216.958897 
L 181.334827 216.988398 
L 181.659807 216.3919 
L 183.609684 216.523601 
L 184.909602 216.414944 
L 185.234581 216.436115 
L 185.559561 216.282768 
L 187.184459 216.392294 
L 187.834418 216.317009 
L 188.809356 216.207033 
L 189.134336 216.240382 
L 189.459315 215.815331 
L 196.283885 215.893528 
L 196.933844 215.95326 
L 197.583803 215.902052 
L 197.908783 215.915894 
L 198.233762 215.559493 
L 201.483558 215.588227 
L 202.458496 215.513825 
L 204.408373 215.569894 
L 204.733353 215.455813 
L 205.708292 215.445523 
L 206.033271 215.071962 
L 207.00821 215.110263 
L 207.658169 214.980194 
L 208.308128 214.964201 
L 208.958087 214.930059 
L 209.933025 214.959637 
L 213.83278 215.113536 
L 214.157759 215.01598 
L 215.782657 215.052781 
L 221.632288 215.118472 
L 221.957268 214.998303 
L 224.557104 215.071378 
L 225.532043 215.072167 
L 230.406735 215.103361 
L 232.681592 215.072834 
L 234.30649 215.127278 
L 234.956449 215.094272 
L 238.206244 215.125184 
L 239.181183 215.135977 
L 245.030814 215.229436 
L 245.680773 215.131242 
L 248.930568 215.016305 
L 249.580527 215.039237 
L 249.905507 214.83657 
L 252.830323 214.827385 
L 253.155302 214.845597 
L 253.480282 212.742634 
L 255.430159 212.715871 
L 257.055057 212.731009 
L 259.979872 212.755114 
L 268.754319 212.769048 
L 269.729258 212.656952 
L 272.004115 212.660782 
L 272.654074 212.534863 
L 289.877989 212.600481 
L 292.802804 212.581004 
L 314.576432 212.447936 
L 315.226391 212.225469 
L 319.776105 212.241236 
L 321.076023 212.244411 
L 321.725982 212.256319 
L 322.050962 212.131734 
L 327.575613 212.091621 
L 328.225572 212.039279 
L 331.475368 212.025854 
L 336.350061 211.933189 
L 337.00002 211.86479 
L 348.049324 211.821018 
L 350.32418 211.833425 
L 355.848832 211.827934 
L 356.173812 211.594744 
L 356.823771 211.521209 
L 370.472911 211.450016 
L 375.022624 211.426427 
L 375.997563 211.410747 
L 378.597399 211.410697 
L 378.922378 211.288288 
L 383.797071 211.291354 
L 389.646703 211.252168 
L 392.571518 211.283447 
L 396.471273 211.329238 
L 396.471273 211.329238 
" clip-path="url(#p1d3949de71)" style="fill: none; stroke: #d62728; stroke-width: 2; stroke-linecap: square"/>
    <defs>
     <path id="mf8a6c65b0d" d="M -3 3 
L 3 -3 
M -3 -3 
L 3 3 
" style="stroke: #d62728"/>
    </defs>
    <g clip-path="url(#p1d3949de71)">
     <use xlink:href="#mf8a6c65b0d" x="71.816727" y="261.216" style="fill: #d62728; stroke: #d62728"/>
     <use xlink:href="#mf8a6c65b0d" x="136.812632" y="221.383476" style="fill: #d62728; stroke: #d62728"/>
     <use xlink:href="#mf8a6c65b0d" x="201.808537" y="215.545239" style="fill: #d62728; stroke: #d62728"/>
     <use xlink:href="#mf8a6c65b0d" x="266.804442" y="212.793441" style="fill: #d62728; stroke: #d62728"/>
     <use xlink:href="#mf8a6c65b0d" x="331.800347" y="212.025507" style="fill: #d62728; stroke: #d62728"/>
    </g>
   </g>
   <g id="line2d_38">
    <path d="M 119.588717 273.312 
L 119.588717 7.2 
" clip-path="url(#p1d3949de71)" style="fill: none; stroke-dasharray: 7.4,3.2; stroke-dashoffset: 0; stroke: #d62728; stroke-width: 2"/>
    <g clip-path="url(#p1d3949de71)">
     <use xlink:href="#mf8a6c65b0d" x="119.588717" y="273.312" style="fill: #d62728; stroke: #d62728"/>
     <use xlink:href="#mf8a6c65b0d" x="119.588717" y="7.2" style="fill: #d62728; stroke: #d62728"/>
    </g>
   </g>
   <g id="line2d_39">
    <path d="M 71.816727 261.216 
L 103.9897 261.216 
L 104.31468 218.323492 
L 104.639659 233.403971 
L 104.964639 238.197221 
L 105.289618 240.37324 
L 105.939577 242.06926 
L 106.264557 242.490374 
L 106.589536 243.200034 
L 106.914516 243.053822 
L 107.239495 241.967524 
L 107.564475 242.111531 
L 107.889455 241.888615 
L 108.214434 241.830225 
L 108.864393 241.49783 
L 109.839332 241.959572 
L 110.164311 241.861923 
L 110.489291 241.927825 
L 110.81427 241.646449 
L 111.13925 240.861352 
L 111.464229 240.546542 
L 111.789209 240.612669 
L 112.114188 240.064563 
L 112.439168 240.260399 
L 112.764147 240.274759 
L 113.089127 239.8252 
L 113.414106 239.832633 
L 113.739086 239.970854 
L 114.389045 239.708258 
L 115.039004 239.627398 
L 115.363984 239.585981 
L 115.688963 239.716237 
L 116.663902 239.528308 
L 116.988881 239.226585 
L 117.96382 239.015267 
L 118.938758 239.035575 
L 119.263738 237.465162 
L 119.588717 237.142673 
L 119.913697 237.104916 
L 120.238676 236.865365 
L 120.563656 236.933192 
L 122.513533 236.325994 
L 123.488472 236.373266 
L 123.813451 236.349088 
L 124.138431 236.191758 
L 125.438349 236.232998 
L 125.763328 233.697838 
L 126.088308 233.677577 
L 126.413287 233.290713 
L 127.063247 233.412707 
L 128.688144 233.552097 
L 129.338103 233.394497 
L 129.988062 233.451328 
L 130.638021 233.267486 
L 131.61296 233.351405 
L 132.262919 233.341061 
L 132.587898 233.231375 
L 132.912878 232.253591 
L 133.887817 232.367559 
L 134.537776 232.447699 
L 134.862755 232.132463 
L 135.837694 232.153783 
L 136.162673 231.910654 
L 136.487653 220.010006 
L 137.462591 220.225467 
L 138.762509 220.364459 
L 139.087489 220.226174 
L 142.012305 220.348238 
L 142.337284 219.82787 
L 144.93712 219.925303 
L 146.562018 219.626244 
L 146.886998 219.63905 
L 147.211977 219.476832 
L 147.536957 219.166536 
L 148.186916 219.243705 
L 148.511895 218.187817 
L 149.486834 218.092047 
L 150.136793 218.137322 
L 150.461772 217.66592 
L 150.786752 217.665864 
L 151.111731 217.363452 
L 152.411649 217.479946 
L 152.736629 214.931961 
L 154.686506 214.983155 
L 158.91124 215.022257 
L 159.236219 214.711111 
L 159.886179 214.796599 
L 160.211158 214.541349 
L 161.836056 214.645582 
L 163.135974 214.433557 
L 164.760871 214.570086 
L 165.085851 214.426497 
L 170.935482 214.711822 
L 171.260462 214.419577 
L 174.510257 214.552124 
L 174.835237 214.304569 
L 175.485196 214.228265 
L 175.810175 213.921907 
L 176.135155 213.890635 
L 176.460134 209.463437 
L 178.410011 210.067377 
L 178.734991 209.912088 
L 179.38495 210.151497 
L 180.034909 210.251919 
L 180.684868 210.429446 
L 181.009848 210.403872 
L 182.309766 210.738436 
L 183.934663 211.09311 
L 184.259643 210.896299 
L 185.884541 211.195986 
L 189.784295 211.631361 
L 191.734172 211.656193 
L 192.384131 211.608475 
L 193.684049 211.692267 
L 194.658988 211.706263 
L 197.258824 211.903752 
L 202.133517 212.065737 
L 202.458496 211.12879 
L 203.108455 211.17568 
L 203.433435 209.158615 
L 203.758414 208.622757 
L 206.033271 208.775574 
L 209.283066 208.784742 
L 210.582984 208.860682 
L 211.232943 208.797865 
L 212.532862 208.777604 
L 216.107636 208.900414 
L 216.432616 208.649084 
L 220.982329 208.835487 
L 229.106817 208.818904 
L 229.431797 208.691377 
L 233.98151 208.858183 
L 236.906326 208.790752 
L 237.881265 208.785943 
L 242.755957 208.804225 
L 245.030814 208.847005 
L 248.605589 208.865674 
L 248.930568 208.725721 
L 259.004934 208.86294 
L 264.529586 208.835559 
L 264.854565 208.61328 
L 277.853746 208.683359 
L 278.178726 208.491199 
L 279.478644 208.480322 
L 287.278152 208.487428 
L 287.603132 208.330188 
L 291.827866 208.344592 
L 293.127784 208.309651 
L 294.427702 208.320621 
L 294.752681 204.917938 
L 295.72762 204.88596 
L 297.677497 204.852832 
L 300.277333 204.735448 
L 303.527129 204.780505 
L 303.852108 204.131644 
L 311.651617 204.147699 
L 315.226391 204.135012 
L 319.126146 204.136965 
L 320.101084 204.107515 
L 323.35088 204.120475 
L 323.675859 203.059607 
L 328.225572 203.115528 
L 330.17545 203.051759 
L 336.350061 203.163577 
L 338.624917 203.142622 
L 341.224753 203.116771 
L 344.149569 203.10529 
L 345.449487 203.101051 
L 346.099446 203.032076 
L 348.049324 202.984331 
L 348.699283 202.90395 
L 351.299119 202.870086 
L 352.274057 202.828968 
L 355.848832 202.845375 
L 357.798709 202.869629 
L 361.373484 202.89543 
L 364.948259 202.928339 
L 365.923197 202.886704 
L 368.848013 202.917629 
L 369.822952 202.901101 
L 375.022624 202.931016 
L 375.347604 202.805792 
L 378.597399 202.809444 
L 396.471273 202.790974 
L 396.471273 202.790974 
" clip-path="url(#p1d3949de71)" style="fill: none; stroke: #9467bd; stroke-width: 2; stroke-linecap: square"/>
    <defs>
     <path id="m8f3af188d3" d="M -0 3 
L 3 -3 
L -3 -3 
z
" style="stroke: #9467bd; stroke-linejoin: miter"/>
    </defs>
    <g clip-path="url(#p1d3949de71)">
     <use xlink:href="#m8f3af188d3" x="71.816727" y="261.216" style="fill: #9467bd; stroke: #9467bd; stroke-linejoin: miter"/>
     <use xlink:href="#m8f3af188d3" x="136.812632" y="220.114894" style="fill: #9467bd; stroke: #9467bd; stroke-linejoin: miter"/>
     <use xlink:href="#m8f3af188d3" x="201.808537" y="212.089297" style="fill: #9467bd; stroke: #9467bd; stroke-linejoin: miter"/>
     <use xlink:href="#m8f3af188d3" x="266.804442" y="208.626653" style="fill: #9467bd; stroke: #9467bd; stroke-linejoin: miter"/>
     <use xlink:href="#m8f3af188d3" x="331.800347" y="203.066871" style="fill: #9467bd; stroke: #9467bd; stroke-linejoin: miter"/>
    </g>
   </g>
   <g id="line2d_40">
    <path d="M 387.696826 273.312 
L 387.696826 7.2 
" clip-path="url(#p1d3949de71)" style="fill: none; stroke-dasharray: 7.4,3.2; stroke-dashoffset: 0; stroke: #9467bd; stroke-width: 2"/>
    <g clip-path="url(#p1d3949de71)">
     <use xlink:href="#m8f3af188d3" x="387.696826" y="273.312" style="fill: #9467bd; stroke: #9467bd; stroke-linejoin: miter"/>
     <use xlink:href="#m8f3af188d3" x="387.696826" y="7.2" style="fill: #9467bd; stroke: #9467bd; stroke-linejoin: miter"/>
    </g>
   </g>
   <g id="line2d_41">
    <path d="M 71.816727 261.216 
L 103.9897 261.216 
L 104.31468 219.394984 
L 104.639659 221.85231 
L 104.964639 219.898472 
L 105.289618 216.516735 
L 105.614598 215.832873 
L 105.939577 215.952831 
L 106.589536 206.698418 
L 107.239495 202.952028 
L 107.564475 204.417993 
L 107.889455 203.037975 
L 108.214434 202.519092 
L 108.539414 191.087478 
L 108.864393 205.618149 
L 109.514352 185.691299 
L 109.839332 28.176913 
L 110.164311 197.433005 
L 110.489291 149.357978 
L 110.81427 193.988156 
L 111.13925 197.105165 
L 111.464229 76.916227 
L 112.114188 41.519458 
L 112.439168 75.252932 
L 112.764147 89.003825 
L 113.089127 47.507758 
L 113.414106 107.586632 
L 113.739086 115.010485 
L 114.064066 113.980225 
L 114.714025 125.445458 
L 115.039004 93.076089 
L 115.363984 95.800822 
L 115.688963 96.953631 
L 116.013943 127.012298 
L 116.338922 124.209683 
L 116.663902 134.799984 
L 117.313861 140.960429 
L 117.63884 141.43054 
L 117.96382 144.543672 
L 118.288799 144.243276 
L 118.613779 149.541089 
L 118.938758 149.337717 
L 119.263738 151.688314 
L 119.588717 147.835892 
L 119.913697 153.359148 
L 120.238676 151.362524 
L 120.563656 153.977286 
L 120.888636 142.422558 
L 121.213615 157.29695 
L 121.538595 155.784154 
L 121.863574 159.014734 
L 122.188554 137.206141 
L 122.513533 160.230427 
L 122.838513 160.162722 
L 123.163492 149.138395 
L 123.488472 145.191937 
L 123.813451 153.358121 
L 124.138431 149.401791 
L 124.46341 156.301835 
L 124.78839 157.418965 
L 125.113369 159.907523 
L 125.438349 159.937451 
L 125.763328 161.01476 
L 126.088308 160.692415 
L 126.413287 161.436389 
L 126.738267 160.006065 
L 127.063247 162.529987 
L 127.388226 155.733531 
L 127.713206 161.653281 
L 128.363165 146.369159 
L 128.688144 148.979369 
L 129.013124 148.256581 
L 129.338103 150.954354 
L 129.663083 150.590187 
L 130.313042 153.378748 
L 130.963001 154.960329 
L 131.28798 156.140761 
L 131.61296 156.480288 
L 132.262919 157.396598 
L 132.587898 157.690388 
L 132.912878 156.480611 
L 133.237857 157.921029 
L 133.562837 157.950278 
L 133.887817 158.781962 
L 134.212796 158.896354 
L 134.537776 159.421178 
L 134.862755 159.415179 
L 135.187735 159.729223 
L 135.512714 159.783362 
L 135.837694 160.087191 
L 136.162673 157.904971 
L 136.487653 160.390782 
L 136.812632 160.09999 
L 137.137612 160.460416 
L 137.462591 160.542316 
L 137.787571 160.931398 
L 138.11255 157.484824 
L 138.43753 159.782881 
L 138.762509 160.512444 
L 139.087489 160.754669 
L 139.412468 160.126886 
L 139.737448 160.216213 
L 140.062428 160.758095 
L 140.387407 160.810594 
L 140.712387 160.481699 
L 141.037366 159.921172 
L 141.362346 161.066633 
L 141.687325 161.209943 
L 142.012305 158.942219 
L 142.337284 161.422527 
L 142.662264 160.994505 
L 142.987243 160.815965 
L 143.312223 160.897187 
L 143.637202 159.844241 
L 143.962182 160.057689 
L 144.287161 160.041291 
L 144.612141 160.346775 
L 144.93712 160.39863 
L 145.2621 160.689192 
L 145.912059 160.618222 
L 146.237038 160.522553 
L 146.562018 160.574539 
L 146.886998 160.482247 
L 148.186916 160.947381 
L 148.511895 160.821694 
L 148.836875 161.184591 
L 149.161854 161.094174 
L 149.486834 161.293845 
L 149.811813 161.253837 
L 150.136793 161.347175 
L 150.461772 161.299932 
L 150.786752 161.416353 
L 151.111731 161.152184 
L 151.436711 120.065906 
L 151.76169 160.26871 
L 152.411649 161.468002 
L 153.061609 161.357439 
L 154.361527 161.635037 
L 155.986424 161.651761 
L 156.311404 161.182985 
L 156.636383 161.206347 
L 156.961363 161.094851 
L 157.286342 161.220571 
L 157.611322 161.17851 
L 157.936301 161.35557 
L 158.261281 161.337948 
L 158.58626 109.129279 
L 158.91124 111.156295 
L 159.236219 106.655363 
L 159.561199 114.79267 
L 159.886179 113.571266 
L 160.211158 119.834957 
L 160.536138 120.105793 
L 160.861117 124.289748 
L 161.186097 125.038266 
L 161.836056 129.420869 
L 162.161035 130.52464 
L 162.486015 132.585995 
L 162.810994 133.333181 
L 163.135974 135.147179 
L 163.460953 135.579707 
L 163.785933 137.117713 
L 164.110912 137.594889 
L 164.435892 138.891694 
L 164.760871 139.347842 
L 165.085851 140.440692 
L 165.41083 140.842725 
L 165.73581 141.781846 
L 166.06079 142.116871 
L 166.385769 142.973203 
L 166.710749 143.312454 
L 167.035728 143.917553 
L 167.360708 144.241572 
L 167.685687 144.843548 
L 168.010667 145.14372 
L 168.335646 145.657078 
L 168.660626 145.903611 
L 168.985605 146.3681 
L 170.285523 147.288531 
L 170.610503 147.23973 
L 170.935482 147.742559 
L 171.585441 148.166337 
L 172.2354 148.533863 
L 172.88536 149.013953 
L 173.210339 146.748199 
L 173.535319 147.031018 
L 173.860298 146.988609 
L 174.185278 147.563013 
L 174.510257 147.638963 
L 174.835237 148.055274 
L 175.810175 148.599773 
L 176.785114 149.269972 
L 177.110093 149.274763 
L 177.760052 149.732585 
L 181.009848 151.024967 
L 181.334827 150.966046 
L 182.634745 151.554631 
L 182.959725 151.196663 
L 184.584622 151.694747 
L 184.909602 151.710087 
L 185.234581 151.845155 
L 185.559561 151.224655 
L 185.884541 148.269563 
L 186.5345 148.347305 
L 186.859479 148.812237 
L 187.184459 148.829644 
L 187.509438 149.21733 
L 187.834418 149.346565 
L 188.159397 149.637612 
L 188.809356 149.972723 
L 189.784295 150.430915 
L 192.384131 151.518269 
L 193.35907 151.816838 
L 194.334008 152.12846 
L 194.658988 151.769457 
L 195.633926 151.904797 
L 196.283885 152.065346 
L 198.558742 152.610191 
L 199.208701 152.720217 
L 199.85866 152.211848 
L 200.18364 152.400508 
L 200.833599 151.893537 
L 201.483558 151.937428 
L 202.458496 152.326499 
L 204.083394 152.636396 
L 206.358251 153.25983 
L 206.68323 152.891138 
L 207.333189 152.89956 
L 208.633107 153.121581 
L 209.283066 153.14578 
L 210.907964 153.355351 
L 212.207882 153.394178 
L 214.807718 153.780614 
L 215.132698 152.75988 
L 215.457677 152.863286 
L 216.107636 152.654691 
L 216.757595 152.962449 
L 217.732534 153.155692 
L 218.057514 153.263827 
L 219.032452 153.3041 
L 220.65735 153.485111 
L 220.982329 153.532195 
L 221.307309 153.419654 
L 222.932206 153.636405 
L 224.232124 153.753165 
L 224.557104 153.306789 
L 230.406735 153.919576 
L 231.056695 153.895586 
L 236.906326 154.316233 
L 237.231305 154.110034 
L 240.156121 154.329808 
L 240.481101 151.279015 
L 240.80608 151.167658 
L 241.13106 150.871952 
L 241.456039 151.27545 
L 241.781019 151.175957 
L 242.105998 151.508609 
L 242.430978 151.459158 
L 242.755957 151.694117 
L 243.730896 151.953569 
L 244.705835 152.166962 
L 245.355794 152.097328 
L 247.305671 152.4425 
L 247.95563 152.559474 
L 249.255548 152.757357 
L 249.580527 152.609585 
L 251.530405 152.814117 
L 251.855384 152.737889 
L 253.805261 152.938826 
L 254.45522 152.93144 
L 255.755138 153.010203 
L 256.405097 152.888171 
L 258.029995 152.965381 
L 259.004934 153.030725 
L 259.329913 152.294103 
L 260.954811 152.42141 
L 261.27979 152.272747 
L 261.929749 152.322227 
L 262.904688 152.366174 
L 263.229667 152.463103 
L 263.554647 152.319865 
L 266.154483 152.467239 
L 269.404278 152.784916 
L 270.704197 152.838445 
L 271.029176 152.553307 
L 271.354156 152.558401 
L 271.679135 152.447921 
L 272.329094 152.516448 
L 278.503705 152.797454 
L 279.803623 152.874245 
L 283.053419 153.040868 
L 284.353337 153.045584 
L 285.328275 153.0313 
L 287.278152 153.185489 
L 288.253091 153.170455 
L 288.90305 153.211882 
L 289.228029 150.872638 
L 289.553009 150.961556 
L 289.877989 150.75798 
L 290.202968 151.07873 
L 290.527948 150.987804 
L 290.852927 151.25335 
L 291.177907 151.210802 
L 291.502886 151.403311 
L 291.827866 151.393779 
L 292.152845 151.544872 
L 293.127784 151.693033 
L 294.427702 151.935107 
L 295.40264 151.986738 
L 297.677497 152.171968 
L 301.252272 152.312695 
L 302.22721 152.301775 
L 303.527129 152.419261 
L 304.502067 152.40966 
L 304.827047 152.447081 
L 305.152026 151.965936 
L 308.076842 152.075049 
L 308.726801 151.815918 
L 309.70174 151.860765 
L 312.301576 152.065551 
L 314.576432 152.099004 
L 315.551371 152.141336 
L 317.176269 152.243802 
L 317.501248 152.266548 
L 317.826228 151.992543 
L 321.076023 152.178698 
L 324.325818 152.306951 
L 325.950716 152.394586 
L 326.600675 152.185231 
L 327.250634 152.217279 
L 327.575613 151.403286 
L 328.550552 151.522312 
L 328.875532 151.477449 
L 329.85047 151.690418 
L 332.450306 151.724577 
L 333.100265 151.678213 
L 335.700102 151.763163 
L 337.00002 151.77317 
L 338.624917 151.850284 
L 343.49961 152.020509 
L 343.82459 151.778774 
L 349.674221 151.996822 
L 349.999201 151.881444 
L 351.624098 151.973076 
L 352.274057 151.947774 
L 353.898955 152.007768 
L 354.223934 152.02061 
L 354.548914 151.826579 
L 354.873894 151.870319 
L 355.198873 151.788628 
L 356.173812 151.899014 
L 356.823771 151.918804 
L 357.14875 151.673892 
L 358.448668 151.688027 
L 360.398545 151.828509 
L 364.2983 152.02985 
L 364.623279 151.738878 
L 366.573156 151.744374 
L 367.548095 151.718682 
L 369.172993 151.831627 
L 370.472911 151.885964 
L 378.272419 152.17057 
L 382.822133 152.257446 
L 383.147112 152.124089 
L 389.646703 152.30673 
L 390.621641 152.270049 
L 393.221477 152.374893 
L 396.471273 152.447032 
L 396.471273 152.447032 
" clip-path="url(#p1d3949de71)" style="fill: none; stroke: #8c564b; stroke-width: 2; stroke-linecap: square"/>
    <defs>
     <path id="m1341410a3c" d="M -0 4.242641 
L 2.545584 0 
L 0 -4.242641 
L -2.545584 -0 
z
" style="stroke: #8c564b; stroke-linejoin: miter"/>
    </defs>
    <g clip-path="url(#p1d3949de71)">
     <use xlink:href="#m1341410a3c" x="71.816727" y="261.216" style="fill: #8c564b; stroke: #8c564b; stroke-linejoin: miter"/>
     <use xlink:href="#m1341410a3c" x="136.812632" y="160.09999" style="fill: #8c564b; stroke: #8c564b; stroke-linejoin: miter"/>
     <use xlink:href="#m1341410a3c" x="201.808537" y="152.08544" style="fill: #8c564b; stroke: #8c564b; stroke-linejoin: miter"/>
     <use xlink:href="#m1341410a3c" x="266.804442" y="152.544069" style="fill: #8c564b; stroke: #8c564b; stroke-linejoin: miter"/>
     <use xlink:href="#m1341410a3c" x="331.800347" y="151.717907" style="fill: #8c564b; stroke: #8c564b; stroke-linejoin: miter"/>
    </g>
   </g>
   <g id="line2d_42">
    <path d="M 109.839332 273.312 
L 109.839332 7.2 
" clip-path="url(#p1d3949de71)" style="fill: none; stroke-dasharray: 7.4,3.2; stroke-dashoffset: 0; stroke: #8c564b; stroke-width: 2"/>
    <g clip-path="url(#p1d3949de71)">
     <use xlink:href="#m1341410a3c" x="109.839332" y="273.312" style="fill: #8c564b; stroke: #8c564b; stroke-linejoin: miter"/>
     <use xlink:href="#m1341410a3c" x="109.839332" y="7.2" style="fill: #8c564b; stroke: #8c564b; stroke-linejoin: miter"/>
    </g>
   </g>
   <g id="patch_3">
    <path d="M 55.584 273.312 
L 55.584 7.2 
" style="fill: none; stroke: #000000; stroke-width: 0.8; stroke-linejoin: miter; stroke-linecap: square"/>
   </g>
   <g id="patch_4">
    <path d="M 412.704 273.312 
L 412.704 7.2 
" style="fill: none; stroke: #000000; stroke-width: 0.8; stroke-linejoin: miter; stroke-linecap: square"/>
   </g>
   <g id="patch_5">
    <path d="M 55.584 273.312 
L 412.704 273.312 
" style="fill: none; stroke: #000000; stroke-width: 0.8; stroke-linejoin: miter; stroke-linecap: square"/>
   </g>
   <g id="patch_6">
    <path d="M 55.584 7.2 
L 412.704 7.2 
" style="fill: none; stroke: #000000; stroke-width: 0.8; stroke-linejoin: miter; stroke-linecap: square"/>
   </g>
   <g id="axes_2">
    <g id="patch_7">
     <path d="M 207.36 166.8672 
L 403.776 166.8672 
L 403.776 20.5056 
L 207.36 20.5056 
z
" style="fill: #ffffff"/>
    </g>
    <g id="matplotlib.axis_3">
     <g id="xtick_7">
      <g id="line2d_43">
       <path d="M 214.374857 166.8672 
L 214.374857 20.5056 
" clip-path="url(#p3d34eb3d55)" style="fill: none; stroke: #b0b0b0; stroke-width: 0.8; stroke-linecap: square"/>
      </g>
      <g id="line2d_44">
       <defs>
        <path id="ma5979964d6" d="M 0 0 
L 0 3.5 
" style="stroke: #000000; stroke-width: 2"/>
       </defs>
       <g>
        <use xlink:href="#ma5979964d6" x="214.374857" y="166.8672" style="stroke: #000000; stroke-width: 2"/>
       </g>
      </g>
      <g id="text_16">
       <!-- 100 -->
       <g transform="translate(201.013607 184.505012) scale(0.14 -0.14)">
        <use xlink:href="#DejaVuSans-31"/>
        <use xlink:href="#DejaVuSans-30" x="63.623047"/>
        <use xlink:href="#DejaVuSans-30" x="127.246094"/>
       </g>
      </g>
     </g>
     <g id="xtick_8">
      <g id="line2d_45">
       <path d="M 284.523429 166.8672 
L 284.523429 20.5056 
" clip-path="url(#p3d34eb3d55)" style="fill: none; stroke: #b0b0b0; stroke-width: 0.8; stroke-linecap: square"/>
      </g>
      <g id="line2d_46">
       <g>
        <use xlink:href="#ma5979964d6" x="284.523429" y="166.8672" style="stroke: #000000; stroke-width: 2"/>
       </g>
      </g>
      <g id="text_17">
       <!-- 120 -->
       <g transform="translate(271.162179 184.505012) scale(0.14 -0.14)">
        <use xlink:href="#DejaVuSans-31"/>
        <use xlink:href="#DejaVuSans-32" x="63.623047"/>
        <use xlink:href="#DejaVuSans-30" x="127.246094"/>
       </g>
      </g>
     </g>
     <g id="xtick_9">
      <g id="line2d_47">
       <path d="M 354.672 166.8672 
L 354.672 20.5056 
" clip-path="url(#p3d34eb3d55)" style="fill: none; stroke: #b0b0b0; stroke-width: 0.8; stroke-linecap: square"/>
      </g>
      <g id="line2d_48">
       <g>
        <use xlink:href="#ma5979964d6" x="354.672" y="166.8672" style="stroke: #000000; stroke-width: 2"/>
       </g>
      </g>
      <g id="text_18">
       <!-- 140 -->
       <g transform="translate(341.31075 184.505012) scale(0.14 -0.14)">
        <use xlink:href="#DejaVuSans-31"/>
        <use xlink:href="#DejaVuSans-34" x="63.623047"/>
        <use xlink:href="#DejaVuSans-30" x="127.246094"/>
       </g>
      </g>
     </g>
    </g>
    <g id="matplotlib.axis_4">
     <g id="ytick_10">
      <g id="line2d_49">
       <path d="M 207.36 127.084511 
L 403.776 127.084511 
" clip-path="url(#p3d34eb3d55)" style="fill: none; stroke: #b0b0b0; stroke-width: 0.8; stroke-linecap: square"/>
      </g>
      <g id="line2d_50">
       <defs>
        <path id="m82f83b6773" d="M 0 0 
L -3.5 0 
" style="stroke: #000000; stroke-width: 2"/>
       </defs>
       <g>
        <use xlink:href="#m82f83b6773" x="207.36" y="127.084511" style="stroke: #000000; stroke-width: 2"/>
       </g>
      </g>
      <g id="text_19">
       <!-- 5 -->
       <g transform="translate(191.4525 132.403418) scale(0.14 -0.14)">
        <defs>
         <path id="DejaVuSans-35" d="M 691 4666 
L 3169 4666 
L 3169 4134 
L 1269 4134 
L 1269 2991 
Q 1406 3038 1543 3061 
Q 1681 3084 1819 3084 
Q 2600 3084 3056 2656 
Q 3513 2228 3513 1497 
Q 3513 744 3044 326 
Q 2575 -91 1722 -91 
Q 1428 -91 1123 -41 
Q 819 9 494 109 
L 494 744 
Q 775 591 1075 516 
Q 1375 441 1709 441 
Q 2250 441 2565 725 
Q 2881 1009 2881 1497 
Q 2881 1984 2565 2268 
Q 2250 2553 1709 2553 
Q 1456 2553 1204 2497 
Q 953 2441 691 2322 
L 691 4666 
z
" transform="scale(0.015625)"/>
        </defs>
        <use xlink:href="#DejaVuSans-35"/>
       </g>
      </g>
     </g>
     <g id="ytick_11">
      <g id="line2d_51">
       <path d="M 207.36 77.371686 
L 403.776 77.371686 
" clip-path="url(#p3d34eb3d55)" style="fill: none; stroke: #b0b0b0; stroke-width: 0.8; stroke-linecap: square"/>
      </g>
      <g id="line2d_52">
       <g>
        <use xlink:href="#m82f83b6773" x="207.36" y="77.371686" style="stroke: #000000; stroke-width: 2"/>
       </g>
      </g>
      <g id="text_20">
       <!-- 10 -->
       <g transform="translate(182.545 82.690592) scale(0.14 -0.14)">
        <use xlink:href="#DejaVuSans-31"/>
        <use xlink:href="#DejaVuSans-30" x="63.623047"/>
       </g>
      </g>
     </g>
     <g id="ytick_12">
      <g id="line2d_53">
       <path d="M 207.36 27.65886 
L 403.776 27.65886 
" clip-path="url(#p3d34eb3d55)" style="fill: none; stroke: #b0b0b0; stroke-width: 0.8; stroke-linecap: square"/>
      </g>
      <g id="line2d_54">
       <g>
        <use xlink:href="#m82f83b6773" x="207.36" y="27.65886" style="stroke: #000000; stroke-width: 2"/>
       </g>
      </g>
      <g id="text_21">
       <!-- 15 -->
       <g transform="translate(182.545 32.977767) scale(0.14 -0.14)">
        <use xlink:href="#DejaVuSans-31"/>
        <use xlink:href="#DejaVuSans-35" x="63.623047"/>
       </g>
      </g>
     </g>
    </g>
    <g id="line2d_55">
     <path d="M -1 176.797337 
L 210.867429 176.797337 
L 214.374857 156.152819 
L 217.882286 159.48296 
L 221.389714 160.773329 
L 224.897143 161.487673 
L 231.912 162.369149 
L 238.926857 162.85103 
L 252.956571 163.630344 
L 281.016 164.839713 
L 288.030857 165.036222 
L 291.538286 164.881995 
L 302.060571 165.352897 
L 337.134857 166.186553 
L 351.164571 166.532432 
L 358.179429 166.604848 
L 372.209143 166.918144 
L 386.238857 167.138758 
L 410.790857 167.476123 
L 417.805714 167.506586 
L 422.811252 167.582521 
L 422.811252 167.582521 
" clip-path="url(#p3d34eb3d55)" style="fill: none; stroke: #1f77b4; stroke-width: 1.5; stroke-linecap: square"/>
    </g>
    <g id="line2d_56">
     <path d="M 214.374857 166.8672 
L 214.374857 20.5056 
" clip-path="url(#p3d34eb3d55)" style="fill: none; stroke-dasharray: 5.55,2.4; stroke-dashoffset: 0; stroke: #1f77b4; stroke-width: 1.5"/>
    </g>
    <g id="line2d_57">
     <path d="M -1 176.797337 
L 210.867429 176.797337 
L 214.374857 165.302988 
L 217.882286 166.498573 
L 221.389714 166.70631 
L 224.897143 166.445048 
L 228.404571 166.682782 
L 231.912 165.823367 
L 235.419429 165.897186 
L 238.926857 165.618428 
L 242.434286 166.198916 
L 245.941714 165.94037 
L 252.956571 165.679181 
L 259.971429 163.021266 
L 266.986286 162.999263 
L 270.493714 163.024794 
L 274.001143 131.477376 
L 277.508571 162.334532 
L 281.016 162.922703 
L 284.523429 162.601287 
L 288.030857 138.441365 
L 291.538286 163.597145 
L 295.045714 163.681212 
L 298.553143 163.556767 
L 302.060571 163.30906 
L 305.568 159.574206 
L 309.075429 161.805127 
L 312.582857 162.956024 
L 316.090286 159.072787 
L 319.597714 160.556353 
L 323.105143 160.412661 
L 326.612571 161.429538 
L 330.12 161.557057 
L 333.627429 161.407011 
L 337.134857 160.940433 
L 340.642286 158.956864 
L 344.149714 105.03004 
L 347.657143 108.055841 
L 351.164571 113.142612 
L 354.672 111.206643 
L 358.179429 114.338695 
L 361.686857 104.350773 
L 365.194286 114.262279 
L 368.701714 95.563383 
L 372.209143 114.456982 
L 375.716571 46.160635 
L 379.224 114.039177 
L 382.731429 35.669076 
L 386.238857 113.837475 
L 389.746286 91.54596 
L 393.253714 114.067746 
L 396.761143 20.518028 
L 400.268571 111.330843 
L 403.776 97.14446 
L 407.283429 113.426564 
L 410.790857 105.667869 
L 414.298286 113.617731 
L 417.805714 109.111898 
L 421.313143 113.598001 
L 422.811252 112.171531 
L 422.811252 112.171531 
" clip-path="url(#p3d34eb3d55)" style="fill: none; stroke: #ff7f0e; stroke-width: 1.5; stroke-linecap: square"/>
    </g>
    <g id="line2d_58">
     <path d="M 396.761143 166.8672 
L 396.761143 20.5056 
" clip-path="url(#p3d34eb3d55)" style="fill: none; stroke-dasharray: 5.55,2.4; stroke-dashoffset: 0; stroke: #ff7f0e; stroke-width: 1.5"/>
    </g>
    <g id="line2d_59">
     <path d="M -1 176.797337 
L 210.867429 176.797337 
L 214.374857 161.594453 
L 217.882286 165.358057 
L 221.389714 166.663912 
L 224.897143 167.11958 
L 235.419429 167.244833 
L 238.926857 167.380288 
L 245.941714 166.644325 
L 252.956571 166.775189 
L 256.464 166.419763 
L 259.971429 166.46168 
L 263.478857 164.67541 
L 266.986286 164.347493 
L 274.001143 164.114529 
L 277.508571 164.180757 
L 281.016 163.978588 
L 288.030857 164.030917 
L 291.538286 163.902808 
L 295.045714 163.975697 
L 302.060571 163.654163 
L 309.075429 163.637087 
L 312.582857 160.515179 
L 319.597714 161.400649 
L 323.105143 161.732909 
L 326.612571 161.122992 
L 347.657143 161.759568 
L 351.164571 148.831598 
L 354.672 150.61105 
L 358.179429 152.107681 
L 361.686857 153.305461 
L 365.194286 154.241632 
L 368.701714 154.748481 
L 372.209143 155.443216 
L 375.716571 155.833343 
L 382.731429 156.767595 
L 386.238857 156.801159 
L 393.253714 157.418727 
L 396.761143 157.465827 
L 403.776 157.846359 
L 410.790857 157.993388 
L 422.811252 158.481556 
L 422.811252 158.481556 
" clip-path="url(#p3d34eb3d55)" style="fill: none; stroke: #2ca02c; stroke-width: 1.5; stroke-linecap: square"/>
    </g>
    <g id="line2d_60">
     <path d="M 351.164571 166.8672 
L 351.164571 20.5056 
" clip-path="url(#p3d34eb3d55)" style="fill: none; stroke-dasharray: 5.55,2.4; stroke-dashoffset: 0; stroke: #2ca02c; stroke-width: 1.5"/>
    </g>
    <g id="line2d_61">
     <path d="M -1 176.797337 
L 210.867429 176.797337 
L 214.374857 162.333676 
L 217.882286 163.749432 
L 221.389714 164.226849 
L 231.912 164.365977 
L 235.419429 163.92985 
L 238.926857 162.692867 
L 242.434286 162.804717 
L 245.941714 162.223256 
L 249.449143 162.001725 
L 252.956571 162.02633 
L 256.464 161.838318 
L 259.971429 159.194331 
L 263.478857 159.006716 
L 270.493714 159.550735 
L 274.001143 159.747708 
L 284.523429 160.013461 
L 288.030857 159.777768 
L 302.060571 160.283512 
L 305.568 160.205469 
L 312.582857 160.274239 
L 316.090286 160.12503 
L 323.105143 160.000164 
L 326.612571 155.694869 
L 330.12 155.905131 
L 333.627429 155.828693 
L 340.642286 156.008752 
L 344.149714 156.042794 
L 351.164571 155.912379 
L 354.672 155.977232 
L 358.179429 155.436641 
L 361.686857 155.572147 
L 365.194286 154.854066 
L 372.209143 154.997158 
L 375.716571 154.87543 
L 379.224 137.825513 
L 382.731429 139.944948 
L 389.746286 143.816761 
L 393.253714 145.328702 
L 396.761143 146.475551 
L 403.776 148.138137 
L 410.790857 149.274306 
L 422.811252 150.470403 
L 422.811252 150.470403 
" clip-path="url(#p3d34eb3d55)" style="fill: none; stroke: #d62728; stroke-width: 1.5; stroke-linecap: square"/>
    </g>
    <g id="line2d_62">
     <path d="M 379.224 166.8672 
L 379.224 20.5056 
" clip-path="url(#p3d34eb3d55)" style="fill: none; stroke-dasharray: 5.55,2.4; stroke-dashoffset: 0; stroke: #d62728; stroke-width: 1.5"/>
    </g>
    <g id="line2d_63">
     <path d="M -1 176.797337 
L 210.867429 176.797337 
L 214.374857 149.086753 
L 217.882286 158.829454 
L 221.389714 161.926119 
L 224.897143 163.33193 
L 231.912 164.427639 
L 235.419429 164.699699 
L 238.926857 165.158173 
L 242.434286 165.063713 
L 245.941714 164.361913 
L 249.449143 164.454948 
L 256.464 164.273211 
L 263.478857 164.058469 
L 274.001143 164.356776 
L 284.523429 164.154484 
L 288.030857 163.647274 
L 291.538286 163.443892 
L 295.045714 163.486613 
L 298.553143 163.13251 
L 302.060571 163.25903 
L 305.568 163.268307 
L 309.075429 162.977871 
L 326.612571 162.907071 
L 333.627429 162.823324 
L 337.134857 162.907475 
L 347.657143 162.786064 
L 351.164571 162.591137 
L 365.194286 162.478702 
L 372.209143 162.467735 
L 375.716571 161.453175 
L 379.224 161.244832 
L 382.731429 161.220439 
L 386.238857 161.065677 
L 393.253714 161.047477 
L 400.268571 160.989608 
L 403.776 160.803556 
L 417.805714 160.753561 
L 422.811252 160.741087 
L 422.811252 160.741087 
" clip-path="url(#p3d34eb3d55)" style="fill: none; stroke: #9467bd; stroke-width: 1.5; stroke-linecap: square"/>
    </g>
    <g id="line2d_64">
     <path clip-path="url(#p3d34eb3d55)" style="fill: none; stroke-dasharray: 5.55,2.4; stroke-dashoffset: 0; stroke: #9467bd; stroke-width: 1.5"/>
    </g>
    <g id="line2d_65">
     <path d="M -1 176.797337 
L 210.867429 176.797337 
L 214.374857 149.778987 
L 217.882286 151.366536 
L 221.389714 150.104264 
L 224.897143 147.919502 
L 228.404571 147.477695 
L 231.912 147.555194 
L 235.419429 144.414223 
L 238.926857 141.576406 
L 242.434286 140.501418 
L 245.941714 139.156061 
L 249.449143 140.103144 
L 252.956571 139.211587 
L 256.464 138.876365 
L 259.971429 131.491002 
L 263.478857 140.878501 
L 266.986286 133.32561 
L 270.493714 128.004816 
L 274.001143 26.243089 
L 277.508571 135.590512 
L 281.016 104.531776 
L 284.523429 133.364977 
L 288.030857 135.378712 
L 291.538286 57.730986 
L 295.045714 45.640784 
L 298.553143 34.863003 
L 302.060571 56.656419 
L 305.568 65.540145 
L 309.075429 38.731727 
L 312.582857 77.545515 
L 316.090286 82.341674 
L 319.597714 81.676078 
L 326.612571 89.083159 
L 330.12 68.171019 
L 333.627429 69.931326 
L 337.134857 70.676094 
L 340.642286 90.095412 
L 344.149714 88.284791 
L 347.657143 95.126625 
L 351.164571 97.3745 
L 354.672 99.106563 
L 358.179429 99.410277 
L 361.686857 101.421507 
L 365.194286 101.227437 
L 368.701714 104.650074 
L 372.209143 104.518686 
L 375.716571 106.037283 
L 379.224 103.548436 
L 382.731429 107.11672 
L 386.238857 105.826807 
L 389.746286 107.516067 
L 393.253714 100.051167 
L 396.761143 109.660727 
L 400.268571 108.683388 
L 403.776 110.770496 
L 407.283429 96.681115 
L 410.790857 111.555891 
L 414.298286 111.512151 
L 417.805714 104.389915 
L 421.313143 101.840316 
L 422.811252 104.093715 
L 422.811252 104.093715 
" clip-path="url(#p3d34eb3d55)" style="fill: none; stroke: #8c564b; stroke-width: 1.5; stroke-linecap: square"/>
    </g>
    <g id="line2d_66">
     <path d="M 274.001143 166.8672 
L 274.001143 20.5056 
" clip-path="url(#p3d34eb3d55)" style="fill: none; stroke-dasharray: 5.55,2.4; stroke-dashoffset: 0; stroke: #8c564b; stroke-width: 1.5"/>
    </g>
    <g id="patch_8">
     <path d="M 207.36 166.8672 
L 207.36 20.5056 
" style="fill: none; stroke: #000000; stroke-width: 2; stroke-linejoin: miter; stroke-linecap: square"/>
    </g>
    <g id="patch_9">
     <path d="M 403.776 166.8672 
L 403.776 20.5056 
" style="fill: none; stroke: #000000; stroke-width: 2; stroke-linejoin: miter; stroke-linecap: square"/>
    </g>
    <g id="patch_10">
     <path d="M 207.36 166.8672 
L 403.776 166.8672 
" style="fill: none; stroke: #000000; stroke-width: 2; stroke-linejoin: miter; stroke-linecap: square"/>
    </g>
    <g id="patch_11">
     <path d="M 207.36 20.5056 
L 403.776 20.5056 
" style="fill: none; stroke: #000000; stroke-width: 2; stroke-linejoin: miter; stroke-linecap: square"/>
    </g>
   </g>
  </g>
  <g id="text_22">
   <!-- Timesteps -->
   <g transform="translate(197.599313 305.376375) scale(0.12 -0.12)">
    <defs>
     <path id="DejaVuSans-54" d="M -19 4666 
L 3928 4666 
L 3928 4134 
L 2272 4134 
L 2272 0 
L 1638 0 
L 1638 4134 
L -19 4134 
L -19 4666 
z
" transform="scale(0.015625)"/>
     <path id="DejaVuSans-69" d="M 603 3500 
L 1178 3500 
L 1178 0 
L 603 0 
L 603 3500 
z
M 603 4863 
L 1178 4863 
L 1178 4134 
L 603 4134 
L 603 4863 
z
" transform="scale(0.015625)"/>
     <path id="DejaVuSans-6d" d="M 3328 2828 
Q 3544 3216 3844 3400 
Q 4144 3584 4550 3584 
Q 5097 3584 5394 3201 
Q 5691 2819 5691 2113 
L 5691 0 
L 5113 0 
L 5113 2094 
Q 5113 2597 4934 2840 
Q 4756 3084 4391 3084 
Q 3944 3084 3684 2787 
Q 3425 2491 3425 1978 
L 3425 0 
L 2847 0 
L 2847 2094 
Q 2847 2600 2669 2842 
Q 2491 3084 2119 3084 
Q 1678 3084 1418 2786 
Q 1159 2488 1159 1978 
L 1159 0 
L 581 0 
L 581 3500 
L 1159 3500 
L 1159 2956 
Q 1356 3278 1631 3431 
Q 1906 3584 2284 3584 
Q 2666 3584 2933 3390 
Q 3200 3197 3328 2828 
z
" transform="scale(0.015625)"/>
     <path id="DejaVuSans-65" d="M 3597 1894 
L 3597 1613 
L 953 1613 
Q 991 1019 1311 708 
Q 1631 397 2203 397 
Q 2534 397 2845 478 
Q 3156 559 3463 722 
L 3463 178 
Q 3153 47 2828 -22 
Q 2503 -91 2169 -91 
Q 1331 -91 842 396 
Q 353 884 353 1716 
Q 353 2575 817 3079 
Q 1281 3584 2069 3584 
Q 2775 3584 3186 3129 
Q 3597 2675 3597 1894 
z
M 3022 2063 
Q 3016 2534 2758 2815 
Q 2500 3097 2075 3097 
Q 1594 3097 1305 2825 
Q 1016 2553 972 2059 
L 3022 2063 
z
" transform="scale(0.015625)"/>
     <path id="DejaVuSans-73" d="M 2834 3397 
L 2834 2853 
Q 2591 2978 2328 3040 
Q 2066 3103 1784 3103 
Q 1356 3103 1142 2972 
Q 928 2841 928 2578 
Q 928 2378 1081 2264 
Q 1234 2150 1697 2047 
L 1894 2003 
Q 2506 1872 2764 1633 
Q 3022 1394 3022 966 
Q 3022 478 2636 193 
Q 2250 -91 1575 -91 
Q 1294 -91 989 -36 
Q 684 19 347 128 
L 347 722 
Q 666 556 975 473 
Q 1284 391 1588 391 
Q 1994 391 2212 530 
Q 2431 669 2431 922 
Q 2431 1156 2273 1281 
Q 2116 1406 1581 1522 
L 1381 1569 
Q 847 1681 609 1914 
Q 372 2147 372 2553 
Q 372 3047 722 3315 
Q 1072 3584 1716 3584 
Q 2034 3584 2315 3537 
Q 2597 3491 2834 3397 
z
" transform="scale(0.015625)"/>
     <path id="DejaVuSans-74" d="M 1172 4494 
L 1172 3500 
L 2356 3500 
L 2356 3053 
L 1172 3053 
L 1172 1153 
Q 1172 725 1289 603 
Q 1406 481 1766 481 
L 2356 481 
L 2356 0 
L 1766 0 
Q 1100 0 847 248 
Q 594 497 594 1153 
L 594 3053 
L 172 3053 
L 172 3500 
L 594 3500 
L 594 4494 
L 1172 4494 
z
" transform="scale(0.015625)"/>
     <path id="DejaVuSans-70" d="M 1159 525 
L 1159 -1331 
L 581 -1331 
L 581 3500 
L 1159 3500 
L 1159 2969 
Q 1341 3281 1617 3432 
Q 1894 3584 2278 3584 
Q 2916 3584 3314 3078 
Q 3713 2572 3713 1747 
Q 3713 922 3314 415 
Q 2916 -91 2278 -91 
Q 1894 -91 1617 61 
Q 1341 213 1159 525 
z
M 3116 1747 
Q 3116 2381 2855 2742 
Q 2594 3103 2138 3103 
Q 1681 3103 1420 2742 
Q 1159 2381 1159 1747 
Q 1159 1113 1420 752 
Q 1681 391 2138 391 
Q 2594 391 2855 752 
Q 3116 1113 3116 1747 
z
" transform="scale(0.015625)"/>
    </defs>
    <use xlink:href="#DejaVuSans-54"/>
    <use xlink:href="#DejaVuSans-69" x="57.958984"/>
    <use xlink:href="#DejaVuSans-6d" x="85.742188"/>
    <use xlink:href="#DejaVuSans-65" x="183.154297"/>
    <use xlink:href="#DejaVuSans-73" x="244.677734"/>
    <use xlink:href="#DejaVuSans-74" x="296.777344"/>
    <use xlink:href="#DejaVuSans-65" x="335.986328"/>
    <use xlink:href="#DejaVuSans-70" x="397.509766"/>
    <use xlink:href="#DejaVuSans-73" x="460.986328"/>
   </g>
  </g>
  <g id="text_23">
   <!-- Mean estimate error for the best arm -->
   <g transform="translate(16.318125 250.200187) rotate(-90) scale(0.12 -0.12)">
    <defs>
     <path id="DejaVuSans-4d" d="M 628 4666 
L 1569 4666 
L 2759 1491 
L 3956 4666 
L 4897 4666 
L 4897 0 
L 4281 0 
L 4281 4097 
L 3078 897 
L 2444 897 
L 1241 4097 
L 1241 0 
L 628 0 
L 628 4666 
z
" transform="scale(0.015625)"/>
     <path id="DejaVuSans-61" d="M 2194 1759 
Q 1497 1759 1228 1600 
Q 959 1441 959 1056 
Q 959 750 1161 570 
Q 1363 391 1709 391 
Q 2188 391 2477 730 
Q 2766 1069 2766 1631 
L 2766 1759 
L 2194 1759 
z
M 3341 1997 
L 3341 0 
L 2766 0 
L 2766 531 
Q 2569 213 2275 61 
Q 1981 -91 1556 -91 
Q 1019 -91 701 211 
Q 384 513 384 1019 
Q 384 1609 779 1909 
Q 1175 2209 1959 2209 
L 2766 2209 
L 2766 2266 
Q 2766 2663 2505 2880 
Q 2244 3097 1772 3097 
Q 1472 3097 1187 3025 
Q 903 2953 641 2809 
L 641 3341 
Q 956 3463 1253 3523 
Q 1550 3584 1831 3584 
Q 2591 3584 2966 3190 
Q 3341 2797 3341 1997 
z
" transform="scale(0.015625)"/>
     <path id="DejaVuSans-6e" d="M 3513 2113 
L 3513 0 
L 2938 0 
L 2938 2094 
Q 2938 2591 2744 2837 
Q 2550 3084 2163 3084 
Q 1697 3084 1428 2787 
Q 1159 2491 1159 1978 
L 1159 0 
L 581 0 
L 581 3500 
L 1159 3500 
L 1159 2956 
Q 1366 3272 1645 3428 
Q 1925 3584 2291 3584 
Q 2894 3584 3203 3211 
Q 3513 2838 3513 2113 
z
" transform="scale(0.015625)"/>
     <path id="DejaVuSans-20" transform="scale(0.015625)"/>
     <path id="DejaVuSans-72" d="M 2631 2963 
Q 2534 3019 2420 3045 
Q 2306 3072 2169 3072 
Q 1681 3072 1420 2755 
Q 1159 2438 1159 1844 
L 1159 0 
L 581 0 
L 581 3500 
L 1159 3500 
L 1159 2956 
Q 1341 3275 1631 3429 
Q 1922 3584 2338 3584 
Q 2397 3584 2469 3576 
Q 2541 3569 2628 3553 
L 2631 2963 
z
" transform="scale(0.015625)"/>
     <path id="DejaVuSans-6f" d="M 1959 3097 
Q 1497 3097 1228 2736 
Q 959 2375 959 1747 
Q 959 1119 1226 758 
Q 1494 397 1959 397 
Q 2419 397 2687 759 
Q 2956 1122 2956 1747 
Q 2956 2369 2687 2733 
Q 2419 3097 1959 3097 
z
M 1959 3584 
Q 2709 3584 3137 3096 
Q 3566 2609 3566 1747 
Q 3566 888 3137 398 
Q 2709 -91 1959 -91 
Q 1206 -91 779 398 
Q 353 888 353 1747 
Q 353 2609 779 3096 
Q 1206 3584 1959 3584 
z
" transform="scale(0.015625)"/>
     <path id="DejaVuSans-66" d="M 2375 4863 
L 2375 4384 
L 1825 4384 
Q 1516 4384 1395 4259 
Q 1275 4134 1275 3809 
L 1275 3500 
L 2222 3500 
L 2222 3053 
L 1275 3053 
L 1275 0 
L 697 0 
L 697 3053 
L 147 3053 
L 147 3500 
L 697 3500 
L 697 3744 
Q 697 4328 969 4595 
Q 1241 4863 1831 4863 
L 2375 4863 
z
" transform="scale(0.015625)"/>
     <path id="DejaVuSans-68" d="M 3513 2113 
L 3513 0 
L 2938 0 
L 2938 2094 
Q 2938 2591 2744 2837 
Q 2550 3084 2163 3084 
Q 1697 3084 1428 2787 
Q 1159 2491 1159 1978 
L 1159 0 
L 581 0 
L 581 4863 
L 1159 4863 
L 1159 2956 
Q 1366 3272 1645 3428 
Q 1925 3584 2291 3584 
Q 2894 3584 3203 3211 
Q 3513 2838 3513 2113 
z
" transform="scale(0.015625)"/>
     <path id="DejaVuSans-62" d="M 3116 1747 
Q 3116 2381 2855 2742 
Q 2594 3103 2138 3103 
Q 1681 3103 1420 2742 
Q 1159 2381 1159 1747 
Q 1159 1113 1420 752 
Q 1681 391 2138 391 
Q 2594 391 2855 752 
Q 3116 1113 3116 1747 
z
M 1159 2969 
Q 1341 3281 1617 3432 
Q 1894 3584 2278 3584 
Q 2916 3584 3314 3078 
Q 3713 2572 3713 1747 
Q 3713 922 3314 415 
Q 2916 -91 2278 -91 
Q 1894 -91 1617 61 
Q 1341 213 1159 525 
L 1159 0 
L 581 0 
L 581 4863 
L 1159 4863 
L 1159 2969 
z
" transform="scale(0.015625)"/>
    </defs>
    <use xlink:href="#DejaVuSans-4d"/>
    <use xlink:href="#DejaVuSans-65" x="86.279297"/>
    <use xlink:href="#DejaVuSans-61" x="147.802734"/>
    <use xlink:href="#DejaVuSans-6e" x="209.082031"/>
    <use xlink:href="#DejaVuSans-20" x="272.460938"/>
    <use xlink:href="#DejaVuSans-65" x="304.248047"/>
    <use xlink:href="#DejaVuSans-73" x="365.771484"/>
    <use xlink:href="#DejaVuSans-74" x="417.871094"/>
    <use xlink:href="#DejaVuSans-69" x="457.080078"/>
    <use xlink:href="#DejaVuSans-6d" x="484.863281"/>
    <use xlink:href="#DejaVuSans-61" x="582.275391"/>
    <use xlink:href="#DejaVuSans-74" x="643.554688"/>
    <use xlink:href="#DejaVuSans-65" x="682.763672"/>
    <use xlink:href="#DejaVuSans-20" x="744.287109"/>
    <use xlink:href="#DejaVuSans-65" x="776.074219"/>
    <use xlink:href="#DejaVuSans-72" x="837.597656"/>
    <use xlink:href="#DejaVuSans-72" x="876.960938"/>
    <use xlink:href="#DejaVuSans-6f" x="915.824219"/>
    <use xlink:href="#DejaVuSans-72" x="977.005859"/>
    <use xlink:href="#DejaVuSans-20" x="1018.119141"/>
    <use xlink:href="#DejaVuSans-66" x="1049.90625"/>
    <use xlink:href="#DejaVuSans-6f" x="1085.111328"/>
    <use xlink:href="#DejaVuSans-72" x="1146.292969"/>
    <use xlink:href="#DejaVuSans-20" x="1187.40625"/>
    <use xlink:href="#DejaVuSans-74" x="1219.193359"/>
    <use xlink:href="#DejaVuSans-68" x="1258.402344"/>
    <use xlink:href="#DejaVuSans-65" x="1321.78125"/>
    <use xlink:href="#DejaVuSans-20" x="1383.304688"/>
    <use xlink:href="#DejaVuSans-62" x="1415.091797"/>
    <use xlink:href="#DejaVuSans-65" x="1478.568359"/>
    <use xlink:href="#DejaVuSans-73" x="1540.091797"/>
    <use xlink:href="#DejaVuSans-74" x="1592.191406"/>
    <use xlink:href="#DejaVuSans-20" x="1631.400391"/>
    <use xlink:href="#DejaVuSans-61" x="1663.1875"/>
    <use xlink:href="#DejaVuSans-72" x="1724.466797"/>
    <use xlink:href="#DejaVuSans-6d" x="1763.830078"/>
   </g>
  </g>
 </g>
 <defs>
  <clipPath id="p1d3949de71">
   <rect x="55.584" y="7.2" width="357.12" height="266.112"/>
  </clipPath>
  <clipPath id="p3d34eb3d55">
   <rect x="207.36" y="20.5056" width="196.416" height="146.3616"/>
  </clipPath>
 </defs>
</svg>
