<?xml version="1.0" encoding="utf-8" standalone="no"?>
<!DOCTYPE svg PUBLIC "-//W3C//DTD SVG 1.1//EN"
  "http://www.w3.org/Graphics/SVG/1.1/DTD/svg11.dtd">
<svg xmlns:xlink="http://www.w3.org/1999/xlink" width="419.904pt" height="315.072pt" viewBox="0 0 419.904 315.072" xmlns="http://www.w3.org/2000/svg" version="1.1">
 <metadata>
  <rdf:RDF xmlns:dc="http://purl.org/dc/elements/1.1/" xmlns:cc="http://creativecommons.org/ns#" xmlns:rdf="http://www.w3.org/1999/02/22-rdf-syntax-ns#">
   <cc:Work>
    <dc:type rdf:resource="http://purl.org/dc/dcmitype/StillImage"/>
    <dc:date>2024-04-17T18:17:52.398114</dc:date>
    <dc:format>image/svg+xml</dc:format>
    <dc:creator>
     <cc:Agent>
      <dc:title>Matplotlib v3.8.3, https://matplotlib.org/</dc:title>
     </cc:Agent>
    </dc:creator>
   </cc:Work>
  </rdf:RDF>
 </metadata>
 <defs>
  <style type="text/css">*{stroke-linejoin: round; stroke-linecap: butt}</style>
 </defs>
 <g id="figure_1">
  <g id="patch_1">
   <path d="M 0 315.072 
L 419.904 315.072 
L 419.904 0 
L 0 0 
z
" style="fill: #ffffff"/>
  </g>
  <g id="axes_1">
   <g id="patch_2">
    <path d="M 55.584 273.312 
L 412.704 273.312 
L 412.704 7.2 
L 55.584 7.2 
z
" style="fill: #ffffff"/>
   </g>
   <g id="PolyCollection_1">
    <path d="M 135.576538 248.765052 
L 135.576538 260.226515 
L 209.746113 260.226515 
L 209.746113 248.765052 
L 209.746113 248.765052 
L 135.576538 248.765052 
z
" clip-path="url(#p25ea8379f4)" style="fill-opacity: 0.2"/>
   </g>
   <g id="matplotlib.axis_1">
    <g id="xtick_1">
     <g id="line2d_1">
      <path d="M 71.816727 273.312 
L 71.816727 7.2 
" clip-path="url(#p25ea8379f4)" style="fill: none; stroke: #b0b0b0; stroke-width: 0.8; stroke-linecap: square"/>
     </g>
     <g id="line2d_2">
      <defs>
       <path id="ma46c6b3988" d="M 0 0 
L 0 3.5 
" style="stroke: #000000; stroke-width: 0.8"/>
      </defs>
      <g>
       <use xlink:href="#ma46c6b3988" x="71.816727" y="273.312" style="stroke: #000000; stroke-width: 0.8"/>
      </g>
     </g>
     <g id="text_1">
      <!-- 0 -->
      <g transform="translate(67.362977 290.949812) scale(0.14 -0.14)">
       <defs>
        <path id="DejaVuSans-30" d="M 2034 4250 
Q 1547 4250 1301 3770 
Q 1056 3291 1056 2328 
Q 1056 1369 1301 889 
Q 1547 409 2034 409 
Q 2525 409 2770 889 
Q 3016 1369 3016 2328 
Q 3016 3291 2770 3770 
Q 2525 4250 2034 4250 
z
M 2034 4750 
Q 2819 4750 3233 4129 
Q 3647 3509 3647 2328 
Q 3647 1150 3233 529 
Q 2819 -91 2034 -91 
Q 1250 -91 836 529 
Q 422 1150 422 2328 
Q 422 3509 836 4129 
Q 1250 4750 2034 4750 
z
" transform="scale(0.015625)"/>
       </defs>
       <use xlink:href="#DejaVuSans-30"/>
      </g>
     </g>
    </g>
    <g id="xtick_2">
     <g id="line2d_3">
      <path d="M 136.877758 273.312 
L 136.877758 7.2 
" clip-path="url(#p25ea8379f4)" style="fill: none; stroke: #b0b0b0; stroke-width: 0.8; stroke-linecap: square"/>
     </g>
     <g id="line2d_4">
      <g>
       <use xlink:href="#ma46c6b3988" x="136.877758" y="273.312" style="stroke: #000000; stroke-width: 0.8"/>
      </g>
     </g>
     <g id="text_2">
      <!-- 100 -->
      <g transform="translate(123.516508 290.949812) scale(0.14 -0.14)">
       <defs>
        <path id="DejaVuSans-31" d="M 794 531 
L 1825 531 
L 1825 4091 
L 703 3866 
L 703 4441 
L 1819 4666 
L 2450 4666 
L 2450 531 
L 3481 531 
L 3481 0 
L 794 0 
L 794 531 
z
" transform="scale(0.015625)"/>
       </defs>
       <use xlink:href="#DejaVuSans-31"/>
       <use xlink:href="#DejaVuSans-30" x="63.623047"/>
       <use xlink:href="#DejaVuSans-30" x="127.246094"/>
      </g>
     </g>
    </g>
    <g id="xtick_3">
     <g id="line2d_5">
      <path d="M 201.93879 273.312 
L 201.93879 7.2 
" clip-path="url(#p25ea8379f4)" style="fill: none; stroke: #b0b0b0; stroke-width: 0.8; stroke-linecap: square"/>
     </g>
     <g id="line2d_6">
      <g>
       <use xlink:href="#ma46c6b3988" x="201.93879" y="273.312" style="stroke: #000000; stroke-width: 0.8"/>
      </g>
     </g>
     <g id="text_3">
      <!-- 200 -->
      <g transform="translate(188.57754 290.949812) scale(0.14 -0.14)">
       <defs>
        <path id="DejaVuSans-32" d="M 1228 531 
L 3431 531 
L 3431 0 
L 469 0 
L 469 531 
Q 828 903 1448 1529 
Q 2069 2156 2228 2338 
Q 2531 2678 2651 2914 
Q 2772 3150 2772 3378 
Q 2772 3750 2511 3984 
Q 2250 4219 1831 4219 
Q 1534 4219 1204 4116 
Q 875 4013 500 3803 
L 500 4441 
Q 881 4594 1212 4672 
Q 1544 4750 1819 4750 
Q 2544 4750 2975 4387 
Q 3406 4025 3406 3419 
Q 3406 3131 3298 2873 
Q 3191 2616 2906 2266 
Q 2828 2175 2409 1742 
Q 1991 1309 1228 531 
z
" transform="scale(0.015625)"/>
       </defs>
       <use xlink:href="#DejaVuSans-32"/>
       <use xlink:href="#DejaVuSans-30" x="63.623047"/>
       <use xlink:href="#DejaVuSans-30" x="127.246094"/>
      </g>
     </g>
    </g>
    <g id="xtick_4">
     <g id="line2d_7">
      <path d="M 266.999821 273.312 
L 266.999821 7.2 
" clip-path="url(#p25ea8379f4)" style="fill: none; stroke: #b0b0b0; stroke-width: 0.8; stroke-linecap: square"/>
     </g>
     <g id="line2d_8">
      <g>
       <use xlink:href="#ma46c6b3988" x="266.999821" y="273.312" style="stroke: #000000; stroke-width: 0.8"/>
      </g>
     </g>
     <g id="text_4">
      <!-- 300 -->
      <g transform="translate(253.638571 290.949812) scale(0.14 -0.14)">
       <defs>
        <path id="DejaVuSans-33" d="M 2597 2516 
Q 3050 2419 3304 2112 
Q 3559 1806 3559 1356 
Q 3559 666 3084 287 
Q 2609 -91 1734 -91 
Q 1441 -91 1130 -33 
Q 819 25 488 141 
L 488 750 
Q 750 597 1062 519 
Q 1375 441 1716 441 
Q 2309 441 2620 675 
Q 2931 909 2931 1356 
Q 2931 1769 2642 2001 
Q 2353 2234 1838 2234 
L 1294 2234 
L 1294 2753 
L 1863 2753 
Q 2328 2753 2575 2939 
Q 2822 3125 2822 3475 
Q 2822 3834 2567 4026 
Q 2313 4219 1838 4219 
Q 1578 4219 1281 4162 
Q 984 4106 628 3988 
L 628 4550 
Q 988 4650 1302 4700 
Q 1616 4750 1894 4750 
Q 2613 4750 3031 4423 
Q 3450 4097 3450 3541 
Q 3450 3153 3228 2886 
Q 3006 2619 2597 2516 
z
" transform="scale(0.015625)"/>
       </defs>
       <use xlink:href="#DejaVuSans-33"/>
       <use xlink:href="#DejaVuSans-30" x="63.623047"/>
       <use xlink:href="#DejaVuSans-30" x="127.246094"/>
      </g>
     </g>
    </g>
    <g id="xtick_5">
     <g id="line2d_9">
      <path d="M 332.060852 273.312 
L 332.060852 7.2 
" clip-path="url(#p25ea8379f4)" style="fill: none; stroke: #b0b0b0; stroke-width: 0.8; stroke-linecap: square"/>
     </g>
     <g id="line2d_10">
      <g>
       <use xlink:href="#ma46c6b3988" x="332.060852" y="273.312" style="stroke: #000000; stroke-width: 0.8"/>
      </g>
     </g>
     <g id="text_5">
      <!-- 400 -->
      <g transform="translate(318.699602 290.949812) scale(0.14 -0.14)">
       <defs>
        <path id="DejaVuSans-34" d="M 2419 4116 
L 825 1625 
L 2419 1625 
L 2419 4116 
z
M 2253 4666 
L 3047 4666 
L 3047 1625 
L 3713 1625 
L 3713 1100 
L 3047 1100 
L 3047 0 
L 2419 0 
L 2419 1100 
L 313 1100 
L 313 1709 
L 2253 4666 
z
" transform="scale(0.015625)"/>
       </defs>
       <use xlink:href="#DejaVuSans-34"/>
       <use xlink:href="#DejaVuSans-30" x="63.623047"/>
       <use xlink:href="#DejaVuSans-30" x="127.246094"/>
      </g>
     </g>
    </g>
    <g id="xtick_6">
     <g id="line2d_11">
      <path d="M 397.121883 273.312 
L 397.121883 7.2 
" clip-path="url(#p25ea8379f4)" style="fill: none; stroke: #b0b0b0; stroke-width: 0.8; stroke-linecap: square"/>
     </g>
     <g id="line2d_12">
      <g>
       <use xlink:href="#ma46c6b3988" x="397.121883" y="273.312" style="stroke: #000000; stroke-width: 0.8"/>
      </g>
     </g>
     <g id="text_6">
      <!-- 500 -->
      <g transform="translate(383.760633 290.949812) scale(0.14 -0.14)">
       <defs>
        <path id="DejaVuSans-35" d="M 691 4666 
L 3169 4666 
L 3169 4134 
L 1269 4134 
L 1269 2991 
Q 1406 3038 1543 3061 
Q 1681 3084 1819 3084 
Q 2600 3084 3056 2656 
Q 3513 2228 3513 1497 
Q 3513 744 3044 326 
Q 2575 -91 1722 -91 
Q 1428 -91 1123 -41 
Q 819 9 494 109 
L 494 744 
Q 775 591 1075 516 
Q 1375 441 1709 441 
Q 2250 441 2565 725 
Q 2881 1009 2881 1497 
Q 2881 1984 2565 2268 
Q 2250 2553 1709 2553 
Q 1456 2553 1204 2497 
Q 953 2441 691 2322 
L 691 4666 
z
" transform="scale(0.015625)"/>
       </defs>
       <use xlink:href="#DejaVuSans-35"/>
       <use xlink:href="#DejaVuSans-30" x="63.623047"/>
       <use xlink:href="#DejaVuSans-30" x="127.246094"/>
      </g>
     </g>
    </g>
   </g>
   <g id="matplotlib.axis_2">
    <g id="ytick_1">
     <g id="line2d_13">
      <path d="M 55.584 261.216 
L 412.704 261.216 
" clip-path="url(#p25ea8379f4)" style="fill: none; stroke: #b0b0b0; stroke-width: 0.8; stroke-linecap: square"/>
     </g>
     <g id="line2d_14">
      <defs>
       <path id="me27c07fc4a" d="M 0 0 
L -3.5 0 
" style="stroke: #000000; stroke-width: 0.8"/>
      </defs>
      <g>
       <use xlink:href="#me27c07fc4a" x="55.584" y="261.216" style="stroke: #000000; stroke-width: 0.8"/>
      </g>
     </g>
     <g id="text_7">
      <!-- 0 -->
      <g transform="translate(39.6765 266.534906) scale(0.14 -0.14)">
       <use xlink:href="#DejaVuSans-30"/>
      </g>
     </g>
    </g>
    <g id="ytick_2">
     <g id="line2d_15">
      <path d="M 55.584 228.482615 
L 412.704 228.482615 
" clip-path="url(#p25ea8379f4)" style="fill: none; stroke: #b0b0b0; stroke-width: 0.8; stroke-linecap: square"/>
     </g>
     <g id="line2d_16">
      <g>
       <use xlink:href="#me27c07fc4a" x="55.584" y="228.482615" style="stroke: #000000; stroke-width: 0.8"/>
      </g>
     </g>
     <g id="text_8">
      <!-- 25 -->
      <g transform="translate(30.769 233.801522) scale(0.14 -0.14)">
       <use xlink:href="#DejaVuSans-32"/>
       <use xlink:href="#DejaVuSans-35" x="63.623047"/>
      </g>
     </g>
    </g>
    <g id="ytick_3">
     <g id="line2d_17">
      <path d="M 55.584 195.749231 
L 412.704 195.749231 
" clip-path="url(#p25ea8379f4)" style="fill: none; stroke: #b0b0b0; stroke-width: 0.8; stroke-linecap: square"/>
     </g>
     <g id="line2d_18">
      <g>
       <use xlink:href="#me27c07fc4a" x="55.584" y="195.749231" style="stroke: #000000; stroke-width: 0.8"/>
      </g>
     </g>
     <g id="text_9">
      <!-- 50 -->
      <g transform="translate(30.769 201.068137) scale(0.14 -0.14)">
       <use xlink:href="#DejaVuSans-35"/>
       <use xlink:href="#DejaVuSans-30" x="63.623047"/>
      </g>
     </g>
    </g>
    <g id="ytick_4">
     <g id="line2d_19">
      <path d="M 55.584 163.015846 
L 412.704 163.015846 
" clip-path="url(#p25ea8379f4)" style="fill: none; stroke: #b0b0b0; stroke-width: 0.8; stroke-linecap: square"/>
     </g>
     <g id="line2d_20">
      <g>
       <use xlink:href="#me27c07fc4a" x="55.584" y="163.015846" style="stroke: #000000; stroke-width: 0.8"/>
      </g>
     </g>
     <g id="text_10">
      <!-- 75 -->
      <g transform="translate(30.769 168.334752) scale(0.14 -0.14)">
       <defs>
        <path id="DejaVuSans-37" d="M 525 4666 
L 3525 4666 
L 3525 4397 
L 1831 0 
L 1172 0 
L 2766 4134 
L 525 4134 
L 525 4666 
z
" transform="scale(0.015625)"/>
       </defs>
       <use xlink:href="#DejaVuSans-37"/>
       <use xlink:href="#DejaVuSans-35" x="63.623047"/>
      </g>
     </g>
    </g>
    <g id="ytick_5">
     <g id="line2d_21">
      <path d="M 55.584 130.282461 
L 412.704 130.282461 
" clip-path="url(#p25ea8379f4)" style="fill: none; stroke: #b0b0b0; stroke-width: 0.8; stroke-linecap: square"/>
     </g>
     <g id="line2d_22">
      <g>
       <use xlink:href="#me27c07fc4a" x="55.584" y="130.282461" style="stroke: #000000; stroke-width: 0.8"/>
      </g>
     </g>
     <g id="text_11">
      <!-- 100 -->
      <g transform="translate(21.8615 135.601367) scale(0.14 -0.14)">
       <use xlink:href="#DejaVuSans-31"/>
       <use xlink:href="#DejaVuSans-30" x="63.623047"/>
       <use xlink:href="#DejaVuSans-30" x="127.246094"/>
      </g>
     </g>
    </g>
    <g id="ytick_6">
     <g id="line2d_23">
      <path d="M 55.584 97.549076 
L 412.704 97.549076 
" clip-path="url(#p25ea8379f4)" style="fill: none; stroke: #b0b0b0; stroke-width: 0.8; stroke-linecap: square"/>
     </g>
     <g id="line2d_24">
      <g>
       <use xlink:href="#me27c07fc4a" x="55.584" y="97.549076" style="stroke: #000000; stroke-width: 0.8"/>
      </g>
     </g>
     <g id="text_12">
      <!-- 125 -->
      <g transform="translate(21.8615 102.867983) scale(0.14 -0.14)">
       <use xlink:href="#DejaVuSans-31"/>
       <use xlink:href="#DejaVuSans-32" x="63.623047"/>
       <use xlink:href="#DejaVuSans-35" x="127.246094"/>
      </g>
     </g>
    </g>
    <g id="ytick_7">
     <g id="line2d_25">
      <path d="M 55.584 64.815692 
L 412.704 64.815692 
" clip-path="url(#p25ea8379f4)" style="fill: none; stroke: #b0b0b0; stroke-width: 0.8; stroke-linecap: square"/>
     </g>
     <g id="line2d_26">
      <g>
       <use xlink:href="#me27c07fc4a" x="55.584" y="64.815692" style="stroke: #000000; stroke-width: 0.8"/>
      </g>
     </g>
     <g id="text_13">
      <!-- 150 -->
      <g transform="translate(21.8615 70.134598) scale(0.14 -0.14)">
       <use xlink:href="#DejaVuSans-31"/>
       <use xlink:href="#DejaVuSans-35" x="63.623047"/>
       <use xlink:href="#DejaVuSans-30" x="127.246094"/>
      </g>
     </g>
    </g>
    <g id="ytick_8">
     <g id="line2d_27">
      <path d="M 55.584 32.082307 
L 412.704 32.082307 
" clip-path="url(#p25ea8379f4)" style="fill: none; stroke: #b0b0b0; stroke-width: 0.8; stroke-linecap: square"/>
     </g>
     <g id="line2d_28">
      <g>
       <use xlink:href="#me27c07fc4a" x="55.584" y="32.082307" style="stroke: #000000; stroke-width: 0.8"/>
      </g>
     </g>
     <g id="text_14">
      <!-- 175 -->
      <g transform="translate(21.8615 37.401213) scale(0.14 -0.14)">
       <use xlink:href="#DejaVuSans-31"/>
       <use xlink:href="#DejaVuSans-37" x="63.623047"/>
       <use xlink:href="#DejaVuSans-35" x="127.246094"/>
      </g>
     </g>
    </g>
   </g>
   <g id="line2d_29">
    <path d="M 71.816727 261.216 
L 136.227148 261.216 
L 136.877758 260.224878 
L 138.178979 260.374622 
L 146.636913 260.590861 
L 165.504612 260.83404 
L 189.577194 260.960784 
L 198.035128 260.979808 
L 264.397379 261.020171 
L 327.50658 260.989902 
L 335.313903 260.983253 
L 396.471273 260.987412 
L 396.471273 260.987412 
" clip-path="url(#p25ea8379f4)" style="fill: none; stroke: #1f77b4; stroke-width: 2; stroke-linecap: square"/>
    <defs>
     <path id="m7544f6e3f9" d="M 0 3 
C 0.795609 3 1.55874 2.683901 2.12132 2.12132 
C 2.683901 1.55874 3 0.795609 3 0 
C 3 -0.795609 2.683901 -1.55874 2.12132 -2.12132 
C 1.55874 -2.683901 0.795609 -3 0 -3 
C -0.795609 -3 -1.55874 -2.683901 -2.12132 -2.12132 
C -2.683901 -1.55874 -3 -0.795609 -3 0 
C -3 0.795609 -2.683901 1.55874 -2.12132 2.12132 
C -1.55874 2.683901 -0.795609 3 0 3 
z
" style="stroke: #1f77b4"/>
    </defs>
    <g clip-path="url(#p25ea8379f4)">
     <use xlink:href="#m7544f6e3f9" x="71.816727" y="261.216" style="fill: #1f77b4; stroke: #1f77b4"/>
     <use xlink:href="#m7544f6e3f9" x="201.93879" y="260.990849" style="fill: #1f77b4; stroke: #1f77b4"/>
     <use xlink:href="#m7544f6e3f9" x="332.060852" y="260.980769" style="fill: #1f77b4; stroke: #1f77b4"/>
    </g>
   </g>
   <g id="line2d_30">
    <path d="M 136.877758 273.312 
L 136.877758 7.2 
" clip-path="url(#p25ea8379f4)" style="fill: none; stroke-dasharray: 7.4,3.2; stroke-dashoffset: 0; stroke: #1f77b4; stroke-width: 2"/>
    <g clip-path="url(#p25ea8379f4)">
     <use xlink:href="#m7544f6e3f9" x="136.877758" y="273.312" style="fill: #1f77b4; stroke: #1f77b4"/>
     <use xlink:href="#m7544f6e3f9" x="136.877758" y="7.2" style="fill: #1f77b4; stroke: #1f77b4"/>
    </g>
   </g>
   <g id="line2d_31">
    <path d="M 71.816727 261.216 
L 136.227148 261.216 
L 136.877758 258.784271 
L 138.178979 258.244098 
L 138.829589 258.578501 
L 139.4802 258.024658 
L 140.13081 258.644238 
L 140.78142 258.26106 
L 141.432031 258.572049 
L 142.082641 257.604308 
L 142.733251 258.847252 
L 143.383862 233.727084 
L 144.034472 258.302402 
L 145.335692 258.717496 
L 145.986303 258.034031 
L 147.287523 258.717295 
L 147.938134 258.82363 
L 148.588744 258.621948 
L 149.239354 240.261517 
L 149.889965 258.256075 
L 150.540575 258.911367 
L 151.191185 255.65313 
L 151.841796 257.827512 
L 152.492406 257.730871 
L 153.793627 259.103504 
L 154.444237 259.012204 
L 155.745457 259.08586 
L 156.396068 258.924097 
L 157.046678 259.134334 
L 157.697288 258.870708 
L 158.347899 259.349029 
L 158.998509 257.601954 
L 159.649119 259.254831 
L 160.29973 257.720922 
L 160.95034 259.360342 
L 162.251561 259.429225 
L 162.902171 259.331098 
L 163.552781 259.393293 
L 164.203392 259.088757 
L 164.854002 259.442975 
L 166.155222 259.389916 
L 166.805833 259.074823 
L 167.456443 259.564459 
L 168.107053 259.552698 
L 168.757664 259.403436 
L 169.408274 259.517394 
L 170.709495 259.35919 
L 171.360105 259.480171 
L 172.010715 256.618 
L 172.661326 259.579763 
L 173.311936 258.662598 
L 173.962546 259.546999 
L 174.613156 259.072905 
L 175.263767 259.529519 
L 175.914377 259.213639 
L 176.564987 259.575281 
L 177.215598 258.860191 
L 177.866208 259.558462 
L 178.516818 259.364829 
L 179.167429 259.561477 
L 179.818039 259.397586 
L 180.468649 259.622013 
L 181.11926 259.337121 
L 181.76987 259.557649 
L 182.42048 259.51011 
L 183.071091 259.656511 
L 183.721701 259.418773 
L 184.372311 259.618129 
L 185.022921 259.449307 
L 185.673532 259.138139 
L 186.324142 259.485307 
L 186.974752 259.682252 
L 187.625363 259.455051 
L 188.275973 259.672754 
L 188.926583 258.704633 
L 189.577194 259.635262 
L 190.878414 259.584436 
L 192.179635 259.6163 
L 192.830245 259.314535 
L 194.131466 259.648879 
L 194.782076 259.555924 
L 195.432686 259.302776 
L 196.083297 259.588329 
L 197.384517 259.463314 
L 198.035128 259.07324 
L 199.336348 259.668747 
L 199.986959 259.661247 
L 200.637569 259.531281 
L 201.288179 259.535822 
L 201.93879 259.422432 
L 202.5894 259.449561 
L 203.24001 258.067156 
L 203.890621 259.379153 
L 205.842451 259.676094 
L 206.493062 259.567821 
L 207.143672 243.29164 
L 207.794282 259.550501 
L 208.444893 259.576253 
L 209.095503 259.472339 
L 209.746113 259.634317 
L 211.047334 259.463936 
L 211.697944 257.792729 
L 212.348555 259.375434 
L 212.999165 258.786389 
L 213.649775 259.387655 
L 215.601606 259.485663 
L 217.553437 259.424454 
L 218.204047 259.510667 
L 218.854658 259.370611 
L 219.505268 256.071111 
L 220.155878 259.400125 
L 220.806489 258.809446 
L 221.457099 259.485401 
L 222.107709 259.467134 
L 222.75832 258.283042 
L 223.40893 259.514617 
L 224.05954 259.146942 
L 224.71015 259.284485 
L 225.360761 258.87517 
L 226.011371 259.352825 
L 226.661981 259.248432 
L 229.264423 259.335876 
L 229.915033 259.219572 
L 231.216254 259.308146 
L 232.517474 259.054474 
L 233.168085 259.339092 
L 234.469305 259.371487 
L 235.119915 258.895036 
L 235.770526 259.320933 
L 236.421136 259.249312 
L 238.372967 259.367122 
L 239.674188 259.314916 
L 240.324798 259.382086 
L 240.975408 258.443904 
L 241.626019 259.428046 
L 242.276629 259.240322 
L 244.22846 259.448645 
L 244.87907 258.927749 
L 245.52968 259.405867 
L 248.782732 259.387669 
L 249.433342 258.136348 
L 250.083953 258.567069 
L 250.734563 259.439577 
L 251.385173 259.398574 
L 252.035784 259.469817 
L 252.686394 258.763646 
L 253.337004 259.494927 
L 253.987615 259.330631 
L 254.638225 259.501928 
L 255.939445 259.531962 
L 256.590056 259.400904 
L 257.240666 259.526227 
L 257.891276 258.291493 
L 258.541887 259.533494 
L 259.843107 259.541694 
L 261.794938 259.564759 
L 262.445549 259.482923 
L 263.096159 259.569579 
L 265.04799 259.555805 
L 268.301041 259.540083 
L 268.951652 259.412303 
L 269.602262 259.581679 
L 271.554093 259.594379 
L 272.204703 259.469802 
L 273.505924 259.589694 
L 281.963858 259.614272 
L 297.578505 259.412805 
L 298.229116 259.630499 
L 304.084608 259.618462 
L 306.036439 259.638192 
L 306.68705 259.543379 
L 307.33766 259.639071 
L 309.940101 259.641289 
L 310.590712 259.363183 
L 311.241322 259.646065 
L 311.891932 259.542898 
L 312.542543 259.649251 
L 323.602918 259.647719 
L 334.012683 259.660742 
L 352.880382 259.652114 
L 355.482823 259.653718 
L 367.193809 259.645045 
L 371.748081 259.665342 
L 396.471273 259.665209 
L 396.471273 259.665209 
" clip-path="url(#p25ea8379f4)" style="fill: none; stroke: #ff7f0e; stroke-width: 2; stroke-linecap: square"/>
    <defs>
     <path id="m4ea2164428" d="M 0 -3 
L -3 3 
L 3 3 
z
" style="stroke: #ff7f0e; stroke-linejoin: miter"/>
    </defs>
    <g clip-path="url(#p25ea8379f4)">
     <use xlink:href="#m4ea2164428" x="71.816727" y="261.216" style="fill: #ff7f0e; stroke: #ff7f0e; stroke-linejoin: miter"/>
     <use xlink:href="#m4ea2164428" x="201.93879" y="259.422432" style="fill: #ff7f0e; stroke: #ff7f0e; stroke-linejoin: miter"/>
     <use xlink:href="#m4ea2164428" x="332.060852" y="259.659407" style="fill: #ff7f0e; stroke: #ff7f0e; stroke-linejoin: miter"/>
    </g>
   </g>
   <g id="line2d_32">
    <path d="M 144.034472 273.312 
L 144.034472 7.2 
" clip-path="url(#p25ea8379f4)" style="fill: none; stroke-dasharray: 7.4,3.2; stroke-dashoffset: 0; stroke: #ff7f0e; stroke-width: 2"/>
    <g clip-path="url(#p25ea8379f4)">
     <use xlink:href="#m4ea2164428" x="144.034472" y="273.312" style="fill: #ff7f0e; stroke: #ff7f0e; stroke-linejoin: miter"/>
     <use xlink:href="#m4ea2164428" x="144.034472" y="7.2" style="fill: #ff7f0e; stroke: #ff7f0e; stroke-linejoin: miter"/>
    </g>
   </g>
   <g id="line2d_33">
    <path d="M 71.816727 261.216 
L 136.227148 261.216 
L 136.877758 260.241826 
L 138.829589 260.327076 
L 145.335692 260.383448 
L 149.889965 260.38654 
L 151.841796 260.331308 
L 161.60095 260.156726 
L 162.251561 259.849388 
L 171.360105 259.850399 
L 178.516818 259.85811 
L 179.167429 248.857579 
L 181.11926 249.243664 
L 183.721701 249.3826 
L 189.577194 249.351989 
L 220.155878 249.093107 
L 352.880382 248.809993 
L 396.471273 248.767248 
L 396.471273 248.767248 
" clip-path="url(#p25ea8379f4)" style="fill: none; stroke: #2ca02c; stroke-width: 2; stroke-linecap: square"/>
    <defs>
     <path id="m6faaae4c6d" d="M -3 3 
L 3 3 
L 3 -3 
L -3 -3 
z
" style="stroke: #2ca02c; stroke-linejoin: miter"/>
    </defs>
    <g clip-path="url(#p25ea8379f4)">
     <use xlink:href="#m6faaae4c6d" x="71.816727" y="261.216" style="fill: #2ca02c; stroke: #2ca02c; stroke-linejoin: miter"/>
     <use xlink:href="#m6faaae4c6d" x="201.93879" y="249.223939" style="fill: #2ca02c; stroke: #2ca02c; stroke-linejoin: miter"/>
     <use xlink:href="#m6faaae4c6d" x="332.060852" y="248.834217" style="fill: #2ca02c; stroke: #2ca02c; stroke-linejoin: miter"/>
    </g>
   </g>
   <g id="line2d_34">
    <path d="M 395.170052 273.312 
L 395.170052 7.2 
" clip-path="url(#p25ea8379f4)" style="fill: none; stroke-dasharray: 7.4,3.2; stroke-dashoffset: 0; stroke: #2ca02c; stroke-width: 2"/>
    <g clip-path="url(#p25ea8379f4)">
     <use xlink:href="#m6faaae4c6d" x="395.170052" y="273.312" style="fill: #2ca02c; stroke: #2ca02c; stroke-linejoin: miter"/>
     <use xlink:href="#m6faaae4c6d" x="395.170052" y="7.2" style="fill: #2ca02c; stroke: #2ca02c; stroke-linejoin: miter"/>
    </g>
   </g>
   <g id="line2d_35">
    <path d="M 71.816727 261.216 
L 136.227148 261.216 
L 136.877758 260.671897 
L 141.432031 260.75304 
L 147.287523 260.656308 
L 151.841796 260.615586 
L 155.094847 260.606506 
L 155.745457 260.113356 
L 162.251561 260.165367 
L 205.842451 260.25793 
L 286.51813 260.265261 
L 308.638881 260.260385 
L 382.157846 260.240416 
L 388.663949 260.229399 
L 396.471273 260.223519 
L 396.471273 260.223519 
" clip-path="url(#p25ea8379f4)" style="fill: none; stroke: #d62728; stroke-width: 2; stroke-linecap: square"/>
    <defs>
     <path id="m99b29908b4" d="M -3 3 
L 3 -3 
M -3 -3 
L 3 3 
" style="stroke: #d62728"/>
    </defs>
    <g clip-path="url(#p25ea8379f4)">
     <use xlink:href="#m99b29908b4" x="71.816727" y="261.216" style="fill: #d62728; stroke: #d62728"/>
     <use xlink:href="#m99b29908b4" x="201.93879" y="260.249747" style="fill: #d62728; stroke: #d62728"/>
     <use xlink:href="#m99b29908b4" x="332.060852" y="260.250727" style="fill: #d62728; stroke: #d62728"/>
    </g>
   </g>
   <g id="line2d_36">
    <path d="M 155.745457 273.312 
L 155.745457 7.2 
" clip-path="url(#p25ea8379f4)" style="fill: none; stroke-dasharray: 7.4,3.2; stroke-dashoffset: 0; stroke: #d62728; stroke-width: 2"/>
    <g clip-path="url(#p25ea8379f4)">
     <use xlink:href="#m99b29908b4" x="155.745457" y="273.312" style="fill: #d62728; stroke: #d62728"/>
     <use xlink:href="#m99b29908b4" x="155.745457" y="7.2" style="fill: #d62728; stroke: #d62728"/>
    </g>
   </g>
   <g id="line2d_37">
    <path d="M 71.816727 261.216 
L 136.227148 261.216 
L 136.877758 260.096576 
L 140.13081 260.1821 
L 187.625363 260.008334 
L 207.794282 259.987155 
L 208.444893 258.83815 
L 237.071746 259.203828 
L 264.397379 259.387433 
L 265.6986 259.326953 
L 297.578505 259.41899 
L 304.735219 259.427084 
L 396.471273 259.557156 
L 396.471273 259.557156 
" clip-path="url(#p25ea8379f4)" style="fill: none; stroke: #9467bd; stroke-width: 2; stroke-linecap: square"/>
    <defs>
     <path id="med817cee0d" d="M -0 3 
L 3 -3 
L -3 -3 
z
" style="stroke: #9467bd; stroke-linejoin: miter"/>
    </defs>
    <g clip-path="url(#p25ea8379f4)">
     <use xlink:href="#med817cee0d" x="71.816727" y="261.216" style="fill: #9467bd; stroke: #9467bd; stroke-linejoin: miter"/>
     <use xlink:href="#med817cee0d" x="201.93879" y="259.996622" style="fill: #9467bd; stroke: #9467bd; stroke-linejoin: miter"/>
     <use xlink:href="#med817cee0d" x="332.060852" y="259.470317" style="fill: #9467bd; stroke: #9467bd; stroke-linejoin: miter"/>
    </g>
   </g>
   <g id="line2d_38">
    <path d="M 208.444893 273.312 
L 208.444893 7.2 
" clip-path="url(#p25ea8379f4)" style="fill: none; stroke-dasharray: 7.4,3.2; stroke-dashoffset: 0; stroke: #9467bd; stroke-width: 2"/>
    <g clip-path="url(#p25ea8379f4)">
     <use xlink:href="#med817cee0d" x="208.444893" y="273.312" style="fill: #9467bd; stroke: #9467bd; stroke-linejoin: miter"/>
     <use xlink:href="#med817cee0d" x="208.444893" y="7.2" style="fill: #9467bd; stroke: #9467bd; stroke-linejoin: miter"/>
    </g>
   </g>
   <g id="line2d_39">
    <path d="M 71.816727 261.216 
L 136.227148 261.216 
L 136.877758 259.839885 
L 137.528369 259.905424 
L 138.178979 259.682075 
L 138.829589 259.638733 
L 139.4802 19.296 
L 140.13081 258.969375 
L 140.78142 259.932023 
L 141.432031 259.855044 
L 142.082641 258.162207 
L 142.733251 258.609132 
L 144.034472 260.105544 
L 144.685082 259.899166 
L 145.335692 259.894393 
L 145.986303 255.664569 
L 146.636913 258.830629 
L 147.287523 259.986673 
L 147.938134 260.214972 
L 149.239354 259.131265 
L 149.889965 256.321402 
L 150.540575 260.359451 
L 151.191185 259.97209 
L 151.841796 259.933122 
L 152.492406 258.548658 
L 153.143016 260.152968 
L 153.793627 260.42979 
L 154.444237 260.1035 
L 155.094847 258.059695 
L 155.745457 259.530015 
L 156.396068 235.526024 
L 157.046678 260.251651 
L 157.697288 259.50575 
L 158.347899 259.330424 
L 158.998509 259.27832 
L 159.649119 260.531429 
L 160.29973 258.729411 
L 160.95034 259.288013 
L 161.60095 260.336778 
L 162.251561 260.534924 
L 162.902171 257.727907 
L 163.552781 259.725794 
L 164.203392 260.487809 
L 164.854002 260.036432 
L 165.504612 259.135961 
L 166.155222 260.505465 
L 166.805833 260.208943 
L 167.456443 260.59765 
L 168.107053 259.201142 
L 168.757664 258.92077 
L 169.408274 260.448168 
L 170.058884 260.490256 
L 170.709495 255.665782 
L 171.360105 260.30494 
L 172.010715 259.976219 
L 172.661326 258.125313 
L 173.311936 259.70802 
L 173.962546 257.113126 
L 174.613156 256.383916 
L 175.263767 259.863982 
L 175.914377 260.164098 
L 176.564987 260.300922 
L 177.215598 260.077215 
L 177.866208 260.415374 
L 178.516818 260.421059 
L 179.167429 258.123053 
L 179.818039 260.463628 
L 180.468649 260.480031 
L 181.11926 260.269019 
L 181.76987 260.57776 
L 182.42048 260.539285 
L 183.071091 259.968493 
L 183.721701 260.447122 
L 184.372311 260.657819 
L 185.673532 260.470244 
L 186.324142 260.426493 
L 186.974752 259.486371 
L 187.625363 260.44133 
L 188.275973 260.628595 
L 188.926583 260.572648 
L 189.577194 260.704523 
L 190.227804 259.426226 
L 190.878414 260.695301 
L 191.529025 260.56212 
L 192.179635 260.759384 
L 192.830245 260.539754 
L 193.480856 260.658166 
L 194.131466 260.459685 
L 194.782076 259.760915 
L 195.432686 260.748031 
L 196.083297 260.760293 
L 196.733907 260.583591 
L 197.384517 260.80066 
L 199.336348 260.643278 
L 199.986959 260.695098 
L 200.637569 260.085545 
L 201.288179 259.726 
L 201.93879 260.45579 
L 202.5894 260.676601 
L 203.890621 260.769628 
L 204.541231 260.780754 
L 205.191841 253.743485 
L 205.842451 260.628257 
L 206.493062 260.799878 
L 214.300385 260.632766 
L 214.950996 260.569122 
L 215.601606 260.75836 
L 216.252216 260.634507 
L 216.902827 260.779178 
L 217.553437 260.484067 
L 218.204047 260.784941 
L 220.155878 260.631221 
L 220.806489 260.80645 
L 221.457099 260.710927 
L 222.107709 260.79103 
L 222.75832 260.712894 
L 223.40893 260.817369 
L 227.312592 260.754539 
L 229.264423 260.804786 
L 229.915033 260.7296 
L 230.565643 260.804087 
L 236.421136 260.512258 
L 237.722357 260.586121 
L 241.626019 260.533538 
L 242.927239 260.602147 
L 252.686394 260.682491 
L 296.277285 260.755496 
L 298.229116 260.757888 
L 339.217565 260.768765 
L 345.073058 260.757044 
L 380.856625 260.77534 
L 396.471273 260.752029 
L 396.471273 260.752029 
" clip-path="url(#p25ea8379f4)" style="fill: none; stroke: #8c564b; stroke-width: 2; stroke-linecap: square"/>
    <defs>
     <path id="m262a36c45c" d="M -0 4.242641 
L 2.545584 0 
L 0 -4.242641 
L -2.545584 -0 
z
" style="stroke: #8c564b; stroke-linejoin: miter"/>
    </defs>
    <g clip-path="url(#p25ea8379f4)">
     <use xlink:href="#m262a36c45c" x="71.816727" y="261.216" style="fill: #8c564b; stroke: #8c564b; stroke-linejoin: miter"/>
     <use xlink:href="#m262a36c45c" x="201.93879" y="260.45579" style="fill: #8c564b; stroke: #8c564b; stroke-linejoin: miter"/>
     <use xlink:href="#m262a36c45c" x="332.060852" y="260.773938" style="fill: #8c564b; stroke: #8c564b; stroke-linejoin: miter"/>
    </g>
   </g>
   <g id="line2d_40">
    <path d="M 140.13081 273.312 
L 140.13081 7.2 
" clip-path="url(#p25ea8379f4)" style="fill: none; stroke-dasharray: 7.4,3.2; stroke-dashoffset: 0; stroke: #8c564b; stroke-width: 2"/>
    <g clip-path="url(#p25ea8379f4)">
     <use xlink:href="#m262a36c45c" x="140.13081" y="273.312" style="fill: #8c564b; stroke: #8c564b; stroke-linejoin: miter"/>
     <use xlink:href="#m262a36c45c" x="140.13081" y="7.2" style="fill: #8c564b; stroke: #8c564b; stroke-linejoin: miter"/>
    </g>
   </g>
   <g id="patch_3">
    <path d="M 55.584 273.312 
L 55.584 7.2 
" style="fill: none; stroke: #000000; stroke-width: 0.8; stroke-linejoin: miter; stroke-linecap: square"/>
   </g>
   <g id="patch_4">
    <path d="M 412.704 273.312 
L 412.704 7.2 
" style="fill: none; stroke: #000000; stroke-width: 0.8; stroke-linejoin: miter; stroke-linecap: square"/>
   </g>
   <g id="patch_5">
    <path d="M 55.584 273.312 
L 412.704 273.312 
" style="fill: none; stroke: #000000; stroke-width: 0.8; stroke-linejoin: miter; stroke-linecap: square"/>
   </g>
   <g id="patch_6">
    <path d="M 55.584 7.2 
L 412.704 7.2 
" style="fill: none; stroke: #000000; stroke-width: 0.8; stroke-linejoin: miter; stroke-linecap: square"/>
   </g>
   <g id="axes_2">
    <g id="patch_7">
     <path d="M 207.36 166.8672 
L 403.776 166.8672 
L 403.776 20.5056 
L 207.36 20.5056 
z
" style="fill: #ffffff"/>
    </g>
    <g id="matplotlib.axis_3">
     <g id="xtick_7">
      <g id="line2d_41">
       <path d="M 210.805895 166.8672 
L 210.805895 20.5056 
" clip-path="url(#p837c075b35)" style="fill: none; stroke: #b0b0b0; stroke-width: 0.8; stroke-linecap: square"/>
      </g>
      <g id="line2d_42">
       <defs>
        <path id="m167e15621b" d="M 0 0 
L 0 3.5 
" style="stroke: #000000; stroke-width: 2"/>
       </defs>
       <g>
        <use xlink:href="#m167e15621b" x="210.805895" y="166.8672" style="stroke: #000000; stroke-width: 2"/>
       </g>
      </g>
      <g id="text_15">
       <!-- 100 -->
       <g transform="translate(197.444645 184.505012) scale(0.14 -0.14)">
        <use xlink:href="#DejaVuSans-31"/>
        <use xlink:href="#DejaVuSans-30" x="63.623047"/>
        <use xlink:href="#DejaVuSans-30" x="127.246094"/>
       </g>
      </g>
     </g>
     <g id="xtick_8">
      <g id="line2d_43">
       <path d="M 296.953263 166.8672 
L 296.953263 20.5056 
" clip-path="url(#p837c075b35)" style="fill: none; stroke: #b0b0b0; stroke-width: 0.8; stroke-linecap: square"/>
      </g>
      <g id="line2d_44">
       <g>
        <use xlink:href="#m167e15621b" x="296.953263" y="166.8672" style="stroke: #000000; stroke-width: 2"/>
       </g>
      </g>
      <g id="text_16">
       <!-- 150 -->
       <g transform="translate(283.592013 184.505012) scale(0.14 -0.14)">
        <use xlink:href="#DejaVuSans-31"/>
        <use xlink:href="#DejaVuSans-35" x="63.623047"/>
        <use xlink:href="#DejaVuSans-30" x="127.246094"/>
       </g>
      </g>
     </g>
     <g id="xtick_9">
      <g id="line2d_45">
       <path d="M 383.100632 166.8672 
L 383.100632 20.5056 
" clip-path="url(#p837c075b35)" style="fill: none; stroke: #b0b0b0; stroke-width: 0.8; stroke-linecap: square"/>
      </g>
      <g id="line2d_46">
       <g>
        <use xlink:href="#m167e15621b" x="383.100632" y="166.8672" style="stroke: #000000; stroke-width: 2"/>
       </g>
      </g>
      <g id="text_17">
       <!-- 200 -->
       <g transform="translate(369.739382 184.505012) scale(0.14 -0.14)">
        <use xlink:href="#DejaVuSans-32"/>
        <use xlink:href="#DejaVuSans-30" x="63.623047"/>
        <use xlink:href="#DejaVuSans-30" x="127.246094"/>
       </g>
      </g>
     </g>
    </g>
    <g id="matplotlib.axis_4">
     <g id="ytick_9">
      <g id="line2d_47">
       <path d="M 207.36 146.062682 
L 403.776 146.062682 
" clip-path="url(#p837c075b35)" style="fill: none; stroke: #b0b0b0; stroke-width: 0.8; stroke-linecap: square"/>
      </g>
      <g id="line2d_48">
       <defs>
        <path id="m976bc553e2" d="M 0 0 
L -3.5 0 
" style="stroke: #000000; stroke-width: 2"/>
       </defs>
       <g>
        <use xlink:href="#m976bc553e2" x="207.36" y="146.062682" style="stroke: #000000; stroke-width: 2"/>
       </g>
      </g>
      <g id="text_18">
       <!-- 2 -->
       <g transform="translate(191.4525 151.381588) scale(0.14 -0.14)">
        <use xlink:href="#DejaVuSans-32"/>
       </g>
      </g>
     </g>
     <g id="ytick_10">
      <g id="line2d_49">
       <path d="M 207.36 112.622548 
L 403.776 112.622548 
" clip-path="url(#p837c075b35)" style="fill: none; stroke: #b0b0b0; stroke-width: 0.8; stroke-linecap: square"/>
      </g>
      <g id="line2d_50">
       <g>
        <use xlink:href="#m976bc553e2" x="207.36" y="112.622548" style="stroke: #000000; stroke-width: 2"/>
       </g>
      </g>
      <g id="text_19">
       <!-- 4 -->
       <g transform="translate(191.4525 117.941454) scale(0.14 -0.14)">
        <use xlink:href="#DejaVuSans-34"/>
       </g>
      </g>
     </g>
     <g id="ytick_11">
      <g id="line2d_51">
       <path d="M 207.36 79.182414 
L 403.776 79.182414 
" clip-path="url(#p837c075b35)" style="fill: none; stroke: #b0b0b0; stroke-width: 0.8; stroke-linecap: square"/>
      </g>
      <g id="line2d_52">
       <g>
        <use xlink:href="#m976bc553e2" x="207.36" y="79.182414" style="stroke: #000000; stroke-width: 2"/>
       </g>
      </g>
      <g id="text_20">
       <!-- 6 -->
       <g transform="translate(191.4525 84.50132) scale(0.14 -0.14)">
        <defs>
         <path id="DejaVuSans-36" d="M 2113 2584 
Q 1688 2584 1439 2293 
Q 1191 2003 1191 1497 
Q 1191 994 1439 701 
Q 1688 409 2113 409 
Q 2538 409 2786 701 
Q 3034 994 3034 1497 
Q 3034 2003 2786 2293 
Q 2538 2584 2113 2584 
z
M 3366 4563 
L 3366 3988 
Q 3128 4100 2886 4159 
Q 2644 4219 2406 4219 
Q 1781 4219 1451 3797 
Q 1122 3375 1075 2522 
Q 1259 2794 1537 2939 
Q 1816 3084 2150 3084 
Q 2853 3084 3261 2657 
Q 3669 2231 3669 1497 
Q 3669 778 3244 343 
Q 2819 -91 2113 -91 
Q 1303 -91 875 529 
Q 447 1150 447 2328 
Q 447 3434 972 4092 
Q 1497 4750 2381 4750 
Q 2619 4750 2861 4703 
Q 3103 4656 3366 4563 
z
" transform="scale(0.015625)"/>
        </defs>
        <use xlink:href="#DejaVuSans-36"/>
       </g>
      </g>
     </g>
     <g id="ytick_12">
      <g id="line2d_53">
       <path d="M 207.36 45.74228 
L 403.776 45.74228 
" clip-path="url(#p837c075b35)" style="fill: none; stroke: #b0b0b0; stroke-width: 0.8; stroke-linecap: square"/>
      </g>
      <g id="line2d_54">
       <g>
        <use xlink:href="#m976bc553e2" x="207.36" y="45.74228" style="stroke: #000000; stroke-width: 2"/>
       </g>
      </g>
      <g id="text_21">
       <!-- 8 -->
       <g transform="translate(191.4525 51.061187) scale(0.14 -0.14)">
        <defs>
         <path id="DejaVuSans-38" d="M 2034 2216 
Q 1584 2216 1326 1975 
Q 1069 1734 1069 1313 
Q 1069 891 1326 650 
Q 1584 409 2034 409 
Q 2484 409 2743 651 
Q 3003 894 3003 1313 
Q 3003 1734 2745 1975 
Q 2488 2216 2034 2216 
z
M 1403 2484 
Q 997 2584 770 2862 
Q 544 3141 544 3541 
Q 544 4100 942 4425 
Q 1341 4750 2034 4750 
Q 2731 4750 3128 4425 
Q 3525 4100 3525 3541 
Q 3525 3141 3298 2862 
Q 3072 2584 2669 2484 
Q 3125 2378 3379 2068 
Q 3634 1759 3634 1313 
Q 3634 634 3220 271 
Q 2806 -91 2034 -91 
Q 1263 -91 848 271 
Q 434 634 434 1313 
Q 434 1759 690 2068 
Q 947 2378 1403 2484 
z
M 1172 3481 
Q 1172 3119 1398 2916 
Q 1625 2713 2034 2713 
Q 2441 2713 2670 2916 
Q 2900 3119 2900 3481 
Q 2900 3844 2670 4047 
Q 2441 4250 2034 4250 
Q 1625 4250 1398 4047 
Q 1172 3844 1172 3481 
z
" transform="scale(0.015625)"/>
        </defs>
        <use xlink:href="#DejaVuSans-38"/>
       </g>
      </g>
     </g>
    </g>
    <g id="line2d_55">
     <path d="M 38.511158 179.502816 
L 209.082947 179.502816 
L 210.805895 166.8463 
L 212.528842 168.256069 
L 214.251789 168.75851 
L 217.697684 169.343137 
L 226.312421 170.440165 
L 240.096 171.830843 
L 252.156632 172.806284 
L 264.217263 173.614456 
L 279.723789 174.406282 
L 283.169684 174.452765 
L 293.507368 174.865885 
L 307.290947 175.365174 
L 309.013895 175.426193 
L 310.736842 175.141166 
L 315.905684 175.386389 
L 329.689263 175.847694 
L 340.026947 176.025143 
L 352.087579 176.157827 
L 396.884211 176.759191 
L 420.904 176.821231 
L 420.904 176.821231 
" clip-path="url(#p837c075b35)" style="fill: none; stroke: #1f77b4; stroke-width: 1.5; stroke-linecap: square"/>
    </g>
    <g id="line2d_56">
     <path d="M 210.805895 166.8672 
L 210.805895 20.5056 
" clip-path="url(#p837c075b35)" style="fill: none; stroke-dasharray: 5.55,2.4; stroke-dashoffset: 0; stroke: #1f77b4; stroke-width: 1.5"/>
    </g>
    <g id="line2d_57">
     <path d="M 38.511158 179.502816 
L 209.082947 179.502816 
L 210.805895 148.449909 
L 212.528842 145.697185 
L 214.251789 141.551961 
L 215.974737 145.822245 
L 217.697684 138.749736 
L 219.420632 146.661705 
L 221.143579 141.768558 
L 222.866526 145.739859 
L 224.589474 133.38191 
L 226.312421 149.254169 
L 227.11945 -1 
M 228.971594 -1 
L 229.758316 142.296489 
L 231.481263 145.643041 
L 233.204211 147.597193 
L 234.927158 138.869431 
L 236.650105 142.93705 
L 238.373053 147.594638 
L 240.096 148.952512 
L 241.818947 146.377066 
L 242.901956 -1 
M 244.194845 -1 
L 245.264842 141.704903 
L 246.987789 150.072912 
L 248.710737 108.465588 
L 250.433684 136.2322 
L 252.156632 134.998101 
L 253.879579 144.533098 
L 255.602526 152.526473 
L 257.325474 151.360589 
L 259.048421 151.762996 
L 260.771368 152.301161 
L 262.494316 150.235465 
L 264.217263 152.920179 
L 265.940211 149.553703 
L 267.663158 155.661805 
L 269.386105 133.35185 
L 271.109053 154.458903 
L 272.832 134.871057 
L 274.554947 155.806271 
L 276.277895 156.597473 
L 278.000842 156.685903 
L 279.723789 155.432822 
L 281.446737 156.227045 
L 283.169684 152.338166 
L 284.892632 156.86148 
L 286.615579 156.835568 
L 288.338526 156.183927 
L 290.061474 152.16022 
L 291.784421 158.412818 
L 293.507368 158.26263 
L 295.230316 156.356571 
L 296.953263 157.811809 
L 298.676211 156.219788 
L 300.399158 155.791553 
L 302.122105 157.336472 
L 303.845053 120.786874 
L 305.568 158.608255 
L 307.290947 146.896158 
L 309.013895 158.189859 
L 310.736842 152.135732 
L 312.459789 157.966639 
L 314.182737 153.932883 
L 315.905684 158.551022 
L 317.628632 149.4194 
L 319.351579 158.336238 
L 321.074526 155.863571 
L 322.797474 158.374746 
L 324.520421 156.281866 
L 326.243368 159.147786 
L 327.966316 155.509736 
L 329.689263 158.325861 
L 331.412211 157.718785 
L 333.135158 159.588316 
L 334.858105 156.552425 
L 336.581053 159.098187 
L 338.304 156.942345 
L 340.026947 152.968763 
L 341.749895 157.402058 
L 343.472842 159.917025 
L 345.195789 157.015691 
L 346.918737 159.795734 
L 348.641684 147.432943 
L 350.364632 159.316968 
L 352.087579 158.663632 
L 353.810526 158.66792 
L 357.256421 159.074826 
L 358.979368 155.221323 
L 360.702316 157.52234 
L 362.425263 159.490861 
L 364.148211 158.303831 
L 365.871158 155.071161 
L 367.594105 158.717633 
L 369.317053 157.298594 
L 371.04 157.121207 
L 372.762947 152.140013 
L 374.485895 155.762949 
L 376.208842 159.744561 
L 377.931789 159.648795 
L 379.654737 157.989139 
L 381.377684 158.047126 
L 383.100632 156.599157 
L 384.823579 156.945585 
L 386.546526 139.292434 
L 388.269474 156.046485 
L 389.992421 157.708838 
L 391.715368 158.201629 
L 393.438316 159.838388 
L 395.161263 158.455749 
L 396.483084 -1 
M 397.285764 -1 
L 398.607158 158.234578 
L 400.330105 158.56343 
L 402.053053 157.236461 
L 403.776 159.304906 
L 405.498947 158.787956 
L 407.221895 157.129149 
L 408.944842 135.788032 
L 410.667789 155.998989 
L 412.390737 148.476952 
L 414.113684 156.155057 
L 415.836632 156.946291 
L 417.559579 157.90053 
L 419.282526 157.406601 
L 420.904 156.764028 
L 420.904 156.764028 
" clip-path="url(#p837c075b35)" style="fill: none; stroke: #ff7f0e; stroke-width: 1.5; stroke-linecap: square"/>
    </g>
    <g id="line2d_58">
     <path d="M 229.758316 166.8672 
L 229.758316 20.5056 
" clip-path="url(#p837c075b35)" style="fill: none; stroke-dasharray: 5.55,2.4; stroke-dashoffset: 0; stroke: #ff7f0e; stroke-width: 1.5"/>
    </g>
    <g id="line2d_59">
     <path d="M 38.511158 179.502816 
L 209.082947 179.502816 
L 210.805895 167.062723 
L 212.528842 167.703723 
L 214.251789 167.849817 
L 215.974737 168.15136 
L 217.697684 168.083495 
L 219.420632 168.321819 
L 224.589474 168.432252 
L 228.035368 168.722852 
L 231.481263 168.802565 
L 236.650105 169.082888 
L 238.373053 168.955709 
L 243.541895 168.917074 
L 245.264842 168.910702 
L 246.987789 168.28326 
L 248.710737 168.315061 
L 253.879579 168.096685 
L 259.048421 168.143454 
L 262.494316 168.109186 
L 267.663158 168.126894 
L 269.386105 167.296395 
L 274.554947 167.455677 
L 276.277895 165.975999 
L 278.000842 162.051327 
L 283.169684 162.280756 
L 288.338526 162.438033 
L 290.061474 162.365593 
L 291.784421 162.125885 
L 296.953263 162.218291 
L 298.676211 161.97067 
L 303.845053 162.053099 
L 312.459789 162.168401 
L 315.905684 162.092581 
L 321.074526 162.162718 
L 322.797474 21.687162 
L 324.520421 23.771215 
L 326.243368 25.469868 
L 327.966316 26.617417 
L 329.689263 27.327248 
L 331.412211 27.851879 
L 333.135158 28.19087 
L 336.581053 28.500428 
L 340.026947 28.591038 
L 343.472842 28.565639 
L 345.195789 28.364195 
L 346.918737 28.326277 
L 348.641684 28.095141 
L 360.702316 27.545324 
L 367.594105 27.22014 
L 369.317053 26.941516 
L 381.377684 26.496767 
L 384.823579 26.307973 
L 395.161263 25.948323 
L 400.330105 25.714537 
L 420.904 25.190178 
L 420.904 25.190178 
" clip-path="url(#p837c075b35)" style="fill: none; stroke: #2ca02c; stroke-width: 1.5; stroke-linecap: square"/>
    </g>
    <g id="line2d_60">
     <path clip-path="url(#p837c075b35)" style="fill: none; stroke-dasharray: 5.55,2.4; stroke-dashoffset: 0; stroke: #2ca02c; stroke-width: 1.5"/>
    </g>
    <g id="line2d_61">
     <path d="M 38.511158 179.502816 
L 209.082947 179.502816 
L 210.805895 172.554675 
L 214.251789 173.15789 
L 215.974737 173.429868 
L 217.697684 173.501612 
L 219.420632 173.347427 
L 221.143579 173.413261 
L 222.866526 173.590863 
L 233.204211 173.481177 
L 234.927158 173.106159 
L 236.650105 173.140226 
L 238.373053 172.355609 
L 240.096 172.09735 
L 245.264842 172.127219 
L 246.987789 171.702103 
L 252.156632 171.863994 
L 253.879579 171.6426 
L 259.048421 171.719642 
L 260.771368 165.422171 
L 264.217263 165.840472 
L 267.663158 165.899837 
L 269.386105 165.972121 
L 274.554947 165.952884 
L 279.723789 166.124782 
L 288.338526 166.331678 
L 293.507368 166.365958 
L 295.230316 166.44062 
L 296.953263 166.119793 
L 303.845053 166.31514 
L 310.736842 166.469222 
L 319.351579 166.665455 
L 321.074526 166.596335 
L 326.243368 166.697807 
L 377.931789 167.166551 
L 381.377684 167.142547 
L 408.944842 167.374052 
L 420.904 167.478707 
L 420.904 167.478707 
" clip-path="url(#p837c075b35)" style="fill: none; stroke: #d62728; stroke-width: 1.5; stroke-linecap: square"/>
    </g>
    <g id="line2d_62">
     <path d="M 260.771368 166.8672 
L 260.771368 20.5056 
" clip-path="url(#p837c075b35)" style="fill: none; stroke-dasharray: 5.55,2.4; stroke-dashoffset: 0; stroke: #d62728; stroke-width: 1.5"/>
    </g>
    <g id="line2d_63">
     <path d="M 38.511158 179.502816 
L 209.082947 179.502816 
L 210.805895 165.207901 
L 212.528842 165.702382 
L 214.251789 165.625381 
L 219.420632 166.300029 
L 221.143579 166.250773 
L 228.035368 166.720499 
L 233.204211 166.665505 
L 234.927158 166.77332 
L 243.541895 166.689405 
L 245.264842 165.14682 
L 248.710737 165.220178 
L 255.602526 165.245154 
L 257.325474 164.590914 
L 262.494316 164.672979 
L 264.217263 164.502244 
L 269.386105 164.64073 
L 293.507368 164.697001 
L 314.182737 164.52863 
L 321.074526 164.302408 
L 327.966316 164.316111 
L 329.689263 164.19875 
L 340.026947 164.185543 
L 343.472842 164.059636 
L 358.979368 164.168738 
L 367.594105 164.007711 
L 369.317053 164.023633 
L 371.04 163.914379 
L 391.715368 163.993594 
L 393.438316 163.83854 
L 398.607158 163.810598 
L 400.330105 149.137935 
L 405.498947 149.648612 
L 415.836632 150.651899 
L 420.904 151.038221 
L 420.904 151.038221 
" clip-path="url(#p837c075b35)" style="fill: none; stroke: #9467bd; stroke-width: 1.5; stroke-linecap: square"/>
    </g>
    <g id="line2d_64">
     <path d="M 400.330105 166.8672 
L 400.330105 20.5056 
" clip-path="url(#p837c075b35)" style="fill: none; stroke-dasharray: 5.55,2.4; stroke-dashoffset: 0; stroke: #9467bd; stroke-width: 1.5"/>
    </g>
    <g id="line2d_65">
     <path d="M 38.511158 179.502816 
L 209.082947 179.502816 
L 210.805895 161.92998 
L 212.528842 162.766905 
L 214.251789 159.914761 
L 215.974737 159.361297 
L 216.06476 -1 
M 219.335169 -1 
L 219.420632 150.813659 
L 221.143579 163.106571 
L 222.866526 162.123562 
L 224.589474 140.506215 
L 226.312421 146.213402 
L 228.035368 156.45702 
L 229.758316 165.322412 
L 231.481263 162.686998 
L 233.204211 162.626037 
L 234.927158 108.611661 
L 236.650105 149.0419 
L 238.373053 163.804447 
L 240.096 166.719796 
L 243.541895 152.880977 
L 245.264842 116.999339 
L 246.987789 168.564775 
L 248.710737 163.61823 
L 250.433684 163.120606 
L 252.156632 145.441158 
L 253.879579 165.928012 
L 255.602526 169.463004 
L 257.325474 165.29631 
L 259.048421 139.197151 
L 260.771368 157.972975 
L 261.664931 -1 
M 263.299495 -1 
L 264.217263 167.188187 
L 265.940211 157.663119 
L 267.663158 155.424217 
L 269.386105 154.758864 
L 271.109053 170.760925 
L 272.832 147.749357 
L 274.554947 154.882634 
L 276.277895 168.275245 
L 278.000842 170.805557 
L 279.723789 134.960253 
L 281.446737 160.473057 
L 283.169684 170.203903 
L 284.892632 164.439862 
L 286.615579 152.94095 
L 288.338526 170.429357 
L 290.061474 166.642815 
L 291.784421 171.606559 
L 293.507368 153.773305 
L 295.230316 150.19298 
L 296.953263 169.697686 
L 298.676211 170.235148 
L 300.399158 108.627147 
L 302.122105 167.868685 
L 303.845053 163.670956 
L 305.568 140.035083 
L 307.290947 160.246075 
L 309.013895 127.10957 
L 310.736842 117.797641 
L 312.459789 162.237692 
L 314.182737 166.070149 
L 315.905684 167.81737 
L 317.628632 164.96066 
L 319.351579 169.278912 
L 321.074526 169.351507 
L 322.797474 140.006226 
L 324.520421 169.895111 
L 326.243368 170.104578 
L 327.966316 167.409977 
L 329.689263 171.35256 
L 331.412211 170.861239 
L 333.135158 163.572295 
L 334.858105 169.684328 
L 336.581053 172.374908 
L 338.304 170.631812 
L 341.749895 169.420906 
L 343.472842 157.415652 
L 345.195789 169.61037 
L 346.918737 172.001722 
L 348.641684 171.287289 
L 350.364632 172.971307 
L 352.087579 156.647605 
L 353.810526 172.853554 
L 355.533474 171.152837 
L 357.256421 173.671878 
L 358.979368 170.867232 
L 360.702316 172.379332 
L 362.425263 169.844761 
L 364.148211 160.921547 
L 365.871158 173.526901 
L 367.594105 173.683488 
L 369.317053 171.427022 
L 371.04 174.198971 
L 372.762947 173.262237 
L 374.485895 173.007542 
L 376.208842 172.18922 
L 377.931789 172.850959 
L 379.654737 165.067025 
L 381.377684 160.47568 
L 383.100632 169.795016 
L 384.823579 172.61475 
L 386.546526 173.541106 
L 388.269474 173.802691 
L 389.992421 173.944778 
L 391.715368 84.079627 
L 393.438316 171.997407 
L 395.161263 174.188986 
L 396.884211 174.125804 
L 400.330105 173.611375 
L 402.053053 174.388912 
L 403.776 172.815654 
L 405.498947 173.813209 
L 407.221895 173.745651 
L 410.667789 174.196074 
L 414.113684 174.381366 
L 415.836632 172.054977 
L 417.559579 171.242261 
L 419.282526 173.658799 
L 420.904 172.170358 
L 420.904 172.170358 
" clip-path="url(#p837c075b35)" style="fill: none; stroke: #8c564b; stroke-width: 1.5; stroke-linecap: square"/>
    </g>
    <g id="line2d_66">
     <path d="M 219.420632 166.8672 
L 219.420632 20.5056 
" clip-path="url(#p837c075b35)" style="fill: none; stroke-dasharray: 5.55,2.4; stroke-dashoffset: 0; stroke: #8c564b; stroke-width: 1.5"/>
    </g>
    <g id="patch_8">
     <path d="M 207.36 166.8672 
L 207.36 20.5056 
" style="fill: none; stroke: #000000; stroke-width: 2; stroke-linejoin: miter; stroke-linecap: square"/>
    </g>
    <g id="patch_9">
     <path d="M 403.776 166.8672 
L 403.776 20.5056 
" style="fill: none; stroke: #000000; stroke-width: 2; stroke-linejoin: miter; stroke-linecap: square"/>
    </g>
    <g id="patch_10">
     <path d="M 207.36 166.8672 
L 403.776 166.8672 
" style="fill: none; stroke: #000000; stroke-width: 2; stroke-linejoin: miter; stroke-linecap: square"/>
    </g>
    <g id="patch_11">
     <path d="M 207.36 20.5056 
L 403.776 20.5056 
" style="fill: none; stroke: #000000; stroke-width: 2; stroke-linejoin: miter; stroke-linecap: square"/>
    </g>
   </g>
  </g>
  <g id="text_22">
   <!-- Timesteps -->
   <g transform="translate(197.599313 305.376375) scale(0.12 -0.12)">
    <defs>
     <path id="DejaVuSans-54" d="M -19 4666 
L 3928 4666 
L 3928 4134 
L 2272 4134 
L 2272 0 
L 1638 0 
L 1638 4134 
L -19 4134 
L -19 4666 
z
" transform="scale(0.015625)"/>
     <path id="DejaVuSans-69" d="M 603 3500 
L 1178 3500 
L 1178 0 
L 603 0 
L 603 3500 
z
M 603 4863 
L 1178 4863 
L 1178 4134 
L 603 4134 
L 603 4863 
z
" transform="scale(0.015625)"/>
     <path id="DejaVuSans-6d" d="M 3328 2828 
Q 3544 3216 3844 3400 
Q 4144 3584 4550 3584 
Q 5097 3584 5394 3201 
Q 5691 2819 5691 2113 
L 5691 0 
L 5113 0 
L 5113 2094 
Q 5113 2597 4934 2840 
Q 4756 3084 4391 3084 
Q 3944 3084 3684 2787 
Q 3425 2491 3425 1978 
L 3425 0 
L 2847 0 
L 2847 2094 
Q 2847 2600 2669 2842 
Q 2491 3084 2119 3084 
Q 1678 3084 1418 2786 
Q 1159 2488 1159 1978 
L 1159 0 
L 581 0 
L 581 3500 
L 1159 3500 
L 1159 2956 
Q 1356 3278 1631 3431 
Q 1906 3584 2284 3584 
Q 2666 3584 2933 3390 
Q 3200 3197 3328 2828 
z
" transform="scale(0.015625)"/>
     <path id="DejaVuSans-65" d="M 3597 1894 
L 3597 1613 
L 953 1613 
Q 991 1019 1311 708 
Q 1631 397 2203 397 
Q 2534 397 2845 478 
Q 3156 559 3463 722 
L 3463 178 
Q 3153 47 2828 -22 
Q 2503 -91 2169 -91 
Q 1331 -91 842 396 
Q 353 884 353 1716 
Q 353 2575 817 3079 
Q 1281 3584 2069 3584 
Q 2775 3584 3186 3129 
Q 3597 2675 3597 1894 
z
M 3022 2063 
Q 3016 2534 2758 2815 
Q 2500 3097 2075 3097 
Q 1594 3097 1305 2825 
Q 1016 2553 972 2059 
L 3022 2063 
z
" transform="scale(0.015625)"/>
     <path id="DejaVuSans-73" d="M 2834 3397 
L 2834 2853 
Q 2591 2978 2328 3040 
Q 2066 3103 1784 3103 
Q 1356 3103 1142 2972 
Q 928 2841 928 2578 
Q 928 2378 1081 2264 
Q 1234 2150 1697 2047 
L 1894 2003 
Q 2506 1872 2764 1633 
Q 3022 1394 3022 966 
Q 3022 478 2636 193 
Q 2250 -91 1575 -91 
Q 1294 -91 989 -36 
Q 684 19 347 128 
L 347 722 
Q 666 556 975 473 
Q 1284 391 1588 391 
Q 1994 391 2212 530 
Q 2431 669 2431 922 
Q 2431 1156 2273 1281 
Q 2116 1406 1581 1522 
L 1381 1569 
Q 847 1681 609 1914 
Q 372 2147 372 2553 
Q 372 3047 722 3315 
Q 1072 3584 1716 3584 
Q 2034 3584 2315 3537 
Q 2597 3491 2834 3397 
z
" transform="scale(0.015625)"/>
     <path id="DejaVuSans-74" d="M 1172 4494 
L 1172 3500 
L 2356 3500 
L 2356 3053 
L 1172 3053 
L 1172 1153 
Q 1172 725 1289 603 
Q 1406 481 1766 481 
L 2356 481 
L 2356 0 
L 1766 0 
Q 1100 0 847 248 
Q 594 497 594 1153 
L 594 3053 
L 172 3053 
L 172 3500 
L 594 3500 
L 594 4494 
L 1172 4494 
z
" transform="scale(0.015625)"/>
     <path id="DejaVuSans-70" d="M 1159 525 
L 1159 -1331 
L 581 -1331 
L 581 3500 
L 1159 3500 
L 1159 2969 
Q 1341 3281 1617 3432 
Q 1894 3584 2278 3584 
Q 2916 3584 3314 3078 
Q 3713 2572 3713 1747 
Q 3713 922 3314 415 
Q 2916 -91 2278 -91 
Q 1894 -91 1617 61 
Q 1341 213 1159 525 
z
M 3116 1747 
Q 3116 2381 2855 2742 
Q 2594 3103 2138 3103 
Q 1681 3103 1420 2742 
Q 1159 2381 1159 1747 
Q 1159 1113 1420 752 
Q 1681 391 2138 391 
Q 2594 391 2855 752 
Q 3116 1113 3116 1747 
z
" transform="scale(0.015625)"/>
    </defs>
    <use xlink:href="#DejaVuSans-54"/>
    <use xlink:href="#DejaVuSans-69" x="57.958984"/>
    <use xlink:href="#DejaVuSans-6d" x="85.742188"/>
    <use xlink:href="#DejaVuSans-65" x="183.154297"/>
    <use xlink:href="#DejaVuSans-73" x="244.677734"/>
    <use xlink:href="#DejaVuSans-74" x="296.777344"/>
    <use xlink:href="#DejaVuSans-65" x="335.986328"/>
    <use xlink:href="#DejaVuSans-70" x="397.509766"/>
    <use xlink:href="#DejaVuSans-73" x="460.986328"/>
   </g>
  </g>
  <g id="text_23">
   <!-- Mean estimate error for the best arm -->
   <g transform="translate(16.318125 250.200187) rotate(-90) scale(0.12 -0.12)">
    <defs>
     <path id="DejaVuSans-4d" d="M 628 4666 
L 1569 4666 
L 2759 1491 
L 3956 4666 
L 4897 4666 
L 4897 0 
L 4281 0 
L 4281 4097 
L 3078 897 
L 2444 897 
L 1241 4097 
L 1241 0 
L 628 0 
L 628 4666 
z
" transform="scale(0.015625)"/>
     <path id="DejaVuSans-61" d="M 2194 1759 
Q 1497 1759 1228 1600 
Q 959 1441 959 1056 
Q 959 750 1161 570 
Q 1363 391 1709 391 
Q 2188 391 2477 730 
Q 2766 1069 2766 1631 
L 2766 1759 
L 2194 1759 
z
M 3341 1997 
L 3341 0 
L 2766 0 
L 2766 531 
Q 2569 213 2275 61 
Q 1981 -91 1556 -91 
Q 1019 -91 701 211 
Q 384 513 384 1019 
Q 384 1609 779 1909 
Q 1175 2209 1959 2209 
L 2766 2209 
L 2766 2266 
Q 2766 2663 2505 2880 
Q 2244 3097 1772 3097 
Q 1472 3097 1187 3025 
Q 903 2953 641 2809 
L 641 3341 
Q 956 3463 1253 3523 
Q 1550 3584 1831 3584 
Q 2591 3584 2966 3190 
Q 3341 2797 3341 1997 
z
" transform="scale(0.015625)"/>
     <path id="DejaVuSans-6e" d="M 3513 2113 
L 3513 0 
L 2938 0 
L 2938 2094 
Q 2938 2591 2744 2837 
Q 2550 3084 2163 3084 
Q 1697 3084 1428 2787 
Q 1159 2491 1159 1978 
L 1159 0 
L 581 0 
L 581 3500 
L 1159 3500 
L 1159 2956 
Q 1366 3272 1645 3428 
Q 1925 3584 2291 3584 
Q 2894 3584 3203 3211 
Q 3513 2838 3513 2113 
z
" transform="scale(0.015625)"/>
     <path id="DejaVuSans-20" transform="scale(0.015625)"/>
     <path id="DejaVuSans-72" d="M 2631 2963 
Q 2534 3019 2420 3045 
Q 2306 3072 2169 3072 
Q 1681 3072 1420 2755 
Q 1159 2438 1159 1844 
L 1159 0 
L 581 0 
L 581 3500 
L 1159 3500 
L 1159 2956 
Q 1341 3275 1631 3429 
Q 1922 3584 2338 3584 
Q 2397 3584 2469 3576 
Q 2541 3569 2628 3553 
L 2631 2963 
z
" transform="scale(0.015625)"/>
     <path id="DejaVuSans-6f" d="M 1959 3097 
Q 1497 3097 1228 2736 
Q 959 2375 959 1747 
Q 959 1119 1226 758 
Q 1494 397 1959 397 
Q 2419 397 2687 759 
Q 2956 1122 2956 1747 
Q 2956 2369 2687 2733 
Q 2419 3097 1959 3097 
z
M 1959 3584 
Q 2709 3584 3137 3096 
Q 3566 2609 3566 1747 
Q 3566 888 3137 398 
Q 2709 -91 1959 -91 
Q 1206 -91 779 398 
Q 353 888 353 1747 
Q 353 2609 779 3096 
Q 1206 3584 1959 3584 
z
" transform="scale(0.015625)"/>
     <path id="DejaVuSans-66" d="M 2375 4863 
L 2375 4384 
L 1825 4384 
Q 1516 4384 1395 4259 
Q 1275 4134 1275 3809 
L 1275 3500 
L 2222 3500 
L 2222 3053 
L 1275 3053 
L 1275 0 
L 697 0 
L 697 3053 
L 147 3053 
L 147 3500 
L 697 3500 
L 697 3744 
Q 697 4328 969 4595 
Q 1241 4863 1831 4863 
L 2375 4863 
z
" transform="scale(0.015625)"/>
     <path id="DejaVuSans-68" d="M 3513 2113 
L 3513 0 
L 2938 0 
L 2938 2094 
Q 2938 2591 2744 2837 
Q 2550 3084 2163 3084 
Q 1697 3084 1428 2787 
Q 1159 2491 1159 1978 
L 1159 0 
L 581 0 
L 581 4863 
L 1159 4863 
L 1159 2956 
Q 1366 3272 1645 3428 
Q 1925 3584 2291 3584 
Q 2894 3584 3203 3211 
Q 3513 2838 3513 2113 
z
" transform="scale(0.015625)"/>
     <path id="DejaVuSans-62" d="M 3116 1747 
Q 3116 2381 2855 2742 
Q 2594 3103 2138 3103 
Q 1681 3103 1420 2742 
Q 1159 2381 1159 1747 
Q 1159 1113 1420 752 
Q 1681 391 2138 391 
Q 2594 391 2855 752 
Q 3116 1113 3116 1747 
z
M 1159 2969 
Q 1341 3281 1617 3432 
Q 1894 3584 2278 3584 
Q 2916 3584 3314 3078 
Q 3713 2572 3713 1747 
Q 3713 922 3314 415 
Q 2916 -91 2278 -91 
Q 1894 -91 1617 61 
Q 1341 213 1159 525 
L 1159 0 
L 581 0 
L 581 4863 
L 1159 4863 
L 1159 2969 
z
" transform="scale(0.015625)"/>
    </defs>
    <use xlink:href="#DejaVuSans-4d"/>
    <use xlink:href="#DejaVuSans-65" x="86.279297"/>
    <use xlink:href="#DejaVuSans-61" x="147.802734"/>
    <use xlink:href="#DejaVuSans-6e" x="209.082031"/>
    <use xlink:href="#DejaVuSans-20" x="272.460938"/>
    <use xlink:href="#DejaVuSans-65" x="304.248047"/>
    <use xlink:href="#DejaVuSans-73" x="365.771484"/>
    <use xlink:href="#DejaVuSans-74" x="417.871094"/>
    <use xlink:href="#DejaVuSans-69" x="457.080078"/>
    <use xlink:href="#DejaVuSans-6d" x="484.863281"/>
    <use xlink:href="#DejaVuSans-61" x="582.275391"/>
    <use xlink:href="#DejaVuSans-74" x="643.554688"/>
    <use xlink:href="#DejaVuSans-65" x="682.763672"/>
    <use xlink:href="#DejaVuSans-20" x="744.287109"/>
    <use xlink:href="#DejaVuSans-65" x="776.074219"/>
    <use xlink:href="#DejaVuSans-72" x="837.597656"/>
    <use xlink:href="#DejaVuSans-72" x="876.960938"/>
    <use xlink:href="#DejaVuSans-6f" x="915.824219"/>
    <use xlink:href="#DejaVuSans-72" x="977.005859"/>
    <use xlink:href="#DejaVuSans-20" x="1018.119141"/>
    <use xlink:href="#DejaVuSans-66" x="1049.90625"/>
    <use xlink:href="#DejaVuSans-6f" x="1085.111328"/>
    <use xlink:href="#DejaVuSans-72" x="1146.292969"/>
    <use xlink:href="#DejaVuSans-20" x="1187.40625"/>
    <use xlink:href="#DejaVuSans-74" x="1219.193359"/>
    <use xlink:href="#DejaVuSans-68" x="1258.402344"/>
    <use xlink:href="#DejaVuSans-65" x="1321.78125"/>
    <use xlink:href="#DejaVuSans-20" x="1383.304688"/>
    <use xlink:href="#DejaVuSans-62" x="1415.091797"/>
    <use xlink:href="#DejaVuSans-65" x="1478.568359"/>
    <use xlink:href="#DejaVuSans-73" x="1540.091797"/>
    <use xlink:href="#DejaVuSans-74" x="1592.191406"/>
    <use xlink:href="#DejaVuSans-20" x="1631.400391"/>
    <use xlink:href="#DejaVuSans-61" x="1663.1875"/>
    <use xlink:href="#DejaVuSans-72" x="1724.466797"/>
    <use xlink:href="#DejaVuSans-6d" x="1763.830078"/>
   </g>
  </g>
 </g>
 <defs>
  <clipPath id="p25ea8379f4">
   <rect x="55.584" y="7.2" width="357.12" height="266.112"/>
  </clipPath>
  <clipPath id="p837c075b35">
   <rect x="207.36" y="20.5056" width="196.416" height="146.3616"/>
  </clipPath>
 </defs>
</svg>
