<?xml version="1.0" encoding="utf-8" standalone="no"?>
<!DOCTYPE svg PUBLIC "-//W3C//DTD SVG 1.1//EN"
  "http://www.w3.org/Graphics/SVG/1.1/DTD/svg11.dtd">
<svg xmlns:xlink="http://www.w3.org/1999/xlink" width="459.990625pt" height="368.824pt" viewBox="0 0 459.990625 368.824" xmlns="http://www.w3.org/2000/svg" version="1.1">
 <metadata>
  <rdf:RDF xmlns:dc="http://purl.org/dc/elements/1.1/" xmlns:cc="http://creativecommons.org/ns#" xmlns:rdf="http://www.w3.org/1999/02/22-rdf-syntax-ns#">
   <cc:Work>
    <dc:type rdf:resource="http://purl.org/dc/dcmitype/StillImage"/>
    <dc:date>2024-06-03T23:35:40.348727</dc:date>
    <dc:format>image/svg+xml</dc:format>
    <dc:creator>
     <cc:Agent>
      <dc:title>Matplotlib v3.9.0, https://matplotlib.org/</dc:title>
     </cc:Agent>
    </dc:creator>
   </cc:Work>
  </rdf:RDF>
 </metadata>
 <defs>
  <style type="text/css">*{stroke-linejoin: round; stroke-linecap: butt}</style>
 </defs>
 <g id="figure_1">
  <g id="patch_1">
   <path d="M 0 368.824 
L 459.990625 368.824 
L 459.990625 0 
L 0 0 
z
" style="fill: #ffffff"/>
  </g>
  <g id="axes_1">
   <g id="patch_2">
    <path d="M 57.195313 327.064 
L 414.315313 327.064 
L 414.315313 60.952 
L 57.195313 60.952 
z
" style="fill: #ffffff"/>
   </g>
   <g id="PolyCollection_1">
    <path d="M 124.774805 277.980689 
L 124.774805 280.685725 
L 128.0246 280.685725 
L 128.0246 277.980689 
L 128.0246 277.980689 
L 124.774805 277.980689 
z
" clip-path="url(#p758ce94959)" style="fill-opacity: 0.2"/>
   </g>
   <g id="matplotlib.axis_1">
    <g id="xtick_1">
     <g id="line2d_1">
      <path d="M 73.42804 327.064 
L 73.42804 60.952 
" clip-path="url(#p758ce94959)" style="fill: none; stroke: #b0b0b0; stroke-width: 0.8; stroke-linecap: square"/>
     </g>
     <g id="line2d_2">
      <defs>
       <path id="m48fb9261b9" d="M 0 0 
L 0 3.5 
" style="stroke: #000000; stroke-width: 0.8"/>
      </defs>
      <g>
       <use xlink:href="#m48fb9261b9" x="73.42804" y="327.064" style="stroke: #000000; stroke-width: 0.8"/>
      </g>
     </g>
     <g id="text_1">
      <!-- 0 -->
      <g transform="translate(68.97429 344.701813) scale(0.14 -0.14)">
       <defs>
        <path id="DejaVuSans-30" d="M 2034 4250 
Q 1547 4250 1301 3770 
Q 1056 3291 1056 2328 
Q 1056 1369 1301 889 
Q 1547 409 2034 409 
Q 2525 409 2770 889 
Q 3016 1369 3016 2328 
Q 3016 3291 2770 3770 
Q 2525 4250 2034 4250 
z
M 2034 4750 
Q 2819 4750 3233 4129 
Q 3647 3509 3647 2328 
Q 3647 1150 3233 529 
Q 2819 -91 2034 -91 
Q 1250 -91 836 529 
Q 422 1150 422 2328 
Q 422 3509 836 4129 
Q 1250 4750 2034 4750 
z
" transform="scale(0.015625)"/>
       </defs>
       <use xlink:href="#DejaVuSans-30"/>
      </g>
     </g>
    </g>
    <g id="xtick_2">
     <g id="line2d_3">
      <path d="M 138.423945 327.064 
L 138.423945 60.952 
" clip-path="url(#p758ce94959)" style="fill: none; stroke: #b0b0b0; stroke-width: 0.8; stroke-linecap: square"/>
     </g>
     <g id="line2d_4">
      <g>
       <use xlink:href="#m48fb9261b9" x="138.423945" y="327.064" style="stroke: #000000; stroke-width: 0.8"/>
      </g>
     </g>
     <g id="text_2">
      <!-- 200 -->
      <g transform="translate(125.062695 344.701813) scale(0.14 -0.14)">
       <defs>
        <path id="DejaVuSans-32" d="M 1228 531 
L 3431 531 
L 3431 0 
L 469 0 
L 469 531 
Q 828 903 1448 1529 
Q 2069 2156 2228 2338 
Q 2531 2678 2651 2914 
Q 2772 3150 2772 3378 
Q 2772 3750 2511 3984 
Q 2250 4219 1831 4219 
Q 1534 4219 1204 4116 
Q 875 4013 500 3803 
L 500 4441 
Q 881 4594 1212 4672 
Q 1544 4750 1819 4750 
Q 2544 4750 2975 4387 
Q 3406 4025 3406 3419 
Q 3406 3131 3298 2873 
Q 3191 2616 2906 2266 
Q 2828 2175 2409 1742 
Q 1991 1309 1228 531 
z
" transform="scale(0.015625)"/>
       </defs>
       <use xlink:href="#DejaVuSans-32"/>
       <use xlink:href="#DejaVuSans-30" x="63.623047"/>
       <use xlink:href="#DejaVuSans-30" x="127.246094"/>
      </g>
     </g>
    </g>
    <g id="xtick_3">
     <g id="line2d_5">
      <path d="M 203.41985 327.064 
L 203.41985 60.952 
" clip-path="url(#p758ce94959)" style="fill: none; stroke: #b0b0b0; stroke-width: 0.8; stroke-linecap: square"/>
     </g>
     <g id="line2d_6">
      <g>
       <use xlink:href="#m48fb9261b9" x="203.41985" y="327.064" style="stroke: #000000; stroke-width: 0.8"/>
      </g>
     </g>
     <g id="text_3">
      <!-- 400 -->
      <g transform="translate(190.0586 344.701813) scale(0.14 -0.14)">
       <defs>
        <path id="DejaVuSans-34" d="M 2419 4116 
L 825 1625 
L 2419 1625 
L 2419 4116 
z
M 2253 4666 
L 3047 4666 
L 3047 1625 
L 3713 1625 
L 3713 1100 
L 3047 1100 
L 3047 0 
L 2419 0 
L 2419 1100 
L 313 1100 
L 313 1709 
L 2253 4666 
z
" transform="scale(0.015625)"/>
       </defs>
       <use xlink:href="#DejaVuSans-34"/>
       <use xlink:href="#DejaVuSans-30" x="63.623047"/>
       <use xlink:href="#DejaVuSans-30" x="127.246094"/>
      </g>
     </g>
    </g>
    <g id="xtick_4">
     <g id="line2d_7">
      <path d="M 268.415755 327.064 
L 268.415755 60.952 
" clip-path="url(#p758ce94959)" style="fill: none; stroke: #b0b0b0; stroke-width: 0.8; stroke-linecap: square"/>
     </g>
     <g id="line2d_8">
      <g>
       <use xlink:href="#m48fb9261b9" x="268.415755" y="327.064" style="stroke: #000000; stroke-width: 0.8"/>
      </g>
     </g>
     <g id="text_4">
      <!-- 600 -->
      <g transform="translate(255.054505 344.701813) scale(0.14 -0.14)">
       <defs>
        <path id="DejaVuSans-36" d="M 2113 2584 
Q 1688 2584 1439 2293 
Q 1191 2003 1191 1497 
Q 1191 994 1439 701 
Q 1688 409 2113 409 
Q 2538 409 2786 701 
Q 3034 994 3034 1497 
Q 3034 2003 2786 2293 
Q 2538 2584 2113 2584 
z
M 3366 4563 
L 3366 3988 
Q 3128 4100 2886 4159 
Q 2644 4219 2406 4219 
Q 1781 4219 1451 3797 
Q 1122 3375 1075 2522 
Q 1259 2794 1537 2939 
Q 1816 3084 2150 3084 
Q 2853 3084 3261 2657 
Q 3669 2231 3669 1497 
Q 3669 778 3244 343 
Q 2819 -91 2113 -91 
Q 1303 -91 875 529 
Q 447 1150 447 2328 
Q 447 3434 972 4092 
Q 1497 4750 2381 4750 
Q 2619 4750 2861 4703 
Q 3103 4656 3366 4563 
z
" transform="scale(0.015625)"/>
       </defs>
       <use xlink:href="#DejaVuSans-36"/>
       <use xlink:href="#DejaVuSans-30" x="63.623047"/>
       <use xlink:href="#DejaVuSans-30" x="127.246094"/>
      </g>
     </g>
    </g>
    <g id="xtick_5">
     <g id="line2d_9">
      <path d="M 333.41166 327.064 
L 333.41166 60.952 
" clip-path="url(#p758ce94959)" style="fill: none; stroke: #b0b0b0; stroke-width: 0.8; stroke-linecap: square"/>
     </g>
     <g id="line2d_10">
      <g>
       <use xlink:href="#m48fb9261b9" x="333.41166" y="327.064" style="stroke: #000000; stroke-width: 0.8"/>
      </g>
     </g>
     <g id="text_5">
      <!-- 800 -->
      <g transform="translate(320.05041 344.701813) scale(0.14 -0.14)">
       <defs>
        <path id="DejaVuSans-38" d="M 2034 2216 
Q 1584 2216 1326 1975 
Q 1069 1734 1069 1313 
Q 1069 891 1326 650 
Q 1584 409 2034 409 
Q 2484 409 2743 651 
Q 3003 894 3003 1313 
Q 3003 1734 2745 1975 
Q 2488 2216 2034 2216 
z
M 1403 2484 
Q 997 2584 770 2862 
Q 544 3141 544 3541 
Q 544 4100 942 4425 
Q 1341 4750 2034 4750 
Q 2731 4750 3128 4425 
Q 3525 4100 3525 3541 
Q 3525 3141 3298 2862 
Q 3072 2584 2669 2484 
Q 3125 2378 3379 2068 
Q 3634 1759 3634 1313 
Q 3634 634 3220 271 
Q 2806 -91 2034 -91 
Q 1263 -91 848 271 
Q 434 634 434 1313 
Q 434 1759 690 2068 
Q 947 2378 1403 2484 
z
M 1172 3481 
Q 1172 3119 1398 2916 
Q 1625 2713 2034 2713 
Q 2441 2713 2670 2916 
Q 2900 3119 2900 3481 
Q 2900 3844 2670 4047 
Q 2441 4250 2034 4250 
Q 1625 4250 1398 4047 
Q 1172 3844 1172 3481 
z
" transform="scale(0.015625)"/>
       </defs>
       <use xlink:href="#DejaVuSans-38"/>
       <use xlink:href="#DejaVuSans-30" x="63.623047"/>
       <use xlink:href="#DejaVuSans-30" x="127.246094"/>
      </g>
     </g>
    </g>
    <g id="xtick_6">
     <g id="line2d_11">
      <path d="M 398.407565 327.064 
L 398.407565 60.952 
" clip-path="url(#p758ce94959)" style="fill: none; stroke: #b0b0b0; stroke-width: 0.8; stroke-linecap: square"/>
     </g>
     <g id="line2d_12">
      <g>
       <use xlink:href="#m48fb9261b9" x="398.407565" y="327.064" style="stroke: #000000; stroke-width: 0.8"/>
      </g>
     </g>
     <g id="text_6">
      <!-- 1000 -->
      <g transform="translate(380.592565 344.701813) scale(0.14 -0.14)">
       <defs>
        <path id="DejaVuSans-31" d="M 794 531 
L 1825 531 
L 1825 4091 
L 703 3866 
L 703 4441 
L 1819 4666 
L 2450 4666 
L 2450 531 
L 3481 531 
L 3481 0 
L 794 0 
L 794 531 
z
" transform="scale(0.015625)"/>
       </defs>
       <use xlink:href="#DejaVuSans-31"/>
       <use xlink:href="#DejaVuSans-30" x="63.623047"/>
       <use xlink:href="#DejaVuSans-30" x="127.246094"/>
       <use xlink:href="#DejaVuSans-30" x="190.869141"/>
      </g>
     </g>
    </g>
   </g>
   <g id="matplotlib.axis_2">
    <g id="ytick_1">
     <g id="line2d_13">
      <path d="M 57.195313 316.828923 
L 414.315313 316.828923 
" clip-path="url(#p758ce94959)" style="fill: none; stroke: #b0b0b0; stroke-width: 0.8; stroke-linecap: square"/>
     </g>
     <g id="line2d_14">
      <defs>
       <path id="md3db008142" d="M 0 0 
L -3.5 0 
" style="stroke: #000000; stroke-width: 0.8"/>
      </defs>
      <g>
       <use xlink:href="#md3db008142" x="57.195313" y="316.828923" style="stroke: #000000; stroke-width: 0.8"/>
      </g>
     </g>
     <g id="text_7">
      <!-- 0.00 -->
      <g transform="translate(19.023438 322.147829) scale(0.14 -0.14)">
       <defs>
        <path id="DejaVuSans-2e" d="M 684 794 
L 1344 794 
L 1344 0 
L 684 0 
L 684 794 
z
" transform="scale(0.015625)"/>
       </defs>
       <use xlink:href="#DejaVuSans-30"/>
       <use xlink:href="#DejaVuSans-2e" x="63.623047"/>
       <use xlink:href="#DejaVuSans-30" x="95.410156"/>
       <use xlink:href="#DejaVuSans-30" x="159.033203"/>
      </g>
     </g>
    </g>
    <g id="ytick_2">
     <g id="line2d_15">
      <path d="M 57.195313 265.653538 
L 414.315313 265.653538 
" clip-path="url(#p758ce94959)" style="fill: none; stroke: #b0b0b0; stroke-width: 0.8; stroke-linecap: square"/>
     </g>
     <g id="line2d_16">
      <g>
       <use xlink:href="#md3db008142" x="57.195313" y="265.653538" style="stroke: #000000; stroke-width: 0.8"/>
      </g>
     </g>
     <g id="text_8">
      <!-- 0.05 -->
      <g transform="translate(19.023438 270.972445) scale(0.14 -0.14)">
       <defs>
        <path id="DejaVuSans-35" d="M 691 4666 
L 3169 4666 
L 3169 4134 
L 1269 4134 
L 1269 2991 
Q 1406 3038 1543 3061 
Q 1681 3084 1819 3084 
Q 2600 3084 3056 2656 
Q 3513 2228 3513 1497 
Q 3513 744 3044 326 
Q 2575 -91 1722 -91 
Q 1428 -91 1123 -41 
Q 819 9 494 109 
L 494 744 
Q 775 591 1075 516 
Q 1375 441 1709 441 
Q 2250 441 2565 725 
Q 2881 1009 2881 1497 
Q 2881 1984 2565 2268 
Q 2250 2553 1709 2553 
Q 1456 2553 1204 2497 
Q 953 2441 691 2322 
L 691 4666 
z
" transform="scale(0.015625)"/>
       </defs>
       <use xlink:href="#DejaVuSans-30"/>
       <use xlink:href="#DejaVuSans-2e" x="63.623047"/>
       <use xlink:href="#DejaVuSans-30" x="95.410156"/>
       <use xlink:href="#DejaVuSans-35" x="159.033203"/>
      </g>
     </g>
    </g>
    <g id="ytick_3">
     <g id="line2d_17">
      <path d="M 57.195313 214.478154 
L 414.315313 214.478154 
" clip-path="url(#p758ce94959)" style="fill: none; stroke: #b0b0b0; stroke-width: 0.8; stroke-linecap: square"/>
     </g>
     <g id="line2d_18">
      <g>
       <use xlink:href="#md3db008142" x="57.195313" y="214.478154" style="stroke: #000000; stroke-width: 0.8"/>
      </g>
     </g>
     <g id="text_9">
      <!-- 0.10 -->
      <g transform="translate(19.023438 219.79706) scale(0.14 -0.14)">
       <use xlink:href="#DejaVuSans-30"/>
       <use xlink:href="#DejaVuSans-2e" x="63.623047"/>
       <use xlink:href="#DejaVuSans-31" x="95.410156"/>
       <use xlink:href="#DejaVuSans-30" x="159.033203"/>
      </g>
     </g>
    </g>
    <g id="ytick_4">
     <g id="line2d_19">
      <path d="M 57.195313 163.302769 
L 414.315313 163.302769 
" clip-path="url(#p758ce94959)" style="fill: none; stroke: #b0b0b0; stroke-width: 0.8; stroke-linecap: square"/>
     </g>
     <g id="line2d_20">
      <g>
       <use xlink:href="#md3db008142" x="57.195313" y="163.302769" style="stroke: #000000; stroke-width: 0.8"/>
      </g>
     </g>
     <g id="text_10">
      <!-- 0.15 -->
      <g transform="translate(19.023438 168.621675) scale(0.14 -0.14)">
       <use xlink:href="#DejaVuSans-30"/>
       <use xlink:href="#DejaVuSans-2e" x="63.623047"/>
       <use xlink:href="#DejaVuSans-31" x="95.410156"/>
       <use xlink:href="#DejaVuSans-35" x="159.033203"/>
      </g>
     </g>
    </g>
    <g id="ytick_5">
     <g id="line2d_21">
      <path d="M 57.195313 112.127385 
L 414.315313 112.127385 
" clip-path="url(#p758ce94959)" style="fill: none; stroke: #b0b0b0; stroke-width: 0.8; stroke-linecap: square"/>
     </g>
     <g id="line2d_22">
      <g>
       <use xlink:href="#md3db008142" x="57.195313" y="112.127385" style="stroke: #000000; stroke-width: 0.8"/>
      </g>
     </g>
     <g id="text_11">
      <!-- 0.20 -->
      <g transform="translate(19.023438 117.446291) scale(0.14 -0.14)">
       <use xlink:href="#DejaVuSans-30"/>
       <use xlink:href="#DejaVuSans-2e" x="63.623047"/>
       <use xlink:href="#DejaVuSans-32" x="95.410156"/>
       <use xlink:href="#DejaVuSans-30" x="159.033203"/>
      </g>
     </g>
    </g>
    <g id="ytick_6">
     <g id="line2d_23">
      <path d="M 57.195313 60.952 
L 414.315313 60.952 
" clip-path="url(#p758ce94959)" style="fill: none; stroke: #b0b0b0; stroke-width: 0.8; stroke-linecap: square"/>
     </g>
     <g id="line2d_24">
      <g>
       <use xlink:href="#md3db008142" x="57.195313" y="60.952" style="stroke: #000000; stroke-width: 0.8"/>
      </g>
     </g>
     <g id="text_12">
      <!-- 0.25 -->
      <g transform="translate(19.023438 66.270906) scale(0.14 -0.14)">
       <use xlink:href="#DejaVuSans-30"/>
       <use xlink:href="#DejaVuSans-2e" x="63.623047"/>
       <use xlink:href="#DejaVuSans-32" x="95.410156"/>
       <use xlink:href="#DejaVuSans-35" x="159.033203"/>
      </g>
     </g>
    </g>
   </g>
   <g id="line2d_25">
    <path d="M 73.42804 316.828923 
L 76.352855 316.828923 
L 76.490278 -1 
M 81.466464 -1 
L 82.202487 23.925455 
L 83.827385 68.664829 
L 85.127303 95.818976 
L 86.7522 122.760005 
L 88.377098 143.718666 
L 90.651955 166.074936 
L 92.601832 181.608526 
L 93.90175 190.329155 
L 96.826566 205.453017 
L 99.101422 215.252113 
L 100.076361 218.815839 
L 102.026238 225.273037 
L 102.676197 227.188961 
L 103.651136 230.324495 
L 104.301095 232.155108 
L 105.925992 236.417304 
L 107.55089 239.900992 
L 108.200849 241.160215 
L 109.825747 244.343107 
L 112.100603 248.348055 
L 114.37546 251.942189 
L 115.675378 253.885947 
L 118.925173 257.886546 
L 119.575132 258.524368 
L 120.87505 260.147615 
L 121.525009 260.757095 
L 124.124846 263.452259 
L 126.399702 265.45908 
L 128.999539 267.441526 
L 129.974477 268.191627 
L 130.949416 268.798325 
L 133.224272 270.400972 
L 134.199211 271.020051 
L 135.17415 271.694155 
L 140.048842 274.560959 
L 141.34876 275.188783 
L 144.273576 276.680659 
L 145.898474 277.470845 
L 153.048023 280.348898 
L 162.47243 283.401481 
L 164.747286 283.968719 
L 168.322061 284.913889 
L 169.946959 285.356579 
L 170.921897 285.630948 
L 176.12157 286.945658 
L 178.071447 287.395132 
L 179.371365 287.708132 
L 180.671283 287.956881 
L 187.495853 289.323872 
L 189.44573 289.603804 
L 195.620341 290.658836 
L 196.59528 290.828986 
L 199.845075 291.249507 
L 201.469973 291.444497 
L 207.644584 292.399681 
L 210.894379 292.793398 
L 212.519276 293.012212 
L 213.494215 293.130217 
L 231.368089 295.15132 
L 233.642946 295.310305 
L 259.966287 297.63096 
L 263.216082 297.889099 
L 274.590366 298.569075 
L 277.515181 298.746593 
L 280.439997 298.868291 
L 288.889465 299.351906 
L 291.814281 299.508595 
L 300.913707 299.958988 
L 316.837704 300.782816 
L 363.309776 302.449472 
L 371.434264 302.734349 
L 375.658998 302.872192 
L 378.908793 302.960419 
L 383.458507 303.066788 
L 389.958097 303.239263 
L 392.232954 303.307275 
L 398.082585 303.471656 
L 398.082585 303.471656 
" clip-path="url(#p758ce94959)" style="fill: none; stroke: #1f77b4; stroke-width: 2; stroke-linecap: square"/>
    <defs>
     <path id="m9833ab79de" d="M 0 3 
C 0.795609 3 1.55874 2.683901 2.12132 2.12132 
C 2.683901 1.55874 3 0.795609 3 0 
C 3 -0.795609 2.683901 -1.55874 2.12132 -2.12132 
C 1.55874 -2.683901 0.795609 -3 0 -3 
C -0.795609 -3 -1.55874 -2.683901 -2.12132 -2.12132 
C -2.683901 -1.55874 -3 -0.795609 -3 0 
C -3 0.795609 -2.683901 1.55874 -2.12132 2.12132 
C -1.55874 2.683901 -0.795609 3 0 3 
z
" style="stroke: #1f77b4"/>
    </defs>
    <g clip-path="url(#p758ce94959)">
     <use xlink:href="#m9833ab79de" x="73.42804" y="316.828923" style="fill: #1f77b4; stroke: #1f77b4"/>
     <use xlink:href="#m9833ab79de" x="138.423945" y="273.617724" style="fill: #1f77b4; stroke: #1f77b4"/>
     <use xlink:href="#m9833ab79de" x="203.41985" y="291.710576" style="fill: #1f77b4; stroke: #1f77b4"/>
     <use xlink:href="#m9833ab79de" x="268.415755" y="298.161794" style="fill: #1f77b4; stroke: #1f77b4"/>
     <use xlink:href="#m9833ab79de" x="333.41166" y="301.432914" style="fill: #1f77b4; stroke: #1f77b4"/>
    </g>
   </g>
   <g id="line2d_26">
    <path d="M 150.448187 327.064 
L 150.448187 60.952 
" clip-path="url(#p758ce94959)" style="fill: none; stroke-dasharray: 7.4,3.2; stroke-dashoffset: 0; stroke: #1f77b4; stroke-width: 2"/>
    <g clip-path="url(#p758ce94959)">
     <use xlink:href="#m9833ab79de" x="150.448187" y="327.064" style="fill: #1f77b4; stroke: #1f77b4"/>
     <use xlink:href="#m9833ab79de" x="150.448187" y="60.952" style="fill: #1f77b4; stroke: #1f77b4"/>
    </g>
   </g>
   <g id="line2d_27">
    <path d="M 73.42804 316.828923 
L 76.352855 316.828923 
L 76.622982 -1 
M 77.155422 -1 
L 77.652774 48.618914 
L 78.302733 81.090324 
L 79.277671 114.762533 
L 80.902569 151.441242 
L 81.877507 167.333193 
L 83.827385 192.18823 
L 84.477344 198.525819 
L 85.777262 208.232602 
L 86.7522 215.033379 
L 87.402159 218.677254 
L 88.052118 222.030452 
L 88.702077 225.458704 
L 89.027057 226.484152 
L 89.677016 229.524379 
L 92.276852 238.892888 
L 93.251791 241.805835 
L 93.90175 243.710881 
L 95.201668 247.348529 
L 95.851627 249.117922 
L 96.826566 251.075564 
L 98.451463 254.430383 
L 99.426402 256.151913 
L 100.72632 257.970973 
L 102.026238 259.905051 
L 103.326156 261.479959 
L 103.651136 261.802177 
L 104.301095 262.770987 
L 105.601013 264.245236 
L 105.925992 264.50309 
L 106.575951 265.257908 
L 107.22591 265.878201 
L 108.850808 267.412736 
L 110.150726 268.416912 
L 110.800685 268.858172 
L 111.775624 269.804187 
L 114.05048 271.82178 
L 117.300276 274.245464 
L 120.550071 276.026274 
L 122.174969 277.070176 
L 125.424764 278.663808 
L 128.349579 279.913461 
L 129.324518 280.34758 
L 131.274395 281.142262 
L 134.199211 282.194895 
L 134.84917 282.518043 
L 135.499129 282.760683 
L 138.423945 283.769147 
L 139.073904 283.947037 
L 140.048842 284.332898 
L 147.523371 286.365982 
L 152.398064 287.60854 
L 153.048023 287.698169 
L 154.022962 287.955859 
L 154.672921 288.049602 
L 157.597737 288.741107 
L 160.522552 289.360193 
L 161.497491 289.480572 
L 171.246877 291.141703 
L 182.296181 292.796503 
L 183.596099 292.980471 
L 185.545976 293.232247 
L 186.845894 293.365848 
L 189.44573 293.7129 
L 197.570218 294.662075 
L 199.845075 294.922484 
L 204.719768 295.484985 
L 207.319604 295.672922 
L 213.494215 296.179509 
L 218.368908 296.53525 
L 219.993806 296.620775 
L 221.293724 296.755623 
L 224.868498 297.075644 
L 226.493396 297.211186 
L 228.118294 297.348676 
L 238.842618 298.186794 
L 241.442454 298.323222 
L 243.717311 298.451097 
L 257.69143 299.18261 
L 259.641308 299.33851 
L 262.241144 299.46897 
L 266.790857 299.655372 
L 268.740734 299.788079 
L 273.615427 300.104854 
L 276.865222 300.218951 
L 281.414936 300.407247 
L 285.964649 300.537613 
L 288.889465 300.625659 
L 296.039014 300.931268 
L 297.988892 300.999059 
L 300.913707 301.115932 
L 304.488482 301.260013 
L 311.638032 301.530508 
L 326.912069 302.054209 
L 398.082585 304.043642 
L 398.082585 304.043642 
" clip-path="url(#p758ce94959)" style="fill: none; stroke: #ff7f0e; stroke-width: 2; stroke-linecap: square"/>
    <defs>
     <path id="m3ef9b653ec" d="M 0 -3 
L -3 3 
L 3 3 
z
" style="stroke: #ff7f0e; stroke-linejoin: miter"/>
    </defs>
    <g clip-path="url(#p758ce94959)">
     <use xlink:href="#m3ef9b653ec" x="73.42804" y="316.828923" style="fill: #ff7f0e; stroke: #ff7f0e; stroke-linejoin: miter"/>
     <use xlink:href="#m3ef9b653ec" x="138.423945" y="283.769147" style="fill: #ff7f0e; stroke: #ff7f0e; stroke-linejoin: miter"/>
     <use xlink:href="#m3ef9b653ec" x="203.41985" y="295.3686" style="fill: #ff7f0e; stroke: #ff7f0e; stroke-linejoin: miter"/>
     <use xlink:href="#m3ef9b653ec" x="268.415755" y="299.763109" style="fill: #ff7f0e; stroke: #ff7f0e; stroke-linejoin: miter"/>
     <use xlink:href="#m3ef9b653ec" x="333.41166" y="302.261805" style="fill: #ff7f0e; stroke: #ff7f0e; stroke-linejoin: miter"/>
    </g>
   </g>
   <g id="line2d_28">
    <path d="M 127.049661 327.064 
L 127.049661 60.952 
" clip-path="url(#p758ce94959)" style="fill: none; stroke-dasharray: 7.4,3.2; stroke-dashoffset: 0; stroke: #ff7f0e; stroke-width: 2"/>
    <g clip-path="url(#p758ce94959)">
     <use xlink:href="#m3ef9b653ec" x="127.049661" y="327.064" style="fill: #ff7f0e; stroke: #ff7f0e; stroke-linejoin: miter"/>
     <use xlink:href="#m3ef9b653ec" x="127.049661" y="60.952" style="fill: #ff7f0e; stroke: #ff7f0e; stroke-linejoin: miter"/>
    </g>
   </g>
   <g id="line2d_29">
    <path d="M 73.42804 316.828923 
L 76.352855 316.828923 
L 76.625381 -1 
M 77.132618 -1 
L 77.652774 51.701403 
L 78.302733 84.530065 
L 78.952692 107.11055 
L 80.577589 147.661076 
L 81.552528 165.932318 
L 83.502405 190.576254 
L 84.152364 197.516252 
L 84.477344 199.601591 
L 85.127303 204.91057 
L 85.777262 208.683475 
L 87.07718 217.660819 
L 88.377098 224.520424 
L 90.326975 232.599683 
L 93.57677 243.693007 
L 94.876688 246.833789 
L 95.851627 248.902233 
L 96.501586 250.414573 
L 97.151545 251.821578 
L 97.801504 253.151686 
L 98.451463 254.292378 
L 99.426402 256.243047 
L 99.751381 256.697814 
L 100.076361 257.402921 
L 100.72632 258.292529 
L 102.351217 260.803087 
L 105.925992 264.947188 
L 106.900931 266.026841 
L 109.500767 268.734079 
L 109.825747 268.914223 
L 110.475706 269.598329 
L 110.800685 269.746153 
L 112.750562 271.423927 
L 113.725501 272.159755 
L 114.700439 272.92479 
L 115.675378 273.45971 
L 119.575132 275.795203 
L 122.499948 277.471995 
L 124.449825 278.655909 
L 125.749743 279.321024 
L 128.0246 280.439423 
L 131.599375 281.776586 
L 132.249334 281.981986 
L 133.224272 282.366357 
L 134.52419 282.870739 
L 137.124027 283.687083 
L 139.398883 284.576751 
L 141.67374 285.196487 
L 142.323699 285.313551 
L 145.898474 286.439776 
L 147.198392 286.646189 
L 149.148269 287.225165 
L 150.448187 287.507174 
L 151.748105 287.84265 
L 152.723044 288.025025 
L 155.64786 288.696763 
L 157.272757 289.118947 
L 158.247696 289.323964 
L 159.222634 289.504917 
L 161.497491 290.011865 
L 162.14745 290.221581 
L 167.347122 290.972191 
L 169.297 291.238549 
L 171.571856 291.673367 
L 184.246058 293.51721 
L 185.545976 293.641481 
L 188.145812 293.978601 
L 190.095689 294.225361 
L 193.670464 294.604978 
L 195.620341 294.803108 
L 197.245239 295.043771 
L 201.794952 295.432301 
L 203.09487 295.578404 
L 205.369727 295.854903 
L 206.344665 295.932971 
L 207.969563 296.105068 
L 210.569399 296.34916 
L 224.218539 297.451745 
L 226.168417 297.581869 
L 231.693068 298.019307 
L 233.317966 298.127411 
L 235.267843 298.188499 
L 281.414936 300.587918 
L 283.689792 300.711966 
L 284.989711 300.777463 
L 299.938769 301.34112 
L 305.463421 301.537717 
L 313.262929 301.813719 
L 317.162684 301.965107 
L 321.062438 302.118822 
L 324.637213 302.203458 
L 341.211168 302.715286 
L 345.110923 302.820211 
L 349.010677 302.908048 
L 357.460145 303.113168 
L 363.634756 303.279217 
L 368.509448 303.398316 
L 380.533691 303.729923 
L 386.058343 303.858724 
L 398.082585 304.160643 
L 398.082585 304.160643 
" clip-path="url(#p758ce94959)" style="fill: none; stroke: #2ca02c; stroke-width: 2; stroke-linecap: square"/>
    <defs>
     <path id="mccc2a82904" d="M -3 3 
L 3 3 
L 3 -3 
L -3 -3 
z
" style="stroke: #2ca02c; stroke-linejoin: miter"/>
    </defs>
    <g clip-path="url(#p758ce94959)">
     <use xlink:href="#mccc2a82904" x="73.42804" y="316.828923" style="fill: #2ca02c; stroke: #2ca02c; stroke-linejoin: miter"/>
     <use xlink:href="#mccc2a82904" x="138.423945" y="284.192726" style="fill: #2ca02c; stroke: #2ca02c; stroke-linejoin: miter"/>
     <use xlink:href="#mccc2a82904" x="203.41985" y="295.627713" style="fill: #2ca02c; stroke: #2ca02c; stroke-linejoin: miter"/>
     <use xlink:href="#mccc2a82904" x="268.415755" y="299.951442" style="fill: #2ca02c; stroke: #2ca02c; stroke-linejoin: miter"/>
     <use xlink:href="#mccc2a82904" x="333.41166" y="302.487132" style="fill: #2ca02c; stroke: #2ca02c; stroke-linejoin: miter"/>
    </g>
   </g>
   <g id="line2d_30">
    <path d="M 125.749743 327.064 
L 125.749743 60.952 
" clip-path="url(#p758ce94959)" style="fill: none; stroke-dasharray: 7.4,3.2; stroke-dashoffset: 0; stroke: #2ca02c; stroke-width: 2"/>
    <g clip-path="url(#p758ce94959)">
     <use xlink:href="#mccc2a82904" x="125.749743" y="327.064" style="fill: #2ca02c; stroke: #2ca02c; stroke-linejoin: miter"/>
     <use xlink:href="#mccc2a82904" x="125.749743" y="60.952" style="fill: #2ca02c; stroke: #2ca02c; stroke-linejoin: miter"/>
    </g>
   </g>
   <g id="line2d_31">
    <path d="M 73.42804 316.828923 
L 76.352855 316.828923 
L 76.618056 -1 
M 77.204886 -1 
L 77.652774 44.489575 
L 78.302733 79.182855 
L 79.277671 111.800202 
L 79.92763 129.951256 
L 80.902569 151.622592 
L 82.202487 172.555778 
L 83.502405 187.82287 
L 84.802323 200.350663 
L 86.102241 210.795214 
L 87.402159 218.275473 
L 88.702077 224.826156 
L 89.677016 229.033033 
L 92.276852 238.941326 
L 94.226729 244.755308 
L 95.526647 247.743692 
L 96.501586 249.544902 
L 97.151545 250.833889 
L 99.426402 255.027735 
L 100.076361 256.03896 
L 100.72632 257.182576 
L 101.051299 258.047292 
L 102.026238 259.526795 
L 104.301095 261.968175 
L 105.276033 263.304109 
L 107.875869 266.45677 
L 108.850808 267.281349 
L 113.075542 271.086097 
L 114.37546 271.913723 
L 115.025419 272.241285 
L 116.650317 273.479355 
L 118.925173 275.066656 
L 119.575132 275.544637 
L 128.349579 279.890329 
L 129.974477 280.485713 
L 137.773986 283.478504 
L 138.748924 283.717953 
L 141.023781 284.483694 
L 141.99872 284.726387 
L 143.623617 285.301296 
L 146.548433 286.055204 
L 148.82329 286.592497 
L 151.748105 287.279544 
L 154.022962 287.788601 
L 157.597737 288.531457 
L 159.872593 288.956597 
L 161.172512 289.300348 
L 161.822471 289.442528 
L 163.122389 289.70218 
L 167.022143 290.496906 
L 167.997082 290.668547 
L 170.271938 291.065196 
L 182.94614 292.98642 
L 184.246058 293.166394 
L 186.845894 293.518595 
L 192.695525 294.1474 
L 193.995444 294.336187 
L 196.920259 294.587739 
L 216.094051 296.320753 
L 254.766615 298.946855 
L 257.69143 299.069217 
L 260.616246 299.268216 
L 263.541062 299.430916 
L 292.46424 300.778916 
L 298.96383 301.038679 
L 301.563666 301.157405 
L 304.813462 301.282136 
L 310.013134 301.524155 
L 347.0608 302.640513 
L 362.334837 303.102547 
L 368.834428 303.276956 
L 373.709121 303.38791 
L 385.408384 303.706324 
L 387.358261 303.765382 
L 390.933036 303.848848 
L 393.532872 303.900833 
L 398.082585 304.011204 
L 398.082585 304.011204 
" clip-path="url(#p758ce94959)" style="fill: none; stroke: #d62728; stroke-width: 2; stroke-linecap: square"/>
    <defs>
     <path id="m097fe1afee" d="M -3 3 
L 3 -3 
M -3 -3 
L 3 3 
" style="stroke: #d62728"/>
    </defs>
    <g clip-path="url(#p758ce94959)">
     <use xlink:href="#m097fe1afee" x="73.42804" y="316.828923" style="fill: #d62728; stroke: #d62728"/>
     <use xlink:href="#m097fe1afee" x="138.423945" y="283.642796" style="fill: #d62728; stroke: #d62728"/>
     <use xlink:href="#m097fe1afee" x="203.41985" y="295.171201" style="fill: #d62728; stroke: #d62728"/>
     <use xlink:href="#m097fe1afee" x="268.415755" y="299.648608" style="fill: #d62728; stroke: #d62728"/>
     <use xlink:href="#m097fe1afee" x="333.41166" y="302.271174" style="fill: #d62728; stroke: #d62728"/>
    </g>
   </g>
   <g id="line2d_32">
    <path d="M 127.049661 327.064 
L 127.049661 60.952 
" clip-path="url(#p758ce94959)" style="fill: none; stroke-dasharray: 7.4,3.2; stroke-dashoffset: 0; stroke: #d62728; stroke-width: 2"/>
    <g clip-path="url(#p758ce94959)">
     <use xlink:href="#m097fe1afee" x="127.049661" y="327.064" style="fill: #d62728; stroke: #d62728"/>
     <use xlink:href="#m097fe1afee" x="127.049661" y="60.952" style="fill: #d62728; stroke: #d62728"/>
    </g>
   </g>
   <g id="line2d_33">
    <path d="M 73.42804 316.828923 
L 76.352855 316.828923 
L 76.628163 -1 
M 77.111701 -1 
L 77.652774 54.654866 
L 78.302733 86.369615 
L 79.277671 118.158469 
L 80.577589 147.015898 
L 81.552528 164.85629 
L 82.527466 178.173365 
L 83.502405 188.748782 
L 84.152364 196.363994 
L 86.102241 211.409321 
L 86.427221 213.133472 
L 87.07718 217.647913 
L 88.052118 223.595443 
L 88.702077 226.780253 
L 89.352036 229.960552 
L 90.326975 233.805937 
L 90.651955 234.498991 
L 91.951873 239.386012 
L 92.276852 240.029342 
L 94.226729 245.411054 
L 94.876688 246.949238 
L 96.176607 250.104983 
L 96.826566 251.548963 
L 97.801504 253.742776 
L 103.001177 262.038181 
L 103.651136 262.868591 
L 104.301095 263.694679 
L 104.951054 264.283045 
L 105.925992 265.451522 
L 107.22591 266.995397 
L 111.775624 271.024836 
L 112.425583 271.475587 
L 113.400521 272.313956 
L 114.37546 272.982464 
L 115.350398 273.683415 
L 116.325337 274.358042 
L 124.124846 278.816957 
L 125.099784 279.174995 
L 125.749743 279.494911 
L 126.399702 279.680177 
L 127.049661 279.971642 
L 128.674559 280.819168 
L 129.324518 281.059127 
L 130.624436 281.372819 
L 132.574313 282.267633 
L 135.824109 283.424418 
L 141.34876 285.22153 
L 141.99872 285.479166 
L 142.648679 285.756282 
L 145.248515 286.4361 
L 146.548433 286.788986 
L 151.423126 287.80456 
L 162.47243 290.094817 
L 163.447368 290.255932 
L 164.422307 290.495888 
L 167.347122 291.046597 
L 170.921897 291.584576 
L 172.546795 291.872247 
L 173.846713 292.095304 
L 174.821652 292.274677 
L 176.771529 292.550441 
L 180.346303 293.007114 
L 195.295362 294.630509 
L 202.119932 295.437067 
L 206.669645 295.876313 
L 208.294543 296.096648 
L 210.569399 296.294866 
L 213.169236 296.574171 
L 214.794133 296.671793 
L 216.094051 296.816077 
L 226.168417 297.543216 
L 229.093232 297.797567 
L 244.04229 298.774133 
L 245.667188 298.851503 
L 248.267024 299.015823 
L 254.116656 299.38967 
L 256.066533 299.497286 
L 258.341389 299.658794 
L 264.191021 299.94243 
L 276.215263 300.473491 
L 281.414936 300.613803 
L 333.08668 302.554275 
L 336.986435 302.669111 
L 375.983978 303.674136 
L 380.85867 303.804998 
L 398.082585 304.187254 
L 398.082585 304.187254 
" clip-path="url(#p758ce94959)" style="fill: none; stroke: #9467bd; stroke-width: 2; stroke-linecap: square"/>
    <defs>
     <path id="mc5ac46bb4a" d="M -0 3 
L 3 -3 
L -3 -3 
z
" style="stroke: #9467bd; stroke-linejoin: miter"/>
    </defs>
    <g clip-path="url(#p758ce94959)">
     <use xlink:href="#mc5ac46bb4a" x="73.42804" y="316.828923" style="fill: #9467bd; stroke: #9467bd; stroke-linejoin: miter"/>
     <use xlink:href="#mc5ac46bb4a" x="138.423945" y="284.411155" style="fill: #9467bd; stroke: #9467bd; stroke-linejoin: miter"/>
     <use xlink:href="#mc5ac46bb4a" x="203.41985" y="295.606359" style="fill: #9467bd; stroke: #9467bd; stroke-linejoin: miter"/>
     <use xlink:href="#mc5ac46bb4a" x="268.415755" y="300.141734" style="fill: #9467bd; stroke: #9467bd; stroke-linejoin: miter"/>
     <use xlink:href="#mc5ac46bb4a" x="333.41166" y="302.554592" style="fill: #9467bd; stroke: #9467bd; stroke-linejoin: miter"/>
    </g>
   </g>
   <g id="line2d_34">
    <path d="M 125.424764 327.064 
L 125.424764 60.952 
" clip-path="url(#p758ce94959)" style="fill: none; stroke-dasharray: 7.4,3.2; stroke-dashoffset: 0; stroke: #9467bd; stroke-width: 2"/>
    <g clip-path="url(#p758ce94959)">
     <use xlink:href="#mc5ac46bb4a" x="125.424764" y="327.064" style="fill: #9467bd; stroke: #9467bd; stroke-linejoin: miter"/>
     <use xlink:href="#mc5ac46bb4a" x="125.424764" y="60.952" style="fill: #9467bd; stroke: #9467bd; stroke-linejoin: miter"/>
    </g>
   </g>
   <g id="line2d_35">
    <path d="M 73.42804 316.828923 
L 76.352855 316.828923 
L 76.624067 -1 
M 77.125514 -1 
L 77.652774 53.872273 
L 78.302733 86.29693 
L 78.952692 108.939369 
L 80.25261 139.987953 
L 81.877507 169.584637 
L 83.177426 186.054367 
L 83.827385 192.990933 
L 85.127303 202.893239 
L 87.07718 217.063899 
L 89.027057 226.720475 
L 90.326975 232.26774 
L 90.976934 234.517463 
L 93.57677 242.84758 
L 95.851627 248.205961 
L 97.476525 251.693266 
L 97.801504 252.572053 
L 98.451463 253.815428 
L 98.776443 254.62495 
L 99.426402 255.603373 
L 99.751381 256.287116 
L 100.076361 256.686674 
L 100.72632 257.646562 
L 103.651136 261.760715 
L 104.951054 263.560462 
L 105.276033 263.878046 
L 105.925992 264.785406 
L 107.875869 266.7462 
L 109.175788 268.13002 
L 109.500767 268.343199 
L 110.475706 269.30094 
L 111.775624 269.987871 
L 115.675378 272.979596 
L 116.000358 273.169723 
L 116.325337 273.53878 
L 116.975296 273.746643 
L 118.600194 274.829692 
L 120.225091 275.699794 
L 121.849989 276.706503 
L 123.149907 277.356473 
L 128.674559 279.908995 
L 129.324518 280.16168 
L 132.899293 281.781037 
L 133.874231 282.212588 
L 134.199211 282.372876 
L 134.84917 282.540436 
L 135.824109 282.956515 
L 137.449006 283.50494 
L 141.34876 284.711232 
L 142.323699 285.024447 
L 144.598556 285.602558 
L 145.573494 285.763646 
L 146.873412 286.101207 
L 147.848351 286.323492 
L 148.82329 286.561799 
L 152.073085 287.436183 
L 152.723044 287.663562 
L 154.997901 288.339451 
L 158.572675 289.056618 
L 160.197573 289.373171 
L 162.14745 289.786535 
L 166.372184 290.604202 
L 169.297 290.989646 
L 170.596918 291.197843 
L 171.571856 291.364494 
L 173.196754 291.662065 
L 177.746467 292.300972 
L 183.921078 293.001272 
L 186.195935 293.238586 
L 188.795771 293.54192 
L 193.020505 293.966697 
L 197.570218 294.540963 
L 199.195116 294.746032 
L 206.994625 295.522957 
L 209.594461 295.712128 
L 212.194297 295.966652 
L 228.443273 297.279688 
L 231.693068 297.548642 
L 234.617884 297.754123 
L 236.242782 297.863268 
L 241.767434 298.179794 
L 245.992168 298.525638 
L 260.941226 299.3544 
L 269.715673 299.887247 
L 271.34057 299.968243 
L 317.487663 301.848828 
L 320.412479 301.867341 
L 323.987254 301.962561 
L 344.460964 302.634821 
L 398.082585 304.026831 
L 398.082585 304.026831 
" clip-path="url(#p758ce94959)" style="fill: none; stroke: #8c564b; stroke-width: 2; stroke-linecap: square"/>
    <defs>
     <path id="mef58039d9a" d="M -0 4.242641 
L 2.545584 0 
L 0 -4.242641 
L -2.545584 -0 
z
" style="stroke: #8c564b; stroke-linejoin: miter"/>
    </defs>
    <g clip-path="url(#p758ce94959)">
     <use xlink:href="#mef58039d9a" x="73.42804" y="316.828923" style="fill: #8c564b; stroke: #8c564b; stroke-linejoin: miter"/>
     <use xlink:href="#mef58039d9a" x="138.423945" y="283.820154" style="fill: #8c564b; stroke: #8c564b; stroke-linejoin: miter"/>
     <use xlink:href="#mef58039d9a" x="203.41985" y="295.189167" style="fill: #8c564b; stroke: #8c564b; stroke-linejoin: miter"/>
     <use xlink:href="#mef58039d9a" x="268.415755" y="299.812337" style="fill: #8c564b; stroke: #8c564b; stroke-linejoin: miter"/>
     <use xlink:href="#mef58039d9a" x="333.41166" y="302.264934" style="fill: #8c564b; stroke: #8c564b; stroke-linejoin: miter"/>
    </g>
   </g>
   <g id="line2d_36">
    <path d="M 127.374641 327.064 
L 127.374641 60.952 
" clip-path="url(#p758ce94959)" style="fill: none; stroke-dasharray: 7.4,3.2; stroke-dashoffset: 0; stroke: #8c564b; stroke-width: 2"/>
    <g clip-path="url(#p758ce94959)">
     <use xlink:href="#mef58039d9a" x="127.374641" y="327.064" style="fill: #8c564b; stroke: #8c564b; stroke-linejoin: miter"/>
     <use xlink:href="#mef58039d9a" x="127.374641" y="60.952" style="fill: #8c564b; stroke: #8c564b; stroke-linejoin: miter"/>
    </g>
   </g>
   <g id="patch_3">
    <path d="M 57.195313 327.064 
L 57.195313 60.952 
" style="fill: none; stroke: #000000; stroke-width: 0.8; stroke-linejoin: miter; stroke-linecap: square"/>
   </g>
   <g id="patch_4">
    <path d="M 414.315313 327.064 
L 414.315313 60.952 
" style="fill: none; stroke: #000000; stroke-width: 0.8; stroke-linejoin: miter; stroke-linecap: square"/>
   </g>
   <g id="patch_5">
    <path d="M 57.195313 327.064 
L 414.315313 327.064 
" style="fill: none; stroke: #000000; stroke-width: 0.8; stroke-linejoin: miter; stroke-linecap: square"/>
   </g>
   <g id="patch_6">
    <path d="M 57.195313 60.952 
L 414.315313 60.952 
" style="fill: none; stroke: #000000; stroke-width: 0.8; stroke-linejoin: miter; stroke-linecap: square"/>
   </g>
   <g id="axes_2">
    <g id="patch_7">
     <path d="M 208.971313 220.6192 
L 405.387313 220.6192 
L 405.387313 74.2576 
L 208.971313 74.2576 
z
" style="fill: #ffffff"/>
    </g>
    <g id="matplotlib.axis_3">
     <g id="xtick_7">
      <g id="line2d_37">
       <path d="M 248.254513 220.6192 
L 248.254513 74.2576 
" clip-path="url(#pba1b2fc4aa)" style="fill: none; stroke: #b0b0b0; stroke-width: 0.8; stroke-linecap: square"/>
      </g>
      <g id="line2d_38">
       <defs>
        <path id="mac78a7c9e2" d="M 0 0 
L 0 3.5 
" style="stroke: #000000; stroke-width: 2"/>
       </defs>
       <g>
        <use xlink:href="#mac78a7c9e2" x="248.254513" y="220.6192" style="stroke: #000000; stroke-width: 2"/>
       </g>
      </g>
      <g id="text_13">
       <!-- 160.0 -->
       <g transform="translate(228.214825 238.257013) scale(0.14 -0.14)">
        <use xlink:href="#DejaVuSans-31"/>
        <use xlink:href="#DejaVuSans-36" x="63.623047"/>
        <use xlink:href="#DejaVuSans-30" x="127.246094"/>
        <use xlink:href="#DejaVuSans-2e" x="190.869141"/>
        <use xlink:href="#DejaVuSans-30" x="222.65625"/>
       </g>
      </g>
     </g>
     <g id="xtick_8">
      <g id="line2d_39">
       <path d="M 297.358512 220.6192 
L 297.358512 74.2576 
" clip-path="url(#pba1b2fc4aa)" style="fill: none; stroke: #b0b0b0; stroke-width: 0.8; stroke-linecap: square"/>
      </g>
      <g id="line2d_40">
       <g>
        <use xlink:href="#mac78a7c9e2" x="297.358512" y="220.6192" style="stroke: #000000; stroke-width: 2"/>
       </g>
      </g>
      <g id="text_14">
       <!-- 162.5 -->
       <g transform="translate(277.318825 238.257013) scale(0.14 -0.14)">
        <use xlink:href="#DejaVuSans-31"/>
        <use xlink:href="#DejaVuSans-36" x="63.623047"/>
        <use xlink:href="#DejaVuSans-32" x="127.246094"/>
        <use xlink:href="#DejaVuSans-2e" x="190.869141"/>
        <use xlink:href="#DejaVuSans-35" x="222.65625"/>
       </g>
      </g>
     </g>
     <g id="xtick_9">
      <g id="line2d_41">
       <path d="M 346.462513 220.6192 
L 346.462513 74.2576 
" clip-path="url(#pba1b2fc4aa)" style="fill: none; stroke: #b0b0b0; stroke-width: 0.8; stroke-linecap: square"/>
      </g>
      <g id="line2d_42">
       <g>
        <use xlink:href="#mac78a7c9e2" x="346.462513" y="220.6192" style="stroke: #000000; stroke-width: 2"/>
       </g>
      </g>
      <g id="text_15">
       <!-- 165.0 -->
       <g transform="translate(326.422825 238.257013) scale(0.14 -0.14)">
        <use xlink:href="#DejaVuSans-31"/>
        <use xlink:href="#DejaVuSans-36" x="63.623047"/>
        <use xlink:href="#DejaVuSans-35" x="127.246094"/>
        <use xlink:href="#DejaVuSans-2e" x="190.869141"/>
        <use xlink:href="#DejaVuSans-30" x="222.65625"/>
       </g>
      </g>
     </g>
     <g id="xtick_10">
      <g id="line2d_43">
       <path d="M 395.566513 220.6192 
L 395.566513 74.2576 
" clip-path="url(#pba1b2fc4aa)" style="fill: none; stroke: #b0b0b0; stroke-width: 0.8; stroke-linecap: square"/>
      </g>
      <g id="line2d_44">
       <g>
        <use xlink:href="#mac78a7c9e2" x="395.566513" y="220.6192" style="stroke: #000000; stroke-width: 2"/>
       </g>
      </g>
      <g id="text_16">
       <!-- 167.5 -->
       <g transform="translate(375.526825 238.257013) scale(0.14 -0.14)">
        <defs>
         <path id="DejaVuSans-37" d="M 525 4666 
L 3525 4666 
L 3525 4397 
L 1831 0 
L 1172 0 
L 2766 4134 
L 525 4134 
L 525 4666 
z
" transform="scale(0.015625)"/>
        </defs>
        <use xlink:href="#DejaVuSans-31"/>
        <use xlink:href="#DejaVuSans-36" x="63.623047"/>
        <use xlink:href="#DejaVuSans-37" x="127.246094"/>
        <use xlink:href="#DejaVuSans-2e" x="190.869141"/>
        <use xlink:href="#DejaVuSans-35" x="222.65625"/>
       </g>
      </g>
     </g>
    </g>
    <g id="matplotlib.axis_4">
     <g id="ytick_7">
      <g id="line2d_45">
       <path d="M 208.971313 182.577652 
L 405.387313 182.577652 
" clip-path="url(#pba1b2fc4aa)" style="fill: none; stroke: #b0b0b0; stroke-width: 0.8; stroke-linecap: square"/>
      </g>
      <g id="line2d_46">
       <defs>
        <path id="ma08c79e7c9" d="M 0 0 
L -3.5 0 
" style="stroke: #000000; stroke-width: 2"/>
       </defs>
       <g>
        <use xlink:href="#ma08c79e7c9" x="208.971313" y="182.577652" style="stroke: #000000; stroke-width: 2"/>
       </g>
      </g>
      <g id="text_17">
       <!-- 0.036 -->
       <g transform="translate(161.891938 187.896558) scale(0.14 -0.14)">
        <defs>
         <path id="DejaVuSans-33" d="M 2597 2516 
Q 3050 2419 3304 2112 
Q 3559 1806 3559 1356 
Q 3559 666 3084 287 
Q 2609 -91 1734 -91 
Q 1441 -91 1130 -33 
Q 819 25 488 141 
L 488 750 
Q 750 597 1062 519 
Q 1375 441 1716 441 
Q 2309 441 2620 675 
Q 2931 909 2931 1356 
Q 2931 1769 2642 2001 
Q 2353 2234 1838 2234 
L 1294 2234 
L 1294 2753 
L 1863 2753 
Q 2328 2753 2575 2939 
Q 2822 3125 2822 3475 
Q 2822 3834 2567 4026 
Q 2313 4219 1838 4219 
Q 1578 4219 1281 4162 
Q 984 4106 628 3988 
L 628 4550 
Q 988 4650 1302 4700 
Q 1616 4750 1894 4750 
Q 2613 4750 3031 4423 
Q 3450 4097 3450 3541 
Q 3450 3153 3228 2886 
Q 3006 2619 2597 2516 
z
" transform="scale(0.015625)"/>
        </defs>
        <use xlink:href="#DejaVuSans-30"/>
        <use xlink:href="#DejaVuSans-2e" x="63.623047"/>
        <use xlink:href="#DejaVuSans-30" x="95.410156"/>
        <use xlink:href="#DejaVuSans-33" x="159.033203"/>
        <use xlink:href="#DejaVuSans-36" x="222.65625"/>
       </g>
      </g>
     </g>
     <g id="ytick_8">
      <g id="line2d_47">
       <path d="M 208.971313 127.198649 
L 405.387313 127.198649 
" clip-path="url(#pba1b2fc4aa)" style="fill: none; stroke: #b0b0b0; stroke-width: 0.8; stroke-linecap: square"/>
      </g>
      <g id="line2d_48">
       <g>
        <use xlink:href="#ma08c79e7c9" x="208.971313" y="127.198649" style="stroke: #000000; stroke-width: 2"/>
       </g>
      </g>
      <g id="text_18">
       <!-- 0.037 -->
       <g transform="translate(161.891938 132.517555) scale(0.14 -0.14)">
        <use xlink:href="#DejaVuSans-30"/>
        <use xlink:href="#DejaVuSans-2e" x="63.623047"/>
        <use xlink:href="#DejaVuSans-30" x="95.410156"/>
        <use xlink:href="#DejaVuSans-33" x="159.033203"/>
        <use xlink:href="#DejaVuSans-37" x="222.65625"/>
       </g>
      </g>
     </g>
    </g>
    <g id="line2d_49">
     <path d="M 0 0 
" clip-path="url(#pba1b2fc4aa)" style="fill: none; stroke: #1f77b4; stroke-width: 1.5; stroke-linecap: square"/>
    </g>
    <g id="line2d_50">
     <path clip-path="url(#pba1b2fc4aa)" style="fill: none; stroke-dasharray: 5.55,2.4; stroke-dashoffset: 0; stroke: #1f77b4; stroke-width: 1.5"/>
    </g>
    <g id="line2d_51">
     <path d="M 1.522137 -1 
L 12.555313 5.042849 
L 32.196913 15.412205 
L 51.838512 24.992407 
L 71.480112 34.187818 
L 91.121712 45.075315 
L 110.763313 53.481142 
L 130.404913 61.759582 
L 150.046513 68.099844 
L 169.688112 79.258053 
L 189.329712 89.355055 
L 208.971313 98.027684 
L 228.612913 102.120241 
L 248.254513 111.219188 
L 267.896113 118.29755 
L 287.537712 126.32381 
L 307.179313 134.711843 
L 326.820913 141.307132 
L 346.462513 150.523795 
L 366.104113 157.484068 
L 385.745713 164.173033 
L 405.387313 171.301289 
L 425.028913 178.834228 
L 444.670513 188.713491 
L 460.990625 193.578481 
L 460.990625 193.578481 
" clip-path="url(#pba1b2fc4aa)" style="fill: none; stroke: #ff7f0e; stroke-width: 1.5; stroke-linecap: square"/>
    </g>
    <g id="line2d_52">
     <path d="M 346.462513 220.6192 
L 346.462513 74.2576 
" clip-path="url(#pba1b2fc4aa)" style="fill: none; stroke-dasharray: 5.55,2.4; stroke-dashoffset: 0; stroke: #ff7f0e; stroke-width: 1.5"/>
    </g>
    <g id="line2d_53">
     <path d="M -1 10.553547 
L 12.555313 18.525448 
L 32.196913 28.669479 
L 51.838512 34.957792 
L 91.121712 58.498678 
L 110.763313 67.170776 
L 130.404913 78.608569 
L 150.046513 87.594434 
L 169.688112 98.496764 
L 189.329712 110.791791 
L 208.971313 121.502172 
L 228.612913 131.144345 
L 248.254513 138.747778 
L 267.896113 146.779208 
L 287.537712 156.002878 
L 307.179313 165.557081 
L 346.462513 182.170535 
L 366.104113 190.121884 
L 385.745713 196.540963 
L 405.387313 207.292487 
L 425.028913 213.353614 
L 444.670513 220.12988 
L 460.990625 225.580442 
L 460.990625 225.580442 
" clip-path="url(#pba1b2fc4aa)" style="fill: none; stroke: #2ca02c; stroke-width: 1.5; stroke-linecap: square"/>
    </g>
    <g id="line2d_54">
     <path d="M 267.896113 220.6192 
L 267.896113 74.2576 
" clip-path="url(#pba1b2fc4aa)" style="fill: none; stroke-dasharray: 5.55,2.4; stroke-dashoffset: 0; stroke: #2ca02c; stroke-width: 1.5"/>
    </g>
    <g id="line2d_55">
     <path d="M 20.431027 -1 
L 32.196913 3.357717 
L 51.838512 13.290002 
L 71.480112 23.511411 
L 91.121712 31.600406 
L 110.763313 42.415831 
L 130.404913 52.94588 
L 150.046513 61.801315 
L 169.688112 66.944345 
L 189.329712 73.244666 
L 208.971313 81.299045 
L 228.612913 93.496999 
L 248.254513 100.205018 
L 267.896113 109.007469 
L 287.537712 116.715819 
L 307.179313 129.206125 
L 326.820913 139.388225 
L 346.462513 143.481353 
L 366.104113 151.708355 
L 385.745713 160.591509 
L 405.387313 174.113004 
L 425.028913 177.582659 
L 444.670513 183.007472 
L 460.990625 187.714561 
L 460.990625 187.714561 
" clip-path="url(#pba1b2fc4aa)" style="fill: none; stroke: #d62728; stroke-width: 1.5; stroke-linecap: square"/>
    </g>
    <g id="line2d_56">
     <path d="M 346.462513 220.6192 
L 346.462513 74.2576 
" clip-path="url(#pba1b2fc4aa)" style="fill: none; stroke-dasharray: 5.55,2.4; stroke-dashoffset: 0; stroke: #d62728; stroke-width: 1.5"/>
    </g>
    <g id="line2d_57">
     <path d="M -1 39.887137 
L 12.555313 46.089855 
L 32.196913 57.023504 
L 51.838512 66.022548 
L 71.480112 74.82023 
L 91.121712 84.166198 
L 110.763313 95.450202 
L 130.404913 106.040809 
L 150.046513 112.416382 
L 169.688112 119.505645 
L 189.329712 124.698484 
L 208.971313 131.22744 
L 228.612913 138.878007 
L 248.254513 148.277011 
L 267.896113 156.18774 
L 287.537712 158.974691 
L 307.179313 166.211922 
L 326.820913 172.608101 
L 346.462513 181.982239 
L 366.104113 192.376277 
L 385.745713 203.182404 
L 405.387313 214.466248 
L 425.028913 219.786272 
L 444.670513 227.8394 
L 460.990625 234.803856 
L 460.990625 234.803856 
" clip-path="url(#pba1b2fc4aa)" style="fill: none; stroke: #9467bd; stroke-width: 1.5; stroke-linecap: square"/>
    </g>
    <g id="line2d_58">
     <path d="M 248.254513 220.6192 
L 248.254513 74.2576 
" clip-path="url(#pba1b2fc4aa)" style="fill: none; stroke-dasharray: 5.55,2.4; stroke-dashoffset: 0; stroke: #9467bd; stroke-width: 1.5"/>
    </g>
    <g id="line2d_59">
     <path d="M 20.943442 -1 
L 32.196913 5.315132 
L 51.838512 12.554838 
L 71.480112 22.707059 
L 91.121712 29.990227 
L 110.763313 40.483132 
L 130.404913 48.840354 
L 150.046513 59.179069 
L 169.688112 66.960373 
L 189.329712 78.280633 
L 208.971313 84.967063 
L 228.612913 91.111227 
L 248.254513 102.345371 
L 267.896113 109.424296 
L 287.537712 116.680841 
L 307.179313 125.040386 
L 326.820913 133.722507 
L 346.462513 142.0984 
L 366.104113 151.395447 
L 385.745713 156.497701 
L 405.387313 165.039853 
L 425.028913 172.765688 
L 444.670513 178.592629 
L 460.990625 182.593448 
L 460.990625 182.593448 
" clip-path="url(#pba1b2fc4aa)" style="fill: none; stroke: #8c564b; stroke-width: 1.5; stroke-linecap: square"/>
    </g>
    <g id="line2d_60">
     <path d="M 366.104113 220.6192 
L 366.104113 74.2576 
" clip-path="url(#pba1b2fc4aa)" style="fill: none; stroke-dasharray: 5.55,2.4; stroke-dashoffset: 0; stroke: #8c564b; stroke-width: 1.5"/>
    </g>
    <g id="patch_8">
     <path d="M 208.971313 220.6192 
L 208.971313 74.2576 
" style="fill: none; stroke: #000000; stroke-width: 2; stroke-linejoin: miter; stroke-linecap: square"/>
    </g>
    <g id="patch_9">
     <path d="M 405.387313 220.6192 
L 405.387313 74.2576 
" style="fill: none; stroke: #000000; stroke-width: 2; stroke-linejoin: miter; stroke-linecap: square"/>
    </g>
    <g id="patch_10">
     <path d="M 208.971313 220.6192 
L 405.387313 220.6192 
" style="fill: none; stroke: #000000; stroke-width: 2; stroke-linejoin: miter; stroke-linecap: square"/>
    </g>
    <g id="patch_11">
     <path d="M 208.971313 74.2576 
L 405.387313 74.2576 
" style="fill: none; stroke: #000000; stroke-width: 2; stroke-linejoin: miter; stroke-linecap: square"/>
    </g>
   </g>
   <g id="legend_1">
    <g id="patch_12">
     <path d="M 9.2 39.579687 
L 450.790625 39.579687 
Q 452.790625 39.579687 452.790625 37.579687 
L 452.790625 9.2 
Q 452.790625 7.2 450.790625 7.2 
L 9.2 7.2 
Q 7.2 7.2 7.2 9.2 
L 7.2 37.579687 
Q 7.2 39.579687 9.2 39.579687 
z
" style="fill: #ffffff; opacity: 0.8; stroke: #cccccc; stroke-linejoin: miter"/>
    </g>
    <g id="line2d_61">
     <path d="M 11.2 15.3 
L 21.2 15.3 
L 31.2 15.3 
" style="fill: none; stroke: #1f77b4; stroke-width: 2; stroke-linecap: square"/>
     <g>
      <use xlink:href="#m9833ab79de" x="21.2" y="15.3" style="fill: #1f77b4; stroke: #1f77b4"/>
     </g>
    </g>
    <g id="text_19">
     <!-- $\kappa$ = 0.02 -->
     <g transform="translate(39.2 18.8) scale(0.1 -0.1)">
      <defs>
       <path id="DejaVuSans-Oblique-3ba" d="M 938 3500 
L 1531 3500 
L 1247 2047 
L 3041 3500 
L 3741 3500 
L 2106 2181 
L 3275 0 
L 2572 0 
L 1628 1806 
L 1122 1403 
L 850 0 
L 256 0 
L 938 3500 
z
" transform="scale(0.015625)"/>
       <path id="DejaVuSans-20" transform="scale(0.015625)"/>
       <path id="DejaVuSans-3d" d="M 678 2906 
L 4684 2906 
L 4684 2381 
L 678 2381 
L 678 2906 
z
M 678 1631 
L 4684 1631 
L 4684 1100 
L 678 1100 
L 678 1631 
z
" transform="scale(0.015625)"/>
      </defs>
      <use xlink:href="#DejaVuSans-Oblique-3ba" transform="translate(0 0.78125)"/>
      <use xlink:href="#DejaVuSans-20" transform="translate(58.935547 0.78125)"/>
      <use xlink:href="#DejaVuSans-3d" transform="translate(90.722656 0.78125)"/>
      <use xlink:href="#DejaVuSans-20" transform="translate(174.511719 0.78125)"/>
      <use xlink:href="#DejaVuSans-30" transform="translate(206.298828 0.78125)"/>
      <use xlink:href="#DejaVuSans-2e" transform="translate(269.921875 0.78125)"/>
      <use xlink:href="#DejaVuSans-30" transform="translate(301.708984 0.78125)"/>
      <use xlink:href="#DejaVuSans-32" transform="translate(365.332031 0.78125)"/>
     </g>
    </g>
    <g id="line2d_62">
     <path d="M 11.2 29.979687 
L 21.2 29.979687 
L 31.2 29.979687 
" style="fill: none; stroke: #ff7f0e; stroke-width: 2; stroke-linecap: square"/>
     <g>
      <use xlink:href="#m3ef9b653ec" x="21.2" y="29.979687" style="fill: #ff7f0e; stroke: #ff7f0e; stroke-linejoin: miter"/>
     </g>
    </g>
    <g id="text_20">
     <!-- Constant-edge ($\alpha$ = 0.333) -->
     <g transform="translate(39.2 33.479687) scale(0.1 -0.1)">
      <defs>
       <path id="DejaVuSans-43" d="M 4122 4306 
L 4122 3641 
Q 3803 3938 3442 4084 
Q 3081 4231 2675 4231 
Q 1875 4231 1450 3742 
Q 1025 3253 1025 2328 
Q 1025 1406 1450 917 
Q 1875 428 2675 428 
Q 3081 428 3442 575 
Q 3803 722 4122 1019 
L 4122 359 
Q 3791 134 3420 21 
Q 3050 -91 2638 -91 
Q 1578 -91 968 557 
Q 359 1206 359 2328 
Q 359 3453 968 4101 
Q 1578 4750 2638 4750 
Q 3056 4750 3426 4639 
Q 3797 4528 4122 4306 
z
" transform="scale(0.015625)"/>
       <path id="DejaVuSans-6f" d="M 1959 3097 
Q 1497 3097 1228 2736 
Q 959 2375 959 1747 
Q 959 1119 1226 758 
Q 1494 397 1959 397 
Q 2419 397 2687 759 
Q 2956 1122 2956 1747 
Q 2956 2369 2687 2733 
Q 2419 3097 1959 3097 
z
M 1959 3584 
Q 2709 3584 3137 3096 
Q 3566 2609 3566 1747 
Q 3566 888 3137 398 
Q 2709 -91 1959 -91 
Q 1206 -91 779 398 
Q 353 888 353 1747 
Q 353 2609 779 3096 
Q 1206 3584 1959 3584 
z
" transform="scale(0.015625)"/>
       <path id="DejaVuSans-6e" d="M 3513 2113 
L 3513 0 
L 2938 0 
L 2938 2094 
Q 2938 2591 2744 2837 
Q 2550 3084 2163 3084 
Q 1697 3084 1428 2787 
Q 1159 2491 1159 1978 
L 1159 0 
L 581 0 
L 581 3500 
L 1159 3500 
L 1159 2956 
Q 1366 3272 1645 3428 
Q 1925 3584 2291 3584 
Q 2894 3584 3203 3211 
Q 3513 2838 3513 2113 
z
" transform="scale(0.015625)"/>
       <path id="DejaVuSans-73" d="M 2834 3397 
L 2834 2853 
Q 2591 2978 2328 3040 
Q 2066 3103 1784 3103 
Q 1356 3103 1142 2972 
Q 928 2841 928 2578 
Q 928 2378 1081 2264 
Q 1234 2150 1697 2047 
L 1894 2003 
Q 2506 1872 2764 1633 
Q 3022 1394 3022 966 
Q 3022 478 2636 193 
Q 2250 -91 1575 -91 
Q 1294 -91 989 -36 
Q 684 19 347 128 
L 347 722 
Q 666 556 975 473 
Q 1284 391 1588 391 
Q 1994 391 2212 530 
Q 2431 669 2431 922 
Q 2431 1156 2273 1281 
Q 2116 1406 1581 1522 
L 1381 1569 
Q 847 1681 609 1914 
Q 372 2147 372 2553 
Q 372 3047 722 3315 
Q 1072 3584 1716 3584 
Q 2034 3584 2315 3537 
Q 2597 3491 2834 3397 
z
" transform="scale(0.015625)"/>
       <path id="DejaVuSans-74" d="M 1172 4494 
L 1172 3500 
L 2356 3500 
L 2356 3053 
L 1172 3053 
L 1172 1153 
Q 1172 725 1289 603 
Q 1406 481 1766 481 
L 2356 481 
L 2356 0 
L 1766 0 
Q 1100 0 847 248 
Q 594 497 594 1153 
L 594 3053 
L 172 3053 
L 172 3500 
L 594 3500 
L 594 4494 
L 1172 4494 
z
" transform="scale(0.015625)"/>
       <path id="DejaVuSans-61" d="M 2194 1759 
Q 1497 1759 1228 1600 
Q 959 1441 959 1056 
Q 959 750 1161 570 
Q 1363 391 1709 391 
Q 2188 391 2477 730 
Q 2766 1069 2766 1631 
L 2766 1759 
L 2194 1759 
z
M 3341 1997 
L 3341 0 
L 2766 0 
L 2766 531 
Q 2569 213 2275 61 
Q 1981 -91 1556 -91 
Q 1019 -91 701 211 
Q 384 513 384 1019 
Q 384 1609 779 1909 
Q 1175 2209 1959 2209 
L 2766 2209 
L 2766 2266 
Q 2766 2663 2505 2880 
Q 2244 3097 1772 3097 
Q 1472 3097 1187 3025 
Q 903 2953 641 2809 
L 641 3341 
Q 956 3463 1253 3523 
Q 1550 3584 1831 3584 
Q 2591 3584 2966 3190 
Q 3341 2797 3341 1997 
z
" transform="scale(0.015625)"/>
       <path id="DejaVuSans-2d" d="M 313 2009 
L 1997 2009 
L 1997 1497 
L 313 1497 
L 313 2009 
z
" transform="scale(0.015625)"/>
       <path id="DejaVuSans-65" d="M 3597 1894 
L 3597 1613 
L 953 1613 
Q 991 1019 1311 708 
Q 1631 397 2203 397 
Q 2534 397 2845 478 
Q 3156 559 3463 722 
L 3463 178 
Q 3153 47 2828 -22 
Q 2503 -91 2169 -91 
Q 1331 -91 842 396 
Q 353 884 353 1716 
Q 353 2575 817 3079 
Q 1281 3584 2069 3584 
Q 2775 3584 3186 3129 
Q 3597 2675 3597 1894 
z
M 3022 2063 
Q 3016 2534 2758 2815 
Q 2500 3097 2075 3097 
Q 1594 3097 1305 2825 
Q 1016 2553 972 2059 
L 3022 2063 
z
" transform="scale(0.015625)"/>
       <path id="DejaVuSans-64" d="M 2906 2969 
L 2906 4863 
L 3481 4863 
L 3481 0 
L 2906 0 
L 2906 525 
Q 2725 213 2448 61 
Q 2172 -91 1784 -91 
Q 1150 -91 751 415 
Q 353 922 353 1747 
Q 353 2572 751 3078 
Q 1150 3584 1784 3584 
Q 2172 3584 2448 3432 
Q 2725 3281 2906 2969 
z
M 947 1747 
Q 947 1113 1208 752 
Q 1469 391 1925 391 
Q 2381 391 2643 752 
Q 2906 1113 2906 1747 
Q 2906 2381 2643 2742 
Q 2381 3103 1925 3103 
Q 1469 3103 1208 2742 
Q 947 2381 947 1747 
z
" transform="scale(0.015625)"/>
       <path id="DejaVuSans-67" d="M 2906 1791 
Q 2906 2416 2648 2759 
Q 2391 3103 1925 3103 
Q 1463 3103 1205 2759 
Q 947 2416 947 1791 
Q 947 1169 1205 825 
Q 1463 481 1925 481 
Q 2391 481 2648 825 
Q 2906 1169 2906 1791 
z
M 3481 434 
Q 3481 -459 3084 -895 
Q 2688 -1331 1869 -1331 
Q 1566 -1331 1297 -1286 
Q 1028 -1241 775 -1147 
L 775 -588 
Q 1028 -725 1275 -790 
Q 1522 -856 1778 -856 
Q 2344 -856 2625 -561 
Q 2906 -266 2906 331 
L 2906 616 
Q 2728 306 2450 153 
Q 2172 0 1784 0 
Q 1141 0 747 490 
Q 353 981 353 1791 
Q 353 2603 747 3093 
Q 1141 3584 1784 3584 
Q 2172 3584 2450 3431 
Q 2728 3278 2906 2969 
L 2906 3500 
L 3481 3500 
L 3481 434 
z
" transform="scale(0.015625)"/>
       <path id="DejaVuSans-28" d="M 1984 4856 
Q 1566 4138 1362 3434 
Q 1159 2731 1159 2009 
Q 1159 1288 1364 580 
Q 1569 -128 1984 -844 
L 1484 -844 
Q 1016 -109 783 600 
Q 550 1309 550 2009 
Q 550 2706 781 3412 
Q 1013 4119 1484 4856 
L 1984 4856 
z
" transform="scale(0.015625)"/>
       <path id="DejaVuSans-Oblique-3b1" d="M 2619 1628 
L 2622 2350 
Q 2625 3088 2069 3091 
Q 1653 3094 1394 2747 
Q 1069 2319 959 1747 
Q 825 1059 994 731 
Q 1169 397 1547 397 
Q 1966 397 2319 1063 
L 2619 1628 
z
M 2166 3578 
Q 3141 3594 3128 2584 
Q 3128 2584 3616 3500 
L 4128 3500 
L 3119 1603 
L 3109 919 
Q 3109 766 3194 638 
Q 3291 488 3391 488 
L 3669 488 
L 3575 0 
L 3228 0 
Q 2934 0 2722 263 
Q 2622 394 2619 669 
Q 2416 334 2066 50 
Q 1900 -81 1453 -78 
Q 722 -72 456 397 
Q 184 884 353 1747 
Q 534 2675 1009 3097 
Q 1544 3569 2166 3578 
z
" transform="scale(0.015625)"/>
       <path id="DejaVuSans-29" d="M 513 4856 
L 1013 4856 
Q 1481 4119 1714 3412 
Q 1947 2706 1947 2009 
Q 1947 1309 1714 600 
Q 1481 -109 1013 -844 
L 513 -844 
Q 928 -128 1133 580 
Q 1338 1288 1338 2009 
Q 1338 2731 1133 3434 
Q 928 4138 513 4856 
z
" transform="scale(0.015625)"/>
      </defs>
      <use xlink:href="#DejaVuSans-43" transform="translate(0 0.015625)"/>
      <use xlink:href="#DejaVuSans-6f" transform="translate(69.824219 0.015625)"/>
      <use xlink:href="#DejaVuSans-6e" transform="translate(131.005859 0.015625)"/>
      <use xlink:href="#DejaVuSans-73" transform="translate(194.384766 0.015625)"/>
      <use xlink:href="#DejaVuSans-74" transform="translate(246.484375 0.015625)"/>
      <use xlink:href="#DejaVuSans-61" transform="translate(285.693359 0.015625)"/>
      <use xlink:href="#DejaVuSans-6e" transform="translate(346.972656 0.015625)"/>
      <use xlink:href="#DejaVuSans-74" transform="translate(410.351562 0.015625)"/>
      <use xlink:href="#DejaVuSans-2d" transform="translate(449.560547 0.015625)"/>
      <use xlink:href="#DejaVuSans-65" transform="translate(485.644531 0.015625)"/>
      <use xlink:href="#DejaVuSans-64" transform="translate(547.167969 0.015625)"/>
      <use xlink:href="#DejaVuSans-67" transform="translate(610.644531 0.015625)"/>
      <use xlink:href="#DejaVuSans-65" transform="translate(674.121094 0.015625)"/>
      <use xlink:href="#DejaVuSans-20" transform="translate(735.644531 0.015625)"/>
      <use xlink:href="#DejaVuSans-28" transform="translate(767.431641 0.015625)"/>
      <use xlink:href="#DejaVuSans-Oblique-3b1" transform="translate(806.445312 0.015625)"/>
      <use xlink:href="#DejaVuSans-20" transform="translate(872.363281 0.015625)"/>
      <use xlink:href="#DejaVuSans-3d" transform="translate(904.150391 0.015625)"/>
      <use xlink:href="#DejaVuSans-20" transform="translate(987.939453 0.015625)"/>
      <use xlink:href="#DejaVuSans-30" transform="translate(1019.726562 0.015625)"/>
      <use xlink:href="#DejaVuSans-2e" transform="translate(1083.349609 0.015625)"/>
      <use xlink:href="#DejaVuSans-33" transform="translate(1115.136719 0.015625)"/>
      <use xlink:href="#DejaVuSans-33" transform="translate(1178.759766 0.015625)"/>
      <use xlink:href="#DejaVuSans-33" transform="translate(1242.382812 0.015625)"/>
      <use xlink:href="#DejaVuSans-29" transform="translate(1306.005859 0.015625)"/>
     </g>
    </g>
    <g id="line2d_63">
     <path d="M 193.8 15.3 
L 203.8 15.3 
L 213.8 15.3 
" style="fill: none; stroke: #2ca02c; stroke-width: 2; stroke-linecap: square"/>
     <g>
      <use xlink:href="#mccc2a82904" x="203.8" y="15.3" style="fill: #2ca02c; stroke: #2ca02c; stroke-linejoin: miter"/>
     </g>
    </g>
    <g id="text_21">
     <!-- Maximum-degree ($\alpha$ = 0.333) -->
     <g transform="translate(221.8 18.8) scale(0.1 -0.1)">
      <defs>
       <path id="DejaVuSans-4d" d="M 628 4666 
L 1569 4666 
L 2759 1491 
L 3956 4666 
L 4897 4666 
L 4897 0 
L 4281 0 
L 4281 4097 
L 3078 897 
L 2444 897 
L 1241 4097 
L 1241 0 
L 628 0 
L 628 4666 
z
" transform="scale(0.015625)"/>
       <path id="DejaVuSans-78" d="M 3513 3500 
L 2247 1797 
L 3578 0 
L 2900 0 
L 1881 1375 
L 863 0 
L 184 0 
L 1544 1831 
L 300 3500 
L 978 3500 
L 1906 2253 
L 2834 3500 
L 3513 3500 
z
" transform="scale(0.015625)"/>
       <path id="DejaVuSans-69" d="M 603 3500 
L 1178 3500 
L 1178 0 
L 603 0 
L 603 3500 
z
M 603 4863 
L 1178 4863 
L 1178 4134 
L 603 4134 
L 603 4863 
z
" transform="scale(0.015625)"/>
       <path id="DejaVuSans-6d" d="M 3328 2828 
Q 3544 3216 3844 3400 
Q 4144 3584 4550 3584 
Q 5097 3584 5394 3201 
Q 5691 2819 5691 2113 
L 5691 0 
L 5113 0 
L 5113 2094 
Q 5113 2597 4934 2840 
Q 4756 3084 4391 3084 
Q 3944 3084 3684 2787 
Q 3425 2491 3425 1978 
L 3425 0 
L 2847 0 
L 2847 2094 
Q 2847 2600 2669 2842 
Q 2491 3084 2119 3084 
Q 1678 3084 1418 2786 
Q 1159 2488 1159 1978 
L 1159 0 
L 581 0 
L 581 3500 
L 1159 3500 
L 1159 2956 
Q 1356 3278 1631 3431 
Q 1906 3584 2284 3584 
Q 2666 3584 2933 3390 
Q 3200 3197 3328 2828 
z
" transform="scale(0.015625)"/>
       <path id="DejaVuSans-75" d="M 544 1381 
L 544 3500 
L 1119 3500 
L 1119 1403 
Q 1119 906 1312 657 
Q 1506 409 1894 409 
Q 2359 409 2629 706 
Q 2900 1003 2900 1516 
L 2900 3500 
L 3475 3500 
L 3475 0 
L 2900 0 
L 2900 538 
Q 2691 219 2414 64 
Q 2138 -91 1772 -91 
Q 1169 -91 856 284 
Q 544 659 544 1381 
z
M 1991 3584 
L 1991 3584 
z
" transform="scale(0.015625)"/>
       <path id="DejaVuSans-72" d="M 2631 2963 
Q 2534 3019 2420 3045 
Q 2306 3072 2169 3072 
Q 1681 3072 1420 2755 
Q 1159 2438 1159 1844 
L 1159 0 
L 581 0 
L 581 3500 
L 1159 3500 
L 1159 2956 
Q 1341 3275 1631 3429 
Q 1922 3584 2338 3584 
Q 2397 3584 2469 3576 
Q 2541 3569 2628 3553 
L 2631 2963 
z
" transform="scale(0.015625)"/>
      </defs>
      <use xlink:href="#DejaVuSans-4d" transform="translate(0 0.015625)"/>
      <use xlink:href="#DejaVuSans-61" transform="translate(86.279297 0.015625)"/>
      <use xlink:href="#DejaVuSans-78" transform="translate(147.558594 0.015625)"/>
      <use xlink:href="#DejaVuSans-69" transform="translate(206.738281 0.015625)"/>
      <use xlink:href="#DejaVuSans-6d" transform="translate(234.521484 0.015625)"/>
      <use xlink:href="#DejaVuSans-75" transform="translate(331.933594 0.015625)"/>
      <use xlink:href="#DejaVuSans-6d" transform="translate(395.3125 0.015625)"/>
      <use xlink:href="#DejaVuSans-2d" transform="translate(490.974609 0.015625)"/>
      <use xlink:href="#DejaVuSans-64" transform="translate(527.058594 0.015625)"/>
      <use xlink:href="#DejaVuSans-65" transform="translate(590.535156 0.015625)"/>
      <use xlink:href="#DejaVuSans-67" transform="translate(652.058594 0.015625)"/>
      <use xlink:href="#DejaVuSans-72" transform="translate(715.535156 0.015625)"/>
      <use xlink:href="#DejaVuSans-65" transform="translate(756.648438 0.015625)"/>
      <use xlink:href="#DejaVuSans-65" transform="translate(818.171875 0.015625)"/>
      <use xlink:href="#DejaVuSans-20" transform="translate(879.695312 0.015625)"/>
      <use xlink:href="#DejaVuSans-28" transform="translate(911.482422 0.015625)"/>
      <use xlink:href="#DejaVuSans-Oblique-3b1" transform="translate(950.496094 0.015625)"/>
      <use xlink:href="#DejaVuSans-20" transform="translate(1016.414062 0.015625)"/>
      <use xlink:href="#DejaVuSans-3d" transform="translate(1048.201172 0.015625)"/>
      <use xlink:href="#DejaVuSans-20" transform="translate(1131.990234 0.015625)"/>
      <use xlink:href="#DejaVuSans-30" transform="translate(1163.777344 0.015625)"/>
      <use xlink:href="#DejaVuSans-2e" transform="translate(1227.400391 0.015625)"/>
      <use xlink:href="#DejaVuSans-33" transform="translate(1259.1875 0.015625)"/>
      <use xlink:href="#DejaVuSans-33" transform="translate(1322.810547 0.015625)"/>
      <use xlink:href="#DejaVuSans-33" transform="translate(1386.433594 0.015625)"/>
      <use xlink:href="#DejaVuSans-29" transform="translate(1450.056641 0.015625)"/>
     </g>
    </g>
    <g id="line2d_64">
     <path d="M 193.8 29.998437 
L 203.8 29.998437 
L 213.8 29.998437 
" style="fill: none; stroke: #d62728; stroke-width: 2; stroke-linecap: square"/>
     <g>
      <use xlink:href="#m097fe1afee" x="203.8" y="29.998437" style="fill: #d62728; stroke: #d62728"/>
     </g>
    </g>
    <g id="text_22">
     <!-- Local-degree -->
     <g transform="translate(221.8 33.498437) scale(0.1 -0.1)">
      <defs>
       <path id="DejaVuSans-4c" d="M 628 4666 
L 1259 4666 
L 1259 531 
L 3531 531 
L 3531 0 
L 628 0 
L 628 4666 
z
" transform="scale(0.015625)"/>
       <path id="DejaVuSans-63" d="M 3122 3366 
L 3122 2828 
Q 2878 2963 2633 3030 
Q 2388 3097 2138 3097 
Q 1578 3097 1268 2742 
Q 959 2388 959 1747 
Q 959 1106 1268 751 
Q 1578 397 2138 397 
Q 2388 397 2633 464 
Q 2878 531 3122 666 
L 3122 134 
Q 2881 22 2623 -34 
Q 2366 -91 2075 -91 
Q 1284 -91 818 406 
Q 353 903 353 1747 
Q 353 2603 823 3093 
Q 1294 3584 2113 3584 
Q 2378 3584 2631 3529 
Q 2884 3475 3122 3366 
z
" transform="scale(0.015625)"/>
       <path id="DejaVuSans-6c" d="M 603 4863 
L 1178 4863 
L 1178 0 
L 603 0 
L 603 4863 
z
" transform="scale(0.015625)"/>
      </defs>
      <use xlink:href="#DejaVuSans-4c"/>
      <use xlink:href="#DejaVuSans-6f" x="53.962891"/>
      <use xlink:href="#DejaVuSans-63" x="115.144531"/>
      <use xlink:href="#DejaVuSans-61" x="170.125"/>
      <use xlink:href="#DejaVuSans-6c" x="231.404297"/>
      <use xlink:href="#DejaVuSans-2d" x="259.1875"/>
      <use xlink:href="#DejaVuSans-64" x="295.271484"/>
      <use xlink:href="#DejaVuSans-65" x="358.748047"/>
      <use xlink:href="#DejaVuSans-67" x="420.271484"/>
      <use xlink:href="#DejaVuSans-72" x="483.748047"/>
      <use xlink:href="#DejaVuSans-65" x="522.611328"/>
      <use xlink:href="#DejaVuSans-65" x="584.134766"/>
     </g>
    </g>
    <g id="line2d_65">
     <path d="M 390.8 15.3 
L 400.8 15.3 
L 410.8 15.3 
" style="fill: none; stroke: #9467bd; stroke-width: 2; stroke-linecap: square"/>
     <g>
      <use xlink:href="#mc5ac46bb4a" x="400.8" y="15.3" style="fill: #9467bd; stroke: #9467bd; stroke-linejoin: miter"/>
     </g>
    </g>
    <g id="text_23">
     <!-- FMMC -->
     <g transform="translate(418.8 18.8) scale(0.1 -0.1)">
      <defs>
       <path id="DejaVuSans-46" d="M 628 4666 
L 3309 4666 
L 3309 4134 
L 1259 4134 
L 1259 2759 
L 3109 2759 
L 3109 2228 
L 1259 2228 
L 1259 0 
L 628 0 
L 628 4666 
z
" transform="scale(0.015625)"/>
      </defs>
      <use xlink:href="#DejaVuSans-46"/>
      <use xlink:href="#DejaVuSans-4d" x="57.519531"/>
      <use xlink:href="#DejaVuSans-4d" x="143.798828"/>
      <use xlink:href="#DejaVuSans-43" x="230.078125"/>
     </g>
    </g>
    <g id="line2d_66">
     <path d="M 390.8 29.978125 
L 400.8 29.978125 
L 410.8 29.978125 
" style="fill: none; stroke: #8c564b; stroke-width: 2; stroke-linecap: square"/>
     <g>
      <use xlink:href="#mef58039d9a" x="400.8" y="29.978125" style="fill: #8c564b; stroke: #8c564b; stroke-linejoin: miter"/>
     </g>
    </g>
    <g id="text_24">
     <!-- FDLA -->
     <g transform="translate(418.8 33.478125) scale(0.1 -0.1)">
      <defs>
       <path id="DejaVuSans-44" d="M 1259 4147 
L 1259 519 
L 2022 519 
Q 2988 519 3436 956 
Q 3884 1394 3884 2338 
Q 3884 3275 3436 3711 
Q 2988 4147 2022 4147 
L 1259 4147 
z
M 628 4666 
L 1925 4666 
Q 3281 4666 3915 4102 
Q 4550 3538 4550 2338 
Q 4550 1131 3912 565 
Q 3275 0 1925 0 
L 628 0 
L 628 4666 
z
" transform="scale(0.015625)"/>
       <path id="DejaVuSans-41" d="M 2188 4044 
L 1331 1722 
L 3047 1722 
L 2188 4044 
z
M 1831 4666 
L 2547 4666 
L 4325 0 
L 3669 0 
L 3244 1197 
L 1141 1197 
L 716 0 
L 50 0 
L 1831 4666 
z
" transform="scale(0.015625)"/>
      </defs>
      <use xlink:href="#DejaVuSans-46"/>
      <use xlink:href="#DejaVuSans-44" x="57.519531"/>
      <use xlink:href="#DejaVuSans-4c" x="134.521484"/>
      <use xlink:href="#DejaVuSans-41" x="192.484375"/>
     </g>
    </g>
   </g>
  </g>
  <g id="patch_13">
   <path d="M 128.0246 277.980689 
Q 168.497956 249.299944 208.971313 220.6192 
" style="fill: none; stroke: #000000; stroke-linecap: round"/>
  </g>
  <g id="text_25">
   <!-- Timesteps -->
   <g transform="translate(199.210625 359.128375) scale(0.12 -0.12)">
    <defs>
     <path id="DejaVuSans-54" d="M -19 4666 
L 3928 4666 
L 3928 4134 
L 2272 4134 
L 2272 0 
L 1638 0 
L 1638 4134 
L -19 4134 
L -19 4666 
z
" transform="scale(0.015625)"/>
     <path id="DejaVuSans-70" d="M 1159 525 
L 1159 -1331 
L 581 -1331 
L 581 3500 
L 1159 3500 
L 1159 2969 
Q 1341 3281 1617 3432 
Q 1894 3584 2278 3584 
Q 2916 3584 3314 3078 
Q 3713 2572 3713 1747 
Q 3713 922 3314 415 
Q 2916 -91 2278 -91 
Q 1894 -91 1617 61 
Q 1341 213 1159 525 
z
M 3116 1747 
Q 3116 2381 2855 2742 
Q 2594 3103 2138 3103 
Q 1681 3103 1420 2742 
Q 1159 2381 1159 1747 
Q 1159 1113 1420 752 
Q 1681 391 2138 391 
Q 2594 391 2855 752 
Q 3116 1113 3116 1747 
z
" transform="scale(0.015625)"/>
    </defs>
    <use xlink:href="#DejaVuSans-54"/>
    <use xlink:href="#DejaVuSans-69" x="57.958984"/>
    <use xlink:href="#DejaVuSans-6d" x="85.742188"/>
    <use xlink:href="#DejaVuSans-65" x="183.154297"/>
    <use xlink:href="#DejaVuSans-73" x="244.677734"/>
    <use xlink:href="#DejaVuSans-74" x="296.777344"/>
    <use xlink:href="#DejaVuSans-65" x="335.986328"/>
    <use xlink:href="#DejaVuSans-70" x="397.509766"/>
    <use xlink:href="#DejaVuSans-73" x="460.986328"/>
   </g>
  </g>
  <g id="text_26">
   <!-- Mean estimate error for the best arm -->
   <g transform="translate(17.929438 303.952188) rotate(-90) scale(0.12 -0.12)">
    <defs>
     <path id="DejaVuSans-66" d="M 2375 4863 
L 2375 4384 
L 1825 4384 
Q 1516 4384 1395 4259 
Q 1275 4134 1275 3809 
L 1275 3500 
L 2222 3500 
L 2222 3053 
L 1275 3053 
L 1275 0 
L 697 0 
L 697 3053 
L 147 3053 
L 147 3500 
L 697 3500 
L 697 3744 
Q 697 4328 969 4595 
Q 1241 4863 1831 4863 
L 2375 4863 
z
" transform="scale(0.015625)"/>
     <path id="DejaVuSans-68" d="M 3513 2113 
L 3513 0 
L 2938 0 
L 2938 2094 
Q 2938 2591 2744 2837 
Q 2550 3084 2163 3084 
Q 1697 3084 1428 2787 
Q 1159 2491 1159 1978 
L 1159 0 
L 581 0 
L 581 4863 
L 1159 4863 
L 1159 2956 
Q 1366 3272 1645 3428 
Q 1925 3584 2291 3584 
Q 2894 3584 3203 3211 
Q 3513 2838 3513 2113 
z
" transform="scale(0.015625)"/>
     <path id="DejaVuSans-62" d="M 3116 1747 
Q 3116 2381 2855 2742 
Q 2594 3103 2138 3103 
Q 1681 3103 1420 2742 
Q 1159 2381 1159 1747 
Q 1159 1113 1420 752 
Q 1681 391 2138 391 
Q 2594 391 2855 752 
Q 3116 1113 3116 1747 
z
M 1159 2969 
Q 1341 3281 1617 3432 
Q 1894 3584 2278 3584 
Q 2916 3584 3314 3078 
Q 3713 2572 3713 1747 
Q 3713 922 3314 415 
Q 2916 -91 2278 -91 
Q 1894 -91 1617 61 
Q 1341 213 1159 525 
L 1159 0 
L 581 0 
L 581 4863 
L 1159 4863 
L 1159 2969 
z
" transform="scale(0.015625)"/>
    </defs>
    <use xlink:href="#DejaVuSans-4d"/>
    <use xlink:href="#DejaVuSans-65" x="86.279297"/>
    <use xlink:href="#DejaVuSans-61" x="147.802734"/>
    <use xlink:href="#DejaVuSans-6e" x="209.082031"/>
    <use xlink:href="#DejaVuSans-20" x="272.460938"/>
    <use xlink:href="#DejaVuSans-65" x="304.248047"/>
    <use xlink:href="#DejaVuSans-73" x="365.771484"/>
    <use xlink:href="#DejaVuSans-74" x="417.871094"/>
    <use xlink:href="#DejaVuSans-69" x="457.080078"/>
    <use xlink:href="#DejaVuSans-6d" x="484.863281"/>
    <use xlink:href="#DejaVuSans-61" x="582.275391"/>
    <use xlink:href="#DejaVuSans-74" x="643.554688"/>
    <use xlink:href="#DejaVuSans-65" x="682.763672"/>
    <use xlink:href="#DejaVuSans-20" x="744.287109"/>
    <use xlink:href="#DejaVuSans-65" x="776.074219"/>
    <use xlink:href="#DejaVuSans-72" x="837.597656"/>
    <use xlink:href="#DejaVuSans-72" x="876.960938"/>
    <use xlink:href="#DejaVuSans-6f" x="915.824219"/>
    <use xlink:href="#DejaVuSans-72" x="977.005859"/>
    <use xlink:href="#DejaVuSans-20" x="1018.119141"/>
    <use xlink:href="#DejaVuSans-66" x="1049.90625"/>
    <use xlink:href="#DejaVuSans-6f" x="1085.111328"/>
    <use xlink:href="#DejaVuSans-72" x="1146.292969"/>
    <use xlink:href="#DejaVuSans-20" x="1187.40625"/>
    <use xlink:href="#DejaVuSans-74" x="1219.193359"/>
    <use xlink:href="#DejaVuSans-68" x="1258.402344"/>
    <use xlink:href="#DejaVuSans-65" x="1321.78125"/>
    <use xlink:href="#DejaVuSans-20" x="1383.304688"/>
    <use xlink:href="#DejaVuSans-62" x="1415.091797"/>
    <use xlink:href="#DejaVuSans-65" x="1478.568359"/>
    <use xlink:href="#DejaVuSans-73" x="1540.091797"/>
    <use xlink:href="#DejaVuSans-74" x="1592.191406"/>
    <use xlink:href="#DejaVuSans-20" x="1631.400391"/>
    <use xlink:href="#DejaVuSans-61" x="1663.1875"/>
    <use xlink:href="#DejaVuSans-72" x="1724.466797"/>
    <use xlink:href="#DejaVuSans-6d" x="1763.830078"/>
   </g>
  </g>
 </g>
 <defs>
  <clipPath id="p758ce94959">
   <rect x="57.195313" y="60.952" width="357.12" height="266.112"/>
  </clipPath>
  <clipPath id="pba1b2fc4aa">
   <rect x="208.971313" y="74.2576" width="196.416" height="146.3616"/>
  </clipPath>
 </defs>
</svg>
