<?xml version="1.0" encoding="utf-8" standalone="no"?>
<!DOCTYPE svg PUBLIC "-//W3C//DTD SVG 1.1//EN"
  "http://www.w3.org/Graphics/SVG/1.1/DTD/svg11.dtd">
<svg xmlns:xlink="http://www.w3.org/1999/xlink" width="459.990625pt" height="368.824pt" viewBox="0 0 459.990625 368.824" xmlns="http://www.w3.org/2000/svg" version="1.1">
 <metadata>
  <rdf:RDF xmlns:dc="http://purl.org/dc/elements/1.1/" xmlns:cc="http://creativecommons.org/ns#" xmlns:rdf="http://www.w3.org/1999/02/22-rdf-syntax-ns#">
   <cc:Work>
    <dc:type rdf:resource="http://purl.org/dc/dcmitype/StillImage"/>
    <dc:date>2024-06-03T23:35:42.435954</dc:date>
    <dc:format>image/svg+xml</dc:format>
    <dc:creator>
     <cc:Agent>
      <dc:title>Matplotlib v3.9.0, https://matplotlib.org/</dc:title>
     </cc:Agent>
    </dc:creator>
   </cc:Work>
  </rdf:RDF>
 </metadata>
 <defs>
  <style type="text/css">*{stroke-linejoin: round; stroke-linecap: butt}</style>
 </defs>
 <g id="figure_1">
  <g id="patch_1">
   <path d="M 0 368.824 
L 459.990625 368.824 
L 459.990625 0 
L 0 0 
z
" style="fill: #ffffff"/>
  </g>
  <g id="axes_1">
   <g id="patch_2">
    <path d="M 57.195313 327.064 
L 414.315313 327.064 
L 414.315313 60.952 
L 57.195313 60.952 
z
" style="fill: #ffffff"/>
   </g>
   <g id="PolyCollection_1">
    <path d="M 125.424764 277.793179 
L 125.424764 280.500696 
L 129.974477 280.500696 
L 129.974477 277.793179 
L 129.974477 277.793179 
L 125.424764 277.793179 
z
" clip-path="url(#p3f67cddb55)" style="fill-opacity: 0.2"/>
   </g>
   <g id="matplotlib.axis_1">
    <g id="xtick_1">
     <g id="line2d_1">
      <path d="M 73.42804 327.064 
L 73.42804 60.952 
" clip-path="url(#p3f67cddb55)" style="fill: none; stroke: #b0b0b0; stroke-width: 0.8; stroke-linecap: square"/>
     </g>
     <g id="line2d_2">
      <defs>
       <path id="m19639ba4d1" d="M 0 0 
L 0 3.5 
" style="stroke: #000000; stroke-width: 0.8"/>
      </defs>
      <g>
       <use xlink:href="#m19639ba4d1" x="73.42804" y="327.064" style="stroke: #000000; stroke-width: 0.8"/>
      </g>
     </g>
     <g id="text_1">
      <!-- 0 -->
      <g transform="translate(68.97429 344.701813) scale(0.14 -0.14)">
       <defs>
        <path id="DejaVuSans-30" d="M 2034 4250 
Q 1547 4250 1301 3770 
Q 1056 3291 1056 2328 
Q 1056 1369 1301 889 
Q 1547 409 2034 409 
Q 2525 409 2770 889 
Q 3016 1369 3016 2328 
Q 3016 3291 2770 3770 
Q 2525 4250 2034 4250 
z
M 2034 4750 
Q 2819 4750 3233 4129 
Q 3647 3509 3647 2328 
Q 3647 1150 3233 529 
Q 2819 -91 2034 -91 
Q 1250 -91 836 529 
Q 422 1150 422 2328 
Q 422 3509 836 4129 
Q 1250 4750 2034 4750 
z
" transform="scale(0.015625)"/>
       </defs>
       <use xlink:href="#DejaVuSans-30"/>
      </g>
     </g>
    </g>
    <g id="xtick_2">
     <g id="line2d_3">
      <path d="M 138.423945 327.064 
L 138.423945 60.952 
" clip-path="url(#p3f67cddb55)" style="fill: none; stroke: #b0b0b0; stroke-width: 0.8; stroke-linecap: square"/>
     </g>
     <g id="line2d_4">
      <g>
       <use xlink:href="#m19639ba4d1" x="138.423945" y="327.064" style="stroke: #000000; stroke-width: 0.8"/>
      </g>
     </g>
     <g id="text_2">
      <!-- 200 -->
      <g transform="translate(125.062695 344.701813) scale(0.14 -0.14)">
       <defs>
        <path id="DejaVuSans-32" d="M 1228 531 
L 3431 531 
L 3431 0 
L 469 0 
L 469 531 
Q 828 903 1448 1529 
Q 2069 2156 2228 2338 
Q 2531 2678 2651 2914 
Q 2772 3150 2772 3378 
Q 2772 3750 2511 3984 
Q 2250 4219 1831 4219 
Q 1534 4219 1204 4116 
Q 875 4013 500 3803 
L 500 4441 
Q 881 4594 1212 4672 
Q 1544 4750 1819 4750 
Q 2544 4750 2975 4387 
Q 3406 4025 3406 3419 
Q 3406 3131 3298 2873 
Q 3191 2616 2906 2266 
Q 2828 2175 2409 1742 
Q 1991 1309 1228 531 
z
" transform="scale(0.015625)"/>
       </defs>
       <use xlink:href="#DejaVuSans-32"/>
       <use xlink:href="#DejaVuSans-30" x="63.623047"/>
       <use xlink:href="#DejaVuSans-30" x="127.246094"/>
      </g>
     </g>
    </g>
    <g id="xtick_3">
     <g id="line2d_5">
      <path d="M 203.41985 327.064 
L 203.41985 60.952 
" clip-path="url(#p3f67cddb55)" style="fill: none; stroke: #b0b0b0; stroke-width: 0.8; stroke-linecap: square"/>
     </g>
     <g id="line2d_6">
      <g>
       <use xlink:href="#m19639ba4d1" x="203.41985" y="327.064" style="stroke: #000000; stroke-width: 0.8"/>
      </g>
     </g>
     <g id="text_3">
      <!-- 400 -->
      <g transform="translate(190.0586 344.701813) scale(0.14 -0.14)">
       <defs>
        <path id="DejaVuSans-34" d="M 2419 4116 
L 825 1625 
L 2419 1625 
L 2419 4116 
z
M 2253 4666 
L 3047 4666 
L 3047 1625 
L 3713 1625 
L 3713 1100 
L 3047 1100 
L 3047 0 
L 2419 0 
L 2419 1100 
L 313 1100 
L 313 1709 
L 2253 4666 
z
" transform="scale(0.015625)"/>
       </defs>
       <use xlink:href="#DejaVuSans-34"/>
       <use xlink:href="#DejaVuSans-30" x="63.623047"/>
       <use xlink:href="#DejaVuSans-30" x="127.246094"/>
      </g>
     </g>
    </g>
    <g id="xtick_4">
     <g id="line2d_7">
      <path d="M 268.415755 327.064 
L 268.415755 60.952 
" clip-path="url(#p3f67cddb55)" style="fill: none; stroke: #b0b0b0; stroke-width: 0.8; stroke-linecap: square"/>
     </g>
     <g id="line2d_8">
      <g>
       <use xlink:href="#m19639ba4d1" x="268.415755" y="327.064" style="stroke: #000000; stroke-width: 0.8"/>
      </g>
     </g>
     <g id="text_4">
      <!-- 600 -->
      <g transform="translate(255.054505 344.701813) scale(0.14 -0.14)">
       <defs>
        <path id="DejaVuSans-36" d="M 2113 2584 
Q 1688 2584 1439 2293 
Q 1191 2003 1191 1497 
Q 1191 994 1439 701 
Q 1688 409 2113 409 
Q 2538 409 2786 701 
Q 3034 994 3034 1497 
Q 3034 2003 2786 2293 
Q 2538 2584 2113 2584 
z
M 3366 4563 
L 3366 3988 
Q 3128 4100 2886 4159 
Q 2644 4219 2406 4219 
Q 1781 4219 1451 3797 
Q 1122 3375 1075 2522 
Q 1259 2794 1537 2939 
Q 1816 3084 2150 3084 
Q 2853 3084 3261 2657 
Q 3669 2231 3669 1497 
Q 3669 778 3244 343 
Q 2819 -91 2113 -91 
Q 1303 -91 875 529 
Q 447 1150 447 2328 
Q 447 3434 972 4092 
Q 1497 4750 2381 4750 
Q 2619 4750 2861 4703 
Q 3103 4656 3366 4563 
z
" transform="scale(0.015625)"/>
       </defs>
       <use xlink:href="#DejaVuSans-36"/>
       <use xlink:href="#DejaVuSans-30" x="63.623047"/>
       <use xlink:href="#DejaVuSans-30" x="127.246094"/>
      </g>
     </g>
    </g>
    <g id="xtick_5">
     <g id="line2d_9">
      <path d="M 333.41166 327.064 
L 333.41166 60.952 
" clip-path="url(#p3f67cddb55)" style="fill: none; stroke: #b0b0b0; stroke-width: 0.8; stroke-linecap: square"/>
     </g>
     <g id="line2d_10">
      <g>
       <use xlink:href="#m19639ba4d1" x="333.41166" y="327.064" style="stroke: #000000; stroke-width: 0.8"/>
      </g>
     </g>
     <g id="text_5">
      <!-- 800 -->
      <g transform="translate(320.05041 344.701813) scale(0.14 -0.14)">
       <defs>
        <path id="DejaVuSans-38" d="M 2034 2216 
Q 1584 2216 1326 1975 
Q 1069 1734 1069 1313 
Q 1069 891 1326 650 
Q 1584 409 2034 409 
Q 2484 409 2743 651 
Q 3003 894 3003 1313 
Q 3003 1734 2745 1975 
Q 2488 2216 2034 2216 
z
M 1403 2484 
Q 997 2584 770 2862 
Q 544 3141 544 3541 
Q 544 4100 942 4425 
Q 1341 4750 2034 4750 
Q 2731 4750 3128 4425 
Q 3525 4100 3525 3541 
Q 3525 3141 3298 2862 
Q 3072 2584 2669 2484 
Q 3125 2378 3379 2068 
Q 3634 1759 3634 1313 
Q 3634 634 3220 271 
Q 2806 -91 2034 -91 
Q 1263 -91 848 271 
Q 434 634 434 1313 
Q 434 1759 690 2068 
Q 947 2378 1403 2484 
z
M 1172 3481 
Q 1172 3119 1398 2916 
Q 1625 2713 2034 2713 
Q 2441 2713 2670 2916 
Q 2900 3119 2900 3481 
Q 2900 3844 2670 4047 
Q 2441 4250 2034 4250 
Q 1625 4250 1398 4047 
Q 1172 3844 1172 3481 
z
" transform="scale(0.015625)"/>
       </defs>
       <use xlink:href="#DejaVuSans-38"/>
       <use xlink:href="#DejaVuSans-30" x="63.623047"/>
       <use xlink:href="#DejaVuSans-30" x="127.246094"/>
      </g>
     </g>
    </g>
    <g id="xtick_6">
     <g id="line2d_11">
      <path d="M 398.407565 327.064 
L 398.407565 60.952 
" clip-path="url(#p3f67cddb55)" style="fill: none; stroke: #b0b0b0; stroke-width: 0.8; stroke-linecap: square"/>
     </g>
     <g id="line2d_12">
      <g>
       <use xlink:href="#m19639ba4d1" x="398.407565" y="327.064" style="stroke: #000000; stroke-width: 0.8"/>
      </g>
     </g>
     <g id="text_6">
      <!-- 1000 -->
      <g transform="translate(380.592565 344.701813) scale(0.14 -0.14)">
       <defs>
        <path id="DejaVuSans-31" d="M 794 531 
L 1825 531 
L 1825 4091 
L 703 3866 
L 703 4441 
L 1819 4666 
L 2450 4666 
L 2450 531 
L 3481 531 
L 3481 0 
L 794 0 
L 794 531 
z
" transform="scale(0.015625)"/>
       </defs>
       <use xlink:href="#DejaVuSans-31"/>
       <use xlink:href="#DejaVuSans-30" x="63.623047"/>
       <use xlink:href="#DejaVuSans-30" x="127.246094"/>
       <use xlink:href="#DejaVuSans-30" x="190.869141"/>
      </g>
     </g>
    </g>
   </g>
   <g id="matplotlib.axis_2">
    <g id="ytick_1">
     <g id="line2d_13">
      <path d="M 57.195313 316.828923 
L 414.315313 316.828923 
" clip-path="url(#p3f67cddb55)" style="fill: none; stroke: #b0b0b0; stroke-width: 0.8; stroke-linecap: square"/>
     </g>
     <g id="line2d_14">
      <defs>
       <path id="ma590e3441b" d="M 0 0 
L -3.5 0 
" style="stroke: #000000; stroke-width: 0.8"/>
      </defs>
      <g>
       <use xlink:href="#ma590e3441b" x="57.195313" y="316.828923" style="stroke: #000000; stroke-width: 0.8"/>
      </g>
     </g>
     <g id="text_7">
      <!-- 0.00 -->
      <g transform="translate(19.023438 322.147829) scale(0.14 -0.14)">
       <defs>
        <path id="DejaVuSans-2e" d="M 684 794 
L 1344 794 
L 1344 0 
L 684 0 
L 684 794 
z
" transform="scale(0.015625)"/>
       </defs>
       <use xlink:href="#DejaVuSans-30"/>
       <use xlink:href="#DejaVuSans-2e" x="63.623047"/>
       <use xlink:href="#DejaVuSans-30" x="95.410156"/>
       <use xlink:href="#DejaVuSans-30" x="159.033203"/>
      </g>
     </g>
    </g>
    <g id="ytick_2">
     <g id="line2d_15">
      <path d="M 57.195313 265.653538 
L 414.315313 265.653538 
" clip-path="url(#p3f67cddb55)" style="fill: none; stroke: #b0b0b0; stroke-width: 0.8; stroke-linecap: square"/>
     </g>
     <g id="line2d_16">
      <g>
       <use xlink:href="#ma590e3441b" x="57.195313" y="265.653538" style="stroke: #000000; stroke-width: 0.8"/>
      </g>
     </g>
     <g id="text_8">
      <!-- 0.05 -->
      <g transform="translate(19.023438 270.972445) scale(0.14 -0.14)">
       <defs>
        <path id="DejaVuSans-35" d="M 691 4666 
L 3169 4666 
L 3169 4134 
L 1269 4134 
L 1269 2991 
Q 1406 3038 1543 3061 
Q 1681 3084 1819 3084 
Q 2600 3084 3056 2656 
Q 3513 2228 3513 1497 
Q 3513 744 3044 326 
Q 2575 -91 1722 -91 
Q 1428 -91 1123 -41 
Q 819 9 494 109 
L 494 744 
Q 775 591 1075 516 
Q 1375 441 1709 441 
Q 2250 441 2565 725 
Q 2881 1009 2881 1497 
Q 2881 1984 2565 2268 
Q 2250 2553 1709 2553 
Q 1456 2553 1204 2497 
Q 953 2441 691 2322 
L 691 4666 
z
" transform="scale(0.015625)"/>
       </defs>
       <use xlink:href="#DejaVuSans-30"/>
       <use xlink:href="#DejaVuSans-2e" x="63.623047"/>
       <use xlink:href="#DejaVuSans-30" x="95.410156"/>
       <use xlink:href="#DejaVuSans-35" x="159.033203"/>
      </g>
     </g>
    </g>
    <g id="ytick_3">
     <g id="line2d_17">
      <path d="M 57.195313 214.478154 
L 414.315313 214.478154 
" clip-path="url(#p3f67cddb55)" style="fill: none; stroke: #b0b0b0; stroke-width: 0.8; stroke-linecap: square"/>
     </g>
     <g id="line2d_18">
      <g>
       <use xlink:href="#ma590e3441b" x="57.195313" y="214.478154" style="stroke: #000000; stroke-width: 0.8"/>
      </g>
     </g>
     <g id="text_9">
      <!-- 0.10 -->
      <g transform="translate(19.023438 219.79706) scale(0.14 -0.14)">
       <use xlink:href="#DejaVuSans-30"/>
       <use xlink:href="#DejaVuSans-2e" x="63.623047"/>
       <use xlink:href="#DejaVuSans-31" x="95.410156"/>
       <use xlink:href="#DejaVuSans-30" x="159.033203"/>
      </g>
     </g>
    </g>
    <g id="ytick_4">
     <g id="line2d_19">
      <path d="M 57.195313 163.302769 
L 414.315313 163.302769 
" clip-path="url(#p3f67cddb55)" style="fill: none; stroke: #b0b0b0; stroke-width: 0.8; stroke-linecap: square"/>
     </g>
     <g id="line2d_20">
      <g>
       <use xlink:href="#ma590e3441b" x="57.195313" y="163.302769" style="stroke: #000000; stroke-width: 0.8"/>
      </g>
     </g>
     <g id="text_10">
      <!-- 0.15 -->
      <g transform="translate(19.023438 168.621675) scale(0.14 -0.14)">
       <use xlink:href="#DejaVuSans-30"/>
       <use xlink:href="#DejaVuSans-2e" x="63.623047"/>
       <use xlink:href="#DejaVuSans-31" x="95.410156"/>
       <use xlink:href="#DejaVuSans-35" x="159.033203"/>
      </g>
     </g>
    </g>
    <g id="ytick_5">
     <g id="line2d_21">
      <path d="M 57.195313 112.127385 
L 414.315313 112.127385 
" clip-path="url(#p3f67cddb55)" style="fill: none; stroke: #b0b0b0; stroke-width: 0.8; stroke-linecap: square"/>
     </g>
     <g id="line2d_22">
      <g>
       <use xlink:href="#ma590e3441b" x="57.195313" y="112.127385" style="stroke: #000000; stroke-width: 0.8"/>
      </g>
     </g>
     <g id="text_11">
      <!-- 0.20 -->
      <g transform="translate(19.023438 117.446291) scale(0.14 -0.14)">
       <use xlink:href="#DejaVuSans-30"/>
       <use xlink:href="#DejaVuSans-2e" x="63.623047"/>
       <use xlink:href="#DejaVuSans-32" x="95.410156"/>
       <use xlink:href="#DejaVuSans-30" x="159.033203"/>
      </g>
     </g>
    </g>
    <g id="ytick_6">
     <g id="line2d_23">
      <path d="M 57.195313 60.952 
L 414.315313 60.952 
" clip-path="url(#p3f67cddb55)" style="fill: none; stroke: #b0b0b0; stroke-width: 0.8; stroke-linecap: square"/>
     </g>
     <g id="line2d_24">
      <g>
       <use xlink:href="#ma590e3441b" x="57.195313" y="60.952" style="stroke: #000000; stroke-width: 0.8"/>
      </g>
     </g>
     <g id="text_12">
      <!-- 0.25 -->
      <g transform="translate(19.023438 66.270906) scale(0.14 -0.14)">
       <use xlink:href="#DejaVuSans-30"/>
       <use xlink:href="#DejaVuSans-2e" x="63.623047"/>
       <use xlink:href="#DejaVuSans-32" x="95.410156"/>
       <use xlink:href="#DejaVuSans-35" x="159.033203"/>
      </g>
     </g>
    </g>
   </g>
   <g id="line2d_25">
    <path d="M 73.42804 316.828923 
L 76.352855 316.828923 
L 76.489611 -1 
M 81.577491 -1 
L 82.202487 20.708524 
L 83.502405 56.262528 
L 84.802323 83.912109 
L 85.452282 95.76039 
L 88.052118 133.345542 
L 90.001996 154.118157 
L 91.301914 165.321599 
L 92.926811 177.5281 
L 93.57677 182.118137 
L 93.90175 183.705811 
L 94.876688 189.642681 
L 95.851627 194.571694 
L 97.801504 203.607911 
L 98.776443 207.836957 
L 101.376279 217.077149 
L 103.001177 222.316065 
L 104.626074 227.138031 
L 106.575951 232.198506 
L 108.850808 237.185017 
L 111.775624 242.82907 
L 112.750562 244.524153 
L 113.725501 246.100379 
L 114.700439 247.523168 
L 116.325337 249.793885 
L 116.975296 250.740959 
L 117.950235 251.865487 
L 120.225091 254.644302 
L 120.87505 255.391334 
L 122.174969 256.88881 
L 123.149907 257.903726 
L 124.124846 258.921646 
L 125.424764 260.19771 
L 126.074723 260.889545 
L 131.274395 265.234334 
L 136.799047 269.071911 
L 139.073904 270.391501 
L 139.723863 270.764533 
L 142.323699 272.139529 
L 144.273576 273.18606 
L 146.548433 274.23282 
L 155.64786 278.231309 
L 156.622798 278.616457 
L 163.772348 280.999954 
L 165.072266 281.474497 
L 167.347122 282.144925 
L 168.647041 282.573098 
L 169.297 282.738851 
L 173.521733 283.845112 
L 174.496672 284.084211 
L 175.471611 284.373046 
L 177.746467 284.982132 
L 180.346303 285.569693 
L 183.921078 286.28251 
L 190.095689 287.55654 
L 193.995444 288.319593 
L 198.545157 289.187465 
L 201.794952 289.686687 
L 206.994625 290.540446 
L 216.74401 291.85985 
L 219.343846 292.198512 
L 225.193478 293.013066 
L 229.093232 293.443522 
L 231.368089 293.705464 
L 233.967925 293.9855 
L 235.592823 294.187726 
L 237.21772 294.313196 
L 247.942045 295.345285 
L 253.141717 295.759754 
L 293.114199 298.639273 
L 302.213625 299.125077 
L 313.912888 299.706844 
L 384.433445 302.405474 
L 388.333199 302.529966 
L 398.082585 302.806114 
L 398.082585 302.806114 
" clip-path="url(#p3f67cddb55)" style="fill: none; stroke: #1f77b4; stroke-width: 2; stroke-linecap: square"/>
    <defs>
     <path id="mf7b06c66aa" d="M 0 3 
C 0.795609 3 1.55874 2.683901 2.12132 2.12132 
C 2.683901 1.55874 3 0.795609 3 0 
C 3 -0.795609 2.683901 -1.55874 2.12132 -2.12132 
C 1.55874 -2.683901 0.795609 -3 0 -3 
C -0.795609 -3 -1.55874 -2.683901 -2.12132 -2.12132 
C -2.683901 -1.55874 -3 -0.795609 -3 0 
C -3 0.795609 -2.683901 1.55874 -2.12132 2.12132 
C -1.55874 2.683901 -0.795609 3 0 3 
z
" style="stroke: #1f77b4"/>
    </defs>
    <g clip-path="url(#p3f67cddb55)">
     <use xlink:href="#mf7b06c66aa" x="73.42804" y="316.828923" style="fill: #1f77b4; stroke: #1f77b4"/>
     <use xlink:href="#mf7b06c66aa" x="138.423945" y="270.01235" style="fill: #1f77b4; stroke: #1f77b4"/>
     <use xlink:href="#mf7b06c66aa" x="203.41985" y="289.943067" style="fill: #1f77b4; stroke: #1f77b4"/>
     <use xlink:href="#mf7b06c66aa" x="268.415755" y="296.992028" style="fill: #1f77b4; stroke: #1f77b4"/>
     <use xlink:href="#mf7b06c66aa" x="333.41166" y="300.585228" style="fill: #1f77b4; stroke: #1f77b4"/>
    </g>
   </g>
   <g id="line2d_26">
    <path d="M 157.922716 327.064 
L 157.922716 60.952 
" clip-path="url(#p3f67cddb55)" style="fill: none; stroke-dasharray: 7.4,3.2; stroke-dashoffset: 0; stroke: #1f77b4; stroke-width: 2"/>
    <g clip-path="url(#p3f67cddb55)">
     <use xlink:href="#mf7b06c66aa" x="157.922716" y="327.064" style="fill: #1f77b4; stroke: #1f77b4"/>
     <use xlink:href="#mf7b06c66aa" x="157.922716" y="60.952" style="fill: #1f77b4; stroke: #1f77b4"/>
    </g>
   </g>
   <g id="line2d_27">
    <path d="M 73.42804 316.828923 
L 76.352855 316.828923 
L 76.594405 -1 
M 77.554687 -1 
L 77.977753 36.038391 
L 78.627712 71.262942 
L 79.602651 107.146714 
L 80.577589 132.786165 
L 81.877507 158.675021 
L 82.527466 169.196873 
L 83.827385 186.423958 
L 85.127303 199.280636 
L 86.7522 211.766196 
L 87.727139 217.259222 
L 89.352036 225.781912 
L 92.601832 238.108339 
L 93.90175 241.823887 
L 94.551709 243.449832 
L 95.526647 245.924584 
L 97.151545 249.442416 
L 98.126484 251.651312 
L 99.751381 254.753619 
L 100.72632 256.063171 
L 101.376279 257.224569 
L 102.026238 258.093667 
L 102.676197 259.22895 
L 103.651136 260.497572 
L 104.301095 261.329763 
L 105.276033 262.521732 
L 108.850808 266.246878 
L 114.05048 270.997648 
L 116.650317 272.786422 
L 117.300276 273.154609 
L 119.900112 274.747859 
L 120.87505 275.173664 
L 121.849989 275.805079 
L 122.499948 276.156259 
L 124.774805 277.232949 
L 127.049661 278.137859 
L 128.999539 279.056925 
L 132.249334 280.619783 
L 133.549252 281.052849 
L 142.648679 284.5538 
L 146.223453 285.447557 
L 147.198392 285.633144 
L 151.748105 286.83354 
L 152.398064 287.055262 
L 154.997901 287.63117 
L 155.64786 287.790381 
L 158.572675 288.331045 
L 161.172512 288.923645 
L 162.47243 289.149698 
L 164.422307 289.56492 
L 178.396426 292.04141 
L 198.220177 294.485132 
L 202.119932 294.848858 
L 205.369727 295.171724 
L 206.994625 295.309116 
L 208.619522 295.467112 
L 247.617065 298.376068 
L 255.091594 298.776042 
L 257.366451 298.920365 
L 261.916164 299.199375 
L 264.84098 299.359785 
L 271.015591 299.692237 
L 282.714854 300.184024 
L 309.038195 301.285914 
L 318.462602 301.594873 
L 328.211987 301.947868 
L 363.309776 303.0698 
L 367.53451 303.154039 
L 382.483568 303.573692 
L 398.082585 303.92345 
L 398.082585 303.92345 
" clip-path="url(#p3f67cddb55)" style="fill: none; stroke: #ff7f0e; stroke-width: 2; stroke-linecap: square"/>
    <defs>
     <path id="mc8628b184d" d="M 0 -3 
L -3 3 
L 3 3 
z
" style="stroke: #ff7f0e; stroke-linejoin: miter"/>
    </defs>
    <g clip-path="url(#p3f67cddb55)">
     <use xlink:href="#mc8628b184d" x="73.42804" y="316.828923" style="fill: #ff7f0e; stroke: #ff7f0e; stroke-linejoin: miter"/>
     <use xlink:href="#mc8628b184d" x="138.423945" y="283.015141" style="fill: #ff7f0e; stroke: #ff7f0e; stroke-linejoin: miter"/>
     <use xlink:href="#mc8628b184d" x="203.41985" y="294.980574" style="fill: #ff7f0e; stroke: #ff7f0e; stroke-linejoin: miter"/>
     <use xlink:href="#mc8628b184d" x="268.415755" y="299.561752" style="fill: #ff7f0e; stroke: #ff7f0e; stroke-linejoin: miter"/>
     <use xlink:href="#mc8628b184d" x="333.41166" y="302.110389" style="fill: #ff7f0e; stroke: #ff7f0e; stroke-linejoin: miter"/>
    </g>
   </g>
   <g id="line2d_28">
    <path d="M 129.324518 327.064 
L 129.324518 60.952 
" clip-path="url(#p3f67cddb55)" style="fill: none; stroke-dasharray: 7.4,3.2; stroke-dashoffset: 0; stroke: #ff7f0e; stroke-width: 2"/>
    <g clip-path="url(#p3f67cddb55)">
     <use xlink:href="#mc8628b184d" x="129.324518" y="327.064" style="fill: #ff7f0e; stroke: #ff7f0e; stroke-linejoin: miter"/>
     <use xlink:href="#mc8628b184d" x="129.324518" y="60.952" style="fill: #ff7f0e; stroke: #ff7f0e; stroke-linejoin: miter"/>
    </g>
   </g>
   <g id="line2d_29">
    <path d="M 73.42804 316.828923 
L 76.352855 316.828923 
L 76.597389 -1 
M 77.534934 -1 
L 77.977753 39.580749 
L 78.627712 72.563437 
L 79.277671 97.153799 
L 80.25261 126.487037 
L 80.902569 142.894106 
L 82.202487 166.597391 
L 83.502405 183.117579 
L 85.127303 198.672671 
L 86.102241 206.337229 
L 87.402159 214.413932 
L 88.377098 220.456424 
L 90.001996 228.599927 
L 90.651955 231.12792 
L 91.626893 234.778521 
L 94.876688 245.124624 
L 95.851627 247.645871 
L 96.176607 248.590505 
L 96.501586 249.097579 
L 97.476525 251.191291 
L 98.776443 253.806071 
L 99.751381 255.774313 
L 101.051299 257.926178 
L 102.351217 259.874681 
L 103.326156 261.220785 
L 103.976115 262.214103 
L 104.626074 262.962921 
L 110.150726 268.749682 
L 114.37546 272.357434 
L 119.900112 275.743743 
L 120.225091 275.860029 
L 120.87505 276.376922 
L 121.525009 276.685967 
L 122.824928 277.473266 
L 124.774805 278.328875 
L 126.074723 278.920853 
L 127.374641 279.506345 
L 128.0246 279.708211 
L 131.599375 281.152064 
L 135.499129 282.644731 
L 137.124027 283.138254 
L 138.423945 283.593211 
L 141.023781 284.466987 
L 142.973658 285.023013 
L 143.623617 285.15692 
L 144.598556 285.500176 
L 145.573494 285.756624 
L 153.048023 287.570676 
L 153.697982 287.645767 
L 161.822471 289.385306 
L 166.372184 290.152171 
L 167.672102 290.352247 
L 180.021324 292.487115 
L 181.646222 292.691469 
L 184.571037 293.178698 
L 187.820833 293.584634 
L 189.44573 293.774004 
L 196.59528 294.65039 
L 199.195116 294.890519 
L 204.069809 295.452011 
L 205.044747 295.519734 
L 207.319604 295.792242 
L 219.993806 296.899154 
L 223.56858 297.181174 
L 226.493396 297.415479 
L 229.418212 297.69422 
L 239.492577 298.319018 
L 241.117475 298.40632 
L 279.790038 300.355614 
L 283.039833 300.463723 
L 292.46424 300.86515 
L 295.064076 300.915915 
L 297.988892 301.021108 
L 302.213625 301.194355 
L 306.438359 301.360293 
L 310.663093 301.482815 
L 319.112561 301.76586 
L 324.637213 301.951443 
L 362.659817 303.090334 
L 376.958916 303.43244 
L 380.85867 303.498601 
L 392.232954 303.791594 
L 397.757606 303.87139 
L 398.082585 303.874346 
L 398.082585 303.874346 
" clip-path="url(#p3f67cddb55)" style="fill: none; stroke: #2ca02c; stroke-width: 2; stroke-linecap: square"/>
    <defs>
     <path id="mbec2415bbe" d="M -3 3 
L 3 3 
L 3 -3 
L -3 -3 
z
" style="stroke: #2ca02c; stroke-linejoin: miter"/>
    </defs>
    <g clip-path="url(#p3f67cddb55)">
     <use xlink:href="#mbec2415bbe" x="73.42804" y="316.828923" style="fill: #2ca02c; stroke: #2ca02c; stroke-linejoin: miter"/>
     <use xlink:href="#mbec2415bbe" x="138.423945" y="283.593211" style="fill: #2ca02c; stroke: #2ca02c; stroke-linejoin: miter"/>
     <use xlink:href="#mbec2415bbe" x="203.41985" y="295.399105" style="fill: #2ca02c; stroke: #2ca02c; stroke-linejoin: miter"/>
     <use xlink:href="#mbec2415bbe" x="268.415755" y="299.86899" style="fill: #2ca02c; stroke: #2ca02c; stroke-linejoin: miter"/>
     <use xlink:href="#mbec2415bbe" x="333.41166" y="302.186616" style="fill: #2ca02c; stroke: #2ca02c; stroke-linejoin: miter"/>
    </g>
   </g>
   <g id="line2d_30">
    <path d="M 126.399702 327.064 
L 126.399702 60.952 
" clip-path="url(#p3f67cddb55)" style="fill: none; stroke-dasharray: 7.4,3.2; stroke-dashoffset: 0; stroke: #2ca02c; stroke-width: 2"/>
    <g clip-path="url(#p3f67cddb55)">
     <use xlink:href="#mbec2415bbe" x="126.399702" y="327.064" style="fill: #2ca02c; stroke: #2ca02c; stroke-linejoin: miter"/>
     <use xlink:href="#mbec2415bbe" x="126.399702" y="60.952" style="fill: #2ca02c; stroke: #2ca02c; stroke-linejoin: miter"/>
    </g>
   </g>
   <g id="line2d_31">
    <path d="M 73.42804 316.828923 
L 76.352855 316.828923 
L 76.595553 -1 
M 77.552047 -1 
L 77.977753 35.95416 
L 78.627712 70.660578 
L 79.602651 106.84019 
L 80.577589 132.459904 
L 82.202487 164.311524 
L 83.177426 178.214367 
L 84.152364 188.99787 
L 85.127303 198.288023 
L 86.102241 206.498359 
L 88.702077 222.341903 
L 89.352036 225.410953 
L 90.976934 232.914526 
L 92.276852 237.162984 
L 92.926811 239.021434 
L 93.90175 242.11927 
L 96.176607 247.346873 
L 98.126484 252.119969 
L 98.776443 253.251348 
L 101.376279 257.938537 
L 102.351217 259.150478 
L 103.001177 259.865692 
L 103.326156 260.433526 
L 104.301095 261.364446 
L 108.850808 266.875481 
L 109.825747 267.812398 
L 110.800685 268.539382 
L 113.400521 270.706699 
L 116.650317 273.048444 
L 117.950235 273.749208 
L 118.600194 274.06245 
L 119.575132 274.545949 
L 120.87505 275.300086 
L 121.849989 275.94434 
L 122.824928 276.411113 
L 124.124846 277.15793 
L 125.099784 277.569952 
L 125.749743 277.972281 
L 128.349579 279.201027 
L 129.324518 279.8291 
L 129.974477 280.116406 
L 130.949416 280.493579 
L 132.249334 280.93494 
L 134.52419 281.870415 
L 136.149088 282.456526 
L 136.799047 282.659208 
L 137.773986 282.880705 
L 138.423945 283.08954 
L 141.023781 284.000696 
L 142.323699 284.391597 
L 143.298638 284.669119 
L 144.273576 284.996938 
L 146.873412 285.69278 
L 149.148269 286.311572 
L 153.373003 287.307046 
L 156.622798 288.137802 
L 157.922716 288.433312 
L 160.197573 288.992758 
L 161.497491 289.268532 
L 183.596099 292.884725 
L 186.520914 293.247376 
L 189.120751 293.631002 
L 202.769891 295.236057 
L 203.744829 295.304911 
L 215.119113 296.341101 
L 216.419031 296.462796 
L 218.693887 296.640192 
L 220.318785 296.76414 
L 222.918621 296.975774 
L 236.892741 297.983393 
L 240.467516 298.192745 
L 242.092413 298.282253 
L 245.667188 298.48394 
L 264.191021 299.535879 
L 271.015591 299.832061 
L 273.615427 299.990797 
L 276.865222 300.110941 
L 282.064895 300.331941 
L 283.689792 300.382995 
L 287.589547 300.564691 
L 321.387417 301.812727 
L 324.312233 301.913887 
L 356.485206 302.916207 
L 370.784305 303.220294 
L 376.308957 303.377002 
L 380.533691 303.492743 
L 387.033281 303.685033 
L 392.232954 303.825645 
L 397.757606 303.944261 
L 398.082585 303.950516 
L 398.082585 303.950516 
" clip-path="url(#p3f67cddb55)" style="fill: none; stroke: #d62728; stroke-width: 2; stroke-linecap: square"/>
    <defs>
     <path id="m4583cdb99b" d="M -3 3 
L 3 -3 
M -3 -3 
L 3 3 
" style="stroke: #d62728"/>
    </defs>
    <g clip-path="url(#p3f67cddb55)">
     <use xlink:href="#m4583cdb99b" x="73.42804" y="316.828923" style="fill: #d62728; stroke: #d62728"/>
     <use xlink:href="#m4583cdb99b" x="138.423945" y="283.08954" style="fill: #d62728; stroke: #d62728"/>
     <use xlink:href="#m4583cdb99b" x="203.41985" y="295.26463" style="fill: #d62728; stroke: #d62728"/>
     <use xlink:href="#m4583cdb99b" x="268.415755" y="299.734029" style="fill: #d62728; stroke: #d62728"/>
     <use xlink:href="#m4583cdb99b" x="333.41166" y="302.267137" style="fill: #d62728; stroke: #d62728"/>
    </g>
   </g>
   <g id="line2d_32">
    <path d="M 128.0246 327.064 
L 128.0246 60.952 
" clip-path="url(#p3f67cddb55)" style="fill: none; stroke-dasharray: 7.4,3.2; stroke-dashoffset: 0; stroke: #d62728; stroke-width: 2"/>
    <g clip-path="url(#p3f67cddb55)">
     <use xlink:href="#m4583cdb99b" x="128.0246" y="327.064" style="fill: #d62728; stroke: #d62728"/>
     <use xlink:href="#m4583cdb99b" x="128.0246" y="60.952" style="fill: #d62728; stroke: #d62728"/>
    </g>
   </g>
   <g id="line2d_33">
    <path d="M 73.42804 316.828923 
L 76.352855 316.828923 
L 76.59438 -1 
M 77.567243 -1 
L 77.977753 34.43902 
L 78.627712 71.002189 
L 79.277671 97.878733 
L 80.25261 126.936638 
L 81.227548 148.528678 
L 82.527466 169.439222 
L 83.502405 182.826073 
L 85.127303 199.302447 
L 87.07718 213.500929 
L 89.352036 226.568091 
L 90.651955 232.331984 
L 93.57677 241.883362 
L 97.476525 251.42461 
L 98.451463 253.49102 
L 99.101422 254.837387 
L 103.001177 260.800784 
L 104.951054 263.137174 
L 105.601013 264.120549 
L 107.55089 266.091654 
L 108.525828 267.012451 
L 110.150726 268.649446 
L 110.800685 269.257039 
L 113.075542 271.305032 
L 116.325337 273.632468 
L 117.300276 274.221543 
L 118.275214 274.992447 
L 118.925173 275.333886 
L 121.525009 276.887535 
L 122.824928 277.427926 
L 125.424764 278.79819 
L 126.074723 279.074975 
L 134.52419 282.740992 
L 135.17415 282.97572 
L 136.149088 283.227363 
L 138.423945 283.798708 
L 140.048842 284.456666 
L 141.34876 284.84934 
L 142.323699 285.112476 
L 144.923535 286.032798 
L 148.82329 287.097656 
L 153.048023 288.071349 
L 155.64786 288.752596 
L 157.922716 289.098587 
L 159.547614 289.375892 
L 161.822471 289.841995 
L 163.772348 290.218572 
L 168.647041 291.127026 
L 171.571856 291.552939 
L 172.871774 291.696882 
L 174.171693 291.88661 
L 175.471611 292.108918 
L 184.896017 293.192529 
L 186.520914 293.449409 
L 190.745648 293.947526 
L 192.370546 294.155877 
L 194.645403 294.43539 
L 197.895198 294.782544 
L 199.845075 294.96749 
L 204.719768 295.509254 
L 206.019686 295.602266 
L 225.518457 297.2756 
L 226.493396 297.347108 
L 232.992987 297.777021 
L 240.467516 298.280423 
L 247.942045 298.785429 
L 260.291267 299.453661 
L 278.165141 300.263507 
L 280.115018 300.360478 
L 285.31469 300.580725 
L 288.564485 300.645201 
L 293.114199 300.874504 
L 297.988892 301.008891 
L 302.863584 301.216359 
L 317.812643 301.799947 
L 321.062438 301.922196 
L 371.759244 303.330026 
L 384.433445 303.632617 
L 390.283077 303.838718 
L 393.207892 303.904761 
L 398.082585 304.053622 
L 398.082585 304.053622 
" clip-path="url(#p3f67cddb55)" style="fill: none; stroke: #9467bd; stroke-width: 2; stroke-linecap: square"/>
    <defs>
     <path id="ma01ad7b9ba" d="M -0 3 
L 3 -3 
L -3 -3 
z
" style="stroke: #9467bd; stroke-linejoin: miter"/>
    </defs>
    <g clip-path="url(#p3f67cddb55)">
     <use xlink:href="#ma01ad7b9ba" x="73.42804" y="316.828923" style="fill: #9467bd; stroke: #9467bd; stroke-linejoin: miter"/>
     <use xlink:href="#ma01ad7b9ba" x="138.423945" y="283.798708" style="fill: #9467bd; stroke: #9467bd; stroke-linejoin: miter"/>
     <use xlink:href="#ma01ad7b9ba" x="203.41985" y="295.365077" style="fill: #9467bd; stroke: #9467bd; stroke-linejoin: miter"/>
     <use xlink:href="#ma01ad7b9ba" x="268.415755" y="299.83481" style="fill: #9467bd; stroke: #9467bd; stroke-linejoin: miter"/>
     <use xlink:href="#ma01ad7b9ba" x="333.41166" y="302.309999" style="fill: #9467bd; stroke: #9467bd; stroke-linejoin: miter"/>
    </g>
   </g>
   <g id="line2d_34">
    <path d="M 126.074723 327.064 
L 126.074723 60.952 
" clip-path="url(#p3f67cddb55)" style="fill: none; stroke-dasharray: 7.4,3.2; stroke-dashoffset: 0; stroke: #9467bd; stroke-width: 2"/>
    <g clip-path="url(#p3f67cddb55)">
     <use xlink:href="#ma01ad7b9ba" x="126.074723" y="327.064" style="fill: #9467bd; stroke: #9467bd; stroke-linejoin: miter"/>
     <use xlink:href="#ma01ad7b9ba" x="126.074723" y="60.952" style="fill: #9467bd; stroke: #9467bd; stroke-linejoin: miter"/>
    </g>
   </g>
   <g id="line2d_35">
    <path d="M 73.42804 316.828923 
L 76.352855 316.828923 
L 76.592272 -1 
M 77.572916 -1 
L 77.977753 35.685859 
L 78.952692 83.77006 
L 79.92763 116.025169 
L 80.577589 132.930925 
L 81.552528 152.867813 
L 82.527466 168.8873 
L 83.827385 184.926 
L 85.127303 197.568312 
L 86.102241 205.561155 
L 87.07718 212.491938 
L 88.052118 218.287119 
L 89.027057 223.135293 
L 91.951873 234.362884 
L 92.926811 237.497046 
L 93.57677 239.465863 
L 94.226729 241.105639 
L 96.176607 246.320672 
L 97.801504 250.161477 
L 98.451463 251.61703 
L 99.101422 253.031753 
L 100.40134 255.388431 
L 104.626074 261.762672 
L 104.951054 262.050684 
L 105.601013 262.805784 
L 108.525828 266.284506 
L 109.500767 267.136188 
L 110.800685 268.273022 
L 111.450644 268.953816 
L 113.075542 270.270224 
L 114.700439 271.439639 
L 116.000358 272.577461 
L 116.975296 273.096658 
L 118.275214 273.943353 
L 118.600194 274.038919 
L 119.575132 274.750009 
L 120.550071 275.315824 
L 121.20003 275.741664 
L 121.525009 275.809553 
L 122.174969 276.241046 
L 124.124846 277.137298 
L 125.099784 277.645626 
L 126.399702 278.352857 
L 130.299457 280.156078 
L 131.274395 280.472131 
L 134.199211 281.616319 
L 135.824109 282.123681 
L 138.423945 283.1151 
L 139.723863 283.497022 
L 140.698801 283.849812 
L 146.548433 285.678999 
L 149.148269 286.182038 
L 150.773167 286.533578 
L 153.373003 287.159949 
L 156.297819 287.840266 
L 159.547614 288.588195 
L 160.847532 288.863429 
L 163.122389 289.222583 
L 164.422307 289.438488 
L 170.921897 290.401849 
L 172.221815 290.613497 
L 180.996263 291.905804 
L 183.596099 292.149032 
L 187.170874 292.65263 
L 193.345484 293.49791 
L 195.295362 293.743915 
L 201.794952 294.415554 
L 202.769891 294.486978 
L 205.369727 294.777845 
L 209.594461 295.237862 
L 233.642946 297.299529 
L 234.942864 297.367412 
L 247.942045 298.347995 
L 272.965468 299.889983 
L 277.840161 300.099207 
L 309.363175 301.397442 
L 365.259653 303.277955 
L 389.958097 303.831429 
L 394.83279 303.97001 
L 398.082585 304.054404 
L 398.082585 304.054404 
" clip-path="url(#p3f67cddb55)" style="fill: none; stroke: #8c564b; stroke-width: 2; stroke-linecap: square"/>
    <defs>
     <path id="m7f576663e2" d="M -0 4.242641 
L 2.545584 0 
L 0 -4.242641 
L -2.545584 -0 
z
" style="stroke: #8c564b; stroke-linejoin: miter"/>
    </defs>
    <g clip-path="url(#p3f67cddb55)">
     <use xlink:href="#m7f576663e2" x="73.42804" y="316.828923" style="fill: #8c564b; stroke: #8c564b; stroke-linejoin: miter"/>
     <use xlink:href="#m7f576663e2" x="138.423945" y="283.1151" style="fill: #8c564b; stroke: #8c564b; stroke-linejoin: miter"/>
     <use xlink:href="#m7f576663e2" x="203.41985" y="294.584828" style="fill: #8c564b; stroke: #8c564b; stroke-linejoin: miter"/>
     <use xlink:href="#m7f576663e2" x="268.415755" y="299.660574" style="fill: #8c564b; stroke: #8c564b; stroke-linejoin: miter"/>
     <use xlink:href="#m7f576663e2" x="333.41166" y="302.204424" style="fill: #8c564b; stroke: #8c564b; stroke-linejoin: miter"/>
    </g>
   </g>
   <g id="line2d_36">
    <path d="M 128.0246 327.064 
L 128.0246 60.952 
" clip-path="url(#p3f67cddb55)" style="fill: none; stroke-dasharray: 7.4,3.2; stroke-dashoffset: 0; stroke: #8c564b; stroke-width: 2"/>
    <g clip-path="url(#p3f67cddb55)">
     <use xlink:href="#m7f576663e2" x="128.0246" y="327.064" style="fill: #8c564b; stroke: #8c564b; stroke-linejoin: miter"/>
     <use xlink:href="#m7f576663e2" x="128.0246" y="60.952" style="fill: #8c564b; stroke: #8c564b; stroke-linejoin: miter"/>
    </g>
   </g>
   <g id="patch_3">
    <path d="M 57.195313 327.064 
L 57.195313 60.952 
" style="fill: none; stroke: #000000; stroke-width: 0.8; stroke-linejoin: miter; stroke-linecap: square"/>
   </g>
   <g id="patch_4">
    <path d="M 414.315313 327.064 
L 414.315313 60.952 
" style="fill: none; stroke: #000000; stroke-width: 0.8; stroke-linejoin: miter; stroke-linecap: square"/>
   </g>
   <g id="patch_5">
    <path d="M 57.195313 327.064 
L 414.315313 327.064 
" style="fill: none; stroke: #000000; stroke-width: 0.8; stroke-linejoin: miter; stroke-linecap: square"/>
   </g>
   <g id="patch_6">
    <path d="M 57.195313 60.952 
L 414.315313 60.952 
" style="fill: none; stroke: #000000; stroke-width: 0.8; stroke-linejoin: miter; stroke-linecap: square"/>
   </g>
   <g id="axes_2">
    <g id="patch_7">
     <path d="M 208.971313 220.6192 
L 405.387313 220.6192 
L 405.387313 74.2576 
L 208.971313 74.2576 
z
" style="fill: #ffffff"/>
    </g>
    <g id="matplotlib.axis_3">
     <g id="xtick_7">
      <g id="line2d_37">
       <path d="M 208.971313 220.6192 
L 208.971313 74.2576 
" clip-path="url(#p71b6fb9de0)" style="fill: none; stroke: #b0b0b0; stroke-width: 0.8; stroke-linecap: square"/>
      </g>
      <g id="line2d_38">
       <defs>
        <path id="mf4c94b12cd" d="M 0 0 
L 0 3.5 
" style="stroke: #000000; stroke-width: 2"/>
       </defs>
       <g>
        <use xlink:href="#mf4c94b12cd" x="208.971313" y="220.6192" style="stroke: #000000; stroke-width: 2"/>
       </g>
      </g>
      <g id="text_13">
       <!-- 160 -->
       <g transform="translate(195.610063 238.257013) scale(0.14 -0.14)">
        <use xlink:href="#DejaVuSans-31"/>
        <use xlink:href="#DejaVuSans-36" x="63.623047"/>
        <use xlink:href="#DejaVuSans-30" x="127.246094"/>
       </g>
      </g>
     </g>
     <g id="xtick_8">
      <g id="line2d_39">
       <path d="M 279.119884 220.6192 
L 279.119884 74.2576 
" clip-path="url(#p71b6fb9de0)" style="fill: none; stroke: #b0b0b0; stroke-width: 0.8; stroke-linecap: square"/>
      </g>
      <g id="line2d_40">
       <g>
        <use xlink:href="#mf4c94b12cd" x="279.119884" y="220.6192" style="stroke: #000000; stroke-width: 2"/>
       </g>
      </g>
      <g id="text_14">
       <!-- 165 -->
       <g transform="translate(265.758634 238.257013) scale(0.14 -0.14)">
        <use xlink:href="#DejaVuSans-31"/>
        <use xlink:href="#DejaVuSans-36" x="63.623047"/>
        <use xlink:href="#DejaVuSans-35" x="127.246094"/>
       </g>
      </g>
     </g>
     <g id="xtick_9">
      <g id="line2d_41">
       <path d="M 349.268455 220.6192 
L 349.268455 74.2576 
" clip-path="url(#p71b6fb9de0)" style="fill: none; stroke: #b0b0b0; stroke-width: 0.8; stroke-linecap: square"/>
      </g>
      <g id="line2d_42">
       <g>
        <use xlink:href="#mf4c94b12cd" x="349.268455" y="220.6192" style="stroke: #000000; stroke-width: 2"/>
       </g>
      </g>
      <g id="text_15">
       <!-- 170 -->
       <g transform="translate(335.907205 238.257013) scale(0.14 -0.14)">
        <defs>
         <path id="DejaVuSans-37" d="M 525 4666 
L 3525 4666 
L 3525 4397 
L 1831 0 
L 1172 0 
L 2766 4134 
L 525 4134 
L 525 4666 
z
" transform="scale(0.015625)"/>
        </defs>
        <use xlink:href="#DejaVuSans-31"/>
        <use xlink:href="#DejaVuSans-37" x="63.623047"/>
        <use xlink:href="#DejaVuSans-30" x="127.246094"/>
       </g>
      </g>
     </g>
    </g>
    <g id="matplotlib.axis_4">
     <g id="ytick_7">
      <g id="line2d_43">
       <path d="M 208.971313 192.614717 
L 405.387313 192.614717 
" clip-path="url(#p71b6fb9de0)" style="fill: none; stroke: #b0b0b0; stroke-width: 0.8; stroke-linecap: square"/>
      </g>
      <g id="line2d_44">
       <defs>
        <path id="m53046afad9" d="M 0 0 
L -3.5 0 
" style="stroke: #000000; stroke-width: 2"/>
       </defs>
       <g>
        <use xlink:href="#m53046afad9" x="208.971313" y="192.614717" style="stroke: #000000; stroke-width: 2"/>
       </g>
      </g>
      <g id="text_16">
       <!-- 0.036 -->
       <g transform="translate(161.891938 197.933623) scale(0.14 -0.14)">
        <defs>
         <path id="DejaVuSans-33" d="M 2597 2516 
Q 3050 2419 3304 2112 
Q 3559 1806 3559 1356 
Q 3559 666 3084 287 
Q 2609 -91 1734 -91 
Q 1441 -91 1130 -33 
Q 819 25 488 141 
L 488 750 
Q 750 597 1062 519 
Q 1375 441 1716 441 
Q 2309 441 2620 675 
Q 2931 909 2931 1356 
Q 2931 1769 2642 2001 
Q 2353 2234 1838 2234 
L 1294 2234 
L 1294 2753 
L 1863 2753 
Q 2328 2753 2575 2939 
Q 2822 3125 2822 3475 
Q 2822 3834 2567 4026 
Q 2313 4219 1838 4219 
Q 1578 4219 1281 4162 
Q 984 4106 628 3988 
L 628 4550 
Q 988 4650 1302 4700 
Q 1616 4750 1894 4750 
Q 2613 4750 3031 4423 
Q 3450 4097 3450 3541 
Q 3450 3153 3228 2886 
Q 3006 2619 2597 2516 
z
" transform="scale(0.015625)"/>
        </defs>
        <use xlink:href="#DejaVuSans-30"/>
        <use xlink:href="#DejaVuSans-2e" x="63.623047"/>
        <use xlink:href="#DejaVuSans-30" x="95.410156"/>
        <use xlink:href="#DejaVuSans-33" x="159.033203"/>
        <use xlink:href="#DejaVuSans-36" x="222.65625"/>
       </g>
      </g>
     </g>
     <g id="ytick_8">
      <g id="line2d_45">
       <path d="M 208.971313 137.28646 
L 405.387313 137.28646 
" clip-path="url(#p71b6fb9de0)" style="fill: none; stroke: #b0b0b0; stroke-width: 0.8; stroke-linecap: square"/>
      </g>
      <g id="line2d_46">
       <g>
        <use xlink:href="#m53046afad9" x="208.971313" y="137.28646" style="stroke: #000000; stroke-width: 2"/>
       </g>
      </g>
      <g id="text_17">
       <!-- 0.037 -->
       <g transform="translate(161.891938 142.605367) scale(0.14 -0.14)">
        <use xlink:href="#DejaVuSans-30"/>
        <use xlink:href="#DejaVuSans-2e" x="63.623047"/>
        <use xlink:href="#DejaVuSans-30" x="95.410156"/>
        <use xlink:href="#DejaVuSans-33" x="159.033203"/>
        <use xlink:href="#DejaVuSans-37" x="222.65625"/>
       </g>
      </g>
     </g>
     <g id="ytick_9">
      <g id="line2d_47">
       <path d="M 208.971313 81.958204 
L 405.387313 81.958204 
" clip-path="url(#p71b6fb9de0)" style="fill: none; stroke: #b0b0b0; stroke-width: 0.8; stroke-linecap: square"/>
      </g>
      <g id="line2d_48">
       <g>
        <use xlink:href="#m53046afad9" x="208.971313" y="81.958204" style="stroke: #000000; stroke-width: 2"/>
       </g>
      </g>
      <g id="text_18">
       <!-- 0.038 -->
       <g transform="translate(161.891938 87.27711) scale(0.14 -0.14)">
        <use xlink:href="#DejaVuSans-30"/>
        <use xlink:href="#DejaVuSans-2e" x="63.623047"/>
        <use xlink:href="#DejaVuSans-30" x="95.410156"/>
        <use xlink:href="#DejaVuSans-33" x="159.033203"/>
        <use xlink:href="#DejaVuSans-38" x="222.65625"/>
       </g>
      </g>
     </g>
    </g>
    <g id="line2d_49">
     <path d="M 0 0 
" clip-path="url(#p71b6fb9de0)" style="fill: none; stroke: #1f77b4; stroke-width: 1.5; stroke-linecap: square"/>
    </g>
    <g id="line2d_50">
     <path clip-path="url(#p71b6fb9de0)" style="fill: none; stroke-dasharray: 5.55,2.4; stroke-dashoffset: 0; stroke: #1f77b4; stroke-width: 1.5"/>
    </g>
    <g id="line2d_51">
     <path d="M 104.472117 -1 
L 110.763313 2.370534 
L 124.793027 14.901073 
L 138.822741 22.21822 
L 152.852455 27.225281 
L 166.88217 37.283325 
L 180.911884 43.973006 
L 194.941598 50.068597 
L 208.971313 59.855329 
L 223.001027 67.803847 
L 237.030741 73.396447 
L 251.060455 78.529277 
L 265.09017 82.420333 
L 279.119884 92.890149 
L 293.149598 100.224756 
L 307.179313 108.830782 
L 321.209027 115.53192 
L 335.238741 124.216646 
L 349.268455 131.31765 
L 363.29817 142.572541 
L 377.327884 151.458879 
L 391.357598 163.268612 
L 405.387313 170.922012 
L 419.417027 177.424903 
L 433.446741 183.721553 
L 447.476455 193.431233 
L 460.990625 202.196142 
L 460.990625 202.196142 
" clip-path="url(#p71b6fb9de0)" style="fill: none; stroke: #ff7f0e; stroke-width: 1.5; stroke-linecap: square"/>
    </g>
    <g id="line2d_52">
     <path d="M 377.327884 220.6192 
L 377.327884 74.2576 
" clip-path="url(#p71b6fb9de0)" style="fill: none; stroke-dasharray: 5.55,2.4; stroke-dashoffset: 0; stroke: #ff7f0e; stroke-width: 1.5"/>
    </g>
    <g id="line2d_53">
     <path d="M 15.051563 -1 
L 26.585027 5.014116 
L 40.614741 14.404517 
L 54.644455 26.569025 
L 68.67417 35.26929 
L 82.703884 45.365735 
L 96.733598 56.963911 
L 110.763313 65.690297 
L 124.793027 73.994768 
L 138.822741 80.023197 
L 152.852455 88.910922 
L 166.88217 95.47732 
L 180.911884 103.215992 
L 194.941598 109.978267 
L 223.001027 127.234194 
L 237.030741 135.216865 
L 251.060455 144.165648 
L 265.09017 148.747555 
L 279.119884 156.900578 
L 293.149598 166.867064 
L 307.179313 170.167471 
L 321.209027 177.779418 
L 335.238741 184.354023 
L 349.268455 192.918146 
L 363.29817 203.092267 
L 377.327884 208.694664 
L 391.357598 213.612615 
L 405.387313 218.999769 
L 419.417027 222.743 
L 433.446741 231.961944 
L 447.476455 239.24892 
L 460.990625 248.236115 
L 460.990625 248.236115 
" clip-path="url(#p71b6fb9de0)" style="fill: none; stroke: #2ca02c; stroke-width: 1.5; stroke-linecap: square"/>
    </g>
    <g id="line2d_54">
     <path d="M 251.060455 220.6192 
L 251.060455 74.2576 
" clip-path="url(#p71b6fb9de0)" style="fill: none; stroke-dasharray: 5.55,2.4; stroke-dashoffset: 0; stroke: #2ca02c; stroke-width: 1.5"/>
    </g>
    <g id="line2d_55">
     <path d="M 96.016347 -1 
L 96.733598 -0.453402 
L 110.763313 11.234949 
L 124.793027 19.234837 
L 138.822741 28.854592 
L 152.852455 39.917665 
L 166.88217 45.765924 
L 180.911884 53.629069 
L 194.941598 62.190523 
L 208.971313 75.254414 
L 223.001027 83.93945 
L 237.030741 92.086127 
L 251.060455 101.947236 
L 265.09017 110.527914 
L 279.119884 119.841435 
L 293.149598 127.704941 
L 307.179313 135.890418 
L 321.209027 145.747906 
L 335.238741 150.362365 
L 349.268455 164.146827 
L 363.29817 173.941199 
L 377.327884 184.314376 
L 391.357598 189.919893 
L 405.387313 199.845433 
L 419.417027 207.800681 
L 433.446741 211.967278 
L 447.476455 220.234486 
L 460.990625 224.624174 
L 460.990625 224.624174 
" clip-path="url(#p71b6fb9de0)" style="fill: none; stroke: #d62728; stroke-width: 1.5; stroke-linecap: square"/>
    </g>
    <g id="line2d_56">
     <path d="M 321.209027 220.6192 
L 321.209027 74.2576 
" clip-path="url(#p71b6fb9de0)" style="fill: none; stroke-dasharray: 5.55,2.4; stroke-dashoffset: 0; stroke: #d62728; stroke-width: 1.5"/>
    </g>
    <g id="line2d_57">
     <path d="M 6.302609 -1 
L 12.555313 3.659679 
L 26.585027 14.944593 
L 40.614741 25.300769 
L 54.644455 31.148616 
L 68.67417 40.693921 
L 82.703884 48.440961 
L 96.733598 54.512951 
L 110.763313 64.181212 
L 124.793027 70.312378 
L 138.822741 78.904781 
L 152.852455 89.792906 
L 166.88217 101.844706 
L 180.911884 108.252534 
L 194.941598 117.532772 
L 208.971313 128.585995 
L 223.001027 133.885433 
L 237.030741 143.54832 
L 251.060455 151.407363 
L 265.09017 159.449053 
L 279.119884 167.96719 
L 293.149598 174.458035 
L 307.179313 186.392034 
L 321.209027 193.105434 
L 335.238741 202.024135 
L 349.268455 208.20695 
L 363.29817 214.686698 
L 377.327884 223.101107 
L 391.357598 230.185998 
L 405.387313 240.256958 
L 419.417027 247.145289 
L 433.446741 254.844169 
L 447.476455 263.242074 
L 460.990625 270.371549 
L 460.990625 270.371549 
" clip-path="url(#p71b6fb9de0)" style="fill: none; stroke: #9467bd; stroke-width: 1.5; stroke-linecap: square"/>
    </g>
    <g id="line2d_58">
     <path d="M 237.030741 220.6192 
L 237.030741 74.2576 
" clip-path="url(#p71b6fb9de0)" style="fill: none; stroke-dasharray: 5.55,2.4; stroke-dashoffset: 0; stroke: #9467bd; stroke-width: 1.5"/>
    </g>
    <g id="line2d_59">
     <path d="M 84.780808 -1 
L 96.733598 7.949156 
L 110.763313 16.049644 
L 124.793027 23.027948 
L 138.822741 32.071351 
L 152.852455 38.802325 
L 180.911884 54.123602 
L 194.941598 66.281292 
L 208.971313 77.197189 
L 223.001027 87.107123 
L 237.030741 94.89053 
L 251.060455 104.51238 
L 265.09017 113.156158 
L 279.119884 120.243019 
L 293.149598 130.798008 
L 307.179313 136.968595 
L 321.209027 144.638164 
L 335.238741 151.870725 
L 349.268455 163.443651 
L 363.29817 169.719306 
L 377.327884 179.059769 
L 391.357598 188.204365 
L 405.387313 194.832537 
L 419.417027 201.990002 
L 433.446741 206.248908 
L 447.476455 213.715655 
L 460.990625 218.878125 
L 460.990625 218.878125 
" clip-path="url(#p71b6fb9de0)" style="fill: none; stroke: #8c564b; stroke-width: 1.5; stroke-linecap: square"/>
    </g>
    <g id="line2d_60">
     <path d="M 321.209027 220.6192 
L 321.209027 74.2576 
" clip-path="url(#p71b6fb9de0)" style="fill: none; stroke-dasharray: 5.55,2.4; stroke-dashoffset: 0; stroke: #8c564b; stroke-width: 1.5"/>
    </g>
    <g id="patch_8">
     <path d="M 208.971313 220.6192 
L 208.971313 74.2576 
" style="fill: none; stroke: #000000; stroke-width: 2; stroke-linejoin: miter; stroke-linecap: square"/>
    </g>
    <g id="patch_9">
     <path d="M 405.387313 220.6192 
L 405.387313 74.2576 
" style="fill: none; stroke: #000000; stroke-width: 2; stroke-linejoin: miter; stroke-linecap: square"/>
    </g>
    <g id="patch_10">
     <path d="M 208.971313 220.6192 
L 405.387313 220.6192 
" style="fill: none; stroke: #000000; stroke-width: 2; stroke-linejoin: miter; stroke-linecap: square"/>
    </g>
    <g id="patch_11">
     <path d="M 208.971313 74.2576 
L 405.387313 74.2576 
" style="fill: none; stroke: #000000; stroke-width: 2; stroke-linejoin: miter; stroke-linecap: square"/>
    </g>
   </g>
   <g id="legend_1">
    <g id="patch_12">
     <path d="M 9.2 39.579687 
L 450.790625 39.579687 
Q 452.790625 39.579687 452.790625 37.579687 
L 452.790625 9.2 
Q 452.790625 7.2 450.790625 7.2 
L 9.2 7.2 
Q 7.2 7.2 7.2 9.2 
L 7.2 37.579687 
Q 7.2 39.579687 9.2 39.579687 
z
" style="fill: #ffffff; opacity: 0.8; stroke: #cccccc; stroke-linejoin: miter"/>
    </g>
    <g id="line2d_61">
     <path d="M 11.2 15.3 
L 21.2 15.3 
L 31.2 15.3 
" style="fill: none; stroke: #1f77b4; stroke-width: 2; stroke-linecap: square"/>
     <g>
      <use xlink:href="#mf7b06c66aa" x="21.2" y="15.3" style="fill: #1f77b4; stroke: #1f77b4"/>
     </g>
    </g>
    <g id="text_19">
     <!-- $\kappa$ = 0.02 -->
     <g transform="translate(39.2 18.8) scale(0.1 -0.1)">
      <defs>
       <path id="DejaVuSans-Oblique-3ba" d="M 938 3500 
L 1531 3500 
L 1247 2047 
L 3041 3500 
L 3741 3500 
L 2106 2181 
L 3275 0 
L 2572 0 
L 1628 1806 
L 1122 1403 
L 850 0 
L 256 0 
L 938 3500 
z
" transform="scale(0.015625)"/>
       <path id="DejaVuSans-20" transform="scale(0.015625)"/>
       <path id="DejaVuSans-3d" d="M 678 2906 
L 4684 2906 
L 4684 2381 
L 678 2381 
L 678 2906 
z
M 678 1631 
L 4684 1631 
L 4684 1100 
L 678 1100 
L 678 1631 
z
" transform="scale(0.015625)"/>
      </defs>
      <use xlink:href="#DejaVuSans-Oblique-3ba" transform="translate(0 0.78125)"/>
      <use xlink:href="#DejaVuSans-20" transform="translate(58.935547 0.78125)"/>
      <use xlink:href="#DejaVuSans-3d" transform="translate(90.722656 0.78125)"/>
      <use xlink:href="#DejaVuSans-20" transform="translate(174.511719 0.78125)"/>
      <use xlink:href="#DejaVuSans-30" transform="translate(206.298828 0.78125)"/>
      <use xlink:href="#DejaVuSans-2e" transform="translate(269.921875 0.78125)"/>
      <use xlink:href="#DejaVuSans-30" transform="translate(301.708984 0.78125)"/>
      <use xlink:href="#DejaVuSans-32" transform="translate(365.332031 0.78125)"/>
     </g>
    </g>
    <g id="line2d_62">
     <path d="M 11.2 29.979687 
L 21.2 29.979687 
L 31.2 29.979687 
" style="fill: none; stroke: #ff7f0e; stroke-width: 2; stroke-linecap: square"/>
     <g>
      <use xlink:href="#mc8628b184d" x="21.2" y="29.979687" style="fill: #ff7f0e; stroke: #ff7f0e; stroke-linejoin: miter"/>
     </g>
    </g>
    <g id="text_20">
     <!-- Constant-edge ($\alpha$ = 0.500) -->
     <g transform="translate(39.2 33.479687) scale(0.1 -0.1)">
      <defs>
       <path id="DejaVuSans-43" d="M 4122 4306 
L 4122 3641 
Q 3803 3938 3442 4084 
Q 3081 4231 2675 4231 
Q 1875 4231 1450 3742 
Q 1025 3253 1025 2328 
Q 1025 1406 1450 917 
Q 1875 428 2675 428 
Q 3081 428 3442 575 
Q 3803 722 4122 1019 
L 4122 359 
Q 3791 134 3420 21 
Q 3050 -91 2638 -91 
Q 1578 -91 968 557 
Q 359 1206 359 2328 
Q 359 3453 968 4101 
Q 1578 4750 2638 4750 
Q 3056 4750 3426 4639 
Q 3797 4528 4122 4306 
z
" transform="scale(0.015625)"/>
       <path id="DejaVuSans-6f" d="M 1959 3097 
Q 1497 3097 1228 2736 
Q 959 2375 959 1747 
Q 959 1119 1226 758 
Q 1494 397 1959 397 
Q 2419 397 2687 759 
Q 2956 1122 2956 1747 
Q 2956 2369 2687 2733 
Q 2419 3097 1959 3097 
z
M 1959 3584 
Q 2709 3584 3137 3096 
Q 3566 2609 3566 1747 
Q 3566 888 3137 398 
Q 2709 -91 1959 -91 
Q 1206 -91 779 398 
Q 353 888 353 1747 
Q 353 2609 779 3096 
Q 1206 3584 1959 3584 
z
" transform="scale(0.015625)"/>
       <path id="DejaVuSans-6e" d="M 3513 2113 
L 3513 0 
L 2938 0 
L 2938 2094 
Q 2938 2591 2744 2837 
Q 2550 3084 2163 3084 
Q 1697 3084 1428 2787 
Q 1159 2491 1159 1978 
L 1159 0 
L 581 0 
L 581 3500 
L 1159 3500 
L 1159 2956 
Q 1366 3272 1645 3428 
Q 1925 3584 2291 3584 
Q 2894 3584 3203 3211 
Q 3513 2838 3513 2113 
z
" transform="scale(0.015625)"/>
       <path id="DejaVuSans-73" d="M 2834 3397 
L 2834 2853 
Q 2591 2978 2328 3040 
Q 2066 3103 1784 3103 
Q 1356 3103 1142 2972 
Q 928 2841 928 2578 
Q 928 2378 1081 2264 
Q 1234 2150 1697 2047 
L 1894 2003 
Q 2506 1872 2764 1633 
Q 3022 1394 3022 966 
Q 3022 478 2636 193 
Q 2250 -91 1575 -91 
Q 1294 -91 989 -36 
Q 684 19 347 128 
L 347 722 
Q 666 556 975 473 
Q 1284 391 1588 391 
Q 1994 391 2212 530 
Q 2431 669 2431 922 
Q 2431 1156 2273 1281 
Q 2116 1406 1581 1522 
L 1381 1569 
Q 847 1681 609 1914 
Q 372 2147 372 2553 
Q 372 3047 722 3315 
Q 1072 3584 1716 3584 
Q 2034 3584 2315 3537 
Q 2597 3491 2834 3397 
z
" transform="scale(0.015625)"/>
       <path id="DejaVuSans-74" d="M 1172 4494 
L 1172 3500 
L 2356 3500 
L 2356 3053 
L 1172 3053 
L 1172 1153 
Q 1172 725 1289 603 
Q 1406 481 1766 481 
L 2356 481 
L 2356 0 
L 1766 0 
Q 1100 0 847 248 
Q 594 497 594 1153 
L 594 3053 
L 172 3053 
L 172 3500 
L 594 3500 
L 594 4494 
L 1172 4494 
z
" transform="scale(0.015625)"/>
       <path id="DejaVuSans-61" d="M 2194 1759 
Q 1497 1759 1228 1600 
Q 959 1441 959 1056 
Q 959 750 1161 570 
Q 1363 391 1709 391 
Q 2188 391 2477 730 
Q 2766 1069 2766 1631 
L 2766 1759 
L 2194 1759 
z
M 3341 1997 
L 3341 0 
L 2766 0 
L 2766 531 
Q 2569 213 2275 61 
Q 1981 -91 1556 -91 
Q 1019 -91 701 211 
Q 384 513 384 1019 
Q 384 1609 779 1909 
Q 1175 2209 1959 2209 
L 2766 2209 
L 2766 2266 
Q 2766 2663 2505 2880 
Q 2244 3097 1772 3097 
Q 1472 3097 1187 3025 
Q 903 2953 641 2809 
L 641 3341 
Q 956 3463 1253 3523 
Q 1550 3584 1831 3584 
Q 2591 3584 2966 3190 
Q 3341 2797 3341 1997 
z
" transform="scale(0.015625)"/>
       <path id="DejaVuSans-2d" d="M 313 2009 
L 1997 2009 
L 1997 1497 
L 313 1497 
L 313 2009 
z
" transform="scale(0.015625)"/>
       <path id="DejaVuSans-65" d="M 3597 1894 
L 3597 1613 
L 953 1613 
Q 991 1019 1311 708 
Q 1631 397 2203 397 
Q 2534 397 2845 478 
Q 3156 559 3463 722 
L 3463 178 
Q 3153 47 2828 -22 
Q 2503 -91 2169 -91 
Q 1331 -91 842 396 
Q 353 884 353 1716 
Q 353 2575 817 3079 
Q 1281 3584 2069 3584 
Q 2775 3584 3186 3129 
Q 3597 2675 3597 1894 
z
M 3022 2063 
Q 3016 2534 2758 2815 
Q 2500 3097 2075 3097 
Q 1594 3097 1305 2825 
Q 1016 2553 972 2059 
L 3022 2063 
z
" transform="scale(0.015625)"/>
       <path id="DejaVuSans-64" d="M 2906 2969 
L 2906 4863 
L 3481 4863 
L 3481 0 
L 2906 0 
L 2906 525 
Q 2725 213 2448 61 
Q 2172 -91 1784 -91 
Q 1150 -91 751 415 
Q 353 922 353 1747 
Q 353 2572 751 3078 
Q 1150 3584 1784 3584 
Q 2172 3584 2448 3432 
Q 2725 3281 2906 2969 
z
M 947 1747 
Q 947 1113 1208 752 
Q 1469 391 1925 391 
Q 2381 391 2643 752 
Q 2906 1113 2906 1747 
Q 2906 2381 2643 2742 
Q 2381 3103 1925 3103 
Q 1469 3103 1208 2742 
Q 947 2381 947 1747 
z
" transform="scale(0.015625)"/>
       <path id="DejaVuSans-67" d="M 2906 1791 
Q 2906 2416 2648 2759 
Q 2391 3103 1925 3103 
Q 1463 3103 1205 2759 
Q 947 2416 947 1791 
Q 947 1169 1205 825 
Q 1463 481 1925 481 
Q 2391 481 2648 825 
Q 2906 1169 2906 1791 
z
M 3481 434 
Q 3481 -459 3084 -895 
Q 2688 -1331 1869 -1331 
Q 1566 -1331 1297 -1286 
Q 1028 -1241 775 -1147 
L 775 -588 
Q 1028 -725 1275 -790 
Q 1522 -856 1778 -856 
Q 2344 -856 2625 -561 
Q 2906 -266 2906 331 
L 2906 616 
Q 2728 306 2450 153 
Q 2172 0 1784 0 
Q 1141 0 747 490 
Q 353 981 353 1791 
Q 353 2603 747 3093 
Q 1141 3584 1784 3584 
Q 2172 3584 2450 3431 
Q 2728 3278 2906 2969 
L 2906 3500 
L 3481 3500 
L 3481 434 
z
" transform="scale(0.015625)"/>
       <path id="DejaVuSans-28" d="M 1984 4856 
Q 1566 4138 1362 3434 
Q 1159 2731 1159 2009 
Q 1159 1288 1364 580 
Q 1569 -128 1984 -844 
L 1484 -844 
Q 1016 -109 783 600 
Q 550 1309 550 2009 
Q 550 2706 781 3412 
Q 1013 4119 1484 4856 
L 1984 4856 
z
" transform="scale(0.015625)"/>
       <path id="DejaVuSans-Oblique-3b1" d="M 2619 1628 
L 2622 2350 
Q 2625 3088 2069 3091 
Q 1653 3094 1394 2747 
Q 1069 2319 959 1747 
Q 825 1059 994 731 
Q 1169 397 1547 397 
Q 1966 397 2319 1063 
L 2619 1628 
z
M 2166 3578 
Q 3141 3594 3128 2584 
Q 3128 2584 3616 3500 
L 4128 3500 
L 3119 1603 
L 3109 919 
Q 3109 766 3194 638 
Q 3291 488 3391 488 
L 3669 488 
L 3575 0 
L 3228 0 
Q 2934 0 2722 263 
Q 2622 394 2619 669 
Q 2416 334 2066 50 
Q 1900 -81 1453 -78 
Q 722 -72 456 397 
Q 184 884 353 1747 
Q 534 2675 1009 3097 
Q 1544 3569 2166 3578 
z
" transform="scale(0.015625)"/>
       <path id="DejaVuSans-29" d="M 513 4856 
L 1013 4856 
Q 1481 4119 1714 3412 
Q 1947 2706 1947 2009 
Q 1947 1309 1714 600 
Q 1481 -109 1013 -844 
L 513 -844 
Q 928 -128 1133 580 
Q 1338 1288 1338 2009 
Q 1338 2731 1133 3434 
Q 928 4138 513 4856 
z
" transform="scale(0.015625)"/>
      </defs>
      <use xlink:href="#DejaVuSans-43" transform="translate(0 0.015625)"/>
      <use xlink:href="#DejaVuSans-6f" transform="translate(69.824219 0.015625)"/>
      <use xlink:href="#DejaVuSans-6e" transform="translate(131.005859 0.015625)"/>
      <use xlink:href="#DejaVuSans-73" transform="translate(194.384766 0.015625)"/>
      <use xlink:href="#DejaVuSans-74" transform="translate(246.484375 0.015625)"/>
      <use xlink:href="#DejaVuSans-61" transform="translate(285.693359 0.015625)"/>
      <use xlink:href="#DejaVuSans-6e" transform="translate(346.972656 0.015625)"/>
      <use xlink:href="#DejaVuSans-74" transform="translate(410.351562 0.015625)"/>
      <use xlink:href="#DejaVuSans-2d" transform="translate(449.560547 0.015625)"/>
      <use xlink:href="#DejaVuSans-65" transform="translate(485.644531 0.015625)"/>
      <use xlink:href="#DejaVuSans-64" transform="translate(547.167969 0.015625)"/>
      <use xlink:href="#DejaVuSans-67" transform="translate(610.644531 0.015625)"/>
      <use xlink:href="#DejaVuSans-65" transform="translate(674.121094 0.015625)"/>
      <use xlink:href="#DejaVuSans-20" transform="translate(735.644531 0.015625)"/>
      <use xlink:href="#DejaVuSans-28" transform="translate(767.431641 0.015625)"/>
      <use xlink:href="#DejaVuSans-Oblique-3b1" transform="translate(806.445312 0.015625)"/>
      <use xlink:href="#DejaVuSans-20" transform="translate(872.363281 0.015625)"/>
      <use xlink:href="#DejaVuSans-3d" transform="translate(904.150391 0.015625)"/>
      <use xlink:href="#DejaVuSans-20" transform="translate(987.939453 0.015625)"/>
      <use xlink:href="#DejaVuSans-30" transform="translate(1019.726562 0.015625)"/>
      <use xlink:href="#DejaVuSans-2e" transform="translate(1083.349609 0.015625)"/>
      <use xlink:href="#DejaVuSans-35" transform="translate(1115.136719 0.015625)"/>
      <use xlink:href="#DejaVuSans-30" transform="translate(1178.759766 0.015625)"/>
      <use xlink:href="#DejaVuSans-30" transform="translate(1242.382812 0.015625)"/>
      <use xlink:href="#DejaVuSans-29" transform="translate(1306.005859 0.015625)"/>
     </g>
    </g>
    <g id="line2d_63">
     <path d="M 193.8 15.3 
L 203.8 15.3 
L 213.8 15.3 
" style="fill: none; stroke: #2ca02c; stroke-width: 2; stroke-linecap: square"/>
     <g>
      <use xlink:href="#mbec2415bbe" x="203.8" y="15.3" style="fill: #2ca02c; stroke: #2ca02c; stroke-linejoin: miter"/>
     </g>
    </g>
    <g id="text_21">
     <!-- Maximum-degree ($\alpha$ = 0.500) -->
     <g transform="translate(221.8 18.8) scale(0.1 -0.1)">
      <defs>
       <path id="DejaVuSans-4d" d="M 628 4666 
L 1569 4666 
L 2759 1491 
L 3956 4666 
L 4897 4666 
L 4897 0 
L 4281 0 
L 4281 4097 
L 3078 897 
L 2444 897 
L 1241 4097 
L 1241 0 
L 628 0 
L 628 4666 
z
" transform="scale(0.015625)"/>
       <path id="DejaVuSans-78" d="M 3513 3500 
L 2247 1797 
L 3578 0 
L 2900 0 
L 1881 1375 
L 863 0 
L 184 0 
L 1544 1831 
L 300 3500 
L 978 3500 
L 1906 2253 
L 2834 3500 
L 3513 3500 
z
" transform="scale(0.015625)"/>
       <path id="DejaVuSans-69" d="M 603 3500 
L 1178 3500 
L 1178 0 
L 603 0 
L 603 3500 
z
M 603 4863 
L 1178 4863 
L 1178 4134 
L 603 4134 
L 603 4863 
z
" transform="scale(0.015625)"/>
       <path id="DejaVuSans-6d" d="M 3328 2828 
Q 3544 3216 3844 3400 
Q 4144 3584 4550 3584 
Q 5097 3584 5394 3201 
Q 5691 2819 5691 2113 
L 5691 0 
L 5113 0 
L 5113 2094 
Q 5113 2597 4934 2840 
Q 4756 3084 4391 3084 
Q 3944 3084 3684 2787 
Q 3425 2491 3425 1978 
L 3425 0 
L 2847 0 
L 2847 2094 
Q 2847 2600 2669 2842 
Q 2491 3084 2119 3084 
Q 1678 3084 1418 2786 
Q 1159 2488 1159 1978 
L 1159 0 
L 581 0 
L 581 3500 
L 1159 3500 
L 1159 2956 
Q 1356 3278 1631 3431 
Q 1906 3584 2284 3584 
Q 2666 3584 2933 3390 
Q 3200 3197 3328 2828 
z
" transform="scale(0.015625)"/>
       <path id="DejaVuSans-75" d="M 544 1381 
L 544 3500 
L 1119 3500 
L 1119 1403 
Q 1119 906 1312 657 
Q 1506 409 1894 409 
Q 2359 409 2629 706 
Q 2900 1003 2900 1516 
L 2900 3500 
L 3475 3500 
L 3475 0 
L 2900 0 
L 2900 538 
Q 2691 219 2414 64 
Q 2138 -91 1772 -91 
Q 1169 -91 856 284 
Q 544 659 544 1381 
z
M 1991 3584 
L 1991 3584 
z
" transform="scale(0.015625)"/>
       <path id="DejaVuSans-72" d="M 2631 2963 
Q 2534 3019 2420 3045 
Q 2306 3072 2169 3072 
Q 1681 3072 1420 2755 
Q 1159 2438 1159 1844 
L 1159 0 
L 581 0 
L 581 3500 
L 1159 3500 
L 1159 2956 
Q 1341 3275 1631 3429 
Q 1922 3584 2338 3584 
Q 2397 3584 2469 3576 
Q 2541 3569 2628 3553 
L 2631 2963 
z
" transform="scale(0.015625)"/>
      </defs>
      <use xlink:href="#DejaVuSans-4d" transform="translate(0 0.015625)"/>
      <use xlink:href="#DejaVuSans-61" transform="translate(86.279297 0.015625)"/>
      <use xlink:href="#DejaVuSans-78" transform="translate(147.558594 0.015625)"/>
      <use xlink:href="#DejaVuSans-69" transform="translate(206.738281 0.015625)"/>
      <use xlink:href="#DejaVuSans-6d" transform="translate(234.521484 0.015625)"/>
      <use xlink:href="#DejaVuSans-75" transform="translate(331.933594 0.015625)"/>
      <use xlink:href="#DejaVuSans-6d" transform="translate(395.3125 0.015625)"/>
      <use xlink:href="#DejaVuSans-2d" transform="translate(490.974609 0.015625)"/>
      <use xlink:href="#DejaVuSans-64" transform="translate(527.058594 0.015625)"/>
      <use xlink:href="#DejaVuSans-65" transform="translate(590.535156 0.015625)"/>
      <use xlink:href="#DejaVuSans-67" transform="translate(652.058594 0.015625)"/>
      <use xlink:href="#DejaVuSans-72" transform="translate(715.535156 0.015625)"/>
      <use xlink:href="#DejaVuSans-65" transform="translate(756.648438 0.015625)"/>
      <use xlink:href="#DejaVuSans-65" transform="translate(818.171875 0.015625)"/>
      <use xlink:href="#DejaVuSans-20" transform="translate(879.695312 0.015625)"/>
      <use xlink:href="#DejaVuSans-28" transform="translate(911.482422 0.015625)"/>
      <use xlink:href="#DejaVuSans-Oblique-3b1" transform="translate(950.496094 0.015625)"/>
      <use xlink:href="#DejaVuSans-20" transform="translate(1016.414062 0.015625)"/>
      <use xlink:href="#DejaVuSans-3d" transform="translate(1048.201172 0.015625)"/>
      <use xlink:href="#DejaVuSans-20" transform="translate(1131.990234 0.015625)"/>
      <use xlink:href="#DejaVuSans-30" transform="translate(1163.777344 0.015625)"/>
      <use xlink:href="#DejaVuSans-2e" transform="translate(1227.400391 0.015625)"/>
      <use xlink:href="#DejaVuSans-35" transform="translate(1259.1875 0.015625)"/>
      <use xlink:href="#DejaVuSans-30" transform="translate(1322.810547 0.015625)"/>
      <use xlink:href="#DejaVuSans-30" transform="translate(1386.433594 0.015625)"/>
      <use xlink:href="#DejaVuSans-29" transform="translate(1450.056641 0.015625)"/>
     </g>
    </g>
    <g id="line2d_64">
     <path d="M 193.8 29.998437 
L 203.8 29.998437 
L 213.8 29.998437 
" style="fill: none; stroke: #d62728; stroke-width: 2; stroke-linecap: square"/>
     <g>
      <use xlink:href="#m4583cdb99b" x="203.8" y="29.998437" style="fill: #d62728; stroke: #d62728"/>
     </g>
    </g>
    <g id="text_22">
     <!-- Local-degree -->
     <g transform="translate(221.8 33.498437) scale(0.1 -0.1)">
      <defs>
       <path id="DejaVuSans-4c" d="M 628 4666 
L 1259 4666 
L 1259 531 
L 3531 531 
L 3531 0 
L 628 0 
L 628 4666 
z
" transform="scale(0.015625)"/>
       <path id="DejaVuSans-63" d="M 3122 3366 
L 3122 2828 
Q 2878 2963 2633 3030 
Q 2388 3097 2138 3097 
Q 1578 3097 1268 2742 
Q 959 2388 959 1747 
Q 959 1106 1268 751 
Q 1578 397 2138 397 
Q 2388 397 2633 464 
Q 2878 531 3122 666 
L 3122 134 
Q 2881 22 2623 -34 
Q 2366 -91 2075 -91 
Q 1284 -91 818 406 
Q 353 903 353 1747 
Q 353 2603 823 3093 
Q 1294 3584 2113 3584 
Q 2378 3584 2631 3529 
Q 2884 3475 3122 3366 
z
" transform="scale(0.015625)"/>
       <path id="DejaVuSans-6c" d="M 603 4863 
L 1178 4863 
L 1178 0 
L 603 0 
L 603 4863 
z
" transform="scale(0.015625)"/>
      </defs>
      <use xlink:href="#DejaVuSans-4c"/>
      <use xlink:href="#DejaVuSans-6f" x="53.962891"/>
      <use xlink:href="#DejaVuSans-63" x="115.144531"/>
      <use xlink:href="#DejaVuSans-61" x="170.125"/>
      <use xlink:href="#DejaVuSans-6c" x="231.404297"/>
      <use xlink:href="#DejaVuSans-2d" x="259.1875"/>
      <use xlink:href="#DejaVuSans-64" x="295.271484"/>
      <use xlink:href="#DejaVuSans-65" x="358.748047"/>
      <use xlink:href="#DejaVuSans-67" x="420.271484"/>
      <use xlink:href="#DejaVuSans-72" x="483.748047"/>
      <use xlink:href="#DejaVuSans-65" x="522.611328"/>
      <use xlink:href="#DejaVuSans-65" x="584.134766"/>
     </g>
    </g>
    <g id="line2d_65">
     <path d="M 390.8 15.3 
L 400.8 15.3 
L 410.8 15.3 
" style="fill: none; stroke: #9467bd; stroke-width: 2; stroke-linecap: square"/>
     <g>
      <use xlink:href="#ma01ad7b9ba" x="400.8" y="15.3" style="fill: #9467bd; stroke: #9467bd; stroke-linejoin: miter"/>
     </g>
    </g>
    <g id="text_23">
     <!-- FMMC -->
     <g transform="translate(418.8 18.8) scale(0.1 -0.1)">
      <defs>
       <path id="DejaVuSans-46" d="M 628 4666 
L 3309 4666 
L 3309 4134 
L 1259 4134 
L 1259 2759 
L 3109 2759 
L 3109 2228 
L 1259 2228 
L 1259 0 
L 628 0 
L 628 4666 
z
" transform="scale(0.015625)"/>
      </defs>
      <use xlink:href="#DejaVuSans-46"/>
      <use xlink:href="#DejaVuSans-4d" x="57.519531"/>
      <use xlink:href="#DejaVuSans-4d" x="143.798828"/>
      <use xlink:href="#DejaVuSans-43" x="230.078125"/>
     </g>
    </g>
    <g id="line2d_66">
     <path d="M 390.8 29.978125 
L 400.8 29.978125 
L 410.8 29.978125 
" style="fill: none; stroke: #8c564b; stroke-width: 2; stroke-linecap: square"/>
     <g>
      <use xlink:href="#m7f576663e2" x="400.8" y="29.978125" style="fill: #8c564b; stroke: #8c564b; stroke-linejoin: miter"/>
     </g>
    </g>
    <g id="text_24">
     <!-- FDLA -->
     <g transform="translate(418.8 33.478125) scale(0.1 -0.1)">
      <defs>
       <path id="DejaVuSans-44" d="M 1259 4147 
L 1259 519 
L 2022 519 
Q 2988 519 3436 956 
Q 3884 1394 3884 2338 
Q 3884 3275 3436 3711 
Q 2988 4147 2022 4147 
L 1259 4147 
z
M 628 4666 
L 1925 4666 
Q 3281 4666 3915 4102 
Q 4550 3538 4550 2338 
Q 4550 1131 3912 565 
Q 3275 0 1925 0 
L 628 0 
L 628 4666 
z
" transform="scale(0.015625)"/>
       <path id="DejaVuSans-41" d="M 2188 4044 
L 1331 1722 
L 3047 1722 
L 2188 4044 
z
M 1831 4666 
L 2547 4666 
L 4325 0 
L 3669 0 
L 3244 1197 
L 1141 1197 
L 716 0 
L 50 0 
L 1831 4666 
z
" transform="scale(0.015625)"/>
      </defs>
      <use xlink:href="#DejaVuSans-46"/>
      <use xlink:href="#DejaVuSans-44" x="57.519531"/>
      <use xlink:href="#DejaVuSans-4c" x="134.521484"/>
      <use xlink:href="#DejaVuSans-41" x="192.484375"/>
     </g>
    </g>
   </g>
  </g>
  <g id="patch_13">
   <path d="M 129.974477 277.793179 
Q 169.472895 249.206189 208.971313 220.6192 
" style="fill: none; stroke: #000000; stroke-linecap: round"/>
  </g>
  <g id="text_25">
   <!-- Timesteps -->
   <g transform="translate(199.210625 359.128375) scale(0.12 -0.12)">
    <defs>
     <path id="DejaVuSans-54" d="M -19 4666 
L 3928 4666 
L 3928 4134 
L 2272 4134 
L 2272 0 
L 1638 0 
L 1638 4134 
L -19 4134 
L -19 4666 
z
" transform="scale(0.015625)"/>
     <path id="DejaVuSans-70" d="M 1159 525 
L 1159 -1331 
L 581 -1331 
L 581 3500 
L 1159 3500 
L 1159 2969 
Q 1341 3281 1617 3432 
Q 1894 3584 2278 3584 
Q 2916 3584 3314 3078 
Q 3713 2572 3713 1747 
Q 3713 922 3314 415 
Q 2916 -91 2278 -91 
Q 1894 -91 1617 61 
Q 1341 213 1159 525 
z
M 3116 1747 
Q 3116 2381 2855 2742 
Q 2594 3103 2138 3103 
Q 1681 3103 1420 2742 
Q 1159 2381 1159 1747 
Q 1159 1113 1420 752 
Q 1681 391 2138 391 
Q 2594 391 2855 752 
Q 3116 1113 3116 1747 
z
" transform="scale(0.015625)"/>
    </defs>
    <use xlink:href="#DejaVuSans-54"/>
    <use xlink:href="#DejaVuSans-69" x="57.958984"/>
    <use xlink:href="#DejaVuSans-6d" x="85.742188"/>
    <use xlink:href="#DejaVuSans-65" x="183.154297"/>
    <use xlink:href="#DejaVuSans-73" x="244.677734"/>
    <use xlink:href="#DejaVuSans-74" x="296.777344"/>
    <use xlink:href="#DejaVuSans-65" x="335.986328"/>
    <use xlink:href="#DejaVuSans-70" x="397.509766"/>
    <use xlink:href="#DejaVuSans-73" x="460.986328"/>
   </g>
  </g>
  <g id="text_26">
   <!-- Mean estimate error for the best arm -->
   <g transform="translate(17.929438 303.952188) rotate(-90) scale(0.12 -0.12)">
    <defs>
     <path id="DejaVuSans-66" d="M 2375 4863 
L 2375 4384 
L 1825 4384 
Q 1516 4384 1395 4259 
Q 1275 4134 1275 3809 
L 1275 3500 
L 2222 3500 
L 2222 3053 
L 1275 3053 
L 1275 0 
L 697 0 
L 697 3053 
L 147 3053 
L 147 3500 
L 697 3500 
L 697 3744 
Q 697 4328 969 4595 
Q 1241 4863 1831 4863 
L 2375 4863 
z
" transform="scale(0.015625)"/>
     <path id="DejaVuSans-68" d="M 3513 2113 
L 3513 0 
L 2938 0 
L 2938 2094 
Q 2938 2591 2744 2837 
Q 2550 3084 2163 3084 
Q 1697 3084 1428 2787 
Q 1159 2491 1159 1978 
L 1159 0 
L 581 0 
L 581 4863 
L 1159 4863 
L 1159 2956 
Q 1366 3272 1645 3428 
Q 1925 3584 2291 3584 
Q 2894 3584 3203 3211 
Q 3513 2838 3513 2113 
z
" transform="scale(0.015625)"/>
     <path id="DejaVuSans-62" d="M 3116 1747 
Q 3116 2381 2855 2742 
Q 2594 3103 2138 3103 
Q 1681 3103 1420 2742 
Q 1159 2381 1159 1747 
Q 1159 1113 1420 752 
Q 1681 391 2138 391 
Q 2594 391 2855 752 
Q 3116 1113 3116 1747 
z
M 1159 2969 
Q 1341 3281 1617 3432 
Q 1894 3584 2278 3584 
Q 2916 3584 3314 3078 
Q 3713 2572 3713 1747 
Q 3713 922 3314 415 
Q 2916 -91 2278 -91 
Q 1894 -91 1617 61 
Q 1341 213 1159 525 
L 1159 0 
L 581 0 
L 581 4863 
L 1159 4863 
L 1159 2969 
z
" transform="scale(0.015625)"/>
    </defs>
    <use xlink:href="#DejaVuSans-4d"/>
    <use xlink:href="#DejaVuSans-65" x="86.279297"/>
    <use xlink:href="#DejaVuSans-61" x="147.802734"/>
    <use xlink:href="#DejaVuSans-6e" x="209.082031"/>
    <use xlink:href="#DejaVuSans-20" x="272.460938"/>
    <use xlink:href="#DejaVuSans-65" x="304.248047"/>
    <use xlink:href="#DejaVuSans-73" x="365.771484"/>
    <use xlink:href="#DejaVuSans-74" x="417.871094"/>
    <use xlink:href="#DejaVuSans-69" x="457.080078"/>
    <use xlink:href="#DejaVuSans-6d" x="484.863281"/>
    <use xlink:href="#DejaVuSans-61" x="582.275391"/>
    <use xlink:href="#DejaVuSans-74" x="643.554688"/>
    <use xlink:href="#DejaVuSans-65" x="682.763672"/>
    <use xlink:href="#DejaVuSans-20" x="744.287109"/>
    <use xlink:href="#DejaVuSans-65" x="776.074219"/>
    <use xlink:href="#DejaVuSans-72" x="837.597656"/>
    <use xlink:href="#DejaVuSans-72" x="876.960938"/>
    <use xlink:href="#DejaVuSans-6f" x="915.824219"/>
    <use xlink:href="#DejaVuSans-72" x="977.005859"/>
    <use xlink:href="#DejaVuSans-20" x="1018.119141"/>
    <use xlink:href="#DejaVuSans-66" x="1049.90625"/>
    <use xlink:href="#DejaVuSans-6f" x="1085.111328"/>
    <use xlink:href="#DejaVuSans-72" x="1146.292969"/>
    <use xlink:href="#DejaVuSans-20" x="1187.40625"/>
    <use xlink:href="#DejaVuSans-74" x="1219.193359"/>
    <use xlink:href="#DejaVuSans-68" x="1258.402344"/>
    <use xlink:href="#DejaVuSans-65" x="1321.78125"/>
    <use xlink:href="#DejaVuSans-20" x="1383.304688"/>
    <use xlink:href="#DejaVuSans-62" x="1415.091797"/>
    <use xlink:href="#DejaVuSans-65" x="1478.568359"/>
    <use xlink:href="#DejaVuSans-73" x="1540.091797"/>
    <use xlink:href="#DejaVuSans-74" x="1592.191406"/>
    <use xlink:href="#DejaVuSans-20" x="1631.400391"/>
    <use xlink:href="#DejaVuSans-61" x="1663.1875"/>
    <use xlink:href="#DejaVuSans-72" x="1724.466797"/>
    <use xlink:href="#DejaVuSans-6d" x="1763.830078"/>
   </g>
  </g>
 </g>
 <defs>
  <clipPath id="p3f67cddb55">
   <rect x="57.195313" y="60.952" width="357.12" height="266.112"/>
  </clipPath>
  <clipPath id="p71b6fb9de0">
   <rect x="208.971313" y="74.2576" width="196.416" height="146.3616"/>
  </clipPath>
 </defs>
</svg>
