<?xml version="1.0" encoding="utf-8" standalone="no"?>
<!DOCTYPE svg PUBLIC "-//W3C//DTD SVG 1.1//EN"
  "http://www.w3.org/Graphics/SVG/1.1/DTD/svg11.dtd">
<svg xmlns:xlink="http://www.w3.org/1999/xlink" width="419.904pt" height="349.632pt" viewBox="0 0 419.904 349.632" xmlns="http://www.w3.org/2000/svg" version="1.1">
 <metadata>
  <rdf:RDF xmlns:dc="http://purl.org/dc/elements/1.1/" xmlns:cc="http://creativecommons.org/ns#" xmlns:rdf="http://www.w3.org/1999/02/22-rdf-syntax-ns#">
   <cc:Work>
    <dc:type rdf:resource="http://purl.org/dc/dcmitype/StillImage"/>
    <dc:date>2024-06-06T16:23:28.848684</dc:date>
    <dc:format>image/svg+xml</dc:format>
    <dc:creator>
     <cc:Agent>
      <dc:title>Matplotlib v3.9.0, https://matplotlib.org/</dc:title>
     </cc:Agent>
    </dc:creator>
   </cc:Work>
  </rdf:RDF>
 </metadata>
 <defs>
  <style type="text/css">*{stroke-linejoin: round; stroke-linecap: butt}</style>
 </defs>
 <g id="figure_1">
  <g id="patch_1">
   <path d="M 0 349.632 
L 419.904 349.632 
L 419.904 -0 
L 0 -0 
z
" style="fill: #ffffff"/>
  </g>
  <g id="axes_1">
   <g id="patch_2">
    <path d="M 55.584 307.872 
L 412.704 307.872 
L 412.704 41.76 
L 55.584 41.76 
z
" style="fill: #ffffff"/>
   </g>
   <g id="matplotlib.axis_1">
    <g id="xtick_1">
     <g id="line2d_1">
      <path d="M 71.816727 307.872 
L 71.816727 41.76 
" clip-path="url(#p5c7672836a)" style="fill: none; stroke: #b0b0b0; stroke-width: 0.8; stroke-linecap: square"/>
     </g>
     <g id="line2d_2">
      <defs>
       <path id="mbf4423f8ba" d="M 0 0 
L 0 3.5 
" style="stroke: #000000; stroke-width: 0.8"/>
      </defs>
      <g>
       <use xlink:href="#mbf4423f8ba" x="71.816727" y="307.872" style="stroke: #000000; stroke-width: 0.8"/>
      </g>
     </g>
     <g id="text_1">
      <!-- 0 -->
      <g transform="translate(67.362977 325.509812) scale(0.14 -0.14)">
       <defs>
        <path id="DejaVuSans-30" d="M 2034 4250 
Q 1547 4250 1301 3770 
Q 1056 3291 1056 2328 
Q 1056 1369 1301 889 
Q 1547 409 2034 409 
Q 2525 409 2770 889 
Q 3016 1369 3016 2328 
Q 3016 3291 2770 3770 
Q 2525 4250 2034 4250 
z
M 2034 4750 
Q 2819 4750 3233 4129 
Q 3647 3509 3647 2328 
Q 3647 1150 3233 529 
Q 2819 -91 2034 -91 
Q 1250 -91 836 529 
Q 422 1150 422 2328 
Q 422 3509 836 4129 
Q 1250 4750 2034 4750 
z
" transform="scale(0.015625)"/>
       </defs>
       <use xlink:href="#DejaVuSans-30"/>
      </g>
     </g>
    </g>
    <g id="xtick_2">
     <g id="line2d_3">
      <path d="M 136.877758 307.872 
L 136.877758 41.76 
" clip-path="url(#p5c7672836a)" style="fill: none; stroke: #b0b0b0; stroke-width: 0.8; stroke-linecap: square"/>
     </g>
     <g id="line2d_4">
      <g>
       <use xlink:href="#mbf4423f8ba" x="136.877758" y="307.872" style="stroke: #000000; stroke-width: 0.8"/>
      </g>
     </g>
     <g id="text_2">
      <!-- 100 -->
      <g transform="translate(123.516508 325.509812) scale(0.14 -0.14)">
       <defs>
        <path id="DejaVuSans-31" d="M 794 531 
L 1825 531 
L 1825 4091 
L 703 3866 
L 703 4441 
L 1819 4666 
L 2450 4666 
L 2450 531 
L 3481 531 
L 3481 0 
L 794 0 
L 794 531 
z
" transform="scale(0.015625)"/>
       </defs>
       <use xlink:href="#DejaVuSans-31"/>
       <use xlink:href="#DejaVuSans-30" x="63.623047"/>
       <use xlink:href="#DejaVuSans-30" x="127.246094"/>
      </g>
     </g>
    </g>
    <g id="xtick_3">
     <g id="line2d_5">
      <path d="M 201.93879 307.872 
L 201.93879 41.76 
" clip-path="url(#p5c7672836a)" style="fill: none; stroke: #b0b0b0; stroke-width: 0.8; stroke-linecap: square"/>
     </g>
     <g id="line2d_6">
      <g>
       <use xlink:href="#mbf4423f8ba" x="201.93879" y="307.872" style="stroke: #000000; stroke-width: 0.8"/>
      </g>
     </g>
     <g id="text_3">
      <!-- 200 -->
      <g transform="translate(188.57754 325.509812) scale(0.14 -0.14)">
       <defs>
        <path id="DejaVuSans-32" d="M 1228 531 
L 3431 531 
L 3431 0 
L 469 0 
L 469 531 
Q 828 903 1448 1529 
Q 2069 2156 2228 2338 
Q 2531 2678 2651 2914 
Q 2772 3150 2772 3378 
Q 2772 3750 2511 3984 
Q 2250 4219 1831 4219 
Q 1534 4219 1204 4116 
Q 875 4013 500 3803 
L 500 4441 
Q 881 4594 1212 4672 
Q 1544 4750 1819 4750 
Q 2544 4750 2975 4387 
Q 3406 4025 3406 3419 
Q 3406 3131 3298 2873 
Q 3191 2616 2906 2266 
Q 2828 2175 2409 1742 
Q 1991 1309 1228 531 
z
" transform="scale(0.015625)"/>
       </defs>
       <use xlink:href="#DejaVuSans-32"/>
       <use xlink:href="#DejaVuSans-30" x="63.623047"/>
       <use xlink:href="#DejaVuSans-30" x="127.246094"/>
      </g>
     </g>
    </g>
    <g id="xtick_4">
     <g id="line2d_7">
      <path d="M 266.999821 307.872 
L 266.999821 41.76 
" clip-path="url(#p5c7672836a)" style="fill: none; stroke: #b0b0b0; stroke-width: 0.8; stroke-linecap: square"/>
     </g>
     <g id="line2d_8">
      <g>
       <use xlink:href="#mbf4423f8ba" x="266.999821" y="307.872" style="stroke: #000000; stroke-width: 0.8"/>
      </g>
     </g>
     <g id="text_4">
      <!-- 300 -->
      <g transform="translate(253.638571 325.509812) scale(0.14 -0.14)">
       <defs>
        <path id="DejaVuSans-33" d="M 2597 2516 
Q 3050 2419 3304 2112 
Q 3559 1806 3559 1356 
Q 3559 666 3084 287 
Q 2609 -91 1734 -91 
Q 1441 -91 1130 -33 
Q 819 25 488 141 
L 488 750 
Q 750 597 1062 519 
Q 1375 441 1716 441 
Q 2309 441 2620 675 
Q 2931 909 2931 1356 
Q 2931 1769 2642 2001 
Q 2353 2234 1838 2234 
L 1294 2234 
L 1294 2753 
L 1863 2753 
Q 2328 2753 2575 2939 
Q 2822 3125 2822 3475 
Q 2822 3834 2567 4026 
Q 2313 4219 1838 4219 
Q 1578 4219 1281 4162 
Q 984 4106 628 3988 
L 628 4550 
Q 988 4650 1302 4700 
Q 1616 4750 1894 4750 
Q 2613 4750 3031 4423 
Q 3450 4097 3450 3541 
Q 3450 3153 3228 2886 
Q 3006 2619 2597 2516 
z
" transform="scale(0.015625)"/>
       </defs>
       <use xlink:href="#DejaVuSans-33"/>
       <use xlink:href="#DejaVuSans-30" x="63.623047"/>
       <use xlink:href="#DejaVuSans-30" x="127.246094"/>
      </g>
     </g>
    </g>
    <g id="xtick_5">
     <g id="line2d_9">
      <path d="M 332.060852 307.872 
L 332.060852 41.76 
" clip-path="url(#p5c7672836a)" style="fill: none; stroke: #b0b0b0; stroke-width: 0.8; stroke-linecap: square"/>
     </g>
     <g id="line2d_10">
      <g>
       <use xlink:href="#mbf4423f8ba" x="332.060852" y="307.872" style="stroke: #000000; stroke-width: 0.8"/>
      </g>
     </g>
     <g id="text_5">
      <!-- 400 -->
      <g transform="translate(318.699602 325.509812) scale(0.14 -0.14)">
       <defs>
        <path id="DejaVuSans-34" d="M 2419 4116 
L 825 1625 
L 2419 1625 
L 2419 4116 
z
M 2253 4666 
L 3047 4666 
L 3047 1625 
L 3713 1625 
L 3713 1100 
L 3047 1100 
L 3047 0 
L 2419 0 
L 2419 1100 
L 313 1100 
L 313 1709 
L 2253 4666 
z
" transform="scale(0.015625)"/>
       </defs>
       <use xlink:href="#DejaVuSans-34"/>
       <use xlink:href="#DejaVuSans-30" x="63.623047"/>
       <use xlink:href="#DejaVuSans-30" x="127.246094"/>
      </g>
     </g>
    </g>
    <g id="xtick_6">
     <g id="line2d_11">
      <path d="M 397.121883 307.872 
L 397.121883 41.76 
" clip-path="url(#p5c7672836a)" style="fill: none; stroke: #b0b0b0; stroke-width: 0.8; stroke-linecap: square"/>
     </g>
     <g id="line2d_12">
      <g>
       <use xlink:href="#mbf4423f8ba" x="397.121883" y="307.872" style="stroke: #000000; stroke-width: 0.8"/>
      </g>
     </g>
     <g id="text_6">
      <!-- 500 -->
      <g transform="translate(383.760633 325.509812) scale(0.14 -0.14)">
       <defs>
        <path id="DejaVuSans-35" d="M 691 4666 
L 3169 4666 
L 3169 4134 
L 1269 4134 
L 1269 2991 
Q 1406 3038 1543 3061 
Q 1681 3084 1819 3084 
Q 2600 3084 3056 2656 
Q 3513 2228 3513 1497 
Q 3513 744 3044 326 
Q 2575 -91 1722 -91 
Q 1428 -91 1123 -41 
Q 819 9 494 109 
L 494 744 
Q 775 591 1075 516 
Q 1375 441 1709 441 
Q 2250 441 2565 725 
Q 2881 1009 2881 1497 
Q 2881 1984 2565 2268 
Q 2250 2553 1709 2553 
Q 1456 2553 1204 2497 
Q 953 2441 691 2322 
L 691 4666 
z
" transform="scale(0.015625)"/>
       </defs>
       <use xlink:href="#DejaVuSans-35"/>
       <use xlink:href="#DejaVuSans-30" x="63.623047"/>
       <use xlink:href="#DejaVuSans-30" x="127.246094"/>
      </g>
     </g>
    </g>
   </g>
   <g id="matplotlib.axis_2">
    <g id="ytick_1">
     <g id="line2d_13">
      <path d="M 55.584 301.455838 
L 412.704 301.455838 
" clip-path="url(#p5c7672836a)" style="fill: none; stroke: #b0b0b0; stroke-width: 0.8; stroke-linecap: square"/>
     </g>
     <g id="line2d_14">
      <defs>
       <path id="mcc99b2cf56" d="M 0 0 
L -3.5 0 
" style="stroke: #000000; stroke-width: 0.8"/>
      </defs>
      <g>
       <use xlink:href="#mcc99b2cf56" x="55.584" y="301.455838" style="stroke: #000000; stroke-width: 0.8"/>
      </g>
     </g>
     <g id="text_7">
      <!-- 0 -->
      <g transform="translate(39.6765 306.774744) scale(0.14 -0.14)">
       <use xlink:href="#DejaVuSans-30"/>
      </g>
     </g>
    </g>
    <g id="ytick_2">
     <g id="line2d_15">
      <path d="M 55.584 264.350585 
L 412.704 264.350585 
" clip-path="url(#p5c7672836a)" style="fill: none; stroke: #b0b0b0; stroke-width: 0.8; stroke-linecap: square"/>
     </g>
     <g id="line2d_16">
      <g>
       <use xlink:href="#mcc99b2cf56" x="55.584" y="264.350585" style="stroke: #000000; stroke-width: 0.8"/>
      </g>
     </g>
     <g id="text_8">
      <!-- 10 -->
      <g transform="translate(30.769 269.669491) scale(0.14 -0.14)">
       <use xlink:href="#DejaVuSans-31"/>
       <use xlink:href="#DejaVuSans-30" x="63.623047"/>
      </g>
     </g>
    </g>
    <g id="ytick_3">
     <g id="line2d_17">
      <path d="M 55.584 227.245331 
L 412.704 227.245331 
" clip-path="url(#p5c7672836a)" style="fill: none; stroke: #b0b0b0; stroke-width: 0.8; stroke-linecap: square"/>
     </g>
     <g id="line2d_18">
      <g>
       <use xlink:href="#mcc99b2cf56" x="55.584" y="227.245331" style="stroke: #000000; stroke-width: 0.8"/>
      </g>
     </g>
     <g id="text_9">
      <!-- 20 -->
      <g transform="translate(30.769 232.564237) scale(0.14 -0.14)">
       <use xlink:href="#DejaVuSans-32"/>
       <use xlink:href="#DejaVuSans-30" x="63.623047"/>
      </g>
     </g>
    </g>
    <g id="ytick_4">
     <g id="line2d_19">
      <path d="M 55.584 190.140078 
L 412.704 190.140078 
" clip-path="url(#p5c7672836a)" style="fill: none; stroke: #b0b0b0; stroke-width: 0.8; stroke-linecap: square"/>
     </g>
     <g id="line2d_20">
      <g>
       <use xlink:href="#mcc99b2cf56" x="55.584" y="190.140078" style="stroke: #000000; stroke-width: 0.8"/>
      </g>
     </g>
     <g id="text_10">
      <!-- 30 -->
      <g transform="translate(30.769 195.458984) scale(0.14 -0.14)">
       <use xlink:href="#DejaVuSans-33"/>
       <use xlink:href="#DejaVuSans-30" x="63.623047"/>
      </g>
     </g>
    </g>
    <g id="ytick_5">
     <g id="line2d_21">
      <path d="M 55.584 153.034824 
L 412.704 153.034824 
" clip-path="url(#p5c7672836a)" style="fill: none; stroke: #b0b0b0; stroke-width: 0.8; stroke-linecap: square"/>
     </g>
     <g id="line2d_22">
      <g>
       <use xlink:href="#mcc99b2cf56" x="55.584" y="153.034824" style="stroke: #000000; stroke-width: 0.8"/>
      </g>
     </g>
     <g id="text_11">
      <!-- 40 -->
      <g transform="translate(30.769 158.35373) scale(0.14 -0.14)">
       <use xlink:href="#DejaVuSans-34"/>
       <use xlink:href="#DejaVuSans-30" x="63.623047"/>
      </g>
     </g>
    </g>
    <g id="ytick_6">
     <g id="line2d_23">
      <path d="M 55.584 115.929571 
L 412.704 115.929571 
" clip-path="url(#p5c7672836a)" style="fill: none; stroke: #b0b0b0; stroke-width: 0.8; stroke-linecap: square"/>
     </g>
     <g id="line2d_24">
      <g>
       <use xlink:href="#mcc99b2cf56" x="55.584" y="115.929571" style="stroke: #000000; stroke-width: 0.8"/>
      </g>
     </g>
     <g id="text_12">
      <!-- 50 -->
      <g transform="translate(30.769 121.248477) scale(0.14 -0.14)">
       <use xlink:href="#DejaVuSans-35"/>
       <use xlink:href="#DejaVuSans-30" x="63.623047"/>
      </g>
     </g>
    </g>
    <g id="ytick_7">
     <g id="line2d_25">
      <path d="M 55.584 78.824317 
L 412.704 78.824317 
" clip-path="url(#p5c7672836a)" style="fill: none; stroke: #b0b0b0; stroke-width: 0.8; stroke-linecap: square"/>
     </g>
     <g id="line2d_26">
      <g>
       <use xlink:href="#mcc99b2cf56" x="55.584" y="78.824317" style="stroke: #000000; stroke-width: 0.8"/>
      </g>
     </g>
     <g id="text_13">
      <!-- 60 -->
      <g transform="translate(30.769 84.143223) scale(0.14 -0.14)">
       <defs>
        <path id="DejaVuSans-36" d="M 2113 2584 
Q 1688 2584 1439 2293 
Q 1191 2003 1191 1497 
Q 1191 994 1439 701 
Q 1688 409 2113 409 
Q 2538 409 2786 701 
Q 3034 994 3034 1497 
Q 3034 2003 2786 2293 
Q 2538 2584 2113 2584 
z
M 3366 4563 
L 3366 3988 
Q 3128 4100 2886 4159 
Q 2644 4219 2406 4219 
Q 1781 4219 1451 3797 
Q 1122 3375 1075 2522 
Q 1259 2794 1537 2939 
Q 1816 3084 2150 3084 
Q 2853 3084 3261 2657 
Q 3669 2231 3669 1497 
Q 3669 778 3244 343 
Q 2819 -91 2113 -91 
Q 1303 -91 875 529 
Q 447 1150 447 2328 
Q 447 3434 972 4092 
Q 1497 4750 2381 4750 
Q 2619 4750 2861 4703 
Q 3103 4656 3366 4563 
z
" transform="scale(0.015625)"/>
       </defs>
       <use xlink:href="#DejaVuSans-36"/>
       <use xlink:href="#DejaVuSans-30" x="63.623047"/>
      </g>
     </g>
    </g>
   </g>
   <g id="line2d_27">
    <path d="M 71.816727 295.776 
L 77.67222 244.443028 
L 78.32283 242.974777 
L 79.624051 238.272224 
L 84.178323 219.962085 
L 86.130154 212.989845 
L 88.081985 206.73522 
L 90.033816 201.122262 
L 91.985647 196.091397 
L 93.937478 191.495491 
L 96.539919 186.062298 
L 99.14236 181.194056 
L 101.744802 176.807254 
L 104.347243 172.852918 
L 107.600294 168.354077 
L 110.853346 164.285647 
L 114.106398 160.572597 
L 118.010059 156.527139 
L 121.913721 152.817392 
L 125.817383 149.422629 
L 129.721045 146.244557 
L 136.227148 141.371423 
L 140.78142 138.21217 
L 145.986303 134.876211 
L 152.492406 131.004527 
L 158.347899 127.772536 
L 166.805833 123.368996 
L 173.962546 119.921802 
L 180.468649 116.938245 
L 186.324142 114.399167 
L 194.131466 111.146968 
L 203.890621 107.316178 
L 216.902827 102.583725 
L 224.05954 100.172088 
L 234.469305 96.807137 
L 249.433342 92.33178 
L 261.794938 88.880282 
L 280.662637 84.01892 
L 306.036439 78.016597 
L 328.8078 73.13947 
L 365.892588 66.065169 
L 382.808456 63.117446 
L 396.471273 60.776404 
L 396.471273 60.776404 
" clip-path="url(#p5c7672836a)" style="fill: none; stroke: #1f77b4; stroke-width: 2; stroke-linecap: square"/>
    <defs>
     <path id="mf87e0c6277" d="M 0 3 
C 0.795609 3 1.55874 2.683901 2.12132 2.12132 
C 2.683901 1.55874 3 0.795609 3 0 
C 3 -0.795609 2.683901 -1.55874 2.12132 -2.12132 
C 1.55874 -2.683901 0.795609 -3 0 -3 
C -0.795609 -3 -1.55874 -2.683901 -2.12132 -2.12132 
C -2.683901 -1.55874 -3 -0.795609 -3 0 
C -3 0.795609 -2.683901 1.55874 -2.12132 2.12132 
C -1.55874 2.683901 -0.795609 3 0 3 
z
" style="stroke: #1f77b4"/>
    </defs>
    <g clip-path="url(#p5c7672836a)">
     <use xlink:href="#mf87e0c6277" x="71.816727" y="295.776" style="fill: #1f77b4; stroke: #1f77b4"/>
     <use xlink:href="#mf87e0c6277" x="201.93879" y="108.05284" style="fill: #1f77b4; stroke: #1f77b4"/>
     <use xlink:href="#mf87e0c6277" x="332.060852" y="72.501967" style="fill: #1f77b4; stroke: #1f77b4"/>
    </g>
   </g>
   <g id="line2d_28">
    <path d="M 71.816727 295.776 
L 77.67222 244.443028 
L 78.32283 243.893817 
L 78.973441 242.307642 
L 80.274661 237.939557 
L 84.828934 221.104931 
L 86.780764 214.766963 
L 88.732595 209.160364 
L 90.684426 204.100361 
L 92.636257 199.515499 
L 95.238698 194.020673 
L 98.49175 187.925318 
L 102.395412 181.349714 
L 105.648463 176.460971 
L 108.901515 172.023454 
L 112.154567 167.85822 
L 115.407618 163.981279 
L 121.263111 157.515476 
L 124.516163 154.230776 
L 129.070435 149.992753 
L 134.925927 145.002727 
L 140.13081 140.957352 
L 145.335692 137.094127 
L 154.444237 130.935376 
L 161.60095 126.549301 
L 171.360105 121.005848 
L 177.215598 117.923702 
L 183.721701 114.731335 
L 195.432686 109.370563 
L 206.493062 104.577932 
L 218.204047 99.974912 
L 239.023577 92.471007 
L 247.481511 89.652478 
L 259.843107 85.85609 
L 267.650431 83.554 
L 292.373623 76.678962 
L 306.036439 73.248195 
L 337.265734 65.888467 
L 350.928551 62.912608 
L 370.44686 58.862678 
L 396.471273 53.856 
L 396.471273 53.856 
" clip-path="url(#p5c7672836a)" style="fill: none; stroke: #ff7f0e; stroke-width: 2; stroke-linecap: square"/>
    <defs>
     <path id="mafafd91197" d="M 0 -3 
L -3 3 
L 3 3 
z
" style="stroke: #ff7f0e; stroke-linejoin: miter"/>
    </defs>
    <g clip-path="url(#p5c7672836a)">
     <use xlink:href="#mafafd91197" x="71.816727" y="295.776" style="fill: #ff7f0e; stroke: #ff7f0e; stroke-linejoin: miter"/>
     <use xlink:href="#mafafd91197" x="201.93879" y="106.501692" style="fill: #ff7f0e; stroke: #ff7f0e; stroke-linejoin: miter"/>
     <use xlink:href="#mafafd91197" x="332.060852" y="67.055008" style="fill: #ff7f0e; stroke: #ff7f0e; stroke-linejoin: miter"/>
    </g>
   </g>
   <g id="line2d_29">
    <path d="M 71.816727 295.776 
L 77.67222 244.443028 
L 78.32283 243.778433 
L 78.973441 242.147947 
L 80.274661 237.858187 
L 85.479544 220.207741 
L 87.431375 214.369372 
L 89.383206 209.098912 
L 91.985647 202.784672 
L 94.588088 197.06858 
L 97.190529 191.930897 
L 100.443581 186.125586 
L 103.046022 181.940173 
L 106.299074 177.115747 
L 110.853346 170.87411 
L 114.757008 166.037917 
L 118.010059 162.369143 
L 120.612501 159.640539 
L 125.817383 154.436894 
L 129.070435 151.390822 
L 133.624707 147.464639 
L 140.13081 142.322537 
L 144.034472 139.445107 
L 150.540575 134.880397 
L 157.697288 130.258119 
L 163.552781 126.741662 
L 170.058884 123.050211 
L 175.914377 119.915318 
L 184.372311 115.73412 
L 191.529025 112.335069 
L 197.384517 109.65797 
L 210.396724 104.2257 
L 219.505268 100.681292 
L 232.517474 96.027424 
L 238.372967 94.016143 
L 242.927239 92.461933 
L 257.891276 87.726818 
L 276.758975 82.202561 
L 293.674844 77.615911 
L 322.952308 70.37524 
L 330.109021 68.727351 
L 343.771837 65.663746 
L 371.748081 59.906132 
L 396.471273 55.284399 
L 396.471273 55.284399 
" clip-path="url(#p5c7672836a)" style="fill: none; stroke: #2ca02c; stroke-width: 2; stroke-linecap: square"/>
    <defs>
     <path id="m827056c692" d="M -3 3 
L 3 3 
L 3 -3 
L -3 -3 
z
" style="stroke: #2ca02c; stroke-linejoin: miter"/>
    </defs>
    <g clip-path="url(#p5c7672836a)">
     <use xlink:href="#m827056c692" x="71.816727" y="295.776" style="fill: #2ca02c; stroke: #2ca02c; stroke-linejoin: miter"/>
     <use xlink:href="#m827056c692" x="201.93879" y="107.684821" style="fill: #2ca02c; stroke: #2ca02c; stroke-linejoin: miter"/>
     <use xlink:href="#m827056c692" x="332.060852" y="68.274051" style="fill: #2ca02c; stroke: #2ca02c; stroke-linejoin: miter"/>
    </g>
   </g>
   <g id="line2d_30">
    <path d="M 71.816727 295.776 
L 77.67222 244.443028 
L 78.32283 243.763372 
L 78.973441 242.143265 
L 80.274661 237.9067 
L 84.828934 222.322108 
L 86.780764 216.353585 
L 89.383206 209.239739 
L 91.335037 204.436509 
L 93.937478 198.566251 
L 96.539919 193.277309 
L 99.792971 187.320821 
L 102.395412 183.01288 
L 105.648463 178.09912 
L 109.552125 172.656603 
L 112.805177 168.578638 
L 117.359449 163.280136 
L 120.612501 159.763539 
L 125.817383 154.615147 
L 130.371655 150.438121 
L 135.576538 145.989591 
L 140.13081 142.42417 
L 147.938134 136.781478 
L 156.396068 131.230541 
L 163.552781 126.883879 
L 170.058884 123.227021 
L 177.866208 119.114712 
L 185.673532 115.304246 
L 192.830245 111.970194 
L 200.637569 108.546444 
L 214.300385 102.954833 
L 224.05954 99.329127 
L 236.421136 94.947747 
L 242.927239 92.746247 
L 249.433342 90.616229 
L 257.240666 88.1604 
L 277.409586 82.296018 
L 297.578505 76.897952 
L 313.193153 72.946915 
L 349.62733 64.718362 
L 369.79625 60.623265 
L 396.471273 55.554946 
L 396.471273 55.554946 
" clip-path="url(#p5c7672836a)" style="fill: none; stroke: #d62728; stroke-width: 2; stroke-linecap: square"/>
    <defs>
     <path id="mf8141437df" d="M -3 3 
L 3 -3 
M -3 -3 
L 3 3 
" style="stroke: #d62728"/>
    </defs>
    <g clip-path="url(#p5c7672836a)">
     <use xlink:href="#mf8141437df" x="71.816727" y="295.776" style="fill: #d62728; stroke: #d62728"/>
     <use xlink:href="#mf8141437df" x="201.93879" y="107.995037" style="fill: #d62728; stroke: #d62728"/>
     <use xlink:href="#mf8141437df" x="332.060852" y="68.590542" style="fill: #d62728; stroke: #d62728"/>
    </g>
   </g>
   <g id="line2d_31">
    <path d="M 71.816727 295.776 
L 77.67222 244.443028 
L 78.32283 243.891454 
L 78.973441 242.30824 
L 80.274661 237.963814 
L 85.479544 218.815481 
L 87.431375 212.725513 
L 89.383206 207.342519 
L 91.985647 200.945702 
L 94.588088 195.253655 
L 97.190529 190.164658 
L 100.443581 184.373178 
L 103.046022 180.187969 
L 107.600294 173.692181 
L 112.805177 166.963465 
L 116.708839 162.469081 
L 119.96189 158.945985 
L 123.214942 155.641292 
L 128.419824 150.736622 
L 132.323486 147.391658 
L 138.178979 142.591145 
L 145.986303 136.847818 
L 149.889965 134.194714 
L 163.552781 125.707473 
L 173.962546 119.903917 
L 182.42048 115.650605 
L 191.529025 111.289866 
L 202.5894 106.416159 
L 212.348555 102.40935 
L 219.505268 99.680502 
L 233.168085 94.625364 
L 243.57785 91.118433 
L 264.397379 84.5576 
L 283.265079 79.209317 
L 294.976064 76.077709 
L 323.602918 69.048958 
L 339.217565 65.511238 
L 359.386485 61.263185 
L 372.398691 58.615893 
L 380.856625 56.9998 
L 396.471273 54.091627 
L 396.471273 54.091627 
" clip-path="url(#p5c7672836a)" style="fill: none; stroke: #9467bd; stroke-width: 2; stroke-linecap: square"/>
    <defs>
     <path id="m970fe86823" d="M -0 3 
L 3 -3 
L -3 -3 
z
" style="stroke: #9467bd; stroke-linejoin: miter"/>
    </defs>
    <g clip-path="url(#p5c7672836a)">
     <use xlink:href="#m970fe86823" x="71.816727" y="295.776" style="fill: #9467bd; stroke: #9467bd; stroke-linejoin: miter"/>
     <use xlink:href="#m970fe86823" x="201.93879" y="106.697568" style="fill: #9467bd; stroke: #9467bd; stroke-linejoin: miter"/>
     <use xlink:href="#m970fe86823" x="332.060852" y="67.108831" style="fill: #9467bd; stroke: #9467bd; stroke-linejoin: miter"/>
    </g>
   </g>
   <g id="line2d_32">
    <path d="M 71.816727 295.776 
L 77.67222 244.443028 
L 78.32283 243.907654 
L 78.973441 242.323064 
L 80.274661 237.899396 
L 84.828934 221.111668 
L 86.780764 214.84477 
L 88.732595 209.150857 
L 90.684426 204.089374 
L 92.636257 199.550047 
L 95.889309 192.769778 
L 98.49175 187.872647 
L 101.744802 182.272401 
L 104.347243 178.223289 
L 107.600294 173.540155 
L 110.853346 169.267174 
L 114.757008 164.505246 
L 117.359449 161.561211 
L 121.913721 156.815022 
L 125.817383 153.01132 
L 132.323486 147.274213 
L 136.877758 143.549188 
L 142.082641 139.553414 
L 146.636913 136.266354 
L 157.046678 129.452263 
L 161.60095 126.668842 
L 165.504612 124.436841 
L 174.613156 119.498601 
L 185.022921 114.267874 
L 191.529025 111.194074 
L 201.288179 106.844565 
L 213.649775 101.859448 
L 224.71015 97.686719 
L 237.071746 93.332882 
L 249.433342 89.197628 
L 262.445549 85.144992 
L 285.86752 78.362409 
L 304.735219 73.399771 
L 315.144984 70.883683 
L 328.8078 67.701297 
L 350.928551 62.884798 
L 376.952963 57.671773 
L 396.471273 53.936069 
L 396.471273 53.936069 
" clip-path="url(#p5c7672836a)" style="fill: none; stroke: #8c564b; stroke-width: 2; stroke-linecap: square"/>
    <defs>
     <path id="m78d57315a7" d="M -0 4.242641 
L 2.545584 0 
L 0 -4.242641 
L -2.545584 -0 
z
" style="stroke: #8c564b; stroke-linejoin: miter"/>
    </defs>
    <g clip-path="url(#p5c7672836a)">
     <use xlink:href="#m78d57315a7" x="71.816727" y="295.776" style="fill: #8c564b; stroke: #8c564b; stroke-linejoin: miter"/>
     <use xlink:href="#m78d57315a7" x="201.93879" y="106.576006" style="fill: #8c564b; stroke: #8c564b; stroke-linejoin: miter"/>
     <use xlink:href="#m78d57315a7" x="332.060852" y="66.950857" style="fill: #8c564b; stroke: #8c564b; stroke-linejoin: miter"/>
    </g>
   </g>
   <g id="line2d_33">
    <path d="M 71.816727 295.776 
L 77.67222 244.443028 
L 78.32283 243.874317 
L 78.973441 242.282433 
L 80.274661 237.970347 
L 84.828934 221.612602 
L 87.431375 213.477924 
L 89.383206 208.133368 
L 91.335037 203.30548 
L 93.937478 197.489689 
L 96.539919 192.215032 
L 99.792971 186.32241 
L 102.395412 182.028978 
L 104.997853 178.120885 
L 108.901515 172.629633 
L 112.154567 168.467065 
L 116.058228 163.886697 
L 120.612501 159.028185 
L 125.166773 154.57249 
L 130.371655 149.797334 
L 134.275317 146.536727 
L 141.432031 140.859121 
L 146.636913 137.079528 
L 151.841796 133.558982 
L 158.998509 129.126789 
L 170.709495 122.291415 
L 176.564987 119.156617 
L 184.372311 115.28498 
L 199.336348 108.39087 
L 203.890621 106.47573 
L 212.348555 103.04277 
L 227.312592 97.464296 
L 250.734563 89.611963 
L 257.240666 87.59006 
L 268.301041 84.330452 
L 277.409586 81.738076 
L 296.927895 76.563995 
L 321.651087 70.500641 
L 353.530992 63.428432 
L 383.459066 57.448325 
L 396.471273 55.014797 
L 396.471273 55.014797 
" clip-path="url(#p5c7672836a)" style="fill: none; stroke: #e377c2; stroke-width: 2; stroke-linecap: square"/>
    <defs>
     <path id="m88c7f8a3ee" d="M 0 0 
L 0 3 
M 0 0 
L 2.4 -1.5 
M 0 0 
L -2.4 -1.5 
" style="stroke: #e377c2"/>
    </defs>
    <g clip-path="url(#p5c7672836a)">
     <use xlink:href="#m88c7f8a3ee" x="71.816727" y="295.776" style="fill: #e377c2; stroke: #e377c2"/>
     <use xlink:href="#m88c7f8a3ee" x="201.93879" y="107.2816" style="fill: #e377c2; stroke: #e377c2"/>
     <use xlink:href="#m88c7f8a3ee" x="332.060852" y="68.110241" style="fill: #e377c2; stroke: #e377c2"/>
    </g>
   </g>
   <g id="patch_3">
    <path d="M 55.584 307.872 
L 55.584 41.76 
" style="fill: none; stroke: #000000; stroke-width: 0.8; stroke-linejoin: miter; stroke-linecap: square"/>
   </g>
   <g id="patch_4">
    <path d="M 412.704 307.872 
L 412.704 41.76 
" style="fill: none; stroke: #000000; stroke-width: 0.8; stroke-linejoin: miter; stroke-linecap: square"/>
   </g>
   <g id="patch_5">
    <path d="M 55.584 307.872 
L 412.704 307.872 
" style="fill: none; stroke: #000000; stroke-width: 0.8; stroke-linejoin: miter; stroke-linecap: square"/>
   </g>
   <g id="patch_6">
    <path d="M 55.584 41.76 
L 412.704 41.76 
" style="fill: none; stroke: #000000; stroke-width: 0.8; stroke-linejoin: miter; stroke-linecap: square"/>
   </g>
   <g id="legend_1">
    <g id="patch_7">
     <path d="M 224.704 302.872 
L 405.704 302.872 
Q 407.704 302.872 407.704 300.872 
L 407.704 199.081375 
Q 407.704 197.081375 405.704 197.081375 
L 224.704 197.081375 
Q 222.704 197.081375 222.704 199.081375 
L 222.704 300.872 
Q 222.704 302.872 224.704 302.872 
z
" style="fill: #ffffff; opacity: 0.8; stroke: #cccccc; stroke-linejoin: miter"/>
    </g>
    <g id="line2d_34">
     <path d="M 226.704 205.179812 
L 236.704 205.179812 
L 246.704 205.179812 
" style="fill: none; stroke: #1f77b4; stroke-width: 2; stroke-linecap: square"/>
     <g>
      <use xlink:href="#mf87e0c6277" x="236.704" y="205.179812" style="fill: #1f77b4; stroke: #1f77b4"/>
     </g>
    </g>
    <g id="text_14">
     <!-- $\kappa$ = 0.02 -->
     <g transform="translate(254.704 208.679812) scale(0.1 -0.1)">
      <defs>
       <path id="DejaVuSans-Oblique-3ba" d="M 938 3500 
L 1531 3500 
L 1247 2047 
L 3041 3500 
L 3741 3500 
L 2106 2181 
L 3275 0 
L 2572 0 
L 1628 1806 
L 1122 1403 
L 850 0 
L 256 0 
L 938 3500 
z
" transform="scale(0.015625)"/>
       <path id="DejaVuSans-20" transform="scale(0.015625)"/>
       <path id="DejaVuSans-3d" d="M 678 2906 
L 4684 2906 
L 4684 2381 
L 678 2381 
L 678 2906 
z
M 678 1631 
L 4684 1631 
L 4684 1100 
L 678 1100 
L 678 1631 
z
" transform="scale(0.015625)"/>
       <path id="DejaVuSans-2e" d="M 684 794 
L 1344 794 
L 1344 0 
L 684 0 
L 684 794 
z
" transform="scale(0.015625)"/>
      </defs>
      <use xlink:href="#DejaVuSans-Oblique-3ba" transform="translate(0 0.78125)"/>
      <use xlink:href="#DejaVuSans-20" transform="translate(58.935547 0.78125)"/>
      <use xlink:href="#DejaVuSans-3d" transform="translate(90.722656 0.78125)"/>
      <use xlink:href="#DejaVuSans-20" transform="translate(174.511719 0.78125)"/>
      <use xlink:href="#DejaVuSans-30" transform="translate(206.298828 0.78125)"/>
      <use xlink:href="#DejaVuSans-2e" transform="translate(269.921875 0.78125)"/>
      <use xlink:href="#DejaVuSans-30" transform="translate(301.708984 0.78125)"/>
      <use xlink:href="#DejaVuSans-32" transform="translate(365.332031 0.78125)"/>
     </g>
    </g>
    <g id="line2d_35">
     <path d="M 226.704 219.8595 
L 236.704 219.8595 
L 246.704 219.8595 
" style="fill: none; stroke: #ff7f0e; stroke-width: 2; stroke-linecap: square"/>
     <g>
      <use xlink:href="#mafafd91197" x="236.704" y="219.8595" style="fill: #ff7f0e; stroke: #ff7f0e; stroke-linejoin: miter"/>
     </g>
    </g>
    <g id="text_15">
     <!-- Constant-edge ($\alpha$ = 0.400) -->
     <g transform="translate(254.704 223.3595) scale(0.1 -0.1)">
      <defs>
       <path id="DejaVuSans-43" d="M 4122 4306 
L 4122 3641 
Q 3803 3938 3442 4084 
Q 3081 4231 2675 4231 
Q 1875 4231 1450 3742 
Q 1025 3253 1025 2328 
Q 1025 1406 1450 917 
Q 1875 428 2675 428 
Q 3081 428 3442 575 
Q 3803 722 4122 1019 
L 4122 359 
Q 3791 134 3420 21 
Q 3050 -91 2638 -91 
Q 1578 -91 968 557 
Q 359 1206 359 2328 
Q 359 3453 968 4101 
Q 1578 4750 2638 4750 
Q 3056 4750 3426 4639 
Q 3797 4528 4122 4306 
z
" transform="scale(0.015625)"/>
       <path id="DejaVuSans-6f" d="M 1959 3097 
Q 1497 3097 1228 2736 
Q 959 2375 959 1747 
Q 959 1119 1226 758 
Q 1494 397 1959 397 
Q 2419 397 2687 759 
Q 2956 1122 2956 1747 
Q 2956 2369 2687 2733 
Q 2419 3097 1959 3097 
z
M 1959 3584 
Q 2709 3584 3137 3096 
Q 3566 2609 3566 1747 
Q 3566 888 3137 398 
Q 2709 -91 1959 -91 
Q 1206 -91 779 398 
Q 353 888 353 1747 
Q 353 2609 779 3096 
Q 1206 3584 1959 3584 
z
" transform="scale(0.015625)"/>
       <path id="DejaVuSans-6e" d="M 3513 2113 
L 3513 0 
L 2938 0 
L 2938 2094 
Q 2938 2591 2744 2837 
Q 2550 3084 2163 3084 
Q 1697 3084 1428 2787 
Q 1159 2491 1159 1978 
L 1159 0 
L 581 0 
L 581 3500 
L 1159 3500 
L 1159 2956 
Q 1366 3272 1645 3428 
Q 1925 3584 2291 3584 
Q 2894 3584 3203 3211 
Q 3513 2838 3513 2113 
z
" transform="scale(0.015625)"/>
       <path id="DejaVuSans-73" d="M 2834 3397 
L 2834 2853 
Q 2591 2978 2328 3040 
Q 2066 3103 1784 3103 
Q 1356 3103 1142 2972 
Q 928 2841 928 2578 
Q 928 2378 1081 2264 
Q 1234 2150 1697 2047 
L 1894 2003 
Q 2506 1872 2764 1633 
Q 3022 1394 3022 966 
Q 3022 478 2636 193 
Q 2250 -91 1575 -91 
Q 1294 -91 989 -36 
Q 684 19 347 128 
L 347 722 
Q 666 556 975 473 
Q 1284 391 1588 391 
Q 1994 391 2212 530 
Q 2431 669 2431 922 
Q 2431 1156 2273 1281 
Q 2116 1406 1581 1522 
L 1381 1569 
Q 847 1681 609 1914 
Q 372 2147 372 2553 
Q 372 3047 722 3315 
Q 1072 3584 1716 3584 
Q 2034 3584 2315 3537 
Q 2597 3491 2834 3397 
z
" transform="scale(0.015625)"/>
       <path id="DejaVuSans-74" d="M 1172 4494 
L 1172 3500 
L 2356 3500 
L 2356 3053 
L 1172 3053 
L 1172 1153 
Q 1172 725 1289 603 
Q 1406 481 1766 481 
L 2356 481 
L 2356 0 
L 1766 0 
Q 1100 0 847 248 
Q 594 497 594 1153 
L 594 3053 
L 172 3053 
L 172 3500 
L 594 3500 
L 594 4494 
L 1172 4494 
z
" transform="scale(0.015625)"/>
       <path id="DejaVuSans-61" d="M 2194 1759 
Q 1497 1759 1228 1600 
Q 959 1441 959 1056 
Q 959 750 1161 570 
Q 1363 391 1709 391 
Q 2188 391 2477 730 
Q 2766 1069 2766 1631 
L 2766 1759 
L 2194 1759 
z
M 3341 1997 
L 3341 0 
L 2766 0 
L 2766 531 
Q 2569 213 2275 61 
Q 1981 -91 1556 -91 
Q 1019 -91 701 211 
Q 384 513 384 1019 
Q 384 1609 779 1909 
Q 1175 2209 1959 2209 
L 2766 2209 
L 2766 2266 
Q 2766 2663 2505 2880 
Q 2244 3097 1772 3097 
Q 1472 3097 1187 3025 
Q 903 2953 641 2809 
L 641 3341 
Q 956 3463 1253 3523 
Q 1550 3584 1831 3584 
Q 2591 3584 2966 3190 
Q 3341 2797 3341 1997 
z
" transform="scale(0.015625)"/>
       <path id="DejaVuSans-2d" d="M 313 2009 
L 1997 2009 
L 1997 1497 
L 313 1497 
L 313 2009 
z
" transform="scale(0.015625)"/>
       <path id="DejaVuSans-65" d="M 3597 1894 
L 3597 1613 
L 953 1613 
Q 991 1019 1311 708 
Q 1631 397 2203 397 
Q 2534 397 2845 478 
Q 3156 559 3463 722 
L 3463 178 
Q 3153 47 2828 -22 
Q 2503 -91 2169 -91 
Q 1331 -91 842 396 
Q 353 884 353 1716 
Q 353 2575 817 3079 
Q 1281 3584 2069 3584 
Q 2775 3584 3186 3129 
Q 3597 2675 3597 1894 
z
M 3022 2063 
Q 3016 2534 2758 2815 
Q 2500 3097 2075 3097 
Q 1594 3097 1305 2825 
Q 1016 2553 972 2059 
L 3022 2063 
z
" transform="scale(0.015625)"/>
       <path id="DejaVuSans-64" d="M 2906 2969 
L 2906 4863 
L 3481 4863 
L 3481 0 
L 2906 0 
L 2906 525 
Q 2725 213 2448 61 
Q 2172 -91 1784 -91 
Q 1150 -91 751 415 
Q 353 922 353 1747 
Q 353 2572 751 3078 
Q 1150 3584 1784 3584 
Q 2172 3584 2448 3432 
Q 2725 3281 2906 2969 
z
M 947 1747 
Q 947 1113 1208 752 
Q 1469 391 1925 391 
Q 2381 391 2643 752 
Q 2906 1113 2906 1747 
Q 2906 2381 2643 2742 
Q 2381 3103 1925 3103 
Q 1469 3103 1208 2742 
Q 947 2381 947 1747 
z
" transform="scale(0.015625)"/>
       <path id="DejaVuSans-67" d="M 2906 1791 
Q 2906 2416 2648 2759 
Q 2391 3103 1925 3103 
Q 1463 3103 1205 2759 
Q 947 2416 947 1791 
Q 947 1169 1205 825 
Q 1463 481 1925 481 
Q 2391 481 2648 825 
Q 2906 1169 2906 1791 
z
M 3481 434 
Q 3481 -459 3084 -895 
Q 2688 -1331 1869 -1331 
Q 1566 -1331 1297 -1286 
Q 1028 -1241 775 -1147 
L 775 -588 
Q 1028 -725 1275 -790 
Q 1522 -856 1778 -856 
Q 2344 -856 2625 -561 
Q 2906 -266 2906 331 
L 2906 616 
Q 2728 306 2450 153 
Q 2172 0 1784 0 
Q 1141 0 747 490 
Q 353 981 353 1791 
Q 353 2603 747 3093 
Q 1141 3584 1784 3584 
Q 2172 3584 2450 3431 
Q 2728 3278 2906 2969 
L 2906 3500 
L 3481 3500 
L 3481 434 
z
" transform="scale(0.015625)"/>
       <path id="DejaVuSans-28" d="M 1984 4856 
Q 1566 4138 1362 3434 
Q 1159 2731 1159 2009 
Q 1159 1288 1364 580 
Q 1569 -128 1984 -844 
L 1484 -844 
Q 1016 -109 783 600 
Q 550 1309 550 2009 
Q 550 2706 781 3412 
Q 1013 4119 1484 4856 
L 1984 4856 
z
" transform="scale(0.015625)"/>
       <path id="DejaVuSans-Oblique-3b1" d="M 2619 1628 
L 2622 2350 
Q 2625 3088 2069 3091 
Q 1653 3094 1394 2747 
Q 1069 2319 959 1747 
Q 825 1059 994 731 
Q 1169 397 1547 397 
Q 1966 397 2319 1063 
L 2619 1628 
z
M 2166 3578 
Q 3141 3594 3128 2584 
Q 3128 2584 3616 3500 
L 4128 3500 
L 3119 1603 
L 3109 919 
Q 3109 766 3194 638 
Q 3291 488 3391 488 
L 3669 488 
L 3575 0 
L 3228 0 
Q 2934 0 2722 263 
Q 2622 394 2619 669 
Q 2416 334 2066 50 
Q 1900 -81 1453 -78 
Q 722 -72 456 397 
Q 184 884 353 1747 
Q 534 2675 1009 3097 
Q 1544 3569 2166 3578 
z
" transform="scale(0.015625)"/>
       <path id="DejaVuSans-29" d="M 513 4856 
L 1013 4856 
Q 1481 4119 1714 3412 
Q 1947 2706 1947 2009 
Q 1947 1309 1714 600 
Q 1481 -109 1013 -844 
L 513 -844 
Q 928 -128 1133 580 
Q 1338 1288 1338 2009 
Q 1338 2731 1133 3434 
Q 928 4138 513 4856 
z
" transform="scale(0.015625)"/>
      </defs>
      <use xlink:href="#DejaVuSans-43" transform="translate(0 0.015625)"/>
      <use xlink:href="#DejaVuSans-6f" transform="translate(69.824219 0.015625)"/>
      <use xlink:href="#DejaVuSans-6e" transform="translate(131.005859 0.015625)"/>
      <use xlink:href="#DejaVuSans-73" transform="translate(194.384766 0.015625)"/>
      <use xlink:href="#DejaVuSans-74" transform="translate(246.484375 0.015625)"/>
      <use xlink:href="#DejaVuSans-61" transform="translate(285.693359 0.015625)"/>
      <use xlink:href="#DejaVuSans-6e" transform="translate(346.972656 0.015625)"/>
      <use xlink:href="#DejaVuSans-74" transform="translate(410.351562 0.015625)"/>
      <use xlink:href="#DejaVuSans-2d" transform="translate(449.560547 0.015625)"/>
      <use xlink:href="#DejaVuSans-65" transform="translate(485.644531 0.015625)"/>
      <use xlink:href="#DejaVuSans-64" transform="translate(547.167969 0.015625)"/>
      <use xlink:href="#DejaVuSans-67" transform="translate(610.644531 0.015625)"/>
      <use xlink:href="#DejaVuSans-65" transform="translate(674.121094 0.015625)"/>
      <use xlink:href="#DejaVuSans-20" transform="translate(735.644531 0.015625)"/>
      <use xlink:href="#DejaVuSans-28" transform="translate(767.431641 0.015625)"/>
      <use xlink:href="#DejaVuSans-Oblique-3b1" transform="translate(806.445312 0.015625)"/>
      <use xlink:href="#DejaVuSans-20" transform="translate(872.363281 0.015625)"/>
      <use xlink:href="#DejaVuSans-3d" transform="translate(904.150391 0.015625)"/>
      <use xlink:href="#DejaVuSans-20" transform="translate(987.939453 0.015625)"/>
      <use xlink:href="#DejaVuSans-30" transform="translate(1019.726562 0.015625)"/>
      <use xlink:href="#DejaVuSans-2e" transform="translate(1083.349609 0.015625)"/>
      <use xlink:href="#DejaVuSans-34" transform="translate(1115.136719 0.015625)"/>
      <use xlink:href="#DejaVuSans-30" transform="translate(1178.759766 0.015625)"/>
      <use xlink:href="#DejaVuSans-30" transform="translate(1242.382812 0.015625)"/>
      <use xlink:href="#DejaVuSans-29" transform="translate(1306.005859 0.015625)"/>
     </g>
    </g>
    <g id="line2d_36">
     <path d="M 226.704 234.5595 
L 236.704 234.5595 
L 246.704 234.5595 
" style="fill: none; stroke: #2ca02c; stroke-width: 2; stroke-linecap: square"/>
     <g>
      <use xlink:href="#m827056c692" x="236.704" y="234.5595" style="fill: #2ca02c; stroke: #2ca02c; stroke-linejoin: miter"/>
     </g>
    </g>
    <g id="text_16">
     <!-- Maximum-degree ($\alpha$ = 0.500) -->
     <g transform="translate(254.704 238.0595) scale(0.1 -0.1)">
      <defs>
       <path id="DejaVuSans-4d" d="M 628 4666 
L 1569 4666 
L 2759 1491 
L 3956 4666 
L 4897 4666 
L 4897 0 
L 4281 0 
L 4281 4097 
L 3078 897 
L 2444 897 
L 1241 4097 
L 1241 0 
L 628 0 
L 628 4666 
z
" transform="scale(0.015625)"/>
       <path id="DejaVuSans-78" d="M 3513 3500 
L 2247 1797 
L 3578 0 
L 2900 0 
L 1881 1375 
L 863 0 
L 184 0 
L 1544 1831 
L 300 3500 
L 978 3500 
L 1906 2253 
L 2834 3500 
L 3513 3500 
z
" transform="scale(0.015625)"/>
       <path id="DejaVuSans-69" d="M 603 3500 
L 1178 3500 
L 1178 0 
L 603 0 
L 603 3500 
z
M 603 4863 
L 1178 4863 
L 1178 4134 
L 603 4134 
L 603 4863 
z
" transform="scale(0.015625)"/>
       <path id="DejaVuSans-6d" d="M 3328 2828 
Q 3544 3216 3844 3400 
Q 4144 3584 4550 3584 
Q 5097 3584 5394 3201 
Q 5691 2819 5691 2113 
L 5691 0 
L 5113 0 
L 5113 2094 
Q 5113 2597 4934 2840 
Q 4756 3084 4391 3084 
Q 3944 3084 3684 2787 
Q 3425 2491 3425 1978 
L 3425 0 
L 2847 0 
L 2847 2094 
Q 2847 2600 2669 2842 
Q 2491 3084 2119 3084 
Q 1678 3084 1418 2786 
Q 1159 2488 1159 1978 
L 1159 0 
L 581 0 
L 581 3500 
L 1159 3500 
L 1159 2956 
Q 1356 3278 1631 3431 
Q 1906 3584 2284 3584 
Q 2666 3584 2933 3390 
Q 3200 3197 3328 2828 
z
" transform="scale(0.015625)"/>
       <path id="DejaVuSans-75" d="M 544 1381 
L 544 3500 
L 1119 3500 
L 1119 1403 
Q 1119 906 1312 657 
Q 1506 409 1894 409 
Q 2359 409 2629 706 
Q 2900 1003 2900 1516 
L 2900 3500 
L 3475 3500 
L 3475 0 
L 2900 0 
L 2900 538 
Q 2691 219 2414 64 
Q 2138 -91 1772 -91 
Q 1169 -91 856 284 
Q 544 659 544 1381 
z
M 1991 3584 
L 1991 3584 
z
" transform="scale(0.015625)"/>
       <path id="DejaVuSans-72" d="M 2631 2963 
Q 2534 3019 2420 3045 
Q 2306 3072 2169 3072 
Q 1681 3072 1420 2755 
Q 1159 2438 1159 1844 
L 1159 0 
L 581 0 
L 581 3500 
L 1159 3500 
L 1159 2956 
Q 1341 3275 1631 3429 
Q 1922 3584 2338 3584 
Q 2397 3584 2469 3576 
Q 2541 3569 2628 3553 
L 2631 2963 
z
" transform="scale(0.015625)"/>
      </defs>
      <use xlink:href="#DejaVuSans-4d" transform="translate(0 0.015625)"/>
      <use xlink:href="#DejaVuSans-61" transform="translate(86.279297 0.015625)"/>
      <use xlink:href="#DejaVuSans-78" transform="translate(147.558594 0.015625)"/>
      <use xlink:href="#DejaVuSans-69" transform="translate(206.738281 0.015625)"/>
      <use xlink:href="#DejaVuSans-6d" transform="translate(234.521484 0.015625)"/>
      <use xlink:href="#DejaVuSans-75" transform="translate(331.933594 0.015625)"/>
      <use xlink:href="#DejaVuSans-6d" transform="translate(395.3125 0.015625)"/>
      <use xlink:href="#DejaVuSans-2d" transform="translate(490.974609 0.015625)"/>
      <use xlink:href="#DejaVuSans-64" transform="translate(527.058594 0.015625)"/>
      <use xlink:href="#DejaVuSans-65" transform="translate(590.535156 0.015625)"/>
      <use xlink:href="#DejaVuSans-67" transform="translate(652.058594 0.015625)"/>
      <use xlink:href="#DejaVuSans-72" transform="translate(715.535156 0.015625)"/>
      <use xlink:href="#DejaVuSans-65" transform="translate(756.648438 0.015625)"/>
      <use xlink:href="#DejaVuSans-65" transform="translate(818.171875 0.015625)"/>
      <use xlink:href="#DejaVuSans-20" transform="translate(879.695312 0.015625)"/>
      <use xlink:href="#DejaVuSans-28" transform="translate(911.482422 0.015625)"/>
      <use xlink:href="#DejaVuSans-Oblique-3b1" transform="translate(950.496094 0.015625)"/>
      <use xlink:href="#DejaVuSans-20" transform="translate(1016.414062 0.015625)"/>
      <use xlink:href="#DejaVuSans-3d" transform="translate(1048.201172 0.015625)"/>
      <use xlink:href="#DejaVuSans-20" transform="translate(1131.990234 0.015625)"/>
      <use xlink:href="#DejaVuSans-30" transform="translate(1163.777344 0.015625)"/>
      <use xlink:href="#DejaVuSans-2e" transform="translate(1227.400391 0.015625)"/>
      <use xlink:href="#DejaVuSans-35" transform="translate(1259.1875 0.015625)"/>
      <use xlink:href="#DejaVuSans-30" transform="translate(1322.810547 0.015625)"/>
      <use xlink:href="#DejaVuSans-30" transform="translate(1386.433594 0.015625)"/>
      <use xlink:href="#DejaVuSans-29" transform="translate(1450.056641 0.015625)"/>
     </g>
    </g>
    <g id="line2d_37">
     <path d="M 226.704 249.257937 
L 236.704 249.257937 
L 246.704 249.257937 
" style="fill: none; stroke: #d62728; stroke-width: 2; stroke-linecap: square"/>
     <g>
      <use xlink:href="#mf8141437df" x="236.704" y="249.257937" style="fill: #d62728; stroke: #d62728"/>
     </g>
    </g>
    <g id="text_17">
     <!-- Local-degree -->
     <g transform="translate(254.704 252.757937) scale(0.1 -0.1)">
      <defs>
       <path id="DejaVuSans-4c" d="M 628 4666 
L 1259 4666 
L 1259 531 
L 3531 531 
L 3531 0 
L 628 0 
L 628 4666 
z
" transform="scale(0.015625)"/>
       <path id="DejaVuSans-63" d="M 3122 3366 
L 3122 2828 
Q 2878 2963 2633 3030 
Q 2388 3097 2138 3097 
Q 1578 3097 1268 2742 
Q 959 2388 959 1747 
Q 959 1106 1268 751 
Q 1578 397 2138 397 
Q 2388 397 2633 464 
Q 2878 531 3122 666 
L 3122 134 
Q 2881 22 2623 -34 
Q 2366 -91 2075 -91 
Q 1284 -91 818 406 
Q 353 903 353 1747 
Q 353 2603 823 3093 
Q 1294 3584 2113 3584 
Q 2378 3584 2631 3529 
Q 2884 3475 3122 3366 
z
" transform="scale(0.015625)"/>
       <path id="DejaVuSans-6c" d="M 603 4863 
L 1178 4863 
L 1178 0 
L 603 0 
L 603 4863 
z
" transform="scale(0.015625)"/>
      </defs>
      <use xlink:href="#DejaVuSans-4c"/>
      <use xlink:href="#DejaVuSans-6f" x="53.962891"/>
      <use xlink:href="#DejaVuSans-63" x="115.144531"/>
      <use xlink:href="#DejaVuSans-61" x="170.125"/>
      <use xlink:href="#DejaVuSans-6c" x="231.404297"/>
      <use xlink:href="#DejaVuSans-2d" x="259.1875"/>
      <use xlink:href="#DejaVuSans-64" x="295.271484"/>
      <use xlink:href="#DejaVuSans-65" x="358.748047"/>
      <use xlink:href="#DejaVuSans-67" x="420.271484"/>
      <use xlink:href="#DejaVuSans-72" x="483.748047"/>
      <use xlink:href="#DejaVuSans-65" x="522.611328"/>
      <use xlink:href="#DejaVuSans-65" x="584.134766"/>
     </g>
    </g>
    <g id="line2d_38">
     <path d="M 226.704 263.936062 
L 236.704 263.936062 
L 246.704 263.936062 
" style="fill: none; stroke: #9467bd; stroke-width: 2; stroke-linecap: square"/>
     <g>
      <use xlink:href="#m970fe86823" x="236.704" y="263.936062" style="fill: #9467bd; stroke: #9467bd; stroke-linejoin: miter"/>
     </g>
    </g>
    <g id="text_18">
     <!-- FMMC -->
     <g transform="translate(254.704 267.436062) scale(0.1 -0.1)">
      <defs>
       <path id="DejaVuSans-46" d="M 628 4666 
L 3309 4666 
L 3309 4134 
L 1259 4134 
L 1259 2759 
L 3109 2759 
L 3109 2228 
L 1259 2228 
L 1259 0 
L 628 0 
L 628 4666 
z
" transform="scale(0.015625)"/>
      </defs>
      <use xlink:href="#DejaVuSans-46"/>
      <use xlink:href="#DejaVuSans-4d" x="57.519531"/>
      <use xlink:href="#DejaVuSans-4d" x="143.798828"/>
      <use xlink:href="#DejaVuSans-43" x="230.078125"/>
     </g>
    </g>
    <g id="line2d_39">
     <path d="M 226.704 278.614187 
L 236.704 278.614187 
L 246.704 278.614187 
" style="fill: none; stroke: #8c564b; stroke-width: 2; stroke-linecap: square"/>
     <g>
      <use xlink:href="#m78d57315a7" x="236.704" y="278.614187" style="fill: #8c564b; stroke: #8c564b; stroke-linejoin: miter"/>
     </g>
    </g>
    <g id="text_19">
     <!-- FDLA -->
     <g transform="translate(254.704 282.114187) scale(0.1 -0.1)">
      <defs>
       <path id="DejaVuSans-44" d="M 1259 4147 
L 1259 519 
L 2022 519 
Q 2988 519 3436 956 
Q 3884 1394 3884 2338 
Q 3884 3275 3436 3711 
Q 2988 4147 2022 4147 
L 1259 4147 
z
M 628 4666 
L 1925 4666 
Q 3281 4666 3915 4102 
Q 4550 3538 4550 2338 
Q 4550 1131 3912 565 
Q 3275 0 1925 0 
L 628 0 
L 628 4666 
z
" transform="scale(0.015625)"/>
       <path id="DejaVuSans-41" d="M 2188 4044 
L 1331 1722 
L 3047 1722 
L 2188 4044 
z
M 1831 4666 
L 2547 4666 
L 4325 0 
L 3669 0 
L 3244 1197 
L 1141 1197 
L 716 0 
L 50 0 
L 1831 4666 
z
" transform="scale(0.015625)"/>
      </defs>
      <use xlink:href="#DejaVuSans-46"/>
      <use xlink:href="#DejaVuSans-44" x="57.519531"/>
      <use xlink:href="#DejaVuSans-4c" x="134.521484"/>
      <use xlink:href="#DejaVuSans-41" x="192.484375"/>
     </g>
    </g>
    <g id="line2d_40">
     <path d="M 226.704 293.292312 
L 236.704 293.292312 
L 246.704 293.292312 
" style="fill: none; stroke: #e377c2; stroke-width: 2; stroke-linecap: square"/>
     <g>
      <use xlink:href="#m88c7f8a3ee" x="236.704" y="293.292312" style="fill: #e377c2; stroke: #e377c2"/>
     </g>
    </g>
    <g id="text_20">
     <!-- LMSC -->
     <g transform="translate(254.704 296.792312) scale(0.1 -0.1)">
      <defs>
       <path id="DejaVuSans-53" d="M 3425 4513 
L 3425 3897 
Q 3066 4069 2747 4153 
Q 2428 4238 2131 4238 
Q 1616 4238 1336 4038 
Q 1056 3838 1056 3469 
Q 1056 3159 1242 3001 
Q 1428 2844 1947 2747 
L 2328 2669 
Q 3034 2534 3370 2195 
Q 3706 1856 3706 1288 
Q 3706 609 3251 259 
Q 2797 -91 1919 -91 
Q 1588 -91 1214 -16 
Q 841 59 441 206 
L 441 856 
Q 825 641 1194 531 
Q 1563 422 1919 422 
Q 2459 422 2753 634 
Q 3047 847 3047 1241 
Q 3047 1584 2836 1778 
Q 2625 1972 2144 2069 
L 1759 2144 
Q 1053 2284 737 2584 
Q 422 2884 422 3419 
Q 422 4038 858 4394 
Q 1294 4750 2059 4750 
Q 2388 4750 2728 4690 
Q 3069 4631 3425 4513 
z
" transform="scale(0.015625)"/>
      </defs>
      <use xlink:href="#DejaVuSans-4c"/>
      <use xlink:href="#DejaVuSans-4d" x="55.712891"/>
      <use xlink:href="#DejaVuSans-53" x="141.992188"/>
      <use xlink:href="#DejaVuSans-43" x="205.46875"/>
     </g>
    </g>
   </g>
  </g>
  <g id="text_21">
   <!-- Ring network, 10000 runs, 500 timesteps, 10 arms, 5 agents -->
   <g transform="translate(45.465563 16.318125) scale(0.12 -0.12)">
    <defs>
     <path id="DejaVuSans-52" d="M 2841 2188 
Q 3044 2119 3236 1894 
Q 3428 1669 3622 1275 
L 4263 0 
L 3584 0 
L 2988 1197 
Q 2756 1666 2539 1819 
Q 2322 1972 1947 1972 
L 1259 1972 
L 1259 0 
L 628 0 
L 628 4666 
L 2053 4666 
Q 2853 4666 3247 4331 
Q 3641 3997 3641 3322 
Q 3641 2881 3436 2590 
Q 3231 2300 2841 2188 
z
M 1259 4147 
L 1259 2491 
L 2053 2491 
Q 2509 2491 2742 2702 
Q 2975 2913 2975 3322 
Q 2975 3731 2742 3939 
Q 2509 4147 2053 4147 
L 1259 4147 
z
" transform="scale(0.015625)"/>
     <path id="DejaVuSans-77" d="M 269 3500 
L 844 3500 
L 1563 769 
L 2278 3500 
L 2956 3500 
L 3675 769 
L 4391 3500 
L 4966 3500 
L 4050 0 
L 3372 0 
L 2619 2869 
L 1863 0 
L 1184 0 
L 269 3500 
z
" transform="scale(0.015625)"/>
     <path id="DejaVuSans-6b" d="M 581 4863 
L 1159 4863 
L 1159 1991 
L 2875 3500 
L 3609 3500 
L 1753 1863 
L 3688 0 
L 2938 0 
L 1159 1709 
L 1159 0 
L 581 0 
L 581 4863 
z
" transform="scale(0.015625)"/>
     <path id="DejaVuSans-2c" d="M 750 794 
L 1409 794 
L 1409 256 
L 897 -744 
L 494 -744 
L 750 256 
L 750 794 
z
" transform="scale(0.015625)"/>
     <path id="DejaVuSans-70" d="M 1159 525 
L 1159 -1331 
L 581 -1331 
L 581 3500 
L 1159 3500 
L 1159 2969 
Q 1341 3281 1617 3432 
Q 1894 3584 2278 3584 
Q 2916 3584 3314 3078 
Q 3713 2572 3713 1747 
Q 3713 922 3314 415 
Q 2916 -91 2278 -91 
Q 1894 -91 1617 61 
Q 1341 213 1159 525 
z
M 3116 1747 
Q 3116 2381 2855 2742 
Q 2594 3103 2138 3103 
Q 1681 3103 1420 2742 
Q 1159 2381 1159 1747 
Q 1159 1113 1420 752 
Q 1681 391 2138 391 
Q 2594 391 2855 752 
Q 3116 1113 3116 1747 
z
" transform="scale(0.015625)"/>
    </defs>
    <use xlink:href="#DejaVuSans-52"/>
    <use xlink:href="#DejaVuSans-69" x="69.482422"/>
    <use xlink:href="#DejaVuSans-6e" x="97.265625"/>
    <use xlink:href="#DejaVuSans-67" x="160.644531"/>
    <use xlink:href="#DejaVuSans-20" x="224.121094"/>
    <use xlink:href="#DejaVuSans-6e" x="255.908203"/>
    <use xlink:href="#DejaVuSans-65" x="319.287109"/>
    <use xlink:href="#DejaVuSans-74" x="380.810547"/>
    <use xlink:href="#DejaVuSans-77" x="420.019531"/>
    <use xlink:href="#DejaVuSans-6f" x="501.806641"/>
    <use xlink:href="#DejaVuSans-72" x="562.988281"/>
    <use xlink:href="#DejaVuSans-6b" x="604.101562"/>
    <use xlink:href="#DejaVuSans-2c" x="662.011719"/>
    <use xlink:href="#DejaVuSans-20" x="693.798828"/>
    <use xlink:href="#DejaVuSans-31" x="725.585938"/>
    <use xlink:href="#DejaVuSans-30" x="789.208984"/>
    <use xlink:href="#DejaVuSans-30" x="852.832031"/>
    <use xlink:href="#DejaVuSans-30" x="916.455078"/>
    <use xlink:href="#DejaVuSans-30" x="980.078125"/>
    <use xlink:href="#DejaVuSans-20" x="1043.701172"/>
    <use xlink:href="#DejaVuSans-72" x="1075.488281"/>
    <use xlink:href="#DejaVuSans-75" x="1116.601562"/>
    <use xlink:href="#DejaVuSans-6e" x="1179.980469"/>
    <use xlink:href="#DejaVuSans-73" x="1243.359375"/>
    <use xlink:href="#DejaVuSans-2c" x="1295.458984"/>
    <use xlink:href="#DejaVuSans-20" x="1327.246094"/>
    <use xlink:href="#DejaVuSans-35" x="1359.033203"/>
    <use xlink:href="#DejaVuSans-30" x="1422.65625"/>
    <use xlink:href="#DejaVuSans-30" x="1486.279297"/>
    <use xlink:href="#DejaVuSans-20" x="1549.902344"/>
    <use xlink:href="#DejaVuSans-74" x="1581.689453"/>
    <use xlink:href="#DejaVuSans-69" x="1620.898438"/>
    <use xlink:href="#DejaVuSans-6d" x="1648.681641"/>
    <use xlink:href="#DejaVuSans-65" x="1746.09375"/>
    <use xlink:href="#DejaVuSans-73" x="1807.617188"/>
    <use xlink:href="#DejaVuSans-74" x="1859.716797"/>
    <use xlink:href="#DejaVuSans-65" x="1898.925781"/>
    <use xlink:href="#DejaVuSans-70" x="1960.449219"/>
    <use xlink:href="#DejaVuSans-73" x="2023.925781"/>
    <use xlink:href="#DejaVuSans-2c" x="2076.025391"/>
    <use xlink:href="#DejaVuSans-20" x="2107.8125"/>
    <use xlink:href="#DejaVuSans-31" x="2139.599609"/>
    <use xlink:href="#DejaVuSans-30" x="2203.222656"/>
    <use xlink:href="#DejaVuSans-20" x="2266.845703"/>
    <use xlink:href="#DejaVuSans-61" x="2298.632812"/>
    <use xlink:href="#DejaVuSans-72" x="2359.912109"/>
    <use xlink:href="#DejaVuSans-6d" x="2399.275391"/>
    <use xlink:href="#DejaVuSans-73" x="2496.6875"/>
    <use xlink:href="#DejaVuSans-2c" x="2548.787109"/>
    <use xlink:href="#DejaVuSans-20" x="2580.574219"/>
    <use xlink:href="#DejaVuSans-35" x="2612.361328"/>
    <use xlink:href="#DejaVuSans-20" x="2675.984375"/>
    <use xlink:href="#DejaVuSans-61" x="2707.771484"/>
    <use xlink:href="#DejaVuSans-67" x="2769.050781"/>
    <use xlink:href="#DejaVuSans-65" x="2832.527344"/>
    <use xlink:href="#DejaVuSans-6e" x="2894.050781"/>
    <use xlink:href="#DejaVuSans-74" x="2957.429688"/>
    <use xlink:href="#DejaVuSans-73" x="2996.638672"/>
   </g>
  </g>
  <g id="text_22">
   <!-- Timesteps -->
   <g transform="translate(197.599313 339.936375) scale(0.12 -0.12)">
    <defs>
     <path id="DejaVuSans-54" d="M -19 4666 
L 3928 4666 
L 3928 4134 
L 2272 4134 
L 2272 0 
L 1638 0 
L 1638 4134 
L -19 4134 
L -19 4666 
z
" transform="scale(0.015625)"/>
    </defs>
    <use xlink:href="#DejaVuSans-54"/>
    <use xlink:href="#DejaVuSans-69" x="57.958984"/>
    <use xlink:href="#DejaVuSans-6d" x="85.742188"/>
    <use xlink:href="#DejaVuSans-65" x="183.154297"/>
    <use xlink:href="#DejaVuSans-73" x="244.677734"/>
    <use xlink:href="#DejaVuSans-74" x="296.777344"/>
    <use xlink:href="#DejaVuSans-65" x="335.986328"/>
    <use xlink:href="#DejaVuSans-70" x="397.509766"/>
    <use xlink:href="#DejaVuSans-73" x="460.986328"/>
   </g>
  </g>
  <g id="text_23">
   <!-- Regret -->
   <g transform="translate(16.318125 192.863625) rotate(-90) scale(0.12 -0.12)">
    <use xlink:href="#DejaVuSans-52"/>
    <use xlink:href="#DejaVuSans-65" x="64.982422"/>
    <use xlink:href="#DejaVuSans-67" x="126.505859"/>
    <use xlink:href="#DejaVuSans-72" x="189.982422"/>
    <use xlink:href="#DejaVuSans-65" x="228.845703"/>
    <use xlink:href="#DejaVuSans-74" x="290.369141"/>
   </g>
  </g>
 </g>
 <defs>
  <clipPath id="p5c7672836a">
   <rect x="55.584" y="41.76" width="357.12" height="266.112"/>
  </clipPath>
 </defs>
</svg>
