<?xml version="1.0" encoding="utf-8" standalone="no"?>
<!DOCTYPE svg PUBLIC "-//W3C//DTD SVG 1.1//EN"
  "http://www.w3.org/Graphics/SVG/1.1/DTD/svg11.dtd">
<svg xmlns:xlink="http://www.w3.org/1999/xlink" width="421.811252pt" height="315.072pt" viewBox="0 0 421.811252 315.072" xmlns="http://www.w3.org/2000/svg" version="1.1">
 <metadata>
  <rdf:RDF xmlns:dc="http://purl.org/dc/elements/1.1/" xmlns:cc="http://creativecommons.org/ns#" xmlns:rdf="http://www.w3.org/1999/02/22-rdf-syntax-ns#">
   <cc:Work>
    <dc:type rdf:resource="http://purl.org/dc/dcmitype/StillImage"/>
    <dc:date>2024-04-17T18:36:38.266087</dc:date>
    <dc:format>image/svg+xml</dc:format>
    <dc:creator>
     <cc:Agent>
      <dc:title>Matplotlib v3.8.3, https://matplotlib.org/</dc:title>
     </cc:Agent>
    </dc:creator>
   </cc:Work>
  </rdf:RDF>
 </metadata>
 <defs>
  <style type="text/css">*{stroke-linejoin: round; stroke-linecap: butt}</style>
 </defs>
 <g id="figure_1">
  <g id="patch_1">
   <path d="M 0 315.072 
L 421.811252 315.072 
L 421.811252 0 
L 0 0 
z
" style="fill: #ffffff"/>
  </g>
  <g id="axes_1">
   <g id="patch_2">
    <path d="M 55.584 273.312 
L 412.704 273.312 
L 412.704 7.2 
L 55.584 7.2 
z
" style="fill: #ffffff"/>
   </g>
   <g id="PolyCollection_1">
    <path d="M 80.266195 19.296 
L 80.266195 259.241818 
L 393.871437 259.241818 
L 393.871437 19.296 
L 393.871437 19.296 
L 80.266195 19.296 
z
" clip-path="url(#p3d93527334)" style="fill-opacity: 0.2"/>
   </g>
   <g id="matplotlib.axis_1">
    <g id="xtick_1">
     <g id="line2d_1">
      <path d="M 71.816727 273.312 
L 71.816727 7.2 
" clip-path="url(#p3d93527334)" style="fill: none; stroke: #b0b0b0; stroke-width: 0.8; stroke-linecap: square"/>
     </g>
     <g id="line2d_2">
      <defs>
       <path id="m1517c45104" d="M 0 0 
L 0 3.5 
" style="stroke: #000000; stroke-width: 0.8"/>
      </defs>
      <g>
       <use xlink:href="#m1517c45104" x="71.816727" y="273.312" style="stroke: #000000; stroke-width: 0.8"/>
      </g>
     </g>
     <g id="text_1">
      <!-- 0 -->
      <g transform="translate(67.362977 290.949812) scale(0.14 -0.14)">
       <defs>
        <path id="DejaVuSans-30" d="M 2034 4250 
Q 1547 4250 1301 3770 
Q 1056 3291 1056 2328 
Q 1056 1369 1301 889 
Q 1547 409 2034 409 
Q 2525 409 2770 889 
Q 3016 1369 3016 2328 
Q 3016 3291 2770 3770 
Q 2525 4250 2034 4250 
z
M 2034 4750 
Q 2819 4750 3233 4129 
Q 3647 3509 3647 2328 
Q 3647 1150 3233 529 
Q 2819 -91 2034 -91 
Q 1250 -91 836 529 
Q 422 1150 422 2328 
Q 422 3509 836 4129 
Q 1250 4750 2034 4750 
z
" transform="scale(0.015625)"/>
       </defs>
       <use xlink:href="#DejaVuSans-30"/>
      </g>
     </g>
    </g>
    <g id="xtick_2">
     <g id="line2d_3">
      <path d="M 136.812632 273.312 
L 136.812632 7.2 
" clip-path="url(#p3d93527334)" style="fill: none; stroke: #b0b0b0; stroke-width: 0.8; stroke-linecap: square"/>
     </g>
     <g id="line2d_4">
      <g>
       <use xlink:href="#m1517c45104" x="136.812632" y="273.312" style="stroke: #000000; stroke-width: 0.8"/>
      </g>
     </g>
     <g id="text_2">
      <!-- 200 -->
      <g transform="translate(123.451382 290.949812) scale(0.14 -0.14)">
       <defs>
        <path id="DejaVuSans-32" d="M 1228 531 
L 3431 531 
L 3431 0 
L 469 0 
L 469 531 
Q 828 903 1448 1529 
Q 2069 2156 2228 2338 
Q 2531 2678 2651 2914 
Q 2772 3150 2772 3378 
Q 2772 3750 2511 3984 
Q 2250 4219 1831 4219 
Q 1534 4219 1204 4116 
Q 875 4013 500 3803 
L 500 4441 
Q 881 4594 1212 4672 
Q 1544 4750 1819 4750 
Q 2544 4750 2975 4387 
Q 3406 4025 3406 3419 
Q 3406 3131 3298 2873 
Q 3191 2616 2906 2266 
Q 2828 2175 2409 1742 
Q 1991 1309 1228 531 
z
" transform="scale(0.015625)"/>
       </defs>
       <use xlink:href="#DejaVuSans-32"/>
       <use xlink:href="#DejaVuSans-30" x="63.623047"/>
       <use xlink:href="#DejaVuSans-30" x="127.246094"/>
      </g>
     </g>
    </g>
    <g id="xtick_3">
     <g id="line2d_5">
      <path d="M 201.808537 273.312 
L 201.808537 7.2 
" clip-path="url(#p3d93527334)" style="fill: none; stroke: #b0b0b0; stroke-width: 0.8; stroke-linecap: square"/>
     </g>
     <g id="line2d_6">
      <g>
       <use xlink:href="#m1517c45104" x="201.808537" y="273.312" style="stroke: #000000; stroke-width: 0.8"/>
      </g>
     </g>
     <g id="text_3">
      <!-- 400 -->
      <g transform="translate(188.447287 290.949812) scale(0.14 -0.14)">
       <defs>
        <path id="DejaVuSans-34" d="M 2419 4116 
L 825 1625 
L 2419 1625 
L 2419 4116 
z
M 2253 4666 
L 3047 4666 
L 3047 1625 
L 3713 1625 
L 3713 1100 
L 3047 1100 
L 3047 0 
L 2419 0 
L 2419 1100 
L 313 1100 
L 313 1709 
L 2253 4666 
z
" transform="scale(0.015625)"/>
       </defs>
       <use xlink:href="#DejaVuSans-34"/>
       <use xlink:href="#DejaVuSans-30" x="63.623047"/>
       <use xlink:href="#DejaVuSans-30" x="127.246094"/>
      </g>
     </g>
    </g>
    <g id="xtick_4">
     <g id="line2d_7">
      <path d="M 266.804442 273.312 
L 266.804442 7.2 
" clip-path="url(#p3d93527334)" style="fill: none; stroke: #b0b0b0; stroke-width: 0.8; stroke-linecap: square"/>
     </g>
     <g id="line2d_8">
      <g>
       <use xlink:href="#m1517c45104" x="266.804442" y="273.312" style="stroke: #000000; stroke-width: 0.8"/>
      </g>
     </g>
     <g id="text_4">
      <!-- 600 -->
      <g transform="translate(253.443192 290.949812) scale(0.14 -0.14)">
       <defs>
        <path id="DejaVuSans-36" d="M 2113 2584 
Q 1688 2584 1439 2293 
Q 1191 2003 1191 1497 
Q 1191 994 1439 701 
Q 1688 409 2113 409 
Q 2538 409 2786 701 
Q 3034 994 3034 1497 
Q 3034 2003 2786 2293 
Q 2538 2584 2113 2584 
z
M 3366 4563 
L 3366 3988 
Q 3128 4100 2886 4159 
Q 2644 4219 2406 4219 
Q 1781 4219 1451 3797 
Q 1122 3375 1075 2522 
Q 1259 2794 1537 2939 
Q 1816 3084 2150 3084 
Q 2853 3084 3261 2657 
Q 3669 2231 3669 1497 
Q 3669 778 3244 343 
Q 2819 -91 2113 -91 
Q 1303 -91 875 529 
Q 447 1150 447 2328 
Q 447 3434 972 4092 
Q 1497 4750 2381 4750 
Q 2619 4750 2861 4703 
Q 3103 4656 3366 4563 
z
" transform="scale(0.015625)"/>
       </defs>
       <use xlink:href="#DejaVuSans-36"/>
       <use xlink:href="#DejaVuSans-30" x="63.623047"/>
       <use xlink:href="#DejaVuSans-30" x="127.246094"/>
      </g>
     </g>
    </g>
    <g id="xtick_5">
     <g id="line2d_9">
      <path d="M 331.800347 273.312 
L 331.800347 7.2 
" clip-path="url(#p3d93527334)" style="fill: none; stroke: #b0b0b0; stroke-width: 0.8; stroke-linecap: square"/>
     </g>
     <g id="line2d_10">
      <g>
       <use xlink:href="#m1517c45104" x="331.800347" y="273.312" style="stroke: #000000; stroke-width: 0.8"/>
      </g>
     </g>
     <g id="text_5">
      <!-- 800 -->
      <g transform="translate(318.439097 290.949812) scale(0.14 -0.14)">
       <defs>
        <path id="DejaVuSans-38" d="M 2034 2216 
Q 1584 2216 1326 1975 
Q 1069 1734 1069 1313 
Q 1069 891 1326 650 
Q 1584 409 2034 409 
Q 2484 409 2743 651 
Q 3003 894 3003 1313 
Q 3003 1734 2745 1975 
Q 2488 2216 2034 2216 
z
M 1403 2484 
Q 997 2584 770 2862 
Q 544 3141 544 3541 
Q 544 4100 942 4425 
Q 1341 4750 2034 4750 
Q 2731 4750 3128 4425 
Q 3525 4100 3525 3541 
Q 3525 3141 3298 2862 
Q 3072 2584 2669 2484 
Q 3125 2378 3379 2068 
Q 3634 1759 3634 1313 
Q 3634 634 3220 271 
Q 2806 -91 2034 -91 
Q 1263 -91 848 271 
Q 434 634 434 1313 
Q 434 1759 690 2068 
Q 947 2378 1403 2484 
z
M 1172 3481 
Q 1172 3119 1398 2916 
Q 1625 2713 2034 2713 
Q 2441 2713 2670 2916 
Q 2900 3119 2900 3481 
Q 2900 3844 2670 4047 
Q 2441 4250 2034 4250 
Q 1625 4250 1398 4047 
Q 1172 3844 1172 3481 
z
" transform="scale(0.015625)"/>
       </defs>
       <use xlink:href="#DejaVuSans-38"/>
       <use xlink:href="#DejaVuSans-30" x="63.623047"/>
       <use xlink:href="#DejaVuSans-30" x="127.246094"/>
      </g>
     </g>
    </g>
    <g id="xtick_6">
     <g id="line2d_11">
      <path d="M 396.796252 273.312 
L 396.796252 7.2 
" clip-path="url(#p3d93527334)" style="fill: none; stroke: #b0b0b0; stroke-width: 0.8; stroke-linecap: square"/>
     </g>
     <g id="line2d_12">
      <g>
       <use xlink:href="#m1517c45104" x="396.796252" y="273.312" style="stroke: #000000; stroke-width: 0.8"/>
      </g>
     </g>
     <g id="text_6">
      <!-- 1000 -->
      <g transform="translate(378.981252 290.949812) scale(0.14 -0.14)">
       <defs>
        <path id="DejaVuSans-31" d="M 794 531 
L 1825 531 
L 1825 4091 
L 703 3866 
L 703 4441 
L 1819 4666 
L 2450 4666 
L 2450 531 
L 3481 531 
L 3481 0 
L 794 0 
L 794 531 
z
" transform="scale(0.015625)"/>
       </defs>
       <use xlink:href="#DejaVuSans-31"/>
       <use xlink:href="#DejaVuSans-30" x="63.623047"/>
       <use xlink:href="#DejaVuSans-30" x="127.246094"/>
       <use xlink:href="#DejaVuSans-30" x="190.869141"/>
      </g>
     </g>
    </g>
   </g>
   <g id="matplotlib.axis_2">
    <g id="ytick_1">
     <g id="line2d_13">
      <path d="M 55.584 261.216 
L 412.704 261.216 
" clip-path="url(#p3d93527334)" style="fill: none; stroke: #b0b0b0; stroke-width: 0.8; stroke-linecap: square"/>
     </g>
     <g id="line2d_14">
      <defs>
       <path id="mb8fd988e1d" d="M 0 0 
L -3.5 0 
" style="stroke: #000000; stroke-width: 0.8"/>
      </defs>
      <g>
       <use xlink:href="#mb8fd988e1d" x="55.584" y="261.216" style="stroke: #000000; stroke-width: 0.8"/>
      </g>
     </g>
     <g id="text_7">
      <!-- 0 -->
      <g transform="translate(39.6765 266.534906) scale(0.14 -0.14)">
       <use xlink:href="#DejaVuSans-30"/>
      </g>
     </g>
    </g>
    <g id="ytick_2">
     <g id="line2d_15">
      <path d="M 55.584 221.682949 
L 412.704 221.682949 
" clip-path="url(#p3d93527334)" style="fill: none; stroke: #b0b0b0; stroke-width: 0.8; stroke-linecap: square"/>
     </g>
     <g id="line2d_16">
      <g>
       <use xlink:href="#mb8fd988e1d" x="55.584" y="221.682949" style="stroke: #000000; stroke-width: 0.8"/>
      </g>
     </g>
     <g id="text_8">
      <!-- 20 -->
      <g transform="translate(30.769 227.001855) scale(0.14 -0.14)">
       <use xlink:href="#DejaVuSans-32"/>
       <use xlink:href="#DejaVuSans-30" x="63.623047"/>
      </g>
     </g>
    </g>
    <g id="ytick_3">
     <g id="line2d_17">
      <path d="M 55.584 182.149898 
L 412.704 182.149898 
" clip-path="url(#p3d93527334)" style="fill: none; stroke: #b0b0b0; stroke-width: 0.8; stroke-linecap: square"/>
     </g>
     <g id="line2d_18">
      <g>
       <use xlink:href="#mb8fd988e1d" x="55.584" y="182.149898" style="stroke: #000000; stroke-width: 0.8"/>
      </g>
     </g>
     <g id="text_9">
      <!-- 40 -->
      <g transform="translate(30.769 187.468804) scale(0.14 -0.14)">
       <use xlink:href="#DejaVuSans-34"/>
       <use xlink:href="#DejaVuSans-30" x="63.623047"/>
      </g>
     </g>
    </g>
    <g id="ytick_4">
     <g id="line2d_19">
      <path d="M 55.584 142.616846 
L 412.704 142.616846 
" clip-path="url(#p3d93527334)" style="fill: none; stroke: #b0b0b0; stroke-width: 0.8; stroke-linecap: square"/>
     </g>
     <g id="line2d_20">
      <g>
       <use xlink:href="#mb8fd988e1d" x="55.584" y="142.616846" style="stroke: #000000; stroke-width: 0.8"/>
      </g>
     </g>
     <g id="text_10">
      <!-- 60 -->
      <g transform="translate(30.769 147.935753) scale(0.14 -0.14)">
       <use xlink:href="#DejaVuSans-36"/>
       <use xlink:href="#DejaVuSans-30" x="63.623047"/>
      </g>
     </g>
    </g>
    <g id="ytick_5">
     <g id="line2d_21">
      <path d="M 55.584 103.083795 
L 412.704 103.083795 
" clip-path="url(#p3d93527334)" style="fill: none; stroke: #b0b0b0; stroke-width: 0.8; stroke-linecap: square"/>
     </g>
     <g id="line2d_22">
      <g>
       <use xlink:href="#mb8fd988e1d" x="55.584" y="103.083795" style="stroke: #000000; stroke-width: 0.8"/>
      </g>
     </g>
     <g id="text_11">
      <!-- 80 -->
      <g transform="translate(30.769 108.402701) scale(0.14 -0.14)">
       <use xlink:href="#DejaVuSans-38"/>
       <use xlink:href="#DejaVuSans-30" x="63.623047"/>
      </g>
     </g>
    </g>
    <g id="ytick_6">
     <g id="line2d_23">
      <path d="M 55.584 63.550744 
L 412.704 63.550744 
" clip-path="url(#p3d93527334)" style="fill: none; stroke: #b0b0b0; stroke-width: 0.8; stroke-linecap: square"/>
     </g>
     <g id="line2d_24">
      <g>
       <use xlink:href="#mb8fd988e1d" x="55.584" y="63.550744" style="stroke: #000000; stroke-width: 0.8"/>
      </g>
     </g>
     <g id="text_12">
      <!-- 100 -->
      <g transform="translate(21.8615 68.86965) scale(0.14 -0.14)">
       <use xlink:href="#DejaVuSans-31"/>
       <use xlink:href="#DejaVuSans-30" x="63.623047"/>
       <use xlink:href="#DejaVuSans-30" x="127.246094"/>
      </g>
     </g>
    </g>
    <g id="ytick_7">
     <g id="line2d_25">
      <path d="M 55.584 24.017693 
L 412.704 24.017693 
" clip-path="url(#p3d93527334)" style="fill: none; stroke: #b0b0b0; stroke-width: 0.8; stroke-linecap: square"/>
     </g>
     <g id="line2d_26">
      <g>
       <use xlink:href="#mb8fd988e1d" x="55.584" y="24.017693" style="stroke: #000000; stroke-width: 0.8"/>
      </g>
     </g>
     <g id="text_13">
      <!-- 120 -->
      <g transform="translate(21.8615 29.336599) scale(0.14 -0.14)">
       <use xlink:href="#DejaVuSans-31"/>
       <use xlink:href="#DejaVuSans-32" x="63.623047"/>
       <use xlink:href="#DejaVuSans-30" x="127.246094"/>
      </g>
     </g>
    </g>
   </g>
   <g id="line2d_27">
    <path d="M 71.816727 261.216 
L 74.741543 261.216 
L 75.066523 255.927225 
L 75.391502 256.431716 
L 76.69142 256.766816 
L 77.341379 256.688954 
L 79.291256 256.647411 
L 80.266195 256.6053 
L 87.090765 256.229857 
L 87.740724 256.191817 
L 90.34056 256.104226 
L 92.940396 255.931441 
L 93.265376 255.598012 
L 94.240314 255.551258 
L 94.565294 255.42772 
L 95.215253 255.421438 
L 95.540233 255.294957 
L 96.190192 255.301691 
L 96.515171 253.740458 
L 98.465048 253.908578 
L 98.790028 253.741618 
L 100.089946 253.81381 
L 103.9897 253.971231 
L 107.889455 254.095417 
L 108.864393 254.115376 
L 109.189373 253.964004 
L 111.464229 254.016785 
L 116.663902 254.117053 
L 123.813451 254.090634 
L 129.663083 254.079397 
L 150.461772 254.106814 
L 150.786752 253.752751 
L 156.636383 253.747888 
L 163.785933 253.718675 
L 172.56038 253.702916 
L 172.88536 253.485782 
L 239.506162 253.136275 
L 250.880446 253.086151 
L 267.779381 253.027484 
L 271.679135 252.991912 
L 301.577251 252.73635 
L 311.326637 252.725655 
L 346.424426 252.677757 
L 347.399364 252.625359 
L 363.648341 252.565911 
L 364.623279 252.509374 
L 396.471273 252.464881 
L 396.471273 252.464881 
" clip-path="url(#p3d93527334)" style="fill: none; stroke: #1f77b4; stroke-width: 2; stroke-linecap: square"/>
    <defs>
     <path id="ma1ab5f4aee" d="M 0 3 
C 0.795609 3 1.55874 2.683901 2.12132 2.12132 
C 2.683901 1.55874 3 0.795609 3 0 
C 3 -0.795609 2.683901 -1.55874 2.12132 -2.12132 
C 1.55874 -2.683901 0.795609 -3 0 -3 
C -0.795609 -3 -1.55874 -2.683901 -2.12132 -2.12132 
C -2.683901 -1.55874 -3 -0.795609 -3 0 
C -3 0.795609 -2.683901 1.55874 -2.12132 2.12132 
C -1.55874 2.683901 -0.795609 3 0 3 
z
" style="stroke: #1f77b4"/>
    </defs>
    <g clip-path="url(#p3d93527334)">
     <use xlink:href="#ma1ab5f4aee" x="71.816727" y="261.216" style="fill: #1f77b4; stroke: #1f77b4"/>
     <use xlink:href="#ma1ab5f4aee" x="136.812632" y="254.13887" style="fill: #1f77b4; stroke: #1f77b4"/>
     <use xlink:href="#ma1ab5f4aee" x="201.808537" y="253.370194" style="fill: #1f77b4; stroke: #1f77b4"/>
     <use xlink:href="#ma1ab5f4aee" x="266.804442" y="253.03406" style="fill: #1f77b4; stroke: #1f77b4"/>
     <use xlink:href="#ma1ab5f4aee" x="331.800347" y="252.697114" style="fill: #1f77b4; stroke: #1f77b4"/>
    </g>
   </g>
   <g id="line2d_28">
    <path d="M 395.496334 273.312 
L 395.496334 7.2 
" clip-path="url(#p3d93527334)" style="fill: none; stroke-dasharray: 7.4,3.2; stroke-dashoffset: 0; stroke: #1f77b4; stroke-width: 2"/>
    <g clip-path="url(#p3d93527334)">
     <use xlink:href="#ma1ab5f4aee" x="395.496334" y="273.312" style="fill: #1f77b4; stroke: #1f77b4"/>
     <use xlink:href="#ma1ab5f4aee" x="395.496334" y="7.2" style="fill: #1f77b4; stroke: #1f77b4"/>
    </g>
   </g>
   <g id="line2d_29">
    <path d="M 71.816727 261.216 
L 74.741543 261.216 
L 75.066523 244.89339 
L 75.716482 245.765187 
L 76.041461 245.765287 
L 76.366441 245.603093 
L 76.69142 245.83234 
L 77.0164 245.790284 
L 77.341379 245.923159 
L 77.666359 245.896045 
L 77.991338 245.197287 
L 78.966277 245.274869 
L 79.291256 244.394412 
L 79.616236 244.83382 
L 80.591174 244.737802 
L 80.916154 19.298471 
L 81.241133 149.075516 
L 81.566113 157.086968 
L 81.891093 173.954006 
L 82.541052 191.035424 
L 83.191011 201.808162 
L 83.84097 208.901444 
L 84.815908 215.814683 
L 85.465867 219.201718 
L 86.115826 221.875314 
L 86.765785 223.94052 
L 87.415744 225.676978 
L 88.065704 227.136073 
L 89.040642 228.9917 
L 90.015581 230.401669 
L 92.290437 232.710423 
L 93.590355 233.77541 
L 96.840151 235.615572 
L 100.089946 236.835025 
L 100.414925 236.942134 
L 100.739905 236.91316 
L 101.714844 237.253025 
L 102.039823 237.249174 
L 103.339741 237.595887 
L 105.939577 238.181642 
L 106.264557 238.144678 
L 106.589536 238.256324 
L 106.914516 237.937057 
L 107.239495 238.153705 
L 107.889455 238.248022 
L 111.13925 238.72872 
L 125.113369 239.784591 
L 126.413287 239.858346 
L 131.937939 240.126845 
L 132.262919 239.816706 
L 132.587898 239.964245 
L 133.562837 239.989253 
L 143.962182 240.283752 
L 145.587079 240.290413 
L 162.161035 240.58721 
L 162.810994 240.558113 
L 174.510257 240.602513 
L 174.835237 240.417076 
L 175.485196 240.474311 
L 178.085032 240.430693 
L 179.70993 240.449955 
L 195.633926 240.581121 
L 201.158578 240.566875 
L 202.133517 240.578648 
L 202.458496 240.079364 
L 202.783476 240.279317 
L 204.408373 240.294122 
L 211.232943 240.334426 
L 212.857841 240.349772 
L 213.182821 240.17668 
L 214.157759 240.244106 
L 215.132698 240.255757 
L 215.457677 240.128533 
L 216.107636 240.179881 
L 216.757595 240.144519 
L 235.281428 240.240728 
L 239.506162 240.254784 
L 259.654893 240.315111 
L 260.954811 240.300856 
L 266.479463 240.311879 
L 266.804442 239.746318 
L 267.129422 239.976195 
L 268.10436 239.978658 
L 287.603132 240.009126 
L 287.928111 239.134849 
L 288.253091 239.483481 
L 289.228029 239.490454 
L 303.852108 239.590013 
L 315.876351 239.581448 
L 316.851289 239.561495 
L 325.950716 239.576193 
L 328.875532 239.58517 
L 356.823771 239.581991 
L 357.47373 239.556699 
L 396.471273 239.57181 
L 396.471273 239.57181 
" clip-path="url(#p3d93527334)" style="fill: none; stroke: #ff7f0e; stroke-width: 2; stroke-linecap: square"/>
    <defs>
     <path id="m3858071c65" d="M 0 -3 
L -3 3 
L 3 3 
z
" style="stroke: #ff7f0e; stroke-linejoin: miter"/>
    </defs>
    <g clip-path="url(#p3d93527334)">
     <use xlink:href="#m3858071c65" x="71.816727" y="261.216" style="fill: #ff7f0e; stroke: #ff7f0e; stroke-linejoin: miter"/>
     <use xlink:href="#m3858071c65" x="136.812632" y="240.087801" style="fill: #ff7f0e; stroke: #ff7f0e; stroke-linejoin: miter"/>
     <use xlink:href="#m3858071c65" x="201.808537" y="240.574246" style="fill: #ff7f0e; stroke: #ff7f0e; stroke-linejoin: miter"/>
     <use xlink:href="#m3858071c65" x="266.804442" y="239.746318" style="fill: #ff7f0e; stroke: #ff7f0e; stroke-linejoin: miter"/>
     <use xlink:href="#m3858071c65" x="331.800347" y="239.60216" style="fill: #ff7f0e; stroke: #ff7f0e; stroke-linejoin: miter"/>
    </g>
   </g>
   <g id="line2d_30">
    <path d="M 80.916154 273.312 
L 80.916154 7.2 
" clip-path="url(#p3d93527334)" style="fill: none; stroke-dasharray: 7.4,3.2; stroke-dashoffset: 0; stroke: #ff7f0e; stroke-width: 2"/>
    <g clip-path="url(#p3d93527334)">
     <use xlink:href="#m3858071c65" x="80.916154" y="273.312" style="fill: #ff7f0e; stroke: #ff7f0e; stroke-linejoin: miter"/>
     <use xlink:href="#m3858071c65" x="80.916154" y="7.2" style="fill: #ff7f0e; stroke: #ff7f0e; stroke-linejoin: miter"/>
    </g>
   </g>
   <g id="line2d_31">
    <path d="M 71.816727 261.216 
L 74.741543 261.216 
L 75.066523 257.465126 
L 75.391502 257.645227 
L 76.041461 257.652032 
L 76.366441 253.88779 
L 76.69142 253.691425 
L 77.666359 253.480845 
L 78.641297 253.156438 
L 78.966277 251.760395 
L 79.291256 251.699162 
L 79.941215 251.978877 
L 81.566113 252.106074 
L 82.216072 252.030363 
L 83.191011 252.025313 
L 85.465867 251.820449 
L 85.790847 251.09095 
L 86.115826 250.978359 
L 87.740724 250.952675 
L 90.66554 250.791275 
L 91.640478 250.732222 
L 97.815089 250.512402 
L 100.414925 250.383338 
L 106.589536 250.18709 
L 106.914516 250.017317 
L 109.839332 249.982335 
L 111.789209 249.897895 
L 119.263738 249.746037 
L 120.888636 249.66863 
L 123.163492 249.549536 
L 126.738267 249.489788 
L 129.013124 249.43206 
L 129.338103 249.419276 
L 129.663083 248.626341 
L 132.587898 248.608973 
L 140.062428 248.658541 
L 144.287161 248.687122 
L 144.612141 248.33192 
L 146.886998 248.457157 
L 148.836875 248.50101 
L 149.161854 247.910267 
L 152.736629 247.953855 
L 153.061609 247.720674 
L 175.485196 247.763727 
L 175.810175 247.642423 
L 208.958087 247.652666 
L 209.283066 246.906446 
L 223.582165 246.992518 
L 233.331551 247.00706 
L 234.30649 246.961533 
L 251.855384 246.910209 
L 260.954811 246.767188 
L 281.428521 246.784887 
L 348.699283 246.72398 
L 349.024262 246.505818 
L 376.972501 246.513298 
L 393.221477 246.509176 
L 396.471273 246.513441 
L 396.471273 246.513441 
" clip-path="url(#p3d93527334)" style="fill: none; stroke: #2ca02c; stroke-width: 2; stroke-linecap: square"/>
    <defs>
     <path id="m062ed82a4b" d="M -3 3 
L 3 3 
L 3 -3 
L -3 -3 
z
" style="stroke: #2ca02c; stroke-linejoin: miter"/>
    </defs>
    <g clip-path="url(#p3d93527334)">
     <use xlink:href="#m062ed82a4b" x="71.816727" y="261.216" style="fill: #2ca02c; stroke: #2ca02c; stroke-linejoin: miter"/>
     <use xlink:href="#m062ed82a4b" x="136.812632" y="248.662349" style="fill: #2ca02c; stroke: #2ca02c; stroke-linejoin: miter"/>
     <use xlink:href="#m062ed82a4b" x="201.808537" y="247.658408" style="fill: #2ca02c; stroke: #2ca02c; stroke-linejoin: miter"/>
     <use xlink:href="#m062ed82a4b" x="266.804442" y="246.744209" style="fill: #2ca02c; stroke: #2ca02c; stroke-linejoin: miter"/>
     <use xlink:href="#m062ed82a4b" x="331.800347" y="246.72857" style="fill: #2ca02c; stroke: #2ca02c; stroke-linejoin: miter"/>
    </g>
   </g>
   <g id="line2d_32">
    <path d="M 381.197235 273.312 
L 381.197235 7.2 
" clip-path="url(#p3d93527334)" style="fill: none; stroke-dasharray: 7.4,3.2; stroke-dashoffset: 0; stroke: #2ca02c; stroke-width: 2"/>
    <g clip-path="url(#p3d93527334)">
     <use xlink:href="#m062ed82a4b" x="381.197235" y="273.312" style="fill: #2ca02c; stroke: #2ca02c; stroke-linejoin: miter"/>
     <use xlink:href="#m062ed82a4b" x="381.197235" y="7.2" style="fill: #2ca02c; stroke: #2ca02c; stroke-linejoin: miter"/>
    </g>
   </g>
   <g id="line2d_33">
    <path d="M 71.816727 261.216 
L 74.741543 261.216 
L 75.066523 257.691764 
L 75.716482 257.645909 
L 76.041461 257.427486 
L 76.69142 257.29433 
L 77.0164 256.826108 
L 78.316318 256.464135 
L 81.566113 255.866511 
L 82.216072 255.71508 
L 82.866031 255.594093 
L 83.191011 254.569591 
L 83.51599 254.508925 
L 83.84097 253.983941 
L 84.815908 253.994936 
L 85.790847 253.873265 
L 91.640478 253.633726 
L 94.240314 253.488086 
L 97.815089 253.392448 
L 98.140069 253.194456 
L 101.064885 253.168781 
L 101.389864 252.50576 
L 104.639659 252.504784 
L 106.264557 252.434014 
L 106.589536 247.763086 
L 109.514352 248.184716 
L 113.739086 248.731744 
L 116.988881 249.040375 
L 118.288799 249.108561 
L 119.913697 249.186371 
L 121.538595 249.319848 
L 125.113369 249.550475 
L 149.811813 250.259595 
L 150.136793 250.101278 
L 155.661445 250.229616 
L 155.986424 250.087245 
L 166.710749 250.213731 
L 167.035728 249.984122 
L 177.435073 250.132454 
L 189.459315 250.164348 
L 194.009029 250.148549 
L 195.308947 250.128987 
L 243.405916 250.203917 
L 253.805261 250.183276 
L 262.579708 250.190801 
L 262.904688 250.058256 
L 266.804442 250.021587 
L 267.129422 249.062299 
L 280.128603 248.91582 
L 283.053419 248.925108 
L 283.378398 248.694437 
L 382.172174 248.745438 
L 383.472092 248.721045 
L 396.471273 248.77671 
L 396.471273 248.77671 
" clip-path="url(#p3d93527334)" style="fill: none; stroke: #d62728; stroke-width: 2; stroke-linecap: square"/>
    <defs>
     <path id="m0ec2013904" d="M -3 3 
L 3 -3 
M -3 -3 
L 3 3 
" style="stroke: #d62728"/>
    </defs>
    <g clip-path="url(#p3d93527334)">
     <use xlink:href="#m0ec2013904" x="71.816727" y="261.216" style="fill: #d62728; stroke: #d62728"/>
     <use xlink:href="#m0ec2013904" x="136.812632" y="250.011612" style="fill: #d62728; stroke: #d62728"/>
     <use xlink:href="#m0ec2013904" x="201.808537" y="250.111511" style="fill: #d62728; stroke: #d62728"/>
     <use xlink:href="#m0ec2013904" x="266.804442" y="250.021587" style="fill: #d62728; stroke: #d62728"/>
     <use xlink:href="#m0ec2013904" x="331.800347" y="248.763038" style="fill: #d62728; stroke: #d62728"/>
    </g>
   </g>
   <g id="line2d_34">
    <path d="M 118.613779 273.312 
L 118.613779 7.2 
" clip-path="url(#p3d93527334)" style="fill: none; stroke-dasharray: 7.4,3.2; stroke-dashoffset: 0; stroke: #d62728; stroke-width: 2"/>
    <g clip-path="url(#p3d93527334)">
     <use xlink:href="#m0ec2013904" x="118.613779" y="273.312" style="fill: #d62728; stroke: #d62728"/>
     <use xlink:href="#m0ec2013904" x="118.613779" y="7.2" style="fill: #d62728; stroke: #d62728"/>
    </g>
   </g>
   <g id="line2d_35">
    <path d="M 71.816727 261.216 
L 74.741543 261.216 
L 75.066523 256.665471 
L 75.391502 257.101297 
L 75.716482 256.788711 
L 76.366441 256.78381 
L 77.0164 256.488422 
L 77.666359 256.343164 
L 77.991338 256.192475 
L 78.966277 256.040209 
L 79.616236 255.925872 
L 80.266195 255.822128 
L 80.591174 255.360937 
L 83.191011 255.064963 
L 83.51599 254.919797 
L 85.465867 254.776894 
L 86.440806 254.680212 
L 90.34056 254.340522 
L 90.66554 254.142999 
L 91.640478 254.081087 
L 91.965458 253.950102 
L 95.215253 253.831941 
L 95.540233 253.590125 
L 96.515171 253.485391 
L 99.764966 253.341858 
L 100.414925 253.101742 
L 103.339741 253.03407 
L 104.31468 252.899378 
L 107.889455 252.717418 
L 108.214434 252.569877 
L 112.114188 252.536069 
L 120.563656 252.409898 
L 122.188554 252.360364 
L 125.438349 252.254991 
L 126.413287 252.214369 
L 126.738267 251.595523 
L 145.912059 251.664312 
L 146.237038 251.290309 
L 150.461772 251.171624 
L 150.786752 250.948583 
L 154.361527 250.938085 
L 155.336465 250.893476 
L 165.41083 250.904995 
L 165.73581 250.562809 
L 173.210339 250.610426 
L 190.434254 250.554474 
L 201.483558 250.588682 
L 204.733353 250.576543 
L 218.382493 250.558041 
L 219.032452 250.48784 
L 221.632288 250.47518 
L 243.080937 250.34009 
L 275.25391 250.289345 
L 296.702559 250.22472 
L 396.471273 250.0382 
L 396.471273 250.0382 
" clip-path="url(#p3d93527334)" style="fill: none; stroke: #9467bd; stroke-width: 2; stroke-linecap: square"/>
    <defs>
     <path id="m2cb480e56a" d="M -0 3 
L 3 -3 
L -3 -3 
z
" style="stroke: #9467bd; stroke-linejoin: miter"/>
    </defs>
    <g clip-path="url(#p3d93527334)">
     <use xlink:href="#m2cb480e56a" x="71.816727" y="261.216" style="fill: #9467bd; stroke: #9467bd; stroke-linejoin: miter"/>
     <use xlink:href="#m2cb480e56a" x="136.812632" y="251.623851" style="fill: #9467bd; stroke: #9467bd; stroke-linejoin: miter"/>
     <use xlink:href="#m2cb480e56a" x="201.808537" y="250.577382" style="fill: #9467bd; stroke: #9467bd; stroke-linejoin: miter"/>
     <use xlink:href="#m2cb480e56a" x="266.804442" y="250.327113" style="fill: #9467bd; stroke: #9467bd; stroke-linejoin: miter"/>
     <use xlink:href="#m2cb480e56a" x="331.800347" y="250.170687" style="fill: #9467bd; stroke: #9467bd; stroke-linejoin: miter"/>
    </g>
   </g>
   <g id="line2d_36">
    <path d="M 393.221477 273.312 
L 393.221477 7.2 
" clip-path="url(#p3d93527334)" style="fill: none; stroke-dasharray: 7.4,3.2; stroke-dashoffset: 0; stroke: #9467bd; stroke-width: 2"/>
    <g clip-path="url(#p3d93527334)">
     <use xlink:href="#m2cb480e56a" x="393.221477" y="273.312" style="fill: #9467bd; stroke: #9467bd; stroke-linejoin: miter"/>
     <use xlink:href="#m2cb480e56a" x="393.221477" y="7.2" style="fill: #9467bd; stroke: #9467bd; stroke-linejoin: miter"/>
    </g>
   </g>
   <g id="line2d_37">
    <path d="M 71.816727 261.216 
L 74.741543 261.216 
L 75.066523 256.483135 
L 75.391502 255.777627 
L 75.716482 256.161428 
L 76.041461 256.129544 
L 76.366441 256.503119 
L 76.69142 256.591176 
L 77.0164 256.098951 
L 77.341379 255.92023 
L 77.666359 256.07709 
L 77.991338 256.017904 
L 78.316318 255.832963 
L 79.941215 255.95301 
L 80.266195 255.875276 
L 80.916154 255.890807 
L 84.490929 255.504171 
L 85.465867 255.481175 
L 86.115826 255.384915 
L 87.740724 255.336166 
L 88.715663 255.262048 
L 90.015581 255.259866 
L 90.66554 255.219948 
L 90.990519 255.230112 
L 91.315499 254.001704 
L 91.640478 254.619741 
L 94.565294 254.752779 
L 94.890274 253.985858 
L 95.215253 254.312716 
L 95.540233 254.27288 
L 96.190192 254.364053 
L 96.840151 254.260095 
L 98.140069 254.32389 
L 104.639659 254.299574 
L 107.564475 254.278961 
L 108.539414 254.239313 
L 112.114188 254.201627 
L 114.064066 253.954659 
L 115.039004 253.998457 
L 129.663083 253.722648 
L 129.988062 253.54602 
L 130.638021 253.600079 
L 131.937939 253.60458 
L 132.262919 253.314924 
L 132.587898 253.439364 
L 135.512714 253.352562 
L 144.287161 253.296125 
L 144.612141 251.851363 
L 144.93712 252.440608 
L 145.2621 252.379919 
L 145.912059 252.45286 
L 151.436711 252.518391 
L 188.159397 252.377796 
L 194.983967 252.37904 
L 238.856203 252.208555 
L 248.280609 252.218287 
L 254.7802 252.213831 
L 269.729258 252.177229 
L 270.054238 252.057122 
L 271.029176 252.105872 
L 287.278152 252.093225 
L 287.603132 251.980609 
L 288.57807 252.025174 
L 294.427702 252.025156 
L 294.752681 251.114041 
L 295.077661 251.480485 
L 295.72762 251.483989 
L 325.950716 251.460857 
L 326.275695 248.383638 
L 326.600675 249.61672 
L 326.925654 249.482189 
L 327.250634 249.621887 
L 338.299938 249.606884 
L 341.224753 249.611083 
L 341.549733 248.388748 
L 341.874713 248.87827 
L 342.524672 248.879439 
L 344.149569 248.874698 
L 344.474549 200.767664 
L 344.799528 220.045872 
L 345.124508 217.943352 
L 345.449487 220.109644 
L 368.848013 222.428067 
L 382.172174 223.600474 
L 382.497153 223.531037 
L 383.797071 223.676644 
L 384.77201 223.754458 
L 385.096989 223.096132 
L 385.421969 223.40095 
L 386.396907 223.488715 
L 396.471273 224.320842 
L 396.471273 224.320842 
" clip-path="url(#p3d93527334)" style="fill: none; stroke: #8c564b; stroke-width: 2; stroke-linecap: square"/>
    <defs>
     <path id="m9f201c5868" d="M -0 4.242641 
L 2.545584 0 
L 0 -4.242641 
L -2.545584 -0 
z
" style="stroke: #8c564b; stroke-linejoin: miter"/>
    </defs>
    <g clip-path="url(#p3d93527334)">
     <use xlink:href="#m9f201c5868" x="71.816727" y="261.216" style="fill: #8c564b; stroke: #8c564b; stroke-linejoin: miter"/>
     <use xlink:href="#m9f201c5868" x="136.812632" y="253.331729" style="fill: #8c564b; stroke: #8c564b; stroke-linejoin: miter"/>
     <use xlink:href="#m9f201c5868" x="201.808537" y="252.354872" style="fill: #8c564b; stroke: #8c564b; stroke-linejoin: miter"/>
     <use xlink:href="#m9f201c5868" x="266.804442" y="252.182038" style="fill: #8c564b; stroke: #8c564b; stroke-linejoin: miter"/>
     <use xlink:href="#m9f201c5868" x="331.800347" y="249.622614" style="fill: #8c564b; stroke: #8c564b; stroke-linejoin: miter"/>
    </g>
   </g>
   <g id="line2d_38">
    <path d="M 344.474549 273.312 
L 344.474549 7.2 
" clip-path="url(#p3d93527334)" style="fill: none; stroke-dasharray: 7.4,3.2; stroke-dashoffset: 0; stroke: #8c564b; stroke-width: 2"/>
    <g clip-path="url(#p3d93527334)">
     <use xlink:href="#m9f201c5868" x="344.474549" y="273.312" style="fill: #8c564b; stroke: #8c564b; stroke-linejoin: miter"/>
     <use xlink:href="#m9f201c5868" x="344.474549" y="7.2" style="fill: #8c564b; stroke: #8c564b; stroke-linejoin: miter"/>
    </g>
   </g>
   <g id="patch_3">
    <path d="M 55.584 273.312 
L 55.584 7.2 
" style="fill: none; stroke: #000000; stroke-width: 0.8; stroke-linejoin: miter; stroke-linecap: square"/>
   </g>
   <g id="patch_4">
    <path d="M 412.704 273.312 
L 412.704 7.2 
" style="fill: none; stroke: #000000; stroke-width: 0.8; stroke-linejoin: miter; stroke-linecap: square"/>
   </g>
   <g id="patch_5">
    <path d="M 55.584 273.312 
L 412.704 273.312 
" style="fill: none; stroke: #000000; stroke-width: 0.8; stroke-linejoin: miter; stroke-linecap: square"/>
   </g>
   <g id="patch_6">
    <path d="M 55.584 7.2 
L 412.704 7.2 
" style="fill: none; stroke: #000000; stroke-width: 0.8; stroke-linejoin: miter; stroke-linecap: square"/>
   </g>
  </g>
  <g id="text_14">
   <!-- Timesteps -->
   <g transform="translate(197.599313 305.376375) scale(0.12 -0.12)">
    <defs>
     <path id="DejaVuSans-54" d="M -19 4666 
L 3928 4666 
L 3928 4134 
L 2272 4134 
L 2272 0 
L 1638 0 
L 1638 4134 
L -19 4134 
L -19 4666 
z
" transform="scale(0.015625)"/>
     <path id="DejaVuSans-69" d="M 603 3500 
L 1178 3500 
L 1178 0 
L 603 0 
L 603 3500 
z
M 603 4863 
L 1178 4863 
L 1178 4134 
L 603 4134 
L 603 4863 
z
" transform="scale(0.015625)"/>
     <path id="DejaVuSans-6d" d="M 3328 2828 
Q 3544 3216 3844 3400 
Q 4144 3584 4550 3584 
Q 5097 3584 5394 3201 
Q 5691 2819 5691 2113 
L 5691 0 
L 5113 0 
L 5113 2094 
Q 5113 2597 4934 2840 
Q 4756 3084 4391 3084 
Q 3944 3084 3684 2787 
Q 3425 2491 3425 1978 
L 3425 0 
L 2847 0 
L 2847 2094 
Q 2847 2600 2669 2842 
Q 2491 3084 2119 3084 
Q 1678 3084 1418 2786 
Q 1159 2488 1159 1978 
L 1159 0 
L 581 0 
L 581 3500 
L 1159 3500 
L 1159 2956 
Q 1356 3278 1631 3431 
Q 1906 3584 2284 3584 
Q 2666 3584 2933 3390 
Q 3200 3197 3328 2828 
z
" transform="scale(0.015625)"/>
     <path id="DejaVuSans-65" d="M 3597 1894 
L 3597 1613 
L 953 1613 
Q 991 1019 1311 708 
Q 1631 397 2203 397 
Q 2534 397 2845 478 
Q 3156 559 3463 722 
L 3463 178 
Q 3153 47 2828 -22 
Q 2503 -91 2169 -91 
Q 1331 -91 842 396 
Q 353 884 353 1716 
Q 353 2575 817 3079 
Q 1281 3584 2069 3584 
Q 2775 3584 3186 3129 
Q 3597 2675 3597 1894 
z
M 3022 2063 
Q 3016 2534 2758 2815 
Q 2500 3097 2075 3097 
Q 1594 3097 1305 2825 
Q 1016 2553 972 2059 
L 3022 2063 
z
" transform="scale(0.015625)"/>
     <path id="DejaVuSans-73" d="M 2834 3397 
L 2834 2853 
Q 2591 2978 2328 3040 
Q 2066 3103 1784 3103 
Q 1356 3103 1142 2972 
Q 928 2841 928 2578 
Q 928 2378 1081 2264 
Q 1234 2150 1697 2047 
L 1894 2003 
Q 2506 1872 2764 1633 
Q 3022 1394 3022 966 
Q 3022 478 2636 193 
Q 2250 -91 1575 -91 
Q 1294 -91 989 -36 
Q 684 19 347 128 
L 347 722 
Q 666 556 975 473 
Q 1284 391 1588 391 
Q 1994 391 2212 530 
Q 2431 669 2431 922 
Q 2431 1156 2273 1281 
Q 2116 1406 1581 1522 
L 1381 1569 
Q 847 1681 609 1914 
Q 372 2147 372 2553 
Q 372 3047 722 3315 
Q 1072 3584 1716 3584 
Q 2034 3584 2315 3537 
Q 2597 3491 2834 3397 
z
" transform="scale(0.015625)"/>
     <path id="DejaVuSans-74" d="M 1172 4494 
L 1172 3500 
L 2356 3500 
L 2356 3053 
L 1172 3053 
L 1172 1153 
Q 1172 725 1289 603 
Q 1406 481 1766 481 
L 2356 481 
L 2356 0 
L 1766 0 
Q 1100 0 847 248 
Q 594 497 594 1153 
L 594 3053 
L 172 3053 
L 172 3500 
L 594 3500 
L 594 4494 
L 1172 4494 
z
" transform="scale(0.015625)"/>
     <path id="DejaVuSans-70" d="M 1159 525 
L 1159 -1331 
L 581 -1331 
L 581 3500 
L 1159 3500 
L 1159 2969 
Q 1341 3281 1617 3432 
Q 1894 3584 2278 3584 
Q 2916 3584 3314 3078 
Q 3713 2572 3713 1747 
Q 3713 922 3314 415 
Q 2916 -91 2278 -91 
Q 1894 -91 1617 61 
Q 1341 213 1159 525 
z
M 3116 1747 
Q 3116 2381 2855 2742 
Q 2594 3103 2138 3103 
Q 1681 3103 1420 2742 
Q 1159 2381 1159 1747 
Q 1159 1113 1420 752 
Q 1681 391 2138 391 
Q 2594 391 2855 752 
Q 3116 1113 3116 1747 
z
" transform="scale(0.015625)"/>
    </defs>
    <use xlink:href="#DejaVuSans-54"/>
    <use xlink:href="#DejaVuSans-69" x="57.958984"/>
    <use xlink:href="#DejaVuSans-6d" x="85.742188"/>
    <use xlink:href="#DejaVuSans-65" x="183.154297"/>
    <use xlink:href="#DejaVuSans-73" x="244.677734"/>
    <use xlink:href="#DejaVuSans-74" x="296.777344"/>
    <use xlink:href="#DejaVuSans-65" x="335.986328"/>
    <use xlink:href="#DejaVuSans-70" x="397.509766"/>
    <use xlink:href="#DejaVuSans-73" x="460.986328"/>
   </g>
  </g>
  <g id="text_15">
   <!-- Mean estimate error for the best arm -->
   <g transform="translate(16.318125 250.200187) rotate(-90) scale(0.12 -0.12)">
    <defs>
     <path id="DejaVuSans-4d" d="M 628 4666 
L 1569 4666 
L 2759 1491 
L 3956 4666 
L 4897 4666 
L 4897 0 
L 4281 0 
L 4281 4097 
L 3078 897 
L 2444 897 
L 1241 4097 
L 1241 0 
L 628 0 
L 628 4666 
z
" transform="scale(0.015625)"/>
     <path id="DejaVuSans-61" d="M 2194 1759 
Q 1497 1759 1228 1600 
Q 959 1441 959 1056 
Q 959 750 1161 570 
Q 1363 391 1709 391 
Q 2188 391 2477 730 
Q 2766 1069 2766 1631 
L 2766 1759 
L 2194 1759 
z
M 3341 1997 
L 3341 0 
L 2766 0 
L 2766 531 
Q 2569 213 2275 61 
Q 1981 -91 1556 -91 
Q 1019 -91 701 211 
Q 384 513 384 1019 
Q 384 1609 779 1909 
Q 1175 2209 1959 2209 
L 2766 2209 
L 2766 2266 
Q 2766 2663 2505 2880 
Q 2244 3097 1772 3097 
Q 1472 3097 1187 3025 
Q 903 2953 641 2809 
L 641 3341 
Q 956 3463 1253 3523 
Q 1550 3584 1831 3584 
Q 2591 3584 2966 3190 
Q 3341 2797 3341 1997 
z
" transform="scale(0.015625)"/>
     <path id="DejaVuSans-6e" d="M 3513 2113 
L 3513 0 
L 2938 0 
L 2938 2094 
Q 2938 2591 2744 2837 
Q 2550 3084 2163 3084 
Q 1697 3084 1428 2787 
Q 1159 2491 1159 1978 
L 1159 0 
L 581 0 
L 581 3500 
L 1159 3500 
L 1159 2956 
Q 1366 3272 1645 3428 
Q 1925 3584 2291 3584 
Q 2894 3584 3203 3211 
Q 3513 2838 3513 2113 
z
" transform="scale(0.015625)"/>
     <path id="DejaVuSans-20" transform="scale(0.015625)"/>
     <path id="DejaVuSans-72" d="M 2631 2963 
Q 2534 3019 2420 3045 
Q 2306 3072 2169 3072 
Q 1681 3072 1420 2755 
Q 1159 2438 1159 1844 
L 1159 0 
L 581 0 
L 581 3500 
L 1159 3500 
L 1159 2956 
Q 1341 3275 1631 3429 
Q 1922 3584 2338 3584 
Q 2397 3584 2469 3576 
Q 2541 3569 2628 3553 
L 2631 2963 
z
" transform="scale(0.015625)"/>
     <path id="DejaVuSans-6f" d="M 1959 3097 
Q 1497 3097 1228 2736 
Q 959 2375 959 1747 
Q 959 1119 1226 758 
Q 1494 397 1959 397 
Q 2419 397 2687 759 
Q 2956 1122 2956 1747 
Q 2956 2369 2687 2733 
Q 2419 3097 1959 3097 
z
M 1959 3584 
Q 2709 3584 3137 3096 
Q 3566 2609 3566 1747 
Q 3566 888 3137 398 
Q 2709 -91 1959 -91 
Q 1206 -91 779 398 
Q 353 888 353 1747 
Q 353 2609 779 3096 
Q 1206 3584 1959 3584 
z
" transform="scale(0.015625)"/>
     <path id="DejaVuSans-66" d="M 2375 4863 
L 2375 4384 
L 1825 4384 
Q 1516 4384 1395 4259 
Q 1275 4134 1275 3809 
L 1275 3500 
L 2222 3500 
L 2222 3053 
L 1275 3053 
L 1275 0 
L 697 0 
L 697 3053 
L 147 3053 
L 147 3500 
L 697 3500 
L 697 3744 
Q 697 4328 969 4595 
Q 1241 4863 1831 4863 
L 2375 4863 
z
" transform="scale(0.015625)"/>
     <path id="DejaVuSans-68" d="M 3513 2113 
L 3513 0 
L 2938 0 
L 2938 2094 
Q 2938 2591 2744 2837 
Q 2550 3084 2163 3084 
Q 1697 3084 1428 2787 
Q 1159 2491 1159 1978 
L 1159 0 
L 581 0 
L 581 4863 
L 1159 4863 
L 1159 2956 
Q 1366 3272 1645 3428 
Q 1925 3584 2291 3584 
Q 2894 3584 3203 3211 
Q 3513 2838 3513 2113 
z
" transform="scale(0.015625)"/>
     <path id="DejaVuSans-62" d="M 3116 1747 
Q 3116 2381 2855 2742 
Q 2594 3103 2138 3103 
Q 1681 3103 1420 2742 
Q 1159 2381 1159 1747 
Q 1159 1113 1420 752 
Q 1681 391 2138 391 
Q 2594 391 2855 752 
Q 3116 1113 3116 1747 
z
M 1159 2969 
Q 1341 3281 1617 3432 
Q 1894 3584 2278 3584 
Q 2916 3584 3314 3078 
Q 3713 2572 3713 1747 
Q 3713 922 3314 415 
Q 2916 -91 2278 -91 
Q 1894 -91 1617 61 
Q 1341 213 1159 525 
L 1159 0 
L 581 0 
L 581 4863 
L 1159 4863 
L 1159 2969 
z
" transform="scale(0.015625)"/>
    </defs>
    <use xlink:href="#DejaVuSans-4d"/>
    <use xlink:href="#DejaVuSans-65" x="86.279297"/>
    <use xlink:href="#DejaVuSans-61" x="147.802734"/>
    <use xlink:href="#DejaVuSans-6e" x="209.082031"/>
    <use xlink:href="#DejaVuSans-20" x="272.460938"/>
    <use xlink:href="#DejaVuSans-65" x="304.248047"/>
    <use xlink:href="#DejaVuSans-73" x="365.771484"/>
    <use xlink:href="#DejaVuSans-74" x="417.871094"/>
    <use xlink:href="#DejaVuSans-69" x="457.080078"/>
    <use xlink:href="#DejaVuSans-6d" x="484.863281"/>
    <use xlink:href="#DejaVuSans-61" x="582.275391"/>
    <use xlink:href="#DejaVuSans-74" x="643.554688"/>
    <use xlink:href="#DejaVuSans-65" x="682.763672"/>
    <use xlink:href="#DejaVuSans-20" x="744.287109"/>
    <use xlink:href="#DejaVuSans-65" x="776.074219"/>
    <use xlink:href="#DejaVuSans-72" x="837.597656"/>
    <use xlink:href="#DejaVuSans-72" x="876.960938"/>
    <use xlink:href="#DejaVuSans-6f" x="915.824219"/>
    <use xlink:href="#DejaVuSans-72" x="977.005859"/>
    <use xlink:href="#DejaVuSans-20" x="1018.119141"/>
    <use xlink:href="#DejaVuSans-66" x="1049.90625"/>
    <use xlink:href="#DejaVuSans-6f" x="1085.111328"/>
    <use xlink:href="#DejaVuSans-72" x="1146.292969"/>
    <use xlink:href="#DejaVuSans-20" x="1187.40625"/>
    <use xlink:href="#DejaVuSans-74" x="1219.193359"/>
    <use xlink:href="#DejaVuSans-68" x="1258.402344"/>
    <use xlink:href="#DejaVuSans-65" x="1321.78125"/>
    <use xlink:href="#DejaVuSans-20" x="1383.304688"/>
    <use xlink:href="#DejaVuSans-62" x="1415.091797"/>
    <use xlink:href="#DejaVuSans-65" x="1478.568359"/>
    <use xlink:href="#DejaVuSans-73" x="1540.091797"/>
    <use xlink:href="#DejaVuSans-74" x="1592.191406"/>
    <use xlink:href="#DejaVuSans-20" x="1631.400391"/>
    <use xlink:href="#DejaVuSans-61" x="1663.1875"/>
    <use xlink:href="#DejaVuSans-72" x="1724.466797"/>
    <use xlink:href="#DejaVuSans-6d" x="1763.830078"/>
   </g>
  </g>
 </g>
 <defs>
  <clipPath id="p3d93527334">
   <rect x="55.584" y="7.2" width="357.12" height="266.112"/>
  </clipPath>
 </defs>
</svg>
