<?xml version="1.0" encoding="utf-8" standalone="no"?>
<!DOCTYPE svg PUBLIC "-//W3C//DTD SVG 1.1//EN"
  "http://www.w3.org/Graphics/SVG/1.1/DTD/svg11.dtd">
<svg xmlns:xlink="http://www.w3.org/1999/xlink" width="421.834781pt" height="368.824pt" viewBox="0 0 421.834781 368.824" xmlns="http://www.w3.org/2000/svg" version="1.1">
 <metadata>
  <rdf:RDF xmlns:dc="http://purl.org/dc/elements/1.1/" xmlns:cc="http://creativecommons.org/ns#" xmlns:rdf="http://www.w3.org/1999/02/22-rdf-syntax-ns#">
   <cc:Work>
    <dc:type rdf:resource="http://purl.org/dc/dcmitype/StillImage"/>
    <dc:date>2024-06-06T16:20:30.302339</dc:date>
    <dc:format>image/svg+xml</dc:format>
    <dc:creator>
     <cc:Agent>
      <dc:title>Matplotlib v3.9.0, https://matplotlib.org/</dc:title>
     </cc:Agent>
    </dc:creator>
   </cc:Work>
  </rdf:RDF>
 </metadata>
 <defs>
  <style type="text/css">*{stroke-linejoin: round; stroke-linecap: butt}</style>
 </defs>
 <g id="figure_1">
  <g id="patch_1">
   <path d="M 0 368.824 
L 421.834781 368.824 
L 421.834781 0 
L 0 0 
z
" style="fill: #ffffff"/>
  </g>
  <g id="axes_1">
   <g id="patch_2">
    <path d="M 55.584 327.064 
L 412.704 327.064 
L 412.704 60.952 
L 55.584 60.952 
z
" style="fill: #ffffff"/>
   </g>
   <g id="PolyCollection_1">
    <path d="M 169.408274 293.482801 
L 169.408274 294.302058 
L 194.131466 294.302058 
L 194.131466 293.482801 
L 194.131466 293.482801 
L 169.408274 293.482801 
z
" clip-path="url(#p63b732274f)" style="fill-opacity: 0.2"/>
   </g>
   <g id="matplotlib.axis_1">
    <g id="xtick_1">
     <g id="line2d_1">
      <path d="M 71.816727 327.064 
L 71.816727 60.952 
" clip-path="url(#p63b732274f)" style="fill: none; stroke: #b0b0b0; stroke-width: 0.8; stroke-linecap: square"/>
     </g>
     <g id="line2d_2">
      <defs>
       <path id="m37d252b5a7" d="M 0 0 
L 0 3.5 
" style="stroke: #000000; stroke-width: 0.8"/>
      </defs>
      <g>
       <use xlink:href="#m37d252b5a7" x="71.816727" y="327.064" style="stroke: #000000; stroke-width: 0.8"/>
      </g>
     </g>
     <g id="text_1">
      <!-- 0 -->
      <g transform="translate(67.362977 344.701812) scale(0.14 -0.14)">
       <defs>
        <path id="DejaVuSans-30" d="M 2034 4250 
Q 1547 4250 1301 3770 
Q 1056 3291 1056 2328 
Q 1056 1369 1301 889 
Q 1547 409 2034 409 
Q 2525 409 2770 889 
Q 3016 1369 3016 2328 
Q 3016 3291 2770 3770 
Q 2525 4250 2034 4250 
z
M 2034 4750 
Q 2819 4750 3233 4129 
Q 3647 3509 3647 2328 
Q 3647 1150 3233 529 
Q 2819 -91 2034 -91 
Q 1250 -91 836 529 
Q 422 1150 422 2328 
Q 422 3509 836 4129 
Q 1250 4750 2034 4750 
z
" transform="scale(0.015625)"/>
       </defs>
       <use xlink:href="#DejaVuSans-30"/>
      </g>
     </g>
    </g>
    <g id="xtick_2">
     <g id="line2d_3">
      <path d="M 136.877758 327.064 
L 136.877758 60.952 
" clip-path="url(#p63b732274f)" style="fill: none; stroke: #b0b0b0; stroke-width: 0.8; stroke-linecap: square"/>
     </g>
     <g id="line2d_4">
      <g>
       <use xlink:href="#m37d252b5a7" x="136.877758" y="327.064" style="stroke: #000000; stroke-width: 0.8"/>
      </g>
     </g>
     <g id="text_2">
      <!-- 100 -->
      <g transform="translate(123.516508 344.701812) scale(0.14 -0.14)">
       <defs>
        <path id="DejaVuSans-31" d="M 794 531 
L 1825 531 
L 1825 4091 
L 703 3866 
L 703 4441 
L 1819 4666 
L 2450 4666 
L 2450 531 
L 3481 531 
L 3481 0 
L 794 0 
L 794 531 
z
" transform="scale(0.015625)"/>
       </defs>
       <use xlink:href="#DejaVuSans-31"/>
       <use xlink:href="#DejaVuSans-30" x="63.623047"/>
       <use xlink:href="#DejaVuSans-30" x="127.246094"/>
      </g>
     </g>
    </g>
    <g id="xtick_3">
     <g id="line2d_5">
      <path d="M 201.93879 327.064 
L 201.93879 60.952 
" clip-path="url(#p63b732274f)" style="fill: none; stroke: #b0b0b0; stroke-width: 0.8; stroke-linecap: square"/>
     </g>
     <g id="line2d_6">
      <g>
       <use xlink:href="#m37d252b5a7" x="201.93879" y="327.064" style="stroke: #000000; stroke-width: 0.8"/>
      </g>
     </g>
     <g id="text_3">
      <!-- 200 -->
      <g transform="translate(188.57754 344.701812) scale(0.14 -0.14)">
       <defs>
        <path id="DejaVuSans-32" d="M 1228 531 
L 3431 531 
L 3431 0 
L 469 0 
L 469 531 
Q 828 903 1448 1529 
Q 2069 2156 2228 2338 
Q 2531 2678 2651 2914 
Q 2772 3150 2772 3378 
Q 2772 3750 2511 3984 
Q 2250 4219 1831 4219 
Q 1534 4219 1204 4116 
Q 875 4013 500 3803 
L 500 4441 
Q 881 4594 1212 4672 
Q 1544 4750 1819 4750 
Q 2544 4750 2975 4387 
Q 3406 4025 3406 3419 
Q 3406 3131 3298 2873 
Q 3191 2616 2906 2266 
Q 2828 2175 2409 1742 
Q 1991 1309 1228 531 
z
" transform="scale(0.015625)"/>
       </defs>
       <use xlink:href="#DejaVuSans-32"/>
       <use xlink:href="#DejaVuSans-30" x="63.623047"/>
       <use xlink:href="#DejaVuSans-30" x="127.246094"/>
      </g>
     </g>
    </g>
    <g id="xtick_4">
     <g id="line2d_7">
      <path d="M 266.999821 327.064 
L 266.999821 60.952 
" clip-path="url(#p63b732274f)" style="fill: none; stroke: #b0b0b0; stroke-width: 0.8; stroke-linecap: square"/>
     </g>
     <g id="line2d_8">
      <g>
       <use xlink:href="#m37d252b5a7" x="266.999821" y="327.064" style="stroke: #000000; stroke-width: 0.8"/>
      </g>
     </g>
     <g id="text_4">
      <!-- 300 -->
      <g transform="translate(253.638571 344.701812) scale(0.14 -0.14)">
       <defs>
        <path id="DejaVuSans-33" d="M 2597 2516 
Q 3050 2419 3304 2112 
Q 3559 1806 3559 1356 
Q 3559 666 3084 287 
Q 2609 -91 1734 -91 
Q 1441 -91 1130 -33 
Q 819 25 488 141 
L 488 750 
Q 750 597 1062 519 
Q 1375 441 1716 441 
Q 2309 441 2620 675 
Q 2931 909 2931 1356 
Q 2931 1769 2642 2001 
Q 2353 2234 1838 2234 
L 1294 2234 
L 1294 2753 
L 1863 2753 
Q 2328 2753 2575 2939 
Q 2822 3125 2822 3475 
Q 2822 3834 2567 4026 
Q 2313 4219 1838 4219 
Q 1578 4219 1281 4162 
Q 984 4106 628 3988 
L 628 4550 
Q 988 4650 1302 4700 
Q 1616 4750 1894 4750 
Q 2613 4750 3031 4423 
Q 3450 4097 3450 3541 
Q 3450 3153 3228 2886 
Q 3006 2619 2597 2516 
z
" transform="scale(0.015625)"/>
       </defs>
       <use xlink:href="#DejaVuSans-33"/>
       <use xlink:href="#DejaVuSans-30" x="63.623047"/>
       <use xlink:href="#DejaVuSans-30" x="127.246094"/>
      </g>
     </g>
    </g>
    <g id="xtick_5">
     <g id="line2d_9">
      <path d="M 332.060852 327.064 
L 332.060852 60.952 
" clip-path="url(#p63b732274f)" style="fill: none; stroke: #b0b0b0; stroke-width: 0.8; stroke-linecap: square"/>
     </g>
     <g id="line2d_10">
      <g>
       <use xlink:href="#m37d252b5a7" x="332.060852" y="327.064" style="stroke: #000000; stroke-width: 0.8"/>
      </g>
     </g>
     <g id="text_5">
      <!-- 400 -->
      <g transform="translate(318.699602 344.701812) scale(0.14 -0.14)">
       <defs>
        <path id="DejaVuSans-34" d="M 2419 4116 
L 825 1625 
L 2419 1625 
L 2419 4116 
z
M 2253 4666 
L 3047 4666 
L 3047 1625 
L 3713 1625 
L 3713 1100 
L 3047 1100 
L 3047 0 
L 2419 0 
L 2419 1100 
L 313 1100 
L 313 1709 
L 2253 4666 
z
" transform="scale(0.015625)"/>
       </defs>
       <use xlink:href="#DejaVuSans-34"/>
       <use xlink:href="#DejaVuSans-30" x="63.623047"/>
       <use xlink:href="#DejaVuSans-30" x="127.246094"/>
      </g>
     </g>
    </g>
    <g id="xtick_6">
     <g id="line2d_11">
      <path d="M 397.121883 327.064 
L 397.121883 60.952 
" clip-path="url(#p63b732274f)" style="fill: none; stroke: #b0b0b0; stroke-width: 0.8; stroke-linecap: square"/>
     </g>
     <g id="line2d_12">
      <g>
       <use xlink:href="#m37d252b5a7" x="397.121883" y="327.064" style="stroke: #000000; stroke-width: 0.8"/>
      </g>
     </g>
     <g id="text_6">
      <!-- 500 -->
      <g transform="translate(383.760633 344.701812) scale(0.14 -0.14)">
       <defs>
        <path id="DejaVuSans-35" d="M 691 4666 
L 3169 4666 
L 3169 4134 
L 1269 4134 
L 1269 2991 
Q 1406 3038 1543 3061 
Q 1681 3084 1819 3084 
Q 2600 3084 3056 2656 
Q 3513 2228 3513 1497 
Q 3513 744 3044 326 
Q 2575 -91 1722 -91 
Q 1428 -91 1123 -41 
Q 819 9 494 109 
L 494 744 
Q 775 591 1075 516 
Q 1375 441 1709 441 
Q 2250 441 2565 725 
Q 2881 1009 2881 1497 
Q 2881 1984 2565 2268 
Q 2250 2553 1709 2553 
Q 1456 2553 1204 2497 
Q 953 2441 691 2322 
L 691 4666 
z
" transform="scale(0.015625)"/>
       </defs>
       <use xlink:href="#DejaVuSans-35"/>
       <use xlink:href="#DejaVuSans-30" x="63.623047"/>
       <use xlink:href="#DejaVuSans-30" x="127.246094"/>
      </g>
     </g>
    </g>
   </g>
   <g id="matplotlib.axis_2">
    <g id="ytick_1">
     <g id="line2d_13">
      <path d="M 55.584 314.968 
L 412.704 314.968 
" clip-path="url(#p63b732274f)" style="fill: none; stroke: #b0b0b0; stroke-width: 0.8; stroke-linecap: square"/>
     </g>
     <g id="line2d_14">
      <defs>
       <path id="m1cb475ffad" d="M 0 0 
L -3.5 0 
" style="stroke: #000000; stroke-width: 0.8"/>
      </defs>
      <g>
       <use xlink:href="#m1cb475ffad" x="55.584" y="314.968" style="stroke: #000000; stroke-width: 0.8"/>
      </g>
     </g>
     <g id="text_7">
      <!-- 0.0 -->
      <g transform="translate(26.319625 320.286906) scale(0.14 -0.14)">
       <defs>
        <path id="DejaVuSans-2e" d="M 684 794 
L 1344 794 
L 1344 0 
L 684 0 
L 684 794 
z
" transform="scale(0.015625)"/>
       </defs>
       <use xlink:href="#DejaVuSans-30"/>
       <use xlink:href="#DejaVuSans-2e" x="63.623047"/>
       <use xlink:href="#DejaVuSans-30" x="95.410156"/>
      </g>
     </g>
    </g>
    <g id="ytick_2">
     <g id="line2d_15">
      <path d="M 55.584 283.443557 
L 412.704 283.443557 
" clip-path="url(#p63b732274f)" style="fill: none; stroke: #b0b0b0; stroke-width: 0.8; stroke-linecap: square"/>
     </g>
     <g id="line2d_16">
      <g>
       <use xlink:href="#m1cb475ffad" x="55.584" y="283.443557" style="stroke: #000000; stroke-width: 0.8"/>
      </g>
     </g>
     <g id="text_8">
      <!-- 0.1 -->
      <g transform="translate(26.319625 288.762463) scale(0.14 -0.14)">
       <use xlink:href="#DejaVuSans-30"/>
       <use xlink:href="#DejaVuSans-2e" x="63.623047"/>
       <use xlink:href="#DejaVuSans-31" x="95.410156"/>
      </g>
     </g>
    </g>
    <g id="ytick_3">
     <g id="line2d_17">
      <path d="M 55.584 251.919113 
L 412.704 251.919113 
" clip-path="url(#p63b732274f)" style="fill: none; stroke: #b0b0b0; stroke-width: 0.8; stroke-linecap: square"/>
     </g>
     <g id="line2d_18">
      <g>
       <use xlink:href="#m1cb475ffad" x="55.584" y="251.919113" style="stroke: #000000; stroke-width: 0.8"/>
      </g>
     </g>
     <g id="text_9">
      <!-- 0.2 -->
      <g transform="translate(26.319625 257.23802) scale(0.14 -0.14)">
       <use xlink:href="#DejaVuSans-30"/>
       <use xlink:href="#DejaVuSans-2e" x="63.623047"/>
       <use xlink:href="#DejaVuSans-32" x="95.410156"/>
      </g>
     </g>
    </g>
    <g id="ytick_4">
     <g id="line2d_19">
      <path d="M 55.584 220.39467 
L 412.704 220.39467 
" clip-path="url(#p63b732274f)" style="fill: none; stroke: #b0b0b0; stroke-width: 0.8; stroke-linecap: square"/>
     </g>
     <g id="line2d_20">
      <g>
       <use xlink:href="#m1cb475ffad" x="55.584" y="220.39467" style="stroke: #000000; stroke-width: 0.8"/>
      </g>
     </g>
     <g id="text_10">
      <!-- 0.3 -->
      <g transform="translate(26.319625 225.713576) scale(0.14 -0.14)">
       <use xlink:href="#DejaVuSans-30"/>
       <use xlink:href="#DejaVuSans-2e" x="63.623047"/>
       <use xlink:href="#DejaVuSans-33" x="95.410156"/>
      </g>
     </g>
    </g>
    <g id="ytick_5">
     <g id="line2d_21">
      <path d="M 55.584 188.870227 
L 412.704 188.870227 
" clip-path="url(#p63b732274f)" style="fill: none; stroke: #b0b0b0; stroke-width: 0.8; stroke-linecap: square"/>
     </g>
     <g id="line2d_22">
      <g>
       <use xlink:href="#m1cb475ffad" x="55.584" y="188.870227" style="stroke: #000000; stroke-width: 0.8"/>
      </g>
     </g>
     <g id="text_11">
      <!-- 0.4 -->
      <g transform="translate(26.319625 194.189133) scale(0.14 -0.14)">
       <use xlink:href="#DejaVuSans-30"/>
       <use xlink:href="#DejaVuSans-2e" x="63.623047"/>
       <use xlink:href="#DejaVuSans-34" x="95.410156"/>
      </g>
     </g>
    </g>
    <g id="ytick_6">
     <g id="line2d_23">
      <path d="M 55.584 157.345784 
L 412.704 157.345784 
" clip-path="url(#p63b732274f)" style="fill: none; stroke: #b0b0b0; stroke-width: 0.8; stroke-linecap: square"/>
     </g>
     <g id="line2d_24">
      <g>
       <use xlink:href="#m1cb475ffad" x="55.584" y="157.345784" style="stroke: #000000; stroke-width: 0.8"/>
      </g>
     </g>
     <g id="text_12">
      <!-- 0.5 -->
      <g transform="translate(26.319625 162.66469) scale(0.14 -0.14)">
       <use xlink:href="#DejaVuSans-30"/>
       <use xlink:href="#DejaVuSans-2e" x="63.623047"/>
       <use xlink:href="#DejaVuSans-35" x="95.410156"/>
      </g>
     </g>
    </g>
    <g id="ytick_7">
     <g id="line2d_25">
      <path d="M 55.584 125.82134 
L 412.704 125.82134 
" clip-path="url(#p63b732274f)" style="fill: none; stroke: #b0b0b0; stroke-width: 0.8; stroke-linecap: square"/>
     </g>
     <g id="line2d_26">
      <g>
       <use xlink:href="#m1cb475ffad" x="55.584" y="125.82134" style="stroke: #000000; stroke-width: 0.8"/>
      </g>
     </g>
     <g id="text_13">
      <!-- 0.6 -->
      <g transform="translate(26.319625 131.140246) scale(0.14 -0.14)">
       <defs>
        <path id="DejaVuSans-36" d="M 2113 2584 
Q 1688 2584 1439 2293 
Q 1191 2003 1191 1497 
Q 1191 994 1439 701 
Q 1688 409 2113 409 
Q 2538 409 2786 701 
Q 3034 994 3034 1497 
Q 3034 2003 2786 2293 
Q 2538 2584 2113 2584 
z
M 3366 4563 
L 3366 3988 
Q 3128 4100 2886 4159 
Q 2644 4219 2406 4219 
Q 1781 4219 1451 3797 
Q 1122 3375 1075 2522 
Q 1259 2794 1537 2939 
Q 1816 3084 2150 3084 
Q 2853 3084 3261 2657 
Q 3669 2231 3669 1497 
Q 3669 778 3244 343 
Q 2819 -91 2113 -91 
Q 1303 -91 875 529 
Q 447 1150 447 2328 
Q 447 3434 972 4092 
Q 1497 4750 2381 4750 
Q 2619 4750 2861 4703 
Q 3103 4656 3366 4563 
z
" transform="scale(0.015625)"/>
       </defs>
       <use xlink:href="#DejaVuSans-30"/>
       <use xlink:href="#DejaVuSans-2e" x="63.623047"/>
       <use xlink:href="#DejaVuSans-36" x="95.410156"/>
      </g>
     </g>
    </g>
    <g id="ytick_8">
     <g id="line2d_27">
      <path d="M 55.584 94.296897 
L 412.704 94.296897 
" clip-path="url(#p63b732274f)" style="fill: none; stroke: #b0b0b0; stroke-width: 0.8; stroke-linecap: square"/>
     </g>
     <g id="line2d_28">
      <g>
       <use xlink:href="#m1cb475ffad" x="55.584" y="94.296897" style="stroke: #000000; stroke-width: 0.8"/>
      </g>
     </g>
     <g id="text_14">
      <!-- 0.7 -->
      <g transform="translate(26.319625 99.615803) scale(0.14 -0.14)">
       <defs>
        <path id="DejaVuSans-37" d="M 525 4666 
L 3525 4666 
L 3525 4397 
L 1831 0 
L 1172 0 
L 2766 4134 
L 525 4134 
L 525 4666 
z
" transform="scale(0.015625)"/>
       </defs>
       <use xlink:href="#DejaVuSans-30"/>
       <use xlink:href="#DejaVuSans-2e" x="63.623047"/>
       <use xlink:href="#DejaVuSans-37" x="95.410156"/>
      </g>
     </g>
    </g>
    <g id="ytick_9">
     <g id="line2d_29">
      <path d="M 55.584 62.772454 
L 412.704 62.772454 
" clip-path="url(#p63b732274f)" style="fill: none; stroke: #b0b0b0; stroke-width: 0.8; stroke-linecap: square"/>
     </g>
     <g id="line2d_30">
      <g>
       <use xlink:href="#m1cb475ffad" x="55.584" y="62.772454" style="stroke: #000000; stroke-width: 0.8"/>
      </g>
     </g>
     <g id="text_15">
      <!-- 0.8 -->
      <g transform="translate(26.319625 68.09136) scale(0.14 -0.14)">
       <defs>
        <path id="DejaVuSans-38" d="M 2034 2216 
Q 1584 2216 1326 1975 
Q 1069 1734 1069 1313 
Q 1069 891 1326 650 
Q 1584 409 2034 409 
Q 2484 409 2743 651 
Q 3003 894 3003 1313 
Q 3003 1734 2745 1975 
Q 2488 2216 2034 2216 
z
M 1403 2484 
Q 997 2584 770 2862 
Q 544 3141 544 3541 
Q 544 4100 942 4425 
Q 1341 4750 2034 4750 
Q 2731 4750 3128 4425 
Q 3525 4100 3525 3541 
Q 3525 3141 3298 2862 
Q 3072 2584 2669 2484 
Q 3125 2378 3379 2068 
Q 3634 1759 3634 1313 
Q 3634 634 3220 271 
Q 2806 -91 2034 -91 
Q 1263 -91 848 271 
Q 434 634 434 1313 
Q 434 1759 690 2068 
Q 947 2378 1403 2484 
z
M 1172 3481 
Q 1172 3119 1398 2916 
Q 1625 2713 2034 2713 
Q 2441 2713 2670 2916 
Q 2900 3119 2900 3481 
Q 2900 3844 2670 4047 
Q 2441 4250 2034 4250 
Q 1625 4250 1398 4047 
Q 1172 3844 1172 3481 
z
" transform="scale(0.015625)"/>
       </defs>
       <use xlink:href="#DejaVuSans-30"/>
       <use xlink:href="#DejaVuSans-2e" x="63.623047"/>
       <use xlink:href="#DejaVuSans-38" x="95.410156"/>
      </g>
     </g>
    </g>
   </g>
   <g id="line2d_31">
    <path d="M 71.816727 314.968 
L 77.67222 314.968 
L 78.32283 73.048 
L 78.973441 106.410177 
L 81.575882 143.625275 
L 82.877103 158.156416 
L 84.178323 169.703056 
L 86.130154 183.448873 
L 88.081985 194.832649 
L 89.383206 201.471277 
L 91.335037 209.807663 
L 91.985647 212.391459 
L 96.539919 226.704089 
L 99.14236 233.085185 
L 101.744802 238.658322 
L 104.347243 243.295238 
L 108.250905 249.396813 
L 111.503956 253.470528 
L 113.455787 255.67564 
L 119.96189 261.71239 
L 125.166773 265.413409 
L 130.371655 268.578806 
L 137.528369 271.948033 
L 140.78142 273.320871 
L 142.082641 273.877188 
L 147.938134 276.016344 
L 159.649119 279.330578 
L 170.058884 281.591182 
L 183.721701 283.927947 
L 189.577194 284.773726 
L 194.131466 285.425788 
L 200.637569 286.257697 
L 209.095503 287.25494 
L 214.950996 287.80378 
L 246.830901 290.233251 
L 258.541887 290.892794 
L 276.758975 291.755974 
L 285.86752 292.16522 
L 304.735219 292.830425 
L 386.061508 294.672586 
L 396.471273 294.791811 
L 396.471273 294.791811 
" clip-path="url(#p63b732274f)" style="fill: none; stroke: #1f77b4; stroke-width: 2; stroke-linecap: square"/>
    <defs>
     <path id="m856abcb9ab" d="M 0 3 
C 0.795609 3 1.55874 2.683901 2.12132 2.12132 
C 2.683901 1.55874 3 0.795609 3 0 
C 3 -0.795609 2.683901 -1.55874 2.12132 -2.12132 
C 1.55874 -2.683901 0.795609 -3 0 -3 
C -0.795609 -3 -1.55874 -2.683901 -2.12132 -2.12132 
C -2.683901 -1.55874 -3 -0.795609 -3 0 
C -3 0.795609 -2.683901 1.55874 -2.12132 2.12132 
C -1.55874 2.683901 -0.795609 3 0 3 
z
" style="stroke: #1f77b4"/>
    </defs>
    <g clip-path="url(#p63b732274f)">
     <use xlink:href="#m856abcb9ab" x="71.816727" y="314.968" style="fill: #1f77b4; stroke: #1f77b4"/>
     <use xlink:href="#m856abcb9ab" x="201.93879" y="286.40334" style="fill: #1f77b4; stroke: #1f77b4"/>
     <use xlink:href="#m856abcb9ab" x="332.060852" y="293.589893" style="fill: #1f77b4; stroke: #1f77b4"/>
    </g>
   </g>
   <g id="line2d_32">
    <path d="M 346.374279 327.064 
L 346.374279 60.952 
" clip-path="url(#p63b732274f)" style="fill: none; stroke-dasharray: 7.4,3.2; stroke-dashoffset: 0; stroke: #1f77b4; stroke-width: 2"/>
    <g clip-path="url(#p63b732274f)">
     <use xlink:href="#m856abcb9ab" x="346.374279" y="327.064" style="fill: #1f77b4; stroke: #1f77b4"/>
     <use xlink:href="#m856abcb9ab" x="346.374279" y="60.952" style="fill: #1f77b4; stroke: #1f77b4"/>
    </g>
   </g>
   <g id="line2d_33">
    <path d="M 71.816727 314.968 
L 77.67222 314.968 
L 78.32283 187.872261 
L 78.973441 193.233617 
L 80.274661 218.969876 
L 80.925272 226.839799 
L 81.575882 232.066349 
L 82.877103 240.169275 
L 85.479544 252.037933 
L 86.780764 256.2351 
L 88.081985 260.02972 
L 90.033816 264.503615 
L 92.636257 269.112161 
L 95.238698 272.654361 
L 97.84114 275.544875 
L 101.094191 278.394935 
L 103.046022 279.679801 
L 106.949684 282.444902 
L 113.455787 285.097579 
L 116.058228 285.861548 
L 118.66067 286.630948 
L 122.564332 287.65882 
L 123.865552 287.91129 
L 125.166773 288.194617 
L 127.769214 288.613527 
L 132.974097 289.519884 
L 144.685082 291.125937 
L 149.889965 291.699335 
L 162.251561 292.509723 
L 166.805833 292.727864 
L 170.709495 292.968489 
L 186.324142 293.639443 
L 189.577194 293.737437 
L 192.830245 293.864558 
L 207.794282 294.233298 
L 232.517474 294.629979 
L 274.156534 294.998823 
L 280.662637 295.029095 
L 293.674844 295.145898 
L 306.68705 295.216234 
L 317.096815 295.249122 
L 327.50658 295.299677 
L 396.471273 295.449839 
L 396.471273 295.449839 
" clip-path="url(#p63b732274f)" style="fill: none; stroke: #ff7f0e; stroke-width: 2; stroke-linecap: square"/>
    <defs>
     <path id="mfd33d5c568" d="M 0 -3 
L -3 3 
L 3 3 
z
" style="stroke: #ff7f0e; stroke-linejoin: miter"/>
    </defs>
    <g clip-path="url(#p63b732274f)">
     <use xlink:href="#mfd33d5c568" x="71.816727" y="314.968" style="fill: #ff7f0e; stroke: #ff7f0e; stroke-linejoin: miter"/>
     <use xlink:href="#mfd33d5c568" x="201.93879" y="294.109067" style="fill: #ff7f0e; stroke: #ff7f0e; stroke-linejoin: miter"/>
     <use xlink:href="#mfd33d5c568" x="332.060852" y="295.319446" style="fill: #ff7f0e; stroke: #ff7f0e; stroke-linejoin: miter"/>
    </g>
   </g>
   <g id="line2d_34">
    <path d="M 193.480856 327.064 
L 193.480856 60.952 
" clip-path="url(#p63b732274f)" style="fill: none; stroke-dasharray: 7.4,3.2; stroke-dashoffset: 0; stroke: #ff7f0e; stroke-width: 2"/>
    <g clip-path="url(#p63b732274f)">
     <use xlink:href="#mfd33d5c568" x="193.480856" y="327.064" style="fill: #ff7f0e; stroke: #ff7f0e; stroke-linejoin: miter"/>
     <use xlink:href="#mfd33d5c568" x="193.480856" y="60.952" style="fill: #ff7f0e; stroke: #ff7f0e; stroke-linejoin: miter"/>
    </g>
   </g>
   <g id="line2d_35">
    <path d="M 71.816727 314.968 
L 77.67222 314.968 
L 78.32283 184.317704 
L 78.973441 193.478609 
L 80.274661 217.77329 
L 80.925272 225.416296 
L 82.226492 235.418314 
L 83.527713 242.788942 
L 84.828934 248.529747 
L 85.479544 251.19859 
L 88.081985 259.411397 
L 88.732595 261.289437 
L 90.033816 264.314686 
L 93.286868 270.032899 
L 94.588088 271.825271 
L 95.238698 272.888463 
L 95.889309 273.593021 
L 97.190529 275.319066 
L 99.14236 277.289993 
L 100.443581 278.445037 
L 104.997853 281.536115 
L 106.949684 282.6501 
L 108.250905 283.34366 
L 109.552125 283.970342 
L 112.805177 285.183906 
L 115.407618 286.205521 
L 119.31128 287.431318 
L 120.612501 287.84704 
L 130.371655 290.04576 
L 131.672876 290.245417 
L 142.733251 291.776885 
L 144.685082 291.956508 
L 164.854002 293.572736 
L 180.468649 294.345691 
L 201.93879 294.942999 
L 250.083953 295.639439 
L 382.157846 296.017394 
L 396.471273 296.061636 
L 396.471273 296.061636 
" clip-path="url(#p63b732274f)" style="fill: none; stroke: #2ca02c; stroke-width: 2; stroke-linecap: square"/>
    <defs>
     <path id="m7a61924507" d="M -3 3 
L 3 3 
L 3 -3 
L -3 -3 
z
" style="stroke: #2ca02c; stroke-linejoin: miter"/>
    </defs>
    <g clip-path="url(#p63b732274f)">
     <use xlink:href="#m7a61924507" x="71.816727" y="314.968" style="fill: #2ca02c; stroke: #2ca02c; stroke-linejoin: miter"/>
     <use xlink:href="#m7a61924507" x="201.93879" y="294.942999" style="fill: #2ca02c; stroke: #2ca02c; stroke-linejoin: miter"/>
     <use xlink:href="#m7a61924507" x="332.060852" y="296.009433" style="fill: #2ca02c; stroke: #2ca02c; stroke-linejoin: miter"/>
    </g>
   </g>
   <g id="line2d_36">
    <path d="M 170.709495 327.064 
L 170.709495 60.952 
" clip-path="url(#p63b732274f)" style="fill: none; stroke-dasharray: 7.4,3.2; stroke-dashoffset: 0; stroke: #2ca02c; stroke-width: 2"/>
    <g clip-path="url(#p63b732274f)">
     <use xlink:href="#m7a61924507" x="170.709495" y="327.064" style="fill: #2ca02c; stroke: #2ca02c; stroke-linejoin: miter"/>
     <use xlink:href="#m7a61924507" x="170.709495" y="60.952" style="fill: #2ca02c; stroke: #2ca02c; stroke-linejoin: miter"/>
    </g>
   </g>
   <g id="line2d_37">
    <path d="M 71.816727 314.968 
L 77.67222 314.968 
L 78.32283 186.094847 
L 78.973441 193.457475 
L 80.274661 217.147412 
L 80.925272 225.169573 
L 81.575882 231.15116 
L 82.877103 239.347814 
L 84.178323 245.593843 
L 85.479544 251.063066 
L 86.780764 255.472784 
L 88.081985 259.081152 
L 90.033816 263.894263 
L 91.985647 267.74545 
L 94.588088 271.532356 
L 99.14236 276.733895 
L 99.792971 277.239836 
L 101.094191 278.479046 
L 103.046022 280.052289 
L 104.347243 280.906776 
L 108.250905 283.343452 
L 110.853346 284.520512 
L 114.106398 285.77937 
L 118.010059 287.133641 
L 119.31128 287.576508 
L 120.612501 287.923213 
L 121.913721 288.372699 
L 127.118604 289.466495 
L 132.323486 290.369824 
L 134.925927 290.853546 
L 139.4802 291.444063 
L 145.335692 292.116684 
L 156.396068 293.051092 
L 159.649119 293.245053 
L 169.408274 293.857677 
L 173.962546 294.092817 
L 181.76987 294.383799 
L 185.673532 294.479624 
L 203.24001 294.937189 
L 256.590056 295.491597 
L 274.156534 295.621555 
L 286.51813 295.729285 
L 298.879726 295.766746 
L 355.482823 295.935155 
L 368.495029 295.94214 
L 396.471273 295.925931 
L 396.471273 295.925931 
" clip-path="url(#p63b732274f)" style="fill: none; stroke: #d62728; stroke-width: 2; stroke-linecap: square"/>
    <defs>
     <path id="m3973bbd5ef" d="M -3 3 
L 3 -3 
M -3 -3 
L 3 3 
" style="stroke: #d62728"/>
    </defs>
    <g clip-path="url(#p63b732274f)">
     <use xlink:href="#m3973bbd5ef" x="71.816727" y="314.968" style="fill: #d62728; stroke: #d62728"/>
     <use xlink:href="#m3973bbd5ef" x="201.93879" y="294.906256" style="fill: #d62728; stroke: #d62728"/>
     <use xlink:href="#m3973bbd5ef" x="332.060852" y="295.835749" style="fill: #d62728; stroke: #d62728"/>
    </g>
   </g>
   <g id="line2d_38">
    <path d="M 170.058884 327.064 
L 170.058884 60.952 
" clip-path="url(#p63b732274f)" style="fill: none; stroke-dasharray: 7.4,3.2; stroke-dashoffset: 0; stroke: #d62728; stroke-width: 2"/>
    <g clip-path="url(#p63b732274f)">
     <use xlink:href="#m3973bbd5ef" x="170.058884" y="327.064" style="fill: #d62728; stroke: #d62728"/>
     <use xlink:href="#m3973bbd5ef" x="170.058884" y="60.952" style="fill: #d62728; stroke: #d62728"/>
    </g>
   </g>
   <g id="line2d_39">
    <path d="M 71.816727 314.968 
L 77.67222 314.968 
L 78.32283 185.071197 
L 78.973441 193.993605 
L 80.274661 217.557479 
L 80.925272 225.59504 
L 82.226492 235.597342 
L 83.527713 242.770313 
L 84.828934 248.754893 
L 86.780764 256.031071 
L 88.081985 259.532687 
L 89.383206 262.909937 
L 91.335037 267.011928 
L 93.937478 271.330855 
L 94.588088 272.065198 
L 95.889309 273.892788 
L 101.094191 279.114306 
L 103.046022 280.367907 
L 104.347243 281.304306 
L 105.648463 282.212039 
L 107.600294 283.1307 
L 110.853346 284.815722 
L 111.503956 284.994489 
L 112.805177 285.5676 
L 114.106398 285.938072 
L 115.407618 286.499367 
L 121.913721 288.363914 
L 126.467993 289.399069 
L 127.769214 289.630463 
L 135.576538 290.838977 
L 142.082641 291.601689 
L 148.588744 292.170876 
L 153.793627 292.591156 
L 158.998509 292.985044 
L 161.60095 293.153961 
L 183.721701 294.111692 
L 233.168085 295.309368 
L 319.699256 295.748364 
L 396.471273 295.833856 
L 396.471273 295.833856 
" clip-path="url(#p63b732274f)" style="fill: none; stroke: #9467bd; stroke-width: 2; stroke-linecap: square"/>
    <defs>
     <path id="m88279232c0" d="M -0 3 
L 3 -3 
L -3 -3 
z
" style="stroke: #9467bd; stroke-linejoin: miter"/>
    </defs>
    <g clip-path="url(#p63b732274f)">
     <use xlink:href="#m88279232c0" x="71.816727" y="314.968" style="fill: #9467bd; stroke: #9467bd; stroke-linejoin: miter"/>
     <use xlink:href="#m88279232c0" x="201.93879" y="294.669428" style="fill: #9467bd; stroke: #9467bd; stroke-linejoin: miter"/>
     <use xlink:href="#m88279232c0" x="332.060852" y="295.748011" style="fill: #9467bd; stroke: #9467bd; stroke-linejoin: miter"/>
    </g>
   </g>
   <g id="line2d_40">
    <path d="M 177.866208 327.064 
L 177.866208 60.952 
" clip-path="url(#p63b732274f)" style="fill: none; stroke-dasharray: 7.4,3.2; stroke-dashoffset: 0; stroke: #9467bd; stroke-width: 2"/>
    <g clip-path="url(#p63b732274f)">
     <use xlink:href="#m88279232c0" x="177.866208" y="327.064" style="fill: #9467bd; stroke: #9467bd; stroke-linejoin: miter"/>
     <use xlink:href="#m88279232c0" x="177.866208" y="60.952" style="fill: #9467bd; stroke: #9467bd; stroke-linejoin: miter"/>
    </g>
   </g>
   <g id="line2d_41">
    <path d="M 71.816727 314.968 
L 77.67222 314.968 
L 78.32283 188.044632 
L 78.973441 192.563537 
L 79.624051 207.565442 
L 80.274661 219.596619 
L 80.925272 227.298795 
L 81.575882 232.632378 
L 82.877103 240.511376 
L 83.527713 244.244432 
L 86.130154 254.554082 
L 86.780764 256.803981 
L 88.732595 261.94658 
L 90.033816 265.144923 
L 91.335037 267.685239 
L 92.636257 269.81533 
L 95.889309 274.125808 
L 98.49175 277.043608 
L 100.443581 278.712312 
L 101.094191 279.282523 
L 101.744802 279.610531 
L 103.046022 280.64422 
L 108.901515 283.733369 
L 110.202736 284.281151 
L 112.154567 285.074626 
L 113.455787 285.496373 
L 116.058228 286.324082 
L 118.66067 287.065021 
L 119.96189 287.482392 
L 121.263111 287.728612 
L 125.166773 288.682423 
L 126.467993 288.868222 
L 128.419824 289.38755 
L 139.4802 291.194904 
L 151.841796 292.247688 
L 161.60095 292.939896 
L 163.552781 293.059139 
L 174.613156 293.499451 
L 177.866208 293.583128 
L 182.42048 293.768376 
L 186.974752 293.928024 
L 216.252216 294.625676 
L 219.505268 294.656122 
L 224.05954 294.753236 
L 261.144328 295.070348 
L 270.252872 295.153956 
L 295.626674 295.263774 
L 317.096815 295.342246 
L 329.458411 295.390836 
L 346.374279 295.4165 
L 396.471273 295.480116 
L 396.471273 295.480116 
" clip-path="url(#p63b732274f)" style="fill: none; stroke: #8c564b; stroke-width: 2; stroke-linecap: square"/>
    <defs>
     <path id="mb6faf0ad44" d="M -0 4.242641 
L 2.545584 0 
L 0 -4.242641 
L -2.545584 -0 
z
" style="stroke: #8c564b; stroke-linejoin: miter"/>
    </defs>
    <g clip-path="url(#p63b732274f)">
     <use xlink:href="#mb6faf0ad44" x="71.816727" y="314.968" style="fill: #8c564b; stroke: #8c564b; stroke-linejoin: miter"/>
     <use xlink:href="#mb6faf0ad44" x="201.93879" y="294.280637" style="fill: #8c564b; stroke: #8c564b; stroke-linejoin: miter"/>
     <use xlink:href="#mb6faf0ad44" x="332.060852" y="295.383703" style="fill: #8c564b; stroke: #8c564b; stroke-linejoin: miter"/>
    </g>
   </g>
   <g id="line2d_42">
    <path d="M 186.324142 327.064 
L 186.324142 60.952 
" clip-path="url(#p63b732274f)" style="fill: none; stroke-dasharray: 7.4,3.2; stroke-dashoffset: 0; stroke: #8c564b; stroke-width: 2"/>
    <g clip-path="url(#p63b732274f)">
     <use xlink:href="#mb6faf0ad44" x="186.324142" y="327.064" style="fill: #8c564b; stroke: #8c564b; stroke-linejoin: miter"/>
     <use xlink:href="#mb6faf0ad44" x="186.324142" y="60.952" style="fill: #8c564b; stroke: #8c564b; stroke-linejoin: miter"/>
    </g>
   </g>
   <g id="line2d_43">
    <path d="M 71.816727 314.968 
L 77.67222 314.968 
L 78.32283 189.06364 
L 78.973441 194.219841 
L 80.274661 219.77744 
L 80.925272 227.4519 
L 81.575882 232.704185 
L 83.527713 243.996569 
L 85.479544 251.636144 
L 87.431375 257.562649 
L 88.732595 261.043327 
L 90.684426 265.254037 
L 92.636257 269.015889 
L 94.588088 272.12211 
L 96.539919 274.621353 
L 99.14236 277.299967 
L 101.094191 278.781797 
L 106.299074 282.362196 
L 110.853346 284.354167 
L 122.564332 287.715857 
L 124.516163 288.176918 
L 127.769214 288.774514 
L 131.022266 289.332468 
L 135.576538 290.099286 
L 141.432031 290.864922 
L 143.383862 290.998094 
L 145.986303 291.218912 
L 149.889965 291.645802 
L 151.841796 291.794641 
L 156.396068 292.232122 
L 159.649119 292.492603 
L 168.107053 293.00636 
L 170.709495 293.135698 
L 173.962546 293.28622 
L 178.516818 293.534564 
L 190.878414 293.922993 
L 194.131466 294.069451 
L 200.637569 294.29496 
L 206.493062 294.448259 
L 245.52968 294.966351 
L 254.638225 295.079378 
L 287.16874 295.227289 
L 298.879726 295.281613 
L 319.048646 295.347565 
L 324.904138 295.39798 
L 331.410242 295.402271 
L 396.471273 295.474168 
L 396.471273 295.474168 
" clip-path="url(#p63b732274f)" style="fill: none; stroke: #e377c2; stroke-width: 2; stroke-linecap: square"/>
    <defs>
     <path id="m02ff843395" d="M 0 0 
L 0 3 
M 0 0 
L 2.4 -1.5 
M 0 0 
L -2.4 -1.5 
" style="stroke: #e377c2"/>
    </defs>
    <g clip-path="url(#p63b732274f)">
     <use xlink:href="#m02ff843395" x="71.816727" y="314.968" style="fill: #e377c2; stroke: #e377c2"/>
     <use xlink:href="#m02ff843395" x="201.93879" y="294.363508" style="fill: #e377c2; stroke: #e377c2"/>
     <use xlink:href="#m02ff843395" x="332.060852" y="295.402889" style="fill: #e377c2; stroke: #e377c2"/>
    </g>
   </g>
   <g id="line2d_44">
    <path d="M 188.275973 327.064 
L 188.275973 60.952 
" clip-path="url(#p63b732274f)" style="fill: none; stroke-dasharray: 7.4,3.2; stroke-dashoffset: 0; stroke: #e377c2; stroke-width: 2"/>
    <g clip-path="url(#p63b732274f)">
     <use xlink:href="#m02ff843395" x="188.275973" y="327.064" style="fill: #e377c2; stroke: #e377c2"/>
     <use xlink:href="#m02ff843395" x="188.275973" y="60.952" style="fill: #e377c2; stroke: #e377c2"/>
    </g>
   </g>
   <g id="patch_3">
    <path d="M 55.584 327.064 
L 55.584 60.952 
" style="fill: none; stroke: #000000; stroke-width: 0.8; stroke-linejoin: miter; stroke-linecap: square"/>
   </g>
   <g id="patch_4">
    <path d="M 412.704 327.064 
L 412.704 60.952 
" style="fill: none; stroke: #000000; stroke-width: 0.8; stroke-linejoin: miter; stroke-linecap: square"/>
   </g>
   <g id="patch_5">
    <path d="M 55.584 327.064 
L 412.704 327.064 
" style="fill: none; stroke: #000000; stroke-width: 0.8; stroke-linejoin: miter; stroke-linecap: square"/>
   </g>
   <g id="patch_6">
    <path d="M 55.584 60.952 
L 412.704 60.952 
" style="fill: none; stroke: #000000; stroke-width: 0.8; stroke-linejoin: miter; stroke-linecap: square"/>
   </g>
   <g id="axes_2">
    <g id="patch_7">
     <path d="M 207.36 220.6192 
L 403.776 220.6192 
L 403.776 74.2576 
L 207.36 74.2576 
z
" style="fill: #ffffff"/>
    </g>
    <g id="matplotlib.axis_3">
     <g id="xtick_7">
      <g id="line2d_45">
       <path d="M 207.36 220.6192 
L 207.36 74.2576 
" clip-path="url(#pca7a2d7ea3)" style="fill: none; stroke: #b0b0b0; stroke-width: 0.8; stroke-linecap: square"/>
      </g>
      <g id="line2d_46">
       <defs>
        <path id="m161f5543fa" d="M 0 0 
L 0 3.5 
" style="stroke: #000000; stroke-width: 2"/>
       </defs>
       <g>
        <use xlink:href="#m161f5543fa" x="207.36" y="220.6192" style="stroke: #000000; stroke-width: 2"/>
       </g>
      </g>
      <g id="text_16">
       <!-- 150 -->
       <g transform="translate(193.99875 238.257012) scale(0.14 -0.14)">
        <use xlink:href="#DejaVuSans-31"/>
        <use xlink:href="#DejaVuSans-35" x="63.623047"/>
        <use xlink:href="#DejaVuSans-30" x="127.246094"/>
       </g>
      </g>
     </g>
     <g id="xtick_8">
      <g id="line2d_47">
       <path d="M 259.048421 220.6192 
L 259.048421 74.2576 
" clip-path="url(#pca7a2d7ea3)" style="fill: none; stroke: #b0b0b0; stroke-width: 0.8; stroke-linecap: square"/>
      </g>
      <g id="line2d_48">
       <g>
        <use xlink:href="#m161f5543fa" x="259.048421" y="220.6192" style="stroke: #000000; stroke-width: 2"/>
       </g>
      </g>
      <g id="text_17">
       <!-- 160 -->
       <g transform="translate(245.687171 238.257012) scale(0.14 -0.14)">
        <use xlink:href="#DejaVuSans-31"/>
        <use xlink:href="#DejaVuSans-36" x="63.623047"/>
        <use xlink:href="#DejaVuSans-30" x="127.246094"/>
       </g>
      </g>
     </g>
     <g id="xtick_9">
      <g id="line2d_49">
       <path d="M 310.736842 220.6192 
L 310.736842 74.2576 
" clip-path="url(#pca7a2d7ea3)" style="fill: none; stroke: #b0b0b0; stroke-width: 0.8; stroke-linecap: square"/>
      </g>
      <g id="line2d_50">
       <g>
        <use xlink:href="#m161f5543fa" x="310.736842" y="220.6192" style="stroke: #000000; stroke-width: 2"/>
       </g>
      </g>
      <g id="text_18">
       <!-- 170 -->
       <g transform="translate(297.375592 238.257012) scale(0.14 -0.14)">
        <use xlink:href="#DejaVuSans-31"/>
        <use xlink:href="#DejaVuSans-37" x="63.623047"/>
        <use xlink:href="#DejaVuSans-30" x="127.246094"/>
       </g>
      </g>
     </g>
     <g id="xtick_10">
      <g id="line2d_51">
       <path d="M 362.425263 220.6192 
L 362.425263 74.2576 
" clip-path="url(#pca7a2d7ea3)" style="fill: none; stroke: #b0b0b0; stroke-width: 0.8; stroke-linecap: square"/>
      </g>
      <g id="line2d_52">
       <g>
        <use xlink:href="#m161f5543fa" x="362.425263" y="220.6192" style="stroke: #000000; stroke-width: 2"/>
       </g>
      </g>
      <g id="text_19">
       <!-- 180 -->
       <g transform="translate(349.064013 238.257012) scale(0.14 -0.14)">
        <use xlink:href="#DejaVuSans-31"/>
        <use xlink:href="#DejaVuSans-38" x="63.623047"/>
        <use xlink:href="#DejaVuSans-30" x="127.246094"/>
       </g>
      </g>
     </g>
    </g>
    <g id="matplotlib.axis_4">
     <g id="ytick_10">
      <g id="line2d_53">
       <path d="M 207.36 195.573876 
L 403.776 195.573876 
" clip-path="url(#pca7a2d7ea3)" style="fill: none; stroke: #b0b0b0; stroke-width: 0.8; stroke-linecap: square"/>
      </g>
      <g id="line2d_54">
       <defs>
        <path id="m68a6295c13" d="M 0 0 
L -3.5 0 
" style="stroke: #000000; stroke-width: 2"/>
       </defs>
       <g>
        <use xlink:href="#m68a6295c13" x="207.36" y="195.573876" style="stroke: #000000; stroke-width: 2"/>
       </g>
      </g>
      <g id="text_20">
       <!-- 0.066 -->
       <g transform="translate(160.280625 200.892782) scale(0.14 -0.14)">
        <use xlink:href="#DejaVuSans-30"/>
        <use xlink:href="#DejaVuSans-2e" x="63.623047"/>
        <use xlink:href="#DejaVuSans-30" x="95.410156"/>
        <use xlink:href="#DejaVuSans-36" x="159.033203"/>
        <use xlink:href="#DejaVuSans-36" x="222.65625"/>
       </g>
      </g>
     </g>
     <g id="ytick_11">
      <g id="line2d_55">
       <path d="M 207.36 139.254997 
L 403.776 139.254997 
" clip-path="url(#pca7a2d7ea3)" style="fill: none; stroke: #b0b0b0; stroke-width: 0.8; stroke-linecap: square"/>
      </g>
      <g id="line2d_56">
       <g>
        <use xlink:href="#m68a6295c13" x="207.36" y="139.254997" style="stroke: #000000; stroke-width: 2"/>
       </g>
      </g>
      <g id="text_21">
       <!-- 0.067 -->
       <g transform="translate(160.280625 144.573903) scale(0.14 -0.14)">
        <use xlink:href="#DejaVuSans-30"/>
        <use xlink:href="#DejaVuSans-2e" x="63.623047"/>
        <use xlink:href="#DejaVuSans-30" x="95.410156"/>
        <use xlink:href="#DejaVuSans-36" x="159.033203"/>
        <use xlink:href="#DejaVuSans-37" x="222.65625"/>
       </g>
      </g>
     </g>
     <g id="ytick_12">
      <g id="line2d_57">
       <path d="M 207.36 82.936117 
L 403.776 82.936117 
" clip-path="url(#pca7a2d7ea3)" style="fill: none; stroke: #b0b0b0; stroke-width: 0.8; stroke-linecap: square"/>
      </g>
      <g id="line2d_58">
       <g>
        <use xlink:href="#m68a6295c13" x="207.36" y="82.936117" style="stroke: #000000; stroke-width: 2"/>
       </g>
      </g>
      <g id="text_22">
       <!-- 0.068 -->
       <g transform="translate(160.280625 88.255024) scale(0.14 -0.14)">
        <use xlink:href="#DejaVuSans-30"/>
        <use xlink:href="#DejaVuSans-2e" x="63.623047"/>
        <use xlink:href="#DejaVuSans-30" x="95.410156"/>
        <use xlink:href="#DejaVuSans-36" x="159.033203"/>
        <use xlink:href="#DejaVuSans-38" x="222.65625"/>
       </g>
      </g>
     </g>
    </g>
    <g id="line2d_59">
     <path d="M 0 0 
" clip-path="url(#pca7a2d7ea3)" style="fill: none; stroke: #1f77b4; stroke-width: 1.5; stroke-linecap: square"/>
    </g>
    <g id="line2d_60">
     <path clip-path="url(#pca7a2d7ea3)" style="fill: none; stroke-dasharray: 5.55,2.4; stroke-dashoffset: 0; stroke: #1f77b4; stroke-width: 1.5"/>
    </g>
    <g id="line2d_61">
     <path d="M 233.532254 -1 
L 238.373053 4.601913 
L 243.541895 9.572298 
L 248.710737 15.329042 
L 253.879579 17.401161 
L 259.048421 21.088464 
L 264.217263 25.453101 
L 269.386105 32.26508 
L 274.554947 38.512639 
L 279.723789 42.23987 
L 284.892632 45.287276 
L 290.061474 49.213832 
L 295.230316 56.768093 
L 300.399158 60.827595 
L 305.568 67.563714 
L 310.736842 74.553974 
L 315.905684 81.906716 
L 321.074526 83.124092 
L 326.243368 91.528268 
L 331.412211 96.322344 
L 336.581053 99.752275 
L 341.749895 102.241957 
L 346.918737 101.941508 
L 352.087579 108.222366 
L 357.256421 113.876995 
L 362.425263 115.965123 
L 367.594105 119.748694 
L 372.762947 127.769414 
L 383.100632 130.083763 
L 388.269474 135.85338 
L 393.438316 142.459103 
L 398.607158 146.139976 
L 403.776 152.384781 
L 408.944842 155.465194 
L 414.113684 159.308234 
L 419.282526 156.764358 
L 422.834781 156.959068 
L 422.834781 156.959068 
" clip-path="url(#pca7a2d7ea3)" style="fill: none; stroke: #ff7f0e; stroke-width: 1.5; stroke-linecap: square"/>
    </g>
    <g id="line2d_62">
     <path d="M 398.607158 220.6192 
L 398.607158 74.2576 
" clip-path="url(#pca7a2d7ea3)" style="fill: none; stroke-dasharray: 5.55,2.4; stroke-dashoffset: 0; stroke: #ff7f0e; stroke-width: 1.5"/>
    </g>
    <g id="line2d_63">
     <path d="M 109.908758 -1 
L 114.320842 8.336873 
L 119.489684 17.92603 
L 124.658526 25.476296 
L 129.827368 32.77472 
L 134.996211 37.347486 
L 140.165053 46.580066 
L 145.333895 57.276323 
L 150.502737 62.088752 
L 155.671579 65.692982 
L 160.840421 73.119417 
L 166.009263 84.42393 
L 171.178105 90.3246 
L 176.346947 96.800441 
L 181.515789 100.937768 
L 186.684632 109.804623 
L 191.853474 116.454223 
L 197.022316 119.023847 
L 202.191158 125.292437 
L 207.36 132.46118 
L 212.528842 140.895613 
L 217.697684 146.358324 
L 222.866526 154.390155 
L 228.035368 159.281639 
L 233.204211 165.213855 
L 238.373053 169.2862 
L 243.541895 175.320945 
L 248.710737 181.017427 
L 253.879579 186.23226 
L 259.048421 189.468762 
L 264.217263 195.861493 
L 269.386105 206.020084 
L 274.554947 210.850967 
L 279.723789 212.543813 
L 284.892632 216.697625 
L 290.061474 224.281126 
L 295.230316 228.414307 
L 300.399158 232.207294 
L 305.568 236.563287 
L 310.736842 241.910659 
L 315.905684 243.695119 
L 321.074526 249.774055 
L 326.243368 249.74552 
L 331.412211 251.879622 
L 336.581053 255.4745 
L 341.749895 261.127581 
L 346.918737 265.567765 
L 352.087579 271.207957 
L 357.256421 274.102924 
L 362.425263 274.316819 
L 367.594105 278.784668 
L 372.762947 280.054758 
L 377.931789 283.077529 
L 383.100632 288.085601 
L 388.269474 290.281687 
L 393.438316 291.254807 
L 398.607158 294.704102 
L 403.776 296.032528 
L 408.944842 296.022666 
L 414.113684 301.925261 
L 419.282526 306.569259 
L 422.834781 309.030682 
L 422.834781 309.030682 
" clip-path="url(#pca7a2d7ea3)" style="fill: none; stroke: #2ca02c; stroke-width: 1.5; stroke-linecap: square"/>
    </g>
    <g id="line2d_64">
     <path d="M 217.697684 220.6192 
L 217.697684 74.2576 
" clip-path="url(#pca7a2d7ea3)" style="fill: none; stroke-dasharray: 5.55,2.4; stroke-dashoffset: 0; stroke: #2ca02c; stroke-width: 1.5"/>
    </g>
    <g id="line2d_65">
     <path d="M 107.128544 -1 
L 109.152 0.201505 
L 114.320842 14.533912 
L 124.658526 24.564743 
L 129.827368 31.783641 
L 134.996211 40.099639 
L 140.165053 44.901327 
L 145.333895 57.203868 
L 150.502737 62.724111 
L 155.671579 69.062217 
L 160.840421 78.694907 
L 166.009263 84.714351 
L 171.178105 91.741994 
L 176.346947 99.940548 
L 181.515789 104.830751 
L 186.684632 110.22517 
L 191.853474 119.202183 
L 197.022316 124.031089 
L 202.191158 130.032609 
L 207.36 141.22989 
L 212.528842 144.656199 
L 217.697684 150.960704 
L 222.866526 156.288351 
L 228.035368 157.562019 
L 233.204211 165.908818 
L 238.373053 177.329654 
L 243.541895 183.237955 
L 248.710737 188.825282 
L 253.879579 193.298383 
L 259.048421 203.0692 
L 264.217263 206.13257 
L 269.386105 208.137893 
L 274.554947 211.166545 
L 279.723789 214.576619 
L 284.892632 222.820235 
L 290.061474 226.492618 
L 295.230316 230.557626 
L 300.399158 230.949461 
L 305.568 235.222216 
L 310.736842 234.819109 
L 315.905684 241.007044 
L 321.074526 240.823864 
L 326.243368 248.582624 
L 331.412211 249.703648 
L 336.581053 252.341584 
L 341.749895 256.044648 
L 346.918737 261.290501 
L 352.087579 263.463679 
L 357.256421 269.79824 
L 362.425263 275.94095 
L 367.594105 279.806215 
L 372.762947 284.506642 
L 377.931789 291.255095 
L 383.100632 295.061707 
L 388.269474 296.717297 
L 393.438316 299.027689 
L 398.607158 300.956584 
L 403.776 303.925479 
L 408.944842 307.264089 
L 414.113684 309.549066 
L 419.282526 312.578303 
L 422.834781 312.0505 
L 422.834781 312.0505 
" clip-path="url(#pca7a2d7ea3)" style="fill: none; stroke: #d62728; stroke-width: 1.5; stroke-linecap: square"/>
    </g>
    <g id="line2d_66">
     <path d="M 212.528842 220.6192 
L 212.528842 74.2576 
" clip-path="url(#pca7a2d7ea3)" style="fill: none; stroke-dasharray: 5.55,2.4; stroke-dashoffset: 0; stroke: #d62728; stroke-width: 1.5"/>
    </g>
    <g id="line2d_67">
     <path d="M 132.53314 -1 
L 134.996211 1.050601 
L 140.165053 7.66493 
L 145.333895 15.509956 
L 150.502737 21.110532 
L 155.671579 27.825579 
L 160.840421 33.016524 
L 166.009263 34.456909 
L 171.178105 40.013135 
L 181.515789 56.869606 
L 191.853474 68.563966 
L 197.022316 69.473731 
L 202.191158 76.5466 
L 207.36 81.945661 
L 212.528842 88.960365 
L 217.697684 98.876553 
L 222.866526 102.207703 
L 228.035368 109.29606 
L 233.204211 115.343019 
L 238.373053 120.659904 
L 243.541895 125.712111 
L 248.710737 129.699683 
L 253.879579 135.189496 
L 259.048421 135.591667 
L 269.386105 143.783589 
L 274.554947 145.904586 
L 279.723789 154.79484 
L 284.892632 158.597364 
L 290.061474 161.649025 
L 295.230316 165.378848 
L 300.399158 171.280886 
L 305.568 173.629049 
L 310.736842 176.306918 
L 315.905684 180.531668 
L 321.074526 186.610003 
L 326.243368 189.674061 
L 331.412211 194.313603 
L 341.749895 201.542601 
L 346.918737 204.84486 
L 352.087579 209.412866 
L 357.256421 214.423534 
L 362.425263 217.835454 
L 367.594105 222.534618 
L 372.762947 224.379691 
L 377.931789 224.853239 
L 383.100632 231.997914 
L 388.269474 237.513355 
L 393.438316 241.586593 
L 398.607158 246.577864 
L 403.776 249.501528 
L 408.944842 252.273675 
L 414.113684 257.14641 
L 419.282526 257.424767 
L 422.834781 260.41813 
L 422.834781 260.41813 
" clip-path="url(#pca7a2d7ea3)" style="fill: none; stroke: #9467bd; stroke-width: 1.5; stroke-linecap: square"/>
    </g>
    <g id="line2d_68">
     <path d="M 274.554947 220.6192 
L 274.554947 74.2576 
" clip-path="url(#pca7a2d7ea3)" style="fill: none; stroke-dasharray: 5.55,2.4; stroke-dashoffset: 0; stroke: #9467bd; stroke-width: 1.5"/>
    </g>
    <g id="line2d_69">
     <path d="M 161.246405 -1 
L 166.009263 4.047455 
L 171.178105 5.436933 
L 176.346947 12.606053 
L 181.515789 19.229996 
L 191.853474 28.232095 
L 197.022316 29.044798 
L 202.191158 30.145403 
L 207.36 37.283577 
L 212.528842 37.814862 
L 217.697684 45.624118 
L 222.866526 52.205733 
L 228.035368 57.924551 
L 233.204211 63.246145 
L 238.373053 67.255272 
L 243.541895 71.804177 
L 248.710737 77.23225 
L 253.879579 77.090749 
L 259.048421 78.93489 
L 264.217263 84.724789 
L 269.386105 88.547275 
L 274.554947 92.181145 
L 279.723789 99.731513 
L 284.892632 102.51656 
L 290.061474 107.774069 
L 295.230316 113.305181 
L 300.399158 116.301747 
L 305.568 119.770997 
L 310.736842 125.276121 
L 315.905684 126.590871 
L 321.074526 131.297266 
L 326.243368 134.606567 
L 331.412211 138.81991 
L 336.581053 143.812119 
L 341.749895 150.220601 
L 346.918737 153.797468 
L 352.087579 156.16973 
L 357.256421 158.003165 
L 362.425263 163.224553 
L 367.594105 169.656486 
L 372.762947 170.599221 
L 377.931789 168.988145 
L 383.100632 171.334079 
L 388.269474 170.81056 
L 393.438316 173.068819 
L 398.607158 174.205469 
L 403.776 176.221726 
L 408.944842 180.163423 
L 414.113684 182.329443 
L 419.282526 189.841026 
L 422.834781 191.707234 
L 422.834781 191.707234 
" clip-path="url(#pca7a2d7ea3)" style="fill: none; stroke: #8c564b; stroke-width: 1.5; stroke-linecap: square"/>
    </g>
    <g id="line2d_70">
     <path d="M 341.749895 220.6192 
L 341.749895 74.2576 
" clip-path="url(#pca7a2d7ea3)" style="fill: none; stroke-dasharray: 5.55,2.4; stroke-dashoffset: 0; stroke: #8c564b; stroke-width: 1.5"/>
    </g>
    <g id="line2d_71">
     <path d="M 201.994865 -1 
L 202.191158 -0.610807 
L 207.36 4.526073 
L 212.528842 8.684359 
L 217.697684 12.247119 
L 222.866526 13.903035 
L 228.035368 20.608859 
L 233.204211 30.0548 
L 238.373053 33.632589 
L 243.541895 39.138123 
L 248.710737 47.795231 
L 253.879579 51.647279 
L 259.048421 60.219888 
L 264.217263 68.213531 
L 269.386105 72.932058 
L 274.554947 81.831724 
L 279.723789 83.505114 
L 284.892632 86.329064 
L 290.061474 91.454821 
L 295.230316 97.125428 
L 300.399158 99.191262 
L 305.568 104.495892 
L 310.736842 114.190879 
L 315.905684 117.315014 
L 321.074526 117.716015 
L 326.243368 123.235127 
L 331.412211 125.751335 
L 341.749895 134.746094 
L 346.918737 138.209755 
L 352.087579 141.311616 
L 362.425263 148.26493 
L 367.594105 148.239927 
L 372.762947 151.25732 
L 377.931789 152.898529 
L 383.100632 161.277206 
L 388.269474 166.527982 
L 393.438316 173.531873 
L 398.607158 173.434802 
L 403.776 179.063474 
L 408.944842 181.263361 
L 414.113684 186.607991 
L 419.282526 190.863848 
L 422.834781 192.063668 
L 422.834781 192.063668 
" clip-path="url(#pca7a2d7ea3)" style="fill: none; stroke: #e377c2; stroke-width: 1.5; stroke-linecap: square"/>
    </g>
    <g id="line2d_72">
     <path d="M 357.256421 220.6192 
L 357.256421 74.2576 
" clip-path="url(#pca7a2d7ea3)" style="fill: none; stroke-dasharray: 5.55,2.4; stroke-dashoffset: 0; stroke: #e377c2; stroke-width: 1.5"/>
    </g>
    <g id="patch_8">
     <path d="M 207.36 220.6192 
L 207.36 74.2576 
" style="fill: none; stroke: #000000; stroke-width: 2; stroke-linejoin: miter; stroke-linecap: square"/>
    </g>
    <g id="patch_9">
     <path d="M 403.776 220.6192 
L 403.776 74.2576 
" style="fill: none; stroke: #000000; stroke-width: 2; stroke-linejoin: miter; stroke-linecap: square"/>
    </g>
    <g id="patch_10">
     <path d="M 207.36 220.6192 
L 403.776 220.6192 
" style="fill: none; stroke: #000000; stroke-width: 2; stroke-linejoin: miter; stroke-linecap: square"/>
    </g>
    <g id="patch_11">
     <path d="M 207.36 74.2576 
L 403.776 74.2576 
" style="fill: none; stroke: #000000; stroke-width: 2; stroke-linejoin: miter; stroke-linecap: square"/>
    </g>
   </g>
   <g id="legend_1">
    <g id="patch_12">
     <path d="M 44.133219 54.278125 
L 412.634781 54.278125 
Q 414.634781 54.278125 414.634781 52.278125 
L 414.634781 9.2 
Q 414.634781 7.2 412.634781 7.2 
L 44.133219 7.2 
Q 42.133219 7.2 42.133219 9.2 
L 42.133219 52.278125 
Q 42.133219 54.278125 44.133219 54.278125 
z
" style="fill: #ffffff; opacity: 0.8; stroke: #cccccc; stroke-linejoin: miter"/>
    </g>
    <g id="line2d_73">
     <path d="M 46.133219 15.298437 
L 56.133219 15.298437 
L 66.133219 15.298437 
" style="fill: none; stroke: #1f77b4; stroke-width: 2; stroke-linecap: square"/>
     <g>
      <use xlink:href="#m856abcb9ab" x="56.133219" y="15.298437" style="fill: #1f77b4; stroke: #1f77b4"/>
     </g>
    </g>
    <g id="text_23">
     <!-- $\kappa$ = 0.02 -->
     <g transform="translate(74.133219 18.798437) scale(0.1 -0.1)">
      <defs>
       <path id="DejaVuSans-Oblique-3ba" d="M 938 3500 
L 1531 3500 
L 1247 2047 
L 3041 3500 
L 3741 3500 
L 2106 2181 
L 3275 0 
L 2572 0 
L 1628 1806 
L 1122 1403 
L 850 0 
L 256 0 
L 938 3500 
z
" transform="scale(0.015625)"/>
       <path id="DejaVuSans-20" transform="scale(0.015625)"/>
       <path id="DejaVuSans-3d" d="M 678 2906 
L 4684 2906 
L 4684 2381 
L 678 2381 
L 678 2906 
z
M 678 1631 
L 4684 1631 
L 4684 1100 
L 678 1100 
L 678 1631 
z
" transform="scale(0.015625)"/>
      </defs>
      <use xlink:href="#DejaVuSans-Oblique-3ba" transform="translate(0 0.78125)"/>
      <use xlink:href="#DejaVuSans-20" transform="translate(58.935547 0.78125)"/>
      <use xlink:href="#DejaVuSans-3d" transform="translate(90.722656 0.78125)"/>
      <use xlink:href="#DejaVuSans-20" transform="translate(174.511719 0.78125)"/>
      <use xlink:href="#DejaVuSans-30" transform="translate(206.298828 0.78125)"/>
      <use xlink:href="#DejaVuSans-2e" transform="translate(269.921875 0.78125)"/>
      <use xlink:href="#DejaVuSans-30" transform="translate(301.708984 0.78125)"/>
      <use xlink:href="#DejaVuSans-32" transform="translate(365.332031 0.78125)"/>
     </g>
    </g>
    <g id="line2d_74">
     <path d="M 46.133219 29.978125 
L 56.133219 29.978125 
L 66.133219 29.978125 
" style="fill: none; stroke: #ff7f0e; stroke-width: 2; stroke-linecap: square"/>
     <g>
      <use xlink:href="#mfd33d5c568" x="56.133219" y="29.978125" style="fill: #ff7f0e; stroke: #ff7f0e; stroke-linejoin: miter"/>
     </g>
    </g>
    <g id="text_24">
     <!-- Constant-edge ($\alpha$ = 0.333) -->
     <g transform="translate(74.133219 33.478125) scale(0.1 -0.1)">
      <defs>
       <path id="DejaVuSans-43" d="M 4122 4306 
L 4122 3641 
Q 3803 3938 3442 4084 
Q 3081 4231 2675 4231 
Q 1875 4231 1450 3742 
Q 1025 3253 1025 2328 
Q 1025 1406 1450 917 
Q 1875 428 2675 428 
Q 3081 428 3442 575 
Q 3803 722 4122 1019 
L 4122 359 
Q 3791 134 3420 21 
Q 3050 -91 2638 -91 
Q 1578 -91 968 557 
Q 359 1206 359 2328 
Q 359 3453 968 4101 
Q 1578 4750 2638 4750 
Q 3056 4750 3426 4639 
Q 3797 4528 4122 4306 
z
" transform="scale(0.015625)"/>
       <path id="DejaVuSans-6f" d="M 1959 3097 
Q 1497 3097 1228 2736 
Q 959 2375 959 1747 
Q 959 1119 1226 758 
Q 1494 397 1959 397 
Q 2419 397 2687 759 
Q 2956 1122 2956 1747 
Q 2956 2369 2687 2733 
Q 2419 3097 1959 3097 
z
M 1959 3584 
Q 2709 3584 3137 3096 
Q 3566 2609 3566 1747 
Q 3566 888 3137 398 
Q 2709 -91 1959 -91 
Q 1206 -91 779 398 
Q 353 888 353 1747 
Q 353 2609 779 3096 
Q 1206 3584 1959 3584 
z
" transform="scale(0.015625)"/>
       <path id="DejaVuSans-6e" d="M 3513 2113 
L 3513 0 
L 2938 0 
L 2938 2094 
Q 2938 2591 2744 2837 
Q 2550 3084 2163 3084 
Q 1697 3084 1428 2787 
Q 1159 2491 1159 1978 
L 1159 0 
L 581 0 
L 581 3500 
L 1159 3500 
L 1159 2956 
Q 1366 3272 1645 3428 
Q 1925 3584 2291 3584 
Q 2894 3584 3203 3211 
Q 3513 2838 3513 2113 
z
" transform="scale(0.015625)"/>
       <path id="DejaVuSans-73" d="M 2834 3397 
L 2834 2853 
Q 2591 2978 2328 3040 
Q 2066 3103 1784 3103 
Q 1356 3103 1142 2972 
Q 928 2841 928 2578 
Q 928 2378 1081 2264 
Q 1234 2150 1697 2047 
L 1894 2003 
Q 2506 1872 2764 1633 
Q 3022 1394 3022 966 
Q 3022 478 2636 193 
Q 2250 -91 1575 -91 
Q 1294 -91 989 -36 
Q 684 19 347 128 
L 347 722 
Q 666 556 975 473 
Q 1284 391 1588 391 
Q 1994 391 2212 530 
Q 2431 669 2431 922 
Q 2431 1156 2273 1281 
Q 2116 1406 1581 1522 
L 1381 1569 
Q 847 1681 609 1914 
Q 372 2147 372 2553 
Q 372 3047 722 3315 
Q 1072 3584 1716 3584 
Q 2034 3584 2315 3537 
Q 2597 3491 2834 3397 
z
" transform="scale(0.015625)"/>
       <path id="DejaVuSans-74" d="M 1172 4494 
L 1172 3500 
L 2356 3500 
L 2356 3053 
L 1172 3053 
L 1172 1153 
Q 1172 725 1289 603 
Q 1406 481 1766 481 
L 2356 481 
L 2356 0 
L 1766 0 
Q 1100 0 847 248 
Q 594 497 594 1153 
L 594 3053 
L 172 3053 
L 172 3500 
L 594 3500 
L 594 4494 
L 1172 4494 
z
" transform="scale(0.015625)"/>
       <path id="DejaVuSans-61" d="M 2194 1759 
Q 1497 1759 1228 1600 
Q 959 1441 959 1056 
Q 959 750 1161 570 
Q 1363 391 1709 391 
Q 2188 391 2477 730 
Q 2766 1069 2766 1631 
L 2766 1759 
L 2194 1759 
z
M 3341 1997 
L 3341 0 
L 2766 0 
L 2766 531 
Q 2569 213 2275 61 
Q 1981 -91 1556 -91 
Q 1019 -91 701 211 
Q 384 513 384 1019 
Q 384 1609 779 1909 
Q 1175 2209 1959 2209 
L 2766 2209 
L 2766 2266 
Q 2766 2663 2505 2880 
Q 2244 3097 1772 3097 
Q 1472 3097 1187 3025 
Q 903 2953 641 2809 
L 641 3341 
Q 956 3463 1253 3523 
Q 1550 3584 1831 3584 
Q 2591 3584 2966 3190 
Q 3341 2797 3341 1997 
z
" transform="scale(0.015625)"/>
       <path id="DejaVuSans-2d" d="M 313 2009 
L 1997 2009 
L 1997 1497 
L 313 1497 
L 313 2009 
z
" transform="scale(0.015625)"/>
       <path id="DejaVuSans-65" d="M 3597 1894 
L 3597 1613 
L 953 1613 
Q 991 1019 1311 708 
Q 1631 397 2203 397 
Q 2534 397 2845 478 
Q 3156 559 3463 722 
L 3463 178 
Q 3153 47 2828 -22 
Q 2503 -91 2169 -91 
Q 1331 -91 842 396 
Q 353 884 353 1716 
Q 353 2575 817 3079 
Q 1281 3584 2069 3584 
Q 2775 3584 3186 3129 
Q 3597 2675 3597 1894 
z
M 3022 2063 
Q 3016 2534 2758 2815 
Q 2500 3097 2075 3097 
Q 1594 3097 1305 2825 
Q 1016 2553 972 2059 
L 3022 2063 
z
" transform="scale(0.015625)"/>
       <path id="DejaVuSans-64" d="M 2906 2969 
L 2906 4863 
L 3481 4863 
L 3481 0 
L 2906 0 
L 2906 525 
Q 2725 213 2448 61 
Q 2172 -91 1784 -91 
Q 1150 -91 751 415 
Q 353 922 353 1747 
Q 353 2572 751 3078 
Q 1150 3584 1784 3584 
Q 2172 3584 2448 3432 
Q 2725 3281 2906 2969 
z
M 947 1747 
Q 947 1113 1208 752 
Q 1469 391 1925 391 
Q 2381 391 2643 752 
Q 2906 1113 2906 1747 
Q 2906 2381 2643 2742 
Q 2381 3103 1925 3103 
Q 1469 3103 1208 2742 
Q 947 2381 947 1747 
z
" transform="scale(0.015625)"/>
       <path id="DejaVuSans-67" d="M 2906 1791 
Q 2906 2416 2648 2759 
Q 2391 3103 1925 3103 
Q 1463 3103 1205 2759 
Q 947 2416 947 1791 
Q 947 1169 1205 825 
Q 1463 481 1925 481 
Q 2391 481 2648 825 
Q 2906 1169 2906 1791 
z
M 3481 434 
Q 3481 -459 3084 -895 
Q 2688 -1331 1869 -1331 
Q 1566 -1331 1297 -1286 
Q 1028 -1241 775 -1147 
L 775 -588 
Q 1028 -725 1275 -790 
Q 1522 -856 1778 -856 
Q 2344 -856 2625 -561 
Q 2906 -266 2906 331 
L 2906 616 
Q 2728 306 2450 153 
Q 2172 0 1784 0 
Q 1141 0 747 490 
Q 353 981 353 1791 
Q 353 2603 747 3093 
Q 1141 3584 1784 3584 
Q 2172 3584 2450 3431 
Q 2728 3278 2906 2969 
L 2906 3500 
L 3481 3500 
L 3481 434 
z
" transform="scale(0.015625)"/>
       <path id="DejaVuSans-28" d="M 1984 4856 
Q 1566 4138 1362 3434 
Q 1159 2731 1159 2009 
Q 1159 1288 1364 580 
Q 1569 -128 1984 -844 
L 1484 -844 
Q 1016 -109 783 600 
Q 550 1309 550 2009 
Q 550 2706 781 3412 
Q 1013 4119 1484 4856 
L 1984 4856 
z
" transform="scale(0.015625)"/>
       <path id="DejaVuSans-Oblique-3b1" d="M 2619 1628 
L 2622 2350 
Q 2625 3088 2069 3091 
Q 1653 3094 1394 2747 
Q 1069 2319 959 1747 
Q 825 1059 994 731 
Q 1169 397 1547 397 
Q 1966 397 2319 1063 
L 2619 1628 
z
M 2166 3578 
Q 3141 3594 3128 2584 
Q 3128 2584 3616 3500 
L 4128 3500 
L 3119 1603 
L 3109 919 
Q 3109 766 3194 638 
Q 3291 488 3391 488 
L 3669 488 
L 3575 0 
L 3228 0 
Q 2934 0 2722 263 
Q 2622 394 2619 669 
Q 2416 334 2066 50 
Q 1900 -81 1453 -78 
Q 722 -72 456 397 
Q 184 884 353 1747 
Q 534 2675 1009 3097 
Q 1544 3569 2166 3578 
z
" transform="scale(0.015625)"/>
       <path id="DejaVuSans-29" d="M 513 4856 
L 1013 4856 
Q 1481 4119 1714 3412 
Q 1947 2706 1947 2009 
Q 1947 1309 1714 600 
Q 1481 -109 1013 -844 
L 513 -844 
Q 928 -128 1133 580 
Q 1338 1288 1338 2009 
Q 1338 2731 1133 3434 
Q 928 4138 513 4856 
z
" transform="scale(0.015625)"/>
      </defs>
      <use xlink:href="#DejaVuSans-43" transform="translate(0 0.015625)"/>
      <use xlink:href="#DejaVuSans-6f" transform="translate(69.824219 0.015625)"/>
      <use xlink:href="#DejaVuSans-6e" transform="translate(131.005859 0.015625)"/>
      <use xlink:href="#DejaVuSans-73" transform="translate(194.384766 0.015625)"/>
      <use xlink:href="#DejaVuSans-74" transform="translate(246.484375 0.015625)"/>
      <use xlink:href="#DejaVuSans-61" transform="translate(285.693359 0.015625)"/>
      <use xlink:href="#DejaVuSans-6e" transform="translate(346.972656 0.015625)"/>
      <use xlink:href="#DejaVuSans-74" transform="translate(410.351562 0.015625)"/>
      <use xlink:href="#DejaVuSans-2d" transform="translate(449.560547 0.015625)"/>
      <use xlink:href="#DejaVuSans-65" transform="translate(485.644531 0.015625)"/>
      <use xlink:href="#DejaVuSans-64" transform="translate(547.167969 0.015625)"/>
      <use xlink:href="#DejaVuSans-67" transform="translate(610.644531 0.015625)"/>
      <use xlink:href="#DejaVuSans-65" transform="translate(674.121094 0.015625)"/>
      <use xlink:href="#DejaVuSans-20" transform="translate(735.644531 0.015625)"/>
      <use xlink:href="#DejaVuSans-28" transform="translate(767.431641 0.015625)"/>
      <use xlink:href="#DejaVuSans-Oblique-3b1" transform="translate(806.445312 0.015625)"/>
      <use xlink:href="#DejaVuSans-20" transform="translate(872.363281 0.015625)"/>
      <use xlink:href="#DejaVuSans-3d" transform="translate(904.150391 0.015625)"/>
      <use xlink:href="#DejaVuSans-20" transform="translate(987.939453 0.015625)"/>
      <use xlink:href="#DejaVuSans-30" transform="translate(1019.726562 0.015625)"/>
      <use xlink:href="#DejaVuSans-2e" transform="translate(1083.349609 0.015625)"/>
      <use xlink:href="#DejaVuSans-33" transform="translate(1115.136719 0.015625)"/>
      <use xlink:href="#DejaVuSans-33" transform="translate(1178.759766 0.015625)"/>
      <use xlink:href="#DejaVuSans-33" transform="translate(1242.382812 0.015625)"/>
      <use xlink:href="#DejaVuSans-29" transform="translate(1306.005859 0.015625)"/>
     </g>
    </g>
    <g id="line2d_75">
     <path d="M 46.133219 44.678125 
L 56.133219 44.678125 
L 66.133219 44.678125 
" style="fill: none; stroke: #2ca02c; stroke-width: 2; stroke-linecap: square"/>
     <g>
      <use xlink:href="#m7a61924507" x="56.133219" y="44.678125" style="fill: #2ca02c; stroke: #2ca02c; stroke-linejoin: miter"/>
     </g>
    </g>
    <g id="text_25">
     <!-- Maximum-degree ($\alpha$ = 0.250) -->
     <g transform="translate(74.133219 48.178125) scale(0.1 -0.1)">
      <defs>
       <path id="DejaVuSans-4d" d="M 628 4666 
L 1569 4666 
L 2759 1491 
L 3956 4666 
L 4897 4666 
L 4897 0 
L 4281 0 
L 4281 4097 
L 3078 897 
L 2444 897 
L 1241 4097 
L 1241 0 
L 628 0 
L 628 4666 
z
" transform="scale(0.015625)"/>
       <path id="DejaVuSans-78" d="M 3513 3500 
L 2247 1797 
L 3578 0 
L 2900 0 
L 1881 1375 
L 863 0 
L 184 0 
L 1544 1831 
L 300 3500 
L 978 3500 
L 1906 2253 
L 2834 3500 
L 3513 3500 
z
" transform="scale(0.015625)"/>
       <path id="DejaVuSans-69" d="M 603 3500 
L 1178 3500 
L 1178 0 
L 603 0 
L 603 3500 
z
M 603 4863 
L 1178 4863 
L 1178 4134 
L 603 4134 
L 603 4863 
z
" transform="scale(0.015625)"/>
       <path id="DejaVuSans-6d" d="M 3328 2828 
Q 3544 3216 3844 3400 
Q 4144 3584 4550 3584 
Q 5097 3584 5394 3201 
Q 5691 2819 5691 2113 
L 5691 0 
L 5113 0 
L 5113 2094 
Q 5113 2597 4934 2840 
Q 4756 3084 4391 3084 
Q 3944 3084 3684 2787 
Q 3425 2491 3425 1978 
L 3425 0 
L 2847 0 
L 2847 2094 
Q 2847 2600 2669 2842 
Q 2491 3084 2119 3084 
Q 1678 3084 1418 2786 
Q 1159 2488 1159 1978 
L 1159 0 
L 581 0 
L 581 3500 
L 1159 3500 
L 1159 2956 
Q 1356 3278 1631 3431 
Q 1906 3584 2284 3584 
Q 2666 3584 2933 3390 
Q 3200 3197 3328 2828 
z
" transform="scale(0.015625)"/>
       <path id="DejaVuSans-75" d="M 544 1381 
L 544 3500 
L 1119 3500 
L 1119 1403 
Q 1119 906 1312 657 
Q 1506 409 1894 409 
Q 2359 409 2629 706 
Q 2900 1003 2900 1516 
L 2900 3500 
L 3475 3500 
L 3475 0 
L 2900 0 
L 2900 538 
Q 2691 219 2414 64 
Q 2138 -91 1772 -91 
Q 1169 -91 856 284 
Q 544 659 544 1381 
z
M 1991 3584 
L 1991 3584 
z
" transform="scale(0.015625)"/>
       <path id="DejaVuSans-72" d="M 2631 2963 
Q 2534 3019 2420 3045 
Q 2306 3072 2169 3072 
Q 1681 3072 1420 2755 
Q 1159 2438 1159 1844 
L 1159 0 
L 581 0 
L 581 3500 
L 1159 3500 
L 1159 2956 
Q 1341 3275 1631 3429 
Q 1922 3584 2338 3584 
Q 2397 3584 2469 3576 
Q 2541 3569 2628 3553 
L 2631 2963 
z
" transform="scale(0.015625)"/>
      </defs>
      <use xlink:href="#DejaVuSans-4d" transform="translate(0 0.015625)"/>
      <use xlink:href="#DejaVuSans-61" transform="translate(86.279297 0.015625)"/>
      <use xlink:href="#DejaVuSans-78" transform="translate(147.558594 0.015625)"/>
      <use xlink:href="#DejaVuSans-69" transform="translate(206.738281 0.015625)"/>
      <use xlink:href="#DejaVuSans-6d" transform="translate(234.521484 0.015625)"/>
      <use xlink:href="#DejaVuSans-75" transform="translate(331.933594 0.015625)"/>
      <use xlink:href="#DejaVuSans-6d" transform="translate(395.3125 0.015625)"/>
      <use xlink:href="#DejaVuSans-2d" transform="translate(490.974609 0.015625)"/>
      <use xlink:href="#DejaVuSans-64" transform="translate(527.058594 0.015625)"/>
      <use xlink:href="#DejaVuSans-65" transform="translate(590.535156 0.015625)"/>
      <use xlink:href="#DejaVuSans-67" transform="translate(652.058594 0.015625)"/>
      <use xlink:href="#DejaVuSans-72" transform="translate(715.535156 0.015625)"/>
      <use xlink:href="#DejaVuSans-65" transform="translate(756.648438 0.015625)"/>
      <use xlink:href="#DejaVuSans-65" transform="translate(818.171875 0.015625)"/>
      <use xlink:href="#DejaVuSans-20" transform="translate(879.695312 0.015625)"/>
      <use xlink:href="#DejaVuSans-28" transform="translate(911.482422 0.015625)"/>
      <use xlink:href="#DejaVuSans-Oblique-3b1" transform="translate(950.496094 0.015625)"/>
      <use xlink:href="#DejaVuSans-20" transform="translate(1016.414062 0.015625)"/>
      <use xlink:href="#DejaVuSans-3d" transform="translate(1048.201172 0.015625)"/>
      <use xlink:href="#DejaVuSans-20" transform="translate(1131.990234 0.015625)"/>
      <use xlink:href="#DejaVuSans-30" transform="translate(1163.777344 0.015625)"/>
      <use xlink:href="#DejaVuSans-2e" transform="translate(1227.400391 0.015625)"/>
      <use xlink:href="#DejaVuSans-32" transform="translate(1253.6875 0.015625)"/>
      <use xlink:href="#DejaVuSans-35" transform="translate(1317.310547 0.015625)"/>
      <use xlink:href="#DejaVuSans-30" transform="translate(1380.933594 0.015625)"/>
      <use xlink:href="#DejaVuSans-29" transform="translate(1444.556641 0.015625)"/>
     </g>
    </g>
    <g id="line2d_76">
     <path d="M 242.533219 15.298437 
L 252.533219 15.298437 
L 262.533219 15.298437 
" style="fill: none; stroke: #d62728; stroke-width: 2; stroke-linecap: square"/>
     <g>
      <use xlink:href="#m3973bbd5ef" x="252.533219" y="15.298437" style="fill: #d62728; stroke: #d62728"/>
     </g>
    </g>
    <g id="text_26">
     <!-- Local-degree -->
     <g transform="translate(270.533219 18.798437) scale(0.1 -0.1)">
      <defs>
       <path id="DejaVuSans-4c" d="M 628 4666 
L 1259 4666 
L 1259 531 
L 3531 531 
L 3531 0 
L 628 0 
L 628 4666 
z
" transform="scale(0.015625)"/>
       <path id="DejaVuSans-63" d="M 3122 3366 
L 3122 2828 
Q 2878 2963 2633 3030 
Q 2388 3097 2138 3097 
Q 1578 3097 1268 2742 
Q 959 2388 959 1747 
Q 959 1106 1268 751 
Q 1578 397 2138 397 
Q 2388 397 2633 464 
Q 2878 531 3122 666 
L 3122 134 
Q 2881 22 2623 -34 
Q 2366 -91 2075 -91 
Q 1284 -91 818 406 
Q 353 903 353 1747 
Q 353 2603 823 3093 
Q 1294 3584 2113 3584 
Q 2378 3584 2631 3529 
Q 2884 3475 3122 3366 
z
" transform="scale(0.015625)"/>
       <path id="DejaVuSans-6c" d="M 603 4863 
L 1178 4863 
L 1178 0 
L 603 0 
L 603 4863 
z
" transform="scale(0.015625)"/>
      </defs>
      <use xlink:href="#DejaVuSans-4c"/>
      <use xlink:href="#DejaVuSans-6f" x="53.962891"/>
      <use xlink:href="#DejaVuSans-63" x="115.144531"/>
      <use xlink:href="#DejaVuSans-61" x="170.125"/>
      <use xlink:href="#DejaVuSans-6c" x="231.404297"/>
      <use xlink:href="#DejaVuSans-2d" x="259.1875"/>
      <use xlink:href="#DejaVuSans-64" x="295.271484"/>
      <use xlink:href="#DejaVuSans-65" x="358.748047"/>
      <use xlink:href="#DejaVuSans-67" x="420.271484"/>
      <use xlink:href="#DejaVuSans-72" x="483.748047"/>
      <use xlink:href="#DejaVuSans-65" x="522.611328"/>
      <use xlink:href="#DejaVuSans-65" x="584.134766"/>
     </g>
    </g>
    <g id="line2d_77">
     <path d="M 242.533219 29.976562 
L 252.533219 29.976562 
L 262.533219 29.976562 
" style="fill: none; stroke: #9467bd; stroke-width: 2; stroke-linecap: square"/>
     <g>
      <use xlink:href="#m88279232c0" x="252.533219" y="29.976562" style="fill: #9467bd; stroke: #9467bd; stroke-linejoin: miter"/>
     </g>
    </g>
    <g id="text_27">
     <!-- FMMC -->
     <g transform="translate(270.533219 33.476562) scale(0.1 -0.1)">
      <defs>
       <path id="DejaVuSans-46" d="M 628 4666 
L 3309 4666 
L 3309 4134 
L 1259 4134 
L 1259 2759 
L 3109 2759 
L 3109 2228 
L 1259 2228 
L 1259 0 
L 628 0 
L 628 4666 
z
" transform="scale(0.015625)"/>
      </defs>
      <use xlink:href="#DejaVuSans-46"/>
      <use xlink:href="#DejaVuSans-4d" x="57.519531"/>
      <use xlink:href="#DejaVuSans-4d" x="143.798828"/>
      <use xlink:href="#DejaVuSans-43" x="230.078125"/>
     </g>
    </g>
    <g id="line2d_78">
     <path d="M 355.103531 15.298437 
L 365.103531 15.298437 
L 375.103531 15.298437 
" style="fill: none; stroke: #8c564b; stroke-width: 2; stroke-linecap: square"/>
     <g>
      <use xlink:href="#mb6faf0ad44" x="365.103531" y="15.298437" style="fill: #8c564b; stroke: #8c564b; stroke-linejoin: miter"/>
     </g>
    </g>
    <g id="text_28">
     <!-- FDLA -->
     <g transform="translate(383.103531 18.798437) scale(0.1 -0.1)">
      <defs>
       <path id="DejaVuSans-44" d="M 1259 4147 
L 1259 519 
L 2022 519 
Q 2988 519 3436 956 
Q 3884 1394 3884 2338 
Q 3884 3275 3436 3711 
Q 2988 4147 2022 4147 
L 1259 4147 
z
M 628 4666 
L 1925 4666 
Q 3281 4666 3915 4102 
Q 4550 3538 4550 2338 
Q 4550 1131 3912 565 
Q 3275 0 1925 0 
L 628 0 
L 628 4666 
z
" transform="scale(0.015625)"/>
       <path id="DejaVuSans-41" d="M 2188 4044 
L 1331 1722 
L 3047 1722 
L 2188 4044 
z
M 1831 4666 
L 2547 4666 
L 4325 0 
L 3669 0 
L 3244 1197 
L 1141 1197 
L 716 0 
L 50 0 
L 1831 4666 
z
" transform="scale(0.015625)"/>
      </defs>
      <use xlink:href="#DejaVuSans-46"/>
      <use xlink:href="#DejaVuSans-44" x="57.519531"/>
      <use xlink:href="#DejaVuSans-4c" x="134.521484"/>
      <use xlink:href="#DejaVuSans-41" x="192.484375"/>
     </g>
    </g>
    <g id="line2d_79">
     <path d="M 355.103531 29.976562 
L 365.103531 29.976562 
L 375.103531 29.976562 
" style="fill: none; stroke: #e377c2; stroke-width: 2; stroke-linecap: square"/>
     <g>
      <use xlink:href="#m02ff843395" x="365.103531" y="29.976562" style="fill: #e377c2; stroke: #e377c2"/>
     </g>
    </g>
    <g id="text_29">
     <!-- LMSC -->
     <g transform="translate(383.103531 33.476562) scale(0.1 -0.1)">
      <defs>
       <path id="DejaVuSans-53" d="M 3425 4513 
L 3425 3897 
Q 3066 4069 2747 4153 
Q 2428 4238 2131 4238 
Q 1616 4238 1336 4038 
Q 1056 3838 1056 3469 
Q 1056 3159 1242 3001 
Q 1428 2844 1947 2747 
L 2328 2669 
Q 3034 2534 3370 2195 
Q 3706 1856 3706 1288 
Q 3706 609 3251 259 
Q 2797 -91 1919 -91 
Q 1588 -91 1214 -16 
Q 841 59 441 206 
L 441 856 
Q 825 641 1194 531 
Q 1563 422 1919 422 
Q 2459 422 2753 634 
Q 3047 847 3047 1241 
Q 3047 1584 2836 1778 
Q 2625 1972 2144 2069 
L 1759 2144 
Q 1053 2284 737 2584 
Q 422 2884 422 3419 
Q 422 4038 858 4394 
Q 1294 4750 2059 4750 
Q 2388 4750 2728 4690 
Q 3069 4631 3425 4513 
z
" transform="scale(0.015625)"/>
      </defs>
      <use xlink:href="#DejaVuSans-4c"/>
      <use xlink:href="#DejaVuSans-4d" x="55.712891"/>
      <use xlink:href="#DejaVuSans-53" x="141.992188"/>
      <use xlink:href="#DejaVuSans-43" x="205.46875"/>
     </g>
    </g>
   </g>
  </g>
  <g id="patch_13">
   <path d="M 194.131466 293.482801 
Q 200.745733 257.051 207.36 220.6192 
" style="fill: none; stroke: #000000; stroke-linecap: round"/>
  </g>
  <g id="text_30">
   <!-- Timesteps -->
   <g transform="translate(197.599313 359.128375) scale(0.12 -0.12)">
    <defs>
     <path id="DejaVuSans-54" d="M -19 4666 
L 3928 4666 
L 3928 4134 
L 2272 4134 
L 2272 0 
L 1638 0 
L 1638 4134 
L -19 4134 
L -19 4666 
z
" transform="scale(0.015625)"/>
     <path id="DejaVuSans-70" d="M 1159 525 
L 1159 -1331 
L 581 -1331 
L 581 3500 
L 1159 3500 
L 1159 2969 
Q 1341 3281 1617 3432 
Q 1894 3584 2278 3584 
Q 2916 3584 3314 3078 
Q 3713 2572 3713 1747 
Q 3713 922 3314 415 
Q 2916 -91 2278 -91 
Q 1894 -91 1617 61 
Q 1341 213 1159 525 
z
M 3116 1747 
Q 3116 2381 2855 2742 
Q 2594 3103 2138 3103 
Q 1681 3103 1420 2742 
Q 1159 2381 1159 1747 
Q 1159 1113 1420 752 
Q 1681 391 2138 391 
Q 2594 391 2855 752 
Q 3116 1113 3116 1747 
z
" transform="scale(0.015625)"/>
    </defs>
    <use xlink:href="#DejaVuSans-54"/>
    <use xlink:href="#DejaVuSans-69" x="57.958984"/>
    <use xlink:href="#DejaVuSans-6d" x="85.742188"/>
    <use xlink:href="#DejaVuSans-65" x="183.154297"/>
    <use xlink:href="#DejaVuSans-73" x="244.677734"/>
    <use xlink:href="#DejaVuSans-74" x="296.777344"/>
    <use xlink:href="#DejaVuSans-65" x="335.986328"/>
    <use xlink:href="#DejaVuSans-70" x="397.509766"/>
    <use xlink:href="#DejaVuSans-73" x="460.986328"/>
   </g>
  </g>
  <g id="text_31">
   <!-- Mean estimate error for the best arm -->
   <g transform="translate(16.318125 303.952187) rotate(-90) scale(0.12 -0.12)">
    <defs>
     <path id="DejaVuSans-66" d="M 2375 4863 
L 2375 4384 
L 1825 4384 
Q 1516 4384 1395 4259 
Q 1275 4134 1275 3809 
L 1275 3500 
L 2222 3500 
L 2222 3053 
L 1275 3053 
L 1275 0 
L 697 0 
L 697 3053 
L 147 3053 
L 147 3500 
L 697 3500 
L 697 3744 
Q 697 4328 969 4595 
Q 1241 4863 1831 4863 
L 2375 4863 
z
" transform="scale(0.015625)"/>
     <path id="DejaVuSans-68" d="M 3513 2113 
L 3513 0 
L 2938 0 
L 2938 2094 
Q 2938 2591 2744 2837 
Q 2550 3084 2163 3084 
Q 1697 3084 1428 2787 
Q 1159 2491 1159 1978 
L 1159 0 
L 581 0 
L 581 4863 
L 1159 4863 
L 1159 2956 
Q 1366 3272 1645 3428 
Q 1925 3584 2291 3584 
Q 2894 3584 3203 3211 
Q 3513 2838 3513 2113 
z
" transform="scale(0.015625)"/>
     <path id="DejaVuSans-62" d="M 3116 1747 
Q 3116 2381 2855 2742 
Q 2594 3103 2138 3103 
Q 1681 3103 1420 2742 
Q 1159 2381 1159 1747 
Q 1159 1113 1420 752 
Q 1681 391 2138 391 
Q 2594 391 2855 752 
Q 3116 1113 3116 1747 
z
M 1159 2969 
Q 1341 3281 1617 3432 
Q 1894 3584 2278 3584 
Q 2916 3584 3314 3078 
Q 3713 2572 3713 1747 
Q 3713 922 3314 415 
Q 2916 -91 2278 -91 
Q 1894 -91 1617 61 
Q 1341 213 1159 525 
L 1159 0 
L 581 0 
L 581 4863 
L 1159 4863 
L 1159 2969 
z
" transform="scale(0.015625)"/>
    </defs>
    <use xlink:href="#DejaVuSans-4d"/>
    <use xlink:href="#DejaVuSans-65" x="86.279297"/>
    <use xlink:href="#DejaVuSans-61" x="147.802734"/>
    <use xlink:href="#DejaVuSans-6e" x="209.082031"/>
    <use xlink:href="#DejaVuSans-20" x="272.460938"/>
    <use xlink:href="#DejaVuSans-65" x="304.248047"/>
    <use xlink:href="#DejaVuSans-73" x="365.771484"/>
    <use xlink:href="#DejaVuSans-74" x="417.871094"/>
    <use xlink:href="#DejaVuSans-69" x="457.080078"/>
    <use xlink:href="#DejaVuSans-6d" x="484.863281"/>
    <use xlink:href="#DejaVuSans-61" x="582.275391"/>
    <use xlink:href="#DejaVuSans-74" x="643.554688"/>
    <use xlink:href="#DejaVuSans-65" x="682.763672"/>
    <use xlink:href="#DejaVuSans-20" x="744.287109"/>
    <use xlink:href="#DejaVuSans-65" x="776.074219"/>
    <use xlink:href="#DejaVuSans-72" x="837.597656"/>
    <use xlink:href="#DejaVuSans-72" x="876.960938"/>
    <use xlink:href="#DejaVuSans-6f" x="915.824219"/>
    <use xlink:href="#DejaVuSans-72" x="977.005859"/>
    <use xlink:href="#DejaVuSans-20" x="1018.119141"/>
    <use xlink:href="#DejaVuSans-66" x="1049.90625"/>
    <use xlink:href="#DejaVuSans-6f" x="1085.111328"/>
    <use xlink:href="#DejaVuSans-72" x="1146.292969"/>
    <use xlink:href="#DejaVuSans-20" x="1187.40625"/>
    <use xlink:href="#DejaVuSans-74" x="1219.193359"/>
    <use xlink:href="#DejaVuSans-68" x="1258.402344"/>
    <use xlink:href="#DejaVuSans-65" x="1321.78125"/>
    <use xlink:href="#DejaVuSans-20" x="1383.304688"/>
    <use xlink:href="#DejaVuSans-62" x="1415.091797"/>
    <use xlink:href="#DejaVuSans-65" x="1478.568359"/>
    <use xlink:href="#DejaVuSans-73" x="1540.091797"/>
    <use xlink:href="#DejaVuSans-74" x="1592.191406"/>
    <use xlink:href="#DejaVuSans-20" x="1631.400391"/>
    <use xlink:href="#DejaVuSans-61" x="1663.1875"/>
    <use xlink:href="#DejaVuSans-72" x="1724.466797"/>
    <use xlink:href="#DejaVuSans-6d" x="1763.830078"/>
   </g>
  </g>
 </g>
 <defs>
  <clipPath id="p63b732274f">
   <rect x="55.584" y="60.952" width="357.12" height="266.112"/>
  </clipPath>
  <clipPath id="pca7a2d7ea3">
   <rect x="207.36" y="74.2576" width="196.416" height="146.3616"/>
  </clipPath>
 </defs>
</svg>
