<?xml version="1.0" encoding="utf-8" standalone="no"?>
<!DOCTYPE svg PUBLIC "-//W3C//DTD SVG 1.1//EN"
  "http://www.w3.org/Graphics/SVG/1.1/DTD/svg11.dtd">
<svg xmlns:xlink="http://www.w3.org/1999/xlink" width="421.811252pt" height="368.824pt" viewBox="0 0 421.811252 368.824" xmlns="http://www.w3.org/2000/svg" version="1.1">
 <metadata>
  <rdf:RDF xmlns:dc="http://purl.org/dc/elements/1.1/" xmlns:cc="http://creativecommons.org/ns#" xmlns:rdf="http://www.w3.org/1999/02/22-rdf-syntax-ns#">
   <cc:Work>
    <dc:type rdf:resource="http://purl.org/dc/dcmitype/StillImage"/>
    <dc:date>2024-06-12T13:05:31.222787</dc:date>
    <dc:format>image/svg+xml</dc:format>
    <dc:creator>
     <cc:Agent>
      <dc:title>Matplotlib v3.9.0, https://matplotlib.org/</dc:title>
     </cc:Agent>
    </dc:creator>
   </cc:Work>
  </rdf:RDF>
 </metadata>
 <defs>
  <style type="text/css">*{stroke-linejoin: round; stroke-linecap: butt}</style>
 </defs>
 <g id="figure_1">
  <g id="patch_1">
   <path d="M 0 368.824 
L 421.811252 368.824 
L 421.811252 0 
L 0 0 
z
" style="fill: #ffffff"/>
  </g>
  <g id="axes_1">
   <g id="patch_2">
    <path d="M 55.584 327.064 
L 412.704 327.064 
L 412.704 60.952 
L 55.584 60.952 
z
" style="fill: #ffffff"/>
   </g>
   <g id="matplotlib.axis_1">
    <g id="xtick_1">
     <g id="line2d_1">
      <path d="M 71.816727 327.064 
L 71.816727 60.952 
" clip-path="url(#p91caadc16b)" style="fill: none; stroke: #b0b0b0; stroke-width: 0.8; stroke-linecap: square"/>
     </g>
     <g id="line2d_2">
      <defs>
       <path id="ma00e9700d4" d="M 0 0 
L 0 3.5 
" style="stroke: #000000; stroke-width: 0.8"/>
      </defs>
      <g>
       <use xlink:href="#ma00e9700d4" x="71.816727" y="327.064" style="stroke: #000000; stroke-width: 0.8"/>
      </g>
     </g>
     <g id="text_1">
      <!-- 0 -->
      <g transform="translate(67.362977 344.701812) scale(0.14 -0.14)">
       <defs>
        <path id="DejaVuSans-30" d="M 2034 4250 
Q 1547 4250 1301 3770 
Q 1056 3291 1056 2328 
Q 1056 1369 1301 889 
Q 1547 409 2034 409 
Q 2525 409 2770 889 
Q 3016 1369 3016 2328 
Q 3016 3291 2770 3770 
Q 2525 4250 2034 4250 
z
M 2034 4750 
Q 2819 4750 3233 4129 
Q 3647 3509 3647 2328 
Q 3647 1150 3233 529 
Q 2819 -91 2034 -91 
Q 1250 -91 836 529 
Q 422 1150 422 2328 
Q 422 3509 836 4129 
Q 1250 4750 2034 4750 
z
" transform="scale(0.015625)"/>
       </defs>
       <use xlink:href="#DejaVuSans-30"/>
      </g>
     </g>
    </g>
    <g id="xtick_2">
     <g id="line2d_3">
      <path d="M 136.812632 327.064 
L 136.812632 60.952 
" clip-path="url(#p91caadc16b)" style="fill: none; stroke: #b0b0b0; stroke-width: 0.8; stroke-linecap: square"/>
     </g>
     <g id="line2d_4">
      <g>
       <use xlink:href="#ma00e9700d4" x="136.812632" y="327.064" style="stroke: #000000; stroke-width: 0.8"/>
      </g>
     </g>
     <g id="text_2">
      <!-- 200 -->
      <g transform="translate(123.451382 344.701812) scale(0.14 -0.14)">
       <defs>
        <path id="DejaVuSans-32" d="M 1228 531 
L 3431 531 
L 3431 0 
L 469 0 
L 469 531 
Q 828 903 1448 1529 
Q 2069 2156 2228 2338 
Q 2531 2678 2651 2914 
Q 2772 3150 2772 3378 
Q 2772 3750 2511 3984 
Q 2250 4219 1831 4219 
Q 1534 4219 1204 4116 
Q 875 4013 500 3803 
L 500 4441 
Q 881 4594 1212 4672 
Q 1544 4750 1819 4750 
Q 2544 4750 2975 4387 
Q 3406 4025 3406 3419 
Q 3406 3131 3298 2873 
Q 3191 2616 2906 2266 
Q 2828 2175 2409 1742 
Q 1991 1309 1228 531 
z
" transform="scale(0.015625)"/>
       </defs>
       <use xlink:href="#DejaVuSans-32"/>
       <use xlink:href="#DejaVuSans-30" x="63.623047"/>
       <use xlink:href="#DejaVuSans-30" x="127.246094"/>
      </g>
     </g>
    </g>
    <g id="xtick_3">
     <g id="line2d_5">
      <path d="M 201.808537 327.064 
L 201.808537 60.952 
" clip-path="url(#p91caadc16b)" style="fill: none; stroke: #b0b0b0; stroke-width: 0.8; stroke-linecap: square"/>
     </g>
     <g id="line2d_6">
      <g>
       <use xlink:href="#ma00e9700d4" x="201.808537" y="327.064" style="stroke: #000000; stroke-width: 0.8"/>
      </g>
     </g>
     <g id="text_3">
      <!-- 400 -->
      <g transform="translate(188.447287 344.701812) scale(0.14 -0.14)">
       <defs>
        <path id="DejaVuSans-34" d="M 2419 4116 
L 825 1625 
L 2419 1625 
L 2419 4116 
z
M 2253 4666 
L 3047 4666 
L 3047 1625 
L 3713 1625 
L 3713 1100 
L 3047 1100 
L 3047 0 
L 2419 0 
L 2419 1100 
L 313 1100 
L 313 1709 
L 2253 4666 
z
" transform="scale(0.015625)"/>
       </defs>
       <use xlink:href="#DejaVuSans-34"/>
       <use xlink:href="#DejaVuSans-30" x="63.623047"/>
       <use xlink:href="#DejaVuSans-30" x="127.246094"/>
      </g>
     </g>
    </g>
    <g id="xtick_4">
     <g id="line2d_7">
      <path d="M 266.804442 327.064 
L 266.804442 60.952 
" clip-path="url(#p91caadc16b)" style="fill: none; stroke: #b0b0b0; stroke-width: 0.8; stroke-linecap: square"/>
     </g>
     <g id="line2d_8">
      <g>
       <use xlink:href="#ma00e9700d4" x="266.804442" y="327.064" style="stroke: #000000; stroke-width: 0.8"/>
      </g>
     </g>
     <g id="text_4">
      <!-- 600 -->
      <g transform="translate(253.443192 344.701812) scale(0.14 -0.14)">
       <defs>
        <path id="DejaVuSans-36" d="M 2113 2584 
Q 1688 2584 1439 2293 
Q 1191 2003 1191 1497 
Q 1191 994 1439 701 
Q 1688 409 2113 409 
Q 2538 409 2786 701 
Q 3034 994 3034 1497 
Q 3034 2003 2786 2293 
Q 2538 2584 2113 2584 
z
M 3366 4563 
L 3366 3988 
Q 3128 4100 2886 4159 
Q 2644 4219 2406 4219 
Q 1781 4219 1451 3797 
Q 1122 3375 1075 2522 
Q 1259 2794 1537 2939 
Q 1816 3084 2150 3084 
Q 2853 3084 3261 2657 
Q 3669 2231 3669 1497 
Q 3669 778 3244 343 
Q 2819 -91 2113 -91 
Q 1303 -91 875 529 
Q 447 1150 447 2328 
Q 447 3434 972 4092 
Q 1497 4750 2381 4750 
Q 2619 4750 2861 4703 
Q 3103 4656 3366 4563 
z
" transform="scale(0.015625)"/>
       </defs>
       <use xlink:href="#DejaVuSans-36"/>
       <use xlink:href="#DejaVuSans-30" x="63.623047"/>
       <use xlink:href="#DejaVuSans-30" x="127.246094"/>
      </g>
     </g>
    </g>
    <g id="xtick_5">
     <g id="line2d_9">
      <path d="M 331.800347 327.064 
L 331.800347 60.952 
" clip-path="url(#p91caadc16b)" style="fill: none; stroke: #b0b0b0; stroke-width: 0.8; stroke-linecap: square"/>
     </g>
     <g id="line2d_10">
      <g>
       <use xlink:href="#ma00e9700d4" x="331.800347" y="327.064" style="stroke: #000000; stroke-width: 0.8"/>
      </g>
     </g>
     <g id="text_5">
      <!-- 800 -->
      <g transform="translate(318.439097 344.701812) scale(0.14 -0.14)">
       <defs>
        <path id="DejaVuSans-38" d="M 2034 2216 
Q 1584 2216 1326 1975 
Q 1069 1734 1069 1313 
Q 1069 891 1326 650 
Q 1584 409 2034 409 
Q 2484 409 2743 651 
Q 3003 894 3003 1313 
Q 3003 1734 2745 1975 
Q 2488 2216 2034 2216 
z
M 1403 2484 
Q 997 2584 770 2862 
Q 544 3141 544 3541 
Q 544 4100 942 4425 
Q 1341 4750 2034 4750 
Q 2731 4750 3128 4425 
Q 3525 4100 3525 3541 
Q 3525 3141 3298 2862 
Q 3072 2584 2669 2484 
Q 3125 2378 3379 2068 
Q 3634 1759 3634 1313 
Q 3634 634 3220 271 
Q 2806 -91 2034 -91 
Q 1263 -91 848 271 
Q 434 634 434 1313 
Q 434 1759 690 2068 
Q 947 2378 1403 2484 
z
M 1172 3481 
Q 1172 3119 1398 2916 
Q 1625 2713 2034 2713 
Q 2441 2713 2670 2916 
Q 2900 3119 2900 3481 
Q 2900 3844 2670 4047 
Q 2441 4250 2034 4250 
Q 1625 4250 1398 4047 
Q 1172 3844 1172 3481 
z
" transform="scale(0.015625)"/>
       </defs>
       <use xlink:href="#DejaVuSans-38"/>
       <use xlink:href="#DejaVuSans-30" x="63.623047"/>
       <use xlink:href="#DejaVuSans-30" x="127.246094"/>
      </g>
     </g>
    </g>
    <g id="xtick_6">
     <g id="line2d_11">
      <path d="M 396.796252 327.064 
L 396.796252 60.952 
" clip-path="url(#p91caadc16b)" style="fill: none; stroke: #b0b0b0; stroke-width: 0.8; stroke-linecap: square"/>
     </g>
     <g id="line2d_12">
      <g>
       <use xlink:href="#ma00e9700d4" x="396.796252" y="327.064" style="stroke: #000000; stroke-width: 0.8"/>
      </g>
     </g>
     <g id="text_6">
      <!-- 1000 -->
      <g transform="translate(378.981252 344.701812) scale(0.14 -0.14)">
       <defs>
        <path id="DejaVuSans-31" d="M 794 531 
L 1825 531 
L 1825 4091 
L 703 3866 
L 703 4441 
L 1819 4666 
L 2450 4666 
L 2450 531 
L 3481 531 
L 3481 0 
L 794 0 
L 794 531 
z
" transform="scale(0.015625)"/>
       </defs>
       <use xlink:href="#DejaVuSans-31"/>
       <use xlink:href="#DejaVuSans-30" x="63.623047"/>
       <use xlink:href="#DejaVuSans-30" x="127.246094"/>
       <use xlink:href="#DejaVuSans-30" x="190.869141"/>
      </g>
     </g>
    </g>
   </g>
   <g id="matplotlib.axis_2">
    <g id="ytick_1">
     <g id="line2d_13">
      <path d="M 55.584 314.968 
L 412.704 314.968 
" clip-path="url(#p91caadc16b)" style="fill: none; stroke: #b0b0b0; stroke-width: 0.8; stroke-linecap: square"/>
     </g>
     <g id="line2d_14">
      <defs>
       <path id="mafd84645d0" d="M 0 0 
L -3.5 0 
" style="stroke: #000000; stroke-width: 0.8"/>
      </defs>
      <g>
       <use xlink:href="#mafd84645d0" x="55.584" y="314.968" style="stroke: #000000; stroke-width: 0.8"/>
      </g>
     </g>
     <g id="text_7">
      <!-- 0 -->
      <g transform="translate(39.6765 320.286906) scale(0.14 -0.14)">
       <use xlink:href="#DejaVuSans-30"/>
      </g>
     </g>
    </g>
    <g id="ytick_2">
     <g id="line2d_15">
      <path d="M 55.584 285.214171 
L 412.704 285.214171 
" clip-path="url(#p91caadc16b)" style="fill: none; stroke: #b0b0b0; stroke-width: 0.8; stroke-linecap: square"/>
     </g>
     <g id="line2d_16">
      <g>
       <use xlink:href="#mafd84645d0" x="55.584" y="285.214171" style="stroke: #000000; stroke-width: 0.8"/>
      </g>
     </g>
     <g id="text_8">
      <!-- 2 -->
      <g transform="translate(39.6765 290.533077) scale(0.14 -0.14)">
       <use xlink:href="#DejaVuSans-32"/>
      </g>
     </g>
    </g>
    <g id="ytick_3">
     <g id="line2d_17">
      <path d="M 55.584 255.460342 
L 412.704 255.460342 
" clip-path="url(#p91caadc16b)" style="fill: none; stroke: #b0b0b0; stroke-width: 0.8; stroke-linecap: square"/>
     </g>
     <g id="line2d_18">
      <g>
       <use xlink:href="#mafd84645d0" x="55.584" y="255.460342" style="stroke: #000000; stroke-width: 0.8"/>
      </g>
     </g>
     <g id="text_9">
      <!-- 4 -->
      <g transform="translate(39.6765 260.779249) scale(0.14 -0.14)">
       <use xlink:href="#DejaVuSans-34"/>
      </g>
     </g>
    </g>
    <g id="ytick_4">
     <g id="line2d_19">
      <path d="M 55.584 225.706514 
L 412.704 225.706514 
" clip-path="url(#p91caadc16b)" style="fill: none; stroke: #b0b0b0; stroke-width: 0.8; stroke-linecap: square"/>
     </g>
     <g id="line2d_20">
      <g>
       <use xlink:href="#mafd84645d0" x="55.584" y="225.706514" style="stroke: #000000; stroke-width: 0.8"/>
      </g>
     </g>
     <g id="text_10">
      <!-- 6 -->
      <g transform="translate(39.6765 231.02542) scale(0.14 -0.14)">
       <use xlink:href="#DejaVuSans-36"/>
      </g>
     </g>
    </g>
    <g id="ytick_5">
     <g id="line2d_21">
      <path d="M 55.584 195.952685 
L 412.704 195.952685 
" clip-path="url(#p91caadc16b)" style="fill: none; stroke: #b0b0b0; stroke-width: 0.8; stroke-linecap: square"/>
     </g>
     <g id="line2d_22">
      <g>
       <use xlink:href="#mafd84645d0" x="55.584" y="195.952685" style="stroke: #000000; stroke-width: 0.8"/>
      </g>
     </g>
     <g id="text_11">
      <!-- 8 -->
      <g transform="translate(39.6765 201.271591) scale(0.14 -0.14)">
       <use xlink:href="#DejaVuSans-38"/>
      </g>
     </g>
    </g>
    <g id="ytick_6">
     <g id="line2d_23">
      <path d="M 55.584 166.198856 
L 412.704 166.198856 
" clip-path="url(#p91caadc16b)" style="fill: none; stroke: #b0b0b0; stroke-width: 0.8; stroke-linecap: square"/>
     </g>
     <g id="line2d_24">
      <g>
       <use xlink:href="#mafd84645d0" x="55.584" y="166.198856" style="stroke: #000000; stroke-width: 0.8"/>
      </g>
     </g>
     <g id="text_12">
      <!-- 10 -->
      <g transform="translate(30.769 171.517762) scale(0.14 -0.14)">
       <use xlink:href="#DejaVuSans-31"/>
       <use xlink:href="#DejaVuSans-30" x="63.623047"/>
      </g>
     </g>
    </g>
    <g id="ytick_7">
     <g id="line2d_25">
      <path d="M 55.584 136.445027 
L 412.704 136.445027 
" clip-path="url(#p91caadc16b)" style="fill: none; stroke: #b0b0b0; stroke-width: 0.8; stroke-linecap: square"/>
     </g>
     <g id="line2d_26">
      <g>
       <use xlink:href="#mafd84645d0" x="55.584" y="136.445027" style="stroke: #000000; stroke-width: 0.8"/>
      </g>
     </g>
     <g id="text_13">
      <!-- 12 -->
      <g transform="translate(30.769 141.763934) scale(0.14 -0.14)">
       <use xlink:href="#DejaVuSans-31"/>
       <use xlink:href="#DejaVuSans-32" x="63.623047"/>
      </g>
     </g>
    </g>
    <g id="ytick_8">
     <g id="line2d_27">
      <path d="M 55.584 106.691199 
L 412.704 106.691199 
" clip-path="url(#p91caadc16b)" style="fill: none; stroke: #b0b0b0; stroke-width: 0.8; stroke-linecap: square"/>
     </g>
     <g id="line2d_28">
      <g>
       <use xlink:href="#mafd84645d0" x="55.584" y="106.691199" style="stroke: #000000; stroke-width: 0.8"/>
      </g>
     </g>
     <g id="text_14">
      <!-- 14 -->
      <g transform="translate(30.769 112.010105) scale(0.14 -0.14)">
       <use xlink:href="#DejaVuSans-31"/>
       <use xlink:href="#DejaVuSans-34" x="63.623047"/>
      </g>
     </g>
    </g>
    <g id="ytick_9">
     <g id="line2d_29">
      <path d="M 55.584 76.93737 
L 412.704 76.93737 
" clip-path="url(#p91caadc16b)" style="fill: none; stroke: #b0b0b0; stroke-width: 0.8; stroke-linecap: square"/>
     </g>
     <g id="line2d_30">
      <g>
       <use xlink:href="#mafd84645d0" x="55.584" y="76.93737" style="stroke: #000000; stroke-width: 0.8"/>
      </g>
     </g>
     <g id="text_15">
      <!-- 16 -->
      <g transform="translate(30.769 82.256276) scale(0.14 -0.14)">
       <use xlink:href="#DejaVuSans-31"/>
       <use xlink:href="#DejaVuSans-36" x="63.623047"/>
      </g>
     </g>
    </g>
   </g>
   <g id="line2d_31">
    <path d="M 71.816727 314.968 
L 73.116645 314.968 
L 73.441625 260.106948 
L 73.766604 270.198892 
L 74.091584 272.635153 
L 74.741543 274.060508 
L 75.066523 264.180766 
L 75.391502 265.339328 
L 76.041461 266.224697 
L 76.69142 267.435604 
L 77.0164 267.566335 
L 77.341379 266.791381 
L 77.666359 267.254636 
L 77.991338 267.203509 
L 78.316318 266.565622 
L 78.641297 266.699189 
L 78.966277 266.000605 
L 79.291256 265.013173 
L 79.941215 265.279544 
L 80.266195 265.02938 
L 80.591174 265.343671 
L 80.916154 264.795516 
L 81.241133 263.08213 
L 81.566113 263.356166 
L 82.216072 263.361133 
L 82.541052 263.568049 
L 83.191011 263.689321 
L 83.51599 263.871881 
L 83.84097 263.715669 
L 84.165949 263.856863 
L 84.490929 263.299079 
L 84.815908 263.519314 
L 85.465867 263.247621 
L 85.790847 262.786316 
L 86.440806 262.890074 
L 86.765785 261.100566 
L 87.740724 261.9441 
L 88.065704 262.061061 
L 88.390683 261.231394 
L 89.365622 261.643986 
L 90.015581 261.216963 
L 90.66554 261.44617 
L 90.990519 261.395584 
L 91.640478 261.613496 
L 91.965458 261.108941 
L 92.615417 261.316739 
L 93.590355 261.329707 
L 93.915335 261.052007 
L 95.215253 260.952665 
L 95.540233 260.667977 
L 96.190192 260.682649 
L 97.16513 260.752003 
L 97.49011 260.455922 
L 97.815089 260.495754 
L 98.140069 259.582947 
L 98.790028 259.01736 
L 99.115007 258.907236 
L 99.764966 259.033667 
L 100.089946 258.142046 
L 100.739905 257.976228 
L 101.064885 257.354373 
L 102.364803 257.435555 
L 102.689782 257.489046 
L 103.014762 257.275725 
L 103.664721 256.046205 
L 103.9897 256.206517 
L 104.31468 254.567049 
L 104.639659 254.307643 
L 105.289618 254.434077 
L 106.264557 254.594565 
L 106.589536 250.863779 
L 107.239495 250.790936 
L 108.214434 250.897866 
L 108.539414 250.855395 
L 108.864393 247.733546 
L 109.189373 247.740965 
L 109.514352 247.430161 
L 109.839332 247.479155 
L 110.164311 246.617358 
L 110.81427 246.90758 
L 111.13925 246.769111 
L 113.414106 247.151154 
L 113.739086 246.984114 
L 115.039004 246.878129 
L 115.688963 246.943326 
L 116.663902 246.965515 
L 117.96382 247.040011 
L 118.288799 246.950022 
L 118.613779 245.910592 
L 121.538595 245.932197 
L 122.188554 245.822872 
L 123.163492 245.937948 
L 123.813451 245.913967 
L 125.113369 245.919399 
L 125.438349 245.793565 
L 126.413287 245.827826 
L 127.063247 245.60579 
L 128.363165 245.719389 
L 128.688144 245.471109 
L 130.313042 245.505485 
L 130.963001 245.418529 
L 131.61296 245.456024 
L 131.937939 245.313341 
L 132.587898 245.324976 
L 133.237857 245.16433 
L 134.537776 245.187033 
L 135.512714 245.109679 
L 136.812632 244.979441 
L 137.137612 244.811949 
L 137.462591 244.398543 
L 138.11255 244.333222 
L 138.762509 244.353518 
L 139.087489 244.126621 
L 139.737448 244.161032 
L 140.387407 244.077353 
L 141.037366 244.012873 
L 144.287161 243.592821 
L 144.612141 243.59532 
L 144.93712 243.317507 
L 145.2621 243.218702 
L 145.587079 242.778346 
L 146.886998 242.947921 
L 147.861936 242.97506 
L 148.186916 242.719748 
L 148.836875 242.71002 
L 151.111731 242.748575 
L 154.036547 242.471433 
L 155.661445 242.313092 
L 156.961363 242.172943 
L 158.261281 242.113829 
L 158.91124 241.90108 
L 161.186097 241.813629 
L 161.511076 241.342373 
L 162.161035 241.208904 
L 163.135974 240.964495 
L 164.435892 240.969065 
L 165.085851 240.877228 
L 165.41083 240.457468 
L 166.06079 240.330541 
L 167.035728 240.269863 
L 167.360708 239.922601 
L 168.010667 239.798389 
L 169.310585 239.629845 
L 171.260462 239.629195 
L 172.2354 239.631034 
L 172.88536 239.353211 
L 173.860298 239.338962 
L 174.185278 238.912844 
L 174.835237 238.794028 
L 175.810175 238.780179 
L 176.135155 238.324592 
L 178.085032 238.235615 
L 178.734991 238.15246 
L 179.70993 238.165482 
L 180.034909 237.898762 
L 180.684868 237.795749 
L 182.309766 237.732969 
L 182.959725 237.73011 
L 183.284704 237.256669 
L 184.259643 237.162844 
L 184.584622 237.162555 
L 185.234581 237.028713 
L 186.5345 236.939768 
L 186.859479 236.95366 
L 187.184459 236.804707 
L 188.159397 236.729365 
L 188.484377 236.476914 
L 189.784295 236.493482 
L 191.084213 236.383147 
L 193.35907 236.397486 
L 197.258824 236.252462 
L 197.583803 235.959484 
L 199.208701 235.999682 
L 199.533681 235.254083 
L 201.808537 235.022947 
L 204.083394 234.954724 
L 205.383312 234.704803 
L 205.708292 234.611772 
L 207.00821 234.639364 
L 207.983148 234.588902 
L 208.633107 234.561068 
L 208.958087 234.370339 
L 211.882903 234.3552 
L 212.207882 233.594139 
L 214.157759 233.685996 
L 218.057514 233.685858 
L 218.382493 233.224549 
L 219.357432 233.183115 
L 220.007391 232.356354 
L 220.982329 232.363079 
L 223.582165 232.444146 
L 225.532043 232.415437 
L 229.756776 232.264159 
L 232.681592 232.265678 
L 233.98151 232.265592 
L 237.556285 232.19065 
L 237.881265 232.177414 
L 238.531224 232.019764 
L 240.481101 231.940956 
L 241.13106 231.875978 
L 241.456039 231.89143 
L 241.781019 231.616641 
L 242.430978 231.519994 
L 244.380855 231.506447 
L 245.030814 231.384615 
L 246.330732 231.325175 
L 248.930568 231.319107 
L 249.255548 226.998317 
L 249.905507 226.990138 
L 250.230486 225.653201 
L 251.530405 225.619614 
L 252.505343 225.602136 
L 252.830323 224.810828 
L 253.480282 224.44987 
L 256.730077 224.489505 
L 260.304852 224.311989 
L 260.954811 224.268274 
L 262.579708 224.271195 
L 263.879627 224.250898 
L 264.204606 224.001502 
L 267.454401 223.991392 
L 268.42934 223.948629 
L 275.25391 223.85096 
L 275.903869 223.518353 
L 276.878808 223.495569 
L 277.528767 223.372917 
L 280.778562 223.229658 
L 281.103541 223.073041 
L 282.403459 223.111568 
L 282.728439 222.966234 
L 285.003296 222.895499 
L 294.752681 222.797563 
L 295.40264 222.732491 
L 296.377579 222.700364 
L 297.027538 222.64008 
L 299.952354 222.579277 
L 305.152026 222.620475 
L 307.751862 222.599228 
L 308.401821 222.515981 
L 311.976596 222.463531 
L 312.626555 222.372077 
L 316.20133 222.350752 
L 316.52631 222.079911 
L 317.826228 222.089738 
L 318.151207 220.927133 
L 321.725982 220.928713 
L 324.650798 220.893335 
L 327.250634 220.913077 
L 331.150388 220.841703 
L 332.125327 220.655168 
L 335.050143 220.630176 
L 337.00002 220.635666 
L 337.649979 220.567281 
L 345.124508 220.439793 
L 346.099446 220.319559 
L 347.724344 220.292159 
L 348.049324 220.301084 
L 348.374303 220.076922 
L 348.699283 219.587135 
L 349.674221 219.591171 
L 349.999201 219.440389 
L 351.949078 219.433034 
L 361.373484 219.506421 
L 362.023443 219.424091 
L 366.573156 219.257664 
L 367.873075 219.216733 
L 377.297481 219.200527 
L 378.922378 219.138236 
L 382.822133 219.093354 
L 385.421969 219.091452 
L 387.371846 219.077324 
L 387.696826 218.843943 
L 389.321723 218.858959 
L 389.646703 218.71888 
L 391.59658 218.70943 
L 393.546457 218.648364 
L 394.846375 218.626544 
L 396.471273 218.633836 
L 396.471273 218.633836 
" clip-path="url(#p91caadc16b)" style="fill: none; stroke: #1f77b4; stroke-width: 2; stroke-linecap: square"/>
    <defs>
     <path id="m25ae70603e" d="M 0 3 
C 0.795609 3 1.55874 2.683901 2.12132 2.12132 
C 2.683901 1.55874 3 0.795609 3 0 
C 3 -0.795609 2.683901 -1.55874 2.12132 -2.12132 
C 1.55874 -2.683901 0.795609 -3 0 -3 
C -0.795609 -3 -1.55874 -2.683901 -2.12132 -2.12132 
C -2.683901 -1.55874 -3 -0.795609 -3 0 
C -3 0.795609 -2.683901 1.55874 -2.12132 2.12132 
C -1.55874 2.683901 -0.795609 3 0 3 
z
" style="stroke: #1f77b4"/>
    </defs>
    <g clip-path="url(#p91caadc16b)">
     <use xlink:href="#m25ae70603e" x="71.816727" y="314.968" style="fill: #1f77b4; stroke: #1f77b4"/>
     <use xlink:href="#m25ae70603e" x="136.812632" y="244.979441" style="fill: #1f77b4; stroke: #1f77b4"/>
     <use xlink:href="#m25ae70603e" x="201.808537" y="235.022947" style="fill: #1f77b4; stroke: #1f77b4"/>
     <use xlink:href="#m25ae70603e" x="266.804442" y="223.972138" style="fill: #1f77b4; stroke: #1f77b4"/>
     <use xlink:href="#m25ae70603e" x="331.800347" y="220.751302" style="fill: #1f77b4; stroke: #1f77b4"/>
    </g>
   </g>
   <g id="line2d_32">
    <path d="M 71.816727 314.968 
L 73.116645 314.968 
L 73.441625 170.391896 
L 73.766604 219.160777 
L 74.091584 73.048 
L 74.416563 118.794287 
L 75.066523 137.044548 
L 75.391502 138.336405 
L 75.716482 142.538451 
L 76.041461 143.239124 
L 76.366441 139.724473 
L 76.69142 137.753922 
L 77.0164 139.772571 
L 77.341379 141.043735 
L 77.666359 141.263487 
L 77.991338 141.732122 
L 78.316318 140.717125 
L 78.641297 141.080622 
L 78.966277 141.651947 
L 79.291256 141.944011 
L 79.616236 142.427067 
L 79.941215 141.25956 
L 80.266195 137.686467 
L 80.591174 137.476139 
L 80.916154 135.914588 
L 81.241133 136.552009 
L 81.891093 137.023741 
L 82.216072 136.694916 
L 82.866031 135.190792 
L 83.191011 135.766024 
L 83.51599 135.062233 
L 83.84097 135.422708 
L 84.165949 135.262325 
L 84.490929 135.529692 
L 84.815908 134.444394 
L 85.140888 134.813979 
L 85.465867 134.669922 
L 86.115826 135.118353 
L 86.765785 135.107642 
L 87.090765 133.552963 
L 87.415744 133.726804 
L 87.740724 133.683974 
L 88.065704 132.981863 
L 88.390683 133.269026 
L 88.715663 133.054578 
L 89.040642 129.759387 
L 89.365622 131.005912 
L 90.015581 128.908079 
L 90.34056 129.325972 
L 90.66554 129.205488 
L 90.990519 121.384841 
L 91.315499 123.832524 
L 92.940396 124.698302 
L 93.265376 124.559759 
L 93.915335 125.080052 
L 94.565294 125.060275 
L 95.215253 125.266879 
L 95.540233 125.006324 
L 96.190192 125.348306 
L 96.515171 125.143371 
L 96.840151 125.385569 
L 97.16513 125.413353 
L 97.49011 125.589055 
L 100.414925 125.542149 
L 100.739905 122.653579 
L 101.389864 123.259753 
L 102.039823 123.430855 
L 102.689782 123.554174 
L 103.339741 123.497232 
L 103.664721 123.554496 
L 104.31468 123.247815 
L 104.964639 123.394176 
L 105.289618 123.156711 
L 105.939577 123.058532 
L 107.239495 122.971098 
L 108.214434 122.601227 
L 108.539414 121.717661 
L 108.864393 121.909891 
L 109.189373 121.969804 
L 109.514352 121.111239 
L 109.839332 121.301914 
L 110.81427 121.212333 
L 111.464229 121.113052 
L 113.089127 121.123815 
L 113.414106 120.957339 
L 114.064066 120.921823 
L 114.389045 120.150934 
L 114.714025 120.330319 
L 115.363984 120.201954 
L 116.338922 120.143429 
L 116.663902 119.532849 
L 116.988881 118.018168 
L 117.313861 118.487919 
L 117.63884 118.555567 
L 118.288799 118.188169 
L 118.613779 117.702415 
L 118.938758 117.78547 
L 119.263738 117.697078 
L 120.238676 117.736208 
L 120.888636 117.538209 
L 121.538595 117.581898 
L 122.838513 117.671652 
L 123.488472 117.638789 
L 123.813451 115.034729 
L 124.138431 115.508253 
L 124.46341 115.680407 
L 125.113369 115.65257 
L 125.763328 115.682251 
L 127.713206 115.372221 
L 128.363165 115.503738 
L 128.688144 114.513472 
L 129.013124 114.787723 
L 129.338103 108.20501 
L 129.663083 110.088079 
L 129.988062 109.686149 
L 130.313042 109.616383 
L 130.963001 109.73753 
L 131.28798 109.661705 
L 131.937939 109.7615 
L 132.262919 105.87308 
L 132.587898 107.104625 
L 133.887817 107.55743 
L 134.212796 106.439451 
L 134.537776 106.961201 
L 135.187735 106.96442 
L 135.512714 106.827477 
L 136.162673 107.12859 
L 136.487653 105.84411 
L 136.812632 106.311627 
L 137.137612 106.451131 
L 137.462591 106.29298 
L 139.412468 106.901894 
L 139.737448 106.092444 
L 140.062428 106.417366 
L 141.362346 106.572292 
L 141.687325 106.467286 
L 142.337284 106.718127 
L 143.637202 106.99879 
L 144.287161 107.132874 
L 144.612141 107.186515 
L 144.93712 106.608047 
L 145.2621 106.808372 
L 147.211977 106.985013 
L 147.861936 107.045555 
L 149.161854 107.268647 
L 149.486834 106.996725 
L 151.436711 107.150044 
L 151.76169 106.828479 
L 152.08667 105.921681 
L 152.411649 106.250787 
L 153.386588 106.376202 
L 153.711568 105.774648 
L 154.036547 106.01693 
L 155.336465 106.225588 
L 156.311404 106.144885 
L 156.961363 106.227643 
L 157.286342 106.082259 
L 158.261281 106.099348 
L 159.236219 105.791821 
L 159.561199 103.316153 
L 159.886179 104.048794 
L 160.536138 104.027363 
L 160.861117 104.088656 
L 161.186097 104.000128 
L 161.511076 104.112531 
L 162.161035 104.099183 
L 166.06079 104.261159 
L 166.710749 104.191852 
L 167.685687 104.177137 
L 168.010667 104.252751 
L 168.660626 104.150079 
L 169.310585 101.796051 
L 169.635564 102.279492 
L 173.210339 102.469589 
L 173.535319 102.247055 
L 174.510257 102.414732 
L 174.835237 101.823406 
L 175.160216 102.035695 
L 175.485196 101.822874 
L 176.135155 101.851735 
L 176.460134 101.701642 
L 177.110093 101.865751 
L 177.435073 101.862667 
L 177.760052 101.742153 
L 178.734991 101.920165 
L 179.70993 101.94906 
L 181.009848 101.845967 
L 181.984786 101.914124 
L 183.934663 101.808037 
L 184.259643 101.846243 
L 184.584622 101.50419 
L 184.909602 101.642455 
L 185.234581 101.426204 
L 185.559561 98.973911 
L 185.884541 99.735695 
L 188.484377 99.898391 
L 188.809356 99.751073 
L 189.134336 99.787913 
L 189.459315 99.490895 
L 190.434254 99.586247 
L 192.384131 99.452854 
L 192.709111 99.502503 
L 193.03409 99.298616 
L 194.009029 99.382633 
L 194.334008 99.277443 
L 194.983967 99.344986 
L 195.308947 99.399627 
L 195.633926 99.285101 
L 195.958906 98.694127 
L 196.283885 98.874964 
L 196.608865 98.770878 
L 197.258824 98.879052 
L 198.233762 98.859647 
L 199.208701 98.92528 
L 200.508619 99.000833 
L 210.582984 99.08199 
L 211.882903 98.991428 
L 216.107636 99.127903 
L 216.757595 98.872563 
L 217.082575 98.951296 
L 217.732534 98.949132 
L 218.382493 98.938167 
L 222.607227 98.918859 
L 222.932206 98.642281 
L 223.257186 98.740001 
L 225.207063 98.508515 
L 225.532043 98.177634 
L 225.857022 98.30018 
L 226.182002 98.176898 
L 226.831961 98.215615 
L 227.806899 98.190315 
L 228.131879 98.103767 
L 229.106817 98.135517 
L 230.081756 98.105023 
L 230.731715 97.976065 
L 231.056695 83.22921 
L 231.381674 87.482074 
L 232.031633 87.485478 
L 232.356613 87.191217 
L 233.006572 87.271335 
L 234.631469 87.284355 
L 235.606408 87.281007 
L 236.581346 87.22917 
L 237.881265 87.251801 
L 240.156121 87.260922 
L 240.481101 87.127061 
L 241.456039 87.162728 
L 241.781019 87.184283 
L 242.105998 87.049275 
L 243.080937 87.111414 
L 244.380855 87.046978 
L 245.030814 86.996061 
L 246.005753 86.996274 
L 247.63065 86.829386 
L 248.605589 86.765604 
L 250.880446 86.773473 
L 251.205425 85.812622 
L 251.530405 86.079494 
L 253.805261 86.161773 
L 255.755138 86.156585 
L 257.055057 85.941339 
L 257.705016 86.006117 
L 258.029995 85.843643 
L 259.004934 85.915164 
L 261.60477 85.991927 
L 262.254729 85.803086 
L 262.579708 85.871792 
L 263.229667 85.807134 
L 264.204606 85.807074 
L 264.529586 85.429192 
L 264.854565 85.343337 
L 265.504524 85.424237 
L 266.479463 85.400276 
L 267.129422 85.358992 
L 268.10436 85.370132 
L 269.079299 85.115029 
L 269.729258 85.078998 
L 270.054238 82.451068 
L 270.379217 83.221836 
L 271.029176 83.215474 
L 271.354156 83.131904 
L 272.329094 83.161078 
L 273.629012 83.212991 
L 273.953992 83.093405 
L 274.603951 83.139983 
L 275.25391 83.133139 
L 276.878808 83.184671 
L 277.528767 83.079253 
L 279.478644 83.16187 
L 279.803623 83.158456 
L 280.128603 82.001904 
L 280.453582 82.353489 
L 282.728439 82.418545 
L 283.053419 82.439685 
L 283.378398 82.283229 
L 283.703378 82.32921 
L 284.028357 81.478854 
L 284.353337 81.769239 
L 284.678316 81.559779 
L 285.328275 81.641531 
L 286.628193 81.71093 
L 292.152845 81.840156 
L 292.477825 81.853105 
L 292.802804 81.660979 
L 294.752681 81.771072 
L 295.72762 81.730466 
L 299.302395 81.721553 
L 301.577251 81.794833 
L 304.502067 81.815176 
L 304.827047 81.583104 
L 305.477006 81.685573 
L 307.101903 81.695459 
L 307.426883 81.532042 
L 310.351699 81.664577 
L 312.951535 81.593421 
L 314.251453 81.567765 
L 316.52631 81.617357 
L 317.176269 81.540029 
L 319.451125 81.600983 
L 320.101084 81.546279 
L 321.401002 81.599407 
L 321.725982 81.453971 
L 322.700921 81.475062 
L 326.600675 81.536668 
L 329.85047 81.501799 
L 330.17545 81.399434 
L 331.475368 81.437971 
L 332.450306 81.413419 
L 334.725163 81.41085 
L 338.624917 81.2968 
L 338.949897 81.037025 
L 339.599856 81.142055 
L 340.249815 81.122482 
L 340.899774 81.110698 
L 341.224753 80.853411 
L 341.874713 80.93682 
L 345.449487 80.957261 
L 345.774467 76.918266 
L 346.099446 78.090301 
L 350.974139 78.258152 
L 351.299119 78.194887 
L 352.274057 78.285755 
L 353.898955 78.213402 
L 354.223934 78.134963 
L 355.523853 78.234411 
L 355.848832 78.088714 
L 356.498791 78.167332 
L 357.14875 77.709391 
L 357.798709 77.808725 
L 359.098627 77.823331 
L 362.023443 77.894146 
L 362.348423 77.810517 
L 362.673402 76.913022 
L 362.998382 77.266145 
L 365.273238 77.553244 
L 367.548095 77.730299 
L 368.848013 77.792378 
L 369.172993 77.70915 
L 370.472911 77.789448 
L 371.12287 77.768867 
L 382.497153 78.002938 
L 384.44703 78.019062 
L 386.071928 78.040492 
L 387.696826 78.096523 
L 388.021805 75.54028 
L 388.346785 76.297758 
L 388.996744 76.235115 
L 390.946621 76.32641 
L 391.921559 76.335183 
L 392.246539 76.356131 
L 392.571518 76.251182 
L 393.221477 76.264717 
L 394.846375 76.312103 
L 396.471273 76.376228 
L 396.471273 76.376228 
" clip-path="url(#p91caadc16b)" style="fill: none; stroke: #ff7f0e; stroke-width: 2; stroke-linecap: square"/>
    <defs>
     <path id="m7eb0584712" d="M 0 -3 
L -3 3 
L 3 3 
z
" style="stroke: #ff7f0e; stroke-linejoin: miter"/>
    </defs>
    <g clip-path="url(#p91caadc16b)">
     <use xlink:href="#m7eb0584712" x="71.816727" y="314.968" style="fill: #ff7f0e; stroke: #ff7f0e; stroke-linejoin: miter"/>
     <use xlink:href="#m7eb0584712" x="136.812632" y="106.311627" style="fill: #ff7f0e; stroke: #ff7f0e; stroke-linejoin: miter"/>
     <use xlink:href="#m7eb0584712" x="201.808537" y="99.020613" style="fill: #ff7f0e; stroke: #ff7f0e; stroke-linejoin: miter"/>
     <use xlink:href="#m7eb0584712" x="266.804442" y="85.335844" style="fill: #ff7f0e; stroke: #ff7f0e; stroke-linejoin: miter"/>
     <use xlink:href="#m7eb0584712" x="331.800347" y="81.400217" style="fill: #ff7f0e; stroke: #ff7f0e; stroke-linejoin: miter"/>
    </g>
   </g>
   <g id="line2d_33">
    <path d="M 71.816727 314.968 
L 73.116645 314.968 
L 73.441625 254.002418 
L 73.766604 259.947357 
L 74.091584 207.128919 
L 74.741543 203.109209 
L 75.066523 202.543736 
L 75.716482 196.680832 
L 76.041461 196.008949 
L 76.69142 193.144696 
L 77.0164 179.83147 
L 77.341379 174.326753 
L 77.991338 178.198925 
L 78.316318 171.773651 
L 78.966277 173.444389 
L 79.291256 173.865919 
L 79.616236 174.603247 
L 80.591174 175.843468 
L 80.916154 176.026344 
L 81.241133 174.768266 
L 82.216072 174.352938 
L 82.541052 173.930444 
L 82.866031 174.13689 
L 83.191011 174.126445 
L 83.51599 173.710455 
L 83.84097 173.709669 
L 84.165949 173.451542 
L 84.490929 172.787604 
L 84.815908 172.735078 
L 85.140888 172.067076 
L 85.465867 153.100606 
L 85.790847 152.758807 
L 86.440806 152.561653 
L 86.765785 152.689977 
L 87.090765 151.751471 
L 87.415744 151.669264 
L 87.740724 151.747036 
L 88.065704 151.003076 
L 88.715663 150.510201 
L 89.040642 150.237374 
L 89.690601 150.307379 
L 90.015581 150.433128 
L 90.34056 150.415336 
L 90.66554 150.143504 
L 91.640478 150.264769 
L 91.965458 149.965539 
L 92.290437 148.048437 
L 92.940396 147.468344 
L 93.590355 146.721594 
L 93.915335 146.800919 
L 94.565294 146.517124 
L 95.215253 146.503838 
L 96.515171 146.429175 
L 97.16513 145.879404 
L 97.49011 145.146204 
L 97.815089 144.887549 
L 98.140069 144.467422 
L 98.465048 144.322481 
L 98.790028 144.299333 
L 99.115007 144.086648 
L 99.764966 143.984001 
L 100.089946 144.049165 
L 100.414925 143.996348 
L 100.739905 140.730573 
L 101.064885 141.319017 
L 102.039823 142.217276 
L 103.014762 142.608855 
L 103.339741 141.455449 
L 103.664721 141.552342 
L 103.9897 141.47604 
L 104.31468 141.575176 
L 104.639659 141.338331 
L 104.964639 141.246225 
L 105.614598 141.325477 
L 105.939577 141.23791 
L 106.264557 140.265947 
L 107.239495 140.432174 
L 107.889455 140.274581 
L 108.539414 140.08553 
L 109.189373 140.198805 
L 109.514352 139.905281 
L 109.839332 139.927494 
L 110.489291 139.017613 
L 110.81427 139.037683 
L 111.464229 138.780627 
L 112.439168 138.797654 
L 112.764147 138.542645 
L 113.414106 138.417022 
L 115.039004 138.047366 
L 115.363984 137.839651 
L 116.013943 137.833535 
L 116.663902 137.619845 
L 116.988881 137.482474 
L 117.63884 137.506995 
L 118.288799 137.477518 
L 119.588717 137.42134 
L 120.238676 136.915835 
L 120.888636 136.771627 
L 121.538595 136.782829 
L 121.863574 136.70117 
L 122.188554 136.425877 
L 122.513533 136.432867 
L 122.838513 136.276701 
L 123.488472 136.259158 
L 124.78839 135.202385 
L 125.113369 135.181342 
L 125.438349 135.026718 
L 126.088308 134.958772 
L 127.388226 134.890382 
L 127.713206 131.150889 
L 128.363165 131.645542 
L 129.013124 131.902616 
L 129.338103 131.374183 
L 130.313042 131.769952 
L 131.28798 132.011651 
L 131.61296 131.618476 
L 132.262919 131.75237 
L 133.237857 131.905972 
L 133.562837 131.630078 
L 134.537776 131.667608 
L 138.11255 131.927835 
L 138.762509 131.948052 
L 139.087489 132.00546 
L 139.412468 131.86826 
L 140.712387 131.9579 
L 141.362346 131.934153 
L 141.687325 131.788648 
L 144.287161 131.708973 
L 145.912059 131.799842 
L 146.886998 131.804751 
L 147.211977 131.426301 
L 149.161854 131.403727 
L 151.111731 131.494914 
L 151.76169 131.498519 
L 152.08667 131.068745 
L 152.411649 131.102086 
L 152.736629 130.811702 
L 153.711568 130.984525 
L 154.036547 130.830858 
L 154.686506 130.817281 
L 155.011486 130.60579 
L 155.986424 130.674622 
L 156.311404 130.506939 
L 156.961363 130.533197 
L 157.286342 130.002508 
L 157.611322 129.204351 
L 157.936301 129.104601 
L 158.91124 129.143472 
L 159.561199 129.109057 
L 162.486015 129.080985 
L 163.460953 129.101399 
L 166.385769 128.997313 
L 170.285523 129.079764 
L 171.585441 129.140402 
L 171.910421 128.830716 
L 172.88536 128.779695 
L 173.535319 128.699292 
L 175.810175 128.529773 
L 176.785114 128.546567 
L 177.110093 128.185792 
L 178.734991 128.053697 
L 179.059971 128.083103 
L 179.38495 127.559246 
L 181.984786 127.54447 
L 182.309766 127.562427 
L 182.634745 127.328731 
L 183.934663 127.178059 
L 188.484377 127.095409 
L 189.784295 127.009598 
L 190.109274 126.058096 
L 191.734172 126.054703 
L 192.709111 126.039448 
L 195.308947 125.905682 
L 198.233762 125.57276 
L 198.558742 123.427949 
L 202.783476 123.346162 
L 203.108455 123.230239 
L 203.433435 123.254359 
L 203.758414 123.092151 
L 205.383312 123.143825 
L 206.358251 123.149378 
L 206.68323 122.828335 
L 207.983148 122.80646 
L 210.582984 122.669058 
L 210.907964 122.551162 
L 219.357432 122.539567 
L 219.682411 122.418923 
L 220.007391 122.12619 
L 221.632288 122.059861 
L 222.932206 121.970525 
L 223.582165 121.874763 
L 224.557104 121.866918 
L 225.532043 121.747211 
L 227.15694 121.633458 
L 228.456858 121.617797 
L 228.781838 121.262375 
L 233.006572 121.31385 
L 234.30649 121.297903 
L 236.906326 121.283098 
L 237.556285 121.237675 
L 238.531224 121.179046 
L 240.80608 121.168449 
L 242.430978 121.118583 
L 245.030814 121.117076 
L 246.980691 121.140177 
L 247.63065 121.044282 
L 249.905507 121.031591 
L 250.555466 120.979216 
L 250.880446 120.77848 
L 251.530405 120.734785 
L 257.380036 120.768273 
L 258.029995 120.675301 
L 260.304852 120.679536 
L 262.254729 120.690653 
L 262.579708 120.542789 
L 269.404278 120.515258 
L 270.054238 120.45964 
L 270.379217 120.479386 
L 270.704197 120.375382 
L 272.329094 120.366436 
L 273.629012 120.374841 
L 273.953992 120.191083 
L 275.25391 120.18958 
L 281.103541 120.275218 
L 281.7535 120.15685 
L 282.07848 119.799446 
L 288.57807 119.646736 
L 290.527948 119.684901 
L 290.852927 119.262294 
L 292.152845 119.266681 
L 292.802804 119.185276 
L 301.252272 119.158991 
L 303.202149 119.132502 
L 305.477006 119.076348 
L 305.801985 118.566575 
L 315.226391 118.604805 
L 320.426064 118.47549 
L 322.375941 118.467392 
L 322.700921 118.356302 
L 324.650798 118.37518 
L 324.975777 118.179741 
L 328.550552 118.194483 
L 329.200511 118.162368 
L 329.525491 117.877402 
L 332.125327 117.951882 
L 333.425245 117.930399 
L 338.949897 118.03597 
L 341.549733 118.072593 
L 341.874713 117.78488 
L 349.674221 117.686955 
L 350.32418 117.533739 
L 351.949078 117.479376 
L 352.599037 117.398973 
L 353.248996 117.332845 
L 355.523853 117.344372 
L 356.173812 117.252347 
L 358.448668 117.181625 
L 362.673402 117.213153 
L 366.573156 117.201452 
L 368.198054 117.199247 
L 368.523034 117.03589 
L 369.822952 117.033683 
L 370.472911 116.97709 
L 373.722706 116.95289 
L 377.297481 116.825875 
L 378.597399 116.797917 
L 382.172174 116.775068 
L 387.046867 116.603617 
L 390.621641 116.60233 
L 391.59658 116.587402 
L 392.896498 116.538116 
L 395.496334 116.525552 
L 396.471273 116.510089 
L 396.471273 116.510089 
" clip-path="url(#p91caadc16b)" style="fill: none; stroke: #2ca02c; stroke-width: 2; stroke-linecap: square"/>
    <defs>
     <path id="m46c3144a0e" d="M -3 3 
L 3 3 
L 3 -3 
L -3 -3 
z
" style="stroke: #2ca02c; stroke-linejoin: miter"/>
    </defs>
    <g clip-path="url(#p91caadc16b)">
     <use xlink:href="#m46c3144a0e" x="71.816727" y="314.968" style="fill: #2ca02c; stroke: #2ca02c; stroke-linejoin: miter"/>
     <use xlink:href="#m46c3144a0e" x="136.812632" y="131.850814" style="fill: #2ca02c; stroke: #2ca02c; stroke-linejoin: miter"/>
     <use xlink:href="#m46c3144a0e" x="201.808537" y="123.362013" style="fill: #2ca02c; stroke: #2ca02c; stroke-linejoin: miter"/>
     <use xlink:href="#m46c3144a0e" x="266.804442" y="120.495169" style="fill: #2ca02c; stroke: #2ca02c; stroke-linejoin: miter"/>
     <use xlink:href="#m46c3144a0e" x="331.800347" y="117.951137" style="fill: #2ca02c; stroke: #2ca02c; stroke-linejoin: miter"/>
    </g>
   </g>
   <g id="line2d_34">
    <path d="M 71.816727 314.968 
L 73.116645 314.968 
L 73.441625 265.089606 
L 74.091584 218.615536 
L 74.416563 205.652297 
L 75.066523 212.895064 
L 75.716482 215.110618 
L 76.041461 215.85436 
L 76.366441 214.989804 
L 76.69142 215.109518 
L 77.0164 214.957805 
L 77.666359 214.383606 
L 77.991338 213.338968 
L 78.316318 213.431672 
L 78.641297 207.463067 
L 79.291256 208.648558 
L 79.616236 208.770654 
L 79.941215 209.091249 
L 80.266195 208.516394 
L 80.591174 208.38243 
L 80.916154 207.978738 
L 81.241133 208.364901 
L 81.566113 207.545008 
L 82.216072 208.028396 
L 82.541052 207.688944 
L 82.866031 204.818086 
L 83.191011 204.571382 
L 83.84097 204.9022 
L 84.490929 204.831558 
L 85.140888 204.17477 
L 85.465867 204.125776 
L 85.790847 203.228617 
L 86.440806 203.666559 
L 86.765785 203.784508 
L 87.090765 203.247805 
L 88.390683 202.606636 
L 89.040642 202.844112 
L 89.690601 202.872316 
L 90.015581 202.439803 
L 90.34056 201.701741 
L 90.66554 201.645285 
L 90.990519 201.095756 
L 91.315499 201.147656 
L 91.965458 200.833879 
L 92.290437 193.55863 
L 92.615417 193.090859 
L 92.940396 193.131316 
L 93.265376 193.297218 
L 93.590355 193.284447 
L 93.915335 191.854446 
L 94.240314 191.655839 
L 94.890274 191.706702 
L 95.540233 191.72684 
L 95.865212 191.470212 
L 96.515171 191.658682 
L 96.840151 191.591817 
L 97.16513 191.19779 
L 97.815089 191.357749 
L 98.140069 191.1132 
L 99.439987 191.222427 
L 100.089946 191.249737 
L 100.739905 191.045147 
L 101.064885 191.084184 
L 101.389864 189.665978 
L 103.014762 189.781746 
L 103.339741 189.85892 
L 103.664721 189.786366 
L 103.9897 189.859122 
L 104.639659 189.566525 
L 106.264557 189.752579 
L 106.914516 189.364026 
L 107.564475 189.31797 
L 108.214434 188.973128 
L 108.539414 188.878197 
L 109.189373 188.976931 
L 110.489291 188.863613 
L 111.464229 188.863294 
L 111.789209 188.127252 
L 112.114188 188.149286 
L 112.439168 187.791394 
L 112.764147 184.656308 
L 113.089127 184.577464 
L 113.414106 184.307571 
L 114.064066 184.333716 
L 120.238676 184.290594 
L 121.213615 184.229986 
L 121.538595 183.907229 
L 121.863574 183.898173 
L 122.188554 183.756912 
L 122.513533 183.74941 
L 123.163492 183.327455 
L 124.78839 183.095467 
L 125.438349 182.902749 
L 125.763328 182.70563 
L 126.413287 182.681357 
L 126.738267 182.350812 
L 127.063247 182.206868 
L 129.013124 182.297785 
L 129.338103 181.955577 
L 130.313042 181.981974 
L 130.638021 182.010088 
L 130.963001 181.575411 
L 132.262919 181.548169 
L 134.212796 181.597814 
L 134.862755 181.325683 
L 135.512714 181.101452 
L 136.487653 181.089495 
L 137.137612 181.063304 
L 137.787571 180.88153 
L 140.062428 180.739316 
L 142.662264 180.725888 
L 142.987243 180.717034 
L 143.312223 180.413282 
L 144.287161 180.359121 
L 144.93712 180.270661 
L 145.2621 179.931557 
L 145.587079 179.892158 
L 145.912059 179.409882 
L 147.861936 179.297715 
L 148.511895 179.172459 
L 149.161854 179.18927 
L 150.461772 179.093474 
L 152.411649 178.984831 
L 152.736629 178.567064 
L 155.661445 178.379255 
L 155.986424 177.962653 
L 156.961363 177.857471 
L 157.286342 177.64234 
L 158.58626 177.695115 
L 158.91124 177.697815 
L 159.236219 177.449804 
L 159.886179 177.257746 
L 163.135974 177.357542 
L 163.460953 177.212904 
L 164.435892 177.2118 
L 166.385769 177.007755 
L 167.360708 177.01806 
L 167.685687 176.820693 
L 168.985605 176.739822 
L 169.310585 176.45064 
L 170.935482 176.299466 
L 171.585441 176.232101 
L 171.910421 176.05918 
L 172.88536 176.08128 
L 173.535319 175.917978 
L 174.185278 175.533735 
L 174.835237 175.558438 
L 175.485196 175.428798 
L 176.135155 175.398938 
L 176.785114 175.347884 
L 179.70993 174.969741 
L 180.034909 174.978364 
L 180.359889 173.882485 
L 181.334827 173.824089 
L 181.984786 173.74768 
L 183.609684 173.717177 
L 185.559561 173.713646 
L 187.509438 173.677143 
L 187.834418 171.821186 
L 190.434254 171.766604 
L 190.759233 171.568073 
L 192.059152 171.585534 
L 193.35907 171.555985 
L 195.308947 171.643396 
L 198.883722 171.540792 
L 201.158578 171.572376 
L 201.808537 171.515536 
L 202.458496 171.499837 
L 203.108455 171.419483 
L 205.383312 171.409318 
L 205.708292 171.094694 
L 207.983148 171.052229 
L 208.633107 170.918486 
L 209.608046 170.936647 
L 209.933025 170.429887 
L 210.258005 170.321835 
L 212.207882 170.331981 
L 213.182821 170.309572 
L 218.707473 170.116354 
L 219.032452 169.289611 
L 221.957268 169.322895 
L 222.282247 169.340542 
L 222.607227 168.095108 
L 223.582165 168.084337 
L 226.182002 168.122432 
L 227.806899 168.029197 
L 228.456858 167.950324 
L 232.031633 168.040044 
L 232.356613 168.047088 
L 232.681592 167.774641 
L 233.656531 167.798987 
L 234.30649 167.739782 
L 237.556285 167.881156 
L 237.881265 167.650621 
L 242.430978 167.548182 
L 242.755957 167.183074 
L 243.080937 167.094689 
L 243.730896 167.107332 
L 245.030814 167.15469 
L 248.930568 167.327965 
L 249.255548 167.195601 
L 256.730077 167.007726 
L 257.055057 166.586251 
L 259.979872 166.59411 
L 260.629831 166.49965 
L 264.529586 166.37643 
L 265.179545 166.386149 
L 265.504524 166.243711 
L 266.479463 166.230518 
L 266.804442 166.052325 
L 268.42934 166.047785 
L 270.704197 166.021734 
L 271.679135 165.959001 
L 274.278971 165.996716 
L 275.903869 165.942377 
L 277.853746 165.963549 
L 278.503705 165.920485 
L 280.453582 165.882172 
L 285.653255 165.936344 
L 289.877989 165.914265 
L 291.177907 165.828675 
L 291.502886 165.540449 
L 293.127784 165.49137 
L 295.40264 165.42992 
L 296.377579 165.397192 
L 296.702559 165.401859 
L 297.027538 165.02953 
L 298.652436 165.005092 
L 300.277333 164.961496 
L 302.55219 165.003855 
L 303.202149 164.93164 
L 306.451944 164.944667 
L 306.776924 163.890107 
L 311.326637 163.950445 
L 313.276514 163.890005 
L 315.551371 163.903761 
L 316.20133 163.837056 
L 318.476187 163.825158 
L 319.126146 163.752649 
L 322.700921 163.720232 
L 324.000839 163.648502 
L 325.950716 163.621324 
L 326.925654 163.58701 
L 327.250634 163.39048 
L 338.299938 163.281102 
L 338.624917 162.94064 
L 340.574794 162.927054 
L 340.899774 161.542258 
L 343.82459 161.494124 
L 348.374303 161.478257 
L 353.248996 161.421994 
L 353.573975 161.075819 
L 363.323361 161.021637 
L 364.2983 160.926337 
L 364.623279 160.589883 
L 366.248177 160.60103 
L 366.573156 160.248181 
L 371.12287 160.238362 
L 374.372665 160.265263 
L 381.847194 160.302564 
L 384.44703 160.335813 
L 388.346785 160.377788 
L 388.671764 160.199973 
L 390.296662 160.149898 
L 396.471273 160.156866 
L 396.471273 160.156866 
" clip-path="url(#p91caadc16b)" style="fill: none; stroke: #d62728; stroke-width: 2; stroke-linecap: square"/>
    <defs>
     <path id="m5d87b6ef70" d="M -3 3 
L 3 -3 
M -3 -3 
L 3 3 
" style="stroke: #d62728"/>
    </defs>
    <g clip-path="url(#p91caadc16b)">
     <use xlink:href="#m5d87b6ef70" x="71.816727" y="314.968" style="fill: #d62728; stroke: #d62728"/>
     <use xlink:href="#m5d87b6ef70" x="136.812632" y="181.097354" style="fill: #d62728; stroke: #d62728"/>
     <use xlink:href="#m5d87b6ef70" x="201.808537" y="171.515536" style="fill: #d62728; stroke: #d62728"/>
     <use xlink:href="#m5d87b6ef70" x="266.804442" y="166.052325" style="fill: #d62728; stroke: #d62728"/>
     <use xlink:href="#m5d87b6ef70" x="331.800347" y="163.372977" style="fill: #d62728; stroke: #d62728"/>
    </g>
   </g>
   <g id="line2d_35">
    <path d="M 71.816727 314.968 
L 73.116645 314.968 
L 73.441625 268.737506 
L 73.766604 273.278286 
L 74.091584 265.615994 
L 74.416563 265.049767 
L 74.741543 265.412178 
L 75.066523 231.494118 
L 75.391502 236.523699 
L 75.716482 239.803246 
L 76.69142 245.287847 
L 77.0164 245.972779 
L 77.341379 246.04829 
L 77.666359 245.762205 
L 77.991338 237.364245 
L 78.316318 238.594692 
L 78.966277 240.184106 
L 79.291256 240.154707 
L 80.266195 242.18119 
L 80.916154 241.292715 
L 81.241133 241.71955 
L 81.566113 241.859987 
L 82.216072 241.773048 
L 83.191011 242.3618 
L 83.51599 241.89699 
L 83.84097 241.740415 
L 84.165949 237.427328 
L 84.490929 237.257419 
L 84.815908 237.452937 
L 85.140888 235.610261 
L 85.465867 235.608014 
L 85.790847 234.625629 
L 86.115826 234.912914 
L 86.765785 235.11048 
L 87.090765 233.700122 
L 87.415744 233.655174 
L 89.040642 234.219133 
L 89.690601 234.02048 
L 90.34056 234.134236 
L 90.990519 234.050194 
L 91.315499 234.148738 
L 91.640478 233.981091 
L 91.965458 234.024806 
L 92.290437 233.924899 
L 92.615417 233.996436 
L 92.940396 233.919314 
L 93.590355 233.968305 
L 94.890274 233.417336 
L 95.215253 233.045231 
L 95.540233 232.942997 
L 95.865212 233.026369 
L 96.190192 232.248192 
L 96.515171 231.159247 
L 97.49011 231.222007 
L 97.815089 227.382863 
L 98.140069 227.471571 
L 98.465048 224.404557 
L 98.790028 223.043001 
L 99.115007 223.163007 
L 100.414925 223.238945 
L 100.739905 221.60819 
L 101.389864 221.746146 
L 102.364803 221.946309 
L 103.339741 221.987194 
L 103.9897 222.157449 
L 104.639659 221.978868 
L 105.289618 222.086119 
L 105.614598 220.470764 
L 106.589536 220.641351 
L 107.239495 220.707084 
L 107.564475 220.745653 
L 107.889455 220.342827 
L 108.539414 220.382865 
L 109.189373 220.494813 
L 109.839332 220.257088 
L 112.439168 220.146556 
L 113.414106 220.133022 
L 113.739086 220.012429 
L 114.064066 219.701738 
L 116.663902 219.355028 
L 116.988881 219.184547 
L 117.313861 219.169874 
L 117.63884 214.881491 
L 119.263738 215.032508 
L 120.888636 215.037652 
L 121.213615 210.307513 
L 121.538595 210.345506 
L 121.863574 209.790616 
L 122.188554 209.773326 
L 122.838513 209.569921 
L 123.488472 209.594346 
L 123.813451 209.156618 
L 126.088308 209.005271 
L 126.413287 208.852251 
L 127.388226 208.884638 
L 127.713206 205.286997 
L 128.363165 205.311634 
L 129.338103 205.388847 
L 130.638021 205.598518 
L 130.963001 205.400441 
L 132.587898 205.470075 
L 132.912878 204.249801 
L 133.562837 204.270952 
L 134.212796 204.275927 
L 135.187735 204.14139 
L 135.512714 196.282834 
L 136.162673 196.348118 
L 136.487653 196.212512 
L 136.812632 196.238355 
L 137.137612 195.619683 
L 137.462591 195.409411 
L 138.43753 195.419142 
L 139.412468 195.247003 
L 140.062428 195.262526 
L 142.662264 195.172123 
L 143.312223 195.173025 
L 144.287161 195.1662 
L 144.612141 195.09033 
L 144.93712 194.853255 
L 146.562018 194.660947 
L 147.211977 194.614569 
L 148.186916 194.662724 
L 149.486834 194.650923 
L 150.136793 194.660082 
L 150.461772 194.470289 
L 150.786752 193.023479 
L 151.436711 193.068183 
L 152.08667 192.928348 
L 153.061609 192.949262 
L 153.386588 192.82341 
L 154.686506 192.905204 
L 155.336465 192.835013 
L 156.311404 192.834664 
L 156.636383 191.963912 
L 157.286342 191.939736 
L 157.611322 191.810467 
L 159.886179 191.698498 
L 160.211158 191.609134 
L 160.536138 191.642818 
L 160.861117 191.444362 
L 162.161035 191.226317 
L 162.486015 190.796938 
L 163.135974 190.782356 
L 163.460953 190.22503 
L 164.110912 190.17528 
L 165.73581 190.157709 
L 167.360708 190.203874 
L 168.335646 190.169661 
L 168.985605 190.170193 
L 170.935482 190.249847 
L 171.260462 190.144574 
L 172.56038 190.210561 
L 173.210339 190.202013 
L 173.535319 188.152561 
L 173.860298 188.142563 
L 174.185278 187.370688 
L 175.160216 187.370796 
L 175.485196 187.154084 
L 176.785114 187.232407 
L 177.110093 186.802633 
L 177.760052 186.727128 
L 178.734991 186.785854 
L 179.38495 186.73412 
L 182.309766 186.847469 
L 182.959725 186.74509 
L 183.284704 186.763256 
L 183.609684 186.277744 
L 185.234581 186.281842 
L 186.20952 186.166864 
L 188.159397 186.062237 
L 193.35907 185.71713 
L 195.308947 185.678961 
L 195.633926 185.405168 
L 196.608865 185.369084 
L 197.908783 185.342502 
L 199.85866 185.444672 
L 203.108455 185.203544 
L 203.758414 185.11403 
L 206.68323 185.194579 
L 207.333189 185.144801 
L 207.983148 185.15557 
L 208.633107 185.050568 
L 211.232943 185.033503 
L 211.557923 184.805126 
L 213.83278 184.771643 
L 214.482739 184.726802 
L 219.682411 184.753137 
L 220.982329 184.469593 
L 221.307309 184.169242 
L 221.957268 184.183948 
L 222.282247 184.024977 
L 223.907145 183.998548 
L 224.232124 182.478077 
L 226.831961 182.555909 
L 228.131879 182.435328 
L 230.081756 182.406789 
L 230.406735 182.274499 
L 233.006572 182.320512 
L 234.631469 182.040106 
L 237.881265 182.078579 
L 239.506162 181.959623 
L 239.831142 181.846194 
L 240.80608 181.802947 
L 241.456039 181.820794 
L 241.781019 117.279536 
L 244.705835 121.243908 
L 250.555466 127.553105 
L 251.205425 128.081221 
L 252.505343 129.264775 
L 257.055057 133.160689 
L 257.705016 133.547832 
L 261.60477 136.237372 
L 262.254729 136.606797 
L 262.904688 136.964386 
L 267.779381 139.942278 
L 268.10436 139.396755 
L 270.379217 140.763845 
L 270.704197 140.735667 
L 272.004115 141.400168 
L 272.654074 141.606177 
L 275.578889 143.188027 
L 276.878808 143.787022 
L 290.852927 149.204659 
L 293.127784 149.83061 
L 299.302395 151.645424 
L 300.277333 151.74669 
L 311.326637 154.309752 
L 311.651617 154.187095 
L 317.176269 155.380221 
L 320.751043 156.03351 
L 326.600675 156.877843 
L 326.925654 156.14173 
L 327.250634 155.871381 
L 327.575613 155.939115 
L 327.900593 155.84927 
L 331.150388 156.419534 
L 331.475368 156.456181 
L 331.800347 152.204457 
L 333.100265 152.42808 
L 335.375122 152.900953 
L 335.700102 152.786708 
L 337.00002 153.042989 
L 337.324999 152.685935 
L 337.649979 152.747357 
L 337.974958 152.680152 
L 343.82459 153.689375 
L 344.474549 153.765178 
L 344.799528 153.832976 
L 345.124508 153.670203 
L 346.099446 153.725226 
L 349.674221 154.329185 
L 351.299119 154.559642 
L 353.573975 154.943565 
L 353.898955 154.840526 
L 359.748586 155.618901 
L 360.073566 155.463386 
L 361.048505 155.493116 
L 361.373484 155.162654 
L 364.2983 155.621961 
L 364.948259 155.6147 
L 370.79789 156.44586 
L 371.447849 156.464578 
L 375.347604 156.888626 
L 375.672583 156.797146 
L 381.197235 157.439941 
L 387.046867 157.957244 
L 388.021805 157.98341 
L 389.971682 158.174694 
L 392.896498 158.478256 
L 396.471273 158.710749 
L 396.471273 158.710749 
" clip-path="url(#p91caadc16b)" style="fill: none; stroke: #9467bd; stroke-width: 2; stroke-linecap: square"/>
    <defs>
     <path id="md6a5c53de2" d="M -0 3 
L 3 -3 
L -3 -3 
z
" style="stroke: #9467bd; stroke-linejoin: miter"/>
    </defs>
    <g clip-path="url(#p91caadc16b)">
     <use xlink:href="#md6a5c53de2" x="71.816727" y="314.968" style="fill: #9467bd; stroke: #9467bd; stroke-linejoin: miter"/>
     <use xlink:href="#md6a5c53de2" x="136.812632" y="196.238355" style="fill: #9467bd; stroke: #9467bd; stroke-linejoin: miter"/>
     <use xlink:href="#md6a5c53de2" x="201.808537" y="185.293047" style="fill: #9467bd; stroke: #9467bd; stroke-linejoin: miter"/>
     <use xlink:href="#md6a5c53de2" x="266.804442" y="139.436296" style="fill: #9467bd; stroke: #9467bd; stroke-linejoin: miter"/>
     <use xlink:href="#md6a5c53de2" x="331.800347" y="152.204457" style="fill: #9467bd; stroke: #9467bd; stroke-linejoin: miter"/>
    </g>
   </g>
   <g id="line2d_36">
    <path d="M 71.816727 314.968 
L 73.116645 314.968 
L 73.441625 267.4169 
L 73.766604 270.386684 
L 74.091584 270.829178 
L 74.416563 268.855565 
L 74.741543 264.259144 
L 75.391502 262.038662 
L 75.716482 262.070056 
L 76.041461 261.098067 
L 76.366441 260.675189 
L 76.69142 253.022069 
L 77.0164 254.813959 
L 77.666359 251.931476 
L 77.991338 251.44739 
L 78.316318 250.143135 
L 78.641297 243.811031 
L 78.966277 242.847216 
L 79.291256 243.552988 
L 79.616236 243.236097 
L 79.941215 243.775182 
L 80.266195 195.161075 
L 80.591174 209.31341 
L 80.916154 211.807098 
L 81.241133 212.697302 
L 81.566113 212.611218 
L 81.891093 214.297512 
L 82.216072 215.102014 
L 82.541052 216.744879 
L 82.866031 217.134962 
L 83.51599 218.7454 
L 83.84097 218.091671 
L 84.490929 219.648553 
L 84.815908 212.008414 
L 85.140888 215.539056 
L 85.465867 216.878715 
L 86.115826 218.500005 
L 86.440806 217.471512 
L 86.765785 218.528693 
L 87.415744 219.237587 
L 87.740724 219.326928 
L 88.065704 219.936503 
L 88.390683 220.188964 
L 89.040642 220.950502 
L 89.365622 221.254292 
L 89.690601 220.932752 
L 90.015581 220.780531 
L 90.34056 220.258765 
L 90.66554 220.670473 
L 90.990519 220.393296 
L 91.315499 220.658872 
L 92.290437 220.613819 
L 92.615417 220.841383 
L 92.940396 219.807143 
L 93.265376 219.317453 
L 93.590355 219.785879 
L 93.915335 219.943383 
L 94.240314 219.745274 
L 94.565294 219.363299 
L 94.890274 219.801824 
L 95.540233 218.181259 
L 95.865212 218.695599 
L 96.190192 218.850322 
L 96.515171 217.885056 
L 96.840151 218.337407 
L 97.16513 218.554274 
L 97.49011 218.504762 
L 98.140069 219.000213 
L 99.439987 219.123067 
L 99.764966 218.993368 
L 100.089946 219.136549 
L 100.414925 218.99295 
L 100.739905 219.095874 
L 101.064885 218.93229 
L 101.714844 219.076388 
L 102.039823 219.00994 
L 102.364803 219.17518 
L 103.014762 219.071891 
L 103.9897 219.01682 
L 104.31468 219.211749 
L 104.639659 219.208573 
L 104.964639 216.176073 
L 105.289618 217.010238 
L 105.614598 215.880213 
L 105.939577 216.288886 
L 106.264557 208.221399 
L 106.589536 210.380791 
L 107.239495 210.56306 
L 107.564475 210.141607 
L 107.889455 210.354554 
L 108.214434 210.234704 
L 108.864393 210.446222 
L 109.514352 210.133821 
L 110.164311 210.185517 
L 110.489291 206.208718 
L 110.81427 206.992487 
L 111.13925 207.179214 
L 111.789209 207.207117 
L 114.064066 207.176785 
L 114.389045 207.019029 
L 114.714025 206.106292 
L 115.039004 205.613175 
L 115.363984 205.825701 
L 115.688963 205.285336 
L 116.013943 205.524336 
L 116.338922 205.50875 
L 116.663902 205.206173 
L 116.988881 205.262488 
L 117.313861 204.962239 
L 117.63884 205.169844 
L 119.588717 205.40893 
L 120.238676 205.308943 
L 120.563656 204.868258 
L 120.888636 205.010973 
L 121.538595 204.909839 
L 122.188554 203.863661 
L 122.513533 204.133584 
L 123.163492 204.108664 
L 124.138431 204.12492 
L 125.113369 204.20215 
L 129.013124 204.556023 
L 129.338103 203.851028 
L 129.663083 204.014783 
L 130.963001 203.993889 
L 131.28798 203.450771 
L 131.61296 203.566172 
L 131.937939 203.492422 
L 132.912878 203.665843 
L 133.237857 203.663429 
L 133.562837 202.52841 
L 133.887817 202.850037 
L 134.212796 202.628146 
L 134.537776 202.643336 
L 134.862755 193.867136 
L 135.187735 196.147091 
L 135.512714 195.244557 
L 135.837694 195.673525 
L 137.137612 196.199242 
L 137.462591 196.183591 
L 137.787571 195.666048 
L 138.11255 195.956548 
L 139.737448 196.547926 
L 140.062428 196.513754 
L 140.387407 196.649166 
L 140.712387 196.611911 
L 141.037366 196.718231 
L 141.362346 196.280389 
L 141.687325 196.502004 
L 142.012305 196.474684 
L 142.662264 196.760614 
L 143.312223 196.905165 
L 143.637202 197.012352 
L 143.962182 196.591032 
L 144.287161 196.832483 
L 144.93712 196.943703 
L 145.2621 197.014465 
L 145.587079 196.830014 
L 145.912059 196.960621 
L 146.237038 196.763135 
L 146.886998 196.878166 
L 148.186916 197.047705 
L 149.161854 197.195941 
L 149.486834 197.14749 
L 149.811813 197.238151 
L 150.136793 197.098272 
L 151.111731 197.23824 
L 151.436711 197.343784 
L 151.76169 197.320591 
L 152.411649 197.432553 
L 152.736629 197.166593 
L 153.386588 197.386079 
L 154.686506 197.513376 
L 155.011486 197.124776 
L 155.986424 197.283887 
L 156.636383 197.26969 
L 156.961363 196.921559 
L 157.611322 197.142754 
L 158.261281 197.059149 
L 159.236219 197.180396 
L 160.211158 197.079802 
L 160.536138 196.894966 
L 160.861117 197.026022 
L 163.785933 197.111254 
L 165.73581 197.313306 
L 166.710749 197.170987 
L 168.335646 197.350993 
L 169.310585 197.487166 
L 169.635564 197.325005 
L 169.960544 197.411295 
L 170.610503 197.417313 
L 171.260462 197.436833 
L 172.2354 197.478869 
L 172.56038 197.368199 
L 174.510257 197.454787 
L 174.835237 197.377319 
L 176.460134 197.512805 
L 177.110093 197.56665 
L 177.435073 197.376455 
L 179.70993 197.340142 
L 180.684868 197.387328 
L 181.009848 197.420668 
L 181.334827 197.31376 
L 181.659807 196.894067 
L 181.984786 196.851651 
L 182.634745 196.969413 
L 183.609684 197.032983 
L 184.259643 196.995186 
L 184.584622 197.037204 
L 184.909602 196.803166 
L 185.884541 196.86541 
L 186.20952 195.904148 
L 186.5345 196.166313 
L 187.184459 196.238797 
L 187.834418 196.170238 
L 188.484377 196.159308 
L 190.109274 196.268929 
L 190.434254 196.148414 
L 191.084213 196.208827 
L 192.384131 196.266165 
L 193.684049 196.160738 
L 194.334008 195.848281 
L 195.308947 195.976284 
L 195.958906 195.864224 
L 196.933844 195.88926 
L 197.258824 195.645237 
L 197.908783 195.725048 
L 199.85866 195.83033 
L 200.18364 195.81951 
L 200.508619 195.154884 
L 200.833599 195.318996 
L 202.133517 195.354371 
L 203.758414 195.410511 
L 205.383312 195.445087 
L 205.708292 195.20447 
L 206.033271 195.139142 
L 206.358251 195.201209 
L 207.00821 195.074767 
L 207.333189 195.099845 
L 207.983148 194.839263 
L 208.633107 194.882005 
L 212.532862 194.961973 
L 213.182821 194.988658 
L 214.157759 194.973717 
L 216.757595 194.91972 
L 217.082575 192.283603 
L 217.407554 192.887027 
L 220.65735 193.011473 
L 220.982329 192.652367 
L 221.632288 192.79177 
L 225.532043 192.865637 
L 230.081756 193.036176 
L 234.30649 192.949743 
L 234.956449 192.938508 
L 236.256367 192.96575 
L 236.581346 192.97434 
L 236.906326 192.712944 
L 240.481101 192.828961 
L 241.13106 192.773184 
L 242.105998 192.801932 
L 242.755957 192.590287 
L 243.730896 192.586582 
L 244.055876 192.614037 
L 244.380855 190.905722 
L 245.355794 191.193407 
L 247.95563 191.343966 
L 249.580527 191.41498 
L 250.230486 191.427644 
L 252.180364 191.50916 
L 252.505343 191.191018 
L 252.830323 191.26879 
L 253.480282 191.265649 
L 254.45522 191.310268 
L 254.7802 191.328233 
L 255.105179 191.001145 
L 255.755138 191.107949 
L 257.705016 191.117784 
L 258.029995 190.661758 
L 258.354975 190.798956 
L 258.679954 173.844118 
L 259.004934 178.190685 
L 260.304852 178.862724 
L 260.629831 178.423388 
L 260.954811 178.732738 
L 265.829504 180.701358 
L 266.154483 180.745897 
L 266.479463 180.387702 
L 266.804442 180.636439 
L 267.129422 180.610408 
L 268.754319 181.155875 
L 272.979053 182.245537 
L 275.578889 182.748963 
L 277.853746 183.186924 
L 278.178726 180.619236 
L 278.503705 181.361048 
L 282.403459 181.984381 
L 284.028357 182.115928 
L 286.953173 182.595072 
L 287.603132 182.666855 
L 287.928111 182.541213 
L 288.57807 182.659432 
L 290.202968 182.868272 
L 291.177907 182.987076 
L 291.502886 182.926533 
L 292.802804 183.121371 
L 293.452763 183.16554 
L 295.40264 183.377858 
L 295.72762 183.376264 
L 296.0526 183.081565 
L 296.377579 183.212351 
L 297.352518 183.314237 
L 297.677497 183.354117 
L 298.002477 183.238185 
L 298.652436 183.349117 
L 298.977415 183.292557 
L 299.627374 183.391833 
L 299.952354 183.325752 
L 301.252272 183.491757 
L 304.502067 183.657604 
L 304.827047 183.468804 
L 305.477006 183.595807 
L 305.801985 183.632996 
L 306.126965 179.688475 
L 306.451944 180.664906 
L 307.101903 180.723337 
L 308.076842 180.803617 
L 310.026719 181.018158 
L 311.001658 181.107881 
L 312.626555 181.334562 
L 313.276514 181.374034 
L 318.151207 181.849147 
L 319.126146 181.955422 
L 319.776105 182.03864 
L 320.101084 181.659971 
L 324.325818 182.027541 
L 324.650798 181.768432 
L 325.950716 181.884815 
L 326.275695 181.792173 
L 326.600675 181.84249 
L 326.925654 181.438043 
L 327.250634 181.584889 
L 328.875532 181.699345 
L 331.475368 181.923831 
L 334.400183 182.206718 
L 334.725163 182.014085 
L 335.375122 182.137408 
L 336.025081 182.132302 
L 336.67504 182.08458 
L 337.649979 182.131512 
L 338.624917 182.19424 
L 339.274876 182.212831 
L 340.249815 182.286988 
L 340.899774 182.206409 
L 342.524672 182.354029 
L 343.174631 182.33886 
L 345.774467 182.464662 
L 351.624098 182.761475 
L 353.573975 182.844174 
L 353.898955 182.551274 
L 355.523853 182.702314 
L 356.823771 182.78811 
L 357.14875 182.629796 
L 358.448668 182.766351 
L 361.048505 182.861231 
L 362.673402 182.95674 
L 362.998382 182.584613 
L 363.648341 182.722936 
L 372.747767 183.090782 
L 373.397726 183.065705 
L 376.647522 183.18338 
L 380.222296 183.347064 
L 381.197235 183.364083 
L 388.996744 183.539982 
L 389.321723 183.257923 
L 389.646703 183.298693 
L 390.296662 183.248528 
L 390.946621 183.225204 
L 391.2716 182.879275 
L 391.59658 182.992356 
L 391.921559 182.862734 
L 392.246539 182.912621 
L 392.571518 181.720656 
L 392.896498 182.009522 
L 396.471273 182.099195 
L 396.471273 182.099195 
" clip-path="url(#p91caadc16b)" style="fill: none; stroke: #8c564b; stroke-width: 2; stroke-linecap: square"/>
    <defs>
     <path id="m0b7844c88d" d="M -0 4.242641 
L 2.545584 0 
L 0 -4.242641 
L -2.545584 -0 
z
" style="stroke: #8c564b; stroke-linejoin: miter"/>
    </defs>
    <g clip-path="url(#p91caadc16b)">
     <use xlink:href="#m0b7844c88d" x="71.816727" y="314.968" style="fill: #8c564b; stroke: #8c564b; stroke-linejoin: miter"/>
     <use xlink:href="#m0b7844c88d" x="136.812632" y="196.128493" style="fill: #8c564b; stroke: #8c564b; stroke-linejoin: miter"/>
     <use xlink:href="#m0b7844c88d" x="201.808537" y="195.345312" style="fill: #8c564b; stroke: #8c564b; stroke-linejoin: miter"/>
     <use xlink:href="#m0b7844c88d" x="266.804442" y="180.636439" style="fill: #8c564b; stroke: #8c564b; stroke-linejoin: miter"/>
     <use xlink:href="#m0b7844c88d" x="331.800347" y="181.953963" style="fill: #8c564b; stroke: #8c564b; stroke-linejoin: miter"/>
    </g>
   </g>
   <g id="line2d_37">
    <path d="M 71.816727 314.968 
L 73.116645 314.968 
L 73.441625 289.347156 
L 73.766604 290.81406 
L 74.091584 290.805618 
L 74.741543 290.222818 
L 75.066523 290.621415 
L 75.391502 290.516908 
L 75.716482 290.274376 
L 76.041461 290.332318 
L 76.366441 289.805998 
L 76.69142 289.890904 
L 77.0164 289.58675 
L 77.341379 289.586998 
L 77.991338 290.184008 
L 78.316318 290.038979 
L 78.966277 290.060182 
L 79.291256 289.157724 
L 79.616236 289.471349 
L 79.941215 288.50921 
L 80.266195 288.893787 
L 80.591174 281.281503 
L 80.916154 282.493349 
L 81.241133 279.674592 
L 81.891093 282.237864 
L 82.216072 283.279315 
L 83.51599 285.729307 
L 84.490929 287.027571 
L 85.140888 287.483591 
L 86.440806 288.71526 
L 86.765785 288.935335 
L 87.415744 289.197045 
L 88.065704 289.512453 
L 88.390683 288.843994 
L 90.015581 289.626873 
L 90.990519 289.859806 
L 91.315499 290.031699 
L 91.640478 289.783557 
L 91.965458 289.775814 
L 92.615417 290.02074 
L 93.590355 290.352175 
L 93.915335 290.212215 
L 94.565294 290.299732 
L 94.890274 290.018338 
L 95.865212 290.088949 
L 97.49011 290.53402 
L 98.140069 290.555878 
L 98.790028 290.69195 
L 99.439987 290.648724 
L 100.414925 290.834803 
L 100.739905 290.582847 
L 101.389864 290.701436 
L 101.714844 290.552342 
L 104.31468 291.035062 
L 106.589536 291.199706 
L 107.889455 291.331553 
L 108.539414 291.299726 
L 111.789209 291.443798 
L 112.114188 291.252027 
L 117.313861 291.352211 
L 119.913697 291.273659 
L 120.888636 291.337616 
L 121.213615 291.24149 
L 121.538595 291.264557 
L 121.863574 291.072263 
L 122.188554 290.581094 
L 123.813451 290.674972 
L 124.138431 290.320671 
L 125.438349 290.434231 
L 127.063247 290.609934 
L 130.963001 290.832242 
L 132.587898 290.733592 
L 132.912878 290.554012 
L 135.837694 290.510284 
L 140.387407 290.669207 
L 140.712387 289.327029 
L 141.362346 289.334403 
L 144.93712 289.838336 
L 145.912059 289.725554 
L 148.186916 289.817779 
L 148.511895 289.689185 
L 148.836875 289.712622 
L 149.161854 289.550855 
L 151.436711 289.745522 
L 151.76169 289.418482 
L 152.736629 289.45872 
L 154.036547 289.534164 
L 154.686506 289.553996 
L 155.011486 278.491683 
L 155.336465 278.024888 
L 157.936301 279.887861 
L 158.261281 279.959287 
L 160.211158 281.071831 
L 162.486015 282.043159 
L 164.760871 282.814488 
L 166.385769 283.212819 
L 167.685687 283.487282 
L 168.335646 283.589412 
L 168.660626 283.453486 
L 175.160216 284.44992 
L 177.110093 284.6885 
L 178.085032 284.673126 
L 178.734991 284.712108 
L 179.38495 284.674376 
L 181.334827 284.800193 
L 185.559561 285.081746 
L 185.884541 284.356102 
L 188.484377 284.36641 
L 192.709111 284.735519 
L 193.684049 284.815189 
L 194.009029 284.718139 
L 201.483558 285.16835 
L 202.783476 285.188742 
L 205.708292 285.364406 
L 206.033271 285.201369 
L 210.582984 285.283075 
L 214.157759 285.418627 
L 214.482739 284.670484 
L 215.457677 284.723341 
L 220.65735 285.093438 
L 223.257186 285.219421 
L 223.582165 284.948763 
L 225.532043 285.071721 
L 233.006572 285.42136 
L 233.331551 284.921649 
L 235.281428 284.938664 
L 240.80608 285.230685 
L 241.456039 285.153595 
L 242.755957 285.218963 
L 243.405916 285.072233 
L 244.705835 285.096314 
L 245.355794 285.013917 
L 256.730077 285.356334 
L 287.603132 285.734563 
L 287.928111 285.485101 
L 288.90305 285.496849 
L 289.228029 285.228175 
L 290.852927 285.268815 
L 296.702559 285.4673 
L 298.652436 285.443696 
L 301.252272 285.510209 
L 301.577251 285.323398 
L 315.226391 285.586003 
L 320.101084 285.662431 
L 321.076023 285.630265 
L 325.300757 285.649432 
L 328.225572 285.668283 
L 328.875532 285.57142 
L 335.050143 285.682901 
L 335.700102 285.63274 
L 342.849651 285.63689 
L 382.497153 285.819366 
L 383.797071 285.788059 
L 388.021805 285.846808 
L 388.346785 285.439767 
L 391.921559 285.371543 
L 396.471273 285.493789 
L 396.471273 285.493789 
" clip-path="url(#p91caadc16b)" style="fill: none; stroke: #e377c2; stroke-width: 2; stroke-linecap: square"/>
    <defs>
     <path id="m6f9ca70f6a" d="M 0 0 
L 0 3 
M 0 0 
L 2.4 -1.5 
M 0 0 
L -2.4 -1.5 
" style="stroke: #e377c2"/>
    </defs>
    <g clip-path="url(#p91caadc16b)">
     <use xlink:href="#m6f9ca70f6a" x="71.816727" y="314.968" style="fill: #e377c2; stroke: #e377c2"/>
     <use xlink:href="#m6f9ca70f6a" x="136.812632" y="290.541484" style="fill: #e377c2; stroke: #e377c2"/>
     <use xlink:href="#m6f9ca70f6a" x="201.808537" y="285.152649" style="fill: #e377c2; stroke: #e377c2"/>
     <use xlink:href="#m6f9ca70f6a" x="266.804442" y="285.415161" style="fill: #e377c2; stroke: #e377c2"/>
     <use xlink:href="#m6f9ca70f6a" x="331.800347" y="285.61875" style="fill: #e377c2; stroke: #e377c2"/>
    </g>
   </g>
   <g id="patch_3">
    <path d="M 55.584 327.064 
L 55.584 60.952 
" style="fill: none; stroke: #000000; stroke-width: 0.8; stroke-linejoin: miter; stroke-linecap: square"/>
   </g>
   <g id="patch_4">
    <path d="M 412.704 327.064 
L 412.704 60.952 
" style="fill: none; stroke: #000000; stroke-width: 0.8; stroke-linejoin: miter; stroke-linecap: square"/>
   </g>
   <g id="patch_5">
    <path d="M 55.584 327.064 
L 412.704 327.064 
" style="fill: none; stroke: #000000; stroke-width: 0.8; stroke-linejoin: miter; stroke-linecap: square"/>
   </g>
   <g id="patch_6">
    <path d="M 55.584 60.952 
L 412.704 60.952 
" style="fill: none; stroke: #000000; stroke-width: 0.8; stroke-linejoin: miter; stroke-linecap: square"/>
   </g>
   <g id="legend_1">
    <g id="patch_7">
     <path d="M 44.554313 54.278125 
L 412.213687 54.278125 
Q 414.213687 54.278125 414.213687 52.278125 
L 414.213687 9.2 
Q 414.213687 7.2 412.213687 7.2 
L 44.554313 7.2 
Q 42.554313 7.2 42.554313 9.2 
L 42.554313 52.278125 
Q 42.554313 54.278125 44.554313 54.278125 
z
" style="fill: #ffffff; opacity: 0.8; stroke: #cccccc; stroke-linejoin: miter"/>
    </g>
    <g id="line2d_38">
     <path d="M 46.554313 15.298437 
L 56.554313 15.298437 
L 66.554313 15.298437 
" style="fill: none; stroke: #1f77b4; stroke-width: 2; stroke-linecap: square"/>
     <g>
      <use xlink:href="#m25ae70603e" x="56.554313" y="15.298437" style="fill: #1f77b4; stroke: #1f77b4"/>
     </g>
    </g>
    <g id="text_16">
     <!-- $\kappa$ = 0.02 -->
     <g transform="translate(74.554313 18.798437) scale(0.1 -0.1)">
      <defs>
       <path id="DejaVuSans-Oblique-3ba" d="M 938 3500 
L 1531 3500 
L 1247 2047 
L 3041 3500 
L 3741 3500 
L 2106 2181 
L 3275 0 
L 2572 0 
L 1628 1806 
L 1122 1403 
L 850 0 
L 256 0 
L 938 3500 
z
" transform="scale(0.015625)"/>
       <path id="DejaVuSans-20" transform="scale(0.015625)"/>
       <path id="DejaVuSans-3d" d="M 678 2906 
L 4684 2906 
L 4684 2381 
L 678 2381 
L 678 2906 
z
M 678 1631 
L 4684 1631 
L 4684 1100 
L 678 1100 
L 678 1631 
z
" transform="scale(0.015625)"/>
       <path id="DejaVuSans-2e" d="M 684 794 
L 1344 794 
L 1344 0 
L 684 0 
L 684 794 
z
" transform="scale(0.015625)"/>
      </defs>
      <use xlink:href="#DejaVuSans-Oblique-3ba" transform="translate(0 0.78125)"/>
      <use xlink:href="#DejaVuSans-20" transform="translate(58.935547 0.78125)"/>
      <use xlink:href="#DejaVuSans-3d" transform="translate(90.722656 0.78125)"/>
      <use xlink:href="#DejaVuSans-20" transform="translate(174.511719 0.78125)"/>
      <use xlink:href="#DejaVuSans-30" transform="translate(206.298828 0.78125)"/>
      <use xlink:href="#DejaVuSans-2e" transform="translate(269.921875 0.78125)"/>
      <use xlink:href="#DejaVuSans-30" transform="translate(301.708984 0.78125)"/>
      <use xlink:href="#DejaVuSans-32" transform="translate(365.332031 0.78125)"/>
     </g>
    </g>
    <g id="line2d_39">
     <path d="M 46.554313 29.978125 
L 56.554313 29.978125 
L 66.554313 29.978125 
" style="fill: none; stroke: #ff7f0e; stroke-width: 2; stroke-linecap: square"/>
     <g>
      <use xlink:href="#m7eb0584712" x="56.554313" y="29.978125" style="fill: #ff7f0e; stroke: #ff7f0e; stroke-linejoin: miter"/>
     </g>
    </g>
    <g id="text_17">
     <!-- Constant-edge ($\alpha$ = 0.400) -->
     <g transform="translate(74.554313 33.478125) scale(0.1 -0.1)">
      <defs>
       <path id="DejaVuSans-43" d="M 4122 4306 
L 4122 3641 
Q 3803 3938 3442 4084 
Q 3081 4231 2675 4231 
Q 1875 4231 1450 3742 
Q 1025 3253 1025 2328 
Q 1025 1406 1450 917 
Q 1875 428 2675 428 
Q 3081 428 3442 575 
Q 3803 722 4122 1019 
L 4122 359 
Q 3791 134 3420 21 
Q 3050 -91 2638 -91 
Q 1578 -91 968 557 
Q 359 1206 359 2328 
Q 359 3453 968 4101 
Q 1578 4750 2638 4750 
Q 3056 4750 3426 4639 
Q 3797 4528 4122 4306 
z
" transform="scale(0.015625)"/>
       <path id="DejaVuSans-6f" d="M 1959 3097 
Q 1497 3097 1228 2736 
Q 959 2375 959 1747 
Q 959 1119 1226 758 
Q 1494 397 1959 397 
Q 2419 397 2687 759 
Q 2956 1122 2956 1747 
Q 2956 2369 2687 2733 
Q 2419 3097 1959 3097 
z
M 1959 3584 
Q 2709 3584 3137 3096 
Q 3566 2609 3566 1747 
Q 3566 888 3137 398 
Q 2709 -91 1959 -91 
Q 1206 -91 779 398 
Q 353 888 353 1747 
Q 353 2609 779 3096 
Q 1206 3584 1959 3584 
z
" transform="scale(0.015625)"/>
       <path id="DejaVuSans-6e" d="M 3513 2113 
L 3513 0 
L 2938 0 
L 2938 2094 
Q 2938 2591 2744 2837 
Q 2550 3084 2163 3084 
Q 1697 3084 1428 2787 
Q 1159 2491 1159 1978 
L 1159 0 
L 581 0 
L 581 3500 
L 1159 3500 
L 1159 2956 
Q 1366 3272 1645 3428 
Q 1925 3584 2291 3584 
Q 2894 3584 3203 3211 
Q 3513 2838 3513 2113 
z
" transform="scale(0.015625)"/>
       <path id="DejaVuSans-73" d="M 2834 3397 
L 2834 2853 
Q 2591 2978 2328 3040 
Q 2066 3103 1784 3103 
Q 1356 3103 1142 2972 
Q 928 2841 928 2578 
Q 928 2378 1081 2264 
Q 1234 2150 1697 2047 
L 1894 2003 
Q 2506 1872 2764 1633 
Q 3022 1394 3022 966 
Q 3022 478 2636 193 
Q 2250 -91 1575 -91 
Q 1294 -91 989 -36 
Q 684 19 347 128 
L 347 722 
Q 666 556 975 473 
Q 1284 391 1588 391 
Q 1994 391 2212 530 
Q 2431 669 2431 922 
Q 2431 1156 2273 1281 
Q 2116 1406 1581 1522 
L 1381 1569 
Q 847 1681 609 1914 
Q 372 2147 372 2553 
Q 372 3047 722 3315 
Q 1072 3584 1716 3584 
Q 2034 3584 2315 3537 
Q 2597 3491 2834 3397 
z
" transform="scale(0.015625)"/>
       <path id="DejaVuSans-74" d="M 1172 4494 
L 1172 3500 
L 2356 3500 
L 2356 3053 
L 1172 3053 
L 1172 1153 
Q 1172 725 1289 603 
Q 1406 481 1766 481 
L 2356 481 
L 2356 0 
L 1766 0 
Q 1100 0 847 248 
Q 594 497 594 1153 
L 594 3053 
L 172 3053 
L 172 3500 
L 594 3500 
L 594 4494 
L 1172 4494 
z
" transform="scale(0.015625)"/>
       <path id="DejaVuSans-61" d="M 2194 1759 
Q 1497 1759 1228 1600 
Q 959 1441 959 1056 
Q 959 750 1161 570 
Q 1363 391 1709 391 
Q 2188 391 2477 730 
Q 2766 1069 2766 1631 
L 2766 1759 
L 2194 1759 
z
M 3341 1997 
L 3341 0 
L 2766 0 
L 2766 531 
Q 2569 213 2275 61 
Q 1981 -91 1556 -91 
Q 1019 -91 701 211 
Q 384 513 384 1019 
Q 384 1609 779 1909 
Q 1175 2209 1959 2209 
L 2766 2209 
L 2766 2266 
Q 2766 2663 2505 2880 
Q 2244 3097 1772 3097 
Q 1472 3097 1187 3025 
Q 903 2953 641 2809 
L 641 3341 
Q 956 3463 1253 3523 
Q 1550 3584 1831 3584 
Q 2591 3584 2966 3190 
Q 3341 2797 3341 1997 
z
" transform="scale(0.015625)"/>
       <path id="DejaVuSans-2d" d="M 313 2009 
L 1997 2009 
L 1997 1497 
L 313 1497 
L 313 2009 
z
" transform="scale(0.015625)"/>
       <path id="DejaVuSans-65" d="M 3597 1894 
L 3597 1613 
L 953 1613 
Q 991 1019 1311 708 
Q 1631 397 2203 397 
Q 2534 397 2845 478 
Q 3156 559 3463 722 
L 3463 178 
Q 3153 47 2828 -22 
Q 2503 -91 2169 -91 
Q 1331 -91 842 396 
Q 353 884 353 1716 
Q 353 2575 817 3079 
Q 1281 3584 2069 3584 
Q 2775 3584 3186 3129 
Q 3597 2675 3597 1894 
z
M 3022 2063 
Q 3016 2534 2758 2815 
Q 2500 3097 2075 3097 
Q 1594 3097 1305 2825 
Q 1016 2553 972 2059 
L 3022 2063 
z
" transform="scale(0.015625)"/>
       <path id="DejaVuSans-64" d="M 2906 2969 
L 2906 4863 
L 3481 4863 
L 3481 0 
L 2906 0 
L 2906 525 
Q 2725 213 2448 61 
Q 2172 -91 1784 -91 
Q 1150 -91 751 415 
Q 353 922 353 1747 
Q 353 2572 751 3078 
Q 1150 3584 1784 3584 
Q 2172 3584 2448 3432 
Q 2725 3281 2906 2969 
z
M 947 1747 
Q 947 1113 1208 752 
Q 1469 391 1925 391 
Q 2381 391 2643 752 
Q 2906 1113 2906 1747 
Q 2906 2381 2643 2742 
Q 2381 3103 1925 3103 
Q 1469 3103 1208 2742 
Q 947 2381 947 1747 
z
" transform="scale(0.015625)"/>
       <path id="DejaVuSans-67" d="M 2906 1791 
Q 2906 2416 2648 2759 
Q 2391 3103 1925 3103 
Q 1463 3103 1205 2759 
Q 947 2416 947 1791 
Q 947 1169 1205 825 
Q 1463 481 1925 481 
Q 2391 481 2648 825 
Q 2906 1169 2906 1791 
z
M 3481 434 
Q 3481 -459 3084 -895 
Q 2688 -1331 1869 -1331 
Q 1566 -1331 1297 -1286 
Q 1028 -1241 775 -1147 
L 775 -588 
Q 1028 -725 1275 -790 
Q 1522 -856 1778 -856 
Q 2344 -856 2625 -561 
Q 2906 -266 2906 331 
L 2906 616 
Q 2728 306 2450 153 
Q 2172 0 1784 0 
Q 1141 0 747 490 
Q 353 981 353 1791 
Q 353 2603 747 3093 
Q 1141 3584 1784 3584 
Q 2172 3584 2450 3431 
Q 2728 3278 2906 2969 
L 2906 3500 
L 3481 3500 
L 3481 434 
z
" transform="scale(0.015625)"/>
       <path id="DejaVuSans-28" d="M 1984 4856 
Q 1566 4138 1362 3434 
Q 1159 2731 1159 2009 
Q 1159 1288 1364 580 
Q 1569 -128 1984 -844 
L 1484 -844 
Q 1016 -109 783 600 
Q 550 1309 550 2009 
Q 550 2706 781 3412 
Q 1013 4119 1484 4856 
L 1984 4856 
z
" transform="scale(0.015625)"/>
       <path id="DejaVuSans-Oblique-3b1" d="M 2619 1628 
L 2622 2350 
Q 2625 3088 2069 3091 
Q 1653 3094 1394 2747 
Q 1069 2319 959 1747 
Q 825 1059 994 731 
Q 1169 397 1547 397 
Q 1966 397 2319 1063 
L 2619 1628 
z
M 2166 3578 
Q 3141 3594 3128 2584 
Q 3128 2584 3616 3500 
L 4128 3500 
L 3119 1603 
L 3109 919 
Q 3109 766 3194 638 
Q 3291 488 3391 488 
L 3669 488 
L 3575 0 
L 3228 0 
Q 2934 0 2722 263 
Q 2622 394 2619 669 
Q 2416 334 2066 50 
Q 1900 -81 1453 -78 
Q 722 -72 456 397 
Q 184 884 353 1747 
Q 534 2675 1009 3097 
Q 1544 3569 2166 3578 
z
" transform="scale(0.015625)"/>
       <path id="DejaVuSans-29" d="M 513 4856 
L 1013 4856 
Q 1481 4119 1714 3412 
Q 1947 2706 1947 2009 
Q 1947 1309 1714 600 
Q 1481 -109 1013 -844 
L 513 -844 
Q 928 -128 1133 580 
Q 1338 1288 1338 2009 
Q 1338 2731 1133 3434 
Q 928 4138 513 4856 
z
" transform="scale(0.015625)"/>
      </defs>
      <use xlink:href="#DejaVuSans-43" transform="translate(0 0.015625)"/>
      <use xlink:href="#DejaVuSans-6f" transform="translate(69.824219 0.015625)"/>
      <use xlink:href="#DejaVuSans-6e" transform="translate(131.005859 0.015625)"/>
      <use xlink:href="#DejaVuSans-73" transform="translate(194.384766 0.015625)"/>
      <use xlink:href="#DejaVuSans-74" transform="translate(246.484375 0.015625)"/>
      <use xlink:href="#DejaVuSans-61" transform="translate(285.693359 0.015625)"/>
      <use xlink:href="#DejaVuSans-6e" transform="translate(346.972656 0.015625)"/>
      <use xlink:href="#DejaVuSans-74" transform="translate(410.351562 0.015625)"/>
      <use xlink:href="#DejaVuSans-2d" transform="translate(449.560547 0.015625)"/>
      <use xlink:href="#DejaVuSans-65" transform="translate(485.644531 0.015625)"/>
      <use xlink:href="#DejaVuSans-64" transform="translate(547.167969 0.015625)"/>
      <use xlink:href="#DejaVuSans-67" transform="translate(610.644531 0.015625)"/>
      <use xlink:href="#DejaVuSans-65" transform="translate(674.121094 0.015625)"/>
      <use xlink:href="#DejaVuSans-20" transform="translate(735.644531 0.015625)"/>
      <use xlink:href="#DejaVuSans-28" transform="translate(767.431641 0.015625)"/>
      <use xlink:href="#DejaVuSans-Oblique-3b1" transform="translate(806.445312 0.015625)"/>
      <use xlink:href="#DejaVuSans-20" transform="translate(872.363281 0.015625)"/>
      <use xlink:href="#DejaVuSans-3d" transform="translate(904.150391 0.015625)"/>
      <use xlink:href="#DejaVuSans-20" transform="translate(987.939453 0.015625)"/>
      <use xlink:href="#DejaVuSans-30" transform="translate(1019.726562 0.015625)"/>
      <use xlink:href="#DejaVuSans-2e" transform="translate(1083.349609 0.015625)"/>
      <use xlink:href="#DejaVuSans-34" transform="translate(1115.136719 0.015625)"/>
      <use xlink:href="#DejaVuSans-30" transform="translate(1178.759766 0.015625)"/>
      <use xlink:href="#DejaVuSans-30" transform="translate(1242.382812 0.015625)"/>
      <use xlink:href="#DejaVuSans-29" transform="translate(1306.005859 0.015625)"/>
     </g>
    </g>
    <g id="line2d_40">
     <path d="M 46.554313 44.678125 
L 56.554313 44.678125 
L 66.554313 44.678125 
" style="fill: none; stroke: #2ca02c; stroke-width: 2; stroke-linecap: square"/>
     <g>
      <use xlink:href="#m46c3144a0e" x="56.554313" y="44.678125" style="fill: #2ca02c; stroke: #2ca02c; stroke-linejoin: miter"/>
     </g>
    </g>
    <g id="text_18">
     <!-- Maximum-degree ($\alpha$ = 0.333) -->
     <g transform="translate(74.554313 48.178125) scale(0.1 -0.1)">
      <defs>
       <path id="DejaVuSans-4d" d="M 628 4666 
L 1569 4666 
L 2759 1491 
L 3956 4666 
L 4897 4666 
L 4897 0 
L 4281 0 
L 4281 4097 
L 3078 897 
L 2444 897 
L 1241 4097 
L 1241 0 
L 628 0 
L 628 4666 
z
" transform="scale(0.015625)"/>
       <path id="DejaVuSans-78" d="M 3513 3500 
L 2247 1797 
L 3578 0 
L 2900 0 
L 1881 1375 
L 863 0 
L 184 0 
L 1544 1831 
L 300 3500 
L 978 3500 
L 1906 2253 
L 2834 3500 
L 3513 3500 
z
" transform="scale(0.015625)"/>
       <path id="DejaVuSans-69" d="M 603 3500 
L 1178 3500 
L 1178 0 
L 603 0 
L 603 3500 
z
M 603 4863 
L 1178 4863 
L 1178 4134 
L 603 4134 
L 603 4863 
z
" transform="scale(0.015625)"/>
       <path id="DejaVuSans-6d" d="M 3328 2828 
Q 3544 3216 3844 3400 
Q 4144 3584 4550 3584 
Q 5097 3584 5394 3201 
Q 5691 2819 5691 2113 
L 5691 0 
L 5113 0 
L 5113 2094 
Q 5113 2597 4934 2840 
Q 4756 3084 4391 3084 
Q 3944 3084 3684 2787 
Q 3425 2491 3425 1978 
L 3425 0 
L 2847 0 
L 2847 2094 
Q 2847 2600 2669 2842 
Q 2491 3084 2119 3084 
Q 1678 3084 1418 2786 
Q 1159 2488 1159 1978 
L 1159 0 
L 581 0 
L 581 3500 
L 1159 3500 
L 1159 2956 
Q 1356 3278 1631 3431 
Q 1906 3584 2284 3584 
Q 2666 3584 2933 3390 
Q 3200 3197 3328 2828 
z
" transform="scale(0.015625)"/>
       <path id="DejaVuSans-75" d="M 544 1381 
L 544 3500 
L 1119 3500 
L 1119 1403 
Q 1119 906 1312 657 
Q 1506 409 1894 409 
Q 2359 409 2629 706 
Q 2900 1003 2900 1516 
L 2900 3500 
L 3475 3500 
L 3475 0 
L 2900 0 
L 2900 538 
Q 2691 219 2414 64 
Q 2138 -91 1772 -91 
Q 1169 -91 856 284 
Q 544 659 544 1381 
z
M 1991 3584 
L 1991 3584 
z
" transform="scale(0.015625)"/>
       <path id="DejaVuSans-72" d="M 2631 2963 
Q 2534 3019 2420 3045 
Q 2306 3072 2169 3072 
Q 1681 3072 1420 2755 
Q 1159 2438 1159 1844 
L 1159 0 
L 581 0 
L 581 3500 
L 1159 3500 
L 1159 2956 
Q 1341 3275 1631 3429 
Q 1922 3584 2338 3584 
Q 2397 3584 2469 3576 
Q 2541 3569 2628 3553 
L 2631 2963 
z
" transform="scale(0.015625)"/>
       <path id="DejaVuSans-33" d="M 2597 2516 
Q 3050 2419 3304 2112 
Q 3559 1806 3559 1356 
Q 3559 666 3084 287 
Q 2609 -91 1734 -91 
Q 1441 -91 1130 -33 
Q 819 25 488 141 
L 488 750 
Q 750 597 1062 519 
Q 1375 441 1716 441 
Q 2309 441 2620 675 
Q 2931 909 2931 1356 
Q 2931 1769 2642 2001 
Q 2353 2234 1838 2234 
L 1294 2234 
L 1294 2753 
L 1863 2753 
Q 2328 2753 2575 2939 
Q 2822 3125 2822 3475 
Q 2822 3834 2567 4026 
Q 2313 4219 1838 4219 
Q 1578 4219 1281 4162 
Q 984 4106 628 3988 
L 628 4550 
Q 988 4650 1302 4700 
Q 1616 4750 1894 4750 
Q 2613 4750 3031 4423 
Q 3450 4097 3450 3541 
Q 3450 3153 3228 2886 
Q 3006 2619 2597 2516 
z
" transform="scale(0.015625)"/>
      </defs>
      <use xlink:href="#DejaVuSans-4d" transform="translate(0 0.015625)"/>
      <use xlink:href="#DejaVuSans-61" transform="translate(86.279297 0.015625)"/>
      <use xlink:href="#DejaVuSans-78" transform="translate(147.558594 0.015625)"/>
      <use xlink:href="#DejaVuSans-69" transform="translate(206.738281 0.015625)"/>
      <use xlink:href="#DejaVuSans-6d" transform="translate(234.521484 0.015625)"/>
      <use xlink:href="#DejaVuSans-75" transform="translate(331.933594 0.015625)"/>
      <use xlink:href="#DejaVuSans-6d" transform="translate(395.3125 0.015625)"/>
      <use xlink:href="#DejaVuSans-2d" transform="translate(490.974609 0.015625)"/>
      <use xlink:href="#DejaVuSans-64" transform="translate(527.058594 0.015625)"/>
      <use xlink:href="#DejaVuSans-65" transform="translate(590.535156 0.015625)"/>
      <use xlink:href="#DejaVuSans-67" transform="translate(652.058594 0.015625)"/>
      <use xlink:href="#DejaVuSans-72" transform="translate(715.535156 0.015625)"/>
      <use xlink:href="#DejaVuSans-65" transform="translate(756.648438 0.015625)"/>
      <use xlink:href="#DejaVuSans-65" transform="translate(818.171875 0.015625)"/>
      <use xlink:href="#DejaVuSans-20" transform="translate(879.695312 0.015625)"/>
      <use xlink:href="#DejaVuSans-28" transform="translate(911.482422 0.015625)"/>
      <use xlink:href="#DejaVuSans-Oblique-3b1" transform="translate(950.496094 0.015625)"/>
      <use xlink:href="#DejaVuSans-20" transform="translate(1016.414062 0.015625)"/>
      <use xlink:href="#DejaVuSans-3d" transform="translate(1048.201172 0.015625)"/>
      <use xlink:href="#DejaVuSans-20" transform="translate(1131.990234 0.015625)"/>
      <use xlink:href="#DejaVuSans-30" transform="translate(1163.777344 0.015625)"/>
      <use xlink:href="#DejaVuSans-2e" transform="translate(1227.400391 0.015625)"/>
      <use xlink:href="#DejaVuSans-33" transform="translate(1259.1875 0.015625)"/>
      <use xlink:href="#DejaVuSans-33" transform="translate(1322.810547 0.015625)"/>
      <use xlink:href="#DejaVuSans-33" transform="translate(1386.433594 0.015625)"/>
      <use xlink:href="#DejaVuSans-29" transform="translate(1450.056641 0.015625)"/>
     </g>
    </g>
    <g id="line2d_41">
     <path d="M 243.554313 15.298437 
L 253.554313 15.298437 
L 263.554313 15.298437 
" style="fill: none; stroke: #d62728; stroke-width: 2; stroke-linecap: square"/>
     <g>
      <use xlink:href="#m5d87b6ef70" x="253.554313" y="15.298437" style="fill: #d62728; stroke: #d62728"/>
     </g>
    </g>
    <g id="text_19">
     <!-- Local-degree -->
     <g transform="translate(271.554313 18.798437) scale(0.1 -0.1)">
      <defs>
       <path id="DejaVuSans-4c" d="M 628 4666 
L 1259 4666 
L 1259 531 
L 3531 531 
L 3531 0 
L 628 0 
L 628 4666 
z
" transform="scale(0.015625)"/>
       <path id="DejaVuSans-63" d="M 3122 3366 
L 3122 2828 
Q 2878 2963 2633 3030 
Q 2388 3097 2138 3097 
Q 1578 3097 1268 2742 
Q 959 2388 959 1747 
Q 959 1106 1268 751 
Q 1578 397 2138 397 
Q 2388 397 2633 464 
Q 2878 531 3122 666 
L 3122 134 
Q 2881 22 2623 -34 
Q 2366 -91 2075 -91 
Q 1284 -91 818 406 
Q 353 903 353 1747 
Q 353 2603 823 3093 
Q 1294 3584 2113 3584 
Q 2378 3584 2631 3529 
Q 2884 3475 3122 3366 
z
" transform="scale(0.015625)"/>
       <path id="DejaVuSans-6c" d="M 603 4863 
L 1178 4863 
L 1178 0 
L 603 0 
L 603 4863 
z
" transform="scale(0.015625)"/>
      </defs>
      <use xlink:href="#DejaVuSans-4c"/>
      <use xlink:href="#DejaVuSans-6f" x="53.962891"/>
      <use xlink:href="#DejaVuSans-63" x="115.144531"/>
      <use xlink:href="#DejaVuSans-61" x="170.125"/>
      <use xlink:href="#DejaVuSans-6c" x="231.404297"/>
      <use xlink:href="#DejaVuSans-2d" x="259.1875"/>
      <use xlink:href="#DejaVuSans-64" x="295.271484"/>
      <use xlink:href="#DejaVuSans-65" x="358.748047"/>
      <use xlink:href="#DejaVuSans-67" x="420.271484"/>
      <use xlink:href="#DejaVuSans-72" x="483.748047"/>
      <use xlink:href="#DejaVuSans-65" x="522.611328"/>
      <use xlink:href="#DejaVuSans-65" x="584.134766"/>
     </g>
    </g>
    <g id="line2d_42">
     <path d="M 243.554313 29.976562 
L 253.554313 29.976562 
L 263.554313 29.976562 
" style="fill: none; stroke: #9467bd; stroke-width: 2; stroke-linecap: square"/>
     <g>
      <use xlink:href="#md6a5c53de2" x="253.554313" y="29.976562" style="fill: #9467bd; stroke: #9467bd; stroke-linejoin: miter"/>
     </g>
    </g>
    <g id="text_20">
     <!-- FMMC -->
     <g transform="translate(271.554313 33.476562) scale(0.1 -0.1)">
      <defs>
       <path id="DejaVuSans-46" d="M 628 4666 
L 3309 4666 
L 3309 4134 
L 1259 4134 
L 1259 2759 
L 3109 2759 
L 3109 2228 
L 1259 2228 
L 1259 0 
L 628 0 
L 628 4666 
z
" transform="scale(0.015625)"/>
      </defs>
      <use xlink:href="#DejaVuSans-46"/>
      <use xlink:href="#DejaVuSans-4d" x="57.519531"/>
      <use xlink:href="#DejaVuSans-4d" x="143.798828"/>
      <use xlink:href="#DejaVuSans-43" x="230.078125"/>
     </g>
    </g>
    <g id="line2d_43">
     <path d="M 356.124625 15.298437 
L 366.124625 15.298437 
L 376.124625 15.298437 
" style="fill: none; stroke: #8c564b; stroke-width: 2; stroke-linecap: square"/>
     <g>
      <use xlink:href="#m0b7844c88d" x="366.124625" y="15.298437" style="fill: #8c564b; stroke: #8c564b; stroke-linejoin: miter"/>
     </g>
    </g>
    <g id="text_21">
     <!-- FDLA -->
     <g transform="translate(384.124625 18.798437) scale(0.1 -0.1)">
      <defs>
       <path id="DejaVuSans-44" d="M 1259 4147 
L 1259 519 
L 2022 519 
Q 2988 519 3436 956 
Q 3884 1394 3884 2338 
Q 3884 3275 3436 3711 
Q 2988 4147 2022 4147 
L 1259 4147 
z
M 628 4666 
L 1925 4666 
Q 3281 4666 3915 4102 
Q 4550 3538 4550 2338 
Q 4550 1131 3912 565 
Q 3275 0 1925 0 
L 628 0 
L 628 4666 
z
" transform="scale(0.015625)"/>
       <path id="DejaVuSans-41" d="M 2188 4044 
L 1331 1722 
L 3047 1722 
L 2188 4044 
z
M 1831 4666 
L 2547 4666 
L 4325 0 
L 3669 0 
L 3244 1197 
L 1141 1197 
L 716 0 
L 50 0 
L 1831 4666 
z
" transform="scale(0.015625)"/>
      </defs>
      <use xlink:href="#DejaVuSans-46"/>
      <use xlink:href="#DejaVuSans-44" x="57.519531"/>
      <use xlink:href="#DejaVuSans-4c" x="134.521484"/>
      <use xlink:href="#DejaVuSans-41" x="192.484375"/>
     </g>
    </g>
    <g id="line2d_44">
     <path d="M 356.124625 29.976562 
L 366.124625 29.976562 
L 376.124625 29.976562 
" style="fill: none; stroke: #e377c2; stroke-width: 2; stroke-linecap: square"/>
     <g>
      <use xlink:href="#m6f9ca70f6a" x="366.124625" y="29.976562" style="fill: #e377c2; stroke: #e377c2"/>
     </g>
    </g>
    <g id="text_22">
     <!-- OPT -->
     <g transform="translate(384.124625 33.476562) scale(0.1 -0.1)">
      <defs>
       <path id="DejaVuSans-4f" d="M 2522 4238 
Q 1834 4238 1429 3725 
Q 1025 3213 1025 2328 
Q 1025 1447 1429 934 
Q 1834 422 2522 422 
Q 3209 422 3611 934 
Q 4013 1447 4013 2328 
Q 4013 3213 3611 3725 
Q 3209 4238 2522 4238 
z
M 2522 4750 
Q 3503 4750 4090 4092 
Q 4678 3434 4678 2328 
Q 4678 1225 4090 567 
Q 3503 -91 2522 -91 
Q 1538 -91 948 565 
Q 359 1222 359 2328 
Q 359 3434 948 4092 
Q 1538 4750 2522 4750 
z
" transform="scale(0.015625)"/>
       <path id="DejaVuSans-50" d="M 1259 4147 
L 1259 2394 
L 2053 2394 
Q 2494 2394 2734 2622 
Q 2975 2850 2975 3272 
Q 2975 3691 2734 3919 
Q 2494 4147 2053 4147 
L 1259 4147 
z
M 628 4666 
L 2053 4666 
Q 2838 4666 3239 4311 
Q 3641 3956 3641 3272 
Q 3641 2581 3239 2228 
Q 2838 1875 2053 1875 
L 1259 1875 
L 1259 0 
L 628 0 
L 628 4666 
z
" transform="scale(0.015625)"/>
       <path id="DejaVuSans-54" d="M -19 4666 
L 3928 4666 
L 3928 4134 
L 2272 4134 
L 2272 0 
L 1638 0 
L 1638 4134 
L -19 4134 
L -19 4666 
z
" transform="scale(0.015625)"/>
      </defs>
      <use xlink:href="#DejaVuSans-4f"/>
      <use xlink:href="#DejaVuSans-50" x="78.710938"/>
      <use xlink:href="#DejaVuSans-54" x="139.013672"/>
     </g>
    </g>
   </g>
  </g>
  <g id="text_23">
   <!-- Timesteps -->
   <g transform="translate(197.599313 359.128375) scale(0.12 -0.12)">
    <defs>
     <path id="DejaVuSans-70" d="M 1159 525 
L 1159 -1331 
L 581 -1331 
L 581 3500 
L 1159 3500 
L 1159 2969 
Q 1341 3281 1617 3432 
Q 1894 3584 2278 3584 
Q 2916 3584 3314 3078 
Q 3713 2572 3713 1747 
Q 3713 922 3314 415 
Q 2916 -91 2278 -91 
Q 1894 -91 1617 61 
Q 1341 213 1159 525 
z
M 3116 1747 
Q 3116 2381 2855 2742 
Q 2594 3103 2138 3103 
Q 1681 3103 1420 2742 
Q 1159 2381 1159 1747 
Q 1159 1113 1420 752 
Q 1681 391 2138 391 
Q 2594 391 2855 752 
Q 3116 1113 3116 1747 
z
" transform="scale(0.015625)"/>
    </defs>
    <use xlink:href="#DejaVuSans-54"/>
    <use xlink:href="#DejaVuSans-69" x="57.958984"/>
    <use xlink:href="#DejaVuSans-6d" x="85.742188"/>
    <use xlink:href="#DejaVuSans-65" x="183.154297"/>
    <use xlink:href="#DejaVuSans-73" x="244.677734"/>
    <use xlink:href="#DejaVuSans-74" x="296.777344"/>
    <use xlink:href="#DejaVuSans-65" x="335.986328"/>
    <use xlink:href="#DejaVuSans-70" x="397.509766"/>
    <use xlink:href="#DejaVuSans-73" x="460.986328"/>
   </g>
  </g>
  <g id="text_24">
   <!-- Mean estimate error for the best arm -->
   <g transform="translate(16.318125 303.952187) rotate(-90) scale(0.12 -0.12)">
    <defs>
     <path id="DejaVuSans-66" d="M 2375 4863 
L 2375 4384 
L 1825 4384 
Q 1516 4384 1395 4259 
Q 1275 4134 1275 3809 
L 1275 3500 
L 2222 3500 
L 2222 3053 
L 1275 3053 
L 1275 0 
L 697 0 
L 697 3053 
L 147 3053 
L 147 3500 
L 697 3500 
L 697 3744 
Q 697 4328 969 4595 
Q 1241 4863 1831 4863 
L 2375 4863 
z
" transform="scale(0.015625)"/>
     <path id="DejaVuSans-68" d="M 3513 2113 
L 3513 0 
L 2938 0 
L 2938 2094 
Q 2938 2591 2744 2837 
Q 2550 3084 2163 3084 
Q 1697 3084 1428 2787 
Q 1159 2491 1159 1978 
L 1159 0 
L 581 0 
L 581 4863 
L 1159 4863 
L 1159 2956 
Q 1366 3272 1645 3428 
Q 1925 3584 2291 3584 
Q 2894 3584 3203 3211 
Q 3513 2838 3513 2113 
z
" transform="scale(0.015625)"/>
     <path id="DejaVuSans-62" d="M 3116 1747 
Q 3116 2381 2855 2742 
Q 2594 3103 2138 3103 
Q 1681 3103 1420 2742 
Q 1159 2381 1159 1747 
Q 1159 1113 1420 752 
Q 1681 391 2138 391 
Q 2594 391 2855 752 
Q 3116 1113 3116 1747 
z
M 1159 2969 
Q 1341 3281 1617 3432 
Q 1894 3584 2278 3584 
Q 2916 3584 3314 3078 
Q 3713 2572 3713 1747 
Q 3713 922 3314 415 
Q 2916 -91 2278 -91 
Q 1894 -91 1617 61 
Q 1341 213 1159 525 
L 1159 0 
L 581 0 
L 581 4863 
L 1159 4863 
L 1159 2969 
z
" transform="scale(0.015625)"/>
    </defs>
    <use xlink:href="#DejaVuSans-4d"/>
    <use xlink:href="#DejaVuSans-65" x="86.279297"/>
    <use xlink:href="#DejaVuSans-61" x="147.802734"/>
    <use xlink:href="#DejaVuSans-6e" x="209.082031"/>
    <use xlink:href="#DejaVuSans-20" x="272.460938"/>
    <use xlink:href="#DejaVuSans-65" x="304.248047"/>
    <use xlink:href="#DejaVuSans-73" x="365.771484"/>
    <use xlink:href="#DejaVuSans-74" x="417.871094"/>
    <use xlink:href="#DejaVuSans-69" x="457.080078"/>
    <use xlink:href="#DejaVuSans-6d" x="484.863281"/>
    <use xlink:href="#DejaVuSans-61" x="582.275391"/>
    <use xlink:href="#DejaVuSans-74" x="643.554688"/>
    <use xlink:href="#DejaVuSans-65" x="682.763672"/>
    <use xlink:href="#DejaVuSans-20" x="744.287109"/>
    <use xlink:href="#DejaVuSans-65" x="776.074219"/>
    <use xlink:href="#DejaVuSans-72" x="837.597656"/>
    <use xlink:href="#DejaVuSans-72" x="876.960938"/>
    <use xlink:href="#DejaVuSans-6f" x="915.824219"/>
    <use xlink:href="#DejaVuSans-72" x="977.005859"/>
    <use xlink:href="#DejaVuSans-20" x="1018.119141"/>
    <use xlink:href="#DejaVuSans-66" x="1049.90625"/>
    <use xlink:href="#DejaVuSans-6f" x="1085.111328"/>
    <use xlink:href="#DejaVuSans-72" x="1146.292969"/>
    <use xlink:href="#DejaVuSans-20" x="1187.40625"/>
    <use xlink:href="#DejaVuSans-74" x="1219.193359"/>
    <use xlink:href="#DejaVuSans-68" x="1258.402344"/>
    <use xlink:href="#DejaVuSans-65" x="1321.78125"/>
    <use xlink:href="#DejaVuSans-20" x="1383.304688"/>
    <use xlink:href="#DejaVuSans-62" x="1415.091797"/>
    <use xlink:href="#DejaVuSans-65" x="1478.568359"/>
    <use xlink:href="#DejaVuSans-73" x="1540.091797"/>
    <use xlink:href="#DejaVuSans-74" x="1592.191406"/>
    <use xlink:href="#DejaVuSans-20" x="1631.400391"/>
    <use xlink:href="#DejaVuSans-61" x="1663.1875"/>
    <use xlink:href="#DejaVuSans-72" x="1724.466797"/>
    <use xlink:href="#DejaVuSans-6d" x="1763.830078"/>
   </g>
  </g>
 </g>
 <defs>
  <clipPath id="p91caadc16b">
   <rect x="55.584" y="60.952" width="357.12" height="266.112"/>
  </clipPath>
 </defs>
</svg>
