<?xml version="1.0" encoding="utf-8" standalone="no"?>
<!DOCTYPE svg PUBLIC "-//W3C//DTD SVG 1.1//EN"
  "http://www.w3.org/Graphics/SVG/1.1/DTD/svg11.dtd">
<svg xmlns:xlink="http://www.w3.org/1999/xlink" width="428.054625pt" height="349.632pt" viewBox="0 0 428.054625 349.632" xmlns="http://www.w3.org/2000/svg" version="1.1">
 <metadata>
  <rdf:RDF xmlns:dc="http://purl.org/dc/elements/1.1/" xmlns:cc="http://creativecommons.org/ns#" xmlns:rdf="http://www.w3.org/1999/02/22-rdf-syntax-ns#">
   <cc:Work>
    <dc:type rdf:resource="http://purl.org/dc/dcmitype/StillImage"/>
    <dc:date>2024-06-12T13:05:30.897804</dc:date>
    <dc:format>image/svg+xml</dc:format>
    <dc:creator>
     <cc:Agent>
      <dc:title>Matplotlib v3.9.0, https://matplotlib.org/</dc:title>
     </cc:Agent>
    </dc:creator>
   </cc:Work>
  </rdf:RDF>
 </metadata>
 <defs>
  <style type="text/css">*{stroke-linejoin: round; stroke-linecap: butt}</style>
 </defs>
 <g id="figure_1">
  <g id="patch_1">
   <path d="M 0 349.632 
L 428.054625 349.632 
L 428.054625 -0 
L 0 -0 
z
" style="fill: #ffffff"/>
  </g>
  <g id="axes_1">
   <g id="patch_2">
    <path d="M 55.584 307.872 
L 412.704 307.872 
L 412.704 41.76 
L 55.584 41.76 
z
" style="fill: #ffffff"/>
   </g>
   <g id="matplotlib.axis_1">
    <g id="xtick_1">
     <g id="line2d_1">
      <path d="M 71.816727 307.872 
L 71.816727 41.76 
" clip-path="url(#p20c5b5e229)" style="fill: none; stroke: #b0b0b0; stroke-width: 0.8; stroke-linecap: square"/>
     </g>
     <g id="line2d_2">
      <defs>
       <path id="me7cec8655b" d="M 0 0 
L 0 3.5 
" style="stroke: #000000; stroke-width: 0.8"/>
      </defs>
      <g>
       <use xlink:href="#me7cec8655b" x="71.816727" y="307.872" style="stroke: #000000; stroke-width: 0.8"/>
      </g>
     </g>
     <g id="text_1">
      <!-- 0 -->
      <g transform="translate(67.362977 325.509812) scale(0.14 -0.14)">
       <defs>
        <path id="DejaVuSans-30" d="M 2034 4250 
Q 1547 4250 1301 3770 
Q 1056 3291 1056 2328 
Q 1056 1369 1301 889 
Q 1547 409 2034 409 
Q 2525 409 2770 889 
Q 3016 1369 3016 2328 
Q 3016 3291 2770 3770 
Q 2525 4250 2034 4250 
z
M 2034 4750 
Q 2819 4750 3233 4129 
Q 3647 3509 3647 2328 
Q 3647 1150 3233 529 
Q 2819 -91 2034 -91 
Q 1250 -91 836 529 
Q 422 1150 422 2328 
Q 422 3509 836 4129 
Q 1250 4750 2034 4750 
z
" transform="scale(0.015625)"/>
       </defs>
       <use xlink:href="#DejaVuSans-30"/>
      </g>
     </g>
    </g>
    <g id="xtick_2">
     <g id="line2d_3">
      <path d="M 136.812632 307.872 
L 136.812632 41.76 
" clip-path="url(#p20c5b5e229)" style="fill: none; stroke: #b0b0b0; stroke-width: 0.8; stroke-linecap: square"/>
     </g>
     <g id="line2d_4">
      <g>
       <use xlink:href="#me7cec8655b" x="136.812632" y="307.872" style="stroke: #000000; stroke-width: 0.8"/>
      </g>
     </g>
     <g id="text_2">
      <!-- 200 -->
      <g transform="translate(123.451382 325.509812) scale(0.14 -0.14)">
       <defs>
        <path id="DejaVuSans-32" d="M 1228 531 
L 3431 531 
L 3431 0 
L 469 0 
L 469 531 
Q 828 903 1448 1529 
Q 2069 2156 2228 2338 
Q 2531 2678 2651 2914 
Q 2772 3150 2772 3378 
Q 2772 3750 2511 3984 
Q 2250 4219 1831 4219 
Q 1534 4219 1204 4116 
Q 875 4013 500 3803 
L 500 4441 
Q 881 4594 1212 4672 
Q 1544 4750 1819 4750 
Q 2544 4750 2975 4387 
Q 3406 4025 3406 3419 
Q 3406 3131 3298 2873 
Q 3191 2616 2906 2266 
Q 2828 2175 2409 1742 
Q 1991 1309 1228 531 
z
" transform="scale(0.015625)"/>
       </defs>
       <use xlink:href="#DejaVuSans-32"/>
       <use xlink:href="#DejaVuSans-30" x="63.623047"/>
       <use xlink:href="#DejaVuSans-30" x="127.246094"/>
      </g>
     </g>
    </g>
    <g id="xtick_3">
     <g id="line2d_5">
      <path d="M 201.808537 307.872 
L 201.808537 41.76 
" clip-path="url(#p20c5b5e229)" style="fill: none; stroke: #b0b0b0; stroke-width: 0.8; stroke-linecap: square"/>
     </g>
     <g id="line2d_6">
      <g>
       <use xlink:href="#me7cec8655b" x="201.808537" y="307.872" style="stroke: #000000; stroke-width: 0.8"/>
      </g>
     </g>
     <g id="text_3">
      <!-- 400 -->
      <g transform="translate(188.447287 325.509812) scale(0.14 -0.14)">
       <defs>
        <path id="DejaVuSans-34" d="M 2419 4116 
L 825 1625 
L 2419 1625 
L 2419 4116 
z
M 2253 4666 
L 3047 4666 
L 3047 1625 
L 3713 1625 
L 3713 1100 
L 3047 1100 
L 3047 0 
L 2419 0 
L 2419 1100 
L 313 1100 
L 313 1709 
L 2253 4666 
z
" transform="scale(0.015625)"/>
       </defs>
       <use xlink:href="#DejaVuSans-34"/>
       <use xlink:href="#DejaVuSans-30" x="63.623047"/>
       <use xlink:href="#DejaVuSans-30" x="127.246094"/>
      </g>
     </g>
    </g>
    <g id="xtick_4">
     <g id="line2d_7">
      <path d="M 266.804442 307.872 
L 266.804442 41.76 
" clip-path="url(#p20c5b5e229)" style="fill: none; stroke: #b0b0b0; stroke-width: 0.8; stroke-linecap: square"/>
     </g>
     <g id="line2d_8">
      <g>
       <use xlink:href="#me7cec8655b" x="266.804442" y="307.872" style="stroke: #000000; stroke-width: 0.8"/>
      </g>
     </g>
     <g id="text_4">
      <!-- 600 -->
      <g transform="translate(253.443192 325.509812) scale(0.14 -0.14)">
       <defs>
        <path id="DejaVuSans-36" d="M 2113 2584 
Q 1688 2584 1439 2293 
Q 1191 2003 1191 1497 
Q 1191 994 1439 701 
Q 1688 409 2113 409 
Q 2538 409 2786 701 
Q 3034 994 3034 1497 
Q 3034 2003 2786 2293 
Q 2538 2584 2113 2584 
z
M 3366 4563 
L 3366 3988 
Q 3128 4100 2886 4159 
Q 2644 4219 2406 4219 
Q 1781 4219 1451 3797 
Q 1122 3375 1075 2522 
Q 1259 2794 1537 2939 
Q 1816 3084 2150 3084 
Q 2853 3084 3261 2657 
Q 3669 2231 3669 1497 
Q 3669 778 3244 343 
Q 2819 -91 2113 -91 
Q 1303 -91 875 529 
Q 447 1150 447 2328 
Q 447 3434 972 4092 
Q 1497 4750 2381 4750 
Q 2619 4750 2861 4703 
Q 3103 4656 3366 4563 
z
" transform="scale(0.015625)"/>
       </defs>
       <use xlink:href="#DejaVuSans-36"/>
       <use xlink:href="#DejaVuSans-30" x="63.623047"/>
       <use xlink:href="#DejaVuSans-30" x="127.246094"/>
      </g>
     </g>
    </g>
    <g id="xtick_5">
     <g id="line2d_9">
      <path d="M 331.800347 307.872 
L 331.800347 41.76 
" clip-path="url(#p20c5b5e229)" style="fill: none; stroke: #b0b0b0; stroke-width: 0.8; stroke-linecap: square"/>
     </g>
     <g id="line2d_10">
      <g>
       <use xlink:href="#me7cec8655b" x="331.800347" y="307.872" style="stroke: #000000; stroke-width: 0.8"/>
      </g>
     </g>
     <g id="text_5">
      <!-- 800 -->
      <g transform="translate(318.439097 325.509812) scale(0.14 -0.14)">
       <defs>
        <path id="DejaVuSans-38" d="M 2034 2216 
Q 1584 2216 1326 1975 
Q 1069 1734 1069 1313 
Q 1069 891 1326 650 
Q 1584 409 2034 409 
Q 2484 409 2743 651 
Q 3003 894 3003 1313 
Q 3003 1734 2745 1975 
Q 2488 2216 2034 2216 
z
M 1403 2484 
Q 997 2584 770 2862 
Q 544 3141 544 3541 
Q 544 4100 942 4425 
Q 1341 4750 2034 4750 
Q 2731 4750 3128 4425 
Q 3525 4100 3525 3541 
Q 3525 3141 3298 2862 
Q 3072 2584 2669 2484 
Q 3125 2378 3379 2068 
Q 3634 1759 3634 1313 
Q 3634 634 3220 271 
Q 2806 -91 2034 -91 
Q 1263 -91 848 271 
Q 434 634 434 1313 
Q 434 1759 690 2068 
Q 947 2378 1403 2484 
z
M 1172 3481 
Q 1172 3119 1398 2916 
Q 1625 2713 2034 2713 
Q 2441 2713 2670 2916 
Q 2900 3119 2900 3481 
Q 2900 3844 2670 4047 
Q 2441 4250 2034 4250 
Q 1625 4250 1398 4047 
Q 1172 3844 1172 3481 
z
" transform="scale(0.015625)"/>
       </defs>
       <use xlink:href="#DejaVuSans-38"/>
       <use xlink:href="#DejaVuSans-30" x="63.623047"/>
       <use xlink:href="#DejaVuSans-30" x="127.246094"/>
      </g>
     </g>
    </g>
    <g id="xtick_6">
     <g id="line2d_11">
      <path d="M 396.796252 307.872 
L 396.796252 41.76 
" clip-path="url(#p20c5b5e229)" style="fill: none; stroke: #b0b0b0; stroke-width: 0.8; stroke-linecap: square"/>
     </g>
     <g id="line2d_12">
      <g>
       <use xlink:href="#me7cec8655b" x="396.796252" y="307.872" style="stroke: #000000; stroke-width: 0.8"/>
      </g>
     </g>
     <g id="text_6">
      <!-- 1000 -->
      <g transform="translate(378.981252 325.509812) scale(0.14 -0.14)">
       <defs>
        <path id="DejaVuSans-31" d="M 794 531 
L 1825 531 
L 1825 4091 
L 703 3866 
L 703 4441 
L 1819 4666 
L 2450 4666 
L 2450 531 
L 3481 531 
L 3481 0 
L 794 0 
L 794 531 
z
" transform="scale(0.015625)"/>
       </defs>
       <use xlink:href="#DejaVuSans-31"/>
       <use xlink:href="#DejaVuSans-30" x="63.623047"/>
       <use xlink:href="#DejaVuSans-30" x="127.246094"/>
       <use xlink:href="#DejaVuSans-30" x="190.869141"/>
      </g>
     </g>
    </g>
   </g>
   <g id="matplotlib.axis_2">
    <g id="ytick_1">
     <g id="line2d_13">
      <path d="M 55.584 296.171304 
L 412.704 296.171304 
" clip-path="url(#p20c5b5e229)" style="fill: none; stroke: #b0b0b0; stroke-width: 0.8; stroke-linecap: square"/>
     </g>
     <g id="line2d_14">
      <defs>
       <path id="md3f2ac91ce" d="M 0 0 
L -3.5 0 
" style="stroke: #000000; stroke-width: 0.8"/>
      </defs>
      <g>
       <use xlink:href="#md3f2ac91ce" x="55.584" y="296.171304" style="stroke: #000000; stroke-width: 0.8"/>
      </g>
     </g>
     <g id="text_7">
      <!-- 0 -->
      <g transform="translate(39.6765 301.49021) scale(0.14 -0.14)">
       <use xlink:href="#DejaVuSans-30"/>
      </g>
     </g>
    </g>
    <g id="ytick_2">
     <g id="line2d_15">
      <path d="M 55.584 262.315226 
L 412.704 262.315226 
" clip-path="url(#p20c5b5e229)" style="fill: none; stroke: #b0b0b0; stroke-width: 0.8; stroke-linecap: square"/>
     </g>
     <g id="line2d_16">
      <g>
       <use xlink:href="#md3f2ac91ce" x="55.584" y="262.315226" style="stroke: #000000; stroke-width: 0.8"/>
      </g>
     </g>
     <g id="text_8">
      <!-- 50 -->
      <g transform="translate(30.769 267.634132) scale(0.14 -0.14)">
       <defs>
        <path id="DejaVuSans-35" d="M 691 4666 
L 3169 4666 
L 3169 4134 
L 1269 4134 
L 1269 2991 
Q 1406 3038 1543 3061 
Q 1681 3084 1819 3084 
Q 2600 3084 3056 2656 
Q 3513 2228 3513 1497 
Q 3513 744 3044 326 
Q 2575 -91 1722 -91 
Q 1428 -91 1123 -41 
Q 819 9 494 109 
L 494 744 
Q 775 591 1075 516 
Q 1375 441 1709 441 
Q 2250 441 2565 725 
Q 2881 1009 2881 1497 
Q 2881 1984 2565 2268 
Q 2250 2553 1709 2553 
Q 1456 2553 1204 2497 
Q 953 2441 691 2322 
L 691 4666 
z
" transform="scale(0.015625)"/>
       </defs>
       <use xlink:href="#DejaVuSans-35"/>
       <use xlink:href="#DejaVuSans-30" x="63.623047"/>
      </g>
     </g>
    </g>
    <g id="ytick_3">
     <g id="line2d_17">
      <path d="M 55.584 228.459149 
L 412.704 228.459149 
" clip-path="url(#p20c5b5e229)" style="fill: none; stroke: #b0b0b0; stroke-width: 0.8; stroke-linecap: square"/>
     </g>
     <g id="line2d_18">
      <g>
       <use xlink:href="#md3f2ac91ce" x="55.584" y="228.459149" style="stroke: #000000; stroke-width: 0.8"/>
      </g>
     </g>
     <g id="text_9">
      <!-- 100 -->
      <g transform="translate(21.8615 233.778055) scale(0.14 -0.14)">
       <use xlink:href="#DejaVuSans-31"/>
       <use xlink:href="#DejaVuSans-30" x="63.623047"/>
       <use xlink:href="#DejaVuSans-30" x="127.246094"/>
      </g>
     </g>
    </g>
    <g id="ytick_4">
     <g id="line2d_19">
      <path d="M 55.584 194.603071 
L 412.704 194.603071 
" clip-path="url(#p20c5b5e229)" style="fill: none; stroke: #b0b0b0; stroke-width: 0.8; stroke-linecap: square"/>
     </g>
     <g id="line2d_20">
      <g>
       <use xlink:href="#md3f2ac91ce" x="55.584" y="194.603071" style="stroke: #000000; stroke-width: 0.8"/>
      </g>
     </g>
     <g id="text_10">
      <!-- 150 -->
      <g transform="translate(21.8615 199.921978) scale(0.14 -0.14)">
       <use xlink:href="#DejaVuSans-31"/>
       <use xlink:href="#DejaVuSans-35" x="63.623047"/>
       <use xlink:href="#DejaVuSans-30" x="127.246094"/>
      </g>
     </g>
    </g>
    <g id="ytick_5">
     <g id="line2d_21">
      <path d="M 55.584 160.746994 
L 412.704 160.746994 
" clip-path="url(#p20c5b5e229)" style="fill: none; stroke: #b0b0b0; stroke-width: 0.8; stroke-linecap: square"/>
     </g>
     <g id="line2d_22">
      <g>
       <use xlink:href="#md3f2ac91ce" x="55.584" y="160.746994" style="stroke: #000000; stroke-width: 0.8"/>
      </g>
     </g>
     <g id="text_11">
      <!-- 200 -->
      <g transform="translate(21.8615 166.0659) scale(0.14 -0.14)">
       <use xlink:href="#DejaVuSans-32"/>
       <use xlink:href="#DejaVuSans-30" x="63.623047"/>
       <use xlink:href="#DejaVuSans-30" x="127.246094"/>
      </g>
     </g>
    </g>
    <g id="ytick_6">
     <g id="line2d_23">
      <path d="M 55.584 126.890916 
L 412.704 126.890916 
" clip-path="url(#p20c5b5e229)" style="fill: none; stroke: #b0b0b0; stroke-width: 0.8; stroke-linecap: square"/>
     </g>
     <g id="line2d_24">
      <g>
       <use xlink:href="#md3f2ac91ce" x="55.584" y="126.890916" style="stroke: #000000; stroke-width: 0.8"/>
      </g>
     </g>
     <g id="text_12">
      <!-- 250 -->
      <g transform="translate(21.8615 132.209823) scale(0.14 -0.14)">
       <use xlink:href="#DejaVuSans-32"/>
       <use xlink:href="#DejaVuSans-35" x="63.623047"/>
       <use xlink:href="#DejaVuSans-30" x="127.246094"/>
      </g>
     </g>
    </g>
    <g id="ytick_7">
     <g id="line2d_25">
      <path d="M 55.584 93.034839 
L 412.704 93.034839 
" clip-path="url(#p20c5b5e229)" style="fill: none; stroke: #b0b0b0; stroke-width: 0.8; stroke-linecap: square"/>
     </g>
     <g id="line2d_26">
      <g>
       <use xlink:href="#md3f2ac91ce" x="55.584" y="93.034839" style="stroke: #000000; stroke-width: 0.8"/>
      </g>
     </g>
     <g id="text_13">
      <!-- 300 -->
      <g transform="translate(21.8615 98.353745) scale(0.14 -0.14)">
       <defs>
        <path id="DejaVuSans-33" d="M 2597 2516 
Q 3050 2419 3304 2112 
Q 3559 1806 3559 1356 
Q 3559 666 3084 287 
Q 2609 -91 1734 -91 
Q 1441 -91 1130 -33 
Q 819 25 488 141 
L 488 750 
Q 750 597 1062 519 
Q 1375 441 1716 441 
Q 2309 441 2620 675 
Q 2931 909 2931 1356 
Q 2931 1769 2642 2001 
Q 2353 2234 1838 2234 
L 1294 2234 
L 1294 2753 
L 1863 2753 
Q 2328 2753 2575 2939 
Q 2822 3125 2822 3475 
Q 2822 3834 2567 4026 
Q 2313 4219 1838 4219 
Q 1578 4219 1281 4162 
Q 984 4106 628 3988 
L 628 4550 
Q 988 4650 1302 4700 
Q 1616 4750 1894 4750 
Q 2613 4750 3031 4423 
Q 3450 4097 3450 3541 
Q 3450 3153 3228 2886 
Q 3006 2619 2597 2516 
z
" transform="scale(0.015625)"/>
       </defs>
       <use xlink:href="#DejaVuSans-33"/>
       <use xlink:href="#DejaVuSans-30" x="63.623047"/>
       <use xlink:href="#DejaVuSans-30" x="127.246094"/>
      </g>
     </g>
    </g>
    <g id="ytick_8">
     <g id="line2d_27">
      <path d="M 55.584 59.178762 
L 412.704 59.178762 
" clip-path="url(#p20c5b5e229)" style="fill: none; stroke: #b0b0b0; stroke-width: 0.8; stroke-linecap: square"/>
     </g>
     <g id="line2d_28">
      <g>
       <use xlink:href="#md3f2ac91ce" x="55.584" y="59.178762" style="stroke: #000000; stroke-width: 0.8"/>
      </g>
     </g>
     <g id="text_14">
      <!-- 350 -->
      <g transform="translate(21.8615 64.497668) scale(0.14 -0.14)">
       <use xlink:href="#DejaVuSans-33"/>
       <use xlink:href="#DejaVuSans-35" x="63.623047"/>
       <use xlink:href="#DejaVuSans-30" x="127.246094"/>
      </g>
     </g>
    </g>
   </g>
   <g id="line2d_29">
    <path d="M 71.816727 295.776 
L 73.441625 293.937765 
L 78.641297 289.407577 
L 82.541052 286.482251 
L 88.065704 282.648061 
L 96.515171 277.10556 
L 110.164311 268.464698 
L 128.688144 256.978761 
L 184.584622 222.738914 
L 288.90305 159.02581 
L 369.822952 109.297621 
L 396.471273 92.82513 
L 396.471273 92.82513 
" clip-path="url(#p20c5b5e229)" style="fill: none; stroke: #1f77b4; stroke-width: 2; stroke-linecap: square"/>
    <defs>
     <path id="mc9ce840642" d="M 0 3 
C 0.795609 3 1.55874 2.683901 2.12132 2.12132 
C 2.683901 1.55874 3 0.795609 3 0 
C 3 -0.795609 2.683901 -1.55874 2.12132 -2.12132 
C 1.55874 -2.683901 0.795609 -3 0 -3 
C -0.795609 -3 -1.55874 -2.683901 -2.12132 -2.12132 
C -2.683901 -1.55874 -3 -0.795609 -3 0 
C -3 0.795609 -2.683901 1.55874 -2.12132 2.12132 
C -1.55874 2.683901 -0.795609 3 0 3 
z
" style="stroke: #1f77b4"/>
    </defs>
    <g clip-path="url(#p20c5b5e229)">
     <use xlink:href="#mc9ce840642" x="71.816727" y="295.776" style="fill: #1f77b4; stroke: #1f77b4"/>
     <use xlink:href="#mc9ce840642" x="136.812632" y="251.982789" style="fill: #1f77b4; stroke: #1f77b4"/>
     <use xlink:href="#mc9ce840642" x="201.808537" y="212.227935" style="fill: #1f77b4; stroke: #1f77b4"/>
     <use xlink:href="#mc9ce840642" x="266.804442" y="172.526075" style="fill: #1f77b4; stroke: #1f77b4"/>
     <use xlink:href="#mc9ce840642" x="331.800347" y="132.687878" style="fill: #1f77b4; stroke: #1f77b4"/>
    </g>
   </g>
   <g id="line2d_30">
    <path d="M 71.816727 295.776 
L 73.441625 293.916924 
L 82.866031 285.840005 
L 91.640478 278.929625 
L 104.964639 268.791655 
L 122.838513 255.468475 
L 163.460953 225.572228 
L 307.426883 119.872346 
L 377.297481 68.130016 
L 396.471273 53.856 
L 396.471273 53.856 
" clip-path="url(#p20c5b5e229)" style="fill: none; stroke: #ff7f0e; stroke-width: 2; stroke-linecap: square"/>
    <defs>
     <path id="m6ff137ffeb" d="M 0 -3 
L -3 3 
L 3 3 
z
" style="stroke: #ff7f0e; stroke-linejoin: miter"/>
    </defs>
    <g clip-path="url(#p20c5b5e229)">
     <use xlink:href="#m6ff137ffeb" x="71.816727" y="295.776" style="fill: #ff7f0e; stroke: #ff7f0e; stroke-linejoin: miter"/>
     <use xlink:href="#m6ff137ffeb" x="136.812632" y="245.125593" style="fill: #ff7f0e; stroke: #ff7f0e; stroke-linejoin: miter"/>
     <use xlink:href="#m6ff137ffeb" x="201.808537" y="197.529765" style="fill: #ff7f0e; stroke: #ff7f0e; stroke-linejoin: miter"/>
     <use xlink:href="#m6ff137ffeb" x="266.804442" y="149.823984" style="fill: #ff7f0e; stroke: #ff7f0e; stroke-linejoin: miter"/>
     <use xlink:href="#m6ff137ffeb" x="331.800347" y="101.852122" style="fill: #ff7f0e; stroke: #ff7f0e; stroke-linejoin: miter"/>
    </g>
   </g>
   <g id="line2d_31">
    <path d="M 71.816727 295.776 
L 73.441625 293.923754 
L 82.866031 285.868292 
L 90.015581 280.325529 
L 102.039823 271.301254 
L 122.838513 256.018646 
L 156.636383 231.466665 
L 238.531224 172.101239 
L 288.57807 135.658408 
L 359.748586 83.576281 
L 396.471273 56.571959 
L 396.471273 56.571959 
" clip-path="url(#p20c5b5e229)" style="fill: none; stroke: #2ca02c; stroke-width: 2; stroke-linecap: square"/>
    <defs>
     <path id="m7d72885d16" d="M -3 3 
L 3 3 
L 3 -3 
L -3 -3 
z
" style="stroke: #2ca02c; stroke-linejoin: miter"/>
    </defs>
    <g clip-path="url(#p20c5b5e229)">
     <use xlink:href="#m7d72885d16" x="71.816727" y="295.776" style="fill: #2ca02c; stroke: #2ca02c; stroke-linejoin: miter"/>
     <use xlink:href="#m7d72885d16" x="136.812632" y="245.860566" style="fill: #2ca02c; stroke: #2ca02c; stroke-linejoin: miter"/>
     <use xlink:href="#m7d72885d16" x="201.808537" y="198.741051" style="fill: #2ca02c; stroke: #2ca02c; stroke-linejoin: miter"/>
     <use xlink:href="#m7d72885d16" x="266.804442" y="151.538587" style="fill: #2ca02c; stroke: #2ca02c; stroke-linejoin: miter"/>
     <use xlink:href="#m7d72885d16" x="331.800347" y="104.065253" style="fill: #2ca02c; stroke: #2ca02c; stroke-linejoin: miter"/>
    </g>
   </g>
   <g id="line2d_32">
    <path d="M 71.816727 295.776 
L 73.441625 293.923231 
L 81.566113 286.998337 
L 88.715663 281.436234 
L 99.115007 273.644093 
L 115.363984 261.770962 
L 174.185278 219.332514 
L 249.255548 165.066827 
L 380.872256 69.082104 
L 396.471273 57.654728 
L 396.471273 57.654728 
" clip-path="url(#p20c5b5e229)" style="fill: none; stroke: #d62728; stroke-width: 2; stroke-linecap: square"/>
    <defs>
     <path id="m8b587db820" d="M -3 3 
L 3 -3 
M -3 -3 
L 3 3 
" style="stroke: #d62728"/>
    </defs>
    <g clip-path="url(#p20c5b5e229)">
     <use xlink:href="#m8b587db820" x="71.816727" y="295.776" style="fill: #d62728; stroke: #d62728"/>
     <use xlink:href="#m8b587db820" x="136.812632" y="246.272658" style="fill: #d62728; stroke: #d62728"/>
     <use xlink:href="#m8b587db820" x="201.808537" y="199.409745" style="fill: #d62728; stroke: #d62728"/>
     <use xlink:href="#m8b587db820" x="266.804442" y="152.32152" style="fill: #d62728; stroke: #d62728"/>
     <use xlink:href="#m8b587db820" x="331.800347" y="104.966538" style="fill: #d62728; stroke: #d62728"/>
    </g>
   </g>
   <g id="line2d_33">
    <path d="M 71.816727 295.776 
L 73.441625 293.922349 
L 82.216072 286.409512 
L 89.690601 280.610218 
L 102.364803 271.104073 
L 119.263738 258.682279 
L 145.587079 239.517972 
L 207.983148 194.19834 
L 295.40264 130.301791 
L 389.321723 61.275937 
L 396.471273 56.002221 
L 396.471273 56.002221 
" clip-path="url(#p20c5b5e229)" style="fill: none; stroke: #9467bd; stroke-width: 2; stroke-linecap: square"/>
    <defs>
     <path id="m98666a471c" d="M -0 3 
L 3 -3 
L -3 -3 
z
" style="stroke: #9467bd; stroke-linejoin: miter"/>
    </defs>
    <g clip-path="url(#p20c5b5e229)">
     <use xlink:href="#m98666a471c" x="71.816727" y="295.776" style="fill: #9467bd; stroke: #9467bd; stroke-linejoin: miter"/>
     <use xlink:href="#m98666a471c" x="136.812632" y="245.895055" style="fill: #9467bd; stroke: #9467bd; stroke-linejoin: miter"/>
     <use xlink:href="#m98666a471c" x="201.808537" y="198.697552" style="fill: #9467bd; stroke: #9467bd; stroke-linejoin: miter"/>
     <use xlink:href="#m98666a471c" x="266.804442" y="151.239558" style="fill: #9467bd; stroke: #9467bd; stroke-linejoin: miter"/>
     <use xlink:href="#m98666a471c" x="331.800347" y="103.620827" style="fill: #9467bd; stroke: #9467bd; stroke-linejoin: miter"/>
    </g>
   </g>
   <g id="line2d_34">
    <path d="M 71.816727 295.776 
L 73.441625 293.919208 
L 82.866031 285.871576 
L 90.015581 280.270249 
L 104.31468 269.421326 
L 124.78839 254.235015 
L 157.286342 230.511843 
L 190.759233 206.303222 
L 231.056695 177.071155 
L 284.353337 138.201931 
L 345.124508 94.015538 
L 396.471273 56.661607 
L 396.471273 56.661607 
" clip-path="url(#p20c5b5e229)" style="fill: none; stroke: #8c564b; stroke-width: 2; stroke-linecap: square"/>
    <defs>
     <path id="m69fc01e3bd" d="M -0 4.242641 
L 2.545584 0 
L 0 -4.242641 
L -2.545584 -0 
z
" style="stroke: #8c564b; stroke-linejoin: miter"/>
    </defs>
    <g clip-path="url(#p20c5b5e229)">
     <use xlink:href="#m69fc01e3bd" x="71.816727" y="295.776" style="fill: #8c564b; stroke: #8c564b; stroke-linejoin: miter"/>
     <use xlink:href="#m69fc01e3bd" x="136.812632" y="245.426177" style="fill: #8c564b; stroke: #8c564b; stroke-linejoin: miter"/>
     <use xlink:href="#m69fc01e3bd" x="201.808537" y="198.302509" style="fill: #8c564b; stroke: #8c564b; stroke-linejoin: miter"/>
     <use xlink:href="#m69fc01e3bd" x="266.804442" y="151.015889" style="fill: #8c564b; stroke: #8c564b; stroke-linejoin: miter"/>
     <use xlink:href="#m69fc01e3bd" x="331.800347" y="103.716458" style="fill: #8c564b; stroke: #8c564b; stroke-linejoin: miter"/>
    </g>
   </g>
   <g id="line2d_35">
    <path d="M 71.816727 295.776 
L 73.116645 294.197534 
L 74.091584 293.466121 
L 76.366441 291.648844 
L 78.966277 289.908081 
L 82.216072 288.037429 
L 86.440806 285.912109 
L 90.990519 283.865738 
L 96.840151 281.482627 
L 104.639659 278.581031 
L 114.389045 275.231978 
L 125.438349 271.701199 
L 139.412468 267.500124 
L 156.636383 262.588168 
L 174.185278 257.789957 
L 195.958906 252.050169 
L 221.307309 245.56645 
L 261.60477 235.516413 
L 292.802804 227.959068 
L 348.374303 214.74094 
L 396.471273 203.455843 
L 396.471273 203.455843 
" clip-path="url(#p20c5b5e229)" style="fill: none; stroke: #e377c2; stroke-width: 2; stroke-linecap: square"/>
    <defs>
     <path id="m4a02af2a4d" d="M 0 0 
L 0 3 
M 0 0 
L 2.4 -1.5 
M 0 0 
L -2.4 -1.5 
" style="stroke: #e377c2"/>
    </defs>
    <g clip-path="url(#p20c5b5e229)">
     <use xlink:href="#m4a02af2a4d" x="71.816727" y="295.776" style="fill: #e377c2; stroke: #e377c2"/>
     <use xlink:href="#m4a02af2a4d" x="136.812632" y="268.260999" style="fill: #e377c2; stroke: #e377c2"/>
     <use xlink:href="#m4a02af2a4d" x="201.808537" y="250.533309" style="fill: #e377c2; stroke: #e377c2"/>
     <use xlink:href="#m4a02af2a4d" x="266.804442" y="234.241709" style="fill: #e377c2; stroke: #e377c2"/>
     <use xlink:href="#m4a02af2a4d" x="331.800347" y="218.658608" style="fill: #e377c2; stroke: #e377c2"/>
    </g>
   </g>
   <g id="patch_3">
    <path d="M 55.584 307.872 
L 55.584 41.76 
" style="fill: none; stroke: #000000; stroke-width: 0.8; stroke-linejoin: miter; stroke-linecap: square"/>
   </g>
   <g id="patch_4">
    <path d="M 412.704 307.872 
L 412.704 41.76 
" style="fill: none; stroke: #000000; stroke-width: 0.8; stroke-linejoin: miter; stroke-linecap: square"/>
   </g>
   <g id="patch_5">
    <path d="M 55.584 307.872 
L 412.704 307.872 
" style="fill: none; stroke: #000000; stroke-width: 0.8; stroke-linejoin: miter; stroke-linecap: square"/>
   </g>
   <g id="patch_6">
    <path d="M 55.584 41.76 
L 412.704 41.76 
" style="fill: none; stroke: #000000; stroke-width: 0.8; stroke-linejoin: miter; stroke-linecap: square"/>
   </g>
   <g id="legend_1">
    <g id="patch_7">
     <path d="M 62.584 152.550625 
L 243.584 152.550625 
Q 245.584 152.550625 245.584 150.550625 
L 245.584 48.76 
Q 245.584 46.76 243.584 46.76 
L 62.584 46.76 
Q 60.584 46.76 60.584 48.76 
L 60.584 150.550625 
Q 60.584 152.550625 62.584 152.550625 
z
" style="fill: #ffffff; opacity: 0.8; stroke: #cccccc; stroke-linejoin: miter"/>
    </g>
    <g id="line2d_36">
     <path d="M 64.584 54.858437 
L 74.584 54.858437 
L 84.584 54.858437 
" style="fill: none; stroke: #1f77b4; stroke-width: 2; stroke-linecap: square"/>
     <g>
      <use xlink:href="#mc9ce840642" x="74.584" y="54.858437" style="fill: #1f77b4; stroke: #1f77b4"/>
     </g>
    </g>
    <g id="text_15">
     <!-- $\kappa$ = 0.02 -->
     <g transform="translate(92.584 58.358437) scale(0.1 -0.1)">
      <defs>
       <path id="DejaVuSans-Oblique-3ba" d="M 938 3500 
L 1531 3500 
L 1247 2047 
L 3041 3500 
L 3741 3500 
L 2106 2181 
L 3275 0 
L 2572 0 
L 1628 1806 
L 1122 1403 
L 850 0 
L 256 0 
L 938 3500 
z
" transform="scale(0.015625)"/>
       <path id="DejaVuSans-20" transform="scale(0.015625)"/>
       <path id="DejaVuSans-3d" d="M 678 2906 
L 4684 2906 
L 4684 2381 
L 678 2381 
L 678 2906 
z
M 678 1631 
L 4684 1631 
L 4684 1100 
L 678 1100 
L 678 1631 
z
" transform="scale(0.015625)"/>
       <path id="DejaVuSans-2e" d="M 684 794 
L 1344 794 
L 1344 0 
L 684 0 
L 684 794 
z
" transform="scale(0.015625)"/>
      </defs>
      <use xlink:href="#DejaVuSans-Oblique-3ba" transform="translate(0 0.78125)"/>
      <use xlink:href="#DejaVuSans-20" transform="translate(58.935547 0.78125)"/>
      <use xlink:href="#DejaVuSans-3d" transform="translate(90.722656 0.78125)"/>
      <use xlink:href="#DejaVuSans-20" transform="translate(174.511719 0.78125)"/>
      <use xlink:href="#DejaVuSans-30" transform="translate(206.298828 0.78125)"/>
      <use xlink:href="#DejaVuSans-2e" transform="translate(269.921875 0.78125)"/>
      <use xlink:href="#DejaVuSans-30" transform="translate(301.708984 0.78125)"/>
      <use xlink:href="#DejaVuSans-32" transform="translate(365.332031 0.78125)"/>
     </g>
    </g>
    <g id="line2d_37">
     <path d="M 64.584 69.538125 
L 74.584 69.538125 
L 84.584 69.538125 
" style="fill: none; stroke: #ff7f0e; stroke-width: 2; stroke-linecap: square"/>
     <g>
      <use xlink:href="#m6ff137ffeb" x="74.584" y="69.538125" style="fill: #ff7f0e; stroke: #ff7f0e; stroke-linejoin: miter"/>
     </g>
    </g>
    <g id="text_16">
     <!-- Constant-edge ($\alpha$ = 0.400) -->
     <g transform="translate(92.584 73.038125) scale(0.1 -0.1)">
      <defs>
       <path id="DejaVuSans-43" d="M 4122 4306 
L 4122 3641 
Q 3803 3938 3442 4084 
Q 3081 4231 2675 4231 
Q 1875 4231 1450 3742 
Q 1025 3253 1025 2328 
Q 1025 1406 1450 917 
Q 1875 428 2675 428 
Q 3081 428 3442 575 
Q 3803 722 4122 1019 
L 4122 359 
Q 3791 134 3420 21 
Q 3050 -91 2638 -91 
Q 1578 -91 968 557 
Q 359 1206 359 2328 
Q 359 3453 968 4101 
Q 1578 4750 2638 4750 
Q 3056 4750 3426 4639 
Q 3797 4528 4122 4306 
z
" transform="scale(0.015625)"/>
       <path id="DejaVuSans-6f" d="M 1959 3097 
Q 1497 3097 1228 2736 
Q 959 2375 959 1747 
Q 959 1119 1226 758 
Q 1494 397 1959 397 
Q 2419 397 2687 759 
Q 2956 1122 2956 1747 
Q 2956 2369 2687 2733 
Q 2419 3097 1959 3097 
z
M 1959 3584 
Q 2709 3584 3137 3096 
Q 3566 2609 3566 1747 
Q 3566 888 3137 398 
Q 2709 -91 1959 -91 
Q 1206 -91 779 398 
Q 353 888 353 1747 
Q 353 2609 779 3096 
Q 1206 3584 1959 3584 
z
" transform="scale(0.015625)"/>
       <path id="DejaVuSans-6e" d="M 3513 2113 
L 3513 0 
L 2938 0 
L 2938 2094 
Q 2938 2591 2744 2837 
Q 2550 3084 2163 3084 
Q 1697 3084 1428 2787 
Q 1159 2491 1159 1978 
L 1159 0 
L 581 0 
L 581 3500 
L 1159 3500 
L 1159 2956 
Q 1366 3272 1645 3428 
Q 1925 3584 2291 3584 
Q 2894 3584 3203 3211 
Q 3513 2838 3513 2113 
z
" transform="scale(0.015625)"/>
       <path id="DejaVuSans-73" d="M 2834 3397 
L 2834 2853 
Q 2591 2978 2328 3040 
Q 2066 3103 1784 3103 
Q 1356 3103 1142 2972 
Q 928 2841 928 2578 
Q 928 2378 1081 2264 
Q 1234 2150 1697 2047 
L 1894 2003 
Q 2506 1872 2764 1633 
Q 3022 1394 3022 966 
Q 3022 478 2636 193 
Q 2250 -91 1575 -91 
Q 1294 -91 989 -36 
Q 684 19 347 128 
L 347 722 
Q 666 556 975 473 
Q 1284 391 1588 391 
Q 1994 391 2212 530 
Q 2431 669 2431 922 
Q 2431 1156 2273 1281 
Q 2116 1406 1581 1522 
L 1381 1569 
Q 847 1681 609 1914 
Q 372 2147 372 2553 
Q 372 3047 722 3315 
Q 1072 3584 1716 3584 
Q 2034 3584 2315 3537 
Q 2597 3491 2834 3397 
z
" transform="scale(0.015625)"/>
       <path id="DejaVuSans-74" d="M 1172 4494 
L 1172 3500 
L 2356 3500 
L 2356 3053 
L 1172 3053 
L 1172 1153 
Q 1172 725 1289 603 
Q 1406 481 1766 481 
L 2356 481 
L 2356 0 
L 1766 0 
Q 1100 0 847 248 
Q 594 497 594 1153 
L 594 3053 
L 172 3053 
L 172 3500 
L 594 3500 
L 594 4494 
L 1172 4494 
z
" transform="scale(0.015625)"/>
       <path id="DejaVuSans-61" d="M 2194 1759 
Q 1497 1759 1228 1600 
Q 959 1441 959 1056 
Q 959 750 1161 570 
Q 1363 391 1709 391 
Q 2188 391 2477 730 
Q 2766 1069 2766 1631 
L 2766 1759 
L 2194 1759 
z
M 3341 1997 
L 3341 0 
L 2766 0 
L 2766 531 
Q 2569 213 2275 61 
Q 1981 -91 1556 -91 
Q 1019 -91 701 211 
Q 384 513 384 1019 
Q 384 1609 779 1909 
Q 1175 2209 1959 2209 
L 2766 2209 
L 2766 2266 
Q 2766 2663 2505 2880 
Q 2244 3097 1772 3097 
Q 1472 3097 1187 3025 
Q 903 2953 641 2809 
L 641 3341 
Q 956 3463 1253 3523 
Q 1550 3584 1831 3584 
Q 2591 3584 2966 3190 
Q 3341 2797 3341 1997 
z
" transform="scale(0.015625)"/>
       <path id="DejaVuSans-2d" d="M 313 2009 
L 1997 2009 
L 1997 1497 
L 313 1497 
L 313 2009 
z
" transform="scale(0.015625)"/>
       <path id="DejaVuSans-65" d="M 3597 1894 
L 3597 1613 
L 953 1613 
Q 991 1019 1311 708 
Q 1631 397 2203 397 
Q 2534 397 2845 478 
Q 3156 559 3463 722 
L 3463 178 
Q 3153 47 2828 -22 
Q 2503 -91 2169 -91 
Q 1331 -91 842 396 
Q 353 884 353 1716 
Q 353 2575 817 3079 
Q 1281 3584 2069 3584 
Q 2775 3584 3186 3129 
Q 3597 2675 3597 1894 
z
M 3022 2063 
Q 3016 2534 2758 2815 
Q 2500 3097 2075 3097 
Q 1594 3097 1305 2825 
Q 1016 2553 972 2059 
L 3022 2063 
z
" transform="scale(0.015625)"/>
       <path id="DejaVuSans-64" d="M 2906 2969 
L 2906 4863 
L 3481 4863 
L 3481 0 
L 2906 0 
L 2906 525 
Q 2725 213 2448 61 
Q 2172 -91 1784 -91 
Q 1150 -91 751 415 
Q 353 922 353 1747 
Q 353 2572 751 3078 
Q 1150 3584 1784 3584 
Q 2172 3584 2448 3432 
Q 2725 3281 2906 2969 
z
M 947 1747 
Q 947 1113 1208 752 
Q 1469 391 1925 391 
Q 2381 391 2643 752 
Q 2906 1113 2906 1747 
Q 2906 2381 2643 2742 
Q 2381 3103 1925 3103 
Q 1469 3103 1208 2742 
Q 947 2381 947 1747 
z
" transform="scale(0.015625)"/>
       <path id="DejaVuSans-67" d="M 2906 1791 
Q 2906 2416 2648 2759 
Q 2391 3103 1925 3103 
Q 1463 3103 1205 2759 
Q 947 2416 947 1791 
Q 947 1169 1205 825 
Q 1463 481 1925 481 
Q 2391 481 2648 825 
Q 2906 1169 2906 1791 
z
M 3481 434 
Q 3481 -459 3084 -895 
Q 2688 -1331 1869 -1331 
Q 1566 -1331 1297 -1286 
Q 1028 -1241 775 -1147 
L 775 -588 
Q 1028 -725 1275 -790 
Q 1522 -856 1778 -856 
Q 2344 -856 2625 -561 
Q 2906 -266 2906 331 
L 2906 616 
Q 2728 306 2450 153 
Q 2172 0 1784 0 
Q 1141 0 747 490 
Q 353 981 353 1791 
Q 353 2603 747 3093 
Q 1141 3584 1784 3584 
Q 2172 3584 2450 3431 
Q 2728 3278 2906 2969 
L 2906 3500 
L 3481 3500 
L 3481 434 
z
" transform="scale(0.015625)"/>
       <path id="DejaVuSans-28" d="M 1984 4856 
Q 1566 4138 1362 3434 
Q 1159 2731 1159 2009 
Q 1159 1288 1364 580 
Q 1569 -128 1984 -844 
L 1484 -844 
Q 1016 -109 783 600 
Q 550 1309 550 2009 
Q 550 2706 781 3412 
Q 1013 4119 1484 4856 
L 1984 4856 
z
" transform="scale(0.015625)"/>
       <path id="DejaVuSans-Oblique-3b1" d="M 2619 1628 
L 2622 2350 
Q 2625 3088 2069 3091 
Q 1653 3094 1394 2747 
Q 1069 2319 959 1747 
Q 825 1059 994 731 
Q 1169 397 1547 397 
Q 1966 397 2319 1063 
L 2619 1628 
z
M 2166 3578 
Q 3141 3594 3128 2584 
Q 3128 2584 3616 3500 
L 4128 3500 
L 3119 1603 
L 3109 919 
Q 3109 766 3194 638 
Q 3291 488 3391 488 
L 3669 488 
L 3575 0 
L 3228 0 
Q 2934 0 2722 263 
Q 2622 394 2619 669 
Q 2416 334 2066 50 
Q 1900 -81 1453 -78 
Q 722 -72 456 397 
Q 184 884 353 1747 
Q 534 2675 1009 3097 
Q 1544 3569 2166 3578 
z
" transform="scale(0.015625)"/>
       <path id="DejaVuSans-29" d="M 513 4856 
L 1013 4856 
Q 1481 4119 1714 3412 
Q 1947 2706 1947 2009 
Q 1947 1309 1714 600 
Q 1481 -109 1013 -844 
L 513 -844 
Q 928 -128 1133 580 
Q 1338 1288 1338 2009 
Q 1338 2731 1133 3434 
Q 928 4138 513 4856 
z
" transform="scale(0.015625)"/>
      </defs>
      <use xlink:href="#DejaVuSans-43" transform="translate(0 0.015625)"/>
      <use xlink:href="#DejaVuSans-6f" transform="translate(69.824219 0.015625)"/>
      <use xlink:href="#DejaVuSans-6e" transform="translate(131.005859 0.015625)"/>
      <use xlink:href="#DejaVuSans-73" transform="translate(194.384766 0.015625)"/>
      <use xlink:href="#DejaVuSans-74" transform="translate(246.484375 0.015625)"/>
      <use xlink:href="#DejaVuSans-61" transform="translate(285.693359 0.015625)"/>
      <use xlink:href="#DejaVuSans-6e" transform="translate(346.972656 0.015625)"/>
      <use xlink:href="#DejaVuSans-74" transform="translate(410.351562 0.015625)"/>
      <use xlink:href="#DejaVuSans-2d" transform="translate(449.560547 0.015625)"/>
      <use xlink:href="#DejaVuSans-65" transform="translate(485.644531 0.015625)"/>
      <use xlink:href="#DejaVuSans-64" transform="translate(547.167969 0.015625)"/>
      <use xlink:href="#DejaVuSans-67" transform="translate(610.644531 0.015625)"/>
      <use xlink:href="#DejaVuSans-65" transform="translate(674.121094 0.015625)"/>
      <use xlink:href="#DejaVuSans-20" transform="translate(735.644531 0.015625)"/>
      <use xlink:href="#DejaVuSans-28" transform="translate(767.431641 0.015625)"/>
      <use xlink:href="#DejaVuSans-Oblique-3b1" transform="translate(806.445312 0.015625)"/>
      <use xlink:href="#DejaVuSans-20" transform="translate(872.363281 0.015625)"/>
      <use xlink:href="#DejaVuSans-3d" transform="translate(904.150391 0.015625)"/>
      <use xlink:href="#DejaVuSans-20" transform="translate(987.939453 0.015625)"/>
      <use xlink:href="#DejaVuSans-30" transform="translate(1019.726562 0.015625)"/>
      <use xlink:href="#DejaVuSans-2e" transform="translate(1083.349609 0.015625)"/>
      <use xlink:href="#DejaVuSans-34" transform="translate(1115.136719 0.015625)"/>
      <use xlink:href="#DejaVuSans-30" transform="translate(1178.759766 0.015625)"/>
      <use xlink:href="#DejaVuSans-30" transform="translate(1242.382812 0.015625)"/>
      <use xlink:href="#DejaVuSans-29" transform="translate(1306.005859 0.015625)"/>
     </g>
    </g>
    <g id="line2d_38">
     <path d="M 64.584 84.238125 
L 74.584 84.238125 
L 84.584 84.238125 
" style="fill: none; stroke: #2ca02c; stroke-width: 2; stroke-linecap: square"/>
     <g>
      <use xlink:href="#m7d72885d16" x="74.584" y="84.238125" style="fill: #2ca02c; stroke: #2ca02c; stroke-linejoin: miter"/>
     </g>
    </g>
    <g id="text_17">
     <!-- Maximum-degree ($\alpha$ = 0.333) -->
     <g transform="translate(92.584 87.738125) scale(0.1 -0.1)">
      <defs>
       <path id="DejaVuSans-4d" d="M 628 4666 
L 1569 4666 
L 2759 1491 
L 3956 4666 
L 4897 4666 
L 4897 0 
L 4281 0 
L 4281 4097 
L 3078 897 
L 2444 897 
L 1241 4097 
L 1241 0 
L 628 0 
L 628 4666 
z
" transform="scale(0.015625)"/>
       <path id="DejaVuSans-78" d="M 3513 3500 
L 2247 1797 
L 3578 0 
L 2900 0 
L 1881 1375 
L 863 0 
L 184 0 
L 1544 1831 
L 300 3500 
L 978 3500 
L 1906 2253 
L 2834 3500 
L 3513 3500 
z
" transform="scale(0.015625)"/>
       <path id="DejaVuSans-69" d="M 603 3500 
L 1178 3500 
L 1178 0 
L 603 0 
L 603 3500 
z
M 603 4863 
L 1178 4863 
L 1178 4134 
L 603 4134 
L 603 4863 
z
" transform="scale(0.015625)"/>
       <path id="DejaVuSans-6d" d="M 3328 2828 
Q 3544 3216 3844 3400 
Q 4144 3584 4550 3584 
Q 5097 3584 5394 3201 
Q 5691 2819 5691 2113 
L 5691 0 
L 5113 0 
L 5113 2094 
Q 5113 2597 4934 2840 
Q 4756 3084 4391 3084 
Q 3944 3084 3684 2787 
Q 3425 2491 3425 1978 
L 3425 0 
L 2847 0 
L 2847 2094 
Q 2847 2600 2669 2842 
Q 2491 3084 2119 3084 
Q 1678 3084 1418 2786 
Q 1159 2488 1159 1978 
L 1159 0 
L 581 0 
L 581 3500 
L 1159 3500 
L 1159 2956 
Q 1356 3278 1631 3431 
Q 1906 3584 2284 3584 
Q 2666 3584 2933 3390 
Q 3200 3197 3328 2828 
z
" transform="scale(0.015625)"/>
       <path id="DejaVuSans-75" d="M 544 1381 
L 544 3500 
L 1119 3500 
L 1119 1403 
Q 1119 906 1312 657 
Q 1506 409 1894 409 
Q 2359 409 2629 706 
Q 2900 1003 2900 1516 
L 2900 3500 
L 3475 3500 
L 3475 0 
L 2900 0 
L 2900 538 
Q 2691 219 2414 64 
Q 2138 -91 1772 -91 
Q 1169 -91 856 284 
Q 544 659 544 1381 
z
M 1991 3584 
L 1991 3584 
z
" transform="scale(0.015625)"/>
       <path id="DejaVuSans-72" d="M 2631 2963 
Q 2534 3019 2420 3045 
Q 2306 3072 2169 3072 
Q 1681 3072 1420 2755 
Q 1159 2438 1159 1844 
L 1159 0 
L 581 0 
L 581 3500 
L 1159 3500 
L 1159 2956 
Q 1341 3275 1631 3429 
Q 1922 3584 2338 3584 
Q 2397 3584 2469 3576 
Q 2541 3569 2628 3553 
L 2631 2963 
z
" transform="scale(0.015625)"/>
      </defs>
      <use xlink:href="#DejaVuSans-4d" transform="translate(0 0.015625)"/>
      <use xlink:href="#DejaVuSans-61" transform="translate(86.279297 0.015625)"/>
      <use xlink:href="#DejaVuSans-78" transform="translate(147.558594 0.015625)"/>
      <use xlink:href="#DejaVuSans-69" transform="translate(206.738281 0.015625)"/>
      <use xlink:href="#DejaVuSans-6d" transform="translate(234.521484 0.015625)"/>
      <use xlink:href="#DejaVuSans-75" transform="translate(331.933594 0.015625)"/>
      <use xlink:href="#DejaVuSans-6d" transform="translate(395.3125 0.015625)"/>
      <use xlink:href="#DejaVuSans-2d" transform="translate(490.974609 0.015625)"/>
      <use xlink:href="#DejaVuSans-64" transform="translate(527.058594 0.015625)"/>
      <use xlink:href="#DejaVuSans-65" transform="translate(590.535156 0.015625)"/>
      <use xlink:href="#DejaVuSans-67" transform="translate(652.058594 0.015625)"/>
      <use xlink:href="#DejaVuSans-72" transform="translate(715.535156 0.015625)"/>
      <use xlink:href="#DejaVuSans-65" transform="translate(756.648438 0.015625)"/>
      <use xlink:href="#DejaVuSans-65" transform="translate(818.171875 0.015625)"/>
      <use xlink:href="#DejaVuSans-20" transform="translate(879.695312 0.015625)"/>
      <use xlink:href="#DejaVuSans-28" transform="translate(911.482422 0.015625)"/>
      <use xlink:href="#DejaVuSans-Oblique-3b1" transform="translate(950.496094 0.015625)"/>
      <use xlink:href="#DejaVuSans-20" transform="translate(1016.414062 0.015625)"/>
      <use xlink:href="#DejaVuSans-3d" transform="translate(1048.201172 0.015625)"/>
      <use xlink:href="#DejaVuSans-20" transform="translate(1131.990234 0.015625)"/>
      <use xlink:href="#DejaVuSans-30" transform="translate(1163.777344 0.015625)"/>
      <use xlink:href="#DejaVuSans-2e" transform="translate(1227.400391 0.015625)"/>
      <use xlink:href="#DejaVuSans-33" transform="translate(1259.1875 0.015625)"/>
      <use xlink:href="#DejaVuSans-33" transform="translate(1322.810547 0.015625)"/>
      <use xlink:href="#DejaVuSans-33" transform="translate(1386.433594 0.015625)"/>
      <use xlink:href="#DejaVuSans-29" transform="translate(1450.056641 0.015625)"/>
     </g>
    </g>
    <g id="line2d_39">
     <path d="M 64.584 98.936562 
L 74.584 98.936562 
L 84.584 98.936562 
" style="fill: none; stroke: #d62728; stroke-width: 2; stroke-linecap: square"/>
     <g>
      <use xlink:href="#m8b587db820" x="74.584" y="98.936562" style="fill: #d62728; stroke: #d62728"/>
     </g>
    </g>
    <g id="text_18">
     <!-- Local-degree -->
     <g transform="translate(92.584 102.436562) scale(0.1 -0.1)">
      <defs>
       <path id="DejaVuSans-4c" d="M 628 4666 
L 1259 4666 
L 1259 531 
L 3531 531 
L 3531 0 
L 628 0 
L 628 4666 
z
" transform="scale(0.015625)"/>
       <path id="DejaVuSans-63" d="M 3122 3366 
L 3122 2828 
Q 2878 2963 2633 3030 
Q 2388 3097 2138 3097 
Q 1578 3097 1268 2742 
Q 959 2388 959 1747 
Q 959 1106 1268 751 
Q 1578 397 2138 397 
Q 2388 397 2633 464 
Q 2878 531 3122 666 
L 3122 134 
Q 2881 22 2623 -34 
Q 2366 -91 2075 -91 
Q 1284 -91 818 406 
Q 353 903 353 1747 
Q 353 2603 823 3093 
Q 1294 3584 2113 3584 
Q 2378 3584 2631 3529 
Q 2884 3475 3122 3366 
z
" transform="scale(0.015625)"/>
       <path id="DejaVuSans-6c" d="M 603 4863 
L 1178 4863 
L 1178 0 
L 603 0 
L 603 4863 
z
" transform="scale(0.015625)"/>
      </defs>
      <use xlink:href="#DejaVuSans-4c"/>
      <use xlink:href="#DejaVuSans-6f" x="53.962891"/>
      <use xlink:href="#DejaVuSans-63" x="115.144531"/>
      <use xlink:href="#DejaVuSans-61" x="170.125"/>
      <use xlink:href="#DejaVuSans-6c" x="231.404297"/>
      <use xlink:href="#DejaVuSans-2d" x="259.1875"/>
      <use xlink:href="#DejaVuSans-64" x="295.271484"/>
      <use xlink:href="#DejaVuSans-65" x="358.748047"/>
      <use xlink:href="#DejaVuSans-67" x="420.271484"/>
      <use xlink:href="#DejaVuSans-72" x="483.748047"/>
      <use xlink:href="#DejaVuSans-65" x="522.611328"/>
      <use xlink:href="#DejaVuSans-65" x="584.134766"/>
     </g>
    </g>
    <g id="line2d_40">
     <path d="M 64.584 113.614687 
L 74.584 113.614687 
L 84.584 113.614687 
" style="fill: none; stroke: #9467bd; stroke-width: 2; stroke-linecap: square"/>
     <g>
      <use xlink:href="#m98666a471c" x="74.584" y="113.614687" style="fill: #9467bd; stroke: #9467bd; stroke-linejoin: miter"/>
     </g>
    </g>
    <g id="text_19">
     <!-- FMMC -->
     <g transform="translate(92.584 117.114687) scale(0.1 -0.1)">
      <defs>
       <path id="DejaVuSans-46" d="M 628 4666 
L 3309 4666 
L 3309 4134 
L 1259 4134 
L 1259 2759 
L 3109 2759 
L 3109 2228 
L 1259 2228 
L 1259 0 
L 628 0 
L 628 4666 
z
" transform="scale(0.015625)"/>
      </defs>
      <use xlink:href="#DejaVuSans-46"/>
      <use xlink:href="#DejaVuSans-4d" x="57.519531"/>
      <use xlink:href="#DejaVuSans-4d" x="143.798828"/>
      <use xlink:href="#DejaVuSans-43" x="230.078125"/>
     </g>
    </g>
    <g id="line2d_41">
     <path d="M 64.584 128.292812 
L 74.584 128.292812 
L 84.584 128.292812 
" style="fill: none; stroke: #8c564b; stroke-width: 2; stroke-linecap: square"/>
     <g>
      <use xlink:href="#m69fc01e3bd" x="74.584" y="128.292812" style="fill: #8c564b; stroke: #8c564b; stroke-linejoin: miter"/>
     </g>
    </g>
    <g id="text_20">
     <!-- FDLA -->
     <g transform="translate(92.584 131.792812) scale(0.1 -0.1)">
      <defs>
       <path id="DejaVuSans-44" d="M 1259 4147 
L 1259 519 
L 2022 519 
Q 2988 519 3436 956 
Q 3884 1394 3884 2338 
Q 3884 3275 3436 3711 
Q 2988 4147 2022 4147 
L 1259 4147 
z
M 628 4666 
L 1925 4666 
Q 3281 4666 3915 4102 
Q 4550 3538 4550 2338 
Q 4550 1131 3912 565 
Q 3275 0 1925 0 
L 628 0 
L 628 4666 
z
" transform="scale(0.015625)"/>
       <path id="DejaVuSans-41" d="M 2188 4044 
L 1331 1722 
L 3047 1722 
L 2188 4044 
z
M 1831 4666 
L 2547 4666 
L 4325 0 
L 3669 0 
L 3244 1197 
L 1141 1197 
L 716 0 
L 50 0 
L 1831 4666 
z
" transform="scale(0.015625)"/>
      </defs>
      <use xlink:href="#DejaVuSans-46"/>
      <use xlink:href="#DejaVuSans-44" x="57.519531"/>
      <use xlink:href="#DejaVuSans-4c" x="134.521484"/>
      <use xlink:href="#DejaVuSans-41" x="192.484375"/>
     </g>
    </g>
    <g id="line2d_42">
     <path d="M 64.584 142.970937 
L 74.584 142.970937 
L 84.584 142.970937 
" style="fill: none; stroke: #e377c2; stroke-width: 2; stroke-linecap: square"/>
     <g>
      <use xlink:href="#m4a02af2a4d" x="74.584" y="142.970937" style="fill: #e377c2; stroke: #e377c2"/>
     </g>
    </g>
    <g id="text_21">
     <!-- OPT -->
     <g transform="translate(92.584 146.470937) scale(0.1 -0.1)">
      <defs>
       <path id="DejaVuSans-4f" d="M 2522 4238 
Q 1834 4238 1429 3725 
Q 1025 3213 1025 2328 
Q 1025 1447 1429 934 
Q 1834 422 2522 422 
Q 3209 422 3611 934 
Q 4013 1447 4013 2328 
Q 4013 3213 3611 3725 
Q 3209 4238 2522 4238 
z
M 2522 4750 
Q 3503 4750 4090 4092 
Q 4678 3434 4678 2328 
Q 4678 1225 4090 567 
Q 3503 -91 2522 -91 
Q 1538 -91 948 565 
Q 359 1222 359 2328 
Q 359 3434 948 4092 
Q 1538 4750 2522 4750 
z
" transform="scale(0.015625)"/>
       <path id="DejaVuSans-50" d="M 1259 4147 
L 1259 2394 
L 2053 2394 
Q 2494 2394 2734 2622 
Q 2975 2850 2975 3272 
Q 2975 3691 2734 3919 
Q 2494 4147 2053 4147 
L 1259 4147 
z
M 628 4666 
L 2053 4666 
Q 2838 4666 3239 4311 
Q 3641 3956 3641 3272 
Q 3641 2581 3239 2228 
Q 2838 1875 2053 1875 
L 1259 1875 
L 1259 0 
L 628 0 
L 628 4666 
z
" transform="scale(0.015625)"/>
       <path id="DejaVuSans-54" d="M -19 4666 
L 3928 4666 
L 3928 4134 
L 2272 4134 
L 2272 0 
L 1638 0 
L 1638 4134 
L -19 4134 
L -19 4666 
z
" transform="scale(0.015625)"/>
      </defs>
      <use xlink:href="#DejaVuSans-4f"/>
      <use xlink:href="#DejaVuSans-50" x="78.710938"/>
      <use xlink:href="#DejaVuSans-54" x="139.013672"/>
     </g>
    </g>
   </g>
  </g>
  <g id="text_22">
   <!-- Tadpole network, 50000 runs, 1000 timesteps, 5 arms, 4 agents -->
   <g transform="translate(35.913375 16.318125) scale(0.12 -0.12)">
    <defs>
     <path id="DejaVuSans-70" d="M 1159 525 
L 1159 -1331 
L 581 -1331 
L 581 3500 
L 1159 3500 
L 1159 2969 
Q 1341 3281 1617 3432 
Q 1894 3584 2278 3584 
Q 2916 3584 3314 3078 
Q 3713 2572 3713 1747 
Q 3713 922 3314 415 
Q 2916 -91 2278 -91 
Q 1894 -91 1617 61 
Q 1341 213 1159 525 
z
M 3116 1747 
Q 3116 2381 2855 2742 
Q 2594 3103 2138 3103 
Q 1681 3103 1420 2742 
Q 1159 2381 1159 1747 
Q 1159 1113 1420 752 
Q 1681 391 2138 391 
Q 2594 391 2855 752 
Q 3116 1113 3116 1747 
z
" transform="scale(0.015625)"/>
     <path id="DejaVuSans-77" d="M 269 3500 
L 844 3500 
L 1563 769 
L 2278 3500 
L 2956 3500 
L 3675 769 
L 4391 3500 
L 4966 3500 
L 4050 0 
L 3372 0 
L 2619 2869 
L 1863 0 
L 1184 0 
L 269 3500 
z
" transform="scale(0.015625)"/>
     <path id="DejaVuSans-6b" d="M 581 4863 
L 1159 4863 
L 1159 1991 
L 2875 3500 
L 3609 3500 
L 1753 1863 
L 3688 0 
L 2938 0 
L 1159 1709 
L 1159 0 
L 581 0 
L 581 4863 
z
" transform="scale(0.015625)"/>
     <path id="DejaVuSans-2c" d="M 750 794 
L 1409 794 
L 1409 256 
L 897 -744 
L 494 -744 
L 750 256 
L 750 794 
z
" transform="scale(0.015625)"/>
    </defs>
    <use xlink:href="#DejaVuSans-54"/>
    <use xlink:href="#DejaVuSans-61" x="44.583984"/>
    <use xlink:href="#DejaVuSans-64" x="105.863281"/>
    <use xlink:href="#DejaVuSans-70" x="169.339844"/>
    <use xlink:href="#DejaVuSans-6f" x="232.816406"/>
    <use xlink:href="#DejaVuSans-6c" x="293.998047"/>
    <use xlink:href="#DejaVuSans-65" x="321.78125"/>
    <use xlink:href="#DejaVuSans-20" x="383.304688"/>
    <use xlink:href="#DejaVuSans-6e" x="415.091797"/>
    <use xlink:href="#DejaVuSans-65" x="478.470703"/>
    <use xlink:href="#DejaVuSans-74" x="539.994141"/>
    <use xlink:href="#DejaVuSans-77" x="579.203125"/>
    <use xlink:href="#DejaVuSans-6f" x="660.990234"/>
    <use xlink:href="#DejaVuSans-72" x="722.171875"/>
    <use xlink:href="#DejaVuSans-6b" x="763.285156"/>
    <use xlink:href="#DejaVuSans-2c" x="821.195312"/>
    <use xlink:href="#DejaVuSans-20" x="852.982422"/>
    <use xlink:href="#DejaVuSans-35" x="884.769531"/>
    <use xlink:href="#DejaVuSans-30" x="948.392578"/>
    <use xlink:href="#DejaVuSans-30" x="1012.015625"/>
    <use xlink:href="#DejaVuSans-30" x="1075.638672"/>
    <use xlink:href="#DejaVuSans-30" x="1139.261719"/>
    <use xlink:href="#DejaVuSans-20" x="1202.884766"/>
    <use xlink:href="#DejaVuSans-72" x="1234.671875"/>
    <use xlink:href="#DejaVuSans-75" x="1275.785156"/>
    <use xlink:href="#DejaVuSans-6e" x="1339.164062"/>
    <use xlink:href="#DejaVuSans-73" x="1402.542969"/>
    <use xlink:href="#DejaVuSans-2c" x="1454.642578"/>
    <use xlink:href="#DejaVuSans-20" x="1486.429688"/>
    <use xlink:href="#DejaVuSans-31" x="1518.216797"/>
    <use xlink:href="#DejaVuSans-30" x="1581.839844"/>
    <use xlink:href="#DejaVuSans-30" x="1645.462891"/>
    <use xlink:href="#DejaVuSans-30" x="1709.085938"/>
    <use xlink:href="#DejaVuSans-20" x="1772.708984"/>
    <use xlink:href="#DejaVuSans-74" x="1804.496094"/>
    <use xlink:href="#DejaVuSans-69" x="1843.705078"/>
    <use xlink:href="#DejaVuSans-6d" x="1871.488281"/>
    <use xlink:href="#DejaVuSans-65" x="1968.900391"/>
    <use xlink:href="#DejaVuSans-73" x="2030.423828"/>
    <use xlink:href="#DejaVuSans-74" x="2082.523438"/>
    <use xlink:href="#DejaVuSans-65" x="2121.732422"/>
    <use xlink:href="#DejaVuSans-70" x="2183.255859"/>
    <use xlink:href="#DejaVuSans-73" x="2246.732422"/>
    <use xlink:href="#DejaVuSans-2c" x="2298.832031"/>
    <use xlink:href="#DejaVuSans-20" x="2330.619141"/>
    <use xlink:href="#DejaVuSans-35" x="2362.40625"/>
    <use xlink:href="#DejaVuSans-20" x="2426.029297"/>
    <use xlink:href="#DejaVuSans-61" x="2457.816406"/>
    <use xlink:href="#DejaVuSans-72" x="2519.095703"/>
    <use xlink:href="#DejaVuSans-6d" x="2558.458984"/>
    <use xlink:href="#DejaVuSans-73" x="2655.871094"/>
    <use xlink:href="#DejaVuSans-2c" x="2707.970703"/>
    <use xlink:href="#DejaVuSans-20" x="2739.757812"/>
    <use xlink:href="#DejaVuSans-34" x="2771.544922"/>
    <use xlink:href="#DejaVuSans-20" x="2835.167969"/>
    <use xlink:href="#DejaVuSans-61" x="2866.955078"/>
    <use xlink:href="#DejaVuSans-67" x="2928.234375"/>
    <use xlink:href="#DejaVuSans-65" x="2991.710938"/>
    <use xlink:href="#DejaVuSans-6e" x="3053.234375"/>
    <use xlink:href="#DejaVuSans-74" x="3116.613281"/>
    <use xlink:href="#DejaVuSans-73" x="3155.822266"/>
   </g>
  </g>
  <g id="text_23">
   <!-- Timesteps -->
   <g transform="translate(197.599313 339.936375) scale(0.12 -0.12)">
    <use xlink:href="#DejaVuSans-54"/>
    <use xlink:href="#DejaVuSans-69" x="57.958984"/>
    <use xlink:href="#DejaVuSans-6d" x="85.742188"/>
    <use xlink:href="#DejaVuSans-65" x="183.154297"/>
    <use xlink:href="#DejaVuSans-73" x="244.677734"/>
    <use xlink:href="#DejaVuSans-74" x="296.777344"/>
    <use xlink:href="#DejaVuSans-65" x="335.986328"/>
    <use xlink:href="#DejaVuSans-70" x="397.509766"/>
    <use xlink:href="#DejaVuSans-73" x="460.986328"/>
   </g>
  </g>
  <g id="text_24">
   <!-- Regret -->
   <g transform="translate(16.318125 192.863625) rotate(-90) scale(0.12 -0.12)">
    <defs>
     <path id="DejaVuSans-52" d="M 2841 2188 
Q 3044 2119 3236 1894 
Q 3428 1669 3622 1275 
L 4263 0 
L 3584 0 
L 2988 1197 
Q 2756 1666 2539 1819 
Q 2322 1972 1947 1972 
L 1259 1972 
L 1259 0 
L 628 0 
L 628 4666 
L 2053 4666 
Q 2853 4666 3247 4331 
Q 3641 3997 3641 3322 
Q 3641 2881 3436 2590 
Q 3231 2300 2841 2188 
z
M 1259 4147 
L 1259 2491 
L 2053 2491 
Q 2509 2491 2742 2702 
Q 2975 2913 2975 3322 
Q 2975 3731 2742 3939 
Q 2509 4147 2053 4147 
L 1259 4147 
z
" transform="scale(0.015625)"/>
    </defs>
    <use xlink:href="#DejaVuSans-52"/>
    <use xlink:href="#DejaVuSans-65" x="64.982422"/>
    <use xlink:href="#DejaVuSans-67" x="126.505859"/>
    <use xlink:href="#DejaVuSans-72" x="189.982422"/>
    <use xlink:href="#DejaVuSans-65" x="228.845703"/>
    <use xlink:href="#DejaVuSans-74" x="290.369141"/>
   </g>
  </g>
 </g>
 <defs>
  <clipPath id="p20c5b5e229">
   <rect x="55.584" y="41.76" width="357.12" height="266.112"/>
  </clipPath>
 </defs>
</svg>
