<?xml version="1.0" encoding="utf-8" standalone="no"?>
<!DOCTYPE svg PUBLIC "-//W3C//DTD SVG 1.1//EN"
  "http://www.w3.org/Graphics/SVG/1.1/DTD/svg11.dtd">
<svg xmlns:xlink="http://www.w3.org/1999/xlink" width="421.811252pt" height="368.824pt" viewBox="0 0 421.811252 368.824" xmlns="http://www.w3.org/2000/svg" version="1.1">
 <metadata>
  <rdf:RDF xmlns:dc="http://purl.org/dc/elements/1.1/" xmlns:cc="http://creativecommons.org/ns#" xmlns:rdf="http://www.w3.org/1999/02/22-rdf-syntax-ns#">
   <cc:Work>
    <dc:type rdf:resource="http://purl.org/dc/dcmitype/StillImage"/>
    <dc:date>2024-06-12T13:09:58.430850</dc:date>
    <dc:format>image/svg+xml</dc:format>
    <dc:creator>
     <cc:Agent>
      <dc:title>Matplotlib v3.9.0, https://matplotlib.org/</dc:title>
     </cc:Agent>
    </dc:creator>
   </cc:Work>
  </rdf:RDF>
 </metadata>
 <defs>
  <style type="text/css">*{stroke-linejoin: round; stroke-linecap: butt}</style>
 </defs>
 <g id="figure_1">
  <g id="patch_1">
   <path d="M 0 368.824 
L 421.811252 368.824 
L 421.811252 0 
L 0 0 
z
" style="fill: #ffffff"/>
  </g>
  <g id="axes_1">
   <g id="patch_2">
    <path d="M 55.584 327.064 
L 412.704 327.064 
L 412.704 60.952 
L 55.584 60.952 
z
" style="fill: #ffffff"/>
   </g>
   <g id="matplotlib.axis_1">
    <g id="xtick_1">
     <g id="line2d_1">
      <path d="M 71.816727 327.064 
L 71.816727 60.952 
" clip-path="url(#pde5467c73c)" style="fill: none; stroke: #b0b0b0; stroke-width: 0.8; stroke-linecap: square"/>
     </g>
     <g id="line2d_2">
      <defs>
       <path id="m4efe5c9e07" d="M 0 0 
L 0 3.5 
" style="stroke: #000000; stroke-width: 0.8"/>
      </defs>
      <g>
       <use xlink:href="#m4efe5c9e07" x="71.816727" y="327.064" style="stroke: #000000; stroke-width: 0.8"/>
      </g>
     </g>
     <g id="text_1">
      <!-- 0 -->
      <g transform="translate(67.362977 344.701812) scale(0.14 -0.14)">
       <defs>
        <path id="DejaVuSans-30" d="M 2034 4250 
Q 1547 4250 1301 3770 
Q 1056 3291 1056 2328 
Q 1056 1369 1301 889 
Q 1547 409 2034 409 
Q 2525 409 2770 889 
Q 3016 1369 3016 2328 
Q 3016 3291 2770 3770 
Q 2525 4250 2034 4250 
z
M 2034 4750 
Q 2819 4750 3233 4129 
Q 3647 3509 3647 2328 
Q 3647 1150 3233 529 
Q 2819 -91 2034 -91 
Q 1250 -91 836 529 
Q 422 1150 422 2328 
Q 422 3509 836 4129 
Q 1250 4750 2034 4750 
z
" transform="scale(0.015625)"/>
       </defs>
       <use xlink:href="#DejaVuSans-30"/>
      </g>
     </g>
    </g>
    <g id="xtick_2">
     <g id="line2d_3">
      <path d="M 136.812632 327.064 
L 136.812632 60.952 
" clip-path="url(#pde5467c73c)" style="fill: none; stroke: #b0b0b0; stroke-width: 0.8; stroke-linecap: square"/>
     </g>
     <g id="line2d_4">
      <g>
       <use xlink:href="#m4efe5c9e07" x="136.812632" y="327.064" style="stroke: #000000; stroke-width: 0.8"/>
      </g>
     </g>
     <g id="text_2">
      <!-- 200 -->
      <g transform="translate(123.451382 344.701812) scale(0.14 -0.14)">
       <defs>
        <path id="DejaVuSans-32" d="M 1228 531 
L 3431 531 
L 3431 0 
L 469 0 
L 469 531 
Q 828 903 1448 1529 
Q 2069 2156 2228 2338 
Q 2531 2678 2651 2914 
Q 2772 3150 2772 3378 
Q 2772 3750 2511 3984 
Q 2250 4219 1831 4219 
Q 1534 4219 1204 4116 
Q 875 4013 500 3803 
L 500 4441 
Q 881 4594 1212 4672 
Q 1544 4750 1819 4750 
Q 2544 4750 2975 4387 
Q 3406 4025 3406 3419 
Q 3406 3131 3298 2873 
Q 3191 2616 2906 2266 
Q 2828 2175 2409 1742 
Q 1991 1309 1228 531 
z
" transform="scale(0.015625)"/>
       </defs>
       <use xlink:href="#DejaVuSans-32"/>
       <use xlink:href="#DejaVuSans-30" x="63.623047"/>
       <use xlink:href="#DejaVuSans-30" x="127.246094"/>
      </g>
     </g>
    </g>
    <g id="xtick_3">
     <g id="line2d_5">
      <path d="M 201.808537 327.064 
L 201.808537 60.952 
" clip-path="url(#pde5467c73c)" style="fill: none; stroke: #b0b0b0; stroke-width: 0.8; stroke-linecap: square"/>
     </g>
     <g id="line2d_6">
      <g>
       <use xlink:href="#m4efe5c9e07" x="201.808537" y="327.064" style="stroke: #000000; stroke-width: 0.8"/>
      </g>
     </g>
     <g id="text_3">
      <!-- 400 -->
      <g transform="translate(188.447287 344.701812) scale(0.14 -0.14)">
       <defs>
        <path id="DejaVuSans-34" d="M 2419 4116 
L 825 1625 
L 2419 1625 
L 2419 4116 
z
M 2253 4666 
L 3047 4666 
L 3047 1625 
L 3713 1625 
L 3713 1100 
L 3047 1100 
L 3047 0 
L 2419 0 
L 2419 1100 
L 313 1100 
L 313 1709 
L 2253 4666 
z
" transform="scale(0.015625)"/>
       </defs>
       <use xlink:href="#DejaVuSans-34"/>
       <use xlink:href="#DejaVuSans-30" x="63.623047"/>
       <use xlink:href="#DejaVuSans-30" x="127.246094"/>
      </g>
     </g>
    </g>
    <g id="xtick_4">
     <g id="line2d_7">
      <path d="M 266.804442 327.064 
L 266.804442 60.952 
" clip-path="url(#pde5467c73c)" style="fill: none; stroke: #b0b0b0; stroke-width: 0.8; stroke-linecap: square"/>
     </g>
     <g id="line2d_8">
      <g>
       <use xlink:href="#m4efe5c9e07" x="266.804442" y="327.064" style="stroke: #000000; stroke-width: 0.8"/>
      </g>
     </g>
     <g id="text_4">
      <!-- 600 -->
      <g transform="translate(253.443192 344.701812) scale(0.14 -0.14)">
       <defs>
        <path id="DejaVuSans-36" d="M 2113 2584 
Q 1688 2584 1439 2293 
Q 1191 2003 1191 1497 
Q 1191 994 1439 701 
Q 1688 409 2113 409 
Q 2538 409 2786 701 
Q 3034 994 3034 1497 
Q 3034 2003 2786 2293 
Q 2538 2584 2113 2584 
z
M 3366 4563 
L 3366 3988 
Q 3128 4100 2886 4159 
Q 2644 4219 2406 4219 
Q 1781 4219 1451 3797 
Q 1122 3375 1075 2522 
Q 1259 2794 1537 2939 
Q 1816 3084 2150 3084 
Q 2853 3084 3261 2657 
Q 3669 2231 3669 1497 
Q 3669 778 3244 343 
Q 2819 -91 2113 -91 
Q 1303 -91 875 529 
Q 447 1150 447 2328 
Q 447 3434 972 4092 
Q 1497 4750 2381 4750 
Q 2619 4750 2861 4703 
Q 3103 4656 3366 4563 
z
" transform="scale(0.015625)"/>
       </defs>
       <use xlink:href="#DejaVuSans-36"/>
       <use xlink:href="#DejaVuSans-30" x="63.623047"/>
       <use xlink:href="#DejaVuSans-30" x="127.246094"/>
      </g>
     </g>
    </g>
    <g id="xtick_5">
     <g id="line2d_9">
      <path d="M 331.800347 327.064 
L 331.800347 60.952 
" clip-path="url(#pde5467c73c)" style="fill: none; stroke: #b0b0b0; stroke-width: 0.8; stroke-linecap: square"/>
     </g>
     <g id="line2d_10">
      <g>
       <use xlink:href="#m4efe5c9e07" x="331.800347" y="327.064" style="stroke: #000000; stroke-width: 0.8"/>
      </g>
     </g>
     <g id="text_5">
      <!-- 800 -->
      <g transform="translate(318.439097 344.701812) scale(0.14 -0.14)">
       <defs>
        <path id="DejaVuSans-38" d="M 2034 2216 
Q 1584 2216 1326 1975 
Q 1069 1734 1069 1313 
Q 1069 891 1326 650 
Q 1584 409 2034 409 
Q 2484 409 2743 651 
Q 3003 894 3003 1313 
Q 3003 1734 2745 1975 
Q 2488 2216 2034 2216 
z
M 1403 2484 
Q 997 2584 770 2862 
Q 544 3141 544 3541 
Q 544 4100 942 4425 
Q 1341 4750 2034 4750 
Q 2731 4750 3128 4425 
Q 3525 4100 3525 3541 
Q 3525 3141 3298 2862 
Q 3072 2584 2669 2484 
Q 3125 2378 3379 2068 
Q 3634 1759 3634 1313 
Q 3634 634 3220 271 
Q 2806 -91 2034 -91 
Q 1263 -91 848 271 
Q 434 634 434 1313 
Q 434 1759 690 2068 
Q 947 2378 1403 2484 
z
M 1172 3481 
Q 1172 3119 1398 2916 
Q 1625 2713 2034 2713 
Q 2441 2713 2670 2916 
Q 2900 3119 2900 3481 
Q 2900 3844 2670 4047 
Q 2441 4250 2034 4250 
Q 1625 4250 1398 4047 
Q 1172 3844 1172 3481 
z
" transform="scale(0.015625)"/>
       </defs>
       <use xlink:href="#DejaVuSans-38"/>
       <use xlink:href="#DejaVuSans-30" x="63.623047"/>
       <use xlink:href="#DejaVuSans-30" x="127.246094"/>
      </g>
     </g>
    </g>
    <g id="xtick_6">
     <g id="line2d_11">
      <path d="M 396.796252 327.064 
L 396.796252 60.952 
" clip-path="url(#pde5467c73c)" style="fill: none; stroke: #b0b0b0; stroke-width: 0.8; stroke-linecap: square"/>
     </g>
     <g id="line2d_12">
      <g>
       <use xlink:href="#m4efe5c9e07" x="396.796252" y="327.064" style="stroke: #000000; stroke-width: 0.8"/>
      </g>
     </g>
     <g id="text_6">
      <!-- 1000 -->
      <g transform="translate(378.981252 344.701812) scale(0.14 -0.14)">
       <defs>
        <path id="DejaVuSans-31" d="M 794 531 
L 1825 531 
L 1825 4091 
L 703 3866 
L 703 4441 
L 1819 4666 
L 2450 4666 
L 2450 531 
L 3481 531 
L 3481 0 
L 794 0 
L 794 531 
z
" transform="scale(0.015625)"/>
       </defs>
       <use xlink:href="#DejaVuSans-31"/>
       <use xlink:href="#DejaVuSans-30" x="63.623047"/>
       <use xlink:href="#DejaVuSans-30" x="127.246094"/>
       <use xlink:href="#DejaVuSans-30" x="190.869141"/>
      </g>
     </g>
    </g>
   </g>
   <g id="matplotlib.axis_2">
    <g id="ytick_1">
     <g id="line2d_13">
      <path d="M 55.584 314.968 
L 412.704 314.968 
" clip-path="url(#pde5467c73c)" style="fill: none; stroke: #b0b0b0; stroke-width: 0.8; stroke-linecap: square"/>
     </g>
     <g id="line2d_14">
      <defs>
       <path id="m0c97e1f8e4" d="M 0 0 
L -3.5 0 
" style="stroke: #000000; stroke-width: 0.8"/>
      </defs>
      <g>
       <use xlink:href="#m0c97e1f8e4" x="55.584" y="314.968" style="stroke: #000000; stroke-width: 0.8"/>
      </g>
     </g>
     <g id="text_7">
      <!-- 0 -->
      <g transform="translate(39.6765 320.286906) scale(0.14 -0.14)">
       <use xlink:href="#DejaVuSans-30"/>
      </g>
     </g>
    </g>
    <g id="ytick_2">
     <g id="line2d_15">
      <path d="M 55.584 284.60787 
L 412.704 284.60787 
" clip-path="url(#pde5467c73c)" style="fill: none; stroke: #b0b0b0; stroke-width: 0.8; stroke-linecap: square"/>
     </g>
     <g id="line2d_16">
      <g>
       <use xlink:href="#m0c97e1f8e4" x="55.584" y="284.60787" style="stroke: #000000; stroke-width: 0.8"/>
      </g>
     </g>
     <g id="text_8">
      <!-- 2 -->
      <g transform="translate(39.6765 289.926776) scale(0.14 -0.14)">
       <use xlink:href="#DejaVuSans-32"/>
      </g>
     </g>
    </g>
    <g id="ytick_3">
     <g id="line2d_17">
      <path d="M 55.584 254.24774 
L 412.704 254.24774 
" clip-path="url(#pde5467c73c)" style="fill: none; stroke: #b0b0b0; stroke-width: 0.8; stroke-linecap: square"/>
     </g>
     <g id="line2d_18">
      <g>
       <use xlink:href="#m0c97e1f8e4" x="55.584" y="254.24774" style="stroke: #000000; stroke-width: 0.8"/>
      </g>
     </g>
     <g id="text_9">
      <!-- 4 -->
      <g transform="translate(39.6765 259.566646) scale(0.14 -0.14)">
       <use xlink:href="#DejaVuSans-34"/>
      </g>
     </g>
    </g>
    <g id="ytick_4">
     <g id="line2d_19">
      <path d="M 55.584 223.88761 
L 412.704 223.88761 
" clip-path="url(#pde5467c73c)" style="fill: none; stroke: #b0b0b0; stroke-width: 0.8; stroke-linecap: square"/>
     </g>
     <g id="line2d_20">
      <g>
       <use xlink:href="#m0c97e1f8e4" x="55.584" y="223.88761" style="stroke: #000000; stroke-width: 0.8"/>
      </g>
     </g>
     <g id="text_10">
      <!-- 6 -->
      <g transform="translate(39.6765 229.206516) scale(0.14 -0.14)">
       <use xlink:href="#DejaVuSans-36"/>
      </g>
     </g>
    </g>
    <g id="ytick_5">
     <g id="line2d_21">
      <path d="M 55.584 193.52748 
L 412.704 193.52748 
" clip-path="url(#pde5467c73c)" style="fill: none; stroke: #b0b0b0; stroke-width: 0.8; stroke-linecap: square"/>
     </g>
     <g id="line2d_22">
      <g>
       <use xlink:href="#m0c97e1f8e4" x="55.584" y="193.52748" style="stroke: #000000; stroke-width: 0.8"/>
      </g>
     </g>
     <g id="text_11">
      <!-- 8 -->
      <g transform="translate(39.6765 198.846386) scale(0.14 -0.14)">
       <use xlink:href="#DejaVuSans-38"/>
      </g>
     </g>
    </g>
    <g id="ytick_6">
     <g id="line2d_23">
      <path d="M 55.584 163.16735 
L 412.704 163.16735 
" clip-path="url(#pde5467c73c)" style="fill: none; stroke: #b0b0b0; stroke-width: 0.8; stroke-linecap: square"/>
     </g>
     <g id="line2d_24">
      <g>
       <use xlink:href="#m0c97e1f8e4" x="55.584" y="163.16735" style="stroke: #000000; stroke-width: 0.8"/>
      </g>
     </g>
     <g id="text_12">
      <!-- 10 -->
      <g transform="translate(30.769 168.486256) scale(0.14 -0.14)">
       <use xlink:href="#DejaVuSans-31"/>
       <use xlink:href="#DejaVuSans-30" x="63.623047"/>
      </g>
     </g>
    </g>
    <g id="ytick_7">
     <g id="line2d_25">
      <path d="M 55.584 132.80722 
L 412.704 132.80722 
" clip-path="url(#pde5467c73c)" style="fill: none; stroke: #b0b0b0; stroke-width: 0.8; stroke-linecap: square"/>
     </g>
     <g id="line2d_26">
      <g>
       <use xlink:href="#m0c97e1f8e4" x="55.584" y="132.80722" style="stroke: #000000; stroke-width: 0.8"/>
      </g>
     </g>
     <g id="text_13">
      <!-- 12 -->
      <g transform="translate(30.769 138.126126) scale(0.14 -0.14)">
       <use xlink:href="#DejaVuSans-31"/>
       <use xlink:href="#DejaVuSans-32" x="63.623047"/>
      </g>
     </g>
    </g>
    <g id="ytick_8">
     <g id="line2d_27">
      <path d="M 55.584 102.44709 
L 412.704 102.44709 
" clip-path="url(#pde5467c73c)" style="fill: none; stroke: #b0b0b0; stroke-width: 0.8; stroke-linecap: square"/>
     </g>
     <g id="line2d_28">
      <g>
       <use xlink:href="#m0c97e1f8e4" x="55.584" y="102.44709" style="stroke: #000000; stroke-width: 0.8"/>
      </g>
     </g>
     <g id="text_14">
      <!-- 14 -->
      <g transform="translate(30.769 107.765996) scale(0.14 -0.14)">
       <use xlink:href="#DejaVuSans-31"/>
       <use xlink:href="#DejaVuSans-34" x="63.623047"/>
      </g>
     </g>
    </g>
    <g id="ytick_9">
     <g id="line2d_29">
      <path d="M 55.584 72.08696 
L 412.704 72.08696 
" clip-path="url(#pde5467c73c)" style="fill: none; stroke: #b0b0b0; stroke-width: 0.8; stroke-linecap: square"/>
     </g>
     <g id="line2d_30">
      <g>
       <use xlink:href="#m0c97e1f8e4" x="55.584" y="72.08696" style="stroke: #000000; stroke-width: 0.8"/>
      </g>
     </g>
     <g id="text_15">
      <!-- 16 -->
      <g transform="translate(30.769 77.405866) scale(0.14 -0.14)">
       <use xlink:href="#DejaVuSans-31"/>
       <use xlink:href="#DejaVuSans-36" x="63.623047"/>
      </g>
     </g>
    </g>
   </g>
   <g id="line2d_31">
    <path d="M 71.816727 314.968 
L 73.116645 314.968 
L 73.441625 223.431941 
L 73.766604 232.266225 
L 74.091584 235.734072 
L 74.416563 203.729112 
L 74.741543 195.771629 
L 75.066523 196.809689 
L 75.391502 196.135526 
L 75.716482 194.27946 
L 76.69142 196.404255 
L 77.0164 197.002278 
L 77.341379 197.011296 
L 77.666359 191.141753 
L 77.991338 191.685926 
L 78.316318 191.693858 
L 78.641297 191.138233 
L 78.966277 184.006047 
L 79.616236 186.818491 
L 80.591174 189.679545 
L 80.916154 190.122934 
L 81.241133 190.844479 
L 81.566113 191.272495 
L 81.891093 191.971174 
L 82.216072 191.731057 
L 82.541052 192.217916 
L 82.866031 191.082048 
L 83.191011 192.072039 
L 83.51599 190.555887 
L 84.165949 191.810939 
L 84.815908 192.415019 
L 85.465867 193.461605 
L 85.790847 187.837403 
L 86.115826 189.560974 
L 87.415744 193.207817 
L 88.390683 194.863443 
L 88.715663 194.084201 
L 89.365622 195.037533 
L 89.690601 195.529852 
L 90.015581 195.399348 
L 90.990519 196.894282 
L 91.315499 196.22041 
L 92.615417 197.743639 
L 92.940396 197.964625 
L 93.265376 194.106621 
L 93.915335 194.309704 
L 94.565294 195.137399 
L 94.890274 194.694093 
L 95.215253 195.068949 
L 95.540233 192.915554 
L 95.865212 193.226018 
L 96.190192 193.772981 
L 96.515171 193.772147 
L 97.16513 194.263046 
L 97.815089 194.917122 
L 98.140069 195.135658 
L 98.465048 195.194634 
L 99.439987 196.174986 
L 99.764966 196.375816 
L 100.089946 190.46889 
L 101.389864 191.960179 
L 103.014762 193.205832 
L 103.339741 193.329698 
L 104.639659 194.49489 
L 104.964639 194.319662 
L 105.614598 194.649971 
L 106.264557 195.127783 
L 107.239495 195.692043 
L 107.564475 195.017791 
L 107.889455 193.705136 
L 108.214434 194.079377 
L 108.539414 191.706032 
L 110.164311 193.099178 
L 110.489291 193.094881 
L 111.789209 194.008572 
L 113.089127 194.748376 
L 113.414106 194.683797 
L 115.363984 195.464296 
L 116.663902 195.980572 
L 117.313861 196.100428 
L 123.488472 197.635455 
L 123.813451 197.44028 
L 124.138431 197.527669 
L 125.113369 197.472519 
L 125.763328 197.70322 
L 126.088308 197.308776 
L 126.738267 197.511413 
L 130.963001 198.010123 
L 131.61296 198.049008 
L 131.937939 198.092446 
L 132.262919 197.673168 
L 133.887817 197.817325 
L 134.537776 197.948364 
L 135.837694 198.14481 
L 136.487653 198.130499 
L 136.812632 197.204773 
L 138.11255 197.250469 
L 138.43753 197.069172 
L 138.762509 197.156092 
L 139.087489 196.446562 
L 140.387407 196.544744 
L 140.712387 196.486601 
L 141.362346 196.521006 
L 142.337284 196.680397 
L 142.662264 196.570778 
L 143.637202 196.627816 
L 143.962182 196.338887 
L 144.93712 196.459913 
L 146.562018 196.386353 
L 147.211977 196.425571 
L 148.511895 196.566929 
L 150.136793 196.740432 
L 153.386588 197.012545 
L 153.711568 196.756018 
L 154.036547 196.79587 
L 154.361527 195.902485 
L 155.336465 196.000361 
L 155.661445 195.881088 
L 157.936301 196.102784 
L 158.261281 196.018835 
L 159.236219 196.025763 
L 159.886179 195.895238 
L 160.211158 195.469207 
L 160.536138 194.170527 
L 160.861117 193.978642 
L 161.186097 186.607784 
L 167.035728 187.943602 
L 167.685687 188.005407 
L 168.010667 188.076579 
L 168.335646 186.957277 
L 169.310585 186.982574 
L 171.910421 187.427977 
L 173.210339 187.658398 
L 178.734991 188.321716 
L 181.984786 188.651365 
L 182.959725 188.698868 
L 184.584622 188.607521 
L 184.909602 188.246379 
L 185.559561 188.229904 
L 187.184459 188.389655 
L 187.509438 186.916575 
L 188.809356 187.034769 
L 189.459315 187.03846 
L 191.734172 187.289847 
L 192.059152 186.737038 
L 194.334008 186.927687 
L 194.658988 185.288731 
L 194.983967 185.081839 
L 195.308947 185.119069 
L 195.633926 184.27785 
L 196.933844 184.258408 
L 201.483558 184.600472 
L 204.083394 184.489709 
L 204.408373 182.842328 
L 205.383312 182.838037 
L 207.333189 182.958224 
L 208.633107 182.948885 
L 209.608046 182.863759 
L 209.933025 182.364834 
L 210.907964 182.440117 
L 211.232943 182.302427 
L 213.5078 182.460677 
L 213.83278 179.984327 
L 215.782657 180.161852 
L 216.107636 180.165515 
L 216.432616 180.052733 
L 218.707473 180.15099 
L 219.682411 180.172962 
L 220.982329 180.208346 
L 221.632288 179.964805 
L 222.282247 179.938362 
L 222.607227 179.651774 
L 223.907145 179.741341 
L 224.232124 178.788876 
L 225.857022 178.910192 
L 227.806899 179.09656 
L 228.456858 178.942467 
L 229.431797 178.941472 
L 234.956449 179.249404 
L 236.256367 179.212601 
L 238.531224 179.270807 
L 247.95563 179.574733 
L 248.280609 179.513312 
L 248.605589 179.216976 
L 253.805261 179.346631 
L 255.105179 179.355024 
L 259.004934 179.468039 
L 259.329913 179.00149 
L 261.27979 179.056658 
L 261.929749 178.995525 
L 263.229667 179.050331 
L 263.879627 178.887912 
L 264.854565 178.9039 
L 265.179545 178.62307 
L 266.804442 178.616939 
L 268.10436 178.532149 
L 279.153664 178.398016 
L 279.478644 177.711928 
L 279.803623 177.731992 
L 280.453582 177.621123 
L 282.403459 177.614156 
L 283.703378 177.624118 
L 288.253091 177.672274 
L 288.57807 177.492714 
L 289.228029 177.532662 
L 289.553009 177.424315 
L 291.177907 177.448482 
L 293.127784 177.522659 
L 293.452763 177.304339 
L 306.776924 177.637999 
L 307.101903 176.823426 
L 310.676678 176.794113 
L 311.001658 176.155242 
L 315.551371 176.133222 
L 317.501248 176.049567 
L 322.700921 175.979964 
L 324.325818 175.918715 
L 335.050143 175.758083 
L 335.375122 175.637428 
L 341.549733 175.678023 
L 344.474549 175.716817 
L 345.774467 175.725153 
L 346.099446 175.150137 
L 346.424426 174.904183 
L 347.399364 174.889116 
L 349.674221 174.949818 
L 350.974139 174.852334 
L 357.14875 174.837587 
L 360.398545 174.869193 
L 360.723525 174.657085 
L 369.172993 174.773803 
L 371.12287 174.771015 
L 371.447849 156.53747 
L 377.62246 156.522531 
L 384.122051 156.365988 
L 384.44703 156.191689 
L 389.321723 156.217928 
L 390.621641 156.224307 
L 390.946621 156.058525 
L 394.196416 156.097258 
L 396.471273 155.962314 
L 396.471273 155.962314 
" clip-path="url(#pde5467c73c)" style="fill: none; stroke: #1f77b4; stroke-width: 2; stroke-linecap: square"/>
    <defs>
     <path id="m5786e3fa60" d="M 0 3 
C 0.795609 3 1.55874 2.683901 2.12132 2.12132 
C 2.683901 1.55874 3 0.795609 3 0 
C 3 -0.795609 2.683901 -1.55874 2.12132 -2.12132 
C 1.55874 -2.683901 0.795609 -3 0 -3 
C -0.795609 -3 -1.55874 -2.683901 -2.12132 -2.12132 
C -2.683901 -1.55874 -3 -0.795609 -3 0 
C -3 0.795609 -2.683901 1.55874 -2.12132 2.12132 
C -1.55874 2.683901 -0.795609 3 0 3 
z
" style="stroke: #1f77b4"/>
    </defs>
    <g clip-path="url(#pde5467c73c)">
     <use xlink:href="#m5786e3fa60" x="71.816727" y="314.968" style="fill: #1f77b4; stroke: #1f77b4"/>
     <use xlink:href="#m5786e3fa60" x="136.812632" y="197.204773" style="fill: #1f77b4; stroke: #1f77b4"/>
     <use xlink:href="#m5786e3fa60" x="201.808537" y="184.580571" style="fill: #1f77b4; stroke: #1f77b4"/>
     <use xlink:href="#m5786e3fa60" x="266.804442" y="178.616939" style="fill: #1f77b4; stroke: #1f77b4"/>
     <use xlink:href="#m5786e3fa60" x="331.800347" y="175.853593" style="fill: #1f77b4; stroke: #1f77b4"/>
    </g>
   </g>
   <g id="line2d_32">
    <path d="M 71.816727 314.968 
L 73.116645 314.968 
L 73.441625 243.408252 
L 73.766604 245.875116 
L 74.091584 252.524984 
L 74.416563 255.844081 
L 74.741543 257.539876 
L 75.066523 251.62578 
L 75.391502 251.539369 
L 75.716482 251.946887 
L 76.041461 251.668537 
L 76.366441 251.7282 
L 76.69142 251.500069 
L 77.0164 251.674493 
L 77.341379 173.269669 
L 78.316318 190.16259 
L 78.966277 197.795797 
L 79.941215 207.33481 
L 80.266195 207.194765 
L 80.591174 208.717753 
L 81.241133 212.54528 
L 81.891093 214.912191 
L 84.490929 220.345121 
L 84.815908 216.109696 
L 85.465867 217.598716 
L 85.790847 218.011209 
L 86.765785 219.738153 
L 87.090765 220.164834 
L 87.415744 220.303935 
L 87.740724 220.825017 
L 88.065704 221.013701 
L 88.390683 221.461675 
L 88.715663 221.625031 
L 89.040642 221.970105 
L 89.690601 221.642198 
L 90.015581 221.87772 
L 90.34056 221.88625 
L 90.66554 222.16568 
L 90.990519 221.826846 
L 93.265376 223.654628 
L 93.915335 224.0516 
L 94.240314 224.02572 
L 94.890274 224.468848 
L 97.49011 225.380338 
L 97.815089 225.418999 
L 98.140069 224.581902 
L 98.790028 224.836184 
L 99.115007 224.390328 
L 99.439987 224.453787 
L 99.764966 223.871418 
L 101.064885 224.102061 
L 101.389864 224.107702 
L 102.364803 224.414426 
L 103.664721 224.466882 
L 103.9897 224.217859 
L 104.31468 220.460797 
L 104.639659 220.599535 
L 104.964639 220.367035 
L 105.289618 220.333954 
L 105.614598 220.412786 
L 106.264557 219.500836 
L 107.889455 219.561194 
L 108.214434 219.363839 
L 108.539414 218.514927 
L 109.839332 218.810645 
L 110.164311 218.673942 
L 111.789209 218.975988 
L 112.764147 219.061333 
L 113.089127 218.760702 
L 114.714025 218.746433 
L 115.039004 218.102089 
L 115.363984 218.080616 
L 116.013943 218.187332 
L 116.988881 218.234458 
L 117.63884 218.134244 
L 119.263738 218.376514 
L 120.888636 218.252842 
L 121.538595 218.345169 
L 121.863574 217.837593 
L 122.838513 217.954811 
L 124.138431 217.852362 
L 124.46341 217.589114 
L 125.113369 217.480673 
L 125.763328 217.535337 
L 128.038185 216.870275 
L 128.363165 216.912091 
L 129.338103 216.704162 
L 129.663083 216.739827 
L 129.988062 216.521192 
L 130.638021 216.611788 
L 130.963001 216.558417 
L 131.28798 214.038371 
L 132.912878 214.108039 
L 133.237857 213.582792 
L 133.562837 213.274313 
L 139.412468 213.769493 
L 139.737448 213.572403 
L 142.337284 213.666372 
L 142.662264 213.506665 
L 142.987243 213.537365 
L 143.312223 213.367522 
L 151.111731 213.414719 
L 151.436711 213.392543 
L 151.76169 202.118644 
L 156.636383 202.269129 
L 156.961363 202.089453 
L 157.611322 201.986611 
L 157.936301 201.78736 
L 158.58626 201.793451 
L 159.561199 201.892499 
L 160.211158 201.810686 
L 162.161035 201.854074 
L 162.486015 201.548131 
L 166.710749 201.546432 
L 167.035728 201.355939 
L 168.010667 201.288871 
L 168.335646 201.174595 
L 168.660626 200.564184 
L 169.310585 200.620852 
L 169.635564 200.524952 
L 170.935482 200.579741 
L 174.185278 200.378019 
L 174.510257 200.41492 
L 174.835237 200.322159 
L 175.485196 200.330073 
L 176.135155 200.290401 
L 178.085032 200.269798 
L 178.410011 200.279254 
L 178.734991 200.130879 
L 179.059971 199.507433 
L 180.034909 199.429131 
L 180.359889 199.247497 
L 181.009848 199.223107 
L 182.959725 199.252066 
L 183.934663 199.274419 
L 185.884541 199.336012 
L 187.834418 199.415347 
L 189.134336 199.338912 
L 190.759233 199.444465 
L 191.084213 199.198928 
L 192.384131 199.239896 
L 192.709111 199.248329 
L 193.03409 199.080509 
L 194.658988 199.245515 
L 195.308947 199.157759 
L 197.258824 199.182204 
L 202.133517 198.838154 
L 202.458496 198.678575 
L 203.758414 198.673819 
L 206.68323 198.76722 
L 207.333189 198.638067 
L 207.658169 198.172368 
L 211.882903 198.288312 
L 215.132698 198.280641 
L 216.107636 198.299271 
L 216.432616 197.045377 
L 216.757595 197.043765 
L 217.082575 196.898729 
L 220.007391 196.909862 
L 220.33237 196.679123 
L 221.307309 196.671003 
L 223.582165 196.627714 
L 224.557104 196.664606 
L 224.882084 196.493812 
L 226.182002 196.474578 
L 226.831961 196.37086 
L 228.131879 196.357809 
L 228.456858 196.015231 
L 229.106817 196.027274 
L 229.756776 195.921011 
L 236.581346 195.879215 
L 236.906326 195.705888 
L 237.231305 195.711215 
L 237.881265 195.590749 
L 238.531224 195.620171 
L 238.856203 195.508721 
L 247.95563 195.690297 
L 248.605589 195.638617 
L 249.255548 195.639628 
L 249.580527 194.735731 
L 252.180364 194.765382 
L 253.155302 194.691881 
L 258.354975 194.775326 
L 259.979872 194.75572 
L 260.629831 194.556712 
L 261.27979 194.553692 
L 261.60477 193.789497 
L 263.229667 193.81201 
L 263.554647 193.648984 
L 270.054238 193.41549 
L 272.979053 193.47585 
L 275.25391 193.432636 
L 275.903869 193.378388 
L 279.803623 193.411403 
L 285.653255 193.261393 
L 286.303214 193.285674 
L 286.628193 193.126998 
L 297.027538 193.018251 
L 297.352518 186.83694 
L 298.652436 186.838126 
L 299.952354 186.717308 
L 300.602313 186.669824 
L 303.527129 186.643272 
L 304.177088 186.595692 
L 308.401821 186.660224 
L 309.37676 186.608418 
L 310.026719 186.612289 
L 310.351699 186.432555 
L 311.651617 186.40106 
L 312.301576 186.337093 
L 319.776105 186.416502 
L 320.101084 185.868246 
L 324.975777 185.912132 
L 325.625736 185.850166 
L 326.925654 185.873391 
L 327.250634 185.720935 
L 328.550552 185.743742 
L 329.200511 185.614719 
L 331.475368 185.61445 
L 331.800347 185.272093 
L 332.450306 185.285078 
L 332.775286 184.920465 
L 336.67504 184.914049 
L 337.324999 184.839538 
L 342.524672 184.870659 
L 342.849651 184.279197 
L 346.749405 184.179903 
L 347.724344 184.147955 
L 349.024262 184.142237 
L 349.349242 183.882165 
L 353.898955 183.884167 
L 358.123689 183.894947 
L 363.323361 183.720153 
L 367.873075 183.763481 
L 371.447849 183.779498 
L 371.772829 182.552422 
L 375.997563 182.491121 
L 382.822133 182.320687 
L 383.147112 182.064255 
L 385.096989 182.017659 
L 385.746948 181.948266 
L 389.646703 181.970436 
L 393.871437 181.837962 
L 394.521396 181.758716 
L 396.471273 181.719599 
L 396.471273 181.719599 
" clip-path="url(#pde5467c73c)" style="fill: none; stroke: #ff7f0e; stroke-width: 2; stroke-linecap: square"/>
    <defs>
     <path id="mcf716a590e" d="M 0 -3 
L -3 3 
L 3 3 
z
" style="stroke: #ff7f0e; stroke-linejoin: miter"/>
    </defs>
    <g clip-path="url(#pde5467c73c)">
     <use xlink:href="#mcf716a590e" x="71.816727" y="314.968" style="fill: #ff7f0e; stroke: #ff7f0e; stroke-linejoin: miter"/>
     <use xlink:href="#mcf716a590e" x="136.812632" y="213.546939" style="fill: #ff7f0e; stroke: #ff7f0e; stroke-linejoin: miter"/>
     <use xlink:href="#mcf716a590e" x="201.808537" y="198.832508" style="fill: #ff7f0e; stroke: #ff7f0e; stroke-linejoin: miter"/>
     <use xlink:href="#mcf716a590e" x="266.804442" y="193.384339" style="fill: #ff7f0e; stroke: #ff7f0e; stroke-linejoin: miter"/>
     <use xlink:href="#mcf716a590e" x="331.800347" y="185.272093" style="fill: #ff7f0e; stroke: #ff7f0e; stroke-linejoin: miter"/>
    </g>
   </g>
   <g id="line2d_33">
    <path d="M 71.816727 314.968 
L 73.116645 314.968 
L 73.441625 221.111492 
L 73.766604 242.276123 
L 74.091584 249.119151 
L 74.416563 231.599605 
L 74.741543 234.878432 
L 75.066523 233.16854 
L 75.391502 232.952657 
L 75.716482 233.675739 
L 76.041461 234.046226 
L 76.366441 233.426444 
L 76.69142 233.68805 
L 77.0164 233.678768 
L 77.341379 233.543985 
L 77.666359 233.134769 
L 77.991338 232.506732 
L 78.316318 232.639177 
L 78.641297 230.028835 
L 79.291256 228.284555 
L 79.616236 228.176761 
L 79.941215 228.226787 
L 80.266195 227.934036 
L 80.591174 227.462156 
L 80.916154 227.364624 
L 81.241133 225.735394 
L 82.216072 225.952068 
L 82.541052 225.891984 
L 82.866031 122.738646 
L 83.191011 126.854953 
L 83.51599 126.773082 
L 83.84097 127.205651 
L 84.165949 126.915245 
L 84.490929 127.213812 
L 85.140888 127.335515 
L 85.465867 124.8549 
L 85.790847 124.958227 
L 86.115826 119.063436 
L 86.440806 119.233852 
L 86.765785 118.225858 
L 87.415744 117.944347 
L 87.740724 117.906123 
L 88.065704 117.638027 
L 88.390683 116.895972 
L 88.715663 116.858504 
L 89.040642 116.466995 
L 89.365622 116.410169 
L 90.015581 115.3433 
L 90.66554 113.884346 
L 91.315499 113.927411 
L 92.290437 113.81318 
L 92.615417 113.184416 
L 93.590355 113.263718 
L 94.890274 113.384806 
L 95.215253 109.635069 
L 95.540233 109.46106 
L 96.190192 109.485374 
L 96.515171 109.081441 
L 97.16513 109.087846 
L 97.49011 108.990088 
L 98.140069 109.025873 
L 98.790028 108.915254 
L 99.115007 108.940951 
L 99.439987 108.706477 
L 100.414925 108.505346 
L 100.739905 108.098356 
L 101.714844 107.92834 
L 102.039823 107.617739 
L 102.364803 107.636382 
L 102.689782 107.507165 
L 103.339741 107.574229 
L 103.9897 107.316579 
L 104.639659 107.280398 
L 105.614598 107.239892 
L 105.939577 106.294656 
L 106.264557 105.989898 
L 107.239495 106.045144 
L 107.889455 105.92626 
L 108.214434 105.201651 
L 109.514352 105.253696 
L 110.81427 105.320624 
L 112.114188 104.985759 
L 112.439168 104.993583 
L 112.764147 104.675132 
L 113.414106 104.649957 
L 113.739086 104.453595 
L 114.064066 104.438421 
L 114.389045 103.672342 
L 114.714025 103.418913 
L 115.039004 103.35872 
L 115.363984 103.156419 
L 115.688963 103.118119 
L 117.313861 102.342274 
L 117.96382 102.274658 
L 118.288799 102.266151 
L 118.613779 101.807218 
L 119.588717 101.791092 
L 119.913697 101.471609 
L 120.563656 101.413911 
L 121.213615 101.42484 
L 122.513533 101.438221 
L 122.838513 101.373627 
L 123.488472 101.432216 
L 124.138431 101.286418 
L 124.78839 101.180388 
L 125.438349 101.058864 
L 125.763328 95.341816 
L 126.088308 94.769372 
L 127.388226 96.062403 
L 128.038185 96.385921 
L 128.363165 95.889438 
L 130.638021 96.669293 
L 131.937939 96.919683 
L 132.262919 96.645748 
L 133.237857 96.777155 
L 133.562837 96.59231 
L 136.812632 96.597299 
L 140.387407 96.652126 
L 140.712387 96.438578 
L 141.037366 96.40974 
L 141.362346 96.239474 
L 143.312223 96.2802 
L 144.612141 96.366436 
L 145.587079 96.361651 
L 146.562018 96.094916 
L 148.836875 96.19502 
L 152.08667 96.144756 
L 153.386588 96.089454 
L 154.036547 95.959251 
L 155.011486 96.035528 
L 155.336465 95.545676 
L 158.58626 95.535854 
L 159.236219 95.500465 
L 165.41083 95.666421 
L 165.73581 95.540889 
L 166.385769 95.499367 
L 166.710749 95.363182 
L 167.685687 95.322668 
L 168.335646 95.148133 
L 168.660626 95.083486 
L 168.985605 94.902667 
L 169.960544 94.916463 
L 170.610503 94.871621 
L 172.56038 94.849157 
L 172.88536 94.513655 
L 173.535319 94.466552 
L 174.510257 94.422934 
L 174.835237 94.355237 
L 175.160216 94.053037 
L 175.810175 93.948391 
L 178.410011 93.858836 
L 178.734991 93.750427 
L 179.059971 93.764679 
L 179.70993 93.097698 
L 180.684868 93.107709 
L 181.334827 93.006218 
L 181.984786 92.956636 
L 183.934663 92.956462 
L 184.584622 92.699976 
L 185.234581 92.723285 
L 185.884541 92.641824 
L 192.384131 92.200062 
L 192.709111 91.898848 
L 197.258824 91.949294 
L 197.583803 90.001513 
L 200.18364 90.111769 
L 201.158578 90.103437 
L 202.133517 90.132041 
L 202.458496 90.105932 
L 202.783476 88.163898 
L 206.033271 88.417522 
L 208.958087 88.706446 
L 211.557923 88.755234 
L 211.882903 88.677633 
L 212.532862 88.794756 
L 212.857841 88.710221 
L 213.5078 88.786375 
L 213.83278 88.673598 
L 216.107636 88.808563 
L 216.757595 88.762405 
L 220.007391 88.909275 
L 220.33237 88.775612 
L 220.65735 80.112027 
L 220.982329 79.560647 
L 223.907145 79.743568 
L 224.232124 79.628178 
L 225.532043 79.644168 
L 229.106817 79.432877 
L 231.706654 79.499095 
L 233.656531 79.497902 
L 233.98151 79.282994 
L 238.206244 79.363656 
L 238.856203 79.300307 
L 240.481101 79.331265 
L 242.755957 79.411014 
L 243.405916 79.208826 
L 245.030814 79.186532 
L 245.680773 79.081483 
L 251.855384 79.074791 
L 252.180364 78.93214 
L 254.130241 79.012898 
L 254.7802 78.922612 
L 257.380036 78.859532 
L 257.705016 78.855986 
L 258.029995 78.676111 
L 259.329913 78.63167 
L 259.654893 78.240621 
L 261.27979 78.216558 
L 265.829504 78.180738 
L 266.154483 78.17805 
L 266.479463 78.026273 
L 269.079299 78.100624 
L 270.054238 78.098448 
L 272.654074 78.113478 
L 274.278971 78.116405 
L 276.553828 78.150888 
L 281.428521 78.015298 
L 283.053419 77.972905 
L 292.802804 77.926718 
L 295.40264 77.766898 
L 298.002477 77.766886 
L 299.627374 77.64336 
L 299.952354 77.644854 
L 300.277333 77.421747 
L 303.527129 77.50095 
L 318.801166 77.505038 
L 319.451125 77.483379 
L 319.776105 77.07807 
L 324.000839 77.07856 
L 325.625736 77.084543 
L 325.950716 76.927184 
L 327.575613 76.853661 
L 327.900593 76.623193 
L 332.125327 76.752705 
L 332.775286 76.64974 
L 333.425245 76.575554 
L 335.700102 76.599553 
L 336.350061 76.41921 
L 336.67504 76.258323 
L 337.974958 76.339432 
L 340.899774 76.403182 
L 341.224753 76.19306 
L 343.82459 76.222227 
L 344.474549 76.1352 
L 346.424426 76.069499 
L 347.074385 76.011951 
L 367.873075 75.823071 
L 368.198054 73.421008 
L 370.147931 73.475221 
L 370.472911 73.371018 
L 376.972501 73.524595 
L 377.297481 73.514459 
L 377.62246 73.393056 
L 386.071928 73.431445 
L 387.046867 73.401172 
L 387.696826 73.408899 
L 388.021805 73.284811 
L 389.971682 73.24227 
L 392.896498 73.203706 
L 393.871437 73.195719 
L 394.196416 73.048 
L 396.471273 73.076689 
L 396.471273 73.076689 
" clip-path="url(#pde5467c73c)" style="fill: none; stroke: #2ca02c; stroke-width: 2; stroke-linecap: square"/>
    <defs>
     <path id="m72309361ed" d="M -3 3 
L 3 3 
L 3 -3 
L -3 -3 
z
" style="stroke: #2ca02c; stroke-linejoin: miter"/>
    </defs>
    <g clip-path="url(#pde5467c73c)">
     <use xlink:href="#m72309361ed" x="71.816727" y="314.968" style="fill: #2ca02c; stroke: #2ca02c; stroke-linejoin: miter"/>
     <use xlink:href="#m72309361ed" x="136.812632" y="96.597299" style="fill: #2ca02c; stroke: #2ca02c; stroke-linejoin: miter"/>
     <use xlink:href="#m72309361ed" x="201.808537" y="90.146344" style="fill: #2ca02c; stroke: #2ca02c; stroke-linejoin: miter"/>
     <use xlink:href="#m72309361ed" x="266.804442" y="78.046903" style="fill: #2ca02c; stroke: #2ca02c; stroke-linejoin: miter"/>
     <use xlink:href="#m72309361ed" x="331.800347" y="76.747562" style="fill: #2ca02c; stroke: #2ca02c; stroke-linejoin: miter"/>
    </g>
   </g>
   <g id="line2d_34">
    <path d="M 71.816727 314.968 
L 73.116645 314.968 
L 73.441625 266.555204 
L 73.766604 273.463838 
L 74.091584 275.43605 
L 74.416563 273.056409 
L 74.741543 272.750236 
L 75.066523 272.062687 
L 75.391502 272.064274 
L 75.716482 266.251801 
L 76.041461 266.23417 
L 76.366441 266.539832 
L 76.69142 266.047656 
L 77.0164 242.705555 
L 77.341379 245.315889 
L 77.666359 246.911134 
L 77.991338 247.34165 
L 78.316318 248.911225 
L 78.641297 249.486093 
L 78.966277 248.301631 
L 79.941215 250.64482 
L 80.266195 250.83561 
L 80.591174 250.244696 
L 81.241133 250.820809 
L 81.566113 251.284223 
L 81.891093 251.199692 
L 82.216072 251.345397 
L 82.541052 250.793997 
L 82.866031 250.553765 
L 83.191011 249.741312 
L 83.51599 249.651271 
L 83.84097 249.846314 
L 84.165949 249.731886 
L 85.465867 250.3511 
L 85.790847 250.317841 
L 86.115826 249.382326 
L 86.440806 249.474628 
L 86.765785 247.538476 
L 87.090765 247.741812 
L 87.415744 247.677126 
L 87.740724 247.848417 
L 88.065704 247.793902 
L 88.390683 247.360689 
L 89.040642 247.626289 
L 89.365622 246.718938 
L 89.690601 246.337991 
L 90.34056 246.557894 
L 90.990519 246.202144 
L 91.315499 245.565904 
L 91.640478 245.57327 
L 91.965458 245.265788 
L 92.940396 245.273878 
L 93.915335 245.491621 
L 94.240314 245.259309 
L 94.565294 153.239636 
L 94.890274 153.847896 
L 95.215253 153.770642 
L 95.865212 153.935622 
L 96.190192 149.097721 
L 96.515171 148.938019 
L 97.16513 149.121548 
L 97.49011 148.927981 
L 97.815089 148.883844 
L 98.465048 149.056456 
L 98.790028 147.315625 
L 99.115007 147.19016 
L 99.439987 146.771609 
L 99.764966 146.695877 
L 100.089946 146.496641 
L 100.414925 146.446429 
L 100.739905 145.925221 
L 101.064885 145.942554 
L 101.389864 141.289413 
L 102.364803 141.507411 
L 102.689782 137.835455 
L 103.014762 137.352801 
L 103.9897 137.633834 
L 104.31468 135.361749 
L 104.639659 135.483685 
L 104.964639 135.31146 
L 105.614598 135.273367 
L 105.939577 135.095451 
L 106.589536 135.12557 
L 109.189373 135.603295 
L 109.514352 135.09404 
L 110.164311 135.172756 
L 110.489291 134.13924 
L 111.789209 134.253704 
L 112.439168 133.820514 
L 113.414106 134.02622 
L 113.739086 134.109189 
L 114.064066 121.045229 
L 115.039004 121.363306 
L 115.688963 121.410842 
L 116.013943 120.542013 
L 116.988881 120.606951 
L 117.313861 120.470814 
L 118.938758 120.456577 
L 119.263738 120.242608 
L 119.588717 120.241502 
L 119.913697 119.965838 
L 120.563656 120.042291 
L 120.888636 120.080066 
L 121.213615 119.3814 
L 122.513533 119.490135 
L 123.488472 119.346186 
L 123.813451 119.425904 
L 124.138431 119.344088 
L 125.763328 119.45542 
L 126.088308 119.454148 
L 126.413287 119.200127 
L 127.388226 119.16604 
L 128.038185 119.162774 
L 128.363165 119.128295 
L 129.013124 118.84501 
L 129.338103 118.762881 
L 131.61296 119.079281 
L 133.887817 118.939089 
L 134.212796 118.727921 
L 135.512714 118.771011 
L 137.787571 118.857176 
L 138.762509 118.765594 
L 139.737448 118.792024 
L 140.387407 118.760369 
L 140.712387 118.763681 
L 141.037366 118.513447 
L 141.362346 117.908384 
L 142.337284 117.65474 
L 142.987243 117.67859 
L 143.312223 117.506768 
L 144.287161 117.49784 
L 144.93712 117.553006 
L 145.2621 117.130883 
L 146.886998 117.105793 
L 147.536957 117.149834 
L 148.186916 117.061525 
L 148.511895 117.03807 
L 148.836875 116.636441 
L 149.161854 116.666057 
L 149.486834 116.539849 
L 150.136793 116.616858 
L 150.461772 116.447843 
L 150.786752 116.103406 
L 156.311404 116.113572 
L 156.636383 114.584006 
L 157.936301 114.498351 
L 159.561199 114.529982 
L 159.886179 114.325751 
L 160.536138 114.297482 
L 161.186097 114.273237 
L 167.035728 114.499511 
L 167.685687 114.553374 
L 168.010667 113.967548 
L 169.635564 113.935967 
L 170.285523 113.878543 
L 172.2354 113.921154 
L 172.56038 113.544905 
L 173.210339 113.578144 
L 173.535319 111.03994 
L 175.810175 111.1313 
L 176.460134 111.025905 
L 178.085032 111.030232 
L 179.38495 110.99916 
L 180.034909 111.027485 
L 180.359889 110.872384 
L 182.634745 110.94794 
L 182.959725 110.092034 
L 183.609684 110.027245 
L 184.259643 110.00025 
L 185.559561 109.994465 
L 188.484377 109.998488 
L 188.809356 109.838774 
L 189.784295 109.863958 
L 190.109274 109.670227 
L 191.734172 109.591836 
L 194.658988 109.628488 
L 202.133517 109.568703 
L 202.458496 109.374131 
L 206.033271 109.496419 
L 207.983148 109.507841 
L 210.258005 109.579945 
L 212.857841 109.618312 
L 215.782657 109.54593 
L 219.357432 109.45082 
L 220.007391 109.394009 
L 221.632288 109.352866 
L 222.607227 109.396233 
L 223.257186 109.318804 
L 225.857022 109.305031 
L 228.131879 109.22568 
L 230.406735 109.14464 
L 231.706654 109.139168 
L 232.356613 108.83412 
L 238.206244 108.671092 
L 238.531224 108.549265 
L 246.980691 108.6025 
L 247.305671 108.454524 
L 247.95563 108.429737 
L 248.280609 108.04408 
L 250.555466 107.861939 
L 253.155302 107.869044 
L 253.480282 107.668245 
L 256.080118 107.63999 
L 256.405097 107.522841 
L 256.730077 107.525154 
L 257.055057 107.412793 
L 259.329913 107.484237 
L 261.60477 107.514802 
L 262.579708 107.509289 
L 264.529586 107.530122 
L 264.854565 106.465794 
L 270.054238 106.54125 
L 270.704197 106.479774 
L 274.603951 106.45752 
L 274.92893 106.077552 
L 275.578889 105.93175 
L 283.053419 105.869286 
L 283.378398 105.879299 
L 283.703378 104.487063 
L 284.353337 104.404752 
L 284.678316 104.40576 
L 285.003296 104.247949 
L 287.278152 104.186884 
L 288.90305 104.18869 
L 291.177907 104.187698 
L 299.952354 104.161574 
L 300.927292 104.144349 
L 301.252272 104.007482 
L 309.70174 104.17087 
L 310.026719 103.914678 
L 315.876351 103.731152 
L 316.20133 103.330533 
L 319.126146 103.36262 
L 320.751043 103.308132 
L 322.050962 103.252715 
L 326.275695 103.298437 
L 327.575613 103.228541 
L 327.900593 103.052398 
L 328.875532 103.021836 
L 331.475368 103.034225 
L 332.775286 103.063788 
L 333.100265 101.033987 
L 334.400183 101.054807 
L 336.350061 100.983504 
L 336.67504 100.927523 
L 337.00002 100.634828 
L 342.524672 100.586684 
L 349.024262 100.52254 
L 349.999201 100.537737 
L 352.274057 100.486771 
L 352.924016 100.440799 
L 353.573975 100.451732 
L 353.898955 100.183281 
L 355.848832 100.175456 
L 358.123689 100.078759 
L 369.497972 100.210327 
L 371.12287 100.226328 
L 376.647522 100.267023 
L 376.972501 99.979758 
L 380.222296 100.012497 
L 384.77201 99.987548 
L 387.696826 100.00589 
L 390.946621 99.973256 
L 391.2716 99.816924 
L 396.471273 99.884901 
L 396.471273 99.884901 
" clip-path="url(#pde5467c73c)" style="fill: none; stroke: #d62728; stroke-width: 2; stroke-linecap: square"/>
    <defs>
     <path id="m99746887f8" d="M -3 3 
L 3 -3 
M -3 -3 
L 3 3 
" style="stroke: #d62728"/>
    </defs>
    <g clip-path="url(#pde5467c73c)">
     <use xlink:href="#m99746887f8" x="71.816727" y="314.968" style="fill: #d62728; stroke: #d62728"/>
     <use xlink:href="#m99746887f8" x="136.812632" y="118.849527" style="fill: #d62728; stroke: #d62728"/>
     <use xlink:href="#m99746887f8" x="201.808537" y="109.717447" style="fill: #d62728; stroke: #d62728"/>
     <use xlink:href="#m99746887f8" x="266.804442" y="106.529871" style="fill: #d62728; stroke: #d62728"/>
     <use xlink:href="#m99746887f8" x="331.800347" y="103.041141" style="fill: #d62728; stroke: #d62728"/>
    </g>
   </g>
   <g id="line2d_35">
    <path d="M 71.816727 314.968 
L 73.116645 314.968 
L 73.441625 263.428422 
L 73.766604 267.299128 
L 74.091584 266.274091 
L 74.416563 267.696654 
L 74.741543 266.103212 
L 75.066523 182.138433 
L 75.716482 204.904326 
L 76.041461 208.895937 
L 76.366441 199.498536 
L 77.0164 211.17235 
L 77.341379 215.912042 
L 77.666359 218.646229 
L 77.991338 208.37006 
L 78.316318 212.395347 
L 78.966277 217.496969 
L 79.616236 222.230472 
L 80.591174 227.357066 
L 80.916154 225.787016 
L 82.216072 230.041562 
L 82.541052 230.344458 
L 82.866031 228.869239 
L 83.51599 230.648039 
L 83.84097 231.005895 
L 84.165949 229.937025 
L 84.490929 230.226684 
L 85.140888 231.210388 
L 85.790847 231.887139 
L 86.440806 232.041278 
L 86.765785 232.129598 
L 87.090765 232.372279 
L 87.740724 233.318265 
L 88.390683 234.213759 
L 89.365622 234.80453 
L 89.690601 234.684773 
L 90.66554 234.889334 
L 90.990519 234.004676 
L 91.640478 234.470786 
L 91.965458 234.203674 
L 92.940396 234.825796 
L 93.265376 234.77076 
L 95.215253 235.656097 
L 95.540233 235.487437 
L 95.865212 235.542447 
L 96.190192 235.334101 
L 96.515171 235.464941 
L 96.840151 235.44688 
L 97.49011 235.852706 
L 97.815089 234.327514 
L 98.140069 234.143298 
L 99.115007 234.521603 
L 99.439987 234.423449 
L 100.739905 234.781671 
L 101.064885 234.779557 
L 101.389864 234.93791 
L 101.714844 234.752885 
L 102.039823 234.824888 
L 102.364803 234.779238 
L 103.664721 235.033205 
L 104.31468 235.015194 
L 104.639659 235.116835 
L 104.964639 235.039526 
L 105.289618 234.59809 
L 106.264557 234.627834 
L 106.589536 234.61935 
L 106.914516 232.353199 
L 107.889455 232.552374 
L 108.539414 232.694589 
L 108.864393 232.599487 
L 109.189373 232.661758 
L 109.514352 230.079874 
L 110.164311 229.724021 
L 110.489291 229.327214 
L 110.81427 229.379302 
L 111.13925 229.111085 
L 111.789209 229.286878 
L 112.114188 228.585269 
L 112.764147 228.349759 
L 113.739086 228.545074 
L 114.064066 228.464845 
L 114.389045 228.540156 
L 114.714025 228.449707 
L 115.039004 225.667902 
L 115.363984 225.19849 
L 116.338922 225.540741 
L 116.988881 225.644309 
L 117.313861 225.191531 
L 117.96382 225.257587 
L 118.288799 225.158529 
L 118.613779 224.763591 
L 119.588717 224.726916 
L 119.913697 224.48414 
L 120.563656 224.400299 
L 120.888636 224.229592 
L 121.213615 224.354074 
L 121.863574 224.353578 
L 122.838513 224.592507 
L 123.163492 224.174229 
L 125.763328 224.616262 
L 126.413287 224.65218 
L 127.063247 224.736338 
L 127.388226 224.578346 
L 128.363165 224.638166 
L 128.688144 224.427387 
L 129.338103 224.334545 
L 129.988062 224.437705 
L 130.313042 223.75657 
L 131.28798 223.915601 
L 131.937939 223.848446 
L 132.587898 223.952786 
L 133.237857 223.543049 
L 134.537776 223.637353 
L 134.862755 223.638025 
L 135.187735 223.447896 
L 136.162673 223.386858 
L 137.462591 223.469035 
L 138.762509 223.449637 
L 140.062428 223.353233 
L 146.237038 223.836029 
L 146.562018 223.640559 
L 146.886998 223.665199 
L 147.211977 223.400515 
L 148.511895 223.529961 
L 150.786752 223.683332 
L 151.111731 222.643002 
L 154.361527 222.735116 
L 154.686506 222.443322 
L 156.311404 222.573739 
L 156.636383 221.09101 
L 157.936301 221.130733 
L 158.261281 221.036946 
L 159.886179 221.182846 
L 160.211158 221.058115 
L 160.861117 221.103987 
L 161.186097 220.949628 
L 162.161035 220.976841 
L 163.460953 221.109221 
L 164.435892 221.206224 
L 164.760871 221.109672 
L 168.660626 221.294128 
L 173.860298 221.270371 
L 174.510257 220.772044 
L 176.785114 220.820205 
L 178.085032 220.860106 
L 178.410011 220.46884 
L 181.009848 220.633426 
L 181.334827 220.282408 
L 185.884541 220.233436 
L 186.20952 220.043201 
L 187.834418 220.062536 
L 189.134336 219.757258 
L 190.759233 219.791988 
L 191.084213 219.682303 
L 191.734172 219.7082 
L 192.059152 219.392761 
L 192.384131 219.417206 
L 193.03409 219.224631 
L 193.35907 219.259184 
L 193.684049 219.052971 
L 194.658988 219.112548 
L 195.308947 219.179921 
L 195.633926 200.151266 
L 196.283885 200.267839 
L 204.408373 201.848366 
L 205.708292 202.01656 
L 206.358251 202.182868 
L 207.00821 202.177811 
L 207.983148 202.323314 
L 213.182821 203.064327 
L 215.132698 203.16652 
L 215.457677 201.752172 
L 216.107636 201.697573 
L 217.082575 201.871215 
L 217.732534 201.841084 
L 218.057514 200.911349 
L 220.33237 201.254297 
L 221.957268 201.550235 
L 222.607227 201.617357 
L 226.182002 202.138626 
L 239.506162 203.61956 
L 239.831142 203.128027 
L 242.105998 203.362617 
L 242.430978 203.229244 
L 243.405916 203.279384 
L 245.030814 203.514004 
L 245.680773 203.534275 
L 246.330732 203.540512 
L 247.63065 203.614099 
L 250.880446 203.945738 
L 251.205425 203.765159 
L 255.105179 203.968064 
L 259.329913 204.382402 
L 259.979872 204.363203 
L 261.27979 204.480773 
L 261.60477 204.29179 
L 262.904688 204.403515 
L 263.554647 204.373278 
L 274.603951 205.140108 
L 274.92893 204.75366 
L 275.578889 204.82041 
L 275.903869 204.65071 
L 278.178726 204.660579 
L 281.7535 204.957943 
L 282.728439 204.971302 
L 285.978234 205.222151 
L 286.953173 205.236085 
L 289.877989 205.44519 
L 290.527948 205.479044 
L 290.852927 204.82192 
L 302.87717 205.339258 
L 304.827047 205.398305 
L 306.126965 205.394576 
L 306.776924 205.379619 
L 308.076842 205.43717 
L 308.401821 204.786385 
L 309.37676 204.782131 
L 322.050962 205.222037 
L 322.375941 205.064433 
L 324.325818 205.111661 
L 324.650798 205.133124 
L 324.975777 204.40358 
L 335.050143 204.746517 
L 335.375122 204.445845 
L 338.949897 204.602458 
L 339.274876 204.34387 
L 341.549733 204.437777 
L 343.49961 204.485689 
L 344.149569 204.445359 
L 344.474549 203.608222 
L 350.64916 203.88986 
L 351.299119 203.836905 
L 352.599037 203.812988 
L 353.573975 203.809434 
L 358.773648 203.892383 
L 359.098627 202.286831 
L 360.398545 202.249718 
L 362.348423 202.307489 
L 362.673402 202.150489 
L 368.523034 202.388877 
L 373.722706 202.623099 
L 380.222296 202.801381 
L 381.197235 202.78606 
L 386.721887 203.021321 
L 387.046867 202.774454 
L 390.296662 202.839235 
L 390.621641 202.584804 
L 393.221477 202.560858 
L 393.546457 202.564093 
L 393.871437 202.242569 
L 395.821314 202.274802 
L 396.471273 202.264434 
L 396.471273 202.264434 
" clip-path="url(#pde5467c73c)" style="fill: none; stroke: #9467bd; stroke-width: 2; stroke-linecap: square"/>
    <defs>
     <path id="m11d1d1bdc1" d="M -0 3 
L 3 -3 
L -3 -3 
z
" style="stroke: #9467bd; stroke-linejoin: miter"/>
    </defs>
    <g clip-path="url(#pde5467c73c)">
     <use xlink:href="#m11d1d1bdc1" x="71.816727" y="314.968" style="fill: #9467bd; stroke: #9467bd; stroke-linejoin: miter"/>
     <use xlink:href="#m11d1d1bdc1" x="136.812632" y="223.377991" style="fill: #9467bd; stroke: #9467bd; stroke-linejoin: miter"/>
     <use xlink:href="#m11d1d1bdc1" x="201.808537" y="201.391347" style="fill: #9467bd; stroke: #9467bd; stroke-linejoin: miter"/>
     <use xlink:href="#m11d1d1bdc1" x="266.804442" y="204.609701" style="fill: #9467bd; stroke: #9467bd; stroke-linejoin: miter"/>
     <use xlink:href="#m11d1d1bdc1" x="331.800347" y="204.695987" style="fill: #9467bd; stroke: #9467bd; stroke-linejoin: miter"/>
    </g>
   </g>
   <g id="line2d_36">
    <path d="M 71.816727 314.968 
L 73.116645 314.968 
L 73.441625 240.753216 
L 73.766604 252.28944 
L 74.091584 256.506914 
L 74.416563 256.122782 
L 74.741543 256.953266 
L 75.066523 254.245448 
L 75.716482 251.240149 
L 76.041461 250.99282 
L 76.366441 249.545361 
L 77.0164 250.45663 
L 77.341379 249.990751 
L 77.666359 249.998785 
L 77.991338 249.361821 
L 78.641297 249.594147 
L 79.291256 249.43796 
L 79.616236 248.443425 
L 79.941215 248.508658 
L 80.591174 246.563034 
L 80.916154 246.629227 
L 81.241133 246.426038 
L 81.566113 245.948353 
L 81.891093 245.771047 
L 82.216072 243.227869 
L 83.191011 243.425608 
L 83.84097 242.549562 
L 84.165949 241.472347 
L 84.815908 240.631754 
L 85.140888 238.730003 
L 85.465867 238.566591 
L 85.790847 238.575429 
L 86.115826 237.900274 
L 86.440806 237.612426 
L 86.765785 237.687842 
L 87.415744 237.557188 
L 87.740724 237.704433 
L 88.065704 237.6784 
L 89.040642 236.84998 
L 89.365622 236.80248 
L 90.66554 236.180161 
L 90.990519 236.151601 
L 91.315499 232.151383 
L 91.640478 231.932134 
L 91.965458 232.106631 
L 92.290437 232.077695 
L 92.940396 232.336122 
L 93.265376 232.413791 
L 93.590355 232.328144 
L 94.240314 232.539491 
L 95.865212 232.86929 
L 96.190192 232.444302 
L 97.49011 232.543997 
L 97.815089 232.114896 
L 99.439987 232.157845 
L 99.764966 232.1392 
L 100.089946 229.481805 
L 100.414925 229.335564 
L 101.714844 229.47578 
L 102.039823 229.430626 
L 102.364803 229.239348 
L 102.689782 228.541571 
L 103.339741 228.585792 
L 103.9897 228.62883 
L 104.31468 228.56013 
L 104.639659 228.657711 
L 105.939577 228.354157 
L 106.264557 228.338308 
L 106.589536 228.095085 
L 106.914516 227.523891 
L 107.239495 225.189558 
L 107.564475 225.16843 
L 107.889455 225.033342 
L 110.164311 225.047755 
L 110.81427 224.989653 
L 111.13925 224.622841 
L 111.789209 224.538739 
L 112.114188 224.062777 
L 112.439168 224.115558 
L 112.764147 223.970901 
L 114.064066 223.907455 
L 114.714025 223.87112 
L 115.363984 223.930265 
L 115.688963 223.690081 
L 116.013943 222.817118 
L 118.613779 222.889064 
L 119.588717 222.705756 
L 119.913697 222.754066 
L 120.238676 222.553554 
L 120.888636 222.543638 
L 122.513533 222.554151 
L 122.838513 221.135733 
L 123.813451 221.265916 
L 125.113369 221.378684 
L 125.438349 221.29398 
L 125.763328 220.984127 
L 128.688144 221.006113 
L 129.338103 221.000582 
L 129.663083 221.028749 
L 129.988062 220.924632 
L 130.638021 220.95713 
L 130.963001 220.814129 
L 133.237857 220.983873 
L 133.562837 220.973122 
L 133.887817 220.465334 
L 136.487653 220.332326 
L 137.137612 220.401299 
L 137.462591 220.251811 
L 138.43753 220.341842 
L 139.087489 220.405646 
L 139.412468 220.224267 
L 140.062428 220.239813 
L 140.387407 220.189271 
L 140.712387 219.908301 
L 141.362346 219.92077 
L 142.987243 219.890117 
L 143.962182 219.782799 
L 144.93712 219.767641 
L 149.811813 219.437641 
L 151.111731 219.442536 
L 153.061609 219.389848 
L 154.036547 219.453226 
L 154.686506 219.373084 
L 155.336465 219.343081 
L 157.286342 219.34517 
L 157.936301 219.232397 
L 163.460953 219.07757 
L 163.785933 218.735444 
L 165.085851 218.837232 
L 166.385769 218.855976 
L 166.710749 218.617549 
L 167.360708 218.571423 
L 168.010667 218.524882 
L 168.660626 218.035147 
L 169.635564 218.059174 
L 169.960544 217.854426 
L 171.910421 217.914029 
L 174.510257 217.965515 
L 174.835237 217.760538 
L 175.160216 217.409437 
L 178.734991 217.361697 
L 182.634745 217.479209 
L 182.959725 217.49563 
L 183.934663 217.316514 
L 184.909602 217.274981 
L 185.884541 217.238748 
L 186.20952 216.667638 
L 190.759233 216.668154 
L 191.409192 216.629049 
L 193.35907 216.591717 
L 193.684049 216.610625 
L 194.009029 216.47514 
L 194.983967 216.479939 
L 195.308947 215.651872 
L 196.283885 215.701411 
L 196.608865 215.457535 
L 197.258824 215.46735 
L 197.908783 215.267215 
L 198.558742 215.291272 
L 198.883722 215.066128 
L 200.18364 215.015611 
L 200.508619 207.719204 
L 200.833599 207.978798 
L 201.483558 208.06029 
L 202.458496 208.069152 
L 203.758414 208.107629 
L 205.383312 208.13596 
L 206.033271 208.069101 
L 215.457677 207.971358 
L 215.782657 207.82274 
L 216.432616 207.846732 
L 216.757595 207.643348 
L 217.082575 207.648023 
L 217.407554 207.49868 
L 221.632288 207.391491 
L 222.932206 207.284877 
L 224.882084 207.307657 
L 225.857022 207.288601 
L 226.182002 207.050984 
L 228.131879 206.964288 
L 229.106817 206.92059 
L 231.381674 206.879197 
L 234.30649 206.924972 
L 234.631469 206.732848 
L 236.906326 206.713814 
L 237.231305 206.120734 
L 239.831142 206.045039 
L 243.080937 206.083651 
L 243.405916 205.691992 
L 245.030814 205.730424 
L 247.63065 205.705611 
L 249.580527 205.654987 
L 249.905507 205.413272 
L 256.730077 205.113696 
L 257.055057 204.726563 
L 257.705016 204.692458 
L 260.954811 204.688991 
L 261.27979 204.232623 
L 263.229667 204.215456 
L 263.554647 203.956713 
L 264.854565 203.919103 
L 265.504524 203.745813 
L 266.479463 203.660208 
L 267.129422 203.594795 
L 273.629012 203.519587 
L 276.878808 203.400841 
L 277.853746 203.267495 
L 279.803623 203.20573 
L 282.403459 203.238209 
L 282.728439 203.070702 
L 285.003296 203.062202 
L 286.628193 202.866603 
L 290.202968 202.915438 
L 290.527948 202.716779 
L 291.827866 202.62845 
L 292.802804 202.634028 
L 293.127784 202.281045 
L 294.427702 202.30773 
L 294.752681 201.507535 
L 297.027538 201.456213 
L 297.352518 201.277574 
L 298.977415 201.286703 
L 299.627374 201.2149 
L 304.177088 201.131679 
L 304.502067 200.789496 
L 311.001658 200.776445 
L 311.326637 199.964599 
L 313.276514 199.983658 
L 313.601494 198.480943 
L 315.876351 198.503199 
L 316.851289 198.539377 
L 317.501248 198.408385 
L 318.801166 198.429213 
L 319.126146 198.196643 
L 321.725982 198.196111 
L 323.0259 198.11609 
L 324.000839 198.139145 
L 324.325818 197.923751 
L 331.150388 197.977187 
L 332.775286 197.924351 
L 334.400183 197.783193 
L 338.624917 197.815908 
L 339.599856 197.796328 
L 347.724344 197.797783 
L 358.448668 197.785658 
L 358.773648 197.659967 
L 362.348423 197.679938 
L 363.323361 197.640034 
L 367.223115 197.688748 
L 367.548095 197.304429 
L 369.172993 197.28178 
L 370.147931 197.229341 
L 375.347604 197.140906 
L 381.522215 197.028216 
L 387.696826 196.877418 
L 388.021805 196.451619 
L 392.571518 196.496039 
L 396.471273 196.502481 
L 396.471273 196.502481 
" clip-path="url(#pde5467c73c)" style="fill: none; stroke: #8c564b; stroke-width: 2; stroke-linecap: square"/>
    <defs>
     <path id="m9770cfdf7d" d="M -0 4.242641 
L 2.545584 0 
L 0 -4.242641 
L -2.545584 -0 
z
" style="stroke: #8c564b; stroke-linejoin: miter"/>
    </defs>
    <g clip-path="url(#pde5467c73c)">
     <use xlink:href="#m9770cfdf7d" x="71.816727" y="314.968" style="fill: #8c564b; stroke: #8c564b; stroke-linejoin: miter"/>
     <use xlink:href="#m9770cfdf7d" x="136.812632" y="220.377318" style="fill: #8c564b; stroke: #8c564b; stroke-linejoin: miter"/>
     <use xlink:href="#m9770cfdf7d" x="201.808537" y="208.095614" style="fill: #8c564b; stroke: #8c564b; stroke-linejoin: miter"/>
     <use xlink:href="#m9770cfdf7d" x="266.804442" y="203.587197" style="fill: #8c564b; stroke: #8c564b; stroke-linejoin: miter"/>
     <use xlink:href="#m9770cfdf7d" x="331.800347" y="197.989944" style="fill: #8c564b; stroke: #8c564b; stroke-linejoin: miter"/>
    </g>
   </g>
   <g id="line2d_37">
    <path d="M 71.816727 314.968 
L 73.116645 314.968 
L 73.441625 302.223697 
L 74.416563 307.092539 
L 74.741543 306.711634 
L 75.391502 308.367631 
L 75.716482 265.459817 
L 76.041461 295.878081 
L 76.366441 303.544035 
L 76.69142 306.086428 
L 77.0164 307.124917 
L 77.666359 308.066145 
L 78.316318 308.69431 
L 78.641297 307.673896 
L 78.966277 308.819072 
L 79.291256 309.242734 
L 79.616236 309.356663 
L 79.941215 309.627802 
L 80.266195 309.65494 
L 80.591174 309.823131 
L 81.241133 309.647852 
L 81.566113 310.004681 
L 82.216072 310.233036 
L 82.866031 310.470326 
L 83.191011 310.283253 
L 83.51599 307.667145 
L 83.84097 309.702591 
L 84.165949 310.260347 
L 84.490929 310.414222 
L 84.815908 310.274657 
L 85.140888 310.452479 
L 85.465867 310.276602 
L 86.115826 310.729858 
L 86.440806 310.830472 
L 86.765785 310.654194 
L 87.090765 309.033997 
L 87.415744 310.194768 
L 87.740724 310.22097 
L 88.065704 309.395706 
L 88.390683 310.389637 
L 89.040642 310.762391 
L 89.690601 310.873833 
L 91.965458 311.052836 
L 92.290437 310.642785 
L 92.615417 311.007751 
L 93.265376 311.116816 
L 93.590355 310.732196 
L 93.915335 311.052277 
L 94.240314 310.218082 
L 94.565294 310.842762 
L 95.215253 311.097604 
L 97.16513 311.322119 
L 97.815089 311.369729 
L 98.140069 311.083626 
L 98.465048 311.281665 
L 102.039823 311.49227 
L 102.364803 311.273864 
L 103.014762 311.499883 
L 103.9897 311.540296 
L 104.31468 311.466167 
L 104.639659 311.510274 
L 104.964639 311.279158 
L 105.614598 311.523129 
L 106.914516 311.593957 
L 107.239495 310.32874 
L 107.564475 311.17455 
L 107.889455 311.43422 
L 108.864393 311.563093 
L 110.489291 311.564714 
L 110.81427 311.472273 
L 111.464229 311.618451 
L 112.114188 311.583739 
L 112.764147 311.635217 
L 113.089127 311.498817 
L 114.064066 311.627122 
L 115.363984 311.701196 
L 116.013943 311.617585 
L 116.663902 311.700676 
L 130.638021 311.860595 
L 130.963001 311.657136 
L 131.28798 311.811396 
L 132.912878 311.858006 
L 137.787571 311.900278 
L 138.43753 311.916654 
L 138.762509 311.361226 
L 139.087489 311.729863 
L 139.737448 311.8748 
L 141.687325 311.896621 
L 142.662264 311.888562 
L 143.962182 311.873953 
L 144.287161 174.772884 
L 144.612141 265.070132 
L 144.93712 291.004178 
L 145.2621 298.831667 
L 145.587079 301.259982 
L 145.912059 302.037729 
L 146.237038 302.321926 
L 147.211977 302.561964 
L 147.536957 302.502762 
L 148.511895 302.733544 
L 152.411649 303.231821 
L 153.386588 303.332238 
L 154.686506 303.480415 
L 155.011486 303.357751 
L 155.661445 303.586863 
L 156.311404 303.671846 
L 156.636383 303.083054 
L 156.961363 303.535614 
L 157.611322 303.760971 
L 162.810994 304.297943 
L 168.010667 304.748473 
L 171.910421 305.016601 
L 172.2354 304.950045 
L 175.485196 305.313779 
L 177.760052 305.446585 
L 178.085032 305.303295 
L 178.734991 305.512037 
L 180.684868 305.659988 
L 181.009848 305.583318 
L 182.309766 305.752732 
L 199.533681 306.671972 
L 202.133517 306.789209 
L 209.933025 307.118891 
L 210.258005 306.461654 
L 210.582984 306.906756 
L 211.232943 307.099765 
L 213.83278 307.222721 
L 228.131879 307.699346 
L 228.456858 306.874456 
L 228.781838 307.426947 
L 229.431797 307.647267 
L 231.381674 307.726428 
L 239.831142 307.943794 
L 243.080937 308.023154 
L 243.730896 307.997118 
L 245.030814 308.078912 
L 251.205425 308.225824 
L 251.530405 308.107231 
L 252.180364 308.215016 
L 254.45522 308.289395 
L 257.380036 308.353984 
L 257.705016 308.070368 
L 258.029995 308.267499 
L 259.004934 308.362224 
L 266.804442 308.523788 
L 272.329094 308.626303 
L 272.654074 308.496806 
L 273.304033 308.621408 
L 276.553828 308.688772 
L 277.853746 308.700917 
L 283.378398 308.800628 
L 286.303214 308.845769 
L 297.677497 309.023051 
L 298.002477 306.268214 
L 298.327456 308.079014 
L 298.652436 308.612634 
L 299.302395 308.832024 
L 301.577251 308.879516 
L 302.22721 308.859702 
L 304.177088 308.915435 
L 309.051781 308.969185 
L 313.601494 309.04356 
L 317.176269 309.070768 
L 320.101084 309.119681 
L 329.525491 309.228956 
L 353.573975 309.492553 
L 354.548914 309.484136 
L 357.47373 309.526191 
L 366.573156 309.613579 
L 366.898136 309.108958 
L 367.223115 309.445703 
L 367.873075 309.576032 
L 370.79789 309.616049 
L 371.12287 309.427192 
L 371.772829 309.590768 
L 374.697645 309.634427 
L 384.44703 309.720231 
L 396.471273 309.795811 
L 396.471273 309.795811 
" clip-path="url(#pde5467c73c)" style="fill: none; stroke: #e377c2; stroke-width: 2; stroke-linecap: square"/>
    <defs>
     <path id="mc1dd99f517" d="M 0 0 
L 0 3 
M 0 0 
L 2.4 -1.5 
M 0 0 
L -2.4 -1.5 
" style="stroke: #e377c2"/>
    </defs>
    <g clip-path="url(#pde5467c73c)">
     <use xlink:href="#mc1dd99f517" x="71.816727" y="314.968" style="fill: #e377c2; stroke: #e377c2"/>
     <use xlink:href="#mc1dd99f517" x="136.812632" y="311.890231" style="fill: #e377c2; stroke: #e377c2"/>
     <use xlink:href="#mc1dd99f517" x="201.808537" y="306.769322" style="fill: #e377c2; stroke: #e377c2"/>
     <use xlink:href="#mc1dd99f517" x="266.804442" y="308.523788" style="fill: #e377c2; stroke: #e377c2"/>
     <use xlink:href="#mc1dd99f517" x="331.800347" y="309.249062" style="fill: #e377c2; stroke: #e377c2"/>
    </g>
   </g>
   <g id="patch_3">
    <path d="M 55.584 327.064 
L 55.584 60.952 
" style="fill: none; stroke: #000000; stroke-width: 0.8; stroke-linejoin: miter; stroke-linecap: square"/>
   </g>
   <g id="patch_4">
    <path d="M 412.704 327.064 
L 412.704 60.952 
" style="fill: none; stroke: #000000; stroke-width: 0.8; stroke-linejoin: miter; stroke-linecap: square"/>
   </g>
   <g id="patch_5">
    <path d="M 55.584 327.064 
L 412.704 327.064 
" style="fill: none; stroke: #000000; stroke-width: 0.8; stroke-linejoin: miter; stroke-linecap: square"/>
   </g>
   <g id="patch_6">
    <path d="M 55.584 60.952 
L 412.704 60.952 
" style="fill: none; stroke: #000000; stroke-width: 0.8; stroke-linejoin: miter; stroke-linecap: square"/>
   </g>
   <g id="legend_1">
    <g id="patch_7">
     <path d="M 44.554313 54.278125 
L 412.213687 54.278125 
Q 414.213687 54.278125 414.213687 52.278125 
L 414.213687 9.2 
Q 414.213687 7.2 412.213687 7.2 
L 44.554313 7.2 
Q 42.554313 7.2 42.554313 9.2 
L 42.554313 52.278125 
Q 42.554313 54.278125 44.554313 54.278125 
z
" style="fill: #ffffff; opacity: 0.8; stroke: #cccccc; stroke-linejoin: miter"/>
    </g>
    <g id="line2d_38">
     <path d="M 46.554313 15.298437 
L 56.554313 15.298437 
L 66.554313 15.298437 
" style="fill: none; stroke: #1f77b4; stroke-width: 2; stroke-linecap: square"/>
     <g>
      <use xlink:href="#m5786e3fa60" x="56.554313" y="15.298437" style="fill: #1f77b4; stroke: #1f77b4"/>
     </g>
    </g>
    <g id="text_16">
     <!-- $\kappa$ = 0.02 -->
     <g transform="translate(74.554313 18.798437) scale(0.1 -0.1)">
      <defs>
       <path id="DejaVuSans-Oblique-3ba" d="M 938 3500 
L 1531 3500 
L 1247 2047 
L 3041 3500 
L 3741 3500 
L 2106 2181 
L 3275 0 
L 2572 0 
L 1628 1806 
L 1122 1403 
L 850 0 
L 256 0 
L 938 3500 
z
" transform="scale(0.015625)"/>
       <path id="DejaVuSans-20" transform="scale(0.015625)"/>
       <path id="DejaVuSans-3d" d="M 678 2906 
L 4684 2906 
L 4684 2381 
L 678 2381 
L 678 2906 
z
M 678 1631 
L 4684 1631 
L 4684 1100 
L 678 1100 
L 678 1631 
z
" transform="scale(0.015625)"/>
       <path id="DejaVuSans-2e" d="M 684 794 
L 1344 794 
L 1344 0 
L 684 0 
L 684 794 
z
" transform="scale(0.015625)"/>
      </defs>
      <use xlink:href="#DejaVuSans-Oblique-3ba" transform="translate(0 0.78125)"/>
      <use xlink:href="#DejaVuSans-20" transform="translate(58.935547 0.78125)"/>
      <use xlink:href="#DejaVuSans-3d" transform="translate(90.722656 0.78125)"/>
      <use xlink:href="#DejaVuSans-20" transform="translate(174.511719 0.78125)"/>
      <use xlink:href="#DejaVuSans-30" transform="translate(206.298828 0.78125)"/>
      <use xlink:href="#DejaVuSans-2e" transform="translate(269.921875 0.78125)"/>
      <use xlink:href="#DejaVuSans-30" transform="translate(301.708984 0.78125)"/>
      <use xlink:href="#DejaVuSans-32" transform="translate(365.332031 0.78125)"/>
     </g>
    </g>
    <g id="line2d_39">
     <path d="M 46.554313 29.978125 
L 56.554313 29.978125 
L 66.554313 29.978125 
" style="fill: none; stroke: #ff7f0e; stroke-width: 2; stroke-linecap: square"/>
     <g>
      <use xlink:href="#mcf716a590e" x="56.554313" y="29.978125" style="fill: #ff7f0e; stroke: #ff7f0e; stroke-linejoin: miter"/>
     </g>
    </g>
    <g id="text_17">
     <!-- Constant-edge ($\alpha$ = 0.400) -->
     <g transform="translate(74.554313 33.478125) scale(0.1 -0.1)">
      <defs>
       <path id="DejaVuSans-43" d="M 4122 4306 
L 4122 3641 
Q 3803 3938 3442 4084 
Q 3081 4231 2675 4231 
Q 1875 4231 1450 3742 
Q 1025 3253 1025 2328 
Q 1025 1406 1450 917 
Q 1875 428 2675 428 
Q 3081 428 3442 575 
Q 3803 722 4122 1019 
L 4122 359 
Q 3791 134 3420 21 
Q 3050 -91 2638 -91 
Q 1578 -91 968 557 
Q 359 1206 359 2328 
Q 359 3453 968 4101 
Q 1578 4750 2638 4750 
Q 3056 4750 3426 4639 
Q 3797 4528 4122 4306 
z
" transform="scale(0.015625)"/>
       <path id="DejaVuSans-6f" d="M 1959 3097 
Q 1497 3097 1228 2736 
Q 959 2375 959 1747 
Q 959 1119 1226 758 
Q 1494 397 1959 397 
Q 2419 397 2687 759 
Q 2956 1122 2956 1747 
Q 2956 2369 2687 2733 
Q 2419 3097 1959 3097 
z
M 1959 3584 
Q 2709 3584 3137 3096 
Q 3566 2609 3566 1747 
Q 3566 888 3137 398 
Q 2709 -91 1959 -91 
Q 1206 -91 779 398 
Q 353 888 353 1747 
Q 353 2609 779 3096 
Q 1206 3584 1959 3584 
z
" transform="scale(0.015625)"/>
       <path id="DejaVuSans-6e" d="M 3513 2113 
L 3513 0 
L 2938 0 
L 2938 2094 
Q 2938 2591 2744 2837 
Q 2550 3084 2163 3084 
Q 1697 3084 1428 2787 
Q 1159 2491 1159 1978 
L 1159 0 
L 581 0 
L 581 3500 
L 1159 3500 
L 1159 2956 
Q 1366 3272 1645 3428 
Q 1925 3584 2291 3584 
Q 2894 3584 3203 3211 
Q 3513 2838 3513 2113 
z
" transform="scale(0.015625)"/>
       <path id="DejaVuSans-73" d="M 2834 3397 
L 2834 2853 
Q 2591 2978 2328 3040 
Q 2066 3103 1784 3103 
Q 1356 3103 1142 2972 
Q 928 2841 928 2578 
Q 928 2378 1081 2264 
Q 1234 2150 1697 2047 
L 1894 2003 
Q 2506 1872 2764 1633 
Q 3022 1394 3022 966 
Q 3022 478 2636 193 
Q 2250 -91 1575 -91 
Q 1294 -91 989 -36 
Q 684 19 347 128 
L 347 722 
Q 666 556 975 473 
Q 1284 391 1588 391 
Q 1994 391 2212 530 
Q 2431 669 2431 922 
Q 2431 1156 2273 1281 
Q 2116 1406 1581 1522 
L 1381 1569 
Q 847 1681 609 1914 
Q 372 2147 372 2553 
Q 372 3047 722 3315 
Q 1072 3584 1716 3584 
Q 2034 3584 2315 3537 
Q 2597 3491 2834 3397 
z
" transform="scale(0.015625)"/>
       <path id="DejaVuSans-74" d="M 1172 4494 
L 1172 3500 
L 2356 3500 
L 2356 3053 
L 1172 3053 
L 1172 1153 
Q 1172 725 1289 603 
Q 1406 481 1766 481 
L 2356 481 
L 2356 0 
L 1766 0 
Q 1100 0 847 248 
Q 594 497 594 1153 
L 594 3053 
L 172 3053 
L 172 3500 
L 594 3500 
L 594 4494 
L 1172 4494 
z
" transform="scale(0.015625)"/>
       <path id="DejaVuSans-61" d="M 2194 1759 
Q 1497 1759 1228 1600 
Q 959 1441 959 1056 
Q 959 750 1161 570 
Q 1363 391 1709 391 
Q 2188 391 2477 730 
Q 2766 1069 2766 1631 
L 2766 1759 
L 2194 1759 
z
M 3341 1997 
L 3341 0 
L 2766 0 
L 2766 531 
Q 2569 213 2275 61 
Q 1981 -91 1556 -91 
Q 1019 -91 701 211 
Q 384 513 384 1019 
Q 384 1609 779 1909 
Q 1175 2209 1959 2209 
L 2766 2209 
L 2766 2266 
Q 2766 2663 2505 2880 
Q 2244 3097 1772 3097 
Q 1472 3097 1187 3025 
Q 903 2953 641 2809 
L 641 3341 
Q 956 3463 1253 3523 
Q 1550 3584 1831 3584 
Q 2591 3584 2966 3190 
Q 3341 2797 3341 1997 
z
" transform="scale(0.015625)"/>
       <path id="DejaVuSans-2d" d="M 313 2009 
L 1997 2009 
L 1997 1497 
L 313 1497 
L 313 2009 
z
" transform="scale(0.015625)"/>
       <path id="DejaVuSans-65" d="M 3597 1894 
L 3597 1613 
L 953 1613 
Q 991 1019 1311 708 
Q 1631 397 2203 397 
Q 2534 397 2845 478 
Q 3156 559 3463 722 
L 3463 178 
Q 3153 47 2828 -22 
Q 2503 -91 2169 -91 
Q 1331 -91 842 396 
Q 353 884 353 1716 
Q 353 2575 817 3079 
Q 1281 3584 2069 3584 
Q 2775 3584 3186 3129 
Q 3597 2675 3597 1894 
z
M 3022 2063 
Q 3016 2534 2758 2815 
Q 2500 3097 2075 3097 
Q 1594 3097 1305 2825 
Q 1016 2553 972 2059 
L 3022 2063 
z
" transform="scale(0.015625)"/>
       <path id="DejaVuSans-64" d="M 2906 2969 
L 2906 4863 
L 3481 4863 
L 3481 0 
L 2906 0 
L 2906 525 
Q 2725 213 2448 61 
Q 2172 -91 1784 -91 
Q 1150 -91 751 415 
Q 353 922 353 1747 
Q 353 2572 751 3078 
Q 1150 3584 1784 3584 
Q 2172 3584 2448 3432 
Q 2725 3281 2906 2969 
z
M 947 1747 
Q 947 1113 1208 752 
Q 1469 391 1925 391 
Q 2381 391 2643 752 
Q 2906 1113 2906 1747 
Q 2906 2381 2643 2742 
Q 2381 3103 1925 3103 
Q 1469 3103 1208 2742 
Q 947 2381 947 1747 
z
" transform="scale(0.015625)"/>
       <path id="DejaVuSans-67" d="M 2906 1791 
Q 2906 2416 2648 2759 
Q 2391 3103 1925 3103 
Q 1463 3103 1205 2759 
Q 947 2416 947 1791 
Q 947 1169 1205 825 
Q 1463 481 1925 481 
Q 2391 481 2648 825 
Q 2906 1169 2906 1791 
z
M 3481 434 
Q 3481 -459 3084 -895 
Q 2688 -1331 1869 -1331 
Q 1566 -1331 1297 -1286 
Q 1028 -1241 775 -1147 
L 775 -588 
Q 1028 -725 1275 -790 
Q 1522 -856 1778 -856 
Q 2344 -856 2625 -561 
Q 2906 -266 2906 331 
L 2906 616 
Q 2728 306 2450 153 
Q 2172 0 1784 0 
Q 1141 0 747 490 
Q 353 981 353 1791 
Q 353 2603 747 3093 
Q 1141 3584 1784 3584 
Q 2172 3584 2450 3431 
Q 2728 3278 2906 2969 
L 2906 3500 
L 3481 3500 
L 3481 434 
z
" transform="scale(0.015625)"/>
       <path id="DejaVuSans-28" d="M 1984 4856 
Q 1566 4138 1362 3434 
Q 1159 2731 1159 2009 
Q 1159 1288 1364 580 
Q 1569 -128 1984 -844 
L 1484 -844 
Q 1016 -109 783 600 
Q 550 1309 550 2009 
Q 550 2706 781 3412 
Q 1013 4119 1484 4856 
L 1984 4856 
z
" transform="scale(0.015625)"/>
       <path id="DejaVuSans-Oblique-3b1" d="M 2619 1628 
L 2622 2350 
Q 2625 3088 2069 3091 
Q 1653 3094 1394 2747 
Q 1069 2319 959 1747 
Q 825 1059 994 731 
Q 1169 397 1547 397 
Q 1966 397 2319 1063 
L 2619 1628 
z
M 2166 3578 
Q 3141 3594 3128 2584 
Q 3128 2584 3616 3500 
L 4128 3500 
L 3119 1603 
L 3109 919 
Q 3109 766 3194 638 
Q 3291 488 3391 488 
L 3669 488 
L 3575 0 
L 3228 0 
Q 2934 0 2722 263 
Q 2622 394 2619 669 
Q 2416 334 2066 50 
Q 1900 -81 1453 -78 
Q 722 -72 456 397 
Q 184 884 353 1747 
Q 534 2675 1009 3097 
Q 1544 3569 2166 3578 
z
" transform="scale(0.015625)"/>
       <path id="DejaVuSans-29" d="M 513 4856 
L 1013 4856 
Q 1481 4119 1714 3412 
Q 1947 2706 1947 2009 
Q 1947 1309 1714 600 
Q 1481 -109 1013 -844 
L 513 -844 
Q 928 -128 1133 580 
Q 1338 1288 1338 2009 
Q 1338 2731 1133 3434 
Q 928 4138 513 4856 
z
" transform="scale(0.015625)"/>
      </defs>
      <use xlink:href="#DejaVuSans-43" transform="translate(0 0.015625)"/>
      <use xlink:href="#DejaVuSans-6f" transform="translate(69.824219 0.015625)"/>
      <use xlink:href="#DejaVuSans-6e" transform="translate(131.005859 0.015625)"/>
      <use xlink:href="#DejaVuSans-73" transform="translate(194.384766 0.015625)"/>
      <use xlink:href="#DejaVuSans-74" transform="translate(246.484375 0.015625)"/>
      <use xlink:href="#DejaVuSans-61" transform="translate(285.693359 0.015625)"/>
      <use xlink:href="#DejaVuSans-6e" transform="translate(346.972656 0.015625)"/>
      <use xlink:href="#DejaVuSans-74" transform="translate(410.351562 0.015625)"/>
      <use xlink:href="#DejaVuSans-2d" transform="translate(449.560547 0.015625)"/>
      <use xlink:href="#DejaVuSans-65" transform="translate(485.644531 0.015625)"/>
      <use xlink:href="#DejaVuSans-64" transform="translate(547.167969 0.015625)"/>
      <use xlink:href="#DejaVuSans-67" transform="translate(610.644531 0.015625)"/>
      <use xlink:href="#DejaVuSans-65" transform="translate(674.121094 0.015625)"/>
      <use xlink:href="#DejaVuSans-20" transform="translate(735.644531 0.015625)"/>
      <use xlink:href="#DejaVuSans-28" transform="translate(767.431641 0.015625)"/>
      <use xlink:href="#DejaVuSans-Oblique-3b1" transform="translate(806.445312 0.015625)"/>
      <use xlink:href="#DejaVuSans-20" transform="translate(872.363281 0.015625)"/>
      <use xlink:href="#DejaVuSans-3d" transform="translate(904.150391 0.015625)"/>
      <use xlink:href="#DejaVuSans-20" transform="translate(987.939453 0.015625)"/>
      <use xlink:href="#DejaVuSans-30" transform="translate(1019.726562 0.015625)"/>
      <use xlink:href="#DejaVuSans-2e" transform="translate(1083.349609 0.015625)"/>
      <use xlink:href="#DejaVuSans-34" transform="translate(1115.136719 0.015625)"/>
      <use xlink:href="#DejaVuSans-30" transform="translate(1178.759766 0.015625)"/>
      <use xlink:href="#DejaVuSans-30" transform="translate(1242.382812 0.015625)"/>
      <use xlink:href="#DejaVuSans-29" transform="translate(1306.005859 0.015625)"/>
     </g>
    </g>
    <g id="line2d_40">
     <path d="M 46.554313 44.678125 
L 56.554313 44.678125 
L 66.554313 44.678125 
" style="fill: none; stroke: #2ca02c; stroke-width: 2; stroke-linecap: square"/>
     <g>
      <use xlink:href="#m72309361ed" x="56.554313" y="44.678125" style="fill: #2ca02c; stroke: #2ca02c; stroke-linejoin: miter"/>
     </g>
    </g>
    <g id="text_18">
     <!-- Maximum-degree ($\alpha$ = 0.333) -->
     <g transform="translate(74.554313 48.178125) scale(0.1 -0.1)">
      <defs>
       <path id="DejaVuSans-4d" d="M 628 4666 
L 1569 4666 
L 2759 1491 
L 3956 4666 
L 4897 4666 
L 4897 0 
L 4281 0 
L 4281 4097 
L 3078 897 
L 2444 897 
L 1241 4097 
L 1241 0 
L 628 0 
L 628 4666 
z
" transform="scale(0.015625)"/>
       <path id="DejaVuSans-78" d="M 3513 3500 
L 2247 1797 
L 3578 0 
L 2900 0 
L 1881 1375 
L 863 0 
L 184 0 
L 1544 1831 
L 300 3500 
L 978 3500 
L 1906 2253 
L 2834 3500 
L 3513 3500 
z
" transform="scale(0.015625)"/>
       <path id="DejaVuSans-69" d="M 603 3500 
L 1178 3500 
L 1178 0 
L 603 0 
L 603 3500 
z
M 603 4863 
L 1178 4863 
L 1178 4134 
L 603 4134 
L 603 4863 
z
" transform="scale(0.015625)"/>
       <path id="DejaVuSans-6d" d="M 3328 2828 
Q 3544 3216 3844 3400 
Q 4144 3584 4550 3584 
Q 5097 3584 5394 3201 
Q 5691 2819 5691 2113 
L 5691 0 
L 5113 0 
L 5113 2094 
Q 5113 2597 4934 2840 
Q 4756 3084 4391 3084 
Q 3944 3084 3684 2787 
Q 3425 2491 3425 1978 
L 3425 0 
L 2847 0 
L 2847 2094 
Q 2847 2600 2669 2842 
Q 2491 3084 2119 3084 
Q 1678 3084 1418 2786 
Q 1159 2488 1159 1978 
L 1159 0 
L 581 0 
L 581 3500 
L 1159 3500 
L 1159 2956 
Q 1356 3278 1631 3431 
Q 1906 3584 2284 3584 
Q 2666 3584 2933 3390 
Q 3200 3197 3328 2828 
z
" transform="scale(0.015625)"/>
       <path id="DejaVuSans-75" d="M 544 1381 
L 544 3500 
L 1119 3500 
L 1119 1403 
Q 1119 906 1312 657 
Q 1506 409 1894 409 
Q 2359 409 2629 706 
Q 2900 1003 2900 1516 
L 2900 3500 
L 3475 3500 
L 3475 0 
L 2900 0 
L 2900 538 
Q 2691 219 2414 64 
Q 2138 -91 1772 -91 
Q 1169 -91 856 284 
Q 544 659 544 1381 
z
M 1991 3584 
L 1991 3584 
z
" transform="scale(0.015625)"/>
       <path id="DejaVuSans-72" d="M 2631 2963 
Q 2534 3019 2420 3045 
Q 2306 3072 2169 3072 
Q 1681 3072 1420 2755 
Q 1159 2438 1159 1844 
L 1159 0 
L 581 0 
L 581 3500 
L 1159 3500 
L 1159 2956 
Q 1341 3275 1631 3429 
Q 1922 3584 2338 3584 
Q 2397 3584 2469 3576 
Q 2541 3569 2628 3553 
L 2631 2963 
z
" transform="scale(0.015625)"/>
       <path id="DejaVuSans-33" d="M 2597 2516 
Q 3050 2419 3304 2112 
Q 3559 1806 3559 1356 
Q 3559 666 3084 287 
Q 2609 -91 1734 -91 
Q 1441 -91 1130 -33 
Q 819 25 488 141 
L 488 750 
Q 750 597 1062 519 
Q 1375 441 1716 441 
Q 2309 441 2620 675 
Q 2931 909 2931 1356 
Q 2931 1769 2642 2001 
Q 2353 2234 1838 2234 
L 1294 2234 
L 1294 2753 
L 1863 2753 
Q 2328 2753 2575 2939 
Q 2822 3125 2822 3475 
Q 2822 3834 2567 4026 
Q 2313 4219 1838 4219 
Q 1578 4219 1281 4162 
Q 984 4106 628 3988 
L 628 4550 
Q 988 4650 1302 4700 
Q 1616 4750 1894 4750 
Q 2613 4750 3031 4423 
Q 3450 4097 3450 3541 
Q 3450 3153 3228 2886 
Q 3006 2619 2597 2516 
z
" transform="scale(0.015625)"/>
      </defs>
      <use xlink:href="#DejaVuSans-4d" transform="translate(0 0.015625)"/>
      <use xlink:href="#DejaVuSans-61" transform="translate(86.279297 0.015625)"/>
      <use xlink:href="#DejaVuSans-78" transform="translate(147.558594 0.015625)"/>
      <use xlink:href="#DejaVuSans-69" transform="translate(206.738281 0.015625)"/>
      <use xlink:href="#DejaVuSans-6d" transform="translate(234.521484 0.015625)"/>
      <use xlink:href="#DejaVuSans-75" transform="translate(331.933594 0.015625)"/>
      <use xlink:href="#DejaVuSans-6d" transform="translate(395.3125 0.015625)"/>
      <use xlink:href="#DejaVuSans-2d" transform="translate(490.974609 0.015625)"/>
      <use xlink:href="#DejaVuSans-64" transform="translate(527.058594 0.015625)"/>
      <use xlink:href="#DejaVuSans-65" transform="translate(590.535156 0.015625)"/>
      <use xlink:href="#DejaVuSans-67" transform="translate(652.058594 0.015625)"/>
      <use xlink:href="#DejaVuSans-72" transform="translate(715.535156 0.015625)"/>
      <use xlink:href="#DejaVuSans-65" transform="translate(756.648438 0.015625)"/>
      <use xlink:href="#DejaVuSans-65" transform="translate(818.171875 0.015625)"/>
      <use xlink:href="#DejaVuSans-20" transform="translate(879.695312 0.015625)"/>
      <use xlink:href="#DejaVuSans-28" transform="translate(911.482422 0.015625)"/>
      <use xlink:href="#DejaVuSans-Oblique-3b1" transform="translate(950.496094 0.015625)"/>
      <use xlink:href="#DejaVuSans-20" transform="translate(1016.414062 0.015625)"/>
      <use xlink:href="#DejaVuSans-3d" transform="translate(1048.201172 0.015625)"/>
      <use xlink:href="#DejaVuSans-20" transform="translate(1131.990234 0.015625)"/>
      <use xlink:href="#DejaVuSans-30" transform="translate(1163.777344 0.015625)"/>
      <use xlink:href="#DejaVuSans-2e" transform="translate(1227.400391 0.015625)"/>
      <use xlink:href="#DejaVuSans-33" transform="translate(1259.1875 0.015625)"/>
      <use xlink:href="#DejaVuSans-33" transform="translate(1322.810547 0.015625)"/>
      <use xlink:href="#DejaVuSans-33" transform="translate(1386.433594 0.015625)"/>
      <use xlink:href="#DejaVuSans-29" transform="translate(1450.056641 0.015625)"/>
     </g>
    </g>
    <g id="line2d_41">
     <path d="M 243.554313 15.298437 
L 253.554313 15.298437 
L 263.554313 15.298437 
" style="fill: none; stroke: #d62728; stroke-width: 2; stroke-linecap: square"/>
     <g>
      <use xlink:href="#m99746887f8" x="253.554313" y="15.298437" style="fill: #d62728; stroke: #d62728"/>
     </g>
    </g>
    <g id="text_19">
     <!-- Local-degree -->
     <g transform="translate(271.554313 18.798437) scale(0.1 -0.1)">
      <defs>
       <path id="DejaVuSans-4c" d="M 628 4666 
L 1259 4666 
L 1259 531 
L 3531 531 
L 3531 0 
L 628 0 
L 628 4666 
z
" transform="scale(0.015625)"/>
       <path id="DejaVuSans-63" d="M 3122 3366 
L 3122 2828 
Q 2878 2963 2633 3030 
Q 2388 3097 2138 3097 
Q 1578 3097 1268 2742 
Q 959 2388 959 1747 
Q 959 1106 1268 751 
Q 1578 397 2138 397 
Q 2388 397 2633 464 
Q 2878 531 3122 666 
L 3122 134 
Q 2881 22 2623 -34 
Q 2366 -91 2075 -91 
Q 1284 -91 818 406 
Q 353 903 353 1747 
Q 353 2603 823 3093 
Q 1294 3584 2113 3584 
Q 2378 3584 2631 3529 
Q 2884 3475 3122 3366 
z
" transform="scale(0.015625)"/>
       <path id="DejaVuSans-6c" d="M 603 4863 
L 1178 4863 
L 1178 0 
L 603 0 
L 603 4863 
z
" transform="scale(0.015625)"/>
      </defs>
      <use xlink:href="#DejaVuSans-4c"/>
      <use xlink:href="#DejaVuSans-6f" x="53.962891"/>
      <use xlink:href="#DejaVuSans-63" x="115.144531"/>
      <use xlink:href="#DejaVuSans-61" x="170.125"/>
      <use xlink:href="#DejaVuSans-6c" x="231.404297"/>
      <use xlink:href="#DejaVuSans-2d" x="259.1875"/>
      <use xlink:href="#DejaVuSans-64" x="295.271484"/>
      <use xlink:href="#DejaVuSans-65" x="358.748047"/>
      <use xlink:href="#DejaVuSans-67" x="420.271484"/>
      <use xlink:href="#DejaVuSans-72" x="483.748047"/>
      <use xlink:href="#DejaVuSans-65" x="522.611328"/>
      <use xlink:href="#DejaVuSans-65" x="584.134766"/>
     </g>
    </g>
    <g id="line2d_42">
     <path d="M 243.554313 29.976562 
L 253.554313 29.976562 
L 263.554313 29.976562 
" style="fill: none; stroke: #9467bd; stroke-width: 2; stroke-linecap: square"/>
     <g>
      <use xlink:href="#m11d1d1bdc1" x="253.554313" y="29.976562" style="fill: #9467bd; stroke: #9467bd; stroke-linejoin: miter"/>
     </g>
    </g>
    <g id="text_20">
     <!-- FMMC -->
     <g transform="translate(271.554313 33.476562) scale(0.1 -0.1)">
      <defs>
       <path id="DejaVuSans-46" d="M 628 4666 
L 3309 4666 
L 3309 4134 
L 1259 4134 
L 1259 2759 
L 3109 2759 
L 3109 2228 
L 1259 2228 
L 1259 0 
L 628 0 
L 628 4666 
z
" transform="scale(0.015625)"/>
      </defs>
      <use xlink:href="#DejaVuSans-46"/>
      <use xlink:href="#DejaVuSans-4d" x="57.519531"/>
      <use xlink:href="#DejaVuSans-4d" x="143.798828"/>
      <use xlink:href="#DejaVuSans-43" x="230.078125"/>
     </g>
    </g>
    <g id="line2d_43">
     <path d="M 356.124625 15.298437 
L 366.124625 15.298437 
L 376.124625 15.298437 
" style="fill: none; stroke: #8c564b; stroke-width: 2; stroke-linecap: square"/>
     <g>
      <use xlink:href="#m9770cfdf7d" x="366.124625" y="15.298437" style="fill: #8c564b; stroke: #8c564b; stroke-linejoin: miter"/>
     </g>
    </g>
    <g id="text_21">
     <!-- FDLA -->
     <g transform="translate(384.124625 18.798437) scale(0.1 -0.1)">
      <defs>
       <path id="DejaVuSans-44" d="M 1259 4147 
L 1259 519 
L 2022 519 
Q 2988 519 3436 956 
Q 3884 1394 3884 2338 
Q 3884 3275 3436 3711 
Q 2988 4147 2022 4147 
L 1259 4147 
z
M 628 4666 
L 1925 4666 
Q 3281 4666 3915 4102 
Q 4550 3538 4550 2338 
Q 4550 1131 3912 565 
Q 3275 0 1925 0 
L 628 0 
L 628 4666 
z
" transform="scale(0.015625)"/>
       <path id="DejaVuSans-41" d="M 2188 4044 
L 1331 1722 
L 3047 1722 
L 2188 4044 
z
M 1831 4666 
L 2547 4666 
L 4325 0 
L 3669 0 
L 3244 1197 
L 1141 1197 
L 716 0 
L 50 0 
L 1831 4666 
z
" transform="scale(0.015625)"/>
      </defs>
      <use xlink:href="#DejaVuSans-46"/>
      <use xlink:href="#DejaVuSans-44" x="57.519531"/>
      <use xlink:href="#DejaVuSans-4c" x="134.521484"/>
      <use xlink:href="#DejaVuSans-41" x="192.484375"/>
     </g>
    </g>
    <g id="line2d_44">
     <path d="M 356.124625 29.976562 
L 366.124625 29.976562 
L 376.124625 29.976562 
" style="fill: none; stroke: #e377c2; stroke-width: 2; stroke-linecap: square"/>
     <g>
      <use xlink:href="#mc1dd99f517" x="366.124625" y="29.976562" style="fill: #e377c2; stroke: #e377c2"/>
     </g>
    </g>
    <g id="text_22">
     <!-- OPT -->
     <g transform="translate(384.124625 33.476562) scale(0.1 -0.1)">
      <defs>
       <path id="DejaVuSans-4f" d="M 2522 4238 
Q 1834 4238 1429 3725 
Q 1025 3213 1025 2328 
Q 1025 1447 1429 934 
Q 1834 422 2522 422 
Q 3209 422 3611 934 
Q 4013 1447 4013 2328 
Q 4013 3213 3611 3725 
Q 3209 4238 2522 4238 
z
M 2522 4750 
Q 3503 4750 4090 4092 
Q 4678 3434 4678 2328 
Q 4678 1225 4090 567 
Q 3503 -91 2522 -91 
Q 1538 -91 948 565 
Q 359 1222 359 2328 
Q 359 3434 948 4092 
Q 1538 4750 2522 4750 
z
" transform="scale(0.015625)"/>
       <path id="DejaVuSans-50" d="M 1259 4147 
L 1259 2394 
L 2053 2394 
Q 2494 2394 2734 2622 
Q 2975 2850 2975 3272 
Q 2975 3691 2734 3919 
Q 2494 4147 2053 4147 
L 1259 4147 
z
M 628 4666 
L 2053 4666 
Q 2838 4666 3239 4311 
Q 3641 3956 3641 3272 
Q 3641 2581 3239 2228 
Q 2838 1875 2053 1875 
L 1259 1875 
L 1259 0 
L 628 0 
L 628 4666 
z
" transform="scale(0.015625)"/>
       <path id="DejaVuSans-54" d="M -19 4666 
L 3928 4666 
L 3928 4134 
L 2272 4134 
L 2272 0 
L 1638 0 
L 1638 4134 
L -19 4134 
L -19 4666 
z
" transform="scale(0.015625)"/>
      </defs>
      <use xlink:href="#DejaVuSans-4f"/>
      <use xlink:href="#DejaVuSans-50" x="78.710938"/>
      <use xlink:href="#DejaVuSans-54" x="139.013672"/>
     </g>
    </g>
   </g>
  </g>
  <g id="text_23">
   <!-- Timesteps -->
   <g transform="translate(197.599313 359.128375) scale(0.12 -0.12)">
    <defs>
     <path id="DejaVuSans-70" d="M 1159 525 
L 1159 -1331 
L 581 -1331 
L 581 3500 
L 1159 3500 
L 1159 2969 
Q 1341 3281 1617 3432 
Q 1894 3584 2278 3584 
Q 2916 3584 3314 3078 
Q 3713 2572 3713 1747 
Q 3713 922 3314 415 
Q 2916 -91 2278 -91 
Q 1894 -91 1617 61 
Q 1341 213 1159 525 
z
M 3116 1747 
Q 3116 2381 2855 2742 
Q 2594 3103 2138 3103 
Q 1681 3103 1420 2742 
Q 1159 2381 1159 1747 
Q 1159 1113 1420 752 
Q 1681 391 2138 391 
Q 2594 391 2855 752 
Q 3116 1113 3116 1747 
z
" transform="scale(0.015625)"/>
    </defs>
    <use xlink:href="#DejaVuSans-54"/>
    <use xlink:href="#DejaVuSans-69" x="57.958984"/>
    <use xlink:href="#DejaVuSans-6d" x="85.742188"/>
    <use xlink:href="#DejaVuSans-65" x="183.154297"/>
    <use xlink:href="#DejaVuSans-73" x="244.677734"/>
    <use xlink:href="#DejaVuSans-74" x="296.777344"/>
    <use xlink:href="#DejaVuSans-65" x="335.986328"/>
    <use xlink:href="#DejaVuSans-70" x="397.509766"/>
    <use xlink:href="#DejaVuSans-73" x="460.986328"/>
   </g>
  </g>
  <g id="text_24">
   <!-- Mean estimate error for the best arm -->
   <g transform="translate(16.318125 303.952187) rotate(-90) scale(0.12 -0.12)">
    <defs>
     <path id="DejaVuSans-66" d="M 2375 4863 
L 2375 4384 
L 1825 4384 
Q 1516 4384 1395 4259 
Q 1275 4134 1275 3809 
L 1275 3500 
L 2222 3500 
L 2222 3053 
L 1275 3053 
L 1275 0 
L 697 0 
L 697 3053 
L 147 3053 
L 147 3500 
L 697 3500 
L 697 3744 
Q 697 4328 969 4595 
Q 1241 4863 1831 4863 
L 2375 4863 
z
" transform="scale(0.015625)"/>
     <path id="DejaVuSans-68" d="M 3513 2113 
L 3513 0 
L 2938 0 
L 2938 2094 
Q 2938 2591 2744 2837 
Q 2550 3084 2163 3084 
Q 1697 3084 1428 2787 
Q 1159 2491 1159 1978 
L 1159 0 
L 581 0 
L 581 4863 
L 1159 4863 
L 1159 2956 
Q 1366 3272 1645 3428 
Q 1925 3584 2291 3584 
Q 2894 3584 3203 3211 
Q 3513 2838 3513 2113 
z
" transform="scale(0.015625)"/>
     <path id="DejaVuSans-62" d="M 3116 1747 
Q 3116 2381 2855 2742 
Q 2594 3103 2138 3103 
Q 1681 3103 1420 2742 
Q 1159 2381 1159 1747 
Q 1159 1113 1420 752 
Q 1681 391 2138 391 
Q 2594 391 2855 752 
Q 3116 1113 3116 1747 
z
M 1159 2969 
Q 1341 3281 1617 3432 
Q 1894 3584 2278 3584 
Q 2916 3584 3314 3078 
Q 3713 2572 3713 1747 
Q 3713 922 3314 415 
Q 2916 -91 2278 -91 
Q 1894 -91 1617 61 
Q 1341 213 1159 525 
L 1159 0 
L 581 0 
L 581 4863 
L 1159 4863 
L 1159 2969 
z
" transform="scale(0.015625)"/>
    </defs>
    <use xlink:href="#DejaVuSans-4d"/>
    <use xlink:href="#DejaVuSans-65" x="86.279297"/>
    <use xlink:href="#DejaVuSans-61" x="147.802734"/>
    <use xlink:href="#DejaVuSans-6e" x="209.082031"/>
    <use xlink:href="#DejaVuSans-20" x="272.460938"/>
    <use xlink:href="#DejaVuSans-65" x="304.248047"/>
    <use xlink:href="#DejaVuSans-73" x="365.771484"/>
    <use xlink:href="#DejaVuSans-74" x="417.871094"/>
    <use xlink:href="#DejaVuSans-69" x="457.080078"/>
    <use xlink:href="#DejaVuSans-6d" x="484.863281"/>
    <use xlink:href="#DejaVuSans-61" x="582.275391"/>
    <use xlink:href="#DejaVuSans-74" x="643.554688"/>
    <use xlink:href="#DejaVuSans-65" x="682.763672"/>
    <use xlink:href="#DejaVuSans-20" x="744.287109"/>
    <use xlink:href="#DejaVuSans-65" x="776.074219"/>
    <use xlink:href="#DejaVuSans-72" x="837.597656"/>
    <use xlink:href="#DejaVuSans-72" x="876.960938"/>
    <use xlink:href="#DejaVuSans-6f" x="915.824219"/>
    <use xlink:href="#DejaVuSans-72" x="977.005859"/>
    <use xlink:href="#DejaVuSans-20" x="1018.119141"/>
    <use xlink:href="#DejaVuSans-66" x="1049.90625"/>
    <use xlink:href="#DejaVuSans-6f" x="1085.111328"/>
    <use xlink:href="#DejaVuSans-72" x="1146.292969"/>
    <use xlink:href="#DejaVuSans-20" x="1187.40625"/>
    <use xlink:href="#DejaVuSans-74" x="1219.193359"/>
    <use xlink:href="#DejaVuSans-68" x="1258.402344"/>
    <use xlink:href="#DejaVuSans-65" x="1321.78125"/>
    <use xlink:href="#DejaVuSans-20" x="1383.304688"/>
    <use xlink:href="#DejaVuSans-62" x="1415.091797"/>
    <use xlink:href="#DejaVuSans-65" x="1478.568359"/>
    <use xlink:href="#DejaVuSans-73" x="1540.091797"/>
    <use xlink:href="#DejaVuSans-74" x="1592.191406"/>
    <use xlink:href="#DejaVuSans-20" x="1631.400391"/>
    <use xlink:href="#DejaVuSans-61" x="1663.1875"/>
    <use xlink:href="#DejaVuSans-72" x="1724.466797"/>
    <use xlink:href="#DejaVuSans-6d" x="1763.830078"/>
   </g>
  </g>
 </g>
 <defs>
  <clipPath id="pde5467c73c">
   <rect x="55.584" y="60.952" width="357.12" height="266.112"/>
  </clipPath>
 </defs>
</svg>
