<?xml version="1.0" encoding="utf-8" standalone="no"?>
<!DOCTYPE svg PUBLIC "-//W3C//DTD SVG 1.1//EN"
  "http://www.w3.org/Graphics/SVG/1.1/DTD/svg11.dtd">
<svg xmlns:xlink="http://www.w3.org/1999/xlink" width="421.811252pt" height="368.824pt" viewBox="0 0 421.811252 368.824" xmlns="http://www.w3.org/2000/svg" version="1.1">
 <metadata>
  <rdf:RDF xmlns:dc="http://purl.org/dc/elements/1.1/" xmlns:cc="http://creativecommons.org/ns#" xmlns:rdf="http://www.w3.org/1999/02/22-rdf-syntax-ns#">
   <cc:Work>
    <dc:type rdf:resource="http://purl.org/dc/dcmitype/StillImage"/>
    <dc:date>2024-06-12T03:32:25.334926</dc:date>
    <dc:format>image/svg+xml</dc:format>
    <dc:creator>
     <cc:Agent>
      <dc:title>Matplotlib v3.9.0, https://matplotlib.org/</dc:title>
     </cc:Agent>
    </dc:creator>
   </cc:Work>
  </rdf:RDF>
 </metadata>
 <defs>
  <style type="text/css">*{stroke-linejoin: round; stroke-linecap: butt}</style>
 </defs>
 <g id="figure_1">
  <g id="patch_1">
   <path d="M 0 368.824 
L 421.811252 368.824 
L 421.811252 0 
L 0 0 
z
" style="fill: #ffffff"/>
  </g>
  <g id="axes_1">
   <g id="patch_2">
    <path d="M 55.584 327.064 
L 412.704 327.064 
L 412.704 60.952 
L 55.584 60.952 
z
" style="fill: #ffffff"/>
   </g>
   <g id="matplotlib.axis_1">
    <g id="xtick_1">
     <g id="line2d_1">
      <path d="M 71.816727 327.064 
L 71.816727 60.952 
" clip-path="url(#p2501cf6f6d)" style="fill: none; stroke: #b0b0b0; stroke-width: 0.8; stroke-linecap: square"/>
     </g>
     <g id="line2d_2">
      <defs>
       <path id="m4aaf0a1684" d="M 0 0 
L 0 3.5 
" style="stroke: #000000; stroke-width: 0.8"/>
      </defs>
      <g>
       <use xlink:href="#m4aaf0a1684" x="71.816727" y="327.064" style="stroke: #000000; stroke-width: 0.8"/>
      </g>
     </g>
     <g id="text_1">
      <!-- 0 -->
      <g transform="translate(67.362977 344.701812) scale(0.14 -0.14)">
       <defs>
        <path id="DejaVuSans-30" d="M 2034 4250 
Q 1547 4250 1301 3770 
Q 1056 3291 1056 2328 
Q 1056 1369 1301 889 
Q 1547 409 2034 409 
Q 2525 409 2770 889 
Q 3016 1369 3016 2328 
Q 3016 3291 2770 3770 
Q 2525 4250 2034 4250 
z
M 2034 4750 
Q 2819 4750 3233 4129 
Q 3647 3509 3647 2328 
Q 3647 1150 3233 529 
Q 2819 -91 2034 -91 
Q 1250 -91 836 529 
Q 422 1150 422 2328 
Q 422 3509 836 4129 
Q 1250 4750 2034 4750 
z
" transform="scale(0.015625)"/>
       </defs>
       <use xlink:href="#DejaVuSans-30"/>
      </g>
     </g>
    </g>
    <g id="xtick_2">
     <g id="line2d_3">
      <path d="M 136.812632 327.064 
L 136.812632 60.952 
" clip-path="url(#p2501cf6f6d)" style="fill: none; stroke: #b0b0b0; stroke-width: 0.8; stroke-linecap: square"/>
     </g>
     <g id="line2d_4">
      <g>
       <use xlink:href="#m4aaf0a1684" x="136.812632" y="327.064" style="stroke: #000000; stroke-width: 0.8"/>
      </g>
     </g>
     <g id="text_2">
      <!-- 200 -->
      <g transform="translate(123.451382 344.701812) scale(0.14 -0.14)">
       <defs>
        <path id="DejaVuSans-32" d="M 1228 531 
L 3431 531 
L 3431 0 
L 469 0 
L 469 531 
Q 828 903 1448 1529 
Q 2069 2156 2228 2338 
Q 2531 2678 2651 2914 
Q 2772 3150 2772 3378 
Q 2772 3750 2511 3984 
Q 2250 4219 1831 4219 
Q 1534 4219 1204 4116 
Q 875 4013 500 3803 
L 500 4441 
Q 881 4594 1212 4672 
Q 1544 4750 1819 4750 
Q 2544 4750 2975 4387 
Q 3406 4025 3406 3419 
Q 3406 3131 3298 2873 
Q 3191 2616 2906 2266 
Q 2828 2175 2409 1742 
Q 1991 1309 1228 531 
z
" transform="scale(0.015625)"/>
       </defs>
       <use xlink:href="#DejaVuSans-32"/>
       <use xlink:href="#DejaVuSans-30" x="63.623047"/>
       <use xlink:href="#DejaVuSans-30" x="127.246094"/>
      </g>
     </g>
    </g>
    <g id="xtick_3">
     <g id="line2d_5">
      <path d="M 201.808537 327.064 
L 201.808537 60.952 
" clip-path="url(#p2501cf6f6d)" style="fill: none; stroke: #b0b0b0; stroke-width: 0.8; stroke-linecap: square"/>
     </g>
     <g id="line2d_6">
      <g>
       <use xlink:href="#m4aaf0a1684" x="201.808537" y="327.064" style="stroke: #000000; stroke-width: 0.8"/>
      </g>
     </g>
     <g id="text_3">
      <!-- 400 -->
      <g transform="translate(188.447287 344.701812) scale(0.14 -0.14)">
       <defs>
        <path id="DejaVuSans-34" d="M 2419 4116 
L 825 1625 
L 2419 1625 
L 2419 4116 
z
M 2253 4666 
L 3047 4666 
L 3047 1625 
L 3713 1625 
L 3713 1100 
L 3047 1100 
L 3047 0 
L 2419 0 
L 2419 1100 
L 313 1100 
L 313 1709 
L 2253 4666 
z
" transform="scale(0.015625)"/>
       </defs>
       <use xlink:href="#DejaVuSans-34"/>
       <use xlink:href="#DejaVuSans-30" x="63.623047"/>
       <use xlink:href="#DejaVuSans-30" x="127.246094"/>
      </g>
     </g>
    </g>
    <g id="xtick_4">
     <g id="line2d_7">
      <path d="M 266.804442 327.064 
L 266.804442 60.952 
" clip-path="url(#p2501cf6f6d)" style="fill: none; stroke: #b0b0b0; stroke-width: 0.8; stroke-linecap: square"/>
     </g>
     <g id="line2d_8">
      <g>
       <use xlink:href="#m4aaf0a1684" x="266.804442" y="327.064" style="stroke: #000000; stroke-width: 0.8"/>
      </g>
     </g>
     <g id="text_4">
      <!-- 600 -->
      <g transform="translate(253.443192 344.701812) scale(0.14 -0.14)">
       <defs>
        <path id="DejaVuSans-36" d="M 2113 2584 
Q 1688 2584 1439 2293 
Q 1191 2003 1191 1497 
Q 1191 994 1439 701 
Q 1688 409 2113 409 
Q 2538 409 2786 701 
Q 3034 994 3034 1497 
Q 3034 2003 2786 2293 
Q 2538 2584 2113 2584 
z
M 3366 4563 
L 3366 3988 
Q 3128 4100 2886 4159 
Q 2644 4219 2406 4219 
Q 1781 4219 1451 3797 
Q 1122 3375 1075 2522 
Q 1259 2794 1537 2939 
Q 1816 3084 2150 3084 
Q 2853 3084 3261 2657 
Q 3669 2231 3669 1497 
Q 3669 778 3244 343 
Q 2819 -91 2113 -91 
Q 1303 -91 875 529 
Q 447 1150 447 2328 
Q 447 3434 972 4092 
Q 1497 4750 2381 4750 
Q 2619 4750 2861 4703 
Q 3103 4656 3366 4563 
z
" transform="scale(0.015625)"/>
       </defs>
       <use xlink:href="#DejaVuSans-36"/>
       <use xlink:href="#DejaVuSans-30" x="63.623047"/>
       <use xlink:href="#DejaVuSans-30" x="127.246094"/>
      </g>
     </g>
    </g>
    <g id="xtick_5">
     <g id="line2d_9">
      <path d="M 331.800347 327.064 
L 331.800347 60.952 
" clip-path="url(#p2501cf6f6d)" style="fill: none; stroke: #b0b0b0; stroke-width: 0.8; stroke-linecap: square"/>
     </g>
     <g id="line2d_10">
      <g>
       <use xlink:href="#m4aaf0a1684" x="331.800347" y="327.064" style="stroke: #000000; stroke-width: 0.8"/>
      </g>
     </g>
     <g id="text_5">
      <!-- 800 -->
      <g transform="translate(318.439097 344.701812) scale(0.14 -0.14)">
       <defs>
        <path id="DejaVuSans-38" d="M 2034 2216 
Q 1584 2216 1326 1975 
Q 1069 1734 1069 1313 
Q 1069 891 1326 650 
Q 1584 409 2034 409 
Q 2484 409 2743 651 
Q 3003 894 3003 1313 
Q 3003 1734 2745 1975 
Q 2488 2216 2034 2216 
z
M 1403 2484 
Q 997 2584 770 2862 
Q 544 3141 544 3541 
Q 544 4100 942 4425 
Q 1341 4750 2034 4750 
Q 2731 4750 3128 4425 
Q 3525 4100 3525 3541 
Q 3525 3141 3298 2862 
Q 3072 2584 2669 2484 
Q 3125 2378 3379 2068 
Q 3634 1759 3634 1313 
Q 3634 634 3220 271 
Q 2806 -91 2034 -91 
Q 1263 -91 848 271 
Q 434 634 434 1313 
Q 434 1759 690 2068 
Q 947 2378 1403 2484 
z
M 1172 3481 
Q 1172 3119 1398 2916 
Q 1625 2713 2034 2713 
Q 2441 2713 2670 2916 
Q 2900 3119 2900 3481 
Q 2900 3844 2670 4047 
Q 2441 4250 2034 4250 
Q 1625 4250 1398 4047 
Q 1172 3844 1172 3481 
z
" transform="scale(0.015625)"/>
       </defs>
       <use xlink:href="#DejaVuSans-38"/>
       <use xlink:href="#DejaVuSans-30" x="63.623047"/>
       <use xlink:href="#DejaVuSans-30" x="127.246094"/>
      </g>
     </g>
    </g>
    <g id="xtick_6">
     <g id="line2d_11">
      <path d="M 396.796252 327.064 
L 396.796252 60.952 
" clip-path="url(#p2501cf6f6d)" style="fill: none; stroke: #b0b0b0; stroke-width: 0.8; stroke-linecap: square"/>
     </g>
     <g id="line2d_12">
      <g>
       <use xlink:href="#m4aaf0a1684" x="396.796252" y="327.064" style="stroke: #000000; stroke-width: 0.8"/>
      </g>
     </g>
     <g id="text_6">
      <!-- 1000 -->
      <g transform="translate(378.981252 344.701812) scale(0.14 -0.14)">
       <defs>
        <path id="DejaVuSans-31" d="M 794 531 
L 1825 531 
L 1825 4091 
L 703 3866 
L 703 4441 
L 1819 4666 
L 2450 4666 
L 2450 531 
L 3481 531 
L 3481 0 
L 794 0 
L 794 531 
z
" transform="scale(0.015625)"/>
       </defs>
       <use xlink:href="#DejaVuSans-31"/>
       <use xlink:href="#DejaVuSans-30" x="63.623047"/>
       <use xlink:href="#DejaVuSans-30" x="127.246094"/>
       <use xlink:href="#DejaVuSans-30" x="190.869141"/>
      </g>
     </g>
    </g>
   </g>
   <g id="matplotlib.axis_2">
    <g id="ytick_1">
     <g id="line2d_13">
      <path d="M 55.584 314.968 
L 412.704 314.968 
" clip-path="url(#p2501cf6f6d)" style="fill: none; stroke: #b0b0b0; stroke-width: 0.8; stroke-linecap: square"/>
     </g>
     <g id="line2d_14">
      <defs>
       <path id="m850f06e0f0" d="M 0 0 
L -3.5 0 
" style="stroke: #000000; stroke-width: 0.8"/>
      </defs>
      <g>
       <use xlink:href="#m850f06e0f0" x="55.584" y="314.968" style="stroke: #000000; stroke-width: 0.8"/>
      </g>
     </g>
     <g id="text_7">
      <!-- 0 -->
      <g transform="translate(39.6765 320.286906) scale(0.14 -0.14)">
       <use xlink:href="#DejaVuSans-30"/>
      </g>
     </g>
    </g>
    <g id="ytick_2">
     <g id="line2d_15">
      <path d="M 55.584 277.473503 
L 412.704 277.473503 
" clip-path="url(#p2501cf6f6d)" style="fill: none; stroke: #b0b0b0; stroke-width: 0.8; stroke-linecap: square"/>
     </g>
     <g id="line2d_16">
      <g>
       <use xlink:href="#m850f06e0f0" x="55.584" y="277.473503" style="stroke: #000000; stroke-width: 0.8"/>
      </g>
     </g>
     <g id="text_8">
      <!-- 5 -->
      <g transform="translate(39.6765 282.792409) scale(0.14 -0.14)">
       <defs>
        <path id="DejaVuSans-35" d="M 691 4666 
L 3169 4666 
L 3169 4134 
L 1269 4134 
L 1269 2991 
Q 1406 3038 1543 3061 
Q 1681 3084 1819 3084 
Q 2600 3084 3056 2656 
Q 3513 2228 3513 1497 
Q 3513 744 3044 326 
Q 2575 -91 1722 -91 
Q 1428 -91 1123 -41 
Q 819 9 494 109 
L 494 744 
Q 775 591 1075 516 
Q 1375 441 1709 441 
Q 2250 441 2565 725 
Q 2881 1009 2881 1497 
Q 2881 1984 2565 2268 
Q 2250 2553 1709 2553 
Q 1456 2553 1204 2497 
Q 953 2441 691 2322 
L 691 4666 
z
" transform="scale(0.015625)"/>
       </defs>
       <use xlink:href="#DejaVuSans-35"/>
      </g>
     </g>
    </g>
    <g id="ytick_3">
     <g id="line2d_17">
      <path d="M 55.584 239.979006 
L 412.704 239.979006 
" clip-path="url(#p2501cf6f6d)" style="fill: none; stroke: #b0b0b0; stroke-width: 0.8; stroke-linecap: square"/>
     </g>
     <g id="line2d_18">
      <g>
       <use xlink:href="#m850f06e0f0" x="55.584" y="239.979006" style="stroke: #000000; stroke-width: 0.8"/>
      </g>
     </g>
     <g id="text_9">
      <!-- 10 -->
      <g transform="translate(30.769 245.297912) scale(0.14 -0.14)">
       <use xlink:href="#DejaVuSans-31"/>
       <use xlink:href="#DejaVuSans-30" x="63.623047"/>
      </g>
     </g>
    </g>
    <g id="ytick_4">
     <g id="line2d_19">
      <path d="M 55.584 202.484509 
L 412.704 202.484509 
" clip-path="url(#p2501cf6f6d)" style="fill: none; stroke: #b0b0b0; stroke-width: 0.8; stroke-linecap: square"/>
     </g>
     <g id="line2d_20">
      <g>
       <use xlink:href="#m850f06e0f0" x="55.584" y="202.484509" style="stroke: #000000; stroke-width: 0.8"/>
      </g>
     </g>
     <g id="text_10">
      <!-- 15 -->
      <g transform="translate(30.769 207.803415) scale(0.14 -0.14)">
       <use xlink:href="#DejaVuSans-31"/>
       <use xlink:href="#DejaVuSans-35" x="63.623047"/>
      </g>
     </g>
    </g>
    <g id="ytick_5">
     <g id="line2d_21">
      <path d="M 55.584 164.990012 
L 412.704 164.990012 
" clip-path="url(#p2501cf6f6d)" style="fill: none; stroke: #b0b0b0; stroke-width: 0.8; stroke-linecap: square"/>
     </g>
     <g id="line2d_22">
      <g>
       <use xlink:href="#m850f06e0f0" x="55.584" y="164.990012" style="stroke: #000000; stroke-width: 0.8"/>
      </g>
     </g>
     <g id="text_11">
      <!-- 20 -->
      <g transform="translate(30.769 170.308919) scale(0.14 -0.14)">
       <use xlink:href="#DejaVuSans-32"/>
       <use xlink:href="#DejaVuSans-30" x="63.623047"/>
      </g>
     </g>
    </g>
    <g id="ytick_6">
     <g id="line2d_23">
      <path d="M 55.584 127.495515 
L 412.704 127.495515 
" clip-path="url(#p2501cf6f6d)" style="fill: none; stroke: #b0b0b0; stroke-width: 0.8; stroke-linecap: square"/>
     </g>
     <g id="line2d_24">
      <g>
       <use xlink:href="#m850f06e0f0" x="55.584" y="127.495515" style="stroke: #000000; stroke-width: 0.8"/>
      </g>
     </g>
     <g id="text_12">
      <!-- 25 -->
      <g transform="translate(30.769 132.814422) scale(0.14 -0.14)">
       <use xlink:href="#DejaVuSans-32"/>
       <use xlink:href="#DejaVuSans-35" x="63.623047"/>
      </g>
     </g>
    </g>
    <g id="ytick_7">
     <g id="line2d_25">
      <path d="M 55.584 90.001018 
L 412.704 90.001018 
" clip-path="url(#p2501cf6f6d)" style="fill: none; stroke: #b0b0b0; stroke-width: 0.8; stroke-linecap: square"/>
     </g>
     <g id="line2d_26">
      <g>
       <use xlink:href="#m850f06e0f0" x="55.584" y="90.001018" style="stroke: #000000; stroke-width: 0.8"/>
      </g>
     </g>
     <g id="text_13">
      <!-- 30 -->
      <g transform="translate(30.769 95.319925) scale(0.14 -0.14)">
       <defs>
        <path id="DejaVuSans-33" d="M 2597 2516 
Q 3050 2419 3304 2112 
Q 3559 1806 3559 1356 
Q 3559 666 3084 287 
Q 2609 -91 1734 -91 
Q 1441 -91 1130 -33 
Q 819 25 488 141 
L 488 750 
Q 750 597 1062 519 
Q 1375 441 1716 441 
Q 2309 441 2620 675 
Q 2931 909 2931 1356 
Q 2931 1769 2642 2001 
Q 2353 2234 1838 2234 
L 1294 2234 
L 1294 2753 
L 1863 2753 
Q 2328 2753 2575 2939 
Q 2822 3125 2822 3475 
Q 2822 3834 2567 4026 
Q 2313 4219 1838 4219 
Q 1578 4219 1281 4162 
Q 984 4106 628 3988 
L 628 4550 
Q 988 4650 1302 4700 
Q 1616 4750 1894 4750 
Q 2613 4750 3031 4423 
Q 3450 4097 3450 3541 
Q 3450 3153 3228 2886 
Q 3006 2619 2597 2516 
z
" transform="scale(0.015625)"/>
       </defs>
       <use xlink:href="#DejaVuSans-33"/>
       <use xlink:href="#DejaVuSans-30" x="63.623047"/>
      </g>
     </g>
    </g>
   </g>
   <g id="line2d_27">
    <path d="M 71.816727 314.968 
L 73.116645 314.968 
L 73.441625 269.052612 
L 74.091584 276.809793 
L 74.416563 277.658866 
L 75.066523 278.732437 
L 75.391502 278.067007 
L 75.716482 276.315673 
L 76.041461 275.840797 
L 76.366441 275.946126 
L 76.69142 275.231576 
L 77.0164 275.465894 
L 77.341379 275.33613 
L 77.666359 274.941826 
L 77.991338 274.802058 
L 78.641297 275.273664 
L 79.291256 275.540222 
L 79.616236 275.553298 
L 79.941215 274.95327 
L 80.591174 274.577027 
L 81.241133 274.787294 
L 81.566113 273.068207 
L 81.891093 272.953581 
L 82.541052 272.362957 
L 84.490929 272.168838 
L 84.815908 271.67033 
L 85.465867 271.739119 
L 85.790847 271.481334 
L 86.115826 271.419254 
L 86.440806 271.471485 
L 87.090765 270.896904 
L 87.415744 263.719719 
L 87.740724 263.993947 
L 88.390683 265.026694 
L 88.715663 265.412973 
L 89.040642 265.263682 
L 89.365622 265.490942 
L 89.690601 264.869416 
L 90.015581 265.1004 
L 90.34056 261.620634 
L 91.315499 262.615233 
L 92.940396 263.777223 
L 93.590355 264.035459 
L 94.240314 264.297496 
L 94.565294 262.346827 
L 95.215253 262.881272 
L 95.865212 263.149354 
L 96.515171 263.147256 
L 96.840151 263.320556 
L 97.49011 263.448792 
L 98.140069 262.588248 
L 98.790028 262.767737 
L 99.115007 262.631908 
L 99.439987 262.784987 
L 99.764966 262.782545 
L 100.414925 262.530807 
L 100.739905 262.658614 
L 101.389864 262.579385 
L 102.364803 262.786177 
L 103.014762 262.811422 
L 103.9897 263.020194 
L 104.31468 262.602756 
L 104.964639 262.729782 
L 105.939577 262.83438 
L 106.589536 262.638234 
L 106.914516 262.182891 
L 107.564475 262.28931 
L 107.889455 254.989438 
L 110.164311 255.856165 
L 110.489291 255.767443 
L 111.789209 256.113654 
L 112.114188 256.048011 
L 112.439168 256.155149 
L 112.764147 254.634782 
L 113.414106 254.777569 
L 113.739086 254.599048 
L 115.039004 254.947585 
L 116.013943 254.960088 
L 117.63884 255.345425 
L 118.613779 255.501303 
L 119.913697 255.684792 
L 120.888636 255.692706 
L 122.513533 255.777235 
L 122.838513 255.778925 
L 123.163492 255.507902 
L 124.78839 255.660244 
L 125.763328 255.666185 
L 126.088308 255.540064 
L 127.063247 255.557651 
L 128.038185 255.60132 
L 128.688144 255.535089 
L 129.013124 255.406009 
L 131.61296 255.539046 
L 133.887817 255.696452 
L 134.862755 255.704168 
L 135.187735 255.738506 
L 135.512714 255.369088 
L 139.412468 255.373229 
L 140.062428 255.314873 
L 140.387407 255.281667 
L 140.712387 255.003054 
L 142.662264 255.070277 
L 142.987243 254.956186 
L 145.912059 255.087806 
L 146.237038 254.514148 
L 148.511895 254.614631 
L 149.811813 254.329764 
L 151.111731 254.2387 
L 152.08667 253.890994 
L 153.061609 253.828998 
L 153.386588 253.858166 
L 153.711568 253.584155 
L 155.336465 253.550622 
L 155.986424 253.523216 
L 159.561199 253.611428 
L 159.886179 253.511892 
L 160.211158 252.911473 
L 160.861117 252.859483 
L 161.186097 252.763065 
L 162.810994 252.775116 
L 163.135974 252.665323 
L 164.760871 252.593017 
L 165.085851 252.561334 
L 165.41083 252.366451 
L 168.010667 252.24272 
L 169.960544 252.256125 
L 171.260462 252.216408 
L 173.860298 252.206204 
L 174.835237 252.129855 
L 176.785114 252.120892 
L 177.435073 252.066726 
L 180.034909 252.053363 
L 181.009848 251.945894 
L 182.959725 251.851606 
L 184.259643 251.86743 
L 184.909602 251.783134 
L 185.559561 251.790118 
L 185.884541 251.452948 
L 186.5345 251.448656 
L 186.859479 251.101984 
L 187.509438 251.090863 
L 187.834418 250.819621 
L 189.459315 250.735234 
L 192.384131 250.806116 
L 193.35907 250.693918 
L 193.684049 249.906436 
L 194.334008 249.876499 
L 194.658988 248.811661 
L 195.958906 248.604927 
L 198.883722 248.31677 
L 200.508619 248.109375 
L 200.833599 247.551975 
L 202.458496 247.387928 
L 203.108455 247.284869 
L 204.408373 247.263704 
L 205.058333 246.831951 
L 208.633107 246.602145 
L 209.283066 246.20818 
L 220.33237 245.835597 
L 221.632288 245.846493 
L 221.957268 245.331636 
L 223.257186 245.345904 
L 223.907145 245.232388 
L 225.532043 245.142869 
L 225.857022 244.879715 
L 228.781838 244.79466 
L 231.056695 244.740513 
L 235.606408 244.676789 
L 236.906326 244.623166 
L 237.231305 244.321974 
L 245.355794 244.089179 
L 246.655712 244.042947 
L 246.980691 244.039331 
L 247.305671 243.907648 
L 251.205425 243.870098 
L 251.530405 242.422711 
L 252.830323 242.386641 
L 254.130241 242.354148 
L 254.45522 242.231073 
L 256.730077 242.254044 
L 257.055057 242.133141 
L 257.380036 242.143033 
L 257.705016 241.886017 
L 262.254729 241.770936 
L 263.554647 241.724409 
L 264.529586 241.730141 
L 264.854565 241.510509 
L 266.479463 241.52242 
L 268.42934 241.43624 
L 268.754319 241.280884 
L 272.654074 241.209211 
L 278.828685 241.270116 
L 281.428521 241.232322 
L 282.403459 241.252546 
L 282.728439 240.053421 
L 297.027538 239.575239 
L 297.352518 239.450445 
L 306.451944 239.401965 
L 307.426883 239.361641 
L 328.550552 238.81917 
L 329.200511 238.63658 
L 331.150388 238.538415 
L 332.125327 238.451525 
L 332.450306 238.422132 
L 332.775286 237.728271 
L 333.425245 237.631933 
L 333.750224 237.219288 
L 336.350061 237.17446 
L 336.67504 236.086124 
L 344.149569 236.025255 
L 346.099446 236.039398 
L 346.424426 231.793748 
L 348.374303 231.761023 
L 359.098627 231.714104 
L 361.698464 231.74522 
L 362.348423 231.702658 
L 364.623279 231.693006 
L 365.598218 231.673262 
L 373.072747 231.746196 
L 373.397726 231.632556 
L 379.247358 231.706289 
L 380.547276 231.709118 
L 380.872256 231.056476 
L 386.721887 231.102658 
L 388.021805 231.037181 
L 390.621641 231.026306 
L 396.471273 231.068134 
L 396.471273 231.068134 
" clip-path="url(#p2501cf6f6d)" style="fill: none; stroke: #1f77b4; stroke-width: 2; stroke-linecap: square"/>
    <defs>
     <path id="m2953bb75e5" d="M 0 3 
C 0.795609 3 1.55874 2.683901 2.12132 2.12132 
C 2.683901 1.55874 3 0.795609 3 0 
C 3 -0.795609 2.683901 -1.55874 2.12132 -2.12132 
C 1.55874 -2.683901 0.795609 -3 0 -3 
C -0.795609 -3 -1.55874 -2.683901 -2.12132 -2.12132 
C -2.683901 -1.55874 -3 -0.795609 -3 0 
C -3 0.795609 -2.683901 1.55874 -2.12132 2.12132 
C -1.55874 2.683901 -0.795609 3 0 3 
z
" style="stroke: #1f77b4"/>
    </defs>
    <g clip-path="url(#p2501cf6f6d)">
     <use xlink:href="#m2953bb75e5" x="71.816727" y="314.968" style="fill: #1f77b4; stroke: #1f77b4"/>
     <use xlink:href="#m2953bb75e5" x="136.812632" y="255.369853" style="fill: #1f77b4; stroke: #1f77b4"/>
     <use xlink:href="#m2953bb75e5" x="201.808537" y="247.493798" style="fill: #1f77b4; stroke: #1f77b4"/>
     <use xlink:href="#m2953bb75e5" x="266.804442" y="241.513759" style="fill: #1f77b4; stroke: #1f77b4"/>
     <use xlink:href="#m2953bb75e5" x="331.800347" y="238.442834" style="fill: #1f77b4; stroke: #1f77b4"/>
    </g>
   </g>
   <g id="line2d_28">
    <path d="M 71.816727 314.968 
L 73.116645 314.968 
L 73.441625 285.047823 
L 73.766604 286.023133 
L 74.091584 284.588542 
L 74.416563 280.803086 
L 74.741543 280.518265 
L 75.066523 267.047921 
L 75.391502 266.96775 
L 75.716482 265.007649 
L 76.041461 264.845081 
L 76.366441 263.571577 
L 77.0164 262.702286 
L 77.341379 262.494181 
L 77.991338 261.090612 
L 78.316318 260.863708 
L 78.641297 260.804422 
L 78.966277 260.367916 
L 79.616236 259.960713 
L 79.941215 258.927509 
L 80.591174 257.721303 
L 80.916154 257.570323 
L 81.241133 256.250672 
L 81.566113 256.317344 
L 81.891093 255.882838 
L 82.216072 254.168186 
L 82.866031 254.288749 
L 83.191011 253.730922 
L 83.51599 253.878992 
L 83.84097 253.833995 
L 84.165949 251.328997 
L 84.815908 251.068712 
L 85.140888 251.059621 
L 85.465867 251.181923 
L 85.790847 250.612847 
L 86.115826 250.71337 
L 86.440806 250.505781 
L 87.090765 250.479048 
L 87.415744 250.576446 
L 87.740724 249.693112 
L 88.715663 249.781589 
L 89.040642 249.001969 
L 89.690601 249.189294 
L 90.015581 249.024189 
L 90.34056 247.413993 
L 90.66554 247.500616 
L 90.990519 247.220608 
L 92.290437 247.40471 
L 92.615417 246.961698 
L 92.940396 247.055092 
L 93.265376 246.97749 
L 93.590355 247.025694 
L 93.915335 246.883227 
L 94.240314 246.409967 
L 94.565294 246.324852 
L 94.890274 245.203215 
L 95.215253 245.302974 
L 95.540233 245.117771 
L 95.865212 245.138492 
L 96.190192 244.440781 
L 96.840151 244.614791 
L 97.16513 243.805921 
L 98.465048 244.02144 
L 99.115007 244.014338 
L 99.439987 244.108802 
L 99.764966 243.999474 
L 100.739905 244.135362 
L 101.064885 244.149545 
L 101.389864 243.049892 
L 101.714844 242.889863 
L 102.039823 242.975913 
L 102.364803 242.712607 
L 104.639659 242.987243 
L 105.614598 242.889432 
L 105.939577 242.524605 
L 106.264557 242.460238 
L 106.589536 242.210134 
L 107.239495 242.182694 
L 107.564475 242.219292 
L 107.889455 242.083179 
L 108.539414 242.176339 
L 109.189373 242.193156 
L 109.514352 242.223818 
L 109.839332 241.473814 
L 110.164311 241.508409 
L 110.489291 240.97962 
L 111.789209 240.808625 
L 112.439168 240.940949 
L 112.764147 240.703771 
L 113.739086 240.827071 
L 117.313861 240.791027 
L 118.288799 240.700514 
L 119.263738 240.813445 
L 119.913697 240.760656 
L 121.213615 240.742984 
L 121.538595 240.642404 
L 121.863574 240.384523 
L 122.188554 240.33957 
L 122.513533 230.507607 
L 122.838513 230.204165 
L 124.46341 230.418632 
L 124.78839 230.396028 
L 125.113369 230.151358 
L 125.438349 230.191308 
L 125.763328 230.035946 
L 127.713206 230.08822 
L 128.038185 229.989173 
L 128.688144 229.920958 
L 130.313042 229.890322 
L 132.262919 230.07412 
L 133.237857 230.055012 
L 133.562837 229.418622 
L 133.887817 229.453924 
L 134.212796 229.337147 
L 135.512714 229.36182 
L 136.162673 229.28456 
L 136.487653 228.721034 
L 138.11255 228.772731 
L 138.43753 227.359437 
L 140.387407 227.536598 
L 140.712387 227.356252 
L 142.012305 227.549226 
L 143.962182 227.636826 
L 147.536957 227.580357 
L 149.811813 227.690647 
L 152.411649 227.668726 
L 152.736629 227.051256 
L 159.236219 226.904035 
L 160.211158 226.764198 
L 160.861117 226.677869 
L 162.161035 226.697496 
L 162.486015 226.545522 
L 166.385769 226.483227 
L 167.360708 226.411702 
L 168.335646 226.351323 
L 184.259643 225.957766 
L 184.584622 225.969527 
L 184.909602 225.701391 
L 186.859479 225.696005 
L 187.834418 225.70008 
L 188.159397 225.584503 
L 188.809356 225.609373 
L 189.134336 225.403249 
L 192.384131 225.375228 
L 192.709111 224.95041 
L 194.334008 224.906116 
L 194.658988 224.891735 
L 195.308947 221.183053 
L 197.583803 221.203642 
L 197.908783 221.093068 
L 198.233762 215.648411 
L 204.733353 215.974403 
L 206.68323 215.959782 
L 207.00821 215.436854 
L 211.557923 215.631468 
L 212.207882 215.441289 
L 216.757595 215.603942 
L 217.082575 215.47954 
L 217.407554 209.721797 
L 218.382493 209.751613 
L 219.032452 209.741945 
L 223.582165 209.940941 
L 223.907145 209.837534 
L 226.506981 209.935169 
L 227.15694 209.901604 
L 230.081756 209.980785 
L 233.006572 210.121951 
L 233.656531 210.022363 
L 235.606408 209.933989 
L 235.931387 209.758943 
L 239.831142 209.950191 
L 241.13106 209.951711 
L 243.080937 210.001638 
L 244.380855 210.01771 
L 246.655712 210.099528 
L 247.305671 210.064387 
L 251.205425 210.172957 
L 255.430159 210.237521 
L 256.080118 210.170132 
L 259.004934 210.222208 
L 259.654893 210.076036 
L 260.629831 210.011678 
L 262.254729 209.880698 
L 263.229667 209.827261 
L 265.179545 209.859488 
L 266.804442 209.875282 
L 268.10436 209.860861 
L 270.379217 209.95909 
L 270.704197 209.847645 
L 276.878808 209.980525 
L 277.528767 209.916015 
L 277.853746 209.923618 
L 278.178726 209.806893 
L 282.403459 209.914963 
L 283.378398 209.890042 
L 287.928111 209.881729 
L 288.57807 209.813715 
L 292.152845 209.901425 
L 295.40264 209.918716 
L 298.002477 209.843855 
L 302.55219 209.873953 
L 311.651617 209.935275 
L 312.951535 209.919235 
L 317.176269 209.952811 
L 317.501248 209.77717 
L 330.17545 209.72755 
L 330.500429 208.863851 
L 332.125327 209.17253 
L 333.100265 209.244281 
L 335.050143 209.352801 
L 338.299938 209.468317 
L 341.549733 209.467443 
L 341.874713 209.481545 
L 342.199692 209.186519 
L 344.149569 209.181919 
L 344.474549 208.982639 
L 358.773648 209.18245 
L 362.023443 208.977794 
L 369.172993 209.027673 
L 380.547276 208.970699 
L 389.971682 209.118284 
L 390.296662 208.845089 
L 394.846375 208.787231 
L 396.471273 208.769425 
L 396.471273 208.769425 
" clip-path="url(#p2501cf6f6d)" style="fill: none; stroke: #ff7f0e; stroke-width: 2; stroke-linecap: square"/>
    <defs>
     <path id="mf2ae4d073b" d="M 0 -3 
L -3 3 
L 3 3 
z
" style="stroke: #ff7f0e; stroke-linejoin: miter"/>
    </defs>
    <g clip-path="url(#p2501cf6f6d)">
     <use xlink:href="#mf2ae4d073b" x="71.816727" y="314.968" style="fill: #ff7f0e; stroke: #ff7f0e; stroke-linejoin: miter"/>
     <use xlink:href="#mf2ae4d073b" x="136.812632" y="228.710998" style="fill: #ff7f0e; stroke: #ff7f0e; stroke-linejoin: miter"/>
     <use xlink:href="#mf2ae4d073b" x="201.808537" y="215.857738" style="fill: #ff7f0e; stroke: #ff7f0e; stroke-linejoin: miter"/>
     <use xlink:href="#mf2ae4d073b" x="266.804442" y="209.875282" style="fill: #ff7f0e; stroke: #ff7f0e; stroke-linejoin: miter"/>
     <use xlink:href="#mf2ae4d073b" x="331.800347" y="209.118527" style="fill: #ff7f0e; stroke: #ff7f0e; stroke-linejoin: miter"/>
    </g>
   </g>
   <g id="line2d_29">
    <path d="M 71.816727 314.968 
L 73.116645 314.968 
L 73.441625 275.755444 
L 73.766604 278.299223 
L 74.091584 278.122066 
L 74.416563 276.364546 
L 74.741543 273.210133 
L 75.066523 256.933066 
L 75.391502 257.08772 
L 75.716482 255.998124 
L 76.041461 256.085275 
L 76.366441 251.329283 
L 76.69142 252.298779 
L 77.341379 253.303446 
L 77.666359 253.306225 
L 78.316318 252.530056 
L 78.641297 252.672885 
L 79.616236 251.452424 
L 79.941215 251.302337 
L 80.266195 250.972761 
L 80.591174 250.808055 
L 81.241133 248.576953 
L 81.891093 248.41663 
L 82.216072 247.995726 
L 82.541052 247.956099 
L 83.51599 246.922078 
L 84.165949 246.474934 
L 84.815908 246.487662 
L 85.465867 246.391072 
L 86.115826 246.065391 
L 86.440806 246.085174 
L 86.765785 245.980691 
L 87.090765 245.726866 
L 88.065704 245.66622 
L 88.715663 245.293568 
L 89.040642 244.756153 
L 89.365622 242.916737 
L 89.690601 242.608371 
L 90.34056 242.445352 
L 91.315499 242.207554 
L 92.615417 242.144907 
L 92.940396 242.097344 
L 93.265376 241.823136 
L 93.590355 241.826652 
L 93.915335 238.503462 
L 94.565294 239.252381 
L 94.890274 239.006335 
L 95.215253 239.189803 
L 95.540233 238.14652 
L 95.865212 238.01383 
L 96.840151 238.128076 
L 97.16513 237.615266 
L 97.815089 237.681755 
L 98.140069 237.840756 
L 98.465048 237.33248 
L 98.790028 237.409415 
L 99.115007 237.10123 
L 99.764966 237.252689 
L 100.089946 237.258385 
L 100.414925 237.074979 
L 100.739905 237.082721 
L 101.064885 236.960564 
L 102.039823 237.092848 
L 102.364803 237.122298 
L 102.689782 236.871556 
L 103.014762 236.828885 
L 103.339741 236.490953 
L 103.664721 236.380847 
L 104.639659 236.519253 
L 104.964639 236.282478 
L 105.939577 236.360997 
L 106.264557 236.165456 
L 107.889455 236.18026 
L 108.214434 235.8237 
L 108.864393 235.942192 
L 109.839332 235.803358 
L 110.164311 235.838428 
L 110.489291 235.727268 
L 111.464229 235.892832 
L 112.114188 235.97163 
L 113.089127 235.916365 
L 113.739086 235.944597 
L 114.714025 235.941591 
L 115.039004 235.497493 
L 115.363984 235.32226 
L 115.688963 235.3184 
L 116.013943 235.101402 
L 119.588717 235.122604 
L 120.888636 235.164486 
L 121.538595 235.055849 
L 124.138431 235.092584 
L 124.78839 234.652628 
L 126.738267 234.601981 
L 130.313042 234.325174 
L 130.638021 233.504377 
L 132.262919 233.499309 
L 132.587898 231.76772 
L 133.887817 231.872681 
L 135.837694 232.117497 
L 137.462591 232.17709 
L 138.762509 232.2417 
L 139.412468 232.234819 
L 140.062428 232.117038 
L 141.037366 232.134955 
L 143.312223 231.871531 
L 143.962182 231.899156 
L 144.287161 231.641722 
L 145.587079 231.591572 
L 146.237038 231.596925 
L 147.536957 231.465319 
L 149.161854 231.499888 
L 151.436711 231.464711 
L 151.76169 231.294508 
L 153.386588 231.296209 
L 158.58626 230.799543 
L 161.836056 230.789279 
L 162.810994 230.68383 
L 164.435892 230.699475 
L 164.760871 230.579654 
L 166.710749 230.590892 
L 168.010667 230.551902 
L 168.335646 230.577478 
L 168.660626 228.281483 
L 169.635564 228.256387 
L 170.935482 228.239856 
L 174.185278 228.147365 
L 175.485196 228.067377 
L 176.785114 228.042713 
L 178.085032 227.971879 
L 180.034909 227.90041 
L 181.334827 227.862079 
L 181.984786 227.740712 
L 186.20952 227.765005 
L 187.509438 227.616197 
L 187.834418 227.34613 
L 190.109274 227.35717 
L 190.759233 227.298364 
L 192.384131 227.311485 
L 192.709111 226.880913 
L 194.009029 226.857039 
L 194.658988 226.752376 
L 197.583803 226.726445 
L 199.533681 226.614554 
L 199.85866 225.811109 
L 200.18364 225.675451 
L 202.783476 225.598563 
L 203.108455 225.410768 
L 206.358251 225.302739 
L 207.658169 225.181444 
L 209.608046 225.163725 
L 212.532862 225.08319 
L 213.5078 224.99699 
L 216.107636 225.026667 
L 216.432616 224.790715 
L 219.032452 224.752318 
L 225.857022 224.788873 
L 226.506981 224.721846 
L 226.831961 224.732351 
L 227.15694 224.409617 
L 227.48192 223.906323 
L 232.356613 223.834582 
L 232.681592 223.703494 
L 237.556285 223.703598 
L 238.206244 223.603764 
L 239.506162 223.568584 
L 240.481101 223.532593 
L 246.005753 223.541207 
L 246.980691 223.53117 
L 247.305671 222.563692 
L 249.255548 222.521818 
L 251.205425 222.491838 
L 256.730077 222.453542 
L 257.055057 222.197139 
L 259.004934 222.094337 
L 259.654893 222.040963 
L 263.554647 221.996489 
L 264.854565 221.980979 
L 265.179545 218.192525 
L 272.004115 218.211659 
L 277.853746 218.163267 
L 279.153664 218.107452 
L 279.478644 217.889329 
L 279.803623 217.90741 
L 280.453582 217.754119 
L 281.7535 217.792894 
L 282.07848 217.068258 
L 285.003296 217.057113 
L 285.328275 215.455243 
L 290.202968 215.500035 
L 298.002477 215.607184 
L 298.327456 215.609295 
L 298.977415 215.362701 
L 302.55219 215.321964 
L 303.527129 215.305854 
L 306.126965 215.336708 
L 306.776924 215.345735 
L 307.101903 215.175779 
L 310.351699 215.169191 
L 314.251453 215.207246 
L 314.901412 215.123459 
L 317.826228 215.186478 
L 321.401002 215.198587 
L 321.725982 215.207656 
L 322.050962 210.986672 
L 323.675859 210.954755 
L 324.325818 210.833821 
L 334.725163 210.784785 
L 335.050143 210.523059 
L 339.599856 210.558021 
L 339.924835 210.419007 
L 344.149569 210.391238 
L 344.799528 210.31686 
L 345.774467 210.272865 
L 362.023443 210.248583 
L 362.998382 210.166691 
L 364.948259 210.172194 
L 365.273238 210.046556 
L 370.147931 210.094029 
L 370.472911 209.949622 
L 386.396907 209.862265 
L 386.721887 209.639783 
L 388.671764 209.613357 
L 390.296662 209.546673 
L 393.871437 209.561524 
L 396.471273 209.561882 
L 396.471273 209.561882 
" clip-path="url(#p2501cf6f6d)" style="fill: none; stroke: #2ca02c; stroke-width: 2; stroke-linecap: square"/>
    <defs>
     <path id="m025d8d5c65" d="M -3 3 
L 3 3 
L 3 -3 
L -3 -3 
z
" style="stroke: #2ca02c; stroke-linejoin: miter"/>
    </defs>
    <g clip-path="url(#p2501cf6f6d)">
     <use xlink:href="#m025d8d5c65" x="71.816727" y="314.968" style="fill: #2ca02c; stroke: #2ca02c; stroke-linejoin: miter"/>
     <use xlink:href="#m025d8d5c65" x="136.812632" y="232.141506" style="fill: #2ca02c; stroke: #2ca02c; stroke-linejoin: miter"/>
     <use xlink:href="#m025d8d5c65" x="201.808537" y="225.619768" style="fill: #2ca02c; stroke: #2ca02c; stroke-linejoin: miter"/>
     <use xlink:href="#m025d8d5c65" x="266.804442" y="218.202583" style="fill: #2ca02c; stroke: #2ca02c; stroke-linejoin: miter"/>
     <use xlink:href="#m025d8d5c65" x="331.800347" y="210.765813" style="fill: #2ca02c; stroke: #2ca02c; stroke-linejoin: miter"/>
    </g>
   </g>
   <g id="line2d_30">
    <path d="M 71.816727 314.968 
L 73.116645 314.968 
L 73.441625 273.400985 
L 73.766604 274.500318 
L 74.091584 271.300599 
L 74.416563 269.641626 
L 74.741543 264.370247 
L 75.066523 264.872281 
L 75.391502 243.110239 
L 75.716482 240.945244 
L 76.041461 240.44902 
L 76.366441 240.972225 
L 76.69142 205.253328 
L 77.666359 216.451957 
L 77.991338 216.881793 
L 78.316318 217.618984 
L 79.291256 221.258186 
L 80.266195 223.886225 
L 80.591174 224.481102 
L 80.916154 224.452755 
L 81.241133 224.918468 
L 81.566113 225.149081 
L 81.891093 224.877815 
L 82.216072 224.416325 
L 82.541052 224.765929 
L 82.866031 224.832515 
L 83.191011 223.703411 
L 83.51599 224.096173 
L 83.84097 224.136788 
L 84.165949 224.424334 
L 84.490929 224.396516 
L 84.815908 220.604933 
L 85.140888 220.561267 
L 85.790847 221.070295 
L 86.115826 221.114735 
L 86.440806 221.298323 
L 86.765785 220.983816 
L 87.090765 221.29803 
L 87.415744 221.158072 
L 87.740724 221.453617 
L 88.065704 220.475635 
L 89.040642 220.995226 
L 89.365622 220.269002 
L 89.690601 220.437129 
L 90.015581 216.290513 
L 90.66554 217.788673 
L 91.315499 218.606844 
L 91.640478 214.973671 
L 91.965458 214.917619 
L 92.940396 216.185238 
L 93.265376 215.355501 
L 93.590355 215.789375 
L 94.240314 216.05913 
L 94.565294 216.282951 
L 95.215253 216.512837 
L 96.515171 216.893633 
L 97.16513 217.287782 
L 97.49011 217.350877 
L 97.815089 217.293655 
L 98.790028 217.626816 
L 99.439987 217.604747 
L 99.764966 217.681823 
L 100.089946 217.544325 
L 101.389864 217.755801 
L 102.039823 217.969818 
L 102.364803 217.610123 
L 102.689782 217.571229 
L 103.014762 217.681854 
L 103.339741 217.370363 
L 103.664721 217.426845 
L 103.9897 213.353127 
L 104.31468 213.077716 
L 104.639659 212.07838 
L 104.964639 212.157375 
L 105.289618 212.070781 
L 105.614598 199.645472 
L 106.264557 199.923634 
L 107.564475 199.984874 
L 107.889455 199.786056 
L 108.864393 199.907823 
L 109.189373 199.70473 
L 109.839332 199.618405 
L 113.739086 199.922419 
L 114.064066 199.736339 
L 114.714025 199.721164 
L 115.039004 199.689913 
L 115.363984 199.428487 
L 115.688963 198.638878 
L 117.313861 198.773096 
L 118.938758 198.593175 
L 120.238676 198.64624 
L 120.563656 198.367608 
L 121.863574 198.505617 
L 123.163492 198.547748 
L 123.488472 198.257393 
L 124.46341 198.196995 
L 125.763328 198.165474 
L 126.413287 198.067168 
L 128.363165 198.022632 
L 128.688144 197.631151 
L 129.338103 197.548984 
L 130.638021 197.610386 
L 135.837694 197.655323 
L 136.162673 197.422945 
L 137.137612 197.461908 
L 138.43753 197.463286 
L 138.762509 197.308581 
L 140.712387 197.32607 
L 141.362346 197.234169 
L 142.987243 197.10039 
L 143.637202 197.137097 
L 144.287161 197.089068 
L 144.612141 196.231571 
L 145.2621 196.318897 
L 145.587079 196.163231 
L 148.836875 196.211816 
L 149.161854 196.134527 
L 150.136793 196.166189 
L 151.436711 196.135011 
L 154.036547 196.109577 
L 154.361527 193.233824 
L 156.636383 193.334171 
L 156.961363 193.110741 
L 157.286342 193.143039 
L 157.611322 192.491412 
L 161.186097 192.605956 
L 161.511076 192.425244 
L 163.460953 192.510583 
L 164.760871 192.509093 
L 165.41083 192.379975 
L 166.385769 192.408382 
L 166.710749 192.234158 
L 167.035728 191.59639 
L 171.910421 191.807317 
L 174.185278 191.813086 
L 175.160216 191.832461 
L 176.135155 191.351377 
L 177.110093 191.381995 
L 177.435073 191.052012 
L 180.359889 191.190869 
L 181.334827 191.222248 
L 181.659807 183.480765 
L 185.559561 183.631646 
L 187.184459 183.730517 
L 187.834418 183.723991 
L 188.809356 183.774162 
L 189.134336 183.609587 
L 191.084213 183.743341 
L 192.059152 183.788832 
L 192.709111 183.857448 
L 193.03409 182.471999 
L 194.658988 182.62262 
L 194.983967 180.922918 
L 196.608865 180.682119 
L 200.833599 180.8993 
L 202.133517 180.822213 
L 203.433435 180.928238 
L 205.383312 181.03655 
L 205.708292 163.559525 
L 207.658169 163.517883 
L 212.207882 163.640004 
L 212.532862 163.294617 
L 213.5078 163.328434 
L 217.082575 163.58029 
L 217.407554 163.447018 
L 219.357432 163.482505 
L 219.682411 163.121698 
L 222.282247 163.204279 
L 222.607227 163.05974 
L 224.232124 163.1114 
L 226.182002 163.113812 
L 227.15694 163.135728 
L 227.806899 163.110412 
L 231.706654 163.26838 
L 232.031633 160.512577 
L 236.581346 160.578452 
L 236.906326 160.476655 
L 238.856203 160.488035 
L 241.456039 160.244143 
L 244.055876 160.370265 
L 249.255548 160.5754 
L 255.755138 160.816809 
L 256.405097 160.788618 
L 258.029995 160.771763 
L 258.354975 160.324238 
L 259.654893 160.36332 
L 260.629831 160.312963 
L 262.254729 160.318496 
L 262.579708 160.301732 
L 262.904688 160.042189 
L 269.729258 160.13323 
L 273.629012 160.096473 
L 274.92893 160.078388 
L 275.25391 159.818739 
L 277.853746 159.995534 
L 279.153664 160.00308 
L 284.678316 160.063732 
L 285.653255 160.055091 
L 286.303214 160.079277 
L 286.628193 159.776644 
L 287.928111 159.803907 
L 288.57807 159.740394 
L 291.177907 159.760399 
L 292.477825 159.783643 
L 293.777743 159.747417 
L 294.427702 159.77396 
L 295.077661 159.683999 
L 296.0526 159.723651 
L 296.702559 159.637293 
L 297.352518 159.643828 
L 297.677497 159.519845 
L 299.952354 159.427905 
L 300.602313 159.399896 
L 303.527129 159.470356 
L 304.177088 159.37849 
L 308.076842 159.386947 
L 308.401821 159.250597 
L 309.37676 159.209024 
L 310.676678 159.180151 
L 331.150388 159.078876 
L 331.475368 158.786344 
L 335.050143 158.801581 
L 335.700102 158.670096 
L 341.874713 158.777455 
L 348.049324 158.845101 
L 348.374303 73.048 
L 355.198873 76.502981 
L 355.848832 76.76743 
L 356.173812 76.055085 
L 358.123689 76.974235 
L 359.098627 77.389258 
L 363.323361 79.274136 
L 365.598218 80.244678 
L 370.472911 82.312437 
L 370.79789 82.448789 
L 371.12287 82.212757 
L 373.722706 83.231188 
L 374.047686 80.017417 
L 375.672583 80.705724 
L 378.922378 81.944632 
L 379.247358 81.862962 
L 381.522215 82.684926 
L 384.77201 83.880136 
L 385.421969 83.996166 
L 388.671764 85.124538 
L 389.321723 85.256481 
L 391.2716 85.946433 
L 391.921559 86.074886 
L 395.496334 87.26155 
L 396.471273 87.54554 
L 396.471273 87.54554 
" clip-path="url(#p2501cf6f6d)" style="fill: none; stroke: #d62728; stroke-width: 2; stroke-linecap: square"/>
    <defs>
     <path id="m2ddd19f52f" d="M -3 3 
L 3 -3 
M -3 -3 
L 3 3 
" style="stroke: #d62728"/>
    </defs>
    <g clip-path="url(#p2501cf6f6d)">
     <use xlink:href="#m2ddd19f52f" x="71.816727" y="314.968" style="fill: #d62728; stroke: #d62728"/>
     <use xlink:href="#m2ddd19f52f" x="136.812632" y="197.443276" style="fill: #d62728; stroke: #d62728"/>
     <use xlink:href="#m2ddd19f52f" x="201.808537" y="180.799206" style="fill: #d62728; stroke: #d62728"/>
     <use xlink:href="#m2ddd19f52f" x="266.804442" y="160.154642" style="fill: #d62728; stroke: #d62728"/>
     <use xlink:href="#m2ddd19f52f" x="331.800347" y="158.794453" style="fill: #d62728; stroke: #d62728"/>
    </g>
   </g>
   <g id="line2d_31">
    <path d="M 71.816727 314.968 
L 73.116645 314.968 
L 73.441625 283.078178 
L 73.766604 285.636722 
L 74.091584 282.620709 
L 74.416563 280.949467 
L 74.741543 280.62262 
L 75.066523 271.298253 
L 75.391502 269.273602 
L 75.716482 268.543765 
L 76.041461 269.441922 
L 76.366441 269.307717 
L 76.69142 269.491839 
L 77.991338 269.211888 
L 78.316318 268.643345 
L 78.641297 268.551106 
L 78.966277 268.181337 
L 79.291256 268.011717 
L 79.616236 267.439126 
L 79.941215 267.334154 
L 80.266195 267.031595 
L 80.591174 266.393981 
L 80.916154 264.884219 
L 81.241133 264.69702 
L 81.891093 263.734903 
L 82.216072 259.331426 
L 82.541052 259.4798 
L 83.51599 258.871353 
L 83.84097 258.598046 
L 84.165949 258.765853 
L 85.140888 258.362584 
L 85.465867 257.858341 
L 85.790847 258.025635 
L 86.115826 258.05986 
L 86.440806 252.981172 
L 86.765785 254.675309 
L 87.090765 254.407615 
L 88.065704 255.218272 
L 88.390683 255.401019 
L 88.715663 254.540216 
L 92.290437 255.052046 
L 92.615417 252.495539 
L 93.265376 252.684035 
L 93.915335 252.442672 
L 94.240314 252.499608 
L 94.565294 251.289041 
L 95.540233 251.451507 
L 96.190192 251.419871 
L 96.840151 251.450208 
L 98.140069 250.593887 
L 98.790028 250.571219 
L 99.439987 250.658723 
L 100.739905 250.489224 
L 101.714844 250.083657 
L 102.039823 250.152916 
L 102.364803 250.09756 
L 102.689782 249.248758 
L 103.014762 249.102703 
L 105.289618 249.000798 
L 105.614598 248.847201 
L 105.939577 248.87453 
L 106.264557 248.590553 
L 106.914516 248.546737 
L 107.239495 248.065524 
L 109.189373 247.656979 
L 110.81427 247.194224 
L 111.464229 246.573653 
L 111.789209 246.535021 
L 112.114188 246.380912 
L 114.064066 246.342494 
L 114.389045 246.226547 
L 115.363984 246.274359 
L 115.688963 245.865738 
L 116.013943 245.696949 
L 117.313861 245.675165 
L 117.63884 245.665464 
L 117.96382 245.335116 
L 118.613779 245.35617 
L 118.938758 245.172959 
L 121.863574 244.837127 
L 122.513533 244.889045 
L 122.838513 244.761448 
L 123.163492 244.300574 
L 124.78839 244.111728 
L 126.738267 244.151723 
L 127.713206 244.109701 
L 128.688144 243.616134 
L 130.313042 243.526605 
L 130.963001 243.554754 
L 131.28798 243.242308 
L 132.262919 243.195595 
L 132.587898 243.030056 
L 132.912878 243.049781 
L 133.887817 242.754203 
L 136.487653 242.678841 
L 136.812632 241.905751 
L 137.137612 241.480638 
L 137.462591 241.36701 
L 138.43753 241.388758 
L 138.762509 241.236535 
L 140.062428 241.272623 
L 140.387407 240.876977 
L 142.337284 240.675311 
L 142.662264 231.846967 
L 144.287161 231.906357 
L 145.587079 231.779905 
L 145.912059 231.524552 
L 147.536957 231.517655 
L 149.486834 231.600288 
L 150.136793 231.515078 
L 150.461772 228.491719 
L 151.111731 228.492023 
L 151.76169 228.425894 
L 153.711568 228.432922 
L 155.336465 228.295129 
L 155.661445 228.310147 
L 155.986424 227.975036 
L 157.286342 227.954969 
L 157.611322 227.772401 
L 161.511076 227.732684 
L 162.161035 227.62392 
L 163.135974 227.544226 
L 164.110912 227.524689 
L 164.435892 227.354983 
L 165.085851 227.227959 
L 166.710749 227.165472 
L 168.660626 227.118631 
L 169.310585 227.016209 
L 170.610503 226.818809 
L 175.160216 226.655512 
L 175.810175 226.580398 
L 176.135155 226.588988 
L 176.460134 226.176979 
L 177.110093 226.185061 
L 177.435073 225.969923 
L 179.38495 225.838033 
L 180.034909 225.775678 
L 181.984786 225.812077 
L 182.634745 225.738395 
L 184.584622 225.709146 
L 186.20952 225.599706 
L 186.859479 225.501143 
L 188.159397 225.4425 
L 188.484377 225.274907 
L 194.658988 225.279647 
L 195.308947 225.181481 
L 195.633926 224.428433 
L 196.933844 224.39497 
L 198.558742 224.316126 
L 203.108455 224.247332 
L 203.758414 224.207015 
L 206.033271 224.163597 
L 207.00821 224.060697 
L 209.608046 224.041058 
L 215.132698 224.003868 
L 216.432616 223.987027 
L 217.407554 223.958696 
L 217.732534 223.424374 
L 220.982329 223.266109 
L 221.307309 222.93109 
L 222.282247 222.994989 
L 225.532043 223.119918 
L 228.456858 223.083945 
L 228.781838 222.942613 
L 230.406735 222.896206 
L 231.381674 222.850077 
L 233.331551 222.893482 
L 233.98151 222.804214 
L 234.30649 222.815828 
L 234.631469 222.424387 
L 240.80608 222.313602 
L 241.13106 222.175423 
L 241.456039 222.17445 
L 241.781019 221.978407 
L 248.280609 221.933793 
L 248.605589 221.846419 
L 248.930568 221.568079 
L 250.230486 221.574852 
L 250.555466 221.265993 
L 254.7802 221.291355 
L 255.755138 221.272754 
L 256.080118 221.093734 
L 257.380036 221.058146 
L 258.354975 221.033992 
L 260.954811 220.967987 
L 261.27979 220.824767 
L 267.454401 220.716447 
L 271.029176 220.748586 
L 272.004115 220.769153 
L 272.654074 220.691105 
L 278.503705 220.73534 
L 279.153664 220.625828 
L 280.453582 220.625069 
L 280.778562 220.472973 
L 291.827866 220.34572 
L 292.152845 220.163777 
L 296.702559 220.191012 
L 308.726801 219.697344 
L 309.37676 219.57205 
L 310.026719 219.508669 
L 310.351699 218.602463 
L 312.951535 218.64747 
L 313.276514 218.460194 
L 317.176269 218.490339 
L 322.050962 218.428595 
L 323.35088 218.408112 
L 323.675859 218.117218 
L 326.925654 218.093454 
L 330.500429 218.065924 
L 331.150388 218.010018 
L 332.775286 218.004845 
L 335.050143 217.958296 
L 335.375122 217.469231 
L 336.67504 217.498449 
L 337.00002 217.365947 
L 337.649979 217.370966 
L 337.974958 217.20399 
L 339.274876 217.219014 
L 339.599856 216.634568 
L 345.774467 216.67008 
L 347.074385 216.668229 
L 348.049324 216.572854 
L 354.548914 216.625501 
L 354.873894 216.138045 
L 372.422788 216.203533 
L 373.072747 216.117917 
L 377.297481 216.16656 
L 380.547276 216.174611 
L 386.071928 216.216413 
L 387.371846 216.192682 
L 388.996744 216.199479 
L 389.321723 215.602296 
L 390.296662 215.586865 
L 390.621641 215.454213 
L 390.946621 215.458651 
L 391.2716 215.220724 
L 392.896498 215.165107 
L 395.496334 215.175274 
L 396.471273 215.19318 
L 396.471273 215.19318 
" clip-path="url(#p2501cf6f6d)" style="fill: none; stroke: #9467bd; stroke-width: 2; stroke-linecap: square"/>
    <defs>
     <path id="m7c5bde9112" d="M -0 3 
L 3 -3 
L -3 -3 
z
" style="stroke: #9467bd; stroke-linejoin: miter"/>
    </defs>
    <g clip-path="url(#p2501cf6f6d)">
     <use xlink:href="#m7c5bde9112" x="71.816727" y="314.968" style="fill: #9467bd; stroke: #9467bd; stroke-linejoin: miter"/>
     <use xlink:href="#m7c5bde9112" x="136.812632" y="241.905751" style="fill: #9467bd; stroke: #9467bd; stroke-linejoin: miter"/>
     <use xlink:href="#m7c5bde9112" x="201.808537" y="224.23265" style="fill: #9467bd; stroke: #9467bd; stroke-linejoin: miter"/>
     <use xlink:href="#m7c5bde9112" x="266.804442" y="220.823129" style="fill: #9467bd; stroke: #9467bd; stroke-linejoin: miter"/>
     <use xlink:href="#m7c5bde9112" x="331.800347" y="217.996805" style="fill: #9467bd; stroke: #9467bd; stroke-linejoin: miter"/>
    </g>
   </g>
   <g id="line2d_32">
    <path d="M 71.816727 314.968 
L 73.116645 314.968 
L 73.441625 262.904707 
L 73.766604 271.784573 
L 74.091584 275.294209 
L 74.416563 276.757972 
L 74.741543 275.908908 
L 75.066523 276.806062 
L 75.391502 268.770796 
L 75.716482 267.464503 
L 76.366441 266.382034 
L 76.69142 265.532222 
L 77.0164 266.037763 
L 77.341379 265.363094 
L 77.666359 264.99197 
L 77.991338 265.341804 
L 78.316318 264.809452 
L 78.641297 264.83372 
L 78.966277 264.461894 
L 79.616236 264.677708 
L 80.266195 264.081271 
L 80.591174 260.938007 
L 80.916154 260.687628 
L 81.241133 260.87501 
L 81.566113 260.219821 
L 81.891093 259.912134 
L 82.216072 260.155601 
L 82.541052 245.201401 
L 82.866031 244.99333 
L 83.191011 246.428971 
L 83.51599 246.559625 
L 83.84097 247.575865 
L 84.165949 247.611175 
L 85.140888 249.297234 
L 86.115826 250.450948 
L 87.090765 251.269904 
L 87.415744 251.214066 
L 88.390683 251.674576 
L 89.040642 252.079296 
L 89.365622 251.954172 
L 89.690601 252.062243 
L 90.66554 252.112265 
L 91.315499 252.304486 
L 91.965458 252.286229 
L 92.290437 251.448644 
L 92.615417 248.741522 
L 93.265376 249.245004 
L 93.590355 249.1464 
L 93.915335 249.245762 
L 94.240314 248.761268 
L 95.215253 248.65263 
L 95.865212 248.914515 
L 96.190192 248.751174 
L 96.515171 248.821833 
L 96.840151 248.746764 
L 97.16513 248.825026 
L 97.815089 248.355661 
L 98.140069 248.452003 
L 98.465048 248.429775 
L 99.439987 248.686734 
L 100.089946 248.870086 
L 100.414925 248.792257 
L 101.064885 248.946254 
L 101.389864 248.928563 
L 102.039823 249.007268 
L 102.364803 248.954877 
L 102.689782 249.026491 
L 103.014762 248.95625 
L 103.339741 248.494277 
L 103.9897 248.591475 
L 105.614598 248.743925 
L 105.939577 248.450724 
L 107.564475 248.401487 
L 107.889455 246.989602 
L 109.189373 247.047498 
L 109.514352 246.425109 
L 110.81427 246.391293 
L 111.13925 246.284587 
L 111.464229 245.777776 
L 112.764147 245.859959 
L 114.064066 245.989197 
L 115.688963 245.951889 
L 116.013943 227.435132 
L 116.988881 228.008032 
L 117.63884 228.296898 
L 117.96382 227.584144 
L 118.938758 228.066382 
L 119.263738 227.798319 
L 119.588717 226.988032 
L 120.238676 227.243806 
L 120.563656 227.140527 
L 122.188554 227.971105 
L 122.513533 227.943629 
L 122.838513 226.409365 
L 123.813451 226.677527 
L 124.78839 227.117608 
L 125.763328 227.379747 
L 126.413287 227.590512 
L 128.688144 228.205672 
L 129.013124 228.048145 
L 130.313042 228.469264 
L 130.638021 228.24724 
L 136.487653 229.616595 
L 136.812632 228.903063 
L 138.43753 229.360577 
L 139.412468 229.452782 
L 139.737448 229.448276 
L 140.387407 229.588957 
L 141.037366 229.735504 
L 142.337284 229.992895 
L 143.637202 230.217409 
L 144.287161 229.955145 
L 145.912059 230.255972 
L 146.562018 230.219309 
L 146.886998 230.108467 
L 148.511895 230.351945 
L 148.836875 230.169307 
L 155.336465 231.054912 
L 155.661445 230.885427 
L 155.986424 230.947689 
L 156.311404 230.841345 
L 157.936301 230.981363 
L 158.261281 230.262284 
L 161.186097 230.534946 
L 164.760871 231.043707 
L 165.41083 230.963566 
L 173.210339 231.495447 
L 173.535319 231.339557 
L 173.860298 230.865696 
L 176.135155 231.017571 
L 178.085032 231.127963 
L 179.38495 231.210313 
L 180.034909 231.184406 
L 181.659807 231.312445 
L 181.984786 231.102445 
L 185.884541 231.307 
L 186.20952 231.205091 
L 187.184459 231.28943 
L 188.809356 231.360627 
L 192.059152 231.512216 
L 193.35907 231.56975 
L 195.958906 231.751476 
L 197.258824 231.778484 
L 197.908783 231.754424 
L 199.208701 231.782961 
L 214.157759 232.046801 
L 214.482739 231.875741 
L 215.782657 231.920431 
L 217.732534 231.942603 
L 218.057514 231.80874 
L 222.607227 231.941203 
L 223.257186 231.791309 
L 224.882084 231.84212 
L 230.731715 231.969323 
L 231.381674 231.889044 
L 232.681592 231.897883 
L 234.631469 231.990617 
L 234.956449 231.703482 
L 236.581346 231.64365 
L 237.231305 231.663361 
L 237.556285 231.472314 
L 239.181183 231.491571 
L 241.781019 231.535261 
L 244.055876 231.584798 
L 249.580527 231.680253 
L 251.530405 231.648296 
L 252.180364 231.631401 
L 254.45522 231.681577 
L 282.728439 231.796222 
L 283.703378 231.785472 
L 284.353337 231.522222 
L 294.102722 231.34513 
L 294.427702 230.965946 
L 296.377579 230.985771 
L 296.702559 230.58027 
L 298.327456 230.515674 
L 300.927292 230.52608 
L 302.55219 230.533993 
L 304.502067 230.515179 
L 306.126965 230.45681 
L 306.451944 230.307238 
L 318.801166 230.366892 
L 319.126146 229.968592 
L 323.0259 229.768307 
L 328.875532 229.793774 
L 329.525491 229.754073 
L 334.075204 229.815948 
L 334.725163 229.746134 
L 342.524672 229.659567 
L 342.849651 229.438816 
L 346.749405 229.519631 
L 347.399364 229.447415 
L 349.024262 229.472158 
L 354.873894 229.512578 
L 356.498791 229.511234 
L 367.873075 229.71041 
L 371.772829 229.755944 
L 372.422788 229.759542 
L 372.747767 229.614965 
L 373.722706 229.54733 
L 374.047686 229.373255 
L 376.972501 229.511392 
L 377.94744 229.542326 
L 378.272419 229.420784 
L 380.547276 229.46743 
L 380.872256 227.820173 
L 384.44703 227.857369 
L 384.77201 227.67138 
L 394.521396 227.728983 
L 394.846375 227.529979 
L 396.471273 227.557893 
L 396.471273 227.557893 
" clip-path="url(#p2501cf6f6d)" style="fill: none; stroke: #8c564b; stroke-width: 2; stroke-linecap: square"/>
    <defs>
     <path id="m0c44c868be" d="M -0 4.242641 
L 2.545584 0 
L 0 -4.242641 
L -2.545584 -0 
z
" style="stroke: #8c564b; stroke-linejoin: miter"/>
    </defs>
    <g clip-path="url(#p2501cf6f6d)">
     <use xlink:href="#m0c44c868be" x="71.816727" y="314.968" style="fill: #8c564b; stroke: #8c564b; stroke-linejoin: miter"/>
     <use xlink:href="#m0c44c868be" x="136.812632" y="228.903063" style="fill: #8c564b; stroke: #8c564b; stroke-linejoin: miter"/>
     <use xlink:href="#m0c44c868be" x="201.808537" y="231.842154" style="fill: #8c564b; stroke: #8c564b; stroke-linejoin: miter"/>
     <use xlink:href="#m0c44c868be" x="266.804442" y="231.817398" style="fill: #8c564b; stroke: #8c564b; stroke-linejoin: miter"/>
     <use xlink:href="#m0c44c868be" x="331.800347" y="229.790729" style="fill: #8c564b; stroke: #8c564b; stroke-linejoin: miter"/>
    </g>
   </g>
   <g id="line2d_33">
    <path d="M 71.816727 314.968 
L 73.116645 314.968 
L 73.441625 307.494731 
L 73.766604 303.875897 
L 74.416563 306.835542 
L 74.741543 307.213631 
L 75.391502 307.133775 
L 76.041461 307.437393 
L 76.366441 306.951025 
L 76.69142 305.658232 
L 77.0164 306.545655 
L 77.666359 307.01291 
L 77.991338 307.081922 
L 78.316318 306.700372 
L 78.641297 307.036516 
L 79.291256 306.774821 
L 79.616236 302.4164 
L 79.941215 304.779623 
L 80.266195 304.7795 
L 80.591174 305.08713 
L 81.566113 305.175082 
L 82.216072 305.223614 
L 82.541052 304.99323 
L 83.84097 305.120623 
L 84.165949 304.962827 
L 84.490929 305.122803 
L 85.790847 305.231977 
L 86.115826 303.958272 
L 86.440806 304.395763 
L 86.765785 304.611292 
L 88.390683 304.72819 
L 90.015581 304.700149 
L 90.66554 304.712029 
L 91.315499 304.48048 
L 91.965458 304.620416 
L 92.290437 304.645469 
L 92.615417 296.974427 
L 92.940396 301.016791 
L 93.265376 301.64392 
L 93.590355 301.824123 
L 94.565294 301.927368 
L 95.540233 302.106309 
L 96.190192 302.137193 
L 96.515171 300.781754 
L 96.840151 301.570946 
L 97.815089 301.760897 
L 98.140069 301.576114 
L 98.790028 301.823695 
L 100.414925 301.974532 
L 100.739905 295.045873 
L 101.064885 298.667525 
L 101.389864 299.267956 
L 102.039823 299.400012 
L 103.014762 299.480395 
L 103.664721 299.513553 
L 109.839332 299.947779 
L 114.714025 300.146169 
L 115.688963 300.131983 
L 116.663902 300.158926 
L 121.213615 300.218363 
L 121.538595 300.139026 
L 122.513533 300.219628 
L 122.838513 300.22849 
L 123.163492 300.111517 
L 123.813451 300.217551 
L 126.088308 300.244277 
L 127.388226 300.293452 
L 127.713206 300.199725 
L 128.688144 300.296532 
L 129.338103 300.269946 
L 132.262919 300.349746 
L 133.562837 300.277367 
L 134.537776 300.313668 
L 136.487653 300.35233 
L 138.762509 300.39071 
L 162.486015 300.461285 
L 162.810994 300.362662 
L 163.785933 300.436646 
L 186.5345 300.500737 
L 186.859479 296.813572 
L 187.184459 298.726207 
L 187.509438 299.019908 
L 188.484377 299.061845 
L 191.084213 299.047339 
L 192.709111 299.047658 
L 194.658988 299.05312 
L 194.983967 298.883653 
L 195.633926 298.992565 
L 196.283885 298.997888 
L 196.608865 298.886191 
L 197.258824 298.961336 
L 201.158578 298.917299 
L 207.00821 298.922708 
L 207.983148 298.922157 
L 208.308128 298.800733 
L 209.283066 298.879281 
L 216.107636 298.86879 
L 217.082575 298.857761 
L 223.907145 298.847583 
L 225.207063 298.846345 
L 233.98151 298.860679 
L 236.906326 298.870795 
L 253.805261 298.894665 
L 257.055057 298.898022 
L 270.054238 298.891262 
L 270.379217 298.663672 
L 271.029176 298.793227 
L 274.92893 298.80699 
L 287.603132 298.812705 
L 306.776924 298.694276 
L 312.626555 298.705134 
L 314.901412 298.702677 
L 328.550552 298.70654 
L 328.875532 298.549041 
L 329.525491 298.64442 
L 333.425245 298.628629 
L 333.750224 298.366693 
L 334.400183 298.532766 
L 336.67504 298.538347 
L 337.00002 298.435367 
L 337.974958 298.502627 
L 344.799528 298.508404 
L 345.449487 298.483736 
L 349.674221 298.472173 
L 354.223934 298.477545 
L 396.471273 298.436099 
L 396.471273 298.436099 
" clip-path="url(#p2501cf6f6d)" style="fill: none; stroke: #e377c2; stroke-width: 2; stroke-linecap: square"/>
    <defs>
     <path id="mff75bb6b43" d="M 0 0 
L 0 3 
M 0 0 
L 2.4 -1.5 
M 0 0 
L -2.4 -1.5 
" style="stroke: #e377c2"/>
    </defs>
    <g clip-path="url(#p2501cf6f6d)">
     <use xlink:href="#mff75bb6b43" x="71.816727" y="314.968" style="fill: #e377c2; stroke: #e377c2"/>
     <use xlink:href="#mff75bb6b43" x="136.812632" y="300.373306" style="fill: #e377c2; stroke: #e377c2"/>
     <use xlink:href="#mff75bb6b43" x="201.808537" y="298.912883" style="fill: #e377c2; stroke: #e377c2"/>
     <use xlink:href="#mff75bb6b43" x="266.804442" y="298.901691" style="fill: #e377c2; stroke: #e377c2"/>
     <use xlink:href="#mff75bb6b43" x="331.800347" y="298.641313" style="fill: #e377c2; stroke: #e377c2"/>
    </g>
   </g>
   <g id="patch_3">
    <path d="M 55.584 327.064 
L 55.584 60.952 
" style="fill: none; stroke: #000000; stroke-width: 0.8; stroke-linejoin: miter; stroke-linecap: square"/>
   </g>
   <g id="patch_4">
    <path d="M 412.704 327.064 
L 412.704 60.952 
" style="fill: none; stroke: #000000; stroke-width: 0.8; stroke-linejoin: miter; stroke-linecap: square"/>
   </g>
   <g id="patch_5">
    <path d="M 55.584 327.064 
L 412.704 327.064 
" style="fill: none; stroke: #000000; stroke-width: 0.8; stroke-linejoin: miter; stroke-linecap: square"/>
   </g>
   <g id="patch_6">
    <path d="M 55.584 60.952 
L 412.704 60.952 
" style="fill: none; stroke: #000000; stroke-width: 0.8; stroke-linejoin: miter; stroke-linecap: square"/>
   </g>
   <g id="legend_1">
    <g id="patch_7">
     <path d="M 44.554313 54.278125 
L 412.213687 54.278125 
Q 414.213687 54.278125 414.213687 52.278125 
L 414.213687 9.2 
Q 414.213687 7.2 412.213687 7.2 
L 44.554313 7.2 
Q 42.554313 7.2 42.554313 9.2 
L 42.554313 52.278125 
Q 42.554313 54.278125 44.554313 54.278125 
z
" style="fill: #ffffff; opacity: 0.8; stroke: #cccccc; stroke-linejoin: miter"/>
    </g>
    <g id="line2d_34">
     <path d="M 46.554313 15.298437 
L 56.554313 15.298437 
L 66.554313 15.298437 
" style="fill: none; stroke: #1f77b4; stroke-width: 2; stroke-linecap: square"/>
     <g>
      <use xlink:href="#m2953bb75e5" x="56.554313" y="15.298437" style="fill: #1f77b4; stroke: #1f77b4"/>
     </g>
    </g>
    <g id="text_14">
     <!-- $\kappa$ = 0.02 -->
     <g transform="translate(74.554313 18.798437) scale(0.1 -0.1)">
      <defs>
       <path id="DejaVuSans-Oblique-3ba" d="M 938 3500 
L 1531 3500 
L 1247 2047 
L 3041 3500 
L 3741 3500 
L 2106 2181 
L 3275 0 
L 2572 0 
L 1628 1806 
L 1122 1403 
L 850 0 
L 256 0 
L 938 3500 
z
" transform="scale(0.015625)"/>
       <path id="DejaVuSans-20" transform="scale(0.015625)"/>
       <path id="DejaVuSans-3d" d="M 678 2906 
L 4684 2906 
L 4684 2381 
L 678 2381 
L 678 2906 
z
M 678 1631 
L 4684 1631 
L 4684 1100 
L 678 1100 
L 678 1631 
z
" transform="scale(0.015625)"/>
       <path id="DejaVuSans-2e" d="M 684 794 
L 1344 794 
L 1344 0 
L 684 0 
L 684 794 
z
" transform="scale(0.015625)"/>
      </defs>
      <use xlink:href="#DejaVuSans-Oblique-3ba" transform="translate(0 0.78125)"/>
      <use xlink:href="#DejaVuSans-20" transform="translate(58.935547 0.78125)"/>
      <use xlink:href="#DejaVuSans-3d" transform="translate(90.722656 0.78125)"/>
      <use xlink:href="#DejaVuSans-20" transform="translate(174.511719 0.78125)"/>
      <use xlink:href="#DejaVuSans-30" transform="translate(206.298828 0.78125)"/>
      <use xlink:href="#DejaVuSans-2e" transform="translate(269.921875 0.78125)"/>
      <use xlink:href="#DejaVuSans-30" transform="translate(301.708984 0.78125)"/>
      <use xlink:href="#DejaVuSans-32" transform="translate(365.332031 0.78125)"/>
     </g>
    </g>
    <g id="line2d_35">
     <path d="M 46.554313 29.978125 
L 56.554313 29.978125 
L 66.554313 29.978125 
" style="fill: none; stroke: #ff7f0e; stroke-width: 2; stroke-linecap: square"/>
     <g>
      <use xlink:href="#mf2ae4d073b" x="56.554313" y="29.978125" style="fill: #ff7f0e; stroke: #ff7f0e; stroke-linejoin: miter"/>
     </g>
    </g>
    <g id="text_15">
     <!-- Constant-edge ($\alpha$ = 0.333) -->
     <g transform="translate(74.554313 33.478125) scale(0.1 -0.1)">
      <defs>
       <path id="DejaVuSans-43" d="M 4122 4306 
L 4122 3641 
Q 3803 3938 3442 4084 
Q 3081 4231 2675 4231 
Q 1875 4231 1450 3742 
Q 1025 3253 1025 2328 
Q 1025 1406 1450 917 
Q 1875 428 2675 428 
Q 3081 428 3442 575 
Q 3803 722 4122 1019 
L 4122 359 
Q 3791 134 3420 21 
Q 3050 -91 2638 -91 
Q 1578 -91 968 557 
Q 359 1206 359 2328 
Q 359 3453 968 4101 
Q 1578 4750 2638 4750 
Q 3056 4750 3426 4639 
Q 3797 4528 4122 4306 
z
" transform="scale(0.015625)"/>
       <path id="DejaVuSans-6f" d="M 1959 3097 
Q 1497 3097 1228 2736 
Q 959 2375 959 1747 
Q 959 1119 1226 758 
Q 1494 397 1959 397 
Q 2419 397 2687 759 
Q 2956 1122 2956 1747 
Q 2956 2369 2687 2733 
Q 2419 3097 1959 3097 
z
M 1959 3584 
Q 2709 3584 3137 3096 
Q 3566 2609 3566 1747 
Q 3566 888 3137 398 
Q 2709 -91 1959 -91 
Q 1206 -91 779 398 
Q 353 888 353 1747 
Q 353 2609 779 3096 
Q 1206 3584 1959 3584 
z
" transform="scale(0.015625)"/>
       <path id="DejaVuSans-6e" d="M 3513 2113 
L 3513 0 
L 2938 0 
L 2938 2094 
Q 2938 2591 2744 2837 
Q 2550 3084 2163 3084 
Q 1697 3084 1428 2787 
Q 1159 2491 1159 1978 
L 1159 0 
L 581 0 
L 581 3500 
L 1159 3500 
L 1159 2956 
Q 1366 3272 1645 3428 
Q 1925 3584 2291 3584 
Q 2894 3584 3203 3211 
Q 3513 2838 3513 2113 
z
" transform="scale(0.015625)"/>
       <path id="DejaVuSans-73" d="M 2834 3397 
L 2834 2853 
Q 2591 2978 2328 3040 
Q 2066 3103 1784 3103 
Q 1356 3103 1142 2972 
Q 928 2841 928 2578 
Q 928 2378 1081 2264 
Q 1234 2150 1697 2047 
L 1894 2003 
Q 2506 1872 2764 1633 
Q 3022 1394 3022 966 
Q 3022 478 2636 193 
Q 2250 -91 1575 -91 
Q 1294 -91 989 -36 
Q 684 19 347 128 
L 347 722 
Q 666 556 975 473 
Q 1284 391 1588 391 
Q 1994 391 2212 530 
Q 2431 669 2431 922 
Q 2431 1156 2273 1281 
Q 2116 1406 1581 1522 
L 1381 1569 
Q 847 1681 609 1914 
Q 372 2147 372 2553 
Q 372 3047 722 3315 
Q 1072 3584 1716 3584 
Q 2034 3584 2315 3537 
Q 2597 3491 2834 3397 
z
" transform="scale(0.015625)"/>
       <path id="DejaVuSans-74" d="M 1172 4494 
L 1172 3500 
L 2356 3500 
L 2356 3053 
L 1172 3053 
L 1172 1153 
Q 1172 725 1289 603 
Q 1406 481 1766 481 
L 2356 481 
L 2356 0 
L 1766 0 
Q 1100 0 847 248 
Q 594 497 594 1153 
L 594 3053 
L 172 3053 
L 172 3500 
L 594 3500 
L 594 4494 
L 1172 4494 
z
" transform="scale(0.015625)"/>
       <path id="DejaVuSans-61" d="M 2194 1759 
Q 1497 1759 1228 1600 
Q 959 1441 959 1056 
Q 959 750 1161 570 
Q 1363 391 1709 391 
Q 2188 391 2477 730 
Q 2766 1069 2766 1631 
L 2766 1759 
L 2194 1759 
z
M 3341 1997 
L 3341 0 
L 2766 0 
L 2766 531 
Q 2569 213 2275 61 
Q 1981 -91 1556 -91 
Q 1019 -91 701 211 
Q 384 513 384 1019 
Q 384 1609 779 1909 
Q 1175 2209 1959 2209 
L 2766 2209 
L 2766 2266 
Q 2766 2663 2505 2880 
Q 2244 3097 1772 3097 
Q 1472 3097 1187 3025 
Q 903 2953 641 2809 
L 641 3341 
Q 956 3463 1253 3523 
Q 1550 3584 1831 3584 
Q 2591 3584 2966 3190 
Q 3341 2797 3341 1997 
z
" transform="scale(0.015625)"/>
       <path id="DejaVuSans-2d" d="M 313 2009 
L 1997 2009 
L 1997 1497 
L 313 1497 
L 313 2009 
z
" transform="scale(0.015625)"/>
       <path id="DejaVuSans-65" d="M 3597 1894 
L 3597 1613 
L 953 1613 
Q 991 1019 1311 708 
Q 1631 397 2203 397 
Q 2534 397 2845 478 
Q 3156 559 3463 722 
L 3463 178 
Q 3153 47 2828 -22 
Q 2503 -91 2169 -91 
Q 1331 -91 842 396 
Q 353 884 353 1716 
Q 353 2575 817 3079 
Q 1281 3584 2069 3584 
Q 2775 3584 3186 3129 
Q 3597 2675 3597 1894 
z
M 3022 2063 
Q 3016 2534 2758 2815 
Q 2500 3097 2075 3097 
Q 1594 3097 1305 2825 
Q 1016 2553 972 2059 
L 3022 2063 
z
" transform="scale(0.015625)"/>
       <path id="DejaVuSans-64" d="M 2906 2969 
L 2906 4863 
L 3481 4863 
L 3481 0 
L 2906 0 
L 2906 525 
Q 2725 213 2448 61 
Q 2172 -91 1784 -91 
Q 1150 -91 751 415 
Q 353 922 353 1747 
Q 353 2572 751 3078 
Q 1150 3584 1784 3584 
Q 2172 3584 2448 3432 
Q 2725 3281 2906 2969 
z
M 947 1747 
Q 947 1113 1208 752 
Q 1469 391 1925 391 
Q 2381 391 2643 752 
Q 2906 1113 2906 1747 
Q 2906 2381 2643 2742 
Q 2381 3103 1925 3103 
Q 1469 3103 1208 2742 
Q 947 2381 947 1747 
z
" transform="scale(0.015625)"/>
       <path id="DejaVuSans-67" d="M 2906 1791 
Q 2906 2416 2648 2759 
Q 2391 3103 1925 3103 
Q 1463 3103 1205 2759 
Q 947 2416 947 1791 
Q 947 1169 1205 825 
Q 1463 481 1925 481 
Q 2391 481 2648 825 
Q 2906 1169 2906 1791 
z
M 3481 434 
Q 3481 -459 3084 -895 
Q 2688 -1331 1869 -1331 
Q 1566 -1331 1297 -1286 
Q 1028 -1241 775 -1147 
L 775 -588 
Q 1028 -725 1275 -790 
Q 1522 -856 1778 -856 
Q 2344 -856 2625 -561 
Q 2906 -266 2906 331 
L 2906 616 
Q 2728 306 2450 153 
Q 2172 0 1784 0 
Q 1141 0 747 490 
Q 353 981 353 1791 
Q 353 2603 747 3093 
Q 1141 3584 1784 3584 
Q 2172 3584 2450 3431 
Q 2728 3278 2906 2969 
L 2906 3500 
L 3481 3500 
L 3481 434 
z
" transform="scale(0.015625)"/>
       <path id="DejaVuSans-28" d="M 1984 4856 
Q 1566 4138 1362 3434 
Q 1159 2731 1159 2009 
Q 1159 1288 1364 580 
Q 1569 -128 1984 -844 
L 1484 -844 
Q 1016 -109 783 600 
Q 550 1309 550 2009 
Q 550 2706 781 3412 
Q 1013 4119 1484 4856 
L 1984 4856 
z
" transform="scale(0.015625)"/>
       <path id="DejaVuSans-Oblique-3b1" d="M 2619 1628 
L 2622 2350 
Q 2625 3088 2069 3091 
Q 1653 3094 1394 2747 
Q 1069 2319 959 1747 
Q 825 1059 994 731 
Q 1169 397 1547 397 
Q 1966 397 2319 1063 
L 2619 1628 
z
M 2166 3578 
Q 3141 3594 3128 2584 
Q 3128 2584 3616 3500 
L 4128 3500 
L 3119 1603 
L 3109 919 
Q 3109 766 3194 638 
Q 3291 488 3391 488 
L 3669 488 
L 3575 0 
L 3228 0 
Q 2934 0 2722 263 
Q 2622 394 2619 669 
Q 2416 334 2066 50 
Q 1900 -81 1453 -78 
Q 722 -72 456 397 
Q 184 884 353 1747 
Q 534 2675 1009 3097 
Q 1544 3569 2166 3578 
z
" transform="scale(0.015625)"/>
       <path id="DejaVuSans-29" d="M 513 4856 
L 1013 4856 
Q 1481 4119 1714 3412 
Q 1947 2706 1947 2009 
Q 1947 1309 1714 600 
Q 1481 -109 1013 -844 
L 513 -844 
Q 928 -128 1133 580 
Q 1338 1288 1338 2009 
Q 1338 2731 1133 3434 
Q 928 4138 513 4856 
z
" transform="scale(0.015625)"/>
      </defs>
      <use xlink:href="#DejaVuSans-43" transform="translate(0 0.015625)"/>
      <use xlink:href="#DejaVuSans-6f" transform="translate(69.824219 0.015625)"/>
      <use xlink:href="#DejaVuSans-6e" transform="translate(131.005859 0.015625)"/>
      <use xlink:href="#DejaVuSans-73" transform="translate(194.384766 0.015625)"/>
      <use xlink:href="#DejaVuSans-74" transform="translate(246.484375 0.015625)"/>
      <use xlink:href="#DejaVuSans-61" transform="translate(285.693359 0.015625)"/>
      <use xlink:href="#DejaVuSans-6e" transform="translate(346.972656 0.015625)"/>
      <use xlink:href="#DejaVuSans-74" transform="translate(410.351562 0.015625)"/>
      <use xlink:href="#DejaVuSans-2d" transform="translate(449.560547 0.015625)"/>
      <use xlink:href="#DejaVuSans-65" transform="translate(485.644531 0.015625)"/>
      <use xlink:href="#DejaVuSans-64" transform="translate(547.167969 0.015625)"/>
      <use xlink:href="#DejaVuSans-67" transform="translate(610.644531 0.015625)"/>
      <use xlink:href="#DejaVuSans-65" transform="translate(674.121094 0.015625)"/>
      <use xlink:href="#DejaVuSans-20" transform="translate(735.644531 0.015625)"/>
      <use xlink:href="#DejaVuSans-28" transform="translate(767.431641 0.015625)"/>
      <use xlink:href="#DejaVuSans-Oblique-3b1" transform="translate(806.445312 0.015625)"/>
      <use xlink:href="#DejaVuSans-20" transform="translate(872.363281 0.015625)"/>
      <use xlink:href="#DejaVuSans-3d" transform="translate(904.150391 0.015625)"/>
      <use xlink:href="#DejaVuSans-20" transform="translate(987.939453 0.015625)"/>
      <use xlink:href="#DejaVuSans-30" transform="translate(1019.726562 0.015625)"/>
      <use xlink:href="#DejaVuSans-2e" transform="translate(1083.349609 0.015625)"/>
      <use xlink:href="#DejaVuSans-33" transform="translate(1115.136719 0.015625)"/>
      <use xlink:href="#DejaVuSans-33" transform="translate(1178.759766 0.015625)"/>
      <use xlink:href="#DejaVuSans-33" transform="translate(1242.382812 0.015625)"/>
      <use xlink:href="#DejaVuSans-29" transform="translate(1306.005859 0.015625)"/>
     </g>
    </g>
    <g id="line2d_36">
     <path d="M 46.554313 44.678125 
L 56.554313 44.678125 
L 66.554313 44.678125 
" style="fill: none; stroke: #2ca02c; stroke-width: 2; stroke-linecap: square"/>
     <g>
      <use xlink:href="#m025d8d5c65" x="56.554313" y="44.678125" style="fill: #2ca02c; stroke: #2ca02c; stroke-linejoin: miter"/>
     </g>
    </g>
    <g id="text_16">
     <!-- Maximum-degree ($\alpha$ = 0.500) -->
     <g transform="translate(74.554313 48.178125) scale(0.1 -0.1)">
      <defs>
       <path id="DejaVuSans-4d" d="M 628 4666 
L 1569 4666 
L 2759 1491 
L 3956 4666 
L 4897 4666 
L 4897 0 
L 4281 0 
L 4281 4097 
L 3078 897 
L 2444 897 
L 1241 4097 
L 1241 0 
L 628 0 
L 628 4666 
z
" transform="scale(0.015625)"/>
       <path id="DejaVuSans-78" d="M 3513 3500 
L 2247 1797 
L 3578 0 
L 2900 0 
L 1881 1375 
L 863 0 
L 184 0 
L 1544 1831 
L 300 3500 
L 978 3500 
L 1906 2253 
L 2834 3500 
L 3513 3500 
z
" transform="scale(0.015625)"/>
       <path id="DejaVuSans-69" d="M 603 3500 
L 1178 3500 
L 1178 0 
L 603 0 
L 603 3500 
z
M 603 4863 
L 1178 4863 
L 1178 4134 
L 603 4134 
L 603 4863 
z
" transform="scale(0.015625)"/>
       <path id="DejaVuSans-6d" d="M 3328 2828 
Q 3544 3216 3844 3400 
Q 4144 3584 4550 3584 
Q 5097 3584 5394 3201 
Q 5691 2819 5691 2113 
L 5691 0 
L 5113 0 
L 5113 2094 
Q 5113 2597 4934 2840 
Q 4756 3084 4391 3084 
Q 3944 3084 3684 2787 
Q 3425 2491 3425 1978 
L 3425 0 
L 2847 0 
L 2847 2094 
Q 2847 2600 2669 2842 
Q 2491 3084 2119 3084 
Q 1678 3084 1418 2786 
Q 1159 2488 1159 1978 
L 1159 0 
L 581 0 
L 581 3500 
L 1159 3500 
L 1159 2956 
Q 1356 3278 1631 3431 
Q 1906 3584 2284 3584 
Q 2666 3584 2933 3390 
Q 3200 3197 3328 2828 
z
" transform="scale(0.015625)"/>
       <path id="DejaVuSans-75" d="M 544 1381 
L 544 3500 
L 1119 3500 
L 1119 1403 
Q 1119 906 1312 657 
Q 1506 409 1894 409 
Q 2359 409 2629 706 
Q 2900 1003 2900 1516 
L 2900 3500 
L 3475 3500 
L 3475 0 
L 2900 0 
L 2900 538 
Q 2691 219 2414 64 
Q 2138 -91 1772 -91 
Q 1169 -91 856 284 
Q 544 659 544 1381 
z
M 1991 3584 
L 1991 3584 
z
" transform="scale(0.015625)"/>
       <path id="DejaVuSans-72" d="M 2631 2963 
Q 2534 3019 2420 3045 
Q 2306 3072 2169 3072 
Q 1681 3072 1420 2755 
Q 1159 2438 1159 1844 
L 1159 0 
L 581 0 
L 581 3500 
L 1159 3500 
L 1159 2956 
Q 1341 3275 1631 3429 
Q 1922 3584 2338 3584 
Q 2397 3584 2469 3576 
Q 2541 3569 2628 3553 
L 2631 2963 
z
" transform="scale(0.015625)"/>
      </defs>
      <use xlink:href="#DejaVuSans-4d" transform="translate(0 0.015625)"/>
      <use xlink:href="#DejaVuSans-61" transform="translate(86.279297 0.015625)"/>
      <use xlink:href="#DejaVuSans-78" transform="translate(147.558594 0.015625)"/>
      <use xlink:href="#DejaVuSans-69" transform="translate(206.738281 0.015625)"/>
      <use xlink:href="#DejaVuSans-6d" transform="translate(234.521484 0.015625)"/>
      <use xlink:href="#DejaVuSans-75" transform="translate(331.933594 0.015625)"/>
      <use xlink:href="#DejaVuSans-6d" transform="translate(395.3125 0.015625)"/>
      <use xlink:href="#DejaVuSans-2d" transform="translate(490.974609 0.015625)"/>
      <use xlink:href="#DejaVuSans-64" transform="translate(527.058594 0.015625)"/>
      <use xlink:href="#DejaVuSans-65" transform="translate(590.535156 0.015625)"/>
      <use xlink:href="#DejaVuSans-67" transform="translate(652.058594 0.015625)"/>
      <use xlink:href="#DejaVuSans-72" transform="translate(715.535156 0.015625)"/>
      <use xlink:href="#DejaVuSans-65" transform="translate(756.648438 0.015625)"/>
      <use xlink:href="#DejaVuSans-65" transform="translate(818.171875 0.015625)"/>
      <use xlink:href="#DejaVuSans-20" transform="translate(879.695312 0.015625)"/>
      <use xlink:href="#DejaVuSans-28" transform="translate(911.482422 0.015625)"/>
      <use xlink:href="#DejaVuSans-Oblique-3b1" transform="translate(950.496094 0.015625)"/>
      <use xlink:href="#DejaVuSans-20" transform="translate(1016.414062 0.015625)"/>
      <use xlink:href="#DejaVuSans-3d" transform="translate(1048.201172 0.015625)"/>
      <use xlink:href="#DejaVuSans-20" transform="translate(1131.990234 0.015625)"/>
      <use xlink:href="#DejaVuSans-30" transform="translate(1163.777344 0.015625)"/>
      <use xlink:href="#DejaVuSans-2e" transform="translate(1227.400391 0.015625)"/>
      <use xlink:href="#DejaVuSans-35" transform="translate(1259.1875 0.015625)"/>
      <use xlink:href="#DejaVuSans-30" transform="translate(1322.810547 0.015625)"/>
      <use xlink:href="#DejaVuSans-30" transform="translate(1386.433594 0.015625)"/>
      <use xlink:href="#DejaVuSans-29" transform="translate(1450.056641 0.015625)"/>
     </g>
    </g>
    <g id="line2d_37">
     <path d="M 243.554313 15.298437 
L 253.554313 15.298437 
L 263.554313 15.298437 
" style="fill: none; stroke: #d62728; stroke-width: 2; stroke-linecap: square"/>
     <g>
      <use xlink:href="#m2ddd19f52f" x="253.554313" y="15.298437" style="fill: #d62728; stroke: #d62728"/>
     </g>
    </g>
    <g id="text_17">
     <!-- Local-degree -->
     <g transform="translate(271.554313 18.798437) scale(0.1 -0.1)">
      <defs>
       <path id="DejaVuSans-4c" d="M 628 4666 
L 1259 4666 
L 1259 531 
L 3531 531 
L 3531 0 
L 628 0 
L 628 4666 
z
" transform="scale(0.015625)"/>
       <path id="DejaVuSans-63" d="M 3122 3366 
L 3122 2828 
Q 2878 2963 2633 3030 
Q 2388 3097 2138 3097 
Q 1578 3097 1268 2742 
Q 959 2388 959 1747 
Q 959 1106 1268 751 
Q 1578 397 2138 397 
Q 2388 397 2633 464 
Q 2878 531 3122 666 
L 3122 134 
Q 2881 22 2623 -34 
Q 2366 -91 2075 -91 
Q 1284 -91 818 406 
Q 353 903 353 1747 
Q 353 2603 823 3093 
Q 1294 3584 2113 3584 
Q 2378 3584 2631 3529 
Q 2884 3475 3122 3366 
z
" transform="scale(0.015625)"/>
       <path id="DejaVuSans-6c" d="M 603 4863 
L 1178 4863 
L 1178 0 
L 603 0 
L 603 4863 
z
" transform="scale(0.015625)"/>
      </defs>
      <use xlink:href="#DejaVuSans-4c"/>
      <use xlink:href="#DejaVuSans-6f" x="53.962891"/>
      <use xlink:href="#DejaVuSans-63" x="115.144531"/>
      <use xlink:href="#DejaVuSans-61" x="170.125"/>
      <use xlink:href="#DejaVuSans-6c" x="231.404297"/>
      <use xlink:href="#DejaVuSans-2d" x="259.1875"/>
      <use xlink:href="#DejaVuSans-64" x="295.271484"/>
      <use xlink:href="#DejaVuSans-65" x="358.748047"/>
      <use xlink:href="#DejaVuSans-67" x="420.271484"/>
      <use xlink:href="#DejaVuSans-72" x="483.748047"/>
      <use xlink:href="#DejaVuSans-65" x="522.611328"/>
      <use xlink:href="#DejaVuSans-65" x="584.134766"/>
     </g>
    </g>
    <g id="line2d_38">
     <path d="M 243.554313 29.976562 
L 253.554313 29.976562 
L 263.554313 29.976562 
" style="fill: none; stroke: #9467bd; stroke-width: 2; stroke-linecap: square"/>
     <g>
      <use xlink:href="#m7c5bde9112" x="253.554313" y="29.976562" style="fill: #9467bd; stroke: #9467bd; stroke-linejoin: miter"/>
     </g>
    </g>
    <g id="text_18">
     <!-- FMMC -->
     <g transform="translate(271.554313 33.476562) scale(0.1 -0.1)">
      <defs>
       <path id="DejaVuSans-46" d="M 628 4666 
L 3309 4666 
L 3309 4134 
L 1259 4134 
L 1259 2759 
L 3109 2759 
L 3109 2228 
L 1259 2228 
L 1259 0 
L 628 0 
L 628 4666 
z
" transform="scale(0.015625)"/>
      </defs>
      <use xlink:href="#DejaVuSans-46"/>
      <use xlink:href="#DejaVuSans-4d" x="57.519531"/>
      <use xlink:href="#DejaVuSans-4d" x="143.798828"/>
      <use xlink:href="#DejaVuSans-43" x="230.078125"/>
     </g>
    </g>
    <g id="line2d_39">
     <path d="M 356.124625 15.298437 
L 366.124625 15.298437 
L 376.124625 15.298437 
" style="fill: none; stroke: #8c564b; stroke-width: 2; stroke-linecap: square"/>
     <g>
      <use xlink:href="#m0c44c868be" x="366.124625" y="15.298437" style="fill: #8c564b; stroke: #8c564b; stroke-linejoin: miter"/>
     </g>
    </g>
    <g id="text_19">
     <!-- FDLA -->
     <g transform="translate(384.124625 18.798437) scale(0.1 -0.1)">
      <defs>
       <path id="DejaVuSans-44" d="M 1259 4147 
L 1259 519 
L 2022 519 
Q 2988 519 3436 956 
Q 3884 1394 3884 2338 
Q 3884 3275 3436 3711 
Q 2988 4147 2022 4147 
L 1259 4147 
z
M 628 4666 
L 1925 4666 
Q 3281 4666 3915 4102 
Q 4550 3538 4550 2338 
Q 4550 1131 3912 565 
Q 3275 0 1925 0 
L 628 0 
L 628 4666 
z
" transform="scale(0.015625)"/>
       <path id="DejaVuSans-41" d="M 2188 4044 
L 1331 1722 
L 3047 1722 
L 2188 4044 
z
M 1831 4666 
L 2547 4666 
L 4325 0 
L 3669 0 
L 3244 1197 
L 1141 1197 
L 716 0 
L 50 0 
L 1831 4666 
z
" transform="scale(0.015625)"/>
      </defs>
      <use xlink:href="#DejaVuSans-46"/>
      <use xlink:href="#DejaVuSans-44" x="57.519531"/>
      <use xlink:href="#DejaVuSans-4c" x="134.521484"/>
      <use xlink:href="#DejaVuSans-41" x="192.484375"/>
     </g>
    </g>
    <g id="line2d_40">
     <path d="M 356.124625 29.976562 
L 366.124625 29.976562 
L 376.124625 29.976562 
" style="fill: none; stroke: #e377c2; stroke-width: 2; stroke-linecap: square"/>
     <g>
      <use xlink:href="#mff75bb6b43" x="366.124625" y="29.976562" style="fill: #e377c2; stroke: #e377c2"/>
     </g>
    </g>
    <g id="text_20">
     <!-- OPT -->
     <g transform="translate(384.124625 33.476562) scale(0.1 -0.1)">
      <defs>
       <path id="DejaVuSans-4f" d="M 2522 4238 
Q 1834 4238 1429 3725 
Q 1025 3213 1025 2328 
Q 1025 1447 1429 934 
Q 1834 422 2522 422 
Q 3209 422 3611 934 
Q 4013 1447 4013 2328 
Q 4013 3213 3611 3725 
Q 3209 4238 2522 4238 
z
M 2522 4750 
Q 3503 4750 4090 4092 
Q 4678 3434 4678 2328 
Q 4678 1225 4090 567 
Q 3503 -91 2522 -91 
Q 1538 -91 948 565 
Q 359 1222 359 2328 
Q 359 3434 948 4092 
Q 1538 4750 2522 4750 
z
" transform="scale(0.015625)"/>
       <path id="DejaVuSans-50" d="M 1259 4147 
L 1259 2394 
L 2053 2394 
Q 2494 2394 2734 2622 
Q 2975 2850 2975 3272 
Q 2975 3691 2734 3919 
Q 2494 4147 2053 4147 
L 1259 4147 
z
M 628 4666 
L 2053 4666 
Q 2838 4666 3239 4311 
Q 3641 3956 3641 3272 
Q 3641 2581 3239 2228 
Q 2838 1875 2053 1875 
L 1259 1875 
L 1259 0 
L 628 0 
L 628 4666 
z
" transform="scale(0.015625)"/>
       <path id="DejaVuSans-54" d="M -19 4666 
L 3928 4666 
L 3928 4134 
L 2272 4134 
L 2272 0 
L 1638 0 
L 1638 4134 
L -19 4134 
L -19 4666 
z
" transform="scale(0.015625)"/>
      </defs>
      <use xlink:href="#DejaVuSans-4f"/>
      <use xlink:href="#DejaVuSans-50" x="78.710938"/>
      <use xlink:href="#DejaVuSans-54" x="139.013672"/>
     </g>
    </g>
   </g>
  </g>
  <g id="text_21">
   <!-- Timesteps -->
   <g transform="translate(197.599313 359.128375) scale(0.12 -0.12)">
    <defs>
     <path id="DejaVuSans-70" d="M 1159 525 
L 1159 -1331 
L 581 -1331 
L 581 3500 
L 1159 3500 
L 1159 2969 
Q 1341 3281 1617 3432 
Q 1894 3584 2278 3584 
Q 2916 3584 3314 3078 
Q 3713 2572 3713 1747 
Q 3713 922 3314 415 
Q 2916 -91 2278 -91 
Q 1894 -91 1617 61 
Q 1341 213 1159 525 
z
M 3116 1747 
Q 3116 2381 2855 2742 
Q 2594 3103 2138 3103 
Q 1681 3103 1420 2742 
Q 1159 2381 1159 1747 
Q 1159 1113 1420 752 
Q 1681 391 2138 391 
Q 2594 391 2855 752 
Q 3116 1113 3116 1747 
z
" transform="scale(0.015625)"/>
    </defs>
    <use xlink:href="#DejaVuSans-54"/>
    <use xlink:href="#DejaVuSans-69" x="57.958984"/>
    <use xlink:href="#DejaVuSans-6d" x="85.742188"/>
    <use xlink:href="#DejaVuSans-65" x="183.154297"/>
    <use xlink:href="#DejaVuSans-73" x="244.677734"/>
    <use xlink:href="#DejaVuSans-74" x="296.777344"/>
    <use xlink:href="#DejaVuSans-65" x="335.986328"/>
    <use xlink:href="#DejaVuSans-70" x="397.509766"/>
    <use xlink:href="#DejaVuSans-73" x="460.986328"/>
   </g>
  </g>
  <g id="text_22">
   <!-- Mean estimate error for the best arm -->
   <g transform="translate(16.318125 303.952187) rotate(-90) scale(0.12 -0.12)">
    <defs>
     <path id="DejaVuSans-66" d="M 2375 4863 
L 2375 4384 
L 1825 4384 
Q 1516 4384 1395 4259 
Q 1275 4134 1275 3809 
L 1275 3500 
L 2222 3500 
L 2222 3053 
L 1275 3053 
L 1275 0 
L 697 0 
L 697 3053 
L 147 3053 
L 147 3500 
L 697 3500 
L 697 3744 
Q 697 4328 969 4595 
Q 1241 4863 1831 4863 
L 2375 4863 
z
" transform="scale(0.015625)"/>
     <path id="DejaVuSans-68" d="M 3513 2113 
L 3513 0 
L 2938 0 
L 2938 2094 
Q 2938 2591 2744 2837 
Q 2550 3084 2163 3084 
Q 1697 3084 1428 2787 
Q 1159 2491 1159 1978 
L 1159 0 
L 581 0 
L 581 4863 
L 1159 4863 
L 1159 2956 
Q 1366 3272 1645 3428 
Q 1925 3584 2291 3584 
Q 2894 3584 3203 3211 
Q 3513 2838 3513 2113 
z
" transform="scale(0.015625)"/>
     <path id="DejaVuSans-62" d="M 3116 1747 
Q 3116 2381 2855 2742 
Q 2594 3103 2138 3103 
Q 1681 3103 1420 2742 
Q 1159 2381 1159 1747 
Q 1159 1113 1420 752 
Q 1681 391 2138 391 
Q 2594 391 2855 752 
Q 3116 1113 3116 1747 
z
M 1159 2969 
Q 1341 3281 1617 3432 
Q 1894 3584 2278 3584 
Q 2916 3584 3314 3078 
Q 3713 2572 3713 1747 
Q 3713 922 3314 415 
Q 2916 -91 2278 -91 
Q 1894 -91 1617 61 
Q 1341 213 1159 525 
L 1159 0 
L 581 0 
L 581 4863 
L 1159 4863 
L 1159 2969 
z
" transform="scale(0.015625)"/>
    </defs>
    <use xlink:href="#DejaVuSans-4d"/>
    <use xlink:href="#DejaVuSans-65" x="86.279297"/>
    <use xlink:href="#DejaVuSans-61" x="147.802734"/>
    <use xlink:href="#DejaVuSans-6e" x="209.082031"/>
    <use xlink:href="#DejaVuSans-20" x="272.460938"/>
    <use xlink:href="#DejaVuSans-65" x="304.248047"/>
    <use xlink:href="#DejaVuSans-73" x="365.771484"/>
    <use xlink:href="#DejaVuSans-74" x="417.871094"/>
    <use xlink:href="#DejaVuSans-69" x="457.080078"/>
    <use xlink:href="#DejaVuSans-6d" x="484.863281"/>
    <use xlink:href="#DejaVuSans-61" x="582.275391"/>
    <use xlink:href="#DejaVuSans-74" x="643.554688"/>
    <use xlink:href="#DejaVuSans-65" x="682.763672"/>
    <use xlink:href="#DejaVuSans-20" x="744.287109"/>
    <use xlink:href="#DejaVuSans-65" x="776.074219"/>
    <use xlink:href="#DejaVuSans-72" x="837.597656"/>
    <use xlink:href="#DejaVuSans-72" x="876.960938"/>
    <use xlink:href="#DejaVuSans-6f" x="915.824219"/>
    <use xlink:href="#DejaVuSans-72" x="977.005859"/>
    <use xlink:href="#DejaVuSans-20" x="1018.119141"/>
    <use xlink:href="#DejaVuSans-66" x="1049.90625"/>
    <use xlink:href="#DejaVuSans-6f" x="1085.111328"/>
    <use xlink:href="#DejaVuSans-72" x="1146.292969"/>
    <use xlink:href="#DejaVuSans-20" x="1187.40625"/>
    <use xlink:href="#DejaVuSans-74" x="1219.193359"/>
    <use xlink:href="#DejaVuSans-68" x="1258.402344"/>
    <use xlink:href="#DejaVuSans-65" x="1321.78125"/>
    <use xlink:href="#DejaVuSans-20" x="1383.304688"/>
    <use xlink:href="#DejaVuSans-62" x="1415.091797"/>
    <use xlink:href="#DejaVuSans-65" x="1478.568359"/>
    <use xlink:href="#DejaVuSans-73" x="1540.091797"/>
    <use xlink:href="#DejaVuSans-74" x="1592.191406"/>
    <use xlink:href="#DejaVuSans-20" x="1631.400391"/>
    <use xlink:href="#DejaVuSans-61" x="1663.1875"/>
    <use xlink:href="#DejaVuSans-72" x="1724.466797"/>
    <use xlink:href="#DejaVuSans-6d" x="1763.830078"/>
   </g>
  </g>
 </g>
 <defs>
  <clipPath id="p2501cf6f6d">
   <rect x="55.584" y="60.952" width="357.12" height="266.112"/>
  </clipPath>
 </defs>
</svg>
