<?xml version="1.0" encoding="utf-8" standalone="no"?>
<!DOCTYPE svg PUBLIC "-//W3C//DTD SVG 1.1//EN"
  "http://www.w3.org/Graphics/SVG/1.1/DTD/svg11.dtd">
<svg xmlns:xlink="http://www.w3.org/1999/xlink" width="421.811252pt" height="368.824pt" viewBox="0 0 421.811252 368.824" xmlns="http://www.w3.org/2000/svg" version="1.1">
 <metadata>
  <rdf:RDF xmlns:dc="http://purl.org/dc/elements/1.1/" xmlns:cc="http://creativecommons.org/ns#" xmlns:rdf="http://www.w3.org/1999/02/22-rdf-syntax-ns#">
   <cc:Work>
    <dc:type rdf:resource="http://purl.org/dc/dcmitype/StillImage"/>
    <dc:date>2024-06-12T04:32:13.614469</dc:date>
    <dc:format>image/svg+xml</dc:format>
    <dc:creator>
     <cc:Agent>
      <dc:title>Matplotlib v3.9.0, https://matplotlib.org/</dc:title>
     </cc:Agent>
    </dc:creator>
   </cc:Work>
  </rdf:RDF>
 </metadata>
 <defs>
  <style type="text/css">*{stroke-linejoin: round; stroke-linecap: butt}</style>
 </defs>
 <g id="figure_1">
  <g id="patch_1">
   <path d="M 0 368.824 
L 421.811252 368.824 
L 421.811252 0 
L 0 0 
z
" style="fill: #ffffff"/>
  </g>
  <g id="axes_1">
   <g id="patch_2">
    <path d="M 55.584 327.064 
L 412.704 327.064 
L 412.704 60.952 
L 55.584 60.952 
z
" style="fill: #ffffff"/>
   </g>
   <g id="matplotlib.axis_1">
    <g id="xtick_1">
     <g id="line2d_1">
      <path d="M 71.816727 327.064 
L 71.816727 60.952 
" clip-path="url(#p6e65ed336c)" style="fill: none; stroke: #b0b0b0; stroke-width: 0.8; stroke-linecap: square"/>
     </g>
     <g id="line2d_2">
      <defs>
       <path id="m2c17d8f7d5" d="M 0 0 
L 0 3.5 
" style="stroke: #000000; stroke-width: 0.8"/>
      </defs>
      <g>
       <use xlink:href="#m2c17d8f7d5" x="71.816727" y="327.064" style="stroke: #000000; stroke-width: 0.8"/>
      </g>
     </g>
     <g id="text_1">
      <!-- 0 -->
      <g transform="translate(67.362977 344.701812) scale(0.14 -0.14)">
       <defs>
        <path id="DejaVuSans-30" d="M 2034 4250 
Q 1547 4250 1301 3770 
Q 1056 3291 1056 2328 
Q 1056 1369 1301 889 
Q 1547 409 2034 409 
Q 2525 409 2770 889 
Q 3016 1369 3016 2328 
Q 3016 3291 2770 3770 
Q 2525 4250 2034 4250 
z
M 2034 4750 
Q 2819 4750 3233 4129 
Q 3647 3509 3647 2328 
Q 3647 1150 3233 529 
Q 2819 -91 2034 -91 
Q 1250 -91 836 529 
Q 422 1150 422 2328 
Q 422 3509 836 4129 
Q 1250 4750 2034 4750 
z
" transform="scale(0.015625)"/>
       </defs>
       <use xlink:href="#DejaVuSans-30"/>
      </g>
     </g>
    </g>
    <g id="xtick_2">
     <g id="line2d_3">
      <path d="M 136.812632 327.064 
L 136.812632 60.952 
" clip-path="url(#p6e65ed336c)" style="fill: none; stroke: #b0b0b0; stroke-width: 0.8; stroke-linecap: square"/>
     </g>
     <g id="line2d_4">
      <g>
       <use xlink:href="#m2c17d8f7d5" x="136.812632" y="327.064" style="stroke: #000000; stroke-width: 0.8"/>
      </g>
     </g>
     <g id="text_2">
      <!-- 200 -->
      <g transform="translate(123.451382 344.701812) scale(0.14 -0.14)">
       <defs>
        <path id="DejaVuSans-32" d="M 1228 531 
L 3431 531 
L 3431 0 
L 469 0 
L 469 531 
Q 828 903 1448 1529 
Q 2069 2156 2228 2338 
Q 2531 2678 2651 2914 
Q 2772 3150 2772 3378 
Q 2772 3750 2511 3984 
Q 2250 4219 1831 4219 
Q 1534 4219 1204 4116 
Q 875 4013 500 3803 
L 500 4441 
Q 881 4594 1212 4672 
Q 1544 4750 1819 4750 
Q 2544 4750 2975 4387 
Q 3406 4025 3406 3419 
Q 3406 3131 3298 2873 
Q 3191 2616 2906 2266 
Q 2828 2175 2409 1742 
Q 1991 1309 1228 531 
z
" transform="scale(0.015625)"/>
       </defs>
       <use xlink:href="#DejaVuSans-32"/>
       <use xlink:href="#DejaVuSans-30" x="63.623047"/>
       <use xlink:href="#DejaVuSans-30" x="127.246094"/>
      </g>
     </g>
    </g>
    <g id="xtick_3">
     <g id="line2d_5">
      <path d="M 201.808537 327.064 
L 201.808537 60.952 
" clip-path="url(#p6e65ed336c)" style="fill: none; stroke: #b0b0b0; stroke-width: 0.8; stroke-linecap: square"/>
     </g>
     <g id="line2d_6">
      <g>
       <use xlink:href="#m2c17d8f7d5" x="201.808537" y="327.064" style="stroke: #000000; stroke-width: 0.8"/>
      </g>
     </g>
     <g id="text_3">
      <!-- 400 -->
      <g transform="translate(188.447287 344.701812) scale(0.14 -0.14)">
       <defs>
        <path id="DejaVuSans-34" d="M 2419 4116 
L 825 1625 
L 2419 1625 
L 2419 4116 
z
M 2253 4666 
L 3047 4666 
L 3047 1625 
L 3713 1625 
L 3713 1100 
L 3047 1100 
L 3047 0 
L 2419 0 
L 2419 1100 
L 313 1100 
L 313 1709 
L 2253 4666 
z
" transform="scale(0.015625)"/>
       </defs>
       <use xlink:href="#DejaVuSans-34"/>
       <use xlink:href="#DejaVuSans-30" x="63.623047"/>
       <use xlink:href="#DejaVuSans-30" x="127.246094"/>
      </g>
     </g>
    </g>
    <g id="xtick_4">
     <g id="line2d_7">
      <path d="M 266.804442 327.064 
L 266.804442 60.952 
" clip-path="url(#p6e65ed336c)" style="fill: none; stroke: #b0b0b0; stroke-width: 0.8; stroke-linecap: square"/>
     </g>
     <g id="line2d_8">
      <g>
       <use xlink:href="#m2c17d8f7d5" x="266.804442" y="327.064" style="stroke: #000000; stroke-width: 0.8"/>
      </g>
     </g>
     <g id="text_4">
      <!-- 600 -->
      <g transform="translate(253.443192 344.701812) scale(0.14 -0.14)">
       <defs>
        <path id="DejaVuSans-36" d="M 2113 2584 
Q 1688 2584 1439 2293 
Q 1191 2003 1191 1497 
Q 1191 994 1439 701 
Q 1688 409 2113 409 
Q 2538 409 2786 701 
Q 3034 994 3034 1497 
Q 3034 2003 2786 2293 
Q 2538 2584 2113 2584 
z
M 3366 4563 
L 3366 3988 
Q 3128 4100 2886 4159 
Q 2644 4219 2406 4219 
Q 1781 4219 1451 3797 
Q 1122 3375 1075 2522 
Q 1259 2794 1537 2939 
Q 1816 3084 2150 3084 
Q 2853 3084 3261 2657 
Q 3669 2231 3669 1497 
Q 3669 778 3244 343 
Q 2819 -91 2113 -91 
Q 1303 -91 875 529 
Q 447 1150 447 2328 
Q 447 3434 972 4092 
Q 1497 4750 2381 4750 
Q 2619 4750 2861 4703 
Q 3103 4656 3366 4563 
z
" transform="scale(0.015625)"/>
       </defs>
       <use xlink:href="#DejaVuSans-36"/>
       <use xlink:href="#DejaVuSans-30" x="63.623047"/>
       <use xlink:href="#DejaVuSans-30" x="127.246094"/>
      </g>
     </g>
    </g>
    <g id="xtick_5">
     <g id="line2d_9">
      <path d="M 331.800347 327.064 
L 331.800347 60.952 
" clip-path="url(#p6e65ed336c)" style="fill: none; stroke: #b0b0b0; stroke-width: 0.8; stroke-linecap: square"/>
     </g>
     <g id="line2d_10">
      <g>
       <use xlink:href="#m2c17d8f7d5" x="331.800347" y="327.064" style="stroke: #000000; stroke-width: 0.8"/>
      </g>
     </g>
     <g id="text_5">
      <!-- 800 -->
      <g transform="translate(318.439097 344.701812) scale(0.14 -0.14)">
       <defs>
        <path id="DejaVuSans-38" d="M 2034 2216 
Q 1584 2216 1326 1975 
Q 1069 1734 1069 1313 
Q 1069 891 1326 650 
Q 1584 409 2034 409 
Q 2484 409 2743 651 
Q 3003 894 3003 1313 
Q 3003 1734 2745 1975 
Q 2488 2216 2034 2216 
z
M 1403 2484 
Q 997 2584 770 2862 
Q 544 3141 544 3541 
Q 544 4100 942 4425 
Q 1341 4750 2034 4750 
Q 2731 4750 3128 4425 
Q 3525 4100 3525 3541 
Q 3525 3141 3298 2862 
Q 3072 2584 2669 2484 
Q 3125 2378 3379 2068 
Q 3634 1759 3634 1313 
Q 3634 634 3220 271 
Q 2806 -91 2034 -91 
Q 1263 -91 848 271 
Q 434 634 434 1313 
Q 434 1759 690 2068 
Q 947 2378 1403 2484 
z
M 1172 3481 
Q 1172 3119 1398 2916 
Q 1625 2713 2034 2713 
Q 2441 2713 2670 2916 
Q 2900 3119 2900 3481 
Q 2900 3844 2670 4047 
Q 2441 4250 2034 4250 
Q 1625 4250 1398 4047 
Q 1172 3844 1172 3481 
z
" transform="scale(0.015625)"/>
       </defs>
       <use xlink:href="#DejaVuSans-38"/>
       <use xlink:href="#DejaVuSans-30" x="63.623047"/>
       <use xlink:href="#DejaVuSans-30" x="127.246094"/>
      </g>
     </g>
    </g>
    <g id="xtick_6">
     <g id="line2d_11">
      <path d="M 396.796252 327.064 
L 396.796252 60.952 
" clip-path="url(#p6e65ed336c)" style="fill: none; stroke: #b0b0b0; stroke-width: 0.8; stroke-linecap: square"/>
     </g>
     <g id="line2d_12">
      <g>
       <use xlink:href="#m2c17d8f7d5" x="396.796252" y="327.064" style="stroke: #000000; stroke-width: 0.8"/>
      </g>
     </g>
     <g id="text_6">
      <!-- 1000 -->
      <g transform="translate(378.981252 344.701812) scale(0.14 -0.14)">
       <defs>
        <path id="DejaVuSans-31" d="M 794 531 
L 1825 531 
L 1825 4091 
L 703 3866 
L 703 4441 
L 1819 4666 
L 2450 4666 
L 2450 531 
L 3481 531 
L 3481 0 
L 794 0 
L 794 531 
z
" transform="scale(0.015625)"/>
       </defs>
       <use xlink:href="#DejaVuSans-31"/>
       <use xlink:href="#DejaVuSans-30" x="63.623047"/>
       <use xlink:href="#DejaVuSans-30" x="127.246094"/>
       <use xlink:href="#DejaVuSans-30" x="190.869141"/>
      </g>
     </g>
    </g>
   </g>
   <g id="matplotlib.axis_2">
    <g id="ytick_1">
     <g id="line2d_13">
      <path d="M 55.584 314.968 
L 412.704 314.968 
" clip-path="url(#p6e65ed336c)" style="fill: none; stroke: #b0b0b0; stroke-width: 0.8; stroke-linecap: square"/>
     </g>
     <g id="line2d_14">
      <defs>
       <path id="me16e094fff" d="M 0 0 
L -3.5 0 
" style="stroke: #000000; stroke-width: 0.8"/>
      </defs>
      <g>
       <use xlink:href="#me16e094fff" x="55.584" y="314.968" style="stroke: #000000; stroke-width: 0.8"/>
      </g>
     </g>
     <g id="text_7">
      <!-- 0 -->
      <g transform="translate(39.6765 320.286906) scale(0.14 -0.14)">
       <use xlink:href="#DejaVuSans-30"/>
      </g>
     </g>
    </g>
    <g id="ytick_2">
     <g id="line2d_15">
      <path d="M 55.584 280.232775 
L 412.704 280.232775 
" clip-path="url(#p6e65ed336c)" style="fill: none; stroke: #b0b0b0; stroke-width: 0.8; stroke-linecap: square"/>
     </g>
     <g id="line2d_16">
      <g>
       <use xlink:href="#me16e094fff" x="55.584" y="280.232775" style="stroke: #000000; stroke-width: 0.8"/>
      </g>
     </g>
     <g id="text_8">
      <!-- 2 -->
      <g transform="translate(39.6765 285.551681) scale(0.14 -0.14)">
       <use xlink:href="#DejaVuSans-32"/>
      </g>
     </g>
    </g>
    <g id="ytick_3">
     <g id="line2d_17">
      <path d="M 55.584 245.49755 
L 412.704 245.49755 
" clip-path="url(#p6e65ed336c)" style="fill: none; stroke: #b0b0b0; stroke-width: 0.8; stroke-linecap: square"/>
     </g>
     <g id="line2d_18">
      <g>
       <use xlink:href="#me16e094fff" x="55.584" y="245.49755" style="stroke: #000000; stroke-width: 0.8"/>
      </g>
     </g>
     <g id="text_9">
      <!-- 4 -->
      <g transform="translate(39.6765 250.816456) scale(0.14 -0.14)">
       <use xlink:href="#DejaVuSans-34"/>
      </g>
     </g>
    </g>
    <g id="ytick_4">
     <g id="line2d_19">
      <path d="M 55.584 210.762324 
L 412.704 210.762324 
" clip-path="url(#p6e65ed336c)" style="fill: none; stroke: #b0b0b0; stroke-width: 0.8; stroke-linecap: square"/>
     </g>
     <g id="line2d_20">
      <g>
       <use xlink:href="#me16e094fff" x="55.584" y="210.762324" style="stroke: #000000; stroke-width: 0.8"/>
      </g>
     </g>
     <g id="text_10">
      <!-- 6 -->
      <g transform="translate(39.6765 216.081231) scale(0.14 -0.14)">
       <use xlink:href="#DejaVuSans-36"/>
      </g>
     </g>
    </g>
    <g id="ytick_5">
     <g id="line2d_21">
      <path d="M 55.584 176.027099 
L 412.704 176.027099 
" clip-path="url(#p6e65ed336c)" style="fill: none; stroke: #b0b0b0; stroke-width: 0.8; stroke-linecap: square"/>
     </g>
     <g id="line2d_22">
      <g>
       <use xlink:href="#me16e094fff" x="55.584" y="176.027099" style="stroke: #000000; stroke-width: 0.8"/>
      </g>
     </g>
     <g id="text_11">
      <!-- 8 -->
      <g transform="translate(39.6765 181.346005) scale(0.14 -0.14)">
       <use xlink:href="#DejaVuSans-38"/>
      </g>
     </g>
    </g>
    <g id="ytick_6">
     <g id="line2d_23">
      <path d="M 55.584 141.291874 
L 412.704 141.291874 
" clip-path="url(#p6e65ed336c)" style="fill: none; stroke: #b0b0b0; stroke-width: 0.8; stroke-linecap: square"/>
     </g>
     <g id="line2d_24">
      <g>
       <use xlink:href="#me16e094fff" x="55.584" y="141.291874" style="stroke: #000000; stroke-width: 0.8"/>
      </g>
     </g>
     <g id="text_12">
      <!-- 10 -->
      <g transform="translate(30.769 146.61078) scale(0.14 -0.14)">
       <use xlink:href="#DejaVuSans-31"/>
       <use xlink:href="#DejaVuSans-30" x="63.623047"/>
      </g>
     </g>
    </g>
    <g id="ytick_7">
     <g id="line2d_25">
      <path d="M 55.584 106.556649 
L 412.704 106.556649 
" clip-path="url(#p6e65ed336c)" style="fill: none; stroke: #b0b0b0; stroke-width: 0.8; stroke-linecap: square"/>
     </g>
     <g id="line2d_26">
      <g>
       <use xlink:href="#me16e094fff" x="55.584" y="106.556649" style="stroke: #000000; stroke-width: 0.8"/>
      </g>
     </g>
     <g id="text_13">
      <!-- 12 -->
      <g transform="translate(30.769 111.875555) scale(0.14 -0.14)">
       <use xlink:href="#DejaVuSans-31"/>
       <use xlink:href="#DejaVuSans-32" x="63.623047"/>
      </g>
     </g>
    </g>
    <g id="ytick_8">
     <g id="line2d_27">
      <path d="M 55.584 71.821423 
L 412.704 71.821423 
" clip-path="url(#p6e65ed336c)" style="fill: none; stroke: #b0b0b0; stroke-width: 0.8; stroke-linecap: square"/>
     </g>
     <g id="line2d_28">
      <g>
       <use xlink:href="#me16e094fff" x="55.584" y="71.821423" style="stroke: #000000; stroke-width: 0.8"/>
      </g>
     </g>
     <g id="text_14">
      <!-- 14 -->
      <g transform="translate(30.769 77.14033) scale(0.14 -0.14)">
       <use xlink:href="#DejaVuSans-31"/>
       <use xlink:href="#DejaVuSans-34" x="63.623047"/>
      </g>
     </g>
    </g>
   </g>
   <g id="line2d_29">
    <path d="M 71.816727 314.968 
L 73.116645 314.968 
L 73.441625 239.625995 
L 73.766604 244.37487 
L 74.091584 242.646083 
L 74.741543 246.615622 
L 75.066523 246.934905 
L 75.391502 246.644017 
L 75.716482 246.171628 
L 76.041461 245.983774 
L 76.366441 239.776416 
L 77.0164 240.577667 
L 77.341379 240.6059 
L 77.666359 238.76223 
L 78.316318 240.036904 
L 78.641297 240.391499 
L 78.966277 240.408009 
L 79.291256 235.431221 
L 79.616236 235.214143 
L 79.941215 235.374009 
L 80.266195 234.318909 
L 80.591174 234.374748 
L 80.916154 234.094493 
L 81.566113 234.155868 
L 81.891093 233.784588 
L 82.216072 232.977632 
L 82.541052 232.96726 
L 83.191011 232.418499 
L 84.815908 232.520504 
L 85.140888 232.263376 
L 85.790847 232.289394 
L 86.115826 230.390505 
L 86.765785 230.14102 
L 87.090765 228.408002 
L 87.415744 228.452382 
L 87.740724 228.277288 
L 88.065704 228.261181 
L 88.390683 227.923934 
L 88.715663 228.047988 
L 89.040642 227.967577 
L 89.690601 226.46192 
L 90.34056 226.371337 
L 90.66554 226.464204 
L 90.990519 226.078771 
L 91.315499 225.396848 
L 91.640478 225.343217 
L 92.290437 225.543597 
L 92.615417 225.471801 
L 93.265376 225.590725 
L 93.590355 225.270529 
L 93.915335 225.134304 
L 94.240314 225.155565 
L 94.565294 224.922525 
L 94.890274 224.979253 
L 95.865212 224.570462 
L 97.49011 224.380276 
L 98.140069 224.348719 
L 98.465048 223.901086 
L 98.790028 223.885064 
L 99.764966 223.448204 
L 100.089946 223.042717 
L 100.414925 223.030435 
L 100.739905 222.160642 
L 101.389864 222.029793 
L 101.714844 222.055139 
L 102.039823 221.917429 
L 102.689782 221.917895 
L 103.014762 221.651197 
L 103.339741 221.623038 
L 103.664721 221.275795 
L 103.9897 221.253141 
L 104.639659 220.701334 
L 105.614598 220.654565 
L 105.939577 220.537887 
L 106.264557 220.578565 
L 106.914516 220.43618 
L 109.189373 220.001395 
L 109.514352 216.913307 
L 110.81427 216.87961 
L 111.789209 216.385538 
L 112.114188 215.60453 
L 114.714025 215.314462 
L 115.039004 213.807568 
L 115.363984 213.82901 
L 115.688963 213.675349 
L 116.338922 213.663099 
L 116.663902 213.739342 
L 116.988881 213.485717 
L 117.313861 212.43177 
L 117.63884 212.5044 
L 118.613779 212.299977 
L 118.938758 212.080514 
L 119.263738 209.982835 
L 120.238676 210.142225 
L 120.563656 209.225705 
L 120.888636 209.034484 
L 121.863574 208.944154 
L 122.188554 208.695685 
L 122.838513 208.611811 
L 123.163492 208.676564 
L 123.488472 207.257858 
L 124.46341 207.37265 
L 124.78839 207.323054 
L 125.113369 207.410323 
L 125.438349 207.271746 
L 125.763328 206.602876 
L 126.413287 206.690277 
L 127.063247 206.676865 
L 128.038185 206.749141 
L 128.363165 206.295919 
L 129.013124 206.423358 
L 129.338103 200.891965 
L 130.313042 201.177503 
L 130.963001 201.116354 
L 131.937939 201.494923 
L 132.262919 201.506593 
L 132.912878 201.733412 
L 134.537776 202.092189 
L 135.187735 201.984029 
L 136.162673 202.160793 
L 137.137612 202.24898 
L 137.462591 202.344302 
L 137.787571 202.130584 
L 139.087489 202.328162 
L 139.412468 178.523384 
L 142.662264 180.446194 
L 142.987243 180.470187 
L 144.93712 181.452171 
L 145.2621 181.402742 
L 146.237038 181.868626 
L 146.562018 181.979507 
L 146.886998 181.645985 
L 147.536957 181.892406 
L 147.861936 181.73714 
L 148.511895 181.963355 
L 148.836875 182.015199 
L 149.811813 182.423276 
L 150.136793 181.378105 
L 152.411649 182.067386 
L 153.061609 182.161524 
L 154.361527 182.568598 
L 154.686506 182.437937 
L 155.336465 182.523884 
L 155.661445 157.869761 
L 156.961363 158.269238 
L 159.236219 158.721572 
L 159.561199 158.576515 
L 159.886179 158.661191 
L 160.211158 158.446752 
L 163.460953 159.090373 
L 166.710749 159.503732 
L 167.360708 159.631991 
L 167.685687 159.568223 
L 168.985605 159.740313 
L 169.310585 159.551964 
L 170.285523 159.665018 
L 171.910421 159.911524 
L 175.485196 160.076687 
L 175.810175 160.017271 
L 177.110093 160.157167 
L 177.435073 160.173542 
L 177.760052 159.564104 
L 179.70993 159.85892 
L 181.659807 159.965098 
L 183.284704 160.041371 
L 184.584622 160.149778 
L 184.909602 160.009899 
L 186.20952 160.035287 
L 187.834418 160.255019 
L 189.784295 159.997153 
L 190.109274 160.047628 
L 190.434254 159.799493 
L 191.084213 159.816063 
L 191.734172 159.809702 
L 192.709111 159.885436 
L 193.35907 159.758788 
L 195.308947 159.998159 
L 195.633926 159.767029 
L 196.608865 159.885907 
L 197.258824 159.981031 
L 197.908783 159.928987 
L 203.108455 160.342094 
L 203.433435 160.175444 
L 204.083394 160.233863 
L 206.033271 159.929955 
L 207.333189 159.944696 
L 208.633107 160.000202 
L 211.882903 160.17554 
L 212.532862 160.281433 
L 212.857841 160.091426 
L 213.182821 159.598073 
L 216.107636 159.665211 
L 217.082575 159.719591 
L 217.732534 159.706305 
L 219.357432 159.691264 
L 219.682411 159.508226 
L 220.33237 159.524018 
L 226.506981 159.929452 
L 228.456858 160.050715 
L 228.781838 160.097488 
L 229.106817 159.688965 
L 231.381674 159.769647 
L 233.656531 159.903095 
L 235.281428 159.804328 
L 235.931387 159.793152 
L 240.80608 159.884997 
L 241.456039 159.831435 
L 244.055876 160.014418 
L 245.355794 159.895869 
L 245.680773 159.761449 
L 246.005753 159.781036 
L 246.330732 159.630988 
L 250.230486 159.682835 
L 250.555466 159.109715 
L 252.180364 159.156545 
L 253.805261 159.119234 
L 254.130241 157.77052 
L 254.7802 157.73871 
L 255.105179 157.475678 
L 256.405097 157.503804 
L 258.354975 157.279511 
L 259.979872 157.301347 
L 260.629831 157.250174 
L 260.954811 157.253647 
L 261.27979 157.102849 
L 261.60477 157.113437 
L 261.929749 154.169936 
L 262.254729 154.036495 
L 263.879627 154.130804 
L 264.529586 153.961942 
L 272.004115 154.325166 
L 272.654074 154.37888 
L 272.979053 154.223026 
L 275.578889 154.315195 
L 276.228848 154.238251 
L 277.528767 154.275183 
L 281.428521 154.460263 
L 282.07848 154.399679 
L 283.053419 154.417323 
L 284.028357 154.17647 
L 286.303214 154.254391 
L 289.877989 154.298983 
L 290.202968 154.140766 
L 291.177907 154.203763 
L 291.502886 154.071947 
L 292.477825 154.1294 
L 292.802804 153.341266 
L 298.002477 153.730548 
L 311.976596 154.143582 
L 312.301576 153.595415 
L 313.926473 153.65853 
L 315.551371 153.635042 
L 315.876351 153.502456 
L 317.176269 153.469552 
L 321.076023 153.328505 
L 321.725982 153.290467 
L 324.650798 153.381829 
L 326.600675 153.133713 
L 331.800347 153.317638 
L 336.025081 153.174356 
L 339.599856 153.299199 
L 350.974139 153.519618 
L 351.299119 153.296511 
L 352.274057 153.217368 
L 353.898955 153.217278 
L 354.223934 152.951323 
L 355.848832 152.981595 
L 357.14875 153.003875 
L 357.47373 152.32829 
L 364.2983 152.498966 
L 365.923197 152.546633 
L 369.497972 152.558581 
L 375.347604 152.560889 
L 377.94744 152.575569 
L 383.472092 152.598362 
L 384.44703 152.597025 
L 387.696826 152.60253 
L 388.021805 152.528791 
L 388.346785 150.245517 
L 393.871437 150.302638 
L 394.846375 150.283648 
L 396.471273 150.347082 
L 396.471273 150.347082 
" clip-path="url(#p6e65ed336c)" style="fill: none; stroke: #1f77b4; stroke-width: 2; stroke-linecap: square"/>
    <defs>
     <path id="m478ccf7f53" d="M 0 3 
C 0.795609 3 1.55874 2.683901 2.12132 2.12132 
C 2.683901 1.55874 3 0.795609 3 0 
C 3 -0.795609 2.683901 -1.55874 2.12132 -2.12132 
C 1.55874 -2.683901 0.795609 -3 0 -3 
C -0.795609 -3 -1.55874 -2.683901 -2.12132 -2.12132 
C -2.683901 -1.55874 -3 -0.795609 -3 0 
C -3 0.795609 -2.683901 1.55874 -2.12132 2.12132 
C -1.55874 2.683901 -0.795609 3 0 3 
z
" style="stroke: #1f77b4"/>
    </defs>
    <g clip-path="url(#p6e65ed336c)">
     <use xlink:href="#m478ccf7f53" x="71.816727" y="314.968" style="fill: #1f77b4; stroke: #1f77b4"/>
     <use xlink:href="#m478ccf7f53" x="136.812632" y="202.24504" style="fill: #1f77b4; stroke: #1f77b4"/>
     <use xlink:href="#m478ccf7f53" x="201.808537" y="160.262021" style="fill: #1f77b4; stroke: #1f77b4"/>
     <use xlink:href="#m478ccf7f53" x="266.804442" y="154.045956" style="fill: #1f77b4; stroke: #1f77b4"/>
     <use xlink:href="#m478ccf7f53" x="331.800347" y="153.317638" style="fill: #1f77b4; stroke: #1f77b4"/>
    </g>
   </g>
   <g id="line2d_30">
    <path d="M 71.816727 314.968 
L 73.116645 314.968 
L 73.441625 194.458493 
L 73.766604 211.010445 
L 74.416563 215.644414 
L 74.741543 208.7694 
L 75.391502 210.899879 
L 75.716482 206.001511 
L 76.041461 203.970052 
L 76.366441 192.062445 
L 77.0164 186.113388 
L 77.341379 186.866609 
L 77.991338 186.522023 
L 78.316318 184.435476 
L 78.641297 183.9527 
L 78.966277 183.752162 
L 79.291256 183.240569 
L 79.616236 183.436936 
L 80.266195 183.38032 
L 80.591174 180.858438 
L 80.916154 180.211873 
L 81.241133 180.008572 
L 81.566113 179.590177 
L 81.891093 178.643291 
L 82.541052 178.036048 
L 82.866031 177.482783 
L 83.191011 177.425331 
L 83.51599 177.01466 
L 83.84097 176.858545 
L 84.165949 176.563805 
L 84.490929 175.982015 
L 84.815908 174.318673 
L 85.140888 173.513189 
L 86.115826 173.052442 
L 86.440806 173.043149 
L 86.765785 172.855369 
L 87.090765 172.474757 
L 87.415744 172.43287 
L 87.740724 172.21517 
L 88.065704 170.745597 
L 88.390683 170.721791 
L 88.715663 170.566386 
L 89.040642 169.879387 
L 89.365622 169.863511 
L 89.690601 169.616724 
L 90.015581 169.513765 
L 90.34056 169.162267 
L 90.990519 168.29273 
L 92.290437 167.909584 
L 92.615417 167.493499 
L 92.940396 161.245786 
L 93.265376 160.187626 
L 93.590355 159.791495 
L 93.915335 159.770922 
L 94.240314 158.575033 
L 94.890274 158.587227 
L 95.215253 157.863471 
L 96.190192 157.477866 
L 96.515171 156.677739 
L 96.840151 156.561279 
L 97.16513 156.586285 
L 97.49011 156.390274 
L 97.815089 155.871282 
L 98.140069 155.674648 
L 98.465048 155.261227 
L 98.790028 151.741522 
L 99.439987 151.422609 
L 99.764966 151.315147 
L 100.089946 151.032397 
L 100.739905 150.775624 
L 101.389864 150.612413 
L 101.714844 150.693266 
L 102.364803 150.645985 
L 102.689782 149.091597 
L 103.9897 148.667484 
L 104.31468 148.357566 
L 104.639659 148.350029 
L 104.964639 148.047605 
L 105.614598 147.971158 
L 106.264557 147.100136 
L 106.914516 146.940103 
L 107.239495 145.264815 
L 108.539414 145.504654 
L 108.864393 144.863826 
L 109.514352 145.160234 
L 109.839332 145.006617 
L 111.789209 145.373694 
L 112.114188 144.175943 
L 112.439168 143.700932 
L 112.764147 143.924684 
L 114.064066 143.591595 
L 114.389045 143.698644 
L 114.714025 143.657937 
L 115.039004 143.488742 
L 115.363984 143.568796 
L 116.013943 143.48435 
L 116.338922 143.485603 
L 116.663902 143.296288 
L 118.938758 143.255625 
L 120.238676 143.354674 
L 123.488472 143.499383 
L 123.813451 143.266561 
L 124.46341 143.199125 
L 125.113369 143.14204 
L 125.438349 142.976532 
L 125.763328 142.059495 
L 126.088308 142.00482 
L 126.413287 142.065584 
L 126.738267 141.813903 
L 127.063247 141.065068 
L 129.663083 141.19769 
L 130.638021 140.768122 
L 133.887817 140.876234 
L 134.537776 140.894475 
L 134.862755 140.087731 
L 135.187735 139.922429 
L 136.487653 139.897615 
L 137.137612 139.857191 
L 138.11255 139.886772 
L 138.762509 139.805605 
L 140.387407 139.784474 
L 140.712387 139.735874 
L 141.037366 139.16436 
L 143.637202 139.257665 
L 143.962182 134.658888 
L 144.287161 133.342091 
L 144.93712 133.689613 
L 145.2621 133.654462 
L 147.861936 134.406323 
L 148.836875 134.572391 
L 149.161854 133.472281 
L 149.811813 133.558623 
L 150.786752 133.635721 
L 152.411649 133.915432 
L 152.736629 133.845224 
L 153.386588 134.00618 
L 154.036547 134.013419 
L 156.311404 134.340142 
L 156.961363 134.31922 
L 158.91124 134.451898 
L 159.236219 100.614466 
L 160.211158 100.569604 
L 161.836056 100.606828 
L 162.161035 100.028055 
L 163.460953 99.996398 
L 164.110912 99.588784 
L 166.710749 99.71137 
L 167.685687 99.581071 
L 168.335646 99.591245 
L 169.635564 99.588638 
L 171.910421 99.473464 
L 173.535319 99.488035 
L 174.510257 99.503819 
L 176.460134 99.403069 
L 176.785114 99.285698 
L 178.734991 99.256003 
L 179.38495 99.187444 
L 180.359889 99.159777 
L 180.684868 99.008251 
L 181.659807 99.013828 
L 182.634745 98.947375 
L 182.959725 98.667879 
L 183.284704 98.705699 
L 183.609684 98.132454 
L 185.234581 98.448277 
L 186.20952 98.350211 
L 186.859479 98.388171 
L 187.184459 98.17276 
L 189.134336 98.354018 
L 190.434254 98.255972 
L 190.759233 98.107599 
L 192.059152 98.116282 
L 193.684049 98.018078 
L 194.009029 97.79677 
L 194.983967 97.819112 
L 196.283885 97.696 
L 196.933844 97.722851 
L 197.258824 97.55111 
L 198.558742 97.546078 
L 199.85866 97.549292 
L 200.833599 97.543464 
L 202.133517 97.458218 
L 205.058333 97.222138 
L 205.383312 97.010296 
L 206.358251 96.909108 
L 207.333189 96.891102 
L 209.608046 96.952339 
L 210.907964 96.928148 
L 211.557923 96.574799 
L 212.857841 96.369449 
L 214.157759 96.404185 
L 214.482739 96.237464 
L 216.757595 96.161911 
L 217.407554 96.070411 
L 219.682411 96.073716 
L 225.532043 95.984773 
L 226.182002 95.906555 
L 228.456858 95.898506 
L 230.731715 95.730496 
L 232.031633 95.744185 
L 232.356613 95.569328 
L 237.881265 95.464798 
L 238.856203 95.33073 
L 242.755957 95.248547 
L 243.080937 94.414387 
L 244.055876 94.39139 
L 244.705835 94.251708 
L 245.355794 94.205031 
L 245.680773 93.927964 
L 247.305671 93.804131 
L 252.830323 93.924852 
L 253.155302 93.310162 
L 253.480282 93.27213 
L 253.805261 92.137173 
L 255.755138 92.19553 
L 256.080118 92.030801 
L 256.730077 92.023462 
L 257.055057 90.17807 
L 258.029995 90.169563 
L 258.354975 89.768756 
L 260.954811 89.824061 
L 261.929749 89.808892 
L 264.204606 89.707628 
L 264.854565 89.613938 
L 266.479463 89.56573 
L 266.804442 89.248055 
L 270.054238 89.267213 
L 270.379217 88.994396 
L 271.679135 88.972207 
L 272.004115 88.39147 
L 276.228848 88.055048 
L 278.178726 88.043596 
L 279.478644 88.017528 
L 279.803623 80.080311 
L 281.428521 80.173276 
L 282.07848 80.164984 
L 283.053419 80.177035 
L 283.703378 80.064539 
L 286.628193 80.104096 
L 286.953173 79.884358 
L 288.253091 79.914963 
L 289.553009 79.904169 
L 293.127784 80.049887 
L 295.077661 80.049071 
L 295.40264 79.838809 
L 298.652436 79.99146 
L 298.977415 79.774672 
L 299.627374 79.814924 
L 299.952354 79.541076 
L 304.177088 79.686974 
L 305.152026 79.738383 
L 305.477006 79.544087 
L 313.276514 79.48516 
L 313.926473 79.530759 
L 314.901412 79.192331 
L 315.551371 79.198159 
L 316.20133 79.102815 
L 318.151207 79.188027 
L 320.426064 79.248732 
L 322.050962 79.20885 
L 322.375941 78.708755 
L 324.325818 78.709292 
L 326.275695 78.738932 
L 331.150388 78.988271 
L 331.475368 78.613553 
L 332.450306 78.616341 
L 332.775286 78.203975 
L 334.400183 78.235858 
L 335.050143 78.280684 
L 335.375122 78.075662 
L 337.00002 78.129803 
L 337.974958 78.118734 
L 338.299938 78.115104 
L 338.624917 76.648826 
L 341.874713 76.854819 
L 342.524672 76.794464 
L 345.449487 76.901678 
L 345.774467 76.308238 
L 356.823771 76.361446 
L 357.14875 76.185067 
L 358.773648 76.221426 
L 359.423607 76.164995 
L 360.073566 76.012354 
L 360.398545 76.0295 
L 360.723525 75.93034 
L 363.648341 76.043288 
L 364.623279 76.024796 
L 364.948259 75.382065 
L 368.198054 75.330309 
L 368.848013 75.251334 
L 369.172993 75.087085 
L 373.397726 75.182711 
L 376.322542 75.148189 
L 378.922378 75.280794 
L 379.247358 73.27577 
L 379.897317 73.237742 
L 381.847194 73.243438 
L 384.122051 73.243408 
L 388.021805 73.263112 
L 391.921559 73.327723 
L 393.871437 73.366796 
L 394.196416 73.080986 
L 395.171355 73.081541 
L 396.471273 73.074374 
L 396.471273 73.074374 
" clip-path="url(#p6e65ed336c)" style="fill: none; stroke: #ff7f0e; stroke-width: 2; stroke-linecap: square"/>
    <defs>
     <path id="m3690c161ae" d="M 0 -3 
L -3 3 
L 3 3 
z
" style="stroke: #ff7f0e; stroke-linejoin: miter"/>
    </defs>
    <g clip-path="url(#p6e65ed336c)">
     <use xlink:href="#m3690c161ae" x="71.816727" y="314.968" style="fill: #ff7f0e; stroke: #ff7f0e; stroke-linejoin: miter"/>
     <use xlink:href="#m3690c161ae" x="136.812632" y="139.829886" style="fill: #ff7f0e; stroke: #ff7f0e; stroke-linejoin: miter"/>
     <use xlink:href="#m3690c161ae" x="201.808537" y="97.426586" style="fill: #ff7f0e; stroke: #ff7f0e; stroke-linejoin: miter"/>
     <use xlink:href="#m3690c161ae" x="266.804442" y="89.248055" style="fill: #ff7f0e; stroke: #ff7f0e; stroke-linejoin: miter"/>
     <use xlink:href="#m3690c161ae" x="331.800347" y="78.624801" style="fill: #ff7f0e; stroke: #ff7f0e; stroke-linejoin: miter"/>
    </g>
   </g>
   <g id="line2d_31">
    <path d="M 71.816727 314.968 
L 73.116645 314.968 
L 73.441625 215.648998 
L 73.766604 224.753777 
L 74.091584 227.620869 
L 74.416563 227.932068 
L 74.741543 227.08813 
L 75.066523 222.511539 
L 75.391502 220.584463 
L 76.041461 219.403548 
L 76.366441 216.835275 
L 76.69142 216.477625 
L 77.0164 208.744135 
L 77.341379 208.29579 
L 77.666359 207.335965 
L 77.991338 206.748444 
L 78.966277 202.663851 
L 79.291256 202.530149 
L 79.941215 200.991013 
L 80.266195 199.870236 
L 80.591174 196.271149 
L 80.916154 196.418863 
L 81.241133 196.236238 
L 81.566113 195.635451 
L 81.891093 195.545118 
L 82.216072 191.646099 
L 82.866031 191.014123 
L 83.191011 189.995386 
L 83.51599 186.515012 
L 83.84097 186.798733 
L 84.165949 186.40301 
L 84.490929 186.182626 
L 84.815908 186.109516 
L 85.465867 185.682474 
L 85.790847 184.972655 
L 86.115826 185.081246 
L 86.440806 184.628973 
L 86.765785 183.365256 
L 87.415744 182.691929 
L 88.065704 182.19723 
L 88.390683 182.238802 
L 88.715663 180.620446 
L 89.040642 180.214018 
L 89.365622 180.214207 
L 90.66554 179.676625 
L 90.990519 179.687797 
L 91.315499 179.535588 
L 91.640478 179.52103 
L 91.965458 179.160276 
L 92.290437 179.125588 
L 92.615417 176.888083 
L 92.940396 175.886986 
L 93.590355 175.861848 
L 93.915335 175.236294 
L 94.240314 175.266772 
L 94.565294 175.117933 
L 94.890274 175.105753 
L 95.865212 174.661676 
L 96.190192 174.164427 
L 96.515171 174.181018 
L 96.840151 173.493524 
L 97.49011 173.4741 
L 99.439987 173.065689 
L 99.764966 173.079397 
L 100.414925 172.880134 
L 101.389864 172.7002 
L 102.039823 172.222071 
L 102.364803 172.250721 
L 104.964639 170.007137 
L 105.289618 170.106476 
L 105.614598 169.521049 
L 106.589536 169.59172 
L 106.914516 169.14162 
L 107.564475 169.05539 
L 107.889455 168.864886 
L 108.539414 168.806728 
L 108.864393 167.250655 
L 109.189373 167.284544 
L 109.514352 166.862236 
L 109.839332 166.683996 
L 111.464229 166.348048 
L 111.789209 166.18538 
L 112.114188 166.211069 
L 112.439168 166.060467 
L 113.414106 166.096531 
L 114.064066 166.075092 
L 114.714025 165.557241 
L 115.039004 165.43352 
L 115.363984 165.475535 
L 115.688963 165.200822 
L 116.013943 165.260869 
L 116.338922 164.148497 
L 116.663902 164.179958 
L 116.988881 163.867968 
L 117.96382 163.843833 
L 118.613779 163.646166 
L 119.263738 163.623317 
L 119.913697 163.441023 
L 120.563656 163.324872 
L 123.163492 163.426668 
L 124.138431 163.341185 
L 124.46341 162.636783 
L 125.113369 162.597875 
L 126.413287 162.604284 
L 126.738267 162.401554 
L 127.388226 162.334127 
L 128.038185 162.232303 
L 128.363165 161.182375 
L 130.313042 161.040136 
L 130.963001 160.95267 
L 132.587898 160.843904 
L 133.237857 160.78089 
L 133.887817 160.673586 
L 134.212796 160.157121 
L 135.512714 160.051603 
L 137.137612 159.784004 
L 137.787571 159.734887 
L 138.11255 159.557159 
L 138.762509 159.614322 
L 139.087489 159.441292 
L 140.387407 159.355016 
L 141.037366 159.127739 
L 142.012305 159.102863 
L 142.337284 158.919286 
L 142.662264 158.90795 
L 142.987243 158.667959 
L 143.962182 158.656201 
L 144.93712 158.557716 
L 145.587079 158.557564 
L 145.912059 158.476386 
L 146.886998 157.569994 
L 147.211977 157.295299 
L 148.186916 157.295755 
L 156.961363 156.843143 
L 157.286342 156.577756 
L 157.611322 156.559203 
L 157.936301 156.324083 
L 158.91124 156.343146 
L 159.561199 156.008942 
L 160.211158 155.791476 
L 160.861117 155.823173 
L 161.186097 153.312482 
L 161.836056 153.321401 
L 162.161035 153.132014 
L 164.435892 153.399842 
L 164.760871 153.204109 
L 165.085851 153.236159 
L 165.73581 153.162339 
L 166.385769 153.218848 
L 167.035728 153.151961 
L 168.335646 153.256973 
L 168.660626 147.785796 
L 168.985605 147.386819 
L 169.635564 147.497405 
L 170.935482 147.763555 
L 172.88536 148.085244 
L 173.535319 147.880281 
L 176.460134 148.026259 
L 176.785114 147.896504 
L 179.059971 148.064365 
L 181.984786 148.210302 
L 182.634745 146.838489 
L 183.284704 146.888919 
L 183.609684 146.824078 
L 183.934663 146.472547 
L 186.20952 146.568945 
L 189.134336 146.567435 
L 189.459315 146.474861 
L 190.109274 146.496463 
L 190.759233 146.460045 
L 191.409192 146.422294 
L 191.734172 146.136799 
L 192.384131 146.171065 
L 192.709111 146.050845 
L 195.633926 146.214416 
L 198.233762 146.214178 
L 198.558742 146.047434 
L 200.18364 146.083962 
L 204.083394 146.17157 
L 204.408373 145.887453 
L 206.68323 145.926209 
L 209.283066 146.003494 
L 210.582984 146.044565 
L 212.532862 145.976006 
L 212.857841 145.864853 
L 213.182821 145.878199 
L 213.5078 145.718936 
L 215.457677 145.779264 
L 215.782657 145.706933 
L 216.107636 145.082653 
L 216.757595 145.04854 
L 218.707473 145.067502 
L 219.032452 144.427266 
L 221.307309 144.629208 
L 222.607227 144.708951 
L 229.431797 144.782347 
L 229.756776 143.145866 
L 231.706654 143.307415 
L 232.356613 143.115716 
L 233.656531 143.141802 
L 235.281428 143.131954 
L 235.606408 142.97742 
L 237.881265 143.032058 
L 239.831142 143.050972 
L 240.156121 142.036261 
L 241.13106 142.033892 
L 241.456039 141.853629 
L 244.380855 141.947826 
L 246.330732 141.950741 
L 247.95563 141.965715 
L 254.130241 141.850782 
L 254.45522 141.878988 
L 254.7802 141.380917 
L 255.755138 141.41757 
L 256.405097 141.338209 
L 258.354975 141.276397 
L 259.004934 141.27614 
L 259.654893 140.721192 
L 260.629831 140.657998 
L 268.42934 140.641376 
L 269.404278 140.675105 
L 269.729258 140.567114 
L 271.354156 140.585021 
L 273.629012 140.648455 
L 273.953992 140.179591 
L 274.278971 140.004194 
L 275.25391 140.015592 
L 275.578889 139.835399 
L 276.553828 139.895846 
L 276.878808 139.703614 
L 279.153664 139.72751 
L 280.778562 139.790269 
L 283.703378 139.886399 
L 284.028357 139.765738 
L 286.303214 139.828095 
L 288.57807 139.814298 
L 290.852927 139.846144 
L 291.502886 139.801302 
L 295.40264 139.814183 
L 296.702559 139.534346 
L 302.87717 139.573376 
L 303.202149 138.654475 
L 308.076842 138.673634 
L 308.401821 138.543221 
L 309.051781 138.562066 
L 309.37676 138.358044 
L 311.651617 138.381889 
L 311.976596 138.178778 
L 313.926473 138.216341 
L 314.901412 138.200832 
L 315.876351 138.184927 
L 316.851289 137.997948 
L 319.776105 138.069132 
L 327.250634 137.96832 
L 329.85047 138.009647 
L 330.17545 137.916929 
L 331.150388 137.92889 
L 334.400183 137.742368 
L 337.324999 137.819791 
L 342.524672 137.922929 
L 348.049324 137.866592 
L 348.699283 137.761404 
L 349.999201 137.722255 
L 350.64916 137.658971 
L 351.949078 137.587074 
L 352.274057 137.197027 
L 354.548914 137.19017 
L 355.523853 137.192994 
L 357.47373 137.179308 
L 360.398545 137.179329 
L 363.323361 137.202198 
L 363.648341 137.075323 
L 365.598218 137.063738 
L 366.898136 136.956831 
L 368.523034 136.900848 
L 369.172993 136.915467 
L 369.497972 135.27165 
L 370.472911 135.257994 
L 371.447849 134.947968 
L 375.997563 135.00033 
L 376.322542 134.740401 
L 377.62246 134.761428 
L 377.94744 134.378294 
L 378.597399 134.384454 
L 378.922378 134.239338 
L 382.172174 134.233522 
L 382.822133 134.154396 
L 388.996744 134.057271 
L 389.971682 134.008822 
L 393.546457 134.051539 
L 396.146293 134.023332 
L 396.471273 134.021669 
L 396.471273 134.021669 
" clip-path="url(#p6e65ed336c)" style="fill: none; stroke: #2ca02c; stroke-width: 2; stroke-linecap: square"/>
    <defs>
     <path id="m29202b3c80" d="M -3 3 
L 3 3 
L 3 -3 
L -3 -3 
z
" style="stroke: #2ca02c; stroke-linejoin: miter"/>
    </defs>
    <g clip-path="url(#p6e65ed336c)">
     <use xlink:href="#m29202b3c80" x="71.816727" y="314.968" style="fill: #2ca02c; stroke: #2ca02c; stroke-linejoin: miter"/>
     <use xlink:href="#m29202b3c80" x="136.812632" y="159.762308" style="fill: #2ca02c; stroke: #2ca02c; stroke-linejoin: miter"/>
     <use xlink:href="#m29202b3c80" x="201.808537" y="146.129062" style="fill: #2ca02c; stroke: #2ca02c; stroke-linejoin: miter"/>
     <use xlink:href="#m29202b3c80" x="266.804442" y="140.672124" style="fill: #2ca02c; stroke: #2ca02c; stroke-linejoin: miter"/>
     <use xlink:href="#m29202b3c80" x="331.800347" y="137.835259" style="fill: #2ca02c; stroke: #2ca02c; stroke-linejoin: miter"/>
    </g>
   </g>
   <g id="line2d_32">
    <path d="M 71.816727 314.968 
L 73.116645 314.968 
L 73.441625 237.182312 
L 73.766604 244.665242 
L 74.416563 245.805371 
L 74.741543 240.769876 
L 75.066523 238.499943 
L 75.716482 236.786052 
L 76.366441 235.823952 
L 76.69142 225.097552 
L 77.0164 222.040173 
L 77.341379 221.840179 
L 78.641297 219.111279 
L 78.966277 213.267813 
L 79.291256 213.104566 
L 79.616236 212.226774 
L 79.941215 210.76066 
L 80.266195 209.861976 
L 80.591174 209.892304 
L 80.916154 159.508215 
L 81.241133 157.96629 
L 81.566113 153.81794 
L 81.891093 153.565438 
L 82.216072 152.761372 
L 82.541052 152.733789 
L 82.866031 152.499736 
L 83.51599 152.359658 
L 83.84097 151.537978 
L 84.165949 151.661364 
L 84.815908 151.286273 
L 85.140888 149.816784 
L 86.115826 149.937273 
L 86.440806 149.94387 
L 86.765785 149.75237 
L 87.090765 147.785913 
L 87.740724 146.827287 
L 88.065704 146.032164 
L 88.390683 146.01435 
L 88.715663 145.683664 
L 89.040642 145.527338 
L 90.015581 144.573715 
L 90.34056 144.523612 
L 90.66554 144.110345 
L 90.990519 142.747184 
L 91.640478 142.334081 
L 91.965458 141.959309 
L 92.290437 141.932844 
L 92.940396 141.031739 
L 93.265376 140.71728 
L 94.240314 140.426012 
L 94.565294 139.918125 
L 95.865212 139.425412 
L 96.190192 138.968569 
L 96.515171 138.9852 
L 97.16513 138.676936 
L 98.465048 138.28154 
L 98.790028 138.281249 
L 99.439987 137.884805 
L 100.089946 136.701565 
L 100.414925 135.091046 
L 101.714844 134.560613 
L 102.039823 134.039745 
L 102.689782 133.872106 
L 103.014762 133.640127 
L 103.339741 133.554993 
L 103.664721 133.585116 
L 103.9897 133.416012 
L 105.614598 133.419634 
L 106.264557 133.324921 
L 106.589536 132.352691 
L 106.914516 132.393438 
L 107.239495 131.564603 
L 107.564475 131.451726 
L 107.889455 129.21359 
L 108.214434 129.278008 
L 108.539414 128.750231 
L 108.864393 127.805845 
L 109.189373 127.902471 
L 109.514352 127.769478 
L 110.164311 127.304339 
L 110.81427 127.399431 
L 111.464229 127.00149 
L 112.114188 127.052302 
L 112.439168 127.07944 
L 112.764147 126.635668 
L 113.414106 126.59361 
L 113.739086 126.243824 
L 115.039004 126.118585 
L 115.363984 125.76678 
L 116.338922 125.527633 
L 116.663902 125.13767 
L 117.313861 125.136528 
L 118.288799 124.705909 
L 119.588717 124.573311 
L 120.238676 124.460869 
L 121.538595 124.386188 
L 122.188554 124.398966 
L 122.513533 122.206374 
L 122.838513 122.074982 
L 123.488472 122.165185 
L 123.813451 121.663 
L 124.138431 121.377838 
L 124.78839 121.37486 
L 125.438349 121.228809 
L 126.413287 121.29786 
L 128.038185 121.169603 
L 129.013124 121.0039 
L 129.663083 119.98085 
L 129.988062 119.99035 
L 130.313042 119.821142 
L 130.638021 119.017906 
L 130.963001 118.544357 
L 131.61296 118.5604 
L 133.237857 118.554172 
L 133.562837 118.123672 
L 134.537776 117.943966 
L 134.862755 118.000685 
L 135.187735 117.044196 
L 136.162673 117.022648 
L 136.487653 116.803906 
L 137.787571 116.711231 
L 138.11255 116.752492 
L 138.43753 116.520931 
L 139.087489 116.487983 
L 140.062428 116.332279 
L 140.712387 116.404293 
L 141.037366 116.316893 
L 141.362346 116.10023 
L 142.662264 116.129144 
L 142.987243 116.104503 
L 143.312223 115.935261 
L 143.962182 115.818859 
L 144.287161 115.549462 
L 145.587079 115.631294 
L 146.562018 115.610624 
L 147.536957 115.578362 
L 147.861936 115.48295 
L 149.486834 115.514564 
L 150.461772 115.418406 
L 151.76169 115.392921 
L 154.036547 115.332464 
L 154.361527 115.116004 
L 155.336465 115.094323 
L 155.986424 114.989887 
L 156.311404 114.402507 
L 159.561199 114.303618 
L 159.886179 114.08678 
L 160.211158 114.083151 
L 160.536138 113.830911 
L 161.511076 113.83304 
L 161.836056 113.870746 
L 162.161035 113.493897 
L 163.785933 113.434403 
L 164.110912 111.854778 
L 164.435892 111.873856 
L 164.760871 111.287966 
L 165.41083 111.302738 
L 166.06079 111.206398 
L 166.385769 111.214717 
L 166.710749 108.949804 
L 170.935482 108.875781 
L 174.510257 109.103927 
L 176.135155 109.144727 
L 176.460134 108.75169 
L 178.085032 108.795189 
L 178.734991 108.714225 
L 179.70993 108.726411 
L 180.684868 108.776179 
L 181.334827 108.838696 
L 181.984786 108.73355 
L 184.259643 108.74449 
L 185.234581 108.693304 
L 185.884541 108.039405 
L 186.859479 107.966333 
L 188.159397 107.964355 
L 188.484377 107.866117 
L 189.134336 107.866385 
L 189.784295 107.658437 
L 192.384131 107.604882 
L 192.709111 107.493355 
L 193.03409 104.508626 
L 193.35907 104.542333 
L 193.684049 104.41383 
L 195.308947 104.490615 
L 197.908783 104.416679 
L 198.233762 104.075542 
L 201.483558 104.225766 
L 201.808537 103.600925 
L 202.783476 103.488127 
L 203.108455 103.398946 
L 203.433435 103.431364 
L 203.758414 103.306238 
L 207.00821 103.308151 
L 207.983148 102.941173 
L 210.582984 102.943134 
L 210.907964 102.541937 
L 213.182821 102.554742 
L 213.83278 102.147608 
L 215.782657 102.273072 
L 216.107636 102.091669 
L 217.082575 102.047689 
L 218.057514 101.995554 
L 218.382493 101.891229 
L 219.357432 101.905036 
L 219.682411 101.779726 
L 221.307309 101.839813 
L 225.857022 101.670929 
L 229.106817 101.671165 
L 230.406735 101.546916 
L 231.381674 101.536032 
L 231.706654 101.401981 
L 233.331551 101.408123 
L 236.906326 101.425687 
L 237.231305 101.194632 
L 239.831142 101.217323 
L 240.156121 100.457075 
L 241.456039 100.407962 
L 241.781019 100.22712 
L 245.355794 100.259474 
L 246.330732 100.14186 
L 246.980691 100.061177 
L 247.95563 99.87175 
L 248.605589 99.866556 
L 249.255548 99.617733 
L 250.230486 99.582227 
L 250.555466 99.579947 
L 251.205425 99.196092 
L 253.480282 99.240997 
L 257.705016 99.200841 
L 260.629831 98.946189 
L 266.479463 98.845757 
L 267.129422 98.771934 
L 268.42934 98.752348 
L 270.054238 98.748893 
L 270.379217 98.507946 
L 272.654074 98.514043 
L 273.953992 98.52035 
L 274.603951 98.399465 
L 276.553828 98.359008 
L 276.878808 98.165653 
L 277.203787 97.626453 
L 278.178726 97.8516 
L 279.478644 97.967654 
L 280.453582 97.999301 
L 280.778562 97.179312 
L 281.103541 97.193021 
L 281.428521 97.016243 
L 282.728439 97.069845 
L 283.053419 96.782168 
L 287.278152 96.816757 
L 292.152845 96.553816 
L 292.802804 96.524963 
L 293.452763 96.295433 
L 298.002477 96.275058 
L 298.327456 91.967255 
L 301.902231 92.129797 
L 302.22721 90.637738 
L 302.87717 90.593392 
L 305.477006 90.635173 
L 306.451944 90.600696 
L 308.401821 90.682297 
L 309.051781 90.642712 
L 310.026719 90.723187 
L 310.351699 90.615641 
L 314.576432 90.840756 
L 314.901412 90.704462 
L 318.801166 90.916869 
L 324.650798 90.978902 
L 325.300757 91.027024 
L 325.625736 90.914593 
L 326.600675 90.929722 
L 327.250634 90.329907 
L 329.525491 90.358122 
L 333.750224 90.355781 
L 336.025081 90.420249 
L 337.324999 90.429207 
L 338.949897 90.419926 
L 339.274876 89.304993 
L 340.249815 89.272938 
L 344.474549 89.307446 
L 345.124508 89.274899 
L 346.099446 89.317214 
L 346.424426 88.162239 
L 346.749405 88.164977 
L 347.074385 87.534981 
L 347.399364 87.519829 
L 347.724344 87.291174 
L 349.024262 87.069919 
L 352.599037 87.164383 
L 354.548914 86.947254 
L 356.173812 86.992684 
L 356.498791 86.793278 
L 358.773648 86.847295 
L 359.098627 85.950793 
L 362.998382 86.142785 
L 363.323361 86.004261 
L 364.2983 86.036539 
L 364.623279 85.768607 
L 367.873075 85.981048 
L 369.172993 85.980735 
L 390.621641 86.381543 
L 390.946621 85.806514 
L 392.571518 85.853007 
L 395.171355 85.907912 
L 396.471273 85.917995 
L 396.471273 85.917995 
" clip-path="url(#p6e65ed336c)" style="fill: none; stroke: #d62728; stroke-width: 2; stroke-linecap: square"/>
    <defs>
     <path id="m3eae74dcf2" d="M -3 3 
L 3 -3 
M -3 -3 
L 3 3 
" style="stroke: #d62728"/>
    </defs>
    <g clip-path="url(#p6e65ed336c)">
     <use xlink:href="#m3eae74dcf2" x="71.816727" y="314.968" style="fill: #d62728; stroke: #d62728"/>
     <use xlink:href="#m3eae74dcf2" x="136.812632" y="116.758786" style="fill: #d62728; stroke: #d62728"/>
     <use xlink:href="#m3eae74dcf2" x="201.808537" y="103.600925" style="fill: #d62728; stroke: #d62728"/>
     <use xlink:href="#m3eae74dcf2" x="266.804442" y="98.759678" style="fill: #d62728; stroke: #d62728"/>
     <use xlink:href="#m3eae74dcf2" x="331.800347" y="90.308461" style="fill: #d62728; stroke: #d62728"/>
    </g>
   </g>
   <g id="line2d_33">
    <path d="M 71.816727 314.968 
L 73.116645 314.968 
L 73.441625 188.37923 
L 73.766604 218.153849 
L 74.741543 228.648785 
L 75.066523 227.874985 
L 75.391502 228.622542 
L 75.716482 227.82456 
L 76.041461 226.459612 
L 76.366441 225.613163 
L 76.69142 225.953665 
L 77.0164 225.185477 
L 77.341379 224.018481 
L 77.666359 222.236231 
L 77.991338 221.581609 
L 78.316318 221.722127 
L 78.641297 219.776678 
L 78.966277 219.878405 
L 79.291256 219.630107 
L 79.616236 218.05943 
L 79.941215 217.290646 
L 80.266195 217.728664 
L 80.591174 217.047711 
L 81.241133 216.777401 
L 82.216072 215.765928 
L 82.541052 215.617533 
L 82.866031 215.678123 
L 83.191011 215.567928 
L 83.51599 214.913615 
L 83.84097 214.698241 
L 84.165949 214.202557 
L 84.490929 211.672402 
L 84.815908 211.436446 
L 85.140888 208.200436 
L 85.465867 208.284516 
L 85.790847 208.25354 
L 86.440806 205.795846 
L 86.765785 205.949199 
L 87.090765 205.068557 
L 87.415744 205.279465 
L 87.740724 205.158634 
L 88.715663 204.436224 
L 89.040642 204.588266 
L 89.365622 204.359914 
L 89.690601 204.545798 
L 90.015581 198.575549 
L 90.34056 195.137998 
L 90.66554 195.766516 
L 91.315499 196.384734 
L 91.640478 196.127544 
L 92.290437 196.403784 
L 92.615417 195.100086 
L 92.940396 194.291608 
L 93.590355 194.645159 
L 93.915335 194.44687 
L 94.240314 194.858248 
L 94.890274 194.956477 
L 95.215253 187.58763 
L 95.540233 186.981257 
L 95.865212 187.372867 
L 96.515171 187.553483 
L 96.840151 187.337947 
L 97.49011 187.601224 
L 97.815089 186.927358 
L 98.465048 187.280171 
L 98.790028 187.25787 
L 99.439987 186.501903 
L 100.089946 186.028468 
L 100.739905 186.490895 
L 101.064885 183.717948 
L 101.714844 183.910029 
L 102.039823 184.154236 
L 102.689782 184.407093 
L 103.014762 184.273829 
L 103.664721 184.676165 
L 106.264557 185.91158 
L 106.914516 186.030177 
L 107.239495 186.19956 
L 107.564475 186.112579 
L 108.214434 186.323821 
L 108.864393 186.345004 
L 110.164311 186.393472 
L 110.489291 185.579704 
L 110.81427 185.482357 
L 112.114188 185.779827 
L 112.764147 185.898709 
L 113.414106 185.241223 
L 114.389045 185.347345 
L 114.714025 185.446918 
L 115.039004 185.397176 
L 115.363984 179.775445 
L 116.013943 179.66664 
L 116.338922 179.776881 
L 116.663902 179.6315 
L 118.288799 179.669829 
L 118.613779 179.408203 
L 119.263738 179.524525 
L 119.913697 179.739694 
L 120.563656 179.203278 
L 120.888636 178.74356 
L 121.538595 178.849964 
L 121.863574 178.4545 
L 122.188554 178.559247 
L 122.838513 178.464778 
L 123.163492 178.314682 
L 123.488472 178.345403 
L 124.46341 178.177982 
L 125.113369 178.385419 
L 126.413287 178.148646 
L 127.713206 178.250708 
L 128.038185 178.184711 
L 128.363165 177.943297 
L 129.013124 177.920815 
L 129.663083 177.993956 
L 130.313042 177.995641 
L 130.638021 178.04765 
L 130.963001 177.618926 
L 131.28798 176.606295 
L 135.837694 176.85487 
L 136.162673 176.672817 
L 136.812632 176.745458 
L 137.137612 176.63572 
L 138.762509 176.706971 
L 139.087489 176.465831 
L 139.737448 176.532192 
L 140.712387 176.255561 
L 141.037366 175.876617 
L 141.362346 175.253588 
L 142.337284 175.251825 
L 142.987243 175.059503 
L 143.312223 174.568607 
L 144.93712 174.59857 
L 146.562018 174.482425 
L 148.836875 174.757512 
L 149.486834 174.767313 
L 150.786752 174.779273 
L 151.436711 174.747314 
L 152.08667 174.778826 
L 152.411649 174.505351 
L 152.736629 173.342579 
L 153.386588 173.046636 
L 154.361527 172.956851 
L 155.011486 172.949278 
L 155.661445 172.981446 
L 155.986424 172.574119 
L 156.636383 172.336095 
L 157.611322 172.443379 
L 158.261281 172.418738 
L 159.236219 172.568679 
L 159.561199 172.397149 
L 160.861117 172.445618 
L 162.486015 172.507846 
L 163.460953 172.514027 
L 164.110912 172.466275 
L 164.760871 172.445062 
L 166.710749 172.532522 
L 167.360708 172.536318 
L 168.010667 172.496986 
L 168.660626 172.359579 
L 169.310585 172.220282 
L 170.285523 172.18339 
L 170.610503 171.960999 
L 171.585441 171.99231 
L 171.910421 171.600372 
L 173.210339 171.610389 
L 173.860298 171.580802 
L 174.185278 171.439912 
L 175.810175 171.45764 
L 176.135155 170.490143 
L 177.760052 170.510778 
L 178.085032 170.213622 
L 178.410011 170.242298 
L 179.059971 170.048027 
L 179.38495 170.031378 
L 179.70993 169.494256 
L 181.984786 169.605463 
L 182.309766 169.2427 
L 182.959725 169.1864 
L 184.584622 169.18729 
L 185.559561 169.173117 
L 186.20952 169.215001 
L 187.184459 169.150246 
L 188.484377 169.184134 
L 191.084213 169.093636 
L 191.734172 169.075611 
L 192.059152 168.950607 
L 193.03409 168.960135 
L 193.684049 168.933653 
L 196.933844 168.872437 
L 197.583803 168.778364 
L 197.908783 168.535878 
L 198.233762 168.538146 
L 198.883722 168.420043 
L 201.158578 168.394235 
L 201.483558 167.646769 
L 202.783476 167.633177 
L 203.108455 167.009653 
L 206.033271 167.015131 
L 206.68323 166.998857 
L 207.00821 166.593473 
L 214.807718 166.641183 
L 215.457677 166.457314 
L 217.082575 166.468404 
L 217.407554 166.25987 
L 218.707473 166.207908 
L 221.957268 166.265341 
L 222.282247 166.112497 
L 223.257186 166.163598 
L 223.582165 166.030505 
L 225.532043 166.124198 
L 226.506981 166.111538 
L 227.806899 166.077506 
L 228.131879 165.428459 
L 230.081756 165.378962 
L 231.056695 165.308523 
L 232.356613 165.298884 
L 233.656531 165.287854 
L 233.98151 164.878285 
L 235.281428 164.879589 
L 235.931387 164.822791 
L 236.256367 164.681625 
L 242.105998 164.444715 
L 242.755957 164.427442 
L 245.030814 164.319365 
L 245.355794 163.917702 
L 246.655712 163.855482 
L 249.905507 163.809612 
L 250.230486 163.69164 
L 250.555466 163.709862 
L 250.880446 163.521473 
L 255.430159 163.619282 
L 255.755138 163.613461 
L 256.405097 163.349218 
L 259.654893 163.294592 
L 260.304852 163.168561 
L 260.629831 162.979577 
L 263.229667 162.897668 
L 263.554647 162.911737 
L 263.879627 162.767374 
L 270.054238 162.514474 
L 270.704197 162.463922 
L 272.004115 162.402287 
L 272.979053 162.291181 
L 273.304033 162.074547 
L 273.629012 162.06384 
L 273.953992 161.919429 
L 278.178726 161.994651 
L 286.953173 162.059428 
L 287.278152 161.925494 
L 288.253091 161.920425 
L 288.57807 161.757539 
L 289.877989 161.762411 
L 290.202968 161.369789 
L 290.852927 161.35317 
L 291.177907 161.209333 
L 291.502886 161.212803 
L 291.827866 161.022042 
L 298.977415 160.990564 
L 300.602313 160.975055 
L 302.87717 160.794686 
L 303.202149 160.67126 
L 306.451944 160.691793 
L 306.776924 159.751437 
L 309.051781 159.697486 
L 310.026719 159.695883 
L 312.626555 159.695284 
L 319.451125 159.517416 
L 319.776105 159.271964 
L 322.375941 159.337431 
L 324.650798 159.215266 
L 325.300757 159.122026 
L 326.600675 159.03817 
L 328.875532 159.038222 
L 329.525491 158.954888 
L 330.17545 158.860688 
L 330.500429 158.87267 
L 330.825409 158.110349 
L 333.100265 158.145905 
L 333.425245 158.091742 
L 333.750224 156.018957 
L 334.400183 155.932496 
L 336.350061 155.959198 
L 336.67504 155.711781 
L 345.449487 155.601891 
L 345.774467 155.455683 
L 348.699283 155.464153 
L 350.974139 155.48082 
L 351.624098 155.432463 
L 353.573975 155.418159 
L 358.448668 155.451309 
L 363.648341 155.506564 
L 368.848013 155.501224 
L 372.097808 155.487215 
L 381.847194 155.385169 
L 382.172174 153.459346 
L 383.472092 153.483819 
L 383.797071 153.225835 
L 390.946621 153.347645 
L 392.246539 153.304608 
L 392.571518 152.902726 
L 396.471273 152.939166 
L 396.471273 152.939166 
" clip-path="url(#p6e65ed336c)" style="fill: none; stroke: #9467bd; stroke-width: 2; stroke-linecap: square"/>
    <defs>
     <path id="m4db98784be" d="M -0 3 
L 3 -3 
L -3 -3 
z
" style="stroke: #9467bd; stroke-linejoin: miter"/>
    </defs>
    <g clip-path="url(#p6e65ed336c)">
     <use xlink:href="#m4db98784be" x="71.816727" y="314.968" style="fill: #9467bd; stroke: #9467bd; stroke-linejoin: miter"/>
     <use xlink:href="#m4db98784be" x="136.812632" y="176.745458" style="fill: #9467bd; stroke: #9467bd; stroke-linejoin: miter"/>
     <use xlink:href="#m4db98784be" x="201.808537" y="167.621502" style="fill: #9467bd; stroke: #9467bd; stroke-linejoin: miter"/>
     <use xlink:href="#m4db98784be" x="266.804442" y="162.671297" style="fill: #9467bd; stroke: #9467bd; stroke-linejoin: miter"/>
     <use xlink:href="#m4db98784be" x="331.800347" y="158.147054" style="fill: #9467bd; stroke: #9467bd; stroke-linejoin: miter"/>
    </g>
   </g>
   <g id="line2d_34">
    <path d="M 71.816727 314.968 
L 73.116645 314.968 
L 73.441625 231.249828 
L 73.766604 244.19779 
L 74.091584 246.010668 
L 74.416563 245.750418 
L 74.741543 242.901467 
L 75.066523 241.783551 
L 75.391502 241.900187 
L 76.041461 239.556426 
L 76.366441 239.481734 
L 76.69142 237.888303 
L 77.0164 233.62868 
L 77.341379 232.32375 
L 77.666359 231.739649 
L 77.991338 229.569541 
L 78.316318 228.935117 
L 78.641297 228.642836 
L 78.966277 228.789084 
L 79.291256 228.014653 
L 79.616236 227.838122 
L 79.941215 224.870846 
L 80.266195 224.584196 
L 80.916154 223.259214 
L 81.241133 221.844676 
L 81.566113 221.563862 
L 81.891093 221.564891 
L 82.216072 221.044074 
L 82.866031 220.994615 
L 83.84097 219.818018 
L 84.165949 219.630706 
L 84.490929 219.600478 
L 84.815908 219.421226 
L 85.465867 218.552222 
L 85.790847 217.581648 
L 86.765785 217.138677 
L 87.415744 216.602723 
L 87.740724 216.596453 
L 88.390683 215.151462 
L 89.040642 215.113195 
L 89.365622 214.226975 
L 90.015581 214.150148 
L 90.66554 212.819473 
L 90.990519 212.649062 
L 91.315499 212.344054 
L 91.640478 212.326633 
L 91.965458 211.81778 
L 93.265376 211.474116 
L 93.590355 211.151815 
L 93.915335 210.665392 
L 94.240314 209.859668 
L 94.565294 208.009295 
L 95.215253 207.806196 
L 95.540233 204.889355 
L 95.865212 204.814275 
L 96.190192 204.92144 
L 96.515171 204.61842 
L 97.16513 204.564651 
L 97.49011 204.602005 
L 97.815089 204.495555 
L 98.140069 204.143911 
L 98.465048 189.488599 
L 98.790028 189.396709 
L 99.115007 189.473368 
L 99.764966 190.400025 
L 100.089946 189.182826 
L 100.739905 189.686273 
L 101.064885 189.944906 
L 101.389864 189.59336 
L 102.039823 190.384388 
L 102.364803 190.688884 
L 103.014762 190.898305 
L 103.664721 191.344515 
L 103.9897 190.998768 
L 104.639659 191.406149 
L 105.289618 191.282888 
L 105.939577 191.726559 
L 106.264557 191.826218 
L 106.589536 191.780684 
L 106.914516 191.933515 
L 107.889455 192.04803 
L 108.214434 191.466522 
L 108.539414 191.422777 
L 109.839332 191.671044 
L 110.164311 191.550482 
L 110.489291 181.169788 
L 111.464229 181.773789 
L 112.114188 182.302444 
L 112.764147 182.650384 
L 114.064066 183.323149 
L 114.389045 183.166602 
L 115.363984 183.441539 
L 116.663902 184.137744 
L 117.63884 184.487293 
L 118.288799 184.545439 
L 118.613779 184.702188 
L 118.938758 184.541255 
L 119.263738 184.049619 
L 119.588717 184.117263 
L 120.238676 183.860503 
L 121.538595 184.217244 
L 122.188554 184.087247 
L 122.838513 184.362819 
L 123.163492 184.113007 
L 124.46341 184.345684 
L 124.78839 183.387516 
L 125.438349 183.481155 
L 126.413287 183.824012 
L 129.013124 184.184873 
L 129.338103 183.8411 
L 130.313042 183.825478 
L 131.61296 184.183095 
L 132.587898 184.341033 
L 134.862755 184.764779 
L 135.512714 184.738073 
L 135.837694 184.53568 
L 137.462591 184.880177 
L 137.787571 184.714646 
L 138.43753 184.821241 
L 138.762509 184.443412 
L 139.087489 184.352724 
L 139.412468 183.988483 
L 140.712387 184.081708 
L 141.687325 184.083598 
L 142.662264 184.163909 
L 142.987243 183.992279 
L 143.312223 183.491782 
L 143.962182 183.582516 
L 144.287161 182.44048 
L 145.2621 182.464803 
L 145.587079 182.345878 
L 146.562018 182.473295 
L 147.211977 182.486224 
L 148.836875 182.528218 
L 149.161854 182.023335 
L 149.486834 181.864584 
L 150.136793 181.916064 
L 150.461772 180.342357 
L 150.786752 180.178391 
L 152.08667 180.375994 
L 152.411649 180.268236 
L 152.736629 180.331855 
L 153.061609 175.298441 
L 154.361527 175.40936 
L 155.011486 175.542301 
L 155.336465 89.690837 
L 155.661445 89.877815 
L 159.561199 94.887149 
L 161.186097 96.845484 
L 164.435892 100.642554 
L 166.710749 103.059191 
L 167.035728 102.858614 
L 167.360708 103.185315 
L 167.685687 93.694683 
L 170.285523 97.455591 
L 171.260462 98.559464 
L 174.510257 102.288044 
L 174.835237 102.323813 
L 176.460134 104.096904 
L 182.309766 109.055638 
L 182.959725 109.386574 
L 183.934663 110.18814 
L 184.584622 110.566011 
L 185.884541 111.511583 
L 186.20952 111.240864 
L 186.5345 111.505336 
L 186.859479 111.551583 
L 188.484377 112.769114 
L 189.784295 113.680936 
L 190.109274 112.548184 
L 191.409192 113.497229 
L 192.709111 114.325231 
L 193.35907 114.506093 
L 193.684049 113.841275 
L 194.658988 114.540925 
L 194.983967 113.308392 
L 195.633926 113.694853 
L 196.283885 114.062706 
L 196.933844 114.30835 
L 198.883722 115.466678 
L 200.508619 116.465706 
L 202.133517 117.352674 
L 202.458496 117.376869 
L 205.058333 118.860287 
L 205.383312 119.065558 
L 205.708292 118.112355 
L 206.68323 118.629386 
L 207.333189 118.999214 
L 207.658169 118.815365 
L 208.308128 119.150885 
L 208.633107 119.136712 
L 209.608046 119.613622 
L 210.258005 119.814483 
L 210.582984 119.255311 
L 211.557923 119.699946 
L 214.157759 120.992687 
L 217.732534 122.392907 
L 219.357432 122.986269 
L 221.957268 124.073146 
L 227.48192 125.947928 
L 227.806899 125.944945 
L 230.081756 126.634962 
L 230.731715 126.758445 
L 231.381674 126.882781 
L 232.681592 127.386281 
L 233.006572 127.346122 
L 234.30649 127.807471 
L 235.606408 128.233486 
L 236.581346 128.571087 
L 236.906326 128.502364 
L 237.881265 128.713909 
L 238.531224 128.841164 
L 240.156121 129.271635 
L 241.781019 129.664087 
L 242.105998 129.603237 
L 243.730896 130.01498 
L 245.030814 130.385334 
L 246.655712 130.728273 
L 248.280609 131.164609 
L 249.255548 131.343139 
L 249.580527 131.049359 
L 254.45522 132.515858 
L 255.430159 132.727683 
L 257.380036 133.181981 
L 266.154483 135.07431 
L 267.454401 135.339916 
L 269.404278 135.722844 
L 274.278971 136.327963 
L 277.203787 136.921423 
L 280.453582 137.513357 
L 282.728439 137.960816 
L 283.378398 138.07183 
L 283.703378 137.914029 
L 285.978234 138.34895 
L 292.152845 139.471084 
L 293.777743 139.748775 
L 294.102722 139.798426 
L 294.427702 139.651131 
L 296.0526 139.854791 
L 299.627374 140.279239 
L 299.952354 140.123772 
L 300.277333 140.173284 
L 300.602313 137.862167 
L 303.527129 138.335299 
L 306.126965 138.784287 
L 306.776924 138.813897 
L 308.726801 139.119814 
L 309.051781 138.268768 
L 316.851289 139.394169 
L 318.151207 139.632441 
L 318.476187 139.577087 
L 320.101084 139.865337 
L 320.426064 139.840779 
L 320.751043 139.553534 
L 324.325818 140.085303 
L 324.650798 138.842047 
L 326.600675 139.354264 
L 327.900593 139.557378 
L 329.200511 139.78642 
L 334.400183 140.796053 
L 334.725163 139.986822 
L 335.050143 140.051087 
L 335.375122 135.675663 
L 338.624917 136.250929 
L 338.949897 136.148759 
L 341.224753 136.457028 
L 341.549733 136.327703 
L 341.874713 136.384084 
L 342.199692 136.2683 
L 342.849651 136.307049 
L 343.49961 136.320993 
L 347.724344 136.985084 
L 348.049324 136.856663 
L 350.64916 137.185593 
L 350.974139 137.078563 
L 352.924016 137.316817 
L 357.14875 137.893401 
L 361.048505 138.441883 
L 363.323361 138.738007 
L 365.273238 138.926959 
L 373.722706 139.466841 
L 374.047686 138.617415 
L 376.647522 138.96294 
L 376.972501 139.015581 
L 377.62246 138.963972 
L 381.522215 139.424294 
L 381.847194 138.973165 
L 383.147112 139.090232 
L 383.472092 139.089421 
L 383.797071 138.365785 
L 386.396907 138.661786 
L 391.59658 139.24958 
L 395.171355 139.346898 
L 396.471273 139.446198 
L 396.471273 139.446198 
" clip-path="url(#p6e65ed336c)" style="fill: none; stroke: #8c564b; stroke-width: 2; stroke-linecap: square"/>
    <defs>
     <path id="m97bc351627" d="M -0 4.242641 
L 2.545584 0 
L 0 -4.242641 
L -2.545584 -0 
z
" style="stroke: #8c564b; stroke-linejoin: miter"/>
    </defs>
    <g clip-path="url(#p6e65ed336c)">
     <use xlink:href="#m97bc351627" x="71.816727" y="314.968" style="fill: #8c564b; stroke: #8c564b; stroke-linejoin: miter"/>
     <use xlink:href="#m97bc351627" x="136.812632" y="184.768878" style="fill: #8c564b; stroke: #8c564b; stroke-linejoin: miter"/>
     <use xlink:href="#m97bc351627" x="201.808537" y="117.214008" style="fill: #8c564b; stroke: #8c564b; stroke-linejoin: miter"/>
     <use xlink:href="#m97bc351627" x="266.804442" y="135.196667" style="fill: #8c564b; stroke: #8c564b; stroke-linejoin: miter"/>
     <use xlink:href="#m97bc351627" x="331.800347" y="140.310035" style="fill: #8c564b; stroke: #8c564b; stroke-linejoin: miter"/>
    </g>
   </g>
   <g id="line2d_35">
    <path d="M 71.816727 314.968 
L 73.116645 314.968 
L 73.441625 296.008005 
L 73.766604 299.492 
L 75.066523 302.042383 
L 75.391502 302.398063 
L 76.041461 302.8157 
L 76.366441 302.490917 
L 76.69142 301.442711 
L 77.991338 301.759105 
L 78.316318 301.014813 
L 78.641297 300.782189 
L 80.591174 301.062322 
L 80.916154 300.705528 
L 81.891093 300.837541 
L 82.866031 300.986725 
L 83.84097 300.977171 
L 85.140888 301.159048 
L 86.115826 301.105056 
L 86.440806 301.129021 
L 86.765785 300.923478 
L 90.015581 301.072913 
L 91.315499 300.723036 
L 94.565294 300.813872 
L 95.215253 300.710994 
L 97.16513 300.824449 
L 99.439987 300.849802 
L 107.239495 300.696112 
L 107.564475 299.913628 
L 108.214434 299.863245 
L 117.63884 300.01602 
L 120.238676 299.616293 
L 121.213615 299.652214 
L 121.863574 299.5457 
L 140.712387 299.23445 
L 141.037366 299.092937 
L 148.511895 298.988288 
L 151.436711 298.924558 
L 153.711568 298.886686 
L 159.886179 298.853914 
L 168.010667 298.720378 
L 171.585441 298.688665 
L 171.910421 298.499005 
L 173.860298 298.430983 
L 181.009848 298.404112 
L 183.609684 298.365887 
L 188.159397 298.325709 
L 188.484377 298.180939 
L 190.434254 298.148714 
L 217.407554 297.834872 
L 218.057514 297.680629 
L 239.506162 297.599788 
L 240.156121 297.526692 
L 246.980691 297.460615 
L 254.45522 297.36205 
L 265.504524 297.251534 
L 266.804442 297.218553 
L 273.629012 297.206921 
L 285.653255 297.166369 
L 300.602313 297.072276 
L 301.577251 297.027689 
L 309.70174 297.013769 
L 312.951535 296.976499 
L 316.52631 296.977634 
L 316.851289 296.840926 
L 322.375941 296.760906 
L 329.200511 296.751833 
L 329.85047 296.642874 
L 331.800347 296.608691 
L 344.149569 296.576231 
L 344.799528 296.497905 
L 349.674221 296.447947 
L 361.698464 296.358525 
L 366.248177 296.256139 
L 373.397726 296.169402 
L 377.94744 296.149764 
L 396.471273 296.0542 
L 396.471273 296.0542 
" clip-path="url(#p6e65ed336c)" style="fill: none; stroke: #e377c2; stroke-width: 2; stroke-linecap: square"/>
    <defs>
     <path id="m33099d4eea" d="M 0 0 
L 0 3 
M 0 0 
L 2.4 -1.5 
M 0 0 
L -2.4 -1.5 
" style="stroke: #e377c2"/>
    </defs>
    <g clip-path="url(#p6e65ed336c)">
     <use xlink:href="#m33099d4eea" x="71.816727" y="314.968" style="fill: #e377c2; stroke: #e377c2"/>
     <use xlink:href="#m33099d4eea" x="136.812632" y="299.346717" style="fill: #e377c2; stroke: #e377c2"/>
     <use xlink:href="#m33099d4eea" x="201.808537" y="298.097552" style="fill: #e377c2; stroke: #e377c2"/>
     <use xlink:href="#m33099d4eea" x="266.804442" y="297.218553" style="fill: #e377c2; stroke: #e377c2"/>
     <use xlink:href="#m33099d4eea" x="331.800347" y="296.608691" style="fill: #e377c2; stroke: #e377c2"/>
    </g>
   </g>
   <g id="patch_3">
    <path d="M 55.584 327.064 
L 55.584 60.952 
" style="fill: none; stroke: #000000; stroke-width: 0.8; stroke-linejoin: miter; stroke-linecap: square"/>
   </g>
   <g id="patch_4">
    <path d="M 412.704 327.064 
L 412.704 60.952 
" style="fill: none; stroke: #000000; stroke-width: 0.8; stroke-linejoin: miter; stroke-linecap: square"/>
   </g>
   <g id="patch_5">
    <path d="M 55.584 327.064 
L 412.704 327.064 
" style="fill: none; stroke: #000000; stroke-width: 0.8; stroke-linejoin: miter; stroke-linecap: square"/>
   </g>
   <g id="patch_6">
    <path d="M 55.584 60.952 
L 412.704 60.952 
" style="fill: none; stroke: #000000; stroke-width: 0.8; stroke-linejoin: miter; stroke-linecap: square"/>
   </g>
   <g id="legend_1">
    <g id="patch_7">
     <path d="M 44.554313 54.278125 
L 412.213687 54.278125 
Q 414.213687 54.278125 414.213687 52.278125 
L 414.213687 9.2 
Q 414.213687 7.2 412.213687 7.2 
L 44.554313 7.2 
Q 42.554313 7.2 42.554313 9.2 
L 42.554313 52.278125 
Q 42.554313 54.278125 44.554313 54.278125 
z
" style="fill: #ffffff; opacity: 0.8; stroke: #cccccc; stroke-linejoin: miter"/>
    </g>
    <g id="line2d_36">
     <path d="M 46.554313 15.298437 
L 56.554313 15.298437 
L 66.554313 15.298437 
" style="fill: none; stroke: #1f77b4; stroke-width: 2; stroke-linecap: square"/>
     <g>
      <use xlink:href="#m478ccf7f53" x="56.554313" y="15.298437" style="fill: #1f77b4; stroke: #1f77b4"/>
     </g>
    </g>
    <g id="text_15">
     <!-- $\kappa$ = 0.02 -->
     <g transform="translate(74.554313 18.798437) scale(0.1 -0.1)">
      <defs>
       <path id="DejaVuSans-Oblique-3ba" d="M 938 3500 
L 1531 3500 
L 1247 2047 
L 3041 3500 
L 3741 3500 
L 2106 2181 
L 3275 0 
L 2572 0 
L 1628 1806 
L 1122 1403 
L 850 0 
L 256 0 
L 938 3500 
z
" transform="scale(0.015625)"/>
       <path id="DejaVuSans-20" transform="scale(0.015625)"/>
       <path id="DejaVuSans-3d" d="M 678 2906 
L 4684 2906 
L 4684 2381 
L 678 2381 
L 678 2906 
z
M 678 1631 
L 4684 1631 
L 4684 1100 
L 678 1100 
L 678 1631 
z
" transform="scale(0.015625)"/>
       <path id="DejaVuSans-2e" d="M 684 794 
L 1344 794 
L 1344 0 
L 684 0 
L 684 794 
z
" transform="scale(0.015625)"/>
      </defs>
      <use xlink:href="#DejaVuSans-Oblique-3ba" transform="translate(0 0.78125)"/>
      <use xlink:href="#DejaVuSans-20" transform="translate(58.935547 0.78125)"/>
      <use xlink:href="#DejaVuSans-3d" transform="translate(90.722656 0.78125)"/>
      <use xlink:href="#DejaVuSans-20" transform="translate(174.511719 0.78125)"/>
      <use xlink:href="#DejaVuSans-30" transform="translate(206.298828 0.78125)"/>
      <use xlink:href="#DejaVuSans-2e" transform="translate(269.921875 0.78125)"/>
      <use xlink:href="#DejaVuSans-30" transform="translate(301.708984 0.78125)"/>
      <use xlink:href="#DejaVuSans-32" transform="translate(365.332031 0.78125)"/>
     </g>
    </g>
    <g id="line2d_37">
     <path d="M 46.554313 29.978125 
L 56.554313 29.978125 
L 66.554313 29.978125 
" style="fill: none; stroke: #ff7f0e; stroke-width: 2; stroke-linecap: square"/>
     <g>
      <use xlink:href="#m3690c161ae" x="56.554313" y="29.978125" style="fill: #ff7f0e; stroke: #ff7f0e; stroke-linejoin: miter"/>
     </g>
    </g>
    <g id="text_16">
     <!-- Constant-edge ($\alpha$ = 0.333) -->
     <g transform="translate(74.554313 33.478125) scale(0.1 -0.1)">
      <defs>
       <path id="DejaVuSans-43" d="M 4122 4306 
L 4122 3641 
Q 3803 3938 3442 4084 
Q 3081 4231 2675 4231 
Q 1875 4231 1450 3742 
Q 1025 3253 1025 2328 
Q 1025 1406 1450 917 
Q 1875 428 2675 428 
Q 3081 428 3442 575 
Q 3803 722 4122 1019 
L 4122 359 
Q 3791 134 3420 21 
Q 3050 -91 2638 -91 
Q 1578 -91 968 557 
Q 359 1206 359 2328 
Q 359 3453 968 4101 
Q 1578 4750 2638 4750 
Q 3056 4750 3426 4639 
Q 3797 4528 4122 4306 
z
" transform="scale(0.015625)"/>
       <path id="DejaVuSans-6f" d="M 1959 3097 
Q 1497 3097 1228 2736 
Q 959 2375 959 1747 
Q 959 1119 1226 758 
Q 1494 397 1959 397 
Q 2419 397 2687 759 
Q 2956 1122 2956 1747 
Q 2956 2369 2687 2733 
Q 2419 3097 1959 3097 
z
M 1959 3584 
Q 2709 3584 3137 3096 
Q 3566 2609 3566 1747 
Q 3566 888 3137 398 
Q 2709 -91 1959 -91 
Q 1206 -91 779 398 
Q 353 888 353 1747 
Q 353 2609 779 3096 
Q 1206 3584 1959 3584 
z
" transform="scale(0.015625)"/>
       <path id="DejaVuSans-6e" d="M 3513 2113 
L 3513 0 
L 2938 0 
L 2938 2094 
Q 2938 2591 2744 2837 
Q 2550 3084 2163 3084 
Q 1697 3084 1428 2787 
Q 1159 2491 1159 1978 
L 1159 0 
L 581 0 
L 581 3500 
L 1159 3500 
L 1159 2956 
Q 1366 3272 1645 3428 
Q 1925 3584 2291 3584 
Q 2894 3584 3203 3211 
Q 3513 2838 3513 2113 
z
" transform="scale(0.015625)"/>
       <path id="DejaVuSans-73" d="M 2834 3397 
L 2834 2853 
Q 2591 2978 2328 3040 
Q 2066 3103 1784 3103 
Q 1356 3103 1142 2972 
Q 928 2841 928 2578 
Q 928 2378 1081 2264 
Q 1234 2150 1697 2047 
L 1894 2003 
Q 2506 1872 2764 1633 
Q 3022 1394 3022 966 
Q 3022 478 2636 193 
Q 2250 -91 1575 -91 
Q 1294 -91 989 -36 
Q 684 19 347 128 
L 347 722 
Q 666 556 975 473 
Q 1284 391 1588 391 
Q 1994 391 2212 530 
Q 2431 669 2431 922 
Q 2431 1156 2273 1281 
Q 2116 1406 1581 1522 
L 1381 1569 
Q 847 1681 609 1914 
Q 372 2147 372 2553 
Q 372 3047 722 3315 
Q 1072 3584 1716 3584 
Q 2034 3584 2315 3537 
Q 2597 3491 2834 3397 
z
" transform="scale(0.015625)"/>
       <path id="DejaVuSans-74" d="M 1172 4494 
L 1172 3500 
L 2356 3500 
L 2356 3053 
L 1172 3053 
L 1172 1153 
Q 1172 725 1289 603 
Q 1406 481 1766 481 
L 2356 481 
L 2356 0 
L 1766 0 
Q 1100 0 847 248 
Q 594 497 594 1153 
L 594 3053 
L 172 3053 
L 172 3500 
L 594 3500 
L 594 4494 
L 1172 4494 
z
" transform="scale(0.015625)"/>
       <path id="DejaVuSans-61" d="M 2194 1759 
Q 1497 1759 1228 1600 
Q 959 1441 959 1056 
Q 959 750 1161 570 
Q 1363 391 1709 391 
Q 2188 391 2477 730 
Q 2766 1069 2766 1631 
L 2766 1759 
L 2194 1759 
z
M 3341 1997 
L 3341 0 
L 2766 0 
L 2766 531 
Q 2569 213 2275 61 
Q 1981 -91 1556 -91 
Q 1019 -91 701 211 
Q 384 513 384 1019 
Q 384 1609 779 1909 
Q 1175 2209 1959 2209 
L 2766 2209 
L 2766 2266 
Q 2766 2663 2505 2880 
Q 2244 3097 1772 3097 
Q 1472 3097 1187 3025 
Q 903 2953 641 2809 
L 641 3341 
Q 956 3463 1253 3523 
Q 1550 3584 1831 3584 
Q 2591 3584 2966 3190 
Q 3341 2797 3341 1997 
z
" transform="scale(0.015625)"/>
       <path id="DejaVuSans-2d" d="M 313 2009 
L 1997 2009 
L 1997 1497 
L 313 1497 
L 313 2009 
z
" transform="scale(0.015625)"/>
       <path id="DejaVuSans-65" d="M 3597 1894 
L 3597 1613 
L 953 1613 
Q 991 1019 1311 708 
Q 1631 397 2203 397 
Q 2534 397 2845 478 
Q 3156 559 3463 722 
L 3463 178 
Q 3153 47 2828 -22 
Q 2503 -91 2169 -91 
Q 1331 -91 842 396 
Q 353 884 353 1716 
Q 353 2575 817 3079 
Q 1281 3584 2069 3584 
Q 2775 3584 3186 3129 
Q 3597 2675 3597 1894 
z
M 3022 2063 
Q 3016 2534 2758 2815 
Q 2500 3097 2075 3097 
Q 1594 3097 1305 2825 
Q 1016 2553 972 2059 
L 3022 2063 
z
" transform="scale(0.015625)"/>
       <path id="DejaVuSans-64" d="M 2906 2969 
L 2906 4863 
L 3481 4863 
L 3481 0 
L 2906 0 
L 2906 525 
Q 2725 213 2448 61 
Q 2172 -91 1784 -91 
Q 1150 -91 751 415 
Q 353 922 353 1747 
Q 353 2572 751 3078 
Q 1150 3584 1784 3584 
Q 2172 3584 2448 3432 
Q 2725 3281 2906 2969 
z
M 947 1747 
Q 947 1113 1208 752 
Q 1469 391 1925 391 
Q 2381 391 2643 752 
Q 2906 1113 2906 1747 
Q 2906 2381 2643 2742 
Q 2381 3103 1925 3103 
Q 1469 3103 1208 2742 
Q 947 2381 947 1747 
z
" transform="scale(0.015625)"/>
       <path id="DejaVuSans-67" d="M 2906 1791 
Q 2906 2416 2648 2759 
Q 2391 3103 1925 3103 
Q 1463 3103 1205 2759 
Q 947 2416 947 1791 
Q 947 1169 1205 825 
Q 1463 481 1925 481 
Q 2391 481 2648 825 
Q 2906 1169 2906 1791 
z
M 3481 434 
Q 3481 -459 3084 -895 
Q 2688 -1331 1869 -1331 
Q 1566 -1331 1297 -1286 
Q 1028 -1241 775 -1147 
L 775 -588 
Q 1028 -725 1275 -790 
Q 1522 -856 1778 -856 
Q 2344 -856 2625 -561 
Q 2906 -266 2906 331 
L 2906 616 
Q 2728 306 2450 153 
Q 2172 0 1784 0 
Q 1141 0 747 490 
Q 353 981 353 1791 
Q 353 2603 747 3093 
Q 1141 3584 1784 3584 
Q 2172 3584 2450 3431 
Q 2728 3278 2906 2969 
L 2906 3500 
L 3481 3500 
L 3481 434 
z
" transform="scale(0.015625)"/>
       <path id="DejaVuSans-28" d="M 1984 4856 
Q 1566 4138 1362 3434 
Q 1159 2731 1159 2009 
Q 1159 1288 1364 580 
Q 1569 -128 1984 -844 
L 1484 -844 
Q 1016 -109 783 600 
Q 550 1309 550 2009 
Q 550 2706 781 3412 
Q 1013 4119 1484 4856 
L 1984 4856 
z
" transform="scale(0.015625)"/>
       <path id="DejaVuSans-Oblique-3b1" d="M 2619 1628 
L 2622 2350 
Q 2625 3088 2069 3091 
Q 1653 3094 1394 2747 
Q 1069 2319 959 1747 
Q 825 1059 994 731 
Q 1169 397 1547 397 
Q 1966 397 2319 1063 
L 2619 1628 
z
M 2166 3578 
Q 3141 3594 3128 2584 
Q 3128 2584 3616 3500 
L 4128 3500 
L 3119 1603 
L 3109 919 
Q 3109 766 3194 638 
Q 3291 488 3391 488 
L 3669 488 
L 3575 0 
L 3228 0 
Q 2934 0 2722 263 
Q 2622 394 2619 669 
Q 2416 334 2066 50 
Q 1900 -81 1453 -78 
Q 722 -72 456 397 
Q 184 884 353 1747 
Q 534 2675 1009 3097 
Q 1544 3569 2166 3578 
z
" transform="scale(0.015625)"/>
       <path id="DejaVuSans-33" d="M 2597 2516 
Q 3050 2419 3304 2112 
Q 3559 1806 3559 1356 
Q 3559 666 3084 287 
Q 2609 -91 1734 -91 
Q 1441 -91 1130 -33 
Q 819 25 488 141 
L 488 750 
Q 750 597 1062 519 
Q 1375 441 1716 441 
Q 2309 441 2620 675 
Q 2931 909 2931 1356 
Q 2931 1769 2642 2001 
Q 2353 2234 1838 2234 
L 1294 2234 
L 1294 2753 
L 1863 2753 
Q 2328 2753 2575 2939 
Q 2822 3125 2822 3475 
Q 2822 3834 2567 4026 
Q 2313 4219 1838 4219 
Q 1578 4219 1281 4162 
Q 984 4106 628 3988 
L 628 4550 
Q 988 4650 1302 4700 
Q 1616 4750 1894 4750 
Q 2613 4750 3031 4423 
Q 3450 4097 3450 3541 
Q 3450 3153 3228 2886 
Q 3006 2619 2597 2516 
z
" transform="scale(0.015625)"/>
       <path id="DejaVuSans-29" d="M 513 4856 
L 1013 4856 
Q 1481 4119 1714 3412 
Q 1947 2706 1947 2009 
Q 1947 1309 1714 600 
Q 1481 -109 1013 -844 
L 513 -844 
Q 928 -128 1133 580 
Q 1338 1288 1338 2009 
Q 1338 2731 1133 3434 
Q 928 4138 513 4856 
z
" transform="scale(0.015625)"/>
      </defs>
      <use xlink:href="#DejaVuSans-43" transform="translate(0 0.015625)"/>
      <use xlink:href="#DejaVuSans-6f" transform="translate(69.824219 0.015625)"/>
      <use xlink:href="#DejaVuSans-6e" transform="translate(131.005859 0.015625)"/>
      <use xlink:href="#DejaVuSans-73" transform="translate(194.384766 0.015625)"/>
      <use xlink:href="#DejaVuSans-74" transform="translate(246.484375 0.015625)"/>
      <use xlink:href="#DejaVuSans-61" transform="translate(285.693359 0.015625)"/>
      <use xlink:href="#DejaVuSans-6e" transform="translate(346.972656 0.015625)"/>
      <use xlink:href="#DejaVuSans-74" transform="translate(410.351562 0.015625)"/>
      <use xlink:href="#DejaVuSans-2d" transform="translate(449.560547 0.015625)"/>
      <use xlink:href="#DejaVuSans-65" transform="translate(485.644531 0.015625)"/>
      <use xlink:href="#DejaVuSans-64" transform="translate(547.167969 0.015625)"/>
      <use xlink:href="#DejaVuSans-67" transform="translate(610.644531 0.015625)"/>
      <use xlink:href="#DejaVuSans-65" transform="translate(674.121094 0.015625)"/>
      <use xlink:href="#DejaVuSans-20" transform="translate(735.644531 0.015625)"/>
      <use xlink:href="#DejaVuSans-28" transform="translate(767.431641 0.015625)"/>
      <use xlink:href="#DejaVuSans-Oblique-3b1" transform="translate(806.445312 0.015625)"/>
      <use xlink:href="#DejaVuSans-20" transform="translate(872.363281 0.015625)"/>
      <use xlink:href="#DejaVuSans-3d" transform="translate(904.150391 0.015625)"/>
      <use xlink:href="#DejaVuSans-20" transform="translate(987.939453 0.015625)"/>
      <use xlink:href="#DejaVuSans-30" transform="translate(1019.726562 0.015625)"/>
      <use xlink:href="#DejaVuSans-2e" transform="translate(1083.349609 0.015625)"/>
      <use xlink:href="#DejaVuSans-33" transform="translate(1115.136719 0.015625)"/>
      <use xlink:href="#DejaVuSans-33" transform="translate(1178.759766 0.015625)"/>
      <use xlink:href="#DejaVuSans-33" transform="translate(1242.382812 0.015625)"/>
      <use xlink:href="#DejaVuSans-29" transform="translate(1306.005859 0.015625)"/>
     </g>
    </g>
    <g id="line2d_38">
     <path d="M 46.554313 44.678125 
L 56.554313 44.678125 
L 66.554313 44.678125 
" style="fill: none; stroke: #2ca02c; stroke-width: 2; stroke-linecap: square"/>
     <g>
      <use xlink:href="#m29202b3c80" x="56.554313" y="44.678125" style="fill: #2ca02c; stroke: #2ca02c; stroke-linejoin: miter"/>
     </g>
    </g>
    <g id="text_17">
     <!-- Maximum-degree ($\alpha$ = 0.500) -->
     <g transform="translate(74.554313 48.178125) scale(0.1 -0.1)">
      <defs>
       <path id="DejaVuSans-4d" d="M 628 4666 
L 1569 4666 
L 2759 1491 
L 3956 4666 
L 4897 4666 
L 4897 0 
L 4281 0 
L 4281 4097 
L 3078 897 
L 2444 897 
L 1241 4097 
L 1241 0 
L 628 0 
L 628 4666 
z
" transform="scale(0.015625)"/>
       <path id="DejaVuSans-78" d="M 3513 3500 
L 2247 1797 
L 3578 0 
L 2900 0 
L 1881 1375 
L 863 0 
L 184 0 
L 1544 1831 
L 300 3500 
L 978 3500 
L 1906 2253 
L 2834 3500 
L 3513 3500 
z
" transform="scale(0.015625)"/>
       <path id="DejaVuSans-69" d="M 603 3500 
L 1178 3500 
L 1178 0 
L 603 0 
L 603 3500 
z
M 603 4863 
L 1178 4863 
L 1178 4134 
L 603 4134 
L 603 4863 
z
" transform="scale(0.015625)"/>
       <path id="DejaVuSans-6d" d="M 3328 2828 
Q 3544 3216 3844 3400 
Q 4144 3584 4550 3584 
Q 5097 3584 5394 3201 
Q 5691 2819 5691 2113 
L 5691 0 
L 5113 0 
L 5113 2094 
Q 5113 2597 4934 2840 
Q 4756 3084 4391 3084 
Q 3944 3084 3684 2787 
Q 3425 2491 3425 1978 
L 3425 0 
L 2847 0 
L 2847 2094 
Q 2847 2600 2669 2842 
Q 2491 3084 2119 3084 
Q 1678 3084 1418 2786 
Q 1159 2488 1159 1978 
L 1159 0 
L 581 0 
L 581 3500 
L 1159 3500 
L 1159 2956 
Q 1356 3278 1631 3431 
Q 1906 3584 2284 3584 
Q 2666 3584 2933 3390 
Q 3200 3197 3328 2828 
z
" transform="scale(0.015625)"/>
       <path id="DejaVuSans-75" d="M 544 1381 
L 544 3500 
L 1119 3500 
L 1119 1403 
Q 1119 906 1312 657 
Q 1506 409 1894 409 
Q 2359 409 2629 706 
Q 2900 1003 2900 1516 
L 2900 3500 
L 3475 3500 
L 3475 0 
L 2900 0 
L 2900 538 
Q 2691 219 2414 64 
Q 2138 -91 1772 -91 
Q 1169 -91 856 284 
Q 544 659 544 1381 
z
M 1991 3584 
L 1991 3584 
z
" transform="scale(0.015625)"/>
       <path id="DejaVuSans-72" d="M 2631 2963 
Q 2534 3019 2420 3045 
Q 2306 3072 2169 3072 
Q 1681 3072 1420 2755 
Q 1159 2438 1159 1844 
L 1159 0 
L 581 0 
L 581 3500 
L 1159 3500 
L 1159 2956 
Q 1341 3275 1631 3429 
Q 1922 3584 2338 3584 
Q 2397 3584 2469 3576 
Q 2541 3569 2628 3553 
L 2631 2963 
z
" transform="scale(0.015625)"/>
       <path id="DejaVuSans-35" d="M 691 4666 
L 3169 4666 
L 3169 4134 
L 1269 4134 
L 1269 2991 
Q 1406 3038 1543 3061 
Q 1681 3084 1819 3084 
Q 2600 3084 3056 2656 
Q 3513 2228 3513 1497 
Q 3513 744 3044 326 
Q 2575 -91 1722 -91 
Q 1428 -91 1123 -41 
Q 819 9 494 109 
L 494 744 
Q 775 591 1075 516 
Q 1375 441 1709 441 
Q 2250 441 2565 725 
Q 2881 1009 2881 1497 
Q 2881 1984 2565 2268 
Q 2250 2553 1709 2553 
Q 1456 2553 1204 2497 
Q 953 2441 691 2322 
L 691 4666 
z
" transform="scale(0.015625)"/>
      </defs>
      <use xlink:href="#DejaVuSans-4d" transform="translate(0 0.015625)"/>
      <use xlink:href="#DejaVuSans-61" transform="translate(86.279297 0.015625)"/>
      <use xlink:href="#DejaVuSans-78" transform="translate(147.558594 0.015625)"/>
      <use xlink:href="#DejaVuSans-69" transform="translate(206.738281 0.015625)"/>
      <use xlink:href="#DejaVuSans-6d" transform="translate(234.521484 0.015625)"/>
      <use xlink:href="#DejaVuSans-75" transform="translate(331.933594 0.015625)"/>
      <use xlink:href="#DejaVuSans-6d" transform="translate(395.3125 0.015625)"/>
      <use xlink:href="#DejaVuSans-2d" transform="translate(490.974609 0.015625)"/>
      <use xlink:href="#DejaVuSans-64" transform="translate(527.058594 0.015625)"/>
      <use xlink:href="#DejaVuSans-65" transform="translate(590.535156 0.015625)"/>
      <use xlink:href="#DejaVuSans-67" transform="translate(652.058594 0.015625)"/>
      <use xlink:href="#DejaVuSans-72" transform="translate(715.535156 0.015625)"/>
      <use xlink:href="#DejaVuSans-65" transform="translate(756.648438 0.015625)"/>
      <use xlink:href="#DejaVuSans-65" transform="translate(818.171875 0.015625)"/>
      <use xlink:href="#DejaVuSans-20" transform="translate(879.695312 0.015625)"/>
      <use xlink:href="#DejaVuSans-28" transform="translate(911.482422 0.015625)"/>
      <use xlink:href="#DejaVuSans-Oblique-3b1" transform="translate(950.496094 0.015625)"/>
      <use xlink:href="#DejaVuSans-20" transform="translate(1016.414062 0.015625)"/>
      <use xlink:href="#DejaVuSans-3d" transform="translate(1048.201172 0.015625)"/>
      <use xlink:href="#DejaVuSans-20" transform="translate(1131.990234 0.015625)"/>
      <use xlink:href="#DejaVuSans-30" transform="translate(1163.777344 0.015625)"/>
      <use xlink:href="#DejaVuSans-2e" transform="translate(1227.400391 0.015625)"/>
      <use xlink:href="#DejaVuSans-35" transform="translate(1259.1875 0.015625)"/>
      <use xlink:href="#DejaVuSans-30" transform="translate(1322.810547 0.015625)"/>
      <use xlink:href="#DejaVuSans-30" transform="translate(1386.433594 0.015625)"/>
      <use xlink:href="#DejaVuSans-29" transform="translate(1450.056641 0.015625)"/>
     </g>
    </g>
    <g id="line2d_39">
     <path d="M 243.554313 15.298437 
L 253.554313 15.298437 
L 263.554313 15.298437 
" style="fill: none; stroke: #d62728; stroke-width: 2; stroke-linecap: square"/>
     <g>
      <use xlink:href="#m3eae74dcf2" x="253.554313" y="15.298437" style="fill: #d62728; stroke: #d62728"/>
     </g>
    </g>
    <g id="text_18">
     <!-- Local-degree -->
     <g transform="translate(271.554313 18.798437) scale(0.1 -0.1)">
      <defs>
       <path id="DejaVuSans-4c" d="M 628 4666 
L 1259 4666 
L 1259 531 
L 3531 531 
L 3531 0 
L 628 0 
L 628 4666 
z
" transform="scale(0.015625)"/>
       <path id="DejaVuSans-63" d="M 3122 3366 
L 3122 2828 
Q 2878 2963 2633 3030 
Q 2388 3097 2138 3097 
Q 1578 3097 1268 2742 
Q 959 2388 959 1747 
Q 959 1106 1268 751 
Q 1578 397 2138 397 
Q 2388 397 2633 464 
Q 2878 531 3122 666 
L 3122 134 
Q 2881 22 2623 -34 
Q 2366 -91 2075 -91 
Q 1284 -91 818 406 
Q 353 903 353 1747 
Q 353 2603 823 3093 
Q 1294 3584 2113 3584 
Q 2378 3584 2631 3529 
Q 2884 3475 3122 3366 
z
" transform="scale(0.015625)"/>
       <path id="DejaVuSans-6c" d="M 603 4863 
L 1178 4863 
L 1178 0 
L 603 0 
L 603 4863 
z
" transform="scale(0.015625)"/>
      </defs>
      <use xlink:href="#DejaVuSans-4c"/>
      <use xlink:href="#DejaVuSans-6f" x="53.962891"/>
      <use xlink:href="#DejaVuSans-63" x="115.144531"/>
      <use xlink:href="#DejaVuSans-61" x="170.125"/>
      <use xlink:href="#DejaVuSans-6c" x="231.404297"/>
      <use xlink:href="#DejaVuSans-2d" x="259.1875"/>
      <use xlink:href="#DejaVuSans-64" x="295.271484"/>
      <use xlink:href="#DejaVuSans-65" x="358.748047"/>
      <use xlink:href="#DejaVuSans-67" x="420.271484"/>
      <use xlink:href="#DejaVuSans-72" x="483.748047"/>
      <use xlink:href="#DejaVuSans-65" x="522.611328"/>
      <use xlink:href="#DejaVuSans-65" x="584.134766"/>
     </g>
    </g>
    <g id="line2d_40">
     <path d="M 243.554313 29.976562 
L 253.554313 29.976562 
L 263.554313 29.976562 
" style="fill: none; stroke: #9467bd; stroke-width: 2; stroke-linecap: square"/>
     <g>
      <use xlink:href="#m4db98784be" x="253.554313" y="29.976562" style="fill: #9467bd; stroke: #9467bd; stroke-linejoin: miter"/>
     </g>
    </g>
    <g id="text_19">
     <!-- FMMC -->
     <g transform="translate(271.554313 33.476562) scale(0.1 -0.1)">
      <defs>
       <path id="DejaVuSans-46" d="M 628 4666 
L 3309 4666 
L 3309 4134 
L 1259 4134 
L 1259 2759 
L 3109 2759 
L 3109 2228 
L 1259 2228 
L 1259 0 
L 628 0 
L 628 4666 
z
" transform="scale(0.015625)"/>
      </defs>
      <use xlink:href="#DejaVuSans-46"/>
      <use xlink:href="#DejaVuSans-4d" x="57.519531"/>
      <use xlink:href="#DejaVuSans-4d" x="143.798828"/>
      <use xlink:href="#DejaVuSans-43" x="230.078125"/>
     </g>
    </g>
    <g id="line2d_41">
     <path d="M 356.124625 15.298437 
L 366.124625 15.298437 
L 376.124625 15.298437 
" style="fill: none; stroke: #8c564b; stroke-width: 2; stroke-linecap: square"/>
     <g>
      <use xlink:href="#m97bc351627" x="366.124625" y="15.298437" style="fill: #8c564b; stroke: #8c564b; stroke-linejoin: miter"/>
     </g>
    </g>
    <g id="text_20">
     <!-- FDLA -->
     <g transform="translate(384.124625 18.798437) scale(0.1 -0.1)">
      <defs>
       <path id="DejaVuSans-44" d="M 1259 4147 
L 1259 519 
L 2022 519 
Q 2988 519 3436 956 
Q 3884 1394 3884 2338 
Q 3884 3275 3436 3711 
Q 2988 4147 2022 4147 
L 1259 4147 
z
M 628 4666 
L 1925 4666 
Q 3281 4666 3915 4102 
Q 4550 3538 4550 2338 
Q 4550 1131 3912 565 
Q 3275 0 1925 0 
L 628 0 
L 628 4666 
z
" transform="scale(0.015625)"/>
       <path id="DejaVuSans-41" d="M 2188 4044 
L 1331 1722 
L 3047 1722 
L 2188 4044 
z
M 1831 4666 
L 2547 4666 
L 4325 0 
L 3669 0 
L 3244 1197 
L 1141 1197 
L 716 0 
L 50 0 
L 1831 4666 
z
" transform="scale(0.015625)"/>
      </defs>
      <use xlink:href="#DejaVuSans-46"/>
      <use xlink:href="#DejaVuSans-44" x="57.519531"/>
      <use xlink:href="#DejaVuSans-4c" x="134.521484"/>
      <use xlink:href="#DejaVuSans-41" x="192.484375"/>
     </g>
    </g>
    <g id="line2d_42">
     <path d="M 356.124625 29.976562 
L 366.124625 29.976562 
L 376.124625 29.976562 
" style="fill: none; stroke: #e377c2; stroke-width: 2; stroke-linecap: square"/>
     <g>
      <use xlink:href="#m33099d4eea" x="366.124625" y="29.976562" style="fill: #e377c2; stroke: #e377c2"/>
     </g>
    </g>
    <g id="text_21">
     <!-- OPT -->
     <g transform="translate(384.124625 33.476562) scale(0.1 -0.1)">
      <defs>
       <path id="DejaVuSans-4f" d="M 2522 4238 
Q 1834 4238 1429 3725 
Q 1025 3213 1025 2328 
Q 1025 1447 1429 934 
Q 1834 422 2522 422 
Q 3209 422 3611 934 
Q 4013 1447 4013 2328 
Q 4013 3213 3611 3725 
Q 3209 4238 2522 4238 
z
M 2522 4750 
Q 3503 4750 4090 4092 
Q 4678 3434 4678 2328 
Q 4678 1225 4090 567 
Q 3503 -91 2522 -91 
Q 1538 -91 948 565 
Q 359 1222 359 2328 
Q 359 3434 948 4092 
Q 1538 4750 2522 4750 
z
" transform="scale(0.015625)"/>
       <path id="DejaVuSans-50" d="M 1259 4147 
L 1259 2394 
L 2053 2394 
Q 2494 2394 2734 2622 
Q 2975 2850 2975 3272 
Q 2975 3691 2734 3919 
Q 2494 4147 2053 4147 
L 1259 4147 
z
M 628 4666 
L 2053 4666 
Q 2838 4666 3239 4311 
Q 3641 3956 3641 3272 
Q 3641 2581 3239 2228 
Q 2838 1875 2053 1875 
L 1259 1875 
L 1259 0 
L 628 0 
L 628 4666 
z
" transform="scale(0.015625)"/>
       <path id="DejaVuSans-54" d="M -19 4666 
L 3928 4666 
L 3928 4134 
L 2272 4134 
L 2272 0 
L 1638 0 
L 1638 4134 
L -19 4134 
L -19 4666 
z
" transform="scale(0.015625)"/>
      </defs>
      <use xlink:href="#DejaVuSans-4f"/>
      <use xlink:href="#DejaVuSans-50" x="78.710938"/>
      <use xlink:href="#DejaVuSans-54" x="139.013672"/>
     </g>
    </g>
   </g>
  </g>
  <g id="text_22">
   <!-- Timesteps -->
   <g transform="translate(197.599313 359.128375) scale(0.12 -0.12)">
    <defs>
     <path id="DejaVuSans-70" d="M 1159 525 
L 1159 -1331 
L 581 -1331 
L 581 3500 
L 1159 3500 
L 1159 2969 
Q 1341 3281 1617 3432 
Q 1894 3584 2278 3584 
Q 2916 3584 3314 3078 
Q 3713 2572 3713 1747 
Q 3713 922 3314 415 
Q 2916 -91 2278 -91 
Q 1894 -91 1617 61 
Q 1341 213 1159 525 
z
M 3116 1747 
Q 3116 2381 2855 2742 
Q 2594 3103 2138 3103 
Q 1681 3103 1420 2742 
Q 1159 2381 1159 1747 
Q 1159 1113 1420 752 
Q 1681 391 2138 391 
Q 2594 391 2855 752 
Q 3116 1113 3116 1747 
z
" transform="scale(0.015625)"/>
    </defs>
    <use xlink:href="#DejaVuSans-54"/>
    <use xlink:href="#DejaVuSans-69" x="57.958984"/>
    <use xlink:href="#DejaVuSans-6d" x="85.742188"/>
    <use xlink:href="#DejaVuSans-65" x="183.154297"/>
    <use xlink:href="#DejaVuSans-73" x="244.677734"/>
    <use xlink:href="#DejaVuSans-74" x="296.777344"/>
    <use xlink:href="#DejaVuSans-65" x="335.986328"/>
    <use xlink:href="#DejaVuSans-70" x="397.509766"/>
    <use xlink:href="#DejaVuSans-73" x="460.986328"/>
   </g>
  </g>
  <g id="text_23">
   <!-- Mean estimate error for the best arm -->
   <g transform="translate(16.318125 303.952187) rotate(-90) scale(0.12 -0.12)">
    <defs>
     <path id="DejaVuSans-66" d="M 2375 4863 
L 2375 4384 
L 1825 4384 
Q 1516 4384 1395 4259 
Q 1275 4134 1275 3809 
L 1275 3500 
L 2222 3500 
L 2222 3053 
L 1275 3053 
L 1275 0 
L 697 0 
L 697 3053 
L 147 3053 
L 147 3500 
L 697 3500 
L 697 3744 
Q 697 4328 969 4595 
Q 1241 4863 1831 4863 
L 2375 4863 
z
" transform="scale(0.015625)"/>
     <path id="DejaVuSans-68" d="M 3513 2113 
L 3513 0 
L 2938 0 
L 2938 2094 
Q 2938 2591 2744 2837 
Q 2550 3084 2163 3084 
Q 1697 3084 1428 2787 
Q 1159 2491 1159 1978 
L 1159 0 
L 581 0 
L 581 4863 
L 1159 4863 
L 1159 2956 
Q 1366 3272 1645 3428 
Q 1925 3584 2291 3584 
Q 2894 3584 3203 3211 
Q 3513 2838 3513 2113 
z
" transform="scale(0.015625)"/>
     <path id="DejaVuSans-62" d="M 3116 1747 
Q 3116 2381 2855 2742 
Q 2594 3103 2138 3103 
Q 1681 3103 1420 2742 
Q 1159 2381 1159 1747 
Q 1159 1113 1420 752 
Q 1681 391 2138 391 
Q 2594 391 2855 752 
Q 3116 1113 3116 1747 
z
M 1159 2969 
Q 1341 3281 1617 3432 
Q 1894 3584 2278 3584 
Q 2916 3584 3314 3078 
Q 3713 2572 3713 1747 
Q 3713 922 3314 415 
Q 2916 -91 2278 -91 
Q 1894 -91 1617 61 
Q 1341 213 1159 525 
L 1159 0 
L 581 0 
L 581 4863 
L 1159 4863 
L 1159 2969 
z
" transform="scale(0.015625)"/>
    </defs>
    <use xlink:href="#DejaVuSans-4d"/>
    <use xlink:href="#DejaVuSans-65" x="86.279297"/>
    <use xlink:href="#DejaVuSans-61" x="147.802734"/>
    <use xlink:href="#DejaVuSans-6e" x="209.082031"/>
    <use xlink:href="#DejaVuSans-20" x="272.460938"/>
    <use xlink:href="#DejaVuSans-65" x="304.248047"/>
    <use xlink:href="#DejaVuSans-73" x="365.771484"/>
    <use xlink:href="#DejaVuSans-74" x="417.871094"/>
    <use xlink:href="#DejaVuSans-69" x="457.080078"/>
    <use xlink:href="#DejaVuSans-6d" x="484.863281"/>
    <use xlink:href="#DejaVuSans-61" x="582.275391"/>
    <use xlink:href="#DejaVuSans-74" x="643.554688"/>
    <use xlink:href="#DejaVuSans-65" x="682.763672"/>
    <use xlink:href="#DejaVuSans-20" x="744.287109"/>
    <use xlink:href="#DejaVuSans-65" x="776.074219"/>
    <use xlink:href="#DejaVuSans-72" x="837.597656"/>
    <use xlink:href="#DejaVuSans-72" x="876.960938"/>
    <use xlink:href="#DejaVuSans-6f" x="915.824219"/>
    <use xlink:href="#DejaVuSans-72" x="977.005859"/>
    <use xlink:href="#DejaVuSans-20" x="1018.119141"/>
    <use xlink:href="#DejaVuSans-66" x="1049.90625"/>
    <use xlink:href="#DejaVuSans-6f" x="1085.111328"/>
    <use xlink:href="#DejaVuSans-72" x="1146.292969"/>
    <use xlink:href="#DejaVuSans-20" x="1187.40625"/>
    <use xlink:href="#DejaVuSans-74" x="1219.193359"/>
    <use xlink:href="#DejaVuSans-68" x="1258.402344"/>
    <use xlink:href="#DejaVuSans-65" x="1321.78125"/>
    <use xlink:href="#DejaVuSans-20" x="1383.304688"/>
    <use xlink:href="#DejaVuSans-62" x="1415.091797"/>
    <use xlink:href="#DejaVuSans-65" x="1478.568359"/>
    <use xlink:href="#DejaVuSans-73" x="1540.091797"/>
    <use xlink:href="#DejaVuSans-74" x="1592.191406"/>
    <use xlink:href="#DejaVuSans-20" x="1631.400391"/>
    <use xlink:href="#DejaVuSans-61" x="1663.1875"/>
    <use xlink:href="#DejaVuSans-72" x="1724.466797"/>
    <use xlink:href="#DejaVuSans-6d" x="1763.830078"/>
   </g>
  </g>
 </g>
 <defs>
  <clipPath id="p6e65ed336c">
   <rect x="55.584" y="60.952" width="357.12" height="266.112"/>
  </clipPath>
 </defs>
</svg>
