<?xml version="1.0" encoding="utf-8" standalone="no"?>
<!DOCTYPE svg PUBLIC "-//W3C//DTD SVG 1.1//EN"
  "http://www.w3.org/Graphics/SVG/1.1/DTD/svg11.dtd">
<svg xmlns:xlink="http://www.w3.org/1999/xlink" width="421.811252pt" height="368.824pt" viewBox="0 0 421.811252 368.824" xmlns="http://www.w3.org/2000/svg" version="1.1">
 <metadata>
  <rdf:RDF xmlns:dc="http://purl.org/dc/elements/1.1/" xmlns:cc="http://creativecommons.org/ns#" xmlns:rdf="http://www.w3.org/1999/02/22-rdf-syntax-ns#">
   <cc:Work>
    <dc:type rdf:resource="http://purl.org/dc/dcmitype/StillImage"/>
    <dc:date>2024-06-07T10:11:14.675989</dc:date>
    <dc:format>image/svg+xml</dc:format>
    <dc:creator>
     <cc:Agent>
      <dc:title>Matplotlib v3.9.0, https://matplotlib.org/</dc:title>
     </cc:Agent>
    </dc:creator>
   </cc:Work>
  </rdf:RDF>
 </metadata>
 <defs>
  <style type="text/css">*{stroke-linejoin: round; stroke-linecap: butt}</style>
 </defs>
 <g id="figure_1">
  <g id="patch_1">
   <path d="M 0 368.824 
L 421.811252 368.824 
L 421.811252 0 
L 0 0 
z
" style="fill: #ffffff"/>
  </g>
  <g id="axes_1">
   <g id="patch_2">
    <path d="M 55.584 327.064 
L 412.704 327.064 
L 412.704 60.952 
L 55.584 60.952 
z
" style="fill: #ffffff"/>
   </g>
   <g id="matplotlib.axis_1">
    <g id="xtick_1">
     <g id="line2d_1">
      <path d="M 71.816727 327.064 
L 71.816727 60.952 
" clip-path="url(#pf020db615d)" style="fill: none; stroke: #b0b0b0; stroke-width: 0.8; stroke-linecap: square"/>
     </g>
     <g id="line2d_2">
      <defs>
       <path id="mbda285fe2b" d="M 0 0 
L 0 3.5 
" style="stroke: #000000; stroke-width: 0.8"/>
      </defs>
      <g>
       <use xlink:href="#mbda285fe2b" x="71.816727" y="327.064" style="stroke: #000000; stroke-width: 0.8"/>
      </g>
     </g>
     <g id="text_1">
      <!-- 0 -->
      <g transform="translate(67.362977 344.701813) scale(0.14 -0.14)">
       <defs>
        <path id="DejaVuSans-30" d="M 2034 4250 
Q 1547 4250 1301 3770 
Q 1056 3291 1056 2328 
Q 1056 1369 1301 889 
Q 1547 409 2034 409 
Q 2525 409 2770 889 
Q 3016 1369 3016 2328 
Q 3016 3291 2770 3770 
Q 2525 4250 2034 4250 
z
M 2034 4750 
Q 2819 4750 3233 4129 
Q 3647 3509 3647 2328 
Q 3647 1150 3233 529 
Q 2819 -91 2034 -91 
Q 1250 -91 836 529 
Q 422 1150 422 2328 
Q 422 3509 836 4129 
Q 1250 4750 2034 4750 
z
" transform="scale(0.015625)"/>
       </defs>
       <use xlink:href="#DejaVuSans-30"/>
      </g>
     </g>
    </g>
    <g id="xtick_2">
     <g id="line2d_3">
      <path d="M 136.812632 327.064 
L 136.812632 60.952 
" clip-path="url(#pf020db615d)" style="fill: none; stroke: #b0b0b0; stroke-width: 0.8; stroke-linecap: square"/>
     </g>
     <g id="line2d_4">
      <g>
       <use xlink:href="#mbda285fe2b" x="136.812632" y="327.064" style="stroke: #000000; stroke-width: 0.8"/>
      </g>
     </g>
     <g id="text_2">
      <!-- 200 -->
      <g transform="translate(123.451382 344.701813) scale(0.14 -0.14)">
       <defs>
        <path id="DejaVuSans-32" d="M 1228 531 
L 3431 531 
L 3431 0 
L 469 0 
L 469 531 
Q 828 903 1448 1529 
Q 2069 2156 2228 2338 
Q 2531 2678 2651 2914 
Q 2772 3150 2772 3378 
Q 2772 3750 2511 3984 
Q 2250 4219 1831 4219 
Q 1534 4219 1204 4116 
Q 875 4013 500 3803 
L 500 4441 
Q 881 4594 1212 4672 
Q 1544 4750 1819 4750 
Q 2544 4750 2975 4387 
Q 3406 4025 3406 3419 
Q 3406 3131 3298 2873 
Q 3191 2616 2906 2266 
Q 2828 2175 2409 1742 
Q 1991 1309 1228 531 
z
" transform="scale(0.015625)"/>
       </defs>
       <use xlink:href="#DejaVuSans-32"/>
       <use xlink:href="#DejaVuSans-30" x="63.623047"/>
       <use xlink:href="#DejaVuSans-30" x="127.246094"/>
      </g>
     </g>
    </g>
    <g id="xtick_3">
     <g id="line2d_5">
      <path d="M 201.808537 327.064 
L 201.808537 60.952 
" clip-path="url(#pf020db615d)" style="fill: none; stroke: #b0b0b0; stroke-width: 0.8; stroke-linecap: square"/>
     </g>
     <g id="line2d_6">
      <g>
       <use xlink:href="#mbda285fe2b" x="201.808537" y="327.064" style="stroke: #000000; stroke-width: 0.8"/>
      </g>
     </g>
     <g id="text_3">
      <!-- 400 -->
      <g transform="translate(188.447287 344.701813) scale(0.14 -0.14)">
       <defs>
        <path id="DejaVuSans-34" d="M 2419 4116 
L 825 1625 
L 2419 1625 
L 2419 4116 
z
M 2253 4666 
L 3047 4666 
L 3047 1625 
L 3713 1625 
L 3713 1100 
L 3047 1100 
L 3047 0 
L 2419 0 
L 2419 1100 
L 313 1100 
L 313 1709 
L 2253 4666 
z
" transform="scale(0.015625)"/>
       </defs>
       <use xlink:href="#DejaVuSans-34"/>
       <use xlink:href="#DejaVuSans-30" x="63.623047"/>
       <use xlink:href="#DejaVuSans-30" x="127.246094"/>
      </g>
     </g>
    </g>
    <g id="xtick_4">
     <g id="line2d_7">
      <path d="M 266.804442 327.064 
L 266.804442 60.952 
" clip-path="url(#pf020db615d)" style="fill: none; stroke: #b0b0b0; stroke-width: 0.8; stroke-linecap: square"/>
     </g>
     <g id="line2d_8">
      <g>
       <use xlink:href="#mbda285fe2b" x="266.804442" y="327.064" style="stroke: #000000; stroke-width: 0.8"/>
      </g>
     </g>
     <g id="text_4">
      <!-- 600 -->
      <g transform="translate(253.443192 344.701813) scale(0.14 -0.14)">
       <defs>
        <path id="DejaVuSans-36" d="M 2113 2584 
Q 1688 2584 1439 2293 
Q 1191 2003 1191 1497 
Q 1191 994 1439 701 
Q 1688 409 2113 409 
Q 2538 409 2786 701 
Q 3034 994 3034 1497 
Q 3034 2003 2786 2293 
Q 2538 2584 2113 2584 
z
M 3366 4563 
L 3366 3988 
Q 3128 4100 2886 4159 
Q 2644 4219 2406 4219 
Q 1781 4219 1451 3797 
Q 1122 3375 1075 2522 
Q 1259 2794 1537 2939 
Q 1816 3084 2150 3084 
Q 2853 3084 3261 2657 
Q 3669 2231 3669 1497 
Q 3669 778 3244 343 
Q 2819 -91 2113 -91 
Q 1303 -91 875 529 
Q 447 1150 447 2328 
Q 447 3434 972 4092 
Q 1497 4750 2381 4750 
Q 2619 4750 2861 4703 
Q 3103 4656 3366 4563 
z
" transform="scale(0.015625)"/>
       </defs>
       <use xlink:href="#DejaVuSans-36"/>
       <use xlink:href="#DejaVuSans-30" x="63.623047"/>
       <use xlink:href="#DejaVuSans-30" x="127.246094"/>
      </g>
     </g>
    </g>
    <g id="xtick_5">
     <g id="line2d_9">
      <path d="M 331.800347 327.064 
L 331.800347 60.952 
" clip-path="url(#pf020db615d)" style="fill: none; stroke: #b0b0b0; stroke-width: 0.8; stroke-linecap: square"/>
     </g>
     <g id="line2d_10">
      <g>
       <use xlink:href="#mbda285fe2b" x="331.800347" y="327.064" style="stroke: #000000; stroke-width: 0.8"/>
      </g>
     </g>
     <g id="text_5">
      <!-- 800 -->
      <g transform="translate(318.439097 344.701813) scale(0.14 -0.14)">
       <defs>
        <path id="DejaVuSans-38" d="M 2034 2216 
Q 1584 2216 1326 1975 
Q 1069 1734 1069 1313 
Q 1069 891 1326 650 
Q 1584 409 2034 409 
Q 2484 409 2743 651 
Q 3003 894 3003 1313 
Q 3003 1734 2745 1975 
Q 2488 2216 2034 2216 
z
M 1403 2484 
Q 997 2584 770 2862 
Q 544 3141 544 3541 
Q 544 4100 942 4425 
Q 1341 4750 2034 4750 
Q 2731 4750 3128 4425 
Q 3525 4100 3525 3541 
Q 3525 3141 3298 2862 
Q 3072 2584 2669 2484 
Q 3125 2378 3379 2068 
Q 3634 1759 3634 1313 
Q 3634 634 3220 271 
Q 2806 -91 2034 -91 
Q 1263 -91 848 271 
Q 434 634 434 1313 
Q 434 1759 690 2068 
Q 947 2378 1403 2484 
z
M 1172 3481 
Q 1172 3119 1398 2916 
Q 1625 2713 2034 2713 
Q 2441 2713 2670 2916 
Q 2900 3119 2900 3481 
Q 2900 3844 2670 4047 
Q 2441 4250 2034 4250 
Q 1625 4250 1398 4047 
Q 1172 3844 1172 3481 
z
" transform="scale(0.015625)"/>
       </defs>
       <use xlink:href="#DejaVuSans-38"/>
       <use xlink:href="#DejaVuSans-30" x="63.623047"/>
       <use xlink:href="#DejaVuSans-30" x="127.246094"/>
      </g>
     </g>
    </g>
    <g id="xtick_6">
     <g id="line2d_11">
      <path d="M 396.796252 327.064 
L 396.796252 60.952 
" clip-path="url(#pf020db615d)" style="fill: none; stroke: #b0b0b0; stroke-width: 0.8; stroke-linecap: square"/>
     </g>
     <g id="line2d_12">
      <g>
       <use xlink:href="#mbda285fe2b" x="396.796252" y="327.064" style="stroke: #000000; stroke-width: 0.8"/>
      </g>
     </g>
     <g id="text_6">
      <!-- 1000 -->
      <g transform="translate(378.981252 344.701813) scale(0.14 -0.14)">
       <defs>
        <path id="DejaVuSans-31" d="M 794 531 
L 1825 531 
L 1825 4091 
L 703 3866 
L 703 4441 
L 1819 4666 
L 2450 4666 
L 2450 531 
L 3481 531 
L 3481 0 
L 794 0 
L 794 531 
z
" transform="scale(0.015625)"/>
       </defs>
       <use xlink:href="#DejaVuSans-31"/>
       <use xlink:href="#DejaVuSans-30" x="63.623047"/>
       <use xlink:href="#DejaVuSans-30" x="127.246094"/>
       <use xlink:href="#DejaVuSans-30" x="190.869141"/>
      </g>
     </g>
    </g>
   </g>
   <g id="matplotlib.axis_2">
    <g id="ytick_1">
     <g id="line2d_13">
      <path d="M 55.584 314.968 
L 412.704 314.968 
" clip-path="url(#pf020db615d)" style="fill: none; stroke: #b0b0b0; stroke-width: 0.8; stroke-linecap: square"/>
     </g>
     <g id="line2d_14">
      <defs>
       <path id="ma616d06b2e" d="M 0 0 
L -3.5 0 
" style="stroke: #000000; stroke-width: 0.8"/>
      </defs>
      <g>
       <use xlink:href="#ma616d06b2e" x="55.584" y="314.968" style="stroke: #000000; stroke-width: 0.8"/>
      </g>
     </g>
     <g id="text_7">
      <!-- 0 -->
      <g transform="translate(39.6765 320.286906) scale(0.14 -0.14)">
       <use xlink:href="#DejaVuSans-30"/>
      </g>
     </g>
    </g>
    <g id="ytick_2">
     <g id="line2d_15">
      <path d="M 55.584 264.53089 
L 412.704 264.53089 
" clip-path="url(#pf020db615d)" style="fill: none; stroke: #b0b0b0; stroke-width: 0.8; stroke-linecap: square"/>
     </g>
     <g id="line2d_16">
      <g>
       <use xlink:href="#ma616d06b2e" x="55.584" y="264.53089" style="stroke: #000000; stroke-width: 0.8"/>
      </g>
     </g>
     <g id="text_8">
      <!-- 5 -->
      <g transform="translate(39.6765 269.849796) scale(0.14 -0.14)">
       <defs>
        <path id="DejaVuSans-35" d="M 691 4666 
L 3169 4666 
L 3169 4134 
L 1269 4134 
L 1269 2991 
Q 1406 3038 1543 3061 
Q 1681 3084 1819 3084 
Q 2600 3084 3056 2656 
Q 3513 2228 3513 1497 
Q 3513 744 3044 326 
Q 2575 -91 1722 -91 
Q 1428 -91 1123 -41 
Q 819 9 494 109 
L 494 744 
Q 775 591 1075 516 
Q 1375 441 1709 441 
Q 2250 441 2565 725 
Q 2881 1009 2881 1497 
Q 2881 1984 2565 2268 
Q 2250 2553 1709 2553 
Q 1456 2553 1204 2497 
Q 953 2441 691 2322 
L 691 4666 
z
" transform="scale(0.015625)"/>
       </defs>
       <use xlink:href="#DejaVuSans-35"/>
      </g>
     </g>
    </g>
    <g id="ytick_3">
     <g id="line2d_17">
      <path d="M 55.584 214.093779 
L 412.704 214.093779 
" clip-path="url(#pf020db615d)" style="fill: none; stroke: #b0b0b0; stroke-width: 0.8; stroke-linecap: square"/>
     </g>
     <g id="line2d_18">
      <g>
       <use xlink:href="#ma616d06b2e" x="55.584" y="214.093779" style="stroke: #000000; stroke-width: 0.8"/>
      </g>
     </g>
     <g id="text_9">
      <!-- 10 -->
      <g transform="translate(30.769 219.412685) scale(0.14 -0.14)">
       <use xlink:href="#DejaVuSans-31"/>
       <use xlink:href="#DejaVuSans-30" x="63.623047"/>
      </g>
     </g>
    </g>
    <g id="ytick_4">
     <g id="line2d_19">
      <path d="M 55.584 163.656669 
L 412.704 163.656669 
" clip-path="url(#pf020db615d)" style="fill: none; stroke: #b0b0b0; stroke-width: 0.8; stroke-linecap: square"/>
     </g>
     <g id="line2d_20">
      <g>
       <use xlink:href="#ma616d06b2e" x="55.584" y="163.656669" style="stroke: #000000; stroke-width: 0.8"/>
      </g>
     </g>
     <g id="text_10">
      <!-- 15 -->
      <g transform="translate(30.769 168.975575) scale(0.14 -0.14)">
       <use xlink:href="#DejaVuSans-31"/>
       <use xlink:href="#DejaVuSans-35" x="63.623047"/>
      </g>
     </g>
    </g>
    <g id="ytick_5">
     <g id="line2d_21">
      <path d="M 55.584 113.219558 
L 412.704 113.219558 
" clip-path="url(#pf020db615d)" style="fill: none; stroke: #b0b0b0; stroke-width: 0.8; stroke-linecap: square"/>
     </g>
     <g id="line2d_22">
      <g>
       <use xlink:href="#ma616d06b2e" x="55.584" y="113.219558" style="stroke: #000000; stroke-width: 0.8"/>
      </g>
     </g>
     <g id="text_11">
      <!-- 20 -->
      <g transform="translate(30.769 118.538465) scale(0.14 -0.14)">
       <use xlink:href="#DejaVuSans-32"/>
       <use xlink:href="#DejaVuSans-30" x="63.623047"/>
      </g>
     </g>
    </g>
    <g id="ytick_6">
     <g id="line2d_23">
      <path d="M 55.584 62.782448 
L 412.704 62.782448 
" clip-path="url(#pf020db615d)" style="fill: none; stroke: #b0b0b0; stroke-width: 0.8; stroke-linecap: square"/>
     </g>
     <g id="line2d_24">
      <g>
       <use xlink:href="#ma616d06b2e" x="55.584" y="62.782448" style="stroke: #000000; stroke-width: 0.8"/>
      </g>
     </g>
     <g id="text_12">
      <!-- 25 -->
      <g transform="translate(30.769 68.101354) scale(0.14 -0.14)">
       <use xlink:href="#DejaVuSans-32"/>
       <use xlink:href="#DejaVuSans-35" x="63.623047"/>
      </g>
     </g>
    </g>
   </g>
   <g id="line2d_25">
    <path d="M 71.816727 314.968 
L 73.116645 314.968 
L 73.441625 265.180892 
L 73.766604 171.971088 
L 74.091584 203.43426 
L 74.416563 219.320234 
L 75.066523 233.236259 
L 75.391502 237.706612 
L 75.716482 237.712591 
L 76.041461 230.6257 
L 76.366441 234.658926 
L 76.69142 237.232793 
L 77.0164 237.652652 
L 77.666359 240.181568 
L 77.991338 238.025271 
L 78.316318 239.229741 
L 78.641297 239.983276 
L 78.966277 240.244917 
L 79.291256 240.650365 
L 79.616236 239.045877 
L 79.941215 240.12428 
L 80.266195 240.738978 
L 81.241133 241.116847 
L 81.566113 240.764346 
L 81.891093 241.157647 
L 82.216072 241.16782 
L 82.541052 241.543519 
L 82.866031 238.669255 
L 83.191011 238.87488 
L 83.84097 238.433457 
L 84.165949 238.452729 
L 85.465867 239.640115 
L 86.115826 239.613315 
L 86.765785 240.001146 
L 87.090765 239.483786 
L 87.740724 239.788057 
L 88.065704 239.728827 
L 88.390683 239.840374 
L 88.715663 239.734196 
L 89.040642 239.861163 
L 89.690601 239.646419 
L 90.015581 239.125156 
L 90.66554 239.17804 
L 91.315499 239.018437 
L 91.640478 237.124477 
L 91.965458 236.812886 
L 92.290437 236.07627 
L 93.265376 236.613797 
L 93.590355 233.876681 
L 93.915335 234.080023 
L 94.240314 234.090479 
L 94.890274 234.480897 
L 95.215253 234.214988 
L 96.515171 234.355683 
L 96.840151 234.223124 
L 97.815089 234.238582 
L 98.140069 234.370968 
L 98.465048 234.31023 
L 98.790028 234.403762 
L 99.115007 234.186301 
L 99.439987 234.215391 
L 100.089946 234.404198 
L 100.739905 234.573018 
L 101.064885 234.590157 
L 101.714844 234.462385 
L 102.364803 234.527176 
L 103.014762 234.588536 
L 103.664721 234.232834 
L 104.31468 234.298387 
L 104.964639 234.177933 
L 105.289618 232.728914 
L 105.614598 232.721604 
L 105.939577 231.426505 
L 106.589536 231.3867 
L 107.239495 231.448925 
L 107.889455 231.439999 
L 108.214434 231.087141 
L 109.189373 231.240118 
L 109.514352 231.156725 
L 111.464229 231.297802 
L 113.414106 231.288361 
L 113.739086 231.342317 
L 114.389045 231.137552 
L 116.013943 230.850344 
L 116.338922 230.309661 
L 116.663902 230.278487 
L 116.988881 229.905901 
L 117.63884 229.961507 
L 118.613779 229.669942 
L 118.938758 229.409461 
L 120.888636 229.547875 
L 122.188554 229.680532 
L 123.488472 229.731626 
L 123.813451 229.774563 
L 124.138431 229.656196 
L 124.46341 229.685012 
L 124.78839 228.291843 
L 125.438349 228.245863 
L 127.388226 228.17008 
L 127.713206 228.017588 
L 130.638021 228.002621 
L 130.963001 228.031889 
L 131.937939 227.760979 
L 132.262919 227.806626 
L 132.587898 227.701229 
L 132.912878 227.393855 
L 133.237857 227.240729 
L 134.212796 227.244388 
L 134.537776 226.016628 
L 138.11255 225.670735 
L 138.762509 225.680833 
L 139.412468 225.674189 
L 140.712387 225.700834 
L 143.312223 225.569083 
L 143.637202 225.615853 
L 144.287161 225.456454 
L 145.912059 225.550251 
L 146.237038 225.426193 
L 146.562018 225.093117 
L 147.861936 225.124006 
L 148.186916 224.682861 
L 148.511895 224.450581 
L 150.136793 224.450862 
L 150.461772 224.403364 
L 150.786752 223.58622 
L 152.08667 223.598077 
L 152.736629 223.606883 
L 153.061609 219.262943 
L 154.686506 219.359356 
L 155.336465 219.333825 
L 155.986424 219.361014 
L 156.311404 219.192174 
L 157.936301 219.290349 
L 161.186097 219.522417 
L 161.511076 219.189632 
L 162.810994 219.239025 
L 163.785933 219.285121 
L 164.110912 219.27304 
L 164.435892 218.972437 
L 165.41083 219.007079 
L 166.06079 219.016547 
L 166.385769 219.055075 
L 166.710749 216.850789 
L 168.335646 216.935396 
L 168.985605 216.965399 
L 169.310585 216.819747 
L 171.585441 217.015461 
L 174.185278 217.08521 
L 174.510257 216.930366 
L 178.085032 217.001023 
L 179.38495 217.050552 
L 180.034909 217.037287 
L 181.334827 216.995998 
L 181.984786 216.917712 
L 183.609684 216.940191 
L 184.259643 216.877305 
L 185.884541 216.956705 
L 186.859479 216.874472 
L 189.134336 216.934222 
L 191.734172 216.841693 
L 194.009029 216.807972 
L 194.334008 216.551672 
L 196.283885 216.580386 
L 198.558742 216.493337 
L 198.883722 215.217536 
L 200.18364 215.267379 
L 200.508619 215.155519 
L 201.808537 215.238961 
L 202.133517 215.114854 
L 202.458496 215.13319 
L 202.783476 214.8761 
L 205.708292 214.538865 
L 206.68323 214.587755 
L 207.00821 214.177347 
L 208.308128 214.137569 
L 208.958087 214.007307 
L 209.283066 214.032916 
L 209.608046 213.937961 
L 210.258005 213.969508 
L 210.907964 213.878562 
L 212.532862 213.925497 
L 213.182821 213.92266 
L 213.5078 213.803444 
L 217.082575 213.800305 
L 217.732534 213.797035 
L 218.057514 213.578934 
L 219.032452 213.488528 
L 220.982329 213.51383 
L 222.282247 213.458227 
L 223.907145 213.498534 
L 226.506981 213.460369 
L 226.831961 213.024192 
L 228.781838 213.065112 
L 229.431797 212.945405 
L 230.406735 212.91516 
L 232.356613 212.892763 
L 232.681592 212.691443 
L 233.006572 212.689759 
L 233.331551 212.493912 
L 234.631469 212.518573 
L 234.956449 212.374572 
L 239.506162 212.500531 
L 242.430978 212.384512 
L 245.680773 212.54104 
L 247.305671 212.54778 
L 247.95563 212.546094 
L 248.605589 212.417579 
L 250.230486 212.38628 
L 251.530405 212.444003 
L 253.480282 212.428499 
L 255.105179 212.461576 
L 258.029995 212.47987 
L 258.679954 212.426114 
L 259.004934 212.411086 
L 259.329913 208.588804 
L 262.904688 208.534264 
L 263.554647 208.484113 
L 266.479463 208.52283 
L 269.079299 208.537555 
L 269.404278 208.147879 
L 270.379217 208.144887 
L 270.704197 207.983415 
L 272.329094 208.039356 
L 274.278971 208.084591 
L 275.25391 208.066384 
L 281.7535 208.031927 
L 282.07848 207.80085 
L 283.378398 207.692919 
L 284.028357 207.562299 
L 284.353337 207.425802 
L 286.628193 207.475577 
L 286.953173 207.164862 
L 290.527948 207.115463 
L 290.852927 206.449883 
L 293.452763 206.4961 
L 296.0526 206.384852 
L 297.352518 206.429669 
L 297.677497 206.21081 
L 299.627374 206.379371 
L 300.277333 206.352146 
L 303.202149 206.454465 
L 303.852108 206.339491 
L 305.801985 206.387717 
L 306.126965 206.235754 
L 308.401821 206.314589 
L 309.70174 206.272055 
L 310.026719 206.172481 
L 311.651617 206.148844 
L 314.251453 206.160102 
L 315.226391 206.121133 
L 319.776105 206.237429 
L 322.050962 206.229176 
L 322.375941 205.286259 
L 324.650798 205.249441 
L 329.525491 205.390013 
L 332.775286 205.467709 
L 333.100265 205.258994 
L 335.375122 205.281192 
L 335.700102 205.218878 
L 336.025081 204.222008 
L 343.82459 204.266889 
L 346.749405 204.319599 
L 347.724344 204.316693 
L 348.049324 203.944483 
L 353.573975 203.973598 
L 354.223934 203.879658 
L 354.873894 203.826901 
L 356.498791 203.75325 
L 356.823771 203.555795 
L 358.773648 203.518388 
L 361.698464 203.470547 
L 363.323361 203.415608 
L 363.648341 203.184471 
L 368.198054 203.230218 
L 373.072747 203.275713 
L 376.972501 203.281069 
L 393.871437 203.388135 
L 396.471273 203.380321 
L 396.471273 203.380321 
" clip-path="url(#pf020db615d)" style="fill: none; stroke: #1f77b4; stroke-width: 2; stroke-linecap: square"/>
    <defs>
     <path id="mbfccbe2b30" d="M 0 3 
C 0.795609 3 1.55874 2.683901 2.12132 2.12132 
C 2.683901 1.55874 3 0.795609 3 0 
C 3 -0.795609 2.683901 -1.55874 2.12132 -2.12132 
C 1.55874 -2.683901 0.795609 -3 0 -3 
C -0.795609 -3 -1.55874 -2.683901 -2.12132 -2.12132 
C -2.683901 -1.55874 -3 -0.795609 -3 0 
C -3 0.795609 -2.683901 1.55874 -2.12132 2.12132 
C -1.55874 2.683901 -0.795609 3 0 3 
z
" style="stroke: #1f77b4"/>
    </defs>
    <g clip-path="url(#pf020db615d)">
     <use xlink:href="#mbfccbe2b30" x="71.816727" y="314.968" style="fill: #1f77b4; stroke: #1f77b4"/>
     <use xlink:href="#mbfccbe2b30" x="136.812632" y="225.708737" style="fill: #1f77b4; stroke: #1f77b4"/>
     <use xlink:href="#mbfccbe2b30" x="201.808537" y="215.238961" style="fill: #1f77b4; stroke: #1f77b4"/>
     <use xlink:href="#mbfccbe2b30" x="266.804442" y="208.522755" style="fill: #1f77b4; stroke: #1f77b4"/>
     <use xlink:href="#mbfccbe2b30" x="331.800347" y="205.462161" style="fill: #1f77b4; stroke: #1f77b4"/>
    </g>
   </g>
   <g id="line2d_26">
    <path d="M 71.816727 314.968 
L 73.116645 314.968 
L 73.441625 256.101317 
L 73.766604 255.534068 
L 74.091584 252.761575 
L 74.741543 249.690226 
L 75.066523 249.138805 
L 75.391502 248.83049 
L 75.716482 247.744154 
L 76.041461 244.751233 
L 76.366441 237.250185 
L 76.69142 237.812457 
L 77.0164 230.887155 
L 77.341379 227.979432 
L 77.991338 229.44149 
L 78.316318 229.461181 
L 78.641297 229.051473 
L 79.291256 229.68259 
L 79.616236 229.776618 
L 80.591174 229.237099 
L 81.241133 229.087504 
L 81.566113 228.578909 
L 81.891093 227.234094 
L 82.216072 226.454428 
L 82.866031 226.253395 
L 83.191011 225.544936 
L 83.51599 225.853055 
L 84.490929 225.709697 
L 84.815908 225.379267 
L 85.790847 225.026254 
L 86.115826 224.533133 
L 86.440806 224.279015 
L 86.765785 224.387938 
L 87.090765 223.342495 
L 87.740724 222.104118 
L 88.065704 219.596287 
L 88.390683 219.722529 
L 88.715663 219.174075 
L 89.365622 218.675799 
L 90.015581 218.819464 
L 90.34056 218.811382 
L 90.66554 218.489542 
L 90.990519 218.509539 
L 91.315499 218.068387 
L 91.965458 217.953482 
L 92.290437 217.911941 
L 92.615417 216.800588 
L 93.590355 216.581613 
L 94.240314 216.535174 
L 94.565294 215.985718 
L 94.890274 215.941211 
L 95.215253 214.745925 
L 96.190192 214.086724 
L 96.840151 214.085131 
L 97.16513 213.880869 
L 97.49011 213.925553 
L 97.815089 205.248387 
L 98.140069 204.656037 
L 98.465048 204.441129 
L 99.764966 204.65158 
L 100.089946 204.601766 
L 100.414925 204.38166 
L 101.064885 204.50784 
L 101.389864 203.463371 
L 102.364803 203.639562 
L 103.339741 203.612998 
L 104.639659 203.695783 
L 105.289618 202.977335 
L 106.264557 202.202195 
L 106.589536 202.094145 
L 106.914516 201.836988 
L 107.239495 201.883 
L 107.564475 201.741076 
L 108.214434 201.830228 
L 108.539414 201.751926 
L 108.864393 189.773924 
L 110.81427 190.53436 
L 111.13925 190.499553 
L 111.464229 190.669096 
L 111.789209 190.671337 
L 112.114188 98.939331 
L 113.089127 102.13766 
L 113.739086 104.275131 
L 114.064066 102.17644 
L 115.039004 105.915076 
L 116.988881 111.441896 
L 117.96382 114.03886 
L 118.613779 115.58452 
L 118.938758 115.043896 
L 120.238676 118.194095 
L 120.888636 119.324723 
L 122.513533 122.770207 
L 122.838513 123.332317 
L 123.163492 123.588215 
L 124.46341 126.054567 
L 124.78839 126.423246 
L 125.438349 127.594042 
L 125.763328 127.568066 
L 127.388226 130.203969 
L 128.688144 131.975264 
L 129.013124 131.844869 
L 129.988062 133.147486 
L 130.638021 133.893543 
L 131.28798 134.717138 
L 131.61296 134.963316 
L 131.937939 135.38121 
L 132.262919 135.207986 
L 136.162673 139.825646 
L 142.987243 145.53757 
L 144.287161 146.514038 
L 148.186916 149.379754 
L 148.511895 149.183031 
L 149.486834 149.665739 
L 149.811813 149.005352 
L 155.661445 152.765023 
L 156.311404 153.062664 
L 157.936301 153.897183 
L 158.261281 152.610067 
L 159.236219 153.242414 
L 159.561199 153.467863 
L 159.886179 153.386198 
L 163.135974 155.335299 
L 163.460953 154.927419 
L 167.360708 156.947115 
L 168.010667 157.124482 
L 168.335646 157.242838 
L 168.660626 156.895436 
L 171.910421 158.335039 
L 172.2354 158.286187 
L 175.160216 159.348139 
L 175.485196 158.30847 
L 176.135155 158.537153 
L 176.460134 158.354397 
L 180.034909 159.492153 
L 181.009848 159.817891 
L 181.659807 159.988278 
L 182.309766 160.203136 
L 182.634745 160.153947 
L 183.284704 160.379835 
L 183.609684 159.995927 
L 187.834418 161.124504 
L 188.159397 160.760119 
L 188.484377 160.709934 
L 189.134336 160.903899 
L 189.459315 160.082818 
L 190.109274 160.239647 
L 190.434254 160.278725 
L 190.759233 158.180329 
L 192.384131 158.713959 
L 193.03409 158.767592 
L 193.35907 158.758181 
L 194.009029 158.950677 
L 194.334008 158.53305 
L 195.308947 158.766735 
L 196.933844 159.270333 
L 197.258824 157.52456 
L 198.883722 157.963043 
L 199.208701 157.476323 
L 201.158578 157.978847 
L 201.483558 158.092059 
L 201.808537 154.570058 
L 208.958087 156.338181 
L 209.283066 156.234994 
L 209.608046 155.979878 
L 210.582984 156.234574 
L 210.907964 156.171592 
L 213.5078 156.795049 
L 213.83278 156.663384 
L 214.807718 156.793468 
L 216.107636 157.049297 
L 218.057514 157.466704 
L 221.307309 157.969887 
L 221.632288 157.769548 
L 221.957268 157.263459 
L 227.806899 158.519569 
L 229.106817 158.77215 
L 229.431797 158.842562 
L 229.756776 158.323868 
L 230.406735 158.214787 
L 235.931387 159.118984 
L 237.881265 159.393057 
L 241.13106 159.847158 
L 242.105998 159.92104 
L 243.080937 160.077163 
L 243.405916 159.92194 
L 245.030814 160.122887 
L 246.655712 160.394956 
L 246.980691 159.895113 
L 249.255548 160.216408 
L 249.580527 160.276206 
L 250.555466 160.172204 
L 253.155302 160.464393 
L 253.805261 160.514173 
L 254.130241 160.393784 
L 260.629831 161.241942 
L 260.954811 160.794794 
L 261.929749 160.83197 
L 264.854565 161.180675 
L 268.10436 161.430763 
L 270.704197 161.725387 
L 273.629012 161.779261 
L 273.953992 161.598582 
L 276.553828 161.886825 
L 279.153664 162.111813 
L 279.478644 161.89312 
L 279.803623 161.935478 
L 280.128603 161.771063 
L 282.728439 162.042942 
L 287.603132 162.508316 
L 288.253091 162.503701 
L 290.852927 162.717787 
L 292.152845 162.831313 
L 293.777743 162.952503 
L 294.427702 162.936297 
L 295.72762 163.038716 
L 296.702559 163.167372 
L 297.027538 163.030056 
L 298.327456 163.069152 
L 300.277333 163.160774 
L 302.87717 163.405688 
L 303.852108 163.499757 
L 304.177088 163.261967 
L 310.351699 163.730215 
L 311.651617 163.80381 
L 317.501248 164.251933 
L 326.275695 164.705515 
L 326.600675 163.995593 
L 330.500429 164.173618 
L 331.475368 164.207564 
L 333.100265 164.307592 
L 336.025081 164.469901 
L 338.949897 164.678505 
L 339.274876 164.702748 
L 339.599856 164.604533 
L 343.82459 164.818141 
L 347.399364 165.035207 
L 347.724344 164.930331 
L 349.999201 165.052879 
L 350.974139 165.06648 
L 353.573975 165.185739 
L 355.198873 165.251281 
L 355.523853 164.540076 
L 356.173812 164.583977 
L 356.498791 164.304961 
L 359.748586 164.491254 
L 360.073566 164.00521 
L 360.723525 164.036756 
L 361.048505 73.273357 
L 362.348423 73.386617 
L 365.923197 73.449409 
L 370.472911 73.606911 
L 370.79789 73.477188 
L 374.047686 73.628213 
L 378.597399 73.685724 
L 380.547276 73.715676 
L 384.44703 73.882118 
L 384.77201 73.716421 
L 385.096989 73.048704 
L 394.846375 73.404052 
L 395.171355 73.307604 
L 396.471273 73.354705 
L 396.471273 73.354705 
" clip-path="url(#pf020db615d)" style="fill: none; stroke: #ff7f0e; stroke-width: 2; stroke-linecap: square"/>
    <defs>
     <path id="m326acd1d1e" d="M 0 -3 
L -3 3 
L 3 3 
z
" style="stroke: #ff7f0e; stroke-linejoin: miter"/>
    </defs>
    <g clip-path="url(#pf020db615d)">
     <use xlink:href="#m326acd1d1e" x="71.816727" y="314.968" style="fill: #ff7f0e; stroke: #ff7f0e; stroke-linejoin: miter"/>
     <use xlink:href="#m326acd1d1e" x="136.812632" y="140.425342" style="fill: #ff7f0e; stroke: #ff7f0e; stroke-linejoin: miter"/>
     <use xlink:href="#m326acd1d1e" x="201.808537" y="154.570058" style="fill: #ff7f0e; stroke: #ff7f0e; stroke-linejoin: miter"/>
     <use xlink:href="#m326acd1d1e" x="266.804442" y="161.276631" style="fill: #ff7f0e; stroke: #ff7f0e; stroke-linejoin: miter"/>
     <use xlink:href="#m326acd1d1e" x="331.800347" y="164.207296" style="fill: #ff7f0e; stroke: #ff7f0e; stroke-linejoin: miter"/>
    </g>
   </g>
   <g id="line2d_27">
    <path d="M 71.816727 314.968 
L 73.116645 314.968 
L 73.441625 263.940945 
L 73.766604 270.108183 
L 74.091584 270.190077 
L 74.416563 265.70578 
L 75.066523 262.656432 
L 75.391502 262.607344 
L 76.041461 260.561439 
L 76.366441 259.154405 
L 77.0164 257.776001 
L 77.341379 257.825422 
L 77.666359 256.912022 
L 77.991338 245.090703 
L 78.641297 246.054709 
L 78.966277 246.856362 
L 79.291256 244.691727 
L 79.616236 238.482516 
L 79.941215 238.296649 
L 80.916154 238.643586 
L 81.241133 236.394063 
L 81.566113 237.022496 
L 81.891093 237.161455 
L 82.216072 236.020039 
L 82.541052 236.101254 
L 82.866031 235.809895 
L 83.191011 235.997072 
L 83.51599 235.456985 
L 83.84097 234.696753 
L 84.165949 234.268162 
L 84.490929 232.883956 
L 84.815908 232.539324 
L 86.115826 232.237759 
L 86.765785 230.502788 
L 87.090765 230.574818 
L 87.415744 229.603181 
L 87.740724 229.15749 
L 89.690601 229.722615 
L 90.34056 228.272758 
L 90.66554 228.316796 
L 90.990519 228.106517 
L 91.315499 228.15593 
L 91.640478 224.732225 
L 91.965458 224.359955 
L 92.290437 224.165437 
L 93.265376 224.458351 
L 93.915335 224.264522 
L 94.240314 224.344915 
L 94.890274 224.167956 
L 95.540233 224.337611 
L 96.190192 224.419541 
L 96.515171 224.070583 
L 97.49011 224.170299 
L 97.815089 221.77415 
L 98.140069 221.108891 
L 98.465048 220.939115 
L 99.115007 221.011125 
L 99.439987 220.786113 
L 100.089946 220.837587 
L 100.414925 220.785934 
L 100.739905 220.617876 
L 101.064885 220.720664 
L 102.364803 220.368332 
L 103.014762 220.523494 
L 104.639659 220.306895 
L 104.964639 219.815601 
L 105.289618 219.826246 
L 105.614598 219.578127 
L 106.589536 219.700656 
L 106.914516 219.548856 
L 108.539414 219.695518 
L 109.189373 219.786399 
L 110.81427 219.773272 
L 111.13925 219.128837 
L 112.764147 219.095246 
L 113.739086 218.853074 
L 115.363984 218.824105 
L 116.663902 218.83752 
L 116.988881 218.538698 
L 117.313861 217.584304 
L 117.96382 217.619092 
L 118.938758 217.431292 
L 120.563656 217.363051 
L 121.538595 217.451177 
L 123.163492 217.133632 
L 123.813451 217.068773 
L 124.46341 216.907457 
L 125.113369 216.942323 
L 125.763328 216.845949 
L 126.088308 216.878601 
L 126.413287 216.680785 
L 127.388226 216.671038 
L 128.038185 216.630848 
L 128.363165 216.651133 
L 128.688144 215.416504 
L 130.313042 215.790649 
L 130.963001 215.876381 
L 131.28798 215.447744 
L 131.61296 215.236871 
L 132.912878 215.353659 
L 133.237857 215.200404 
L 139.412468 215.513267 
L 140.062428 214.879029 
L 141.687325 214.703428 
L 142.662264 214.640814 
L 144.287161 214.679731 
L 145.587079 214.715549 
L 146.237038 214.665938 
L 151.436711 214.476435 
L 151.76169 212.935956 
L 153.061609 212.941661 
L 154.036547 212.899053 
L 154.686506 212.931192 
L 155.986424 212.755163 
L 157.286342 212.700729 
L 160.211158 212.691275 
L 160.536138 212.456565 
L 162.810994 212.305942 
L 163.135974 210.807943 
L 163.785933 210.83455 
L 164.110912 210.703504 
L 164.435892 210.706291 
L 164.760871 210.337252 
L 165.73581 210.342161 
L 166.06079 209.055145 
L 166.385769 209.028112 
L 167.360708 208.705561 
L 170.285523 208.707984 
L 171.910421 208.661359 
L 175.485196 208.721224 
L 175.810175 208.510222 
L 176.460134 208.510258 
L 176.785114 207.241218 
L 177.110093 207.263143 
L 177.435073 206.552855 
L 178.734991 206.525203 
L 180.359889 206.560419 
L 181.334827 206.561078 
L 181.659807 206.385801 
L 181.984786 206.42667 
L 182.309766 206.238211 
L 184.259643 206.26642 
L 185.884541 206.232204 
L 186.20952 206.023902 
L 187.834418 206.01544 
L 188.809356 206.045419 
L 189.134336 205.911555 
L 193.684049 206.037522 
L 194.009029 205.896276 
L 197.583803 205.845572 
L 198.558742 205.911164 
L 199.208701 205.812524 
L 200.833599 205.772635 
L 204.083394 205.855114 
L 204.408373 204.630314 
L 206.033271 204.822531 
L 206.68323 204.939782 
L 207.00821 204.791207 
L 208.633107 205.002752 
L 214.807718 205.140939 
L 218.382493 205.09904 
L 220.33237 205.073181 
L 221.957268 205.038876 
L 222.282247 204.760746 
L 226.182002 204.672723 
L 228.456858 204.715347 
L 228.781838 204.248192 
L 230.406735 204.15465 
L 231.381674 204.130525 
L 233.98151 204.157616 
L 234.30649 204.033624 
L 235.606408 203.948516 
L 235.931387 203.693645 
L 237.231305 203.603984 
L 241.456039 203.587206 
L 247.95563 203.442541 
L 248.280609 203.444567 
L 248.605589 203.317532 
L 253.805261 203.369845 
L 254.130241 202.3206 
L 258.354975 202.2178 
L 259.004934 202.127835 
L 259.979872 202.115245 
L 260.304852 202.11447 
L 260.629831 201.984138 
L 263.879627 202.080836 
L 264.204606 198.299037 
L 265.504524 198.301644 
L 267.454401 198.318066 
L 268.754319 198.281485 
L 272.654074 198.343222 
L 277.203787 198.458179 
L 278.178726 198.499278 
L 278.503705 197.88147 
L 279.153664 197.869569 
L 279.478644 197.742048 
L 279.803623 197.757809 
L 280.128603 197.455074 
L 285.328275 197.558116 
L 286.303214 197.535086 
L 286.628193 195.279372 
L 287.278152 195.398365 
L 289.228029 195.453315 
L 290.202968 195.442526 
L 290.527948 195.328897 
L 294.752681 195.41302 
L 295.72762 195.367729 
L 297.677497 195.399716 
L 298.977415 195.407083 
L 300.277333 195.422528 
L 300.927292 195.366897 
L 308.726801 195.423464 
L 311.001658 195.462541 
L 320.426064 195.423785 
L 322.375941 195.393928 
L 323.675859 195.394832 
L 324.000839 195.191258 
L 327.250634 195.135649 
L 328.875532 195.104317 
L 334.075204 195.177744 
L 334.400183 194.845879 
L 338.949897 194.813519 
L 339.599856 194.729212 
L 341.874713 194.691618 
L 342.524672 194.601046 
L 352.599037 194.498973 
L 358.773648 194.556922 
L 376.647522 194.435167 
L 376.972501 194.272504 
L 381.522215 194.30967 
L 391.921559 194.384107 
L 393.871437 194.330833 
L 396.146293 194.269243 
L 396.471273 194.251389 
L 396.471273 194.251389 
" clip-path="url(#pf020db615d)" style="fill: none; stroke: #2ca02c; stroke-width: 2; stroke-linecap: square"/>
    <defs>
     <path id="mc8f1e0703f" d="M -3 3 
L 3 3 
L 3 -3 
L -3 -3 
z
" style="stroke: #2ca02c; stroke-linejoin: miter"/>
    </defs>
    <g clip-path="url(#pf020db615d)">
     <use xlink:href="#mc8f1e0703f" x="71.816727" y="314.968" style="fill: #2ca02c; stroke: #2ca02c; stroke-linejoin: miter"/>
     <use xlink:href="#mc8f1e0703f" x="136.812632" y="215.503758" style="fill: #2ca02c; stroke: #2ca02c; stroke-linejoin: miter"/>
     <use xlink:href="#mc8f1e0703f" x="201.808537" y="205.776904" style="fill: #2ca02c; stroke: #2ca02c; stroke-linejoin: miter"/>
     <use xlink:href="#mc8f1e0703f" x="266.804442" y="198.344802" style="fill: #2ca02c; stroke: #2ca02c; stroke-linejoin: miter"/>
     <use xlink:href="#mc8f1e0703f" x="331.800347" y="195.127385" style="fill: #2ca02c; stroke: #2ca02c; stroke-linejoin: miter"/>
    </g>
   </g>
   <g id="line2d_28">
    <path d="M 71.816727 314.968 
L 73.116645 314.968 
L 73.441625 263.842062 
L 73.766604 266.987951 
L 74.091584 267.281496 
L 74.416563 264.352289 
L 74.741543 263.464192 
L 75.066523 263.182634 
L 75.391502 261.080287 
L 75.716482 260.198166 
L 76.041461 258.339711 
L 76.366441 257.535364 
L 76.69142 257.297065 
L 77.0164 256.557852 
L 77.341379 255.161428 
L 77.991338 254.741815 
L 78.316318 252.044583 
L 78.641297 252.282991 
L 78.966277 252.349986 
L 79.291256 252.041228 
L 79.616236 252.042948 
L 79.941215 250.77633 
L 80.266195 248.853319 
L 81.566113 248.370895 
L 81.891093 247.696803 
L 82.541052 247.61647 
L 82.866031 247.146914 
L 83.191011 247.119171 
L 84.490929 246.180988 
L 84.815908 246.121225 
L 85.140888 245.723875 
L 85.465867 245.688015 
L 85.790847 215.313693 
L 86.115826 215.195412 
L 86.440806 214.723296 
L 87.090765 214.275105 
L 87.740724 214.198977 
L 88.065704 213.683411 
L 88.390683 213.602288 
L 88.715663 209.653223 
L 89.690601 209.216884 
L 90.34056 208.223167 
L 90.66554 208.17188 
L 90.990519 208.234607 
L 92.615417 207.49054 
L 93.590355 207.341751 
L 94.565294 206.808434 
L 95.215253 205.648508 
L 96.190192 204.943453 
L 97.16513 204.658396 
L 98.140069 204.488186 
L 98.465048 204.287218 
L 98.790028 203.935106 
L 99.439987 203.788622 
L 99.764966 202.948691 
L 100.414925 202.401783 
L 101.714844 202.35594 
L 102.039823 201.824139 
L 102.364803 201.725617 
L 102.689782 201.506126 
L 103.664721 201.382066 
L 104.964639 200.971491 
L 105.289618 201.014116 
L 105.939577 200.870092 
L 106.264557 200.547308 
L 106.914516 200.473583 
L 107.239495 199.308613 
L 107.564475 199.214433 
L 107.889455 197.640545 
L 108.214434 197.510748 
L 109.189373 197.413596 
L 111.464229 197.048761 
L 112.114188 197.03594 
L 112.439168 196.094744 
L 113.414106 195.942814 
L 113.739086 195.936132 
L 114.064066 195.668059 
L 114.389045 194.626031 
L 116.338922 194.482754 
L 116.988881 194.435914 
L 117.96382 194.339818 
L 119.588717 194.361349 
L 121.213615 194.166185 
L 122.838513 193.714056 
L 123.488472 193.682574 
L 124.138431 193.591326 
L 125.763328 193.260693 
L 126.413287 192.987605 
L 127.713206 192.909242 
L 128.363165 192.750219 
L 130.638021 192.630788 
L 131.28798 192.495907 
L 133.237857 192.44939 
L 133.562837 192.016544 
L 134.212796 191.999715 
L 134.537776 191.684582 
L 134.862755 191.589409 
L 135.837694 191.572843 
L 136.162673 191.466452 
L 137.137612 191.487959 
L 137.787571 191.328474 
L 138.11255 191.28025 
L 138.762509 190.907688 
L 139.087489 190.888257 
L 139.412468 190.392517 
L 141.362346 190.330309 
L 142.662264 190.299597 
L 143.312223 190.025279 
L 144.612141 189.938177 
L 144.93712 189.528952 
L 145.587079 189.531434 
L 146.237038 189.486721 
L 147.861936 189.49312 
L 149.486834 189.462818 
L 149.811813 189.218164 
L 151.111731 189.145968 
L 151.76169 189.07869 
L 152.411649 189.062133 
L 152.736629 185.408337 
L 153.386588 185.357963 
L 154.036547 185.282345 
L 156.961363 185.21088 
L 158.261281 185.225981 
L 159.236219 185.201098 
L 160.861117 185.013272 
L 162.161035 184.94857 
L 164.760871 184.915129 
L 165.085851 184.628098 
L 167.685687 184.620504 
L 168.335646 184.499646 
L 168.660626 183.518388 
L 169.960544 183.335227 
L 170.285523 183.358903 
L 170.610503 183.267424 
L 170.935482 182.922949 
L 171.260462 182.925707 
L 171.585441 169.714906 
L 172.88536 169.6419 
L 173.210339 169.326033 
L 174.510257 169.298557 
L 174.835237 169.300515 
L 175.160216 169.130971 
L 177.435073 169.137093 
L 178.085032 169.088894 
L 178.734991 169.019118 
L 179.059971 168.816699 
L 181.334827 168.726002 
L 182.309766 168.739519 
L 182.634745 168.461443 
L 186.5345 168.427637 
L 186.859479 168.263845 
L 190.759233 168.118606 
L 191.734172 168.041508 
L 192.059152 167.716116 
L 194.009029 167.783429 
L 194.334008 167.592624 
L 197.908783 167.606432 
L 201.483558 167.488923 
L 202.133517 167.434952 
L 205.058333 167.256591 
L 206.68323 167.024353 
L 207.983148 167.049574 
L 208.308128 166.810864 
L 209.283066 166.798157 
L 211.232943 166.55797 
L 213.83278 166.517108 
L 214.157759 166.162453 
L 215.132698 166.165941 
L 215.782657 166.114653 
L 216.107636 165.4632 
L 218.057514 165.483782 
L 219.682411 165.432397 
L 220.33237 165.336237 
L 220.65735 165.338671 
L 220.982329 165.073202 
L 223.582165 165.063697 
L 223.907145 164.814691 
L 224.557104 164.765885 
L 226.182002 164.724399 
L 227.15694 164.71058 
L 227.48192 164.165522 
L 233.656531 164.139547 
L 235.606408 164.145527 
L 236.581346 164.151819 
L 237.231305 164.053076 
L 239.831142 164.011042 
L 240.156121 163.838698 
L 243.405916 163.736301 
L 246.005753 163.713569 
L 246.330732 163.705374 
L 246.655712 163.104657 
L 248.280609 163.117909 
L 248.605589 162.733799 
L 250.555466 162.763936 
L 250.880446 162.76957 
L 251.205425 162.624828 
L 259.654893 162.570275 
L 259.979872 161.968409 
L 269.079299 162.037044 
L 269.404278 161.748207 
L 269.729258 161.756268 
L 270.054238 161.566531 
L 271.679135 161.550939 
L 272.004115 161.121241 
L 280.453582 161.172592 
L 281.103541 161.080698 
L 286.628193 161.141656 
L 286.953173 158.381916 
L 290.202968 158.386027 
L 293.777743 158.294824 
L 294.102722 158.004296 
L 296.702559 157.882553 
L 297.352518 157.882663 
L 297.677497 157.624984 
L 298.327456 157.545408 
L 298.652436 157.185956 
L 299.302395 157.217575 
L 299.952354 157.171063 
L 301.577251 157.165825 
L 303.202149 157.042407 
L 311.326637 157.043147 
L 312.301576 157.081903 
L 312.626555 156.896082 
L 314.251453 156.849814 
L 315.876351 156.819164 
L 316.20133 156.813854 
L 316.851289 156.64564 
L 317.501248 156.620942 
L 317.826228 156.046912 
L 322.700921 156.086813 
L 323.35088 156.091389 
L 323.675859 155.925794 
L 330.825409 156.057879 
L 346.424426 155.896466 
L 347.074385 155.843411 
L 347.724344 155.776236 
L 352.924016 155.705785 
L 353.898955 155.674254 
L 356.498791 155.700588 
L 356.823771 155.529363 
L 360.073566 155.545365 
L 370.472911 155.535517 
L 373.072747 155.474588 
L 379.897317 155.356619 
L 380.872256 155.328853 
L 382.822133 155.291773 
L 384.122051 155.272019 
L 392.896498 155.234061 
L 393.546457 155.089876 
L 394.196416 155.021759 
L 396.146293 154.918761 
L 396.471273 154.859603 
L 396.471273 154.859603 
" clip-path="url(#pf020db615d)" style="fill: none; stroke: #d62728; stroke-width: 2; stroke-linecap: square"/>
    <defs>
     <path id="mc69932ab24" d="M -3 3 
L 3 -3 
M -3 -3 
L 3 3 
" style="stroke: #d62728"/>
    </defs>
    <g clip-path="url(#pf020db615d)">
     <use xlink:href="#mc69932ab24" x="71.816727" y="314.968" style="fill: #d62728; stroke: #d62728"/>
     <use xlink:href="#mc69932ab24" x="136.812632" y="191.477982" style="fill: #d62728; stroke: #d62728"/>
     <use xlink:href="#mc69932ab24" x="201.808537" y="167.426664" style="fill: #d62728; stroke: #d62728"/>
     <use xlink:href="#mc69932ab24" x="266.804442" y="161.944949" style="fill: #d62728; stroke: #d62728"/>
     <use xlink:href="#mc69932ab24" x="331.800347" y="156.061091" style="fill: #d62728; stroke: #d62728"/>
    </g>
   </g>
   <g id="line2d_29">
    <path d="M 71.816727 314.968 
L 73.116645 314.968 
L 73.441625 239.026149 
L 73.766604 242.928177 
L 74.091584 242.663028 
L 74.416563 239.646787 
L 75.066523 236.738027 
L 75.391502 236.181718 
L 75.716482 236.387646 
L 76.366441 235.008873 
L 77.0164 232.532932 
L 77.341379 231.975572 
L 77.666359 231.093143 
L 77.991338 229.630585 
L 78.316318 229.790675 
L 78.641297 229.499101 
L 78.966277 228.193445 
L 79.291256 227.603873 
L 79.616236 227.822511 
L 79.941215 227.634782 
L 80.266195 226.390665 
L 80.591174 221.893651 
L 80.916154 221.508486 
L 81.241133 221.695342 
L 81.566113 221.565081 
L 81.891093 214.816274 
L 82.216072 215.469645 
L 82.541052 213.761112 
L 82.866031 213.946018 
L 83.191011 212.486391 
L 84.165949 213.568513 
L 84.490929 213.670584 
L 85.140888 212.626715 
L 85.465867 212.82237 
L 86.115826 212.58693 
L 86.440806 212.380198 
L 86.765785 211.150125 
L 87.090765 211.276981 
L 87.415744 211.2769 
L 87.740724 211.491562 
L 88.390683 211.503325 
L 88.715663 211.121748 
L 89.040642 211.20444 
L 89.365622 210.91219 
L 89.690601 210.942365 
L 90.015581 209.997676 
L 90.34056 209.717947 
L 90.990519 209.984281 
L 91.640478 210.086421 
L 91.965458 209.986702 
L 92.615417 210.144701 
L 93.265376 209.509832 
L 93.915335 209.539746 
L 94.240314 209.201684 
L 94.565294 208.611069 
L 94.890274 208.575532 
L 95.215253 208.383214 
L 96.190192 208.396011 
L 96.515171 207.829485 
L 96.840151 207.837208 
L 97.16513 207.655823 
L 97.815089 207.607189 
L 98.140069 207.541058 
L 98.465048 207.304897 
L 98.790028 206.791271 
L 99.439987 206.665997 
L 99.764966 206.305063 
L 100.414925 206.294247 
L 101.064885 205.909125 
L 101.389864 204.234556 
L 101.714844 204.375042 
L 102.689782 204.160396 
L 103.014762 204.295102 
L 103.339741 204.150377 
L 103.9897 204.251484 
L 104.31468 202.991725 
L 104.639659 203.0843 
L 104.964639 202.703554 
L 105.289618 202.677211 
L 105.614598 200.85766 
L 106.264557 201.124669 
L 106.589536 200.471175 
L 106.914516 200.65061 
L 107.239495 200.288078 
L 107.889455 200.524635 
L 108.214434 200.101014 
L 108.864393 200.252057 
L 109.189373 200.159409 
L 109.839332 200.352309 
L 110.164311 200.106859 
L 110.489291 200.202253 
L 111.13925 200.125621 
L 111.789209 200.096615 
L 112.114188 200.18115 
L 112.764147 200.208486 
L 113.739086 200.294491 
L 115.039004 200.345844 
L 115.363984 199.705033 
L 116.013943 199.575857 
L 116.338922 199.673322 
L 116.663902 199.394927 
L 116.988881 197.086907 
L 117.96382 197.243416 
L 118.613779 197.334253 
L 119.263738 197.489114 
L 119.588717 196.871748 
L 119.913697 195.666714 
L 121.538595 195.689034 
L 121.863574 195.0158 
L 122.188554 195.045569 
L 123.163492 194.556749 
L 124.138431 194.579297 
L 124.46341 193.559817 
L 124.78839 193.627021 
L 125.113369 193.453601 
L 126.413287 193.583586 
L 126.738267 191.72081 
L 128.363165 191.587438 
L 128.688144 191.250061 
L 129.338103 191.281073 
L 129.988062 191.315632 
L 131.61296 191.482071 
L 131.937939 189.004279 
L 132.912878 188.98323 
L 133.562837 188.644646 
L 134.212796 188.655519 
L 138.43753 188.885517 
L 138.762509 188.753282 
L 140.712387 188.84652 
L 141.037366 187.824951 
L 141.687325 187.891115 
L 142.662264 187.904107 
L 143.312223 187.964182 
L 143.637202 187.794882 
L 150.786752 187.57563 
L 151.436711 187.595072 
L 151.76169 187.470419 
L 152.411649 187.445776 
L 152.736629 186.798841 
L 153.386588 186.857416 
L 154.361527 186.91509 
L 154.686506 186.938982 
L 155.011486 186.694127 
L 155.661445 186.761652 
L 156.961363 186.593007 
L 157.286342 186.620441 
L 157.611322 186.418227 
L 157.936301 185.83478 
L 159.561199 185.888973 
L 163.785933 186.017969 
L 165.085851 186.055753 
L 165.73581 186.104612 
L 166.06079 185.918976 
L 167.360708 185.880466 
L 168.010667 185.690604 
L 173.210339 185.810003 
L 173.535319 185.651908 
L 174.510257 185.572562 
L 174.835237 184.917034 
L 177.435073 184.945795 
L 177.760052 184.490608 
L 180.684868 184.611662 
L 181.659807 184.600418 
L 181.984786 184.835857 
L 184.909602 184.857641 
L 185.234581 184.501238 
L 188.809356 184.442951 
L 189.459315 184.267474 
L 191.084213 184.306418 
L 191.734172 184.298189 
L 192.384131 183.95924 
L 194.009029 183.940253 
L 198.558742 183.639765 
L 200.833599 183.711493 
L 206.358251 183.846749 
L 206.68323 183.738712 
L 208.308128 183.722692 
L 209.283066 183.717644 
L 209.608046 172.496216 
L 210.258005 172.438529 
L 210.907964 172.343527 
L 215.132698 172.469705 
L 215.457677 172.441289 
L 215.782657 169.709269 
L 219.357432 169.758211 
L 220.982329 169.778855 
L 221.632288 169.699641 
L 223.257186 169.748813 
L 223.582165 169.606986 
L 224.882084 169.596535 
L 225.532043 169.519953 
L 227.806899 169.546876 
L 228.131879 169.26756 
L 229.106817 169.397265 
L 229.431797 168.770653 
L 230.081756 168.767101 
L 231.706654 168.664227 
L 233.656531 168.767322 
L 235.281428 168.733392 
L 242.430978 168.626535 
L 242.755957 168.335177 
L 243.730896 168.28432 
L 246.005753 168.295492 
L 246.330732 168.118155 
L 247.63065 168.094338 
L 247.95563 167.949091 
L 254.130241 168.039909 
L 259.654893 168.070409 
L 262.579708 167.975854 
L 264.854565 167.991949 
L 266.154483 167.959521 
L 269.729258 167.929656 
L 270.054238 167.038976 
L 272.654074 167.052455 
L 274.603951 166.982737 
L 276.553828 166.976657 
L 277.528767 166.942664 
L 278.828685 166.895553 
L 280.453582 166.909695 
L 281.428521 166.790537 
L 283.703378 166.736494 
L 291.177907 166.588271 
L 291.502886 166.329787 
L 294.102722 166.266895 
L 297.677497 166.240901 
L 302.55219 166.170142 
L 303.202149 166.09941 
L 303.527129 166.101949 
L 304.177088 165.911016 
L 308.401821 165.965165 
L 314.576432 165.934725 
L 314.901412 165.210781 
L 317.501248 165.210778 
L 319.451125 165.165713 
L 321.401002 165.106107 
L 323.0259 165.112106 
L 326.275695 165.138772 
L 327.250634 165.114186 
L 336.67504 165.112082 
L 338.299938 165.097066 
L 359.423607 164.886969 
L 359.748586 164.665861 
L 364.2983 164.661412 
L 369.497972 164.628696 
L 370.79789 164.583909 
L 374.697645 164.6171 
L 375.347604 164.503647 
L 376.647522 164.464976 
L 376.972501 160.100499 
L 379.247358 160.033674 
L 380.222296 159.996827 
L 383.797071 159.919458 
L 386.396907 159.892175 
L 388.021805 159.816028 
L 391.2716 159.772687 
L 394.196416 159.759749 
L 395.821314 159.748011 
L 396.471273 159.761147 
L 396.471273 159.761147 
" clip-path="url(#pf020db615d)" style="fill: none; stroke: #9467bd; stroke-width: 2; stroke-linecap: square"/>
    <defs>
     <path id="ma54dd4b409" d="M -0 3 
L 3 -3 
L -3 -3 
z
" style="stroke: #9467bd; stroke-linejoin: miter"/>
    </defs>
    <g clip-path="url(#pf020db615d)">
     <use xlink:href="#ma54dd4b409" x="71.816727" y="314.968" style="fill: #9467bd; stroke: #9467bd; stroke-linejoin: miter"/>
     <use xlink:href="#ma54dd4b409" x="136.812632" y="188.850745" style="fill: #9467bd; stroke: #9467bd; stroke-linejoin: miter"/>
     <use xlink:href="#ma54dd4b409" x="201.808537" y="183.697788" style="fill: #9467bd; stroke: #9467bd; stroke-linejoin: miter"/>
     <use xlink:href="#ma54dd4b409" x="266.804442" y="167.979612" style="fill: #9467bd; stroke: #9467bd; stroke-linejoin: miter"/>
     <use xlink:href="#ma54dd4b409" x="331.800347" y="165.112669" style="fill: #9467bd; stroke: #9467bd; stroke-linejoin: miter"/>
    </g>
   </g>
   <g id="line2d_30">
    <path d="M 71.816727 314.968 
L 73.116645 314.968 
L 73.441625 302.216066 
L 73.766604 299.726799 
L 74.091584 293.638914 
L 74.416563 295.503233 
L 74.741543 296.554429 
L 75.066523 296.323723 
L 75.391502 296.599081 
L 75.716482 295.707862 
L 76.041461 296.180613 
L 76.366441 295.686731 
L 76.69142 295.986836 
L 77.0164 295.981188 
L 77.341379 296.115324 
L 77.666359 295.625646 
L 77.991338 295.9236 
L 78.641297 295.984447 
L 78.966277 295.938063 
L 79.291256 295.406227 
L 79.616236 295.628053 
L 79.941215 295.621673 
L 80.266195 250.124066 
L 80.591174 261.798488 
L 80.916154 263.691495 
L 81.241133 259.075206 
L 81.566113 260.296274 
L 81.891093 260.483601 
L 82.216072 260.460698 
L 82.541052 259.787187 
L 82.866031 259.906364 
L 83.51599 259.591996 
L 84.165949 259.64186 
L 84.490929 259.6512 
L 84.815908 259.311972 
L 85.140888 259.312469 
L 85.465867 258.940897 
L 86.440806 258.918823 
L 87.415744 258.790197 
L 88.390683 258.637462 
L 88.715663 258.687893 
L 89.040642 258.411437 
L 89.690601 258.347096 
L 90.015581 257.915146 
L 90.34056 257.849169 
L 91.315499 257.97576 
L 91.640478 257.860476 
L 92.290437 257.863805 
L 93.590355 257.817692 
L 93.915335 257.732872 
L 94.240314 257.435522 
L 94.565294 257.556456 
L 94.890274 256.758116 
L 95.215253 257.016205 
L 95.865212 256.909551 
L 99.764966 256.816307 
L 100.089946 256.575927 
L 100.414925 256.644263 
L 101.389864 256.52608 
L 102.039823 256.545815 
L 102.364803 256.263476 
L 103.9897 256.337967 
L 104.31468 242.100983 
L 104.639659 246.333166 
L 104.964639 247.007683 
L 105.289618 247.221126 
L 105.939577 247.450537 
L 107.889455 248.124962 
L 108.214434 248.080141 
L 109.189373 248.467314 
L 111.13925 249.01965 
L 114.389045 249.685819 
L 115.039004 249.73023 
L 116.663902 250.038181 
L 117.96382 250.252402 
L 118.613779 250.275758 
L 120.238676 250.51286 
L 120.888636 250.455404 
L 123.163492 250.81978 
L 123.488472 250.384297 
L 123.813451 250.536368 
L 124.138431 250.358827 
L 125.113369 250.529494 
L 125.763328 250.51537 
L 127.388226 250.664586 
L 130.963001 250.913797 
L 132.912878 251.082678 
L 133.237857 250.960873 
L 133.562837 251.014473 
L 133.887817 250.527711 
L 134.537776 250.730856 
L 143.962182 251.207721 
L 146.237038 251.145788 
L 147.211977 251.159091 
L 148.511895 251.204396 
L 150.136793 251.2843 
L 150.461772 247.874869 
L 150.786752 248.860978 
L 151.436711 249.009493 
L 160.211158 249.141165 
L 160.536138 249.042607 
L 160.861117 249.101054 
L 161.186097 248.927728 
L 162.810994 248.959004 
L 164.760871 248.997771 
L 167.685687 249.041075 
L 168.010667 248.794114 
L 168.660626 248.885275 
L 175.485196 248.995421 
L 175.810175 248.814621 
L 180.034909 248.864229 
L 181.009848 248.858604 
L 184.259643 248.859963 
L 184.584622 247.04856 
L 184.909602 247.571547 
L 185.559561 247.666074 
L 186.20952 247.633324 
L 186.859479 247.628716 
L 187.184459 247.353465 
L 188.484377 247.498723 
L 189.134336 247.465287 
L 192.709111 247.53739 
L 194.983967 247.558282 
L 195.308947 247.380008 
L 195.958906 247.459362 
L 197.908783 247.453684 
L 200.18364 247.48527 
L 200.833599 247.438314 
L 203.108455 247.462014 
L 203.433435 240.337524 
L 203.758414 242.399993 
L 204.083394 242.682309 
L 206.358251 242.835036 
L 210.258005 243.027888 
L 217.082575 243.369597 
L 217.732534 243.361611 
L 226.506981 243.667478 
L 229.431797 243.783441 
L 235.281428 243.985682 
L 239.181183 244.078426 
L 243.080937 244.171616 
L 246.005753 244.251198 
L 279.803623 244.583364 
L 280.128603 244.398387 
L 281.103541 244.485391 
L 285.978234 244.574016 
L 286.628193 244.54343 
L 295.077661 244.620673 
L 297.352518 244.618186 
L 298.977415 244.652824 
L 299.302395 244.504734 
L 300.277333 244.577341 
L 303.527129 244.47825 
L 310.026719 244.588043 
L 312.301576 244.598308 
L 321.076023 244.661367 
L 321.401002 243.993705 
L 321.725982 244.192129 
L 323.675859 244.253301 
L 324.325818 244.255123 
L 324.650798 244.126138 
L 325.625736 244.187946 
L 330.825409 244.226628 
L 332.125327 244.217439 
L 333.425245 244.233007 
L 333.750224 244.045261 
L 334.725163 244.126097 
L 339.924835 244.167384 
L 365.923197 244.181112 
L 366.248177 243.837815 
L 366.898136 243.958993 
L 369.172993 243.968289 
L 369.497972 243.769549 
L 370.472911 243.847958 
L 388.996744 243.985272 
L 389.321723 243.392109 
L 389.646703 243.571941 
L 391.2716 243.600404 
L 396.471273 243.650623 
L 396.471273 243.650623 
" clip-path="url(#pf020db615d)" style="fill: none; stroke: #8c564b; stroke-width: 2; stroke-linecap: square"/>
    <defs>
     <path id="mf257113408" d="M -0 4.242641 
L 2.545584 0 
L 0 -4.242641 
L -2.545584 -0 
z
" style="stroke: #8c564b; stroke-linejoin: miter"/>
    </defs>
    <g clip-path="url(#pf020db615d)">
     <use xlink:href="#mf257113408" x="71.816727" y="314.968" style="fill: #8c564b; stroke: #8c564b; stroke-linejoin: miter"/>
     <use xlink:href="#mf257113408" x="136.812632" y="250.910216" style="fill: #8c564b; stroke: #8c564b; stroke-linejoin: miter"/>
     <use xlink:href="#mf257113408" x="201.808537" y="247.435488" style="fill: #8c564b; stroke: #8c564b; stroke-linejoin: miter"/>
     <use xlink:href="#mf257113408" x="266.804442" y="244.437173" style="fill: #8c564b; stroke: #8c564b; stroke-linejoin: miter"/>
     <use xlink:href="#mf257113408" x="331.800347" y="244.206819" style="fill: #8c564b; stroke: #8c564b; stroke-linejoin: miter"/>
    </g>
   </g>
   <g id="patch_3">
    <path d="M 55.584 327.064 
L 55.584 60.952 
" style="fill: none; stroke: #000000; stroke-width: 0.8; stroke-linejoin: miter; stroke-linecap: square"/>
   </g>
   <g id="patch_4">
    <path d="M 412.704 327.064 
L 412.704 60.952 
" style="fill: none; stroke: #000000; stroke-width: 0.8; stroke-linejoin: miter; stroke-linecap: square"/>
   </g>
   <g id="patch_5">
    <path d="M 55.584 327.064 
L 412.704 327.064 
" style="fill: none; stroke: #000000; stroke-width: 0.8; stroke-linejoin: miter; stroke-linecap: square"/>
   </g>
   <g id="patch_6">
    <path d="M 55.584 60.952 
L 412.704 60.952 
" style="fill: none; stroke: #000000; stroke-width: 0.8; stroke-linejoin: miter; stroke-linecap: square"/>
   </g>
   <g id="legend_1">
    <g id="patch_7">
     <path d="M 44.554313 39.6 
L 412.213687 39.6 
Q 414.213687 39.6 414.213687 37.6 
L 414.213687 9.2 
Q 414.213687 7.2 412.213687 7.2 
L 44.554313 7.2 
Q 42.554313 7.2 42.554313 9.2 
L 42.554313 37.6 
Q 42.554313 39.6 44.554313 39.6 
z
" style="fill: #ffffff; opacity: 0.8; stroke: #cccccc; stroke-linejoin: miter"/>
    </g>
    <g id="line2d_31">
     <path d="M 46.554313 15.3 
L 56.554313 15.3 
L 66.554313 15.3 
" style="fill: none; stroke: #1f77b4; stroke-width: 2; stroke-linecap: square"/>
     <g>
      <use xlink:href="#mbfccbe2b30" x="56.554313" y="15.3" style="fill: #1f77b4; stroke: #1f77b4"/>
     </g>
    </g>
    <g id="text_13">
     <!-- Constant-edge ($\alpha$ = 0.333) -->
     <g transform="translate(74.554313 18.8) scale(0.1 -0.1)">
      <defs>
       <path id="DejaVuSans-43" d="M 4122 4306 
L 4122 3641 
Q 3803 3938 3442 4084 
Q 3081 4231 2675 4231 
Q 1875 4231 1450 3742 
Q 1025 3253 1025 2328 
Q 1025 1406 1450 917 
Q 1875 428 2675 428 
Q 3081 428 3442 575 
Q 3803 722 4122 1019 
L 4122 359 
Q 3791 134 3420 21 
Q 3050 -91 2638 -91 
Q 1578 -91 968 557 
Q 359 1206 359 2328 
Q 359 3453 968 4101 
Q 1578 4750 2638 4750 
Q 3056 4750 3426 4639 
Q 3797 4528 4122 4306 
z
" transform="scale(0.015625)"/>
       <path id="DejaVuSans-6f" d="M 1959 3097 
Q 1497 3097 1228 2736 
Q 959 2375 959 1747 
Q 959 1119 1226 758 
Q 1494 397 1959 397 
Q 2419 397 2687 759 
Q 2956 1122 2956 1747 
Q 2956 2369 2687 2733 
Q 2419 3097 1959 3097 
z
M 1959 3584 
Q 2709 3584 3137 3096 
Q 3566 2609 3566 1747 
Q 3566 888 3137 398 
Q 2709 -91 1959 -91 
Q 1206 -91 779 398 
Q 353 888 353 1747 
Q 353 2609 779 3096 
Q 1206 3584 1959 3584 
z
" transform="scale(0.015625)"/>
       <path id="DejaVuSans-6e" d="M 3513 2113 
L 3513 0 
L 2938 0 
L 2938 2094 
Q 2938 2591 2744 2837 
Q 2550 3084 2163 3084 
Q 1697 3084 1428 2787 
Q 1159 2491 1159 1978 
L 1159 0 
L 581 0 
L 581 3500 
L 1159 3500 
L 1159 2956 
Q 1366 3272 1645 3428 
Q 1925 3584 2291 3584 
Q 2894 3584 3203 3211 
Q 3513 2838 3513 2113 
z
" transform="scale(0.015625)"/>
       <path id="DejaVuSans-73" d="M 2834 3397 
L 2834 2853 
Q 2591 2978 2328 3040 
Q 2066 3103 1784 3103 
Q 1356 3103 1142 2972 
Q 928 2841 928 2578 
Q 928 2378 1081 2264 
Q 1234 2150 1697 2047 
L 1894 2003 
Q 2506 1872 2764 1633 
Q 3022 1394 3022 966 
Q 3022 478 2636 193 
Q 2250 -91 1575 -91 
Q 1294 -91 989 -36 
Q 684 19 347 128 
L 347 722 
Q 666 556 975 473 
Q 1284 391 1588 391 
Q 1994 391 2212 530 
Q 2431 669 2431 922 
Q 2431 1156 2273 1281 
Q 2116 1406 1581 1522 
L 1381 1569 
Q 847 1681 609 1914 
Q 372 2147 372 2553 
Q 372 3047 722 3315 
Q 1072 3584 1716 3584 
Q 2034 3584 2315 3537 
Q 2597 3491 2834 3397 
z
" transform="scale(0.015625)"/>
       <path id="DejaVuSans-74" d="M 1172 4494 
L 1172 3500 
L 2356 3500 
L 2356 3053 
L 1172 3053 
L 1172 1153 
Q 1172 725 1289 603 
Q 1406 481 1766 481 
L 2356 481 
L 2356 0 
L 1766 0 
Q 1100 0 847 248 
Q 594 497 594 1153 
L 594 3053 
L 172 3053 
L 172 3500 
L 594 3500 
L 594 4494 
L 1172 4494 
z
" transform="scale(0.015625)"/>
       <path id="DejaVuSans-61" d="M 2194 1759 
Q 1497 1759 1228 1600 
Q 959 1441 959 1056 
Q 959 750 1161 570 
Q 1363 391 1709 391 
Q 2188 391 2477 730 
Q 2766 1069 2766 1631 
L 2766 1759 
L 2194 1759 
z
M 3341 1997 
L 3341 0 
L 2766 0 
L 2766 531 
Q 2569 213 2275 61 
Q 1981 -91 1556 -91 
Q 1019 -91 701 211 
Q 384 513 384 1019 
Q 384 1609 779 1909 
Q 1175 2209 1959 2209 
L 2766 2209 
L 2766 2266 
Q 2766 2663 2505 2880 
Q 2244 3097 1772 3097 
Q 1472 3097 1187 3025 
Q 903 2953 641 2809 
L 641 3341 
Q 956 3463 1253 3523 
Q 1550 3584 1831 3584 
Q 2591 3584 2966 3190 
Q 3341 2797 3341 1997 
z
" transform="scale(0.015625)"/>
       <path id="DejaVuSans-2d" d="M 313 2009 
L 1997 2009 
L 1997 1497 
L 313 1497 
L 313 2009 
z
" transform="scale(0.015625)"/>
       <path id="DejaVuSans-65" d="M 3597 1894 
L 3597 1613 
L 953 1613 
Q 991 1019 1311 708 
Q 1631 397 2203 397 
Q 2534 397 2845 478 
Q 3156 559 3463 722 
L 3463 178 
Q 3153 47 2828 -22 
Q 2503 -91 2169 -91 
Q 1331 -91 842 396 
Q 353 884 353 1716 
Q 353 2575 817 3079 
Q 1281 3584 2069 3584 
Q 2775 3584 3186 3129 
Q 3597 2675 3597 1894 
z
M 3022 2063 
Q 3016 2534 2758 2815 
Q 2500 3097 2075 3097 
Q 1594 3097 1305 2825 
Q 1016 2553 972 2059 
L 3022 2063 
z
" transform="scale(0.015625)"/>
       <path id="DejaVuSans-64" d="M 2906 2969 
L 2906 4863 
L 3481 4863 
L 3481 0 
L 2906 0 
L 2906 525 
Q 2725 213 2448 61 
Q 2172 -91 1784 -91 
Q 1150 -91 751 415 
Q 353 922 353 1747 
Q 353 2572 751 3078 
Q 1150 3584 1784 3584 
Q 2172 3584 2448 3432 
Q 2725 3281 2906 2969 
z
M 947 1747 
Q 947 1113 1208 752 
Q 1469 391 1925 391 
Q 2381 391 2643 752 
Q 2906 1113 2906 1747 
Q 2906 2381 2643 2742 
Q 2381 3103 1925 3103 
Q 1469 3103 1208 2742 
Q 947 2381 947 1747 
z
" transform="scale(0.015625)"/>
       <path id="DejaVuSans-67" d="M 2906 1791 
Q 2906 2416 2648 2759 
Q 2391 3103 1925 3103 
Q 1463 3103 1205 2759 
Q 947 2416 947 1791 
Q 947 1169 1205 825 
Q 1463 481 1925 481 
Q 2391 481 2648 825 
Q 2906 1169 2906 1791 
z
M 3481 434 
Q 3481 -459 3084 -895 
Q 2688 -1331 1869 -1331 
Q 1566 -1331 1297 -1286 
Q 1028 -1241 775 -1147 
L 775 -588 
Q 1028 -725 1275 -790 
Q 1522 -856 1778 -856 
Q 2344 -856 2625 -561 
Q 2906 -266 2906 331 
L 2906 616 
Q 2728 306 2450 153 
Q 2172 0 1784 0 
Q 1141 0 747 490 
Q 353 981 353 1791 
Q 353 2603 747 3093 
Q 1141 3584 1784 3584 
Q 2172 3584 2450 3431 
Q 2728 3278 2906 2969 
L 2906 3500 
L 3481 3500 
L 3481 434 
z
" transform="scale(0.015625)"/>
       <path id="DejaVuSans-20" transform="scale(0.015625)"/>
       <path id="DejaVuSans-28" d="M 1984 4856 
Q 1566 4138 1362 3434 
Q 1159 2731 1159 2009 
Q 1159 1288 1364 580 
Q 1569 -128 1984 -844 
L 1484 -844 
Q 1016 -109 783 600 
Q 550 1309 550 2009 
Q 550 2706 781 3412 
Q 1013 4119 1484 4856 
L 1984 4856 
z
" transform="scale(0.015625)"/>
       <path id="DejaVuSans-Oblique-3b1" d="M 2619 1628 
L 2622 2350 
Q 2625 3088 2069 3091 
Q 1653 3094 1394 2747 
Q 1069 2319 959 1747 
Q 825 1059 994 731 
Q 1169 397 1547 397 
Q 1966 397 2319 1063 
L 2619 1628 
z
M 2166 3578 
Q 3141 3594 3128 2584 
Q 3128 2584 3616 3500 
L 4128 3500 
L 3119 1603 
L 3109 919 
Q 3109 766 3194 638 
Q 3291 488 3391 488 
L 3669 488 
L 3575 0 
L 3228 0 
Q 2934 0 2722 263 
Q 2622 394 2619 669 
Q 2416 334 2066 50 
Q 1900 -81 1453 -78 
Q 722 -72 456 397 
Q 184 884 353 1747 
Q 534 2675 1009 3097 
Q 1544 3569 2166 3578 
z
" transform="scale(0.015625)"/>
       <path id="DejaVuSans-3d" d="M 678 2906 
L 4684 2906 
L 4684 2381 
L 678 2381 
L 678 2906 
z
M 678 1631 
L 4684 1631 
L 4684 1100 
L 678 1100 
L 678 1631 
z
" transform="scale(0.015625)"/>
       <path id="DejaVuSans-2e" d="M 684 794 
L 1344 794 
L 1344 0 
L 684 0 
L 684 794 
z
" transform="scale(0.015625)"/>
       <path id="DejaVuSans-33" d="M 2597 2516 
Q 3050 2419 3304 2112 
Q 3559 1806 3559 1356 
Q 3559 666 3084 287 
Q 2609 -91 1734 -91 
Q 1441 -91 1130 -33 
Q 819 25 488 141 
L 488 750 
Q 750 597 1062 519 
Q 1375 441 1716 441 
Q 2309 441 2620 675 
Q 2931 909 2931 1356 
Q 2931 1769 2642 2001 
Q 2353 2234 1838 2234 
L 1294 2234 
L 1294 2753 
L 1863 2753 
Q 2328 2753 2575 2939 
Q 2822 3125 2822 3475 
Q 2822 3834 2567 4026 
Q 2313 4219 1838 4219 
Q 1578 4219 1281 4162 
Q 984 4106 628 3988 
L 628 4550 
Q 988 4650 1302 4700 
Q 1616 4750 1894 4750 
Q 2613 4750 3031 4423 
Q 3450 4097 3450 3541 
Q 3450 3153 3228 2886 
Q 3006 2619 2597 2516 
z
" transform="scale(0.015625)"/>
       <path id="DejaVuSans-29" d="M 513 4856 
L 1013 4856 
Q 1481 4119 1714 3412 
Q 1947 2706 1947 2009 
Q 1947 1309 1714 600 
Q 1481 -109 1013 -844 
L 513 -844 
Q 928 -128 1133 580 
Q 1338 1288 1338 2009 
Q 1338 2731 1133 3434 
Q 928 4138 513 4856 
z
" transform="scale(0.015625)"/>
      </defs>
      <use xlink:href="#DejaVuSans-43" transform="translate(0 0.015625)"/>
      <use xlink:href="#DejaVuSans-6f" transform="translate(69.824219 0.015625)"/>
      <use xlink:href="#DejaVuSans-6e" transform="translate(131.005859 0.015625)"/>
      <use xlink:href="#DejaVuSans-73" transform="translate(194.384766 0.015625)"/>
      <use xlink:href="#DejaVuSans-74" transform="translate(246.484375 0.015625)"/>
      <use xlink:href="#DejaVuSans-61" transform="translate(285.693359 0.015625)"/>
      <use xlink:href="#DejaVuSans-6e" transform="translate(346.972656 0.015625)"/>
      <use xlink:href="#DejaVuSans-74" transform="translate(410.351562 0.015625)"/>
      <use xlink:href="#DejaVuSans-2d" transform="translate(449.560547 0.015625)"/>
      <use xlink:href="#DejaVuSans-65" transform="translate(485.644531 0.015625)"/>
      <use xlink:href="#DejaVuSans-64" transform="translate(547.167969 0.015625)"/>
      <use xlink:href="#DejaVuSans-67" transform="translate(610.644531 0.015625)"/>
      <use xlink:href="#DejaVuSans-65" transform="translate(674.121094 0.015625)"/>
      <use xlink:href="#DejaVuSans-20" transform="translate(735.644531 0.015625)"/>
      <use xlink:href="#DejaVuSans-28" transform="translate(767.431641 0.015625)"/>
      <use xlink:href="#DejaVuSans-Oblique-3b1" transform="translate(806.445312 0.015625)"/>
      <use xlink:href="#DejaVuSans-20" transform="translate(872.363281 0.015625)"/>
      <use xlink:href="#DejaVuSans-3d" transform="translate(904.150391 0.015625)"/>
      <use xlink:href="#DejaVuSans-20" transform="translate(987.939453 0.015625)"/>
      <use xlink:href="#DejaVuSans-30" transform="translate(1019.726562 0.015625)"/>
      <use xlink:href="#DejaVuSans-2e" transform="translate(1083.349609 0.015625)"/>
      <use xlink:href="#DejaVuSans-33" transform="translate(1115.136719 0.015625)"/>
      <use xlink:href="#DejaVuSans-33" transform="translate(1178.759766 0.015625)"/>
      <use xlink:href="#DejaVuSans-33" transform="translate(1242.382812 0.015625)"/>
      <use xlink:href="#DejaVuSans-29" transform="translate(1306.005859 0.015625)"/>
     </g>
    </g>
    <g id="line2d_32">
     <path d="M 46.554313 30 
L 56.554313 30 
L 66.554313 30 
" style="fill: none; stroke: #ff7f0e; stroke-width: 2; stroke-linecap: square"/>
     <g>
      <use xlink:href="#m326acd1d1e" x="56.554313" y="30" style="fill: #ff7f0e; stroke: #ff7f0e; stroke-linejoin: miter"/>
     </g>
    </g>
    <g id="text_14">
     <!-- Maximum-degree ($\alpha$ = 0.500) -->
     <g transform="translate(74.554313 33.5) scale(0.1 -0.1)">
      <defs>
       <path id="DejaVuSans-4d" d="M 628 4666 
L 1569 4666 
L 2759 1491 
L 3956 4666 
L 4897 4666 
L 4897 0 
L 4281 0 
L 4281 4097 
L 3078 897 
L 2444 897 
L 1241 4097 
L 1241 0 
L 628 0 
L 628 4666 
z
" transform="scale(0.015625)"/>
       <path id="DejaVuSans-78" d="M 3513 3500 
L 2247 1797 
L 3578 0 
L 2900 0 
L 1881 1375 
L 863 0 
L 184 0 
L 1544 1831 
L 300 3500 
L 978 3500 
L 1906 2253 
L 2834 3500 
L 3513 3500 
z
" transform="scale(0.015625)"/>
       <path id="DejaVuSans-69" d="M 603 3500 
L 1178 3500 
L 1178 0 
L 603 0 
L 603 3500 
z
M 603 4863 
L 1178 4863 
L 1178 4134 
L 603 4134 
L 603 4863 
z
" transform="scale(0.015625)"/>
       <path id="DejaVuSans-6d" d="M 3328 2828 
Q 3544 3216 3844 3400 
Q 4144 3584 4550 3584 
Q 5097 3584 5394 3201 
Q 5691 2819 5691 2113 
L 5691 0 
L 5113 0 
L 5113 2094 
Q 5113 2597 4934 2840 
Q 4756 3084 4391 3084 
Q 3944 3084 3684 2787 
Q 3425 2491 3425 1978 
L 3425 0 
L 2847 0 
L 2847 2094 
Q 2847 2600 2669 2842 
Q 2491 3084 2119 3084 
Q 1678 3084 1418 2786 
Q 1159 2488 1159 1978 
L 1159 0 
L 581 0 
L 581 3500 
L 1159 3500 
L 1159 2956 
Q 1356 3278 1631 3431 
Q 1906 3584 2284 3584 
Q 2666 3584 2933 3390 
Q 3200 3197 3328 2828 
z
" transform="scale(0.015625)"/>
       <path id="DejaVuSans-75" d="M 544 1381 
L 544 3500 
L 1119 3500 
L 1119 1403 
Q 1119 906 1312 657 
Q 1506 409 1894 409 
Q 2359 409 2629 706 
Q 2900 1003 2900 1516 
L 2900 3500 
L 3475 3500 
L 3475 0 
L 2900 0 
L 2900 538 
Q 2691 219 2414 64 
Q 2138 -91 1772 -91 
Q 1169 -91 856 284 
Q 544 659 544 1381 
z
M 1991 3584 
L 1991 3584 
z
" transform="scale(0.015625)"/>
       <path id="DejaVuSans-72" d="M 2631 2963 
Q 2534 3019 2420 3045 
Q 2306 3072 2169 3072 
Q 1681 3072 1420 2755 
Q 1159 2438 1159 1844 
L 1159 0 
L 581 0 
L 581 3500 
L 1159 3500 
L 1159 2956 
Q 1341 3275 1631 3429 
Q 1922 3584 2338 3584 
Q 2397 3584 2469 3576 
Q 2541 3569 2628 3553 
L 2631 2963 
z
" transform="scale(0.015625)"/>
      </defs>
      <use xlink:href="#DejaVuSans-4d" transform="translate(0 0.015625)"/>
      <use xlink:href="#DejaVuSans-61" transform="translate(86.279297 0.015625)"/>
      <use xlink:href="#DejaVuSans-78" transform="translate(147.558594 0.015625)"/>
      <use xlink:href="#DejaVuSans-69" transform="translate(206.738281 0.015625)"/>
      <use xlink:href="#DejaVuSans-6d" transform="translate(234.521484 0.015625)"/>
      <use xlink:href="#DejaVuSans-75" transform="translate(331.933594 0.015625)"/>
      <use xlink:href="#DejaVuSans-6d" transform="translate(395.3125 0.015625)"/>
      <use xlink:href="#DejaVuSans-2d" transform="translate(490.974609 0.015625)"/>
      <use xlink:href="#DejaVuSans-64" transform="translate(527.058594 0.015625)"/>
      <use xlink:href="#DejaVuSans-65" transform="translate(590.535156 0.015625)"/>
      <use xlink:href="#DejaVuSans-67" transform="translate(652.058594 0.015625)"/>
      <use xlink:href="#DejaVuSans-72" transform="translate(715.535156 0.015625)"/>
      <use xlink:href="#DejaVuSans-65" transform="translate(756.648438 0.015625)"/>
      <use xlink:href="#DejaVuSans-65" transform="translate(818.171875 0.015625)"/>
      <use xlink:href="#DejaVuSans-20" transform="translate(879.695312 0.015625)"/>
      <use xlink:href="#DejaVuSans-28" transform="translate(911.482422 0.015625)"/>
      <use xlink:href="#DejaVuSans-Oblique-3b1" transform="translate(950.496094 0.015625)"/>
      <use xlink:href="#DejaVuSans-20" transform="translate(1016.414062 0.015625)"/>
      <use xlink:href="#DejaVuSans-3d" transform="translate(1048.201172 0.015625)"/>
      <use xlink:href="#DejaVuSans-20" transform="translate(1131.990234 0.015625)"/>
      <use xlink:href="#DejaVuSans-30" transform="translate(1163.777344 0.015625)"/>
      <use xlink:href="#DejaVuSans-2e" transform="translate(1227.400391 0.015625)"/>
      <use xlink:href="#DejaVuSans-35" transform="translate(1259.1875 0.015625)"/>
      <use xlink:href="#DejaVuSans-30" transform="translate(1322.810547 0.015625)"/>
      <use xlink:href="#DejaVuSans-30" transform="translate(1386.433594 0.015625)"/>
      <use xlink:href="#DejaVuSans-29" transform="translate(1450.056641 0.015625)"/>
     </g>
    </g>
    <g id="line2d_33">
     <path d="M 243.554313 15.3 
L 253.554313 15.3 
L 263.554313 15.3 
" style="fill: none; stroke: #2ca02c; stroke-width: 2; stroke-linecap: square"/>
     <g>
      <use xlink:href="#mc8f1e0703f" x="253.554313" y="15.3" style="fill: #2ca02c; stroke: #2ca02c; stroke-linejoin: miter"/>
     </g>
    </g>
    <g id="text_15">
     <!-- Local-degree -->
     <g transform="translate(271.554313 18.8) scale(0.1 -0.1)">
      <defs>
       <path id="DejaVuSans-4c" d="M 628 4666 
L 1259 4666 
L 1259 531 
L 3531 531 
L 3531 0 
L 628 0 
L 628 4666 
z
" transform="scale(0.015625)"/>
       <path id="DejaVuSans-63" d="M 3122 3366 
L 3122 2828 
Q 2878 2963 2633 3030 
Q 2388 3097 2138 3097 
Q 1578 3097 1268 2742 
Q 959 2388 959 1747 
Q 959 1106 1268 751 
Q 1578 397 2138 397 
Q 2388 397 2633 464 
Q 2878 531 3122 666 
L 3122 134 
Q 2881 22 2623 -34 
Q 2366 -91 2075 -91 
Q 1284 -91 818 406 
Q 353 903 353 1747 
Q 353 2603 823 3093 
Q 1294 3584 2113 3584 
Q 2378 3584 2631 3529 
Q 2884 3475 3122 3366 
z
" transform="scale(0.015625)"/>
       <path id="DejaVuSans-6c" d="M 603 4863 
L 1178 4863 
L 1178 0 
L 603 0 
L 603 4863 
z
" transform="scale(0.015625)"/>
      </defs>
      <use xlink:href="#DejaVuSans-4c"/>
      <use xlink:href="#DejaVuSans-6f" x="53.962891"/>
      <use xlink:href="#DejaVuSans-63" x="115.144531"/>
      <use xlink:href="#DejaVuSans-61" x="170.125"/>
      <use xlink:href="#DejaVuSans-6c" x="231.404297"/>
      <use xlink:href="#DejaVuSans-2d" x="259.1875"/>
      <use xlink:href="#DejaVuSans-64" x="295.271484"/>
      <use xlink:href="#DejaVuSans-65" x="358.748047"/>
      <use xlink:href="#DejaVuSans-67" x="420.271484"/>
      <use xlink:href="#DejaVuSans-72" x="483.748047"/>
      <use xlink:href="#DejaVuSans-65" x="522.611328"/>
      <use xlink:href="#DejaVuSans-65" x="584.134766"/>
     </g>
    </g>
    <g id="line2d_34">
     <path d="M 243.554313 29.978125 
L 253.554313 29.978125 
L 263.554313 29.978125 
" style="fill: none; stroke: #d62728; stroke-width: 2; stroke-linecap: square"/>
     <g>
      <use xlink:href="#mc69932ab24" x="253.554313" y="29.978125" style="fill: #d62728; stroke: #d62728"/>
     </g>
    </g>
    <g id="text_16">
     <!-- FMMC -->
     <g transform="translate(271.554313 33.478125) scale(0.1 -0.1)">
      <defs>
       <path id="DejaVuSans-46" d="M 628 4666 
L 3309 4666 
L 3309 4134 
L 1259 4134 
L 1259 2759 
L 3109 2759 
L 3109 2228 
L 1259 2228 
L 1259 0 
L 628 0 
L 628 4666 
z
" transform="scale(0.015625)"/>
      </defs>
      <use xlink:href="#DejaVuSans-46"/>
      <use xlink:href="#DejaVuSans-4d" x="57.519531"/>
      <use xlink:href="#DejaVuSans-4d" x="143.798828"/>
      <use xlink:href="#DejaVuSans-43" x="230.078125"/>
     </g>
    </g>
    <g id="line2d_35">
     <path d="M 356.124625 15.3 
L 366.124625 15.3 
L 376.124625 15.3 
" style="fill: none; stroke: #9467bd; stroke-width: 2; stroke-linecap: square"/>
     <g>
      <use xlink:href="#ma54dd4b409" x="366.124625" y="15.3" style="fill: #9467bd; stroke: #9467bd; stroke-linejoin: miter"/>
     </g>
    </g>
    <g id="text_17">
     <!-- FDLA -->
     <g transform="translate(384.124625 18.8) scale(0.1 -0.1)">
      <defs>
       <path id="DejaVuSans-44" d="M 1259 4147 
L 1259 519 
L 2022 519 
Q 2988 519 3436 956 
Q 3884 1394 3884 2338 
Q 3884 3275 3436 3711 
Q 2988 4147 2022 4147 
L 1259 4147 
z
M 628 4666 
L 1925 4666 
Q 3281 4666 3915 4102 
Q 4550 3538 4550 2338 
Q 4550 1131 3912 565 
Q 3275 0 1925 0 
L 628 0 
L 628 4666 
z
" transform="scale(0.015625)"/>
       <path id="DejaVuSans-41" d="M 2188 4044 
L 1331 1722 
L 3047 1722 
L 2188 4044 
z
M 1831 4666 
L 2547 4666 
L 4325 0 
L 3669 0 
L 3244 1197 
L 1141 1197 
L 716 0 
L 50 0 
L 1831 4666 
z
" transform="scale(0.015625)"/>
      </defs>
      <use xlink:href="#DejaVuSans-46"/>
      <use xlink:href="#DejaVuSans-44" x="57.519531"/>
      <use xlink:href="#DejaVuSans-4c" x="134.521484"/>
      <use xlink:href="#DejaVuSans-41" x="192.484375"/>
     </g>
    </g>
    <g id="line2d_36">
     <path d="M 356.124625 29.978125 
L 366.124625 29.978125 
L 376.124625 29.978125 
" style="fill: none; stroke: #8c564b; stroke-width: 2; stroke-linecap: square"/>
     <g>
      <use xlink:href="#mf257113408" x="366.124625" y="29.978125" style="fill: #8c564b; stroke: #8c564b; stroke-linejoin: miter"/>
     </g>
    </g>
    <g id="text_18">
     <!-- OPT -->
     <g transform="translate(384.124625 33.478125) scale(0.1 -0.1)">
      <defs>
       <path id="DejaVuSans-4f" d="M 2522 4238 
Q 1834 4238 1429 3725 
Q 1025 3213 1025 2328 
Q 1025 1447 1429 934 
Q 1834 422 2522 422 
Q 3209 422 3611 934 
Q 4013 1447 4013 2328 
Q 4013 3213 3611 3725 
Q 3209 4238 2522 4238 
z
M 2522 4750 
Q 3503 4750 4090 4092 
Q 4678 3434 4678 2328 
Q 4678 1225 4090 567 
Q 3503 -91 2522 -91 
Q 1538 -91 948 565 
Q 359 1222 359 2328 
Q 359 3434 948 4092 
Q 1538 4750 2522 4750 
z
" transform="scale(0.015625)"/>
       <path id="DejaVuSans-50" d="M 1259 4147 
L 1259 2394 
L 2053 2394 
Q 2494 2394 2734 2622 
Q 2975 2850 2975 3272 
Q 2975 3691 2734 3919 
Q 2494 4147 2053 4147 
L 1259 4147 
z
M 628 4666 
L 2053 4666 
Q 2838 4666 3239 4311 
Q 3641 3956 3641 3272 
Q 3641 2581 3239 2228 
Q 2838 1875 2053 1875 
L 1259 1875 
L 1259 0 
L 628 0 
L 628 4666 
z
" transform="scale(0.015625)"/>
       <path id="DejaVuSans-54" d="M -19 4666 
L 3928 4666 
L 3928 4134 
L 2272 4134 
L 2272 0 
L 1638 0 
L 1638 4134 
L -19 4134 
L -19 4666 
z
" transform="scale(0.015625)"/>
      </defs>
      <use xlink:href="#DejaVuSans-4f"/>
      <use xlink:href="#DejaVuSans-50" x="78.710938"/>
      <use xlink:href="#DejaVuSans-54" x="139.013672"/>
     </g>
    </g>
   </g>
  </g>
  <g id="text_19">
   <!-- Timesteps -->
   <g transform="translate(197.599313 359.128375) scale(0.12 -0.12)">
    <defs>
     <path id="DejaVuSans-70" d="M 1159 525 
L 1159 -1331 
L 581 -1331 
L 581 3500 
L 1159 3500 
L 1159 2969 
Q 1341 3281 1617 3432 
Q 1894 3584 2278 3584 
Q 2916 3584 3314 3078 
Q 3713 2572 3713 1747 
Q 3713 922 3314 415 
Q 2916 -91 2278 -91 
Q 1894 -91 1617 61 
Q 1341 213 1159 525 
z
M 3116 1747 
Q 3116 2381 2855 2742 
Q 2594 3103 2138 3103 
Q 1681 3103 1420 2742 
Q 1159 2381 1159 1747 
Q 1159 1113 1420 752 
Q 1681 391 2138 391 
Q 2594 391 2855 752 
Q 3116 1113 3116 1747 
z
" transform="scale(0.015625)"/>
    </defs>
    <use xlink:href="#DejaVuSans-54"/>
    <use xlink:href="#DejaVuSans-69" x="57.958984"/>
    <use xlink:href="#DejaVuSans-6d" x="85.742188"/>
    <use xlink:href="#DejaVuSans-65" x="183.154297"/>
    <use xlink:href="#DejaVuSans-73" x="244.677734"/>
    <use xlink:href="#DejaVuSans-74" x="296.777344"/>
    <use xlink:href="#DejaVuSans-65" x="335.986328"/>
    <use xlink:href="#DejaVuSans-70" x="397.509766"/>
    <use xlink:href="#DejaVuSans-73" x="460.986328"/>
   </g>
  </g>
  <g id="text_20">
   <!-- Mean estimate error for the best arm -->
   <g transform="translate(16.318125 303.952188) rotate(-90) scale(0.12 -0.12)">
    <defs>
     <path id="DejaVuSans-66" d="M 2375 4863 
L 2375 4384 
L 1825 4384 
Q 1516 4384 1395 4259 
Q 1275 4134 1275 3809 
L 1275 3500 
L 2222 3500 
L 2222 3053 
L 1275 3053 
L 1275 0 
L 697 0 
L 697 3053 
L 147 3053 
L 147 3500 
L 697 3500 
L 697 3744 
Q 697 4328 969 4595 
Q 1241 4863 1831 4863 
L 2375 4863 
z
" transform="scale(0.015625)"/>
     <path id="DejaVuSans-68" d="M 3513 2113 
L 3513 0 
L 2938 0 
L 2938 2094 
Q 2938 2591 2744 2837 
Q 2550 3084 2163 3084 
Q 1697 3084 1428 2787 
Q 1159 2491 1159 1978 
L 1159 0 
L 581 0 
L 581 4863 
L 1159 4863 
L 1159 2956 
Q 1366 3272 1645 3428 
Q 1925 3584 2291 3584 
Q 2894 3584 3203 3211 
Q 3513 2838 3513 2113 
z
" transform="scale(0.015625)"/>
     <path id="DejaVuSans-62" d="M 3116 1747 
Q 3116 2381 2855 2742 
Q 2594 3103 2138 3103 
Q 1681 3103 1420 2742 
Q 1159 2381 1159 1747 
Q 1159 1113 1420 752 
Q 1681 391 2138 391 
Q 2594 391 2855 752 
Q 3116 1113 3116 1747 
z
M 1159 2969 
Q 1341 3281 1617 3432 
Q 1894 3584 2278 3584 
Q 2916 3584 3314 3078 
Q 3713 2572 3713 1747 
Q 3713 922 3314 415 
Q 2916 -91 2278 -91 
Q 1894 -91 1617 61 
Q 1341 213 1159 525 
L 1159 0 
L 581 0 
L 581 4863 
L 1159 4863 
L 1159 2969 
z
" transform="scale(0.015625)"/>
    </defs>
    <use xlink:href="#DejaVuSans-4d"/>
    <use xlink:href="#DejaVuSans-65" x="86.279297"/>
    <use xlink:href="#DejaVuSans-61" x="147.802734"/>
    <use xlink:href="#DejaVuSans-6e" x="209.082031"/>
    <use xlink:href="#DejaVuSans-20" x="272.460938"/>
    <use xlink:href="#DejaVuSans-65" x="304.248047"/>
    <use xlink:href="#DejaVuSans-73" x="365.771484"/>
    <use xlink:href="#DejaVuSans-74" x="417.871094"/>
    <use xlink:href="#DejaVuSans-69" x="457.080078"/>
    <use xlink:href="#DejaVuSans-6d" x="484.863281"/>
    <use xlink:href="#DejaVuSans-61" x="582.275391"/>
    <use xlink:href="#DejaVuSans-74" x="643.554688"/>
    <use xlink:href="#DejaVuSans-65" x="682.763672"/>
    <use xlink:href="#DejaVuSans-20" x="744.287109"/>
    <use xlink:href="#DejaVuSans-65" x="776.074219"/>
    <use xlink:href="#DejaVuSans-72" x="837.597656"/>
    <use xlink:href="#DejaVuSans-72" x="876.960938"/>
    <use xlink:href="#DejaVuSans-6f" x="915.824219"/>
    <use xlink:href="#DejaVuSans-72" x="977.005859"/>
    <use xlink:href="#DejaVuSans-20" x="1018.119141"/>
    <use xlink:href="#DejaVuSans-66" x="1049.90625"/>
    <use xlink:href="#DejaVuSans-6f" x="1085.111328"/>
    <use xlink:href="#DejaVuSans-72" x="1146.292969"/>
    <use xlink:href="#DejaVuSans-20" x="1187.40625"/>
    <use xlink:href="#DejaVuSans-74" x="1219.193359"/>
    <use xlink:href="#DejaVuSans-68" x="1258.402344"/>
    <use xlink:href="#DejaVuSans-65" x="1321.78125"/>
    <use xlink:href="#DejaVuSans-20" x="1383.304688"/>
    <use xlink:href="#DejaVuSans-62" x="1415.091797"/>
    <use xlink:href="#DejaVuSans-65" x="1478.568359"/>
    <use xlink:href="#DejaVuSans-73" x="1540.091797"/>
    <use xlink:href="#DejaVuSans-74" x="1592.191406"/>
    <use xlink:href="#DejaVuSans-20" x="1631.400391"/>
    <use xlink:href="#DejaVuSans-61" x="1663.1875"/>
    <use xlink:href="#DejaVuSans-72" x="1724.466797"/>
    <use xlink:href="#DejaVuSans-6d" x="1763.830078"/>
   </g>
  </g>
 </g>
 <defs>
  <clipPath id="pf020db615d">
   <rect x="55.584" y="60.952" width="357.12" height="266.112"/>
  </clipPath>
 </defs>
</svg>
