<?xml version="1.0" encoding="utf-8" standalone="no"?>
<!DOCTYPE svg PUBLIC "-//W3C//DTD SVG 1.1//EN"
  "http://www.w3.org/Graphics/SVG/1.1/DTD/svg11.dtd">
<svg xmlns:xlink="http://www.w3.org/1999/xlink" width="421.811252pt" height="368.824pt" viewBox="0 0 421.811252 368.824" xmlns="http://www.w3.org/2000/svg" version="1.1">
 <metadata>
  <rdf:RDF xmlns:dc="http://purl.org/dc/elements/1.1/" xmlns:cc="http://creativecommons.org/ns#" xmlns:rdf="http://www.w3.org/1999/02/22-rdf-syntax-ns#">
   <cc:Work>
    <dc:type rdf:resource="http://purl.org/dc/dcmitype/StillImage"/>
    <dc:date>2024-06-12T03:24:35.963071</dc:date>
    <dc:format>image/svg+xml</dc:format>
    <dc:creator>
     <cc:Agent>
      <dc:title>Matplotlib v3.9.0, https://matplotlib.org/</dc:title>
     </cc:Agent>
    </dc:creator>
   </cc:Work>
  </rdf:RDF>
 </metadata>
 <defs>
  <style type="text/css">*{stroke-linejoin: round; stroke-linecap: butt}</style>
 </defs>
 <g id="figure_1">
  <g id="patch_1">
   <path d="M 0 368.824 
L 421.811252 368.824 
L 421.811252 0 
L 0 0 
z
" style="fill: #ffffff"/>
  </g>
  <g id="axes_1">
   <g id="patch_2">
    <path d="M 55.584 327.064 
L 412.704 327.064 
L 412.704 60.952 
L 55.584 60.952 
z
" style="fill: #ffffff"/>
   </g>
   <g id="matplotlib.axis_1">
    <g id="xtick_1">
     <g id="line2d_1">
      <path d="M 71.816727 327.064 
L 71.816727 60.952 
" clip-path="url(#pd30a6a9014)" style="fill: none; stroke: #b0b0b0; stroke-width: 0.8; stroke-linecap: square"/>
     </g>
     <g id="line2d_2">
      <defs>
       <path id="m7e5049a59e" d="M 0 0 
L 0 3.5 
" style="stroke: #000000; stroke-width: 0.8"/>
      </defs>
      <g>
       <use xlink:href="#m7e5049a59e" x="71.816727" y="327.064" style="stroke: #000000; stroke-width: 0.8"/>
      </g>
     </g>
     <g id="text_1">
      <!-- 0 -->
      <g transform="translate(67.362977 344.701812) scale(0.14 -0.14)">
       <defs>
        <path id="DejaVuSans-30" d="M 2034 4250 
Q 1547 4250 1301 3770 
Q 1056 3291 1056 2328 
Q 1056 1369 1301 889 
Q 1547 409 2034 409 
Q 2525 409 2770 889 
Q 3016 1369 3016 2328 
Q 3016 3291 2770 3770 
Q 2525 4250 2034 4250 
z
M 2034 4750 
Q 2819 4750 3233 4129 
Q 3647 3509 3647 2328 
Q 3647 1150 3233 529 
Q 2819 -91 2034 -91 
Q 1250 -91 836 529 
Q 422 1150 422 2328 
Q 422 3509 836 4129 
Q 1250 4750 2034 4750 
z
" transform="scale(0.015625)"/>
       </defs>
       <use xlink:href="#DejaVuSans-30"/>
      </g>
     </g>
    </g>
    <g id="xtick_2">
     <g id="line2d_3">
      <path d="M 136.812632 327.064 
L 136.812632 60.952 
" clip-path="url(#pd30a6a9014)" style="fill: none; stroke: #b0b0b0; stroke-width: 0.8; stroke-linecap: square"/>
     </g>
     <g id="line2d_4">
      <g>
       <use xlink:href="#m7e5049a59e" x="136.812632" y="327.064" style="stroke: #000000; stroke-width: 0.8"/>
      </g>
     </g>
     <g id="text_2">
      <!-- 200 -->
      <g transform="translate(123.451382 344.701812) scale(0.14 -0.14)">
       <defs>
        <path id="DejaVuSans-32" d="M 1228 531 
L 3431 531 
L 3431 0 
L 469 0 
L 469 531 
Q 828 903 1448 1529 
Q 2069 2156 2228 2338 
Q 2531 2678 2651 2914 
Q 2772 3150 2772 3378 
Q 2772 3750 2511 3984 
Q 2250 4219 1831 4219 
Q 1534 4219 1204 4116 
Q 875 4013 500 3803 
L 500 4441 
Q 881 4594 1212 4672 
Q 1544 4750 1819 4750 
Q 2544 4750 2975 4387 
Q 3406 4025 3406 3419 
Q 3406 3131 3298 2873 
Q 3191 2616 2906 2266 
Q 2828 2175 2409 1742 
Q 1991 1309 1228 531 
z
" transform="scale(0.015625)"/>
       </defs>
       <use xlink:href="#DejaVuSans-32"/>
       <use xlink:href="#DejaVuSans-30" x="63.623047"/>
       <use xlink:href="#DejaVuSans-30" x="127.246094"/>
      </g>
     </g>
    </g>
    <g id="xtick_3">
     <g id="line2d_5">
      <path d="M 201.808537 327.064 
L 201.808537 60.952 
" clip-path="url(#pd30a6a9014)" style="fill: none; stroke: #b0b0b0; stroke-width: 0.8; stroke-linecap: square"/>
     </g>
     <g id="line2d_6">
      <g>
       <use xlink:href="#m7e5049a59e" x="201.808537" y="327.064" style="stroke: #000000; stroke-width: 0.8"/>
      </g>
     </g>
     <g id="text_3">
      <!-- 400 -->
      <g transform="translate(188.447287 344.701812) scale(0.14 -0.14)">
       <defs>
        <path id="DejaVuSans-34" d="M 2419 4116 
L 825 1625 
L 2419 1625 
L 2419 4116 
z
M 2253 4666 
L 3047 4666 
L 3047 1625 
L 3713 1625 
L 3713 1100 
L 3047 1100 
L 3047 0 
L 2419 0 
L 2419 1100 
L 313 1100 
L 313 1709 
L 2253 4666 
z
" transform="scale(0.015625)"/>
       </defs>
       <use xlink:href="#DejaVuSans-34"/>
       <use xlink:href="#DejaVuSans-30" x="63.623047"/>
       <use xlink:href="#DejaVuSans-30" x="127.246094"/>
      </g>
     </g>
    </g>
    <g id="xtick_4">
     <g id="line2d_7">
      <path d="M 266.804442 327.064 
L 266.804442 60.952 
" clip-path="url(#pd30a6a9014)" style="fill: none; stroke: #b0b0b0; stroke-width: 0.8; stroke-linecap: square"/>
     </g>
     <g id="line2d_8">
      <g>
       <use xlink:href="#m7e5049a59e" x="266.804442" y="327.064" style="stroke: #000000; stroke-width: 0.8"/>
      </g>
     </g>
     <g id="text_4">
      <!-- 600 -->
      <g transform="translate(253.443192 344.701812) scale(0.14 -0.14)">
       <defs>
        <path id="DejaVuSans-36" d="M 2113 2584 
Q 1688 2584 1439 2293 
Q 1191 2003 1191 1497 
Q 1191 994 1439 701 
Q 1688 409 2113 409 
Q 2538 409 2786 701 
Q 3034 994 3034 1497 
Q 3034 2003 2786 2293 
Q 2538 2584 2113 2584 
z
M 3366 4563 
L 3366 3988 
Q 3128 4100 2886 4159 
Q 2644 4219 2406 4219 
Q 1781 4219 1451 3797 
Q 1122 3375 1075 2522 
Q 1259 2794 1537 2939 
Q 1816 3084 2150 3084 
Q 2853 3084 3261 2657 
Q 3669 2231 3669 1497 
Q 3669 778 3244 343 
Q 2819 -91 2113 -91 
Q 1303 -91 875 529 
Q 447 1150 447 2328 
Q 447 3434 972 4092 
Q 1497 4750 2381 4750 
Q 2619 4750 2861 4703 
Q 3103 4656 3366 4563 
z
" transform="scale(0.015625)"/>
       </defs>
       <use xlink:href="#DejaVuSans-36"/>
       <use xlink:href="#DejaVuSans-30" x="63.623047"/>
       <use xlink:href="#DejaVuSans-30" x="127.246094"/>
      </g>
     </g>
    </g>
    <g id="xtick_5">
     <g id="line2d_9">
      <path d="M 331.800347 327.064 
L 331.800347 60.952 
" clip-path="url(#pd30a6a9014)" style="fill: none; stroke: #b0b0b0; stroke-width: 0.8; stroke-linecap: square"/>
     </g>
     <g id="line2d_10">
      <g>
       <use xlink:href="#m7e5049a59e" x="331.800347" y="327.064" style="stroke: #000000; stroke-width: 0.8"/>
      </g>
     </g>
     <g id="text_5">
      <!-- 800 -->
      <g transform="translate(318.439097 344.701812) scale(0.14 -0.14)">
       <defs>
        <path id="DejaVuSans-38" d="M 2034 2216 
Q 1584 2216 1326 1975 
Q 1069 1734 1069 1313 
Q 1069 891 1326 650 
Q 1584 409 2034 409 
Q 2484 409 2743 651 
Q 3003 894 3003 1313 
Q 3003 1734 2745 1975 
Q 2488 2216 2034 2216 
z
M 1403 2484 
Q 997 2584 770 2862 
Q 544 3141 544 3541 
Q 544 4100 942 4425 
Q 1341 4750 2034 4750 
Q 2731 4750 3128 4425 
Q 3525 4100 3525 3541 
Q 3525 3141 3298 2862 
Q 3072 2584 2669 2484 
Q 3125 2378 3379 2068 
Q 3634 1759 3634 1313 
Q 3634 634 3220 271 
Q 2806 -91 2034 -91 
Q 1263 -91 848 271 
Q 434 634 434 1313 
Q 434 1759 690 2068 
Q 947 2378 1403 2484 
z
M 1172 3481 
Q 1172 3119 1398 2916 
Q 1625 2713 2034 2713 
Q 2441 2713 2670 2916 
Q 2900 3119 2900 3481 
Q 2900 3844 2670 4047 
Q 2441 4250 2034 4250 
Q 1625 4250 1398 4047 
Q 1172 3844 1172 3481 
z
" transform="scale(0.015625)"/>
       </defs>
       <use xlink:href="#DejaVuSans-38"/>
       <use xlink:href="#DejaVuSans-30" x="63.623047"/>
       <use xlink:href="#DejaVuSans-30" x="127.246094"/>
      </g>
     </g>
    </g>
    <g id="xtick_6">
     <g id="line2d_11">
      <path d="M 396.796252 327.064 
L 396.796252 60.952 
" clip-path="url(#pd30a6a9014)" style="fill: none; stroke: #b0b0b0; stroke-width: 0.8; stroke-linecap: square"/>
     </g>
     <g id="line2d_12">
      <g>
       <use xlink:href="#m7e5049a59e" x="396.796252" y="327.064" style="stroke: #000000; stroke-width: 0.8"/>
      </g>
     </g>
     <g id="text_6">
      <!-- 1000 -->
      <g transform="translate(378.981252 344.701812) scale(0.14 -0.14)">
       <defs>
        <path id="DejaVuSans-31" d="M 794 531 
L 1825 531 
L 1825 4091 
L 703 3866 
L 703 4441 
L 1819 4666 
L 2450 4666 
L 2450 531 
L 3481 531 
L 3481 0 
L 794 0 
L 794 531 
z
" transform="scale(0.015625)"/>
       </defs>
       <use xlink:href="#DejaVuSans-31"/>
       <use xlink:href="#DejaVuSans-30" x="63.623047"/>
       <use xlink:href="#DejaVuSans-30" x="127.246094"/>
       <use xlink:href="#DejaVuSans-30" x="190.869141"/>
      </g>
     </g>
    </g>
   </g>
   <g id="matplotlib.axis_2">
    <g id="ytick_1">
     <g id="line2d_13">
      <path d="M 55.584 314.968 
L 412.704 314.968 
" clip-path="url(#pd30a6a9014)" style="fill: none; stroke: #b0b0b0; stroke-width: 0.8; stroke-linecap: square"/>
     </g>
     <g id="line2d_14">
      <defs>
       <path id="m5962116c78" d="M 0 0 
L -3.5 0 
" style="stroke: #000000; stroke-width: 0.8"/>
      </defs>
      <g>
       <use xlink:href="#m5962116c78" x="55.584" y="314.968" style="stroke: #000000; stroke-width: 0.8"/>
      </g>
     </g>
     <g id="text_7">
      <!-- 0 -->
      <g transform="translate(39.6765 320.286906) scale(0.14 -0.14)">
       <use xlink:href="#DejaVuSans-30"/>
      </g>
     </g>
    </g>
    <g id="ytick_2">
     <g id="line2d_15">
      <path d="M 55.584 267.787808 
L 412.704 267.787808 
" clip-path="url(#pd30a6a9014)" style="fill: none; stroke: #b0b0b0; stroke-width: 0.8; stroke-linecap: square"/>
     </g>
     <g id="line2d_16">
      <g>
       <use xlink:href="#m5962116c78" x="55.584" y="267.787808" style="stroke: #000000; stroke-width: 0.8"/>
      </g>
     </g>
     <g id="text_8">
      <!-- 5 -->
      <g transform="translate(39.6765 273.106714) scale(0.14 -0.14)">
       <defs>
        <path id="DejaVuSans-35" d="M 691 4666 
L 3169 4666 
L 3169 4134 
L 1269 4134 
L 1269 2991 
Q 1406 3038 1543 3061 
Q 1681 3084 1819 3084 
Q 2600 3084 3056 2656 
Q 3513 2228 3513 1497 
Q 3513 744 3044 326 
Q 2575 -91 1722 -91 
Q 1428 -91 1123 -41 
Q 819 9 494 109 
L 494 744 
Q 775 591 1075 516 
Q 1375 441 1709 441 
Q 2250 441 2565 725 
Q 2881 1009 2881 1497 
Q 2881 1984 2565 2268 
Q 2250 2553 1709 2553 
Q 1456 2553 1204 2497 
Q 953 2441 691 2322 
L 691 4666 
z
" transform="scale(0.015625)"/>
       </defs>
       <use xlink:href="#DejaVuSans-35"/>
      </g>
     </g>
    </g>
    <g id="ytick_3">
     <g id="line2d_17">
      <path d="M 55.584 220.607616 
L 412.704 220.607616 
" clip-path="url(#pd30a6a9014)" style="fill: none; stroke: #b0b0b0; stroke-width: 0.8; stroke-linecap: square"/>
     </g>
     <g id="line2d_18">
      <g>
       <use xlink:href="#m5962116c78" x="55.584" y="220.607616" style="stroke: #000000; stroke-width: 0.8"/>
      </g>
     </g>
     <g id="text_9">
      <!-- 10 -->
      <g transform="translate(30.769 225.926522) scale(0.14 -0.14)">
       <use xlink:href="#DejaVuSans-31"/>
       <use xlink:href="#DejaVuSans-30" x="63.623047"/>
      </g>
     </g>
    </g>
    <g id="ytick_4">
     <g id="line2d_19">
      <path d="M 55.584 173.427424 
L 412.704 173.427424 
" clip-path="url(#pd30a6a9014)" style="fill: none; stroke: #b0b0b0; stroke-width: 0.8; stroke-linecap: square"/>
     </g>
     <g id="line2d_20">
      <g>
       <use xlink:href="#m5962116c78" x="55.584" y="173.427424" style="stroke: #000000; stroke-width: 0.8"/>
      </g>
     </g>
     <g id="text_10">
      <!-- 15 -->
      <g transform="translate(30.769 178.746331) scale(0.14 -0.14)">
       <use xlink:href="#DejaVuSans-31"/>
       <use xlink:href="#DejaVuSans-35" x="63.623047"/>
      </g>
     </g>
    </g>
    <g id="ytick_5">
     <g id="line2d_21">
      <path d="M 55.584 126.247232 
L 412.704 126.247232 
" clip-path="url(#pd30a6a9014)" style="fill: none; stroke: #b0b0b0; stroke-width: 0.8; stroke-linecap: square"/>
     </g>
     <g id="line2d_22">
      <g>
       <use xlink:href="#m5962116c78" x="55.584" y="126.247232" style="stroke: #000000; stroke-width: 0.8"/>
      </g>
     </g>
     <g id="text_11">
      <!-- 20 -->
      <g transform="translate(30.769 131.566139) scale(0.14 -0.14)">
       <use xlink:href="#DejaVuSans-32"/>
       <use xlink:href="#DejaVuSans-30" x="63.623047"/>
      </g>
     </g>
    </g>
    <g id="ytick_6">
     <g id="line2d_23">
      <path d="M 55.584 79.067041 
L 412.704 79.067041 
" clip-path="url(#pd30a6a9014)" style="fill: none; stroke: #b0b0b0; stroke-width: 0.8; stroke-linecap: square"/>
     </g>
     <g id="line2d_24">
      <g>
       <use xlink:href="#m5962116c78" x="55.584" y="79.067041" style="stroke: #000000; stroke-width: 0.8"/>
      </g>
     </g>
     <g id="text_12">
      <!-- 25 -->
      <g transform="translate(30.769 84.385947) scale(0.14 -0.14)">
       <use xlink:href="#DejaVuSans-32"/>
       <use xlink:href="#DejaVuSans-35" x="63.623047"/>
      </g>
     </g>
    </g>
   </g>
   <g id="line2d_25">
    <path d="M 71.816727 314.968 
L 73.116645 314.968 
L 73.441625 269.71849 
L 73.766604 269.93332 
L 74.091584 269.903403 
L 74.416563 270.691615 
L 74.741543 270.906856 
L 75.066523 261.66418 
L 75.391502 263.778048 
L 75.716482 265.136178 
L 76.041461 264.846848 
L 76.366441 265.83695 
L 76.69142 263.811872 
L 77.0164 263.990223 
L 77.341379 264.521985 
L 77.666359 265.377119 
L 77.991338 265.741977 
L 78.316318 263.543269 
L 78.641297 263.44551 
L 78.966277 261.130166 
L 79.291256 260.75396 
L 79.941215 260.627837 
L 80.266195 259.641761 
L 80.591174 259.214516 
L 80.916154 259.524739 
L 81.241133 258.967864 
L 81.566113 259.017336 
L 82.216072 257.933694 
L 82.541052 257.79558 
L 82.866031 258.051216 
L 83.191011 255.789288 
L 83.51599 251.097812 
L 84.165949 251.582369 
L 84.490929 251.386524 
L 84.815908 251.600781 
L 85.140888 251.403068 
L 85.465867 251.352993 
L 85.790847 251.166533 
L 86.440806 251.472528 
L 86.765785 251.101037 
L 87.090765 251.121136 
L 87.740724 251.369923 
L 88.390683 251.165766 
L 88.715663 251.201396 
L 89.040642 249.236213 
L 89.365622 249.489785 
L 90.015581 249.569768 
L 90.34056 249.531907 
L 90.66554 249.374346 
L 90.990519 248.807119 
L 91.640478 248.962321 
L 91.965458 249.114823 
L 92.290437 249.105723 
L 92.615417 248.882525 
L 93.265376 249.12158 
L 93.590355 249.028368 
L 93.915335 249.121898 
L 94.240314 248.704567 
L 94.565294 248.623189 
L 95.865212 248.822404 
L 96.190192 248.712681 
L 96.515171 248.444867 
L 97.16513 248.344834 
L 97.49011 247.700663 
L 97.815089 247.676002 
L 98.140069 246.909592 
L 98.465048 246.968826 
L 98.790028 246.881507 
L 99.115007 244.011131 
L 100.089946 244.016341 
L 101.064885 244.125263 
L 101.389864 243.995103 
L 102.039823 244.03514 
L 102.364803 243.015376 
L 102.689782 242.843753 
L 103.014762 242.480405 
L 103.339741 242.552439 
L 103.664721 241.310537 
L 104.639659 241.28826 
L 105.614598 241.190157 
L 105.939577 241.117642 
L 106.264557 240.876162 
L 106.589536 235.798083 
L 107.239495 235.992574 
L 108.539414 236.027875 
L 108.864393 234.437537 
L 110.489291 234.711554 
L 111.13925 234.75756 
L 111.789209 234.733045 
L 113.739086 234.954136 
L 115.688963 235.203175 
L 116.013943 234.672202 
L 116.338922 234.589157 
L 117.63884 234.674072 
L 117.96382 234.592818 
L 118.938758 234.600972 
L 119.263738 234.23599 
L 120.238676 234.300363 
L 120.563656 234.172802 
L 121.213615 234.104587 
L 121.538595 233.779369 
L 122.188554 233.787186 
L 122.838513 233.753018 
L 123.163492 233.510261 
L 124.78839 233.746829 
L 125.438349 233.71534 
L 125.763328 233.707565 
L 126.088308 228.964893 
L 127.713206 228.462717 
L 128.038185 227.529274 
L 128.688144 227.253201 
L 129.338103 227.202505 
L 129.663083 225.377967 
L 130.963001 225.259079 
L 131.28798 225.094228 
L 133.237857 224.927713 
L 133.562837 224.712989 
L 137.137612 224.444741 
L 138.762509 224.159767 
L 142.337284 224.251098 
L 143.637202 224.222522 
L 144.612141 224.195311 
L 147.536957 223.946495 
L 147.861936 223.957302 
L 148.186916 223.3011 
L 149.161854 223.286158 
L 151.76169 223.283122 
L 152.08667 222.926953 
L 153.711568 222.890333 
L 154.036547 222.671311 
L 157.936301 222.816594 
L 158.261281 222.67885 
L 160.861117 222.741274 
L 163.135974 222.608091 
L 166.06079 222.705327 
L 166.385769 222.445926 
L 169.310585 222.455347 
L 171.585441 222.404794 
L 172.88536 222.409867 
L 173.860298 222.377303 
L 175.485196 222.318685 
L 176.460134 222.288669 
L 177.110093 222.132262 
L 178.085032 222.04455 
L 179.38495 221.987685 
L 180.684868 221.986803 
L 181.009848 221.840845 
L 181.334827 221.434407 
L 182.309766 221.40609 
L 182.634745 221.430358 
L 183.284704 220.644995 
L 188.159397 220.717664 
L 188.809356 220.716282 
L 189.134336 220.440198 
L 190.434254 220.362666 
L 190.759233 220.159553 
L 192.709111 220.206047 
L 195.308947 220.164448 
L 195.633926 219.677505 
L 198.883722 219.763783 
L 199.533681 219.547767 
L 200.833599 219.527558 
L 201.483558 219.28788 
L 203.108455 219.29304 
L 206.68323 219.192868 
L 207.658169 219.137764 
L 207.983148 218.532655 
L 210.582984 218.539412 
L 210.907964 217.981701 
L 220.007391 217.785411 
L 220.65735 217.747944 
L 226.506981 217.727288 
L 226.831961 217.556748 
L 227.806899 217.564369 
L 231.706654 217.66712 
L 232.681592 217.632104 
L 233.98151 217.580546 
L 234.956449 217.570835 
L 235.931387 217.554807 
L 236.256367 217.451395 
L 237.231305 217.443461 
L 238.206244 217.397409 
L 239.831142 217.391216 
L 242.105998 217.348666 
L 246.655712 217.42765 
L 250.230486 217.386235 
L 250.555466 217.235784 
L 251.855384 217.189771 
L 253.155302 217.137344 
L 253.480282 215.423334 
L 256.405097 215.365987 
L 259.004934 215.359822 
L 259.654893 215.314801 
L 263.554647 215.287975 
L 263.879627 215.247875 
L 264.204606 214.990564 
L 268.754319 214.934703 
L 269.079299 213.547808 
L 269.404278 213.061705 
L 273.629012 213.110085 
L 281.428521 213.046829 
L 284.028357 212.974992 
L 284.678316 212.917027 
L 288.253091 212.991157 
L 288.57807 212.801853 
L 291.502886 212.83411 
L 292.152845 212.756401 
L 294.427702 212.747966 
L 296.702559 212.701233 
L 300.277333 212.763097 
L 301.252272 212.671455 
L 301.577251 212.4197 
L 302.87717 212.38207 
L 303.202149 212.08177 
L 305.477006 212.02703 
L 305.801985 211.663787 
L 310.026719 211.532445 
L 310.351699 211.344368 
L 313.276514 211.361162 
L 314.576432 211.309511 
L 314.901412 210.981781 
L 315.876351 210.882355 
L 326.925654 210.9282 
L 327.250634 210.761884 
L 332.775286 210.692113 
L 335.375122 210.661131 
L 337.324999 210.644222 
L 337.649979 210.40235 
L 338.949897 210.368195 
L 341.874713 210.383145 
L 345.124508 210.226781 
L 346.099446 210.125009 
L 352.599037 210.166031 
L 353.898955 210.16935 
L 354.223934 210.047098 
L 363.97332 209.956641 
L 364.2983 209.832391 
L 365.923197 209.859875 
L 366.248177 209.617933 
L 368.523034 209.582868 
L 375.022624 209.497909 
L 376.647522 209.490542 
L 377.297481 209.408387 
L 378.597399 209.319968 
L 380.872256 209.256707 
L 381.197235 209.094228 
L 382.172174 209.062134 
L 382.497153 208.854701 
L 385.096989 208.832713 
L 385.421969 208.462725 
L 389.971682 208.359481 
L 396.146293 208.357359 
L 396.471273 208.336589 
L 396.471273 208.336589 
" clip-path="url(#pd30a6a9014)" style="fill: none; stroke: #1f77b4; stroke-width: 2; stroke-linecap: square"/>
    <defs>
     <path id="m997ec3721f" d="M 0 3 
C 0.795609 3 1.55874 2.683901 2.12132 2.12132 
C 2.683901 1.55874 3 0.795609 3 0 
C 3 -0.795609 2.683901 -1.55874 2.12132 -2.12132 
C 1.55874 -2.683901 0.795609 -3 0 -3 
C -0.795609 -3 -1.55874 -2.683901 -2.12132 -2.12132 
C -2.683901 -1.55874 -3 -0.795609 -3 0 
C -3 0.795609 -2.683901 1.55874 -2.12132 2.12132 
C -1.55874 2.683901 -0.795609 3 0 3 
z
" style="stroke: #1f77b4"/>
    </defs>
    <g clip-path="url(#pd30a6a9014)">
     <use xlink:href="#m997ec3721f" x="71.816727" y="314.968" style="fill: #1f77b4; stroke: #1f77b4"/>
     <use xlink:href="#m997ec3721f" x="136.812632" y="224.497962" style="fill: #1f77b4; stroke: #1f77b4"/>
     <use xlink:href="#m997ec3721f" x="201.808537" y="219.309391" style="fill: #1f77b4; stroke: #1f77b4"/>
     <use xlink:href="#m997ec3721f" x="266.804442" y="214.938577" style="fill: #1f77b4; stroke: #1f77b4"/>
     <use xlink:href="#m997ec3721f" x="331.800347" y="210.701255" style="fill: #1f77b4; stroke: #1f77b4"/>
    </g>
   </g>
   <g id="line2d_26">
    <path d="M 71.816727 314.968 
L 73.116645 314.968 
L 73.441625 264.454009 
L 73.766604 266.625947 
L 74.416563 261.44381 
L 75.066523 260.102932 
L 75.391502 258.016114 
L 75.716482 257.688807 
L 77.0164 253.283313 
L 77.991338 251.772919 
L 78.316318 251.278083 
L 78.641297 249.139442 
L 78.966277 248.854457 
L 79.291256 248.797782 
L 79.941215 247.508142 
L 80.266195 245.076912 
L 80.591174 244.866248 
L 80.916154 240.685028 
L 81.241133 240.090075 
L 81.566113 240.164953 
L 81.891093 237.957362 
L 82.216072 238.000608 
L 82.541052 237.917235 
L 82.866031 237.616689 
L 83.191011 236.817591 
L 83.51599 236.56645 
L 84.165949 236.373677 
L 84.490929 236.079099 
L 84.815908 235.153884 
L 85.140888 235.059793 
L 85.465867 234.577488 
L 85.790847 233.791212 
L 86.115826 233.914221 
L 86.440806 233.841827 
L 86.765785 233.945489 
L 87.090765 233.793298 
L 87.740724 233.826099 
L 88.390683 233.679691 
L 89.040642 233.698078 
L 89.365622 233.35223 
L 90.34056 233.331233 
L 90.66554 232.213707 
L 91.315499 232.130973 
L 91.965458 232.015576 
L 92.290437 231.721509 
L 92.615417 231.802871 
L 92.940396 231.652151 
L 93.265376 230.069128 
L 93.915335 229.823104 
L 94.565294 229.913902 
L 94.890274 228.109827 
L 95.865212 228.261677 
L 96.190192 228.254251 
L 96.515171 226.283256 
L 96.840151 226.304864 
L 97.16513 226.112418 
L 97.815089 226.227186 
L 98.465048 225.162876 
L 99.115007 224.998174 
L 99.439987 225.021192 
L 100.089946 224.676052 
L 101.389864 224.543088 
L 101.714844 223.915608 
L 103.014762 223.970064 
L 103.339741 223.720545 
L 103.9897 223.599412 
L 104.31468 223.560249 
L 104.639659 220.626136 
L 105.614598 220.523348 
L 106.914516 220.748647 
L 107.239495 220.687291 
L 107.564475 220.740932 
L 107.889455 218.812385 
L 108.214434 218.848636 
L 108.539414 218.759718 
L 108.864393 218.319984 
L 109.514352 218.14157 
L 109.839332 218.072347 
L 110.164311 217.769334 
L 110.489291 217.628345 
L 111.13925 217.628193 
L 111.789209 217.65729 
L 112.439168 217.719627 
L 113.089127 217.288529 
L 113.414106 217.329253 
L 113.739086 217.198834 
L 114.064066 217.248504 
L 114.714025 217.073012 
L 118.613779 217.063783 
L 118.938758 216.715767 
L 119.263738 216.666782 
L 119.588717 216.073443 
L 120.238676 216.130933 
L 120.563656 215.933354 
L 121.538595 216.10064 
L 121.863574 216.012634 
L 122.188554 216.044884 
L 122.513533 215.887485 
L 123.163492 215.876838 
L 123.813451 215.82627 
L 125.113369 215.96266 
L 125.763328 215.961886 
L 126.413287 215.961913 
L 126.738267 216.020862 
L 127.063247 215.79135 
L 127.388226 215.820863 
L 128.363165 215.588716 
L 129.663083 215.700569 
L 129.988062 215.532505 
L 130.313042 214.525473 
L 132.262919 214.742778 
L 132.912878 214.743548 
L 133.237857 206.265766 
L 133.887817 206.200485 
L 134.537776 206.337876 
L 134.862755 206.253292 
L 138.43753 206.900274 
L 138.762509 206.575066 
L 139.737448 206.442691 
L 140.062428 206.107431 
L 141.037366 206.290772 
L 142.012305 206.254863 
L 142.987243 206.471285 
L 143.312223 205.926894 
L 144.287161 206.050395 
L 144.612141 205.782566 
L 145.587079 205.859701 
L 146.237038 205.998007 
L 146.886998 206.058977 
L 148.511895 206.246716 
L 151.111731 206.514749 
L 151.436711 206.178762 
L 152.411649 206.296805 
L 152.736629 206.203439 
L 153.061609 206.254006 
L 153.386588 206.167031 
L 157.936301 206.696377 
L 158.261281 206.553088 
L 162.810994 207.001298 
L 163.135974 206.922477 
L 164.110912 206.984499 
L 164.760871 206.929415 
L 170.285523 207.39184 
L 170.935482 207.365795 
L 173.210339 207.492029 
L 174.510257 207.257583 
L 176.135155 207.390674 
L 176.460134 207.088853 
L 177.435073 207.141933 
L 178.734991 207.185746 
L 179.059971 207.201579 
L 179.38495 201.58709 
L 180.684868 201.632876 
L 186.859479 201.733447 
L 187.834418 201.742548 
L 188.484377 201.683345 
L 189.784295 201.759065 
L 190.759233 201.699161 
L 192.059152 201.704312 
L 192.384131 201.345009 
L 193.03409 201.290324 
L 193.684049 201.216164 
L 196.283885 201.282177 
L 197.583803 201.200488 
L 198.558742 201.224199 
L 198.883722 199.405913 
L 199.208701 199.434077 
L 199.533681 199.067068 
L 200.508619 199.094899 
L 203.433435 199.115157 
L 204.083394 199.069963 
L 205.383312 199.126952 
L 205.708292 198.845881 
L 208.958087 198.897694 
L 209.608046 197.450239 
L 210.582984 197.516221 
L 210.907964 197.316587 
L 211.557923 197.324294 
L 211.882903 195.498177 
L 213.5078 195.544835 
L 215.457677 195.685605 
L 219.357432 195.881016 
L 222.932206 195.962644 
L 223.257186 195.507052 
L 223.907145 195.471473 
L 225.857022 195.591981 
L 226.182002 194.678269 
L 230.081756 194.879256 
L 230.406735 194.522891 
L 231.381674 194.539461 
L 239.181183 194.958072 
L 241.456039 194.804269 
L 242.755957 194.811679 
L 243.080937 194.668572 
L 244.380855 194.699169 
L 252.505343 194.808048 
L 253.805261 194.761893 
L 264.529586 194.717785 
L 265.829504 194.796995 
L 267.454401 194.600111 
L 270.704197 194.717324 
L 271.354156 194.676659 
L 271.679135 194.688611 
L 272.004115 194.574345 
L 275.578889 194.637394 
L 277.528767 194.641039 
L 277.853746 194.520249 
L 279.803623 194.585285 
L 280.128603 193.981445 
L 282.403459 194.048525 
L 283.053419 193.954166 
L 285.328275 193.997844 
L 285.653255 184.633793 
L 305.801985 184.77704 
L 306.451944 184.702605 
L 307.101903 184.719826 
L 307.426883 184.408767 
L 308.401821 184.390317 
L 309.70174 184.406177 
L 310.026719 184.275608 
L 312.951535 184.317347 
L 313.601494 184.232363 
L 317.501248 184.290264 
L 317.826228 183.420393 
L 319.126146 183.392968 
L 324.975777 183.39913 
L 326.600675 183.182695 
L 327.250634 183.112632 
L 333.425245 183.177549 
L 334.075204 183.086114 
L 337.324999 183.15498 
L 337.649979 182.786189 
L 342.849651 182.795734 
L 344.799528 182.770873 
L 345.774467 182.771061 
L 346.424426 182.670058 
L 348.049324 182.623612 
L 348.374303 182.153593 
L 349.999201 182.208474 
L 350.32418 182.072954 
L 351.949078 182.099008 
L 352.924016 182.054867 
L 355.523853 182.108365 
L 356.173812 182.012742 
L 359.748586 181.980044 
L 360.398545 181.793373 
L 361.698464 181.774088 
L 374.697645 181.960286 
L 376.322542 181.920251 
L 380.872256 181.958281 
L 387.046867 182.052089 
L 392.571518 182.014785 
L 395.496334 182.082094 
L 396.146293 181.999059 
L 396.471273 182.009789 
L 396.471273 182.009789 
" clip-path="url(#pd30a6a9014)" style="fill: none; stroke: #ff7f0e; stroke-width: 2; stroke-linecap: square"/>
    <defs>
     <path id="ma1e703295d" d="M 0 -3 
L -3 3 
L 3 3 
z
" style="stroke: #ff7f0e; stroke-linejoin: miter"/>
    </defs>
    <g clip-path="url(#pd30a6a9014)">
     <use xlink:href="#ma1e703295d" x="71.816727" y="314.968" style="fill: #ff7f0e; stroke: #ff7f0e; stroke-linejoin: miter"/>
     <use xlink:href="#ma1e703295d" x="136.812632" y="206.586712" style="fill: #ff7f0e; stroke: #ff7f0e; stroke-linejoin: miter"/>
     <use xlink:href="#ma1e703295d" x="201.808537" y="199.179129" style="fill: #ff7f0e; stroke: #ff7f0e; stroke-linejoin: miter"/>
     <use xlink:href="#ma1e703295d" x="266.804442" y="194.595457" style="fill: #ff7f0e; stroke: #ff7f0e; stroke-linejoin: miter"/>
     <use xlink:href="#ma1e703295d" x="331.800347" y="183.131018" style="fill: #ff7f0e; stroke: #ff7f0e; stroke-linejoin: miter"/>
    </g>
   </g>
   <g id="line2d_27">
    <path d="M 71.816727 314.968 
L 73.116645 314.968 
L 73.441625 274.350606 
L 74.416563 262.674284 
L 74.741543 261.013195 
L 75.066523 261.449318 
L 75.391502 261.250365 
L 75.716482 258.416557 
L 76.366441 255.47648 
L 76.69142 255.448426 
L 77.341379 252.912931 
L 77.666359 253.066416 
L 77.991338 252.884361 
L 78.641297 252.181449 
L 78.966277 251.289234 
L 79.291256 251.304364 
L 79.616236 248.093694 
L 79.941215 247.08314 
L 80.266195 247.090467 
L 80.591174 246.548311 
L 80.916154 240.859627 
L 81.241133 240.784735 
L 81.566113 240.288583 
L 82.216072 240.588861 
L 82.541052 240.588499 
L 82.866031 240.250079 
L 83.51599 240.134898 
L 83.84097 239.975712 
L 84.490929 239.465599 
L 84.815908 239.373567 
L 85.790847 238.683023 
L 86.440806 237.670837 
L 86.765785 237.736578 
L 87.090765 236.579591 
L 87.415744 236.621751 
L 88.065704 236.526526 
L 88.390683 236.589022 
L 88.715663 236.277027 
L 90.015581 235.765276 
L 92.615417 235.179922 
L 93.590355 234.443977 
L 93.915335 234.063412 
L 94.240314 233.408833 
L 94.565294 233.303048 
L 95.215253 232.436679 
L 95.540233 232.223084 
L 95.865212 231.843124 
L 96.515171 231.70044 
L 96.840151 231.221516 
L 97.49011 230.864855 
L 97.815089 230.023017 
L 98.465048 229.979104 
L 98.790028 229.79368 
L 99.115007 229.87616 
L 99.764966 229.803426 
L 100.414925 229.861322 
L 101.064885 229.23923 
L 102.039823 229.156185 
L 103.339741 229.133676 
L 103.664721 228.970552 
L 104.31468 228.962053 
L 104.964639 228.456717 
L 105.614598 228.484346 
L 106.264557 228.371011 
L 106.589536 228.058886 
L 107.889455 228.016854 
L 108.214434 227.720476 
L 108.539414 226.484854 
L 109.839332 226.865954 
L 110.164311 226.791832 
L 110.81427 226.886469 
L 111.13925 226.469325 
L 112.439168 226.387187 
L 113.739086 226.43891 
L 114.389045 226.389175 
L 115.688963 226.565096 
L 116.013943 226.5319 
L 116.663902 226.118298 
L 118.288799 226.288343 
L 118.613779 226.034692 
L 119.263738 225.962552 
L 119.588717 225.983076 
L 119.913697 208.787257 
L 120.563656 208.890889 
L 120.888636 208.610659 
L 122.188554 208.499966 
L 122.513533 208.334573 
L 123.163492 208.365512 
L 123.488472 207.091585 
L 123.813451 206.924368 
L 124.138431 206.927322 
L 124.46341 206.708441 
L 124.78839 205.076223 
L 125.438349 205.142169 
L 126.088308 205.126874 
L 126.413287 204.873825 
L 128.038185 204.989947 
L 129.663083 204.940854 
L 130.313042 204.867688 
L 130.638021 204.866149 
L 130.963001 204.519815 
L 131.937939 204.499543 
L 133.237857 204.309571 
L 133.887817 203.977848 
L 135.187735 203.975064 
L 136.162673 203.946098 
L 136.487653 203.69747 
L 137.137612 203.682891 
L 137.462591 203.537912 
L 138.762509 203.423083 
L 139.087489 203.276489 
L 140.387407 203.143722 
L 140.712387 202.853107 
L 142.987243 202.987607 
L 143.312223 202.687754 
L 143.962182 202.572818 
L 144.612141 202.525686 
L 144.93712 201.847047 
L 145.912059 201.886385 
L 147.211977 201.914399 
L 150.461772 201.875875 
L 150.786752 201.74272 
L 151.436711 201.68058 
L 151.76169 201.632794 
L 152.08667 201.24998 
L 152.736629 201.147796 
L 157.286342 201.222048 
L 157.611322 201.244513 
L 157.936301 200.975077 
L 161.186097 201.064662 
L 162.486015 201.067694 
L 163.135974 201.07932 
L 163.785933 200.840379 
L 165.085851 200.756195 
L 165.41083 200.522782 
L 166.06079 200.463273 
L 170.610503 200.40987 
L 170.935482 200.102524 
L 176.135155 200.076122 
L 176.785114 200.00139 
L 177.760052 199.980156 
L 178.410011 199.802199 
L 178.734991 199.523586 
L 181.659807 199.514502 
L 182.634745 199.394071 
L 183.609684 199.342684 
L 183.934663 199.149515 
L 185.559561 199.128338 
L 186.5345 199.112648 
L 187.184459 199.109357 
L 187.509438 198.882105 
L 188.159397 198.871326 
L 188.484377 198.585279 
L 189.459315 198.55463 
L 190.759233 198.576616 
L 191.084213 198.56885 
L 191.409192 198.366447 
L 193.03409 198.278478 
L 193.684049 198.226662 
L 195.958906 198.224339 
L 197.258824 198.200011 
L 197.583803 198.193857 
L 197.908783 197.50235 
L 199.533681 197.421477 
L 199.85866 197.139762 
L 202.133517 197.234671 
L 203.108455 197.22382 
L 203.433435 197.133461 
L 204.083394 197.160496 
L 204.408373 196.065032 
L 205.058333 196.088927 
L 205.383312 195.792227 
L 207.00821 195.816731 
L 207.658169 195.281841 
L 209.608046 195.239181 
L 209.933025 195.09862 
L 211.557923 195.089223 
L 211.882903 194.872488 
L 214.482739 194.919189 
L 216.432616 194.765167 
L 216.757595 194.435635 
L 219.357432 194.473187 
L 220.33237 194.453477 
L 222.282247 194.496568 
L 228.131879 194.521378 
L 230.081756 194.5437 
L 230.406735 194.543181 
L 230.731715 193.552662 
L 232.031633 193.548176 
L 232.356613 193.339248 
L 238.531224 193.401442 
L 238.856203 192.804247 
L 243.730896 192.775877 
L 244.380855 192.74932 
L 246.330732 192.782733 
L 248.930568 192.778167 
L 249.905507 192.792505 
L 250.230486 192.583571 
L 252.505343 192.586709 
L 252.830323 191.897979 
L 254.7802 191.904274 
L 255.755138 191.879662 
L 257.055057 191.837572 
L 258.354975 191.798878 
L 260.954811 191.837165 
L 261.929749 191.887223 
L 262.254729 191.763406 
L 264.854565 191.778946 
L 265.829504 191.750011 
L 266.479463 191.73432 
L 267.129422 191.68005 
L 267.454401 191.38164 
L 268.754319 191.316445 
L 269.729258 191.241695 
L 270.704197 191.215985 
L 278.828685 190.835967 
L 279.153664 184.375379 
L 279.478644 184.283571 
L 281.103541 184.409236 
L 281.7535 184.325331 
L 283.703378 184.492493 
L 284.028357 184.390266 
L 286.303214 184.443076 
L 290.852927 184.533757 
L 292.802804 184.595118 
L 293.777743 184.580641 
L 294.427702 184.400379 
L 297.677497 184.609772 
L 298.002477 184.562538 
L 298.327456 183.745777 
L 301.252272 183.860945 
L 308.076842 183.987831 
L 311.976596 184.034151 
L 314.251453 184.078898 
L 316.52631 184.090202 
L 318.801166 184.06771 
L 319.451125 183.989435 
L 322.700921 184.045988 
L 323.35088 184.060202 
L 323.675859 183.856311 
L 324.000839 183.435933 
L 327.900593 183.562325 
L 329.200511 183.583261 
L 335.375122 183.810104 
L 336.350061 183.808722 
L 340.249815 183.89837 
L 342.524672 183.937218 
L 345.449487 183.995672 
L 345.774467 183.585893 
L 349.349242 183.644374 
L 361.373484 183.759766 
L 361.698464 183.405156 
L 362.673402 183.420473 
L 362.998382 183.249047 
L 367.873075 183.351953 
L 368.198054 182.801044 
L 371.12287 182.845221 
L 375.347604 182.887962 
L 377.297481 182.848479 
L 377.94744 182.662235 
L 381.847194 182.760166 
L 387.371846 182.762611 
L 388.996744 182.741205 
L 389.321723 181.290094 
L 394.521396 181.417639 
L 396.471273 181.399448 
L 396.471273 181.399448 
" clip-path="url(#pd30a6a9014)" style="fill: none; stroke: #2ca02c; stroke-width: 2; stroke-linecap: square"/>
    <defs>
     <path id="m1bd243de16" d="M -3 3 
L 3 3 
L 3 -3 
L -3 -3 
z
" style="stroke: #2ca02c; stroke-linejoin: miter"/>
    </defs>
    <g clip-path="url(#pd30a6a9014)">
     <use xlink:href="#m1bd243de16" x="71.816727" y="314.968" style="fill: #2ca02c; stroke: #2ca02c; stroke-linejoin: miter"/>
     <use xlink:href="#m1bd243de16" x="136.812632" y="203.693391" style="fill: #2ca02c; stroke: #2ca02c; stroke-linejoin: miter"/>
     <use xlink:href="#m1bd243de16" x="201.808537" y="197.210681" style="fill: #2ca02c; stroke: #2ca02c; stroke-linejoin: miter"/>
     <use xlink:href="#m1bd243de16" x="266.804442" y="191.673098" style="fill: #2ca02c; stroke: #2ca02c; stroke-linejoin: miter"/>
     <use xlink:href="#m1bd243de16" x="331.800347" y="183.682916" style="fill: #2ca02c; stroke: #2ca02c; stroke-linejoin: miter"/>
    </g>
   </g>
   <g id="line2d_28">
    <path d="M 71.816727 314.968 
L 73.116645 314.968 
L 73.441625 253.989707 
L 73.766604 263.283753 
L 74.091584 262.736225 
L 74.416563 262.579976 
L 74.741543 262.601854 
L 75.066523 261.645594 
L 75.391502 260.299325 
L 75.716482 259.471995 
L 76.041461 259.607889 
L 76.366441 259.383765 
L 76.69142 250.903096 
L 77.0164 246.332781 
L 77.341379 246.587512 
L 77.666359 246.289256 
L 77.991338 247.441051 
L 78.316318 247.954769 
L 79.616236 248.450075 
L 79.941215 248.223193 
L 80.266195 247.5537 
L 80.591174 247.586415 
L 81.241133 246.564534 
L 81.566113 246.674497 
L 81.891093 246.507499 
L 82.866031 246.493243 
L 83.191011 246.181475 
L 83.51599 246.405617 
L 83.84097 245.679991 
L 84.165949 245.802139 
L 84.490929 244.856681 
L 86.115826 245.264337 
L 86.765785 245.196319 
L 87.090765 243.785854 
L 87.415744 243.386432 
L 87.740724 238.153901 
L 88.065704 238.570834 
L 88.390683 239.346821 
L 89.040642 240.14129 
L 89.690601 240.86803 
L 90.015581 236.225921 
L 90.66554 237.452157 
L 91.315499 238.517533 
L 92.290437 239.547161 
L 92.615417 239.398634 
L 92.940396 239.506267 
L 93.265376 238.96368 
L 93.915335 239.334035 
L 94.240314 239.302217 
L 94.565294 239.457504 
L 94.890274 238.947993 
L 95.215253 238.004272 
L 95.540233 237.815699 
L 95.865212 237.985552 
L 96.190192 237.853975 
L 96.515171 238.005408 
L 97.16513 237.415337 
L 97.815089 237.657974 
L 98.465048 237.706831 
L 99.115007 237.911397 
L 99.439987 236.783467 
L 99.764966 236.236689 
L 100.739905 236.553666 
L 101.064885 236.570862 
L 101.714844 236.207761 
L 102.364803 236.212405 
L 103.014762 236.121206 
L 103.664721 236.220481 
L 103.9897 236.094068 
L 104.31468 236.151649 
L 104.639659 235.795862 
L 105.289618 235.691336 
L 108.539414 235.554622 
L 108.864393 230.827773 
L 109.514352 230.948301 
L 110.489291 230.866546 
L 110.81427 230.942174 
L 111.13925 230.615802 
L 112.439168 230.536077 
L 112.764147 230.462655 
L 113.089127 230.117919 
L 113.414106 230.038641 
L 114.064066 230.11997 
L 114.389045 229.862643 
L 114.714025 229.919703 
L 115.039004 229.786722 
L 116.988881 229.709816 
L 117.63884 229.621576 
L 118.288799 229.590824 
L 118.613779 229.526956 
L 118.938758 229.333884 
L 120.238676 229.084309 
L 120.888636 228.58008 
L 124.46341 228.783443 
L 125.763328 228.646359 
L 126.088308 228.398488 
L 126.738267 228.361049 
L 127.063247 227.863099 
L 127.713206 227.777759 
L 128.688144 227.749675 
L 129.338103 227.599016 
L 131.28798 227.525298 
L 131.61296 227.436339 
L 131.937939 227.053386 
L 132.587898 227.076111 
L 132.912878 226.933079 
L 135.837694 226.901323 
L 136.162673 226.231384 
L 136.487653 226.253621 
L 136.812632 226.086002 
L 137.787571 226.106008 
L 138.762509 225.999661 
L 139.087489 225.720117 
L 140.062428 225.539023 
L 142.987243 225.512656 
L 143.637202 225.409883 
L 145.587079 225.435876 
L 146.886998 225.490995 
L 147.536957 225.400691 
L 148.186916 225.396211 
L 148.511895 225.231627 
L 149.161854 225.175426 
L 150.136793 225.050439 
L 153.061609 224.978857 
L 153.711568 224.895594 
L 154.036547 224.934019 
L 155.011486 224.7816 
L 155.336465 224.768276 
L 155.661445 224.51987 
L 158.91124 224.483048 
L 160.211158 224.516693 
L 161.186097 224.416056 
L 162.161035 224.332029 
L 162.810994 224.285898 
L 163.785933 224.214585 
L 165.085851 224.178701 
L 165.41083 223.866675 
L 167.685687 223.657327 
L 168.010667 223.313086 
L 168.985605 223.315615 
L 169.310585 223.121985 
L 169.960544 223.082737 
L 171.260462 223.039427 
L 173.860298 222.959492 
L 175.160216 222.793006 
L 182.309766 222.568606 
L 182.959725 222.489317 
L 185.234581 222.437468 
L 186.20952 222.328131 
L 186.5345 222.350234 
L 186.859479 222.187575 
L 187.834418 222.047266 
L 188.159397 222.012364 
L 188.484377 221.789002 
L 188.809356 221.185867 
L 190.109274 221.246476 
L 190.434254 221.116162 
L 196.933844 221.121708 
L 201.808537 220.922077 
L 202.133517 220.193606 
L 203.108455 220.063763 
L 207.983148 220.01041 
L 209.608046 220.017254 
L 211.232943 219.962801 
L 211.882903 219.806629 
L 213.83278 219.837678 
L 214.157759 219.698643 
L 214.482739 219.697809 
L 214.807718 219.551248 
L 215.132698 219.563866 
L 215.457677 219.219953 
L 219.357432 219.011291 
L 219.682411 205.854335 
L 221.957268 206.052156 
L 222.607227 206.073802 
L 222.932206 205.658694 
L 226.831961 206.00173 
L 227.48192 205.954361 
L 230.406735 206.203923 
L 230.731715 206.078299 
L 234.30649 206.25167 
L 236.256367 206.356865 
L 238.206244 206.528746 
L 238.531224 204.617288 
L 240.156121 204.732422 
L 240.481101 204.511555 
L 240.80608 204.516899 
L 241.13106 204.408293 
L 243.405916 204.464205 
L 244.055876 204.057089 
L 246.005753 204.208559 
L 246.655712 204.142717 
L 248.930568 204.287356 
L 250.880446 204.448385 
L 254.130241 204.667053 
L 254.45522 204.538381 
L 257.055057 204.655921 
L 257.380036 204.3706 
L 257.705016 204.405873 
L 258.029995 200.07861 
L 264.204606 200.604308 
L 278.503705 201.244849 
L 279.153664 201.231074 
L 284.028357 201.483948 
L 287.928111 201.657411 
L 288.57807 201.612974 
L 288.90305 201.624672 
L 289.228029 201.415339 
L 295.077661 201.734764 
L 298.652436 201.876145 
L 300.277333 201.918513 
L 311.001658 202.238524 
L 311.976596 202.299647 
L 312.301576 201.710761 
L 313.601494 201.770147 
L 313.926473 201.612262 
L 318.151207 201.851691 
L 319.776105 201.807994 
L 320.751043 201.808001 
L 324.325818 201.868125 
L 325.950716 201.904956 
L 328.875532 201.988804 
L 333.425245 202.077744 
L 336.025081 202.217195 
L 336.67504 202.162533 
L 339.274876 202.307897 
L 339.599856 202.195239 
L 343.174631 202.31469 
L 346.749405 202.207657 
L 348.374303 202.235521 
L 348.699283 201.735755 
L 353.573975 201.923735 
L 355.523853 201.960997 
L 362.673402 202.189595 
L 362.998382 201.253403 
L 363.97332 201.242229 
L 367.548095 201.338805 
L 368.198054 201.214178 
L 371.772829 201.242048 
L 372.747767 201.255186 
L 375.347604 201.327986 
L 376.322542 201.327061 
L 377.94744 201.300432 
L 378.272419 201.188856 
L 381.847194 201.276892 
L 382.172174 201.272226 
L 382.497153 201.023774 
L 384.44703 201.030354 
L 394.196416 201.236724 
L 394.521396 198.324108 
L 395.496334 198.352935 
L 395.821314 198.160249 
L 396.471273 198.160023 
L 396.471273 198.160023 
" clip-path="url(#pd30a6a9014)" style="fill: none; stroke: #d62728; stroke-width: 2; stroke-linecap: square"/>
    <defs>
     <path id="m53efff3b09" d="M -3 3 
L 3 -3 
M -3 -3 
L 3 3 
" style="stroke: #d62728"/>
    </defs>
    <g clip-path="url(#pd30a6a9014)">
     <use xlink:href="#m53efff3b09" x="71.816727" y="314.968" style="fill: #d62728; stroke: #d62728"/>
     <use xlink:href="#m53efff3b09" x="136.812632" y="226.086002" style="fill: #d62728; stroke: #d62728"/>
     <use xlink:href="#m53efff3b09" x="201.808537" y="220.922077" style="fill: #d62728; stroke: #d62728"/>
     <use xlink:href="#m53efff3b09" x="266.804442" y="200.765492" style="fill: #d62728; stroke: #d62728"/>
     <use xlink:href="#m53efff3b09" x="331.800347" y="201.974132" style="fill: #d62728; stroke: #d62728"/>
    </g>
   </g>
   <g id="line2d_29">
    <path d="M 71.816727 314.968 
L 73.116645 314.968 
L 73.441625 234.339153 
L 74.091584 243.563596 
L 74.416563 245.480638 
L 74.741543 237.009103 
L 75.066523 238.2857 
L 75.391502 238.13986 
L 75.716482 236.42972 
L 76.041461 236.426083 
L 76.366441 231.929519 
L 77.0164 228.757783 
L 77.341379 228.292535 
L 77.666359 228.683877 
L 77.991338 228.098659 
L 78.316318 226.022583 
L 78.966277 224.215057 
L 79.291256 222.659958 
L 79.616236 221.771629 
L 79.941215 219.8988 
L 80.266195 219.920683 
L 80.916154 219.633837 
L 81.241133 219.548887 
L 81.566113 219.323055 
L 81.891093 219.271824 
L 82.216072 219.386444 
L 82.541052 219.327992 
L 82.866031 219.089098 
L 83.191011 218.322847 
L 83.51599 218.182503 
L 83.84097 217.544176 
L 84.815908 217.391065 
L 85.465867 216.758266 
L 85.790847 216.7086 
L 86.440806 216.300317 
L 87.090765 216.471164 
L 87.415744 215.980463 
L 87.740724 216.034565 
L 88.065704 214.746699 
L 88.390683 214.627983 
L 89.040642 206.433119 
L 89.365622 206.230426 
L 90.015581 206.520205 
L 90.34056 205.116661 
L 91.640478 204.208922 
L 92.290437 204.494751 
L 92.615417 204.202943 
L 92.940396 204.333615 
L 93.265376 204.304157 
L 93.590355 204.101768 
L 93.915335 194.829864 
L 94.240314 195.131958 
L 94.565294 195.222174 
L 94.890274 195.062816 
L 95.540233 195.449523 
L 95.865212 195.333382 
L 96.840151 196.043408 
L 97.16513 195.843744 
L 97.49011 194.852224 
L 98.465048 195.026591 
L 99.439987 195.588437 
L 99.764966 195.684944 
L 100.089946 195.566314 
L 100.739905 195.97639 
L 102.039823 195.385181 
L 102.689782 195.750475 
L 103.339741 195.938667 
L 104.639659 196.478923 
L 105.939577 196.692312 
L 106.264557 196.475183 
L 106.589536 196.596431 
L 106.914516 196.5871 
L 107.239495 196.441459 
L 107.889455 196.555388 
L 108.214434 196.057776 
L 108.539414 196.148177 
L 108.864393 181.531591 
L 109.189373 182.091342 
L 109.839332 184.256515 
L 111.13925 187.13163 
L 111.789209 187.996066 
L 112.114188 188.198051 
L 112.439168 188.1972 
L 113.089127 188.764398 
L 113.414106 188.891576 
L 114.389045 189.764264 
L 115.363984 190.266714 
L 116.013943 189.985114 
L 117.313861 190.707853 
L 117.63884 190.610001 
L 117.96382 190.816995 
L 118.613779 191.032228 
L 119.263738 191.316802 
L 119.913697 191.527026 
L 120.238676 191.22734 
L 121.213615 191.641853 
L 122.188554 191.836569 
L 122.513533 73.048 
L 124.138431 86.256073 
L 126.413287 100.530196 
L 128.688144 111.577452 
L 129.338103 114.053297 
L 130.963001 119.861642 
L 132.912878 126.063484 
L 133.562837 127.671295 
L 134.212796 129.147745 
L 134.862755 130.585573 
L 135.837694 132.289412 
L 137.137612 135.174855 
L 137.462591 134.917868 
L 139.412468 138.813924 
L 140.062428 139.751699 
L 142.337284 143.351664 
L 143.637202 145.180403 
L 143.962182 145.272557 
L 146.562018 148.708815 
L 146.886998 147.351745 
L 149.161854 150.00181 
L 149.811813 150.578425 
L 151.111731 151.888997 
L 154.686506 155.090279 
L 155.011486 155.199562 
L 156.311404 156.225955 
L 156.636383 155.972054 
L 157.286342 156.425605 
L 157.611322 154.759669 
L 161.186097 157.437214 
L 163.785933 159.195737 
L 169.310585 162.088175 
L 169.960544 162.309016 
L 170.935482 162.757666 
L 171.260462 162.614962 
L 172.56038 163.223109 
L 173.210339 163.450742 
L 173.860298 163.692443 
L 174.185278 163.409198 
L 175.810175 164.092901 
L 176.460134 164.302103 
L 176.785114 164.123626 
L 177.435073 164.318125 
L 178.734991 164.858518 
L 181.334827 165.670409 
L 184.259643 166.560154 
L 184.584622 166.48882 
L 184.909602 166.613968 
L 185.559561 166.682228 
L 189.784295 167.796199 
L 190.109274 166.976041 
L 191.734172 167.470093 
L 193.35907 167.618906 
L 193.684049 167.188819 
L 198.233762 168.185397 
L 200.18364 168.544736 
L 201.808537 168.90887 
L 209.283066 170.497208 
L 209.933025 170.557776 
L 210.582984 170.656594 
L 212.207882 170.941799 
L 212.532862 170.266867 
L 213.5078 170.408977 
L 216.107636 170.816605 
L 216.757595 170.855191 
L 222.607227 171.656284 
L 225.532043 172.076715 
L 230.406735 172.710097 
L 230.731715 172.527769 
L 233.656531 172.845284 
L 234.631469 172.945959 
L 236.256367 173.170211 
L 236.906326 173.190135 
L 238.856203 173.319082 
L 241.13106 173.449594 
L 241.456039 173.322397 
L 244.380855 173.594296 
L 245.030814 173.616938 
L 245.355794 169.577188 
L 246.005753 170.052317 
L 246.980691 170.460591 
L 247.305671 169.732537 
L 249.580527 170.659078 
L 250.230486 170.8369 
L 250.555466 170.668804 
L 252.180364 171.130722 
L 252.505343 170.658183 
L 256.405097 171.31504 
L 257.055057 171.350816 
L 260.954811 171.962073 
L 263.879627 172.269359 
L 264.204606 171.855275 
L 273.629012 172.783593 
L 276.228848 173.019548 
L 280.128603 173.361071 
L 280.453582 172.983499 
L 283.053419 173.180304 
L 285.978234 173.254996 
L 287.278152 173.319781 
L 287.603132 172.750102 
L 290.527948 172.900783 
L 290.852927 172.876076 
L 291.177907 172.670989 
L 300.927292 173.216025 
L 301.252272 170.172356 
L 305.801985 170.573388 
L 306.451944 170.447 
L 308.401821 170.615267 
L 308.726801 170.045906 
L 312.626555 170.283394 
L 313.601494 170.326093 
L 316.52631 170.529601 
L 317.501248 170.520359 
L 321.725982 170.786469 
L 322.375941 170.712173 
L 323.0259 170.755004 
L 323.35088 165.862012 
L 330.17545 166.375597 
L 330.825409 166.3668 
L 333.750224 166.565441 
L 334.075204 165.813646 
L 335.050143 165.894192 
L 335.375122 164.746859 
L 336.350061 164.818756 
L 337.00002 164.725416 
L 337.974958 164.802612 
L 338.299938 164.561452 
L 340.249815 164.660467 
L 342.849651 164.729919 
L 356.173812 165.439136 
L 357.798709 165.463531 
L 360.073566 165.57717 
L 364.623279 165.766714 
L 364.948259 165.535338 
L 368.848013 165.74462 
L 371.12287 165.765842 
L 371.447849 165.658653 
L 373.397726 165.697085 
L 375.347604 165.554555 
L 384.122051 165.958615 
L 385.096989 165.961816 
L 388.996744 166.145408 
L 396.471273 166.375154 
L 396.471273 166.375154 
" clip-path="url(#pd30a6a9014)" style="fill: none; stroke: #9467bd; stroke-width: 2; stroke-linecap: square"/>
    <defs>
     <path id="mc09d2063ed" d="M -0 3 
L 3 -3 
L -3 -3 
z
" style="stroke: #9467bd; stroke-linejoin: miter"/>
    </defs>
    <g clip-path="url(#pd30a6a9014)">
     <use xlink:href="#mc09d2063ed" x="71.816727" y="314.968" style="fill: #9467bd; stroke: #9467bd; stroke-linejoin: miter"/>
     <use xlink:href="#mc09d2063ed" x="136.812632" y="134.536961" style="fill: #9467bd; stroke: #9467bd; stroke-linejoin: miter"/>
     <use xlink:href="#mc09d2063ed" x="201.808537" y="168.90887" style="fill: #9467bd; stroke: #9467bd; stroke-linejoin: miter"/>
     <use xlink:href="#mc09d2063ed" x="266.804442" y="172.171186" style="fill: #9467bd; stroke: #9467bd; stroke-linejoin: miter"/>
     <use xlink:href="#mc09d2063ed" x="331.800347" y="166.448201" style="fill: #9467bd; stroke: #9467bd; stroke-linejoin: miter"/>
    </g>
   </g>
   <g id="line2d_30">
    <path d="M 71.816727 314.968 
L 73.116645 314.968 
L 73.441625 243.750349 
L 73.766604 253.945808 
L 74.091584 255.608828 
L 74.416563 256.21618 
L 74.741543 254.718205 
L 75.391502 254.462344 
L 76.041461 251.109284 
L 76.366441 250.857252 
L 76.69142 250.422575 
L 77.0164 248.756649 
L 77.341379 248.224455 
L 77.666359 241.319074 
L 77.991338 241.69802 
L 78.316318 242.345467 
L 78.641297 242.072457 
L 78.966277 242.330993 
L 79.291256 241.358135 
L 80.266195 241.291707 
L 80.916154 240.158272 
L 81.241133 237.893353 
L 81.891093 238.529851 
L 82.216072 238.32625 
L 82.541052 238.296894 
L 82.866031 237.53331 
L 83.191011 237.229976 
L 83.84097 237.174987 
L 84.165949 237.126291 
L 84.490929 236.855199 
L 84.815908 236.931422 
L 85.140888 236.788547 
L 85.790847 235.995082 
L 87.090765 235.778148 
L 87.415744 235.356501 
L 88.065704 235.224603 
L 88.715663 234.836987 
L 89.040642 234.171465 
L 89.690601 234.234415 
L 91.315499 233.516984 
L 92.290437 233.401643 
L 92.615417 233.481223 
L 92.940396 233.032333 
L 93.265376 231.994196 
L 93.590355 231.544439 
L 94.890274 231.443066 
L 97.16513 231.196872 
L 97.815089 231.190276 
L 98.465048 230.91179 
L 99.115007 230.990801 
L 99.439987 230.991343 
L 100.089946 230.811131 
L 101.064885 230.710717 
L 101.389864 230.46624 
L 101.714844 230.423086 
L 102.039823 230.263518 
L 102.364803 229.821695 
L 102.689782 229.851737 
L 103.014762 229.386621 
L 103.339741 228.670729 
L 103.664721 228.419323 
L 104.639659 228.471294 
L 104.964639 227.343946 
L 105.614598 227.194284 
L 107.239495 226.702985 
L 107.564475 226.460929 
L 108.864393 226.477796 
L 109.839332 226.378113 
L 110.164311 226.115496 
L 110.489291 225.63388 
L 110.81427 225.553256 
L 111.13925 224.432829 
L 112.114188 224.207613 
L 112.439168 224.247133 
L 112.764147 223.419291 
L 113.414106 223.333767 
L 113.739086 223.147831 
L 114.064066 220.609454 
L 114.714025 220.678183 
L 115.039004 220.30941 
L 115.688963 220.265571 
L 116.663902 220.13534 
L 116.988881 219.943873 
L 118.938758 219.94661 
L 119.588717 219.842729 
L 120.238676 219.719833 
L 120.563656 219.591868 
L 121.213615 219.639334 
L 121.538595 218.707901 
L 122.838513 218.980693 
L 124.138431 218.884336 
L 124.46341 218.122058 
L 124.78839 217.921343 
L 126.088308 217.984944 
L 126.413287 217.984074 
L 126.738267 217.325888 
L 127.063247 217.35544 
L 127.388226 217.1355 
L 128.363165 217.05157 
L 129.338103 216.962409 
L 129.663083 216.562671 
L 130.313042 216.5004 
L 130.963001 216.492676 
L 131.28798 214.66369 
L 131.937939 214.578146 
L 132.912878 214.426804 
L 135.837694 214.354147 
L 137.787571 214.257696 
L 139.412468 214.304964 
L 139.737448 214.111833 
L 141.362346 214.16809 
L 141.687325 213.982819 
L 142.662264 213.958741 
L 146.562018 213.610315 
L 146.886998 213.471993 
L 147.536957 213.446358 
L 148.836875 213.188264 
L 150.136793 213.163749 
L 150.786752 212.922862 
L 151.436711 212.917202 
L 152.08667 212.683325 
L 153.711568 212.585309 
L 155.661445 212.40446 
L 159.886179 212.190771 
L 160.211158 212.064264 
L 162.161035 212.029644 
L 163.460953 211.9378 
L 165.085851 211.898269 
L 165.41083 211.886641 
L 165.73581 210.094051 
L 166.710749 210.098216 
L 173.210339 209.93014 
L 175.160216 209.944131 
L 176.785114 209.822414 
L 179.38495 209.78439 
L 179.70993 209.334042 
L 184.584622 209.15084 
L 185.234581 209.060106 
L 186.20952 209.072394 
L 187.509438 208.874352 
L 190.759233 208.654679 
L 191.734172 208.65362 
L 193.684049 208.661381 
L 195.633926 208.66716 
L 196.283885 208.597135 
L 197.583803 208.587357 
L 198.233762 208.53943 
L 200.833599 208.474948 
L 201.158578 208.225448 
L 203.758414 208.076589 
L 204.083394 207.748642 
L 204.733353 207.790943 
L 205.058333 207.634454 
L 215.457677 207.286048 
L 215.782657 207.135939 
L 218.382493 207.135069 
L 225.207063 207.131925 
L 225.532043 207.088626 
L 226.182002 206.838849 
L 228.131879 206.783966 
L 229.431797 206.70306 
L 231.706654 206.6778 
L 232.031633 206.66277 
L 233.006572 205.72032 
L 235.281428 205.58567 
L 236.906326 205.532252 
L 240.156121 205.531486 
L 240.481101 205.543569 
L 240.80608 205.254026 
L 243.405916 205.307655 
L 244.705835 205.137143 
L 253.480282 205.046337 
L 253.805261 204.741254 
L 254.45522 204.654595 
L 255.755138 204.633667 
L 257.380036 204.570449 
L 258.029995 204.426824 
L 259.979872 204.460363 
L 261.929749 204.489044 
L 262.254729 204.301773 
L 268.42934 204.223114 
L 268.754319 203.755608 
L 272.329094 203.795676 
L 275.903869 203.68737 
L 278.503705 203.702655 
L 280.128603 203.600182 
L 280.453582 203.422352 
L 281.7535 203.371654 
L 282.403459 203.254007 
L 284.678316 203.214432 
L 286.953173 203.146171 
L 287.603132 203.135657 
L 287.928111 202.926567 
L 290.202968 202.952994 
L 291.827866 202.942322 
L 294.102722 202.939044 
L 294.427702 202.77238 
L 295.72762 202.752396 
L 296.377579 202.662444 
L 300.277333 202.668814 
L 301.577251 202.553324 
L 307.101903 202.21869 
L 307.426883 201.108735 
L 315.226391 201.041849 
L 327.900593 201.063551 
L 329.200511 201.04205 
L 335.700102 200.904323 
L 336.025081 200.86023 
L 336.350061 199.587364 
L 337.649979 199.532632 
L 338.949897 199.568359 
L 341.224753 199.641703 
L 342.849651 199.557024 
L 347.074385 199.609246 
L 348.049324 199.568552 
L 348.699283 199.537688 
L 353.248996 199.662628 
L 353.573975 199.546304 
L 362.998382 199.55043 
L 363.648341 199.453636 
L 364.948259 199.44388 
L 365.598218 199.421006 
L 365.923197 194.200359 
L 368.848013 194.194779 
L 369.172993 194.190006 
L 369.497972 194.014552 
L 372.097808 194.01647 
L 372.422788 193.237818 
L 380.547276 193.345978 
L 384.122051 193.419432 
L 384.44703 192.747996 
L 385.096989 192.700539 
L 385.421969 192.694192 
L 385.746948 189.78542 
L 386.721887 189.794459 
L 389.321723 189.819074 
L 396.471273 189.925568 
L 396.471273 189.925568 
" clip-path="url(#pd30a6a9014)" style="fill: none; stroke: #8c564b; stroke-width: 2; stroke-linecap: square"/>
    <defs>
     <path id="m550beecc1f" d="M -0 4.242641 
L 2.545584 0 
L 0 -4.242641 
L -2.545584 -0 
z
" style="stroke: #8c564b; stroke-linejoin: miter"/>
    </defs>
    <g clip-path="url(#pd30a6a9014)">
     <use xlink:href="#m550beecc1f" x="71.816727" y="314.968" style="fill: #8c564b; stroke: #8c564b; stroke-linejoin: miter"/>
     <use xlink:href="#m550beecc1f" x="136.812632" y="214.243683" style="fill: #8c564b; stroke: #8c564b; stroke-linejoin: miter"/>
     <use xlink:href="#m550beecc1f" x="201.808537" y="208.220893" style="fill: #8c564b; stroke: #8c564b; stroke-linejoin: miter"/>
     <use xlink:href="#m550beecc1f" x="266.804442" y="204.210799" style="fill: #8c564b; stroke: #8c564b; stroke-linejoin: miter"/>
     <use xlink:href="#m550beecc1f" x="331.800347" y="201.050424" style="fill: #8c564b; stroke: #8c564b; stroke-linejoin: miter"/>
    </g>
   </g>
   <g id="line2d_31">
    <path d="M 71.816727 314.968 
L 73.116645 314.968 
L 73.441625 73.30692 
L 73.766604 219.668196 
L 74.091584 254.395605 
L 74.416563 268.206218 
L 74.741543 276.675716 
L 75.391502 284.451862 
L 75.716482 287.654244 
L 76.041461 288.254115 
L 76.366441 291.195389 
L 76.69142 292.961794 
L 77.0164 292.39056 
L 77.341379 294.394992 
L 77.991338 296.414813 
L 78.316318 297.114884 
L 78.641297 297.3698 
L 78.966277 291.384489 
L 79.291256 295.723607 
L 79.616236 296.794633 
L 80.266195 298.116588 
L 80.591174 298.289882 
L 80.916154 298.877396 
L 81.566113 299.412675 
L 81.891093 299.387062 
L 82.216072 299.80585 
L 84.165949 301.086815 
L 84.490929 300.823276 
L 85.140888 301.303015 
L 85.790847 301.63084 
L 86.440806 301.910941 
L 86.765785 300.349869 
L 87.090765 301.378139 
L 87.415744 301.739195 
L 88.065704 302.041078 
L 88.390683 283.67813 
L 88.715663 294.014056 
L 89.040642 296.34022 
L 89.365622 296.97095 
L 90.34056 297.369387 
L 90.66554 297.307481 
L 90.990519 297.115762 
L 91.640478 297.489439 
L 92.290437 297.651446 
L 92.615417 297.597267 
L 92.940396 297.421513 
L 93.265376 297.62297 
L 93.915335 297.715881 
L 95.540233 298.017147 
L 95.865212 298.002259 
L 96.190192 297.78759 
L 96.840151 298.044375 
L 102.364803 298.342571 
L 102.689782 298.289629 
L 103.9897 298.512416 
L 104.31468 298.453737 
L 105.289618 298.554723 
L 105.939577 298.590773 
L 106.264557 298.48744 
L 108.539414 298.693077 
L 109.189373 298.698668 
L 109.514352 298.548524 
L 110.489291 298.731587 
L 110.81427 298.724746 
L 111.13925 298.402596 
L 112.114188 298.68237 
L 112.439168 298.70612 
L 112.764147 298.445709 
L 113.414106 298.660958 
L 116.338922 298.672326 
L 117.313861 298.664623 
L 118.288799 298.740427 
L 121.538595 298.721942 
L 121.863574 298.208876 
L 122.188554 298.558302 
L 122.838513 298.643699 
L 123.163492 297.156057 
L 123.488472 297.80496 
L 123.813451 298.12293 
L 124.46341 298.177988 
L 125.438349 298.22553 
L 129.988062 298.36308 
L 130.313042 298.195164 
L 130.638021 298.305382 
L 130.963001 298.154081 
L 131.61296 298.301938 
L 132.587898 298.336554 
L 133.237857 298.345558 
L 133.562837 297.539813 
L 133.887817 298.005135 
L 134.537776 298.154228 
L 134.862755 298.001153 
L 135.187735 296.980549 
L 135.512714 297.628709 
L 136.162673 297.816268 
L 137.137612 297.841037 
L 137.462591 297.44349 
L 137.787571 297.668597 
L 138.762509 297.751211 
L 139.737448 297.78436 
L 140.062428 297.612758 
L 140.387407 297.692897 
L 140.712387 297.638789 
L 141.687325 297.75686 
L 143.312223 297.774675 
L 145.2621 297.78177 
L 145.912059 297.204452 
L 146.237038 297.51125 
L 146.886998 297.588543 
L 149.161854 297.616842 
L 151.436711 297.672416 
L 152.08667 297.692249 
L 152.411649 297.469772 
L 153.061609 297.615309 
L 162.161035 297.779314 
L 163.785933 297.798792 
L 168.335646 297.846637 
L 168.660626 297.756977 
L 169.310585 297.786709 
L 169.635564 297.682907 
L 170.285523 297.795864 
L 176.785114 297.840416 
L 177.110093 297.732339 
L 177.760052 297.815587 
L 179.70993 297.811588 
L 181.984786 297.832669 
L 182.634745 297.817107 
L 183.284704 297.797577 
L 183.609684 297.738718 
L 184.584622 297.81766 
L 189.784295 297.85773 
L 190.109274 297.681338 
L 190.759233 297.823215 
L 201.483558 297.876037 
L 202.133517 297.864889 
L 204.408373 297.841184 
L 206.033271 297.841709 
L 206.358251 296.213525 
L 206.68323 297.114196 
L 207.00821 297.335525 
L 208.308128 297.40161 
L 222.607227 297.37043 
L 229.431797 297.422651 
L 236.906326 297.425734 
L 238.206244 297.391354 
L 239.831142 297.43303 
L 244.705835 297.453423 
L 245.355794 297.385231 
L 246.655712 297.434407 
L 252.180364 297.437372 
L 252.830323 297.406754 
L 255.105179 297.437158 
L 272.979053 297.436496 
L 273.304033 297.016092 
L 273.629012 297.256937 
L 274.603951 297.325789 
L 281.7535 297.363805 
L 298.977415 297.38827 
L 299.302395 297.242666 
L 299.952354 297.343241 
L 300.277333 297.335375 
L 300.602313 296.394959 
L 300.927292 296.881692 
L 301.577251 297.054791 
L 302.55219 297.053879 
L 306.776924 297.062829 
L 309.37676 297.076326 
L 316.851289 297.073208 
L 317.176269 296.873591 
L 317.826228 297.012757 
L 322.050962 297.027458 
L 322.375941 296.935051 
L 323.35088 297.00753 
L 325.625736 297.012133 
L 333.100265 297.01237 
L 341.224753 297.052429 
L 351.299119 297.048912 
L 353.898955 297.047757 
L 354.223934 296.797664 
L 354.873894 296.974707 
L 360.723525 296.990371 
L 363.97332 296.990998 
L 382.172174 297.0246 
L 384.77201 297.013152 
L 387.696826 297.030218 
L 396.471273 297.050389 
L 396.471273 297.050389 
" clip-path="url(#pd30a6a9014)" style="fill: none; stroke: #e377c2; stroke-width: 2; stroke-linecap: square"/>
    <defs>
     <path id="med9244f676" d="M 0 0 
L 0 3 
M 0 0 
L 2.4 -1.5 
M 0 0 
L -2.4 -1.5 
" style="stroke: #e377c2"/>
    </defs>
    <g clip-path="url(#pd30a6a9014)">
     <use xlink:href="#med9244f676" x="71.816727" y="314.968" style="fill: #e377c2; stroke: #e377c2"/>
     <use xlink:href="#med9244f676" x="136.812632" y="297.832475" style="fill: #e377c2; stroke: #e377c2"/>
     <use xlink:href="#med9244f676" x="201.808537" y="297.831485" style="fill: #e377c2; stroke: #e377c2"/>
     <use xlink:href="#med9244f676" x="266.804442" y="297.415217" style="fill: #e377c2; stroke: #e377c2"/>
     <use xlink:href="#med9244f676" x="331.800347" y="297.02398" style="fill: #e377c2; stroke: #e377c2"/>
    </g>
   </g>
   <g id="patch_3">
    <path d="M 55.584 327.064 
L 55.584 60.952 
" style="fill: none; stroke: #000000; stroke-width: 0.8; stroke-linejoin: miter; stroke-linecap: square"/>
   </g>
   <g id="patch_4">
    <path d="M 412.704 327.064 
L 412.704 60.952 
" style="fill: none; stroke: #000000; stroke-width: 0.8; stroke-linejoin: miter; stroke-linecap: square"/>
   </g>
   <g id="patch_5">
    <path d="M 55.584 327.064 
L 412.704 327.064 
" style="fill: none; stroke: #000000; stroke-width: 0.8; stroke-linejoin: miter; stroke-linecap: square"/>
   </g>
   <g id="patch_6">
    <path d="M 55.584 60.952 
L 412.704 60.952 
" style="fill: none; stroke: #000000; stroke-width: 0.8; stroke-linejoin: miter; stroke-linecap: square"/>
   </g>
   <g id="legend_1">
    <g id="patch_7">
     <path d="M 44.554313 54.278125 
L 412.213687 54.278125 
Q 414.213687 54.278125 414.213687 52.278125 
L 414.213687 9.2 
Q 414.213687 7.2 412.213687 7.2 
L 44.554313 7.2 
Q 42.554313 7.2 42.554313 9.2 
L 42.554313 52.278125 
Q 42.554313 54.278125 44.554313 54.278125 
z
" style="fill: #ffffff; opacity: 0.8; stroke: #cccccc; stroke-linejoin: miter"/>
    </g>
    <g id="line2d_32">
     <path d="M 46.554313 15.298437 
L 56.554313 15.298437 
L 66.554313 15.298437 
" style="fill: none; stroke: #1f77b4; stroke-width: 2; stroke-linecap: square"/>
     <g>
      <use xlink:href="#m997ec3721f" x="56.554313" y="15.298437" style="fill: #1f77b4; stroke: #1f77b4"/>
     </g>
    </g>
    <g id="text_13">
     <!-- $\kappa$ = 0.02 -->
     <g transform="translate(74.554313 18.798437) scale(0.1 -0.1)">
      <defs>
       <path id="DejaVuSans-Oblique-3ba" d="M 938 3500 
L 1531 3500 
L 1247 2047 
L 3041 3500 
L 3741 3500 
L 2106 2181 
L 3275 0 
L 2572 0 
L 1628 1806 
L 1122 1403 
L 850 0 
L 256 0 
L 938 3500 
z
" transform="scale(0.015625)"/>
       <path id="DejaVuSans-20" transform="scale(0.015625)"/>
       <path id="DejaVuSans-3d" d="M 678 2906 
L 4684 2906 
L 4684 2381 
L 678 2381 
L 678 2906 
z
M 678 1631 
L 4684 1631 
L 4684 1100 
L 678 1100 
L 678 1631 
z
" transform="scale(0.015625)"/>
       <path id="DejaVuSans-2e" d="M 684 794 
L 1344 794 
L 1344 0 
L 684 0 
L 684 794 
z
" transform="scale(0.015625)"/>
      </defs>
      <use xlink:href="#DejaVuSans-Oblique-3ba" transform="translate(0 0.78125)"/>
      <use xlink:href="#DejaVuSans-20" transform="translate(58.935547 0.78125)"/>
      <use xlink:href="#DejaVuSans-3d" transform="translate(90.722656 0.78125)"/>
      <use xlink:href="#DejaVuSans-20" transform="translate(174.511719 0.78125)"/>
      <use xlink:href="#DejaVuSans-30" transform="translate(206.298828 0.78125)"/>
      <use xlink:href="#DejaVuSans-2e" transform="translate(269.921875 0.78125)"/>
      <use xlink:href="#DejaVuSans-30" transform="translate(301.708984 0.78125)"/>
      <use xlink:href="#DejaVuSans-32" transform="translate(365.332031 0.78125)"/>
     </g>
    </g>
    <g id="line2d_33">
     <path d="M 46.554313 29.978125 
L 56.554313 29.978125 
L 66.554313 29.978125 
" style="fill: none; stroke: #ff7f0e; stroke-width: 2; stroke-linecap: square"/>
     <g>
      <use xlink:href="#ma1e703295d" x="56.554313" y="29.978125" style="fill: #ff7f0e; stroke: #ff7f0e; stroke-linejoin: miter"/>
     </g>
    </g>
    <g id="text_14">
     <!-- Constant-edge ($\alpha$ = 0.333) -->
     <g transform="translate(74.554313 33.478125) scale(0.1 -0.1)">
      <defs>
       <path id="DejaVuSans-43" d="M 4122 4306 
L 4122 3641 
Q 3803 3938 3442 4084 
Q 3081 4231 2675 4231 
Q 1875 4231 1450 3742 
Q 1025 3253 1025 2328 
Q 1025 1406 1450 917 
Q 1875 428 2675 428 
Q 3081 428 3442 575 
Q 3803 722 4122 1019 
L 4122 359 
Q 3791 134 3420 21 
Q 3050 -91 2638 -91 
Q 1578 -91 968 557 
Q 359 1206 359 2328 
Q 359 3453 968 4101 
Q 1578 4750 2638 4750 
Q 3056 4750 3426 4639 
Q 3797 4528 4122 4306 
z
" transform="scale(0.015625)"/>
       <path id="DejaVuSans-6f" d="M 1959 3097 
Q 1497 3097 1228 2736 
Q 959 2375 959 1747 
Q 959 1119 1226 758 
Q 1494 397 1959 397 
Q 2419 397 2687 759 
Q 2956 1122 2956 1747 
Q 2956 2369 2687 2733 
Q 2419 3097 1959 3097 
z
M 1959 3584 
Q 2709 3584 3137 3096 
Q 3566 2609 3566 1747 
Q 3566 888 3137 398 
Q 2709 -91 1959 -91 
Q 1206 -91 779 398 
Q 353 888 353 1747 
Q 353 2609 779 3096 
Q 1206 3584 1959 3584 
z
" transform="scale(0.015625)"/>
       <path id="DejaVuSans-6e" d="M 3513 2113 
L 3513 0 
L 2938 0 
L 2938 2094 
Q 2938 2591 2744 2837 
Q 2550 3084 2163 3084 
Q 1697 3084 1428 2787 
Q 1159 2491 1159 1978 
L 1159 0 
L 581 0 
L 581 3500 
L 1159 3500 
L 1159 2956 
Q 1366 3272 1645 3428 
Q 1925 3584 2291 3584 
Q 2894 3584 3203 3211 
Q 3513 2838 3513 2113 
z
" transform="scale(0.015625)"/>
       <path id="DejaVuSans-73" d="M 2834 3397 
L 2834 2853 
Q 2591 2978 2328 3040 
Q 2066 3103 1784 3103 
Q 1356 3103 1142 2972 
Q 928 2841 928 2578 
Q 928 2378 1081 2264 
Q 1234 2150 1697 2047 
L 1894 2003 
Q 2506 1872 2764 1633 
Q 3022 1394 3022 966 
Q 3022 478 2636 193 
Q 2250 -91 1575 -91 
Q 1294 -91 989 -36 
Q 684 19 347 128 
L 347 722 
Q 666 556 975 473 
Q 1284 391 1588 391 
Q 1994 391 2212 530 
Q 2431 669 2431 922 
Q 2431 1156 2273 1281 
Q 2116 1406 1581 1522 
L 1381 1569 
Q 847 1681 609 1914 
Q 372 2147 372 2553 
Q 372 3047 722 3315 
Q 1072 3584 1716 3584 
Q 2034 3584 2315 3537 
Q 2597 3491 2834 3397 
z
" transform="scale(0.015625)"/>
       <path id="DejaVuSans-74" d="M 1172 4494 
L 1172 3500 
L 2356 3500 
L 2356 3053 
L 1172 3053 
L 1172 1153 
Q 1172 725 1289 603 
Q 1406 481 1766 481 
L 2356 481 
L 2356 0 
L 1766 0 
Q 1100 0 847 248 
Q 594 497 594 1153 
L 594 3053 
L 172 3053 
L 172 3500 
L 594 3500 
L 594 4494 
L 1172 4494 
z
" transform="scale(0.015625)"/>
       <path id="DejaVuSans-61" d="M 2194 1759 
Q 1497 1759 1228 1600 
Q 959 1441 959 1056 
Q 959 750 1161 570 
Q 1363 391 1709 391 
Q 2188 391 2477 730 
Q 2766 1069 2766 1631 
L 2766 1759 
L 2194 1759 
z
M 3341 1997 
L 3341 0 
L 2766 0 
L 2766 531 
Q 2569 213 2275 61 
Q 1981 -91 1556 -91 
Q 1019 -91 701 211 
Q 384 513 384 1019 
Q 384 1609 779 1909 
Q 1175 2209 1959 2209 
L 2766 2209 
L 2766 2266 
Q 2766 2663 2505 2880 
Q 2244 3097 1772 3097 
Q 1472 3097 1187 3025 
Q 903 2953 641 2809 
L 641 3341 
Q 956 3463 1253 3523 
Q 1550 3584 1831 3584 
Q 2591 3584 2966 3190 
Q 3341 2797 3341 1997 
z
" transform="scale(0.015625)"/>
       <path id="DejaVuSans-2d" d="M 313 2009 
L 1997 2009 
L 1997 1497 
L 313 1497 
L 313 2009 
z
" transform="scale(0.015625)"/>
       <path id="DejaVuSans-65" d="M 3597 1894 
L 3597 1613 
L 953 1613 
Q 991 1019 1311 708 
Q 1631 397 2203 397 
Q 2534 397 2845 478 
Q 3156 559 3463 722 
L 3463 178 
Q 3153 47 2828 -22 
Q 2503 -91 2169 -91 
Q 1331 -91 842 396 
Q 353 884 353 1716 
Q 353 2575 817 3079 
Q 1281 3584 2069 3584 
Q 2775 3584 3186 3129 
Q 3597 2675 3597 1894 
z
M 3022 2063 
Q 3016 2534 2758 2815 
Q 2500 3097 2075 3097 
Q 1594 3097 1305 2825 
Q 1016 2553 972 2059 
L 3022 2063 
z
" transform="scale(0.015625)"/>
       <path id="DejaVuSans-64" d="M 2906 2969 
L 2906 4863 
L 3481 4863 
L 3481 0 
L 2906 0 
L 2906 525 
Q 2725 213 2448 61 
Q 2172 -91 1784 -91 
Q 1150 -91 751 415 
Q 353 922 353 1747 
Q 353 2572 751 3078 
Q 1150 3584 1784 3584 
Q 2172 3584 2448 3432 
Q 2725 3281 2906 2969 
z
M 947 1747 
Q 947 1113 1208 752 
Q 1469 391 1925 391 
Q 2381 391 2643 752 
Q 2906 1113 2906 1747 
Q 2906 2381 2643 2742 
Q 2381 3103 1925 3103 
Q 1469 3103 1208 2742 
Q 947 2381 947 1747 
z
" transform="scale(0.015625)"/>
       <path id="DejaVuSans-67" d="M 2906 1791 
Q 2906 2416 2648 2759 
Q 2391 3103 1925 3103 
Q 1463 3103 1205 2759 
Q 947 2416 947 1791 
Q 947 1169 1205 825 
Q 1463 481 1925 481 
Q 2391 481 2648 825 
Q 2906 1169 2906 1791 
z
M 3481 434 
Q 3481 -459 3084 -895 
Q 2688 -1331 1869 -1331 
Q 1566 -1331 1297 -1286 
Q 1028 -1241 775 -1147 
L 775 -588 
Q 1028 -725 1275 -790 
Q 1522 -856 1778 -856 
Q 2344 -856 2625 -561 
Q 2906 -266 2906 331 
L 2906 616 
Q 2728 306 2450 153 
Q 2172 0 1784 0 
Q 1141 0 747 490 
Q 353 981 353 1791 
Q 353 2603 747 3093 
Q 1141 3584 1784 3584 
Q 2172 3584 2450 3431 
Q 2728 3278 2906 2969 
L 2906 3500 
L 3481 3500 
L 3481 434 
z
" transform="scale(0.015625)"/>
       <path id="DejaVuSans-28" d="M 1984 4856 
Q 1566 4138 1362 3434 
Q 1159 2731 1159 2009 
Q 1159 1288 1364 580 
Q 1569 -128 1984 -844 
L 1484 -844 
Q 1016 -109 783 600 
Q 550 1309 550 2009 
Q 550 2706 781 3412 
Q 1013 4119 1484 4856 
L 1984 4856 
z
" transform="scale(0.015625)"/>
       <path id="DejaVuSans-Oblique-3b1" d="M 2619 1628 
L 2622 2350 
Q 2625 3088 2069 3091 
Q 1653 3094 1394 2747 
Q 1069 2319 959 1747 
Q 825 1059 994 731 
Q 1169 397 1547 397 
Q 1966 397 2319 1063 
L 2619 1628 
z
M 2166 3578 
Q 3141 3594 3128 2584 
Q 3128 2584 3616 3500 
L 4128 3500 
L 3119 1603 
L 3109 919 
Q 3109 766 3194 638 
Q 3291 488 3391 488 
L 3669 488 
L 3575 0 
L 3228 0 
Q 2934 0 2722 263 
Q 2622 394 2619 669 
Q 2416 334 2066 50 
Q 1900 -81 1453 -78 
Q 722 -72 456 397 
Q 184 884 353 1747 
Q 534 2675 1009 3097 
Q 1544 3569 2166 3578 
z
" transform="scale(0.015625)"/>
       <path id="DejaVuSans-33" d="M 2597 2516 
Q 3050 2419 3304 2112 
Q 3559 1806 3559 1356 
Q 3559 666 3084 287 
Q 2609 -91 1734 -91 
Q 1441 -91 1130 -33 
Q 819 25 488 141 
L 488 750 
Q 750 597 1062 519 
Q 1375 441 1716 441 
Q 2309 441 2620 675 
Q 2931 909 2931 1356 
Q 2931 1769 2642 2001 
Q 2353 2234 1838 2234 
L 1294 2234 
L 1294 2753 
L 1863 2753 
Q 2328 2753 2575 2939 
Q 2822 3125 2822 3475 
Q 2822 3834 2567 4026 
Q 2313 4219 1838 4219 
Q 1578 4219 1281 4162 
Q 984 4106 628 3988 
L 628 4550 
Q 988 4650 1302 4700 
Q 1616 4750 1894 4750 
Q 2613 4750 3031 4423 
Q 3450 4097 3450 3541 
Q 3450 3153 3228 2886 
Q 3006 2619 2597 2516 
z
" transform="scale(0.015625)"/>
       <path id="DejaVuSans-29" d="M 513 4856 
L 1013 4856 
Q 1481 4119 1714 3412 
Q 1947 2706 1947 2009 
Q 1947 1309 1714 600 
Q 1481 -109 1013 -844 
L 513 -844 
Q 928 -128 1133 580 
Q 1338 1288 1338 2009 
Q 1338 2731 1133 3434 
Q 928 4138 513 4856 
z
" transform="scale(0.015625)"/>
      </defs>
      <use xlink:href="#DejaVuSans-43" transform="translate(0 0.015625)"/>
      <use xlink:href="#DejaVuSans-6f" transform="translate(69.824219 0.015625)"/>
      <use xlink:href="#DejaVuSans-6e" transform="translate(131.005859 0.015625)"/>
      <use xlink:href="#DejaVuSans-73" transform="translate(194.384766 0.015625)"/>
      <use xlink:href="#DejaVuSans-74" transform="translate(246.484375 0.015625)"/>
      <use xlink:href="#DejaVuSans-61" transform="translate(285.693359 0.015625)"/>
      <use xlink:href="#DejaVuSans-6e" transform="translate(346.972656 0.015625)"/>
      <use xlink:href="#DejaVuSans-74" transform="translate(410.351562 0.015625)"/>
      <use xlink:href="#DejaVuSans-2d" transform="translate(449.560547 0.015625)"/>
      <use xlink:href="#DejaVuSans-65" transform="translate(485.644531 0.015625)"/>
      <use xlink:href="#DejaVuSans-64" transform="translate(547.167969 0.015625)"/>
      <use xlink:href="#DejaVuSans-67" transform="translate(610.644531 0.015625)"/>
      <use xlink:href="#DejaVuSans-65" transform="translate(674.121094 0.015625)"/>
      <use xlink:href="#DejaVuSans-20" transform="translate(735.644531 0.015625)"/>
      <use xlink:href="#DejaVuSans-28" transform="translate(767.431641 0.015625)"/>
      <use xlink:href="#DejaVuSans-Oblique-3b1" transform="translate(806.445312 0.015625)"/>
      <use xlink:href="#DejaVuSans-20" transform="translate(872.363281 0.015625)"/>
      <use xlink:href="#DejaVuSans-3d" transform="translate(904.150391 0.015625)"/>
      <use xlink:href="#DejaVuSans-20" transform="translate(987.939453 0.015625)"/>
      <use xlink:href="#DejaVuSans-30" transform="translate(1019.726562 0.015625)"/>
      <use xlink:href="#DejaVuSans-2e" transform="translate(1083.349609 0.015625)"/>
      <use xlink:href="#DejaVuSans-33" transform="translate(1115.136719 0.015625)"/>
      <use xlink:href="#DejaVuSans-33" transform="translate(1178.759766 0.015625)"/>
      <use xlink:href="#DejaVuSans-33" transform="translate(1242.382812 0.015625)"/>
      <use xlink:href="#DejaVuSans-29" transform="translate(1306.005859 0.015625)"/>
     </g>
    </g>
    <g id="line2d_34">
     <path d="M 46.554313 44.678125 
L 56.554313 44.678125 
L 66.554313 44.678125 
" style="fill: none; stroke: #2ca02c; stroke-width: 2; stroke-linecap: square"/>
     <g>
      <use xlink:href="#m1bd243de16" x="56.554313" y="44.678125" style="fill: #2ca02c; stroke: #2ca02c; stroke-linejoin: miter"/>
     </g>
    </g>
    <g id="text_15">
     <!-- Maximum-degree ($\alpha$ = 0.500) -->
     <g transform="translate(74.554313 48.178125) scale(0.1 -0.1)">
      <defs>
       <path id="DejaVuSans-4d" d="M 628 4666 
L 1569 4666 
L 2759 1491 
L 3956 4666 
L 4897 4666 
L 4897 0 
L 4281 0 
L 4281 4097 
L 3078 897 
L 2444 897 
L 1241 4097 
L 1241 0 
L 628 0 
L 628 4666 
z
" transform="scale(0.015625)"/>
       <path id="DejaVuSans-78" d="M 3513 3500 
L 2247 1797 
L 3578 0 
L 2900 0 
L 1881 1375 
L 863 0 
L 184 0 
L 1544 1831 
L 300 3500 
L 978 3500 
L 1906 2253 
L 2834 3500 
L 3513 3500 
z
" transform="scale(0.015625)"/>
       <path id="DejaVuSans-69" d="M 603 3500 
L 1178 3500 
L 1178 0 
L 603 0 
L 603 3500 
z
M 603 4863 
L 1178 4863 
L 1178 4134 
L 603 4134 
L 603 4863 
z
" transform="scale(0.015625)"/>
       <path id="DejaVuSans-6d" d="M 3328 2828 
Q 3544 3216 3844 3400 
Q 4144 3584 4550 3584 
Q 5097 3584 5394 3201 
Q 5691 2819 5691 2113 
L 5691 0 
L 5113 0 
L 5113 2094 
Q 5113 2597 4934 2840 
Q 4756 3084 4391 3084 
Q 3944 3084 3684 2787 
Q 3425 2491 3425 1978 
L 3425 0 
L 2847 0 
L 2847 2094 
Q 2847 2600 2669 2842 
Q 2491 3084 2119 3084 
Q 1678 3084 1418 2786 
Q 1159 2488 1159 1978 
L 1159 0 
L 581 0 
L 581 3500 
L 1159 3500 
L 1159 2956 
Q 1356 3278 1631 3431 
Q 1906 3584 2284 3584 
Q 2666 3584 2933 3390 
Q 3200 3197 3328 2828 
z
" transform="scale(0.015625)"/>
       <path id="DejaVuSans-75" d="M 544 1381 
L 544 3500 
L 1119 3500 
L 1119 1403 
Q 1119 906 1312 657 
Q 1506 409 1894 409 
Q 2359 409 2629 706 
Q 2900 1003 2900 1516 
L 2900 3500 
L 3475 3500 
L 3475 0 
L 2900 0 
L 2900 538 
Q 2691 219 2414 64 
Q 2138 -91 1772 -91 
Q 1169 -91 856 284 
Q 544 659 544 1381 
z
M 1991 3584 
L 1991 3584 
z
" transform="scale(0.015625)"/>
       <path id="DejaVuSans-72" d="M 2631 2963 
Q 2534 3019 2420 3045 
Q 2306 3072 2169 3072 
Q 1681 3072 1420 2755 
Q 1159 2438 1159 1844 
L 1159 0 
L 581 0 
L 581 3500 
L 1159 3500 
L 1159 2956 
Q 1341 3275 1631 3429 
Q 1922 3584 2338 3584 
Q 2397 3584 2469 3576 
Q 2541 3569 2628 3553 
L 2631 2963 
z
" transform="scale(0.015625)"/>
      </defs>
      <use xlink:href="#DejaVuSans-4d" transform="translate(0 0.015625)"/>
      <use xlink:href="#DejaVuSans-61" transform="translate(86.279297 0.015625)"/>
      <use xlink:href="#DejaVuSans-78" transform="translate(147.558594 0.015625)"/>
      <use xlink:href="#DejaVuSans-69" transform="translate(206.738281 0.015625)"/>
      <use xlink:href="#DejaVuSans-6d" transform="translate(234.521484 0.015625)"/>
      <use xlink:href="#DejaVuSans-75" transform="translate(331.933594 0.015625)"/>
      <use xlink:href="#DejaVuSans-6d" transform="translate(395.3125 0.015625)"/>
      <use xlink:href="#DejaVuSans-2d" transform="translate(490.974609 0.015625)"/>
      <use xlink:href="#DejaVuSans-64" transform="translate(527.058594 0.015625)"/>
      <use xlink:href="#DejaVuSans-65" transform="translate(590.535156 0.015625)"/>
      <use xlink:href="#DejaVuSans-67" transform="translate(652.058594 0.015625)"/>
      <use xlink:href="#DejaVuSans-72" transform="translate(715.535156 0.015625)"/>
      <use xlink:href="#DejaVuSans-65" transform="translate(756.648438 0.015625)"/>
      <use xlink:href="#DejaVuSans-65" transform="translate(818.171875 0.015625)"/>
      <use xlink:href="#DejaVuSans-20" transform="translate(879.695312 0.015625)"/>
      <use xlink:href="#DejaVuSans-28" transform="translate(911.482422 0.015625)"/>
      <use xlink:href="#DejaVuSans-Oblique-3b1" transform="translate(950.496094 0.015625)"/>
      <use xlink:href="#DejaVuSans-20" transform="translate(1016.414062 0.015625)"/>
      <use xlink:href="#DejaVuSans-3d" transform="translate(1048.201172 0.015625)"/>
      <use xlink:href="#DejaVuSans-20" transform="translate(1131.990234 0.015625)"/>
      <use xlink:href="#DejaVuSans-30" transform="translate(1163.777344 0.015625)"/>
      <use xlink:href="#DejaVuSans-2e" transform="translate(1227.400391 0.015625)"/>
      <use xlink:href="#DejaVuSans-35" transform="translate(1259.1875 0.015625)"/>
      <use xlink:href="#DejaVuSans-30" transform="translate(1322.810547 0.015625)"/>
      <use xlink:href="#DejaVuSans-30" transform="translate(1386.433594 0.015625)"/>
      <use xlink:href="#DejaVuSans-29" transform="translate(1450.056641 0.015625)"/>
     </g>
    </g>
    <g id="line2d_35">
     <path d="M 243.554313 15.298437 
L 253.554313 15.298437 
L 263.554313 15.298437 
" style="fill: none; stroke: #d62728; stroke-width: 2; stroke-linecap: square"/>
     <g>
      <use xlink:href="#m53efff3b09" x="253.554313" y="15.298437" style="fill: #d62728; stroke: #d62728"/>
     </g>
    </g>
    <g id="text_16">
     <!-- Local-degree -->
     <g transform="translate(271.554313 18.798437) scale(0.1 -0.1)">
      <defs>
       <path id="DejaVuSans-4c" d="M 628 4666 
L 1259 4666 
L 1259 531 
L 3531 531 
L 3531 0 
L 628 0 
L 628 4666 
z
" transform="scale(0.015625)"/>
       <path id="DejaVuSans-63" d="M 3122 3366 
L 3122 2828 
Q 2878 2963 2633 3030 
Q 2388 3097 2138 3097 
Q 1578 3097 1268 2742 
Q 959 2388 959 1747 
Q 959 1106 1268 751 
Q 1578 397 2138 397 
Q 2388 397 2633 464 
Q 2878 531 3122 666 
L 3122 134 
Q 2881 22 2623 -34 
Q 2366 -91 2075 -91 
Q 1284 -91 818 406 
Q 353 903 353 1747 
Q 353 2603 823 3093 
Q 1294 3584 2113 3584 
Q 2378 3584 2631 3529 
Q 2884 3475 3122 3366 
z
" transform="scale(0.015625)"/>
       <path id="DejaVuSans-6c" d="M 603 4863 
L 1178 4863 
L 1178 0 
L 603 0 
L 603 4863 
z
" transform="scale(0.015625)"/>
      </defs>
      <use xlink:href="#DejaVuSans-4c"/>
      <use xlink:href="#DejaVuSans-6f" x="53.962891"/>
      <use xlink:href="#DejaVuSans-63" x="115.144531"/>
      <use xlink:href="#DejaVuSans-61" x="170.125"/>
      <use xlink:href="#DejaVuSans-6c" x="231.404297"/>
      <use xlink:href="#DejaVuSans-2d" x="259.1875"/>
      <use xlink:href="#DejaVuSans-64" x="295.271484"/>
      <use xlink:href="#DejaVuSans-65" x="358.748047"/>
      <use xlink:href="#DejaVuSans-67" x="420.271484"/>
      <use xlink:href="#DejaVuSans-72" x="483.748047"/>
      <use xlink:href="#DejaVuSans-65" x="522.611328"/>
      <use xlink:href="#DejaVuSans-65" x="584.134766"/>
     </g>
    </g>
    <g id="line2d_36">
     <path d="M 243.554313 29.976562 
L 253.554313 29.976562 
L 263.554313 29.976562 
" style="fill: none; stroke: #9467bd; stroke-width: 2; stroke-linecap: square"/>
     <g>
      <use xlink:href="#mc09d2063ed" x="253.554313" y="29.976562" style="fill: #9467bd; stroke: #9467bd; stroke-linejoin: miter"/>
     </g>
    </g>
    <g id="text_17">
     <!-- FMMC -->
     <g transform="translate(271.554313 33.476562) scale(0.1 -0.1)">
      <defs>
       <path id="DejaVuSans-46" d="M 628 4666 
L 3309 4666 
L 3309 4134 
L 1259 4134 
L 1259 2759 
L 3109 2759 
L 3109 2228 
L 1259 2228 
L 1259 0 
L 628 0 
L 628 4666 
z
" transform="scale(0.015625)"/>
      </defs>
      <use xlink:href="#DejaVuSans-46"/>
      <use xlink:href="#DejaVuSans-4d" x="57.519531"/>
      <use xlink:href="#DejaVuSans-4d" x="143.798828"/>
      <use xlink:href="#DejaVuSans-43" x="230.078125"/>
     </g>
    </g>
    <g id="line2d_37">
     <path d="M 356.124625 15.298437 
L 366.124625 15.298437 
L 376.124625 15.298437 
" style="fill: none; stroke: #8c564b; stroke-width: 2; stroke-linecap: square"/>
     <g>
      <use xlink:href="#m550beecc1f" x="366.124625" y="15.298437" style="fill: #8c564b; stroke: #8c564b; stroke-linejoin: miter"/>
     </g>
    </g>
    <g id="text_18">
     <!-- FDLA -->
     <g transform="translate(384.124625 18.798437) scale(0.1 -0.1)">
      <defs>
       <path id="DejaVuSans-44" d="M 1259 4147 
L 1259 519 
L 2022 519 
Q 2988 519 3436 956 
Q 3884 1394 3884 2338 
Q 3884 3275 3436 3711 
Q 2988 4147 2022 4147 
L 1259 4147 
z
M 628 4666 
L 1925 4666 
Q 3281 4666 3915 4102 
Q 4550 3538 4550 2338 
Q 4550 1131 3912 565 
Q 3275 0 1925 0 
L 628 0 
L 628 4666 
z
" transform="scale(0.015625)"/>
       <path id="DejaVuSans-41" d="M 2188 4044 
L 1331 1722 
L 3047 1722 
L 2188 4044 
z
M 1831 4666 
L 2547 4666 
L 4325 0 
L 3669 0 
L 3244 1197 
L 1141 1197 
L 716 0 
L 50 0 
L 1831 4666 
z
" transform="scale(0.015625)"/>
      </defs>
      <use xlink:href="#DejaVuSans-46"/>
      <use xlink:href="#DejaVuSans-44" x="57.519531"/>
      <use xlink:href="#DejaVuSans-4c" x="134.521484"/>
      <use xlink:href="#DejaVuSans-41" x="192.484375"/>
     </g>
    </g>
    <g id="line2d_38">
     <path d="M 356.124625 29.976562 
L 366.124625 29.976562 
L 376.124625 29.976562 
" style="fill: none; stroke: #e377c2; stroke-width: 2; stroke-linecap: square"/>
     <g>
      <use xlink:href="#med9244f676" x="366.124625" y="29.976562" style="fill: #e377c2; stroke: #e377c2"/>
     </g>
    </g>
    <g id="text_19">
     <!-- OPT -->
     <g transform="translate(384.124625 33.476562) scale(0.1 -0.1)">
      <defs>
       <path id="DejaVuSans-4f" d="M 2522 4238 
Q 1834 4238 1429 3725 
Q 1025 3213 1025 2328 
Q 1025 1447 1429 934 
Q 1834 422 2522 422 
Q 3209 422 3611 934 
Q 4013 1447 4013 2328 
Q 4013 3213 3611 3725 
Q 3209 4238 2522 4238 
z
M 2522 4750 
Q 3503 4750 4090 4092 
Q 4678 3434 4678 2328 
Q 4678 1225 4090 567 
Q 3503 -91 2522 -91 
Q 1538 -91 948 565 
Q 359 1222 359 2328 
Q 359 3434 948 4092 
Q 1538 4750 2522 4750 
z
" transform="scale(0.015625)"/>
       <path id="DejaVuSans-50" d="M 1259 4147 
L 1259 2394 
L 2053 2394 
Q 2494 2394 2734 2622 
Q 2975 2850 2975 3272 
Q 2975 3691 2734 3919 
Q 2494 4147 2053 4147 
L 1259 4147 
z
M 628 4666 
L 2053 4666 
Q 2838 4666 3239 4311 
Q 3641 3956 3641 3272 
Q 3641 2581 3239 2228 
Q 2838 1875 2053 1875 
L 1259 1875 
L 1259 0 
L 628 0 
L 628 4666 
z
" transform="scale(0.015625)"/>
       <path id="DejaVuSans-54" d="M -19 4666 
L 3928 4666 
L 3928 4134 
L 2272 4134 
L 2272 0 
L 1638 0 
L 1638 4134 
L -19 4134 
L -19 4666 
z
" transform="scale(0.015625)"/>
      </defs>
      <use xlink:href="#DejaVuSans-4f"/>
      <use xlink:href="#DejaVuSans-50" x="78.710938"/>
      <use xlink:href="#DejaVuSans-54" x="139.013672"/>
     </g>
    </g>
   </g>
  </g>
  <g id="text_20">
   <!-- Timesteps -->
   <g transform="translate(197.599313 359.128375) scale(0.12 -0.12)">
    <defs>
     <path id="DejaVuSans-70" d="M 1159 525 
L 1159 -1331 
L 581 -1331 
L 581 3500 
L 1159 3500 
L 1159 2969 
Q 1341 3281 1617 3432 
Q 1894 3584 2278 3584 
Q 2916 3584 3314 3078 
Q 3713 2572 3713 1747 
Q 3713 922 3314 415 
Q 2916 -91 2278 -91 
Q 1894 -91 1617 61 
Q 1341 213 1159 525 
z
M 3116 1747 
Q 3116 2381 2855 2742 
Q 2594 3103 2138 3103 
Q 1681 3103 1420 2742 
Q 1159 2381 1159 1747 
Q 1159 1113 1420 752 
Q 1681 391 2138 391 
Q 2594 391 2855 752 
Q 3116 1113 3116 1747 
z
" transform="scale(0.015625)"/>
    </defs>
    <use xlink:href="#DejaVuSans-54"/>
    <use xlink:href="#DejaVuSans-69" x="57.958984"/>
    <use xlink:href="#DejaVuSans-6d" x="85.742188"/>
    <use xlink:href="#DejaVuSans-65" x="183.154297"/>
    <use xlink:href="#DejaVuSans-73" x="244.677734"/>
    <use xlink:href="#DejaVuSans-74" x="296.777344"/>
    <use xlink:href="#DejaVuSans-65" x="335.986328"/>
    <use xlink:href="#DejaVuSans-70" x="397.509766"/>
    <use xlink:href="#DejaVuSans-73" x="460.986328"/>
   </g>
  </g>
  <g id="text_21">
   <!-- Mean estimate error for the best arm -->
   <g transform="translate(16.318125 303.952187) rotate(-90) scale(0.12 -0.12)">
    <defs>
     <path id="DejaVuSans-66" d="M 2375 4863 
L 2375 4384 
L 1825 4384 
Q 1516 4384 1395 4259 
Q 1275 4134 1275 3809 
L 1275 3500 
L 2222 3500 
L 2222 3053 
L 1275 3053 
L 1275 0 
L 697 0 
L 697 3053 
L 147 3053 
L 147 3500 
L 697 3500 
L 697 3744 
Q 697 4328 969 4595 
Q 1241 4863 1831 4863 
L 2375 4863 
z
" transform="scale(0.015625)"/>
     <path id="DejaVuSans-68" d="M 3513 2113 
L 3513 0 
L 2938 0 
L 2938 2094 
Q 2938 2591 2744 2837 
Q 2550 3084 2163 3084 
Q 1697 3084 1428 2787 
Q 1159 2491 1159 1978 
L 1159 0 
L 581 0 
L 581 4863 
L 1159 4863 
L 1159 2956 
Q 1366 3272 1645 3428 
Q 1925 3584 2291 3584 
Q 2894 3584 3203 3211 
Q 3513 2838 3513 2113 
z
" transform="scale(0.015625)"/>
     <path id="DejaVuSans-62" d="M 3116 1747 
Q 3116 2381 2855 2742 
Q 2594 3103 2138 3103 
Q 1681 3103 1420 2742 
Q 1159 2381 1159 1747 
Q 1159 1113 1420 752 
Q 1681 391 2138 391 
Q 2594 391 2855 752 
Q 3116 1113 3116 1747 
z
M 1159 2969 
Q 1341 3281 1617 3432 
Q 1894 3584 2278 3584 
Q 2916 3584 3314 3078 
Q 3713 2572 3713 1747 
Q 3713 922 3314 415 
Q 2916 -91 2278 -91 
Q 1894 -91 1617 61 
Q 1341 213 1159 525 
L 1159 0 
L 581 0 
L 581 4863 
L 1159 4863 
L 1159 2969 
z
" transform="scale(0.015625)"/>
    </defs>
    <use xlink:href="#DejaVuSans-4d"/>
    <use xlink:href="#DejaVuSans-65" x="86.279297"/>
    <use xlink:href="#DejaVuSans-61" x="147.802734"/>
    <use xlink:href="#DejaVuSans-6e" x="209.082031"/>
    <use xlink:href="#DejaVuSans-20" x="272.460938"/>
    <use xlink:href="#DejaVuSans-65" x="304.248047"/>
    <use xlink:href="#DejaVuSans-73" x="365.771484"/>
    <use xlink:href="#DejaVuSans-74" x="417.871094"/>
    <use xlink:href="#DejaVuSans-69" x="457.080078"/>
    <use xlink:href="#DejaVuSans-6d" x="484.863281"/>
    <use xlink:href="#DejaVuSans-61" x="582.275391"/>
    <use xlink:href="#DejaVuSans-74" x="643.554688"/>
    <use xlink:href="#DejaVuSans-65" x="682.763672"/>
    <use xlink:href="#DejaVuSans-20" x="744.287109"/>
    <use xlink:href="#DejaVuSans-65" x="776.074219"/>
    <use xlink:href="#DejaVuSans-72" x="837.597656"/>
    <use xlink:href="#DejaVuSans-72" x="876.960938"/>
    <use xlink:href="#DejaVuSans-6f" x="915.824219"/>
    <use xlink:href="#DejaVuSans-72" x="977.005859"/>
    <use xlink:href="#DejaVuSans-20" x="1018.119141"/>
    <use xlink:href="#DejaVuSans-66" x="1049.90625"/>
    <use xlink:href="#DejaVuSans-6f" x="1085.111328"/>
    <use xlink:href="#DejaVuSans-72" x="1146.292969"/>
    <use xlink:href="#DejaVuSans-20" x="1187.40625"/>
    <use xlink:href="#DejaVuSans-74" x="1219.193359"/>
    <use xlink:href="#DejaVuSans-68" x="1258.402344"/>
    <use xlink:href="#DejaVuSans-65" x="1321.78125"/>
    <use xlink:href="#DejaVuSans-20" x="1383.304688"/>
    <use xlink:href="#DejaVuSans-62" x="1415.091797"/>
    <use xlink:href="#DejaVuSans-65" x="1478.568359"/>
    <use xlink:href="#DejaVuSans-73" x="1540.091797"/>
    <use xlink:href="#DejaVuSans-74" x="1592.191406"/>
    <use xlink:href="#DejaVuSans-20" x="1631.400391"/>
    <use xlink:href="#DejaVuSans-61" x="1663.1875"/>
    <use xlink:href="#DejaVuSans-72" x="1724.466797"/>
    <use xlink:href="#DejaVuSans-6d" x="1763.830078"/>
   </g>
  </g>
 </g>
 <defs>
  <clipPath id="pd30a6a9014">
   <rect x="55.584" y="60.952" width="357.12" height="266.112"/>
  </clipPath>
 </defs>
</svg>
